<svg class="main-svg" xmlns="http://www.w3.org/2000/svg" xmlns:xlink="http://www.w3.org/1999/xlink" width="700" height="500" style="" viewBox="0 0 700 500"><rect x="0" y="0" width="700" height="500" style="fill: rgb(255, 255, 255); fill-opacity: 1;"/><defs id="defs-daa291"><g class="clips"><clipPath id="clipdaa291xyplot" class="plotclip"><rect width="540" height="320"/></clipPath><clipPath class="axesclip" id="clipdaa291x"><rect x="80" y="0" width="540" height="500"/></clipPath><clipPath class="axesclip" id="clipdaa291y"><rect x="0" y="100" width="700" height="320"/></clipPath><clipPath class="axesclip" id="clipdaa291xy"><rect x="80" y="100" width="540" height="320"/></clipPath></g><g class="gradients"/><g class="patterns"/></defs><g class="bglayer"><rect class="bg" x="80" y="100" width="540" height="320" style="fill: rgb(229, 236, 246); fill-opacity: 1; stroke-width: 0;"/></g><g class="layer-below"><g class="imagelayer"/><g class="shapelayer"/></g><g class="cartesianlayer"><g class="subplot xy"><g class="layer-subplot"><g class="shapelayer"/><g class="imagelayer"/></g><g class="minor-gridlayer"><g class="x"/><g class="y"/></g><g class="gridlayer"><g class="x"><path class="xgrid crisp" transform="translate(143.46,0)" d="M0,100v320" style="stroke: rgb(255, 255, 255); stroke-opacity: 1; stroke-width: 1px;"/><path class="xgrid crisp" transform="translate(214.1,0)" d="M0,100v320" style="stroke: rgb(255, 255, 255); stroke-opacity: 1; stroke-width: 1px;"/><path class="xgrid crisp" transform="translate(287.14,0)" d="M0,100v320" style="stroke: rgb(255, 255, 255); stroke-opacity: 1; stroke-width: 1px;"/><path class="xgrid crisp" transform="translate(360.18,0)" d="M0,100v320" style="stroke: rgb(255, 255, 255); stroke-opacity: 1; stroke-width: 1px;"/><path class="xgrid crisp" transform="translate(434.41,0)" d="M0,100v320" style="stroke: rgb(255, 255, 255); stroke-opacity: 1; stroke-width: 1px;"/><path class="xgrid crisp" transform="translate(507.45,0)" d="M0,100v320" style="stroke: rgb(255, 255, 255); stroke-opacity: 1; stroke-width: 1px;"/><path class="xgrid crisp" transform="translate(580.49,0)" d="M0,100v320" style="stroke: rgb(255, 255, 255); stroke-opacity: 1; stroke-width: 1px;"/></g><g class="y"><path class="ygrid crisp" transform="translate(0,334.87)" d="M80,0h540" style="stroke: rgb(255, 255, 255); stroke-opacity: 1; stroke-width: 1px;"/><path class="ygrid crisp" transform="translate(0,291.68)" d="M80,0h540" style="stroke: rgb(255, 255, 255); stroke-opacity: 1; stroke-width: 1px;"/><path class="ygrid crisp" transform="translate(0,248.49)" d="M80,0h540" style="stroke: rgb(255, 255, 255); stroke-opacity: 1; stroke-width: 1px;"/><path class="ygrid crisp" transform="translate(0,205.3)" d="M80,0h540" style="stroke: rgb(255, 255, 255); stroke-opacity: 1; stroke-width: 1px;"/><path class="ygrid crisp" transform="translate(0,162.11)" d="M80,0h540" style="stroke: rgb(255, 255, 255); stroke-opacity: 1; stroke-width: 1px;"/><path class="ygrid crisp" transform="translate(0,118.92)" d="M80,0h540" style="stroke: rgb(255, 255, 255); stroke-opacity: 1; stroke-width: 1px;"/></g></g><g class="zerolinelayer"><path class="yzl zl crisp" transform="translate(0,378.06)" d="M80,0h540" style="stroke: rgb(255, 255, 255); stroke-opacity: 1; stroke-width: 2px;"/></g><path class="xlines-below"/><path class="ylines-below"/><g class="overlines-below"/><g class="xaxislayer-below"/><g class="yaxislayer-below"/><g class="overaxes-below"/><g class="plot" transform="translate(80,100)" clip-path="url(#clipdaa291xyplot)"><g class="scatterlayer mlayer"><g class="trace scatter trace9e56e0" style="stroke-miterlimit: 2;"><g class="fills"><g><path class="js-fill" d="M540,278.06L0,278.06L0,278.12L3.59,272.46L4.79,272.19L13.17,271.45L14.37,271.26L17.96,269.08L19.16,269.96L29.93,270.49L31.13,270.42L32.33,269.63L33.53,271.38L38.31,270.69L39.51,270.72L41.91,273.06L43.1,272.9L45.5,271.79L46.7,271.78L50.29,271.39L51.49,269.54L52.68,270.02L53.88,269.53L56.27,268.43L57.47,268.11L59.87,267.93L61.06,265.84L63.46,265.88L64.66,263.39L65.85,263.02L67.05,265.82L68.25,263.92L69.45,264.28L71.84,263.85L73.04,264.33L74.24,264.33L75.43,262.43L76.63,261.08L77.83,261.53L79.02,259.28L80.22,259.07L82.62,256.26L83.81,256.1L86.21,257.22L87.41,255.47L88.6,254.34L89.8,239.92L91,241.26L92.2,241.03L93.39,236.56L94.59,236.29L95.79,236.64L96.98,231.09L98.18,262.72L99.38,264.42L100.58,261.83L101.77,250.25L102.97,250.3L104.17,249.56L105.37,244.22L106.56,243.66L107.76,216.33L108.96,215.34L110.16,207.84L111.35,208.46L112.55,200.42L113.75,200.7L114.94,176.19L116.14,176.57L118.54,175.27L119.73,165.29L120.93,165.28L122.13,166.27L123.33,151.89L124.52,151.94L126.92,149.94L128.12,143.79L129.31,133.12L130.51,131.79L132.9,131.16L134.1,128.37L135.3,128.33L136.5,120.31L138.89,120.78L140.09,115.16L142.48,112.75L143.68,109.5L144.88,114.62L146.08,114.79L147.27,117.87L148.47,115.2L150.86,91.03L152.06,91.3L153.26,85.23L154.46,61.88L155.65,63.11L156.85,53.53L158.05,39.02L159.25,37.41L162.84,36.37L164.04,37.69L165.23,37.79L166.43,40.99L167.63,18.92L168.82,16L170.02,16L171.22,26.81L173.61,27.28L174.81,26.4L177.21,26.55L178.4,26.2L180.8,55.38L182,51.42L184.39,51.53L185.59,49.61L187.98,51L189.18,50.78L190.38,57.43L191.57,56.57L192.77,55.82L193.97,207.66L195.17,66.55L196.36,65.2L203.55,63.69L204.75,55.62L205.94,54.03L207.14,58.46L208.34,46.79L209.53,47.92L210.73,48.22L211.93,51.71L214.32,51.34L215.52,52.92L216.72,50.84L217.92,50.53L222.71,50.53L223.9,51.59L229.89,51.19L231.09,49.16L232.28,50.83L233.48,65.21L234.68,77.74L235.88,80.19L237.07,80.9L238.27,74.54L239.47,49.1L240.67,78.29L241.86,97.91L243.06,97.85L244.26,90.63L245.45,89.52L247.85,86.32L249.05,86.6L251.44,86.12L252.64,84.35L253.84,89.37L255.03,108.2L256.23,108.43L257.43,104.39L258.63,112L259.82,112.78L262.22,107.93L263.41,133.03L264.61,152.95L265.81,153.08L267.01,153.31L268.2,171.08L269.4,161.09L270.6,161.09L271.8,162.97L272.99,162.4L274.19,165.57L275.39,166.5L276.59,166.02L277.78,179.26L278.98,180.91L280.18,195.06L284.97,191.91L286.16,192.26L287.36,176.46L288.56,173.56L289.76,149.84L290.95,149.87L293.35,151.5L294.55,151.79L295.74,155.36L296.94,155.4L298.14,161.12L299.33,160.43L301.73,165.87L302.93,182.43L304.12,184.13L305.32,188.77L306.52,189.08L307.72,184.21L310.11,193.46L311.31,193.69L312.51,195.5L313.7,194.27L314.9,198.72L316.1,199.83L319.69,200.83L320.89,205.49L322.08,205.63L323.28,206.84L325.68,207.46L326.87,208.46L328.07,208.2L329.27,230.25L334.06,230.95L335.25,229.38L337.65,228.92L338.85,230.13L340.04,229.76L341.24,230.95L343.64,237.92L344.83,238.34L346.03,239.17L347.23,238.79L348.43,239.53L349.62,268.51L350.82,267.68L352.02,267.85L358,267.89L359.2,264.52L361.6,256.56L362.79,256.16L366.39,255.78L367.58,256.39L374.77,256.54L375.96,254.34L377.16,258.24L378.36,258.53L381.95,258.64L383.15,260.29L384.35,264.1L385.54,264.14L390.33,264.14L391.53,264.08L402.31,264.56L403.5,268.09L407.1,268.11L408.29,271.36L409.49,274.52L410.69,274.31L411.88,283.57L413.08,283.74L416.67,283.97L417.87,282.24L419.07,282.28L420.27,280.57L427.45,280.91L428.65,282.57L429.84,282.65L431.04,286.01L437.03,286.23L438.23,287.96L439.42,290.85L440.62,290.89L443.02,291.45L444.21,291.46L449,291.61L450.2,286.54L460.98,286.82L462.17,285.64L465.76,285.37L466.96,286.01L474.15,286.45L475.34,292.03L489.71,292.59L490.91,293.2L500.49,293.7L501.69,293.08L508.87,293.72L510.07,293.78L511.26,292.81L512.46,293.93L516.05,294.01L517.25,294.97L519.65,297.18L520.84,296.17L525.63,296.22L526.83,302.79L537.61,303L538.8,304L540,304" style="fill: rgb(99, 110, 250); fill-opacity: 0.5; stroke-width: 0;"/></g></g><g class="errorbars"/><g class="lines"><path class="js-line" d="M0,278.12L3.59,272.46L4.79,272.19L13.17,271.45L14.37,271.26L17.96,269.08L19.16,269.96L29.93,270.49L31.13,270.42L32.33,269.63L33.53,271.38L38.31,270.69L39.51,270.72L41.91,273.06L43.1,272.9L45.5,271.79L46.7,271.78L50.29,271.39L51.49,269.54L52.68,270.02L53.88,269.53L56.27,268.43L57.47,268.11L59.87,267.93L61.06,265.84L63.46,265.88L64.66,263.39L65.85,263.02L67.05,265.82L68.25,263.92L69.45,264.28L71.84,263.85L73.04,264.33L74.24,264.33L75.43,262.43L76.63,261.08L77.83,261.53L79.02,259.28L80.22,259.07L82.62,256.26L83.81,256.1L86.21,257.22L87.41,255.47L88.6,254.34L89.8,239.92L91,241.26L92.2,241.03L93.39,236.56L94.59,236.29L95.79,236.64L96.98,231.09L98.18,262.72L99.38,264.42L100.58,261.83L101.77,250.25L102.97,250.3L104.17,249.56L105.37,244.22L106.56,243.66L107.76,216.33L108.96,215.34L110.16,207.84L111.35,208.46L112.55,200.42L113.75,200.7L114.94,176.19L116.14,176.57L118.54,175.27L119.73,165.29L120.93,165.28L122.13,166.27L123.33,151.89L124.52,151.94L126.92,149.94L128.12,143.79L129.31,133.12L130.51,131.79L132.9,131.16L134.1,128.37L135.3,128.33L136.5,120.31L138.89,120.78L140.09,115.16L142.48,112.75L143.68,109.5L144.88,114.62L146.08,114.79L147.27,117.87L148.47,115.2L150.86,91.03L152.06,91.3L153.26,85.23L154.46,61.88L155.65,63.11L156.85,53.53L158.05,39.02L159.25,37.41L162.84,36.37L164.04,37.69L165.23,37.79L166.43,40.99L167.63,18.92L168.82,16L170.02,16L171.22,26.81L173.61,27.28L174.81,26.4L177.21,26.55L178.4,26.2L180.8,55.38L182,51.42L184.39,51.53L185.59,49.61L187.98,51L189.18,50.78L190.38,57.43L191.57,56.57L192.77,55.82L193.97,207.66L195.17,66.55L196.36,65.2L203.55,63.69L204.75,55.62L205.94,54.03L207.14,58.46L208.34,46.79L209.53,47.92L210.73,48.22L211.93,51.71L214.32,51.34L215.52,52.92L216.72,50.84L217.92,50.53L222.71,50.53L223.9,51.59L229.89,51.19L231.09,49.16L232.28,50.83L233.48,65.21L234.68,77.74L235.88,80.19L237.07,80.9L238.27,74.54L239.47,49.1L240.67,78.29L241.86,97.91L243.06,97.85L244.26,90.63L245.45,89.52L247.85,86.32L249.05,86.6L251.44,86.12L252.64,84.35L253.84,89.37L255.03,108.2L256.23,108.43L257.43,104.39L258.63,112L259.82,112.78L262.22,107.93L263.41,133.03L264.61,152.95L265.81,153.08L267.01,153.31L268.2,171.08L269.4,161.09L270.6,161.09L271.8,162.97L272.99,162.4L274.19,165.57L275.39,166.5L276.59,166.02L277.78,179.26L278.98,180.91L280.18,195.06L284.97,191.91L286.16,192.26L287.36,176.46L288.56,173.56L289.76,149.84L290.95,149.87L293.35,151.5L294.55,151.79L295.74,155.36L296.94,155.4L298.14,161.12L299.33,160.43L301.73,165.87L302.93,182.43L304.12,184.13L305.32,188.77L306.52,189.08L307.72,184.21L310.11,193.46L311.31,193.69L312.51,195.5L313.7,194.27L314.9,198.72L316.1,199.83L319.69,200.83L320.89,205.49L322.08,205.63L323.28,206.84L325.68,207.46L326.87,208.46L328.07,208.2L329.27,230.25L334.06,230.95L335.25,229.38L337.65,228.92L338.85,230.13L340.04,229.76L341.24,230.95L343.64,237.92L344.83,238.34L346.03,239.17L347.23,238.79L348.43,239.53L349.62,268.51L350.82,267.68L352.02,267.85L358,267.89L359.2,264.52L361.6,256.56L362.79,256.16L366.39,255.78L367.58,256.39L374.77,256.54L375.96,254.34L377.16,258.24L378.36,258.53L381.95,258.64L383.15,260.29L384.35,264.1L385.54,264.14L390.33,264.14L391.53,264.08L402.31,264.56L403.5,268.09L407.1,268.11L408.29,271.36L409.49,274.52L410.69,274.31L411.88,283.57L413.08,283.74L416.67,283.97L417.87,282.24L419.07,282.28L420.27,280.57L427.45,280.91L428.65,282.57L429.84,282.65L431.04,286.01L437.03,286.23L438.23,287.96L439.42,290.85L440.62,290.89L443.02,291.45L444.21,291.46L449,291.61L450.2,286.54L460.98,286.82L462.17,285.64L465.76,285.37L466.96,286.01L474.15,286.45L475.34,292.03L489.71,292.59L490.91,293.2L500.49,293.7L501.69,293.08L508.87,293.72L510.07,293.78L511.26,292.81L512.46,293.93L516.05,294.01L517.25,294.97L519.65,297.18L520.84,296.17L525.63,296.22L526.83,302.79L537.61,303L538.8,304L540,304" style="vector-effect: none; fill: none; stroke: rgb(99, 110, 250); stroke-opacity: 1; stroke-width: 2px; opacity: 1;"/></g><g class="points"/><g class="text"/></g></g></g><g class="overplot"/><path class="xlines-above crisp" d="M0,0" style="fill: none;"/><path class="ylines-above crisp" d="M0,0" style="fill: none;"/><g class="overlines-above"/><g class="xaxislayer-above"><g class="xtick"><text text-anchor="middle" x="0" y="433" transform="translate(143.46,0)" style="font-family: 'Open Sans', verdana, arial, sans-serif; font-size: 12px; fill: rgb(42, 63, 95); fill-opacity: 1; white-space: pre; opacity: 1;">Jan 2023</text></g><g class="xtick"><text text-anchor="middle" x="0" y="433" style="font-family: 'Open Sans', verdana, arial, sans-serif; font-size: 12px; fill: rgb(42, 63, 95); fill-opacity: 1; white-space: pre; opacity: 1;" transform="translate(214.1,0)">Mar 2023</text></g><g class="xtick"><text text-anchor="middle" x="0" y="433" style="font-family: 'Open Sans', verdana, arial, sans-serif; font-size: 12px; fill: rgb(42, 63, 95); fill-opacity: 1; white-space: pre; opacity: 1;" transform="translate(287.14,0)">May 2023</text></g><g class="xtick"><text text-anchor="middle" x="0" y="433" style="font-family: 'Open Sans', verdana, arial, sans-serif; font-size: 12px; fill: rgb(42, 63, 95); fill-opacity: 1; white-space: pre; opacity: 1;" transform="translate(360.18,0)">Jul 2023</text></g><g class="xtick"><text text-anchor="middle" x="0" y="433" style="font-family: 'Open Sans', verdana, arial, sans-serif; font-size: 12px; fill: rgb(42, 63, 95); fill-opacity: 1; white-space: pre; opacity: 1;" transform="translate(434.41,0)">Sep 2023</text></g><g class="xtick"><text text-anchor="middle" x="0" y="433" style="font-family: 'Open Sans', verdana, arial, sans-serif; font-size: 12px; fill: rgb(42, 63, 95); fill-opacity: 1; white-space: pre; opacity: 1;" transform="translate(507.45,0)">Nov 2023</text></g><g class="xtick"><text text-anchor="middle" x="0" y="433" style="font-family: 'Open Sans', verdana, arial, sans-serif; font-size: 12px; fill: rgb(42, 63, 95); fill-opacity: 1; white-space: pre; opacity: 1;" transform="translate(580.49,0)">Jan 2024</text></g></g><g class="yaxislayer-above"><g class="ytick"><text text-anchor="end" x="79" y="4.199999999999999" transform="translate(0,378.06)" style="font-family: 'Open Sans', verdana, arial, sans-serif; font-size: 12px; fill: rgb(42, 63, 95); fill-opacity: 1; white-space: pre; opacity: 1;">$0</text></g><g class="ytick"><text text-anchor="end" x="79" y="4.199999999999999" style="font-family: 'Open Sans', verdana, arial, sans-serif; font-size: 12px; fill: rgb(42, 63, 95); fill-opacity: 1; white-space: pre; opacity: 1;" transform="translate(0,334.87)">$5M</text></g><g class="ytick"><text text-anchor="end" x="79" y="4.199999999999999" style="font-family: 'Open Sans', verdana, arial, sans-serif; font-size: 12px; fill: rgb(42, 63, 95); fill-opacity: 1; white-space: pre; opacity: 1;" transform="translate(0,291.68)">$10M</text></g><g class="ytick"><text text-anchor="end" x="79" y="4.199999999999999" style="font-family: 'Open Sans', verdana, arial, sans-serif; font-size: 12px; fill: rgb(42, 63, 95); fill-opacity: 1; white-space: pre; opacity: 1;" transform="translate(0,248.49)">$15M</text></g><g class="ytick"><text text-anchor="end" x="79" y="4.199999999999999" style="font-family: 'Open Sans', verdana, arial, sans-serif; font-size: 12px; fill: rgb(42, 63, 95); fill-opacity: 1; white-space: pre; opacity: 1;" transform="translate(0,205.3)">$20M</text></g><g class="ytick"><text text-anchor="end" x="79" y="4.199999999999999" style="font-family: 'Open Sans', verdana, arial, sans-serif; font-size: 12px; fill: rgb(42, 63, 95); fill-opacity: 1; white-space: pre; opacity: 1;" transform="translate(0,162.11)">$25M</text></g><g class="ytick"><text text-anchor="end" x="79" y="4.199999999999999" style="font-family: 'Open Sans', verdana, arial, sans-serif; font-size: 12px; fill: rgb(42, 63, 95); fill-opacity: 1; white-space: pre; opacity: 1;" transform="translate(0,118.92)">$30M</text></g></g><g class="overaxes-above"/></g></g><g class="polarlayer"/><g class="smithlayer"/><g class="ternarylayer"/><g class="geolayer"/><g class="funnelarealayer"/><g class="pielayer"/><g class="iciclelayer"/><g class="treemaplayer"/><g class="sunburstlayer"/><g class="glimages"/><defs id="topdefs-daa291"><g class="clips"/></defs><g class="layer-above"><g class="imagelayer"/><g class="shapelayer"/></g><g class="infolayer"><g class="g-gtitle"><text class="gtitle" x="35" y="50" text-anchor="start" dy="0em" style="font-family: 'Open Sans', verdana, arial, sans-serif; font-size: 17px; fill: rgb(42, 63, 95); opacity: 1; font-weight: normal; white-space: pre;"><tspan class="line" dy="0em" x="35" y="50">Rocket Pool - WETH/rETH: Beethoven X</tspan><tspan class="line" dy="1.3em" x="35" y="50">​<tspan style="font-size:70%" dy="-0.6em">Cumulative Net Flows since Program Announcement, Until Program End + 30 Days</tspan><tspan dy="0.42em">​</tspan></tspan></text></g><g class="g-xtitle"><text class="xtitle" x="350" y="460.3" text-anchor="middle" style="font-family: 'Open Sans', verdana, arial, sans-serif; font-size: 14px; fill: rgb(42, 63, 95); opacity: 1; font-weight: normal; white-space: pre;">Day</text></g><g class="g-ytitle"><text class="ytitle" transform="rotate(-90,24.668750000000003,260)" x="24.668750000000003" y="260" text-anchor="middle" style="font-family: 'Open Sans', verdana, arial, sans-serif; font-size: 14px; fill: rgb(42, 63, 95); opacity: 1; font-weight: normal; white-space: pre;">Cumulative Net Flows (USD)</text></g></g></svg>