<svg class="main-svg" xmlns="http://www.w3.org/2000/svg" xmlns:xlink="http://www.w3.org/1999/xlink" width="700" height="500" style="" viewBox="0 0 700 500"><rect x="0" y="0" width="700" height="500" style="fill: rgb(255, 255, 255); fill-opacity: 1;"/><defs id="defs-8253e1"><g class="clips"><clipPath id="clip8253e1xyplot" class="plotclip"><rect width="540" height="320"/></clipPath><clipPath class="axesclip" id="clip8253e1x"><rect x="80" y="0" width="540" height="500"/></clipPath><clipPath class="axesclip" id="clip8253e1y"><rect x="0" y="100" width="700" height="320"/></clipPath><clipPath class="axesclip" id="clip8253e1xy"><rect x="80" y="100" width="540" height="320"/></clipPath></g><g class="gradients"/><g class="patterns"/></defs><g class="bglayer"><rect class="bg" x="80" y="100" width="540" height="320" style="fill: rgb(229, 236, 246); fill-opacity: 1; stroke-width: 0;"/></g><g class="layer-below"><g class="imagelayer"/><g class="shapelayer"/></g><g class="cartesianlayer"><g class="subplot xy"><g class="layer-subplot"><g class="shapelayer"/><g class="imagelayer"/></g><g class="minor-gridlayer"><g class="x"/><g class="y"/></g><g class="gridlayer"><g class="x"><path class="xgrid crisp" transform="translate(155.87,0)" d="M0,100v320" style="stroke: rgb(255, 255, 255); stroke-opacity: 1; stroke-width: 1px;"/><path class="xgrid crisp" transform="translate(294.21000000000004,0)" d="M0,100v320" style="stroke: rgb(255, 255, 255); stroke-opacity: 1; stroke-width: 1px;"/><path class="xgrid crisp" transform="translate(428.1,0)" d="M0,100v320" style="stroke: rgb(255, 255, 255); stroke-opacity: 1; stroke-width: 1px;"/><path class="xgrid crisp" transform="translate(566.45,0)" d="M0,100v320" style="stroke: rgb(255, 255, 255); stroke-opacity: 1; stroke-width: 1px;"/></g><g class="y"><path class="ygrid crisp" transform="translate(0,345.93)" d="M80,0h540" style="stroke: rgb(255, 255, 255); stroke-opacity: 1; stroke-width: 1px;"/><path class="ygrid crisp" transform="translate(0,271.86)" d="M80,0h540" style="stroke: rgb(255, 255, 255); stroke-opacity: 1; stroke-width: 1px;"/><path class="ygrid crisp" transform="translate(0,197.8)" d="M80,0h540" style="stroke: rgb(255, 255, 255); stroke-opacity: 1; stroke-width: 1px;"/><path class="ygrid crisp" transform="translate(0,123.73)" d="M80,0h540" style="stroke: rgb(255, 255, 255); stroke-opacity: 1; stroke-width: 1px;"/></g></g><g class="zerolinelayer"><path class="yzl zl crisp" transform="translate(0,420)" d="M80,0h540" style="stroke: rgb(255, 255, 255); stroke-opacity: 1; stroke-width: 2px;"/></g><path class="xlines-below"/><path class="ylines-below"/><g class="overlines-below"/><g class="xaxislayer-below"/><g class="yaxislayer-below"/><g class="overaxes-below"/><g class="plot" transform="translate(80,100)" clip-path="url(#clip8253e1xyplot)"><g class="scatterlayer mlayer"><g class="trace scatter trace90f3fd" style="stroke-miterlimit: 2;"><g class="fills"><g><path class="js-fill" d="M540,320L0,320L0,51.93L4.46,61.13L8.93,60.13L17.85,57.24L22.31,56.51L26.78,55.53L31.24,61.04L35.7,62.5L40.17,59.45L44.63,59.25L49.09,54.92L53.55,54.58L58.02,50.16L71.4,48.2L75.87,48.92L80.33,53.08L84.79,51.84L93.72,51.24L98.18,50.01L102.64,49.74L107.11,28.12L111.57,26.62L116.03,22.29L120.5,22.18L124.96,23L129.42,28.06L133.88,26.48L138.35,23.08L142.81,25.41L147.27,34.02L151.74,31.9L160.66,33.09L165.12,32.79L178.51,32.62L182.98,22.51L187.44,23.69L191.9,20.79L196.36,20.88L200.83,16L205.29,16.15L209.75,19.38L214.21,23.01L218.68,22.77L223.14,22.79L227.6,43.76L232.07,43.01L236.53,43.05L240.99,43.19L245.45,42.25L249.92,37.53L254.38,37.37L258.84,39.37L263.31,39.73L281.16,41.64L285.62,41.62L294.55,37.17L299.01,36.85L303.47,36.74L307.93,37.45L312.4,38.5L316.86,40.8L325.79,43.93L330.25,44.18L334.71,44.77L339.17,50.22L348.1,70.23L352.56,77.12L357.02,80.13L361.49,81.64L365.95,82.51L370.41,82.55L374.88,82.5L379.34,86.58L383.8,86.41L388.26,97.25L392.73,98.55L397.19,103.27L401.65,110.01L406.12,109.92L415.04,112.64L419.5,134.02L428.43,135.22L432.89,137.41L437.36,140.35L441.82,139.84L446.28,140.85L450.74,143.02L455.21,151.54L459.67,151.5L464.13,156.3L468.6,157.72L477.52,159.13L481.98,197.63L486.45,207.99L490.91,209.81L495.37,210.06L499.83,217.54L504.3,215.49L508.76,215.98L513.22,215.06L517.69,214.98L526.61,215.83L531.07,220.07L540,220.07" style="fill: rgb(99, 110, 250); fill-opacity: 0.5; stroke-width: 0;"/></g></g><g class="errorbars"/><g class="lines"><path class="js-line" d="M0,51.93L4.46,61.13L8.93,60.13L17.85,57.24L22.31,56.51L26.78,55.53L31.24,61.04L35.7,62.5L40.17,59.45L44.63,59.25L49.09,54.92L53.55,54.58L58.02,50.16L71.4,48.2L75.87,48.92L80.33,53.08L84.79,51.84L93.72,51.24L98.18,50.01L102.64,49.74L107.11,28.12L111.57,26.62L116.03,22.29L120.5,22.18L124.96,23L129.42,28.06L133.88,26.48L138.35,23.08L142.81,25.41L147.27,34.02L151.74,31.9L160.66,33.09L165.12,32.79L178.51,32.62L182.98,22.51L187.44,23.69L191.9,20.79L196.36,20.88L200.83,16L205.29,16.15L209.75,19.38L214.21,23.01L218.68,22.77L223.14,22.79L227.6,43.76L232.07,43.01L236.53,43.05L240.99,43.19L245.45,42.25L249.92,37.53L254.38,37.37L258.84,39.37L263.31,39.73L281.16,41.64L285.62,41.62L294.55,37.17L299.01,36.85L303.47,36.74L307.93,37.45L312.4,38.5L316.86,40.8L325.79,43.93L330.25,44.18L334.71,44.77L339.17,50.22L348.1,70.23L352.56,77.12L357.02,80.13L361.49,81.64L365.95,82.51L370.41,82.55L374.88,82.5L379.34,86.58L383.8,86.41L388.26,97.25L392.73,98.55L397.19,103.27L401.65,110.01L406.12,109.92L415.04,112.64L419.5,134.02L428.43,135.22L432.89,137.41L437.36,140.35L441.82,139.84L446.28,140.85L450.74,143.02L455.21,151.54L459.67,151.5L464.13,156.3L468.6,157.72L477.52,159.13L481.98,197.63L486.45,207.99L490.91,209.81L495.37,210.06L499.83,217.54L504.3,215.49L508.76,215.98L513.22,215.06L517.69,214.98L526.61,215.83L531.07,220.07L540,220.07" style="vector-effect: none; fill: none; stroke: rgb(99, 110, 250); stroke-opacity: 1; stroke-width: 2px; opacity: 1;"/></g><g class="points"/><g class="text"/></g></g></g><g class="overplot"/><path class="xlines-above crisp" d="M0,0" style="fill: none;"/><path class="ylines-above crisp" d="M0,0" style="fill: none;"/><g class="overlines-above"/><g class="xaxislayer-above"><g class="xtick"><text text-anchor="middle" x="0" y="433" transform="translate(155.87,0)" style="font-family: 'Open Sans', verdana, arial, sans-serif; font-size: 12px; fill: rgb(42, 63, 95); fill-opacity: 1; white-space: pre; opacity: 1;">May 2023</text></g><g class="xtick"><text text-anchor="middle" x="0" y="433" style="font-family: 'Open Sans', verdana, arial, sans-serif; font-size: 12px; fill: rgb(42, 63, 95); fill-opacity: 1; white-space: pre; opacity: 1;" transform="translate(294.21000000000004,0)">Jun 2023</text></g><g class="xtick"><text text-anchor="middle" x="0" y="433" style="font-family: 'Open Sans', verdana, arial, sans-serif; font-size: 12px; fill: rgb(42, 63, 95); fill-opacity: 1; white-space: pre; opacity: 1;" transform="translate(428.1,0)">Jul 2023</text></g><g class="xtick"><text text-anchor="middle" x="0" y="433" style="font-family: 'Open Sans', verdana, arial, sans-serif; font-size: 12px; fill: rgb(42, 63, 95); fill-opacity: 1; white-space: pre; opacity: 1;" transform="translate(566.45,0)">Aug 2023</text></g></g><g class="yaxislayer-above"><g class="ytick"><text text-anchor="end" x="79" y="4.199999999999999" transform="translate(0,420)" style="font-family: 'Open Sans', verdana, arial, sans-serif; font-size: 12px; fill: rgb(42, 63, 95); fill-opacity: 1; white-space: pre; opacity: 1;">$0</text></g><g class="ytick"><text text-anchor="end" x="79" y="4.199999999999999" style="font-family: 'Open Sans', verdana, arial, sans-serif; font-size: 12px; fill: rgb(42, 63, 95); fill-opacity: 1; white-space: pre; opacity: 1;" transform="translate(0,345.93)">$5M</text></g><g class="ytick"><text text-anchor="end" x="79" y="4.199999999999999" style="font-family: 'Open Sans', verdana, arial, sans-serif; font-size: 12px; fill: rgb(42, 63, 95); fill-opacity: 1; white-space: pre; opacity: 1;" transform="translate(0,271.86)">$10M</text></g><g class="ytick"><text text-anchor="end" x="79" y="4.199999999999999" style="font-family: 'Open Sans', verdana, arial, sans-serif; font-size: 12px; fill: rgb(42, 63, 95); fill-opacity: 1; white-space: pre; opacity: 1;" transform="translate(0,197.8)">$15M</text></g><g class="ytick"><text text-anchor="end" x="79" y="4.199999999999999" style="font-family: 'Open Sans', verdana, arial, sans-serif; font-size: 12px; fill: rgb(42, 63, 95); fill-opacity: 1; white-space: pre; opacity: 1;" transform="translate(0,123.73)">$20M</text></g></g><g class="overaxes-above"/></g></g><g class="polarlayer"/><g class="smithlayer"/><g class="ternarylayer"/><g class="geolayer"/><g class="funnelarealayer"/><g class="pielayer"/><g class="iciclelayer"/><g class="treemaplayer"/><g class="sunburstlayer"/><g class="glimages"/><defs id="topdefs-8253e1"><g class="clips"/></defs><g class="layer-above"><g class="imagelayer"/><g class="shapelayer"/></g><g class="infolayer"><g class="g-gtitle"><text class="gtitle" x="35" y="50" text-anchor="start" dy="0em" style="font-family: 'Open Sans', verdana, arial, sans-serif; font-size: 17px; fill: rgb(42, 63, 95); opacity: 1; font-weight: normal; white-space: pre;"><tspan class="line" dy="0em" x="35" y="50">Lido - wstETHCRV: Curve</tspan><tspan class="line" dy="1.3em" x="35" y="50">​<tspan style="font-size:70%" dy="-0.6em">Cumulative Net Flows since Program Announcement, Until Program End + 30 Days</tspan><tspan dy="0.42em">​</tspan></tspan></text></g><g class="g-xtitle"><text class="xtitle" x="350" y="460.3" text-anchor="middle" style="font-family: 'Open Sans', verdana, arial, sans-serif; font-size: 14px; fill: rgb(42, 63, 95); opacity: 1; font-weight: normal; white-space: pre;">Day</text></g><g class="g-ytitle"><text class="ytitle" transform="rotate(-90,24.668750000000003,260)" x="24.668750000000003" y="260" text-anchor="middle" style="font-family: 'Open Sans', verdana, arial, sans-serif; font-size: 14px; fill: rgb(42, 63, 95); opacity: 1; font-weight: normal; white-space: pre;">Cumulative Net Flows (USD)</text></g></g></svg>