<svg class="main-svg" xmlns="http://www.w3.org/2000/svg" xmlns:xlink="http://www.w3.org/1999/xlink" width="700" height="500" style="" viewBox="0 0 700 500"><rect x="0" y="0" width="700" height="500" style="fill: rgb(255, 255, 255); fill-opacity: 1;"/><defs id="defs-14a2bd"><g class="clips"><clipPath id="clip14a2bdxyplot" class="plotclip"><rect width="540" height="320"/></clipPath><clipPath class="axesclip" id="clip14a2bdx"><rect x="80" y="0" width="540" height="500"/></clipPath><clipPath class="axesclip" id="clip14a2bdy"><rect x="0" y="100" width="700" height="320"/></clipPath><clipPath class="axesclip" id="clip14a2bdxy"><rect x="80" y="100" width="540" height="320"/></clipPath></g><g class="gradients"/><g class="patterns"/></defs><g class="bglayer"><rect class="bg" x="80" y="100" width="540" height="320" style="fill: rgb(229, 236, 246); fill-opacity: 1; stroke-width: 0;"/></g><g class="layer-below"><g class="imagelayer"/><g class="shapelayer"/></g><g class="cartesianlayer"><g class="subplot xy"><g class="layer-subplot"><g class="shapelayer"/><g class="imagelayer"/></g><g class="minor-gridlayer"><g class="x"/><g class="y"/></g><g class="gridlayer"><g class="x"><path class="xgrid crisp" transform="translate(159.75,0)" d="M0,100v320" style="stroke: rgb(255, 255, 255); stroke-opacity: 1; stroke-width: 1px;"/><path class="xgrid crisp" transform="translate(298.73,0)" d="M0,100v320" style="stroke: rgb(255, 255, 255); stroke-opacity: 1; stroke-width: 1px;"/><path class="xgrid crisp" transform="translate(433.16,0)" d="M0,100v320" style="stroke: rgb(255, 255, 255); stroke-opacity: 1; stroke-width: 1px;"/><path class="xgrid crisp" transform="translate(572.15,0)" d="M0,100v320" style="stroke: rgb(255, 255, 255); stroke-opacity: 1; stroke-width: 1px;"/></g><g class="y"><path class="ygrid crisp" transform="translate(0,330.19)" d="M80,0h540" style="stroke: rgb(255, 255, 255); stroke-opacity: 1; stroke-width: 1px;"/><path class="ygrid crisp" transform="translate(0,260.98)" d="M80,0h540" style="stroke: rgb(255, 255, 255); stroke-opacity: 1; stroke-width: 1px;"/><path class="ygrid crisp" transform="translate(0,191.76999999999998)" d="M80,0h540" style="stroke: rgb(255, 255, 255); stroke-opacity: 1; stroke-width: 1px;"/><path class="ygrid crisp" transform="translate(0,122.55)" d="M80,0h540" style="stroke: rgb(255, 255, 255); stroke-opacity: 1; stroke-width: 1px;"/></g></g><g class="zerolinelayer"><path class="yzl zl crisp" transform="translate(0,399.41)" d="M80,0h540" style="stroke: rgb(255, 255, 255); stroke-opacity: 1; stroke-width: 2px;"/></g><path class="xlines-below"/><path class="ylines-below"/><g class="overlines-below"/><g class="xaxislayer-below"/><g class="yaxislayer-below"/><g class="overaxes-below"/><g class="plot" transform="translate(80,100)" clip-path="url(#clip14a2bdxyplot)"><g class="scatterlayer mlayer"><g class="trace scatter trace6a0c1c" style="stroke-miterlimit: 2;"><g class="fills"><g><path class="js-fill" d="M540,299.41L0,299.41L0,298.06L2.28,298.45L4.56,299.81L6.84,300.86L9.11,300.84L18.23,298.83L20.51,299.33L25.06,296.33L27.34,292.32L29.62,291.31L31.9,291.27L34.18,291.29L36.46,290.06L38.73,274.68L41.01,278.55L43.29,272.25L45.57,273.21L50.13,274.91L52.41,275.28L56.96,275.24L59.24,274.31L61.52,274.42L63.8,275.94L68.35,290.61L70.63,289.64L77.47,288.6L79.75,289.37L82.03,289.48L84.3,280.29L91.14,280.6L93.42,281.75L95.7,301.16L97.97,304L102.53,301.95L104.81,303.07L109.37,302.69L111.65,301.08L113.92,303.24L116.2,299.48L118.48,295.34L120.76,294.96L123.04,295.82L125.32,295.48L127.59,296.55L129.87,295.78L132.15,279.16L134.43,279.23L141.27,279.16L143.54,278.16L145.82,279.04L148.1,278.81L152.66,278.35L154.94,275.18L157.22,275.26L159.49,284.25L161.77,284.47L164.05,299.23L166.33,291.15L168.61,290.67L170.89,290.51L173.16,287.96L175.44,283.51L177.72,283.14L180,282.78L182.28,283.94L186.84,283.91L189.11,285.14L191.39,284.62L193.67,281.9L195.95,276.56L198.23,276.35L202.78,276.23L205.06,279L207.34,284.3L209.62,284.02L211.9,284L214.18,285.32L216.46,290.85L218.73,290.72L221.01,286.87L223.29,287.29L225.57,285.49L227.85,286.59L230.13,287.63L232.41,287.05L234.68,288.22L236.96,287.49L241.52,287.03L243.8,286.4L246.08,286.31L248.35,287.37L255.19,286.74L257.47,285.47L259.75,280.88L262.03,285.2L264.3,276.35L266.58,275.85L268.86,276.21L271.14,267.63L273.42,232.82L275.7,227.28L277.97,223.61L280.25,223.8L282.53,223.82L284.81,221.12L289.37,221.03L291.65,214.86L293.92,211.99L296.2,201.07L298.48,198.66L300.76,189.83L303.04,189.66L305.32,185.65L307.59,184.6L309.87,193.05L312.15,190.03L314.43,189.91L316.71,189.1L318.99,195.74L321.27,183.67L323.54,164.81L325.82,172.84L328.1,173.55L330.38,138.1L332.66,140.66L334.94,139.77L337.22,142.34L339.49,141.85L341.77,133.11L344.05,128.95L346.33,99.09L348.61,88.42L350.89,90.92L353.16,91.77L355.44,40.76L357.72,35.79L360,44.19L362.28,54.75L364.56,47.41L366.84,16L369.11,22.74L373.67,95.45L375.95,201.92L378.23,201.05L380.51,170.15L382.78,174.43L385.06,146.59L387.34,133.58L389.62,84.81L391.9,80.99L394.18,81.21L396.46,71.01L398.73,85.1L403.29,39.38L405.57,38.07L407.85,45.41L410.13,44.94L412.41,45.72L414.68,47.79L416.96,47.89L419.24,96.85L421.52,188.15L423.8,184.52L426.08,183.57L428.35,184.62L430.63,184.52L432.91,188.65L437.47,223.02L439.75,223.2L446.58,226.35L448.86,227.11L453.42,237.4L455.7,236.9L457.97,236.03L460.25,236.16L462.53,236.19L464.81,237.78L467.09,244.87L469.37,247.2L471.65,256.2L473.92,256.38L478.48,256.88L480.76,264.16L483.04,269.04L485.32,269.07L496.71,269.62L498.99,271.1L501.27,271.1L503.54,272.04L505.82,272.26L508.1,273.55L512.66,275.01L514.94,281.78L517.22,281.77L519.49,282.56L521.77,282.56L524.05,288.78L528.61,288.89L530.89,290.21L540,291.7" style="fill: rgb(99, 110, 250); fill-opacity: 0.5; stroke-width: 0;"/></g></g><g class="errorbars"/><g class="lines"><path class="js-line" d="M0,298.06L2.28,298.45L4.56,299.81L6.84,300.86L9.11,300.84L18.23,298.83L20.51,299.33L25.06,296.33L27.34,292.32L29.62,291.31L31.9,291.27L34.18,291.29L36.46,290.06L38.73,274.68L41.01,278.55L43.29,272.25L45.57,273.21L50.13,274.91L52.41,275.28L56.96,275.24L59.24,274.31L61.52,274.42L63.8,275.94L68.35,290.61L70.63,289.64L77.47,288.6L79.75,289.37L82.03,289.48L84.3,280.29L91.14,280.6L93.42,281.75L95.7,301.16L97.97,304L102.53,301.95L104.81,303.07L109.37,302.69L111.65,301.08L113.92,303.24L116.2,299.48L118.48,295.34L120.76,294.96L123.04,295.82L125.32,295.48L127.59,296.55L129.87,295.78L132.15,279.16L134.43,279.23L141.27,279.16L143.54,278.16L145.82,279.04L148.1,278.81L152.66,278.35L154.94,275.18L157.22,275.26L159.49,284.25L161.77,284.47L164.05,299.23L166.33,291.15L168.61,290.67L170.89,290.51L173.16,287.96L175.44,283.51L177.72,283.14L180,282.78L182.28,283.94L186.84,283.91L189.11,285.14L191.39,284.62L193.67,281.9L195.95,276.56L198.23,276.35L202.78,276.23L205.06,279L207.34,284.3L209.62,284.02L211.9,284L214.18,285.32L216.46,290.85L218.73,290.72L221.01,286.87L223.29,287.29L225.57,285.49L227.85,286.59L230.13,287.63L232.41,287.05L234.68,288.22L236.96,287.49L241.52,287.03L243.8,286.4L246.08,286.31L248.35,287.37L255.19,286.74L257.47,285.47L259.75,280.88L262.03,285.2L264.3,276.35L266.58,275.85L268.86,276.21L271.14,267.63L273.42,232.82L275.7,227.28L277.97,223.61L280.25,223.8L282.53,223.82L284.81,221.12L289.37,221.03L291.65,214.86L293.92,211.99L296.2,201.07L298.48,198.66L300.76,189.83L303.04,189.66L305.32,185.65L307.59,184.6L309.87,193.05L312.15,190.03L314.43,189.91L316.71,189.1L318.99,195.74L321.27,183.67L323.54,164.81L325.82,172.84L328.1,173.55L330.38,138.1L332.66,140.66L334.94,139.77L337.22,142.34L339.49,141.85L341.77,133.11L344.05,128.95L346.33,99.09L348.61,88.42L350.89,90.92L353.16,91.77L355.44,40.76L357.72,35.79L360,44.19L362.28,54.75L364.56,47.41L366.84,16L369.11,22.74L373.67,95.45L375.95,201.92L378.23,201.05L380.51,170.15L382.78,174.43L385.06,146.59L387.34,133.58L389.62,84.81L391.9,80.99L394.18,81.21L396.46,71.01L398.73,85.1L403.29,39.38L405.57,38.07L407.85,45.41L410.13,44.94L412.41,45.72L414.68,47.79L416.96,47.89L419.24,96.85L421.52,188.15L423.8,184.52L426.08,183.57L428.35,184.62L430.63,184.52L432.91,188.65L437.47,223.02L439.75,223.2L446.58,226.35L448.86,227.11L453.42,237.4L455.7,236.9L457.97,236.03L460.25,236.16L462.53,236.19L464.81,237.78L467.09,244.87L469.37,247.2L471.65,256.2L473.92,256.38L478.48,256.88L480.76,264.16L483.04,269.04L485.32,269.07L496.71,269.62L498.99,271.1L501.27,271.1L503.54,272.04L505.82,272.26L508.1,273.55L512.66,275.01L514.94,281.78L517.22,281.77L519.49,282.56L521.77,282.56L524.05,288.78L528.61,288.89L530.89,290.21L540,291.7" style="vector-effect: none; fill: none; stroke: rgb(99, 110, 250); stroke-opacity: 1; stroke-width: 2px; opacity: 1;"/></g><g class="points"/><g class="text"/></g></g></g><g class="overplot"/><path class="xlines-above crisp" d="M0,0" style="fill: none;"/><path class="ylines-above crisp" d="M0,0" style="fill: none;"/><g class="overlines-above"/><g class="xaxislayer-above"><g class="xtick"><text text-anchor="middle" x="0" y="433" transform="translate(159.75,0)" style="font-family: 'Open Sans', verdana, arial, sans-serif; font-size: 12px; fill: rgb(42, 63, 95); fill-opacity: 1; white-space: pre; opacity: 1;">Nov 2022</text></g><g class="xtick"><text text-anchor="middle" x="0" y="433" style="font-family: 'Open Sans', verdana, arial, sans-serif; font-size: 12px; fill: rgb(42, 63, 95); fill-opacity: 1; white-space: pre; opacity: 1;" transform="translate(298.73,0)">Jan 2023</text></g><g class="xtick"><text text-anchor="middle" x="0" y="433" style="font-family: 'Open Sans', verdana, arial, sans-serif; font-size: 12px; fill: rgb(42, 63, 95); fill-opacity: 1; white-space: pre; opacity: 1;" transform="translate(433.16,0)">Mar 2023</text></g><g class="xtick"><text text-anchor="middle" x="0" y="433" style="font-family: 'Open Sans', verdana, arial, sans-serif; font-size: 12px; fill: rgb(42, 63, 95); fill-opacity: 1; white-space: pre; opacity: 1;" transform="translate(572.15,0)">May 2023</text></g></g><g class="yaxislayer-above"><g class="ytick"><text text-anchor="end" x="79" y="4.199999999999999" transform="translate(0,399.41)" style="font-family: 'Open Sans', verdana, arial, sans-serif; font-size: 12px; fill: rgb(42, 63, 95); fill-opacity: 1; white-space: pre; opacity: 1;">$0</text></g><g class="ytick"><text text-anchor="end" x="79" y="4.199999999999999" style="font-family: 'Open Sans', verdana, arial, sans-serif; font-size: 12px; fill: rgb(42, 63, 95); fill-opacity: 1; white-space: pre; opacity: 1;" transform="translate(0,330.19)">$2M</text></g><g class="ytick"><text text-anchor="end" x="79" y="4.199999999999999" style="font-family: 'Open Sans', verdana, arial, sans-serif; font-size: 12px; fill: rgb(42, 63, 95); fill-opacity: 1; white-space: pre; opacity: 1;" transform="translate(0,260.98)">$4M</text></g><g class="ytick"><text text-anchor="end" x="79" y="4.199999999999999" style="font-family: 'Open Sans', verdana, arial, sans-serif; font-size: 12px; fill: rgb(42, 63, 95); fill-opacity: 1; white-space: pre; opacity: 1;" transform="translate(0,191.76999999999998)">$6M</text></g><g class="ytick"><text text-anchor="end" x="79" y="4.199999999999999" style="font-family: 'Open Sans', verdana, arial, sans-serif; font-size: 12px; fill: rgb(42, 63, 95); fill-opacity: 1; white-space: pre; opacity: 1;" transform="translate(0,122.55)">$8M</text></g></g><g class="overaxes-above"/></g></g><g class="polarlayer"/><g class="smithlayer"/><g class="ternarylayer"/><g class="geolayer"/><g class="funnelarealayer"/><g class="pielayer"/><g class="iciclelayer"/><g class="treemaplayer"/><g class="sunburstlayer"/><g class="glimages"/><defs id="topdefs-14a2bd"><g class="clips"/></defs><g class="layer-above"><g class="imagelayer"/><g class="shapelayer"/></g><g class="infolayer"><g class="g-gtitle"><text class="gtitle" x="35" y="50" text-anchor="start" dy="0em" style="font-family: 'Open Sans', verdana, arial, sans-serif; font-size: 17px; fill: rgb(42, 63, 95); opacity: 1; font-weight: normal; white-space: pre;"><tspan class="line" dy="0em" x="35" y="50">Synthetix - USDC/SNX: Velodrome</tspan><tspan class="line" dy="1.3em" x="35" y="50">​<tspan style="font-size:70%" dy="-0.6em">Cumulative Net Flows since Program Announcement, Until Program End + 30 Days</tspan><tspan dy="0.42em">​</tspan></tspan></text></g><g class="g-xtitle"><text class="xtitle" x="350" y="460.3" text-anchor="middle" style="font-family: 'Open Sans', verdana, arial, sans-serif; font-size: 14px; fill: rgb(42, 63, 95); opacity: 1; font-weight: normal; white-space: pre;">Day</text></g><g class="g-ytitle"><text class="ytitle" transform="rotate(-90,31.356250000000003,260)" x="31.356250000000003" y="260" text-anchor="middle" style="font-family: 'Open Sans', verdana, arial, sans-serif; font-size: 14px; fill: rgb(42, 63, 95); opacity: 1; font-weight: normal; white-space: pre;">Cumulative Net Flows (USD)</text></g></g></svg>