<svg class="main-svg" xmlns="http://www.w3.org/2000/svg" xmlns:xlink="http://www.w3.org/1999/xlink" width="700" height="500" style="" viewBox="0 0 700 500"><rect x="0" y="0" width="700" height="500" style="fill: rgb(255, 255, 255); fill-opacity: 1;"/><defs id="defs-aa3049"><g class="clips"><clipPath id="clipaa3049xyplot" class="plotclip"><rect width="540" height="320"/></clipPath><clipPath class="axesclip" id="clipaa3049x"><rect x="80" y="0" width="540" height="500"/></clipPath><clipPath class="axesclip" id="clipaa3049y"><rect x="0" y="100" width="700" height="320"/></clipPath><clipPath class="axesclip" id="clipaa3049xy"><rect x="80" y="100" width="540" height="320"/></clipPath></g><g class="gradients"/><g class="patterns"/></defs><g class="bglayer"><rect class="bg" x="80" y="100" width="540" height="320" style="fill: rgb(229, 236, 246); fill-opacity: 1; stroke-width: 0;"/></g><g class="layer-below"><g class="imagelayer"/><g class="shapelayer"/></g><g class="cartesianlayer"><g class="subplot xy"><g class="layer-subplot"><g class="shapelayer"/><g class="imagelayer"/></g><g class="minor-gridlayer"><g class="x"/><g class="y"/></g><g class="gridlayer"><g class="x"><path class="xgrid crisp" transform="translate(97.11,0)" d="M0,100v320" style="stroke: rgb(255, 255, 255); stroke-opacity: 1; stroke-width: 1px;"/><path class="xgrid crisp" transform="translate(213.1,0)" d="M0,100v320" style="stroke: rgb(255, 255, 255); stroke-opacity: 1; stroke-width: 1px;"/><path class="xgrid crisp" transform="translate(329.08000000000004,0)" d="M0,100v320" style="stroke: rgb(255, 255, 255); stroke-opacity: 1; stroke-width: 1px;"/><path class="xgrid crisp" transform="translate(446.97,0)" d="M0,100v320" style="stroke: rgb(255, 255, 255); stroke-opacity: 1; stroke-width: 1px;"/><path class="xgrid crisp" transform="translate(562.96,0)" d="M0,100v320" style="stroke: rgb(255, 255, 255); stroke-opacity: 1; stroke-width: 1px;"/></g><g class="y"><path class="ygrid crisp" transform="translate(0,411.16)" d="M80,0h540" style="stroke: rgb(255, 255, 255); stroke-opacity: 1; stroke-width: 1px;"/><path class="ygrid crisp" transform="translate(0,348.97)" d="M80,0h540" style="stroke: rgb(255, 255, 255); stroke-opacity: 1; stroke-width: 1px;"/><path class="ygrid crisp" transform="translate(0,224.57)" d="M80,0h540" style="stroke: rgb(255, 255, 255); stroke-opacity: 1; stroke-width: 1px;"/><path class="ygrid crisp" transform="translate(0,162.38)" d="M80,0h540" style="stroke: rgb(255, 255, 255); stroke-opacity: 1; stroke-width: 1px;"/></g></g><g class="zerolinelayer"><path class="yzl zl crisp" transform="translate(0,286.77)" d="M80,0h540" style="stroke: rgb(255, 255, 255); stroke-opacity: 1; stroke-width: 2px;"/></g><path class="xlines-below"/><path class="ylines-below"/><g class="overlines-below"/><g class="xaxislayer-below"/><g class="yaxislayer-below"/><g class="overaxes-below"/><g class="plot" transform="translate(80,100)" clip-path="url(#clipaa3049xyplot)"><g class="scatterlayer mlayer"><g class="trace scatter trace3e9875" style="stroke-miterlimit: 2;"><g class="fills"><g><path class="js-fill" d="M540,186.77L0,186.77L0,185.46L1.9,183.6L3.8,178.76L7.61,95.28L9.51,72.42L11.41,78.19L13.31,66.38L15.21,67.69L17.11,67.37L19.01,51.21L20.92,48.97L22.82,40.92L24.72,42.29L26.62,35.13L28.52,19.17L30.42,16L32.32,56.57L34.23,56.92L36.13,122.63L38.03,127.42L39.93,245.74L41.83,273.09L43.73,273.19L51.34,273.55L53.24,274.02L55.14,281.48L57.04,281.48L74.15,281.65L76.06,280.95L81.76,278.2L83.66,273.34L89.37,272.91L91.27,272.9L93.17,270.43L95.07,270.43L96.97,270.42L98.87,269.47L102.68,267.36L104.58,262.68L106.48,255.7L108.38,256.66L110.28,260.66L112.18,260.42L114.08,263.01L115.99,262.77L117.89,257.79L119.79,257.79L121.69,257.78L123.59,256.35L125.49,244.39L127.39,244.39L129.3,249.27L131.2,262.94L133.1,256.82L135,256.83L136.9,255.17L138.8,251.94L142.61,252.43L144.51,252.1L146.41,252.07L148.31,247.89L150.21,252.01L152.11,263.02L159.72,263L161.62,257.83L163.52,257.83L165.42,263.02L169.23,263.19L171.13,264.7L173.03,265.99L174.93,265.98L176.83,273.56L178.73,273.56L197.75,272.88L199.65,273.91L201.55,273.91L203.45,271.57L205.35,274.33L207.25,275.18L209.15,277.58L211.06,278.56L220.56,279.61L222.46,284.64L224.37,289.87L226.27,289.91L228.17,291.97L230.07,291.97L239.58,292.66L241.48,292.74L243.38,294.41L245.28,294.71L247.18,294.71L249.08,297.79L250.99,300.98L252.89,300.98L275.7,301.35L277.61,301.35L353.66,301.47L355.56,304L357.46,301.47L359.37,301.47L395.49,302.01L397.39,303.64L399.3,302.01L401.2,302.01L403.1,302.97L405,302.97L540,302.98" style="fill: rgb(99, 110, 250); fill-opacity: 0.5; stroke-width: 0;"/></g></g><g class="errorbars"/><g class="lines"><path class="js-line" d="M0,185.46L1.9,183.6L3.8,178.76L7.61,95.28L9.51,72.42L11.41,78.19L13.31,66.38L15.21,67.69L17.11,67.37L19.01,51.21L20.92,48.97L22.82,40.92L24.72,42.29L26.62,35.13L28.52,19.17L30.42,16L32.32,56.57L34.23,56.92L36.13,122.63L38.03,127.42L39.93,245.74L41.83,273.09L43.73,273.19L51.34,273.55L53.24,274.02L55.14,281.48L57.04,281.48L74.15,281.65L76.06,280.95L81.76,278.2L83.66,273.34L89.37,272.91L91.27,272.9L93.17,270.43L95.07,270.43L96.97,270.42L98.87,269.47L102.68,267.36L104.58,262.68L106.48,255.7L108.38,256.66L110.28,260.66L112.18,260.42L114.08,263.01L115.99,262.77L117.89,257.79L119.79,257.79L121.69,257.78L123.59,256.35L125.49,244.39L127.39,244.39L129.3,249.27L131.2,262.94L133.1,256.82L135,256.83L136.9,255.17L138.8,251.94L142.61,252.43L144.51,252.1L146.41,252.07L148.31,247.89L150.21,252.01L152.11,263.02L159.72,263L161.62,257.83L163.52,257.83L165.42,263.02L169.23,263.19L171.13,264.7L173.03,265.99L174.93,265.98L176.83,273.56L178.73,273.56L197.75,272.88L199.65,273.91L201.55,273.91L203.45,271.57L205.35,274.33L207.25,275.18L209.15,277.58L211.06,278.56L220.56,279.61L222.46,284.64L224.37,289.87L226.27,289.91L228.17,291.97L230.07,291.97L239.58,292.66L241.48,292.74L243.38,294.41L245.28,294.71L247.18,294.71L249.08,297.79L250.99,300.98L252.89,300.98L275.7,301.35L277.61,301.35L353.66,301.47L355.56,304L357.46,301.47L359.37,301.47L395.49,302.01L397.39,303.64L399.3,302.01L401.2,302.01L403.1,302.97L405,302.97L540,302.98" style="vector-effect: none; fill: none; stroke: rgb(99, 110, 250); stroke-opacity: 1; stroke-width: 2px; opacity: 1;"/></g><g class="points"/><g class="text"/></g></g></g><g class="overplot"/><path class="xlines-above crisp" d="M0,0" style="fill: none;"/><path class="ylines-above crisp" d="M0,0" style="fill: none;"/><g class="overlines-above"/><g class="xaxislayer-above"><g class="xtick"><text text-anchor="middle" x="0" y="433" transform="translate(97.11,0)" style="font-family: 'Open Sans', verdana, arial, sans-serif; font-size: 12px; fill: rgb(42, 63, 95); fill-opacity: 1; white-space: pre; opacity: 1;">Mar 2023</text></g><g class="xtick"><text text-anchor="middle" x="0" y="433" style="font-family: 'Open Sans', verdana, arial, sans-serif; font-size: 12px; fill: rgb(42, 63, 95); fill-opacity: 1; white-space: pre; opacity: 1;" transform="translate(213.1,0)">May 2023</text></g><g class="xtick"><text text-anchor="middle" x="0" y="433" style="font-family: 'Open Sans', verdana, arial, sans-serif; font-size: 12px; fill: rgb(42, 63, 95); fill-opacity: 1; white-space: pre; opacity: 1;" transform="translate(329.08000000000004,0)">Jul 2023</text></g><g class="xtick"><text text-anchor="middle" x="0" y="433" style="font-family: 'Open Sans', verdana, arial, sans-serif; font-size: 12px; fill: rgb(42, 63, 95); fill-opacity: 1; white-space: pre; opacity: 1;" transform="translate(446.97,0)">Sep 2023</text></g><g class="xtick"><text text-anchor="middle" x="0" y="433" style="font-family: 'Open Sans', verdana, arial, sans-serif; font-size: 12px; fill: rgb(42, 63, 95); fill-opacity: 1; white-space: pre; opacity: 1;" transform="translate(562.96,0)">Nov 2023</text></g></g><g class="yaxislayer-above"><g class="ytick"><text text-anchor="end" x="79" y="4.199999999999999" transform="translate(0,411.16)" style="font-family: 'Open Sans', verdana, arial, sans-serif; font-size: 12px; fill: rgb(42, 63, 95); fill-opacity: 1; white-space: pre; opacity: 1;">$−1M</text></g><g class="ytick"><text text-anchor="end" x="79" y="4.199999999999999" style="font-family: 'Open Sans', verdana, arial, sans-serif; font-size: 12px; fill: rgb(42, 63, 95); fill-opacity: 1; white-space: pre; opacity: 1;" transform="translate(0,348.97)">$−0.5M</text></g><g class="ytick"><text text-anchor="end" x="79" y="4.199999999999999" style="font-family: 'Open Sans', verdana, arial, sans-serif; font-size: 12px; fill: rgb(42, 63, 95); fill-opacity: 1; white-space: pre; opacity: 1;" transform="translate(0,286.77)">$0</text></g><g class="ytick"><text text-anchor="end" x="79" y="4.199999999999999" style="font-family: 'Open Sans', verdana, arial, sans-serif; font-size: 12px; fill: rgb(42, 63, 95); fill-opacity: 1; white-space: pre; opacity: 1;" transform="translate(0,224.57)">$0.5M</text></g><g class="ytick"><text text-anchor="end" x="79" y="4.199999999999999" style="font-family: 'Open Sans', verdana, arial, sans-serif; font-size: 12px; fill: rgb(42, 63, 95); fill-opacity: 1; white-space: pre; opacity: 1;" transform="translate(0,162.38)">$1M</text></g><g class="ytick"><text text-anchor="end" x="79" y="4.199999999999999" style="font-family: 'Open Sans', verdana, arial, sans-serif; font-size: 12px; fill: rgb(42, 63, 95); fill-opacity: 1; white-space: pre; opacity: 1;" transform="translate(0,100.18)">$1.5M</text></g></g><g class="overaxes-above"/></g></g><g class="polarlayer"/><g class="smithlayer"/><g class="ternarylayer"/><g class="geolayer"/><g class="funnelarealayer"/><g class="pielayer"/><g class="iciclelayer"/><g class="treemaplayer"/><g class="sunburstlayer"/><g class="glimages"/><defs id="topdefs-aa3049"><g class="clips"/></defs><g class="layer-above"><g class="imagelayer"/><g class="shapelayer"/></g><g class="infolayer"><g class="g-gtitle"><text class="gtitle" x="35" y="50" text-anchor="start" dy="0em" style="font-family: 'Open Sans', verdana, arial, sans-serif; font-size: 17px; fill: rgb(42, 63, 95); opacity: 1; font-weight: normal; white-space: pre;"><tspan class="line" dy="0em" x="35" y="50">Angle - agEUR/MAI: Velodrome</tspan><tspan class="line" dy="1.3em" x="35" y="50">​<tspan style="font-size:70%" dy="-0.6em">Cumulative Net Flows since Program Announcement, Until Program End + 30 Days</tspan><tspan dy="0.42em">​</tspan></tspan></text></g><g class="g-xtitle"><text class="xtitle" x="350" y="460.3" text-anchor="middle" style="font-family: 'Open Sans', verdana, arial, sans-serif; font-size: 14px; fill: rgb(42, 63, 95); opacity: 1; font-weight: normal; white-space: pre;">Day</text></g><g class="g-ytitle"><text class="ytitle" transform="rotate(-90,14.340625000000003,260)" x="14.340625000000003" y="260" text-anchor="middle" style="font-family: 'Open Sans', verdana, arial, sans-serif; font-size: 14px; fill: rgb(42, 63, 95); opacity: 1; font-weight: normal; white-space: pre;">Cumulative Net Flows (USD)</text></g></g></svg>