<svg class="main-svg" xmlns="http://www.w3.org/2000/svg" xmlns:xlink="http://www.w3.org/1999/xlink" width="700" height="500" style="" viewBox="0 0 700 500"><rect x="0" y="0" width="700" height="500" style="fill: rgb(255, 255, 255); fill-opacity: 1;"/><defs id="defs-4c17af"><g class="clips"><clipPath id="clip4c17afxyplot" class="plotclip"><rect width="540" height="320"/></clipPath><clipPath class="axesclip" id="clip4c17afx"><rect x="80" y="0" width="540" height="500"/></clipPath><clipPath class="axesclip" id="clip4c17afy"><rect x="0" y="100" width="700" height="320"/></clipPath><clipPath class="axesclip" id="clip4c17afxy"><rect x="80" y="100" width="540" height="320"/></clipPath></g><g class="gradients"/><g class="patterns"/></defs><g class="bglayer"><rect class="bg" x="80" y="100" width="540" height="320" style="fill: rgb(229, 236, 246); fill-opacity: 1; stroke-width: 0;"/></g><g class="layer-below"><g class="imagelayer"/><g class="shapelayer"/></g><g class="cartesianlayer"><g class="subplot xy"><g class="layer-subplot"><g class="shapelayer"/><g class="imagelayer"/></g><g class="minor-gridlayer"><g class="x"/><g class="y"/></g><g class="gridlayer"><g class="x"><path class="xgrid crisp" transform="translate(86.38,0)" d="M0,100v320" style="stroke: rgb(255, 255, 255); stroke-opacity: 1; stroke-width: 1px;"/><path class="xgrid crisp" transform="translate(216.06,0)" d="M0,100v320" style="stroke: rgb(255, 255, 255); stroke-opacity: 1; stroke-width: 1px;"/><path class="xgrid crisp" transform="translate(345.75,0)" d="M0,100v320" style="stroke: rgb(255, 255, 255); stroke-opacity: 1; stroke-width: 1px;"/><path class="xgrid crisp" transform="translate(471.18,0)" d="M0,100v320" style="stroke: rgb(255, 255, 255); stroke-opacity: 1; stroke-width: 1px;"/><path class="xgrid crisp" transform="translate(600.87,0)" d="M0,100v320" style="stroke: rgb(255, 255, 255); stroke-opacity: 1; stroke-width: 1px;"/></g><g class="y"><path class="ygrid crisp" transform="translate(0,376.37)" d="M80,0h540" style="stroke: rgb(255, 255, 255); stroke-opacity: 1; stroke-width: 1px;"/><path class="ygrid crisp" transform="translate(0,332.73)" d="M80,0h540" style="stroke: rgb(255, 255, 255); stroke-opacity: 1; stroke-width: 1px;"/><path class="ygrid crisp" transform="translate(0,289.1)" d="M80,0h540" style="stroke: rgb(255, 255, 255); stroke-opacity: 1; stroke-width: 1px;"/><path class="ygrid crisp" transform="translate(0,245.46)" d="M80,0h540" style="stroke: rgb(255, 255, 255); stroke-opacity: 1; stroke-width: 1px;"/><path class="ygrid crisp" transform="translate(0,201.82999999999998)" d="M80,0h540" style="stroke: rgb(255, 255, 255); stroke-opacity: 1; stroke-width: 1px;"/><path class="ygrid crisp" transform="translate(0,158.19)" d="M80,0h540" style="stroke: rgb(255, 255, 255); stroke-opacity: 1; stroke-width: 1px;"/><path class="ygrid crisp" transform="translate(0,114.56)" d="M80,0h540" style="stroke: rgb(255, 255, 255); stroke-opacity: 1; stroke-width: 1px;"/></g></g><g class="zerolinelayer"><path class="yzl zl crisp" transform="translate(0,420)" d="M80,0h540" style="stroke: rgb(255, 255, 255); stroke-opacity: 1; stroke-width: 2px;"/></g><path class="xlines-below"/><path class="ylines-below"/><g class="overlines-below"/><g class="xaxislayer-below"/><g class="yaxislayer-below"/><g class="overaxes-below"/><g class="plot" transform="translate(80,100)" clip-path="url(#clip4c17afxyplot)"><g class="scatterlayer mlayer"><g class="trace scatter trace0ea51e" style="stroke-miterlimit: 2;"><g class="fills"><g><path class="js-fill" d="M540,320L0,320L0,319.89L8.5,317.35L10.63,315.31L14.88,313.91L17.01,292.7L21.26,256.85L23.39,237.81L27.64,231.69L29.76,226.62L31.89,210.54L34.02,205.51L38.27,204.57L40.39,183.91L42.52,186.38L44.65,174.41L46.77,176.01L48.9,159.05L51.02,150.9L53.15,147.53L55.28,130.16L57.4,127.53L59.53,125.64L61.65,137.48L63.78,146.28L65.91,144.35L68.03,143.44L70.16,140.35L74.41,138.78L76.54,129.33L78.66,133.94L80.79,129.34L82.91,126.03L85.04,127.34L87.17,126.76L89.29,128.2L93.54,125.48L95.67,128.48L97.8,130.23L99.92,128.66L102.05,125.9L104.17,126.38L106.3,128.48L108.43,128.46L119.06,129.77L121.18,136.16L125.43,136.39L127.56,130.6L131.81,128.32L133.94,128L136.06,125.98L138.19,122.14L140.32,121L142.44,123.89L146.69,124.38L148.82,123.1L153.07,119.7L155.2,129.26L157.32,139.08L159.45,137.55L161.57,134.97L163.7,141.07L165.83,148.42L167.95,147.4L170.08,148.62L172.2,151.8L174.33,153.25L176.46,152.34L180.71,151.15L182.83,149.38L184.96,154.64L187.09,153.82L189.21,153.84L191.34,153.09L193.46,151.69L195.59,156.97L197.72,157.47L199.84,156.89L201.97,157.02L204.09,155.02L208.35,155.63L210.47,153.52L212.6,156.94L214.72,157.62L216.85,154.39L218.98,156.18L221.1,162.27L223.23,162.33L225.35,158.92L227.48,158.88L229.61,157.35L231.73,154.15L233.86,159.45L235.98,157.27L238.11,157.94L240.24,157.5L242.36,156.83L244.49,157.72L246.61,155.99L248.74,179.93L250.87,179.17L252.99,179.29L255.12,179.48L257.24,180.83L259.37,180.55L261.5,177.75L265.75,175.52L267.87,178.66L272.13,177.73L274.25,170.46L276.38,166.43L278.5,164.19L280.63,162.73L282.76,163.46L284.88,159.6L287.01,153.71L289.13,154.79L291.26,152.88L293.39,142.86L295.51,138.05L297.64,139.83L299.76,138.57L304.02,138.52L306.14,130.31L308.27,130.23L310.39,124.34L312.52,119.5L314.65,119.67L316.77,119.3L318.9,120.65L321.02,119.44L323.15,117.12L327.4,117.66L329.53,114.39L331.65,120.07L333.78,112.39L340.16,96.78L342.28,99.22L344.41,98.99L346.54,58.57L350.79,56.29L352.91,59.25L355.04,64.3L357.17,63.99L359.29,62.64L361.42,63.84L363.54,62.38L365.67,63.29L367.8,63.53L369.92,66.12L372.05,63.22L374.17,80.6L376.3,81.92L378.43,82.13L382.68,66.81L384.8,63.08L386.93,58.41L389.06,49.93L391.18,46.81L393.31,55.44L399.69,54.69L401.81,53.95L403.94,53.97L406.06,57.19L408.19,47.67L410.32,50.42L412.44,53.19L414.57,77.4L416.69,79.43L418.82,72L420.95,33.8L423.07,32.14L425.2,24.37L427.32,23.59L429.45,26.09L431.58,52.29L433.7,52.09L435.83,55.45L437.95,56.69L440.08,58.92L442.21,60.34L444.33,60.57L446.46,63.05L448.58,63.95L450.71,62.34L452.84,63.36L454.96,63.64L457.09,75.16L461.34,74.4L463.47,71.26L465.59,71.02L467.72,71.58L469.84,79.29L471.97,81.65L474.1,81.52L476.22,78.52L478.35,81.1L480.47,80.9L484.72,80.3L486.85,75.52L488.98,75.28L491.1,73.96L493.23,71.95L495.35,75.15L499.61,74.76L501.73,73.31L503.86,24.28L505.98,22.1L510.24,16.51L512.36,19.32L514.49,18.1L516.61,19.8L520.87,20.33L522.99,19.09L525.12,16L527.24,81.56L529.37,79.23L531.5,78.9L533.62,71.4L535.75,78.84L537.87,79.63L540,79.2" style="fill: rgb(99, 110, 250); fill-opacity: 0.5; stroke-width: 0;"/></g></g><g class="errorbars"/><g class="lines"><path class="js-line" d="M0,319.89L8.5,317.35L10.63,315.31L14.88,313.91L17.01,292.7L21.26,256.85L23.39,237.81L27.64,231.69L29.76,226.62L31.89,210.54L34.02,205.51L38.27,204.57L40.39,183.91L42.52,186.38L44.65,174.41L46.77,176.01L48.9,159.05L51.02,150.9L53.15,147.53L55.28,130.16L57.4,127.53L59.53,125.64L61.65,137.48L63.78,146.28L65.91,144.35L68.03,143.44L70.16,140.35L74.41,138.78L76.54,129.33L78.66,133.94L80.79,129.34L82.91,126.03L85.04,127.34L87.17,126.76L89.29,128.2L93.54,125.48L95.67,128.48L97.8,130.23L99.92,128.66L102.05,125.9L104.17,126.38L106.3,128.48L108.43,128.46L119.06,129.77L121.18,136.16L125.43,136.39L127.56,130.6L131.81,128.32L133.94,128L136.06,125.98L138.19,122.14L140.32,121L142.44,123.89L146.69,124.38L148.82,123.1L153.07,119.7L155.2,129.26L157.32,139.08L159.45,137.55L161.57,134.97L163.7,141.07L165.83,148.42L167.95,147.4L170.08,148.62L172.2,151.8L174.33,153.25L176.46,152.34L180.71,151.15L182.83,149.38L184.96,154.64L187.09,153.82L189.21,153.84L191.34,153.09L193.46,151.69L195.59,156.97L197.72,157.47L199.84,156.89L201.97,157.02L204.09,155.02L208.35,155.63L210.47,153.52L212.6,156.94L214.72,157.62L216.85,154.39L218.98,156.18L221.1,162.27L223.23,162.33L225.35,158.92L227.48,158.88L229.61,157.35L231.73,154.15L233.86,159.45L235.98,157.27L238.11,157.94L240.24,157.5L242.36,156.83L244.49,157.72L246.61,155.99L248.74,179.93L250.87,179.17L252.99,179.29L255.12,179.48L257.24,180.83L259.37,180.55L261.5,177.75L265.75,175.52L267.87,178.66L272.13,177.73L274.25,170.46L276.38,166.43L278.5,164.19L280.63,162.73L282.76,163.46L284.88,159.6L287.01,153.71L289.13,154.79L291.26,152.88L293.39,142.86L295.51,138.05L297.64,139.83L299.76,138.57L304.02,138.52L306.14,130.31L308.27,130.23L310.39,124.34L312.52,119.5L314.65,119.67L316.77,119.3L318.9,120.65L321.02,119.44L323.15,117.12L327.4,117.66L329.53,114.39L331.65,120.07L333.78,112.39L340.16,96.78L342.28,99.22L344.41,98.99L346.54,58.57L350.79,56.29L352.91,59.25L355.04,64.3L357.17,63.99L359.29,62.64L361.42,63.84L363.54,62.38L365.67,63.29L367.8,63.53L369.92,66.12L372.05,63.22L374.17,80.6L376.3,81.92L378.43,82.13L382.68,66.81L384.8,63.08L386.93,58.41L389.06,49.93L391.18,46.81L393.31,55.44L399.69,54.69L401.81,53.95L403.94,53.97L406.06,57.19L408.19,47.67L410.32,50.42L412.44,53.19L414.57,77.4L416.69,79.43L418.82,72L420.95,33.8L423.07,32.14L425.2,24.37L427.32,23.59L429.45,26.09L431.58,52.29L433.7,52.09L435.83,55.45L437.95,56.69L440.08,58.92L442.21,60.34L444.33,60.57L446.46,63.05L448.58,63.95L450.71,62.34L452.84,63.36L454.96,63.64L457.09,75.16L461.34,74.4L463.47,71.26L465.59,71.02L467.72,71.58L469.84,79.29L471.97,81.65L474.1,81.52L476.22,78.52L478.35,81.1L480.47,80.9L484.72,80.3L486.85,75.52L488.98,75.28L491.1,73.96L493.23,71.95L495.35,75.15L499.61,74.76L501.73,73.31L503.86,24.28L505.98,22.1L510.24,16.51L512.36,19.32L514.49,18.1L516.61,19.8L520.87,20.33L522.99,19.09L525.12,16L527.24,81.56L529.37,79.23L531.5,78.9L533.62,71.4L535.75,78.84L537.87,79.63L540,79.2" style="vector-effect: none; fill: none; stroke: rgb(99, 110, 250); stroke-opacity: 1; stroke-width: 2px; opacity: 1;"/></g><g class="points"/><g class="text"/></g></g></g><g class="overplot"/><path class="xlines-above crisp" d="M0,0" style="fill: none;"/><path class="ylines-above crisp" d="M0,0" style="fill: none;"/><g class="overlines-above"/><g class="xaxislayer-above"><g class="xtick"><text text-anchor="middle" x="0" y="433" transform="translate(86.38,0)" style="font-family: 'Open Sans', verdana, arial, sans-serif; font-size: 12px; fill: rgb(42, 63, 95); fill-opacity: 1; white-space: pre; opacity: 1;">Sep 2022</text></g><g class="xtick"><text text-anchor="middle" x="0" y="433" style="font-family: 'Open Sans', verdana, arial, sans-serif; font-size: 12px; fill: rgb(42, 63, 95); fill-opacity: 1; white-space: pre; opacity: 1;" transform="translate(216.06,0)">Nov 2022</text></g><g class="xtick"><text text-anchor="middle" x="0" y="433" style="font-family: 'Open Sans', verdana, arial, sans-serif; font-size: 12px; fill: rgb(42, 63, 95); fill-opacity: 1; white-space: pre; opacity: 1;" transform="translate(345.75,0)">Jan 2023</text></g><g class="xtick"><text text-anchor="middle" x="0" y="433" style="font-family: 'Open Sans', verdana, arial, sans-serif; font-size: 12px; fill: rgb(42, 63, 95); fill-opacity: 1; white-space: pre; opacity: 1;" transform="translate(471.18,0)">Mar 2023</text></g><g class="xtick"><text text-anchor="middle" x="0" y="433" style="font-family: 'Open Sans', verdana, arial, sans-serif; font-size: 12px; fill: rgb(42, 63, 95); fill-opacity: 1; white-space: pre; opacity: 1;" transform="translate(600.87,0)">May 2023</text></g></g><g class="yaxislayer-above"><g class="ytick"><text text-anchor="end" x="79" y="4.199999999999999" transform="translate(0,420)" style="font-family: 'Open Sans', verdana, arial, sans-serif; font-size: 12px; fill: rgb(42, 63, 95); fill-opacity: 1; white-space: pre; opacity: 1;">$0</text></g><g class="ytick"><text text-anchor="end" x="79" y="4.199999999999999" style="font-family: 'Open Sans', verdana, arial, sans-serif; font-size: 12px; fill: rgb(42, 63, 95); fill-opacity: 1; white-space: pre; opacity: 1;" transform="translate(0,376.37)">$2M</text></g><g class="ytick"><text text-anchor="end" x="79" y="4.199999999999999" style="font-family: 'Open Sans', verdana, arial, sans-serif; font-size: 12px; fill: rgb(42, 63, 95); fill-opacity: 1; white-space: pre; opacity: 1;" transform="translate(0,332.73)">$4M</text></g><g class="ytick"><text text-anchor="end" x="79" y="4.199999999999999" style="font-family: 'Open Sans', verdana, arial, sans-serif; font-size: 12px; fill: rgb(42, 63, 95); fill-opacity: 1; white-space: pre; opacity: 1;" transform="translate(0,289.1)">$6M</text></g><g class="ytick"><text text-anchor="end" x="79" y="4.199999999999999" style="font-family: 'Open Sans', verdana, arial, sans-serif; font-size: 12px; fill: rgb(42, 63, 95); fill-opacity: 1; white-space: pre; opacity: 1;" transform="translate(0,245.46)">$8M</text></g><g class="ytick"><text text-anchor="end" x="79" y="4.199999999999999" style="font-family: 'Open Sans', verdana, arial, sans-serif; font-size: 12px; fill: rgb(42, 63, 95); fill-opacity: 1; white-space: pre; opacity: 1;" transform="translate(0,201.82999999999998)">$10M</text></g><g class="ytick"><text text-anchor="end" x="79" y="4.199999999999999" style="font-family: 'Open Sans', verdana, arial, sans-serif; font-size: 12px; fill: rgb(42, 63, 95); fill-opacity: 1; white-space: pre; opacity: 1;" transform="translate(0,158.19)">$12M</text></g><g class="ytick"><text text-anchor="end" x="79" y="4.199999999999999" style="font-family: 'Open Sans', verdana, arial, sans-serif; font-size: 12px; fill: rgb(42, 63, 95); fill-opacity: 1; white-space: pre; opacity: 1;" transform="translate(0,114.56)">$14M</text></g></g><g class="overaxes-above"/></g></g><g class="polarlayer"/><g class="smithlayer"/><g class="ternarylayer"/><g class="geolayer"/><g class="funnelarealayer"/><g class="pielayer"/><g class="iciclelayer"/><g class="treemaplayer"/><g class="sunburstlayer"/><g class="glimages"/><defs id="topdefs-4c17af"><g class="clips"/></defs><g class="layer-above"><g class="imagelayer"/><g class="shapelayer"/></g><g class="infolayer"><g class="g-gtitle"><text class="gtitle" x="35" y="50" text-anchor="start" dy="0em" style="font-family: 'Open Sans', verdana, arial, sans-serif; font-size: 17px; fill: rgb(42, 63, 95); opacity: 1; font-weight: normal; white-space: pre;"><tspan class="line" dy="0em" x="35" y="50">Pika Protocol</tspan><tspan class="line" dy="1.3em" x="35" y="50">​<tspan style="font-size:70%" dy="-0.6em">Cumulative Net Flows since Program Announcement, Until Program End + 30 Days</tspan><tspan dy="0.42em">​</tspan></tspan></text></g><g class="g-xtitle"><text class="xtitle" x="350" y="460.3" text-anchor="middle" style="font-family: 'Open Sans', verdana, arial, sans-serif; font-size: 14px; fill: rgb(42, 63, 95); opacity: 1; font-weight: normal; white-space: pre;">Day</text></g><g class="g-ytitle"><text class="ytitle" transform="rotate(-90,24.668750000000003,260)" x="24.668750000000003" y="260" text-anchor="middle" style="font-family: 'Open Sans', verdana, arial, sans-serif; font-size: 14px; fill: rgb(42, 63, 95); opacity: 1; font-weight: normal; white-space: pre;">Cumulative Net Flows (USD)</text></g></g></svg>