<svg class="main-svg" xmlns="http://www.w3.org/2000/svg" xmlns:xlink="http://www.w3.org/1999/xlink" width="700" height="500" style="" viewBox="0 0 700 500"><rect x="0" y="0" width="700" height="500" style="fill: rgb(255, 255, 255); fill-opacity: 1;"/><defs id="defs-55786b"><g class="clips"><clipPath id="clip55786bxyplot" class="plotclip"><rect width="540" height="320"/></clipPath><clipPath class="axesclip" id="clip55786bx"><rect x="80" y="0" width="540" height="500"/></clipPath><clipPath class="axesclip" id="clip55786by"><rect x="0" y="100" width="700" height="320"/></clipPath><clipPath class="axesclip" id="clip55786bxy"><rect x="80" y="100" width="540" height="320"/></clipPath></g><g class="gradients"/><g class="patterns"/></defs><g class="bglayer"><rect class="bg" x="80" y="100" width="540" height="320" style="fill: rgb(229, 236, 246); fill-opacity: 1; stroke-width: 0;"/></g><g class="layer-below"><g class="imagelayer"/><g class="shapelayer"/></g><g class="cartesianlayer"><g class="subplot xy"><g class="layer-subplot"><g class="shapelayer"/><g class="imagelayer"/></g><g class="minor-gridlayer"><g class="x"/><g class="y"/></g><g class="gridlayer"><g class="x"><path class="xgrid crisp" transform="translate(119.25,0)" d="M0,100v320" style="stroke: rgb(255, 255, 255); stroke-opacity: 1; stroke-width: 1px;"/><path class="xgrid crisp" transform="translate(191.81,0)" d="M0,100v320" style="stroke: rgb(255, 255, 255); stroke-opacity: 1; stroke-width: 1px;"/><path class="xgrid crisp" transform="translate(261.98,0)" d="M0,100v320" style="stroke: rgb(255, 255, 255); stroke-opacity: 1; stroke-width: 1px;"/><path class="xgrid crisp" transform="translate(334.53999999999996,0)" d="M0,100v320" style="stroke: rgb(255, 255, 255); stroke-opacity: 1; stroke-width: 1px;"/><path class="xgrid crisp" transform="translate(407.09,0)" d="M0,100v320" style="stroke: rgb(255, 255, 255); stroke-opacity: 1; stroke-width: 1px;"/><path class="xgrid crisp" transform="translate(480.84,0)" d="M0,100v320" style="stroke: rgb(255, 255, 255); stroke-opacity: 1; stroke-width: 1px;"/><path class="xgrid crisp" transform="translate(553.39,0)" d="M0,100v320" style="stroke: rgb(255, 255, 255); stroke-opacity: 1; stroke-width: 1px;"/></g><g class="y"><path class="ygrid crisp" transform="translate(0,382.85)" d="M80,0h540" style="stroke: rgb(255, 255, 255); stroke-opacity: 1; stroke-width: 1px;"/><path class="ygrid crisp" transform="translate(0,345.69)" d="M80,0h540" style="stroke: rgb(255, 255, 255); stroke-opacity: 1; stroke-width: 1px;"/><path class="ygrid crisp" transform="translate(0,308.53999999999996)" d="M80,0h540" style="stroke: rgb(255, 255, 255); stroke-opacity: 1; stroke-width: 1px;"/><path class="ygrid crisp" transform="translate(0,271.39)" d="M80,0h540" style="stroke: rgb(255, 255, 255); stroke-opacity: 1; stroke-width: 1px;"/><path class="ygrid crisp" transform="translate(0,234.24)" d="M80,0h540" style="stroke: rgb(255, 255, 255); stroke-opacity: 1; stroke-width: 1px;"/><path class="ygrid crisp" transform="translate(0,197.07999999999998)" d="M80,0h540" style="stroke: rgb(255, 255, 255); stroke-opacity: 1; stroke-width: 1px;"/><path class="ygrid crisp" transform="translate(0,159.93)" d="M80,0h540" style="stroke: rgb(255, 255, 255); stroke-opacity: 1; stroke-width: 1px;"/><path class="ygrid crisp" transform="translate(0,122.78)" d="M80,0h540" style="stroke: rgb(255, 255, 255); stroke-opacity: 1; stroke-width: 1px;"/></g></g><g class="zerolinelayer"><path class="yzl zl crisp" transform="translate(0,420)" d="M80,0h540" style="stroke: rgb(255, 255, 255); stroke-opacity: 1; stroke-width: 2px;"/></g><path class="xlines-below"/><path class="ylines-below"/><g class="overlines-below"/><g class="xaxislayer-below"/><g class="yaxislayer-below"/><g class="overaxes-below"/><g class="plot" transform="translate(80,100)" clip-path="url(#clip55786bxyplot)"><g class="scatterlayer mlayer"><g class="trace scatter tracefdb9f8" style="stroke-miterlimit: 2;"><g class="fills"><g><path class="js-fill" d="M540,320L0,320L0,319.8L2.38,285.97L3.57,279.65L4.76,286.52L5.95,272.64L7.14,270.83L8.33,273.61L9.52,268.76L10.7,258.17L11.89,249.49L13.08,224.56L14.27,225.39L15.46,220.67L16.65,219.97L17.84,224.85L19.03,228.84L20.22,228.69L22.6,225.36L23.79,224.5L24.98,224.37L26.17,228.18L27.36,228.12L28.55,227.22L29.74,225.89L30.93,231.27L33.3,213.66L34.49,212.29L36.87,201.43L38.06,195.82L39.25,192.16L40.44,196.66L41.63,197.48L42.82,192.02L45.2,181.05L46.39,186.11L47.58,186.1L48.77,205.91L49.96,226.42L51.15,221.34L53.52,220.76L54.71,222.29L57.09,219.48L58.28,220.11L59.47,222.93L60.66,220.75L61.85,220.57L63.04,224.98L64.23,224.14L65.42,220.75L67.8,213.61L68.99,213.81L70.18,212.31L71.37,212.99L72.56,216.59L73.74,214.81L76.12,207.7L77.31,212.07L78.5,217.11L79.69,216.59L80.88,219.14L82.07,227.59L83.26,232.33L84.45,230.74L85.64,229.47L86.83,223.32L88.02,224.36L89.21,222.32L90.4,216.92L91.59,218.32L93.96,225.24L95.15,224.31L96.34,223.99L97.53,224.74L98.72,221.5L99.91,222.14L101.1,209.16L102.29,209.45L103.48,210.56L104.67,210L107.05,207.26L108.24,209.14L113,204.48L114.19,200.73L117.75,197.93L118.94,212.29L120.13,213.14L121.32,207.73L122.51,205.07L123.7,205.11L124.89,199.3L126.08,198.29L128.46,170.16L129.65,164.18L130.84,161.25L132.03,163.05L133.22,169.9L134.41,185.11L135.59,178.3L136.78,191.46L137.97,201L139.16,181.97L140.35,191.05L141.54,189.48L142.73,186.2L143.92,185.49L146.3,177.52L147.49,209.6L148.68,210.45L149.87,203.25L151.06,195.11L152.25,196.34L154.63,190.9L155.81,193.47L157,147.34L158.19,150.06L159.38,151.68L160.57,158.71L161.76,148.93L162.95,154.53L165.33,128.43L166.52,111.96L167.71,118.78L168.9,102.32L170.09,101.04L171.28,105.02L172.47,86.08L173.66,90.44L174.85,93.16L176.04,90.13L177.22,109.03L178.41,95.98L179.6,88.36L180.79,89.17L181.98,89.87L183.17,82.8L184.36,84L185.55,83.64L187.93,83.07L189.12,77.75L190.31,123.46L191.5,123.44L192.69,113.77L193.88,121.77L195.07,127.64L196.26,126.25L197.44,120.55L198.63,110.79L201.01,103.38L202.2,62.54L203.39,76.2L204.58,76.78L206.96,56.82L208.15,58.45L209.34,59.74L210.53,59.19L211.72,58L212.91,59.36L214.1,58.54L215.29,60.15L216.48,36.22L217.67,30.94L218.85,29.67L220.04,38.67L221.23,41.31L222.42,41.9L224.8,39.39L225.99,27.95L227.18,22.7L228.37,32.5L229.56,33.4L230.75,19.16L231.94,17.15L233.13,17.29L234.32,16L235.51,24.4L237.89,28.05L239.07,36.43L240.26,34.51L241.45,34.85L242.64,45.39L243.83,45.95L246.21,45.94L247.4,44.71L248.59,33.97L249.78,33L250.97,31.29L252.16,31.91L254.54,31.07L255.73,34.99L256.92,24.36L258.11,25.54L259.3,27.43L260.48,31.18L261.67,30.16L262.86,43.14L264.05,43.7L265.24,42.8L267.62,42.37L268.81,45.83L271.19,47.1L272.38,49.44L273.57,53.43L274.76,53.99L275.95,53.56L277.14,54.01L278.33,56.85L279.52,55.6L280.7,57.42L281.89,69.6L283.08,79.64L284.27,81.56L285.46,83.38L286.65,77.82L287.84,56.36L289.03,83.06L290.22,100.51L291.41,99.99L292.6,93.72L293.79,92.77L296.17,91.4L297.36,92.02L298.55,92.13L299.74,93.06L300.93,91.47L302.11,95.04L303.3,111.28L304.49,113.24L305.68,109.85L306.87,116.16L308.06,118.31L309.25,115.79L310.44,114.08L311.63,136.94L312.82,154.65L314.01,155.23L315.2,155.25L316.39,170.75L317.58,162.2L318.77,162.48L319.96,164.51L321.15,163.61L322.33,166.05L323.52,164.6L324.71,164.93L325.9,175.74L327.09,175.56L328.28,187.48L329.47,186.21L330.66,187.02L333.04,185.89L334.23,172.93L335.42,173.06L336.61,170.88L337.8,155.5L338.99,154.9L340.18,156.11L341.37,158.83L342.56,159.37L343.74,162.35L344.93,169.94L346.12,167.79L347.31,167.61L348.5,171.38L349.69,176.31L350.88,185.93L353.26,189.35L354.45,188.76L355.64,185.42L356.83,188.33L358.02,192.52L359.21,192.3L360.4,191.87L361.59,189.64L362.78,195.02L363.96,196.23L366.34,195.19L367.53,193.4L368.72,198.41L369.91,198.17L372.29,198.44L373.48,198.73L374.67,199.87L375.86,198.41L377.05,217.02L378.24,217.07L379.43,217.85L380.62,215.81L381.81,217.95L383,215.8L384.19,216.3L385.37,214.74L386.56,216.12L387.75,216.29L388.94,216.48L390.13,225L391.32,224.84L392.51,222.57L393.7,222.91L394.89,221.48L396.08,223.92L397.27,248.15L399.65,247.79L400.84,249.96L403.22,250.83L404.41,250.81L405.59,250.65L406.78,247.83L410.35,237.94L411.54,237.84L422.25,238.22L423.44,231.43L424.63,228.36L425.81,228.66L428.19,228.26L429.38,229.29L430.57,230.17L431.76,233.35L432.95,234.27L434.14,231.15L435.33,227.89L436.52,226.86L437.71,225.87L438.9,223.03L440.09,222.57L441.28,219.53L444.85,214.57L446.04,214.52L447.22,212.99L448.41,212.99L449.6,215.4L450.79,215.34L451.98,212.82L453.17,213.51L454.36,213.48L455.55,215.15L456.74,222.5L457.93,223.22L459.12,234.89L460.31,233.58L462.69,230.76L463.88,230.64L465.07,228.91L466.26,228.63L468.63,226.46L469.82,226.63L472.2,223.61L473.39,222.9L474.58,209.57L475.77,214.03L478.15,197.65L479.34,195.36L480.53,199.98L481.72,195.89L482.91,195.9L484.1,200.37L485.29,199.58L486.48,201.63L487.67,207.62L488.85,206.56L490.04,203.85L491.23,203.13L492.42,184.56L493.61,181.07L495.99,178.39L497.18,175.06L498.37,167.65L499.56,168.53L500.75,172.3L501.94,172.01L504.32,173.17L505.51,172.43L507.89,174.75L509.07,172.68L510.26,170.29L511.45,170.04L515.02,168.2L516.21,162.78L517.4,163.61L518.59,162.28L519.78,161.63L520.97,158.43L522.16,164.15L523.35,163.16L524.54,159.65L525.73,160.99L526.92,159.37L528.11,159.96L529.3,159.84L530.48,157.59L534.05,157.52L535.24,158.07L537.62,163.44L538.81,162.8L540,162.76" style="fill: rgb(99, 110, 250); fill-opacity: 0.5; stroke-width: 0;"/></g></g><g class="errorbars"/><g class="lines"><path class="js-line" d="M0,319.8L2.38,285.97L3.57,279.65L4.76,286.52L5.95,272.64L7.14,270.83L8.33,273.61L9.52,268.76L10.7,258.17L11.89,249.49L13.08,224.56L14.27,225.39L15.46,220.67L16.65,219.97L17.84,224.85L19.03,228.84L20.22,228.69L22.6,225.36L23.79,224.5L24.98,224.37L26.17,228.18L27.36,228.12L28.55,227.22L29.74,225.89L30.93,231.27L33.3,213.66L34.49,212.29L36.87,201.43L38.06,195.82L39.25,192.16L40.44,196.66L41.63,197.48L42.82,192.02L45.2,181.05L46.39,186.11L47.58,186.1L48.77,205.91L49.96,226.42L51.15,221.34L53.52,220.76L54.71,222.29L57.09,219.48L58.28,220.11L59.47,222.93L60.66,220.75L61.85,220.57L63.04,224.98L64.23,224.14L65.42,220.75L67.8,213.61L68.99,213.81L70.18,212.31L71.37,212.99L72.56,216.59L73.74,214.81L76.12,207.7L77.31,212.07L78.5,217.11L79.69,216.59L80.88,219.14L82.07,227.59L83.26,232.33L84.45,230.74L85.64,229.47L86.83,223.32L88.02,224.36L89.21,222.32L90.4,216.92L91.59,218.32L93.96,225.24L95.15,224.31L96.34,223.99L97.53,224.74L98.72,221.5L99.91,222.14L101.1,209.16L102.29,209.45L103.48,210.56L104.67,210L107.05,207.26L108.24,209.14L113,204.48L114.19,200.73L117.75,197.93L118.94,212.29L120.13,213.14L121.32,207.73L122.51,205.07L123.7,205.11L124.89,199.3L126.08,198.29L128.46,170.16L129.65,164.18L130.84,161.25L132.03,163.05L133.22,169.9L134.41,185.11L135.59,178.3L136.78,191.46L137.97,201L139.16,181.97L140.35,191.05L141.54,189.48L142.73,186.2L143.92,185.49L146.3,177.52L147.49,209.6L148.68,210.45L149.87,203.25L151.06,195.11L152.25,196.34L154.63,190.9L155.81,193.47L157,147.34L158.19,150.06L159.38,151.68L160.57,158.71L161.76,148.93L162.95,154.53L165.33,128.43L166.52,111.96L167.71,118.78L168.9,102.32L170.09,101.04L171.28,105.02L172.47,86.08L173.66,90.44L174.85,93.16L176.04,90.13L177.22,109.03L178.41,95.98L179.6,88.36L180.79,89.17L181.98,89.87L183.17,82.8L184.36,84L185.55,83.64L187.93,83.07L189.12,77.75L190.31,123.46L191.5,123.44L192.69,113.77L193.88,121.77L195.07,127.64L196.26,126.25L197.44,120.55L198.63,110.79L201.01,103.38L202.2,62.54L203.39,76.2L204.58,76.78L206.96,56.82L208.15,58.45L209.34,59.74L210.53,59.19L211.72,58L212.91,59.36L214.1,58.54L215.29,60.15L216.48,36.22L217.67,30.94L218.85,29.67L220.04,38.67L221.23,41.31L222.42,41.9L224.8,39.39L225.99,27.95L227.18,22.7L228.37,32.5L229.56,33.4L230.75,19.16L231.94,17.15L233.13,17.29L234.32,16L235.51,24.4L237.89,28.05L239.07,36.43L240.26,34.51L241.45,34.85L242.64,45.39L243.83,45.95L246.21,45.94L247.4,44.71L248.59,33.97L249.78,33L250.97,31.29L252.16,31.91L254.54,31.07L255.73,34.99L256.92,24.36L258.11,25.54L259.3,27.43L260.48,31.18L261.67,30.16L262.86,43.14L264.05,43.7L265.24,42.8L267.62,42.37L268.81,45.83L271.19,47.1L272.38,49.44L273.57,53.43L274.76,53.99L275.95,53.56L277.14,54.01L278.33,56.85L279.52,55.6L280.7,57.42L281.89,69.6L283.08,79.64L284.27,81.56L285.46,83.38L286.65,77.82L287.84,56.36L289.03,83.06L290.22,100.51L291.41,99.99L292.6,93.72L293.79,92.77L296.17,91.4L297.36,92.02L298.55,92.13L299.74,93.06L300.93,91.47L302.11,95.04L303.3,111.28L304.49,113.24L305.68,109.85L306.87,116.16L308.06,118.31L309.25,115.79L310.44,114.08L311.63,136.94L312.82,154.65L314.01,155.23L315.2,155.25L316.39,170.75L317.58,162.2L318.77,162.48L319.96,164.51L321.15,163.61L322.33,166.05L323.52,164.6L324.71,164.93L325.9,175.74L327.09,175.56L328.28,187.48L329.47,186.21L330.66,187.02L333.04,185.89L334.23,172.93L335.42,173.06L336.61,170.88L337.8,155.5L338.99,154.9L340.18,156.11L341.37,158.83L342.56,159.37L343.74,162.35L344.93,169.94L346.12,167.79L347.31,167.61L348.5,171.38L349.69,176.31L350.88,185.93L353.26,189.35L354.45,188.76L355.64,185.42L356.83,188.33L358.02,192.52L359.21,192.3L360.4,191.87L361.59,189.64L362.78,195.02L363.96,196.23L366.34,195.19L367.53,193.4L368.72,198.41L369.91,198.17L372.29,198.44L373.48,198.73L374.67,199.87L375.86,198.41L377.05,217.02L378.24,217.07L379.43,217.85L380.62,215.81L381.81,217.95L383,215.8L384.19,216.3L385.37,214.74L386.56,216.12L387.75,216.29L388.94,216.48L390.13,225L391.32,224.84L392.51,222.57L393.7,222.91L394.89,221.48L396.08,223.92L397.27,248.15L399.65,247.79L400.84,249.96L403.22,250.83L404.41,250.81L405.59,250.65L406.78,247.83L410.35,237.94L411.54,237.84L422.25,238.22L423.44,231.43L424.63,228.36L425.81,228.66L428.19,228.26L429.38,229.29L430.57,230.17L431.76,233.35L432.95,234.27L434.14,231.15L435.33,227.89L436.52,226.86L437.71,225.87L438.9,223.03L440.09,222.57L441.28,219.53L444.85,214.57L446.04,214.52L447.22,212.99L448.41,212.99L449.6,215.4L450.79,215.34L451.98,212.82L453.17,213.51L454.36,213.48L455.55,215.15L456.74,222.5L457.93,223.22L459.12,234.89L460.31,233.58L462.69,230.76L463.88,230.64L465.07,228.91L466.26,228.63L468.63,226.46L469.82,226.63L472.2,223.61L473.39,222.9L474.58,209.57L475.77,214.03L478.15,197.65L479.34,195.36L480.53,199.98L481.72,195.89L482.91,195.9L484.1,200.37L485.29,199.58L486.48,201.63L487.67,207.62L488.85,206.56L490.04,203.85L491.23,203.13L492.42,184.56L493.61,181.07L495.99,178.39L497.18,175.06L498.37,167.65L499.56,168.53L500.75,172.3L501.94,172.01L504.32,173.17L505.51,172.43L507.89,174.75L509.07,172.68L510.26,170.29L511.45,170.04L515.02,168.2L516.21,162.78L517.4,163.61L518.59,162.28L519.78,161.63L520.97,158.43L522.16,164.15L523.35,163.16L524.54,159.65L525.73,160.99L526.92,159.37L528.11,159.96L529.3,159.84L530.48,157.59L534.05,157.52L535.24,158.07L537.62,163.44L538.81,162.8L540,162.76" style="vector-effect: none; fill: none; stroke: rgb(99, 110, 250); stroke-opacity: 1; stroke-width: 2px; opacity: 1;"/></g><g class="points"/><g class="text"/></g></g></g><g class="overplot"/><path class="xlines-above crisp" d="M0,0" style="fill: none;"/><path class="ylines-above crisp" d="M0,0" style="fill: none;"/><g class="overlines-above"/><g class="xaxislayer-above"><g class="xtick"><text text-anchor="middle" x="0" y="433" transform="translate(119.25,0)" style="font-family: 'Open Sans', verdana, arial, sans-serif; font-size: 12px; fill: rgb(42, 63, 95); fill-opacity: 1; white-space: pre; opacity: 1;">Nov 2022</text></g><g class="xtick"><text text-anchor="middle" x="0" y="433" style="font-family: 'Open Sans', verdana, arial, sans-serif; font-size: 12px; fill: rgb(42, 63, 95); fill-opacity: 1; white-space: pre; opacity: 1;" transform="translate(191.81,0)">Jan 2023</text></g><g class="xtick"><text text-anchor="middle" x="0" y="433" style="font-family: 'Open Sans', verdana, arial, sans-serif; font-size: 12px; fill: rgb(42, 63, 95); fill-opacity: 1; white-space: pre; opacity: 1;" transform="translate(261.98,0)">Mar 2023</text></g><g class="xtick"><text text-anchor="middle" x="0" y="433" style="font-family: 'Open Sans', verdana, arial, sans-serif; font-size: 12px; fill: rgb(42, 63, 95); fill-opacity: 1; white-space: pre; opacity: 1;" transform="translate(334.53999999999996,0)">May 2023</text></g><g class="xtick"><text text-anchor="middle" x="0" y="433" style="font-family: 'Open Sans', verdana, arial, sans-serif; font-size: 12px; fill: rgb(42, 63, 95); fill-opacity: 1; white-space: pre; opacity: 1;" transform="translate(407.09,0)">Jul 2023</text></g><g class="xtick"><text text-anchor="middle" x="0" y="433" style="font-family: 'Open Sans', verdana, arial, sans-serif; font-size: 12px; fill: rgb(42, 63, 95); fill-opacity: 1; white-space: pre; opacity: 1;" transform="translate(480.84,0)">Sep 2023</text></g><g class="xtick"><text text-anchor="middle" x="0" y="433" style="font-family: 'Open Sans', verdana, arial, sans-serif; font-size: 12px; fill: rgb(42, 63, 95); fill-opacity: 1; white-space: pre; opacity: 1;" transform="translate(553.39,0)">Nov 2023</text></g></g><g class="yaxislayer-above"><g class="ytick"><text text-anchor="end" x="79" y="4.199999999999999" transform="translate(0,420)" style="font-family: 'Open Sans', verdana, arial, sans-serif; font-size: 12px; fill: rgb(42, 63, 95); fill-opacity: 1; white-space: pre; opacity: 1;">$0</text></g><g class="ytick"><text text-anchor="end" x="79" y="4.199999999999999" style="font-family: 'Open Sans', verdana, arial, sans-serif; font-size: 12px; fill: rgb(42, 63, 95); fill-opacity: 1; white-space: pre; opacity: 1;" transform="translate(0,382.85)">$5M</text></g><g class="ytick"><text text-anchor="end" x="79" y="4.199999999999999" style="font-family: 'Open Sans', verdana, arial, sans-serif; font-size: 12px; fill: rgb(42, 63, 95); fill-opacity: 1; white-space: pre; opacity: 1;" transform="translate(0,345.69)">$10M</text></g><g class="ytick"><text text-anchor="end" x="79" y="4.199999999999999" style="font-family: 'Open Sans', verdana, arial, sans-serif; font-size: 12px; fill: rgb(42, 63, 95); fill-opacity: 1; white-space: pre; opacity: 1;" transform="translate(0,308.53999999999996)">$15M</text></g><g class="ytick"><text text-anchor="end" x="79" y="4.199999999999999" style="font-family: 'Open Sans', verdana, arial, sans-serif; font-size: 12px; fill: rgb(42, 63, 95); fill-opacity: 1; white-space: pre; opacity: 1;" transform="translate(0,271.39)">$20M</text></g><g class="ytick"><text text-anchor="end" x="79" y="4.199999999999999" style="font-family: 'Open Sans', verdana, arial, sans-serif; font-size: 12px; fill: rgb(42, 63, 95); fill-opacity: 1; white-space: pre; opacity: 1;" transform="translate(0,234.24)">$25M</text></g><g class="ytick"><text text-anchor="end" x="79" y="4.199999999999999" style="font-family: 'Open Sans', verdana, arial, sans-serif; font-size: 12px; fill: rgb(42, 63, 95); fill-opacity: 1; white-space: pre; opacity: 1;" transform="translate(0,197.07999999999998)">$30M</text></g><g class="ytick"><text text-anchor="end" x="79" y="4.199999999999999" style="font-family: 'Open Sans', verdana, arial, sans-serif; font-size: 12px; fill: rgb(42, 63, 95); fill-opacity: 1; white-space: pre; opacity: 1;" transform="translate(0,159.93)">$35M</text></g><g class="ytick"><text text-anchor="end" x="79" y="4.199999999999999" style="font-family: 'Open Sans', verdana, arial, sans-serif; font-size: 12px; fill: rgb(42, 63, 95); fill-opacity: 1; white-space: pre; opacity: 1;" transform="translate(0,122.78)">$40M</text></g></g><g class="overaxes-above"/></g></g><g class="polarlayer"/><g class="smithlayer"/><g class="ternarylayer"/><g class="geolayer"/><g class="funnelarealayer"/><g class="pielayer"/><g class="iciclelayer"/><g class="treemaplayer"/><g class="sunburstlayer"/><g class="glimages"/><defs id="topdefs-55786b"><g class="clips"/></defs><g class="layer-above"><g class="imagelayer"/><g class="shapelayer"/></g><g class="infolayer"><g class="g-gtitle"><text class="gtitle" x="35" y="50" text-anchor="start" dy="0em" style="font-family: 'Open Sans', verdana, arial, sans-serif; font-size: 17px; fill: rgb(42, 63, 95); opacity: 1; font-weight: normal; white-space: pre;"><tspan class="line" dy="0em" x="35" y="50">Beethoven X</tspan><tspan class="line" dy="1.3em" x="35" y="50">​<tspan style="font-size:70%" dy="-0.6em">Cumulative Net Flows since Program Announcement, Until Program End + 30 Days</tspan><tspan dy="0.42em">​</tspan></tspan></text></g><g class="g-xtitle"><text class="xtitle" x="350" y="460.3" text-anchor="middle" style="font-family: 'Open Sans', verdana, arial, sans-serif; font-size: 14px; fill: rgb(42, 63, 95); opacity: 1; font-weight: normal; white-space: pre;">Day</text></g><g class="g-ytitle"><text class="ytitle" transform="rotate(-90,24.668750000000003,260)" x="24.668750000000003" y="260" text-anchor="middle" style="font-family: 'Open Sans', verdana, arial, sans-serif; font-size: 14px; fill: rgb(42, 63, 95); opacity: 1; font-weight: normal; white-space: pre;">Cumulative Net Flows (USD)</text></g></g></svg>