<svg class="main-svg" xmlns="http://www.w3.org/2000/svg" xmlns:xlink="http://www.w3.org/1999/xlink" width="700" height="500" style="" viewBox="0 0 700 500"><rect x="0" y="0" width="700" height="500" style="fill: rgb(255, 255, 255); fill-opacity: 1;"/><defs id="defs-920096"><g class="clips"><clipPath id="clip920096xyplot" class="plotclip"><rect width="540" height="320"/></clipPath><clipPath class="axesclip" id="clip920096x"><rect x="80" y="0" width="540" height="500"/></clipPath><clipPath class="axesclip" id="clip920096y"><rect x="0" y="100" width="700" height="320"/></clipPath><clipPath class="axesclip" id="clip920096xy"><rect x="80" y="100" width="540" height="320"/></clipPath></g><g class="gradients"/><g class="patterns"/></defs><g class="bglayer"><rect class="bg" x="80" y="100" width="540" height="320" style="fill: rgb(229, 236, 246); fill-opacity: 1; stroke-width: 0;"/></g><g class="layer-below"><g class="imagelayer"/><g class="shapelayer"/></g><g class="cartesianlayer"><g class="subplot xy"><g class="layer-subplot"><g class="shapelayer"/><g class="imagelayer"/></g><g class="minor-gridlayer"><g class="x"/><g class="y"/></g><g class="gridlayer"><g class="x"><path class="xgrid crisp" transform="translate(186.76999999999998,0)" d="M0,100v320" style="stroke: rgb(255, 255, 255); stroke-opacity: 1; stroke-width: 1px;"/><path class="xgrid crisp" transform="translate(312.02,0)" d="M0,100v320" style="stroke: rgb(255, 255, 255); stroke-opacity: 1; stroke-width: 1px;"/><path class="xgrid crisp" transform="translate(437.26,0)" d="M0,100v320" style="stroke: rgb(255, 255, 255); stroke-opacity: 1; stroke-width: 1px;"/><path class="xgrid crisp" transform="translate(564.56,0)" d="M0,100v320" style="stroke: rgb(255, 255, 255); stroke-opacity: 1; stroke-width: 1px;"/></g><g class="y"><path class="ygrid crisp" transform="translate(0,403.3)" d="M80,0h540" style="stroke: rgb(255, 255, 255); stroke-opacity: 1; stroke-width: 1px;"/><path class="ygrid crisp" transform="translate(0,299.81)" d="M80,0h540" style="stroke: rgb(255, 255, 255); stroke-opacity: 1; stroke-width: 1px;"/><path class="ygrid crisp" transform="translate(0,248.07)" d="M80,0h540" style="stroke: rgb(255, 255, 255); stroke-opacity: 1; stroke-width: 1px;"/><path class="ygrid crisp" transform="translate(0,196.32999999999998)" d="M80,0h540" style="stroke: rgb(255, 255, 255); stroke-opacity: 1; stroke-width: 1px;"/><path class="ygrid crisp" transform="translate(0,144.59)" d="M80,0h540" style="stroke: rgb(255, 255, 255); stroke-opacity: 1; stroke-width: 1px;"/></g></g><g class="zerolinelayer"><path class="yzl zl crisp" transform="translate(0,351.56)" d="M80,0h540" style="stroke: rgb(255, 255, 255); stroke-opacity: 1; stroke-width: 2px;"/></g><path class="xlines-below"/><path class="ylines-below"/><g class="overlines-below"/><g class="xaxislayer-below"/><g class="yaxislayer-below"/><g class="overaxes-below"/><g class="plot" transform="translate(80,100)" clip-path="url(#clip920096xyplot)"><g class="scatterlayer mlayer"><g class="trace scatter tracec05ae2" style="stroke-miterlimit: 2;"><g class="fills"><g><path class="js-fill" d="M540,251.56L0,251.56L0,187.1L2.05,189.85L4.11,189.85L8.21,189.99L10.27,190.06L14.37,190.11L16.43,189.39L36.96,189.54L39.01,187.4L41.06,178.82L43.12,178.93L45.17,178.86L47.22,176.4L49.28,174.38L51.33,174.09L59.54,173.72L61.6,172.46L65.7,172.13L67.76,171.07L69.81,168.94L71.86,163.33L73.92,170.99L75.97,169.4L78.02,168.84L80.08,152.04L82.13,151.77L84.18,152.67L86.24,152.6L88.29,84L90.34,84.05L92.4,82.97L94.45,76.51L96.5,76.3L98.56,72.12L100.61,71.6L102.66,71.25L104.71,67.38L106.77,67.27L108.82,60.67L110.87,58.06L112.93,56.97L114.98,61.45L117.03,61.1L123.19,60.71L125.25,68.67L127.3,77.32L129.35,69.32L131.41,40.46L133.46,32.61L135.51,32.65L137.57,30.97L139.62,30.65L141.67,38.92L143.73,41.47L145.78,41.15L147.83,41.18L149.89,42.49L151.94,48.71L153.99,48.97L162.21,49.19L164.26,39.84L166.31,40.18L168.37,30.95L172.47,31.36L174.52,30.79L176.58,30.79L178.63,28.78L180.68,29L182.74,28.32L184.79,28.29L186.84,26.17L190.95,29.12L193,16L195.06,16.01L197.11,18.49L199.16,60.74L201.22,60.05L203.27,60.44L205.32,59.84L209.43,54.2L211.48,53.72L215.59,53.88L217.64,54L219.7,49.55L221.75,49.92L225.86,49.8L227.91,49.79L232.02,47.83L234.07,44.88L236.12,45.71L238.17,45.69L244.33,45.45L246.39,47.81L250.49,45.82L252.55,45.82L254.6,54.3L256.65,53.65L258.71,53.63L260.76,52.61L262.81,51.53L264.87,51.52L268.97,51.51L271.03,54.23L273.08,54.22L275.13,58.23L277.19,58.22L279.24,172.7L281.29,167.95L283.35,167.93L297.72,166.03L299.77,166.18L301.83,165.81L303.88,161.67L305.93,161.64L307.98,159.27L310.04,160.16L312.09,156.64L314.14,152.37L316.2,152.28L318.25,151.99L320.3,132.23L322.36,128.72L324.41,133.02L326.46,135.55L328.52,134.42L330.57,125.32L332.62,121.92L334.68,118.43L336.73,119.17L338.78,110.98L340.84,135.34L342.89,132.86L344.94,143.57L347,143.03L349.05,143.76L351.1,144.67L353.16,198.29L355.21,214.41L357.26,218.33L359.32,218.99L361.37,223.42L363.42,224.72L365.48,239.11L367.53,235.36L369.58,235.47L371.63,235.51L373.69,237.3L375.74,248.6L377.79,253.99L379.85,298.18L381.9,298.36L383.95,299.47L386.01,299.47L402.43,299.85L404.49,300.33L457.87,300.87L459.92,301.21L527.68,301.63L529.73,304L531.79,301.67L533.84,301.67L535.89,301.67L537.95,303.99L540,301.67" style="fill: rgb(99, 110, 250); fill-opacity: 0.5; stroke-width: 0;"/></g></g><g class="errorbars"/><g class="lines"><path class="js-line" d="M0,187.1L2.05,189.85L4.11,189.85L8.21,189.99L10.27,190.06L14.37,190.11L16.43,189.39L36.96,189.54L39.01,187.4L41.06,178.82L43.12,178.93L45.17,178.86L47.22,176.4L49.28,174.38L51.33,174.09L59.54,173.72L61.6,172.46L65.7,172.13L67.76,171.07L69.81,168.94L71.86,163.33L73.92,170.99L75.97,169.4L78.02,168.84L80.08,152.04L82.13,151.77L84.18,152.67L86.24,152.6L88.29,84L90.34,84.05L92.4,82.97L94.45,76.51L96.5,76.3L98.56,72.12L100.61,71.6L102.66,71.25L104.71,67.38L106.77,67.27L108.82,60.67L110.87,58.06L112.93,56.97L114.98,61.45L117.03,61.1L123.19,60.71L125.25,68.67L127.3,77.32L129.35,69.32L131.41,40.46L133.46,32.61L135.51,32.65L137.57,30.97L139.62,30.65L141.67,38.92L143.73,41.47L145.78,41.15L147.83,41.18L149.89,42.49L151.94,48.71L153.99,48.97L162.21,49.19L164.26,39.84L166.31,40.18L168.37,30.95L172.47,31.36L174.52,30.79L176.58,30.79L178.63,28.78L180.68,29L182.74,28.32L184.79,28.29L186.84,26.17L190.95,29.12L193,16L195.06,16.01L197.11,18.49L199.16,60.74L201.22,60.05L203.27,60.44L205.32,59.84L209.43,54.2L211.48,53.72L215.59,53.88L217.64,54L219.7,49.55L221.75,49.92L225.86,49.8L227.91,49.79L232.02,47.83L234.07,44.88L236.12,45.71L238.17,45.69L244.33,45.45L246.39,47.81L250.49,45.82L252.55,45.82L254.6,54.3L256.65,53.65L258.71,53.63L260.76,52.61L262.81,51.53L264.87,51.52L268.97,51.51L271.03,54.23L273.08,54.22L275.13,58.23L277.19,58.22L279.24,172.7L281.29,167.95L283.35,167.93L297.72,166.03L299.77,166.18L301.83,165.81L303.88,161.67L305.93,161.64L307.98,159.27L310.04,160.16L312.09,156.64L314.14,152.37L316.2,152.28L318.25,151.99L320.3,132.23L322.36,128.72L324.41,133.02L326.46,135.55L328.52,134.42L330.57,125.32L332.62,121.92L334.68,118.43L336.73,119.17L338.78,110.98L340.84,135.34L342.89,132.86L344.94,143.57L347,143.03L349.05,143.76L351.1,144.67L353.16,198.29L355.21,214.41L357.26,218.33L359.32,218.99L361.37,223.42L363.42,224.72L365.48,239.11L367.53,235.36L369.58,235.47L371.63,235.51L373.69,237.3L375.74,248.6L377.79,253.99L379.85,298.18L381.9,298.36L383.95,299.47L386.01,299.47L402.43,299.85L404.49,300.33L457.87,300.87L459.92,301.21L527.68,301.63L529.73,304L531.79,301.67L533.84,301.67L535.89,301.67L537.95,303.99L540,301.67" style="vector-effect: none; fill: none; stroke: rgb(99, 110, 250); stroke-opacity: 1; stroke-width: 2px; opacity: 1;"/></g><g class="points"/><g class="text"/></g></g></g><g class="overplot"/><path class="xlines-above crisp" d="M0,0" style="fill: none;"/><path class="ylines-above crisp" d="M0,0" style="fill: none;"/><g class="overlines-above"/><g class="xaxislayer-above"><g class="xtick"><text text-anchor="middle" x="0" y="433" transform="translate(186.76999999999998,0)" style="font-family: 'Open Sans', verdana, arial, sans-serif; font-size: 12px; fill: rgb(42, 63, 95); fill-opacity: 1; white-space: pre; opacity: 1;">Mar 2023</text></g><g class="xtick"><text text-anchor="middle" x="0" y="433" style="font-family: 'Open Sans', verdana, arial, sans-serif; font-size: 12px; fill: rgb(42, 63, 95); fill-opacity: 1; white-space: pre; opacity: 1;" transform="translate(312.02,0)">May 2023</text></g><g class="xtick"><text text-anchor="middle" x="0" y="433" style="font-family: 'Open Sans', verdana, arial, sans-serif; font-size: 12px; fill: rgb(42, 63, 95); fill-opacity: 1; white-space: pre; opacity: 1;" transform="translate(437.26,0)">Jul 2023</text></g><g class="xtick"><text text-anchor="middle" x="0" y="433" style="font-family: 'Open Sans', verdana, arial, sans-serif; font-size: 12px; fill: rgb(42, 63, 95); fill-opacity: 1; white-space: pre; opacity: 1;" transform="translate(564.56,0)">Sep 2023</text></g></g><g class="yaxislayer-above"><g class="ytick"><text text-anchor="end" x="79" y="4.199999999999999" transform="translate(0,403.3)" style="font-family: 'Open Sans', verdana, arial, sans-serif; font-size: 12px; fill: rgb(42, 63, 95); fill-opacity: 1; white-space: pre; opacity: 1;">$−1M</text></g><g class="ytick"><text text-anchor="end" x="79" y="4.199999999999999" style="font-family: 'Open Sans', verdana, arial, sans-serif; font-size: 12px; fill: rgb(42, 63, 95); fill-opacity: 1; white-space: pre; opacity: 1;" transform="translate(0,351.56)">$0</text></g><g class="ytick"><text text-anchor="end" x="79" y="4.199999999999999" style="font-family: 'Open Sans', verdana, arial, sans-serif; font-size: 12px; fill: rgb(42, 63, 95); fill-opacity: 1; white-space: pre; opacity: 1;" transform="translate(0,299.81)">$1M</text></g><g class="ytick"><text text-anchor="end" x="79" y="4.199999999999999" style="font-family: 'Open Sans', verdana, arial, sans-serif; font-size: 12px; fill: rgb(42, 63, 95); fill-opacity: 1; white-space: pre; opacity: 1;" transform="translate(0,248.07)">$2M</text></g><g class="ytick"><text text-anchor="end" x="79" y="4.199999999999999" style="font-family: 'Open Sans', verdana, arial, sans-serif; font-size: 12px; fill: rgb(42, 63, 95); fill-opacity: 1; white-space: pre; opacity: 1;" transform="translate(0,196.32999999999998)">$3M</text></g><g class="ytick"><text text-anchor="end" x="79" y="4.199999999999999" style="font-family: 'Open Sans', verdana, arial, sans-serif; font-size: 12px; fill: rgb(42, 63, 95); fill-opacity: 1; white-space: pre; opacity: 1;" transform="translate(0,144.59)">$4M</text></g></g><g class="overaxes-above"/></g></g><g class="polarlayer"/><g class="smithlayer"/><g class="ternarylayer"/><g class="geolayer"/><g class="funnelarealayer"/><g class="pielayer"/><g class="iciclelayer"/><g class="treemaplayer"/><g class="sunburstlayer"/><g class="glimages"/><defs id="topdefs-920096"><g class="clips"/></defs><g class="layer-above"><g class="imagelayer"/><g class="shapelayer"/></g><g class="infolayer"><g class="g-gtitle"><text class="gtitle" x="35" y="50" text-anchor="start" dy="0em" style="font-family: 'Open Sans', verdana, arial, sans-serif; font-size: 17px; fill: rgb(42, 63, 95); opacity: 1; font-weight: normal; white-space: pre;"><tspan class="line" dy="0em" x="35" y="50">Alchemix - alETH/WETH: Velodrome</tspan><tspan class="line" dy="1.3em" x="35" y="50">​<tspan style="font-size:70%" dy="-0.6em">Cumulative Net Flows since Program Announcement, Until Program End + 30 Days</tspan><tspan dy="0.42em">​</tspan></tspan></text></g><g class="g-xtitle"><text class="xtitle" x="350" y="460.3" text-anchor="middle" style="font-family: 'Open Sans', verdana, arial, sans-serif; font-size: 14px; fill: rgb(42, 63, 95); opacity: 1; font-weight: normal; white-space: pre;">Day</text></g><g class="g-ytitle"><text class="ytitle" transform="rotate(-90,24.340625000000003,260)" x="24.340625000000003" y="260" text-anchor="middle" style="font-family: 'Open Sans', verdana, arial, sans-serif; font-size: 14px; fill: rgb(42, 63, 95); opacity: 1; font-weight: normal; white-space: pre;">Cumulative Net Flows (USD)</text></g></g></svg>