<svg class="main-svg" xmlns="http://www.w3.org/2000/svg" xmlns:xlink="http://www.w3.org/1999/xlink" width="700" height="500" style="" viewBox="0 0 700 500"><rect x="0" y="0" width="700" height="500" style="fill: rgb(255, 255, 255); fill-opacity: 1;"/><defs id="defs-56d25c"><g class="clips"><clipPath id="clip56d25cxyplot" class="plotclip"><rect width="540" height="320"/></clipPath><clipPath class="axesclip" id="clip56d25cx"><rect x="80" y="0" width="540" height="500"/></clipPath><clipPath class="axesclip" id="clip56d25cy"><rect x="0" y="100" width="700" height="320"/></clipPath><clipPath class="axesclip" id="clip56d25cxy"><rect x="80" y="100" width="540" height="320"/></clipPath></g><g class="gradients"/><g class="patterns"/></defs><g class="bglayer"><rect class="bg" x="80" y="100" width="540" height="320" style="fill: rgb(229, 236, 246); fill-opacity: 1; stroke-width: 0;"/></g><g class="layer-below"><g class="imagelayer"/><g class="shapelayer"/></g><g class="cartesianlayer"><g class="subplot xy"><g class="layer-subplot"><g class="shapelayer"/><g class="imagelayer"/></g><g class="minor-gridlayer"><g class="x"/><g class="y"/></g><g class="gridlayer"><g class="x"><path class="xgrid crisp" transform="translate(141.31,0)" d="M0,100v320" style="stroke: rgb(255, 255, 255); stroke-opacity: 1; stroke-width: 1px;"/><path class="xgrid crisp" transform="translate(214.41,0)" d="M0,100v320" style="stroke: rgb(255, 255, 255); stroke-opacity: 1; stroke-width: 1px;"/><path class="xgrid crisp" transform="translate(285.15,0)" d="M0,100v320" style="stroke: rgb(255, 255, 255); stroke-opacity: 1; stroke-width: 1px;"/><path class="xgrid crisp" transform="translate(358.25,0)" d="M0,100v320" style="stroke: rgb(255, 255, 255); stroke-opacity: 1; stroke-width: 1px;"/><path class="xgrid crisp" transform="translate(429,0)" d="M0,100v320" style="stroke: rgb(255, 255, 255); stroke-opacity: 1; stroke-width: 1px;"/><path class="xgrid crisp" transform="translate(502.1,0)" d="M0,100v320" style="stroke: rgb(255, 255, 255); stroke-opacity: 1; stroke-width: 1px;"/><path class="xgrid crisp" transform="translate(575.2,0)" d="M0,100v320" style="stroke: rgb(255, 255, 255); stroke-opacity: 1; stroke-width: 1px;"/></g><g class="y"><path class="ygrid crisp" transform="translate(0,369.66)" d="M80,0h540" style="stroke: rgb(255, 255, 255); stroke-opacity: 1; stroke-width: 1px;"/><path class="ygrid crisp" transform="translate(0,319.32)" d="M80,0h540" style="stroke: rgb(255, 255, 255); stroke-opacity: 1; stroke-width: 1px;"/><path class="ygrid crisp" transform="translate(0,268.99)" d="M80,0h540" style="stroke: rgb(255, 255, 255); stroke-opacity: 1; stroke-width: 1px;"/><path class="ygrid crisp" transform="translate(0,218.65)" d="M80,0h540" style="stroke: rgb(255, 255, 255); stroke-opacity: 1; stroke-width: 1px;"/><path class="ygrid crisp" transform="translate(0,168.31)" d="M80,0h540" style="stroke: rgb(255, 255, 255); stroke-opacity: 1; stroke-width: 1px;"/><path class="ygrid crisp" transform="translate(0,117.97)" d="M80,0h540" style="stroke: rgb(255, 255, 255); stroke-opacity: 1; stroke-width: 1px;"/></g></g><g class="zerolinelayer"><path class="yzl zl crisp" transform="translate(0,420)" d="M80,0h540" style="stroke: rgb(255, 255, 255); stroke-opacity: 1; stroke-width: 2px;"/></g><path class="xlines-below"/><path class="ylines-below"/><g class="overlines-below"/><g class="xaxislayer-below"/><g class="yaxislayer-below"/><g class="overaxes-below"/><g class="plot" transform="translate(80,100)" clip-path="url(#clip56d25cxyplot)"><g class="scatterlayer mlayer"><g class="trace scatter tracebc4b73" style="stroke-miterlimit: 2;"><g class="fills"><g><path class="js-fill" d="M540,320L0,320L0,285.34L9.43,284.64L11.79,280.73L14.15,244.47L16.51,238.21L18.86,227.77L21.22,221.75L23.58,212.43L25.94,199.31L28.3,193.96L30.66,192.12L33.01,185.2L35.37,182.98L40.09,164.54L42.45,163.04L44.8,152.11L47.16,161.43L49.52,164.78L51.88,175.39L54.24,159.48L56.59,81.78L58.95,81.41L61.31,68.78L63.67,68.51L66.03,70.1L68.38,82.37L70.74,84.35L73.1,82.49L75.46,85.1L77.82,83.89L80.17,83.76L82.53,81.14L84.89,76.68L87.25,79.08L89.61,84.66L91.97,84.31L94.32,82.21L96.68,85.09L99.04,82.89L101.4,88.66L103.76,88.62L106.11,87.22L108.47,87.96L113.19,83.04L115.55,83.35L120.26,83.92L122.62,82.07L124.98,82.35L127.34,79.97L129.69,80.55L132.05,79.83L134.41,68.35L136.77,67.62L139.13,63.19L141.48,62.88L146.2,56.42L148.56,57.47L153.28,57.21L155.63,55.49L157.99,59.65L160.35,58.39L162.71,39.89L165.07,51.09L172.14,50.42L174.5,45.99L176.86,44.89L179.21,45.25L181.57,58.68L183.93,56.69L191,55.52L193.36,54.53L195.72,51.1L198.08,50.93L202.79,45.95L205.15,46.03L209.87,46.07L212.23,47.43L216.94,47.05L219.3,51.51L221.66,49.19L224.02,49.22L226.38,46.47L228.73,46.63L231.09,45.18L233.45,50.76L235.81,50.77L238.17,51.91L240.52,50.37L242.88,50.4L245.24,50.46L247.6,49.5L252.31,40.46L254.67,40.41L259.39,36.59L261.75,36.72L266.46,36.36L268.82,34.91L275.9,35.1L278.25,33.31L282.97,34.68L285.33,34.63L287.69,33.28L290.04,28.29L292.4,26.44L294.76,25.73L297.12,25.21L299.48,23.69L304.19,23.09L306.55,23.09L313.62,20.96L315.98,17.13L323.06,17.44L325.41,16L327.77,27.5L330.13,34.08L332.49,34.15L334.85,31.68L337.21,31.64L339.56,42.11L341.92,75.59L344.28,83.7L346.64,85.86L349,94.1L358.43,94.81L360.79,164.65L365.5,164.74L367.86,199.62L370.22,166.35L372.58,166.4L374.93,166.4L377.29,171.46L379.65,193.35L382.01,193.35L389.08,193.59L391.44,196.63L403.23,196.63L405.59,196.63L412.66,196.8L415.02,201.4L417.38,196.36L419.74,196.48L431.53,196.51L433.89,197.93L443.32,198.67L445.68,201.07L448.03,198.72L450.39,201.07L452.75,198.68L455.11,198.68L488.12,198.68L490.48,201.1L492.84,198.87L495.2,198.87L499.91,198.87L502.27,201L504.63,198.84L506.99,198.85L516.42,198.85L518.78,200.79L521.14,198.85L523.49,198.85L525.85,198.85L528.21,200.98L530.57,198.81L532.93,200.98L537.64,198.86L540,199.13" style="fill: rgb(99, 110, 250); fill-opacity: 0.5; stroke-width: 0;"/></g></g><g class="errorbars"/><g class="lines"><path class="js-line" d="M0,285.34L9.43,284.64L11.79,280.73L14.15,244.47L16.51,238.21L18.86,227.77L21.22,221.75L23.58,212.43L25.94,199.31L28.3,193.96L30.66,192.12L33.01,185.2L35.37,182.98L40.09,164.54L42.45,163.04L44.8,152.11L47.16,161.43L49.52,164.78L51.88,175.39L54.24,159.48L56.59,81.78L58.95,81.41L61.31,68.78L63.67,68.51L66.03,70.1L68.38,82.37L70.74,84.35L73.1,82.49L75.46,85.1L77.82,83.89L80.17,83.76L82.53,81.14L84.89,76.68L87.25,79.08L89.61,84.66L91.97,84.31L94.32,82.21L96.68,85.09L99.04,82.89L101.4,88.66L103.76,88.62L106.11,87.22L108.47,87.96L113.19,83.04L115.55,83.35L120.26,83.92L122.62,82.07L124.98,82.35L127.34,79.97L129.69,80.55L132.05,79.83L134.41,68.35L136.77,67.62L139.13,63.19L141.48,62.88L146.2,56.42L148.56,57.47L153.28,57.21L155.63,55.49L157.99,59.65L160.35,58.39L162.71,39.89L165.07,51.09L172.14,50.42L174.5,45.99L176.86,44.89L179.21,45.25L181.57,58.68L183.93,56.69L191,55.52L193.36,54.53L195.72,51.1L198.08,50.93L202.79,45.95L205.15,46.03L209.87,46.07L212.23,47.43L216.94,47.05L219.3,51.51L221.66,49.19L224.02,49.22L226.38,46.47L228.73,46.63L231.09,45.18L233.45,50.76L235.81,50.77L238.17,51.91L240.52,50.37L242.88,50.4L245.24,50.46L247.6,49.5L252.31,40.46L254.67,40.41L259.39,36.59L261.75,36.72L266.46,36.36L268.82,34.91L275.9,35.1L278.25,33.31L282.97,34.68L285.33,34.63L287.69,33.28L290.04,28.29L292.4,26.44L294.76,25.73L297.12,25.21L299.48,23.69L304.19,23.09L306.55,23.09L313.62,20.96L315.98,17.13L323.06,17.44L325.41,16L327.77,27.5L330.13,34.08L332.49,34.15L334.85,31.68L337.21,31.64L339.56,42.11L341.92,75.59L344.28,83.7L346.64,85.86L349,94.1L358.43,94.81L360.79,164.65L365.5,164.74L367.86,199.62L370.22,166.35L372.58,166.4L374.93,166.4L377.29,171.46L379.65,193.35L382.01,193.35L389.08,193.59L391.44,196.63L403.23,196.63L405.59,196.63L412.66,196.8L415.02,201.4L417.38,196.36L419.74,196.48L431.53,196.51L433.89,197.93L443.32,198.67L445.68,201.07L448.03,198.72L450.39,201.07L452.75,198.68L455.11,198.68L488.12,198.68L490.48,201.1L492.84,198.87L495.2,198.87L499.91,198.87L502.27,201L504.63,198.84L506.99,198.85L516.42,198.85L518.78,200.79L521.14,198.85L523.49,198.85L525.85,198.85L528.21,200.98L530.57,198.81L532.93,200.98L537.64,198.86L540,199.13" style="vector-effect: none; fill: none; stroke: rgb(99, 110, 250); stroke-opacity: 1; stroke-width: 2px; opacity: 1;"/></g><g class="points"/><g class="text"/></g></g></g><g class="overplot"/><path class="xlines-above crisp" d="M0,0" style="fill: none;"/><path class="ylines-above crisp" d="M0,0" style="fill: none;"/><g class="overlines-above"/><g class="xaxislayer-above"><g class="xtick"><text text-anchor="middle" x="0" y="433" transform="translate(141.31,0)" style="font-family: 'Open Sans', verdana, arial, sans-serif; font-size: 12px; fill: rgb(42, 63, 95); fill-opacity: 1; white-space: pre; opacity: 1;">Mar 2023</text></g><g class="xtick"><text text-anchor="middle" x="0" y="433" style="font-family: 'Open Sans', verdana, arial, sans-serif; font-size: 12px; fill: rgb(42, 63, 95); fill-opacity: 1; white-space: pre; opacity: 1;" transform="translate(214.41,0)">Apr 2023</text></g><g class="xtick"><text text-anchor="middle" x="0" y="433" style="font-family: 'Open Sans', verdana, arial, sans-serif; font-size: 12px; fill: rgb(42, 63, 95); fill-opacity: 1; white-space: pre; opacity: 1;" transform="translate(285.15,0)">May 2023</text></g><g class="xtick"><text text-anchor="middle" x="0" y="433" style="font-family: 'Open Sans', verdana, arial, sans-serif; font-size: 12px; fill: rgb(42, 63, 95); fill-opacity: 1; white-space: pre; opacity: 1;" transform="translate(358.25,0)">Jun 2023</text></g><g class="xtick"><text text-anchor="middle" x="0" y="433" style="font-family: 'Open Sans', verdana, arial, sans-serif; font-size: 12px; fill: rgb(42, 63, 95); fill-opacity: 1; white-space: pre; opacity: 1;" transform="translate(429,0)">Jul 2023</text></g><g class="xtick"><text text-anchor="middle" x="0" y="433" style="font-family: 'Open Sans', verdana, arial, sans-serif; font-size: 12px; fill: rgb(42, 63, 95); fill-opacity: 1; white-space: pre; opacity: 1;" transform="translate(502.1,0)">Aug 2023</text></g><g class="xtick"><text text-anchor="middle" x="0" y="433" style="font-family: 'Open Sans', verdana, arial, sans-serif; font-size: 12px; fill: rgb(42, 63, 95); fill-opacity: 1; white-space: pre; opacity: 1;" transform="translate(575.2,0)">Sep 2023</text></g></g><g class="yaxislayer-above"><g class="ytick"><text text-anchor="end" x="79" y="4.199999999999999" transform="translate(0,420)" style="font-family: 'Open Sans', verdana, arial, sans-serif; font-size: 12px; fill: rgb(42, 63, 95); fill-opacity: 1; white-space: pre; opacity: 1;">$0</text></g><g class="ytick"><text text-anchor="end" x="79" y="4.199999999999999" style="font-family: 'Open Sans', verdana, arial, sans-serif; font-size: 12px; fill: rgb(42, 63, 95); fill-opacity: 1; white-space: pre; opacity: 1;" transform="translate(0,369.66)">$0.2M</text></g><g class="ytick"><text text-anchor="end" x="79" y="4.199999999999999" style="font-family: 'Open Sans', verdana, arial, sans-serif; font-size: 12px; fill: rgb(42, 63, 95); fill-opacity: 1; white-space: pre; opacity: 1;" transform="translate(0,319.32)">$0.4M</text></g><g class="ytick"><text text-anchor="end" x="79" y="4.199999999999999" style="font-family: 'Open Sans', verdana, arial, sans-serif; font-size: 12px; fill: rgb(42, 63, 95); fill-opacity: 1; white-space: pre; opacity: 1;" transform="translate(0,268.99)">$0.6M</text></g><g class="ytick"><text text-anchor="end" x="79" y="4.199999999999999" style="font-family: 'Open Sans', verdana, arial, sans-serif; font-size: 12px; fill: rgb(42, 63, 95); fill-opacity: 1; white-space: pre; opacity: 1;" transform="translate(0,218.65)">$0.8M</text></g><g class="ytick"><text text-anchor="end" x="79" y="4.199999999999999" style="font-family: 'Open Sans', verdana, arial, sans-serif; font-size: 12px; fill: rgb(42, 63, 95); fill-opacity: 1; white-space: pre; opacity: 1;" transform="translate(0,168.31)">$1M</text></g><g class="ytick"><text text-anchor="end" x="79" y="4.199999999999999" style="font-family: 'Open Sans', verdana, arial, sans-serif; font-size: 12px; fill: rgb(42, 63, 95); fill-opacity: 1; white-space: pre; opacity: 1;" transform="translate(0,117.97)">$1.2M</text></g></g><g class="overaxes-above"/></g></g><g class="polarlayer"/><g class="smithlayer"/><g class="ternarylayer"/><g class="geolayer"/><g class="funnelarealayer"/><g class="pielayer"/><g class="iciclelayer"/><g class="treemaplayer"/><g class="sunburstlayer"/><g class="glimages"/><defs id="topdefs-56d25c"><g class="clips"/></defs><g class="layer-above"><g class="imagelayer"/><g class="shapelayer"/></g><g class="infolayer"><g class="g-gtitle"><text class="gtitle" x="35" y="50" text-anchor="start" dy="0em" style="font-family: 'Open Sans', verdana, arial, sans-serif; font-size: 17px; fill: rgb(42, 63, 95); opacity: 1; font-weight: normal; white-space: pre;"><tspan class="line" dy="0em" x="35" y="50">Dhedge - DHT/OP: Velodrome</tspan><tspan class="line" dy="1.3em" x="35" y="50">​<tspan style="font-size:70%" dy="-0.6em">Cumulative Net Flows since Program Announcement, Until Program End + 30 Days</tspan><tspan dy="0.42em">​</tspan></tspan></text></g><g class="g-xtitle"><text class="xtitle" x="350" y="460.3" text-anchor="middle" style="font-family: 'Open Sans', verdana, arial, sans-serif; font-size: 14px; fill: rgb(42, 63, 95); opacity: 1; font-weight: normal; white-space: pre;">Day</text></g><g class="g-ytitle"><text class="ytitle" transform="rotate(-90,21.340625000000003,260)" x="21.340625000000003" y="260" text-anchor="middle" style="font-family: 'Open Sans', verdana, arial, sans-serif; font-size: 14px; fill: rgb(42, 63, 95); opacity: 1; font-weight: normal; white-space: pre;">Cumulative Net Flows (USD)</text></g></g></svg>