<svg class="main-svg" xmlns="http://www.w3.org/2000/svg" xmlns:xlink="http://www.w3.org/1999/xlink" width="700" height="500" style="" viewBox="0 0 700 500"><rect x="0" y="0" width="700" height="500" style="fill: rgb(255, 255, 255); fill-opacity: 1;"/><defs id="defs-fa790d"><g class="clips"><clipPath id="clipfa790dxyplot" class="plotclip"><rect width="540" height="320"/></clipPath><clipPath class="axesclip" id="clipfa790dx"><rect x="80" y="0" width="540" height="500"/></clipPath><clipPath class="axesclip" id="clipfa790dy"><rect x="0" y="100" width="700" height="320"/></clipPath><clipPath class="axesclip" id="clipfa790dxy"><rect x="80" y="100" width="540" height="320"/></clipPath></g><g class="gradients"/><g class="patterns"/></defs><g class="bglayer"><rect class="bg" x="80" y="100" width="540" height="320" style="fill: rgb(229, 236, 246); fill-opacity: 1; stroke-width: 0;"/></g><g class="layer-below"><g class="imagelayer"/><g class="shapelayer"/></g><g class="cartesianlayer"><g class="subplot xy"><g class="layer-subplot"><g class="shapelayer"/><g class="imagelayer"/></g><g class="minor-gridlayer"><g class="x"/><g class="y"/></g><g class="gridlayer"><g class="x"><path class="xgrid crisp" transform="translate(85.32,0)" d="M0,100v320" style="stroke: rgb(255, 255, 255); stroke-opacity: 1; stroke-width: 1px;"/><path class="xgrid crisp" transform="translate(159.8,0)" d="M0,100v320" style="stroke: rgb(255, 255, 255); stroke-opacity: 1; stroke-width: 1px;"/><path class="xgrid crisp" transform="translate(242.27,0)" d="M0,100v320" style="stroke: rgb(255, 255, 255); stroke-opacity: 1; stroke-width: 1px;"/><path class="xgrid crisp" transform="translate(322.07,0)" d="M0,100v320" style="stroke: rgb(255, 255, 255); stroke-opacity: 1; stroke-width: 1px;"/><path class="xgrid crisp" transform="translate(404.53,0)" d="M0,100v320" style="stroke: rgb(255, 255, 255); stroke-opacity: 1; stroke-width: 1px;"/><path class="xgrid crisp" transform="translate(484.33,0)" d="M0,100v320" style="stroke: rgb(255, 255, 255); stroke-opacity: 1; stroke-width: 1px;"/><path class="xgrid crisp" transform="translate(566.8,0)" d="M0,100v320" style="stroke: rgb(255, 255, 255); stroke-opacity: 1; stroke-width: 1px;"/></g><g class="y"><path class="ygrid crisp" transform="translate(0,371.03)" d="M80,0h540" style="stroke: rgb(255, 255, 255); stroke-opacity: 1; stroke-width: 1px;"/><path class="ygrid crisp" transform="translate(0,322.06)" d="M80,0h540" style="stroke: rgb(255, 255, 255); stroke-opacity: 1; stroke-width: 1px;"/><path class="ygrid crisp" transform="translate(0,273.09000000000003)" d="M80,0h540" style="stroke: rgb(255, 255, 255); stroke-opacity: 1; stroke-width: 1px;"/><path class="ygrid crisp" transform="translate(0,224.12)" d="M80,0h540" style="stroke: rgb(255, 255, 255); stroke-opacity: 1; stroke-width: 1px;"/><path class="ygrid crisp" transform="translate(0,175.15)" d="M80,0h540" style="stroke: rgb(255, 255, 255); stroke-opacity: 1; stroke-width: 1px;"/><path class="ygrid crisp" transform="translate(0,126.18)" d="M80,0h540" style="stroke: rgb(255, 255, 255); stroke-opacity: 1; stroke-width: 1px;"/></g></g><g class="zerolinelayer"><path class="yzl zl crisp" transform="translate(0,420)" d="M80,0h540" style="stroke: rgb(255, 255, 255); stroke-opacity: 1; stroke-width: 2px;"/></g><path class="xlines-below"/><path class="ylines-below"/><g class="overlines-below"/><g class="xaxislayer-below"/><g class="yaxislayer-below"/><g class="overaxes-below"/><g class="plot" transform="translate(80,100)" clip-path="url(#clipfa790dxyplot)"><g class="scatterlayer mlayer"><g class="trace scatter traceb0ab47" style="stroke-miterlimit: 2;"><g class="fills"><g><path class="js-fill" d="M540,320L0,320L0,319.9L2.66,320L5.32,317.15L7.98,249.71L10.64,228.25L13.3,205.5L15.96,205.64L21.28,163.79L23.94,156.63L26.6,170.86L29.26,167.77L31.92,169.34L34.58,162.34L37.24,162.8L39.9,161.59L42.56,150.3L45.22,149.7L50.54,115.06L53.2,83.29L55.86,66.82L58.52,65.99L61.18,78.39L63.84,58.09L66.5,29.11L69.16,37.76L74.48,38.32L77.14,16L79.8,16.17L82.46,18.53L85.12,26.72L87.78,39.54L90.44,45.31L93.1,47.84L98.42,43.02L101.08,73.25L103.74,118.46L106.4,216.17L109.06,205.02L111.72,178.26L114.38,152.25L117.04,81.13L119.7,101.07L122.36,82.9L125.02,65.37L127.68,70.08L130.34,73.46L133,79.49L135.67,72.85L138.33,78.45L140.99,85.04L143.65,85.98L146.31,87.6L148.97,92.97L151.63,92.55L154.29,99.56L156.95,100.17L159.61,109.66L162.27,102.23L164.93,105.73L167.59,91.74L170.25,91.07L172.91,92.6L175.57,103.15L178.23,101.85L180.89,116.24L183.55,94.76L186.21,92.2L188.87,90.62L191.53,90.12L196.85,93.14L199.51,85.02L202.17,83.5L204.83,77.07L207.49,58.31L210.15,58.17L212.81,49.98L215.47,57.19L218.13,57.73L220.79,56.78L223.45,35.37L226.11,35.91L228.77,36.16L231.43,44.56L234.09,62.68L236.75,62.61L239.41,68.11L242.07,68.2L244.73,72.5L247.39,73.11L250.05,71.61L252.71,67.4L255.37,66.5L258.03,66.53L260.69,75L263.35,78.77L266.01,86.54L268.67,78.12L271.33,78.93L273.99,78.36L276.65,79.81L279.31,92.84L281.97,95.03L284.63,92.21L287.29,59.16L289.95,66.18L292.61,65.42L295.27,63.17L300.59,62.82L303.25,68.59L305.91,65.64L308.57,65.38L311.23,51.04L313.89,49.9L316.55,48.42L319.21,46.04L321.87,24.4L324.53,44.06L327.19,46.28L329.85,46.04L332.51,46.02L335.17,37.96L337.83,25.85L340.49,24.21L345.81,24.39L348.47,25.63L351.13,25.71L353.79,27.56L356.45,27L359.11,30.09L361.77,57L364.43,58.65L375.07,59.29L377.73,60.24L380.39,61.4L383.05,92.81L388.37,85.85L391.03,89.71L393.69,94.63L396.35,154.28L399.01,245.55L401.67,252.24L404.33,297.72L407,298.45L409.66,301.43L412.32,301.43L414.98,301.43L417.64,306.71L422.96,307.51L425.62,307.51L430.94,307.79L433.6,308.85L436.26,308.85L438.92,315.28L444.24,315.83L446.9,315.83L465.52,316.36L468.18,316.68L486.8,316.79L489.46,316.79L540,317.14" style="fill: rgb(99, 110, 250); fill-opacity: 0.5; stroke-width: 0;"/></g></g><g class="errorbars"/><g class="lines"><path class="js-line" d="M0,319.9L2.66,320L5.32,317.15L7.98,249.71L10.64,228.25L13.3,205.5L15.96,205.64L21.28,163.79L23.94,156.63L26.6,170.86L29.26,167.77L31.92,169.34L34.58,162.34L37.24,162.8L39.9,161.59L42.56,150.3L45.22,149.7L50.54,115.06L53.2,83.29L55.86,66.82L58.52,65.99L61.18,78.39L63.84,58.09L66.5,29.11L69.16,37.76L74.48,38.32L77.14,16L79.8,16.17L82.46,18.53L85.12,26.72L87.78,39.54L90.44,45.31L93.1,47.84L98.42,43.02L101.08,73.25L103.74,118.46L106.4,216.17L109.06,205.02L111.72,178.26L114.38,152.25L117.04,81.13L119.7,101.07L122.36,82.9L125.02,65.37L127.68,70.08L130.34,73.46L133,79.49L135.67,72.85L138.33,78.45L140.99,85.04L143.65,85.98L146.31,87.6L148.97,92.97L151.63,92.55L154.29,99.56L156.95,100.17L159.61,109.66L162.27,102.23L164.93,105.73L167.59,91.74L170.25,91.07L172.91,92.6L175.57,103.15L178.23,101.85L180.89,116.24L183.55,94.76L186.21,92.2L188.87,90.62L191.53,90.12L196.85,93.14L199.51,85.02L202.17,83.5L204.83,77.07L207.49,58.31L210.15,58.17L212.81,49.98L215.47,57.19L218.13,57.73L220.79,56.78L223.45,35.37L226.11,35.91L228.77,36.16L231.43,44.56L234.09,62.68L236.75,62.61L239.41,68.11L242.07,68.2L244.73,72.5L247.39,73.11L250.05,71.61L252.71,67.4L255.37,66.5L258.03,66.53L260.69,75L263.35,78.77L266.01,86.54L268.67,78.12L271.33,78.93L273.99,78.36L276.65,79.81L279.31,92.84L281.97,95.03L284.63,92.21L287.29,59.16L289.95,66.18L292.61,65.42L295.27,63.17L300.59,62.82L303.25,68.59L305.91,65.64L308.57,65.38L311.23,51.04L313.89,49.9L316.55,48.42L319.21,46.04L321.87,24.4L324.53,44.06L327.19,46.28L329.85,46.04L332.51,46.02L335.17,37.96L337.83,25.85L340.49,24.21L345.81,24.39L348.47,25.63L351.13,25.71L353.79,27.56L356.45,27L359.11,30.09L361.77,57L364.43,58.65L375.07,59.29L377.73,60.24L380.39,61.4L383.05,92.81L388.37,85.85L391.03,89.71L393.69,94.63L396.35,154.28L399.01,245.55L401.67,252.24L404.33,297.72L407,298.45L409.66,301.43L412.32,301.43L414.98,301.43L417.64,306.71L422.96,307.51L425.62,307.51L430.94,307.79L433.6,308.85L436.26,308.85L438.92,315.28L444.24,315.83L446.9,315.83L465.52,316.36L468.18,316.68L486.8,316.79L489.46,316.79L540,317.14" style="vector-effect: none; fill: none; stroke: rgb(99, 110, 250); stroke-opacity: 1; stroke-width: 2px; opacity: 1;"/></g><g class="points"/><g class="text"/></g></g></g><g class="overplot"/><path class="xlines-above crisp" d="M0,0" style="fill: none;"/><path class="ylines-above crisp" d="M0,0" style="fill: none;"/><g class="overlines-above"/><g class="xaxislayer-above"><g class="xtick"><text text-anchor="middle" x="0" y="433" transform="translate(85.32,0)" style="font-family: 'Open Sans', verdana, arial, sans-serif; font-size: 12px; fill: rgb(42, 63, 95); fill-opacity: 1; white-space: pre; opacity: 1;">Feb 2023</text></g><g class="xtick"><text text-anchor="middle" x="0" y="433" style="font-family: 'Open Sans', verdana, arial, sans-serif; font-size: 12px; fill: rgb(42, 63, 95); fill-opacity: 1; white-space: pre; opacity: 1;" transform="translate(159.8,0)">Mar 2023</text></g><g class="xtick"><text text-anchor="middle" x="0" y="433" style="font-family: 'Open Sans', verdana, arial, sans-serif; font-size: 12px; fill: rgb(42, 63, 95); fill-opacity: 1; white-space: pre; opacity: 1;" transform="translate(242.27,0)">Apr 2023</text></g><g class="xtick"><text text-anchor="middle" x="0" y="433" style="font-family: 'Open Sans', verdana, arial, sans-serif; font-size: 12px; fill: rgb(42, 63, 95); fill-opacity: 1; white-space: pre; opacity: 1;" transform="translate(322.07,0)">May 2023</text></g><g class="xtick"><text text-anchor="middle" x="0" y="433" style="font-family: 'Open Sans', verdana, arial, sans-serif; font-size: 12px; fill: rgb(42, 63, 95); fill-opacity: 1; white-space: pre; opacity: 1;" transform="translate(404.53,0)">Jun 2023</text></g><g class="xtick"><text text-anchor="middle" x="0" y="433" style="font-family: 'Open Sans', verdana, arial, sans-serif; font-size: 12px; fill: rgb(42, 63, 95); fill-opacity: 1; white-space: pre; opacity: 1;" transform="translate(484.33,0)">Jul 2023</text></g><g class="xtick"><text text-anchor="middle" x="0" y="433" style="font-family: 'Open Sans', verdana, arial, sans-serif; font-size: 12px; fill: rgb(42, 63, 95); fill-opacity: 1; white-space: pre; opacity: 1;" transform="translate(566.8,0)">Aug 2023</text></g></g><g class="yaxislayer-above"><g class="ytick"><text text-anchor="end" x="79" y="4.199999999999999" transform="translate(0,420)" style="font-family: 'Open Sans', verdana, arial, sans-serif; font-size: 12px; fill: rgb(42, 63, 95); fill-opacity: 1; white-space: pre; opacity: 1;">$0</text></g><g class="ytick"><text text-anchor="end" x="79" y="4.199999999999999" style="font-family: 'Open Sans', verdana, arial, sans-serif; font-size: 12px; fill: rgb(42, 63, 95); fill-opacity: 1; white-space: pre; opacity: 1;" transform="translate(0,371.03)">$1M</text></g><g class="ytick"><text text-anchor="end" x="79" y="4.199999999999999" style="font-family: 'Open Sans', verdana, arial, sans-serif; font-size: 12px; fill: rgb(42, 63, 95); fill-opacity: 1; white-space: pre; opacity: 1;" transform="translate(0,322.06)">$2M</text></g><g class="ytick"><text text-anchor="end" x="79" y="4.199999999999999" style="font-family: 'Open Sans', verdana, arial, sans-serif; font-size: 12px; fill: rgb(42, 63, 95); fill-opacity: 1; white-space: pre; opacity: 1;" transform="translate(0,273.09000000000003)">$3M</text></g><g class="ytick"><text text-anchor="end" x="79" y="4.199999999999999" style="font-family: 'Open Sans', verdana, arial, sans-serif; font-size: 12px; fill: rgb(42, 63, 95); fill-opacity: 1; white-space: pre; opacity: 1;" transform="translate(0,224.12)">$4M</text></g><g class="ytick"><text text-anchor="end" x="79" y="4.199999999999999" style="font-family: 'Open Sans', verdana, arial, sans-serif; font-size: 12px; fill: rgb(42, 63, 95); fill-opacity: 1; white-space: pre; opacity: 1;" transform="translate(0,175.15)">$5M</text></g><g class="ytick"><text text-anchor="end" x="79" y="4.199999999999999" style="font-family: 'Open Sans', verdana, arial, sans-serif; font-size: 12px; fill: rgb(42, 63, 95); fill-opacity: 1; white-space: pre; opacity: 1;" transform="translate(0,126.18)">$6M</text></g></g><g class="overaxes-above"/></g></g><g class="polarlayer"/><g class="smithlayer"/><g class="ternarylayer"/><g class="geolayer"/><g class="funnelarealayer"/><g class="pielayer"/><g class="iciclelayer"/><g class="treemaplayer"/><g class="sunburstlayer"/><g class="glimages"/><defs id="topdefs-fa790d"><g class="clips"/></defs><g class="layer-above"><g class="imagelayer"/><g class="shapelayer"/></g><g class="infolayer"><g class="g-gtitle"><text class="gtitle" x="35" y="50" text-anchor="start" dy="0em" style="font-family: 'Open Sans', verdana, arial, sans-serif; font-size: 17px; fill: rgb(42, 63, 95); opacity: 1; font-weight: normal; white-space: pre;"><tspan class="line" dy="0em" x="35" y="50">Overnight - USD+/DOLA: Velodrome</tspan><tspan class="line" dy="1.3em" x="35" y="50">​<tspan style="font-size:70%" dy="-0.6em">Cumulative Net Flows since Program Announcement, Until Program End + 30 Days</tspan><tspan dy="0.42em">​</tspan></tspan></text></g><g class="g-xtitle"><text class="xtitle" x="350" y="460.3" text-anchor="middle" style="font-family: 'Open Sans', verdana, arial, sans-serif; font-size: 14px; fill: rgb(42, 63, 95); opacity: 1; font-weight: normal; white-space: pre;">Day</text></g><g class="g-ytitle"><text class="ytitle" transform="rotate(-90,31.356250000000003,260)" x="31.356250000000003" y="260" text-anchor="middle" style="font-family: 'Open Sans', verdana, arial, sans-serif; font-size: 14px; fill: rgb(42, 63, 95); opacity: 1; font-weight: normal; white-space: pre;">Cumulative Net Flows (USD)</text></g></g></svg>