<svg class="main-svg" xmlns="http://www.w3.org/2000/svg" xmlns:xlink="http://www.w3.org/1999/xlink" width="700" height="500" style="" viewBox="0 0 700 500"><rect x="0" y="0" width="700" height="500" style="fill: rgb(255, 255, 255); fill-opacity: 1;"/><defs id="defs-cf90d8"><g class="clips"><clipPath id="clipcf90d8xyplot" class="plotclip"><rect width="540" height="320"/></clipPath><clipPath class="axesclip" id="clipcf90d8x"><rect x="80" y="0" width="540" height="500"/></clipPath><clipPath class="axesclip" id="clipcf90d8y"><rect x="0" y="100" width="700" height="320"/></clipPath><clipPath class="axesclip" id="clipcf90d8xy"><rect x="80" y="100" width="540" height="320"/></clipPath></g><g class="gradients"/><g class="patterns"/></defs><g class="bglayer"><rect class="bg" x="80" y="100" width="540" height="320" style="fill: rgb(229, 236, 246); fill-opacity: 1; stroke-width: 0;"/></g><g class="layer-below"><g class="imagelayer"/><g class="shapelayer"/></g><g class="cartesianlayer"><g class="subplot xy"><g class="layer-subplot"><g class="shapelayer"/><g class="imagelayer"/></g><g class="minor-gridlayer"><g class="x"/><g class="y"/></g><g class="gridlayer"><g class="x"><path class="xgrid crisp" transform="translate(179.25,0)" d="M0,100v320" style="stroke: rgb(255, 255, 255); stroke-opacity: 1; stroke-width: 1px;"/><path class="xgrid crisp" transform="translate(281.87,0)" d="M0,100v320" style="stroke: rgb(255, 255, 255); stroke-opacity: 1; stroke-width: 1px;"/><path class="xgrid crisp" transform="translate(386.17,0)" d="M0,100v320" style="stroke: rgb(255, 255, 255); stroke-opacity: 1; stroke-width: 1px;"/><path class="xgrid crisp" transform="translate(488.79,0)" d="M0,100v320" style="stroke: rgb(255, 255, 255); stroke-opacity: 1; stroke-width: 1px;"/><path class="xgrid crisp" transform="translate(591.4,0)" d="M0,100v320" style="stroke: rgb(255, 255, 255); stroke-opacity: 1; stroke-width: 1px;"/></g><g class="y"><path class="ygrid crisp" transform="translate(0,407.63)" d="M80,0h540" style="stroke: rgb(255, 255, 255); stroke-opacity: 1; stroke-width: 1px;"/><path class="ygrid crisp" transform="translate(0,339.83000000000004)" d="M80,0h540" style="stroke: rgb(255, 255, 255); stroke-opacity: 1; stroke-width: 1px;"/><path class="ygrid crisp" transform="translate(0,204.24)" d="M80,0h540" style="stroke: rgb(255, 255, 255); stroke-opacity: 1; stroke-width: 1px;"/><path class="ygrid crisp" transform="translate(0,136.45)" d="M80,0h540" style="stroke: rgb(255, 255, 255); stroke-opacity: 1; stroke-width: 1px;"/></g></g><g class="zerolinelayer"><path class="yzl zl crisp" transform="translate(0,272.03999999999996)" d="M80,0h540" style="stroke: rgb(255, 255, 255); stroke-opacity: 1; stroke-width: 2px;"/></g><path class="xlines-below"/><path class="ylines-below"/><g class="overlines-below"/><g class="xaxislayer-below"/><g class="yaxislayer-below"/><g class="overaxes-below"/><g class="plot" transform="translate(80,100)" clip-path="url(#clipcf90d8xyplot)"><g class="scatterlayer mlayer"><g class="trace scatter trace41d051" style="stroke-miterlimit: 2;"><g class="fills"><g><path class="js-fill" d="M540,172.04L0,172.04L0,152.91L1.68,94.47L3.36,110.31L5.05,112.04L6.73,52.95L8.41,50.19L10.09,103.16L11.78,105.77L13.46,139.37L15.14,242.31L16.82,231.45L18.5,166.16L20.19,151.2L21.87,147.06L23.55,146.67L25.23,144.29L26.92,139.7L28.6,126.19L30.28,122.12L31.96,122.14L33.64,88.11L35.33,88.6L37.01,96.76L38.69,130.48L40.37,113.29L42.06,117.75L43.74,113.31L45.42,113.53L47.1,131.09L48.79,84.74L50.47,84.92L52.15,80.91L53.83,79.84L55.51,64.67L57.2,81.64L58.88,78.2L60.56,76.48L62.24,16L63.93,54.24L65.61,33.44L67.29,68.85L68.97,67.61L70.65,77.51L74.02,69.89L75.7,59.06L77.38,51.78L79.07,36.1L80.75,43.89L82.43,47.84L84.11,27.54L85.79,39.37L87.48,28.82L89.16,34.22L90.84,304L126.17,85.51L127.85,85.51L129.53,90.45L131.21,91.57L132.9,95.74L137.94,94.44L139.63,99.34L142.99,82.28L144.67,82.18L146.36,120.06L148.04,125.43L149.72,126.35L151.4,135.56L153.08,151.31L154.77,152.19L156.45,171.33L158.13,175.4L159.81,175.96L161.5,179.39L163.18,173.46L164.86,179.93L171.59,180.48L173.27,181.65L174.95,182.82L176.64,216.62L178.32,218.34L180,232.04L181.68,233.48L183.36,237.87L186.73,236.58L188.41,237.18L190.09,235.11L191.78,234.38L193.46,233.71L195.14,234.86L196.82,234.85L198.5,246.91L205.23,247.55L206.92,247.53L208.6,248.38L210.28,248.36L211.96,250.74L213.64,271.17L215.33,266.66L217.01,268.11L218.69,269.26L220.37,269.29L222.06,270.61L223.74,273.49L225.42,275.7L227.1,275.84L228.79,278.28L230.47,278.27L235.51,278.27L237.2,282.27L257.38,281.97L259.07,281.84L262.43,281.31L264.11,281.31L265.79,281.33L267.48,282.83L270.84,282.78L272.52,286.11L274.21,301.46L277.57,286.31L280.93,286.3L282.62,289.39L284.3,289.66L285.98,292.27L296.07,292.94L297.76,293.03L309.53,293.14L311.21,279.56L324.67,279.66L326.36,293.7L341.5,293.84L343.18,293.89L361.68,294.45L363.36,293.6L398.69,293.88L400.37,294.83L418.88,295.41L420.56,296.08L423.93,296.64L425.61,296.64L439.07,296.87L440.75,301.37L442.43,296.85L444.11,296.86L526.54,297.88L528.22,296.59L529.91,296.43L531.59,297.89L534.95,298.31L536.64,298.29L540,298.39" style="fill: rgb(99, 110, 250); fill-opacity: 0.5; stroke-width: 0;"/></g></g><g class="errorbars"/><g class="lines"><path class="js-line" d="M0,152.91L1.68,94.47L3.36,110.31L5.05,112.04L6.73,52.95L8.41,50.19L10.09,103.16L11.78,105.77L13.46,139.37L15.14,242.31L16.82,231.45L18.5,166.16L20.19,151.2L21.87,147.06L23.55,146.67L25.23,144.29L26.92,139.7L28.6,126.19L30.28,122.12L31.96,122.14L33.64,88.11L35.33,88.6L37.01,96.76L38.69,130.48L40.37,113.29L42.06,117.75L43.74,113.31L45.42,113.53L47.1,131.09L48.79,84.74L50.47,84.92L52.15,80.91L53.83,79.84L55.51,64.67L57.2,81.64L58.88,78.2L60.56,76.48L62.24,16L63.93,54.24L65.61,33.44L67.29,68.85L68.97,67.61L70.65,77.51L74.02,69.89L75.7,59.06L77.38,51.78L79.07,36.1L80.75,43.89L82.43,47.84L84.11,27.54L85.79,39.37L87.48,28.82L89.16,34.22L90.84,304L126.17,85.51L127.85,85.51L129.53,90.45L131.21,91.57L132.9,95.74L137.94,94.44L139.63,99.34L142.99,82.28L144.67,82.18L146.36,120.06L148.04,125.43L149.72,126.35L151.4,135.56L153.08,151.31L154.77,152.19L156.45,171.33L158.13,175.4L159.81,175.96L161.5,179.39L163.18,173.46L164.86,179.93L171.59,180.48L173.27,181.65L174.95,182.82L176.64,216.62L178.32,218.34L180,232.04L181.68,233.48L183.36,237.87L186.73,236.58L188.41,237.18L190.09,235.11L191.78,234.38L193.46,233.71L195.14,234.86L196.82,234.85L198.5,246.91L205.23,247.55L206.92,247.53L208.6,248.38L210.28,248.36L211.96,250.74L213.64,271.17L215.33,266.66L217.01,268.11L218.69,269.26L220.37,269.29L222.06,270.61L223.74,273.49L225.42,275.7L227.1,275.84L228.79,278.28L230.47,278.27L235.51,278.27L237.2,282.27L257.38,281.97L259.07,281.84L262.43,281.31L264.11,281.31L265.79,281.33L267.48,282.83L270.84,282.78L272.52,286.11L274.21,301.46L277.57,286.31L280.93,286.3L282.62,289.39L284.3,289.66L285.98,292.27L296.07,292.94L297.76,293.03L309.53,293.14L311.21,279.56L324.67,279.66L326.36,293.7L341.5,293.84L343.18,293.89L361.68,294.45L363.36,293.6L398.69,293.88L400.37,294.83L418.88,295.41L420.56,296.08L423.93,296.64L425.61,296.64L439.07,296.87L440.75,301.37L442.43,296.85L444.11,296.86L526.54,297.88L528.22,296.59L529.91,296.43L531.59,297.89L534.95,298.31L536.64,298.29L540,298.39" style="vector-effect: none; fill: none; stroke: rgb(99, 110, 250); stroke-opacity: 1; stroke-width: 2px; opacity: 1;"/></g><g class="points"/><g class="text"/></g></g></g><g class="overplot"/><path class="xlines-above crisp" d="M0,0" style="fill: none;"/><path class="ylines-above crisp" d="M0,0" style="fill: none;"/><g class="overlines-above"/><g class="xaxislayer-above"><g class="xtick"><text text-anchor="middle" x="0" y="433" transform="translate(179.25,0)" style="font-family: 'Open Sans', verdana, arial, sans-serif; font-size: 12px; fill: rgb(42, 63, 95); fill-opacity: 1; white-space: pre; opacity: 1;">May 2023</text></g><g class="xtick"><text text-anchor="middle" x="0" y="433" style="font-family: 'Open Sans', verdana, arial, sans-serif; font-size: 12px; fill: rgb(42, 63, 95); fill-opacity: 1; white-space: pre; opacity: 1;" transform="translate(281.87,0)">Jul 2023</text></g><g class="xtick"><text text-anchor="middle" x="0" y="433" style="font-family: 'Open Sans', verdana, arial, sans-serif; font-size: 12px; fill: rgb(42, 63, 95); fill-opacity: 1; white-space: pre; opacity: 1;" transform="translate(386.17,0)">Sep 2023</text></g><g class="xtick"><text text-anchor="middle" x="0" y="433" style="font-family: 'Open Sans', verdana, arial, sans-serif; font-size: 12px; fill: rgb(42, 63, 95); fill-opacity: 1; white-space: pre; opacity: 1;" transform="translate(488.79,0)">Nov 2023</text></g><g class="xtick"><text text-anchor="middle" x="0" y="433" style="font-family: 'Open Sans', verdana, arial, sans-serif; font-size: 12px; fill: rgb(42, 63, 95); fill-opacity: 1; white-space: pre; opacity: 1;" transform="translate(591.4,0)">Jan 2024</text></g></g><g class="yaxislayer-above"><g class="ytick"><text text-anchor="end" x="79" y="4.199999999999999" transform="translate(0,407.63)" style="font-family: 'Open Sans', verdana, arial, sans-serif; font-size: 12px; fill: rgb(42, 63, 95); fill-opacity: 1; white-space: pre; opacity: 1;">$−2M</text></g><g class="ytick"><text text-anchor="end" x="79" y="4.199999999999999" style="font-family: 'Open Sans', verdana, arial, sans-serif; font-size: 12px; fill: rgb(42, 63, 95); fill-opacity: 1; white-space: pre; opacity: 1;" transform="translate(0,339.83000000000004)">$−1M</text></g><g class="ytick"><text text-anchor="end" x="79" y="4.199999999999999" style="font-family: 'Open Sans', verdana, arial, sans-serif; font-size: 12px; fill: rgb(42, 63, 95); fill-opacity: 1; white-space: pre; opacity: 1;" transform="translate(0,272.03999999999996)">$0</text></g><g class="ytick"><text text-anchor="end" x="79" y="4.199999999999999" style="font-family: 'Open Sans', verdana, arial, sans-serif; font-size: 12px; fill: rgb(42, 63, 95); fill-opacity: 1; white-space: pre; opacity: 1;" transform="translate(0,204.24)">$1M</text></g><g class="ytick"><text text-anchor="end" x="79" y="4.199999999999999" style="font-family: 'Open Sans', verdana, arial, sans-serif; font-size: 12px; fill: rgb(42, 63, 95); fill-opacity: 1; white-space: pre; opacity: 1;" transform="translate(0,136.45)">$2M</text></g></g><g class="overaxes-above"/></g></g><g class="polarlayer"/><g class="smithlayer"/><g class="ternarylayer"/><g class="geolayer"/><g class="funnelarealayer"/><g class="pielayer"/><g class="iciclelayer"/><g class="treemaplayer"/><g class="sunburstlayer"/><g class="glimages"/><defs id="topdefs-cf90d8"><g class="clips"/></defs><g class="layer-above"><g class="imagelayer"/><g class="shapelayer"/></g><g class="infolayer"><g class="g-gtitle"><text class="gtitle" x="35" y="50" text-anchor="start" dy="0em" style="font-family: 'Open Sans', verdana, arial, sans-serif; font-size: 17px; fill: rgb(42, 63, 95); opacity: 1; font-weight: normal; white-space: pre;"><tspan class="line" dy="0em" x="35" y="50">Sushi Trident</tspan><tspan class="line" dy="1.3em" x="35" y="50">​<tspan style="font-size:70%" dy="-0.6em">Cumulative Net Flows since Program Announcement, Until Program End + 30 Days</tspan><tspan dy="0.42em">​</tspan></tspan></text></g><g class="g-xtitle"><text class="xtitle" x="350" y="460.3" text-anchor="middle" style="font-family: 'Open Sans', verdana, arial, sans-serif; font-size: 14px; fill: rgb(42, 63, 95); opacity: 1; font-weight: normal; white-space: pre;">Day</text></g><g class="g-ytitle"><text class="ytitle" transform="rotate(-90,24.340625000000003,260)" x="24.340625000000003" y="260" text-anchor="middle" style="font-family: 'Open Sans', verdana, arial, sans-serif; font-size: 14px; fill: rgb(42, 63, 95); opacity: 1; font-weight: normal; white-space: pre;">Cumulative Net Flows (USD)</text></g></g></svg>