<svg class="main-svg" xmlns="http://www.w3.org/2000/svg" xmlns:xlink="http://www.w3.org/1999/xlink" width="700" height="500" style="" viewBox="0 0 700 500"><rect x="0" y="0" width="700" height="500" style="fill: rgb(255, 255, 255); fill-opacity: 1;"/><defs id="defs-955994"><g class="clips"><clipPath id="clip955994xyplot" class="plotclip"><rect width="540" height="320"/></clipPath><clipPath class="axesclip" id="clip955994x"><rect x="80" y="0" width="540" height="500"/></clipPath><clipPath class="axesclip" id="clip955994y"><rect x="0" y="100" width="700" height="320"/></clipPath><clipPath class="axesclip" id="clip955994xy"><rect x="80" y="100" width="540" height="320"/></clipPath></g><g class="gradients"/><g class="patterns"/></defs><g class="bglayer"><rect class="bg" x="80" y="100" width="540" height="320" style="fill: rgb(229, 236, 246); fill-opacity: 1; stroke-width: 0;"/></g><g class="layer-below"><g class="imagelayer"/><g class="shapelayer"/></g><g class="cartesianlayer"><g class="subplot xy"><g class="layer-subplot"><g class="shapelayer"/><g class="imagelayer"/></g><g class="minor-gridlayer"><g class="x"/><g class="y"/></g><g class="gridlayer"><g class="x"><path class="xgrid crisp" transform="translate(92.77,0)" d="M0,100v320" style="stroke: rgb(255, 255, 255); stroke-opacity: 1; stroke-width: 1px;"/><path class="xgrid crisp" transform="translate(204.05,0)" d="M0,100v320" style="stroke: rgb(255, 255, 255); stroke-opacity: 1; stroke-width: 1px;"/><path class="xgrid crisp" transform="translate(311.69,0)" d="M0,100v320" style="stroke: rgb(255, 255, 255); stroke-opacity: 1; stroke-width: 1px;"/><path class="xgrid crisp" transform="translate(422.97,0)" d="M0,100v320" style="stroke: rgb(255, 255, 255); stroke-opacity: 1; stroke-width: 1px;"/><path class="xgrid crisp" transform="translate(534.26,0)" d="M0,100v320" style="stroke: rgb(255, 255, 255); stroke-opacity: 1; stroke-width: 1px;"/></g><g class="y"><path class="ygrid crisp" transform="translate(0,369.84)" d="M80,0h540" style="stroke: rgb(255, 255, 255); stroke-opacity: 1; stroke-width: 1px;"/><path class="ygrid crisp" transform="translate(0,319.68)" d="M80,0h540" style="stroke: rgb(255, 255, 255); stroke-opacity: 1; stroke-width: 1px;"/><path class="ygrid crisp" transform="translate(0,269.52)" d="M80,0h540" style="stroke: rgb(255, 255, 255); stroke-opacity: 1; stroke-width: 1px;"/><path class="ygrid crisp" transform="translate(0,219.37)" d="M80,0h540" style="stroke: rgb(255, 255, 255); stroke-opacity: 1; stroke-width: 1px;"/><path class="ygrid crisp" transform="translate(0,169.20999999999998)" d="M80,0h540" style="stroke: rgb(255, 255, 255); stroke-opacity: 1; stroke-width: 1px;"/><path class="ygrid crisp" transform="translate(0,119.05)" d="M80,0h540" style="stroke: rgb(255, 255, 255); stroke-opacity: 1; stroke-width: 1px;"/></g></g><g class="zerolinelayer"><path class="yzl zl crisp" transform="translate(0,420)" d="M80,0h540" style="stroke: rgb(255, 255, 255); stroke-opacity: 1; stroke-width: 2px;"/></g><path class="xlines-below"/><path class="ylines-below"/><g class="overlines-below"/><g class="xaxislayer-below"/><g class="yaxislayer-below"/><g class="overaxes-below"/><g class="plot" transform="translate(80,100)" clip-path="url(#clip955994xyplot)"><g class="scatterlayer mlayer"><g class="trace scatter trace09baa8" style="stroke-miterlimit: 2;"><g class="fills"><g><path class="js-fill" d="M540,320L0,320L0,320L1.82,320L3.65,285.23L5.47,239.69L7.3,246.6L9.12,248.63L10.95,239.58L12.77,241.74L14.59,234.48L16.42,231.92L18.24,249.29L23.72,247.49L25.54,249.43L29.19,266.93L31.01,266.63L32.84,261.76L34.66,261.07L36.49,239.63L38.31,239.96L40.14,238.62L41.96,242.9L45.61,252.04L47.43,249.85L49.26,248.65L51.08,249.24L52.91,249.16L54.73,248.19L56.55,248L58.38,245.16L60.2,238.99L62.03,228.22L63.85,234.4L65.68,236.51L67.5,253.35L69.32,243.58L72.97,231.28L74.8,245.91L76.62,246.69L78.45,260.69L80.27,250.72L82.09,250.43L83.92,250.98L85.74,257.41L89.39,256.92L91.22,256.73L93.04,256.86L94.86,253.16L96.69,248.02L98.51,247.63L102.16,248.23L103.99,246.36L107.64,246.56L109.46,245.32L111.28,245.6L113.11,245.09L114.93,242.77L116.76,242.55L118.58,245.21L120.41,244.25L122.23,246L124.05,245.85L125.88,245.24L127.7,243.34L129.53,240.93L131.35,242.02L136.82,241.83L138.65,240.46L140.47,241.48L142.3,243.51L145.95,235.15L147.77,234.36L149.59,232.68L151.42,227.26L153.24,249.65L155.07,245.81L156.89,248.48L158.72,265.24L160.54,268.73L162.36,266.47L166.01,261.73L167.84,260.47L169.66,251.07L171.49,252.82L175.14,250.95L176.96,236.05L178.78,243.2L180.61,239.55L182.43,228.63L184.26,234.91L186.08,234.58L187.91,230.81L189.73,231L191.55,216.44L193.38,230.85L195.2,232.15L197.03,231.64L198.85,225.9L200.68,225.07L202.5,225.62L204.32,207.62L206.15,209.63L209.8,215.73L211.62,209.74L213.45,214.03L215.27,213.75L217.09,216.29L218.92,209.94L220.74,204.31L222.57,186.36L224.39,181.02L226.22,185.32L228.04,185.08L229.86,175.21L231.69,174.77L233.51,186.56L235.34,177.42L237.16,180.35L238.99,182.82L240.81,173.71L244.46,185.5L246.28,179.78L248.11,168.02L249.93,183.48L251.76,157.68L253.58,179.46L257.23,238.43L259.05,286.69L260.88,273.01L262.7,267.74L264.53,268.85L266.35,268.34L270,246.49L271.82,167.81L273.65,178.09L275.47,182.53L279.12,151.09L280.95,175.14L282.77,174.68L284.59,186.94L288.24,185.36L290.07,176.59L291.89,176.14L293.72,173.49L295.54,177.27L297.36,183.13L299.19,185.76L301.01,204.03L302.84,246.93L304.66,241.5L306.49,241.36L308.31,235.78L311.96,170.77L313.78,166.82L315.61,146.63L317.43,158.04L319.26,149.62L321.08,115.72L322.91,147.43L324.73,137.32L326.55,133.41L328.38,121.92L330.2,83.08L332.03,84.66L333.85,85.82L335.68,91.7L337.5,89.11L339.32,91.29L341.15,93.71L342.97,122.53L344.8,120.05L346.62,115.37L348.45,124.16L350.27,84.91L352.09,39.96L353.92,40.65L355.74,41.11L357.57,52.29L359.39,30.38L361.22,32.42L363.04,16L364.86,65.5L368.51,52.38L370.34,56.8L372.16,62.33L373.99,70.58L375.81,54.75L377.64,60.5L379.46,87.15L381.28,91.26L383.11,98.72L384.93,91.95L386.76,66.51L388.58,69.37L390.41,57.17L392.23,53.73L394.05,38.9L395.88,42.18L399.53,161.44L401.35,157.62L403.18,158.28L405,141.18L406.82,139.3L408.65,144.17L410.47,144.22L412.3,193.82L415.95,162.61L417.77,183.85L419.59,187.8L421.42,187.46L423.24,188.82L425.07,196.55L426.89,193.24L428.72,196.77L430.54,212.79L432.36,201.3L434.19,201.73L436.01,204.12L437.84,191.7L439.66,195.89L441.49,195.47L443.31,195.97L445.14,195.75L446.96,187.54L448.78,192.95L450.61,194.66L452.43,231.68L454.26,215.74L456.08,207.39L457.91,204.19L459.73,200.15L461.55,199.93L463.38,204.74L465.2,213.71L467.03,221.8L468.85,221.89L470.68,221.87L472.5,219.71L476.15,213.1L477.97,215.32L481.62,194.55L483.45,203.46L487.09,226.21L488.92,214.48L492.57,192.98L494.39,187.53L496.22,186.75L498.04,176.65L499.86,176.77L501.69,173.01L505.34,178.89L507.16,184.96L508.99,175.65L510.81,188.44L514.46,194.15L516.28,191.99L518.11,192.74L519.93,205.47L521.76,207.59L523.58,190.01L525.41,190.67L527.23,196.64L529.05,201.95L530.88,194.14L532.7,194.01L534.53,197.23L536.35,186.96L538.18,181.76L540,183.33" style="fill: rgb(99, 110, 250); fill-opacity: 0.5; stroke-width: 0;"/></g></g><g class="errorbars"/><g class="lines"><path class="js-line" d="M0,320L1.82,320L3.65,285.23L5.47,239.69L7.3,246.6L9.12,248.63L10.95,239.58L12.77,241.74L14.59,234.48L16.42,231.92L18.24,249.29L23.72,247.49L25.54,249.43L29.19,266.93L31.01,266.63L32.84,261.76L34.66,261.07L36.49,239.63L38.31,239.96L40.14,238.62L41.96,242.9L45.61,252.04L47.43,249.85L49.26,248.65L51.08,249.24L52.91,249.16L54.73,248.19L56.55,248L58.38,245.16L60.2,238.99L62.03,228.22L63.85,234.4L65.68,236.51L67.5,253.35L69.32,243.58L72.97,231.28L74.8,245.91L76.62,246.69L78.45,260.69L80.27,250.72L82.09,250.43L83.92,250.98L85.74,257.41L89.39,256.92L91.22,256.73L93.04,256.86L94.86,253.16L96.69,248.02L98.51,247.63L102.16,248.23L103.99,246.36L107.64,246.56L109.46,245.32L111.28,245.6L113.11,245.09L114.93,242.77L116.76,242.55L118.58,245.21L120.41,244.25L122.23,246L124.05,245.85L125.88,245.24L127.7,243.34L129.53,240.93L131.35,242.02L136.82,241.83L138.65,240.46L140.47,241.48L142.3,243.51L145.95,235.15L147.77,234.36L149.59,232.68L151.42,227.26L153.24,249.65L155.07,245.81L156.89,248.48L158.72,265.24L160.54,268.73L162.36,266.47L166.01,261.73L167.84,260.47L169.66,251.07L171.49,252.82L175.14,250.95L176.96,236.05L178.78,243.2L180.61,239.55L182.43,228.63L184.26,234.91L186.08,234.58L187.91,230.81L189.73,231L191.55,216.44L193.38,230.85L195.2,232.15L197.03,231.64L198.85,225.9L200.68,225.07L202.5,225.62L204.32,207.62L206.15,209.63L209.8,215.73L211.62,209.74L213.45,214.03L215.27,213.75L217.09,216.29L218.92,209.94L220.74,204.31L222.57,186.36L224.39,181.02L226.22,185.32L228.04,185.08L229.86,175.21L231.69,174.77L233.51,186.56L235.34,177.42L237.16,180.35L238.99,182.82L240.81,173.71L244.46,185.5L246.28,179.78L248.11,168.02L249.93,183.48L251.76,157.68L253.58,179.46L257.23,238.43L259.05,286.69L260.88,273.01L262.7,267.74L264.53,268.85L266.35,268.34L270,246.49L271.82,167.81L273.65,178.09L275.47,182.53L279.12,151.09L280.95,175.14L282.77,174.68L284.59,186.94L288.24,185.36L290.07,176.59L291.89,176.14L293.72,173.49L295.54,177.27L297.36,183.13L299.19,185.76L301.01,204.03L302.84,246.93L304.66,241.5L306.49,241.36L308.31,235.78L311.96,170.77L313.78,166.82L315.61,146.63L317.43,158.04L319.26,149.62L321.08,115.72L322.91,147.43L324.73,137.32L326.55,133.41L328.38,121.92L330.2,83.08L332.03,84.66L333.85,85.82L335.68,91.7L337.5,89.11L339.32,91.29L341.15,93.71L342.97,122.53L344.8,120.05L346.62,115.37L348.45,124.16L350.27,84.91L352.09,39.96L353.92,40.65L355.74,41.11L357.57,52.29L359.39,30.38L361.22,32.42L363.04,16L364.86,65.5L368.51,52.38L370.34,56.8L372.16,62.33L373.99,70.58L375.81,54.75L377.64,60.5L379.46,87.15L381.28,91.26L383.11,98.72L384.93,91.95L386.76,66.51L388.58,69.37L390.41,57.17L392.23,53.73L394.05,38.9L395.88,42.18L399.53,161.44L401.35,157.62L403.18,158.28L405,141.18L406.82,139.3L408.65,144.17L410.47,144.22L412.3,193.82L415.95,162.61L417.77,183.85L419.59,187.8L421.42,187.46L423.24,188.82L425.07,196.55L426.89,193.24L428.72,196.77L430.54,212.79L432.36,201.3L434.19,201.73L436.01,204.12L437.84,191.7L439.66,195.89L441.49,195.47L443.31,195.97L445.14,195.75L446.96,187.54L448.78,192.95L450.61,194.66L452.43,231.68L454.26,215.74L456.08,207.39L457.91,204.19L459.73,200.15L461.55,199.93L463.38,204.74L465.2,213.71L467.03,221.8L468.85,221.89L470.68,221.87L472.5,219.71L476.15,213.1L477.97,215.32L481.62,194.55L483.45,203.46L487.09,226.21L488.92,214.48L492.57,192.98L494.39,187.53L496.22,186.75L498.04,176.65L499.86,176.77L501.69,173.01L505.34,178.89L507.16,184.96L508.99,175.65L510.81,188.44L514.46,194.15L516.28,191.99L518.11,192.74L519.93,205.47L521.76,207.59L523.58,190.01L525.41,190.67L527.23,196.64L529.05,201.95L530.88,194.14L532.7,194.01L534.53,197.23L536.35,186.96L538.18,181.76L540,183.33" style="vector-effect: none; fill: none; stroke: rgb(99, 110, 250); stroke-opacity: 1; stroke-width: 2px; opacity: 1;"/></g><g class="points"/><g class="text"/></g></g></g><g class="overplot"/><path class="xlines-above crisp" d="M0,0" style="fill: none;"/><path class="ylines-above crisp" d="M0,0" style="fill: none;"/><g class="overlines-above"/><g class="xaxislayer-above"><g class="xtick"><text text-anchor="middle" x="0" y="433" transform="translate(92.77,0)" style="font-family: 'Open Sans', verdana, arial, sans-serif; font-size: 12px; fill: rgb(42, 63, 95); fill-opacity: 1; white-space: pre; opacity: 1;">Nov 2022</text></g><g class="xtick"><text text-anchor="middle" x="0" y="433" style="font-family: 'Open Sans', verdana, arial, sans-serif; font-size: 12px; fill: rgb(42, 63, 95); fill-opacity: 1; white-space: pre; opacity: 1;" transform="translate(204.05,0)">Jan 2023</text></g><g class="xtick"><text text-anchor="middle" x="0" y="433" style="font-family: 'Open Sans', verdana, arial, sans-serif; font-size: 12px; fill: rgb(42, 63, 95); fill-opacity: 1; white-space: pre; opacity: 1;" transform="translate(311.69,0)">Mar 2023</text></g><g class="xtick"><text text-anchor="middle" x="0" y="433" style="font-family: 'Open Sans', verdana, arial, sans-serif; font-size: 12px; fill: rgb(42, 63, 95); fill-opacity: 1; white-space: pre; opacity: 1;" transform="translate(422.97,0)">May 2023</text></g><g class="xtick"><text text-anchor="middle" x="0" y="433" style="font-family: 'Open Sans', verdana, arial, sans-serif; font-size: 12px; fill: rgb(42, 63, 95); fill-opacity: 1; white-space: pre; opacity: 1;" transform="translate(534.26,0)">Jul 2023</text></g></g><g class="yaxislayer-above"><g class="ytick"><text text-anchor="end" x="79" y="4.199999999999999" transform="translate(0,420)" style="font-family: 'Open Sans', verdana, arial, sans-serif; font-size: 12px; fill: rgb(42, 63, 95); fill-opacity: 1; white-space: pre; opacity: 1;">$0</text></g><g class="ytick"><text text-anchor="end" x="79" y="4.199999999999999" style="font-family: 'Open Sans', verdana, arial, sans-serif; font-size: 12px; fill: rgb(42, 63, 95); fill-opacity: 1; white-space: pre; opacity: 1;" transform="translate(0,369.84)">$0.5M</text></g><g class="ytick"><text text-anchor="end" x="79" y="4.199999999999999" style="font-family: 'Open Sans', verdana, arial, sans-serif; font-size: 12px; fill: rgb(42, 63, 95); fill-opacity: 1; white-space: pre; opacity: 1;" transform="translate(0,319.68)">$1M</text></g><g class="ytick"><text text-anchor="end" x="79" y="4.199999999999999" style="font-family: 'Open Sans', verdana, arial, sans-serif; font-size: 12px; fill: rgb(42, 63, 95); fill-opacity: 1; white-space: pre; opacity: 1;" transform="translate(0,269.52)">$1.5M</text></g><g class="ytick"><text text-anchor="end" x="79" y="4.199999999999999" style="font-family: 'Open Sans', verdana, arial, sans-serif; font-size: 12px; fill: rgb(42, 63, 95); fill-opacity: 1; white-space: pre; opacity: 1;" transform="translate(0,219.37)">$2M</text></g><g class="ytick"><text text-anchor="end" x="79" y="4.199999999999999" style="font-family: 'Open Sans', verdana, arial, sans-serif; font-size: 12px; fill: rgb(42, 63, 95); fill-opacity: 1; white-space: pre; opacity: 1;" transform="translate(0,169.20999999999998)">$2.5M</text></g><g class="ytick"><text text-anchor="end" x="79" y="4.199999999999999" style="font-family: 'Open Sans', verdana, arial, sans-serif; font-size: 12px; fill: rgb(42, 63, 95); fill-opacity: 1; white-space: pre; opacity: 1;" transform="translate(0,119.05)">$3M</text></g></g><g class="overaxes-above"/></g></g><g class="polarlayer"/><g class="smithlayer"/><g class="ternarylayer"/><g class="geolayer"/><g class="funnelarealayer"/><g class="pielayer"/><g class="iciclelayer"/><g class="treemaplayer"/><g class="sunburstlayer"/><g class="glimages"/><defs id="topdefs-955994"><g class="clips"/></defs><g class="layer-above"><g class="imagelayer"/><g class="shapelayer"/></g><g class="infolayer"><g class="g-gtitle"><text class="gtitle" x="35" y="50" text-anchor="start" dy="0em" style="font-family: 'Open Sans', verdana, arial, sans-serif; font-size: 17px; fill: rgb(42, 63, 95); opacity: 1; font-weight: normal; white-space: pre;"><tspan class="line" dy="0em" x="35" y="50">Synthetix - All Synthetix Hop Pools</tspan><tspan class="line" dy="1.3em" x="35" y="50">​<tspan style="font-size:70%" dy="-0.6em">Cumulative Net Flows since Program Announcement, Until Program End + 30 Days</tspan><tspan dy="0.42em">​</tspan></tspan></text></g><g class="g-xtitle"><text class="xtitle" x="350" y="460.3" text-anchor="middle" style="font-family: 'Open Sans', verdana, arial, sans-serif; font-size: 14px; fill: rgb(42, 63, 95); opacity: 1; font-weight: normal; white-space: pre;">Day</text></g><g class="g-ytitle"><text class="ytitle" transform="rotate(-90,21.340625000000003,260)" x="21.340625000000003" y="260" text-anchor="middle" style="font-family: 'Open Sans', verdana, arial, sans-serif; font-size: 14px; fill: rgb(42, 63, 95); opacity: 1; font-weight: normal; white-space: pre;">Cumulative Net Flows (USD)</text></g></g></svg>