<svg class="main-svg" xmlns="http://www.w3.org/2000/svg" xmlns:xlink="http://www.w3.org/1999/xlink" width="700" height="500" style="" viewBox="0 0 700 500"><rect x="0" y="0" width="700" height="500" style="fill: rgb(255, 255, 255); fill-opacity: 1;"/><defs id="defs-1e3207"><g class="clips"><clipPath id="clip1e3207xyplot" class="plotclip"><rect width="540" height="320"/></clipPath><clipPath class="axesclip" id="clip1e3207x"><rect x="80" y="0" width="540" height="500"/></clipPath><clipPath class="axesclip" id="clip1e3207y"><rect x="0" y="100" width="700" height="320"/></clipPath><clipPath class="axesclip" id="clip1e3207xy"><rect x="80" y="100" width="540" height="320"/></clipPath></g><g class="gradients"/><g class="patterns"/></defs><g class="bglayer"><rect class="bg" x="80" y="100" width="540" height="320" style="fill: rgb(229, 236, 246); fill-opacity: 1; stroke-width: 0;"/></g><g class="layer-below"><g class="imagelayer"/><g class="shapelayer"/></g><g class="cartesianlayer"><g class="subplot xy"><g class="layer-subplot"><g class="shapelayer"/><g class="imagelayer"/></g><g class="minor-gridlayer"><g class="x"/><g class="y"/></g><g class="gridlayer"><g class="x"><path class="xgrid crisp" transform="translate(114.72999999999999,0)" d="M0,100v320" style="stroke: rgb(255, 255, 255); stroke-opacity: 1; stroke-width: 1px;"/><path class="xgrid crisp" transform="translate(220.64,0)" d="M0,100v320" style="stroke: rgb(255, 255, 255); stroke-opacity: 1; stroke-width: 1px;"/><path class="xgrid crisp" transform="translate(328.3,0)" d="M0,100v320" style="stroke: rgb(255, 255, 255); stroke-opacity: 1; stroke-width: 1px;"/><path class="xgrid crisp" transform="translate(434.21,0)" d="M0,100v320" style="stroke: rgb(255, 255, 255); stroke-opacity: 1; stroke-width: 1px;"/><path class="xgrid crisp" transform="translate(540.13,0)" d="M0,100v320" style="stroke: rgb(255, 255, 255); stroke-opacity: 1; stroke-width: 1px;"/></g><g class="y"><path class="ygrid crisp" transform="translate(0,340.94)" d="M80,0h540" style="stroke: rgb(255, 255, 255); stroke-opacity: 1; stroke-width: 1px;"/><path class="ygrid crisp" transform="translate(0,261.89)" d="M80,0h540" style="stroke: rgb(255, 255, 255); stroke-opacity: 1; stroke-width: 1px;"/><path class="ygrid crisp" transform="translate(0,182.82999999999998)" d="M80,0h540" style="stroke: rgb(255, 255, 255); stroke-opacity: 1; stroke-width: 1px;"/><path class="ygrid crisp" transform="translate(0,103.77)" d="M80,0h540" style="stroke: rgb(255, 255, 255); stroke-opacity: 1; stroke-width: 1px;"/></g></g><g class="zerolinelayer"><path class="yzl zl crisp" transform="translate(0,420)" d="M80,0h540" style="stroke: rgb(255, 255, 255); stroke-opacity: 1; stroke-width: 2px;"/></g><path class="xlines-below"/><path class="ylines-below"/><g class="overlines-below"/><g class="xaxislayer-below"/><g class="yaxislayer-below"/><g class="overaxes-below"/><g class="plot" transform="translate(80,100)" clip-path="url(#clip1e3207xyplot)"><g class="scatterlayer mlayer"><g class="trace scatter tracee07b80" style="stroke-miterlimit: 2;"><g class="fills"><g><path class="js-fill" d="M540,320L0,320L0,320L1.74,312.1L3.47,251.08L5.21,180.55L6.95,175.85L8.68,141.49L10.42,159.9L13.89,132.07L15.63,92.05L17.36,94.53L19.1,102.26L20.84,100.37L22.57,44.56L24.31,44.86L26.05,46.99L27.78,56.31L29.52,51.42L31.25,54.72L32.99,50.58L34.73,49.92L36.46,51.22L38.2,46.85L39.94,59.28L41.67,78.74L43.41,16.07L45.14,17.12L46.88,16L48.62,29.66L50.35,29.72L52.09,29.16L53.83,34.54L55.56,45.64L57.3,46.49L62.51,62.02L64.24,85.72L67.72,84.25L69.45,90.44L71.19,96.49L72.93,113.57L74.66,79.9L76.4,80.73L78.14,84.96L79.87,69.99L81.61,70.12L83.34,68.38L85.08,69.4L86.82,69.4L88.55,108.53L90.29,109.31L92.03,109.15L93.76,111.12L95.5,111.12L97.23,112.04L98.97,112.04L100.71,193.18L102.44,192.92L104.18,167.66L105.92,194.71L107.65,196.6L109.39,195.9L111.13,203.72L112.86,214.2L114.6,215.51L116.33,215.59L118.07,240.94L119.81,221.89L121.54,222.19L123.28,224.67L125.02,210.55L126.75,212.09L128.49,210.13L131.96,210.27L133.7,195L137.17,209.4L138.91,255.12L140.64,229.79L142.38,216.09L145.85,206.19L147.59,213.33L149.32,219.68L151.06,217.59L152.8,230.19L154.53,230.18L158.01,225.13L159.74,224.72L163.22,228.77L164.95,224.65L166.69,204.11L168.42,210.12L170.16,240.48L171.9,236.09L173.63,219.78L175.37,184.9L177.11,184.49L178.84,172.31L180.58,177.56L182.32,177.7L184.05,177.72L185.79,171.63L189.26,172.75L191,175.04L192.73,158.84L194.47,174.63L196.21,176.27L197.94,179.22L201.41,183.96L203.15,198.73L208.36,197.93L210.1,205.47L211.83,205.32L213.57,192.08L215.31,191.88L217.04,196.93L220.51,173.35L222.25,174.22L223.99,158.91L225.72,159.84L227.46,158.32L229.2,170.69L230.93,174.91L232.67,177.15L234.41,196.8L236.14,198.74L237.88,198.22L239.61,199.99L241.35,194.74L243.09,177.75L244.82,171.63L246.56,170.69L248.3,175.77L250.03,175.94L251.77,161.47L253.5,161.3L255.24,165.27L256.98,165.22L258.71,165.38L260.45,166.58L262.19,166.96L263.92,165.83L265.66,166.73L267.4,166.73L269.13,182.68L270.87,182.67L272.6,187.39L274.34,188.76L277.81,188.28L279.55,188.27L281.29,186.26L283.02,190.7L284.76,190.69L286.5,189.14L288.23,189.04L289.97,193.98L291.7,192.83L293.44,194.19L298.65,194.09L300.39,206.43L303.86,237.19L305.59,275.4L309.07,290.24L310.8,288.6L312.54,286.25L314.28,287.99L316.01,289.04L317.75,289.17L319.49,289.29L321.22,291.81L324.69,290.03L326.43,290.42L328.17,291.06L329.9,292.93L336.85,293.31L338.59,299.1L342.06,302.56L343.79,302.56L345.53,290.06L347.27,289.99L350.74,290.16L352.48,288.81L354.21,290.09L355.95,288.81L361.16,288.24L362.89,307.28L368.1,306.87L369.84,310.5L376.78,310.74L378.52,308.51L380.26,307.41L381.99,307.41L399.36,307.15L401.09,308.61L434.08,308.11L435.82,307.79L453.18,307.37L454.92,306.58L458.39,306.58L460.13,305.01L526.11,305.75L527.85,305.83L540,305.76" style="fill: rgb(99, 110, 250); fill-opacity: 0.5; stroke-width: 0;"/></g></g><g class="errorbars"/><g class="lines"><path class="js-line" d="M0,320L1.74,312.1L3.47,251.08L5.21,180.55L6.95,175.85L8.68,141.49L10.42,159.9L13.89,132.07L15.63,92.05L17.36,94.53L19.1,102.26L20.84,100.37L22.57,44.56L24.31,44.86L26.05,46.99L27.78,56.31L29.52,51.42L31.25,54.72L32.99,50.58L34.73,49.92L36.46,51.22L38.2,46.85L39.94,59.28L41.67,78.74L43.41,16.07L45.14,17.12L46.88,16L48.62,29.66L50.35,29.72L52.09,29.16L53.83,34.54L55.56,45.64L57.3,46.49L62.51,62.02L64.24,85.72L67.72,84.25L69.45,90.44L71.19,96.49L72.93,113.57L74.66,79.9L76.4,80.73L78.14,84.96L79.87,69.99L81.61,70.12L83.34,68.38L85.08,69.4L86.82,69.4L88.55,108.53L90.29,109.31L92.03,109.15L93.76,111.12L95.5,111.12L97.23,112.04L98.97,112.04L100.71,193.18L102.44,192.92L104.18,167.66L105.92,194.71L107.65,196.6L109.39,195.9L111.13,203.72L112.86,214.2L114.6,215.51L116.33,215.59L118.07,240.94L119.81,221.89L121.54,222.19L123.28,224.67L125.02,210.55L126.75,212.09L128.49,210.13L131.96,210.27L133.7,195L137.17,209.4L138.91,255.12L140.64,229.79L142.38,216.09L145.85,206.19L147.59,213.33L149.32,219.68L151.06,217.59L152.8,230.19L154.53,230.18L158.01,225.13L159.74,224.72L163.22,228.77L164.95,224.65L166.69,204.11L168.42,210.12L170.16,240.48L171.9,236.09L173.63,219.78L175.37,184.9L177.11,184.49L178.84,172.31L180.58,177.56L182.32,177.7L184.05,177.72L185.79,171.63L189.26,172.75L191,175.04L192.73,158.84L194.47,174.63L196.21,176.27L197.94,179.22L201.41,183.96L203.15,198.73L208.36,197.93L210.1,205.47L211.83,205.32L213.57,192.08L215.31,191.88L217.04,196.93L220.51,173.35L222.25,174.22L223.99,158.91L225.72,159.84L227.46,158.32L229.2,170.69L230.93,174.91L232.67,177.15L234.41,196.8L236.14,198.74L237.88,198.22L239.61,199.99L241.35,194.74L243.09,177.75L244.82,171.63L246.56,170.69L248.3,175.77L250.03,175.94L251.77,161.47L253.5,161.3L255.24,165.27L256.98,165.22L258.71,165.38L260.45,166.58L262.19,166.96L263.92,165.83L265.66,166.73L267.4,166.73L269.13,182.68L270.87,182.67L272.6,187.39L274.34,188.76L277.81,188.28L279.55,188.27L281.29,186.26L283.02,190.7L284.76,190.69L286.5,189.14L288.23,189.04L289.97,193.98L291.7,192.83L293.44,194.19L298.65,194.09L300.39,206.43L303.86,237.19L305.59,275.4L309.07,290.24L310.8,288.6L312.54,286.25L314.28,287.99L316.01,289.04L317.75,289.17L319.49,289.29L321.22,291.81L324.69,290.03L326.43,290.42L328.17,291.06L329.9,292.93L336.85,293.31L338.59,299.1L342.06,302.56L343.79,302.56L345.53,290.06L347.27,289.99L350.74,290.16L352.48,288.81L354.21,290.09L355.95,288.81L361.16,288.24L362.89,307.28L368.1,306.87L369.84,310.5L376.78,310.74L378.52,308.51L380.26,307.41L381.99,307.41L399.36,307.15L401.09,308.61L434.08,308.11L435.82,307.79L453.18,307.37L454.92,306.58L458.39,306.58L460.13,305.01L526.11,305.75L527.85,305.83L540,305.76" style="vector-effect: none; fill: none; stroke: rgb(99, 110, 250); stroke-opacity: 1; stroke-width: 2px; opacity: 1;"/></g><g class="points"/><g class="text"/></g></g></g><g class="overplot"/><path class="xlines-above crisp" d="M0,0" style="fill: none;"/><path class="ylines-above crisp" d="M0,0" style="fill: none;"/><g class="overlines-above"/><g class="xaxislayer-above"><g class="xtick"><text text-anchor="middle" x="0" y="433" transform="translate(114.72999999999999,0)" style="font-family: 'Open Sans', verdana, arial, sans-serif; font-size: 12px; fill: rgb(42, 63, 95); fill-opacity: 1; white-space: pre; opacity: 1;">May 2023</text></g><g class="xtick"><text text-anchor="middle" x="0" y="433" style="font-family: 'Open Sans', verdana, arial, sans-serif; font-size: 12px; fill: rgb(42, 63, 95); fill-opacity: 1; white-space: pre; opacity: 1;" transform="translate(220.64,0)">Jul 2023</text></g><g class="xtick"><text text-anchor="middle" x="0" y="433" style="font-family: 'Open Sans', verdana, arial, sans-serif; font-size: 12px; fill: rgb(42, 63, 95); fill-opacity: 1; white-space: pre; opacity: 1;" transform="translate(328.3,0)">Sep 2023</text></g><g class="xtick"><text text-anchor="middle" x="0" y="433" style="font-family: 'Open Sans', verdana, arial, sans-serif; font-size: 12px; fill: rgb(42, 63, 95); fill-opacity: 1; white-space: pre; opacity: 1;" transform="translate(434.21,0)">Nov 2023</text></g><g class="xtick"><text text-anchor="middle" x="0" y="433" style="font-family: 'Open Sans', verdana, arial, sans-serif; font-size: 12px; fill: rgb(42, 63, 95); fill-opacity: 1; white-space: pre; opacity: 1;" transform="translate(540.13,0)">Jan 2024</text></g></g><g class="yaxislayer-above"><g class="ytick"><text text-anchor="end" x="79" y="4.199999999999999" transform="translate(0,420)" style="font-family: 'Open Sans', verdana, arial, sans-serif; font-size: 12px; fill: rgb(42, 63, 95); fill-opacity: 1; white-space: pre; opacity: 1;">$0</text></g><g class="ytick"><text text-anchor="end" x="79" y="4.199999999999999" style="font-family: 'Open Sans', verdana, arial, sans-serif; font-size: 12px; fill: rgb(42, 63, 95); fill-opacity: 1; white-space: pre; opacity: 1;" transform="translate(0,340.94)">$0.5M</text></g><g class="ytick"><text text-anchor="end" x="79" y="4.199999999999999" style="font-family: 'Open Sans', verdana, arial, sans-serif; font-size: 12px; fill: rgb(42, 63, 95); fill-opacity: 1; white-space: pre; opacity: 1;" transform="translate(0,261.89)">$1M</text></g><g class="ytick"><text text-anchor="end" x="79" y="4.199999999999999" style="font-family: 'Open Sans', verdana, arial, sans-serif; font-size: 12px; fill: rgb(42, 63, 95); fill-opacity: 1; white-space: pre; opacity: 1;" transform="translate(0,182.82999999999998)">$1.5M</text></g><g class="ytick"><text text-anchor="end" x="79" y="4.199999999999999" style="font-family: 'Open Sans', verdana, arial, sans-serif; font-size: 12px; fill: rgb(42, 63, 95); fill-opacity: 1; white-space: pre; opacity: 1;" transform="translate(0,103.77)">$2M</text></g></g><g class="overaxes-above"/></g></g><g class="polarlayer"/><g class="smithlayer"/><g class="ternarylayer"/><g class="geolayer"/><g class="funnelarealayer"/><g class="pielayer"/><g class="iciclelayer"/><g class="treemaplayer"/><g class="sunburstlayer"/><g class="glimages"/><defs id="topdefs-1e3207"><g class="clips"/></defs><g class="layer-above"><g class="imagelayer"/><g class="shapelayer"/></g><g class="infolayer"><g class="g-gtitle"><text class="gtitle" x="35" y="50" text-anchor="start" dy="0em" style="font-family: 'Open Sans', verdana, arial, sans-serif; font-size: 17px; fill: rgb(42, 63, 95); opacity: 1; font-weight: normal; white-space: pre;"><tspan class="line" dy="0em" x="35" y="50">Synthetix - sUSD Bridge: Hop</tspan><tspan class="line" dy="1.3em" x="35" y="50">​<tspan style="font-size:70%" dy="-0.6em">Cumulative Net Flows since Program Announcement, Until Program End + 30 Days</tspan><tspan dy="0.42em">​</tspan></tspan></text></g><g class="g-xtitle"><text class="xtitle" x="350" y="460.3" text-anchor="middle" style="font-family: 'Open Sans', verdana, arial, sans-serif; font-size: 14px; fill: rgb(42, 63, 95); opacity: 1; font-weight: normal; white-space: pre;">Day</text></g><g class="g-ytitle"><text class="ytitle" transform="rotate(-90,21.340625000000003,260)" x="21.340625000000003" y="260" text-anchor="middle" style="font-family: 'Open Sans', verdana, arial, sans-serif; font-size: 14px; fill: rgb(42, 63, 95); opacity: 1; font-weight: normal; white-space: pre;">Cumulative Net Flows (USD)</text></g></g></svg>