<svg class="main-svg" xmlns="http://www.w3.org/2000/svg" xmlns:xlink="http://www.w3.org/1999/xlink" width="700" height="500" style="" viewBox="0 0 700 500"><rect x="0" y="0" width="700" height="500" style="fill: rgb(255, 255, 255); fill-opacity: 1;"/><defs id="defs-35d00c"><g class="clips"><clipPath id="clip35d00cxyplot" class="plotclip"><rect width="540" height="320"/></clipPath><clipPath class="axesclip" id="clip35d00cx"><rect x="80" y="0" width="540" height="500"/></clipPath><clipPath class="axesclip" id="clip35d00cy"><rect x="0" y="100" width="700" height="320"/></clipPath><clipPath class="axesclip" id="clip35d00cxy"><rect x="80" y="100" width="540" height="320"/></clipPath></g><g class="gradients"/><g class="patterns"/></defs><g class="bglayer"><rect class="bg" x="80" y="100" width="540" height="320" style="fill: rgb(229, 236, 246); fill-opacity: 1; stroke-width: 0;"/></g><g class="layer-below"><g class="imagelayer"/><g class="shapelayer"/></g><g class="cartesianlayer"><g class="subplot xy"><g class="layer-subplot"><g class="shapelayer"/><g class="imagelayer"/></g><g class="minor-gridlayer"><g class="x"/><g class="y"/></g><g class="gridlayer"><g class="x"><path class="xgrid crisp" transform="translate(89.13,0)" d="M0,100v320" style="stroke: rgb(255, 255, 255); stroke-opacity: 1; stroke-width: 1px;"/><path class="xgrid crisp" transform="translate(181.92000000000002,0)" d="M0,100v320" style="stroke: rgb(255, 255, 255); stroke-opacity: 1; stroke-width: 1px;"/><path class="xgrid crisp" transform="translate(274.7,0)" d="M0,100v320" style="stroke: rgb(255, 255, 255); stroke-opacity: 1; stroke-width: 1px;"/><path class="xgrid crisp" transform="translate(364.45,0)" d="M0,100v320" style="stroke: rgb(255, 255, 255); stroke-opacity: 1; stroke-width: 1px;"/><path class="xgrid crisp" transform="translate(457.24,0)" d="M0,100v320" style="stroke: rgb(255, 255, 255); stroke-opacity: 1; stroke-width: 1px;"/><path class="xgrid crisp" transform="translate(550.03,0)" d="M0,100v320" style="stroke: rgb(255, 255, 255); stroke-opacity: 1; stroke-width: 1px;"/></g><g class="y"><path class="ygrid crisp" transform="translate(0,413.35)" d="M80,0h540" style="stroke: rgb(255, 255, 255); stroke-opacity: 1; stroke-width: 1px;"/><path class="ygrid crisp" transform="translate(0,354.40999999999997)" d="M80,0h540" style="stroke: rgb(255, 255, 255); stroke-opacity: 1; stroke-width: 1px;"/><path class="ygrid crisp" transform="translate(0,295.46000000000004)" d="M80,0h540" style="stroke: rgb(255, 255, 255); stroke-opacity: 1; stroke-width: 1px;"/><path class="ygrid crisp" transform="translate(0,236.51)" d="M80,0h540" style="stroke: rgb(255, 255, 255); stroke-opacity: 1; stroke-width: 1px;"/><path class="ygrid crisp" transform="translate(0,118.62)" d="M80,0h540" style="stroke: rgb(255, 255, 255); stroke-opacity: 1; stroke-width: 1px;"/></g></g><g class="zerolinelayer"><path class="yzl zl crisp" transform="translate(0,177.57)" d="M80,0h540" style="stroke: rgb(255, 255, 255); stroke-opacity: 1; stroke-width: 2px;"/></g><path class="xlines-below"/><path class="ylines-below"/><g class="overlines-below"/><g class="xaxislayer-below"/><g class="yaxislayer-below"/><g class="overaxes-below"/><g class="plot" transform="translate(80,100)" clip-path="url(#clip35d00cxyplot)"><g class="scatterlayer mlayer"><g class="trace scatter tracefc2726" style="stroke-miterlimit: 2;"><g class="fills"><g><path class="js-fill" d="M540,77.57L0,77.57L0,77.8L16.73,77.12L18.25,77.09L63.89,76.85L65.41,76.61L77.58,76.69L79.1,77.92L80.62,70.19L82.14,67.96L83.66,57.9L85.18,40.98L88.23,54.25L89.75,56.58L91.27,58.84L92.79,52.42L94.31,53.87L95.83,53.57L97.35,52.53L98.87,52.67L100.39,46.26L101.92,45.79L104.96,46.64L106.48,47.46L108,45.72L109.52,45.79L111.04,77.16L112.56,91.26L115.61,102.09L117.13,101.34L121.69,103.68L123.21,107.19L126.25,107.12L127.77,98.89L129.3,96.17L130.82,95.19L132.34,96.68L133.86,94.04L135.38,81.8L136.9,84.33L138.42,79.6L139.94,81.29L141.46,82.63L142.99,82.5L146.03,87.79L147.55,81.91L149.07,59.47L150.59,57.29L153.63,56.76L155.15,59.12L158.2,50.55L159.72,53.7L161.24,53.61L162.76,55.41L164.28,56.09L165.8,67.14L167.32,71.52L168.85,71.55L170.37,71.76L171.89,69.27L173.41,71.55L174.93,71.64L176.45,73.84L177.97,72.08L182.54,68.75L184.06,68.8L185.58,67.88L187.1,60.41L191.66,62.27L193.18,61.14L196.23,66.49L197.75,66.78L200.79,68.87L202.31,68.02L203.83,58.01L205.35,57.75L206.87,53.5L208.39,58.33L209.92,58.43L211.44,71.62L216,75.53L217.52,75.78L219.04,75.41L220.56,71.06L222.08,69.17L223.61,69.81L225.13,68.36L226.65,68.39L228.17,85.39L229.69,82.71L231.21,77.49L232.73,89.8L234.25,89.87L235.77,86.48L237.3,86.7L238.82,82.62L240.34,80.56L241.86,83.28L243.38,81.66L244.9,85.89L246.42,88.23L247.94,88.42L249.46,87.89L250.99,86.3L252.51,86.38L254.03,89.76L255.55,93.41L257.07,102.61L261.63,103.68L263.15,117.5L266.2,85.4L267.72,84.91L269.24,84.69L270.76,82.64L272.28,81.42L273.8,64.48L275.32,24.34L276.85,16L278.37,17.79L279.89,17.78L282.93,18.88L284.45,25.74L285.97,25.64L287.49,44.5L289.01,46.92L290.54,44.65L292.06,46.3L293.58,40.27L295.1,38.73L296.62,46.76L299.66,137.83L301.18,137.51L302.7,133.74L304.23,124.87L305.75,125.2L307.27,95.5L308.79,94.47L310.31,95.47L311.83,97.61L313.35,96.41L314.87,98.01L316.39,96.42L317.92,86.93L319.44,109.87L324,120.73L325.52,121.98L327.04,122.79L328.56,133.32L330.08,133.67L331.61,128.27L333.13,127.68L334.65,127.9L336.17,99.65L337.69,99.6L339.21,103.21L340.73,94.43L345.3,91.42L346.82,91.58L348.34,91.09L349.86,89.5L351.38,86.92L352.9,82.61L354.42,80.51L355.94,71.89L357.46,67.92L358.99,78.55L360.51,77.06L362.03,44.4L365.07,46.62L366.59,46.76L368.11,46.72L369.63,49.38L371.15,49.42L372.68,42.66L374.2,42.18L375.72,44.76L377.24,44.37L378.76,46.45L380.28,49.1L381.8,55.29L383.32,52.45L384.85,52.6L386.37,59.63L387.89,59.81L389.41,63.31L390.93,64.7L392.45,68.07L393.97,69.35L398.54,69.56L400.06,70.38L401.58,65.27L403.1,56.94L406.14,55.76L407.66,57.31L409.18,54.13L410.7,57.97L412.23,60.81L413.75,61.06L415.27,59.86L416.79,60.24L421.35,59.8L422.87,61.05L424.39,63.64L425.92,64.51L427.44,62.66L428.96,63.19L432,64.6L433.52,64.1L436.56,61.18L438.08,64.44L439.61,62.85L441.13,62.6L442.65,62.2L444.17,63.04L445.69,64.94L447.21,65.22L450.25,64.84L451.77,64.92L453.3,63.82L454.82,65.03L456.34,43.59L457.86,44.53L459.38,44.05L460.9,48.92L465.46,59.3L466.99,177.11L468.51,197.19L470.03,200.84L471.55,202.01L473.07,210.88L474.59,216.47L476.11,217.12L477.63,218.7L479.15,218.93L483.72,220.92L485.24,224.21L486.76,288.28L488.28,289.07L489.8,292.7L491.32,292.72L492.85,295.9L494.37,295.95L497.41,296.62L498.93,296.62L500.45,296.66L501.97,299.14L512.62,299.19L514.14,300.26L515.66,300.28L517.18,301.48L521.75,301.61L523.27,303.47L530.87,303.68L532.39,303.68L540,304" style="fill: rgb(99, 110, 250); fill-opacity: 0.5; stroke-width: 0;"/></g></g><g class="errorbars"/><g class="lines"><path class="js-line" d="M0,77.8L16.73,77.12L18.25,77.09L63.89,76.85L65.41,76.61L77.58,76.69L79.1,77.92L80.62,70.19L82.14,67.96L83.66,57.9L85.18,40.98L88.23,54.25L89.75,56.58L91.27,58.84L92.79,52.42L94.31,53.87L95.83,53.57L97.35,52.53L98.87,52.67L100.39,46.26L101.92,45.79L104.96,46.64L106.48,47.46L108,45.72L109.52,45.79L111.04,77.16L112.56,91.26L115.61,102.09L117.13,101.34L121.69,103.68L123.21,107.19L126.25,107.12L127.77,98.89L129.3,96.17L130.82,95.19L132.34,96.68L133.86,94.04L135.38,81.8L136.9,84.33L138.42,79.6L139.94,81.29L141.46,82.63L142.99,82.5L146.03,87.79L147.55,81.91L149.07,59.47L150.59,57.29L153.63,56.76L155.15,59.12L158.2,50.55L159.72,53.7L161.24,53.61L162.76,55.41L164.28,56.09L165.8,67.14L167.32,71.52L168.85,71.55L170.37,71.76L171.89,69.27L173.41,71.55L174.93,71.64L176.45,73.84L177.97,72.08L182.54,68.75L184.06,68.8L185.58,67.88L187.1,60.41L191.66,62.27L193.18,61.14L196.23,66.49L197.75,66.78L200.79,68.87L202.31,68.02L203.83,58.01L205.35,57.75L206.87,53.5L208.39,58.33L209.92,58.43L211.44,71.62L216,75.53L217.52,75.78L219.04,75.41L220.56,71.06L222.08,69.17L223.61,69.81L225.13,68.36L226.65,68.39L228.17,85.39L229.69,82.71L231.21,77.49L232.73,89.8L234.25,89.87L235.77,86.48L237.3,86.7L238.82,82.62L240.34,80.56L241.86,83.28L243.38,81.66L244.9,85.89L246.42,88.23L247.94,88.42L249.46,87.89L250.99,86.3L252.51,86.38L254.03,89.76L255.55,93.41L257.07,102.61L261.63,103.68L263.15,117.5L266.2,85.4L267.72,84.91L269.24,84.69L270.76,82.64L272.28,81.42L273.8,64.48L275.32,24.34L276.85,16L278.37,17.79L279.89,17.78L282.93,18.88L284.45,25.74L285.97,25.64L287.49,44.5L289.01,46.92L290.54,44.65L292.06,46.3L293.58,40.27L295.1,38.73L296.62,46.76L299.66,137.83L301.18,137.51L302.7,133.74L304.23,124.87L305.75,125.2L307.27,95.5L308.79,94.47L310.31,95.47L311.83,97.61L313.35,96.41L314.87,98.01L316.39,96.42L317.92,86.93L319.44,109.87L324,120.73L325.52,121.98L327.04,122.79L328.56,133.32L330.08,133.67L331.61,128.27L333.13,127.68L334.65,127.9L336.17,99.65L337.69,99.6L339.21,103.21L340.73,94.43L345.3,91.42L346.82,91.58L348.34,91.09L349.86,89.5L351.38,86.92L352.9,82.61L354.42,80.51L355.94,71.89L357.46,67.92L358.99,78.55L360.51,77.06L362.03,44.4L365.07,46.62L366.59,46.76L368.11,46.72L369.63,49.38L371.15,49.42L372.68,42.66L374.2,42.18L375.72,44.76L377.24,44.37L378.76,46.45L380.28,49.1L381.8,55.29L383.32,52.45L384.85,52.6L386.37,59.63L387.89,59.81L389.41,63.31L390.93,64.7L392.45,68.07L393.97,69.35L398.54,69.56L400.06,70.38L401.58,65.27L403.1,56.94L406.14,55.76L407.66,57.31L409.18,54.13L410.7,57.97L412.23,60.81L413.75,61.06L415.27,59.86L416.79,60.24L421.35,59.8L422.87,61.05L424.39,63.64L425.92,64.51L427.44,62.66L428.96,63.19L432,64.6L433.52,64.1L436.56,61.18L438.08,64.44L439.61,62.85L441.13,62.6L442.65,62.2L444.17,63.04L445.69,64.94L447.21,65.22L450.25,64.84L451.77,64.92L453.3,63.82L454.82,65.03L456.34,43.59L457.86,44.53L459.38,44.05L460.9,48.92L465.46,59.3L466.99,177.11L468.51,197.19L470.03,200.84L471.55,202.01L473.07,210.88L474.59,216.47L476.11,217.12L477.63,218.7L479.15,218.93L483.72,220.92L485.24,224.21L486.76,288.28L488.28,289.07L489.8,292.7L491.32,292.72L492.85,295.9L494.37,295.95L497.41,296.62L498.93,296.62L500.45,296.66L501.97,299.14L512.62,299.19L514.14,300.26L515.66,300.28L517.18,301.48L521.75,301.61L523.27,303.47L530.87,303.68L532.39,303.68L540,304" style="vector-effect: none; fill: none; stroke: rgb(99, 110, 250); stroke-opacity: 1; stroke-width: 2px; opacity: 1;"/></g><g class="points"/><g class="text"/></g></g></g><g class="overplot"/><path class="xlines-above crisp" d="M0,0" style="fill: none;"/><path class="ylines-above crisp" d="M0,0" style="fill: none;"/><g class="overlines-above"/><g class="xaxislayer-above"><g class="xtick"><text text-anchor="middle" x="0" y="433" transform="translate(89.13,0)" style="font-family: 'Open Sans', verdana, arial, sans-serif; font-size: 12px; fill: rgb(42, 63, 95); fill-opacity: 1; white-space: pre; opacity: 1;">Sep 2022</text></g><g class="xtick"><text text-anchor="middle" x="0" y="433" style="font-family: 'Open Sans', verdana, arial, sans-serif; font-size: 12px; fill: rgb(42, 63, 95); fill-opacity: 1; white-space: pre; opacity: 1;" transform="translate(181.92000000000002,0)">Nov 2022</text></g><g class="xtick"><text text-anchor="middle" x="0" y="433" style="font-family: 'Open Sans', verdana, arial, sans-serif; font-size: 12px; fill: rgb(42, 63, 95); fill-opacity: 1; white-space: pre; opacity: 1;" transform="translate(274.7,0)">Jan 2023</text></g><g class="xtick"><text text-anchor="middle" x="0" y="433" style="font-family: 'Open Sans', verdana, arial, sans-serif; font-size: 12px; fill: rgb(42, 63, 95); fill-opacity: 1; white-space: pre; opacity: 1;" transform="translate(364.45,0)">Mar 2023</text></g><g class="xtick"><text text-anchor="middle" x="0" y="433" style="font-family: 'Open Sans', verdana, arial, sans-serif; font-size: 12px; fill: rgb(42, 63, 95); fill-opacity: 1; white-space: pre; opacity: 1;" transform="translate(457.24,0)">May 2023</text></g><g class="xtick"><text text-anchor="middle" x="0" y="433" style="font-family: 'Open Sans', verdana, arial, sans-serif; font-size: 12px; fill: rgb(42, 63, 95); fill-opacity: 1; white-space: pre; opacity: 1;" transform="translate(550.03,0)">Jul 2023</text></g></g><g class="yaxislayer-above"><g class="ytick"><text text-anchor="end" x="79" y="4.199999999999999" transform="translate(0,413.35)" style="font-family: 'Open Sans', verdana, arial, sans-serif; font-size: 12px; fill: rgb(42, 63, 95); fill-opacity: 1; white-space: pre; opacity: 1;">$−8M</text></g><g class="ytick"><text text-anchor="end" x="79" y="4.199999999999999" style="font-family: 'Open Sans', verdana, arial, sans-serif; font-size: 12px; fill: rgb(42, 63, 95); fill-opacity: 1; white-space: pre; opacity: 1;" transform="translate(0,354.40999999999997)">$−6M</text></g><g class="ytick"><text text-anchor="end" x="79" y="4.199999999999999" style="font-family: 'Open Sans', verdana, arial, sans-serif; font-size: 12px; fill: rgb(42, 63, 95); fill-opacity: 1; white-space: pre; opacity: 1;" transform="translate(0,295.46000000000004)">$−4M</text></g><g class="ytick"><text text-anchor="end" x="79" y="4.199999999999999" style="font-family: 'Open Sans', verdana, arial, sans-serif; font-size: 12px; fill: rgb(42, 63, 95); fill-opacity: 1; white-space: pre; opacity: 1;" transform="translate(0,236.51)">$−2M</text></g><g class="ytick"><text text-anchor="end" x="79" y="4.199999999999999" style="font-family: 'Open Sans', verdana, arial, sans-serif; font-size: 12px; fill: rgb(42, 63, 95); fill-opacity: 1; white-space: pre; opacity: 1;" transform="translate(0,177.57)">$0</text></g><g class="ytick"><text text-anchor="end" x="79" y="4.199999999999999" style="font-family: 'Open Sans', verdana, arial, sans-serif; font-size: 12px; fill: rgb(42, 63, 95); fill-opacity: 1; white-space: pre; opacity: 1;" transform="translate(0,118.62)">$2M</text></g></g><g class="overaxes-above"/></g></g><g class="polarlayer"/><g class="smithlayer"/><g class="ternarylayer"/><g class="geolayer"/><g class="funnelarealayer"/><g class="pielayer"/><g class="iciclelayer"/><g class="treemaplayer"/><g class="sunburstlayer"/><g class="glimages"/><defs id="topdefs-35d00c"><g class="clips"/></defs><g class="layer-above"><g class="imagelayer"/><g class="shapelayer"/></g><g class="infolayer"><g class="g-gtitle"><text class="gtitle" x="35" y="50" text-anchor="start" dy="0em" style="font-family: 'Open Sans', verdana, arial, sans-serif; font-size: 17px; fill: rgb(42, 63, 95); opacity: 1; font-weight: normal; white-space: pre;"><tspan class="line" dy="0em" x="35" y="50">Qidao - sUSDC/MAI: Velodrome</tspan><tspan class="line" dy="1.3em" x="35" y="50">​<tspan style="font-size:70%" dy="-0.6em">Cumulative Net Flows since Program Announcement, Until Program End + 30 Days</tspan><tspan dy="0.42em">​</tspan></tspan></text></g><g class="g-xtitle"><text class="xtitle" x="350" y="460.3" text-anchor="middle" style="font-family: 'Open Sans', verdana, arial, sans-serif; font-size: 14px; fill: rgb(42, 63, 95); opacity: 1; font-weight: normal; white-space: pre;">Day</text></g><g class="g-ytitle"><text class="ytitle" transform="rotate(-90,24.340625000000003,260)" x="24.340625000000003" y="260" text-anchor="middle" style="font-family: 'Open Sans', verdana, arial, sans-serif; font-size: 14px; fill: rgb(42, 63, 95); opacity: 1; font-weight: normal; white-space: pre;">Cumulative Net Flows (USD)</text></g></g></svg>