<svg class="main-svg" xmlns="http://www.w3.org/2000/svg" xmlns:xlink="http://www.w3.org/1999/xlink" width="700" height="500" style="" viewBox="0 0 700 500"><rect x="0" y="0" width="700" height="500" style="fill: rgb(255, 255, 255); fill-opacity: 1;"/><defs id="defs-3a02de"><g class="clips"><clipPath id="clip3a02dexyplot" class="plotclip"><rect width="540" height="320"/></clipPath><clipPath class="axesclip" id="clip3a02dex"><rect x="80" y="0" width="540" height="500"/></clipPath><clipPath class="axesclip" id="clip3a02dey"><rect x="0" y="100" width="700" height="320"/></clipPath><clipPath class="axesclip" id="clip3a02dexy"><rect x="80" y="100" width="540" height="320"/></clipPath></g><g class="gradients"/><g class="patterns"/></defs><g class="bglayer"><rect class="bg" x="80" y="100" width="540" height="320" style="fill: rgb(229, 236, 246); fill-opacity: 1; stroke-width: 0;"/></g><g class="layer-below"><g class="imagelayer"/><g class="shapelayer"/></g><g class="cartesianlayer"><g class="subplot xy"><g class="layer-subplot"><g class="shapelayer"/><g class="imagelayer"/></g><g class="minor-gridlayer"><g class="x"/><g class="y"/></g><g class="gridlayer"><g class="x"><path class="xgrid crisp" transform="translate(106.56,0)" d="M0,100v320" style="stroke: rgb(255, 255, 255); stroke-opacity: 1; stroke-width: 1px;"/><path class="xgrid crisp" transform="translate(189.18,0)" d="M0,100v320" style="stroke: rgb(255, 255, 255); stroke-opacity: 1; stroke-width: 1px;"/><path class="xgrid crisp" transform="translate(280.65999999999997,0)" d="M0,100v320" style="stroke: rgb(255, 255, 255); stroke-opacity: 1; stroke-width: 1px;"/><path class="xgrid crisp" transform="translate(369.18,0)" d="M0,100v320" style="stroke: rgb(255, 255, 255); stroke-opacity: 1; stroke-width: 1px;"/><path class="xgrid crisp" transform="translate(460.66,0)" d="M0,100v320" style="stroke: rgb(255, 255, 255); stroke-opacity: 1; stroke-width: 1px;"/><path class="xgrid crisp" transform="translate(549.1800000000001,0)" d="M0,100v320" style="stroke: rgb(255, 255, 255); stroke-opacity: 1; stroke-width: 1px;"/></g><g class="y"><path class="ygrid crisp" transform="translate(0,404.64)" d="M80,0h540" style="stroke: rgb(255, 255, 255); stroke-opacity: 1; stroke-width: 1px;"/><path class="ygrid crisp" transform="translate(0,353.86)" d="M80,0h540" style="stroke: rgb(255, 255, 255); stroke-opacity: 1; stroke-width: 1px;"/><path class="ygrid crisp" transform="translate(0,303.09000000000003)" d="M80,0h540" style="stroke: rgb(255, 255, 255); stroke-opacity: 1; stroke-width: 1px;"/><path class="ygrid crisp" transform="translate(0,252.32)" d="M80,0h540" style="stroke: rgb(255, 255, 255); stroke-opacity: 1; stroke-width: 1px;"/><path class="ygrid crisp" transform="translate(0,201.55)" d="M80,0h540" style="stroke: rgb(255, 255, 255); stroke-opacity: 1; stroke-width: 1px;"/><path class="ygrid crisp" transform="translate(0,150.77)" d="M80,0h540" style="stroke: rgb(255, 255, 255); stroke-opacity: 1; stroke-width: 1px;"/></g></g><g class="zerolinelayer"><path class="yzl zl crisp" transform="translate(0,100)" d="M80,0h540" style="stroke: rgb(255, 255, 255); stroke-opacity: 1; stroke-width: 2px;"/></g><path class="xlines-below"/><path class="ylines-below"/><g class="overlines-below"/><g class="xaxislayer-below"/><g class="yaxislayer-below"/><g class="overaxes-below"/><g class="plot" transform="translate(80,100)" clip-path="url(#clip3a02dexyplot)"><g class="scatterlayer mlayer"><g class="trace scatter trace6eaa15" style="stroke-miterlimit: 2;"><g class="fills"><g><path class="js-fill" d="M540,0L0,0L0,5.13L2.95,5.8L5.9,64.36L8.85,66.25L11.8,74.26L14.75,78.52L17.7,84.16L20.66,89.91L23.61,91.82L26.56,93.84L29.51,97.39L32.46,96.69L35.41,98.94L38.36,101.47L41.31,105.29L44.26,108.05L47.21,108.03L50.16,112.3L53.11,124.5L56.07,127.77L59.02,133.79L61.97,139.22L64.92,139.91L67.87,144.2L70.82,131.34L73.77,133.74L76.72,141.1L79.67,174.88L82.62,175.41L85.57,175.41L88.52,174.6L91.48,179.72L94.43,183.31L97.38,179.93L100.33,181.29L103.28,179.71L106.23,166.29L109.18,167.13L112.13,171.04L115.08,180.58L118.03,184.59L120.98,188.22L123.93,188.82L132.79,189.53L135.74,183.87L138.69,191.23L141.64,211.27L144.59,212.94L147.54,207.23L150.49,207.51L153.44,192.75L156.39,186.32L159.34,188.54L162.3,189.68L165.25,201.7L168.2,202.14L171.15,212.84L174.1,214.41L177.05,213.11L180,213.24L182.95,220.98L185.9,223.61L188.85,223.97L191.8,215.72L194.75,211.29L197.7,214.8L200.66,214.79L203.61,208.64L206.56,213.98L209.51,215.87L212.46,198.18L215.41,197.07L218.36,199.09L221.31,196.2L224.26,196.46L227.21,197.49L230.16,208.16L233.11,203.5L236.07,200.42L239.02,205.3L241.97,207.41L244.92,209.18L247.87,205.96L250.82,204.83L253.77,206.26L256.72,203.95L259.67,204.86L262.62,204.88L265.57,206.58L268.52,206.97L271.48,210.62L274.43,211.58L277.38,210.63L280.33,211.14L283.28,216.5L286.23,216.2L289.18,209.56L300.98,209.8L303.93,212.05L306.89,211.96L309.84,213.01L312.79,213.52L315.74,213.08L318.69,212.05L321.64,216.98L324.59,214.66L327.54,214.37L330.49,211.99L333.44,212.17L336.39,215.43L339.34,215.63L345.25,221.25L348.2,229.93L351.15,230.4L354.1,235.12L360,247.65L362.95,246.94L368.85,144.04L371.8,117.27L377.7,100.07L380.66,119.82L383.61,117.83L386.56,148.92L389.51,134.43L392.46,150.49L398.36,172.86L401.31,180.14L404.26,186.48L407.21,188.61L413.11,192L416.07,205.07L419.02,210.14L421.97,211.53L427.87,215.7L430.82,217.57L433.77,220.13L436.72,218.71L442.62,223.5L445.57,224.38L451.48,226.53L454.43,225.16L460.33,226.78L463.28,229.45L466.23,234.41L469.18,264.78L472.13,266.08L475.08,271.56L478.03,287.96L480.98,289.13L486.89,289.94L489.84,290.61L492.79,296.41L495.74,296.91L501.64,297.94L504.59,297.24L510.49,297.67L513.44,297.95L516.39,298.93L519.34,304L522.3,300.58L525.25,295.54L531.15,289.33L534.1,295.84L537.05,293.77L540,295.27" style="fill: rgb(99, 110, 250); fill-opacity: 0.5; stroke-width: 0;"/></g></g><g class="errorbars"/><g class="lines"><path class="js-line" d="M0,5.13L2.95,5.8L5.9,64.36L8.85,66.25L11.8,74.26L14.75,78.52L17.7,84.16L20.66,89.91L23.61,91.82L26.56,93.84L29.51,97.39L32.46,96.69L35.41,98.94L38.36,101.47L41.31,105.29L44.26,108.05L47.21,108.03L50.16,112.3L53.11,124.5L56.07,127.77L59.02,133.79L61.97,139.22L64.92,139.91L67.87,144.2L70.82,131.34L73.77,133.74L76.72,141.1L79.67,174.88L82.62,175.41L85.57,175.41L88.52,174.6L91.48,179.72L94.43,183.31L97.38,179.93L100.33,181.29L103.28,179.71L106.23,166.29L109.18,167.13L112.13,171.04L115.08,180.58L118.03,184.59L120.98,188.22L123.93,188.82L132.79,189.53L135.74,183.87L138.69,191.23L141.64,211.27L144.59,212.94L147.54,207.23L150.49,207.51L153.44,192.75L156.39,186.32L159.34,188.54L162.3,189.68L165.25,201.7L168.2,202.14L171.15,212.84L174.1,214.41L177.05,213.11L180,213.24L182.95,220.98L185.9,223.61L188.85,223.97L191.8,215.72L194.75,211.29L197.7,214.8L200.66,214.79L203.61,208.64L206.56,213.98L209.51,215.87L212.46,198.18L215.41,197.07L218.36,199.09L221.31,196.2L224.26,196.46L227.21,197.49L230.16,208.16L233.11,203.5L236.07,200.42L239.02,205.3L241.97,207.41L244.92,209.18L247.87,205.96L250.82,204.83L253.77,206.26L256.72,203.95L259.67,204.86L262.62,204.88L265.57,206.58L268.52,206.97L271.48,210.62L274.43,211.58L277.38,210.63L280.33,211.14L283.28,216.5L286.23,216.2L289.18,209.56L300.98,209.8L303.93,212.05L306.89,211.96L309.84,213.01L312.79,213.52L315.74,213.08L318.69,212.05L321.64,216.98L324.59,214.66L327.54,214.37L330.49,211.99L333.44,212.17L336.39,215.43L339.34,215.63L345.25,221.25L348.2,229.93L351.15,230.4L354.1,235.12L360,247.65L362.95,246.94L368.85,144.04L371.8,117.27L377.7,100.07L380.66,119.82L383.61,117.83L386.56,148.92L389.51,134.43L392.46,150.49L398.36,172.86L401.31,180.14L404.26,186.48L407.21,188.61L413.11,192L416.07,205.07L419.02,210.14L421.97,211.53L427.87,215.7L430.82,217.57L433.77,220.13L436.72,218.71L442.62,223.5L445.57,224.38L451.48,226.53L454.43,225.16L460.33,226.78L463.28,229.45L466.23,234.41L469.18,264.78L472.13,266.08L475.08,271.56L478.03,287.96L480.98,289.13L486.89,289.94L489.84,290.61L492.79,296.41L495.74,296.91L501.64,297.94L504.59,297.24L510.49,297.67L513.44,297.95L516.39,298.93L519.34,304L522.3,300.58L525.25,295.54L531.15,289.33L534.1,295.84L537.05,293.77L540,295.27" style="vector-effect: none; fill: none; stroke: rgb(99, 110, 250); stroke-opacity: 1; stroke-width: 2px; opacity: 1;"/></g><g class="points"/><g class="text"/></g></g></g><g class="overplot"/><path class="xlines-above crisp" d="M0,0" style="fill: none;"/><path class="ylines-above crisp" d="M0,0" style="fill: none;"/><g class="overlines-above"/><g class="xaxislayer-above"><g class="xtick"><text text-anchor="middle" x="0" y="433" transform="translate(106.56,0)" style="font-family: 'Open Sans', verdana, arial, sans-serif; font-size: 12px; fill: rgb(42, 63, 95); fill-opacity: 1; white-space: pre; opacity: 1;">Feb 2023</text></g><g class="xtick"><text text-anchor="middle" x="0" y="433" style="font-family: 'Open Sans', verdana, arial, sans-serif; font-size: 12px; fill: rgb(42, 63, 95); fill-opacity: 1; white-space: pre; opacity: 1;" transform="translate(189.18,0)">Mar 2023</text></g><g class="xtick"><text text-anchor="middle" x="0" y="433" style="font-family: 'Open Sans', verdana, arial, sans-serif; font-size: 12px; fill: rgb(42, 63, 95); fill-opacity: 1; white-space: pre; opacity: 1;" transform="translate(280.65999999999997,0)">Apr 2023</text></g><g class="xtick"><text text-anchor="middle" x="0" y="433" style="font-family: 'Open Sans', verdana, arial, sans-serif; font-size: 12px; fill: rgb(42, 63, 95); fill-opacity: 1; white-space: pre; opacity: 1;" transform="translate(369.18,0)">May 2023</text></g><g class="xtick"><text text-anchor="middle" x="0" y="433" style="font-family: 'Open Sans', verdana, arial, sans-serif; font-size: 12px; fill: rgb(42, 63, 95); fill-opacity: 1; white-space: pre; opacity: 1;" transform="translate(460.66,0)">Jun 2023</text></g><g class="xtick"><text text-anchor="middle" x="0" y="433" style="font-family: 'Open Sans', verdana, arial, sans-serif; font-size: 12px; fill: rgb(42, 63, 95); fill-opacity: 1; white-space: pre; opacity: 1;" transform="translate(549.1800000000001,0)">Jul 2023</text></g></g><g class="yaxislayer-above"><g class="ytick"><text text-anchor="end" x="79" y="4.199999999999999" transform="translate(0,404.64)" style="font-family: 'Open Sans', verdana, arial, sans-serif; font-size: 12px; fill: rgb(42, 63, 95); fill-opacity: 1; white-space: pre; opacity: 1;">$−300k</text></g><g class="ytick"><text text-anchor="end" x="79" y="4.199999999999999" style="font-family: 'Open Sans', verdana, arial, sans-serif; font-size: 12px; fill: rgb(42, 63, 95); fill-opacity: 1; white-space: pre; opacity: 1;" transform="translate(0,353.86)">$−250k</text></g><g class="ytick"><text text-anchor="end" x="79" y="4.199999999999999" style="font-family: 'Open Sans', verdana, arial, sans-serif; font-size: 12px; fill: rgb(42, 63, 95); fill-opacity: 1; white-space: pre; opacity: 1;" transform="translate(0,303.09000000000003)">$−200k</text></g><g class="ytick"><text text-anchor="end" x="79" y="4.199999999999999" style="font-family: 'Open Sans', verdana, arial, sans-serif; font-size: 12px; fill: rgb(42, 63, 95); fill-opacity: 1; white-space: pre; opacity: 1;" transform="translate(0,252.32)">$−150k</text></g><g class="ytick"><text text-anchor="end" x="79" y="4.199999999999999" style="font-family: 'Open Sans', verdana, arial, sans-serif; font-size: 12px; fill: rgb(42, 63, 95); fill-opacity: 1; white-space: pre; opacity: 1;" transform="translate(0,201.55)">$−100k</text></g><g class="ytick"><text text-anchor="end" x="79" y="4.199999999999999" style="font-family: 'Open Sans', verdana, arial, sans-serif; font-size: 12px; fill: rgb(42, 63, 95); fill-opacity: 1; white-space: pre; opacity: 1;" transform="translate(0,150.77)">$−50k</text></g><g class="ytick"><text text-anchor="end" x="79" y="4.199999999999999" style="font-family: 'Open Sans', verdana, arial, sans-serif; font-size: 12px; fill: rgb(42, 63, 95); fill-opacity: 1; white-space: pre; opacity: 1;" transform="translate(0,100)">$0</text></g></g><g class="overaxes-above"/></g></g><g class="polarlayer"/><g class="smithlayer"/><g class="ternarylayer"/><g class="geolayer"/><g class="funnelarealayer"/><g class="pielayer"/><g class="iciclelayer"/><g class="treemaplayer"/><g class="sunburstlayer"/><g class="glimages"/><defs id="topdefs-3a02de"><g class="clips"/></defs><g class="layer-above"><g class="imagelayer"/><g class="shapelayer"/></g><g class="infolayer"><g class="g-gtitle"><text class="gtitle" x="35" y="50" text-anchor="start" dy="0em" style="font-family: 'Open Sans', verdana, arial, sans-serif; font-size: 17px; fill: rgb(42, 63, 95); opacity: 1; font-weight: normal; white-space: pre;"><tspan class="line" dy="0em" x="35" y="50">Clipper</tspan><tspan class="line" dy="1.3em" x="35" y="50">​<tspan style="font-size:70%" dy="-0.6em">Cumulative Net Flows since Program Announcement, Until Program End + 30 Days</tspan><tspan dy="0.42em">​</tspan></tspan></text></g><g class="g-xtitle"><text class="xtitle" x="350" y="460.3" text-anchor="middle" style="font-family: 'Open Sans', verdana, arial, sans-serif; font-size: 14px; fill: rgb(42, 63, 95); opacity: 1; font-weight: normal; white-space: pre;">Day</text></g><g class="g-ytitle"><text class="ytitle" transform="rotate(-90,14.996875000000003,260)" x="14.996875000000003" y="260" text-anchor="middle" style="font-family: 'Open Sans', verdana, arial, sans-serif; font-size: 14px; fill: rgb(42, 63, 95); opacity: 1; font-weight: normal; white-space: pre;">Cumulative Net Flows (USD)</text></g></g></svg>