<svg class="main-svg" xmlns="http://www.w3.org/2000/svg" xmlns:xlink="http://www.w3.org/1999/xlink" width="700" height="500" style="" viewBox="0 0 700 500"><rect x="0" y="0" width="700" height="500" style="fill: rgb(255, 255, 255); fill-opacity: 1;"/><defs id="defs-287e30"><g class="clips"><clipPath id="clip287e30xyplot" class="plotclip"><rect width="540" height="320"/></clipPath><clipPath class="axesclip" id="clip287e30x"><rect x="80" y="0" width="540" height="500"/></clipPath><clipPath class="axesclip" id="clip287e30y"><rect x="0" y="100" width="700" height="320"/></clipPath><clipPath class="axesclip" id="clip287e30xy"><rect x="80" y="100" width="540" height="320"/></clipPath></g><g class="gradients"/><g class="patterns"/></defs><g class="bglayer"><rect class="bg" x="80" y="100" width="540" height="320" style="fill: rgb(229, 236, 246); fill-opacity: 1; stroke-width: 0;"/></g><g class="layer-below"><g class="imagelayer"/><g class="shapelayer"/></g><g class="cartesianlayer"><g class="subplot xy"><g class="layer-subplot"><g class="shapelayer"/><g class="imagelayer"/></g><g class="minor-gridlayer"><g class="x"/><g class="y"/></g><g class="gridlayer"><g class="x"><path class="xgrid crisp" transform="translate(192.32,0)" d="M0,100v320" style="stroke: rgb(255, 255, 255); stroke-opacity: 1; stroke-width: 1px;"/><path class="xgrid crisp" transform="translate(324.08000000000004,0)" d="M0,100v320" style="stroke: rgb(255, 255, 255); stroke-opacity: 1; stroke-width: 1px;"/><path class="xgrid crisp" transform="translate(455.84,0)" d="M0,100v320" style="stroke: rgb(255, 255, 255); stroke-opacity: 1; stroke-width: 1px;"/><path class="xgrid crisp" transform="translate(589.76,0)" d="M0,100v320" style="stroke: rgb(255, 255, 255); stroke-opacity: 1; stroke-width: 1px;"/></g><g class="y"><path class="ygrid crisp" transform="translate(0,405.97)" d="M80,0h540" style="stroke: rgb(255, 255, 255); stroke-opacity: 1; stroke-width: 1px;"/><path class="ygrid crisp" transform="translate(0,301.53)" d="M80,0h540" style="stroke: rgb(255, 255, 255); stroke-opacity: 1; stroke-width: 1px;"/><path class="ygrid crisp" transform="translate(0,249.3)" d="M80,0h540" style="stroke: rgb(255, 255, 255); stroke-opacity: 1; stroke-width: 1px;"/><path class="ygrid crisp" transform="translate(0,197.07999999999998)" d="M80,0h540" style="stroke: rgb(255, 255, 255); stroke-opacity: 1; stroke-width: 1px;"/><path class="ygrid crisp" transform="translate(0,144.85)" d="M80,0h540" style="stroke: rgb(255, 255, 255); stroke-opacity: 1; stroke-width: 1px;"/></g></g><g class="zerolinelayer"><path class="yzl zl crisp" transform="translate(0,353.75)" d="M80,0h540" style="stroke: rgb(255, 255, 255); stroke-opacity: 1; stroke-width: 2px;"/></g><path class="xlines-below"/><path class="ylines-below"/><g class="overlines-below"/><g class="xaxislayer-below"/><g class="yaxislayer-below"/><g class="overaxes-below"/><g class="plot" transform="translate(80,100)" clip-path="url(#clip287e30xyplot)"><g class="scatterlayer mlayer"><g class="trace scatter tracec42d54" style="stroke-miterlimit: 2;"><g class="fills"><g><path class="js-fill" d="M540,253.75L0,253.75L0,188.7L2.16,191.47L4.32,191.47L8.64,191.61L10.8,191.68L15.12,191.73L17.28,191.01L38.88,191.15L41.04,188.99L43.2,180.34L45.36,180.45L47.52,180.38L49.68,177.89L51.84,175.85L54,175.56L62.64,175.19L64.8,173.91L69.12,173.59L71.28,172.51L73.44,170.36L75.6,164.7L77.76,172.43L79.92,170.83L82.08,170.27L84.24,153.31L86.4,153.04L88.56,153.94L90.72,153.87L92.88,84.63L95.04,84.68L97.2,83.6L99.36,77.08L101.52,76.86L103.68,72.64L105.84,72.11L108,71.76L110.16,67.86L112.32,67.74L114.48,61.08L116.64,58.45L118.8,57.35L120.96,61.87L123.12,61.52L129.6,61.12L131.76,69.16L133.92,77.89L136.08,69.82L138.24,40.69L140.4,32.76L142.56,32.8L144.72,31.11L146.88,30.79L149.04,39.14L151.2,41.7L153.36,41.38L155.52,41.41L157.68,42.74L159.84,49.01L162,49.28L170.64,49.5L172.8,40.06L174.96,40.4L177.12,31.09L181.44,31.5L183.6,30.93L185.76,30.93L187.92,28.9L190.08,29.12L192.24,28.43L194.4,28.41L196.56,26.26L200.88,29.24L203.04,16L205.2,16.01L207.36,18.52L209.52,61.15L211.68,60.46L213.84,60.85L216,60.25L220.32,54.56L222.48,54.07L226.8,54.23L228.96,54.35L231.12,49.86L233.28,50.24L237.6,50.11L239.76,50.11L244.08,48.12L246.24,45.15L248.4,45.98L250.56,45.97L257.04,45.73L259.2,48.1L263.52,46.1L265.68,46.1L267.84,54.65L270,54L272.16,53.99L274.32,52.95L276.48,51.86L278.64,51.85L282.96,51.85L285.12,54.58L287.28,54.58L289.44,58.62L291.6,58.61L293.76,174.16L295.92,169.36L298.08,169.34L313.2,167.42L315.36,167.58L317.52,167.2L319.68,163.03L321.84,162.99L324,160.6L326.16,161.5L328.32,157.95L330.48,153.64L332.64,153.55L334.8,153.26L336.96,133.31L339.12,129.77L341.28,134.11L343.44,136.66L345.6,135.52L347.76,126.33L349.92,122.9L352.08,119.38L354.24,120.13L356.4,111.86L358.56,136.45L360.72,133.95L362.88,144.76L365.04,144.21L367.2,144.95L369.36,145.86L371.52,199.98L373.68,216.26L375.84,220.21L378,220.88L380.16,225.35L382.32,226.66L384.48,241.19L386.64,237.4L388.8,237.51L390.96,237.55L393.12,239.36L395.28,250.76L397.44,256.21L399.6,300.81L401.76,300.99L403.92,302.11L406.08,302.11L423.36,302.5L425.52,302.98L481.68,303.52L483.84,303.87L540,304" style="fill: rgb(99, 110, 250); fill-opacity: 0.5; stroke-width: 0;"/></g></g><g class="errorbars"/><g class="lines"><path class="js-line" d="M0,188.7L2.16,191.47L4.32,191.47L8.64,191.61L10.8,191.68L15.12,191.73L17.28,191.01L38.88,191.15L41.04,188.99L43.2,180.34L45.36,180.45L47.52,180.38L49.68,177.89L51.84,175.85L54,175.56L62.64,175.19L64.8,173.91L69.12,173.59L71.28,172.51L73.44,170.36L75.6,164.7L77.76,172.43L79.92,170.83L82.08,170.27L84.24,153.31L86.4,153.04L88.56,153.94L90.72,153.87L92.88,84.63L95.04,84.68L97.2,83.6L99.36,77.08L101.52,76.86L103.68,72.64L105.84,72.11L108,71.76L110.16,67.86L112.32,67.74L114.48,61.08L116.64,58.45L118.8,57.35L120.96,61.87L123.12,61.52L129.6,61.12L131.76,69.16L133.92,77.89L136.08,69.82L138.24,40.69L140.4,32.76L142.56,32.8L144.72,31.11L146.88,30.79L149.04,39.14L151.2,41.7L153.36,41.38L155.52,41.41L157.68,42.74L159.84,49.01L162,49.28L170.64,49.5L172.8,40.06L174.96,40.4L177.12,31.09L181.44,31.5L183.6,30.93L185.76,30.93L187.92,28.9L190.08,29.12L192.24,28.43L194.4,28.41L196.56,26.26L200.88,29.24L203.04,16L205.2,16.01L207.36,18.52L209.52,61.15L211.68,60.46L213.84,60.85L216,60.25L220.32,54.56L222.48,54.07L226.8,54.23L228.96,54.35L231.12,49.86L233.28,50.24L237.6,50.11L239.76,50.11L244.08,48.12L246.24,45.15L248.4,45.98L250.56,45.97L257.04,45.73L259.2,48.1L263.52,46.1L265.68,46.1L267.84,54.65L270,54L272.16,53.99L274.32,52.95L276.48,51.86L278.64,51.85L282.96,51.85L285.12,54.58L287.28,54.58L289.44,58.62L291.6,58.61L293.76,174.16L295.92,169.36L298.08,169.34L313.2,167.42L315.36,167.58L317.52,167.2L319.68,163.03L321.84,162.99L324,160.6L326.16,161.5L328.32,157.95L330.48,153.64L332.64,153.55L334.8,153.26L336.96,133.31L339.12,129.77L341.28,134.11L343.44,136.66L345.6,135.52L347.76,126.33L349.92,122.9L352.08,119.38L354.24,120.13L356.4,111.86L358.56,136.45L360.72,133.95L362.88,144.76L365.04,144.21L367.2,144.95L369.36,145.86L371.52,199.98L373.68,216.26L375.84,220.21L378,220.88L380.16,225.35L382.32,226.66L384.48,241.19L386.64,237.4L388.8,237.51L390.96,237.55L393.12,239.36L395.28,250.76L397.44,256.21L399.6,300.81L401.76,300.99L403.92,302.11L406.08,302.11L423.36,302.5L425.52,302.98L481.68,303.52L483.84,303.87L540,304" style="vector-effect: none; fill: none; stroke: rgb(99, 110, 250); stroke-opacity: 1; stroke-width: 2px; opacity: 1;"/></g><g class="points"/><g class="text"/></g></g></g><g class="overplot"/><path class="xlines-above crisp" d="M0,0" style="fill: none;"/><path class="ylines-above crisp" d="M0,0" style="fill: none;"/><g class="overlines-above"/><g class="xaxislayer-above"><g class="xtick"><text text-anchor="middle" x="0" y="433" transform="translate(192.32,0)" style="font-family: 'Open Sans', verdana, arial, sans-serif; font-size: 12px; fill: rgb(42, 63, 95); fill-opacity: 1; white-space: pre; opacity: 1;">Mar 2023</text></g><g class="xtick"><text text-anchor="middle" x="0" y="433" style="font-family: 'Open Sans', verdana, arial, sans-serif; font-size: 12px; fill: rgb(42, 63, 95); fill-opacity: 1; white-space: pre; opacity: 1;" transform="translate(324.08000000000004,0)">May 2023</text></g><g class="xtick"><text text-anchor="middle" x="0" y="433" style="font-family: 'Open Sans', verdana, arial, sans-serif; font-size: 12px; fill: rgb(42, 63, 95); fill-opacity: 1; white-space: pre; opacity: 1;" transform="translate(455.84,0)">Jul 2023</text></g><g class="xtick"><text text-anchor="middle" x="0" y="433" style="font-family: 'Open Sans', verdana, arial, sans-serif; font-size: 12px; fill: rgb(42, 63, 95); fill-opacity: 1; white-space: pre; opacity: 1;" transform="translate(589.76,0)">Sep 2023</text></g></g><g class="yaxislayer-above"><g class="ytick"><text text-anchor="end" x="79" y="4.199999999999999" transform="translate(0,405.97)" style="font-family: 'Open Sans', verdana, arial, sans-serif; font-size: 12px; fill: rgb(42, 63, 95); fill-opacity: 1; white-space: pre; opacity: 1;">$−1M</text></g><g class="ytick"><text text-anchor="end" x="79" y="4.199999999999999" style="font-family: 'Open Sans', verdana, arial, sans-serif; font-size: 12px; fill: rgb(42, 63, 95); fill-opacity: 1; white-space: pre; opacity: 1;" transform="translate(0,353.75)">$0</text></g><g class="ytick"><text text-anchor="end" x="79" y="4.199999999999999" style="font-family: 'Open Sans', verdana, arial, sans-serif; font-size: 12px; fill: rgb(42, 63, 95); fill-opacity: 1; white-space: pre; opacity: 1;" transform="translate(0,301.53)">$1M</text></g><g class="ytick"><text text-anchor="end" x="79" y="4.199999999999999" style="font-family: 'Open Sans', verdana, arial, sans-serif; font-size: 12px; fill: rgb(42, 63, 95); fill-opacity: 1; white-space: pre; opacity: 1;" transform="translate(0,249.3)">$2M</text></g><g class="ytick"><text text-anchor="end" x="79" y="4.199999999999999" style="font-family: 'Open Sans', verdana, arial, sans-serif; font-size: 12px; fill: rgb(42, 63, 95); fill-opacity: 1; white-space: pre; opacity: 1;" transform="translate(0,197.07999999999998)">$3M</text></g><g class="ytick"><text text-anchor="end" x="79" y="4.199999999999999" style="font-family: 'Open Sans', verdana, arial, sans-serif; font-size: 12px; fill: rgb(42, 63, 95); fill-opacity: 1; white-space: pre; opacity: 1;" transform="translate(0,144.85)">$4M</text></g></g><g class="overaxes-above"/></g></g><g class="polarlayer"/><g class="smithlayer"/><g class="ternarylayer"/><g class="geolayer"/><g class="funnelarealayer"/><g class="pielayer"/><g class="iciclelayer"/><g class="treemaplayer"/><g class="sunburstlayer"/><g class="glimages"/><defs id="topdefs-287e30"><g class="clips"/></defs><g class="layer-above"><g class="imagelayer"/><g class="shapelayer"/></g><g class="infolayer"><g class="g-gtitle"><text class="gtitle" x="35" y="50" text-anchor="start" dy="0em" style="font-family: 'Open Sans', verdana, arial, sans-serif; font-size: 17px; fill: rgb(42, 63, 95); opacity: 1; font-weight: normal; white-space: pre;"><tspan class="line" dy="0em" x="35" y="50">Alchemix - alETH/WETH: Velodrome</tspan><tspan class="line" dy="1.3em" x="35" y="50">​<tspan style="font-size:70%" dy="-0.6em">Cumulative Net Flows since Program Announcement, Until Program End + 30 Days</tspan><tspan dy="0.42em">​</tspan></tspan></text></g><g class="g-xtitle"><text class="xtitle" x="350" y="460.3" text-anchor="middle" style="font-family: 'Open Sans', verdana, arial, sans-serif; font-size: 14px; fill: rgb(42, 63, 95); opacity: 1; font-weight: normal; white-space: pre;">Day</text></g><g class="g-ytitle"><text class="ytitle" transform="rotate(-90,24.340625000000003,260)" x="24.340625000000003" y="260" text-anchor="middle" style="font-family: 'Open Sans', verdana, arial, sans-serif; font-size: 14px; fill: rgb(42, 63, 95); opacity: 1; font-weight: normal; white-space: pre;">Cumulative Net Flows (USD)</text></g></g></svg>