<svg class="main-svg" xmlns="http://www.w3.org/2000/svg" xmlns:xlink="http://www.w3.org/1999/xlink" width="700" height="500" style="" viewBox="0 0 700 500"><rect x="0" y="0" width="700" height="500" style="fill: rgb(255, 255, 255); fill-opacity: 1;"/><defs id="defs-5bfddb"><g class="clips"><clipPath id="clip5bfddbxyplot" class="plotclip"><rect width="540" height="320"/></clipPath><clipPath class="axesclip" id="clip5bfddbx"><rect x="80" y="0" width="540" height="500"/></clipPath><clipPath class="axesclip" id="clip5bfddby"><rect x="0" y="100" width="700" height="320"/></clipPath><clipPath class="axesclip" id="clip5bfddbxy"><rect x="80" y="100" width="540" height="320"/></clipPath></g><g class="gradients"/><g class="patterns"/></defs><g class="bglayer"><rect class="bg" x="80" y="100" width="540" height="320" style="fill: rgb(229, 236, 246); fill-opacity: 1; stroke-width: 0;"/></g><g class="layer-below"><g class="imagelayer"/><g class="shapelayer"/></g><g class="cartesianlayer"><g class="subplot xy"><g class="layer-subplot"><g class="shapelayer"/><g class="imagelayer"/></g><g class="minor-gridlayer"><g class="x"/><g class="y"/></g><g class="gridlayer"><g class="x"><path class="xgrid crisp" transform="translate(198.88,0)" d="M0,100v320" style="stroke: rgb(255, 255, 255); stroke-opacity: 1; stroke-width: 1px;"/><path class="xgrid crisp" transform="translate(321.78999999999996,0)" d="M0,100v320" style="stroke: rgb(255, 255, 255); stroke-opacity: 1; stroke-width: 1px;"/><path class="xgrid crisp" transform="translate(446.72,0)" d="M0,100v320" style="stroke: rgb(255, 255, 255); stroke-opacity: 1; stroke-width: 1px;"/><path class="xgrid crisp" transform="translate(569.63,0)" d="M0,100v320" style="stroke: rgb(255, 255, 255); stroke-opacity: 1; stroke-width: 1px;"/></g><g class="y"><path class="ygrid crisp" transform="translate(0,407.63)" d="M80,0h540" style="stroke: rgb(255, 255, 255); stroke-opacity: 1; stroke-width: 1px;"/><path class="ygrid crisp" transform="translate(0,339.83000000000004)" d="M80,0h540" style="stroke: rgb(255, 255, 255); stroke-opacity: 1; stroke-width: 1px;"/><path class="ygrid crisp" transform="translate(0,204.24)" d="M80,0h540" style="stroke: rgb(255, 255, 255); stroke-opacity: 1; stroke-width: 1px;"/><path class="ygrid crisp" transform="translate(0,136.45)" d="M80,0h540" style="stroke: rgb(255, 255, 255); stroke-opacity: 1; stroke-width: 1px;"/></g></g><g class="zerolinelayer"><path class="yzl zl crisp" transform="translate(0,272.03999999999996)" d="M80,0h540" style="stroke: rgb(255, 255, 255); stroke-opacity: 1; stroke-width: 2px;"/></g><path class="xlines-below"/><path class="ylines-below"/><g class="overlines-below"/><g class="xaxislayer-below"/><g class="yaxislayer-below"/><g class="overaxes-below"/><g class="plot" transform="translate(80,100)" clip-path="url(#clip5bfddbxyplot)"><g class="scatterlayer mlayer"><g class="trace scatter trace4cb614" style="stroke-miterlimit: 2;"><g class="fills"><g><path class="js-fill" d="M540,172.04L0,172.04L0,152.91L2.01,94.47L4.03,110.31L6.04,112.04L8.06,52.95L10.07,50.19L12.09,103.16L14.1,105.77L16.12,139.37L18.13,242.31L20.15,231.45L22.16,166.16L24.18,151.2L26.19,147.06L28.21,146.67L30.22,144.29L32.24,139.7L34.25,126.19L36.27,122.12L38.28,122.14L40.3,88.11L42.31,88.6L44.33,96.76L46.34,130.48L48.36,113.29L50.37,117.75L52.39,113.31L54.4,113.53L56.42,131.09L58.43,84.74L60.45,84.92L62.46,80.91L64.48,79.84L66.49,64.67L68.51,81.64L70.52,78.2L72.54,76.48L74.55,16L76.57,54.24L78.58,33.44L80.6,68.85L82.61,67.61L84.63,77.51L86.64,74.46L88.66,69.89L92.69,51.78L94.7,36.1L96.72,43.89L98.73,47.84L100.75,27.54L102.76,39.37L104.78,28.82L106.79,34.22L108.81,304L151.12,85.51L153.13,85.51L155.15,90.45L157.16,91.57L159.18,95.74L165.22,94.44L167.24,99.34L169.25,92.26L171.27,82.28L173.28,82.18L175.3,120.06L177.31,125.43L179.33,126.35L181.34,135.56L183.36,151.31L185.37,152.19L187.39,171.33L189.4,175.4L191.42,175.96L193.43,179.39L195.45,173.46L197.46,179.93L199.48,180.18L203.51,179.95L205.52,180.48L209.55,182.82L211.57,216.62L213.58,218.34L215.6,232.04L217.61,233.48L219.63,237.87L223.66,236.58L225.67,237.18L227.69,235.11L229.7,234.38L231.72,233.71L233.73,234.86L235.75,234.85L237.76,246.91L245.82,247.55L247.84,247.53L249.85,248.38L251.87,248.36L253.88,250.74L255.9,271.17L257.91,266.66L259.93,268.11L261.94,269.26L263.96,269.29L265.97,270.61L267.99,273.49L270,275.7L272.01,275.84L274.03,278.28L276.04,278.27L282.09,278.27L284.1,282.27L308.28,281.97L310.3,281.84L314.33,281.31L316.34,281.31L318.36,281.33L320.37,282.83L324.4,282.78L326.42,286.11L328.43,301.46L332.46,286.31L336.49,286.3L338.51,289.39L340.52,289.66L342.54,292.27L354.63,292.94L356.64,293.03L370.75,293.14L372.76,279.56L388.88,279.66L390.9,293.7L409.03,293.84L411.04,293.89L433.21,294.45L435.22,293.6L477.54,293.88L479.55,294.83L501.72,295.41L503.73,296.08L507.76,296.64L509.78,296.64L525.9,296.87L527.91,301.37L529.93,296.85L531.94,296.86L540,296.86" style="fill: rgb(99, 110, 250); fill-opacity: 0.5; stroke-width: 0;"/></g></g><g class="errorbars"/><g class="lines"><path class="js-line" d="M0,152.91L2.01,94.47L4.03,110.31L6.04,112.04L8.06,52.95L10.07,50.19L12.09,103.16L14.1,105.77L16.12,139.37L18.13,242.31L20.15,231.45L22.16,166.16L24.18,151.2L26.19,147.06L28.21,146.67L30.22,144.29L32.24,139.7L34.25,126.19L36.27,122.12L38.28,122.14L40.3,88.11L42.31,88.6L44.33,96.76L46.34,130.48L48.36,113.29L50.37,117.75L52.39,113.31L54.4,113.53L56.42,131.09L58.43,84.74L60.45,84.92L62.46,80.91L64.48,79.84L66.49,64.67L68.51,81.64L70.52,78.2L72.54,76.48L74.55,16L76.57,54.24L78.58,33.44L80.6,68.85L82.61,67.61L84.63,77.51L86.64,74.46L88.66,69.89L92.69,51.78L94.7,36.1L96.72,43.89L98.73,47.84L100.75,27.54L102.76,39.37L104.78,28.82L106.79,34.22L108.81,304L151.12,85.51L153.13,85.51L155.15,90.45L157.16,91.57L159.18,95.74L165.22,94.44L167.24,99.34L169.25,92.26L171.27,82.28L173.28,82.18L175.3,120.06L177.31,125.43L179.33,126.35L181.34,135.56L183.36,151.31L185.37,152.19L187.39,171.33L189.4,175.4L191.42,175.96L193.43,179.39L195.45,173.46L197.46,179.93L199.48,180.18L203.51,179.95L205.52,180.48L209.55,182.82L211.57,216.62L213.58,218.34L215.6,232.04L217.61,233.48L219.63,237.87L223.66,236.58L225.67,237.18L227.69,235.11L229.7,234.38L231.72,233.71L233.73,234.86L235.75,234.85L237.76,246.91L245.82,247.55L247.84,247.53L249.85,248.38L251.87,248.36L253.88,250.74L255.9,271.17L257.91,266.66L259.93,268.11L261.94,269.26L263.96,269.29L265.97,270.61L267.99,273.49L270,275.7L272.01,275.84L274.03,278.28L276.04,278.27L282.09,278.27L284.1,282.27L308.28,281.97L310.3,281.84L314.33,281.31L316.34,281.31L318.36,281.33L320.37,282.83L324.4,282.78L326.42,286.11L328.43,301.46L332.46,286.31L336.49,286.3L338.51,289.39L340.52,289.66L342.54,292.27L354.63,292.94L356.64,293.03L370.75,293.14L372.76,279.56L388.88,279.66L390.9,293.7L409.03,293.84L411.04,293.89L433.21,294.45L435.22,293.6L477.54,293.88L479.55,294.83L501.72,295.41L503.73,296.08L507.76,296.64L509.78,296.64L525.9,296.87L527.91,301.37L529.93,296.85L531.94,296.86L540,296.86" style="vector-effect: none; fill: none; stroke: rgb(99, 110, 250); stroke-opacity: 1; stroke-width: 2px; opacity: 1;"/></g><g class="points"/><g class="text"/></g></g></g><g class="overplot"/><path class="xlines-above crisp" d="M0,0" style="fill: none;"/><path class="ylines-above crisp" d="M0,0" style="fill: none;"/><g class="overlines-above"/><g class="xaxislayer-above"><g class="xtick"><text text-anchor="middle" x="0" y="433" transform="translate(198.88,0)" style="font-family: 'Open Sans', verdana, arial, sans-serif; font-size: 12px; fill: rgb(42, 63, 95); fill-opacity: 1; white-space: pre; opacity: 1;">May 2023</text></g><g class="xtick"><text text-anchor="middle" x="0" y="433" style="font-family: 'Open Sans', verdana, arial, sans-serif; font-size: 12px; fill: rgb(42, 63, 95); fill-opacity: 1; white-space: pre; opacity: 1;" transform="translate(321.78999999999996,0)">Jul 2023</text></g><g class="xtick"><text text-anchor="middle" x="0" y="433" style="font-family: 'Open Sans', verdana, arial, sans-serif; font-size: 12px; fill: rgb(42, 63, 95); fill-opacity: 1; white-space: pre; opacity: 1;" transform="translate(446.72,0)">Sep 2023</text></g><g class="xtick"><text text-anchor="middle" x="0" y="433" style="font-family: 'Open Sans', verdana, arial, sans-serif; font-size: 12px; fill: rgb(42, 63, 95); fill-opacity: 1; white-space: pre; opacity: 1;" transform="translate(569.63,0)">Nov 2023</text></g></g><g class="yaxislayer-above"><g class="ytick"><text text-anchor="end" x="79" y="4.199999999999999" transform="translate(0,407.63)" style="font-family: 'Open Sans', verdana, arial, sans-serif; font-size: 12px; fill: rgb(42, 63, 95); fill-opacity: 1; white-space: pre; opacity: 1;">$−2M</text></g><g class="ytick"><text text-anchor="end" x="79" y="4.199999999999999" style="font-family: 'Open Sans', verdana, arial, sans-serif; font-size: 12px; fill: rgb(42, 63, 95); fill-opacity: 1; white-space: pre; opacity: 1;" transform="translate(0,339.83000000000004)">$−1M</text></g><g class="ytick"><text text-anchor="end" x="79" y="4.199999999999999" style="font-family: 'Open Sans', verdana, arial, sans-serif; font-size: 12px; fill: rgb(42, 63, 95); fill-opacity: 1; white-space: pre; opacity: 1;" transform="translate(0,272.03999999999996)">$0</text></g><g class="ytick"><text text-anchor="end" x="79" y="4.199999999999999" style="font-family: 'Open Sans', verdana, arial, sans-serif; font-size: 12px; fill: rgb(42, 63, 95); fill-opacity: 1; white-space: pre; opacity: 1;" transform="translate(0,204.24)">$1M</text></g><g class="ytick"><text text-anchor="end" x="79" y="4.199999999999999" style="font-family: 'Open Sans', verdana, arial, sans-serif; font-size: 12px; fill: rgb(42, 63, 95); fill-opacity: 1; white-space: pre; opacity: 1;" transform="translate(0,136.45)">$2M</text></g></g><g class="overaxes-above"/></g></g><g class="polarlayer"/><g class="smithlayer"/><g class="ternarylayer"/><g class="geolayer"/><g class="funnelarealayer"/><g class="pielayer"/><g class="iciclelayer"/><g class="treemaplayer"/><g class="sunburstlayer"/><g class="glimages"/><defs id="topdefs-5bfddb"><g class="clips"/></defs><g class="layer-above"><g class="imagelayer"/><g class="shapelayer"/></g><g class="infolayer"><g class="g-gtitle"><text class="gtitle" x="35" y="50" text-anchor="start" dy="0em" style="font-family: 'Open Sans', verdana, arial, sans-serif; font-size: 17px; fill: rgb(42, 63, 95); opacity: 1; font-weight: normal; white-space: pre;"><tspan class="line" dy="0em" x="35" y="50">Sushi Trident</tspan><tspan class="line" dy="1.3em" x="35" y="50">​<tspan style="font-size:70%" dy="-0.6em">Cumulative Net Flows since Program Announcement, Until Program End + 30 Days</tspan><tspan dy="0.42em">​</tspan></tspan></text></g><g class="g-xtitle"><text class="xtitle" x="350" y="460.3" text-anchor="middle" style="font-family: 'Open Sans', verdana, arial, sans-serif; font-size: 14px; fill: rgb(42, 63, 95); opacity: 1; font-weight: normal; white-space: pre;">Day</text></g><g class="g-ytitle"><text class="ytitle" transform="rotate(-90,24.340625000000003,260)" x="24.340625000000003" y="260" text-anchor="middle" style="font-family: 'Open Sans', verdana, arial, sans-serif; font-size: 14px; fill: rgb(42, 63, 95); opacity: 1; font-weight: normal; white-space: pre;">Cumulative Net Flows (USD)</text></g></g></svg>