<svg class="main-svg" xmlns="http://www.w3.org/2000/svg" xmlns:xlink="http://www.w3.org/1999/xlink" width="700" height="500" style="" viewBox="0 0 700 500"><rect x="0" y="0" width="700" height="500" style="fill: rgb(255, 255, 255); fill-opacity: 1;"/><defs id="defs-eff8ab"><g class="clips"><clipPath id="clipeff8abxyplot" class="plotclip"><rect width="540" height="320"/></clipPath><clipPath class="axesclip" id="clipeff8abx"><rect x="80" y="0" width="540" height="500"/></clipPath><clipPath class="axesclip" id="clipeff8aby"><rect x="0" y="100" width="700" height="320"/></clipPath><clipPath class="axesclip" id="clipeff8abxy"><rect x="80" y="100" width="540" height="320"/></clipPath></g><g class="gradients"/><g class="patterns"/></defs><g class="bglayer"><rect class="bg" x="80" y="100" width="540" height="320" style="fill: rgb(229, 236, 246); fill-opacity: 1; stroke-width: 0;"/></g><g class="layer-below"><g class="imagelayer"/><g class="shapelayer"/></g><g class="cartesianlayer"><g class="subplot xy"><g class="layer-subplot"><g class="shapelayer"/><g class="imagelayer"/></g><g class="minor-gridlayer"><g class="x"/><g class="y"/></g><g class="gridlayer"><g class="x"><path class="xgrid crisp" transform="translate(119.19,0)" d="M0,100v320" style="stroke: rgb(255, 255, 255); stroke-opacity: 1; stroke-width: 1px;"/><path class="xgrid crisp" transform="translate(219.35,0)" d="M0,100v320" style="stroke: rgb(255, 255, 255); stroke-opacity: 1; stroke-width: 1px;"/><path class="xgrid crisp" transform="translate(317.34000000000003,0)" d="M0,100v320" style="stroke: rgb(255, 255, 255); stroke-opacity: 1; stroke-width: 1px;"/><path class="xgrid crisp" transform="translate(416.41,0)" d="M0,100v320" style="stroke: rgb(255, 255, 255); stroke-opacity: 1; stroke-width: 1px;"/><path class="xgrid crisp" transform="translate(516.5699999999999,0)" d="M0,100v320" style="stroke: rgb(255, 255, 255); stroke-opacity: 1; stroke-width: 1px;"/><path class="xgrid crisp" transform="translate(616.73,0)" d="M0,100v320" style="stroke: rgb(255, 255, 255); stroke-opacity: 1; stroke-width: 1px;"/></g><g class="y"><path class="ygrid crisp" transform="translate(0,409.28)" d="M80,0h540" style="stroke: rgb(255, 255, 255); stroke-opacity: 1; stroke-width: 1px;"/><path class="ygrid crisp" transform="translate(0,351.14)" d="M80,0h540" style="stroke: rgb(255, 255, 255); stroke-opacity: 1; stroke-width: 1px;"/><path class="ygrid crisp" transform="translate(0,293)" d="M80,0h540" style="stroke: rgb(255, 255, 255); stroke-opacity: 1; stroke-width: 1px;"/><path class="ygrid crisp" transform="translate(0,234.86)" d="M80,0h540" style="stroke: rgb(255, 255, 255); stroke-opacity: 1; stroke-width: 1px;"/><path class="ygrid crisp" transform="translate(0,118.58)" d="M80,0h540" style="stroke: rgb(255, 255, 255); stroke-opacity: 1; stroke-width: 1px;"/></g></g><g class="zerolinelayer"><path class="yzl zl crisp" transform="translate(0,176.72)" d="M80,0h540" style="stroke: rgb(255, 255, 255); stroke-opacity: 1; stroke-width: 2px;"/></g><path class="xlines-below"/><path class="ylines-below"/><g class="overlines-below"/><g class="xaxislayer-below"/><g class="yaxislayer-below"/><g class="overaxes-below"/><g class="plot" transform="translate(80,100)" clip-path="url(#clipeff8abxyplot)"><g class="scatterlayer mlayer"><g class="trace scatter traceb17686" style="stroke-miterlimit: 2;"><g class="fills"><g><path class="js-fill" d="M540,76.72L0,76.72L0,76.95L11.98,76.29L13.06,76.26L55.52,75.86L56.61,77.07L57.7,69.45L58.79,67.25L60.97,40.64L62.06,49.28L64.23,56.02L65.32,58.26L66.41,51.92L67.5,53.35L70.77,52.16L71.85,45.85L74.03,45.65L75.12,46.22L76.21,47.03L77.3,45.31L78.39,45.38L79.48,76.32L81.65,95.48L82.74,100.91L83.83,100.17L84.92,101.12L87.1,102.48L88.19,105.95L90.36,105.88L91.45,97.75L93.63,94.1L94.72,95.58L95.81,92.97L96.9,80.9L97.98,83.39L99.07,78.73L101.25,81.71L102.34,81.59L104.52,86.81L105.6,81.01L106.69,58.87L107.78,56.73L109.96,56.2L111.05,58.53L113.23,50.08L114.31,53.19L115.4,53.1L116.49,54.87L117.58,55.54L118.67,66.44L119.76,70.76L120.85,70.79L121.94,71L123.02,68.54L124.11,70.79L125.2,70.88L126.29,73.05L127.38,71.31L130.65,68.03L131.73,68.07L132.82,67.17L133.91,59.8L137.18,61.64L138.27,60.53L140.44,65.8L141.53,66.09L143.71,68.15L144.8,67.3L145.89,57.44L146.98,57.18L148.06,52.99L149.15,57.75L150.24,57.85L151.33,70.86L154.6,74.71L155.69,74.96L156.77,74.6L157.86,70.31L158.95,68.44L160.04,69.07L161.13,67.64L162.22,67.67L163.31,84.44L164.4,81.79L165.48,76.65L166.57,88.79L167.66,88.85L168.75,85.52L169.84,85.74L170.93,81.71L172.02,79.67L173.1,82.36L174.19,80.76L175.28,84.94L176.37,87.24L177.46,87.43L178.55,86.9L179.64,85.34L180.73,85.42L181.81,88.75L182.9,92.35L183.99,101.42L187.26,102.48L188.35,116.11L190.52,84.45L191.61,83.97L192.7,83.75L193.79,81.72L194.88,80.52L195.97,63.82L197.06,24.23L198.15,16L199.23,17.77L200.32,17.75L202.5,18.85L203.59,25.61L204.68,25.51L205.77,44.11L206.85,46.5L207.94,44.26L209.03,45.88L210.12,39.94L211.21,38.42L212.3,46.34L214.48,136.16L215.56,135.84L216.65,132.13L217.74,123.38L218.83,123.71L219.92,94.41L221.01,93.39L222.1,94.38L223.19,96.49L224.27,95.3L225.36,96.89L226.45,95.32L227.54,85.95L228.63,108.58L232.98,120.53L234.07,121.33L235.16,131.71L236.25,132.05L237.34,126.74L238.43,126.15L239.52,126.37L240.6,98.51L241.69,98.46L242.78,102.01L243.87,93.36L244.96,92.4L247.14,90.39L248.23,90.55L249.31,90.06L250.4,88.49L253.67,79.63L254.76,71.13L255.85,67.21L256.94,77.7L258.02,76.22L259.11,44.02L261.29,46.2L262.38,46.34L263.47,46.3L264.56,48.92L265.65,48.96L266.73,42.3L267.82,41.82L268.91,44.37L270,43.98L271.09,46.03L272.18,48.64L273.27,54.75L274.35,51.95L275.44,52.1L276.53,59.03L277.62,59.21L280.89,67.36L281.98,68.62L285.24,68.82L286.33,69.63L288.51,56.38L289.6,56.08L290.69,55.21L291.77,56.74L292.86,53.6L293.95,57.39L295.04,60.2L296.13,60.45L297.22,59.26L298.31,59.63L301.57,59.2L302.66,60.43L304.84,63.84L305.93,62.02L309.19,63.94L310.28,63.44L312.46,60.56L313.55,63.78L314.64,62.21L315.73,61.96L316.81,61.56L317.9,62.39L318.99,64.27L320.08,64.55L322.26,64.17L323.35,64.25L324.44,63.16L325.52,64.36L326.61,43.21L327.7,44.13L328.79,43.67L329.88,48.47L333.15,58.71L334.23,174.91L335.32,194.71L336.41,198.31L337.5,199.46L338.59,208.22L339.68,213.72L340.77,214.37L341.85,215.92L342.94,216.15L346.21,218.11L347.3,221.36L348.39,284.55L349.48,285.33L350.56,288.91L351.65,288.93L352.74,292.07L353.83,292.12L356.01,292.78L357.1,292.78L358.19,292.81L359.27,295.27L366.9,295.31L367.98,296.36L369.07,296.39L370.16,297.57L373.43,297.7L374.52,299.53L379.96,299.73L381.05,299.73L414.8,300.56L415.89,301.16L450.73,301.91L451.81,302.43L518.23,302.97L519.31,303.37L520.4,304L521.49,303.38L540,303.59" style="fill: rgb(99, 110, 250); fill-opacity: 0.5; stroke-width: 0;"/></g></g><g class="errorbars"/><g class="lines"><path class="js-line" d="M0,76.95L11.98,76.29L13.06,76.26L55.52,75.86L56.61,77.07L57.7,69.45L58.79,67.25L60.97,40.64L62.06,49.28L64.23,56.02L65.32,58.26L66.41,51.92L67.5,53.35L70.77,52.16L71.85,45.85L74.03,45.65L75.12,46.22L76.21,47.03L77.3,45.31L78.39,45.38L79.48,76.32L81.65,95.48L82.74,100.91L83.83,100.17L84.92,101.12L87.1,102.48L88.19,105.95L90.36,105.88L91.45,97.75L93.63,94.1L94.72,95.58L95.81,92.97L96.9,80.9L97.98,83.39L99.07,78.73L101.25,81.71L102.34,81.59L104.52,86.81L105.6,81.01L106.69,58.87L107.78,56.73L109.96,56.2L111.05,58.53L113.23,50.08L114.31,53.19L115.4,53.1L116.49,54.87L117.58,55.54L118.67,66.44L119.76,70.76L120.85,70.79L121.94,71L123.02,68.54L124.11,70.79L125.2,70.88L126.29,73.05L127.38,71.31L130.65,68.03L131.73,68.07L132.82,67.17L133.91,59.8L137.18,61.64L138.27,60.53L140.44,65.8L141.53,66.09L143.71,68.15L144.8,67.3L145.89,57.44L146.98,57.18L148.06,52.99L149.15,57.75L150.24,57.85L151.33,70.86L154.6,74.71L155.69,74.96L156.77,74.6L157.86,70.31L158.95,68.44L160.04,69.07L161.13,67.64L162.22,67.67L163.31,84.44L164.4,81.79L165.48,76.65L166.57,88.79L167.66,88.85L168.75,85.52L169.84,85.74L170.93,81.71L172.02,79.67L173.1,82.36L174.19,80.76L175.28,84.94L176.37,87.24L177.46,87.43L178.55,86.9L179.64,85.34L180.73,85.42L181.81,88.75L182.9,92.35L183.99,101.42L187.26,102.48L188.35,116.11L190.52,84.45L191.61,83.97L192.7,83.75L193.79,81.72L194.88,80.52L195.97,63.82L197.06,24.23L198.15,16L199.23,17.77L200.32,17.75L202.5,18.85L203.59,25.61L204.68,25.51L205.77,44.11L206.85,46.5L207.94,44.26L209.03,45.88L210.12,39.94L211.21,38.42L212.3,46.34L214.48,136.16L215.56,135.84L216.65,132.13L217.74,123.38L218.83,123.71L219.92,94.41L221.01,93.39L222.1,94.38L223.19,96.49L224.27,95.3L225.36,96.89L226.45,95.32L227.54,85.95L228.63,108.58L232.98,120.53L234.07,121.33L235.16,131.71L236.25,132.05L237.34,126.74L238.43,126.15L239.52,126.37L240.6,98.51L241.69,98.46L242.78,102.01L243.87,93.36L244.96,92.4L247.14,90.39L248.23,90.55L249.31,90.06L250.4,88.49L253.67,79.63L254.76,71.13L255.85,67.21L256.94,77.7L258.02,76.22L259.11,44.02L261.29,46.2L262.38,46.34L263.47,46.3L264.56,48.92L265.65,48.96L266.73,42.3L267.82,41.82L268.91,44.37L270,43.98L271.09,46.03L272.18,48.64L273.27,54.75L274.35,51.95L275.44,52.1L276.53,59.03L277.62,59.21L280.89,67.36L281.98,68.62L285.24,68.82L286.33,69.63L288.51,56.38L289.6,56.08L290.69,55.21L291.77,56.74L292.86,53.6L293.95,57.39L295.04,60.2L296.13,60.45L297.22,59.26L298.31,59.63L301.57,59.2L302.66,60.43L304.84,63.84L305.93,62.02L309.19,63.94L310.28,63.44L312.46,60.56L313.55,63.78L314.64,62.21L315.73,61.96L316.81,61.56L317.9,62.39L318.99,64.27L320.08,64.55L322.26,64.17L323.35,64.25L324.44,63.16L325.52,64.36L326.61,43.21L327.7,44.13L328.79,43.67L329.88,48.47L333.15,58.71L334.23,174.91L335.32,194.71L336.41,198.31L337.5,199.46L338.59,208.22L339.68,213.72L340.77,214.37L341.85,215.92L342.94,216.15L346.21,218.11L347.3,221.36L348.39,284.55L349.48,285.33L350.56,288.91L351.65,288.93L352.74,292.07L353.83,292.12L356.01,292.78L357.1,292.78L358.19,292.81L359.27,295.27L366.9,295.31L367.98,296.36L369.07,296.39L370.16,297.57L373.43,297.7L374.52,299.53L379.96,299.73L381.05,299.73L414.8,300.56L415.89,301.16L450.73,301.91L451.81,302.43L518.23,302.97L519.31,303.37L520.4,304L521.49,303.38L540,303.59" style="vector-effect: none; fill: none; stroke: rgb(99, 110, 250); stroke-opacity: 1; stroke-width: 2px; opacity: 1;"/></g><g class="points"/><g class="text"/></g></g></g><g class="overplot"/><path class="xlines-above crisp" d="M0,0" style="fill: none;"/><path class="ylines-above crisp" d="M0,0" style="fill: none;"/><g class="overlines-above"/><g class="xaxislayer-above"><g class="xtick"><text text-anchor="middle" x="0" y="433" transform="translate(119.19,0)" style="font-family: 'Open Sans', verdana, arial, sans-serif; font-size: 12px; fill: rgb(42, 63, 95); fill-opacity: 1; white-space: pre; opacity: 1;">Oct 2022</text></g><g class="xtick"><text text-anchor="middle" x="0" y="433" style="font-family: 'Open Sans', verdana, arial, sans-serif; font-size: 12px; fill: rgb(42, 63, 95); fill-opacity: 1; white-space: pre; opacity: 1;" transform="translate(219.35,0)">Jan 2023</text></g><g class="xtick"><text text-anchor="middle" x="0" y="433" style="font-family: 'Open Sans', verdana, arial, sans-serif; font-size: 12px; fill: rgb(42, 63, 95); fill-opacity: 1; white-space: pre; opacity: 1;" transform="translate(317.34000000000003,0)">Apr 2023</text></g><g class="xtick"><text text-anchor="middle" x="0" y="433" style="font-family: 'Open Sans', verdana, arial, sans-serif; font-size: 12px; fill: rgb(42, 63, 95); fill-opacity: 1; white-space: pre; opacity: 1;" transform="translate(416.41,0)">Jul 2023</text></g><g class="xtick"><text text-anchor="middle" x="0" y="433" style="font-family: 'Open Sans', verdana, arial, sans-serif; font-size: 12px; fill: rgb(42, 63, 95); fill-opacity: 1; white-space: pre; opacity: 1;" transform="translate(516.5699999999999,0)">Oct 2023</text></g><g class="xtick"><text text-anchor="middle" x="0" y="433" style="font-family: 'Open Sans', verdana, arial, sans-serif; font-size: 12px; fill: rgb(42, 63, 95); fill-opacity: 1; white-space: pre; opacity: 1;" transform="translate(616.73,0)">Jan 2024</text></g></g><g class="yaxislayer-above"><g class="ytick"><text text-anchor="end" x="79" y="4.199999999999999" transform="translate(0,409.28)" style="font-family: 'Open Sans', verdana, arial, sans-serif; font-size: 12px; fill: rgb(42, 63, 95); fill-opacity: 1; white-space: pre; opacity: 1;">$−8M</text></g><g class="ytick"><text text-anchor="end" x="79" y="4.199999999999999" style="font-family: 'Open Sans', verdana, arial, sans-serif; font-size: 12px; fill: rgb(42, 63, 95); fill-opacity: 1; white-space: pre; opacity: 1;" transform="translate(0,351.14)">$−6M</text></g><g class="ytick"><text text-anchor="end" x="79" y="4.199999999999999" style="font-family: 'Open Sans', verdana, arial, sans-serif; font-size: 12px; fill: rgb(42, 63, 95); fill-opacity: 1; white-space: pre; opacity: 1;" transform="translate(0,293)">$−4M</text></g><g class="ytick"><text text-anchor="end" x="79" y="4.199999999999999" style="font-family: 'Open Sans', verdana, arial, sans-serif; font-size: 12px; fill: rgb(42, 63, 95); fill-opacity: 1; white-space: pre; opacity: 1;" transform="translate(0,234.86)">$−2M</text></g><g class="ytick"><text text-anchor="end" x="79" y="4.199999999999999" style="font-family: 'Open Sans', verdana, arial, sans-serif; font-size: 12px; fill: rgb(42, 63, 95); fill-opacity: 1; white-space: pre; opacity: 1;" transform="translate(0,176.72)">$0</text></g><g class="ytick"><text text-anchor="end" x="79" y="4.199999999999999" style="font-family: 'Open Sans', verdana, arial, sans-serif; font-size: 12px; fill: rgb(42, 63, 95); fill-opacity: 1; white-space: pre; opacity: 1;" transform="translate(0,118.58)">$2M</text></g></g><g class="overaxes-above"/></g></g><g class="polarlayer"/><g class="smithlayer"/><g class="ternarylayer"/><g class="geolayer"/><g class="funnelarealayer"/><g class="pielayer"/><g class="iciclelayer"/><g class="treemaplayer"/><g class="sunburstlayer"/><g class="glimages"/><defs id="topdefs-eff8ab"><g class="clips"/></defs><g class="layer-above"><g class="imagelayer"/><g class="shapelayer"/></g><g class="infolayer"><g class="g-gtitle"><text class="gtitle" x="35" y="50" text-anchor="start" dy="0em" style="font-family: 'Open Sans', verdana, arial, sans-serif; font-size: 17px; fill: rgb(42, 63, 95); opacity: 1; font-weight: normal; white-space: pre;"><tspan class="line" dy="0em" x="35" y="50">Qidao - sUSDC/MAI: Velodrome</tspan><tspan class="line" dy="1.3em" x="35" y="50">​<tspan style="font-size:70%" dy="-0.6em">Cumulative Net Flows since Program Announcement, Until Program End + 30 Days</tspan><tspan dy="0.42em">​</tspan></tspan></text></g><g class="g-xtitle"><text class="xtitle" x="350" y="460.3" text-anchor="middle" style="font-family: 'Open Sans', verdana, arial, sans-serif; font-size: 14px; fill: rgb(42, 63, 95); opacity: 1; font-weight: normal; white-space: pre;">Day</text></g><g class="g-ytitle"><text class="ytitle" transform="rotate(-90,24.340625000000003,260)" x="24.340625000000003" y="260" text-anchor="middle" style="font-family: 'Open Sans', verdana, arial, sans-serif; font-size: 14px; fill: rgb(42, 63, 95); opacity: 1; font-weight: normal; white-space: pre;">Cumulative Net Flows (USD)</text></g></g></svg>