<svg class="main-svg" xmlns="http://www.w3.org/2000/svg" xmlns:xlink="http://www.w3.org/1999/xlink" width="700" height="500" style="" viewBox="0 0 700 500"><rect x="0" y="0" width="700" height="500" style="fill: rgb(255, 255, 255); fill-opacity: 1;"/><defs id="defs-476a0d"><g class="clips"><clipPath id="clip476a0dxyplot" class="plotclip"><rect width="540" height="320"/></clipPath><clipPath class="axesclip" id="clip476a0dx"><rect x="80" y="0" width="540" height="500"/></clipPath><clipPath class="axesclip" id="clip476a0dy"><rect x="0" y="100" width="700" height="320"/></clipPath><clipPath class="axesclip" id="clip476a0dxy"><rect x="80" y="100" width="540" height="320"/></clipPath></g><g class="gradients"/><g class="patterns"/></defs><g class="bglayer"><rect class="bg" x="80" y="100" width="540" height="320" style="fill: rgb(229, 236, 246); fill-opacity: 1; stroke-width: 0;"/></g><g class="layer-below"><g class="imagelayer"/><g class="shapelayer"/></g><g class="cartesianlayer"><g class="subplot xy"><g class="layer-subplot"><g class="shapelayer"/><g class="imagelayer"/></g><g class="minor-gridlayer"><g class="x"/><g class="y"/></g><g class="gridlayer"><g class="x"><path class="xgrid crisp" transform="translate(141.28,0)" d="M0,100v320" style="stroke: rgb(255, 255, 255); stroke-opacity: 1; stroke-width: 1px;"/><path class="xgrid crisp" transform="translate(254.26,0)" d="M0,100v320" style="stroke: rgb(255, 255, 255); stroke-opacity: 1; stroke-width: 1px;"/><path class="xgrid crisp" transform="translate(371.06,0)" d="M0,100v320" style="stroke: rgb(255, 255, 255); stroke-opacity: 1; stroke-width: 1px;"/><path class="xgrid crisp" transform="translate(487.87,0)" d="M0,100v320" style="stroke: rgb(255, 255, 255); stroke-opacity: 1; stroke-width: 1px;"/><path class="xgrid crisp" transform="translate(606.6,0)" d="M0,100v320" style="stroke: rgb(255, 255, 255); stroke-opacity: 1; stroke-width: 1px;"/></g><g class="y"><path class="ygrid crisp" transform="translate(0,339.74)" d="M80,0h540" style="stroke: rgb(255, 255, 255); stroke-opacity: 1; stroke-width: 1px;"/><path class="ygrid crisp" transform="translate(0,292.93)" d="M80,0h540" style="stroke: rgb(255, 255, 255); stroke-opacity: 1; stroke-width: 1px;"/><path class="ygrid crisp" transform="translate(0,246.12)" d="M80,0h540" style="stroke: rgb(255, 255, 255); stroke-opacity: 1; stroke-width: 1px;"/><path class="ygrid crisp" transform="translate(0,199.31)" d="M80,0h540" style="stroke: rgb(255, 255, 255); stroke-opacity: 1; stroke-width: 1px;"/><path class="ygrid crisp" transform="translate(0,152.5)" d="M80,0h540" style="stroke: rgb(255, 255, 255); stroke-opacity: 1; stroke-width: 1px;"/><path class="ygrid crisp" transform="translate(0,105.69)" d="M80,0h540" style="stroke: rgb(255, 255, 255); stroke-opacity: 1; stroke-width: 1px;"/></g></g><g class="zerolinelayer"><path class="yzl zl crisp" transform="translate(0,386.55)" d="M80,0h540" style="stroke: rgb(255, 255, 255); stroke-opacity: 1; stroke-width: 2px;"/></g><path class="xlines-below"/><path class="ylines-below"/><g class="overlines-below"/><g class="xaxislayer-below"/><g class="yaxislayer-below"/><g class="overaxes-below"/><g class="plot" transform="translate(80,100)" clip-path="url(#clip476a0dxyplot)"><g class="scatterlayer mlayer"><g class="trace scatter tracefde084" style="stroke-miterlimit: 2;"><g class="fills"><g><path class="js-fill" d="M540,286.55L0,286.55L0,292.98L1.91,304L3.83,290.59L5.74,286.82L7.66,254.25L9.57,260.8L11.49,262.32L13.4,260.37L15.32,247.55L17.23,244.13L19.15,242.34L22.98,233.71L24.89,231.76L26.81,239.01L28.72,218.48L30.64,221.27L32.55,222.35L34.47,151.61L36.38,154.84L38.3,154.86L40.21,149.03L42.13,155L44.04,142.3L45.96,144.24L47.87,143.9L51.7,143.46L53.62,154.16L55.53,153.83L57.45,155.18L59.36,154.03L61.28,102.26L63.19,119.66L65.11,120.24L67.02,115.29L68.94,103.5L70.85,114.85L72.77,117.8L74.68,118.26L76.6,117.18L78.51,111.51L80.43,112.43L82.34,108.23L84.26,112.9L90,61.29L91.91,59.9L93.83,57.49L95.74,36.64L97.66,40.56L99.57,25.96L101.49,27.21L103.4,24.13L105.32,26.88L107.23,36.92L109.15,31.04L111.06,33.97L112.98,34.29L114.89,31.85L116.81,25.06L118.72,30.69L120.64,28.3L122.55,17.05L124.47,18.83L126.38,16.97L128.3,23.77L130.21,16L134.04,27.77L135.96,47.68L137.87,135.02L139.79,174.26L141.7,181.85L143.62,181.97L145.53,182L147.45,178.67L151.28,129.66L153.19,124.46L155.11,122.52L157.02,116.22L158.94,119.09L160.85,132.03L162.77,127.62L164.68,125.76L166.6,126.78L168.51,126.44L170.43,131.53L172.34,133.78L174.26,176.42L176.17,177.83L178.09,179.78L180,183.58L181.91,185.46L183.83,188.69L185.74,172.41L187.66,186.49L189.57,182.54L191.49,163.65L193.4,166.97L195.32,178.14L197.23,178.58L199.15,176.58L202.98,154.84L204.89,147.64L206.81,139.08L208.72,158.78L210.64,150.32L212.55,156.36L214.47,151.83L216.38,158.79L218.3,152.92L220.21,154.8L222.13,143.73L224.04,141.3L225.96,155.78L227.87,156.81L229.79,167.05L231.7,165.8L235.53,170.19L237.45,161.71L239.36,160.63L241.28,153.81L243.19,156.15L245.11,154.41L247.02,152.36L248.94,158.42L252.77,154.97L254.68,157.09L258.51,152.96L260.43,157.62L262.34,157.86L264.26,161.59L266.17,162.87L268.09,172.57L270,167.9L271.91,171.11L273.83,181.74L275.74,181.95L277.66,185.29L279.57,185.03L281.49,179.03L283.4,178.78L285.32,171.53L287.23,172.47L289.15,171.77L291.06,174.17L292.98,177.03L294.89,176.63L296.81,164.33L298.72,181.54L300.64,175.89L302.55,180.74L304.47,177.4L306.38,179.22L308.3,213.83L310.21,211.81L312.13,172.4L314.04,174.06L315.96,174.56L317.87,180.17L319.79,186.18L321.7,176.04L323.62,175.93L325.53,178.55L327.45,169.45L329.36,172.35L331.28,176.24L333.19,167.63L335.11,162.89L337.02,172.85L338.94,174.55L340.85,169.77L342.77,172.36L344.68,169.32L352.34,168.26L354.26,157.75L356.17,144.85L358.09,144.47L361.91,130.46L363.83,142.53L365.74,135.4L367.66,135.37L369.57,124.82L371.49,129.61L373.4,128.53L375.32,133L377.23,137.7L379.15,157.84L381.06,162.42L382.98,161.97L386.81,161.29L388.72,156.64L390.64,141.47L392.55,157.67L394.47,152.94L396.38,153.48L400.21,152.93L402.13,147.51L404.04,155.79L405.96,82.83L407.87,81.2L409.79,81.31L411.7,78.87L413.62,78L415.53,75.97L417.45,78.9L419.36,88.79L421.28,94.33L423.19,92.17L425.11,94.44L427.02,90.39L428.94,89.34L430.85,82.1L432.77,68.9L434.68,76.95L436.6,76.44L438.51,76.76L440.43,78.18L442.34,77.96L444.26,57.15L446.17,60.5L448.09,60.21L450,62.56L451.91,54.12L453.83,60.05L455.74,58.78L457.66,60.83L459.57,88L461.49,108.1L463.4,96.71L465.32,128.11L467.23,119.49L469.15,133.58L471.06,137.13L472.98,159.36L474.89,147.74L476.81,149.39L478.72,146.67L480.64,145.97L482.55,147.36L484.47,148.77L486.38,152.86L488.3,151.66L490.21,152.92L492.13,155.27L494.04,161.82L495.96,166.04L497.87,160.03L499.79,163.33L501.7,158.96L503.62,156.92L505.53,157.29L507.45,153.45L509.36,155.5L511.28,153.17L513.19,132.57L515.11,131.67L517.02,145.25L518.94,176.61L520.85,176.81L522.77,169.97L524.68,180.25L526.6,185.67L528.51,184.39L532.34,182.26L534.26,183.71L538.09,182.93L540,181.92" style="fill: rgb(99, 110, 250); fill-opacity: 0.5; stroke-width: 0;"/></g></g><g class="errorbars"/><g class="lines"><path class="js-line" d="M0,292.98L1.91,304L3.83,290.59L5.74,286.82L7.66,254.25L9.57,260.8L11.49,262.32L13.4,260.37L15.32,247.55L17.23,244.13L19.15,242.34L22.98,233.71L24.89,231.76L26.81,239.01L28.72,218.48L30.64,221.27L32.55,222.35L34.47,151.61L36.38,154.84L38.3,154.86L40.21,149.03L42.13,155L44.04,142.3L45.96,144.24L47.87,143.9L51.7,143.46L53.62,154.16L55.53,153.83L57.45,155.18L59.36,154.03L61.28,102.26L63.19,119.66L65.11,120.24L67.02,115.29L68.94,103.5L70.85,114.85L72.77,117.8L74.68,118.26L76.6,117.18L78.51,111.51L80.43,112.43L82.34,108.23L84.26,112.9L90,61.29L91.91,59.9L93.83,57.49L95.74,36.64L97.66,40.56L99.57,25.96L101.49,27.21L103.4,24.13L105.32,26.88L107.23,36.92L109.15,31.04L111.06,33.97L112.98,34.29L114.89,31.85L116.81,25.06L118.72,30.69L120.64,28.3L122.55,17.05L124.47,18.83L126.38,16.97L128.3,23.77L130.21,16L134.04,27.77L135.96,47.68L137.87,135.02L139.79,174.26L141.7,181.85L143.62,181.97L145.53,182L147.45,178.67L151.28,129.66L153.19,124.46L155.11,122.52L157.02,116.22L158.94,119.09L160.85,132.03L162.77,127.62L164.68,125.76L166.6,126.78L168.51,126.44L170.43,131.53L172.34,133.78L174.26,176.42L176.17,177.83L178.09,179.78L180,183.58L181.91,185.46L183.83,188.69L185.74,172.41L187.66,186.49L189.57,182.54L191.49,163.65L193.4,166.97L195.32,178.14L197.23,178.58L199.15,176.58L202.98,154.84L204.89,147.64L206.81,139.08L208.72,158.78L210.64,150.32L212.55,156.36L214.47,151.83L216.38,158.79L218.3,152.92L220.21,154.8L222.13,143.73L224.04,141.3L225.96,155.78L227.87,156.81L229.79,167.05L231.7,165.8L235.53,170.19L237.45,161.71L239.36,160.63L241.28,153.81L243.19,156.15L245.11,154.41L247.02,152.36L248.94,158.42L252.77,154.97L254.68,157.09L258.51,152.96L260.43,157.62L262.34,157.86L264.26,161.59L266.17,162.87L268.09,172.57L270,167.9L271.91,171.11L273.83,181.74L275.74,181.95L277.66,185.29L279.57,185.03L281.49,179.03L283.4,178.78L285.32,171.53L287.23,172.47L289.15,171.77L291.06,174.17L292.98,177.03L294.89,176.63L296.81,164.33L298.72,181.54L300.64,175.89L302.55,180.74L304.47,177.4L306.38,179.22L308.3,213.83L310.21,211.81L312.13,172.4L314.04,174.06L315.96,174.56L317.87,180.17L319.79,186.18L321.7,176.04L323.62,175.93L325.53,178.55L327.45,169.45L329.36,172.35L331.28,176.24L333.19,167.63L335.11,162.89L337.02,172.85L338.94,174.55L340.85,169.77L342.77,172.36L344.68,169.32L352.34,168.26L354.26,157.75L356.17,144.85L358.09,144.47L361.91,130.46L363.83,142.53L365.74,135.4L367.66,135.37L369.57,124.82L371.49,129.61L373.4,128.53L375.32,133L377.23,137.7L379.15,157.84L381.06,162.42L382.98,161.97L386.81,161.29L388.72,156.64L390.64,141.47L392.55,157.67L394.47,152.94L396.38,153.48L400.21,152.93L402.13,147.51L404.04,155.79L405.96,82.83L407.87,81.2L409.79,81.31L411.7,78.87L413.62,78L415.53,75.97L417.45,78.9L419.36,88.79L421.28,94.33L423.19,92.17L425.11,94.44L427.02,90.39L428.94,89.34L430.85,82.1L432.77,68.9L434.68,76.95L436.6,76.44L438.51,76.76L440.43,78.18L442.34,77.96L444.26,57.15L446.17,60.5L448.09,60.21L450,62.56L451.91,54.12L453.83,60.05L455.74,58.78L457.66,60.83L459.57,88L461.49,108.1L463.4,96.71L465.32,128.11L467.23,119.49L469.15,133.58L471.06,137.13L472.98,159.36L474.89,147.74L476.81,149.39L478.72,146.67L480.64,145.97L482.55,147.36L484.47,148.77L486.38,152.86L488.3,151.66L490.21,152.92L492.13,155.27L494.04,161.82L495.96,166.04L497.87,160.03L499.79,163.33L501.7,158.96L503.62,156.92L505.53,157.29L507.45,153.45L509.36,155.5L511.28,153.17L513.19,132.57L515.11,131.67L517.02,145.25L518.94,176.61L520.85,176.81L522.77,169.97L524.68,180.25L526.6,185.67L528.51,184.39L532.34,182.26L534.26,183.71L538.09,182.93L540,181.92" style="vector-effect: none; fill: none; stroke: rgb(99, 110, 250); stroke-opacity: 1; stroke-width: 2px; opacity: 1;"/></g><g class="points"/><g class="text"/></g></g></g><g class="overplot"/><path class="xlines-above crisp" d="M0,0" style="fill: none;"/><path class="ylines-above crisp" d="M0,0" style="fill: none;"/><g class="overlines-above"/><g class="xaxislayer-above"><g class="xtick"><text text-anchor="middle" x="0" y="433" transform="translate(141.28,0)" style="font-family: 'Open Sans', verdana, arial, sans-serif; font-size: 12px; fill: rgb(42, 63, 95); fill-opacity: 1; white-space: pre; opacity: 1;">Jan 2023</text></g><g class="xtick"><text text-anchor="middle" x="0" y="433" style="font-family: 'Open Sans', verdana, arial, sans-serif; font-size: 12px; fill: rgb(42, 63, 95); fill-opacity: 1; white-space: pre; opacity: 1;" transform="translate(254.26,0)">Mar 2023</text></g><g class="xtick"><text text-anchor="middle" x="0" y="433" style="font-family: 'Open Sans', verdana, arial, sans-serif; font-size: 12px; fill: rgb(42, 63, 95); fill-opacity: 1; white-space: pre; opacity: 1;" transform="translate(371.06,0)">May 2023</text></g><g class="xtick"><text text-anchor="middle" x="0" y="433" style="font-family: 'Open Sans', verdana, arial, sans-serif; font-size: 12px; fill: rgb(42, 63, 95); fill-opacity: 1; white-space: pre; opacity: 1;" transform="translate(487.87,0)">Jul 2023</text></g><g class="xtick"><text text-anchor="middle" x="0" y="433" style="font-family: 'Open Sans', verdana, arial, sans-serif; font-size: 12px; fill: rgb(42, 63, 95); fill-opacity: 1; white-space: pre; opacity: 1;" transform="translate(606.6,0)">Sep 2023</text></g></g><g class="yaxislayer-above"><g class="ytick"><text text-anchor="end" x="79" y="4.199999999999999" transform="translate(0,386.55)" style="font-family: 'Open Sans', verdana, arial, sans-serif; font-size: 12px; fill: rgb(42, 63, 95); fill-opacity: 1; white-space: pre; opacity: 1;">$0</text></g><g class="ytick"><text text-anchor="end" x="79" y="4.199999999999999" style="font-family: 'Open Sans', verdana, arial, sans-serif; font-size: 12px; fill: rgb(42, 63, 95); fill-opacity: 1; white-space: pre; opacity: 1;" transform="translate(0,339.74)">$2M</text></g><g class="ytick"><text text-anchor="end" x="79" y="4.199999999999999" style="font-family: 'Open Sans', verdana, arial, sans-serif; font-size: 12px; fill: rgb(42, 63, 95); fill-opacity: 1; white-space: pre; opacity: 1;" transform="translate(0,292.93)">$4M</text></g><g class="ytick"><text text-anchor="end" x="79" y="4.199999999999999" style="font-family: 'Open Sans', verdana, arial, sans-serif; font-size: 12px; fill: rgb(42, 63, 95); fill-opacity: 1; white-space: pre; opacity: 1;" transform="translate(0,246.12)">$6M</text></g><g class="ytick"><text text-anchor="end" x="79" y="4.199999999999999" style="font-family: 'Open Sans', verdana, arial, sans-serif; font-size: 12px; fill: rgb(42, 63, 95); fill-opacity: 1; white-space: pre; opacity: 1;" transform="translate(0,199.31)">$8M</text></g><g class="ytick"><text text-anchor="end" x="79" y="4.199999999999999" style="font-family: 'Open Sans', verdana, arial, sans-serif; font-size: 12px; fill: rgb(42, 63, 95); fill-opacity: 1; white-space: pre; opacity: 1;" transform="translate(0,152.5)">$10M</text></g><g class="ytick"><text text-anchor="end" x="79" y="4.199999999999999" style="font-family: 'Open Sans', verdana, arial, sans-serif; font-size: 12px; fill: rgb(42, 63, 95); fill-opacity: 1; white-space: pre; opacity: 1;" transform="translate(0,105.69)">$12M</text></g></g><g class="overaxes-above"/></g></g><g class="polarlayer"/><g class="smithlayer"/><g class="ternarylayer"/><g class="geolayer"/><g class="funnelarealayer"/><g class="pielayer"/><g class="iciclelayer"/><g class="treemaplayer"/><g class="sunburstlayer"/><g class="glimages"/><defs id="topdefs-476a0d"><g class="clips"/></defs><g class="layer-above"><g class="imagelayer"/><g class="shapelayer"/></g><g class="infolayer"><g class="g-gtitle"><text class="gtitle" x="35" y="50" text-anchor="start" dy="0em" style="font-family: 'Open Sans', verdana, arial, sans-serif; font-size: 17px; fill: rgb(42, 63, 95); opacity: 1; font-weight: normal; white-space: pre;"><tspan class="line" dy="0em" x="35" y="50">Dforce</tspan><tspan class="line" dy="1.3em" x="35" y="50">​<tspan style="font-size:70%" dy="-0.6em">Cumulative Net Flows since Program Announcement, Until Program End + 30 Days</tspan><tspan dy="0.42em">​</tspan></tspan></text></g><g class="g-xtitle"><text class="xtitle" x="350" y="460.3" text-anchor="middle" style="font-family: 'Open Sans', verdana, arial, sans-serif; font-size: 14px; fill: rgb(42, 63, 95); opacity: 1; font-weight: normal; white-space: pre;">Day</text></g><g class="g-ytitle"><text class="ytitle" transform="rotate(-90,24.668750000000003,260)" x="24.668750000000003" y="260" text-anchor="middle" style="font-family: 'Open Sans', verdana, arial, sans-serif; font-size: 14px; fill: rgb(42, 63, 95); opacity: 1; font-weight: normal; white-space: pre;">Cumulative Net Flows (USD)</text></g></g></svg>