<svg class="main-svg" xmlns="http://www.w3.org/2000/svg" xmlns:xlink="http://www.w3.org/1999/xlink" width="700" height="500" style="" viewBox="0 0 700 500"><rect x="0" y="0" width="700" height="500" style="fill: rgb(255, 255, 255); fill-opacity: 1;"/><defs id="defs-b2bbca"><g class="clips"><clipPath id="clipb2bbcaxyplot" class="plotclip"><rect width="540" height="320"/></clipPath><clipPath class="axesclip" id="clipb2bbcax"><rect x="80" y="0" width="540" height="500"/></clipPath><clipPath class="axesclip" id="clipb2bbcay"><rect x="0" y="100" width="700" height="320"/></clipPath><clipPath class="axesclip" id="clipb2bbcaxy"><rect x="80" y="100" width="540" height="320"/></clipPath></g><g class="gradients"/><g class="patterns"/></defs><g class="bglayer"><rect class="bg" x="80" y="100" width="540" height="320" style="fill: rgb(229, 236, 246); fill-opacity: 1; stroke-width: 0;"/></g><g class="layer-below"><g class="imagelayer"/><g class="shapelayer"/></g><g class="cartesianlayer"><g class="subplot xy"><g class="layer-subplot"><g class="shapelayer"/><g class="imagelayer"/></g><g class="minor-gridlayer"><g class="x"/><g class="y"/></g><g class="gridlayer"><g class="x"><path class="xgrid crisp" transform="translate(89.87,0)" d="M0,100v320" style="stroke: rgb(255, 255, 255); stroke-opacity: 1; stroke-width: 1px;"/><path class="xgrid crisp" transform="translate(165.09,0)" d="M0,100v320" style="stroke: rgb(255, 255, 255); stroke-opacity: 1; stroke-width: 1px;"/><path class="xgrid crisp" transform="translate(237.85,0)" d="M0,100v320" style="stroke: rgb(255, 255, 255); stroke-opacity: 1; stroke-width: 1px;"/><path class="xgrid crisp" transform="translate(313.08000000000004,0)" d="M0,100v320" style="stroke: rgb(255, 255, 255); stroke-opacity: 1; stroke-width: 1px;"/><path class="xgrid crisp" transform="translate(388.31,0)" d="M0,100v320" style="stroke: rgb(255, 255, 255); stroke-opacity: 1; stroke-width: 1px;"/><path class="xgrid crisp" transform="translate(464.77,0)" d="M0,100v320" style="stroke: rgb(255, 255, 255); stroke-opacity: 1; stroke-width: 1px;"/><path class="xgrid crisp" transform="translate(540,0)" d="M0,100v320" style="stroke: rgb(255, 255, 255); stroke-opacity: 1; stroke-width: 1px;"/><path class="xgrid crisp" transform="translate(615.23,0)" d="M0,100v320" style="stroke: rgb(255, 255, 255); stroke-opacity: 1; stroke-width: 1px;"/></g><g class="y"><path class="ygrid crisp" transform="translate(0,398.22)" d="M80,0h540" style="stroke: rgb(255, 255, 255); stroke-opacity: 1; stroke-width: 1px;"/><path class="ygrid crisp" transform="translate(0,362.6)" d="M80,0h540" style="stroke: rgb(255, 255, 255); stroke-opacity: 1; stroke-width: 1px;"/><path class="ygrid crisp" transform="translate(0,326.97)" d="M80,0h540" style="stroke: rgb(255, 255, 255); stroke-opacity: 1; stroke-width: 1px;"/><path class="ygrid crisp" transform="translate(0,255.72)" d="M80,0h540" style="stroke: rgb(255, 255, 255); stroke-opacity: 1; stroke-width: 1px;"/><path class="ygrid crisp" transform="translate(0,220.1)" d="M80,0h540" style="stroke: rgb(255, 255, 255); stroke-opacity: 1; stroke-width: 1px;"/><path class="ygrid crisp" transform="translate(0,184.47)" d="M80,0h540" style="stroke: rgb(255, 255, 255); stroke-opacity: 1; stroke-width: 1px;"/><path class="ygrid crisp" transform="translate(0,148.84)" d="M80,0h540" style="stroke: rgb(255, 255, 255); stroke-opacity: 1; stroke-width: 1px;"/><path class="ygrid crisp" transform="translate(0,113.22)" d="M80,0h540" style="stroke: rgb(255, 255, 255); stroke-opacity: 1; stroke-width: 1px;"/></g></g><g class="zerolinelayer"><path class="yzl zl crisp" transform="translate(0,291.35)" d="M80,0h540" style="stroke: rgb(255, 255, 255); stroke-opacity: 1; stroke-width: 2px;"/></g><path class="xlines-below"/><path class="ylines-below"/><g class="overlines-below"/><g class="xaxislayer-below"/><g class="yaxislayer-below"/><g class="overaxes-below"/><g class="plot" transform="translate(80,100)" clip-path="url(#clipb2bbcaxyplot)"><g class="scatterlayer mlayer"><g class="trace scatter traceeb2ca4" style="stroke-miterlimit: 2;"><g class="fills"><g><path class="js-fill" d="M540,191.35L0,191.35L0,190.04L1.23,189.53L2.47,181.34L3.7,174.88L4.93,177.17L7.4,158.22L8.63,158.41L12.33,142.59L13.57,131.58L14.8,119.23L16.03,120.75L18.5,127.82L19.73,150.38L20.97,167.3L22.2,165.13L23.43,167.77L24.66,168.53L25.9,170.7L27.13,178.65L28.36,180.64L29.6,189.62L30.83,184.24L32.06,182.89L33.3,180.94L34.53,185.97L35.76,188.26L37,185.41L39.46,180.24L40.7,185.12L43.16,185.45L44.4,186.68L46.86,180.18L48.1,181.29L49.33,178.64L50.56,180.16L53.03,176.88L54.26,172.31L57.96,171.88L59.2,170.71L60.43,168.35L61.66,168.04L64.13,165.38L65.36,168.02L66.6,175.51L67.83,174.23L69.06,174.04L70.29,175.14L72.76,176.42L73.99,164.4L75.23,222.2L76.46,162.67L77.69,162.81L78.93,161.43L80.16,161.15L81.39,164.55L83.86,162.83L85.09,165.21L86.33,165.63L87.56,164.61L88.79,165.04L90.03,161.36L91.26,161.53L92.49,156.29L93.73,154.86L94.96,151.43L96.19,146.6L97.43,145.75L101.13,128.66L102.36,131.45L103.59,128.08L104.83,127.66L106.06,128.27L107.29,144.13L109.76,131.02L110.99,131.21L112.23,130.76L113.46,127.84L114.69,131.63L115.92,119.16L117.16,114.25L118.39,113.93L119.62,111.71L120.86,106.24L122.09,111.04L123.32,108.39L124.56,102.88L125.79,102.6L127.02,103.98L128.26,97.16L129.49,98.48L130.72,106.31L131.96,98.1L133.19,100.72L134.42,101.25L135.66,93.86L136.89,85.18L138.12,84.93L139.36,76.32L140.59,74.98L141.82,62.16L143.06,65.41L147.99,44.6L149.22,44.09L150.46,40.37L151.69,41.26L154.16,32.68L155.39,23.56L156.62,23.56L157.85,26.63L159.09,20.36L160.32,21.5L161.55,23.3L162.79,21.51L164.02,19.55L165.25,16L166.49,16.57L167.72,21L170.19,52.83L171.42,94.71L173.89,57.65L175.12,51.5L176.35,54.83L177.59,41.31L178.82,31.45L180.05,32.11L181.29,29.26L182.52,31.42L183.75,32.04L184.99,26.96L186.22,25.27L187.45,38.16L188.69,40.52L189.92,39.56L191.15,47.49L192.39,42.86L193.62,40.8L194.85,44.37L197.32,41.4L198.55,48.45L199.79,49.88L201.02,42.1L202.25,40.88L203.48,49.39L204.72,50.33L205.95,46.55L207.18,46.19L208.42,41.81L209.65,45.03L210.88,43.41L212.12,33.91L213.35,34.43L214.58,36.27L215.82,35.73L217.05,37.12L218.28,33.12L220.75,51.18L221.98,56.55L223.22,52.28L224.45,53.52L226.92,50.02L228.15,46.58L230.62,40.91L231.85,41.1L233.08,42.62L234.32,48.3L235.55,47.26L236.78,44.63L238.02,48.63L239.25,46.91L240.48,59.59L241.72,63.18L242.95,68.54L244.18,68.72L246.65,77.75L247.88,78.48L251.58,80.83L252.81,82.46L254.05,80.04L255.28,80.04L256.51,81.16L257.75,81.01L258.98,82.34L260.21,81.54L261.45,77.93L262.68,86.29L263.91,85.22L265.15,82.94L266.38,84.17L267.61,78.47L270.08,81.97L271.31,84.82L272.55,83.25L273.78,79.38L276.25,80.62L277.48,85.67L278.71,78.42L279.95,83.13L281.18,81.53L282.41,85.89L283.65,96.37L284.88,97.53L286.11,98.47L287.35,101.18L288.58,106.74L289.81,108.75L292.28,102.61L293.51,103.17L294.74,104.98L295.98,98.68L297.21,96.36L298.44,100.83L299.68,101.99L300.91,105.4L302.14,104.24L303.38,106.68L304.61,104.98L305.84,117.18L307.08,131.89L308.31,123.95L309.54,128.66L310.78,123.86L312.01,121.56L313.24,120.94L314.48,122.53L315.71,130.79L316.94,133.97L318.18,133.53L319.41,136.4L320.64,136.46L321.88,138.18L323.11,142.66L324.34,137.89L325.58,140.79L329.28,140.49L330.51,137.52L332.98,129.12L334.21,130.57L335.44,128.68L336.68,125.13L339.14,130.78L340.37,130.28L341.61,132.34L342.84,132.42L344.07,130.72L345.31,147.17L350.24,158.1L351.47,158.58L352.71,164.67L353.94,164.19L356.41,162.49L357.64,166.85L360.11,174.85L361.34,174.66L363.81,177.32L365.04,180.23L366.27,182.68L367.51,188.8L369.97,196.13L371.21,196.28L372.44,197.24L373.67,194.61L374.91,186.54L376.14,183.77L381.07,191.66L382.31,190.22L383.54,192.44L384.77,203.41L387.24,206.29L388.47,207.04L389.7,205.71L390.94,206.53L392.17,208.32L393.4,205.69L395.87,208.23L397.1,209.57L398.34,210.32L399.57,209.01L400.8,208.84L402.04,212.7L403.27,211.74L404.5,208.72L405.74,209.22L406.97,207.12L409.44,194.1L410.67,197.86L413.14,198.1L414.37,196.96L415.6,197.7L416.84,192.65L418.07,191.93L419.3,193.9L420.54,190.3L421.77,190.18L424.24,183.6L425.47,184.98L426.7,185.21L427.93,186.7L429.17,185.62L430.4,185.73L431.63,186.19L432.87,188.76L434.1,190.44L435.33,198.18L437.8,202.64L439.03,202.86L441.5,201.76L442.73,208.11L445.2,208.78L446.43,207.4L447.67,210.21L448.9,209.61L451.37,206.84L452.6,206.31L453.83,210.64L455.07,210.85L456.3,210.97L457.53,210.04L458.77,212.14L460,210.96L461.23,208.26L462.47,210.65L463.7,211.77L464.93,206.36L466.17,203.76L467.4,206.53L469.87,208.02L471.1,201.23L472.33,198.95L473.56,199.11L474.8,195.38L476.03,194.39L477.26,194.47L478.5,191.58L479.73,195.13L480.96,195.91L484.66,193.25L485.9,196.47L487.13,192.02L488.36,193.33L489.6,192.42L490.83,194.72L492.06,195.32L493.3,196.85L494.53,196.84L495.76,199.76L497,199.21L498.23,196.31L500.7,194.29L501.93,193.89L503.16,190.74L504.4,190.05L506.86,199.46L508.1,200.05L509.33,198.56L510.56,203.88L511.8,205.85L513.03,204.74L514.26,203.79L515.5,205.77L517.96,207.34L519.19,206.71L520.43,208.64L521.66,206.6L524.13,201.7L525.36,200.65L526.59,197.24L527.83,197.5L529.06,198.3L530.29,194.23L531.53,193.89L532.76,192.37L533.99,193.16L535.23,192.48L537.69,188.99L538.77,194.95L538.93,304L540,304" style="fill: rgb(99, 110, 250); fill-opacity: 0.5; stroke-width: 0;"/></g></g><g class="errorbars"/><g class="lines"><path class="js-line" d="M0,190.04L1.23,189.53L2.47,181.34L3.7,174.88L4.93,177.17L7.4,158.22L8.63,158.41L12.33,142.59L13.57,131.58L14.8,119.23L16.03,120.75L18.5,127.82L19.73,150.38L20.97,167.3L22.2,165.13L23.43,167.77L24.66,168.53L25.9,170.7L27.13,178.65L28.36,180.64L29.6,189.62L30.83,184.24L32.06,182.89L33.3,180.94L34.53,185.97L35.76,188.26L37,185.41L39.46,180.24L40.7,185.12L43.16,185.45L44.4,186.68L46.86,180.18L48.1,181.29L49.33,178.64L50.56,180.16L53.03,176.88L54.26,172.31L57.96,171.88L59.2,170.71L60.43,168.35L61.66,168.04L64.13,165.38L65.36,168.02L66.6,175.51L67.83,174.23L69.06,174.04L70.29,175.14L72.76,176.42L73.99,164.4L75.23,222.2L76.46,162.67L77.69,162.81L78.93,161.43L80.16,161.15L81.39,164.55L83.86,162.83L85.09,165.21L86.33,165.63L87.56,164.61L88.79,165.04L90.03,161.36L91.26,161.53L92.49,156.29L93.73,154.86L94.96,151.43L96.19,146.6L97.43,145.75L101.13,128.66L102.36,131.45L103.59,128.08L104.83,127.66L106.06,128.27L107.29,144.13L109.76,131.02L110.99,131.21L112.23,130.76L113.46,127.84L114.69,131.63L115.92,119.16L117.16,114.25L118.39,113.93L119.62,111.71L120.86,106.24L122.09,111.04L123.32,108.39L124.56,102.88L125.79,102.6L127.02,103.98L128.26,97.16L129.49,98.48L130.72,106.31L131.96,98.1L133.19,100.72L134.42,101.25L135.66,93.86L136.89,85.18L138.12,84.93L139.36,76.32L140.59,74.98L141.82,62.16L143.06,65.41L147.99,44.6L149.22,44.09L150.46,40.37L151.69,41.26L154.16,32.68L155.39,23.56L156.62,23.56L157.85,26.63L159.09,20.36L160.32,21.5L161.55,23.3L162.79,21.51L164.02,19.55L165.25,16L166.49,16.57L167.72,21L170.19,52.83L171.42,94.71L173.89,57.65L175.12,51.5L176.35,54.83L177.59,41.31L178.82,31.45L180.05,32.11L181.29,29.26L182.52,31.42L183.75,32.04L184.99,26.96L186.22,25.27L187.45,38.16L188.69,40.52L189.92,39.56L191.15,47.49L192.39,42.86L193.62,40.8L194.85,44.37L197.32,41.4L198.55,48.45L199.79,49.88L201.02,42.1L202.25,40.88L203.48,49.39L204.72,50.33L205.95,46.55L207.18,46.19L208.42,41.81L209.65,45.03L210.88,43.41L212.12,33.91L213.35,34.43L214.58,36.27L215.82,35.73L217.05,37.12L218.28,33.12L220.75,51.18L221.98,56.55L223.22,52.28L224.45,53.52L226.92,50.02L228.15,46.58L230.62,40.91L231.85,41.1L233.08,42.62L234.32,48.3L235.55,47.26L236.78,44.63L238.02,48.63L239.25,46.91L240.48,59.59L241.72,63.18L242.95,68.54L244.18,68.72L246.65,77.75L247.88,78.48L251.58,80.83L252.81,82.46L254.05,80.04L255.28,80.04L256.51,81.16L257.75,81.01L258.98,82.34L260.21,81.54L261.45,77.93L262.68,86.29L263.91,85.22L265.15,82.94L266.38,84.17L267.61,78.47L270.08,81.97L271.31,84.82L272.55,83.25L273.78,79.38L276.25,80.62L277.48,85.67L278.71,78.42L279.95,83.13L281.18,81.53L282.41,85.89L283.65,96.37L284.88,97.53L286.11,98.47L287.35,101.18L288.58,106.74L289.81,108.75L292.28,102.61L293.51,103.17L294.74,104.98L295.98,98.68L297.21,96.36L298.44,100.83L299.68,101.99L300.91,105.4L302.14,104.24L303.38,106.68L304.61,104.98L305.84,117.18L307.08,131.89L308.31,123.95L309.54,128.66L310.78,123.86L312.01,121.56L313.24,120.94L314.48,122.53L315.71,130.79L316.94,133.97L318.18,133.53L319.41,136.4L320.64,136.46L321.88,138.18L323.11,142.66L324.34,137.89L325.58,140.79L329.28,140.49L330.51,137.52L332.98,129.12L334.21,130.57L335.44,128.68L336.68,125.13L339.14,130.78L340.37,130.28L341.61,132.34L342.84,132.42L344.07,130.72L345.31,147.17L350.24,158.1L351.47,158.58L352.71,164.67L353.94,164.19L356.41,162.49L357.64,166.85L360.11,174.85L361.34,174.66L363.81,177.32L365.04,180.23L366.27,182.68L367.51,188.8L369.97,196.13L371.21,196.28L372.44,197.24L373.67,194.61L374.91,186.54L376.14,183.77L381.07,191.66L382.31,190.22L383.54,192.44L384.77,203.41L387.24,206.29L388.47,207.04L389.7,205.71L390.94,206.53L392.17,208.32L393.4,205.69L395.87,208.23L397.1,209.57L398.34,210.32L399.57,209.01L400.8,208.84L402.04,212.7L403.27,211.74L404.5,208.72L405.74,209.22L406.97,207.12L409.44,194.1L410.67,197.86L413.14,198.1L414.37,196.96L415.6,197.7L416.84,192.65L418.07,191.93L419.3,193.9L420.54,190.3L421.77,190.18L424.24,183.6L425.47,184.98L426.7,185.21L427.93,186.7L429.17,185.62L430.4,185.73L431.63,186.19L432.87,188.76L434.1,190.44L435.33,198.18L437.8,202.64L439.03,202.86L441.5,201.76L442.73,208.11L445.2,208.78L446.43,207.4L447.67,210.21L448.9,209.61L451.37,206.84L452.6,206.31L453.83,210.64L455.07,210.85L456.3,210.97L457.53,210.04L458.77,212.14L460,210.96L461.23,208.26L462.47,210.65L463.7,211.77L464.93,206.36L466.17,203.76L467.4,206.53L469.87,208.02L471.1,201.23L472.33,198.95L473.56,199.11L474.8,195.38L476.03,194.39L477.26,194.47L478.5,191.58L479.73,195.13L480.96,195.91L484.66,193.25L485.9,196.47L487.13,192.02L488.36,193.33L489.6,192.42L490.83,194.72L492.06,195.32L493.3,196.85L494.53,196.84L495.76,199.76L497,199.21L498.23,196.31L500.7,194.29L501.93,193.89L503.16,190.74L504.4,190.05L506.86,199.46L508.1,200.05L509.33,198.56L510.56,203.88L511.8,205.85L513.03,204.74L514.26,203.79L515.5,205.77L517.96,207.34L519.19,206.71L520.43,208.64L521.66,206.6L524.13,201.7L525.36,200.65L526.59,197.24L527.83,197.5L529.06,198.3L530.29,194.23L531.53,193.89L532.76,192.37L533.99,193.16L535.23,192.48L537.69,188.99L538.77,194.95L538.93,304L540,304" style="vector-effect: none; fill: none; stroke: rgb(99, 110, 250); stroke-opacity: 1; stroke-width: 2px; opacity: 1;"/></g><g class="points"/><g class="text"/></g></g></g><g class="overplot"/><path class="xlines-above crisp" d="M0,0" style="fill: none;"/><path class="ylines-above crisp" d="M0,0" style="fill: none;"/><g class="overlines-above"/><g class="xaxislayer-above"><g class="xtick"><text text-anchor="middle" x="0" y="433" transform="translate(89.87,0)" style="font-family: 'Open Sans', verdana, arial, sans-serif; font-size: 12px; fill: rgb(42, 63, 95); fill-opacity: 1; white-space: pre; opacity: 1;">Nov 2022</text></g><g class="xtick"><text text-anchor="middle" x="0" y="433" style="font-family: 'Open Sans', verdana, arial, sans-serif; font-size: 12px; fill: rgb(42, 63, 95); fill-opacity: 1; white-space: pre; opacity: 1;" transform="translate(165.09,0)">Jan 2023</text></g><g class="xtick"><text text-anchor="middle" x="0" y="433" style="font-family: 'Open Sans', verdana, arial, sans-serif; font-size: 12px; fill: rgb(42, 63, 95); fill-opacity: 1; white-space: pre; opacity: 1;" transform="translate(237.85,0)">Mar 2023</text></g><g class="xtick"><text text-anchor="middle" x="0" y="433" style="font-family: 'Open Sans', verdana, arial, sans-serif; font-size: 12px; fill: rgb(42, 63, 95); fill-opacity: 1; white-space: pre; opacity: 1;" transform="translate(313.08000000000004,0)">May 2023</text></g><g class="xtick"><text text-anchor="middle" x="0" y="433" style="font-family: 'Open Sans', verdana, arial, sans-serif; font-size: 12px; fill: rgb(42, 63, 95); fill-opacity: 1; white-space: pre; opacity: 1;" transform="translate(388.31,0)">Jul 2023</text></g><g class="xtick"><text text-anchor="middle" x="0" y="433" style="font-family: 'Open Sans', verdana, arial, sans-serif; font-size: 12px; fill: rgb(42, 63, 95); fill-opacity: 1; white-space: pre; opacity: 1;" transform="translate(464.77,0)">Sep 2023</text></g><g class="xtick"><text text-anchor="middle" x="0" y="433" style="font-family: 'Open Sans', verdana, arial, sans-serif; font-size: 12px; fill: rgb(42, 63, 95); fill-opacity: 1; white-space: pre; opacity: 1;" transform="translate(540,0)">Nov 2023</text></g><g class="xtick"><text text-anchor="middle" x="0" y="433" style="font-family: 'Open Sans', verdana, arial, sans-serif; font-size: 12px; fill: rgb(42, 63, 95); fill-opacity: 1; white-space: pre; opacity: 1;" transform="translate(615.23,0)">Jan 2024</text></g></g><g class="yaxislayer-above"><g class="ytick"><text text-anchor="end" x="79" y="4.199999999999999" transform="translate(0,398.22)" style="font-family: 'Open Sans', verdana, arial, sans-serif; font-size: 12px; fill: rgb(42, 63, 95); fill-opacity: 1; white-space: pre; opacity: 1;">$−30M</text></g><g class="ytick"><text text-anchor="end" x="79" y="4.199999999999999" style="font-family: 'Open Sans', verdana, arial, sans-serif; font-size: 12px; fill: rgb(42, 63, 95); fill-opacity: 1; white-space: pre; opacity: 1;" transform="translate(0,362.6)">$−20M</text></g><g class="ytick"><text text-anchor="end" x="79" y="4.199999999999999" style="font-family: 'Open Sans', verdana, arial, sans-serif; font-size: 12px; fill: rgb(42, 63, 95); fill-opacity: 1; white-space: pre; opacity: 1;" transform="translate(0,326.97)">$−10M</text></g><g class="ytick"><text text-anchor="end" x="79" y="4.199999999999999" style="font-family: 'Open Sans', verdana, arial, sans-serif; font-size: 12px; fill: rgb(42, 63, 95); fill-opacity: 1; white-space: pre; opacity: 1;" transform="translate(0,291.35)">$0</text></g><g class="ytick"><text text-anchor="end" x="79" y="4.199999999999999" style="font-family: 'Open Sans', verdana, arial, sans-serif; font-size: 12px; fill: rgb(42, 63, 95); fill-opacity: 1; white-space: pre; opacity: 1;" transform="translate(0,255.72)">$10M</text></g><g class="ytick"><text text-anchor="end" x="79" y="4.199999999999999" style="font-family: 'Open Sans', verdana, arial, sans-serif; font-size: 12px; fill: rgb(42, 63, 95); fill-opacity: 1; white-space: pre; opacity: 1;" transform="translate(0,220.1)">$20M</text></g><g class="ytick"><text text-anchor="end" x="79" y="4.199999999999999" style="font-family: 'Open Sans', verdana, arial, sans-serif; font-size: 12px; fill: rgb(42, 63, 95); fill-opacity: 1; white-space: pre; opacity: 1;" transform="translate(0,184.47)">$30M</text></g><g class="ytick"><text text-anchor="end" x="79" y="4.199999999999999" style="font-family: 'Open Sans', verdana, arial, sans-serif; font-size: 12px; fill: rgb(42, 63, 95); fill-opacity: 1; white-space: pre; opacity: 1;" transform="translate(0,148.84)">$40M</text></g><g class="ytick"><text text-anchor="end" x="79" y="4.199999999999999" style="font-family: 'Open Sans', verdana, arial, sans-serif; font-size: 12px; fill: rgb(42, 63, 95); fill-opacity: 1; white-space: pre; opacity: 1;" transform="translate(0,113.22)">$50M</text></g></g><g class="overaxes-above"/></g></g><g class="polarlayer"/><g class="smithlayer"/><g class="ternarylayer"/><g class="geolayer"/><g class="funnelarealayer"/><g class="pielayer"/><g class="iciclelayer"/><g class="treemaplayer"/><g class="sunburstlayer"/><g class="glimages"/><defs id="topdefs-b2bbca"><g class="clips"/></defs><g class="layer-above"><g class="imagelayer"/><g class="shapelayer"/></g><g class="infolayer"><g class="g-gtitle"><text class="gtitle" x="35" y="50" text-anchor="start" dy="0em" style="font-family: 'Open Sans', verdana, arial, sans-serif; font-size: 17px; fill: rgb(42, 63, 95); opacity: 1; font-weight: normal; white-space: pre;"><tspan class="line" dy="0em" x="35" y="50">Beefy</tspan><tspan class="line" dy="1.3em" x="35" y="50">​<tspan style="font-size:70%" dy="-0.6em">Cumulative Net Flows since Program Announcement, Until Program End + 30 Days</tspan><tspan dy="0.42em">​</tspan></tspan></text></g><g class="g-xtitle"><text class="xtitle" x="350" y="460.3" text-anchor="middle" style="font-family: 'Open Sans', verdana, arial, sans-serif; font-size: 14px; fill: rgb(42, 63, 95); opacity: 1; font-weight: normal; white-space: pre;">Day</text></g><g class="g-ytitle"><text class="ytitle" transform="rotate(-90,17.668750000000003,260)" x="17.668750000000003" y="260" text-anchor="middle" style="font-family: 'Open Sans', verdana, arial, sans-serif; font-size: 14px; fill: rgb(42, 63, 95); opacity: 1; font-weight: normal; white-space: pre;">Cumulative Net Flows (USD)</text></g></g></svg>