<svg class="main-svg" xmlns="http://www.w3.org/2000/svg" xmlns:xlink="http://www.w3.org/1999/xlink" width="700" height="500" style="" viewBox="0 0 700 500"><rect x="0" y="0" width="700" height="500" style="fill: rgb(255, 255, 255); fill-opacity: 1;"/><defs id="defs-250050"><g class="clips"><clipPath id="clip250050xyplot" class="plotclip"><rect width="540" height="320"/></clipPath><clipPath class="axesclip" id="clip250050x"><rect x="80" y="0" width="540" height="500"/></clipPath><clipPath class="axesclip" id="clip250050y"><rect x="0" y="100" width="700" height="320"/></clipPath><clipPath class="axesclip" id="clip250050xy"><rect x="80" y="100" width="540" height="320"/></clipPath></g><g class="gradients"/><g class="patterns"/></defs><g class="bglayer"><rect class="bg" x="80" y="100" width="540" height="320" style="fill: rgb(229, 236, 246); fill-opacity: 1; stroke-width: 0;"/></g><g class="layer-below"><g class="imagelayer"/><g class="shapelayer"/></g><g class="cartesianlayer"><g class="subplot xy"><g class="layer-subplot"><g class="shapelayer"/><g class="imagelayer"/></g><g class="minor-gridlayer"><g class="x"/><g class="y"/></g><g class="gridlayer"><g class="x"><path class="xgrid crisp" transform="translate(89.95,0)" d="M0,100v320" style="stroke: rgb(255, 255, 255); stroke-opacity: 1; stroke-width: 1px;"/><path class="xgrid crisp" transform="translate(167.1,0)" d="M0,100v320" style="stroke: rgb(255, 255, 255); stroke-opacity: 1; stroke-width: 1px;"/><path class="xgrid crisp" transform="translate(241.75,0)" d="M0,100v320" style="stroke: rgb(255, 255, 255); stroke-opacity: 1; stroke-width: 1px;"/><path class="xgrid crisp" transform="translate(318.89,0)" d="M0,100v320" style="stroke: rgb(255, 255, 255); stroke-opacity: 1; stroke-width: 1px;"/><path class="xgrid crisp" transform="translate(396.04,0)" d="M0,100v320" style="stroke: rgb(255, 255, 255); stroke-opacity: 1; stroke-width: 1px;"/><path class="xgrid crisp" transform="translate(465.71,0)" d="M0,100v320" style="stroke: rgb(255, 255, 255); stroke-opacity: 1; stroke-width: 1px;"/><path class="xgrid crisp" transform="translate(542.86,0)" d="M0,100v320" style="stroke: rgb(255, 255, 255); stroke-opacity: 1; stroke-width: 1px;"/><path class="xgrid crisp" transform="translate(617.51,0)" d="M0,100v320" style="stroke: rgb(255, 255, 255); stroke-opacity: 1; stroke-width: 1px;"/></g><g class="y"><path class="ygrid crisp" transform="translate(0,352.09000000000003)" d="M80,0h540" style="stroke: rgb(255, 255, 255); stroke-opacity: 1; stroke-width: 1px;"/><path class="ygrid crisp" transform="translate(0,309.12)" d="M80,0h540" style="stroke: rgb(255, 255, 255); stroke-opacity: 1; stroke-width: 1px;"/><path class="ygrid crisp" transform="translate(0,266.15)" d="M80,0h540" style="stroke: rgb(255, 255, 255); stroke-opacity: 1; stroke-width: 1px;"/><path class="ygrid crisp" transform="translate(0,223.18)" d="M80,0h540" style="stroke: rgb(255, 255, 255); stroke-opacity: 1; stroke-width: 1px;"/><path class="ygrid crisp" transform="translate(0,180.20999999999998)" d="M80,0h540" style="stroke: rgb(255, 255, 255); stroke-opacity: 1; stroke-width: 1px;"/><path class="ygrid crisp" transform="translate(0,137.24)" d="M80,0h540" style="stroke: rgb(255, 255, 255); stroke-opacity: 1; stroke-width: 1px;"/></g></g><g class="zerolinelayer"><path class="yzl zl crisp" transform="translate(0,395.06)" d="M80,0h540" style="stroke: rgb(255, 255, 255); stroke-opacity: 1; stroke-width: 2px;"/></g><path class="xlines-below"/><path class="ylines-below"/><g class="overlines-below"/><g class="xaxislayer-below"/><g class="yaxislayer-below"/><g class="overaxes-below"/><g class="plot" transform="translate(80,100)" clip-path="url(#clip250050xyplot)"><g class="scatterlayer mlayer"><g class="trace scatter tracef22e54" style="stroke-miterlimit: 2;"><g class="fills"><g><path class="js-fill" d="M540,295.06L0,295.06L0,253.32L2.49,252.48L4.98,245.29L9.95,244.41L12.44,241.34L14.93,240.71L17.42,238.62L19.91,231.98L22.4,234.4L24.88,232.65L27.37,232.08L29.86,232.35L32.35,231.68L34.84,234.3L37.33,235.45L39.82,237.85L42.3,236.37L47.28,236.19L49.77,234.6L67.19,234.43L69.68,235.55L82.12,232.82L84.61,232.5L89.59,230.96L92.07,227.55L97.05,226.62L99.54,224.95L102.03,220.88L104.52,221.37L107,221.49L109.49,223.87L111.98,225.99L114.47,229.53L116.96,232.3L119.45,232.13L124.42,232.78L126.91,227.48L129.4,229.27L131.89,229.42L139.35,226.41L141.84,226.89L144.33,226.89L146.82,225.86L151.8,225.33L154.29,224.82L156.77,225.25L159.26,224.23L166.73,224.06L169.22,223.87L171.71,223.95L174.19,228.16L176.68,228.97L179.17,228.53L186.64,226.61L189.12,222.19L191.61,218.96L194.1,218.6L196.59,225.93L199.08,225.83L204.06,225.86L206.54,225L209.03,223.78L211.52,223.65L216.5,222.62L218.99,222.7L226.45,222.22L228.94,223.34L243.87,223.25L246.36,224.26L251.34,224.03L253.82,224.03L261.29,223.99L263.78,222.45L266.27,221.56L268.76,219.6L273.73,218.77L276.22,217.7L281.2,211.92L283.69,209.95L286.18,209.17L288.66,201.42L291.15,198.58L293.64,197.64L296.13,189.25L298.62,183.91L301.11,176.28L303.59,176.03L308.57,171.3L311.06,170.79L313.55,171.27L316.04,169.84L321.01,168.17L323.5,169.27L325.99,168.81L328.48,166.37L330.97,149.35L333.46,140.59L343.41,139.48L345.9,139.57L350.88,131.41L353.36,120.35L355.85,118.25L358.34,120.94L363.32,112.79L365.81,82.28L368.29,79.58L370.78,79.68L373.27,61.73L375.76,57.01L378.25,34.2L380.74,27.11L383.23,27.17L385.71,26.43L388.2,25.14L390.69,27.12L393.18,27.77L395.67,29.79L398.16,34.51L400.65,25.68L403.13,16L405.62,17.99L408.11,21.89L410.6,58.89L413.09,65.81L415.58,56.07L418.06,51.05L420.55,53.78L423.04,59.59L425.53,59.6L428.02,56.35L430.51,58.19L433,55.05L435.48,58.12L437.97,56.54L440.46,65.1L442.95,66.69L445.44,69.47L450.41,76.47L452.9,76.95L455.39,77.14L457.88,92.16L460.37,179.03L462.86,180.99L467.83,203.76L470.32,208.05L472.81,214.33L475.3,225.41L477.79,230.04L480.28,231.84L482.76,234.31L485.25,239.7L487.74,248.1L490.23,253.85L495.21,279.38L497.7,280.81L500.18,283.6L502.67,282.98L507.65,287.87L510.14,295.89L512.63,297.29L515.12,297.53L520.09,298.3L522.58,300.77L525.07,300.78L527.56,302.28L537.51,304L540,303.99" style="fill: rgb(99, 110, 250); fill-opacity: 0.5; stroke-width: 0;"/></g></g><g class="errorbars"/><g class="lines"><path class="js-line" d="M0,253.32L2.49,252.48L4.98,245.29L9.95,244.41L12.44,241.34L14.93,240.71L17.42,238.62L19.91,231.98L22.4,234.4L24.88,232.65L27.37,232.08L29.86,232.35L32.35,231.68L34.84,234.3L37.33,235.45L39.82,237.85L42.3,236.37L47.28,236.19L49.77,234.6L67.19,234.43L69.68,235.55L82.12,232.82L84.61,232.5L89.59,230.96L92.07,227.55L97.05,226.62L99.54,224.95L102.03,220.88L104.52,221.37L107,221.49L109.49,223.87L111.98,225.99L114.47,229.53L116.96,232.3L119.45,232.13L124.42,232.78L126.91,227.48L129.4,229.27L131.89,229.42L139.35,226.41L141.84,226.89L144.33,226.89L146.82,225.86L151.8,225.33L154.29,224.82L156.77,225.25L159.26,224.23L166.73,224.06L169.22,223.87L171.71,223.95L174.19,228.16L176.68,228.97L179.17,228.53L186.64,226.61L189.12,222.19L191.61,218.96L194.1,218.6L196.59,225.93L199.08,225.83L204.06,225.86L206.54,225L209.03,223.78L211.52,223.65L216.5,222.62L218.99,222.7L226.45,222.22L228.94,223.34L243.87,223.25L246.36,224.26L251.34,224.03L253.82,224.03L261.29,223.99L263.78,222.45L266.27,221.56L268.76,219.6L273.73,218.77L276.22,217.7L281.2,211.92L283.69,209.95L286.18,209.17L288.66,201.42L291.15,198.58L293.64,197.64L296.13,189.25L298.62,183.91L301.11,176.28L303.59,176.03L308.57,171.3L311.06,170.79L313.55,171.27L316.04,169.84L321.01,168.17L323.5,169.27L325.99,168.81L328.48,166.37L330.97,149.35L333.46,140.59L343.41,139.48L345.9,139.57L350.88,131.41L353.36,120.35L355.85,118.25L358.34,120.94L363.32,112.79L365.81,82.28L368.29,79.58L370.78,79.68L373.27,61.73L375.76,57.01L378.25,34.2L380.74,27.11L383.23,27.17L385.71,26.43L388.2,25.14L390.69,27.12L393.18,27.77L395.67,29.79L398.16,34.51L400.65,25.68L403.13,16L405.62,17.99L408.11,21.89L410.6,58.89L413.09,65.81L415.58,56.07L418.06,51.05L420.55,53.78L423.04,59.59L425.53,59.6L428.02,56.35L430.51,58.19L433,55.05L435.48,58.12L437.97,56.54L440.46,65.1L442.95,66.69L445.44,69.47L450.41,76.47L452.9,76.95L455.39,77.14L457.88,92.16L460.37,179.03L462.86,180.99L467.83,203.76L470.32,208.05L472.81,214.33L475.3,225.41L477.79,230.04L480.28,231.84L482.76,234.31L485.25,239.7L487.74,248.1L490.23,253.85L495.21,279.38L497.7,280.81L500.18,283.6L502.67,282.98L507.65,287.87L510.14,295.89L512.63,297.29L515.12,297.53L520.09,298.3L522.58,300.77L525.07,300.78L527.56,302.28L537.51,304L540,303.99" style="vector-effect: none; fill: none; stroke: rgb(99, 110, 250); stroke-opacity: 1; stroke-width: 2px; opacity: 1;"/></g><g class="points"/><g class="text"/></g></g></g><g class="overplot"/><path class="xlines-above crisp" d="M0,0" style="fill: none;"/><path class="ylines-above crisp" d="M0,0" style="fill: none;"/><g class="overlines-above"/><g class="xaxislayer-above"><g class="xtick"><text text-anchor="middle" x="0" y="433" transform="translate(89.95,0)" style="font-family: 'Open Sans', verdana, arial, sans-serif; font-size: 12px; fill: rgb(42, 63, 95); fill-opacity: 1; white-space: pre; opacity: 1;">Oct 2022</text></g><g class="xtick"><text text-anchor="middle" x="0" y="433" style="font-family: 'Open Sans', verdana, arial, sans-serif; font-size: 12px; fill: rgb(42, 63, 95); fill-opacity: 1; white-space: pre; opacity: 1;" transform="translate(167.1,0)">Nov 2022</text></g><g class="xtick"><text text-anchor="middle" x="0" y="433" style="font-family: 'Open Sans', verdana, arial, sans-serif; font-size: 12px; fill: rgb(42, 63, 95); fill-opacity: 1; white-space: pre; opacity: 1;" transform="translate(241.75,0)">Dec 2022</text></g><g class="xtick"><text text-anchor="middle" x="0" y="433" style="font-family: 'Open Sans', verdana, arial, sans-serif; font-size: 12px; fill: rgb(42, 63, 95); fill-opacity: 1; white-space: pre; opacity: 1;" transform="translate(318.89,0)">Jan 2023</text></g><g class="xtick"><text text-anchor="middle" x="0" y="433" style="font-family: 'Open Sans', verdana, arial, sans-serif; font-size: 12px; fill: rgb(42, 63, 95); fill-opacity: 1; white-space: pre; opacity: 1;" transform="translate(396.04,0)">Feb 2023</text></g><g class="xtick"><text text-anchor="middle" x="0" y="433" style="font-family: 'Open Sans', verdana, arial, sans-serif; font-size: 12px; fill: rgb(42, 63, 95); fill-opacity: 1; white-space: pre; opacity: 1;" transform="translate(465.71,0)">Mar 2023</text></g><g class="xtick"><text text-anchor="middle" x="0" y="433" style="font-family: 'Open Sans', verdana, arial, sans-serif; font-size: 12px; fill: rgb(42, 63, 95); fill-opacity: 1; white-space: pre; opacity: 1;" transform="translate(542.86,0)">Apr 2023</text></g><g class="xtick"><text text-anchor="middle" x="0" y="433" style="font-family: 'Open Sans', verdana, arial, sans-serif; font-size: 12px; fill: rgb(42, 63, 95); fill-opacity: 1; white-space: pre; opacity: 1;" transform="translate(617.51,0)">May 2023</text></g></g><g class="yaxislayer-above"><g class="ytick"><text text-anchor="end" x="79" y="4.199999999999999" transform="translate(0,395.06)" style="font-family: 'Open Sans', verdana, arial, sans-serif; font-size: 12px; fill: rgb(42, 63, 95); fill-opacity: 1; white-space: pre; opacity: 1;">$0</text></g><g class="ytick"><text text-anchor="end" x="79" y="4.199999999999999" style="font-family: 'Open Sans', verdana, arial, sans-serif; font-size: 12px; fill: rgb(42, 63, 95); fill-opacity: 1; white-space: pre; opacity: 1;" transform="translate(0,352.09000000000003)">$5M</text></g><g class="ytick"><text text-anchor="end" x="79" y="4.199999999999999" style="font-family: 'Open Sans', verdana, arial, sans-serif; font-size: 12px; fill: rgb(42, 63, 95); fill-opacity: 1; white-space: pre; opacity: 1;" transform="translate(0,309.12)">$10M</text></g><g class="ytick"><text text-anchor="end" x="79" y="4.199999999999999" style="font-family: 'Open Sans', verdana, arial, sans-serif; font-size: 12px; fill: rgb(42, 63, 95); fill-opacity: 1; white-space: pre; opacity: 1;" transform="translate(0,266.15)">$15M</text></g><g class="ytick"><text text-anchor="end" x="79" y="4.199999999999999" style="font-family: 'Open Sans', verdana, arial, sans-serif; font-size: 12px; fill: rgb(42, 63, 95); fill-opacity: 1; white-space: pre; opacity: 1;" transform="translate(0,223.18)">$20M</text></g><g class="ytick"><text text-anchor="end" x="79" y="4.199999999999999" style="font-family: 'Open Sans', verdana, arial, sans-serif; font-size: 12px; fill: rgb(42, 63, 95); fill-opacity: 1; white-space: pre; opacity: 1;" transform="translate(0,180.20999999999998)">$25M</text></g><g class="ytick"><text text-anchor="end" x="79" y="4.199999999999999" style="font-family: 'Open Sans', verdana, arial, sans-serif; font-size: 12px; fill: rgb(42, 63, 95); fill-opacity: 1; white-space: pre; opacity: 1;" transform="translate(0,137.24)">$30M</text></g></g><g class="overaxes-above"/></g></g><g class="polarlayer"/><g class="smithlayer"/><g class="ternarylayer"/><g class="geolayer"/><g class="funnelarealayer"/><g class="pielayer"/><g class="iciclelayer"/><g class="treemaplayer"/><g class="sunburstlayer"/><g class="glimages"/><defs id="topdefs-250050"><g class="clips"/></defs><g class="layer-above"><g class="imagelayer"/><g class="shapelayer"/></g><g class="infolayer"><g class="g-gtitle"><text class="gtitle" x="35" y="50" text-anchor="start" dy="0em" style="font-family: 'Open Sans', verdana, arial, sans-serif; font-size: 17px; fill: rgb(42, 63, 95); opacity: 1; font-weight: normal; white-space: pre;"><tspan class="line" dy="0em" x="35" y="50">Synthetix - ETH/sETH: Velodrome</tspan><tspan class="line" dy="1.3em" x="35" y="50">​<tspan style="font-size:70%" dy="-0.6em">Cumulative Net Flows since Program Announcement, Until Program End + 30 Days</tspan><tspan dy="0.42em">​</tspan></tspan></text></g><g class="g-xtitle"><text class="xtitle" x="350" y="460.3" text-anchor="middle" style="font-family: 'Open Sans', verdana, arial, sans-serif; font-size: 14px; fill: rgb(42, 63, 95); opacity: 1; font-weight: normal; white-space: pre;">Day</text></g><g class="g-ytitle"><text class="ytitle" transform="rotate(-90,24.668750000000003,260)" x="24.668750000000003" y="260" text-anchor="middle" style="font-family: 'Open Sans', verdana, arial, sans-serif; font-size: 14px; fill: rgb(42, 63, 95); opacity: 1; font-weight: normal; white-space: pre;">Cumulative Net Flows (USD)</text></g></g></svg>