<svg class="main-svg" xmlns="http://www.w3.org/2000/svg" xmlns:xlink="http://www.w3.org/1999/xlink" width="700" height="500" style="" viewBox="0 0 700 500"><rect x="0" y="0" width="700" height="500" style="fill: rgb(255, 255, 255); fill-opacity: 1;"/><defs id="defs-969c3d"><g class="clips"><clipPath id="clip969c3dxyplot" class="plotclip"><rect width="540" height="320"/></clipPath><clipPath class="axesclip" id="clip969c3dx"><rect x="80" y="0" width="540" height="500"/></clipPath><clipPath class="axesclip" id="clip969c3dy"><rect x="0" y="100" width="700" height="320"/></clipPath><clipPath class="axesclip" id="clip969c3dxy"><rect x="80" y="100" width="540" height="320"/></clipPath></g><g class="gradients"/><g class="patterns"/></defs><g class="bglayer"><rect class="bg" x="80" y="100" width="540" height="320" style="fill: rgb(229, 236, 246); fill-opacity: 1; stroke-width: 0;"/></g><g class="layer-below"><g class="imagelayer"/><g class="shapelayer"/></g><g class="cartesianlayer"><g class="subplot xy"><g class="layer-subplot"><g class="shapelayer"/><g class="imagelayer"/></g><g class="minor-gridlayer"><g class="x"/><g class="y"/></g><g class="gridlayer"><g class="x"><path class="xgrid crisp" transform="translate(156.32999999999998,0)" d="M0,100v320" style="stroke: rgb(255, 255, 255); stroke-opacity: 1; stroke-width: 1px;"/><path class="xgrid crisp" transform="translate(272.72,0)" d="M0,100v320" style="stroke: rgb(255, 255, 255); stroke-opacity: 1; stroke-width: 1px;"/><path class="xgrid crisp" transform="translate(385.3,0)" d="M0,100v320" style="stroke: rgb(255, 255, 255); stroke-opacity: 1; stroke-width: 1px;"/><path class="xgrid crisp" transform="translate(501.7,0)" d="M0,100v320" style="stroke: rgb(255, 255, 255); stroke-opacity: 1; stroke-width: 1px;"/><path class="xgrid crisp" transform="translate(618.09,0)" d="M0,100v320" style="stroke: rgb(255, 255, 255); stroke-opacity: 1; stroke-width: 1px;"/></g><g class="y"><path class="ygrid crisp" transform="translate(0,365.37)" d="M80,0h540" style="stroke: rgb(255, 255, 255); stroke-opacity: 1; stroke-width: 1px;"/><path class="ygrid crisp" transform="translate(0,310.73)" d="M80,0h540" style="stroke: rgb(255, 255, 255); stroke-opacity: 1; stroke-width: 1px;"/><path class="ygrid crisp" transform="translate(0,256.1)" d="M80,0h540" style="stroke: rgb(255, 255, 255); stroke-opacity: 1; stroke-width: 1px;"/><path class="ygrid crisp" transform="translate(0,201.47)" d="M80,0h540" style="stroke: rgb(255, 255, 255); stroke-opacity: 1; stroke-width: 1px;"/><path class="ygrid crisp" transform="translate(0,146.82999999999998)" d="M80,0h540" style="stroke: rgb(255, 255, 255); stroke-opacity: 1; stroke-width: 1px;"/></g></g><g class="zerolinelayer"><path class="yzl zl crisp" transform="translate(0,420)" d="M80,0h540" style="stroke: rgb(255, 255, 255); stroke-opacity: 1; stroke-width: 2px;"/></g><path class="xlines-below"/><path class="ylines-below"/><g class="overlines-below"/><g class="xaxislayer-below"/><g class="yaxislayer-below"/><g class="overaxes-below"/><g class="plot" transform="translate(80,100)" clip-path="url(#clip969c3dxyplot)"><g class="scatterlayer mlayer"><g class="trace scatter traceac3c0e" style="stroke-miterlimit: 2;"><g class="fills"><g><path class="js-fill" d="M540,320L0,320L0,315.21L1.91,308.2L3.82,309.6L5.72,307.86L7.63,316.62L9.54,310.15L11.45,308.43L13.36,308.53L15.27,302.78L17.17,314.76L19.08,304.95L20.99,298.45L22.9,299.81L24.81,303.59L26.71,297.75L28.62,298.09L30.53,293.74L32.44,293.85L34.35,297.45L36.25,295.34L38.16,295.74L40.07,300.66L41.98,297.94L43.89,297.56L45.8,299.93L47.7,299.91L49.61,297.38L51.52,293.95L53.43,293.03L55.34,288.21L57.24,289L59.15,287.66L61.06,289.72L62.97,290.8L64.88,281.18L66.78,236.79L68.69,160.64L70.6,143.01L72.51,141.68L76.33,124.1L78.23,126.59L80.14,105.7L82.05,107.86L83.96,109.31L85.87,115.47L87.77,117.89L89.68,111.52L93.5,150.49L95.41,142.71L97.31,146.68L99.22,148.41L101.13,152.14L103.04,152.02L104.95,147.55L106.86,145.92L108.76,147.6L110.67,147.39L112.58,154.41L114.49,146.16L116.4,143.3L118.3,143.47L120.21,145.64L122.12,143.84L124.03,143.39L125.94,149.52L127.84,158.8L129.75,151.97L131.66,124.21L133.57,122.07L135.48,124.84L137.39,132.96L139.29,134.28L141.2,137.21L143.11,133.2L145.02,133.4L148.83,134.56L150.74,142.09L152.65,141.27L154.56,141.67L156.47,141.95L158.37,132.92L160.28,135.49L162.19,127.27L164.1,128.03L166.01,111.33L167.92,118.05L169.82,116.16L171.73,129.64L173.64,124.73L175.55,133.66L177.46,131.82L181.27,134.91L183.18,133.29L185.09,140.46L187,142.65L188.9,143.5L190.81,143.49L192.72,144.35L194.63,141.24L196.54,139.41L198.45,131.1L200.35,143.89L202.26,150.39L204.17,154.58L206.08,155.55L207.99,152.37L209.89,150.67L211.8,161.74L213.71,165.84L215.62,163.64L217.53,170.55L219.43,170.64L221.34,186.35L223.25,198.81L225.16,221.88L227.07,224.33L228.98,221.14L230.88,223.8L232.79,215.64L234.7,219.24L236.61,215L238.52,220.7L240.42,213.37L242.33,210.89L244.24,212.29L246.15,209.87L248.06,205.63L249.96,199.85L251.87,197.98L253.78,203.56L255.69,199.95L261.41,191.54L263.32,188.21L265.23,195.48L267.14,195.53L272.86,181.94L274.77,182.37L276.68,179.44L278.59,182.13L280.49,193.78L282.4,192.51L284.31,189.01L286.22,200.73L288.13,189.82L290.04,190.76L291.94,185.79L293.85,193.58L299.58,151.55L301.48,157.07L303.39,142.58L305.3,137.97L307.21,139.87L309.12,130.27L311.02,132.99L312.93,122.37L316.75,103.55L318.66,100.72L320.57,108.79L322.47,90.37L324.38,98.3L326.29,116.26L328.2,124.55L330.11,104.41L332.01,124.7L333.92,118.34L335.83,117.73L337.74,116.24L339.65,116.22L341.55,92.81L345.37,84.1L347.28,57.26L349.19,76.14L351.1,73.13L354.91,56.61L356.82,58.02L358.73,47.47L360.64,58.43L362.54,56.24L364.45,36.28L368.27,32.49L370.18,16L373.99,37.39L375.9,42.11L377.81,39.96L379.72,89.29L381.63,60.04L383.53,61.43L385.44,52.74L387.35,50L389.26,44.25L391.17,50.96L393.07,46.62L394.98,56.45L396.89,42.02L398.8,40.79L400.71,39.54L402.61,33.64L404.52,32.76L406.43,34.35L408.34,24.02L410.25,39.49L412.16,35.16L414.06,25.81L417.88,17.72L419.79,24.64L421.7,30.11L423.6,25.62L425.51,25.5L427.42,34.93L429.33,26.73L431.24,36.08L433.14,32.19L435.05,35.76L436.96,33.31L438.87,27.12L440.78,28.12L442.69,34.88L444.59,50.22L446.5,38.88L448.41,37.11L450.32,57.67L452.23,63.97L454.13,79.32L456.04,84.4L457.95,78.77L461.77,86.22L463.67,85.98L465.58,93.26L467.49,85.68L469.4,78.21L471.31,80.28L473.22,85.95L475.12,73.4L478.94,86.18L480.85,103.1L482.76,92.07L484.66,113.53L486.57,113.74L488.48,109.78L490.39,121.4L492.3,124.57L494.2,138.66L496.11,129.93L498.02,125.2L499.93,150.13L501.84,143.66L503.75,154.91L505.65,152.5L507.56,154.45L511.38,151.66L513.29,160.49L515.19,170.19L517.1,167.32L520.92,185.92L522.83,181.22L526.64,187.1L528.55,181.62L532.37,178.33L534.28,180.94L536.18,202.14L538.09,207.81L540,200.25" style="fill: rgb(99, 110, 250); fill-opacity: 0.5; stroke-width: 0;"/></g></g><g class="errorbars"/><g class="lines"><path class="js-line" d="M0,315.21L1.91,308.2L3.82,309.6L5.72,307.86L7.63,316.62L9.54,310.15L11.45,308.43L13.36,308.53L15.27,302.78L17.17,314.76L19.08,304.95L20.99,298.45L22.9,299.81L24.81,303.59L26.71,297.75L28.62,298.09L30.53,293.74L32.44,293.85L34.35,297.45L36.25,295.34L38.16,295.74L40.07,300.66L41.98,297.94L43.89,297.56L45.8,299.93L47.7,299.91L49.61,297.38L51.52,293.95L53.43,293.03L55.34,288.21L57.24,289L59.15,287.66L61.06,289.72L62.97,290.8L64.88,281.18L66.78,236.79L68.69,160.64L70.6,143.01L72.51,141.68L76.33,124.1L78.23,126.59L80.14,105.7L82.05,107.86L83.96,109.31L85.87,115.47L87.77,117.89L89.68,111.52L93.5,150.49L95.41,142.71L97.31,146.68L99.22,148.41L101.13,152.14L103.04,152.02L104.95,147.55L106.86,145.92L108.76,147.6L110.67,147.39L112.58,154.41L114.49,146.16L116.4,143.3L118.3,143.47L120.21,145.64L122.12,143.84L124.03,143.39L125.94,149.52L127.84,158.8L129.75,151.97L131.66,124.21L133.57,122.07L135.48,124.84L137.39,132.96L139.29,134.28L141.2,137.21L143.11,133.2L145.02,133.4L148.83,134.56L150.74,142.09L152.65,141.27L154.56,141.67L156.47,141.95L158.37,132.92L160.28,135.49L162.19,127.27L164.1,128.03L166.01,111.33L167.92,118.05L169.82,116.16L171.73,129.64L173.64,124.73L175.55,133.66L177.46,131.82L181.27,134.91L183.18,133.29L185.09,140.46L187,142.65L188.9,143.5L190.81,143.49L192.72,144.35L194.63,141.24L196.54,139.41L198.45,131.1L200.35,143.89L202.26,150.39L204.17,154.58L206.08,155.55L207.99,152.37L209.89,150.67L211.8,161.74L213.71,165.84L215.62,163.64L217.53,170.55L219.43,170.64L221.34,186.35L223.25,198.81L225.16,221.88L227.07,224.33L228.98,221.14L230.88,223.8L232.79,215.64L234.7,219.24L236.61,215L238.52,220.7L240.42,213.37L242.33,210.89L244.24,212.29L246.15,209.87L248.06,205.63L249.96,199.85L251.87,197.98L253.78,203.56L255.69,199.95L261.41,191.54L263.32,188.21L265.23,195.48L267.14,195.53L272.86,181.94L274.77,182.37L276.68,179.44L278.59,182.13L280.49,193.78L282.4,192.51L284.31,189.01L286.22,200.73L288.13,189.82L290.04,190.76L291.94,185.79L293.85,193.58L299.58,151.55L301.48,157.07L303.39,142.58L305.3,137.97L307.21,139.87L309.12,130.27L311.02,132.99L312.93,122.37L316.75,103.55L318.66,100.72L320.57,108.79L322.47,90.37L324.38,98.3L326.29,116.26L328.2,124.55L330.11,104.41L332.01,124.7L333.92,118.34L335.83,117.73L337.74,116.24L339.65,116.22L341.55,92.81L345.37,84.1L347.28,57.26L349.19,76.14L351.1,73.13L354.91,56.61L356.82,58.02L358.73,47.47L360.64,58.43L362.54,56.24L364.45,36.28L368.27,32.49L370.18,16L373.99,37.39L375.9,42.11L377.81,39.96L379.72,89.29L381.63,60.04L383.53,61.43L385.44,52.74L387.35,50L389.26,44.25L391.17,50.96L393.07,46.62L394.98,56.45L396.89,42.02L398.8,40.79L400.71,39.54L402.61,33.64L404.52,32.76L406.43,34.35L408.34,24.02L410.25,39.49L412.16,35.16L414.06,25.81L417.88,17.72L419.79,24.64L421.7,30.11L423.6,25.62L425.51,25.5L427.42,34.93L429.33,26.73L431.24,36.08L433.14,32.19L435.05,35.76L436.96,33.31L438.87,27.12L440.78,28.12L442.69,34.88L444.59,50.22L446.5,38.88L448.41,37.11L450.32,57.67L452.23,63.97L454.13,79.32L456.04,84.4L457.95,78.77L461.77,86.22L463.67,85.98L465.58,93.26L467.49,85.68L469.4,78.21L471.31,80.28L473.22,85.95L475.12,73.4L478.94,86.18L480.85,103.1L482.76,92.07L484.66,113.53L486.57,113.74L488.48,109.78L490.39,121.4L492.3,124.57L494.2,138.66L496.11,129.93L498.02,125.2L499.93,150.13L501.84,143.66L503.75,154.91L505.65,152.5L507.56,154.45L511.38,151.66L513.29,160.49L515.19,170.19L517.1,167.32L520.92,185.92L522.83,181.22L526.64,187.1L528.55,181.62L532.37,178.33L534.28,180.94L536.18,202.14L538.09,207.81L540,200.25" style="vector-effect: none; fill: none; stroke: rgb(99, 110, 250); stroke-opacity: 1; stroke-width: 2px; opacity: 1;"/></g><g class="points"/><g class="text"/></g></g></g><g class="overplot"/><path class="xlines-above crisp" d="M0,0" style="fill: none;"/><path class="ylines-above crisp" d="M0,0" style="fill: none;"/><g class="overlines-above"/><g class="xaxislayer-above"><g class="xtick"><text text-anchor="middle" x="0" y="433" transform="translate(156.32999999999998,0)" style="font-family: 'Open Sans', verdana, arial, sans-serif; font-size: 12px; fill: rgb(42, 63, 95); fill-opacity: 1; white-space: pre; opacity: 1;">Nov 2022</text></g><g class="xtick"><text text-anchor="middle" x="0" y="433" style="font-family: 'Open Sans', verdana, arial, sans-serif; font-size: 12px; fill: rgb(42, 63, 95); fill-opacity: 1; white-space: pre; opacity: 1;" transform="translate(272.72,0)">Jan 2023</text></g><g class="xtick"><text text-anchor="middle" x="0" y="433" style="font-family: 'Open Sans', verdana, arial, sans-serif; font-size: 12px; fill: rgb(42, 63, 95); fill-opacity: 1; white-space: pre; opacity: 1;" transform="translate(385.3,0)">Mar 2023</text></g><g class="xtick"><text text-anchor="middle" x="0" y="433" style="font-family: 'Open Sans', verdana, arial, sans-serif; font-size: 12px; fill: rgb(42, 63, 95); fill-opacity: 1; white-space: pre; opacity: 1;" transform="translate(501.7,0)">May 2023</text></g><g class="xtick"><text text-anchor="middle" x="0" y="433" style="font-family: 'Open Sans', verdana, arial, sans-serif; font-size: 12px; fill: rgb(42, 63, 95); fill-opacity: 1; white-space: pre; opacity: 1;" transform="translate(618.09,0)">Jul 2023</text></g></g><g class="yaxislayer-above"><g class="ytick"><text text-anchor="end" x="79" y="4.199999999999999" transform="translate(0,420)" style="font-family: 'Open Sans', verdana, arial, sans-serif; font-size: 12px; fill: rgb(42, 63, 95); fill-opacity: 1; white-space: pre; opacity: 1;">$0</text></g><g class="ytick"><text text-anchor="end" x="79" y="4.199999999999999" style="font-family: 'Open Sans', verdana, arial, sans-serif; font-size: 12px; fill: rgb(42, 63, 95); fill-opacity: 1; white-space: pre; opacity: 1;" transform="translate(0,365.37)">$2M</text></g><g class="ytick"><text text-anchor="end" x="79" y="4.199999999999999" style="font-family: 'Open Sans', verdana, arial, sans-serif; font-size: 12px; fill: rgb(42, 63, 95); fill-opacity: 1; white-space: pre; opacity: 1;" transform="translate(0,310.73)">$4M</text></g><g class="ytick"><text text-anchor="end" x="79" y="4.199999999999999" style="font-family: 'Open Sans', verdana, arial, sans-serif; font-size: 12px; fill: rgb(42, 63, 95); fill-opacity: 1; white-space: pre; opacity: 1;" transform="translate(0,256.1)">$6M</text></g><g class="ytick"><text text-anchor="end" x="79" y="4.199999999999999" style="font-family: 'Open Sans', verdana, arial, sans-serif; font-size: 12px; fill: rgb(42, 63, 95); fill-opacity: 1; white-space: pre; opacity: 1;" transform="translate(0,201.47)">$8M</text></g><g class="ytick"><text text-anchor="end" x="79" y="4.199999999999999" style="font-family: 'Open Sans', verdana, arial, sans-serif; font-size: 12px; fill: rgb(42, 63, 95); fill-opacity: 1; white-space: pre; opacity: 1;" transform="translate(0,146.82999999999998)">$10M</text></g></g><g class="overaxes-above"/></g></g><g class="polarlayer"/><g class="smithlayer"/><g class="ternarylayer"/><g class="geolayer"/><g class="funnelarealayer"/><g class="pielayer"/><g class="iciclelayer"/><g class="treemaplayer"/><g class="sunburstlayer"/><g class="glimages"/><defs id="topdefs-969c3d"><g class="clips"/></defs><g class="layer-above"><g class="imagelayer"/><g class="shapelayer"/></g><g class="infolayer"><g class="g-gtitle"><text class="gtitle" x="35" y="50" text-anchor="start" dy="0em" style="font-family: 'Open Sans', verdana, arial, sans-serif; font-size: 17px; fill: rgb(42, 63, 95); opacity: 1; font-weight: normal; white-space: pre;"><tspan class="line" dy="0em" x="35" y="50">Hop Protocol</tspan><tspan class="line" dy="1.3em" x="35" y="50">​<tspan style="font-size:70%" dy="-0.6em">Cumulative Net Flows since Program Announcement, Until Program End + 30 Days</tspan><tspan dy="0.42em">​</tspan></tspan></text></g><g class="g-xtitle"><text class="xtitle" x="350" y="460.3" text-anchor="middle" style="font-family: 'Open Sans', verdana, arial, sans-serif; font-size: 14px; fill: rgb(42, 63, 95); opacity: 1; font-weight: normal; white-space: pre;">Day</text></g><g class="g-ytitle"><text class="ytitle" transform="rotate(-90,24.668750000000003,260)" x="24.668750000000003" y="260" text-anchor="middle" style="font-family: 'Open Sans', verdana, arial, sans-serif; font-size: 14px; fill: rgb(42, 63, 95); opacity: 1; font-weight: normal; white-space: pre;">Cumulative Net Flows (USD)</text></g></g></svg>