<svg class="main-svg" xmlns="http://www.w3.org/2000/svg" xmlns:xlink="http://www.w3.org/1999/xlink" width="700" height="500" style="" viewBox="0 0 700 500"><rect x="0" y="0" width="700" height="500" style="fill: rgb(255, 255, 255); fill-opacity: 1;"/><defs id="defs-e4827d"><g class="clips"><clipPath id="clipe4827dxyplot" class="plotclip"><rect width="540" height="320"/></clipPath><clipPath class="axesclip" id="clipe4827dx"><rect x="80" y="0" width="540" height="500"/></clipPath><clipPath class="axesclip" id="clipe4827dy"><rect x="0" y="100" width="700" height="320"/></clipPath><clipPath class="axesclip" id="clipe4827dxy"><rect x="80" y="100" width="540" height="320"/></clipPath></g><g class="gradients"/><g class="patterns"/></defs><g class="bglayer"><rect class="bg" x="80" y="100" width="540" height="320" style="fill: rgb(229, 236, 246); fill-opacity: 1; stroke-width: 0;"/></g><g class="layer-below"><g class="imagelayer"/><g class="shapelayer"/></g><g class="cartesianlayer"><g class="subplot xy"><g class="layer-subplot"><g class="shapelayer"/><g class="imagelayer"/></g><g class="minor-gridlayer"><g class="x"/><g class="y"/></g><g class="gridlayer"><g class="x"><path class="xgrid crisp" transform="translate(141.02,0)" d="M0,100v320" style="stroke: rgb(255, 255, 255); stroke-opacity: 1; stroke-width: 1px;"/><path class="xgrid crisp" transform="translate(234.07,0)" d="M0,100v320" style="stroke: rgb(255, 255, 255); stroke-opacity: 1; stroke-width: 1px;"/><path class="xgrid crisp" transform="translate(324.07,0)" d="M0,100v320" style="stroke: rgb(255, 255, 255); stroke-opacity: 1; stroke-width: 1px;"/><path class="xgrid crisp" transform="translate(417.12,0)" d="M0,100v320" style="stroke: rgb(255, 255, 255); stroke-opacity: 1; stroke-width: 1px;"/><path class="xgrid crisp" transform="translate(510.17,0)" d="M0,100v320" style="stroke: rgb(255, 255, 255); stroke-opacity: 1; stroke-width: 1px;"/><path class="xgrid crisp" transform="translate(604.75,0)" d="M0,100v320" style="stroke: rgb(255, 255, 255); stroke-opacity: 1; stroke-width: 1px;"/></g><g class="y"><path class="ygrid crisp" transform="translate(0,365.37)" d="M80,0h540" style="stroke: rgb(255, 255, 255); stroke-opacity: 1; stroke-width: 1px;"/><path class="ygrid crisp" transform="translate(0,310.73)" d="M80,0h540" style="stroke: rgb(255, 255, 255); stroke-opacity: 1; stroke-width: 1px;"/><path class="ygrid crisp" transform="translate(0,256.1)" d="M80,0h540" style="stroke: rgb(255, 255, 255); stroke-opacity: 1; stroke-width: 1px;"/><path class="ygrid crisp" transform="translate(0,201.47)" d="M80,0h540" style="stroke: rgb(255, 255, 255); stroke-opacity: 1; stroke-width: 1px;"/><path class="ygrid crisp" transform="translate(0,146.82999999999998)" d="M80,0h540" style="stroke: rgb(255, 255, 255); stroke-opacity: 1; stroke-width: 1px;"/></g></g><g class="zerolinelayer"><path class="yzl zl crisp" transform="translate(0,420)" d="M80,0h540" style="stroke: rgb(255, 255, 255); stroke-opacity: 1; stroke-width: 2px;"/></g><path class="xlines-below"/><path class="ylines-below"/><g class="overlines-below"/><g class="xaxislayer-below"/><g class="yaxislayer-below"/><g class="overaxes-below"/><g class="plot" transform="translate(80,100)" clip-path="url(#clipe4827dxyplot)"><g class="scatterlayer mlayer"><g class="trace scatter tracec60cc0" style="stroke-miterlimit: 2;"><g class="fills"><g><path class="js-fill" d="M540,320L0,320L0,315.21L1.53,308.2L3.05,309.6L4.58,307.86L6.1,316.62L7.63,310.15L9.15,308.43L10.68,308.53L12.2,302.78L13.73,314.76L15.25,304.95L16.78,298.45L18.31,299.81L19.83,303.59L21.36,297.75L22.88,298.09L24.41,293.74L25.93,293.85L27.46,297.45L28.98,295.34L30.51,295.74L32.03,300.66L33.56,297.94L35.08,297.56L36.61,299.93L38.14,299.91L39.66,297.38L41.19,293.95L42.71,293.03L44.24,288.21L45.76,289L47.29,287.66L48.81,289.72L50.34,290.8L51.86,281.18L53.39,236.79L54.92,160.64L56.44,143.01L57.97,141.68L61.02,124.1L62.54,126.59L64.07,105.7L65.59,107.86L67.12,109.31L68.64,115.47L70.17,117.89L71.69,111.52L74.75,150.49L76.27,142.71L77.8,146.68L79.32,148.41L80.85,152.14L82.37,152.02L83.9,147.55L85.42,145.92L86.95,147.6L88.47,147.39L90,154.41L91.53,146.16L93.05,143.3L94.58,143.47L96.1,145.64L97.63,143.84L99.15,143.39L100.68,149.52L102.2,158.8L103.73,151.97L105.25,124.21L106.78,122.07L108.31,124.84L109.83,132.96L111.36,134.28L112.88,137.21L114.41,133.2L115.93,133.4L118.98,134.56L120.51,142.09L122.03,141.27L123.56,141.67L125.08,141.95L126.61,132.92L128.14,135.49L129.66,127.27L131.19,128.03L132.71,111.33L134.24,118.05L135.76,116.16L137.29,129.64L138.81,124.73L140.34,133.66L141.86,131.82L144.92,134.91L146.44,133.29L147.97,140.46L149.49,142.65L154.07,144.35L155.59,141.24L157.12,139.41L158.64,131.1L161.69,150.39L163.22,154.58L164.75,155.55L166.27,152.37L167.8,150.67L169.32,161.74L170.85,165.84L172.37,163.64L173.9,170.55L175.42,170.64L180,221.88L181.53,224.33L183.05,221.14L184.58,223.8L186.1,215.64L187.63,219.24L189.15,215L190.68,220.7L192.2,213.37L193.73,210.89L195.25,212.29L196.78,209.87L199.83,199.85L201.36,197.98L202.88,203.56L204.41,199.95L210.51,188.21L212.03,195.48L213.56,195.53L215.08,190.71L218.14,181.94L219.66,182.37L221.19,179.44L222.71,182.13L224.24,193.78L225.76,192.51L227.29,189.01L228.81,200.73L230.34,189.82L231.86,190.76L233.39,185.79L234.92,193.58L239.49,151.55L241.02,157.07L242.54,142.58L244.07,137.97L245.59,139.87L247.12,130.27L248.64,132.99L250.17,122.37L253.22,103.55L254.75,100.72L256.27,108.79L257.8,90.37L259.32,98.3L260.85,116.26L262.37,124.55L263.9,104.41L265.42,124.7L266.95,118.34L268.47,117.73L270,116.24L271.53,116.22L273.05,92.81L276.1,84.1L277.63,57.26L279.15,76.14L280.68,73.13L283.73,56.61L285.25,58.02L286.78,47.47L288.31,58.43L289.83,56.24L291.36,36.28L294.41,32.49L295.93,16L300.51,42.11L302.03,39.96L303.56,89.29L305.08,60.04L306.61,61.43L308.14,52.74L309.66,50L311.19,44.25L312.71,50.96L314.24,46.62L315.76,56.45L317.29,42.02L320.34,39.54L321.86,33.64L323.39,32.76L324.92,34.35L326.44,24.02L327.97,39.49L329.49,35.16L331.02,25.81L334.07,17.72L335.59,24.64L337.12,30.11L338.64,25.62L340.17,25.5L341.69,34.93L343.22,26.73L344.75,36.08L346.27,32.19L347.8,35.76L349.32,33.31L350.85,27.12L352.37,28.12L353.9,34.88L355.42,50.22L356.95,38.88L358.47,37.11L360,57.67L361.53,63.97L363.05,79.32L364.58,84.4L366.1,78.77L369.15,86.22L370.68,85.98L372.2,93.26L373.73,85.68L375.25,78.21L376.78,80.28L378.31,85.95L379.83,73.4L382.88,86.18L384.41,103.1L385.93,92.07L387.46,113.53L388.98,113.74L390.51,109.78L392.03,121.4L393.56,124.57L395.08,138.66L396.61,129.93L398.14,125.2L399.66,150.13L401.19,143.66L402.71,154.91L404.24,152.5L405.76,154.45L408.81,151.66L410.34,160.49L411.86,170.19L413.39,167.32L416.44,185.92L417.97,181.22L421.02,187.1L422.54,181.62L425.59,178.33L427.12,180.94L428.64,202.14L430.17,207.81L433.22,194.38L434.75,193.03L436.27,185.09L437.8,185.17L439.32,193.41L440.85,195.98L442.37,203.21L443.9,206.72L446.95,220.12L448.47,214.24L450,213.83L451.53,215.55L453.05,223.29L454.58,222.93L456.1,218.53L457.63,217.88L459.15,213.32L460.68,204.08L462.2,201.4L463.73,206.98L465.25,207.58L466.78,202.79L468.31,201.83L469.83,208.74L471.36,208.96L472.88,206.82L474.41,207.65L475.93,209.56L477.46,209.35L478.98,213.01L480.51,222.71L482.03,225.09L485.08,232.54L486.61,229.56L488.14,221.01L489.66,224.01L491.19,220.02L492.71,219L497.29,226.09L498.81,221.52L501.86,220.93L503.39,217.31L504.92,218.81L506.44,223.94L507.97,224.01L509.49,228.62L511.02,228.93L512.54,235.91L515.59,227.74L517.12,226.53L518.64,230.18L520.17,224.19L521.69,227.78L523.22,221.27L524.75,223.2L526.27,223.68L527.8,221.15L529.32,228.21L530.85,222.79L532.37,224.73L533.9,230.99L535.42,226.4L538.47,225.58L540,228.18" style="fill: rgb(99, 110, 250); fill-opacity: 0.5; stroke-width: 0;"/></g></g><g class="errorbars"/><g class="lines"><path class="js-line" d="M0,315.21L1.53,308.2L3.05,309.6L4.58,307.86L6.1,316.62L7.63,310.15L9.15,308.43L10.68,308.53L12.2,302.78L13.73,314.76L15.25,304.95L16.78,298.45L18.31,299.81L19.83,303.59L21.36,297.75L22.88,298.09L24.41,293.74L25.93,293.85L27.46,297.45L28.98,295.34L30.51,295.74L32.03,300.66L33.56,297.94L35.08,297.56L36.61,299.93L38.14,299.91L39.66,297.38L41.19,293.95L42.71,293.03L44.24,288.21L45.76,289L47.29,287.66L48.81,289.72L50.34,290.8L51.86,281.18L53.39,236.79L54.92,160.64L56.44,143.01L57.97,141.68L61.02,124.1L62.54,126.59L64.07,105.7L65.59,107.86L67.12,109.31L68.64,115.47L70.17,117.89L71.69,111.52L74.75,150.49L76.27,142.71L77.8,146.68L79.32,148.41L80.85,152.14L82.37,152.02L83.9,147.55L85.42,145.92L86.95,147.6L88.47,147.39L90,154.41L91.53,146.16L93.05,143.3L94.58,143.47L96.1,145.64L97.63,143.84L99.15,143.39L100.68,149.52L102.2,158.8L103.73,151.97L105.25,124.21L106.78,122.07L108.31,124.84L109.83,132.96L111.36,134.28L112.88,137.21L114.41,133.2L115.93,133.4L118.98,134.56L120.51,142.09L122.03,141.27L123.56,141.67L125.08,141.95L126.61,132.92L128.14,135.49L129.66,127.27L131.19,128.03L132.71,111.33L134.24,118.05L135.76,116.16L137.29,129.64L138.81,124.73L140.34,133.66L141.86,131.82L144.92,134.91L146.44,133.29L147.97,140.46L149.49,142.65L154.07,144.35L155.59,141.24L157.12,139.41L158.64,131.1L161.69,150.39L163.22,154.58L164.75,155.55L166.27,152.37L167.8,150.67L169.32,161.74L170.85,165.84L172.37,163.64L173.9,170.55L175.42,170.64L180,221.88L181.53,224.33L183.05,221.14L184.58,223.8L186.1,215.64L187.63,219.24L189.15,215L190.68,220.7L192.2,213.37L193.73,210.89L195.25,212.29L196.78,209.87L199.83,199.85L201.36,197.98L202.88,203.56L204.41,199.95L210.51,188.21L212.03,195.48L213.56,195.53L215.08,190.71L218.14,181.94L219.66,182.37L221.19,179.44L222.71,182.13L224.24,193.78L225.76,192.51L227.29,189.01L228.81,200.73L230.34,189.82L231.86,190.76L233.39,185.79L234.92,193.58L239.49,151.55L241.02,157.07L242.54,142.58L244.07,137.97L245.59,139.87L247.12,130.27L248.64,132.99L250.17,122.37L253.22,103.55L254.75,100.72L256.27,108.79L257.8,90.37L259.32,98.3L260.85,116.26L262.37,124.55L263.9,104.41L265.42,124.7L266.95,118.34L268.47,117.73L270,116.24L271.53,116.22L273.05,92.81L276.1,84.1L277.63,57.26L279.15,76.14L280.68,73.13L283.73,56.61L285.25,58.02L286.78,47.47L288.31,58.43L289.83,56.24L291.36,36.28L294.41,32.49L295.93,16L300.51,42.11L302.03,39.96L303.56,89.29L305.08,60.04L306.61,61.43L308.14,52.74L309.66,50L311.19,44.25L312.71,50.96L314.24,46.62L315.76,56.45L317.29,42.02L320.34,39.54L321.86,33.64L323.39,32.76L324.92,34.35L326.44,24.02L327.97,39.49L329.49,35.16L331.02,25.81L334.07,17.72L335.59,24.64L337.12,30.11L338.64,25.62L340.17,25.5L341.69,34.93L343.22,26.73L344.75,36.08L346.27,32.19L347.8,35.76L349.32,33.31L350.85,27.12L352.37,28.12L353.9,34.88L355.42,50.22L356.95,38.88L358.47,37.11L360,57.67L361.53,63.97L363.05,79.32L364.58,84.4L366.1,78.77L369.15,86.22L370.68,85.98L372.2,93.26L373.73,85.68L375.25,78.21L376.78,80.28L378.31,85.95L379.83,73.4L382.88,86.18L384.41,103.1L385.93,92.07L387.46,113.53L388.98,113.74L390.51,109.78L392.03,121.4L393.56,124.57L395.08,138.66L396.61,129.93L398.14,125.2L399.66,150.13L401.19,143.66L402.71,154.91L404.24,152.5L405.76,154.45L408.81,151.66L410.34,160.49L411.86,170.19L413.39,167.32L416.44,185.92L417.97,181.22L421.02,187.1L422.54,181.62L425.59,178.33L427.12,180.94L428.64,202.14L430.17,207.81L433.22,194.38L434.75,193.03L436.27,185.09L437.8,185.17L439.32,193.41L440.85,195.98L442.37,203.21L443.9,206.72L446.95,220.12L448.47,214.24L450,213.83L451.53,215.55L453.05,223.29L454.58,222.93L456.1,218.53L457.63,217.88L459.15,213.32L460.68,204.08L462.2,201.4L463.73,206.98L465.25,207.58L466.78,202.79L468.31,201.83L469.83,208.74L471.36,208.96L472.88,206.82L474.41,207.65L475.93,209.56L477.46,209.35L478.98,213.01L480.51,222.71L482.03,225.09L485.08,232.54L486.61,229.56L488.14,221.01L489.66,224.01L491.19,220.02L492.71,219L497.29,226.09L498.81,221.52L501.86,220.93L503.39,217.31L504.92,218.81L506.44,223.94L507.97,224.01L509.49,228.62L511.02,228.93L512.54,235.91L515.59,227.74L517.12,226.53L518.64,230.18L520.17,224.19L521.69,227.78L523.22,221.27L524.75,223.2L526.27,223.68L527.8,221.15L529.32,228.21L530.85,222.79L532.37,224.73L533.9,230.99L535.42,226.4L538.47,225.58L540,228.18" style="vector-effect: none; fill: none; stroke: rgb(99, 110, 250); stroke-opacity: 1; stroke-width: 2px; opacity: 1;"/></g><g class="points"/><g class="text"/></g></g></g><g class="overplot"/><path class="xlines-above crisp" d="M0,0" style="fill: none;"/><path class="ylines-above crisp" d="M0,0" style="fill: none;"/><g class="overlines-above"/><g class="xaxislayer-above"><g class="xtick"><text text-anchor="middle" x="0" y="433" transform="translate(141.02,0)" style="font-family: 'Open Sans', verdana, arial, sans-serif; font-size: 12px; fill: rgb(42, 63, 95); fill-opacity: 1; white-space: pre; opacity: 1;">Nov 2022</text></g><g class="xtick"><text text-anchor="middle" x="0" y="433" style="font-family: 'Open Sans', verdana, arial, sans-serif; font-size: 12px; fill: rgb(42, 63, 95); fill-opacity: 1; white-space: pre; opacity: 1;" transform="translate(234.07,0)">Jan 2023</text></g><g class="xtick"><text text-anchor="middle" x="0" y="433" style="font-family: 'Open Sans', verdana, arial, sans-serif; font-size: 12px; fill: rgb(42, 63, 95); fill-opacity: 1; white-space: pre; opacity: 1;" transform="translate(324.07,0)">Mar 2023</text></g><g class="xtick"><text text-anchor="middle" x="0" y="433" style="font-family: 'Open Sans', verdana, arial, sans-serif; font-size: 12px; fill: rgb(42, 63, 95); fill-opacity: 1; white-space: pre; opacity: 1;" transform="translate(417.12,0)">May 2023</text></g><g class="xtick"><text text-anchor="middle" x="0" y="433" style="font-family: 'Open Sans', verdana, arial, sans-serif; font-size: 12px; fill: rgb(42, 63, 95); fill-opacity: 1; white-space: pre; opacity: 1;" transform="translate(510.17,0)">Jul 2023</text></g><g class="xtick"><text text-anchor="middle" x="0" y="433" style="font-family: 'Open Sans', verdana, arial, sans-serif; font-size: 12px; fill: rgb(42, 63, 95); fill-opacity: 1; white-space: pre; opacity: 1;" transform="translate(604.75,0)">Sep 2023</text></g></g><g class="yaxislayer-above"><g class="ytick"><text text-anchor="end" x="79" y="4.199999999999999" transform="translate(0,420)" style="font-family: 'Open Sans', verdana, arial, sans-serif; font-size: 12px; fill: rgb(42, 63, 95); fill-opacity: 1; white-space: pre; opacity: 1;">$0</text></g><g class="ytick"><text text-anchor="end" x="79" y="4.199999999999999" style="font-family: 'Open Sans', verdana, arial, sans-serif; font-size: 12px; fill: rgb(42, 63, 95); fill-opacity: 1; white-space: pre; opacity: 1;" transform="translate(0,365.37)">$2M</text></g><g class="ytick"><text text-anchor="end" x="79" y="4.199999999999999" style="font-family: 'Open Sans', verdana, arial, sans-serif; font-size: 12px; fill: rgb(42, 63, 95); fill-opacity: 1; white-space: pre; opacity: 1;" transform="translate(0,310.73)">$4M</text></g><g class="ytick"><text text-anchor="end" x="79" y="4.199999999999999" style="font-family: 'Open Sans', verdana, arial, sans-serif; font-size: 12px; fill: rgb(42, 63, 95); fill-opacity: 1; white-space: pre; opacity: 1;" transform="translate(0,256.1)">$6M</text></g><g class="ytick"><text text-anchor="end" x="79" y="4.199999999999999" style="font-family: 'Open Sans', verdana, arial, sans-serif; font-size: 12px; fill: rgb(42, 63, 95); fill-opacity: 1; white-space: pre; opacity: 1;" transform="translate(0,201.47)">$8M</text></g><g class="ytick"><text text-anchor="end" x="79" y="4.199999999999999" style="font-family: 'Open Sans', verdana, arial, sans-serif; font-size: 12px; fill: rgb(42, 63, 95); fill-opacity: 1; white-space: pre; opacity: 1;" transform="translate(0,146.82999999999998)">$10M</text></g></g><g class="overaxes-above"/></g></g><g class="polarlayer"/><g class="smithlayer"/><g class="ternarylayer"/><g class="geolayer"/><g class="funnelarealayer"/><g class="pielayer"/><g class="iciclelayer"/><g class="treemaplayer"/><g class="sunburstlayer"/><g class="glimages"/><defs id="topdefs-e4827d"><g class="clips"/></defs><g class="layer-above"><g class="imagelayer"/><g class="shapelayer"/></g><g class="infolayer"><g class="g-gtitle"><text class="gtitle" x="35" y="50" text-anchor="start" dy="0em" style="font-family: 'Open Sans', verdana, arial, sans-serif; font-size: 17px; fill: rgb(42, 63, 95); opacity: 1; font-weight: normal; white-space: pre;"><tspan class="line" dy="0em" x="35" y="50">Hop Protocol</tspan><tspan class="line" dy="1.3em" x="35" y="50">​<tspan style="font-size:70%" dy="-0.6em">Cumulative Net Flows since Program Announcement, Until Program End + 30 Days</tspan><tspan dy="0.42em">​</tspan></tspan></text></g><g class="g-xtitle"><text class="xtitle" x="350" y="460.3" text-anchor="middle" style="font-family: 'Open Sans', verdana, arial, sans-serif; font-size: 14px; fill: rgb(42, 63, 95); opacity: 1; font-weight: normal; white-space: pre;">Day</text></g><g class="g-ytitle"><text class="ytitle" transform="rotate(-90,24.668750000000003,260)" x="24.668750000000003" y="260" text-anchor="middle" style="font-family: 'Open Sans', verdana, arial, sans-serif; font-size: 14px; fill: rgb(42, 63, 95); opacity: 1; font-weight: normal; white-space: pre;">Cumulative Net Flows (USD)</text></g></g></svg>