<svg class="main-svg" xmlns="http://www.w3.org/2000/svg" xmlns:xlink="http://www.w3.org/1999/xlink" width="700" height="500" style="" viewBox="0 0 700 500"><rect x="0" y="0" width="700" height="500" style="fill: rgb(255, 255, 255); fill-opacity: 1;"/><defs id="defs-f734b8"><g class="clips"><clipPath id="clipf734b8xyplot" class="plotclip"><rect width="540" height="320"/></clipPath><clipPath class="axesclip" id="clipf734b8x"><rect x="80" y="0" width="540" height="500"/></clipPath><clipPath class="axesclip" id="clipf734b8y"><rect x="0" y="100" width="700" height="320"/></clipPath><clipPath class="axesclip" id="clipf734b8xy"><rect x="80" y="100" width="540" height="320"/></clipPath></g><g class="gradients"/><g class="patterns"/></defs><g class="bglayer"><rect class="bg" x="80" y="100" width="540" height="320" style="fill: rgb(229, 236, 246); fill-opacity: 1; stroke-width: 0;"/></g><g class="layer-below"><g class="imagelayer"/><g class="shapelayer"/></g><g class="cartesianlayer"><g class="subplot xy"><g class="layer-subplot"><g class="shapelayer"/><g class="imagelayer"/></g><g class="minor-gridlayer"><g class="x"/><g class="y"/></g><g class="gridlayer"><g class="x"><path class="xgrid crisp" transform="translate(142.03,0)" d="M0,100v320" style="stroke: rgb(255, 255, 255); stroke-opacity: 1; stroke-width: 1px;"/><path class="xgrid crisp" transform="translate(255.14,0)" d="M0,100v320" style="stroke: rgb(255, 255, 255); stroke-opacity: 1; stroke-width: 1px;"/><path class="xgrid crisp" transform="translate(364.59,0)" d="M0,100v320" style="stroke: rgb(255, 255, 255); stroke-opacity: 1; stroke-width: 1px;"/><path class="xgrid crisp" transform="translate(477.7,0)" d="M0,100v320" style="stroke: rgb(255, 255, 255); stroke-opacity: 1; stroke-width: 1px;"/><path class="xgrid crisp" transform="translate(590.81,0)" d="M0,100v320" style="stroke: rgb(255, 255, 255); stroke-opacity: 1; stroke-width: 1px;"/></g><g class="y"><path class="ygrid crisp" transform="translate(0,345.93)" d="M80,0h540" style="stroke: rgb(255, 255, 255); stroke-opacity: 1; stroke-width: 1px;"/><path class="ygrid crisp" transform="translate(0,271.86)" d="M80,0h540" style="stroke: rgb(255, 255, 255); stroke-opacity: 1; stroke-width: 1px;"/><path class="ygrid crisp" transform="translate(0,197.8)" d="M80,0h540" style="stroke: rgb(255, 255, 255); stroke-opacity: 1; stroke-width: 1px;"/><path class="ygrid crisp" transform="translate(0,123.73)" d="M80,0h540" style="stroke: rgb(255, 255, 255); stroke-opacity: 1; stroke-width: 1px;"/></g></g><g class="zerolinelayer"><path class="yzl zl crisp" transform="translate(0,420)" d="M80,0h540" style="stroke: rgb(255, 255, 255); stroke-opacity: 1; stroke-width: 2px;"/></g><path class="xlines-below"/><path class="ylines-below"/><g class="overlines-below"/><g class="xaxislayer-below"/><g class="yaxislayer-below"/><g class="overaxes-below"/><g class="plot" transform="translate(80,100)" clip-path="url(#clipf734b8xyplot)"><g class="scatterlayer mlayer"><g class="trace scatter trace7d5da0" style="stroke-miterlimit: 2;"><g class="fills"><g><path class="js-fill" d="M540,320L0,320L0,51.93L3.65,61.13L7.3,60.13L14.59,57.24L18.24,56.51L21.89,55.53L25.54,61.04L29.19,62.5L32.84,59.45L36.49,59.25L40.14,54.92L43.78,54.58L47.43,50.16L58.38,48.2L62.03,48.92L65.68,53.08L69.32,51.84L76.62,51.24L80.27,50.01L83.92,49.74L87.57,28.12L91.22,26.62L94.86,22.29L98.51,22.18L102.16,23L105.81,28.06L109.46,26.48L113.11,23.08L116.76,25.41L120.41,34.02L124.05,31.9L131.35,33.09L135,32.79L145.95,32.62L149.59,22.51L153.24,23.69L156.89,20.79L160.54,20.88L164.19,16L167.84,16.15L171.49,19.38L175.14,23.01L178.78,22.77L182.43,22.79L186.08,43.76L189.73,43.01L193.38,43.05L197.03,43.19L200.68,42.25L204.32,37.53L207.97,37.37L211.62,39.37L215.27,39.73L229.86,41.64L233.51,41.62L240.81,37.17L244.46,36.85L248.11,36.74L251.76,37.45L255.41,38.5L259.05,40.8L266.35,43.93L270,44.18L273.65,44.77L277.3,50.22L284.59,70.23L288.24,77.12L291.89,80.13L295.54,81.64L299.19,82.51L302.84,82.55L306.49,82.5L310.14,86.58L313.78,86.41L317.43,97.25L321.08,98.55L324.73,103.27L328.38,110.01L332.03,109.92L339.32,112.64L342.97,134.02L350.27,135.22L353.92,137.41L357.57,140.35L361.22,139.84L364.86,140.85L368.51,143.02L372.16,151.54L375.81,151.5L379.46,156.3L383.11,157.72L390.41,159.13L394.05,197.63L397.7,207.99L401.35,209.81L405,210.06L408.65,217.54L412.3,215.49L415.95,215.98L419.59,215.06L423.24,214.98L430.54,215.83L434.19,220.07L445.14,220.02L448.78,223.53L452.43,223.55L456.08,224.57L459.73,225.51L463.38,225.48L470.68,225.83L474.32,226.05L485.27,225.99L488.92,225.94L499.86,226.03L503.51,225.66L507.16,225.73L510.81,226.74L514.46,227.95L518.11,232.35L521.76,232.4L525.41,234.66L532.7,234.7L536.35,238.41L540,238.49" style="fill: rgb(99, 110, 250); fill-opacity: 0.5; stroke-width: 0;"/></g></g><g class="errorbars"/><g class="lines"><path class="js-line" d="M0,51.93L3.65,61.13L7.3,60.13L14.59,57.24L18.24,56.51L21.89,55.53L25.54,61.04L29.19,62.5L32.84,59.45L36.49,59.25L40.14,54.92L43.78,54.58L47.43,50.16L58.38,48.2L62.03,48.92L65.68,53.08L69.32,51.84L76.62,51.24L80.27,50.01L83.92,49.74L87.57,28.12L91.22,26.62L94.86,22.29L98.51,22.18L102.16,23L105.81,28.06L109.46,26.48L113.11,23.08L116.76,25.41L120.41,34.02L124.05,31.9L131.35,33.09L135,32.79L145.95,32.62L149.59,22.51L153.24,23.69L156.89,20.79L160.54,20.88L164.19,16L167.84,16.15L171.49,19.38L175.14,23.01L178.78,22.77L182.43,22.79L186.08,43.76L189.73,43.01L193.38,43.05L197.03,43.19L200.68,42.25L204.32,37.53L207.97,37.37L211.62,39.37L215.27,39.73L229.86,41.64L233.51,41.62L240.81,37.17L244.46,36.85L248.11,36.74L251.76,37.45L255.41,38.5L259.05,40.8L266.35,43.93L270,44.18L273.65,44.77L277.3,50.22L284.59,70.23L288.24,77.12L291.89,80.13L295.54,81.64L299.19,82.51L302.84,82.55L306.49,82.5L310.14,86.58L313.78,86.41L317.43,97.25L321.08,98.55L324.73,103.27L328.38,110.01L332.03,109.92L339.32,112.64L342.97,134.02L350.27,135.22L353.92,137.41L357.57,140.35L361.22,139.84L364.86,140.85L368.51,143.02L372.16,151.54L375.81,151.5L379.46,156.3L383.11,157.72L390.41,159.13L394.05,197.63L397.7,207.99L401.35,209.81L405,210.06L408.65,217.54L412.3,215.49L415.95,215.98L419.59,215.06L423.24,214.98L430.54,215.83L434.19,220.07L445.14,220.02L448.78,223.53L452.43,223.55L456.08,224.57L459.73,225.51L463.38,225.48L470.68,225.83L474.32,226.05L485.27,225.99L488.92,225.94L499.86,226.03L503.51,225.66L507.16,225.73L510.81,226.74L514.46,227.95L518.11,232.35L521.76,232.4L525.41,234.66L532.7,234.7L536.35,238.41L540,238.49" style="vector-effect: none; fill: none; stroke: rgb(99, 110, 250); stroke-opacity: 1; stroke-width: 2px; opacity: 1;"/></g><g class="points"/><g class="text"/></g></g></g><g class="overplot"/><path class="xlines-above crisp" d="M0,0" style="fill: none;"/><path class="ylines-above crisp" d="M0,0" style="fill: none;"/><g class="overlines-above"/><g class="xaxislayer-above"><g class="xtick"><text text-anchor="middle" x="0" y="433" transform="translate(142.03,0)" style="font-family: 'Open Sans', verdana, arial, sans-serif; font-size: 12px; fill: rgb(42, 63, 95); fill-opacity: 1; white-space: pre; opacity: 1;">May 2023</text></g><g class="xtick"><text text-anchor="middle" x="0" y="433" style="font-family: 'Open Sans', verdana, arial, sans-serif; font-size: 12px; fill: rgb(42, 63, 95); fill-opacity: 1; white-space: pre; opacity: 1;" transform="translate(255.14,0)">Jun 2023</text></g><g class="xtick"><text text-anchor="middle" x="0" y="433" style="font-family: 'Open Sans', verdana, arial, sans-serif; font-size: 12px; fill: rgb(42, 63, 95); fill-opacity: 1; white-space: pre; opacity: 1;" transform="translate(364.59,0)">Jul 2023</text></g><g class="xtick"><text text-anchor="middle" x="0" y="433" style="font-family: 'Open Sans', verdana, arial, sans-serif; font-size: 12px; fill: rgb(42, 63, 95); fill-opacity: 1; white-space: pre; opacity: 1;" transform="translate(477.7,0)">Aug 2023</text></g><g class="xtick"><text text-anchor="middle" x="0" y="433" style="font-family: 'Open Sans', verdana, arial, sans-serif; font-size: 12px; fill: rgb(42, 63, 95); fill-opacity: 1; white-space: pre; opacity: 1;" transform="translate(590.81,0)">Sep 2023</text></g></g><g class="yaxislayer-above"><g class="ytick"><text text-anchor="end" x="79" y="4.199999999999999" transform="translate(0,420)" style="font-family: 'Open Sans', verdana, arial, sans-serif; font-size: 12px; fill: rgb(42, 63, 95); fill-opacity: 1; white-space: pre; opacity: 1;">$0</text></g><g class="ytick"><text text-anchor="end" x="79" y="4.199999999999999" style="font-family: 'Open Sans', verdana, arial, sans-serif; font-size: 12px; fill: rgb(42, 63, 95); fill-opacity: 1; white-space: pre; opacity: 1;" transform="translate(0,345.93)">$5M</text></g><g class="ytick"><text text-anchor="end" x="79" y="4.199999999999999" style="font-family: 'Open Sans', verdana, arial, sans-serif; font-size: 12px; fill: rgb(42, 63, 95); fill-opacity: 1; white-space: pre; opacity: 1;" transform="translate(0,271.86)">$10M</text></g><g class="ytick"><text text-anchor="end" x="79" y="4.199999999999999" style="font-family: 'Open Sans', verdana, arial, sans-serif; font-size: 12px; fill: rgb(42, 63, 95); fill-opacity: 1; white-space: pre; opacity: 1;" transform="translate(0,197.8)">$15M</text></g><g class="ytick"><text text-anchor="end" x="79" y="4.199999999999999" style="font-family: 'Open Sans', verdana, arial, sans-serif; font-size: 12px; fill: rgb(42, 63, 95); fill-opacity: 1; white-space: pre; opacity: 1;" transform="translate(0,123.73)">$20M</text></g></g><g class="overaxes-above"/></g></g><g class="polarlayer"/><g class="smithlayer"/><g class="ternarylayer"/><g class="geolayer"/><g class="funnelarealayer"/><g class="pielayer"/><g class="iciclelayer"/><g class="treemaplayer"/><g class="sunburstlayer"/><g class="glimages"/><defs id="topdefs-f734b8"><g class="clips"/></defs><g class="layer-above"><g class="imagelayer"/><g class="shapelayer"/></g><g class="infolayer"><g class="g-gtitle"><text class="gtitle" x="35" y="50" text-anchor="start" dy="0em" style="font-family: 'Open Sans', verdana, arial, sans-serif; font-size: 17px; fill: rgb(42, 63, 95); opacity: 1; font-weight: normal; white-space: pre;"><tspan class="line" dy="0em" x="35" y="50">Lido - All Lido Curve Pools</tspan><tspan class="line" dy="1.3em" x="35" y="50">​<tspan style="font-size:70%" dy="-0.6em">Cumulative Net Flows since Program Announcement, Until Program End + 30 Days</tspan><tspan dy="0.42em">​</tspan></tspan></text></g><g class="g-xtitle"><text class="xtitle" x="350" y="460.3" text-anchor="middle" style="font-family: 'Open Sans', verdana, arial, sans-serif; font-size: 14px; fill: rgb(42, 63, 95); opacity: 1; font-weight: normal; white-space: pre;">Day</text></g><g class="g-ytitle"><text class="ytitle" transform="rotate(-90,24.668750000000003,260)" x="24.668750000000003" y="260" text-anchor="middle" style="font-family: 'Open Sans', verdana, arial, sans-serif; font-size: 14px; fill: rgb(42, 63, 95); opacity: 1; font-weight: normal; white-space: pre;">Cumulative Net Flows (USD)</text></g></g></svg>