<svg class="main-svg" xmlns="http://www.w3.org/2000/svg" xmlns:xlink="http://www.w3.org/1999/xlink" width="700" height="500" style="" viewBox="0 0 700 500"><rect x="0" y="0" width="700" height="500" style="fill: rgb(255, 255, 255); fill-opacity: 1;"/><defs id="defs-0279af"><g class="clips"><clipPath id="clip0279afxyplot" class="plotclip"><rect width="540" height="320"/></clipPath><clipPath class="axesclip" id="clip0279afx"><rect x="80" y="0" width="540" height="500"/></clipPath><clipPath class="axesclip" id="clip0279afy"><rect x="0" y="100" width="700" height="320"/></clipPath><clipPath class="axesclip" id="clip0279afxy"><rect x="80" y="100" width="540" height="320"/></clipPath></g><g class="gradients"/><g class="patterns"/></defs><g class="bglayer"><rect class="bg" x="80" y="100" width="540" height="320" style="fill: rgb(229, 236, 246); fill-opacity: 1; stroke-width: 0;"/></g><g class="layer-below"><g class="imagelayer"/><g class="shapelayer"/></g><g class="cartesianlayer"><g class="subplot xy"><g class="layer-subplot"><g class="shapelayer"/><g class="imagelayer"/></g><g class="minor-gridlayer"><g class="x"/><g class="y"/></g><g class="gridlayer"><g class="x"><path class="xgrid crisp" transform="translate(148.18,0)" d="M0,100v320" style="stroke: rgb(255, 255, 255); stroke-opacity: 1; stroke-width: 1px;"/><path class="xgrid crisp" transform="translate(231.36,0)" d="M0,100v320" style="stroke: rgb(255, 255, 255); stroke-opacity: 1; stroke-width: 1px;"/><path class="xgrid crisp" transform="translate(314.55,0)" d="M0,100v320" style="stroke: rgb(255, 255, 255); stroke-opacity: 1; stroke-width: 1px;"/><path class="xgrid crisp" transform="translate(399.09,0)" d="M0,100v320" style="stroke: rgb(255, 255, 255); stroke-opacity: 1; stroke-width: 1px;"/><path class="xgrid crisp" transform="translate(482.27,0)" d="M0,100v320" style="stroke: rgb(255, 255, 255); stroke-opacity: 1; stroke-width: 1px;"/><path class="xgrid crisp" transform="translate(565.45,0)" d="M0,100v320" style="stroke: rgb(255, 255, 255); stroke-opacity: 1; stroke-width: 1px;"/></g><g class="y"><path class="ygrid crisp" transform="translate(0,397.49)" d="M80,0h540" style="stroke: rgb(255, 255, 255); stroke-opacity: 1; stroke-width: 1px;"/><path class="ygrid crisp" transform="translate(0,348.5)" d="M80,0h540" style="stroke: rgb(255, 255, 255); stroke-opacity: 1; stroke-width: 1px;"/><path class="ygrid crisp" transform="translate(0,250.52)" d="M80,0h540" style="stroke: rgb(255, 255, 255); stroke-opacity: 1; stroke-width: 1px;"/><path class="ygrid crisp" transform="translate(0,201.54000000000002)" d="M80,0h540" style="stroke: rgb(255, 255, 255); stroke-opacity: 1; stroke-width: 1px;"/><path class="ygrid crisp" transform="translate(0,152.55)" d="M80,0h540" style="stroke: rgb(255, 255, 255); stroke-opacity: 1; stroke-width: 1px;"/><path class="ygrid crisp" transform="translate(0,103.56)" d="M80,0h540" style="stroke: rgb(255, 255, 255); stroke-opacity: 1; stroke-width: 1px;"/></g></g><g class="zerolinelayer"><path class="yzl zl crisp" transform="translate(0,299.51)" d="M80,0h540" style="stroke: rgb(255, 255, 255); stroke-opacity: 1; stroke-width: 2px;"/></g><path class="xlines-below"/><path class="ylines-below"/><g class="overlines-below"/><g class="xaxislayer-below"/><g class="yaxislayer-below"/><g class="overaxes-below"/><g class="plot" transform="translate(80,100)" clip-path="url(#clip0279afxyplot)"><g class="scatterlayer mlayer"><g class="trace scatter tracef6b81a" style="stroke-miterlimit: 2;"><g class="fills"><g><path class="js-fill" d="M540,199.51L0,199.51L0,199.45L1.36,199.75L2.73,202.58L6.82,202.73L8.18,203.42L10.91,203.43L12.27,170.02L15,162.79L16.36,161.01L17.73,137.32L19.09,141.79L20.45,110.96L21.82,100.67L23.18,96.6L24.55,97.06L25.91,96.87L27.27,95.74L28.64,87.42L30,91.81L31.36,104.52L32.73,88.2L34.09,87.72L35.45,66.62L36.82,64.66L38.18,53.76L40.91,53.68L42.27,54.85L45,24.11L46.36,28.81L47.73,24.66L49.09,16.82L50.45,16.82L51.82,27.35L53.18,30.58L54.55,53.17L55.91,23.23L57.27,21.49L58.64,41.11L60,19.56L61.36,24.52L62.73,24.91L64.09,22.75L65.45,23.12L66.82,22.41L68.18,16L69.55,49.74L70.91,56.28L73.64,67.4L75,67.16L76.36,70.85L77.73,71.38L80.45,108.07L81.82,185L83.18,196.96L84.55,187.74L85.91,182.67L87.27,173.17L88.64,163.33L90,75.11L92.73,107.28L94.09,109.27L95.45,92.29L96.82,100.11L98.18,101.21L99.55,111.53L102.27,110.93L103.64,112L107.73,116.8L109.09,117.65L113.18,122.19L114.55,137.51L122.73,137.96L124.09,138.62L125.45,155.58L126.82,156.33L128.18,156.07L129.55,115.78L130.91,111.7L132.27,111.95L133.64,106.49L135,79.78L136.36,84.2L137.73,84.93L139.09,126.19L140.45,128.2L141.82,128.2L143.18,129.15L144.55,104.63L145.91,104.66L148.64,103.62L150,113.49L151.36,138.27L152.73,137.55L154.09,137.69L155.45,141.26L159.55,141.63L160.91,142.25L170.45,142.03L171.82,144.43L173.18,144.42L174.55,132.08L180,132.06L181.36,131.02L182.73,132.25L184.09,126.18L186.82,126.71L188.18,122.79L192.27,122.72L193.64,133.31L197.73,133.27L199.09,132.18L201.82,131.94L203.18,117.36L204.55,117.38L205.91,144.06L207.27,144.05L208.64,142.57L210,141.13L211.36,141.19L212.73,140.48L214.09,135.27L215.45,135.26L216.82,147.93L220.91,147.83L222.27,136.93L223.64,148.54L225,143.47L226.36,203.99L227.73,198.51L229.09,182.27L230.45,243.46L231.82,275.79L233.18,285.43L237.27,290.1L238.64,290.16L240,290.18L241.36,292.42L242.73,295.34L244.09,295.34L253.64,296.15L255,296.7L261.82,297.87L263.18,303.12L265.91,304L267.27,303.14L463.64,303.62L465,304L473.18,303.72L474.55,304L480,303.68L481.36,304L493.64,303.68L495,304L499.09,303.68L500.45,303.68L540,303.68" style="fill: rgb(99, 110, 250); fill-opacity: 0.5; stroke-width: 0;"/></g></g><g class="errorbars"/><g class="lines"><path class="js-line" d="M0,199.45L1.36,199.75L2.73,202.58L6.82,202.73L8.18,203.42L10.91,203.43L12.27,170.02L15,162.79L16.36,161.01L17.73,137.32L19.09,141.79L20.45,110.96L21.82,100.67L23.18,96.6L24.55,97.06L25.91,96.87L27.27,95.74L28.64,87.42L30,91.81L31.36,104.52L32.73,88.2L34.09,87.72L35.45,66.62L36.82,64.66L38.18,53.76L40.91,53.68L42.27,54.85L45,24.11L46.36,28.81L47.73,24.66L49.09,16.82L50.45,16.82L51.82,27.35L53.18,30.58L54.55,53.17L55.91,23.23L57.27,21.49L58.64,41.11L60,19.56L61.36,24.52L62.73,24.91L64.09,22.75L65.45,23.12L66.82,22.41L68.18,16L69.55,49.74L70.91,56.28L73.64,67.4L75,67.16L76.36,70.85L77.73,71.38L80.45,108.07L81.82,185L83.18,196.96L84.55,187.74L85.91,182.67L87.27,173.17L88.64,163.33L90,75.11L92.73,107.28L94.09,109.27L95.45,92.29L96.82,100.11L98.18,101.21L99.55,111.53L102.27,110.93L103.64,112L107.73,116.8L109.09,117.65L113.18,122.19L114.55,137.51L122.73,137.96L124.09,138.62L125.45,155.58L126.82,156.33L128.18,156.07L129.55,115.78L130.91,111.7L132.27,111.95L133.64,106.49L135,79.78L136.36,84.2L137.73,84.93L139.09,126.19L140.45,128.2L141.82,128.2L143.18,129.15L144.55,104.63L145.91,104.66L148.64,103.62L150,113.49L151.36,138.27L152.73,137.55L154.09,137.69L155.45,141.26L159.55,141.63L160.91,142.25L170.45,142.03L171.82,144.43L173.18,144.42L174.55,132.08L180,132.06L181.36,131.02L182.73,132.25L184.09,126.18L186.82,126.71L188.18,122.79L192.27,122.72L193.64,133.31L197.73,133.27L199.09,132.18L201.82,131.94L203.18,117.36L204.55,117.38L205.91,144.06L207.27,144.05L208.64,142.57L210,141.13L211.36,141.19L212.73,140.48L214.09,135.27L215.45,135.26L216.82,147.93L220.91,147.83L222.27,136.93L223.64,148.54L225,143.47L226.36,203.99L227.73,198.51L229.09,182.27L230.45,243.46L231.82,275.79L233.18,285.43L237.27,290.1L238.64,290.16L240,290.18L241.36,292.42L242.73,295.34L244.09,295.34L253.64,296.15L255,296.7L261.82,297.87L263.18,303.12L265.91,304L267.27,303.14L463.64,303.62L465,304L473.18,303.72L474.55,304L480,303.68L481.36,304L493.64,303.68L495,304L499.09,303.68L500.45,303.68L540,303.68" style="vector-effect: none; fill: none; stroke: rgb(99, 110, 250); stroke-opacity: 1; stroke-width: 2px; opacity: 1;"/></g><g class="points"/><g class="text"/></g></g></g><g class="overplot"/><path class="xlines-above crisp" d="M0,0" style="fill: none;"/><path class="ylines-above crisp" d="M0,0" style="fill: none;"/><g class="overlines-above"/><g class="xaxislayer-above"><g class="xtick"><text text-anchor="middle" x="0" y="433" transform="translate(148.18,0)" style="font-family: 'Open Sans', verdana, arial, sans-serif; font-size: 12px; fill: rgb(42, 63, 95); fill-opacity: 1; white-space: pre; opacity: 1;">Mar 2023</text></g><g class="xtick"><text text-anchor="middle" x="0" y="433" style="font-family: 'Open Sans', verdana, arial, sans-serif; font-size: 12px; fill: rgb(42, 63, 95); fill-opacity: 1; white-space: pre; opacity: 1;" transform="translate(231.36,0)">May 2023</text></g><g class="xtick"><text text-anchor="middle" x="0" y="433" style="font-family: 'Open Sans', verdana, arial, sans-serif; font-size: 12px; fill: rgb(42, 63, 95); fill-opacity: 1; white-space: pre; opacity: 1;" transform="translate(314.55,0)">Jul 2023</text></g><g class="xtick"><text text-anchor="middle" x="0" y="433" style="font-family: 'Open Sans', verdana, arial, sans-serif; font-size: 12px; fill: rgb(42, 63, 95); fill-opacity: 1; white-space: pre; opacity: 1;" transform="translate(399.09,0)">Sep 2023</text></g><g class="xtick"><text text-anchor="middle" x="0" y="433" style="font-family: 'Open Sans', verdana, arial, sans-serif; font-size: 12px; fill: rgb(42, 63, 95); fill-opacity: 1; white-space: pre; opacity: 1;" transform="translate(482.27,0)">Nov 2023</text></g><g class="xtick"><text text-anchor="middle" x="0" y="433" style="font-family: 'Open Sans', verdana, arial, sans-serif; font-size: 12px; fill: rgb(42, 63, 95); fill-opacity: 1; white-space: pre; opacity: 1;" transform="translate(565.45,0)">Jan 2024</text></g></g><g class="yaxislayer-above"><g class="ytick"><text text-anchor="end" x="79" y="4.199999999999999" transform="translate(0,397.49)" style="font-family: 'Open Sans', verdana, arial, sans-serif; font-size: 12px; fill: rgb(42, 63, 95); fill-opacity: 1; white-space: pre; opacity: 1;">$−2M</text></g><g class="ytick"><text text-anchor="end" x="79" y="4.199999999999999" style="font-family: 'Open Sans', verdana, arial, sans-serif; font-size: 12px; fill: rgb(42, 63, 95); fill-opacity: 1; white-space: pre; opacity: 1;" transform="translate(0,348.5)">$−1M</text></g><g class="ytick"><text text-anchor="end" x="79" y="4.199999999999999" style="font-family: 'Open Sans', verdana, arial, sans-serif; font-size: 12px; fill: rgb(42, 63, 95); fill-opacity: 1; white-space: pre; opacity: 1;" transform="translate(0,299.51)">$0</text></g><g class="ytick"><text text-anchor="end" x="79" y="4.199999999999999" style="font-family: 'Open Sans', verdana, arial, sans-serif; font-size: 12px; fill: rgb(42, 63, 95); fill-opacity: 1; white-space: pre; opacity: 1;" transform="translate(0,250.52)">$1M</text></g><g class="ytick"><text text-anchor="end" x="79" y="4.199999999999999" style="font-family: 'Open Sans', verdana, arial, sans-serif; font-size: 12px; fill: rgb(42, 63, 95); fill-opacity: 1; white-space: pre; opacity: 1;" transform="translate(0,201.54000000000002)">$2M</text></g><g class="ytick"><text text-anchor="end" x="79" y="4.199999999999999" style="font-family: 'Open Sans', verdana, arial, sans-serif; font-size: 12px; fill: rgb(42, 63, 95); fill-opacity: 1; white-space: pre; opacity: 1;" transform="translate(0,152.55)">$3M</text></g><g class="ytick"><text text-anchor="end" x="79" y="4.199999999999999" style="font-family: 'Open Sans', verdana, arial, sans-serif; font-size: 12px; fill: rgb(42, 63, 95); fill-opacity: 1; white-space: pre; opacity: 1;" transform="translate(0,103.56)">$4M</text></g></g><g class="overaxes-above"/></g></g><g class="polarlayer"/><g class="smithlayer"/><g class="ternarylayer"/><g class="geolayer"/><g class="funnelarealayer"/><g class="pielayer"/><g class="iciclelayer"/><g class="treemaplayer"/><g class="sunburstlayer"/><g class="glimages"/><defs id="topdefs-0279af"><g class="clips"/></defs><g class="layer-above"><g class="imagelayer"/><g class="shapelayer"/></g><g class="infolayer"><g class="g-gtitle"><text class="gtitle" x="35" y="50" text-anchor="start" dy="0em" style="font-family: 'Open Sans', verdana, arial, sans-serif; font-size: 17px; fill: rgb(42, 63, 95); opacity: 1; font-weight: normal; white-space: pre;"><tspan class="line" dy="0em" x="35" y="50">Overnight - USD+/USDC: Velodrome</tspan><tspan class="line" dy="1.3em" x="35" y="50">​<tspan style="font-size:70%" dy="-0.6em">Cumulative Net Flows since Program Announcement, Until Program End + 30 Days</tspan><tspan dy="0.42em">​</tspan></tspan></text></g><g class="g-xtitle"><text class="xtitle" x="350" y="460.3" text-anchor="middle" style="font-family: 'Open Sans', verdana, arial, sans-serif; font-size: 14px; fill: rgb(42, 63, 95); opacity: 1; font-weight: normal; white-space: pre;">Day</text></g><g class="g-ytitle"><text class="ytitle" transform="rotate(-90,24.340625000000003,260)" x="24.340625000000003" y="260" text-anchor="middle" style="font-family: 'Open Sans', verdana, arial, sans-serif; font-size: 14px; fill: rgb(42, 63, 95); opacity: 1; font-weight: normal; white-space: pre;">Cumulative Net Flows (USD)</text></g></g></svg>