<svg class="main-svg" xmlns="http://www.w3.org/2000/svg" xmlns:xlink="http://www.w3.org/1999/xlink" width="700" height="500" style="" viewBox="0 0 700 500"><rect x="0" y="0" width="700" height="500" style="fill: rgb(255, 255, 255); fill-opacity: 1;"/><defs id="defs-0773a1"><g class="clips"><clipPath id="clip0773a1xyplot" class="plotclip"><rect width="540" height="320"/></clipPath><clipPath class="axesclip" id="clip0773a1x"><rect x="80" y="0" width="540" height="500"/></clipPath><clipPath class="axesclip" id="clip0773a1y"><rect x="0" y="100" width="700" height="320"/></clipPath><clipPath class="axesclip" id="clip0773a1xy"><rect x="80" y="100" width="540" height="320"/></clipPath></g><g class="gradients"/><g class="patterns"/></defs><g class="bglayer"><rect class="bg" x="80" y="100" width="540" height="320" style="fill: rgb(229, 236, 246); fill-opacity: 1; stroke-width: 0;"/></g><g class="layer-below"><g class="imagelayer"/><g class="shapelayer"/></g><g class="cartesianlayer"><g class="subplot xy"><g class="layer-subplot"><g class="shapelayer"/><g class="imagelayer"/></g><g class="minor-gridlayer"><g class="x"/><g class="y"/></g><g class="gridlayer"><g class="x"><path class="xgrid crisp" transform="translate(166.93,0)" d="M0,100v320" style="stroke: rgb(255, 255, 255); stroke-opacity: 1; stroke-width: 1px;"/><path class="xgrid crisp" transform="translate(268.91999999999996,0)" d="M0,100v320" style="stroke: rgb(255, 255, 255); stroke-opacity: 1; stroke-width: 1px;"/><path class="xgrid crisp" transform="translate(370.9,0)" d="M0,100v320" style="stroke: rgb(255, 255, 255); stroke-opacity: 1; stroke-width: 1px;"/><path class="xgrid crisp" transform="translate(474.55,0)" d="M0,100v320" style="stroke: rgb(255, 255, 255); stroke-opacity: 1; stroke-width: 1px;"/><path class="xgrid crisp" transform="translate(576.53,0)" d="M0,100v320" style="stroke: rgb(255, 255, 255); stroke-opacity: 1; stroke-width: 1px;"/></g><g class="y"><path class="ygrid crisp" transform="translate(0,402.43)" d="M80,0h540" style="stroke: rgb(255, 255, 255); stroke-opacity: 1; stroke-width: 1px;"/><path class="ygrid crisp" transform="translate(0,299.26)" d="M80,0h540" style="stroke: rgb(255, 255, 255); stroke-opacity: 1; stroke-width: 1px;"/><path class="ygrid crisp" transform="translate(0,247.67)" d="M80,0h540" style="stroke: rgb(255, 255, 255); stroke-opacity: 1; stroke-width: 1px;"/><path class="ygrid crisp" transform="translate(0,196.09)" d="M80,0h540" style="stroke: rgb(255, 255, 255); stroke-opacity: 1; stroke-width: 1px;"/><path class="ygrid crisp" transform="translate(0,144.5)" d="M80,0h540" style="stroke: rgb(255, 255, 255); stroke-opacity: 1; stroke-width: 1px;"/></g></g><g class="zerolinelayer"><path class="yzl zl crisp" transform="translate(0,350.84000000000003)" d="M80,0h540" style="stroke: rgb(255, 255, 255); stroke-opacity: 1; stroke-width: 2px;"/></g><path class="xlines-below"/><path class="ylines-below"/><g class="overlines-below"/><g class="xaxislayer-below"/><g class="yaxislayer-below"/><g class="overaxes-below"/><g class="plot" transform="translate(80,100)" clip-path="url(#clip0773a1xyplot)"><g class="scatterlayer mlayer"><g class="trace scatter trace92ce30" style="stroke-miterlimit: 2;"><g class="fills"><g><path class="js-fill" d="M540,250.84L0,250.84L0,186.59L1.67,189.32L3.34,189.32L6.69,189.46L8.36,189.53L11.7,189.58L13.37,188.87L30.09,189.01L31.76,186.88L33.44,178.33L35.11,178.44L36.78,178.37L38.45,175.91L40.12,173.9L41.8,173.61L48.48,173.24L50.15,171.98L53.5,171.66L55.17,170.6L56.84,168.48L58.51,162.88L60.19,170.52L61.86,168.94L63.53,168.38L65.2,151.63L66.87,151.36L68.54,152.26L70.22,152.19L71.89,83.79L73.56,83.84L75.23,82.77L76.9,76.33L78.58,76.12L80.25,71.95L81.92,71.43L83.59,71.08L85.26,67.23L86.93,67.11L88.61,60.53L90.28,57.94L91.95,56.84L93.62,61.31L95.29,60.96L100.31,60.57L101.98,68.51L103.65,77.14L105.33,69.16L107,40.39L108.67,32.56L110.34,32.6L112.01,30.93L113.68,30.61L115.36,38.85L117.03,41.39L118.7,41.07L120.37,41.1L122.04,42.41L123.72,48.61L125.39,48.87L132.07,49.09L133.75,39.77L135.42,40.1L137.09,30.91L140.43,31.32L142.11,30.74L143.78,30.74L145.45,28.74L147.12,28.96L148.79,28.28L150.46,28.26L152.14,26.14L155.48,29.08L157.15,16L158.82,16.01L160.5,18.49L162.17,60.6L163.84,59.92L165.51,60.31L167.18,59.71L170.53,54.08L172.2,53.61L175.54,53.76L177.21,53.88L178.89,49.44L180.56,49.82L183.9,49.7L185.57,49.69L188.92,47.73L190.59,44.79L192.26,45.62L193.93,45.6L198.95,45.36L200.62,47.71L203.96,45.73L205.63,45.73L207.31,54.18L208.98,53.53L210.65,53.52L212.32,52.5L213.99,51.42L215.67,51.41L219.01,51.41L220.68,54.11L222.35,54.11L224.02,58.1L225.7,58.09L227.37,172.22L229.04,167.49L230.71,167.47L242.41,165.57L244.09,165.72L245.76,165.36L247.43,161.23L249.1,161.19L250.77,158.83L252.45,159.73L254.12,156.21L255.79,151.96L257.46,151.87L259.13,151.58L260.8,131.88L262.48,128.38L264.15,132.66L265.82,135.19L267.49,134.06L269.16,124.99L270.84,121.6L272.51,118.12L274.18,118.86L275.85,110.69L277.52,134.98L279.2,132.51L280.87,143.18L282.54,142.64L284.21,143.37L285.88,144.28L287.55,197.73L289.23,213.81L290.9,217.71L292.57,218.37L294.24,222.8L295.91,224.09L297.59,238.43L299.26,234.7L300.93,234.8L302.6,234.85L304.27,236.63L305.94,247.89L307.62,253.27L309.29,297.32L310.96,297.51L312.63,298.61L314.3,298.61L327.68,298.99L329.35,299.47L372.82,300.01L374.49,300.35L429.66,300.77L431.33,303.13L433,300.8L434.67,300.8L436.35,300.8L438.02,303.12L439.69,300.8L441.36,300.8L444.71,300.8L446.38,303.25L449.72,300.89L451.39,300.89L456.41,300.88L458.08,303.29L459.75,301.01L461.42,301.01L463.1,301.01L464.77,303.24L466.44,300.97L468.11,300.97L486.5,300.97L488.17,303.59L489.85,300.95L491.52,300.95L526.63,300.98L528.3,304L529.97,301.05L531.64,301.05L540,301.05" style="fill: rgb(99, 110, 250); fill-opacity: 0.5; stroke-width: 0;"/></g></g><g class="errorbars"/><g class="lines"><path class="js-line" d="M0,186.59L1.67,189.32L3.34,189.32L6.69,189.46L8.36,189.53L11.7,189.58L13.37,188.87L30.09,189.01L31.76,186.88L33.44,178.33L35.11,178.44L36.78,178.37L38.45,175.91L40.12,173.9L41.8,173.61L48.48,173.24L50.15,171.98L53.5,171.66L55.17,170.6L56.84,168.48L58.51,162.88L60.19,170.52L61.86,168.94L63.53,168.38L65.2,151.63L66.87,151.36L68.54,152.26L70.22,152.19L71.89,83.79L73.56,83.84L75.23,82.77L76.9,76.33L78.58,76.12L80.25,71.95L81.92,71.43L83.59,71.08L85.26,67.23L86.93,67.11L88.61,60.53L90.28,57.94L91.95,56.84L93.62,61.31L95.29,60.96L100.31,60.57L101.98,68.51L103.65,77.14L105.33,69.16L107,40.39L108.67,32.56L110.34,32.6L112.01,30.93L113.68,30.61L115.36,38.85L117.03,41.39L118.7,41.07L120.37,41.1L122.04,42.41L123.72,48.61L125.39,48.87L132.07,49.09L133.75,39.77L135.42,40.1L137.09,30.91L140.43,31.32L142.11,30.74L143.78,30.74L145.45,28.74L147.12,28.96L148.79,28.28L150.46,28.26L152.14,26.14L155.48,29.08L157.15,16L158.82,16.01L160.5,18.49L162.17,60.6L163.84,59.92L165.51,60.31L167.18,59.71L170.53,54.08L172.2,53.61L175.54,53.76L177.21,53.88L178.89,49.44L180.56,49.82L183.9,49.7L185.57,49.69L188.92,47.73L190.59,44.79L192.26,45.62L193.93,45.6L198.95,45.36L200.62,47.71L203.96,45.73L205.63,45.73L207.31,54.18L208.98,53.53L210.65,53.52L212.32,52.5L213.99,51.42L215.67,51.41L219.01,51.41L220.68,54.11L222.35,54.11L224.02,58.1L225.7,58.09L227.37,172.22L229.04,167.49L230.71,167.47L242.41,165.57L244.09,165.72L245.76,165.36L247.43,161.23L249.1,161.19L250.77,158.83L252.45,159.73L254.12,156.21L255.79,151.96L257.46,151.87L259.13,151.58L260.8,131.88L262.48,128.38L264.15,132.66L265.82,135.19L267.49,134.06L269.16,124.99L270.84,121.6L272.51,118.12L274.18,118.86L275.85,110.69L277.52,134.98L279.2,132.51L280.87,143.18L282.54,142.64L284.21,143.37L285.88,144.28L287.55,197.73L289.23,213.81L290.9,217.71L292.57,218.37L294.24,222.8L295.91,224.09L297.59,238.43L299.26,234.7L300.93,234.8L302.6,234.85L304.27,236.63L305.94,247.89L307.62,253.27L309.29,297.32L310.96,297.51L312.63,298.61L314.3,298.61L327.68,298.99L329.35,299.47L372.82,300.01L374.49,300.35L429.66,300.77L431.33,303.13L433,300.8L434.67,300.8L436.35,300.8L438.02,303.12L439.69,300.8L441.36,300.8L444.71,300.8L446.38,303.25L449.72,300.89L451.39,300.89L456.41,300.88L458.08,303.29L459.75,301.01L461.42,301.01L463.1,301.01L464.77,303.24L466.44,300.97L468.11,300.97L486.5,300.97L488.17,303.59L489.85,300.95L491.52,300.95L526.63,300.98L528.3,304L529.97,301.05L531.64,301.05L540,301.05" style="vector-effect: none; fill: none; stroke: rgb(99, 110, 250); stroke-opacity: 1; stroke-width: 2px; opacity: 1;"/></g><g class="points"/><g class="text"/></g></g></g><g class="overplot"/><path class="xlines-above crisp" d="M0,0" style="fill: none;"/><path class="ylines-above crisp" d="M0,0" style="fill: none;"/><g class="overlines-above"/><g class="xaxislayer-above"><g class="xtick"><text text-anchor="middle" x="0" y="433" transform="translate(166.93,0)" style="font-family: 'Open Sans', verdana, arial, sans-serif; font-size: 12px; fill: rgb(42, 63, 95); fill-opacity: 1; white-space: pre; opacity: 1;">Mar 2023</text></g><g class="xtick"><text text-anchor="middle" x="0" y="433" style="font-family: 'Open Sans', verdana, arial, sans-serif; font-size: 12px; fill: rgb(42, 63, 95); fill-opacity: 1; white-space: pre; opacity: 1;" transform="translate(268.91999999999996,0)">May 2023</text></g><g class="xtick"><text text-anchor="middle" x="0" y="433" style="font-family: 'Open Sans', verdana, arial, sans-serif; font-size: 12px; fill: rgb(42, 63, 95); fill-opacity: 1; white-space: pre; opacity: 1;" transform="translate(370.9,0)">Jul 2023</text></g><g class="xtick"><text text-anchor="middle" x="0" y="433" style="font-family: 'Open Sans', verdana, arial, sans-serif; font-size: 12px; fill: rgb(42, 63, 95); fill-opacity: 1; white-space: pre; opacity: 1;" transform="translate(474.55,0)">Sep 2023</text></g><g class="xtick"><text text-anchor="middle" x="0" y="433" style="font-family: 'Open Sans', verdana, arial, sans-serif; font-size: 12px; fill: rgb(42, 63, 95); fill-opacity: 1; white-space: pre; opacity: 1;" transform="translate(576.53,0)">Nov 2023</text></g></g><g class="yaxislayer-above"><g class="ytick"><text text-anchor="end" x="79" y="4.199999999999999" transform="translate(0,402.43)" style="font-family: 'Open Sans', verdana, arial, sans-serif; font-size: 12px; fill: rgb(42, 63, 95); fill-opacity: 1; white-space: pre; opacity: 1;">$−1M</text></g><g class="ytick"><text text-anchor="end" x="79" y="4.199999999999999" style="font-family: 'Open Sans', verdana, arial, sans-serif; font-size: 12px; fill: rgb(42, 63, 95); fill-opacity: 1; white-space: pre; opacity: 1;" transform="translate(0,350.84000000000003)">$0</text></g><g class="ytick"><text text-anchor="end" x="79" y="4.199999999999999" style="font-family: 'Open Sans', verdana, arial, sans-serif; font-size: 12px; fill: rgb(42, 63, 95); fill-opacity: 1; white-space: pre; opacity: 1;" transform="translate(0,299.26)">$1M</text></g><g class="ytick"><text text-anchor="end" x="79" y="4.199999999999999" style="font-family: 'Open Sans', verdana, arial, sans-serif; font-size: 12px; fill: rgb(42, 63, 95); fill-opacity: 1; white-space: pre; opacity: 1;" transform="translate(0,247.67)">$2M</text></g><g class="ytick"><text text-anchor="end" x="79" y="4.199999999999999" style="font-family: 'Open Sans', verdana, arial, sans-serif; font-size: 12px; fill: rgb(42, 63, 95); fill-opacity: 1; white-space: pre; opacity: 1;" transform="translate(0,196.09)">$3M</text></g><g class="ytick"><text text-anchor="end" x="79" y="4.199999999999999" style="font-family: 'Open Sans', verdana, arial, sans-serif; font-size: 12px; fill: rgb(42, 63, 95); fill-opacity: 1; white-space: pre; opacity: 1;" transform="translate(0,144.5)">$4M</text></g></g><g class="overaxes-above"/></g></g><g class="polarlayer"/><g class="smithlayer"/><g class="ternarylayer"/><g class="geolayer"/><g class="funnelarealayer"/><g class="pielayer"/><g class="iciclelayer"/><g class="treemaplayer"/><g class="sunburstlayer"/><g class="glimages"/><defs id="topdefs-0773a1"><g class="clips"/></defs><g class="layer-above"><g class="imagelayer"/><g class="shapelayer"/></g><g class="infolayer"><g class="g-gtitle"><text class="gtitle" x="35" y="50" text-anchor="start" dy="0em" style="font-family: 'Open Sans', verdana, arial, sans-serif; font-size: 17px; fill: rgb(42, 63, 95); opacity: 1; font-weight: normal; white-space: pre;"><tspan class="line" dy="0em" x="35" y="50">Alchemix - alETH/WETH: Velodrome</tspan><tspan class="line" dy="1.3em" x="35" y="50">​<tspan style="font-size:70%" dy="-0.6em">Cumulative Net Flows since Program Announcement, Until Program End + 30 Days</tspan><tspan dy="0.42em">​</tspan></tspan></text></g><g class="g-xtitle"><text class="xtitle" x="350" y="460.3" text-anchor="middle" style="font-family: 'Open Sans', verdana, arial, sans-serif; font-size: 14px; fill: rgb(42, 63, 95); opacity: 1; font-weight: normal; white-space: pre;">Day</text></g><g class="g-ytitle"><text class="ytitle" transform="rotate(-90,24.340625000000003,260)" x="24.340625000000003" y="260" text-anchor="middle" style="font-family: 'Open Sans', verdana, arial, sans-serif; font-size: 14px; fill: rgb(42, 63, 95); opacity: 1; font-weight: normal; white-space: pre;">Cumulative Net Flows (USD)</text></g></g></svg>