<svg class="main-svg" xmlns="http://www.w3.org/2000/svg" xmlns:xlink="http://www.w3.org/1999/xlink" width="700" height="500" style="" viewBox="0 0 700 500"><rect x="0" y="0" width="700" height="500" style="fill: rgb(255, 255, 255); fill-opacity: 1;"/><defs id="defs-002640"><g class="clips"><clipPath id="clip002640xyplot" class="plotclip"><rect width="540" height="320"/></clipPath><clipPath class="axesclip" id="clip002640x"><rect x="80" y="0" width="540" height="500"/></clipPath><clipPath class="axesclip" id="clip002640y"><rect x="0" y="100" width="700" height="320"/></clipPath><clipPath class="axesclip" id="clip002640xy"><rect x="80" y="100" width="540" height="320"/></clipPath></g><g class="gradients"/><g class="patterns"/></defs><g class="bglayer"><rect class="bg" x="80" y="100" width="540" height="320" style="fill: rgb(229, 236, 246); fill-opacity: 1; stroke-width: 0;"/></g><g class="layer-below"><g class="imagelayer"/><g class="shapelayer"/></g><g class="cartesianlayer"><g class="subplot xy"><g class="layer-subplot"><g class="shapelayer"/><g class="imagelayer"/></g><g class="minor-gridlayer"><g class="x"/><g class="y"/></g><g class="gridlayer"><g class="x"><path class="xgrid crisp" transform="translate(140,0)" d="M0,100v320" style="stroke: rgb(255, 255, 255); stroke-opacity: 1; stroke-width: 1px;"/><path class="xgrid crisp" transform="translate(238.92,0)" d="M0,100v320" style="stroke: rgb(255, 255, 255); stroke-opacity: 1; stroke-width: 1px;"/><path class="xgrid crisp" transform="translate(337.84,0)" d="M0,100v320" style="stroke: rgb(255, 255, 255); stroke-opacity: 1; stroke-width: 1px;"/><path class="xgrid crisp" transform="translate(438.38,0)" d="M0,100v320" style="stroke: rgb(255, 255, 255); stroke-opacity: 1; stroke-width: 1px;"/><path class="xgrid crisp" transform="translate(537.3,0)" d="M0,100v320" style="stroke: rgb(255, 255, 255); stroke-opacity: 1; stroke-width: 1px;"/></g><g class="y"><path class="ygrid crisp" transform="translate(0,400.55)" d="M80,0h540" style="stroke: rgb(255, 255, 255); stroke-opacity: 1; stroke-width: 1px;"/><path class="ygrid crisp" transform="translate(0,350.46000000000004)" d="M80,0h540" style="stroke: rgb(255, 255, 255); stroke-opacity: 1; stroke-width: 1px;"/><path class="ygrid crisp" transform="translate(0,300.37)" d="M80,0h540" style="stroke: rgb(255, 255, 255); stroke-opacity: 1; stroke-width: 1px;"/><path class="ygrid crisp" transform="translate(0,250.28)" d="M80,0h540" style="stroke: rgb(255, 255, 255); stroke-opacity: 1; stroke-width: 1px;"/><path class="ygrid crisp" transform="translate(0,200.18)" d="M80,0h540" style="stroke: rgb(255, 255, 255); stroke-opacity: 1; stroke-width: 1px;"/><path class="ygrid crisp" transform="translate(0,150.09)" d="M80,0h540" style="stroke: rgb(255, 255, 255); stroke-opacity: 1; stroke-width: 1px;"/></g></g><g class="zerolinelayer"><path class="yzl zl crisp" transform="translate(0,100)" d="M80,0h540" style="stroke: rgb(255, 255, 255); stroke-opacity: 1; stroke-width: 2px;"/></g><path class="xlines-below"/><path class="ylines-below"/><g class="overlines-below"/><g class="xaxislayer-below"/><g class="yaxislayer-below"/><g class="overaxes-below"/><g class="plot" transform="translate(80,100)" clip-path="url(#clip002640xyplot)"><g class="scatterlayer mlayer"><g class="trace scatter trace981875" style="stroke-miterlimit: 2;"><g class="fills"><g><path class="js-fill" d="M540,0L0,0L0,2.53L1.62,2.86L3.24,31.75L4.86,32.68L6.49,36.63L9.73,41.52L11.35,44.35L16.22,48.04L17.84,47.7L21.08,50.06L22.7,51.94L24.32,53.3L25.95,53.29L27.57,55.4L29.19,61.42L30.81,63.03L32.43,66L34.05,68.68L35.68,69.02L37.3,71.14L38.92,64.79L40.54,65.97L42.16,69.61L43.78,86.27L45.41,86.53L48.65,86.13L50.27,88.65L51.89,90.43L53.51,88.76L55.14,89.43L56.76,88.65L58.38,82.03L60,82.44L61.62,84.37L63.24,89.08L66.49,92.85L68.11,93.14L72.97,93.5L74.59,90.7L76.22,94.33L77.84,104.22L79.46,105.04L81.08,102.23L82.7,102.36L84.32,95.09L85.95,91.91L87.57,93.01L89.19,93.57L90.81,99.5L92.43,99.71L94.05,105L95.68,105.77L97.3,105.13L98.92,105.19L100.54,109.01L102.16,110.31L103.78,110.49L107.03,104.23L108.65,105.96L110.27,105.96L111.89,102.92L113.51,105.55L115.14,106.49L116.76,97.76L118.38,97.21L120,98.21L121.62,96.78L124.86,97.42L126.49,102.69L129.73,98.87L131.35,101.28L134.59,103.19L136.22,101.6L137.84,101.04L139.46,101.75L141.08,100.61L142.7,101.06L144.32,101.07L145.95,101.91L147.57,102.1L149.19,103.9L150.81,104.37L152.43,103.9L154.05,104.16L155.68,106.8L157.3,106.65L158.92,103.38L165.41,103.49L167.03,104.6L170.27,105.08L171.89,105.33L175.14,104.6L176.76,107.04L178.38,105.89L180,105.75L181.62,104.58L183.24,104.66L184.86,106.27L186.49,106.37L189.73,109.14L191.35,113.43L192.97,113.66L194.59,115.98L197.84,122.17L199.46,121.82L202.7,71.06L204.32,57.85L207.57,49.36L209.19,59.1L210.81,58.12L212.43,73.46L214.05,66.32L215.68,74.24L220.54,88.86L222.16,91.99L227.03,94.71L228.65,101.16L230.27,103.66L231.89,104.35L238.38,108.59L240,107.89L244.86,110.68L246.49,111.37L248.11,111.75L249.73,111.07L252.97,111.87L254.59,113.19L256.22,115.63L257.84,130.61L259.46,131.26L261.08,133.96L262.7,142.05L264.32,142.63L269.19,143.36L270.81,146.22L277.3,146.63L278.92,146.58L283.78,147.46L285.41,149.96L291.89,142.73L293.51,145.94L295.14,144.92L296.76,145.66L300,146.79L301.62,152.42L304.86,153.09L306.49,153.72L308.11,155.82L309.73,156.27L311.35,156.24L312.97,146.23L321.08,145.83L322.7,158.42L324.32,167.34L325.95,168.65L327.57,168.68L329.19,170.09L332.43,173.37L334.05,173.99L335.68,173.94L337.3,175.44L342.16,174.2L343.78,183.22L345.41,183.93L347.03,190.32L348.65,186.55L350.27,194.19L351.89,198.08L353.51,198.82L355.14,198.92L356.76,199.81L358.38,204.64L360,205.23L361.62,209.19L363.24,209.42L366.49,209.92L368.11,211.13L371.35,212.75L372.97,228.14L374.59,229.85L376.22,230.44L379.46,231.4L381.08,233.25L385.95,234.28L387.57,236.1L397.3,239.53L398.92,237.48L402.16,237.69L403.78,238.31L405.41,238.43L407.03,236.92L408.65,243.59L410.27,246.53L415.14,247.31L416.76,248.16L423.24,249.14L424.86,249.18L426.49,246.3L428.11,246.54L431.35,247.3L432.97,243.41L444.32,246.46L445.95,242.77L447.57,243.96L449.19,240.91L450.81,240.05L452.43,241.95L454.05,241.95L455.68,243.59L458.92,243.19L460.54,245.21L462.16,243.64L463.78,245.31L465.41,248.19L467.03,248.57L470.27,249.05L471.89,249.75L475.14,250.49L476.76,258.57L480,258.3L481.62,258.52L484.86,259.02L486.49,259.05L489.73,260.49L491.35,260.56L492.97,260.94L494.59,262.47L496.22,265.59L497.84,265.84L505.95,267.04L507.57,274.85L509.19,275.6L510.81,287.6L512.43,290.57L514.05,290.79L515.68,298.91L517.3,300.33L520.54,303.29L522.16,303.18L523.78,300.96L525.41,296.2L527.03,299.95L528.65,300.43L531.89,300.77L533.51,301.86L536.76,302.38L538.38,303.58L540,304" style="fill: rgb(99, 110, 250); fill-opacity: 0.5; stroke-width: 0;"/></g></g><g class="errorbars"/><g class="lines"><path class="js-line" d="M0,2.53L1.62,2.86L3.24,31.75L4.86,32.68L6.49,36.63L9.73,41.52L11.35,44.35L16.22,48.04L17.84,47.7L21.08,50.06L22.7,51.94L24.32,53.3L25.95,53.29L27.57,55.4L29.19,61.42L30.81,63.03L32.43,66L34.05,68.68L35.68,69.02L37.3,71.14L38.92,64.79L40.54,65.97L42.16,69.61L43.78,86.27L45.41,86.53L48.65,86.13L50.27,88.65L51.89,90.43L53.51,88.76L55.14,89.43L56.76,88.65L58.38,82.03L60,82.44L61.62,84.37L63.24,89.08L66.49,92.85L68.11,93.14L72.97,93.5L74.59,90.7L76.22,94.33L77.84,104.22L79.46,105.04L81.08,102.23L82.7,102.36L84.32,95.09L85.95,91.91L87.57,93.01L89.19,93.57L90.81,99.5L92.43,99.71L94.05,105L95.68,105.77L97.3,105.13L98.92,105.19L100.54,109.01L102.16,110.31L103.78,110.49L107.03,104.23L108.65,105.96L110.27,105.96L111.89,102.92L113.51,105.55L115.14,106.49L116.76,97.76L118.38,97.21L120,98.21L121.62,96.78L124.86,97.42L126.49,102.69L129.73,98.87L131.35,101.28L134.59,103.19L136.22,101.6L137.84,101.04L139.46,101.75L141.08,100.61L142.7,101.06L144.32,101.07L145.95,101.91L147.57,102.1L149.19,103.9L150.81,104.37L152.43,103.9L154.05,104.16L155.68,106.8L157.3,106.65L158.92,103.38L165.41,103.49L167.03,104.6L170.27,105.08L171.89,105.33L175.14,104.6L176.76,107.04L178.38,105.89L180,105.75L181.62,104.58L183.24,104.66L184.86,106.27L186.49,106.37L189.73,109.14L191.35,113.43L192.97,113.66L194.59,115.98L197.84,122.17L199.46,121.82L202.7,71.06L204.32,57.85L207.57,49.36L209.19,59.1L210.81,58.12L212.43,73.46L214.05,66.32L215.68,74.24L220.54,88.86L222.16,91.99L227.03,94.71L228.65,101.16L230.27,103.66L231.89,104.35L238.38,108.59L240,107.89L244.86,110.68L246.49,111.37L248.11,111.75L249.73,111.07L252.97,111.87L254.59,113.19L256.22,115.63L257.84,130.61L259.46,131.26L261.08,133.96L262.7,142.05L264.32,142.63L269.19,143.36L270.81,146.22L277.3,146.63L278.92,146.58L283.78,147.46L285.41,149.96L291.89,142.73L293.51,145.94L295.14,144.92L296.76,145.66L300,146.79L301.62,152.42L304.86,153.09L306.49,153.72L308.11,155.82L309.73,156.27L311.35,156.24L312.97,146.23L321.08,145.83L322.7,158.42L324.32,167.34L325.95,168.65L327.57,168.68L329.19,170.09L332.43,173.37L334.05,173.99L335.68,173.94L337.3,175.44L342.16,174.2L343.78,183.22L345.41,183.93L347.03,190.32L348.65,186.55L350.27,194.19L351.89,198.08L353.51,198.82L355.14,198.92L356.76,199.81L358.38,204.64L360,205.23L361.62,209.19L363.24,209.42L366.49,209.92L368.11,211.13L371.35,212.75L372.97,228.14L374.59,229.85L376.22,230.44L379.46,231.4L381.08,233.25L385.95,234.28L387.57,236.1L397.3,239.53L398.92,237.48L402.16,237.69L403.78,238.31L405.41,238.43L407.03,236.92L408.65,243.59L410.27,246.53L415.14,247.31L416.76,248.16L423.24,249.14L424.86,249.18L426.49,246.3L428.11,246.54L431.35,247.3L432.97,243.41L444.32,246.46L445.95,242.77L447.57,243.96L449.19,240.91L450.81,240.05L452.43,241.95L454.05,241.95L455.68,243.59L458.92,243.19L460.54,245.21L462.16,243.64L463.78,245.31L465.41,248.19L467.03,248.57L470.27,249.05L471.89,249.75L475.14,250.49L476.76,258.57L480,258.3L481.62,258.52L484.86,259.02L486.49,259.05L489.73,260.49L491.35,260.56L492.97,260.94L494.59,262.47L496.22,265.59L497.84,265.84L505.95,267.04L507.57,274.85L509.19,275.6L510.81,287.6L512.43,290.57L514.05,290.79L515.68,298.91L517.3,300.33L520.54,303.29L522.16,303.18L523.78,300.96L525.41,296.2L527.03,299.95L528.65,300.43L531.89,300.77L533.51,301.86L536.76,302.38L538.38,303.58L540,304" style="vector-effect: none; fill: none; stroke: rgb(99, 110, 250); stroke-opacity: 1; stroke-width: 2px; opacity: 1;"/></g><g class="points"/><g class="text"/></g></g></g><g class="overplot"/><path class="xlines-above crisp" d="M0,0" style="fill: none;"/><path class="ylines-above crisp" d="M0,0" style="fill: none;"/><g class="overlines-above"/><g class="xaxislayer-above"><g class="xtick"><text text-anchor="middle" x="0" y="433" transform="translate(140,0)" style="font-family: 'Open Sans', verdana, arial, sans-serif; font-size: 12px; fill: rgb(42, 63, 95); fill-opacity: 1; white-space: pre; opacity: 1;">Mar 2023</text></g><g class="xtick"><text text-anchor="middle" x="0" y="433" style="font-family: 'Open Sans', verdana, arial, sans-serif; font-size: 12px; fill: rgb(42, 63, 95); fill-opacity: 1; white-space: pre; opacity: 1;" transform="translate(238.92,0)">May 2023</text></g><g class="xtick"><text text-anchor="middle" x="0" y="433" style="font-family: 'Open Sans', verdana, arial, sans-serif; font-size: 12px; fill: rgb(42, 63, 95); fill-opacity: 1; white-space: pre; opacity: 1;" transform="translate(337.84,0)">Jul 2023</text></g><g class="xtick"><text text-anchor="middle" x="0" y="433" style="font-family: 'Open Sans', verdana, arial, sans-serif; font-size: 12px; fill: rgb(42, 63, 95); fill-opacity: 1; white-space: pre; opacity: 1;" transform="translate(438.38,0)">Sep 2023</text></g><g class="xtick"><text text-anchor="middle" x="0" y="433" style="font-family: 'Open Sans', verdana, arial, sans-serif; font-size: 12px; fill: rgb(42, 63, 95); fill-opacity: 1; white-space: pre; opacity: 1;" transform="translate(537.3,0)">Nov 2023</text></g></g><g class="yaxislayer-above"><g class="ytick"><text text-anchor="end" x="79" y="4.199999999999999" transform="translate(0,400.55)" style="font-family: 'Open Sans', verdana, arial, sans-serif; font-size: 12px; fill: rgb(42, 63, 95); fill-opacity: 1; white-space: pre; opacity: 1;">$−600k</text></g><g class="ytick"><text text-anchor="end" x="79" y="4.199999999999999" style="font-family: 'Open Sans', verdana, arial, sans-serif; font-size: 12px; fill: rgb(42, 63, 95); fill-opacity: 1; white-space: pre; opacity: 1;" transform="translate(0,350.46000000000004)">$−500k</text></g><g class="ytick"><text text-anchor="end" x="79" y="4.199999999999999" style="font-family: 'Open Sans', verdana, arial, sans-serif; font-size: 12px; fill: rgb(42, 63, 95); fill-opacity: 1; white-space: pre; opacity: 1;" transform="translate(0,300.37)">$−400k</text></g><g class="ytick"><text text-anchor="end" x="79" y="4.199999999999999" style="font-family: 'Open Sans', verdana, arial, sans-serif; font-size: 12px; fill: rgb(42, 63, 95); fill-opacity: 1; white-space: pre; opacity: 1;" transform="translate(0,250.28)">$−300k</text></g><g class="ytick"><text text-anchor="end" x="79" y="4.199999999999999" style="font-family: 'Open Sans', verdana, arial, sans-serif; font-size: 12px; fill: rgb(42, 63, 95); fill-opacity: 1; white-space: pre; opacity: 1;" transform="translate(0,200.18)">$−200k</text></g><g class="ytick"><text text-anchor="end" x="79" y="4.199999999999999" style="font-family: 'Open Sans', verdana, arial, sans-serif; font-size: 12px; fill: rgb(42, 63, 95); fill-opacity: 1; white-space: pre; opacity: 1;" transform="translate(0,150.09)">$−100k</text></g><g class="ytick"><text text-anchor="end" x="79" y="4.199999999999999" style="font-family: 'Open Sans', verdana, arial, sans-serif; font-size: 12px; fill: rgb(42, 63, 95); fill-opacity: 1; white-space: pre; opacity: 1;" transform="translate(0,100)">$0</text></g></g><g class="overaxes-above"/></g></g><g class="polarlayer"/><g class="smithlayer"/><g class="ternarylayer"/><g class="geolayer"/><g class="funnelarealayer"/><g class="pielayer"/><g class="iciclelayer"/><g class="treemaplayer"/><g class="sunburstlayer"/><g class="glimages"/><defs id="topdefs-002640"><g class="clips"/></defs><g class="layer-above"><g class="imagelayer"/><g class="shapelayer"/></g><g class="infolayer"><g class="g-gtitle"><text class="gtitle" x="35" y="50" text-anchor="start" dy="0em" style="font-family: 'Open Sans', verdana, arial, sans-serif; font-size: 17px; fill: rgb(42, 63, 95); opacity: 1; font-weight: normal; white-space: pre;"><tspan class="line" dy="0em" x="35" y="50">Clipper</tspan><tspan class="line" dy="1.3em" x="35" y="50">​<tspan style="font-size:70%" dy="-0.6em">Cumulative Net Flows since Program Announcement, Until Program End + 30 Days</tspan><tspan dy="0.42em">​</tspan></tspan></text></g><g class="g-xtitle"><text class="xtitle" x="350" y="460.3" text-anchor="middle" style="font-family: 'Open Sans', verdana, arial, sans-serif; font-size: 14px; fill: rgb(42, 63, 95); opacity: 1; font-weight: normal; white-space: pre;">Day</text></g><g class="g-ytitle"><text class="ytitle" transform="rotate(-90,14.996875000000003,260)" x="14.996875000000003" y="260" text-anchor="middle" style="font-family: 'Open Sans', verdana, arial, sans-serif; font-size: 14px; fill: rgb(42, 63, 95); opacity: 1; font-weight: normal; white-space: pre;">Cumulative Net Flows (USD)</text></g></g></svg>