<svg class="main-svg" xmlns="http://www.w3.org/2000/svg" xmlns:xlink="http://www.w3.org/1999/xlink" width="700" height="500" style="" viewBox="0 0 700 500"><rect x="0" y="0" width="700" height="500" style="fill: rgb(255, 255, 255); fill-opacity: 1;"/><defs id="defs-1b8161"><g class="clips"><clipPath id="clip1b8161xyplot" class="plotclip"><rect width="540" height="320"/></clipPath><clipPath class="axesclip" id="clip1b8161x"><rect x="80" y="0" width="540" height="500"/></clipPath><clipPath class="axesclip" id="clip1b8161y"><rect x="0" y="100" width="700" height="320"/></clipPath><clipPath class="axesclip" id="clip1b8161xy"><rect x="80" y="100" width="540" height="320"/></clipPath></g><g class="gradients"/><g class="patterns"/></defs><g class="bglayer"><rect class="bg" x="80" y="100" width="540" height="320" style="fill: rgb(229, 236, 246); fill-opacity: 1; stroke-width: 0;"/></g><g class="layer-below"><g class="imagelayer"/><g class="shapelayer"/></g><g class="cartesianlayer"><g class="subplot xy"><g class="layer-subplot"><g class="shapelayer"/><g class="imagelayer"/></g><g class="minor-gridlayer"><g class="x"/><g class="y"/></g><g class="gridlayer"><g class="x"><path class="xgrid crisp" transform="translate(192.68,0)" d="M0,100v320" style="stroke: rgb(255, 255, 255); stroke-opacity: 1; stroke-width: 1px;"/><path class="xgrid crisp" transform="translate(318.11,0)" d="M0,100v320" style="stroke: rgb(255, 255, 255); stroke-opacity: 1; stroke-width: 1px;"/><path class="xgrid crisp" transform="translate(447.8,0)" d="M0,100v320" style="stroke: rgb(255, 255, 255); stroke-opacity: 1; stroke-width: 1px;"/><path class="xgrid crisp" transform="translate(577.48,0)" d="M0,100v320" style="stroke: rgb(255, 255, 255); stroke-opacity: 1; stroke-width: 1px;"/></g><g class="y"><path class="ygrid crisp" transform="translate(0,356.48)" d="M80,0h540" style="stroke: rgb(255, 255, 255); stroke-opacity: 1; stroke-width: 1px;"/><path class="ygrid crisp" transform="translate(0,309.03)" d="M80,0h540" style="stroke: rgb(255, 255, 255); stroke-opacity: 1; stroke-width: 1px;"/><path class="ygrid crisp" transform="translate(0,261.57)" d="M80,0h540" style="stroke: rgb(255, 255, 255); stroke-opacity: 1; stroke-width: 1px;"/><path class="ygrid crisp" transform="translate(0,214.12)" d="M80,0h540" style="stroke: rgb(255, 255, 255); stroke-opacity: 1; stroke-width: 1px;"/><path class="ygrid crisp" transform="translate(0,166.66)" d="M80,0h540" style="stroke: rgb(255, 255, 255); stroke-opacity: 1; stroke-width: 1px;"/><path class="ygrid crisp" transform="translate(0,119.21000000000001)" d="M80,0h540" style="stroke: rgb(255, 255, 255); stroke-opacity: 1; stroke-width: 1px;"/></g></g><g class="zerolinelayer"><path class="yzl zl crisp" transform="translate(0,403.93)" d="M80,0h540" style="stroke: rgb(255, 255, 255); stroke-opacity: 1; stroke-width: 2px;"/></g><path class="xlines-below"/><path class="ylines-below"/><g class="overlines-below"/><g class="xaxislayer-below"/><g class="yaxislayer-below"/><g class="overaxes-below"/><g class="plot" transform="translate(80,100)" clip-path="url(#clip1b8161xyplot)"><g class="scatterlayer mlayer"><g class="trace scatter tracee5ea1a" style="stroke-miterlimit: 2;"><g class="fills"><g><path class="js-fill" d="M540,303.93L0,303.93L0,304L4.25,298.94L6.38,297.78L17.01,297.03L19.13,297.53L29.76,294.97L31.89,294.07L34.02,295.03L36.14,295.15L51.02,295.78L53.15,295.61L55.28,295.54L57.4,294.67L59.53,296.59L61.65,296.27L70.16,295.87L72.28,297.43L74.41,298.44L76.54,298.26L78.66,297.19L80.79,297.04L89.29,296.6L91.42,294.57L93.54,295.1L95.67,294.55L97.8,293.43L99.92,293.35L106.3,292.79L108.43,290.5L112.68,290.54L114.8,287.81L116.93,287.4L119.06,290.48L121.18,288.39L123.31,288.79L127.56,288.31L129.69,288.85L131.81,288.85L133.94,286.75L136.06,285.28L138.19,285.77L140.31,283.3L142.44,283.07L146.69,279.97L148.82,279.8L153.07,281.03L155.2,279.11L157.32,277.87L159.45,262.02L161.57,263.5L163.7,263.25L165.83,258.34L167.95,258.03L170.08,258.42L172.2,252.32L174.33,287.08L176.46,288.94L178.58,286.1L180.71,273.38L182.83,273.42L184.96,272.62L187.09,266.75L189.21,266.14L191.34,236.1L193.46,235.02L195.59,226.78L197.72,227.45L199.84,218.63L201.97,218.94L204.09,192.01L206.22,192.42L210.47,190.99L212.6,180.03L214.72,180.01L216.85,181.11L218.98,165.31L221.1,165.36L225.35,163.16L227.48,156.41L229.61,144.69L231.73,143.22L235.98,142.53L238.11,139.46L240.24,139.42L242.36,130.61L246.61,131.12L248.74,124.95L250.87,122.98L252.99,122.3L255.12,118.73L257.24,124.36L259.37,124.54L261.5,127.93L263.62,125L265.75,106.15L267.87,98.44L270,98.73L272.13,92.07L274.25,66.41L276.38,67.76L278.5,57.23L280.63,41.29L282.76,39.52L289.13,38.38L291.26,39.84L293.39,39.94L295.51,43.46L297.64,19.2L299.76,16L301.89,16L304.02,27.88L308.27,28.4L310.39,27.43L314.65,27.6L316.77,27.21L321.02,59.26L323.15,54.91L327.4,55.04L329.53,52.93L333.78,54.46L335.91,54.22L338.03,61.52L340.16,60.58L342.28,59.75L344.41,226.58L346.54,71.54L348.66,70.06L361.42,68.4L363.54,59.53L365.67,57.79L367.8,62.66L369.92,49.83L372.05,51.07L374.17,51.4L376.3,55.24L380.55,54.83L382.68,56.56L384.8,54.28L386.93,53.94L395.43,53.94L397.56,55.1L403.94,55.36L406.06,54.54L408.19,54.66L410.31,52.44L412.44,54.26L414.57,70.06L416.69,83.84L418.82,86.52L420.94,87.3L423.07,80.32L425.2,52.37L427.32,84.44L429.45,106L431.57,105.93L433.7,97.99L435.83,96.78L440.08,93.26L442.2,93.57L446.46,93.04L448.58,91.1L450.71,96.61L452.83,117.3L454.96,117.56L457.09,113.11L459.21,121.48L461.34,122.34L465.59,117L467.72,144.58L469.84,166.47L471.97,166.61L474.09,166.87L476.22,186.38L478.35,175.41L480.47,175.41L482.6,177.48L484.72,176.85L486.85,180.33L488.98,181.36L491.1,180.82L493.23,195.38L495.35,197.19L497.48,212.73L505.98,209.27L508.11,209.66L510.24,192.29L512.36,189.11L514.49,163.06L516.61,163.09L520.87,164.88L522.99,165.19L525.12,169.12L527.24,169.16L529.37,175.45L531.5,174.68L535.75,180.66L537.87,198.86L540,200.73" style="fill: rgb(99, 110, 250); fill-opacity: 0.5; stroke-width: 0;"/></g></g><g class="errorbars"/><g class="lines"><path class="js-line" d="M0,304L4.25,298.94L6.38,297.78L17.01,297.03L19.13,297.53L29.76,294.97L31.89,294.07L34.02,295.03L36.14,295.15L51.02,295.78L53.15,295.61L55.28,295.54L57.4,294.67L59.53,296.59L61.65,296.27L70.16,295.87L72.28,297.43L74.41,298.44L76.54,298.26L78.66,297.19L80.79,297.04L89.29,296.6L91.42,294.57L93.54,295.1L95.67,294.55L97.8,293.43L99.92,293.35L106.3,292.79L108.43,290.5L112.68,290.54L114.8,287.81L116.93,287.4L119.06,290.48L121.18,288.39L123.31,288.79L127.56,288.31L129.69,288.85L131.81,288.85L133.94,286.75L136.06,285.28L138.19,285.77L140.31,283.3L142.44,283.07L146.69,279.97L148.82,279.8L153.07,281.03L155.2,279.11L157.32,277.87L159.45,262.02L161.57,263.5L163.7,263.25L165.83,258.34L167.95,258.03L170.08,258.42L172.2,252.32L174.33,287.08L176.46,288.94L178.58,286.1L180.71,273.38L182.83,273.42L184.96,272.62L187.09,266.75L189.21,266.14L191.34,236.1L193.46,235.02L195.59,226.78L197.72,227.45L199.84,218.63L201.97,218.94L204.09,192.01L206.22,192.42L210.47,190.99L212.6,180.03L214.72,180.01L216.85,181.11L218.98,165.31L221.1,165.36L225.35,163.16L227.48,156.41L229.61,144.69L231.73,143.22L235.98,142.53L238.11,139.46L240.24,139.42L242.36,130.61L246.61,131.12L248.74,124.95L250.87,122.98L252.99,122.3L255.12,118.73L257.24,124.36L259.37,124.54L261.5,127.93L263.62,125L265.75,106.15L267.87,98.44L270,98.73L272.13,92.07L274.25,66.41L276.38,67.76L278.5,57.23L280.63,41.29L282.76,39.52L289.13,38.38L291.26,39.84L293.39,39.94L295.51,43.46L297.64,19.2L299.76,16L301.89,16L304.02,27.88L308.27,28.4L310.39,27.43L314.65,27.6L316.77,27.21L321.02,59.26L323.15,54.91L327.4,55.04L329.53,52.93L333.78,54.46L335.91,54.22L338.03,61.52L340.16,60.58L342.28,59.75L344.41,226.58L346.54,71.54L348.66,70.06L361.42,68.4L363.54,59.53L365.67,57.79L367.8,62.66L369.92,49.83L372.05,51.07L374.17,51.4L376.3,55.24L380.55,54.83L382.68,56.56L384.8,54.28L386.93,53.94L395.43,53.94L397.56,55.1L403.94,55.36L406.06,54.54L408.19,54.66L410.31,52.44L412.44,54.26L414.57,70.06L416.69,83.84L418.82,86.52L420.94,87.3L423.07,80.32L425.2,52.37L427.32,84.44L429.45,106L431.57,105.93L433.7,97.99L435.83,96.78L440.08,93.26L442.2,93.57L446.46,93.04L448.58,91.1L450.71,96.61L452.83,117.3L454.96,117.56L457.09,113.11L459.21,121.48L461.34,122.34L465.59,117L467.72,144.58L469.84,166.47L471.97,166.61L474.09,166.87L476.22,186.38L478.35,175.41L480.47,175.41L482.6,177.48L484.72,176.85L486.85,180.33L488.98,181.36L491.1,180.82L493.23,195.38L495.35,197.19L497.48,212.73L505.98,209.27L508.11,209.66L510.24,192.29L512.36,189.11L514.49,163.06L516.61,163.09L520.87,164.88L522.99,165.19L525.12,169.12L527.24,169.16L529.37,175.45L531.5,174.68L535.75,180.66L537.87,198.86L540,200.73" style="vector-effect: none; fill: none; stroke: rgb(99, 110, 250); stroke-opacity: 1; stroke-width: 2px; opacity: 1;"/></g><g class="points"/><g class="text"/></g></g></g><g class="overplot"/><path class="xlines-above crisp" d="M0,0" style="fill: none;"/><path class="ylines-above crisp" d="M0,0" style="fill: none;"/><g class="overlines-above"/><g class="xaxislayer-above"><g class="xtick"><text text-anchor="middle" x="0" y="433" transform="translate(192.68,0)" style="font-family: 'Open Sans', verdana, arial, sans-serif; font-size: 12px; fill: rgb(42, 63, 95); fill-opacity: 1; white-space: pre; opacity: 1;">Jan 2023</text></g><g class="xtick"><text text-anchor="middle" x="0" y="433" style="font-family: 'Open Sans', verdana, arial, sans-serif; font-size: 12px; fill: rgb(42, 63, 95); fill-opacity: 1; white-space: pre; opacity: 1;" transform="translate(318.11,0)">Mar 2023</text></g><g class="xtick"><text text-anchor="middle" x="0" y="433" style="font-family: 'Open Sans', verdana, arial, sans-serif; font-size: 12px; fill: rgb(42, 63, 95); fill-opacity: 1; white-space: pre; opacity: 1;" transform="translate(447.8,0)">May 2023</text></g><g class="xtick"><text text-anchor="middle" x="0" y="433" style="font-family: 'Open Sans', verdana, arial, sans-serif; font-size: 12px; fill: rgb(42, 63, 95); fill-opacity: 1; white-space: pre; opacity: 1;" transform="translate(577.48,0)">Jul 2023</text></g></g><g class="yaxislayer-above"><g class="ytick"><text text-anchor="end" x="79" y="4.199999999999999" transform="translate(0,403.93)" style="font-family: 'Open Sans', verdana, arial, sans-serif; font-size: 12px; fill: rgb(42, 63, 95); fill-opacity: 1; white-space: pre; opacity: 1;">$0</text></g><g class="ytick"><text text-anchor="end" x="79" y="4.199999999999999" style="font-family: 'Open Sans', verdana, arial, sans-serif; font-size: 12px; fill: rgb(42, 63, 95); fill-opacity: 1; white-space: pre; opacity: 1;" transform="translate(0,356.48)">$5M</text></g><g class="ytick"><text text-anchor="end" x="79" y="4.199999999999999" style="font-family: 'Open Sans', verdana, arial, sans-serif; font-size: 12px; fill: rgb(42, 63, 95); fill-opacity: 1; white-space: pre; opacity: 1;" transform="translate(0,309.03)">$10M</text></g><g class="ytick"><text text-anchor="end" x="79" y="4.199999999999999" style="font-family: 'Open Sans', verdana, arial, sans-serif; font-size: 12px; fill: rgb(42, 63, 95); fill-opacity: 1; white-space: pre; opacity: 1;" transform="translate(0,261.57)">$15M</text></g><g class="ytick"><text text-anchor="end" x="79" y="4.199999999999999" style="font-family: 'Open Sans', verdana, arial, sans-serif; font-size: 12px; fill: rgb(42, 63, 95); fill-opacity: 1; white-space: pre; opacity: 1;" transform="translate(0,214.12)">$20M</text></g><g class="ytick"><text text-anchor="end" x="79" y="4.199999999999999" style="font-family: 'Open Sans', verdana, arial, sans-serif; font-size: 12px; fill: rgb(42, 63, 95); fill-opacity: 1; white-space: pre; opacity: 1;" transform="translate(0,166.66)">$25M</text></g><g class="ytick"><text text-anchor="end" x="79" y="4.199999999999999" style="font-family: 'Open Sans', verdana, arial, sans-serif; font-size: 12px; fill: rgb(42, 63, 95); fill-opacity: 1; white-space: pre; opacity: 1;" transform="translate(0,119.21000000000001)">$30M</text></g></g><g class="overaxes-above"/></g></g><g class="polarlayer"/><g class="smithlayer"/><g class="ternarylayer"/><g class="geolayer"/><g class="funnelarealayer"/><g class="pielayer"/><g class="iciclelayer"/><g class="treemaplayer"/><g class="sunburstlayer"/><g class="glimages"/><defs id="topdefs-1b8161"><g class="clips"/></defs><g class="layer-above"><g class="imagelayer"/><g class="shapelayer"/></g><g class="infolayer"><g class="g-gtitle"><text class="gtitle" x="35" y="50" text-anchor="start" dy="0em" style="font-family: 'Open Sans', verdana, arial, sans-serif; font-size: 17px; fill: rgb(42, 63, 95); opacity: 1; font-weight: normal; white-space: pre;"><tspan class="line" dy="0em" x="35" y="50">Rocket Pool - WETH/rETH: Beethoven X</tspan><tspan class="line" dy="1.3em" x="35" y="50">​<tspan style="font-size:70%" dy="-0.6em">Cumulative Net Flows since Program Announcement, Until Program End + 30 Days</tspan><tspan dy="0.42em">​</tspan></tspan></text></g><g class="g-xtitle"><text class="xtitle" x="350" y="460.3" text-anchor="middle" style="font-family: 'Open Sans', verdana, arial, sans-serif; font-size: 14px; fill: rgb(42, 63, 95); opacity: 1; font-weight: normal; white-space: pre;">Day</text></g><g class="g-ytitle"><text class="ytitle" transform="rotate(-90,24.668750000000003,260)" x="24.668750000000003" y="260" text-anchor="middle" style="font-family: 'Open Sans', verdana, arial, sans-serif; font-size: 14px; fill: rgb(42, 63, 95); opacity: 1; font-weight: normal; white-space: pre;">Cumulative Net Flows (USD)</text></g></g></svg>