<svg class="main-svg" xmlns="http://www.w3.org/2000/svg" xmlns:xlink="http://www.w3.org/1999/xlink" width="700" height="500" style="" viewBox="0 0 700 500"><rect x="0" y="0" width="700" height="500" style="fill: rgb(255, 255, 255); fill-opacity: 1;"/><defs id="defs-90dcb5"><g class="clips"><clipPath id="clip90dcb5xyplot" class="plotclip"><rect width="540" height="320"/></clipPath><clipPath class="axesclip" id="clip90dcb5x"><rect x="80" y="0" width="540" height="500"/></clipPath><clipPath class="axesclip" id="clip90dcb5y"><rect x="0" y="100" width="700" height="320"/></clipPath><clipPath class="axesclip" id="clip90dcb5xy"><rect x="80" y="100" width="540" height="320"/></clipPath></g><g class="gradients"/><g class="patterns"/></defs><g class="bglayer"><rect class="bg" x="80" y="100" width="540" height="320" style="fill: rgb(229, 236, 246); fill-opacity: 1; stroke-width: 0;"/></g><g class="layer-below"><g class="imagelayer"/><g class="shapelayer"/></g><g class="cartesianlayer"><g class="subplot xy"><g class="layer-subplot"><g class="shapelayer"/><g class="imagelayer"/></g><g class="minor-gridlayer"><g class="x"/><g class="y"/></g><g class="gridlayer"><g class="x"><path class="xgrid crisp" transform="translate(130.59,0)" d="M0,100v320" style="stroke: rgb(255, 255, 255); stroke-opacity: 1; stroke-width: 1px;"/><path class="xgrid crisp" transform="translate(225.58,0)" d="M0,100v320" style="stroke: rgb(255, 255, 255); stroke-opacity: 1; stroke-width: 1px;"/><path class="xgrid crisp" transform="translate(318.51,0)" d="M0,100v320" style="stroke: rgb(255, 255, 255); stroke-opacity: 1; stroke-width: 1px;"/><path class="xgrid crisp" transform="translate(412.47,0)" d="M0,100v320" style="stroke: rgb(255, 255, 255); stroke-opacity: 1; stroke-width: 1px;"/><path class="xgrid crisp" transform="translate(507.46,0)" d="M0,100v320" style="stroke: rgb(255, 255, 255); stroke-opacity: 1; stroke-width: 1px;"/><path class="xgrid crisp" transform="translate(602.45,0)" d="M0,100v320" style="stroke: rgb(255, 255, 255); stroke-opacity: 1; stroke-width: 1px;"/></g><g class="y"><path class="ygrid crisp" transform="translate(0,398.82)" d="M80,0h540" style="stroke: rgb(255, 255, 255); stroke-opacity: 1; stroke-width: 1px;"/><path class="ygrid crisp" transform="translate(0,360.9)" d="M80,0h540" style="stroke: rgb(255, 255, 255); stroke-opacity: 1; stroke-width: 1px;"/><path class="ygrid crisp" transform="translate(0,322.98)" d="M80,0h540" style="stroke: rgb(255, 255, 255); stroke-opacity: 1; stroke-width: 1px;"/><path class="ygrid crisp" transform="translate(0,285.06)" d="M80,0h540" style="stroke: rgb(255, 255, 255); stroke-opacity: 1; stroke-width: 1px;"/><path class="ygrid crisp" transform="translate(0,209.23000000000002)" d="M80,0h540" style="stroke: rgb(255, 255, 255); stroke-opacity: 1; stroke-width: 1px;"/><path class="ygrid crisp" transform="translate(0,171.31)" d="M80,0h540" style="stroke: rgb(255, 255, 255); stroke-opacity: 1; stroke-width: 1px;"/><path class="ygrid crisp" transform="translate(0,133.39)" d="M80,0h540" style="stroke: rgb(255, 255, 255); stroke-opacity: 1; stroke-width: 1px;"/></g></g><g class="zerolinelayer"><path class="yzl zl crisp" transform="translate(0,247.15)" d="M80,0h540" style="stroke: rgb(255, 255, 255); stroke-opacity: 1; stroke-width: 2px;"/></g><path class="xlines-below"/><path class="ylines-below"/><g class="overlines-below"/><g class="xaxislayer-below"/><g class="yaxislayer-below"/><g class="overaxes-below"/><g class="plot" transform="translate(80,100)" clip-path="url(#clip90dcb5xyplot)"><g class="scatterlayer mlayer"><g class="trace scatter trace139a08" style="stroke-miterlimit: 2;"><g class="fills"><g><path class="js-fill" d="M540,147.15L0,147.15L0,172.88L1.03,185.93L2.07,184.87L3.1,186.54L4.13,192.49L5.16,192.67L6.2,109.56L7.23,206.5L8.26,198.1L9.29,204.17L10.33,203.35L12.39,208.54L13.42,198.72L14.46,199.75L15.49,202.35L16.52,202.54L17.55,187.88L19.62,180.89L20.65,193.1L21.68,191.22L22.72,187.16L23.75,185.92L24.78,190.88L26.85,182.04L27.88,176.57L28.91,162.84L29.94,159.32L30.98,157.29L32.01,179L33.04,167.59L34.07,166.35L35.11,179.07L36.14,181.83L37.17,182.56L38.2,181.12L41.3,185.58L42.33,199.07L44.4,200.12L45.43,197.37L46.46,204.31L47.5,204.39L48.53,208.84L49.56,209.88L50.59,212.97L51.63,213.51L53.69,226.19L54.72,222.39L55.76,226.37L56.79,225.46L57.82,220.72L58.85,230.49L59.89,227.92L60.92,230.63L61.95,226.48L62.98,227.01L64.02,238.33L65.05,236.46L66.08,237.39L67.11,239.97L68.15,240.47L69.18,239.25L70.21,234.93L71.24,235.54L73.31,235.56L74.34,236.5L75.37,236.62L76.41,232.4L78.47,226.2L79.5,223.8L81.57,223.97L82.6,221.33L83.63,224.13L84.67,197.7L86.73,217.71L87.76,216.09L88.8,214.64L89.83,203.07L90.86,212.3L91.89,252.05L92.93,222.02L93.96,216.27L94.99,216.03L96.02,220.69L97.06,228.41L98.09,209.08L99.12,173.39L100.15,198.58L102.22,172.37L103.25,179.85L104.28,187.52L105.32,205.26L106.35,215.72L107.38,241.89L108.41,246.26L109.45,223.28L110.48,229.62L111.51,229.17L112.54,227.89L113.58,219.21L114.61,224.35L115.64,258.66L116.67,244.88L117.71,218.5L118.74,227.37L119.77,220.73L120.8,229.53L121.84,222.65L122.87,232.87L123.9,221.33L124.93,251.03L125.97,235.37L127,255.23L128.03,242.64L129.06,234.84L130.1,216.98L131.13,227.04L132.16,220.09L133.19,233.52L134.23,201.08L135.26,164.26L136.29,208.98L137.32,176.85L138.36,179.21L139.39,184.21L140.42,181.61L141.45,209.03L142.49,203.88L143.52,120.15L144.55,152.37L145.58,129.93L146.62,145.75L149.71,142.18L150.75,148.63L151.78,151.04L152.81,149.46L153.84,158.36L154.88,159.21L155.91,157.67L156.94,170.19L157.97,177.23L159.01,156.32L160.04,148.17L161.07,147.62L162.1,160.97L163.14,160.56L164.17,154.63L165.2,171.3L166.23,182.33L167.27,164.54L168.3,157L169.33,157.01L170.36,163.37L171.4,160.11L172.43,171.55L173.46,150.51L174.49,139.48L175.53,158.73L176.56,161.83L177.59,144.54L178.62,149.26L179.66,185.75L180.69,187.89L181.72,202.64L182.75,185.65L183.79,186.79L184.82,160.14L185.85,113.25L186.88,138.45L187.92,86.7L188.95,108.41L189.98,112.09L191.01,114.52L192.05,103.97L193.08,91.43L194.11,105.55L196.18,49.73L197.21,43.94L198.24,33.81L199.27,57.18L200.31,58.03L201.34,46.96L202.37,24.26L203.4,45.76L204.44,35.85L205.47,35.8L206.5,55.58L207.53,57.96L208.57,54.34L209.6,74.73L210.63,79.68L211.66,74.39L213.73,85.07L214.76,69.75L215.79,43.2L216.83,83.58L217.86,113.35L218.89,83.56L219.92,89.43L220.96,80.25L221.99,72.49L223.02,75.79L224.05,82.22L225.09,63.62L226.12,58.82L227.15,34.54L228.18,23.05L229.22,29.54L230.25,16L231.28,28.23L232.31,66.15L233.35,42.15L234.38,81.76L235.41,64.89L237.48,43.33L238.51,39.11L239.54,54.96L240.57,39.63L241.61,63.22L242.64,44L243.67,59.32L244.7,61.38L246.77,93.01L247.8,91.07L248.83,95.04L249.87,113.21L250.9,133.26L251.93,138.49L252.96,136.11L254,150.86L255.03,138.26L256.06,137.55L257.09,146L258.13,139.04L260.19,148.91L261.22,143.45L263.29,167.57L264.32,159.59L266.39,138.42L267.42,148.32L269.48,117.57L270.52,117.45L271.55,109.03L272.58,112.03L273.61,82.57L274.65,88.81L275.68,93.07L276.71,106.12L277.74,112.01L278.78,136.2L279.81,143.26L280.84,112.37L281.87,122.28L282.91,124.21L283.94,125.24L284.97,127.72L286,128.89L287.04,132.49L288.07,140.64L289.1,139.72L290.13,143.23L291.17,135.54L292.2,129.07L293.23,142.28L294.26,137.91L295.3,129.72L296.33,122.47L297.36,127.54L299.43,137.54L300.46,128.52L301.49,150.05L302.52,147.29L304.59,164.71L305.62,163.1L307.69,167.39L308.72,165.5L310.78,154.52L311.82,159.18L313.88,166.92L314.91,162.29L315.95,158.84L316.98,165.02L318.01,169.39L319.04,165.87L320.08,166.4L321.11,172.06L322.14,157.57L323.17,157.87L324.21,154.58L325.24,158.32L326.27,159.31L327.3,158.1L328.34,161.34L329.37,161.63L330.4,165.89L331.43,198.74L332.47,194.47L333.5,208.29L334.53,210.89L335.56,205.95L336.6,206.37L337.63,208.5L339.69,217.11L340.73,215.2L341.76,216.58L342.79,214.26L343.82,213.77L344.86,211.64L346.92,231.23L347.95,228.46L348.99,228.69L350.02,230.36L353.12,244.92L354.15,245.92L355.18,247.45L356.21,245.4L357.25,245.43L358.28,246.56L359.31,246.2L360.34,249.16L361.38,248.92L362.41,243.32L363.44,255.48L364.47,247.55L365.51,248.34L366.54,250.84L367.57,255.82L368.6,247.15L369.64,246.48L370.67,246.91L371.7,244.84L372.73,238.25L373.77,239.39L374.8,239.14L376.86,239.68L377.9,239.9L379.96,238.98L380.99,236.99L382.03,236.57L383.06,239.34L384.09,239.34L385.12,240.4L386.16,239.36L387.19,239.59L389.25,240L390.29,234.18L391.32,234.15L392.35,235.85L393.38,236.53L394.42,235.41L395.45,242.23L396.48,240.88L397.51,241.13L398.55,239.55L400.61,238.79L401.64,238.84L402.68,238.99L403.71,241.02L405.77,242L406.81,242.08L408.87,241.77L409.9,243.36L411.97,243.51L413,244.25L415.07,244.46L416.1,244.28L417.13,238.18L418.16,237.4L419.2,237.82L420.23,236.47L423.33,235.51L424.36,238.17L426.42,238.26L427.46,238.37L432.62,237.48L433.65,237L435.72,236.91L436.75,236.99L437.78,231.12L438.81,232.42L439.85,231.95L440.88,233.61L445.01,234.19L446.04,234.91L447.07,233.3L448.11,234.54L449.14,233.43L450.17,234.41L452.24,234.25L453.27,235.28L454.3,229.42L455.33,229.12L457.4,229.1L458.43,236.35L460.5,230.4L461.53,232.08L462.56,236.5L463.59,236.9L465.66,238.57L466.69,237.48L467.72,237.59L468.76,238.67L469.79,239.81L470.82,239.81L472.89,239.71L473.92,237.21L474.95,304L482.18,223.33L484.24,222.41L485.28,222.94L489.41,224L490.44,225.2L493.54,225.6L494.57,226.07L495.6,227.73L496.63,226.98L497.67,228.89L498.7,227.15L499.73,227.97L500.76,219.87L501.8,215.69L502.83,215.89L503.86,216.93L504.89,214.27L505.93,213.66L506.96,215.24L509.02,203.2L510.06,203.32L511.09,207.14L512.12,206.91L513.15,202.47L514.19,204.58L515.22,203.83L516.25,204.64L517.28,204.14L518.32,211.61L519.35,214.08L520.38,214.31L521.41,217.77L522.45,210.97L523.48,213.34L524.51,212.92L525.54,208.96L526.58,195.06L527.61,198.03L528.64,196.97L529.67,196.79L530.71,170.42L531.74,210.48L532.77,217.88L533.8,212.55L534.84,202.57L535.87,205.25L536.9,202.76L537.93,204.08L538.97,207.31L540,223.25" style="fill: rgb(99, 110, 250); fill-opacity: 0.5; stroke-width: 0;"/></g></g><g class="errorbars"/><g class="lines"><path class="js-line" d="M0,172.88L1.03,185.93L2.07,184.87L3.1,186.54L4.13,192.49L5.16,192.67L6.2,109.56L7.23,206.5L8.26,198.1L9.29,204.17L10.33,203.35L12.39,208.54L13.42,198.72L14.46,199.75L15.49,202.35L16.52,202.54L17.55,187.88L19.62,180.89L20.65,193.1L21.68,191.22L22.72,187.16L23.75,185.92L24.78,190.88L26.85,182.04L27.88,176.57L28.91,162.84L29.94,159.32L30.98,157.29L32.01,179L33.04,167.59L34.07,166.35L35.11,179.07L36.14,181.83L37.17,182.56L38.2,181.12L41.3,185.58L42.33,199.07L44.4,200.12L45.43,197.37L46.46,204.31L47.5,204.39L48.53,208.84L49.56,209.88L50.59,212.97L51.63,213.51L53.69,226.19L54.72,222.39L55.76,226.37L56.79,225.46L57.82,220.72L58.85,230.49L59.89,227.92L60.92,230.63L61.95,226.48L62.98,227.01L64.02,238.33L65.05,236.46L66.08,237.39L67.11,239.97L68.15,240.47L69.18,239.25L70.21,234.93L71.24,235.54L73.31,235.56L74.34,236.5L75.37,236.62L76.41,232.4L78.47,226.2L79.5,223.8L81.57,223.97L82.6,221.33L83.63,224.13L84.67,197.7L86.73,217.71L87.76,216.09L88.8,214.64L89.83,203.07L90.86,212.3L91.89,252.05L92.93,222.02L93.96,216.27L94.99,216.03L96.02,220.69L97.06,228.41L98.09,209.08L99.12,173.39L100.15,198.58L102.22,172.37L103.25,179.85L104.28,187.52L105.32,205.26L106.35,215.72L107.38,241.89L108.41,246.26L109.45,223.28L110.48,229.62L111.51,229.17L112.54,227.89L113.58,219.21L114.61,224.35L115.64,258.66L116.67,244.88L117.71,218.5L118.74,227.37L119.77,220.73L120.8,229.53L121.84,222.65L122.87,232.87L123.9,221.33L124.93,251.03L125.97,235.37L127,255.23L128.03,242.64L129.06,234.84L130.1,216.98L131.13,227.04L132.16,220.09L133.19,233.52L134.23,201.08L135.26,164.26L136.29,208.98L137.32,176.85L138.36,179.21L139.39,184.21L140.42,181.61L141.45,209.03L142.49,203.88L143.52,120.15L144.55,152.37L145.58,129.93L146.62,145.75L149.71,142.18L150.75,148.63L151.78,151.04L152.81,149.46L153.84,158.36L154.88,159.21L155.91,157.67L156.94,170.19L157.97,177.23L159.01,156.32L160.04,148.17L161.07,147.62L162.1,160.97L163.14,160.56L164.17,154.63L165.2,171.3L166.23,182.33L167.27,164.54L168.3,157L169.33,157.01L170.36,163.37L171.4,160.11L172.43,171.55L173.46,150.51L174.49,139.48L175.53,158.73L176.56,161.83L177.59,144.54L178.62,149.26L179.66,185.75L180.69,187.89L181.72,202.64L182.75,185.65L183.79,186.79L184.82,160.14L185.85,113.25L186.88,138.45L187.92,86.7L188.95,108.41L189.98,112.09L191.01,114.52L192.05,103.97L193.08,91.43L194.11,105.55L196.18,49.73L197.21,43.94L198.24,33.81L199.27,57.18L200.31,58.03L201.34,46.96L202.37,24.26L203.4,45.76L204.44,35.85L205.47,35.8L206.5,55.58L207.53,57.96L208.57,54.34L209.6,74.73L210.63,79.68L211.66,74.39L213.73,85.07L214.76,69.75L215.79,43.2L216.83,83.58L217.86,113.35L218.89,83.56L219.92,89.43L220.96,80.25L221.99,72.49L223.02,75.79L224.05,82.22L225.09,63.62L226.12,58.82L227.15,34.54L228.18,23.05L229.22,29.54L230.25,16L231.28,28.23L232.31,66.15L233.35,42.15L234.38,81.76L235.41,64.89L237.48,43.33L238.51,39.11L239.54,54.96L240.57,39.63L241.61,63.22L242.64,44L243.67,59.32L244.7,61.38L246.77,93.01L247.8,91.07L248.83,95.04L249.87,113.21L250.9,133.26L251.93,138.49L252.96,136.11L254,150.86L255.03,138.26L256.06,137.55L257.09,146L258.13,139.04L260.19,148.91L261.22,143.45L263.29,167.57L264.32,159.59L266.39,138.42L267.42,148.32L269.48,117.57L270.52,117.45L271.55,109.03L272.58,112.03L273.61,82.57L274.65,88.81L275.68,93.07L276.71,106.12L277.74,112.01L278.78,136.2L279.81,143.26L280.84,112.37L281.87,122.28L282.91,124.21L283.94,125.24L284.97,127.72L286,128.89L287.04,132.49L288.07,140.64L289.1,139.72L290.13,143.23L291.17,135.54L292.2,129.07L293.23,142.28L294.26,137.91L295.3,129.72L296.33,122.47L297.36,127.54L299.43,137.54L300.46,128.52L301.49,150.05L302.52,147.29L304.59,164.71L305.62,163.1L307.69,167.39L308.72,165.5L310.78,154.52L311.82,159.18L313.88,166.92L314.91,162.29L315.95,158.84L316.98,165.02L318.01,169.39L319.04,165.87L320.08,166.4L321.11,172.06L322.14,157.57L323.17,157.87L324.21,154.58L325.24,158.32L326.27,159.31L327.3,158.1L328.34,161.34L329.37,161.63L330.4,165.89L331.43,198.74L332.47,194.47L333.5,208.29L334.53,210.89L335.56,205.95L336.6,206.37L337.63,208.5L339.69,217.11L340.73,215.2L341.76,216.58L342.79,214.26L343.82,213.77L344.86,211.64L346.92,231.23L347.95,228.46L348.99,228.69L350.02,230.36L353.12,244.92L354.15,245.92L355.18,247.45L356.21,245.4L357.25,245.43L358.28,246.56L359.31,246.2L360.34,249.16L361.38,248.92L362.41,243.32L363.44,255.48L364.47,247.55L365.51,248.34L366.54,250.84L367.57,255.82L368.6,247.15L369.64,246.48L370.67,246.91L371.7,244.84L372.73,238.25L373.77,239.39L374.8,239.14L376.86,239.68L377.9,239.9L379.96,238.98L380.99,236.99L382.03,236.57L383.06,239.34L384.09,239.34L385.12,240.4L386.16,239.36L387.19,239.59L389.25,240L390.29,234.18L391.32,234.15L392.35,235.85L393.38,236.53L394.42,235.41L395.45,242.23L396.48,240.88L397.51,241.13L398.55,239.55L400.61,238.79L401.64,238.84L402.68,238.99L403.71,241.02L405.77,242L406.81,242.08L408.87,241.77L409.9,243.36L411.97,243.51L413,244.25L415.07,244.46L416.1,244.28L417.13,238.18L418.16,237.4L419.2,237.82L420.23,236.47L423.33,235.51L424.36,238.17L426.42,238.26L427.46,238.37L432.62,237.48L433.65,237L435.72,236.91L436.75,236.99L437.78,231.12L438.81,232.42L439.85,231.95L440.88,233.61L445.01,234.19L446.04,234.91L447.07,233.3L448.11,234.54L449.14,233.43L450.17,234.41L452.24,234.25L453.27,235.28L454.3,229.42L455.33,229.12L457.4,229.1L458.43,236.35L460.5,230.4L461.53,232.08L462.56,236.5L463.59,236.9L465.66,238.57L466.69,237.48L467.72,237.59L468.76,238.67L469.79,239.81L470.82,239.81L472.89,239.71L473.92,237.21L474.95,304L482.18,223.33L484.24,222.41L485.28,222.94L489.41,224L490.44,225.2L493.54,225.6L494.57,226.07L495.6,227.73L496.63,226.98L497.67,228.89L498.7,227.15L499.73,227.97L500.76,219.87L501.8,215.69L502.83,215.89L503.86,216.93L504.89,214.27L505.93,213.66L506.96,215.24L509.02,203.2L510.06,203.32L511.09,207.14L512.12,206.91L513.15,202.47L514.19,204.58L515.22,203.83L516.25,204.64L517.28,204.14L518.32,211.61L519.35,214.08L520.38,214.31L521.41,217.77L522.45,210.97L523.48,213.34L524.51,212.92L525.54,208.96L526.58,195.06L527.61,198.03L528.64,196.97L529.67,196.79L530.71,170.42L531.74,210.48L532.77,217.88L533.8,212.55L534.84,202.57L535.87,205.25L536.9,202.76L537.93,204.08L538.97,207.31L540,223.25" style="vector-effect: none; fill: none; stroke: rgb(99, 110, 250); stroke-opacity: 1; stroke-width: 2px; opacity: 1;"/></g><g class="points"/><g class="text"/></g></g></g><g class="overplot"/><path class="xlines-above crisp" d="M0,0" style="fill: none;"/><path class="ylines-above crisp" d="M0,0" style="fill: none;"/><g class="overlines-above"/><g class="xaxislayer-above"><g class="xtick"><text text-anchor="middle" x="0" y="433" transform="translate(130.59,0)" style="font-family: 'Open Sans', verdana, arial, sans-serif; font-size: 12px; fill: rgb(42, 63, 95); fill-opacity: 1; white-space: pre; opacity: 1;">Oct 2022</text></g><g class="xtick"><text text-anchor="middle" x="0" y="433" style="font-family: 'Open Sans', verdana, arial, sans-serif; font-size: 12px; fill: rgb(42, 63, 95); fill-opacity: 1; white-space: pre; opacity: 1;" transform="translate(225.58,0)">Jan 2023</text></g><g class="xtick"><text text-anchor="middle" x="0" y="433" style="font-family: 'Open Sans', verdana, arial, sans-serif; font-size: 12px; fill: rgb(42, 63, 95); fill-opacity: 1; white-space: pre; opacity: 1;" transform="translate(318.51,0)">Apr 2023</text></g><g class="xtick"><text text-anchor="middle" x="0" y="433" style="font-family: 'Open Sans', verdana, arial, sans-serif; font-size: 12px; fill: rgb(42, 63, 95); fill-opacity: 1; white-space: pre; opacity: 1;" transform="translate(412.47,0)">Jul 2023</text></g><g class="xtick"><text text-anchor="middle" x="0" y="433" style="font-family: 'Open Sans', verdana, arial, sans-serif; font-size: 12px; fill: rgb(42, 63, 95); fill-opacity: 1; white-space: pre; opacity: 1;" transform="translate(507.46,0)">Oct 2023</text></g><g class="xtick"><text text-anchor="middle" x="0" y="433" style="font-family: 'Open Sans', verdana, arial, sans-serif; font-size: 12px; fill: rgb(42, 63, 95); fill-opacity: 1; white-space: pre; opacity: 1;" transform="translate(602.45,0)">Jan 2024</text></g></g><g class="yaxislayer-above"><g class="ytick"><text text-anchor="end" x="79" y="4.199999999999999" transform="translate(0,398.82)" style="font-family: 'Open Sans', verdana, arial, sans-serif; font-size: 12px; fill: rgb(42, 63, 95); fill-opacity: 1; white-space: pre; opacity: 1;">$−8M</text></g><g class="ytick"><text text-anchor="end" x="79" y="4.199999999999999" style="font-family: 'Open Sans', verdana, arial, sans-serif; font-size: 12px; fill: rgb(42, 63, 95); fill-opacity: 1; white-space: pre; opacity: 1;" transform="translate(0,360.9)">$−6M</text></g><g class="ytick"><text text-anchor="end" x="79" y="4.199999999999999" style="font-family: 'Open Sans', verdana, arial, sans-serif; font-size: 12px; fill: rgb(42, 63, 95); fill-opacity: 1; white-space: pre; opacity: 1;" transform="translate(0,322.98)">$−4M</text></g><g class="ytick"><text text-anchor="end" x="79" y="4.199999999999999" style="font-family: 'Open Sans', verdana, arial, sans-serif; font-size: 12px; fill: rgb(42, 63, 95); fill-opacity: 1; white-space: pre; opacity: 1;" transform="translate(0,285.06)">$−2M</text></g><g class="ytick"><text text-anchor="end" x="79" y="4.199999999999999" style="font-family: 'Open Sans', verdana, arial, sans-serif; font-size: 12px; fill: rgb(42, 63, 95); fill-opacity: 1; white-space: pre; opacity: 1;" transform="translate(0,247.15)">$0</text></g><g class="ytick"><text text-anchor="end" x="79" y="4.199999999999999" style="font-family: 'Open Sans', verdana, arial, sans-serif; font-size: 12px; fill: rgb(42, 63, 95); fill-opacity: 1; white-space: pre; opacity: 1;" transform="translate(0,209.23000000000002)">$2M</text></g><g class="ytick"><text text-anchor="end" x="79" y="4.199999999999999" style="font-family: 'Open Sans', verdana, arial, sans-serif; font-size: 12px; fill: rgb(42, 63, 95); fill-opacity: 1; white-space: pre; opacity: 1;" transform="translate(0,171.31)">$4M</text></g><g class="ytick"><text text-anchor="end" x="79" y="4.199999999999999" style="font-family: 'Open Sans', verdana, arial, sans-serif; font-size: 12px; fill: rgb(42, 63, 95); fill-opacity: 1; white-space: pre; opacity: 1;" transform="translate(0,133.39)">$6M</text></g></g><g class="overaxes-above"/></g></g><g class="polarlayer"/><g class="smithlayer"/><g class="ternarylayer"/><g class="geolayer"/><g class="funnelarealayer"/><g class="pielayer"/><g class="iciclelayer"/><g class="treemaplayer"/><g class="sunburstlayer"/><g class="glimages"/><defs id="topdefs-90dcb5"><g class="clips"/></defs><g class="layer-above"><g class="imagelayer"/><g class="shapelayer"/></g><g class="infolayer"><g class="g-gtitle"><text class="gtitle" x="35" y="50" text-anchor="start" dy="0em" style="font-family: 'Open Sans', verdana, arial, sans-serif; font-size: 17px; fill: rgb(42, 63, 95); opacity: 1; font-weight: normal; white-space: pre;"><tspan class="line" dy="0em" x="35" y="50">Cbridge - Celer</tspan><tspan class="line" dy="1.3em" x="35" y="50">​<tspan style="font-size:70%" dy="-0.6em">Cumulative Net Flows since Program Announcement, Until Program End + 30 Days</tspan><tspan dy="0.42em">​</tspan></tspan></text></g><g class="g-xtitle"><text class="xtitle" x="350" y="460.3" text-anchor="middle" style="font-family: 'Open Sans', verdana, arial, sans-serif; font-size: 14px; fill: rgb(42, 63, 95); opacity: 1; font-weight: normal; white-space: pre;">Day</text></g><g class="g-ytitle"><text class="ytitle" transform="rotate(-90,24.340625000000003,260)" x="24.340625000000003" y="260" text-anchor="middle" style="font-family: 'Open Sans', verdana, arial, sans-serif; font-size: 14px; fill: rgb(42, 63, 95); opacity: 1; font-weight: normal; white-space: pre;">Cumulative Net Flows (USD)</text></g></g></svg>