<svg class="main-svg" xmlns="http://www.w3.org/2000/svg" xmlns:xlink="http://www.w3.org/1999/xlink" width="700" height="500" style="" viewBox="0 0 700 500"><rect x="0" y="0" width="700" height="500" style="fill: rgb(255, 255, 255); fill-opacity: 1;"/><defs id="defs-ea4022"><g class="clips"><clipPath id="clipea4022xyplot" class="plotclip"><rect width="540" height="320"/></clipPath><clipPath class="axesclip" id="clipea4022x"><rect x="80" y="0" width="540" height="500"/></clipPath><clipPath class="axesclip" id="clipea4022y"><rect x="0" y="100" width="700" height="320"/></clipPath><clipPath class="axesclip" id="clipea4022xy"><rect x="80" y="100" width="540" height="320"/></clipPath></g><g class="gradients"/><g class="patterns"/></defs><g class="bglayer"><rect class="bg" x="80" y="100" width="540" height="320" style="fill: rgb(229, 236, 246); fill-opacity: 1; stroke-width: 0;"/></g><g class="layer-below"><g class="imagelayer"/><g class="shapelayer"/></g><g class="cartesianlayer"><g class="subplot xy"><g class="layer-subplot"><g class="shapelayer"/><g class="imagelayer"/></g><g class="minor-gridlayer"><g class="x"/><g class="y"/></g><g class="gridlayer"><g class="x"><path class="xgrid crisp" transform="translate(154.91,0)" d="M0,100v320" style="stroke: rgb(255, 255, 255); stroke-opacity: 1; stroke-width: 1px;"/><path class="xgrid crisp" transform="translate(251.68,0)" d="M0,100v320" style="stroke: rgb(255, 255, 255); stroke-opacity: 1; stroke-width: 1px;"/><path class="xgrid crisp" transform="translate(345.32,0)" d="M0,100v320" style="stroke: rgb(255, 255, 255); stroke-opacity: 1; stroke-width: 1px;"/><path class="xgrid crisp" transform="translate(442.08,0)" d="M0,100v320" style="stroke: rgb(255, 255, 255); stroke-opacity: 1; stroke-width: 1px;"/><path class="xgrid crisp" transform="translate(538.8399999999999,0)" d="M0,100v320" style="stroke: rgb(255, 255, 255); stroke-opacity: 1; stroke-width: 1px;"/></g><g class="y"><path class="ygrid crisp" transform="translate(0,317.46000000000004)" d="M80,0h540" style="stroke: rgb(255, 255, 255); stroke-opacity: 1; stroke-width: 1px;"/><path class="ygrid crisp" transform="translate(0,258.02)" d="M80,0h540" style="stroke: rgb(255, 255, 255); stroke-opacity: 1; stroke-width: 1px;"/><path class="ygrid crisp" transform="translate(0,198.57999999999998)" d="M80,0h540" style="stroke: rgb(255, 255, 255); stroke-opacity: 1; stroke-width: 1px;"/><path class="ygrid crisp" transform="translate(0,139.14)" d="M80,0h540" style="stroke: rgb(255, 255, 255); stroke-opacity: 1; stroke-width: 1px;"/></g></g><g class="zerolinelayer"><path class="yzl zl crisp" transform="translate(0,376.9)" d="M80,0h540" style="stroke: rgb(255, 255, 255); stroke-opacity: 1; stroke-width: 2px;"/></g><path class="xlines-below"/><path class="ylines-below"/><g class="overlines-below"/><g class="xaxislayer-below"/><g class="yaxislayer-below"/><g class="overaxes-below"/><g class="plot" transform="translate(80,100)" clip-path="url(#clipea4022xyplot)"><g class="scatterlayer mlayer"><g class="trace scatter trace4aa587" style="stroke-miterlimit: 2;"><g class="fills"><g><path class="js-fill" d="M540,276.9L0,276.9L0,278.01L3.12,278.02L6.24,288.2L9.36,289.85L12.49,290.59L15.61,294.36L18.73,217.34L21.85,212.65L24.97,211L28.09,181.73L31.21,167.09L37.46,172.16L40.58,87.79L43.7,85.42L46.82,125.18L49.94,97.74L53.06,88.41L56.18,90.67L59.31,69.01L62.43,68.27L65.55,87.55L68.67,81.1L71.79,60.08L74.91,54.22L78.03,56.21L81.16,56.8L84.28,67.99L87.4,80.86L90.52,146.75L96.76,146.42L99.88,143.81L103.01,143.82L106.13,140.99L109.25,129.42L112.37,88.34L115.49,100.27L118.61,97.93L121.73,97.72L124.86,92.94L127.98,73.22L131.1,73.23L134.22,75.24L137.34,73.93L140.46,80.59L143.58,78.43L146.71,78.16L149.83,75.98L152.95,74.73L156.07,74.53L159.19,84.53L162.31,53.95L165.43,72.33L168.55,73.9L177.92,73.69L181.04,68.07L184.16,75.23L187.28,43.79L190.4,42.72L193.53,35.4L196.65,37.58L199.77,41.37L202.89,40.3L206.01,40.51L209.13,40.45L212.25,39.15L218.5,39.2L221.62,25.43L224.74,25.51L227.86,16L234.1,21.42L237.23,16.39L240.35,17.88L243.47,22.19L246.59,31.32L249.71,30.72L252.83,30.8L255.95,111.68L259.08,222.4L262.2,224.58L271.56,245.98L274.68,246.14L280.92,246.84L284.05,249.65L287.17,249.71L290.29,295.91L296.53,296.77L299.65,297.34L333.99,298.11L337.11,298.35L358.96,298.38L362.08,301.56L440.12,301.9L443.24,303.5L540,304" style="fill: rgb(99, 110, 250); fill-opacity: 0.5; stroke-width: 0;"/></g></g><g class="errorbars"/><g class="lines"><path class="js-line" d="M0,278.01L3.12,278.02L6.24,288.2L9.36,289.85L12.49,290.59L15.61,294.36L18.73,217.34L21.85,212.65L24.97,211L28.09,181.73L31.21,167.09L37.46,172.16L40.58,87.79L43.7,85.42L46.82,125.18L49.94,97.74L53.06,88.41L56.18,90.67L59.31,69.01L62.43,68.27L65.55,87.55L68.67,81.1L71.79,60.08L74.91,54.22L78.03,56.21L81.16,56.8L84.28,67.99L87.4,80.86L90.52,146.75L96.76,146.42L99.88,143.81L103.01,143.82L106.13,140.99L109.25,129.42L112.37,88.34L115.49,100.27L118.61,97.93L121.73,97.72L124.86,92.94L127.98,73.22L131.1,73.23L134.22,75.24L137.34,73.93L140.46,80.59L143.58,78.43L146.71,78.16L149.83,75.98L152.95,74.73L156.07,74.53L159.19,84.53L162.31,53.95L165.43,72.33L168.55,73.9L177.92,73.69L181.04,68.07L184.16,75.23L187.28,43.79L190.4,42.72L193.53,35.4L196.65,37.58L199.77,41.37L202.89,40.3L206.01,40.51L209.13,40.45L212.25,39.15L218.5,39.2L221.62,25.43L224.74,25.51L227.86,16L234.1,21.42L237.23,16.39L240.35,17.88L243.47,22.19L246.59,31.32L249.71,30.72L252.83,30.8L255.95,111.68L259.08,222.4L262.2,224.58L271.56,245.98L274.68,246.14L280.92,246.84L284.05,249.65L287.17,249.71L290.29,295.91L296.53,296.77L299.65,297.34L333.99,298.11L337.11,298.35L358.96,298.38L362.08,301.56L440.12,301.9L443.24,303.5L540,304" style="vector-effect: none; fill: none; stroke: rgb(99, 110, 250); stroke-opacity: 1; stroke-width: 2px; opacity: 1;"/></g><g class="points"/><g class="text"/></g></g></g><g class="overplot"/><path class="xlines-above crisp" d="M0,0" style="fill: none;"/><path class="ylines-above crisp" d="M0,0" style="fill: none;"/><g class="overlines-above"/><g class="xaxislayer-above"><g class="xtick"><text text-anchor="middle" x="0" y="433" transform="translate(154.91,0)" style="font-family: 'Open Sans', verdana, arial, sans-serif; font-size: 12px; fill: rgb(42, 63, 95); fill-opacity: 1; white-space: pre; opacity: 1;">May 2023</text></g><g class="xtick"><text text-anchor="middle" x="0" y="433" style="font-family: 'Open Sans', verdana, arial, sans-serif; font-size: 12px; fill: rgb(42, 63, 95); fill-opacity: 1; white-space: pre; opacity: 1;" transform="translate(251.68,0)">Jun 2023</text></g><g class="xtick"><text text-anchor="middle" x="0" y="433" style="font-family: 'Open Sans', verdana, arial, sans-serif; font-size: 12px; fill: rgb(42, 63, 95); fill-opacity: 1; white-space: pre; opacity: 1;" transform="translate(345.32,0)">Jul 2023</text></g><g class="xtick"><text text-anchor="middle" x="0" y="433" style="font-family: 'Open Sans', verdana, arial, sans-serif; font-size: 12px; fill: rgb(42, 63, 95); fill-opacity: 1; white-space: pre; opacity: 1;" transform="translate(442.08,0)">Aug 2023</text></g><g class="xtick"><text text-anchor="middle" x="0" y="433" style="font-family: 'Open Sans', verdana, arial, sans-serif; font-size: 12px; fill: rgb(42, 63, 95); fill-opacity: 1; white-space: pre; opacity: 1;" transform="translate(538.8399999999999,0)">Sep 2023</text></g></g><g class="yaxislayer-above"><g class="ytick"><text text-anchor="end" x="79" y="4.199999999999999" transform="translate(0,376.9)" style="font-family: 'Open Sans', verdana, arial, sans-serif; font-size: 12px; fill: rgb(42, 63, 95); fill-opacity: 1; white-space: pre; opacity: 1;">$0</text></g><g class="ytick"><text text-anchor="end" x="79" y="4.199999999999999" style="font-family: 'Open Sans', verdana, arial, sans-serif; font-size: 12px; fill: rgb(42, 63, 95); fill-opacity: 1; white-space: pre; opacity: 1;" transform="translate(0,317.46000000000004)">$0.5M</text></g><g class="ytick"><text text-anchor="end" x="79" y="4.199999999999999" style="font-family: 'Open Sans', verdana, arial, sans-serif; font-size: 12px; fill: rgb(42, 63, 95); fill-opacity: 1; white-space: pre; opacity: 1;" transform="translate(0,258.02)">$1M</text></g><g class="ytick"><text text-anchor="end" x="79" y="4.199999999999999" style="font-family: 'Open Sans', verdana, arial, sans-serif; font-size: 12px; fill: rgb(42, 63, 95); fill-opacity: 1; white-space: pre; opacity: 1;" transform="translate(0,198.57999999999998)">$1.5M</text></g><g class="ytick"><text text-anchor="end" x="79" y="4.199999999999999" style="font-family: 'Open Sans', verdana, arial, sans-serif; font-size: 12px; fill: rgb(42, 63, 95); fill-opacity: 1; white-space: pre; opacity: 1;" transform="translate(0,139.14)">$2M</text></g></g><g class="overaxes-above"/></g></g><g class="polarlayer"/><g class="smithlayer"/><g class="ternarylayer"/><g class="geolayer"/><g class="funnelarealayer"/><g class="pielayer"/><g class="iciclelayer"/><g class="treemaplayer"/><g class="sunburstlayer"/><g class="glimages"/><defs id="topdefs-ea4022"><g class="clips"/></defs><g class="layer-above"><g class="imagelayer"/><g class="shapelayer"/></g><g class="infolayer"><g class="g-gtitle"><text class="gtitle" x="35" y="50" text-anchor="start" dy="0em" style="font-family: 'Open Sans', verdana, arial, sans-serif; font-size: 17px; fill: rgb(42, 63, 95); opacity: 1; font-weight: normal; white-space: pre;"><tspan class="line" dy="0em" x="35" y="50">Lido - wstETH/OP: Velodrome</tspan><tspan class="line" dy="1.3em" x="35" y="50">​<tspan style="font-size:70%" dy="-0.6em">Cumulative Net Flows since Program Announcement, Until Program End + 30 Days</tspan><tspan dy="0.42em">​</tspan></tspan></text></g><g class="g-xtitle"><text class="xtitle" x="350" y="460.3" text-anchor="middle" style="font-family: 'Open Sans', verdana, arial, sans-serif; font-size: 14px; fill: rgb(42, 63, 95); opacity: 1; font-weight: normal; white-space: pre;">Day</text></g><g class="g-ytitle"><text class="ytitle" transform="rotate(-90,21.340625000000003,260)" x="21.340625000000003" y="260" text-anchor="middle" style="font-family: 'Open Sans', verdana, arial, sans-serif; font-size: 14px; fill: rgb(42, 63, 95); opacity: 1; font-weight: normal; white-space: pre;">Cumulative Net Flows (USD)</text></g></g></svg>