<svg class="main-svg" xmlns="http://www.w3.org/2000/svg" xmlns:xlink="http://www.w3.org/1999/xlink" width="700" height="500" style="" viewBox="0 0 700 500"><rect x="0" y="0" width="700" height="500" style="fill: rgb(255, 255, 255); fill-opacity: 1;"/><defs id="defs-84e52c"><g class="clips"><clipPath id="clip84e52cxyplot" class="plotclip"><rect width="540" height="320"/></clipPath><clipPath class="axesclip" id="clip84e52cx"><rect x="80" y="0" width="540" height="500"/></clipPath><clipPath class="axesclip" id="clip84e52cy"><rect x="0" y="100" width="700" height="320"/></clipPath><clipPath class="axesclip" id="clip84e52cxy"><rect x="80" y="100" width="540" height="320"/></clipPath></g><g class="gradients"/><g class="patterns"/></defs><g class="bglayer"><rect class="bg" x="80" y="100" width="540" height="320" style="fill: rgb(229, 236, 246); fill-opacity: 1; stroke-width: 0;"/></g><g class="layer-below"><g class="imagelayer"/><g class="shapelayer"/></g><g class="cartesianlayer"><g class="subplot xy"><g class="layer-subplot"><g class="shapelayer"/><g class="imagelayer"/></g><g class="minor-gridlayer"><g class="x"/><g class="y"/></g><g class="gridlayer"><g class="x"><path class="xgrid crisp" transform="translate(112.97,0)" d="M0,100v320" style="stroke: rgb(255, 255, 255); stroke-opacity: 1; stroke-width: 1px;"/><path class="xgrid crisp" transform="translate(208.72,0)" d="M0,100v320" style="stroke: rgb(255, 255, 255); stroke-opacity: 1; stroke-width: 1px;"/><path class="xgrid crisp" transform="translate(304.48,0)" d="M0,100v320" style="stroke: rgb(255, 255, 255); stroke-opacity: 1; stroke-width: 1px;"/><path class="xgrid crisp" transform="translate(401.8,0)" d="M0,100v320" style="stroke: rgb(255, 255, 255); stroke-opacity: 1; stroke-width: 1px;"/><path class="xgrid crisp" transform="translate(497.56,0)" d="M0,100v320" style="stroke: rgb(255, 255, 255); stroke-opacity: 1; stroke-width: 1px;"/><path class="xgrid crisp" transform="translate(593.31,0)" d="M0,100v320" style="stroke: rgb(255, 255, 255); stroke-opacity: 1; stroke-width: 1px;"/></g><g class="y"><path class="ygrid crisp" transform="translate(0,321.83000000000004)" d="M80,0h540" style="stroke: rgb(255, 255, 255); stroke-opacity: 1; stroke-width: 1px;"/><path class="ygrid crisp" transform="translate(0,267.72)" d="M80,0h540" style="stroke: rgb(255, 255, 255); stroke-opacity: 1; stroke-width: 1px;"/><path class="ygrid crisp" transform="translate(0,213.6)" d="M80,0h540" style="stroke: rgb(255, 255, 255); stroke-opacity: 1; stroke-width: 1px;"/><path class="ygrid crisp" transform="translate(0,159.49)" d="M80,0h540" style="stroke: rgb(255, 255, 255); stroke-opacity: 1; stroke-width: 1px;"/><path class="ygrid crisp" transform="translate(0,105.37)" d="M80,0h540" style="stroke: rgb(255, 255, 255); stroke-opacity: 1; stroke-width: 1px;"/></g></g><g class="zerolinelayer"><path class="yzl zl crisp" transform="translate(0,375.95)" d="M80,0h540" style="stroke: rgb(255, 255, 255); stroke-opacity: 1; stroke-width: 2px;"/></g><path class="xlines-below"/><path class="ylines-below"/><g class="overlines-below"/><g class="xaxislayer-below"/><g class="yaxislayer-below"/><g class="overaxes-below"/><g class="plot" transform="translate(80,100)" clip-path="url(#clip84e52cxyplot)"><g class="scatterlayer mlayer"><g class="trace scatter traceadf639" style="stroke-miterlimit: 2;"><g class="fills"><g><path class="js-fill" d="M540,275.95L0,275.95L0,270.6L1.57,242.22L3.14,232.67L4.71,222.99L6.28,219.17L9.42,215.51L10.99,215.76L12.56,207.4L14.13,193.51L15.7,190.56L17.27,181.86L18.84,152.27L20.41,147.49L21.98,144.29L23.55,131.96L25.12,110.06L26.69,106.56L28.26,104.02L29.83,97.56L32.97,95.24L34.53,91.66L42.38,75.08L43.95,73.88L47.09,80L48.66,81.35L50.23,81.71L51.8,81.16L53.37,62.78L54.94,60.68L56.51,58.44L58.08,58.13L59.65,58.32L61.22,55.79L62.79,54.04L64.36,69.01L67.5,69.59L69.07,66.24L70.64,67.37L72.21,66.84L73.78,62.41L75.35,63.68L76.92,59.17L78.49,60.26L80.06,57.87L81.63,47.83L83.2,47.01L84.77,49.06L86.34,46.86L87.91,45.97L91.05,40.21L92.62,40.17L94.19,46.82L95.76,57.73L98.9,76.09L100.47,75.53L103.6,53.69L105.17,57.8L106.74,31.49L108.31,30.29L109.88,27.85L111.45,22.07L113.02,23.42L114.59,22.07L116.16,25.32L117.73,25.03L119.3,22.54L120.87,21.78L122.44,16L124.01,16.53L127.15,16.88L128.72,18.57L130.29,33.63L131.86,33.94L136.57,52.96L138.14,61.89L139.71,69.8L141.28,73L144.42,74.31L145.99,89.01L153.84,90.12L155.41,94.37L158.55,94.36L160.12,95.42L161.69,94.65L163.26,79.15L164.83,80.79L166.4,83.83L167.97,84.8L169.53,88.78L171.1,114.39L172.67,114.73L174.24,115.15L175.81,119.79L177.38,121.47L178.95,133.32L180.52,133.65L182.09,134.89L191.51,135.27L193.08,135.66L197.79,137.01L199.36,143.13L204.07,141.52L205.64,141.7L207.21,142.05L208.78,126.07L210.35,152.68L211.92,157.53L213.49,159.26L215.06,163.63L216.63,175.17L218.2,179.16L221.34,195.55L222.91,199.81L226.05,205.19L227.62,214.13L230.76,214.79L232.33,215.4L235.47,216.35L237.03,263.79L243.31,264.66L244.88,269.71L251.16,270.06L252.73,290.52L257.44,291.12L259.01,291.44L277.85,292.07L279.42,294.63L293.55,294.96L295.12,298.84L345.35,299.37L346.92,303.12L348.49,299.25L350.06,299.25L357.91,299.45L359.48,302.9L361.05,299.42L362.62,302.9L364.19,299.19L365.76,302.9L367.33,299.23L368.9,299.23L372.03,299.25L373.6,302.87L375.17,299.38L376.74,299.38L387.73,299.38L389.3,302.78L390.87,299.39L392.44,299.41L428.55,299.71L430.12,300.42L431.69,300.41L433.26,302.24L494.48,302.21L496.05,302.21L510.17,302.23L511.74,304L513.31,302.17L514.88,302.17L540,302.19" style="fill: rgb(99, 110, 250); fill-opacity: 0.5; stroke-width: 0;"/></g></g><g class="errorbars"/><g class="lines"><path class="js-line" d="M0,270.6L1.57,242.22L3.14,232.67L4.71,222.99L6.28,219.17L9.42,215.51L10.99,215.76L12.56,207.4L14.13,193.51L15.7,190.56L17.27,181.86L18.84,152.27L20.41,147.49L21.98,144.29L23.55,131.96L25.12,110.06L26.69,106.56L28.26,104.02L29.83,97.56L32.97,95.24L34.53,91.66L42.38,75.08L43.95,73.88L47.09,80L48.66,81.35L50.23,81.71L51.8,81.16L53.37,62.78L54.94,60.68L56.51,58.44L58.08,58.13L59.65,58.32L61.22,55.79L62.79,54.04L64.36,69.01L67.5,69.59L69.07,66.24L70.64,67.37L72.21,66.84L73.78,62.41L75.35,63.68L76.92,59.17L78.49,60.26L80.06,57.87L81.63,47.83L83.2,47.01L84.77,49.06L86.34,46.86L87.91,45.97L91.05,40.21L92.62,40.17L94.19,46.82L95.76,57.73L98.9,76.09L100.47,75.53L103.6,53.69L105.17,57.8L106.74,31.49L108.31,30.29L109.88,27.85L111.45,22.07L113.02,23.42L114.59,22.07L116.16,25.32L117.73,25.03L119.3,22.54L120.87,21.78L122.44,16L124.01,16.53L127.15,16.88L128.72,18.57L130.29,33.63L131.86,33.94L136.57,52.96L138.14,61.89L139.71,69.8L141.28,73L144.42,74.31L145.99,89.01L153.84,90.12L155.41,94.37L158.55,94.36L160.12,95.42L161.69,94.65L163.26,79.15L164.83,80.79L166.4,83.83L167.97,84.8L169.53,88.78L171.1,114.39L172.67,114.73L174.24,115.15L175.81,119.79L177.38,121.47L178.95,133.32L180.52,133.65L182.09,134.89L191.51,135.27L193.08,135.66L197.79,137.01L199.36,143.13L204.07,141.52L205.64,141.7L207.21,142.05L208.78,126.07L210.35,152.68L211.92,157.53L213.49,159.26L215.06,163.63L216.63,175.17L218.2,179.16L221.34,195.55L222.91,199.81L226.05,205.19L227.62,214.13L230.76,214.79L232.33,215.4L235.47,216.35L237.03,263.79L243.31,264.66L244.88,269.71L251.16,270.06L252.73,290.52L257.44,291.12L259.01,291.44L277.85,292.07L279.42,294.63L293.55,294.96L295.12,298.84L345.35,299.37L346.92,303.12L348.49,299.25L350.06,299.25L357.91,299.45L359.48,302.9L361.05,299.42L362.62,302.9L364.19,299.19L365.76,302.9L367.33,299.23L368.9,299.23L372.03,299.25L373.6,302.87L375.17,299.38L376.74,299.38L387.73,299.38L389.3,302.78L390.87,299.39L392.44,299.41L428.55,299.71L430.12,300.42L431.69,300.41L433.26,302.24L494.48,302.21L496.05,302.21L510.17,302.23L511.74,304L513.31,302.17L514.88,302.17L540,302.19" style="vector-effect: none; fill: none; stroke: rgb(99, 110, 250); stroke-opacity: 1; stroke-width: 2px; opacity: 1;"/></g><g class="points"/><g class="text"/></g></g></g><g class="overplot"/><path class="xlines-above crisp" d="M0,0" style="fill: none;"/><path class="ylines-above crisp" d="M0,0" style="fill: none;"/><g class="overlines-above"/><g class="xaxislayer-above"><g class="xtick"><text text-anchor="middle" x="0" y="433" transform="translate(112.97,0)" style="font-family: 'Open Sans', verdana, arial, sans-serif; font-size: 12px; fill: rgb(42, 63, 95); fill-opacity: 1; white-space: pre; opacity: 1;">Mar 2023</text></g><g class="xtick"><text text-anchor="middle" x="0" y="433" style="font-family: 'Open Sans', verdana, arial, sans-serif; font-size: 12px; fill: rgb(42, 63, 95); fill-opacity: 1; white-space: pre; opacity: 1;" transform="translate(208.72,0)">May 2023</text></g><g class="xtick"><text text-anchor="middle" x="0" y="433" style="font-family: 'Open Sans', verdana, arial, sans-serif; font-size: 12px; fill: rgb(42, 63, 95); fill-opacity: 1; white-space: pre; opacity: 1;" transform="translate(304.48,0)">Jul 2023</text></g><g class="xtick"><text text-anchor="middle" x="0" y="433" style="font-family: 'Open Sans', verdana, arial, sans-serif; font-size: 12px; fill: rgb(42, 63, 95); fill-opacity: 1; white-space: pre; opacity: 1;" transform="translate(401.8,0)">Sep 2023</text></g><g class="xtick"><text text-anchor="middle" x="0" y="433" style="font-family: 'Open Sans', verdana, arial, sans-serif; font-size: 12px; fill: rgb(42, 63, 95); fill-opacity: 1; white-space: pre; opacity: 1;" transform="translate(497.56,0)">Nov 2023</text></g><g class="xtick"><text text-anchor="middle" x="0" y="433" style="font-family: 'Open Sans', verdana, arial, sans-serif; font-size: 12px; fill: rgb(42, 63, 95); fill-opacity: 1; white-space: pre; opacity: 1;" transform="translate(593.31,0)">Jan 2024</text></g></g><g class="yaxislayer-above"><g class="ytick"><text text-anchor="end" x="79" y="4.199999999999999" transform="translate(0,375.95)" style="font-family: 'Open Sans', verdana, arial, sans-serif; font-size: 12px; fill: rgb(42, 63, 95); fill-opacity: 1; white-space: pre; opacity: 1;">$0</text></g><g class="ytick"><text text-anchor="end" x="79" y="4.199999999999999" style="font-family: 'Open Sans', verdana, arial, sans-serif; font-size: 12px; fill: rgb(42, 63, 95); fill-opacity: 1; white-space: pre; opacity: 1;" transform="translate(0,321.83000000000004)">$5M</text></g><g class="ytick"><text text-anchor="end" x="79" y="4.199999999999999" style="font-family: 'Open Sans', verdana, arial, sans-serif; font-size: 12px; fill: rgb(42, 63, 95); fill-opacity: 1; white-space: pre; opacity: 1;" transform="translate(0,267.72)">$10M</text></g><g class="ytick"><text text-anchor="end" x="79" y="4.199999999999999" style="font-family: 'Open Sans', verdana, arial, sans-serif; font-size: 12px; fill: rgb(42, 63, 95); fill-opacity: 1; white-space: pre; opacity: 1;" transform="translate(0,213.6)">$15M</text></g><g class="ytick"><text text-anchor="end" x="79" y="4.199999999999999" style="font-family: 'Open Sans', verdana, arial, sans-serif; font-size: 12px; fill: rgb(42, 63, 95); fill-opacity: 1; white-space: pre; opacity: 1;" transform="translate(0,159.49)">$20M</text></g><g class="ytick"><text text-anchor="end" x="79" y="4.199999999999999" style="font-family: 'Open Sans', verdana, arial, sans-serif; font-size: 12px; fill: rgb(42, 63, 95); fill-opacity: 1; white-space: pre; opacity: 1;" transform="translate(0,105.37)">$25M</text></g></g><g class="overaxes-above"/></g></g><g class="polarlayer"/><g class="smithlayer"/><g class="ternarylayer"/><g class="geolayer"/><g class="funnelarealayer"/><g class="pielayer"/><g class="iciclelayer"/><g class="treemaplayer"/><g class="sunburstlayer"/><g class="glimages"/><defs id="topdefs-84e52c"><g class="clips"/></defs><g class="layer-above"><g class="imagelayer"/><g class="shapelayer"/></g><g class="infolayer"><g class="g-gtitle"><text class="gtitle" x="35" y="50" text-anchor="start" dy="0em" style="font-family: 'Open Sans', verdana, arial, sans-serif; font-size: 17px; fill: rgb(42, 63, 95); opacity: 1; font-weight: normal; white-space: pre;"><tspan class="line" dy="0em" x="35" y="50">Rocket Pool - vWETH/rETH: Velodrome</tspan><tspan class="line" dy="1.3em" x="35" y="50">​<tspan style="font-size:70%" dy="-0.6em">Cumulative Net Flows since Program Announcement, Until Program End + 30 Days</tspan><tspan dy="0.42em">​</tspan></tspan></text></g><g class="g-xtitle"><text class="xtitle" x="350" y="460.3" text-anchor="middle" style="font-family: 'Open Sans', verdana, arial, sans-serif; font-size: 14px; fill: rgb(42, 63, 95); opacity: 1; font-weight: normal; white-space: pre;">Day</text></g><g class="g-ytitle"><text class="ytitle" transform="rotate(-90,24.668750000000003,260)" x="24.668750000000003" y="260" text-anchor="middle" style="font-family: 'Open Sans', verdana, arial, sans-serif; font-size: 14px; fill: rgb(42, 63, 95); opacity: 1; font-weight: normal; white-space: pre;">Cumulative Net Flows (USD)</text></g></g></svg>