<svg class="main-svg" xmlns="http://www.w3.org/2000/svg" xmlns:xlink="http://www.w3.org/1999/xlink" width="700" height="500" style="" viewBox="0 0 700 500"><rect x="0" y="0" width="700" height="500" style="fill: rgb(255, 255, 255); fill-opacity: 1;"/><defs id="defs-0e33ed"><g class="clips"><clipPath id="clip0e33edxyplot" class="plotclip"><rect width="469" height="320"/></clipPath><clipPath class="axesclip" id="clip0e33edx"><rect x="80" y="0" width="469" height="500"/></clipPath><clipPath class="axesclip" id="clip0e33edy"><rect x="0" y="100" width="700" height="320"/></clipPath><clipPath class="axesclip" id="clip0e33edxy"><rect x="80" y="100" width="469" height="320"/></clipPath></g><g class="gradients"/><g class="patterns"/></defs><g class="bglayer"><rect class="bg" x="80" y="100" width="469" height="320" style="fill: rgb(229, 236, 246); fill-opacity: 1; stroke-width: 0;"/></g><g class="layer-below"><g class="imagelayer"/><g class="shapelayer"/></g><g class="cartesianlayer"><g class="subplot xy"><g class="layer-subplot"><g class="shapelayer"/><g class="imagelayer"/></g><g class="minor-gridlayer"><g class="x"/><g class="y"/></g><g class="gridlayer"><g class="x"><path class="xgrid crisp" transform="translate(173.8,0)" d="M0,100v320" style="stroke: rgb(255, 255, 255); stroke-opacity: 1; stroke-width: 1px;"/><path class="xgrid crisp" transform="translate(293,0)" d="M0,100v320" style="stroke: rgb(255, 255, 255); stroke-opacity: 1; stroke-width: 1px;"/><path class="xgrid crisp" transform="translate(412.21,0)" d="M0,100v320" style="stroke: rgb(255, 255, 255); stroke-opacity: 1; stroke-width: 1px;"/><path class="xgrid crisp" transform="translate(527.5,0)" d="M0,100v320" style="stroke: rgb(255, 255, 255); stroke-opacity: 1; stroke-width: 1px;"/></g><g class="y"><path class="ygrid crisp" transform="translate(0,331.33000000000004)" d="M80,0h469" style="stroke: rgb(255, 255, 255); stroke-opacity: 1; stroke-width: 1px;"/><path class="ygrid crisp" transform="translate(0,283.28)" d="M80,0h469" style="stroke: rgb(255, 255, 255); stroke-opacity: 1; stroke-width: 1px;"/><path class="ygrid crisp" transform="translate(0,235.22)" d="M80,0h469" style="stroke: rgb(255, 255, 255); stroke-opacity: 1; stroke-width: 1px;"/><path class="ygrid crisp" transform="translate(0,187.17000000000002)" d="M80,0h469" style="stroke: rgb(255, 255, 255); stroke-opacity: 1; stroke-width: 1px;"/><path class="ygrid crisp" transform="translate(0,139.11)" d="M80,0h469" style="stroke: rgb(255, 255, 255); stroke-opacity: 1; stroke-width: 1px;"/></g></g><g class="zerolinelayer"><path class="yzl zl crisp" transform="translate(0,379.39)" d="M80,0h469" style="stroke: rgb(255, 255, 255); stroke-opacity: 1; stroke-width: 2px;"/></g><path class="xlines-below"/><path class="ylines-below"/><g class="overlines-below"/><g class="xaxislayer-below"/><g class="yaxislayer-below"/><g class="overaxes-below"/><g class="plot" transform="translate(80,100)" clip-path="url(#clip0e33edxyplot)"><g class="scatterlayer mlayer"><g class="trace scatter trace3b160a" style="stroke-miterlimit: 2;"><g class="fills"><g><path class="js-fill" d="M410.38,279.39L0,279.39L0,279.32L5.86,274.86L7.82,273.2L11.72,271.98L13.68,261.96L15.63,259.31L17.59,258.98L19.54,254.58L21.5,253.93L23.45,251.81L25.4,251.83L29.31,244.85L31.27,243.2L33.22,240.14L35.17,229.14L37.13,228.48L39.08,231.4L41.04,227.22L42.99,164.03L44.95,155.59L46.9,134.35L48.85,126.1L50.81,135.9L52.76,139.05L54.72,139.73L56.67,141.49L58.63,142.08L60.58,142.96L62.53,145.02L64.49,147.23L66.44,159.9L70.35,171.67L72.3,169.72L74.26,169.62L76.21,189.7L78.17,187.51L80.12,188.7L84.03,189.25L85.98,188.9L87.94,189.35L89.89,188.53L93.8,187.71L95.75,185.89L97.71,185.51L99.66,183.96L101.62,183.32L103.57,184.32L105.52,186.12L107.48,184.09L109.43,167.66L111.39,161.33L113.34,160.7L115.3,161.04L117.25,157.16L119.2,188.49L121.16,191L123.11,189.2L125.07,187.66L127.02,184.96L128.97,181.04L130.93,174.44L132.88,182.07L134.84,180.15L136.79,176.46L138.75,168.39L140.7,147.15L142.65,146.75L144.61,146.42L146.56,139.55L148.52,144.05L150.47,141.2L152.42,136.19L154.38,134.84L156.33,135.14L158.29,144.06L160.24,140.29L162.2,140.67L166.1,141.11L168.06,139.93L170.01,133.79L171.97,131.36L175.88,134.81L177.83,139.23L179.78,116.84L181.74,120.38L183.69,133.01L185.65,133.14L187.6,133.02L189.55,135.85L193.46,135.66L195.42,136.02L197.37,135.61L199.32,136.59L203.23,137.56L205.19,143.84L207.14,144.02L209.1,147.1L211.05,146.14L213,141.15L214.96,141.31L216.91,130.03L218.87,129.67L220.82,127.71L226.68,126.49L228.64,135.74L230.59,151.7L232.55,151.92L234.5,152.43L236.45,151.68L238.41,151.87L240.36,150.9L248.18,149.19L250.13,147.83L256,145.09L257.95,130.65L259.9,128.29L261.86,132.8L263.81,137.01L265.77,122.78L267.72,122.6L269.67,124.29L271.63,123.06L273.58,124L275.54,137.6L277.49,138.29L281.4,139.86L283.35,138.73L285.31,139.49L287.26,138.38L289.22,137.84L291.17,131.12L293.13,126.81L295.08,124.52L298.99,122.71L300.94,121.78L302.9,133.74L304.85,133L306.8,123.38L308.76,122.67L312.67,122.05L314.62,121.44L316.57,112.58L318.53,112.69L320.48,111.21L322.44,110.7L324.39,110.47L326.35,116.38L330.25,115.22L332.21,112.05L336.12,114.13L338.07,118.61L341.98,117.2L343.93,119.02L347.84,117.27L349.8,114.68L351.75,113.43L353.7,110.67L357.61,111.19L359.57,106.27L361.52,104.98L363.47,101.04L365.43,95.02L367.38,96.39L369.34,95.75L371.29,90.84L373.25,90.76L375.2,84.19L377.15,82.67L379.11,70.62L383.02,63.27L384.97,57.12L386.92,55.97L388.88,48.6L390.83,46.06L392.79,41.88L396.7,28.93L398.65,19.68L400.6,29.23L402.56,30.74L404.51,28.6L406.47,16L408.42,32.01L410.38,31.41" style="fill: rgb(99, 110, 250); fill-opacity: 0.5; stroke-width: 0;"/></g></g><g class="errorbars"/><g class="lines"><path class="js-line" d="M0,279.32L5.86,274.86L7.82,273.2L11.72,271.98L13.68,261.96L15.63,259.31L17.59,258.98L19.54,254.58L21.5,253.93L23.45,251.81L25.4,251.83L29.31,244.85L31.27,243.2L33.22,240.14L35.17,229.14L37.13,228.48L39.08,231.4L41.04,227.22L42.99,164.03L44.95,155.59L46.9,134.35L48.85,126.1L50.81,135.9L52.76,139.05L54.72,139.73L56.67,141.49L58.63,142.08L60.58,142.96L62.53,145.02L64.49,147.23L66.44,159.9L70.35,171.67L72.3,169.72L74.26,169.62L76.21,189.7L78.17,187.51L80.12,188.7L84.03,189.25L85.98,188.9L87.94,189.35L89.89,188.53L93.8,187.71L95.75,185.89L97.71,185.51L99.66,183.96L101.62,183.32L103.57,184.32L105.52,186.12L107.48,184.09L109.43,167.66L111.39,161.33L113.34,160.7L115.3,161.04L117.25,157.16L119.2,188.49L121.16,191L123.11,189.2L125.07,187.66L127.02,184.96L128.97,181.04L130.93,174.44L132.88,182.07L134.84,180.15L136.79,176.46L138.75,168.39L140.7,147.15L142.65,146.75L144.61,146.42L146.56,139.55L148.52,144.05L150.47,141.2L152.42,136.19L154.38,134.84L156.33,135.14L158.29,144.06L160.24,140.29L162.2,140.67L166.1,141.11L168.06,139.93L170.01,133.79L171.97,131.36L175.88,134.81L177.83,139.23L179.78,116.84L181.74,120.38L183.69,133.01L185.65,133.14L187.6,133.02L189.55,135.85L193.46,135.66L195.42,136.02L197.37,135.61L199.32,136.59L203.23,137.56L205.19,143.84L207.14,144.02L209.1,147.1L211.05,146.14L213,141.15L214.96,141.31L216.91,130.03L218.87,129.67L220.82,127.71L226.68,126.49L228.64,135.74L230.59,151.7L232.55,151.92L234.5,152.43L236.45,151.68L238.41,151.87L240.36,150.9L248.18,149.19L250.13,147.83L256,145.09L257.95,130.65L259.9,128.29L261.86,132.8L263.81,137.01L265.77,122.78L267.72,122.6L269.67,124.29L271.63,123.06L273.58,124L275.54,137.6L277.49,138.29L281.4,139.86L283.35,138.73L285.31,139.49L287.26,138.38L289.22,137.84L291.17,131.12L293.13,126.81L295.08,124.52L298.99,122.71L300.94,121.78L302.9,133.74L304.85,133L306.8,123.38L308.76,122.67L312.67,122.05L314.62,121.44L316.57,112.58L318.53,112.69L320.48,111.21L322.44,110.7L324.39,110.47L326.35,116.38L330.25,115.22L332.21,112.05L336.12,114.13L338.07,118.61L341.98,117.2L343.93,119.02L347.84,117.27L349.8,114.68L351.75,113.43L353.7,110.67L357.61,111.19L359.57,106.27L361.52,104.98L363.47,101.04L365.43,95.02L367.38,96.39L369.34,95.75L371.29,90.84L373.25,90.76L375.2,84.19L377.15,82.67L379.11,70.62L383.02,63.27L384.97,57.12L386.92,55.97L388.88,48.6L390.83,46.06L392.79,41.88L396.7,28.93L398.65,19.68L400.6,29.23L402.56,30.74L404.51,28.6L406.47,16L408.42,32.01L410.38,31.41" style="vector-effect: none; fill: none; stroke: rgb(99, 110, 250); stroke-opacity: 1; stroke-width: 2px; opacity: 1;"/></g><g class="points"/><g class="text"/></g><g class="trace scatter trace22de4e" style="stroke-miterlimit: 2;"><g class="fills"><g><path class="js-fill" d="M469,279.39L412.33,279.39L412.33,25.41L414.28,70.24L416.24,133.42L418.19,142.74L420.15,174.66L422.1,191.81L424.05,197.18L426.01,272.65L427.96,273.72L429.92,274.8L431.87,277.37L433.82,282.61L435.78,284.42L437.73,288.7L439.69,295.14L443.6,296.68L445.55,298.36L453.37,299.94L455.32,301.74L463.14,303.16L465.09,303.5L469,304" style="fill: rgb(239, 85, 59); fill-opacity: 0.5; stroke-width: 0;"/></g></g><g class="errorbars"/><g class="lines"><path class="js-line" d="M412.33,25.41L414.28,70.24L416.24,133.42L418.19,142.74L420.15,174.66L422.1,191.81L424.05,197.18L426.01,272.65L427.96,273.72L429.92,274.8L431.87,277.37L433.82,282.61L435.78,284.42L437.73,288.7L439.69,295.14L443.6,296.68L445.55,298.36L453.37,299.94L455.32,301.74L463.14,303.16L465.09,303.5L469,304" style="vector-effect: none; fill: none; stroke: rgb(239, 85, 59); stroke-opacity: 1; stroke-width: 2px; opacity: 1;"/></g><g class="points"/><g class="text"/></g></g></g><g class="overplot"/><path class="xlines-above crisp" d="M0,0" style="fill: none;"/><path class="ylines-above crisp" d="M0,0" style="fill: none;"/><g class="overlines-above"/><g class="xaxislayer-above"><g class="xtick"><text text-anchor="middle" x="0" y="433" transform="translate(173.8,0)" style="font-family: 'Open Sans', verdana, arial, sans-serif; font-size: 12px; fill: rgb(42, 63, 95); fill-opacity: 1; white-space: pre; opacity: 1;">Sep 2022</text></g><g class="xtick"><text text-anchor="middle" x="0" y="433" style="font-family: 'Open Sans', verdana, arial, sans-serif; font-size: 12px; fill: rgb(42, 63, 95); fill-opacity: 1; white-space: pre; opacity: 1;" transform="translate(293,0)">Nov 2022</text></g><g class="xtick"><text text-anchor="middle" x="0" y="433" style="font-family: 'Open Sans', verdana, arial, sans-serif; font-size: 12px; fill: rgb(42, 63, 95); fill-opacity: 1; white-space: pre; opacity: 1;" transform="translate(412.21,0)">Jan 2023</text></g><g class="xtick"><text text-anchor="middle" x="0" y="433" style="font-family: 'Open Sans', verdana, arial, sans-serif; font-size: 12px; fill: rgb(42, 63, 95); fill-opacity: 1; white-space: pre; opacity: 1;" transform="translate(527.5,0)">Mar 2023</text></g></g><g class="yaxislayer-above"><g class="ytick"><text text-anchor="end" x="79" y="4.199999999999999" transform="translate(0,379.39)" style="font-family: 'Open Sans', verdana, arial, sans-serif; font-size: 12px; fill: rgb(42, 63, 95); fill-opacity: 1; white-space: pre; opacity: 1;">$0</text></g><g class="ytick"><text text-anchor="end" x="79" y="4.199999999999999" style="font-family: 'Open Sans', verdana, arial, sans-serif; font-size: 12px; fill: rgb(42, 63, 95); fill-opacity: 1; white-space: pre; opacity: 1;" transform="translate(0,331.33000000000004)">$2M</text></g><g class="ytick"><text text-anchor="end" x="79" y="4.199999999999999" style="font-family: 'Open Sans', verdana, arial, sans-serif; font-size: 12px; fill: rgb(42, 63, 95); fill-opacity: 1; white-space: pre; opacity: 1;" transform="translate(0,283.28)">$4M</text></g><g class="ytick"><text text-anchor="end" x="79" y="4.199999999999999" style="font-family: 'Open Sans', verdana, arial, sans-serif; font-size: 12px; fill: rgb(42, 63, 95); fill-opacity: 1; white-space: pre; opacity: 1;" transform="translate(0,235.22)">$6M</text></g><g class="ytick"><text text-anchor="end" x="79" y="4.199999999999999" style="font-family: 'Open Sans', verdana, arial, sans-serif; font-size: 12px; fill: rgb(42, 63, 95); fill-opacity: 1; white-space: pre; opacity: 1;" transform="translate(0,187.17000000000002)">$8M</text></g><g class="ytick"><text text-anchor="end" x="79" y="4.199999999999999" style="font-family: 'Open Sans', verdana, arial, sans-serif; font-size: 12px; fill: rgb(42, 63, 95); fill-opacity: 1; white-space: pre; opacity: 1;" transform="translate(0,139.11)">$10M</text></g></g><g class="overaxes-above"/></g></g><g class="polarlayer"/><g class="smithlayer"/><g class="ternarylayer"/><g class="geolayer"/><g class="funnelarealayer"/><g class="pielayer"/><g class="iciclelayer"/><g class="treemaplayer"/><g class="sunburstlayer"/><g class="glimages"/><defs id="topdefs-0e33ed"><g class="clips"/><clipPath id="legend0e33ed"><rect width="130" height="67" x="0" y="0"/></clipPath></defs><g class="layer-above"><g class="imagelayer"/><g class="shapelayer"/></g><g class="infolayer"><g class="legend" pointer-events="all" transform="translate(558.38,100)"><rect class="bg" shape-rendering="crispEdges" width="130" height="67" x="0" y="0" style="stroke: rgb(68, 68, 68); stroke-opacity: 1; fill: rgb(255, 255, 255); fill-opacity: 1; stroke-width: 0px;"/><g class="scrollbox" transform="" clip-path="url(#legend0e33ed)"><text class="legendtitletext" text-anchor="start" x="2" y="18.2" style="font-family: 'Open Sans', verdana, arial, sans-serif; font-size: 14px; fill: rgb(42, 63, 95); fill-opacity: 1; white-space: pre;">Period</text><g class="groups"><g class="traces" transform="translate(0,32.7)" style="opacity: 1;"><text class="legendtext" text-anchor="start" x="40" y="4.680000000000001" style="font-family: 'Open Sans', verdana, arial, sans-serif; font-size: 12px; fill: rgb(42, 63, 95); fill-opacity: 1; white-space: pre;">During Program</text><g class="layers"><g class="legendfill"><path class="js-fill" d="M5,-2h30v6h-30z" style="stroke-width: 0; fill: rgb(99, 110, 250); fill-opacity: 0.5;"/></g><g class="legendlines"><path class="js-line" d="M5,-2h30" style="fill: none; stroke: rgb(99, 110, 250); stroke-opacity: 1; stroke-width: 2px;"/></g><g class="legendsymbols"><g class="legendpoints"/></g></g><rect class="legendtoggle" x="0" y="-9.5" width="124.703125" height="19" style="fill: rgb(0, 0, 0); fill-opacity: 0;"/></g><g class="traces" transform="translate(0,51.7)" style="opacity: 1;"><text class="legendtext" text-anchor="start" x="40" y="4.680000000000001" style="font-family: 'Open Sans', verdana, arial, sans-serif; font-size: 12px; fill: rgb(42, 63, 95); fill-opacity: 1; white-space: pre;">Post-Program</text><g class="layers"><g class="legendfill"><path class="js-fill" d="M5,-2h30v6h-30z" style="stroke-width: 0; fill: rgb(239, 85, 59); fill-opacity: 0.5;"/></g><g class="legendlines"><path class="js-line" d="M5,-2h30" style="fill: none; stroke: rgb(239, 85, 59); stroke-opacity: 1; stroke-width: 2px;"/></g><g class="legendsymbols"><g class="legendpoints"/></g></g><rect class="legendtoggle" x="0" y="-9.5" width="124.703125" height="19" style="fill: rgb(0, 0, 0); fill-opacity: 0;"/></g></g></g><rect class="scrollbar" rx="20" ry="3" width="0" height="0" x="0" y="0" style="fill: rgb(128, 139, 164); fill-opacity: 1;"/></g><g class="g-gtitle"><text class="gtitle" x="35" y="50" text-anchor="start" dy="0em" style="font-family: 'Open Sans', verdana, arial, sans-serif; font-size: 17px; fill: rgb(42, 63, 95); opacity: 1; font-weight: normal; white-space: pre;"><tspan class="line" dy="0em" x="35" y="50">Rubicon</tspan><tspan class="line" dy="1.3em" x="35" y="50">​<tspan style="font-size:70%" dy="-0.6em">Cumulative Net Flows since Program Announcement, Until Program End + 30 Days</tspan><tspan dy="0.42em">​</tspan></tspan></text></g><g class="g-xtitle"><text class="xtitle" x="314.5" y="460.3" text-anchor="middle" style="font-family: 'Open Sans', verdana, arial, sans-serif; font-size: 14px; fill: rgb(42, 63, 95); opacity: 1; font-weight: normal; white-space: pre;">Day</text></g><g class="g-ytitle"><text class="ytitle" transform="rotate(-90,24.668750000000003,260)" x="24.668750000000003" y="260" text-anchor="middle" style="font-family: 'Open Sans', verdana, arial, sans-serif; font-size: 14px; fill: rgb(42, 63, 95); opacity: 1; font-weight: normal; white-space: pre;">Cumulative Net Flows (USD)</text></g></g></svg>