<svg class="main-svg" xmlns="http://www.w3.org/2000/svg" xmlns:xlink="http://www.w3.org/1999/xlink" width="700" height="500" style="" viewBox="0 0 700 500"><rect x="0" y="0" width="700" height="500" style="fill: rgb(255, 255, 255); fill-opacity: 1;"/><defs id="defs-c3e4f0"><g class="clips"><clipPath id="clipc3e4f0xyplot" class="plotclip"><rect width="540" height="320"/></clipPath><clipPath class="axesclip" id="clipc3e4f0x"><rect x="80" y="0" width="540" height="500"/></clipPath><clipPath class="axesclip" id="clipc3e4f0y"><rect x="0" y="100" width="700" height="320"/></clipPath><clipPath class="axesclip" id="clipc3e4f0xy"><rect x="80" y="100" width="540" height="320"/></clipPath></g><g class="gradients"/><g class="patterns"/></defs><g class="bglayer"><rect class="bg" x="80" y="100" width="540" height="320" style="fill: rgb(229, 236, 246); fill-opacity: 1; stroke-width: 0;"/></g><g class="layer-below"><g class="imagelayer"/><g class="shapelayer"/></g><g class="cartesianlayer"><g class="subplot xy"><g class="layer-subplot"><g class="shapelayer"/><g class="imagelayer"/></g><g class="minor-gridlayer"><g class="x"/><g class="y"/></g><g class="gridlayer"><g class="x"><path class="xgrid crisp" transform="translate(95.49,0)" d="M0,100v320" style="stroke: rgb(255, 255, 255); stroke-opacity: 1; stroke-width: 1px;"/><path class="xgrid crisp" transform="translate(230.49,0)" d="M0,100v320" style="stroke: rgb(255, 255, 255); stroke-opacity: 1; stroke-width: 1px;"/><path class="xgrid crisp" transform="translate(365.49,0)" d="M0,100v320" style="stroke: rgb(255, 255, 255); stroke-opacity: 1; stroke-width: 1px;"/><path class="xgrid crisp" transform="translate(496.07,0)" d="M0,100v320" style="stroke: rgb(255, 255, 255); stroke-opacity: 1; stroke-width: 1px;"/></g><g class="y"><path class="ygrid crisp" transform="translate(0,331.81)" d="M80,0h540" style="stroke: rgb(255, 255, 255); stroke-opacity: 1; stroke-width: 1px;"/><path class="ygrid crisp" transform="translate(0,286.53999999999996)" d="M80,0h540" style="stroke: rgb(255, 255, 255); stroke-opacity: 1; stroke-width: 1px;"/><path class="ygrid crisp" transform="translate(0,241.27)" d="M80,0h540" style="stroke: rgb(255, 255, 255); stroke-opacity: 1; stroke-width: 1px;"/><path class="ygrid crisp" transform="translate(0,196)" d="M80,0h540" style="stroke: rgb(255, 255, 255); stroke-opacity: 1; stroke-width: 1px;"/><path class="ygrid crisp" transform="translate(0,150.73)" d="M80,0h540" style="stroke: rgb(255, 255, 255); stroke-opacity: 1; stroke-width: 1px;"/><path class="ygrid crisp" transform="translate(0,105.46)" d="M80,0h540" style="stroke: rgb(255, 255, 255); stroke-opacity: 1; stroke-width: 1px;"/></g></g><g class="zerolinelayer"><path class="yzl zl crisp" transform="translate(0,377.08)" d="M80,0h540" style="stroke: rgb(255, 255, 255); stroke-opacity: 1; stroke-width: 2px;"/></g><path class="xlines-below"/><path class="ylines-below"/><g class="overlines-below"/><g class="xaxislayer-below"/><g class="yaxislayer-below"/><g class="overaxes-below"/><g class="plot" transform="translate(80,100)" clip-path="url(#clipc3e4f0xyplot)"><g class="scatterlayer mlayer"><g class="trace scatter tracecbdca3" style="stroke-miterlimit: 2;"><g class="fills"><g><path class="js-fill" d="M540,277.08L0,277.08L0,276.14L2.21,235.79L4.43,228.82L6.64,225.8L8.85,225.73L11.07,219.51L13.28,216.97L15.49,215.58L17.7,217.28L19.92,211.49L22.13,209.22L24.34,205.96L26.56,214.7L28.77,212.28L30.98,214.68L33.2,205.24L35.41,200.95L37.62,198.35L39.84,197.54L44.26,203.69L46.48,204.97L50.9,185.13L53.11,183.82L55.33,181.53L57.54,186.74L59.75,186.58L61.97,183.96L66.39,183.9L68.61,184.7L70.82,183.12L73.03,182.52L75.25,154.99L77.46,156.94L79.67,162.72L81.89,161.52L84.1,161.43L86.31,162.71L90.74,164.87L92.95,171.81L95.16,168.3L97.38,176.4L99.59,176.38L101.8,177.52L104.02,180.95L106.23,178.32L110.66,177.64L112.87,175.38L117.3,175L119.51,173.32L121.72,174.72L123.93,174.5L135,174.79L137.21,173.23L139.43,173.97L141.64,185.66L143.85,183.52L146.07,171.94L159.34,172.42L161.56,173.3L163.77,171.52L165.98,171.36L168.2,203.55L170.41,207.57L172.62,195.42L174.84,189.71L177.05,195.6L179.26,186.01L183.69,183.86L185.9,185.65L188.11,189.73L190.33,188.76L192.54,187.83L194.75,189.5L196.97,189.99L199.18,189.65L201.39,184L203.61,184.42L205.82,183.43L208.03,183.3L216.89,183.09L219.1,180.69L221.31,180.77L223.52,176.93L225.74,176.44L227.95,171.39L230.16,158.91L232.38,153.36L234.59,153.8L236.8,152.04L239.02,151.93L241.23,150.54L243.44,146.98L245.66,146.28L250.08,139.01L252.3,142.61L256.72,142.66L258.93,145.71L261.15,158.54L263.36,158.94L265.57,159.38L267.79,158.57L274.43,158.62L276.64,163.96L278.85,163.85L281.07,160.67L283.28,147.66L285.49,144.97L287.7,149.21L289.92,149.14L292.13,154.37L294.34,154.9L296.56,152.09L298.77,152.11L300.98,155.45L303.2,153.47L307.62,130.85L309.84,129.38L312.05,134.47L314.26,130.65L316.48,129.41L318.69,131.32L323.11,130.48L325.33,133.57L327.54,129.16L329.75,119.36L331.97,116.3L334.18,115.49L336.39,113.62L338.61,91.04L340.82,44.28L343.03,40.63L345.25,43.09L347.46,33.15L349.67,32.34L351.89,18.09L354.1,17.68L356.31,16L358.52,20.49L360.74,31.13L362.95,35.5L365.16,35.48L367.38,44.15L369.59,59.94L371.8,62.23L374.02,62.61L376.23,62.35L378.44,41.4L380.66,43.53L382.87,41.21L385.08,41.49L387.3,39.23L389.51,44.46L391.72,54.08L396.15,55.3L398.36,69.48L402.79,70.96L405,70.09L407.21,67.93L409.43,63.51L411.64,62.44L413.85,62.34L418.28,61.83L420.49,63.24L424.92,62.9L427.13,59.63L429.34,60.97L431.56,58.8L433.77,54.46L435.98,54.91L438.2,53.03L440.41,66.79L442.62,63.97L444.84,62.57L447.05,54.1L449.26,51.95L451.48,54.79L453.69,59.56L458.11,64.65L460.33,64.86L462.54,63.39L464.75,63.9L466.97,64.35L469.18,65.57L471.39,81.89L473.61,92.67L478.03,186.05L480.25,210.95L482.46,213.34L484.67,220.95L489.1,227.99L491.31,230.96L493.52,238.51L495.74,240.09L500.16,242.45L502.38,242.94L504.59,243.68L506.8,246.8L509.02,248.22L511.23,248.45L513.44,297.44L515.66,297.84L517.87,298.37L520.08,299.94L528.93,301.92L531.15,299.69L537.79,300.36L540,304" style="fill: rgb(99, 110, 250); fill-opacity: 0.5; stroke-width: 0;"/></g></g><g class="errorbars"/><g class="lines"><path class="js-line" d="M0,276.14L2.21,235.79L4.43,228.82L6.64,225.8L8.85,225.73L11.07,219.51L13.28,216.97L15.49,215.58L17.7,217.28L19.92,211.49L22.13,209.22L24.34,205.96L26.56,214.7L28.77,212.28L30.98,214.68L33.2,205.24L35.41,200.95L37.62,198.35L39.84,197.54L44.26,203.69L46.48,204.97L50.9,185.13L53.11,183.82L55.33,181.53L57.54,186.74L59.75,186.58L61.97,183.96L66.39,183.9L68.61,184.7L70.82,183.12L73.03,182.52L75.25,154.99L77.46,156.94L79.67,162.72L81.89,161.52L84.1,161.43L86.31,162.71L90.74,164.87L92.95,171.81L95.16,168.3L97.38,176.4L99.59,176.38L101.8,177.52L104.02,180.95L106.23,178.32L110.66,177.64L112.87,175.38L117.3,175L119.51,173.32L121.72,174.72L123.93,174.5L135,174.79L137.21,173.23L139.43,173.97L141.64,185.66L143.85,183.52L146.07,171.94L159.34,172.42L161.56,173.3L163.77,171.52L165.98,171.36L168.2,203.55L170.41,207.57L172.62,195.42L174.84,189.71L177.05,195.6L179.26,186.01L183.69,183.86L185.9,185.65L188.11,189.73L190.33,188.76L192.54,187.83L194.75,189.5L196.97,189.99L199.18,189.65L201.39,184L203.61,184.42L205.82,183.43L208.03,183.3L216.89,183.09L219.1,180.69L221.31,180.77L223.52,176.93L225.74,176.44L227.95,171.39L230.16,158.91L232.38,153.36L234.59,153.8L236.8,152.04L239.02,151.93L241.23,150.54L243.44,146.98L245.66,146.28L250.08,139.01L252.3,142.61L256.72,142.66L258.93,145.71L261.15,158.54L263.36,158.94L265.57,159.38L267.79,158.57L274.43,158.62L276.64,163.96L278.85,163.85L281.07,160.67L283.28,147.66L285.49,144.97L287.7,149.21L289.92,149.14L292.13,154.37L294.34,154.9L296.56,152.09L298.77,152.11L300.98,155.45L303.2,153.47L307.62,130.85L309.84,129.38L312.05,134.47L314.26,130.65L316.48,129.41L318.69,131.32L323.11,130.48L325.33,133.57L327.54,129.16L329.75,119.36L331.97,116.3L334.18,115.49L336.39,113.62L338.61,91.04L340.82,44.28L343.03,40.63L345.25,43.09L347.46,33.15L349.67,32.34L351.89,18.09L354.1,17.68L356.31,16L358.52,20.49L360.74,31.13L362.95,35.5L365.16,35.48L367.38,44.15L369.59,59.94L371.8,62.23L374.02,62.61L376.23,62.35L378.44,41.4L380.66,43.53L382.87,41.21L385.08,41.49L387.3,39.23L389.51,44.46L391.72,54.08L396.15,55.3L398.36,69.48L402.79,70.96L405,70.09L407.21,67.93L409.43,63.51L411.64,62.44L413.85,62.34L418.28,61.83L420.49,63.24L424.92,62.9L427.13,59.63L429.34,60.97L431.56,58.8L433.77,54.46L435.98,54.91L438.2,53.03L440.41,66.79L442.62,63.97L444.84,62.57L447.05,54.1L449.26,51.95L451.48,54.79L453.69,59.56L458.11,64.65L460.33,64.86L462.54,63.39L464.75,63.9L466.97,64.35L469.18,65.57L471.39,81.89L473.61,92.67L478.03,186.05L480.25,210.95L482.46,213.34L484.67,220.95L489.1,227.99L491.31,230.96L493.52,238.51L495.74,240.09L500.16,242.45L502.38,242.94L504.59,243.68L506.8,246.8L509.02,248.22L511.23,248.45L513.44,297.44L515.66,297.84L517.87,298.37L520.08,299.94L528.93,301.92L531.15,299.69L537.79,300.36L540,304" style="vector-effect: none; fill: none; stroke: rgb(99, 110, 250); stroke-opacity: 1; stroke-width: 2px; opacity: 1;"/></g><g class="points"/><g class="text"/></g></g></g><g class="overplot"/><path class="xlines-above crisp" d="M0,0" style="fill: none;"/><path class="ylines-above crisp" d="M0,0" style="fill: none;"/><g class="overlines-above"/><g class="xaxislayer-above"><g class="xtick"><text text-anchor="middle" x="0" y="433" transform="translate(95.49,0)" style="font-family: 'Open Sans', verdana, arial, sans-serif; font-size: 12px; fill: rgb(42, 63, 95); fill-opacity: 1; white-space: pre; opacity: 1;">Sep 2022</text></g><g class="xtick"><text text-anchor="middle" x="0" y="433" style="font-family: 'Open Sans', verdana, arial, sans-serif; font-size: 12px; fill: rgb(42, 63, 95); fill-opacity: 1; white-space: pre; opacity: 1;" transform="translate(230.49,0)">Nov 2022</text></g><g class="xtick"><text text-anchor="middle" x="0" y="433" style="font-family: 'Open Sans', verdana, arial, sans-serif; font-size: 12px; fill: rgb(42, 63, 95); fill-opacity: 1; white-space: pre; opacity: 1;" transform="translate(365.49,0)">Jan 2023</text></g><g class="xtick"><text text-anchor="middle" x="0" y="433" style="font-family: 'Open Sans', verdana, arial, sans-serif; font-size: 12px; fill: rgb(42, 63, 95); fill-opacity: 1; white-space: pre; opacity: 1;" transform="translate(496.07,0)">Mar 2023</text></g></g><g class="yaxislayer-above"><g class="ytick"><text text-anchor="end" x="79" y="4.199999999999999" transform="translate(0,377.08)" style="font-family: 'Open Sans', verdana, arial, sans-serif; font-size: 12px; fill: rgb(42, 63, 95); fill-opacity: 1; white-space: pre; opacity: 1;">$0</text></g><g class="ytick"><text text-anchor="end" x="79" y="4.199999999999999" style="font-family: 'Open Sans', verdana, arial, sans-serif; font-size: 12px; fill: rgb(42, 63, 95); fill-opacity: 1; white-space: pre; opacity: 1;" transform="translate(0,331.81)">$5M</text></g><g class="ytick"><text text-anchor="end" x="79" y="4.199999999999999" style="font-family: 'Open Sans', verdana, arial, sans-serif; font-size: 12px; fill: rgb(42, 63, 95); fill-opacity: 1; white-space: pre; opacity: 1;" transform="translate(0,286.53999999999996)">$10M</text></g><g class="ytick"><text text-anchor="end" x="79" y="4.199999999999999" style="font-family: 'Open Sans', verdana, arial, sans-serif; font-size: 12px; fill: rgb(42, 63, 95); fill-opacity: 1; white-space: pre; opacity: 1;" transform="translate(0,241.27)">$15M</text></g><g class="ytick"><text text-anchor="end" x="79" y="4.199999999999999" style="font-family: 'Open Sans', verdana, arial, sans-serif; font-size: 12px; fill: rgb(42, 63, 95); fill-opacity: 1; white-space: pre; opacity: 1;" transform="translate(0,196)">$20M</text></g><g class="ytick"><text text-anchor="end" x="79" y="4.199999999999999" style="font-family: 'Open Sans', verdana, arial, sans-serif; font-size: 12px; fill: rgb(42, 63, 95); fill-opacity: 1; white-space: pre; opacity: 1;" transform="translate(0,150.73)">$25M</text></g><g class="ytick"><text text-anchor="end" x="79" y="4.199999999999999" style="font-family: 'Open Sans', verdana, arial, sans-serif; font-size: 12px; fill: rgb(42, 63, 95); fill-opacity: 1; white-space: pre; opacity: 1;" transform="translate(0,105.46)">$30M</text></g></g><g class="overaxes-above"/></g></g><g class="polarlayer"/><g class="smithlayer"/><g class="ternarylayer"/><g class="geolayer"/><g class="funnelarealayer"/><g class="pielayer"/><g class="iciclelayer"/><g class="treemaplayer"/><g class="sunburstlayer"/><g class="glimages"/><defs id="topdefs-c3e4f0"><g class="clips"/></defs><g class="layer-above"><g class="imagelayer"/><g class="shapelayer"/></g><g class="infolayer"><g class="g-gtitle"><text class="gtitle" x="35" y="50" text-anchor="start" dy="0em" style="font-family: 'Open Sans', verdana, arial, sans-serif; font-size: 17px; fill: rgb(42, 63, 95); opacity: 1; font-weight: normal; white-space: pre;"><tspan class="line" dy="0em" x="35" y="50">Synthetix - sETH-ETH: Curve</tspan><tspan class="line" dy="1.3em" x="35" y="50">​<tspan style="font-size:70%" dy="-0.6em">Cumulative Net Flows since Program Announcement, Until Program End + 30 Days</tspan><tspan dy="0.42em">​</tspan></tspan></text></g><g class="g-xtitle"><text class="xtitle" x="350" y="460.3" text-anchor="middle" style="font-family: 'Open Sans', verdana, arial, sans-serif; font-size: 14px; fill: rgb(42, 63, 95); opacity: 1; font-weight: normal; white-space: pre;">Day</text></g><g class="g-ytitle"><text class="ytitle" transform="rotate(-90,24.668750000000003,260)" x="24.668750000000003" y="260" text-anchor="middle" style="font-family: 'Open Sans', verdana, arial, sans-serif; font-size: 14px; fill: rgb(42, 63, 95); opacity: 1; font-weight: normal; white-space: pre;">Cumulative Net Flows (USD)</text></g></g></svg>