<svg class="main-svg" xmlns="http://www.w3.org/2000/svg" xmlns:xlink="http://www.w3.org/1999/xlink" width="700" height="500" style="" viewBox="0 0 700 500"><rect x="0" y="0" width="700" height="500" style="fill: rgb(255, 255, 255); fill-opacity: 1;"/><defs id="defs-683a57"><g class="clips"><clipPath id="clip683a57xyplot" class="plotclip"><rect width="540" height="320"/></clipPath><clipPath class="axesclip" id="clip683a57x"><rect x="80" y="0" width="540" height="500"/></clipPath><clipPath class="axesclip" id="clip683a57y"><rect x="0" y="100" width="700" height="320"/></clipPath><clipPath class="axesclip" id="clip683a57xy"><rect x="80" y="100" width="540" height="320"/></clipPath></g><g class="gradients"/><g class="patterns"/></defs><g class="bglayer"><rect class="bg" x="80" y="100" width="540" height="320" style="fill: rgb(229, 236, 246); fill-opacity: 1; stroke-width: 0;"/></g><g class="layer-below"><g class="imagelayer"/><g class="shapelayer"/></g><g class="cartesianlayer"><g class="subplot xy"><g class="layer-subplot"><g class="shapelayer"/><g class="imagelayer"/></g><g class="minor-gridlayer"><g class="x"/><g class="y"/></g><g class="gridlayer"><g class="x"><path class="xgrid crisp" transform="translate(142.61,0)" d="M0,100v320" style="stroke: rgb(255, 255, 255); stroke-opacity: 1; stroke-width: 1px;"/><path class="xgrid crisp" transform="translate(222.17,0)" d="M0,100v320" style="stroke: rgb(255, 255, 255); stroke-opacity: 1; stroke-width: 1px;"/><path class="xgrid crisp" transform="translate(301.74,0)" d="M0,100v320" style="stroke: rgb(255, 255, 255); stroke-opacity: 1; stroke-width: 1px;"/><path class="xgrid crisp" transform="translate(378.7,0)" d="M0,100v320" style="stroke: rgb(255, 255, 255); stroke-opacity: 1; stroke-width: 1px;"/><path class="xgrid crisp" transform="translate(458.26,0)" d="M0,100v320" style="stroke: rgb(255, 255, 255); stroke-opacity: 1; stroke-width: 1px;"/><path class="xgrid crisp" transform="translate(537.8299999999999,0)" d="M0,100v320" style="stroke: rgb(255, 255, 255); stroke-opacity: 1; stroke-width: 1px;"/><path class="xgrid crisp" transform="translate(618.7,0)" d="M0,100v320" style="stroke: rgb(255, 255, 255); stroke-opacity: 1; stroke-width: 1px;"/></g><g class="y"><path class="ygrid crisp" transform="translate(0,413.54)" d="M80,0h540" style="stroke: rgb(255, 255, 255); stroke-opacity: 1; stroke-width: 1px;"/><path class="ygrid crisp" transform="translate(0,340.26)" d="M80,0h540" style="stroke: rgb(255, 255, 255); stroke-opacity: 1; stroke-width: 1px;"/><path class="ygrid crisp" transform="translate(0,303.62)" d="M80,0h540" style="stroke: rgb(255, 255, 255); stroke-opacity: 1; stroke-width: 1px;"/><path class="ygrid crisp" transform="translate(0,266.98)" d="M80,0h540" style="stroke: rgb(255, 255, 255); stroke-opacity: 1; stroke-width: 1px;"/><path class="ygrid crisp" transform="translate(0,230.33)" d="M80,0h540" style="stroke: rgb(255, 255, 255); stroke-opacity: 1; stroke-width: 1px;"/><path class="ygrid crisp" transform="translate(0,193.69)" d="M80,0h540" style="stroke: rgb(255, 255, 255); stroke-opacity: 1; stroke-width: 1px;"/><path class="ygrid crisp" transform="translate(0,157.05)" d="M80,0h540" style="stroke: rgb(255, 255, 255); stroke-opacity: 1; stroke-width: 1px;"/><path class="ygrid crisp" transform="translate(0,120.41)" d="M80,0h540" style="stroke: rgb(255, 255, 255); stroke-opacity: 1; stroke-width: 1px;"/></g></g><g class="zerolinelayer"><path class="yzl zl crisp" transform="translate(0,376.9)" d="M80,0h540" style="stroke: rgb(255, 255, 255); stroke-opacity: 1; stroke-width: 2px;"/></g><path class="xlines-below"/><path class="ylines-below"/><g class="overlines-below"/><g class="xaxislayer-below"/><g class="yaxislayer-below"/><g class="overaxes-below"/><g class="plot" transform="translate(80,100)" clip-path="url(#clip683a57xyplot)"><g class="scatterlayer mlayer"><g class="trace scatter trace9f2bc5" style="stroke-miterlimit: 2;"><g class="fills"><g><path class="js-fill" d="M540,276.9L0,276.9L0,275.13L1.3,268.8L2.61,266.67L5.22,268.5L6.52,268.74L9.13,270.09L10.43,260.89L11.74,258.23L13.04,258.32L14.35,259L15.65,266.18L16.96,267.5L18.26,266.82L19.57,262.54L20.87,263.39L24.78,261.72L26.09,262.37L27.39,266.94L28.7,263.74L31.3,270.9L32.61,271.91L33.91,271.37L35.22,265.93L37.83,257.22L39.13,257.06L40.43,259.21L41.74,264.68L43.04,265.16L44.35,267.16L45.65,265.79L46.96,259.07L48.26,259.28L49.57,264.86L50.87,263.47L52.17,263.85L53.48,264.16L54.78,268.51L57.39,263.3L58.7,270.7L61.3,267.66L62.61,269.09L63.91,268.46L65.22,265.38L67.83,270.11L69.13,270.72L71.74,275.57L73.04,275.88L74.35,272.07L75.65,272.43L76.96,262.58L78.26,268.82L79.57,269.07L80.87,270.11L83.48,272.05L84.78,255.15L86.09,268.78L87.39,266.52L88.7,267.64L90,270.31L91.3,271.01L92.61,266.4L95.22,267.17L96.52,270.3L97.83,263.94L99.13,263.87L101.74,263.79L103.04,260.22L104.35,270.13L105.65,269.79L106.96,268.32L108.26,273.54L109.57,274.05L110.87,273.7L112.17,275.68L113.48,280.48L114.78,284.44L116.09,281.99L118.7,279.43L120,276L121.3,275.52L122.61,279.13L126.52,270.3L127.83,272.84L130.43,274.33L131.74,276.74L134.35,279L135.65,275.08L136.96,274.17L138.26,270.38L139.57,267.26L140.87,276.21L142.17,274.49L143.48,275.68L144.78,271.33L146.09,273.41L147.39,265.86L148.7,268.21L150,275.13L151.3,262.94L152.61,266.38L153.91,262.91L155.22,261.27L156.52,254.04L157.83,254.22L159.13,262.84L163.04,259.29L164.35,260.4L165.65,254.96L166.96,255.29L168.26,255.88L169.57,253.86L170.87,246.67L172.17,246.61L173.48,263L174.78,255.83L176.09,259.32L177.39,256.64L178.7,261.09L180,271.24L181.3,255.33L182.61,257.14L183.91,245.92L185.22,247.21L187.83,254.06L189.13,249.45L193.04,241.36L194.35,242.49L195.65,259.61L196.96,263.97L200.87,271.76L202.17,265.83L203.48,266.14L204.78,270.1L206.09,266.43L207.39,268.09L208.7,265.49L210,266.82L211.3,264.74L212.61,269.78L213.91,266.35L215.22,269.14L216.52,269.7L217.83,268.84L219.13,263.22L220.43,268.26L221.74,268.42L223.04,275.65L224.35,272.24L225.65,273.53L228.26,267.38L229.57,260.08L230.87,259.62L232.17,261.22L233.48,256.13L234.78,255.32L236.09,257.73L237.39,261.98L238.7,258.38L240,259.78L242.61,264.79L243.91,263.58L246.52,263.56L247.83,256.34L250.43,264.88L251.74,254.44L253.04,252.88L254.35,261.72L256.96,273.23L258.26,268.47L259.57,275.71L260.87,265.32L262.17,281.94L263.48,283.85L266.09,279.03L267.39,282.99L268.7,283.21L270,282.6L271.3,281.43L272.61,277.89L273.91,277.26L275.22,274.6L276.52,270.55L277.83,247.66L279.13,274.74L280.43,275.69L281.74,274.71L283.04,275.85L284.35,275.15L285.65,276.95L286.96,280.5L288.26,281.23L290.87,277.3L292.17,277.13L293.48,272.37L294.78,276.98L296.09,292.1L297.39,270.07L298.7,270.77L300,273.62L301.3,273.9L302.61,268.67L303.91,269.2L305.22,278.08L306.52,277.08L307.83,295.71L310.43,297.49L311.74,294.33L313.04,298.91L314.35,298.87L318.26,291.65L319.57,294.91L320.87,296.04L322.17,298.49L323.48,297.16L324.78,300.96L326.09,298.46L327.39,292.56L328.7,291.9L330,300.07L331.3,300.96L332.61,302.81L333.91,300.36L335.22,301.95L336.52,298.08L337.83,301.75L339.13,295.59L340.43,301.97L341.74,302.71L343.04,302.42L344.35,301.89L345.65,295.69L346.96,295.35L348.26,292.65L349.57,301.35L350.87,304L352.17,302.91L353.48,299.94L354.78,298.13L356.09,300.18L357.39,296.09L358.7,300.6L360,301.65L361.3,297.07L362.61,297.67L363.91,295.54L365.22,294.05L366.52,286.95L369.13,297.68L370.43,288.62L371.74,288.67L373.04,291.25L374.35,301.43L375.65,300.4L378.26,303.72L379.57,301.4L380.87,301.75L382.17,300.96L383.48,302.42L384.78,301.8L386.09,301.2L387.39,111.52L388.7,106.95L390,120.23L393.91,116.41L395.22,116.77L396.52,122.05L397.83,120.28L399.13,107.4L400.43,110.24L401.74,107.88L403.04,97.69L405.65,90.69L406.96,95.73L408.26,88.99L409.57,89.21L410.87,87.28L412.17,78.58L413.48,68.74L414.78,65.42L416.09,57.79L417.39,58.58L418.7,57.21L420,50.6L422.61,41.44L423.91,27.36L426.52,25.18L427.83,20.02L429.13,23.8L430.43,16L433.04,24.85L434.35,18.03L435.65,26.88L436.96,30.14L438.26,27.53L439.57,27.63L442.17,27.93L443.48,30.64L444.78,55.32L446.09,50.75L447.39,54.82L448.7,47.07L450,52.89L451.3,62.24L453.91,55.02L455.22,66.74L456.52,72.97L457.83,71.85L459.13,71.35L460.43,74.65L461.74,84.34L463.04,85.71L464.35,86.93L465.65,85.47L468.26,79.25L469.57,84.26L472.17,85.67L473.48,87.13L476.09,86.95L477.39,86.53L478.7,92.54L480,89.67L481.3,83.9L482.61,86.44L483.91,83.34L485.22,75.71L486.52,78.34L487.83,78.26L489.13,65.47L490.43,61.46L493.04,49.16L494.35,55.39L495.65,58.43L496.96,65.19L498.26,61.73L499.57,62.69L500.87,62.87L502.17,64.52L504.78,68.67L506.09,70.37L507.39,72.05L508.7,71.07L510,70.78L511.3,74.75L512.61,74.26L513.91,75.67L515.22,77.58L516.52,76.6L517.83,72.34L519.13,75.83L520.43,81.9L521.74,79.89L524.35,83L525.65,81.39L526.96,81.73L528.26,86L529.57,82.27L530.87,82.3L532.17,78.91L533.48,81.54L534.78,81.56L536.09,77.66L538.7,78.46L540,86.43" style="fill: rgb(99, 110, 250); fill-opacity: 0.5; stroke-width: 0;"/></g></g><g class="errorbars"/><g class="lines"><path class="js-line" d="M0,275.13L1.3,268.8L2.61,266.67L5.22,268.5L6.52,268.74L9.13,270.09L10.43,260.89L11.74,258.23L13.04,258.32L14.35,259L15.65,266.18L16.96,267.5L18.26,266.82L19.57,262.54L20.87,263.39L24.78,261.72L26.09,262.37L27.39,266.94L28.7,263.74L31.3,270.9L32.61,271.91L33.91,271.37L35.22,265.93L37.83,257.22L39.13,257.06L40.43,259.21L41.74,264.68L43.04,265.16L44.35,267.16L45.65,265.79L46.96,259.07L48.26,259.28L49.57,264.86L50.87,263.47L52.17,263.85L53.48,264.16L54.78,268.51L57.39,263.3L58.7,270.7L61.3,267.66L62.61,269.09L63.91,268.46L65.22,265.38L67.83,270.11L69.13,270.72L71.74,275.57L73.04,275.88L74.35,272.07L75.65,272.43L76.96,262.58L78.26,268.82L79.57,269.07L80.87,270.11L83.48,272.05L84.78,255.15L86.09,268.78L87.39,266.52L88.7,267.64L90,270.31L91.3,271.01L92.61,266.4L95.22,267.17L96.52,270.3L97.83,263.94L99.13,263.87L101.74,263.79L103.04,260.22L104.35,270.13L105.65,269.79L106.96,268.32L108.26,273.54L109.57,274.05L110.87,273.7L112.17,275.68L113.48,280.48L114.78,284.44L116.09,281.99L118.7,279.43L120,276L121.3,275.52L122.61,279.13L126.52,270.3L127.83,272.84L130.43,274.33L131.74,276.74L134.35,279L135.65,275.08L136.96,274.17L138.26,270.38L139.57,267.26L140.87,276.21L142.17,274.49L143.48,275.68L144.78,271.33L146.09,273.41L147.39,265.86L148.7,268.21L150,275.13L151.3,262.94L152.61,266.38L153.91,262.91L155.22,261.27L156.52,254.04L157.83,254.22L159.13,262.84L163.04,259.29L164.35,260.4L165.65,254.96L166.96,255.29L168.26,255.88L169.57,253.86L170.87,246.67L172.17,246.61L173.48,263L174.78,255.83L176.09,259.32L177.39,256.64L178.7,261.09L180,271.24L181.3,255.33L182.61,257.14L183.91,245.92L185.22,247.21L187.83,254.06L189.13,249.45L193.04,241.36L194.35,242.49L195.65,259.61L196.96,263.97L200.87,271.76L202.17,265.83L203.48,266.14L204.78,270.1L206.09,266.43L207.39,268.09L208.7,265.49L210,266.82L211.3,264.74L212.61,269.78L213.91,266.35L215.22,269.14L216.52,269.7L217.83,268.84L219.13,263.22L220.43,268.26L221.74,268.42L223.04,275.65L224.35,272.24L225.65,273.53L228.26,267.38L229.57,260.08L230.87,259.62L232.17,261.22L233.48,256.13L234.78,255.32L236.09,257.73L237.39,261.98L238.7,258.38L240,259.78L242.61,264.79L243.91,263.58L246.52,263.56L247.83,256.34L250.43,264.88L251.74,254.44L253.04,252.88L254.35,261.72L256.96,273.23L258.26,268.47L259.57,275.71L260.87,265.32L262.17,281.94L263.48,283.85L266.09,279.03L267.39,282.99L268.7,283.21L270,282.6L271.3,281.43L272.61,277.89L273.91,277.26L275.22,274.6L276.52,270.55L277.83,247.66L279.13,274.74L280.43,275.69L281.74,274.71L283.04,275.85L284.35,275.15L285.65,276.95L286.96,280.5L288.26,281.23L290.87,277.3L292.17,277.13L293.48,272.37L294.78,276.98L296.09,292.1L297.39,270.07L298.7,270.77L300,273.62L301.3,273.9L302.61,268.67L303.91,269.2L305.22,278.08L306.52,277.08L307.83,295.71L310.43,297.49L311.74,294.33L313.04,298.91L314.35,298.87L318.26,291.65L319.57,294.91L320.87,296.04L322.17,298.49L323.48,297.16L324.78,300.96L326.09,298.46L327.39,292.56L328.7,291.9L330,300.07L331.3,300.96L332.61,302.81L333.91,300.36L335.22,301.95L336.52,298.08L337.83,301.75L339.13,295.59L340.43,301.97L341.74,302.71L343.04,302.42L344.35,301.89L345.65,295.69L346.96,295.35L348.26,292.65L349.57,301.35L350.87,304L352.17,302.91L353.48,299.94L354.78,298.13L356.09,300.18L357.39,296.09L358.7,300.6L360,301.65L361.3,297.07L362.61,297.67L363.91,295.54L365.22,294.05L366.52,286.95L369.13,297.68L370.43,288.62L371.74,288.67L373.04,291.25L374.35,301.43L375.65,300.4L378.26,303.72L379.57,301.4L380.87,301.75L382.17,300.96L383.48,302.42L384.78,301.8L386.09,301.2L387.39,111.52L388.7,106.95L390,120.23L393.91,116.41L395.22,116.77L396.52,122.05L397.83,120.28L399.13,107.4L400.43,110.24L401.74,107.88L403.04,97.69L405.65,90.69L406.96,95.73L408.26,88.99L409.57,89.21L410.87,87.28L412.17,78.58L413.48,68.74L414.78,65.42L416.09,57.79L417.39,58.58L418.7,57.21L420,50.6L422.61,41.44L423.91,27.36L426.52,25.18L427.83,20.02L429.13,23.8L430.43,16L433.04,24.85L434.35,18.03L435.65,26.88L436.96,30.14L438.26,27.53L439.57,27.63L442.17,27.93L443.48,30.64L444.78,55.32L446.09,50.75L447.39,54.82L448.7,47.07L450,52.89L451.3,62.24L453.91,55.02L455.22,66.74L456.52,72.97L457.83,71.85L459.13,71.35L460.43,74.65L461.74,84.34L463.04,85.71L464.35,86.93L465.65,85.47L468.26,79.25L469.57,84.26L472.17,85.67L473.48,87.13L476.09,86.95L477.39,86.53L478.7,92.54L480,89.67L481.3,83.9L482.61,86.44L483.91,83.34L485.22,75.71L486.52,78.34L487.83,78.26L489.13,65.47L490.43,61.46L493.04,49.16L494.35,55.39L495.65,58.43L496.96,65.19L498.26,61.73L499.57,62.69L500.87,62.87L502.17,64.52L504.78,68.67L506.09,70.37L507.39,72.05L508.7,71.07L510,70.78L511.3,74.75L512.61,74.26L513.91,75.67L515.22,77.58L516.52,76.6L517.83,72.34L519.13,75.83L520.43,81.9L521.74,79.89L524.35,83L525.65,81.39L526.96,81.73L528.26,86L529.57,82.27L530.87,82.3L532.17,78.91L533.48,81.54L534.78,81.56L536.09,77.66L538.7,78.46L540,86.43" style="vector-effect: none; fill: none; stroke: rgb(99, 110, 250); stroke-opacity: 1; stroke-width: 2px; opacity: 1;"/></g><g class="points"/><g class="text"/></g></g></g><g class="overplot"/><path class="xlines-above crisp" d="M0,0" style="fill: none;"/><path class="ylines-above crisp" d="M0,0" style="fill: none;"/><g class="overlines-above"/><g class="xaxislayer-above"><g class="xtick"><text text-anchor="middle" x="0" y="433" transform="translate(142.61,0)" style="font-family: 'Open Sans', verdana, arial, sans-serif; font-size: 12px; fill: rgb(42, 63, 95); fill-opacity: 1; white-space: pre; opacity: 1;">Sep 2022</text></g><g class="xtick"><text text-anchor="middle" x="0" y="433" style="font-family: 'Open Sans', verdana, arial, sans-serif; font-size: 12px; fill: rgb(42, 63, 95); fill-opacity: 1; white-space: pre; opacity: 1;" transform="translate(222.17,0)">Nov 2022</text></g><g class="xtick"><text text-anchor="middle" x="0" y="433" style="font-family: 'Open Sans', verdana, arial, sans-serif; font-size: 12px; fill: rgb(42, 63, 95); fill-opacity: 1; white-space: pre; opacity: 1;" transform="translate(301.74,0)">Jan 2023</text></g><g class="xtick"><text text-anchor="middle" x="0" y="433" style="font-family: 'Open Sans', verdana, arial, sans-serif; font-size: 12px; fill: rgb(42, 63, 95); fill-opacity: 1; white-space: pre; opacity: 1;" transform="translate(378.7,0)">Mar 2023</text></g><g class="xtick"><text text-anchor="middle" x="0" y="433" style="font-family: 'Open Sans', verdana, arial, sans-serif; font-size: 12px; fill: rgb(42, 63, 95); fill-opacity: 1; white-space: pre; opacity: 1;" transform="translate(458.26,0)">May 2023</text></g><g class="xtick"><text text-anchor="middle" x="0" y="433" style="font-family: 'Open Sans', verdana, arial, sans-serif; font-size: 12px; fill: rgb(42, 63, 95); fill-opacity: 1; white-space: pre; opacity: 1;" transform="translate(537.8299999999999,0)">Jul 2023</text></g><g class="xtick"><text text-anchor="middle" x="0" y="433" style="font-family: 'Open Sans', verdana, arial, sans-serif; font-size: 12px; fill: rgb(42, 63, 95); fill-opacity: 1; white-space: pre; opacity: 1;" transform="translate(618.7,0)">Sep 2023</text></g></g><g class="yaxislayer-above"><g class="ytick"><text text-anchor="end" x="79" y="4.199999999999999" transform="translate(0,413.54)" style="font-family: 'Open Sans', verdana, arial, sans-serif; font-size: 12px; fill: rgb(42, 63, 95); fill-opacity: 1; white-space: pre; opacity: 1;">$−0.2M</text></g><g class="ytick"><text text-anchor="end" x="79" y="4.199999999999999" style="font-family: 'Open Sans', verdana, arial, sans-serif; font-size: 12px; fill: rgb(42, 63, 95); fill-opacity: 1; white-space: pre; opacity: 1;" transform="translate(0,376.9)">$0</text></g><g class="ytick"><text text-anchor="end" x="79" y="4.199999999999999" style="font-family: 'Open Sans', verdana, arial, sans-serif; font-size: 12px; fill: rgb(42, 63, 95); fill-opacity: 1; white-space: pre; opacity: 1;" transform="translate(0,340.26)">$0.2M</text></g><g class="ytick"><text text-anchor="end" x="79" y="4.199999999999999" style="font-family: 'Open Sans', verdana, arial, sans-serif; font-size: 12px; fill: rgb(42, 63, 95); fill-opacity: 1; white-space: pre; opacity: 1;" transform="translate(0,303.62)">$0.4M</text></g><g class="ytick"><text text-anchor="end" x="79" y="4.199999999999999" style="font-family: 'Open Sans', verdana, arial, sans-serif; font-size: 12px; fill: rgb(42, 63, 95); fill-opacity: 1; white-space: pre; opacity: 1;" transform="translate(0,266.98)">$0.6M</text></g><g class="ytick"><text text-anchor="end" x="79" y="4.199999999999999" style="font-family: 'Open Sans', verdana, arial, sans-serif; font-size: 12px; fill: rgb(42, 63, 95); fill-opacity: 1; white-space: pre; opacity: 1;" transform="translate(0,230.33)">$0.8M</text></g><g class="ytick"><text text-anchor="end" x="79" y="4.199999999999999" style="font-family: 'Open Sans', verdana, arial, sans-serif; font-size: 12px; fill: rgb(42, 63, 95); fill-opacity: 1; white-space: pre; opacity: 1;" transform="translate(0,193.69)">$1M</text></g><g class="ytick"><text text-anchor="end" x="79" y="4.199999999999999" style="font-family: 'Open Sans', verdana, arial, sans-serif; font-size: 12px; fill: rgb(42, 63, 95); fill-opacity: 1; white-space: pre; opacity: 1;" transform="translate(0,157.05)">$1.2M</text></g><g class="ytick"><text text-anchor="end" x="79" y="4.199999999999999" style="font-family: 'Open Sans', verdana, arial, sans-serif; font-size: 12px; fill: rgb(42, 63, 95); fill-opacity: 1; white-space: pre; opacity: 1;" transform="translate(0,120.41)">$1.4M</text></g></g><g class="overaxes-above"/></g></g><g class="polarlayer"/><g class="smithlayer"/><g class="ternarylayer"/><g class="geolayer"/><g class="funnelarealayer"/><g class="pielayer"/><g class="iciclelayer"/><g class="treemaplayer"/><g class="sunburstlayer"/><g class="glimages"/><defs id="topdefs-683a57"><g class="clips"/></defs><g class="layer-above"><g class="imagelayer"/><g class="shapelayer"/></g><g class="infolayer"><g class="g-gtitle"><text class="gtitle" x="35" y="50" text-anchor="start" dy="0em" style="font-family: 'Open Sans', verdana, arial, sans-serif; font-size: 17px; fill: rgb(42, 63, 95); opacity: 1; font-weight: normal; white-space: pre;"><tspan class="line" dy="0em" x="35" y="50">Thales</tspan><tspan class="line" dy="1.3em" x="35" y="50">​<tspan style="font-size:70%" dy="-0.6em">Cumulative Net Flows since Program Announcement, Until Program End + 30 Days</tspan><tspan dy="0.42em">​</tspan></tspan></text></g><g class="g-xtitle"><text class="xtitle" x="350" y="460.3" text-anchor="middle" style="font-family: 'Open Sans', verdana, arial, sans-serif; font-size: 14px; fill: rgb(42, 63, 95); opacity: 1; font-weight: normal; white-space: pre;">Day</text></g><g class="g-ytitle"><text class="ytitle" transform="rotate(-90,14.340625000000003,260)" x="14.340625000000003" y="260" text-anchor="middle" style="font-family: 'Open Sans', verdana, arial, sans-serif; font-size: 14px; fill: rgb(42, 63, 95); opacity: 1; font-weight: normal; white-space: pre;">Cumulative Net Flows (USD)</text></g></g></svg>