<svg class="main-svg" xmlns="http://www.w3.org/2000/svg" xmlns:xlink="http://www.w3.org/1999/xlink" width="700" height="500" style="" viewBox="0 0 700 500"><rect x="0" y="0" width="700" height="500" style="fill: rgb(255, 255, 255); fill-opacity: 1;"/><defs id="defs-93dc48"><g class="clips"><clipPath id="clip93dc48xyplot" class="plotclip"><rect width="540" height="320"/></clipPath><clipPath class="axesclip" id="clip93dc48x"><rect x="80" y="0" width="540" height="500"/></clipPath><clipPath class="axesclip" id="clip93dc48y"><rect x="0" y="100" width="700" height="320"/></clipPath><clipPath class="axesclip" id="clip93dc48xy"><rect x="80" y="100" width="540" height="320"/></clipPath></g><g class="gradients"/><g class="patterns"/></defs><g class="bglayer"><rect class="bg" x="80" y="100" width="540" height="320" style="fill: rgb(229, 236, 246); fill-opacity: 1; stroke-width: 0;"/></g><g class="layer-below"><g class="imagelayer"/><g class="shapelayer"/></g><g class="cartesianlayer"><g class="subplot xy"><g class="layer-subplot"><g class="shapelayer"/><g class="imagelayer"/></g><g class="minor-gridlayer"><g class="x"/><g class="y"/></g><g class="gridlayer"><g class="x"><path class="xgrid crisp" transform="translate(90.43,0)" d="M0,100v320" style="stroke: rgb(255, 255, 255); stroke-opacity: 1; stroke-width: 1px;"/><path class="xgrid crisp" transform="translate(171.3,0)" d="M0,100v320" style="stroke: rgb(255, 255, 255); stroke-opacity: 1; stroke-width: 1px;"/><path class="xgrid crisp" transform="translate(249.57,0)" d="M0,100v320" style="stroke: rgb(255, 255, 255); stroke-opacity: 1; stroke-width: 1px;"/><path class="xgrid crisp" transform="translate(330.43,0)" d="M0,100v320" style="stroke: rgb(255, 255, 255); stroke-opacity: 1; stroke-width: 1px;"/><path class="xgrid crisp" transform="translate(411.3,0)" d="M0,100v320" style="stroke: rgb(255, 255, 255); stroke-opacity: 1; stroke-width: 1px;"/><path class="xgrid crisp" transform="translate(484.35,0)" d="M0,100v320" style="stroke: rgb(255, 255, 255); stroke-opacity: 1; stroke-width: 1px;"/><path class="xgrid crisp" transform="translate(565.22,0)" d="M0,100v320" style="stroke: rgb(255, 255, 255); stroke-opacity: 1; stroke-width: 1px;"/></g><g class="y"><path class="ygrid crisp" transform="translate(0,336.85)" d="M80,0h540" style="stroke: rgb(255, 255, 255); stroke-opacity: 1; stroke-width: 1px;"/><path class="ygrid crisp" transform="translate(0,290.05)" d="M80,0h540" style="stroke: rgb(255, 255, 255); stroke-opacity: 1; stroke-width: 1px;"/><path class="ygrid crisp" transform="translate(0,243.25)" d="M80,0h540" style="stroke: rgb(255, 255, 255); stroke-opacity: 1; stroke-width: 1px;"/><path class="ygrid crisp" transform="translate(0,196.45)" d="M80,0h540" style="stroke: rgb(255, 255, 255); stroke-opacity: 1; stroke-width: 1px;"/><path class="ygrid crisp" transform="translate(0,149.65)" d="M80,0h540" style="stroke: rgb(255, 255, 255); stroke-opacity: 1; stroke-width: 1px;"/><path class="ygrid crisp" transform="translate(0,102.85)" d="M80,0h540" style="stroke: rgb(255, 255, 255); stroke-opacity: 1; stroke-width: 1px;"/></g></g><g class="zerolinelayer"><path class="yzl zl crisp" transform="translate(0,383.65)" d="M80,0h540" style="stroke: rgb(255, 255, 255); stroke-opacity: 1; stroke-width: 2px;"/></g><path class="xlines-below"/><path class="ylines-below"/><g class="overlines-below"/><g class="xaxislayer-below"/><g class="yaxislayer-below"/><g class="overaxes-below"/><g class="plot" transform="translate(80,100)" clip-path="url(#clip93dc48xyplot)"><g class="scatterlayer mlayer"><g class="trace scatter traceb88b3a" style="stroke-miterlimit: 2;"><g class="fills"><g><path class="js-fill" d="M540,283.65L0,283.65L0,289.18L5.22,288.54L7.83,288.29L10.43,287.62L13.04,287.79L15.65,287.72L18.26,286.37L20.87,281.55L23.48,281.72L26.09,286.11L28.7,281.44L33.91,282.1L36.52,282.14L39.13,282.26L41.74,279.77L44.35,273.92L46.96,273.06L49.57,273.06L52.17,274.58L54.78,265.13L57.39,265.02L60,264.9L62.61,267.56L65.22,267.88L67.83,266.08L73.04,267.71L75.65,273.35L78.26,270.1L80.87,265.05L83.48,263.77L86.09,264.31L91.3,262.99L93.91,263.51L104.35,263.32L106.96,262.53L109.57,276.63L112.17,278.02L114.78,291.2L117.39,289.55L125.22,292.02L127.83,280.51L130.43,279.08L133.04,284.09L138.26,281.63L140.87,282.11L143.48,283.35L146.09,283.49L148.7,285.07L151.3,284.53L153.91,283.32L156.52,277.35L159.13,276.89L161.74,283.14L164.35,283.62L166.96,282.76L169.57,274.25L172.17,271.66L177.39,272.15L180,269.85L182.61,268.93L185.22,263.9L187.83,263.61L190.43,260.77L193.04,268.87L195.65,240.58L198.26,255.16L200.87,255.59L203.48,261.39L206.09,279.23L208.7,279.12L211.3,286.55L213.91,287.63L216.52,287.04L219.13,279.71L221.74,279.64L224.35,281.6L226.96,282.01L234.78,282.33L237.39,282.66L240,283.86L242.61,283.96L260.87,284.03L263.48,286.64L266.09,283.58L268.7,283.35L271.3,279.41L273.91,278.4L276.52,278.24L279.13,276.84L281.74,275.07L284.35,274.38L289.57,274.64L292.17,271.3L294.78,270.72L297.39,262.73L300,256.09L302.61,253.12L305.22,257.75L307.83,247.43L310.43,236.51L313.04,232.85L318.26,208.66L320.87,203.83L323.48,203.82L326.09,200.49L328.7,188.86L331.3,185.59L333.91,179.76L336.52,176.38L339.13,175.06L341.74,169.67L344.35,139.63L346.96,137.32L349.57,119.02L352.17,122.43L354.78,122.4L357.39,114.55L360,106.89L362.61,105.95L365.22,105.98L367.83,101.79L370.43,103.61L373.04,96.61L375.65,94.79L378.26,81.72L383.48,69.91L386.09,79.43L388.7,74.15L391.3,58.34L393.91,59.21L396.52,58.03L399.13,51.55L401.74,40.82L404.35,25.52L406.96,18.11L409.57,17.78L412.17,16L414.78,17.38L417.39,16.28L420,20.41L422.61,22.39L425.22,29.05L427.83,118.09L430.43,304L433.04,301.69L435.65,273.37L438.26,214.37L440.87,205.75L443.48,192.19L446.09,161.2L448.7,117.7L451.3,93.07L453.91,89.69L456.52,93.15L459.13,92.68L461.74,101.17L464.35,105.1L466.96,108.78L469.57,109.21L472.17,117.25L474.78,116.73L477.39,121.13L480,121.68L482.61,113.15L485.22,113.5L487.83,113.89L490.43,119.47L493.04,127.33L495.65,125.18L500.87,115.99L503.48,116.93L506.09,134.76L508.7,139.98L511.3,141.52L513.91,140.87L516.52,140.24L519.13,121.7L521.74,124.7L524.35,124.39L534.78,124.35L537.39,128.57L540,125.17" style="fill: rgb(99, 110, 250); fill-opacity: 0.5; stroke-width: 0;"/></g></g><g class="errorbars"/><g class="lines"><path class="js-line" d="M0,289.18L5.22,288.54L7.83,288.29L10.43,287.62L13.04,287.79L15.65,287.72L18.26,286.37L20.87,281.55L23.48,281.72L26.09,286.11L28.7,281.44L33.91,282.1L36.52,282.14L39.13,282.26L41.74,279.77L44.35,273.92L46.96,273.06L49.57,273.06L52.17,274.58L54.78,265.13L57.39,265.02L60,264.9L62.61,267.56L65.22,267.88L67.83,266.08L73.04,267.71L75.65,273.35L78.26,270.1L80.87,265.05L83.48,263.77L86.09,264.31L91.3,262.99L93.91,263.51L104.35,263.32L106.96,262.53L109.57,276.63L112.17,278.02L114.78,291.2L117.39,289.55L125.22,292.02L127.83,280.51L130.43,279.08L133.04,284.09L138.26,281.63L140.87,282.11L143.48,283.35L146.09,283.49L148.7,285.07L151.3,284.53L153.91,283.32L156.52,277.35L159.13,276.89L161.74,283.14L164.35,283.62L166.96,282.76L169.57,274.25L172.17,271.66L177.39,272.15L180,269.85L182.61,268.93L185.22,263.9L187.83,263.61L190.43,260.77L193.04,268.87L195.65,240.58L198.26,255.16L200.87,255.59L203.48,261.39L206.09,279.23L208.7,279.12L211.3,286.55L213.91,287.63L216.52,287.04L219.13,279.71L221.74,279.64L224.35,281.6L226.96,282.01L234.78,282.33L237.39,282.66L240,283.86L242.61,283.96L260.87,284.03L263.48,286.64L266.09,283.58L268.7,283.35L271.3,279.41L273.91,278.4L276.52,278.24L279.13,276.84L281.74,275.07L284.35,274.38L289.57,274.64L292.17,271.3L294.78,270.72L297.39,262.73L300,256.09L302.61,253.12L305.22,257.75L307.83,247.43L310.43,236.51L313.04,232.85L318.26,208.66L320.87,203.83L323.48,203.82L326.09,200.49L328.7,188.86L331.3,185.59L333.91,179.76L336.52,176.38L339.13,175.06L341.74,169.67L344.35,139.63L346.96,137.32L349.57,119.02L352.17,122.43L354.78,122.4L357.39,114.55L360,106.89L362.61,105.95L365.22,105.98L367.83,101.79L370.43,103.61L373.04,96.61L375.65,94.79L378.26,81.72L383.48,69.91L386.09,79.43L388.7,74.15L391.3,58.34L393.91,59.21L396.52,58.03L399.13,51.55L401.74,40.82L404.35,25.52L406.96,18.11L409.57,17.78L412.17,16L414.78,17.38L417.39,16.28L420,20.41L422.61,22.39L425.22,29.05L427.83,118.09L430.43,304L433.04,301.69L435.65,273.37L438.26,214.37L440.87,205.75L443.48,192.19L446.09,161.2L448.7,117.7L451.3,93.07L453.91,89.69L456.52,93.15L459.13,92.68L461.74,101.17L464.35,105.1L466.96,108.78L469.57,109.21L472.17,117.25L474.78,116.73L477.39,121.13L480,121.68L482.61,113.15L485.22,113.5L487.83,113.89L490.43,119.47L493.04,127.33L495.65,125.18L500.87,115.99L503.48,116.93L506.09,134.76L508.7,139.98L511.3,141.52L513.91,140.87L516.52,140.24L519.13,121.7L521.74,124.7L524.35,124.39L534.78,124.35L537.39,128.57L540,125.17" style="vector-effect: none; fill: none; stroke: rgb(99, 110, 250); stroke-opacity: 1; stroke-width: 2px; opacity: 1;"/></g><g class="points"/><g class="text"/></g></g></g><g class="overplot"/><path class="xlines-above crisp" d="M0,0" style="fill: none;"/><path class="ylines-above crisp" d="M0,0" style="fill: none;"/><g class="overlines-above"/><g class="xaxislayer-above"><g class="xtick"><text text-anchor="middle" x="0" y="433" transform="translate(90.43,0)" style="font-family: 'Open Sans', verdana, arial, sans-serif; font-size: 12px; fill: rgb(42, 63, 95); fill-opacity: 1; white-space: pre; opacity: 1;">Oct 2022</text></g><g class="xtick"><text text-anchor="middle" x="0" y="433" style="font-family: 'Open Sans', verdana, arial, sans-serif; font-size: 12px; fill: rgb(42, 63, 95); fill-opacity: 1; white-space: pre; opacity: 1;" transform="translate(171.3,0)">Nov 2022</text></g><g class="xtick"><text text-anchor="middle" x="0" y="433" style="font-family: 'Open Sans', verdana, arial, sans-serif; font-size: 12px; fill: rgb(42, 63, 95); fill-opacity: 1; white-space: pre; opacity: 1;" transform="translate(249.57,0)">Dec 2022</text></g><g class="xtick"><text text-anchor="middle" x="0" y="433" style="font-family: 'Open Sans', verdana, arial, sans-serif; font-size: 12px; fill: rgb(42, 63, 95); fill-opacity: 1; white-space: pre; opacity: 1;" transform="translate(330.43,0)">Jan 2023</text></g><g class="xtick"><text text-anchor="middle" x="0" y="433" style="font-family: 'Open Sans', verdana, arial, sans-serif; font-size: 12px; fill: rgb(42, 63, 95); fill-opacity: 1; white-space: pre; opacity: 1;" transform="translate(411.3,0)">Feb 2023</text></g><g class="xtick"><text text-anchor="middle" x="0" y="433" style="font-family: 'Open Sans', verdana, arial, sans-serif; font-size: 12px; fill: rgb(42, 63, 95); fill-opacity: 1; white-space: pre; opacity: 1;" transform="translate(484.35,0)">Mar 2023</text></g><g class="xtick"><text text-anchor="middle" x="0" y="433" style="font-family: 'Open Sans', verdana, arial, sans-serif; font-size: 12px; fill: rgb(42, 63, 95); fill-opacity: 1; white-space: pre; opacity: 1;" transform="translate(565.22,0)">Apr 2023</text></g></g><g class="yaxislayer-above"><g class="ytick"><text text-anchor="end" x="79" y="4.199999999999999" transform="translate(0,383.65)" style="font-family: 'Open Sans', verdana, arial, sans-serif; font-size: 12px; fill: rgb(42, 63, 95); fill-opacity: 1; white-space: pre; opacity: 1;">$0</text></g><g class="ytick"><text text-anchor="end" x="79" y="4.199999999999999" style="font-family: 'Open Sans', verdana, arial, sans-serif; font-size: 12px; fill: rgb(42, 63, 95); fill-opacity: 1; white-space: pre; opacity: 1;" transform="translate(0,336.85)">$5M</text></g><g class="ytick"><text text-anchor="end" x="79" y="4.199999999999999" style="font-family: 'Open Sans', verdana, arial, sans-serif; font-size: 12px; fill: rgb(42, 63, 95); fill-opacity: 1; white-space: pre; opacity: 1;" transform="translate(0,290.05)">$10M</text></g><g class="ytick"><text text-anchor="end" x="79" y="4.199999999999999" style="font-family: 'Open Sans', verdana, arial, sans-serif; font-size: 12px; fill: rgb(42, 63, 95); fill-opacity: 1; white-space: pre; opacity: 1;" transform="translate(0,243.25)">$15M</text></g><g class="ytick"><text text-anchor="end" x="79" y="4.199999999999999" style="font-family: 'Open Sans', verdana, arial, sans-serif; font-size: 12px; fill: rgb(42, 63, 95); fill-opacity: 1; white-space: pre; opacity: 1;" transform="translate(0,196.45)">$20M</text></g><g class="ytick"><text text-anchor="end" x="79" y="4.199999999999999" style="font-family: 'Open Sans', verdana, arial, sans-serif; font-size: 12px; fill: rgb(42, 63, 95); fill-opacity: 1; white-space: pre; opacity: 1;" transform="translate(0,149.65)">$25M</text></g><g class="ytick"><text text-anchor="end" x="79" y="4.199999999999999" style="font-family: 'Open Sans', verdana, arial, sans-serif; font-size: 12px; fill: rgb(42, 63, 95); fill-opacity: 1; white-space: pre; opacity: 1;" transform="translate(0,102.85)">$30M</text></g></g><g class="overaxes-above"/></g></g><g class="polarlayer"/><g class="smithlayer"/><g class="ternarylayer"/><g class="geolayer"/><g class="funnelarealayer"/><g class="pielayer"/><g class="iciclelayer"/><g class="treemaplayer"/><g class="sunburstlayer"/><g class="glimages"/><defs id="topdefs-93dc48"><g class="clips"/></defs><g class="layer-above"><g class="imagelayer"/><g class="shapelayer"/></g><g class="infolayer"><g class="g-gtitle"><text class="gtitle" x="35" y="50" text-anchor="start" dy="0em" style="font-family: 'Open Sans', verdana, arial, sans-serif; font-size: 17px; fill: rgb(42, 63, 95); opacity: 1; font-weight: normal; white-space: pre;"><tspan class="line" dy="0em" x="35" y="50">Synthetix - USDC/sUSD: Velodrome</tspan><tspan class="line" dy="1.3em" x="35" y="50">​<tspan style="font-size:70%" dy="-0.6em">Cumulative Net Flows since Program Announcement, Until Program End + 30 Days</tspan><tspan dy="0.42em">​</tspan></tspan></text></g><g class="g-xtitle"><text class="xtitle" x="350" y="460.3" text-anchor="middle" style="font-family: 'Open Sans', verdana, arial, sans-serif; font-size: 14px; fill: rgb(42, 63, 95); opacity: 1; font-weight: normal; white-space: pre;">Day</text></g><g class="g-ytitle"><text class="ytitle" transform="rotate(-90,24.668750000000003,260)" x="24.668750000000003" y="260" text-anchor="middle" style="font-family: 'Open Sans', verdana, arial, sans-serif; font-size: 14px; fill: rgb(42, 63, 95); opacity: 1; font-weight: normal; white-space: pre;">Cumulative Net Flows (USD)</text></g></g></svg>