<svg class="main-svg" xmlns="http://www.w3.org/2000/svg" xmlns:xlink="http://www.w3.org/1999/xlink" width="700" height="500" style="" viewBox="0 0 700 500"><rect x="0" y="0" width="700" height="500" style="fill: rgb(255, 255, 255); fill-opacity: 1;"/><defs id="defs-c6c4e2"><g class="clips"><clipPath id="clipc6c4e2xyplot" class="plotclip"><rect width="540" height="320"/></clipPath><clipPath class="axesclip" id="clipc6c4e2x"><rect x="80" y="0" width="540" height="500"/></clipPath><clipPath class="axesclip" id="clipc6c4e2y"><rect x="0" y="100" width="700" height="320"/></clipPath><clipPath class="axesclip" id="clipc6c4e2xy"><rect x="80" y="100" width="540" height="320"/></clipPath></g><g class="gradients"/><g class="patterns"/></defs><g class="bglayer"><rect class="bg" x="80" y="100" width="540" height="320" style="fill: rgb(229, 236, 246); fill-opacity: 1; stroke-width: 0;"/></g><g class="layer-below"><g class="imagelayer"/><g class="shapelayer"/></g><g class="cartesianlayer"><g class="subplot xy"><g class="layer-subplot"><g class="shapelayer"/><g class="imagelayer"/></g><g class="minor-gridlayer"><g class="x"/><g class="y"/></g><g class="gridlayer"><g class="x"><path class="xgrid crisp" transform="translate(87.7,0)" d="M0,100v320" style="stroke: rgb(255, 255, 255); stroke-opacity: 1; stroke-width: 1px;"/><path class="xgrid crisp" transform="translate(165.94,0)" d="M0,100v320" style="stroke: rgb(255, 255, 255); stroke-opacity: 1; stroke-width: 1px;"/><path class="xgrid crisp" transform="translate(244.18,0)" d="M0,100v320" style="stroke: rgb(255, 255, 255); stroke-opacity: 1; stroke-width: 1px;"/><path class="xgrid crisp" transform="translate(319.86,0)" d="M0,100v320" style="stroke: rgb(255, 255, 255); stroke-opacity: 1; stroke-width: 1px;"/><path class="xgrid crisp" transform="translate(398.1,0)" d="M0,100v320" style="stroke: rgb(255, 255, 255); stroke-opacity: 1; stroke-width: 1px;"/><path class="xgrid crisp" transform="translate(476.34,0)" d="M0,100v320" style="stroke: rgb(255, 255, 255); stroke-opacity: 1; stroke-width: 1px;"/><path class="xgrid crisp" transform="translate(555.87,0)" d="M0,100v320" style="stroke: rgb(255, 255, 255); stroke-opacity: 1; stroke-width: 1px;"/></g><g class="y"><path class="ygrid crisp" transform="translate(0,410.89)" d="M80,0h540" style="stroke: rgb(255, 255, 255); stroke-opacity: 1; stroke-width: 1px;"/><path class="ygrid crisp" transform="translate(0,352.43)" d="M80,0h540" style="stroke: rgb(255, 255, 255); stroke-opacity: 1; stroke-width: 1px;"/><path class="ygrid crisp" transform="translate(0,293.97)" d="M80,0h540" style="stroke: rgb(255, 255, 255); stroke-opacity: 1; stroke-width: 1px;"/><path class="ygrid crisp" transform="translate(0,235.51)" d="M80,0h540" style="stroke: rgb(255, 255, 255); stroke-opacity: 1; stroke-width: 1px;"/><path class="ygrid crisp" transform="translate(0,118.6)" d="M80,0h540" style="stroke: rgb(255, 255, 255); stroke-opacity: 1; stroke-width: 1px;"/></g></g><g class="zerolinelayer"><path class="yzl zl crisp" transform="translate(0,177.06)" d="M80,0h540" style="stroke: rgb(255, 255, 255); stroke-opacity: 1; stroke-width: 2px;"/></g><path class="xlines-below"/><path class="ylines-below"/><g class="overlines-below"/><g class="xaxislayer-below"/><g class="yaxislayer-below"/><g class="overaxes-below"/><g class="plot" transform="translate(80,100)" clip-path="url(#clipc6c4e2xyplot)"><g class="scatterlayer mlayer"><g class="trace scatter trace390915" style="stroke-miterlimit: 2;"><g class="fills"><g><path class="js-fill" d="M540,77.06L0,77.06L0,77.29L14.11,76.62L15.39,76.59L65.42,76.19L66.7,77.41L67.98,69.74L69.26,67.53L70.55,57.55L71.83,40.78L74.39,53.94L75.68,56.24L76.96,58.49L78.24,52.12L79.52,53.55L80.81,53.26L82.09,52.23L83.37,52.36L84.66,46.01L85.94,45.54L88.5,46.39L89.79,47.2L91.07,45.47L92.35,45.54L94.92,90.63L96.2,95.91L97.48,101.38L98.76,100.64L102.61,102.96L103.9,106.44L106.46,106.37L107.74,98.2L110.31,94.53L111.59,96.01L112.87,93.39L114.16,81.25L115.44,83.76L116.72,79.07L119.29,82.07L120.57,81.95L123.14,87.19L124.42,81.37L125.7,59.11L126.98,56.95L129.55,56.42L130.83,58.77L133.4,50.26L134.68,53.39L135.96,53.3L137.24,55.08L138.53,55.76L139.81,66.72L141.09,71.06L142.38,71.09L143.66,71.3L144.94,68.82L146.22,71.09L147.51,71.18L148.79,73.36L150.07,71.62L153.92,68.32L155.2,68.36L156.48,67.45L157.77,60.04L161.62,61.89L162.9,60.77L165.46,66.07L166.75,66.36L169.31,68.44L170.59,67.59L171.88,57.66L173.16,57.41L174.44,53.19L175.72,57.98L177.01,58.08L178.29,71.16L182.14,75.03L183.42,75.28L184.7,74.92L185.99,70.61L187.27,68.73L188.55,69.36L189.83,67.92L191.12,67.95L192.4,84.82L193.68,82.15L194.96,76.98L196.25,89.18L197.53,89.25L198.81,85.9L200.1,86.12L201.38,82.07L202.66,80.02L203.94,82.72L205.23,81.12L206.51,85.32L207.79,87.63L209.07,87.82L210.36,87.29L211.64,85.72L212.92,85.8L214.2,89.15L215.49,92.77L216.77,101.89L220.62,102.95L221.9,116.66L224.47,84.83L225.75,84.34L227.03,84.12L228.31,82.08L229.6,80.87L230.88,64.08L232.16,24.27L233.44,16L234.73,17.78L236.01,17.76L238.57,18.86L239.86,25.66L241.14,25.56L242.42,44.26L243.71,46.67L244.99,44.41L246.27,46.05L247.55,40.07L248.84,38.54L250.12,46.5L252.68,136.82L253.97,136.5L255.25,132.77L256.53,123.97L257.81,124.3L259.1,94.84L260.38,93.82L261.66,94.81L262.95,96.93L264.23,95.74L265.51,97.33L266.79,95.75L268.08,86.34L269.36,109.09L273.21,119.86L274.49,121.1L275.77,121.91L277.05,132.35L278.34,132.69L279.62,127.34L282.19,126.97L283.47,98.96L284.75,98.91L286.03,102.49L287.32,93.78L288.6,92.82L291.16,90.8L292.45,90.95L293.73,90.46L295.01,88.89L296.29,86.33L297.58,82.06L298.86,79.98L300.14,71.43L301.43,67.49L302.71,78.04L303.99,76.55L305.27,44.17L307.84,46.36L309.12,46.51L310.4,46.47L311.69,49.1L312.97,49.14L314.25,42.44L315.53,41.97L316.82,44.52L318.1,44.14L319.38,46.19L320.67,48.82L321.95,54.97L323.23,52.15L324.51,52.3L325.8,59.27L327.08,59.45L329.64,64.3L330.93,67.64L332.21,68.9L333.49,68.9L336.06,69.11L337.34,69.93L338.62,64.86L339.9,56.6L342.47,55.43L343.75,56.96L345.04,53.81L346.32,57.62L347.6,60.44L348.88,60.69L350.17,59.5L351.45,59.87L355.3,59.44L356.58,60.68L357.86,63.25L359.14,64.1L360.43,62.27L361.71,62.8L364.28,64.2L365.56,63.7L368.12,60.8L369.41,64.04L370.69,62.46L371.97,62.22L373.25,61.81L374.54,62.65L375.82,64.54L377.1,64.82L379.67,64.43L380.95,64.52L382.23,63.42L383.52,64.63L384.8,43.36L386.08,44.29L387.36,43.82L388.65,48.65L392.49,58.94L393.78,175.78L395.06,195.69L396.34,199.31L397.62,200.47L398.91,209.27L400.19,214.8L401.47,215.46L402.76,217.02L404.04,217.25L407.89,219.22L409.17,222.48L410.45,286.02L411.73,286.8L413.02,290.41L414.3,290.42L415.58,293.58L416.86,293.63L419.43,294.29L420.71,294.29L422,294.33L423.28,296.8L432.26,296.84L433.54,297.9L434.82,297.92L436.1,299.12L439.95,299.24L441.24,301.08L447.65,301.29L448.93,301.29L488.69,302.12L489.98,302.72L531.02,303.47L532.3,304L540,304" style="fill: rgb(99, 110, 250); fill-opacity: 0.5; stroke-width: 0;"/></g></g><g class="errorbars"/><g class="lines"><path class="js-line" d="M0,77.29L14.11,76.62L15.39,76.59L65.42,76.19L66.7,77.41L67.98,69.74L69.26,67.53L70.55,57.55L71.83,40.78L74.39,53.94L75.68,56.24L76.96,58.49L78.24,52.12L79.52,53.55L80.81,53.26L82.09,52.23L83.37,52.36L84.66,46.01L85.94,45.54L88.5,46.39L89.79,47.2L91.07,45.47L92.35,45.54L94.92,90.63L96.2,95.91L97.48,101.38L98.76,100.64L102.61,102.96L103.9,106.44L106.46,106.37L107.74,98.2L110.31,94.53L111.59,96.01L112.87,93.39L114.16,81.25L115.44,83.76L116.72,79.07L119.29,82.07L120.57,81.95L123.14,87.19L124.42,81.37L125.7,59.11L126.98,56.95L129.55,56.42L130.83,58.77L133.4,50.26L134.68,53.39L135.96,53.3L137.24,55.08L138.53,55.76L139.81,66.72L141.09,71.06L142.38,71.09L143.66,71.3L144.94,68.82L146.22,71.09L147.51,71.18L148.79,73.36L150.07,71.62L153.92,68.32L155.2,68.36L156.48,67.45L157.77,60.04L161.62,61.89L162.9,60.77L165.46,66.07L166.75,66.36L169.31,68.44L170.59,67.59L171.88,57.66L173.16,57.41L174.44,53.19L175.72,57.98L177.01,58.08L178.29,71.16L182.14,75.03L183.42,75.28L184.7,74.92L185.99,70.61L187.27,68.73L188.55,69.36L189.83,67.92L191.12,67.95L192.4,84.82L193.68,82.15L194.96,76.98L196.25,89.18L197.53,89.25L198.81,85.9L200.1,86.12L201.38,82.07L202.66,80.02L203.94,82.72L205.23,81.12L206.51,85.32L207.79,87.63L209.07,87.82L210.36,87.29L211.64,85.72L212.92,85.8L214.2,89.15L215.49,92.77L216.77,101.89L220.62,102.95L221.9,116.66L224.47,84.83L225.75,84.34L227.03,84.12L228.31,82.08L229.6,80.87L230.88,64.08L232.16,24.27L233.44,16L234.73,17.78L236.01,17.76L238.57,18.86L239.86,25.66L241.14,25.56L242.42,44.26L243.71,46.67L244.99,44.41L246.27,46.05L247.55,40.07L248.84,38.54L250.12,46.5L252.68,136.82L253.97,136.5L255.25,132.77L256.53,123.97L257.81,124.3L259.1,94.84L260.38,93.82L261.66,94.81L262.95,96.93L264.23,95.74L265.51,97.33L266.79,95.75L268.08,86.34L269.36,109.09L273.21,119.86L274.49,121.1L275.77,121.91L277.05,132.35L278.34,132.69L279.62,127.34L282.19,126.97L283.47,98.96L284.75,98.91L286.03,102.49L287.32,93.78L288.6,92.82L291.16,90.8L292.45,90.95L293.73,90.46L295.01,88.89L296.29,86.33L297.58,82.06L298.86,79.98L300.14,71.43L301.43,67.49L302.71,78.04L303.99,76.55L305.27,44.17L307.84,46.36L309.12,46.51L310.4,46.47L311.69,49.1L312.97,49.14L314.25,42.44L315.53,41.97L316.82,44.52L318.1,44.14L319.38,46.19L320.67,48.82L321.95,54.97L323.23,52.15L324.51,52.3L325.8,59.27L327.08,59.45L329.64,64.3L330.93,67.64L332.21,68.9L333.49,68.9L336.06,69.11L337.34,69.93L338.62,64.86L339.9,56.6L342.47,55.43L343.75,56.96L345.04,53.81L346.32,57.62L347.6,60.44L348.88,60.69L350.17,59.5L351.45,59.87L355.3,59.44L356.58,60.68L357.86,63.25L359.14,64.1L360.43,62.27L361.71,62.8L364.28,64.2L365.56,63.7L368.12,60.8L369.41,64.04L370.69,62.46L371.97,62.22L373.25,61.81L374.54,62.65L375.82,64.54L377.1,64.82L379.67,64.43L380.95,64.52L382.23,63.42L383.52,64.63L384.8,43.36L386.08,44.29L387.36,43.82L388.65,48.65L392.49,58.94L393.78,175.78L395.06,195.69L396.34,199.31L397.62,200.47L398.91,209.27L400.19,214.8L401.47,215.46L402.76,217.02L404.04,217.25L407.89,219.22L409.17,222.48L410.45,286.02L411.73,286.8L413.02,290.41L414.3,290.42L415.58,293.58L416.86,293.63L419.43,294.29L420.71,294.29L422,294.33L423.28,296.8L432.26,296.84L433.54,297.9L434.82,297.92L436.1,299.12L439.95,299.24L441.24,301.08L447.65,301.29L448.93,301.29L488.69,302.12L489.98,302.72L531.02,303.47L532.3,304L540,304" style="vector-effect: none; fill: none; stroke: rgb(99, 110, 250); stroke-opacity: 1; stroke-width: 2px; opacity: 1;"/></g><g class="points"/><g class="text"/></g></g></g><g class="overplot"/><path class="xlines-above crisp" d="M0,0" style="fill: none;"/><path class="ylines-above crisp" d="M0,0" style="fill: none;"/><g class="overlines-above"/><g class="xaxislayer-above"><g class="xtick"><text text-anchor="middle" x="0" y="433" transform="translate(87.7,0)" style="font-family: 'Open Sans', verdana, arial, sans-serif; font-size: 12px; fill: rgb(42, 63, 95); fill-opacity: 1; white-space: pre; opacity: 1;">Sep 2022</text></g><g class="xtick"><text text-anchor="middle" x="0" y="433" style="font-family: 'Open Sans', verdana, arial, sans-serif; font-size: 12px; fill: rgb(42, 63, 95); fill-opacity: 1; white-space: pre; opacity: 1;" transform="translate(165.94,0)">Nov 2022</text></g><g class="xtick"><text text-anchor="middle" x="0" y="433" style="font-family: 'Open Sans', verdana, arial, sans-serif; font-size: 12px; fill: rgb(42, 63, 95); fill-opacity: 1; white-space: pre; opacity: 1;" transform="translate(244.18,0)">Jan 2023</text></g><g class="xtick"><text text-anchor="middle" x="0" y="433" style="font-family: 'Open Sans', verdana, arial, sans-serif; font-size: 12px; fill: rgb(42, 63, 95); fill-opacity: 1; white-space: pre; opacity: 1;" transform="translate(319.86,0)">Mar 2023</text></g><g class="xtick"><text text-anchor="middle" x="0" y="433" style="font-family: 'Open Sans', verdana, arial, sans-serif; font-size: 12px; fill: rgb(42, 63, 95); fill-opacity: 1; white-space: pre; opacity: 1;" transform="translate(398.1,0)">May 2023</text></g><g class="xtick"><text text-anchor="middle" x="0" y="433" style="font-family: 'Open Sans', verdana, arial, sans-serif; font-size: 12px; fill: rgb(42, 63, 95); fill-opacity: 1; white-space: pre; opacity: 1;" transform="translate(476.34,0)">Jul 2023</text></g><g class="xtick"><text text-anchor="middle" x="0" y="433" style="font-family: 'Open Sans', verdana, arial, sans-serif; font-size: 12px; fill: rgb(42, 63, 95); fill-opacity: 1; white-space: pre; opacity: 1;" transform="translate(555.87,0)">Sep 2023</text></g></g><g class="yaxislayer-above"><g class="ytick"><text text-anchor="end" x="79" y="4.199999999999999" transform="translate(0,410.89)" style="font-family: 'Open Sans', verdana, arial, sans-serif; font-size: 12px; fill: rgb(42, 63, 95); fill-opacity: 1; white-space: pre; opacity: 1;">$−8M</text></g><g class="ytick"><text text-anchor="end" x="79" y="4.199999999999999" style="font-family: 'Open Sans', verdana, arial, sans-serif; font-size: 12px; fill: rgb(42, 63, 95); fill-opacity: 1; white-space: pre; opacity: 1;" transform="translate(0,352.43)">$−6M</text></g><g class="ytick"><text text-anchor="end" x="79" y="4.199999999999999" style="font-family: 'Open Sans', verdana, arial, sans-serif; font-size: 12px; fill: rgb(42, 63, 95); fill-opacity: 1; white-space: pre; opacity: 1;" transform="translate(0,293.97)">$−4M</text></g><g class="ytick"><text text-anchor="end" x="79" y="4.199999999999999" style="font-family: 'Open Sans', verdana, arial, sans-serif; font-size: 12px; fill: rgb(42, 63, 95); fill-opacity: 1; white-space: pre; opacity: 1;" transform="translate(0,235.51)">$−2M</text></g><g class="ytick"><text text-anchor="end" x="79" y="4.199999999999999" style="font-family: 'Open Sans', verdana, arial, sans-serif; font-size: 12px; fill: rgb(42, 63, 95); fill-opacity: 1; white-space: pre; opacity: 1;" transform="translate(0,177.06)">$0</text></g><g class="ytick"><text text-anchor="end" x="79" y="4.199999999999999" style="font-family: 'Open Sans', verdana, arial, sans-serif; font-size: 12px; fill: rgb(42, 63, 95); fill-opacity: 1; white-space: pre; opacity: 1;" transform="translate(0,118.6)">$2M</text></g></g><g class="overaxes-above"/></g></g><g class="polarlayer"/><g class="smithlayer"/><g class="ternarylayer"/><g class="geolayer"/><g class="funnelarealayer"/><g class="pielayer"/><g class="iciclelayer"/><g class="treemaplayer"/><g class="sunburstlayer"/><g class="glimages"/><defs id="topdefs-c6c4e2"><g class="clips"/></defs><g class="layer-above"><g class="imagelayer"/><g class="shapelayer"/></g><g class="infolayer"><g class="g-gtitle"><text class="gtitle" x="35" y="50" text-anchor="start" dy="0em" style="font-family: 'Open Sans', verdana, arial, sans-serif; font-size: 17px; fill: rgb(42, 63, 95); opacity: 1; font-weight: normal; white-space: pre;"><tspan class="line" dy="0em" x="35" y="50">Qidao - sUSDC/MAI: Velodrome</tspan><tspan class="line" dy="1.3em" x="35" y="50">​<tspan style="font-size:70%" dy="-0.6em">Cumulative Net Flows since Program Announcement, Until Program End + 30 Days</tspan><tspan dy="0.42em">​</tspan></tspan></text></g><g class="g-xtitle"><text class="xtitle" x="350" y="460.3" text-anchor="middle" style="font-family: 'Open Sans', verdana, arial, sans-serif; font-size: 14px; fill: rgb(42, 63, 95); opacity: 1; font-weight: normal; white-space: pre;">Day</text></g><g class="g-ytitle"><text class="ytitle" transform="rotate(-90,24.340625000000003,260)" x="24.340625000000003" y="260" text-anchor="middle" style="font-family: 'Open Sans', verdana, arial, sans-serif; font-size: 14px; fill: rgb(42, 63, 95); opacity: 1; font-weight: normal; white-space: pre;">Cumulative Net Flows (USD)</text></g></g></svg>