<svg class="main-svg" xmlns="http://www.w3.org/2000/svg" xmlns:xlink="http://www.w3.org/1999/xlink" width="700" height="500" style="" viewBox="0 0 700 500"><rect x="0" y="0" width="700" height="500" style="fill: rgb(255, 255, 255); fill-opacity: 1;"/><defs id="defs-4d983a"><g class="clips"><clipPath id="clip4d983axyplot" class="plotclip"><rect width="540" height="320"/></clipPath><clipPath class="axesclip" id="clip4d983ax"><rect x="80" y="0" width="540" height="500"/></clipPath><clipPath class="axesclip" id="clip4d983ay"><rect x="0" y="100" width="700" height="320"/></clipPath><clipPath class="axesclip" id="clip4d983axy"><rect x="80" y="100" width="540" height="320"/></clipPath></g><g class="gradients"/><g class="patterns"/></defs><g class="bglayer"><rect class="bg" x="80" y="100" width="540" height="320" style="fill: rgb(229, 236, 246); fill-opacity: 1; stroke-width: 0;"/></g><g class="layer-below"><g class="imagelayer"/><g class="shapelayer"/></g><g class="cartesianlayer"><g class="subplot xy"><g class="layer-subplot"><g class="shapelayer"/><g class="imagelayer"/></g><g class="minor-gridlayer"><g class="x"/><g class="y"/></g><g class="gridlayer"><g class="x"><path class="xgrid crisp" transform="translate(115.06,0)" d="M0,100v320" style="stroke: rgb(255, 255, 255); stroke-opacity: 1; stroke-width: 1px;"/><path class="xgrid crisp" transform="translate(186.36,0)" d="M0,100v320" style="stroke: rgb(255, 255, 255); stroke-opacity: 1; stroke-width: 1px;"/><path class="xgrid crisp" transform="translate(257.65999999999997,0)" d="M0,100v320" style="stroke: rgb(255, 255, 255); stroke-opacity: 1; stroke-width: 1px;"/><path class="xgrid crisp" transform="translate(326.62,0)" d="M0,100v320" style="stroke: rgb(255, 255, 255); stroke-opacity: 1; stroke-width: 1px;"/><path class="xgrid crisp" transform="translate(397.92,0)" d="M0,100v320" style="stroke: rgb(255, 255, 255); stroke-opacity: 1; stroke-width: 1px;"/><path class="xgrid crisp" transform="translate(469.22,0)" d="M0,100v320" style="stroke: rgb(255, 255, 255); stroke-opacity: 1; stroke-width: 1px;"/><path class="xgrid crisp" transform="translate(541.69,0)" d="M0,100v320" style="stroke: rgb(255, 255, 255); stroke-opacity: 1; stroke-width: 1px;"/><path class="xgrid crisp" transform="translate(612.99,0)" d="M0,100v320" style="stroke: rgb(255, 255, 255); stroke-opacity: 1; stroke-width: 1px;"/></g><g class="y"><path class="ygrid crisp" transform="translate(0,302.01)" d="M80,0h540" style="stroke: rgb(255, 255, 255); stroke-opacity: 1; stroke-width: 1px;"/><path class="ygrid crisp" transform="translate(0,216.68)" d="M80,0h540" style="stroke: rgb(255, 255, 255); stroke-opacity: 1; stroke-width: 1px;"/><path class="ygrid crisp" transform="translate(0,131.35)" d="M80,0h540" style="stroke: rgb(255, 255, 255); stroke-opacity: 1; stroke-width: 1px;"/></g></g><g class="zerolinelayer"><path class="yzl zl crisp" transform="translate(0,387.34)" d="M80,0h540" style="stroke: rgb(255, 255, 255); stroke-opacity: 1; stroke-width: 2px;"/></g><path class="xlines-below"/><path class="ylines-below"/><g class="overlines-below"/><g class="xaxislayer-below"/><g class="yaxislayer-below"/><g class="overaxes-below"/><g class="plot" transform="translate(80,100)" clip-path="url(#clip4d983axyplot)"><g class="scatterlayer mlayer"><g class="trace scatter tracec3014e" style="stroke-miterlimit: 2;"><g class="fills"><g><path class="js-fill" d="M540,287.34L0,287.34L0,287L1.17,255.96L2.34,181.48L3.51,149.87L4.68,142.5L5.84,130.6L7.01,110.79L8.18,100.47L9.35,51.77L11.69,47.18L12.86,32L14.03,26.64L15.19,25.17L16.36,17.83L17.53,38.22L18.7,16L19.87,16.56L21.04,18.62L22.21,28.99L25.71,35.76L26.88,42.93L28.05,44.12L29.22,37.08L30.39,36.76L31.56,38.29L32.73,41.92L33.9,42.84L35.06,40.53L36.23,40.7L37.4,52.92L38.57,53.05L39.74,52.85L40.91,54.58L42.08,56.79L43.25,61.87L44.42,62.7L45.58,73.03L50.26,102.24L51.43,106.41L52.6,98.53L53.77,57.63L54.94,56.21L56.1,45.51L57.27,48.4L58.44,46.59L59.61,46.7L60.78,54.94L61.95,35.52L63.12,32.64L64.29,24.97L65.45,23.93L66.62,25.84L67.79,29.87L68.96,28.85L70.13,26.43L71.3,23.32L72.47,23.43L73.64,22.88L74.81,27.95L77.14,33.05L78.31,28.88L79.48,27.01L80.65,35.12L81.82,39.96L82.99,38.52L84.16,37.42L85.32,39.93L86.49,38.65L87.66,34.57L88.83,62.81L90,69.89L92.34,72.52L93.51,73.39L94.68,105.23L95.84,102.93L98.18,113.94L99.35,137.66L100.52,160.36L101.69,154.15L102.86,131.49L104.03,132.42L105.19,137.08L106.36,136.21L108.7,139.75L109.87,133.55L111.04,136.94L112.21,132.54L113.38,132.51L114.55,128.23L115.71,131.29L116.88,140.83L118.05,141.08L119.22,131.82L120.39,136.34L121.56,135.64L122.73,160.65L123.9,161.69L125.06,162.06L126.23,161.48L128.57,148.58L129.74,145.71L132.08,140.16L133.25,151.19L134.42,156.61L135.58,157.12L136.75,159.31L137.92,159.9L139.09,153.99L140.26,160.62L141.43,169.08L142.6,168.49L143.77,159.92L144.94,158.17L146.1,161.28L147.27,158.18L148.44,157.47L149.61,155.28L150.78,157.83L151.95,166.31L153.12,165.65L154.29,166.6L155.45,168.2L156.62,172L158.96,164.36L160.13,164.89L161.3,162.32L162.47,161.98L163.64,159.79L164.81,171.56L167.14,175.36L168.31,176.57L169.48,176.71L170.65,175.55L171.82,173.96L172.99,176.29L175.32,175.81L176.49,184.01L177.66,184.23L178.83,181.79L181.17,183.4L182.34,187.23L183.51,188.36L184.68,185.87L188.18,190.35L189.35,193.34L190.52,194.45L191.69,171.88L192.86,172.9L194.03,175.19L199.87,163.09L201.04,170.13L202.21,167.09L203.38,166.26L204.55,158.74L205.71,156.41L206.88,159.21L208.05,148.17L209.22,154.56L210.39,149.79L211.56,153.44L212.73,149.15L213.9,151.81L215.06,149.3L216.23,148.52L217.4,149.99L218.57,157.86L219.74,159.77L222.08,158.58L223.25,155.34L224.42,153.8L225.58,158.02L226.75,155.14L227.92,156.46L229.09,160.89L230.26,161.32L231.43,163.7L232.6,169.33L234.94,168.46L236.1,170.35L238.44,169.47L239.61,166.76L240.78,165.71L241.95,158.69L243.12,158.04L244.29,161.2L245.45,159.23L246.62,160.88L248.96,163.74L250.13,162.47L251.3,161.41L252.47,165.78L254.81,168.42L255.97,167.33L257.14,167.29L258.31,178.59L259.48,182.28L260.65,183.37L261.82,190.2L262.99,188.25L264.16,199.78L265.32,200.11L266.49,197.55L267.66,198.57L270,203.46L271.17,204.32L272.34,206.35L273.51,210.31L274.68,198.72L275.84,197.4L277.01,198.55L278.18,197.85L279.35,199.54L280.52,203.58L281.69,213.54L282.86,210.49L284.03,210.28L285.19,208.69L286.36,207.05L287.53,210.24L288.7,211.01L289.87,210.11L291.04,211.22L292.21,208.93L294.55,210.16L295.71,210.6L296.88,210.55L298.05,211.68L299.22,211.41L300.39,210.34L301.56,212.21L302.73,211.83L303.9,210.88L305.06,208.88L306.23,206.64L307.4,215.39L310.91,218.08L312.08,218.32L313.25,219.82L314.42,219.83L315.58,217.36L316.75,217.09L319.09,217.68L320.26,219.25L323.77,221.38L324.94,223.9L328.44,226.68L329.61,225.85L330.78,224.94L331.95,234.47L333.12,231.92L334.29,233.74L335.45,233.01L336.62,234.69L338.96,235.82L340.13,239.28L341.3,239.62L342.47,244.34L345.97,304L347.14,205.24L348.31,204.73L349.48,205.13L350.65,204.73L351.82,203.35L352.99,204.83L354.16,204.69L355.32,203.48L356.49,203.91L358.83,205.71L360,205.84L361.17,243.75L362.34,247.89L363.51,246.56L364.68,248.37L367.01,251.68L368.18,251.65L369.35,251.78L370.52,255.38L371.69,256.12L372.86,255.78L374.03,255.98L375.19,255.26L376.36,254.19L377.53,249.81L379.87,249.45L381.04,252.6L383.38,249.14L384.55,246.48L385.71,244.27L386.88,251.88L388.05,248.51L389.22,254.7L391.56,255L392.73,254.79L393.9,255.33L395.06,258.67L396.23,258.17L397.4,261.27L399.74,260.18L400.91,260.26L403.25,259.87L404.42,260.56L405.58,255.01L406.75,256.23L407.92,262.64L409.09,262.79L410.26,265.27L411.43,263.48L413.77,262.52L414.94,261.38L416.1,260.43L417.27,263.43L418.44,264.33L419.61,259.51L420.78,258.21L421.95,259.01L423.12,258.4L424.29,258.79L425.45,258.41L426.62,255.21L427.79,255.21L428.96,260.63L430.13,261.33L431.3,260.63L432.47,264.29L433.64,262.92L435.97,256.31L437.14,255.96L439.48,263.35L440.65,264.04L444.16,264.34L445.32,269.56L446.49,273.07L447.66,271.28L448.83,271.83L450,271.04L451.17,268.92L452.34,269.34L453.51,270.5L454.68,259.91L455.84,258.44L457.01,266.17L458.18,266.6L459.35,265.55L460.52,263.59L461.69,273.06L464.03,270.89L465.19,271.51L467.53,271.44L468.7,271.93L469.87,271.52L471.04,269.94L473.38,267.91L474.55,268.39L476.88,266.36L478.05,263.01L479.22,264.07L480.39,262.87L482.73,261.76L483.9,264.16L486.23,263.24L487.4,268.68L490.91,267.65L492.08,267.18L493.25,266.44L494.42,267.61L495.58,273.17L496.75,272.2L497.92,272.69L499.09,260.44L501.43,255.47L502.6,257.49L503.77,257.84L504.94,257.22L507.27,258.18L508.44,259.76L510.78,259.17L511.95,261.96L515.45,260.01L516.62,258.79L518.96,257.71L520.13,268.07L522.47,267.62L523.64,268.43L524.81,272.1L525.97,272.04L528.31,277.45L529.48,277.07L530.65,277.42L531.82,275L532.99,272.8L534.16,273.05L535.32,272.98L536.49,274.91L540,273.29" style="fill: rgb(99, 110, 250); fill-opacity: 0.5; stroke-width: 0;"/></g></g><g class="errorbars"/><g class="lines"><path class="js-line" d="M0,287L1.17,255.96L2.34,181.48L3.51,149.87L4.68,142.5L5.84,130.6L7.01,110.79L8.18,100.47L9.35,51.77L11.69,47.18L12.86,32L14.03,26.64L15.19,25.17L16.36,17.83L17.53,38.22L18.7,16L19.87,16.56L21.04,18.62L22.21,28.99L25.71,35.76L26.88,42.93L28.05,44.12L29.22,37.08L30.39,36.76L31.56,38.29L32.73,41.92L33.9,42.84L35.06,40.53L36.23,40.7L37.4,52.92L38.57,53.05L39.74,52.85L40.91,54.58L42.08,56.79L43.25,61.87L44.42,62.7L45.58,73.03L50.26,102.24L51.43,106.41L52.6,98.53L53.77,57.63L54.94,56.21L56.1,45.51L57.27,48.4L58.44,46.59L59.61,46.7L60.78,54.94L61.95,35.52L63.12,32.64L64.29,24.97L65.45,23.93L66.62,25.84L67.79,29.87L68.96,28.85L70.13,26.43L71.3,23.32L72.47,23.43L73.64,22.88L74.81,27.95L77.14,33.05L78.31,28.88L79.48,27.01L80.65,35.12L81.82,39.96L82.99,38.52L84.16,37.42L85.32,39.93L86.49,38.65L87.66,34.57L88.83,62.81L90,69.89L92.34,72.52L93.51,73.39L94.68,105.23L95.84,102.93L98.18,113.94L99.35,137.66L100.52,160.36L101.69,154.15L102.86,131.49L104.03,132.42L105.19,137.08L106.36,136.21L108.7,139.75L109.87,133.55L111.04,136.94L112.21,132.54L113.38,132.51L114.55,128.23L115.71,131.29L116.88,140.83L118.05,141.08L119.22,131.82L120.39,136.34L121.56,135.64L122.73,160.65L123.9,161.69L125.06,162.06L126.23,161.48L128.57,148.58L129.74,145.71L132.08,140.16L133.25,151.19L134.42,156.61L135.58,157.12L136.75,159.31L137.92,159.9L139.09,153.99L140.26,160.62L141.43,169.08L142.6,168.49L143.77,159.92L144.94,158.17L146.1,161.28L147.27,158.18L148.44,157.47L149.61,155.28L150.78,157.83L151.95,166.31L153.12,165.65L154.29,166.6L155.45,168.2L156.62,172L158.96,164.36L160.13,164.89L161.3,162.32L162.47,161.98L163.64,159.79L164.81,171.56L167.14,175.36L168.31,176.57L169.48,176.71L170.65,175.55L171.82,173.96L172.99,176.29L175.32,175.81L176.49,184.01L177.66,184.23L178.83,181.79L181.17,183.4L182.34,187.23L183.51,188.36L184.68,185.87L188.18,190.35L189.35,193.34L190.52,194.45L191.69,171.88L192.86,172.9L194.03,175.19L199.87,163.09L201.04,170.13L202.21,167.09L203.38,166.26L204.55,158.74L205.71,156.41L206.88,159.21L208.05,148.17L209.22,154.56L210.39,149.79L211.56,153.44L212.73,149.15L213.9,151.81L215.06,149.3L216.23,148.52L217.4,149.99L218.57,157.86L219.74,159.77L222.08,158.58L223.25,155.34L224.42,153.8L225.58,158.02L226.75,155.14L227.92,156.46L229.09,160.89L230.26,161.32L231.43,163.7L232.6,169.33L234.94,168.46L236.1,170.35L238.44,169.47L239.61,166.76L240.78,165.71L241.95,158.69L243.12,158.04L244.29,161.2L245.45,159.23L246.62,160.88L248.96,163.74L250.13,162.47L251.3,161.41L252.47,165.78L254.81,168.42L255.97,167.33L257.14,167.29L258.31,178.59L259.48,182.28L260.65,183.37L261.82,190.2L262.99,188.25L264.16,199.78L265.32,200.11L266.49,197.55L267.66,198.57L270,203.46L271.17,204.32L272.34,206.35L273.51,210.31L274.68,198.72L275.84,197.4L277.01,198.55L278.18,197.85L279.35,199.54L280.52,203.58L281.69,213.54L282.86,210.49L284.03,210.28L285.19,208.69L286.36,207.05L287.53,210.24L288.7,211.01L289.87,210.11L291.04,211.22L292.21,208.93L294.55,210.16L295.71,210.6L296.88,210.55L298.05,211.68L299.22,211.41L300.39,210.34L301.56,212.21L302.73,211.83L303.9,210.88L305.06,208.88L306.23,206.64L307.4,215.39L310.91,218.08L312.08,218.32L313.25,219.82L314.42,219.83L315.58,217.36L316.75,217.09L319.09,217.68L320.26,219.25L323.77,221.38L324.94,223.9L328.44,226.68L329.61,225.85L330.78,224.94L331.95,234.47L333.12,231.92L334.29,233.74L335.45,233.01L336.62,234.69L338.96,235.82L340.13,239.28L341.3,239.62L342.47,244.34L345.97,304L347.14,205.24L348.31,204.73L349.48,205.13L350.65,204.73L351.82,203.35L352.99,204.83L354.16,204.69L355.32,203.48L356.49,203.91L358.83,205.71L360,205.84L361.17,243.75L362.34,247.89L363.51,246.56L364.68,248.37L367.01,251.68L368.18,251.65L369.35,251.78L370.52,255.38L371.69,256.12L372.86,255.78L374.03,255.98L375.19,255.26L376.36,254.19L377.53,249.81L379.87,249.45L381.04,252.6L383.38,249.14L384.55,246.48L385.71,244.27L386.88,251.88L388.05,248.51L389.22,254.7L391.56,255L392.73,254.79L393.9,255.33L395.06,258.67L396.23,258.17L397.4,261.27L399.74,260.18L400.91,260.26L403.25,259.87L404.42,260.56L405.58,255.01L406.75,256.23L407.92,262.64L409.09,262.79L410.26,265.27L411.43,263.48L413.77,262.52L414.94,261.38L416.1,260.43L417.27,263.43L418.44,264.33L419.61,259.51L420.78,258.21L421.95,259.01L423.12,258.4L424.29,258.79L425.45,258.41L426.62,255.21L427.79,255.21L428.96,260.63L430.13,261.33L431.3,260.63L432.47,264.29L433.64,262.92L435.97,256.31L437.14,255.96L439.48,263.35L440.65,264.04L444.16,264.34L445.32,269.56L446.49,273.07L447.66,271.28L448.83,271.83L450,271.04L451.17,268.92L452.34,269.34L453.51,270.5L454.68,259.91L455.84,258.44L457.01,266.17L458.18,266.6L459.35,265.55L460.52,263.59L461.69,273.06L464.03,270.89L465.19,271.51L467.53,271.44L468.7,271.93L469.87,271.52L471.04,269.94L473.38,267.91L474.55,268.39L476.88,266.36L478.05,263.01L479.22,264.07L480.39,262.87L482.73,261.76L483.9,264.16L486.23,263.24L487.4,268.68L490.91,267.65L492.08,267.18L493.25,266.44L494.42,267.61L495.58,273.17L496.75,272.2L497.92,272.69L499.09,260.44L501.43,255.47L502.6,257.49L503.77,257.84L504.94,257.22L507.27,258.18L508.44,259.76L510.78,259.17L511.95,261.96L515.45,260.01L516.62,258.79L518.96,257.71L520.13,268.07L522.47,267.62L523.64,268.43L524.81,272.1L525.97,272.04L528.31,277.45L529.48,277.07L530.65,277.42L531.82,275L532.99,272.8L534.16,273.05L535.32,272.98L536.49,274.91L540,273.29" style="vector-effect: none; fill: none; stroke: rgb(99, 110, 250); stroke-opacity: 1; stroke-width: 2px; opacity: 1;"/></g><g class="points"/><g class="text"/></g></g></g><g class="overplot"/><path class="xlines-above crisp" d="M0,0" style="fill: none;"/><path class="ylines-above crisp" d="M0,0" style="fill: none;"/><g class="overlines-above"/><g class="xaxislayer-above"><g class="xtick"><text text-anchor="middle" x="0" y="433" transform="translate(115.06,0)" style="font-family: 'Open Sans', verdana, arial, sans-serif; font-size: 12px; fill: rgb(42, 63, 95); fill-opacity: 1; white-space: pre; opacity: 1;">Sep 2022</text></g><g class="xtick"><text text-anchor="middle" x="0" y="433" style="font-family: 'Open Sans', verdana, arial, sans-serif; font-size: 12px; fill: rgb(42, 63, 95); fill-opacity: 1; white-space: pre; opacity: 1;" transform="translate(186.36,0)">Nov 2022</text></g><g class="xtick"><text text-anchor="middle" x="0" y="433" style="font-family: 'Open Sans', verdana, arial, sans-serif; font-size: 12px; fill: rgb(42, 63, 95); fill-opacity: 1; white-space: pre; opacity: 1;" transform="translate(257.65999999999997,0)">Jan 2023</text></g><g class="xtick"><text text-anchor="middle" x="0" y="433" style="font-family: 'Open Sans', verdana, arial, sans-serif; font-size: 12px; fill: rgb(42, 63, 95); fill-opacity: 1; white-space: pre; opacity: 1;" transform="translate(326.62,0)">Mar 2023</text></g><g class="xtick"><text text-anchor="middle" x="0" y="433" style="font-family: 'Open Sans', verdana, arial, sans-serif; font-size: 12px; fill: rgb(42, 63, 95); fill-opacity: 1; white-space: pre; opacity: 1;" transform="translate(397.92,0)">May 2023</text></g><g class="xtick"><text text-anchor="middle" x="0" y="433" style="font-family: 'Open Sans', verdana, arial, sans-serif; font-size: 12px; fill: rgb(42, 63, 95); fill-opacity: 1; white-space: pre; opacity: 1;" transform="translate(469.22,0)">Jul 2023</text></g><g class="xtick"><text text-anchor="middle" x="0" y="433" style="font-family: 'Open Sans', verdana, arial, sans-serif; font-size: 12px; fill: rgb(42, 63, 95); fill-opacity: 1; white-space: pre; opacity: 1;" transform="translate(541.69,0)">Sep 2023</text></g><g class="xtick"><text text-anchor="middle" x="0" y="433" style="font-family: 'Open Sans', verdana, arial, sans-serif; font-size: 12px; fill: rgb(42, 63, 95); fill-opacity: 1; white-space: pre; opacity: 1;" transform="translate(612.99,0)">Nov 2023</text></g></g><g class="yaxislayer-above"><g class="ytick"><text text-anchor="end" x="79" y="4.199999999999999" transform="translate(0,387.34)" style="font-family: 'Open Sans', verdana, arial, sans-serif; font-size: 12px; fill: rgb(42, 63, 95); fill-opacity: 1; white-space: pre; opacity: 1;">$0</text></g><g class="ytick"><text text-anchor="end" x="79" y="4.199999999999999" style="font-family: 'Open Sans', verdana, arial, sans-serif; font-size: 12px; fill: rgb(42, 63, 95); fill-opacity: 1; white-space: pre; opacity: 1;" transform="translate(0,302.01)">$5M</text></g><g class="ytick"><text text-anchor="end" x="79" y="4.199999999999999" style="font-family: 'Open Sans', verdana, arial, sans-serif; font-size: 12px; fill: rgb(42, 63, 95); fill-opacity: 1; white-space: pre; opacity: 1;" transform="translate(0,216.68)">$10M</text></g><g class="ytick"><text text-anchor="end" x="79" y="4.199999999999999" style="font-family: 'Open Sans', verdana, arial, sans-serif; font-size: 12px; fill: rgb(42, 63, 95); fill-opacity: 1; white-space: pre; opacity: 1;" transform="translate(0,131.35)">$15M</text></g></g><g class="overaxes-above"/></g></g><g class="polarlayer"/><g class="smithlayer"/><g class="ternarylayer"/><g class="geolayer"/><g class="funnelarealayer"/><g class="pielayer"/><g class="iciclelayer"/><g class="treemaplayer"/><g class="sunburstlayer"/><g class="glimages"/><defs id="topdefs-4d983a"><g class="clips"/></defs><g class="layer-above"><g class="imagelayer"/><g class="shapelayer"/></g><g class="infolayer"><g class="g-gtitle"><text class="gtitle" x="35" y="50" text-anchor="start" dy="0em" style="font-family: 'Open Sans', verdana, arial, sans-serif; font-size: 17px; fill: rgb(42, 63, 95); opacity: 1; font-weight: normal; white-space: pre;"><tspan class="line" dy="0em" x="35" y="50">Lyra</tspan><tspan class="line" dy="1.3em" x="35" y="50">​<tspan style="font-size:70%" dy="-0.6em">Cumulative Net Flows since Program Announcement, Until Program End + 30 Days</tspan><tspan dy="0.42em">​</tspan></tspan></text></g><g class="g-xtitle"><text class="xtitle" x="350" y="460.3" text-anchor="middle" style="font-family: 'Open Sans', verdana, arial, sans-serif; font-size: 14px; fill: rgb(42, 63, 95); opacity: 1; font-weight: normal; white-space: pre;">Day</text></g><g class="g-ytitle"><text class="ytitle" transform="rotate(-90,24.668750000000003,260)" x="24.668750000000003" y="260" text-anchor="middle" style="font-family: 'Open Sans', verdana, arial, sans-serif; font-size: 14px; fill: rgb(42, 63, 95); opacity: 1; font-weight: normal; white-space: pre;">Cumulative Net Flows (USD)</text></g></g></svg>