<svg class="main-svg" xmlns="http://www.w3.org/2000/svg" xmlns:xlink="http://www.w3.org/1999/xlink" width="700" height="500" style="" viewBox="0 0 700 500"><rect x="0" y="0" width="700" height="500" style="fill: rgb(255, 255, 255); fill-opacity: 1;"/><defs id="defs-17c608"><g class="clips"><clipPath id="clip17c608xyplot" class="plotclip"><rect width="540" height="320"/></clipPath><clipPath class="axesclip" id="clip17c608x"><rect x="80" y="0" width="540" height="500"/></clipPath><clipPath class="axesclip" id="clip17c608y"><rect x="0" y="100" width="700" height="320"/></clipPath><clipPath class="axesclip" id="clip17c608xy"><rect x="80" y="100" width="540" height="320"/></clipPath></g><g class="gradients"/><g class="patterns"/></defs><g class="bglayer"><rect class="bg" x="80" y="100" width="540" height="320" style="fill: rgb(229, 236, 246); fill-opacity: 1; stroke-width: 0;"/></g><g class="layer-below"><g class="imagelayer"/><g class="shapelayer"/></g><g class="cartesianlayer"><g class="subplot xy"><g class="layer-subplot"><g class="shapelayer"/><g class="imagelayer"/></g><g class="minor-gridlayer"><g class="x"/><g class="y"/></g><g class="gridlayer"><g class="x"><path class="xgrid crisp" transform="translate(115.50999999999999,0)" d="M0,100v320" style="stroke: rgb(255, 255, 255); stroke-opacity: 1; stroke-width: 1px;"/><path class="xgrid crisp" transform="translate(190.2,0)" d="M0,100v320" style="stroke: rgb(255, 255, 255); stroke-opacity: 1; stroke-width: 1px;"/><path class="xgrid crisp" transform="translate(262.45,0)" d="M0,100v320" style="stroke: rgb(255, 255, 255); stroke-opacity: 1; stroke-width: 1px;"/><path class="xgrid crisp" transform="translate(337.14,0)" d="M0,100v320" style="stroke: rgb(255, 255, 255); stroke-opacity: 1; stroke-width: 1px;"/><path class="xgrid crisp" transform="translate(411.84,0)" d="M0,100v320" style="stroke: rgb(255, 255, 255); stroke-opacity: 1; stroke-width: 1px;"/><path class="xgrid crisp" transform="translate(487.76,0)" d="M0,100v320" style="stroke: rgb(255, 255, 255); stroke-opacity: 1; stroke-width: 1px;"/><path class="xgrid crisp" transform="translate(562.45,0)" d="M0,100v320" style="stroke: rgb(255, 255, 255); stroke-opacity: 1; stroke-width: 1px;"/></g><g class="y"><path class="ygrid crisp" transform="translate(0,383.31)" d="M80,0h540" style="stroke: rgb(255, 255, 255); stroke-opacity: 1; stroke-width: 1px;"/><path class="ygrid crisp" transform="translate(0,260.16999999999996)" d="M80,0h540" style="stroke: rgb(255, 255, 255); stroke-opacity: 1; stroke-width: 1px;"/><path class="ygrid crisp" transform="translate(0,198.61)" d="M80,0h540" style="stroke: rgb(255, 255, 255); stroke-opacity: 1; stroke-width: 1px;"/><path class="ygrid crisp" transform="translate(0,137.04)" d="M80,0h540" style="stroke: rgb(255, 255, 255); stroke-opacity: 1; stroke-width: 1px;"/></g></g><g class="zerolinelayer"><path class="yzl zl crisp" transform="translate(0,321.74)" d="M80,0h540" style="stroke: rgb(255, 255, 255); stroke-opacity: 1; stroke-width: 2px;"/></g><path class="xlines-below"/><path class="ylines-below"/><g class="overlines-below"/><g class="xaxislayer-below"/><g class="yaxislayer-below"/><g class="overaxes-below"/><g class="plot" transform="translate(80,100)" clip-path="url(#clip17c608xyplot)"><g class="scatterlayer mlayer"><g class="trace scatter tracec30004" style="stroke-miterlimit: 2;"><g class="fills"><g><path class="js-fill" d="M540,221.74L0,221.74L0,221.72L15.92,221.19L17.14,218.68L18.37,216.27L19.59,216.24L22.04,215.31L23.27,216.24L24.49,214.33L25.71,206.71L28.16,187.95L29.39,181.71L33.06,177.33L34.29,173.34L35.51,171.44L36.73,152.83L37.96,158.78L39.18,158.44L40.41,157.74L41.63,163.2L44.08,173.29L45.31,173.55L46.53,176.27L47.76,176.29L50.2,176.39L51.43,178.64L55.1,179.93L56.33,183.01L64.9,183.01L66.12,182.37L67.35,181.6L68.57,179.86L74.69,179L75.92,177.83L77.14,181.42L78.37,196.74L79.59,196.69L80.82,197.9L82.04,221.97L83.27,221.95L85.71,220.91L86.94,221.93L88.16,220.63L89.39,221L93.06,220.45L94.29,219.79L95.51,220.04L96.73,219.23L102.86,218.02L104.08,215L105.31,215.72L106.53,187.7L107.76,187.31L108.98,184.12L110.2,186.19L111.43,184.69L112.65,182.15L113.88,183.35L115.1,185.98L116.33,185.26L117.55,185.15L118.78,199.78L120,196.43L121.22,196.2L123.67,194.98L124.9,193.02L126.12,175.19L127.35,175.49L132.24,174.6L133.47,175.16L134.69,169.78L135.92,169.65L137.14,169.27L138.37,167.41L139.59,166.64L140.82,159.31L142.04,155.51L143.27,154.74L144.49,175.16L145.71,165.95L146.94,157.77L148.16,158.29L150.61,113.12L151.84,110.11L154.29,109.56L155.51,107.88L156.73,105.48L157.96,97.85L160.41,95.19L161.63,81.94L162.86,77.53L164.08,76.49L165.31,64.75L166.53,88.99L167.76,95.01L168.98,95.18L171.43,95.97L172.65,95.87L173.88,96.3L175.1,73.53L176.33,67.76L177.55,70.37L180,50.3L181.22,44.11L182.45,41.4L183.67,33.27L184.9,31.44L186.12,34.19L187.35,34.17L188.57,21.39L189.8,16L191.02,17.22L192.24,34.03L193.47,37.8L195.92,44.32L197.14,45.22L198.37,51.39L199.59,50.9L200.82,40.28L202.04,51.87L203.27,69.27L204.49,67.15L205.71,64.39L206.94,110.51L208.16,110.14L209.39,108.53L210.61,108.9L211.84,102.73L214.29,102.29L215.51,124.08L217.96,140.13L219.18,138.29L221.63,108.03L222.86,107.11L225.31,104.66L226.53,115.58L227.76,115.33L228.98,113.98L230.2,93.34L231.43,100.71L232.65,102.04L233.88,94.73L235.1,87.26L236.33,86.64L238.78,84.85L240,82.97L241.22,81.91L242.45,86.5L243.67,81.31L244.9,80.92L247.35,80.74L248.57,79.71L249.8,75.84L251.02,75.27L252.24,75.15L253.47,73.36L258.37,70.88L259.59,71.46L262.04,74.22L263.27,75.67L264.49,18.31L265.71,23.74L266.94,24.16L268.16,27.19L269.39,29.72L270.61,95.07L273.06,97.33L274.29,97.15L275.51,96.48L276.73,167.33L280.41,167.15L281.63,167L284.08,166.62L285.31,165.15L286.53,167.05L287.76,166.89L291.43,166.46L292.65,173.29L296.33,172.39L297.55,172.37L298.78,173.24L300,172.79L302.45,172.32L303.67,164.21L306.12,166.39L307.35,164.38L308.57,161.37L309.8,160.93L311.02,161.08L312.24,162.03L313.47,163.94L314.69,163.1L317.14,163.91L318.37,160.55L319.59,161.23L320.82,160.87L325.71,160.9L326.94,159.85L328.16,166.72L329.39,186.84L333.06,219.37L334.29,224.46L336.73,234.17L337.96,254.59L339.18,257.04L340.41,257.12L341.63,257.13L342.86,258.26L344.08,260.73L345.31,261.09L350.2,262.33L351.43,262.51L355.1,263.72L356.33,263.82L367.35,264.92L368.57,266.55L375.92,266.67L377.14,299.48L461.63,300.15L462.86,300.43L464.08,301.76L465.31,301.76L493.47,301.8L494.69,303.9L540,304" style="fill: rgb(99, 110, 250); fill-opacity: 0.5; stroke-width: 0;"/></g></g><g class="errorbars"/><g class="lines"><path class="js-line" d="M0,221.72L15.92,221.19L17.14,218.68L18.37,216.27L19.59,216.24L22.04,215.31L23.27,216.24L24.49,214.33L25.71,206.71L28.16,187.95L29.39,181.71L33.06,177.33L34.29,173.34L35.51,171.44L36.73,152.83L37.96,158.78L39.18,158.44L40.41,157.74L41.63,163.2L44.08,173.29L45.31,173.55L46.53,176.27L47.76,176.29L50.2,176.39L51.43,178.64L55.1,179.93L56.33,183.01L64.9,183.01L66.12,182.37L67.35,181.6L68.57,179.86L74.69,179L75.92,177.83L77.14,181.42L78.37,196.74L79.59,196.69L80.82,197.9L82.04,221.97L83.27,221.95L85.71,220.91L86.94,221.93L88.16,220.63L89.39,221L93.06,220.45L94.29,219.79L95.51,220.04L96.73,219.23L102.86,218.02L104.08,215L105.31,215.72L106.53,187.7L107.76,187.31L108.98,184.12L110.2,186.19L111.43,184.69L112.65,182.15L113.88,183.35L115.1,185.98L116.33,185.26L117.55,185.15L118.78,199.78L120,196.43L121.22,196.2L123.67,194.98L124.9,193.02L126.12,175.19L127.35,175.49L132.24,174.6L133.47,175.16L134.69,169.78L135.92,169.65L137.14,169.27L138.37,167.41L139.59,166.64L140.82,159.31L142.04,155.51L143.27,154.74L144.49,175.16L145.71,165.95L146.94,157.77L148.16,158.29L150.61,113.12L151.84,110.11L154.29,109.56L155.51,107.88L156.73,105.48L157.96,97.85L160.41,95.19L161.63,81.94L162.86,77.53L164.08,76.49L165.31,64.75L166.53,88.99L167.76,95.01L168.98,95.18L171.43,95.97L172.65,95.87L173.88,96.3L175.1,73.53L176.33,67.76L177.55,70.37L180,50.3L181.22,44.11L182.45,41.4L183.67,33.27L184.9,31.44L186.12,34.19L187.35,34.17L188.57,21.39L189.8,16L191.02,17.22L192.24,34.03L193.47,37.8L195.92,44.32L197.14,45.22L198.37,51.39L199.59,50.9L200.82,40.28L202.04,51.87L203.27,69.27L204.49,67.15L205.71,64.39L206.94,110.51L208.16,110.14L209.39,108.53L210.61,108.9L211.84,102.73L214.29,102.29L215.51,124.08L217.96,140.13L219.18,138.29L221.63,108.03L222.86,107.11L225.31,104.66L226.53,115.58L227.76,115.33L228.98,113.98L230.2,93.34L231.43,100.71L232.65,102.04L233.88,94.73L235.1,87.26L236.33,86.64L238.78,84.85L240,82.97L241.22,81.91L242.45,86.5L243.67,81.31L244.9,80.92L247.35,80.74L248.57,79.71L249.8,75.84L251.02,75.27L252.24,75.15L253.47,73.36L258.37,70.88L259.59,71.46L262.04,74.22L263.27,75.67L264.49,18.31L265.71,23.74L266.94,24.16L268.16,27.19L269.39,29.72L270.61,95.07L273.06,97.33L274.29,97.15L275.51,96.48L276.73,167.33L280.41,167.15L281.63,167L284.08,166.62L285.31,165.15L286.53,167.05L287.76,166.89L291.43,166.46L292.65,173.29L296.33,172.39L297.55,172.37L298.78,173.24L300,172.79L302.45,172.32L303.67,164.21L306.12,166.39L307.35,164.38L308.57,161.37L309.8,160.93L311.02,161.08L312.24,162.03L313.47,163.94L314.69,163.1L317.14,163.91L318.37,160.55L319.59,161.23L320.82,160.87L325.71,160.9L326.94,159.85L328.16,166.72L329.39,186.84L333.06,219.37L334.29,224.46L336.73,234.17L337.96,254.59L339.18,257.04L340.41,257.12L341.63,257.13L342.86,258.26L344.08,260.73L345.31,261.09L350.2,262.33L351.43,262.51L355.1,263.72L356.33,263.82L367.35,264.92L368.57,266.55L375.92,266.67L377.14,299.48L461.63,300.15L462.86,300.43L464.08,301.76L465.31,301.76L493.47,301.8L494.69,303.9L540,304" style="vector-effect: none; fill: none; stroke: rgb(99, 110, 250); stroke-opacity: 1; stroke-width: 2px; opacity: 1;"/></g><g class="points"/><g class="text"/></g></g></g><g class="overplot"/><path class="xlines-above crisp" d="M0,0" style="fill: none;"/><path class="ylines-above crisp" d="M0,0" style="fill: none;"/><g class="overlines-above"/><g class="xaxislayer-above"><g class="xtick"><text text-anchor="middle" x="0" y="433" transform="translate(115.50999999999999,0)" style="font-family: 'Open Sans', verdana, arial, sans-serif; font-size: 12px; fill: rgb(42, 63, 95); fill-opacity: 1; white-space: pre; opacity: 1;">Nov 2022</text></g><g class="xtick"><text text-anchor="middle" x="0" y="433" style="font-family: 'Open Sans', verdana, arial, sans-serif; font-size: 12px; fill: rgb(42, 63, 95); fill-opacity: 1; white-space: pre; opacity: 1;" transform="translate(190.2,0)">Jan 2023</text></g><g class="xtick"><text text-anchor="middle" x="0" y="433" style="font-family: 'Open Sans', verdana, arial, sans-serif; font-size: 12px; fill: rgb(42, 63, 95); fill-opacity: 1; white-space: pre; opacity: 1;" transform="translate(262.45,0)">Mar 2023</text></g><g class="xtick"><text text-anchor="middle" x="0" y="433" style="font-family: 'Open Sans', verdana, arial, sans-serif; font-size: 12px; fill: rgb(42, 63, 95); fill-opacity: 1; white-space: pre; opacity: 1;" transform="translate(337.14,0)">May 2023</text></g><g class="xtick"><text text-anchor="middle" x="0" y="433" style="font-family: 'Open Sans', verdana, arial, sans-serif; font-size: 12px; fill: rgb(42, 63, 95); fill-opacity: 1; white-space: pre; opacity: 1;" transform="translate(411.84,0)">Jul 2023</text></g><g class="xtick"><text text-anchor="middle" x="0" y="433" style="font-family: 'Open Sans', verdana, arial, sans-serif; font-size: 12px; fill: rgb(42, 63, 95); fill-opacity: 1; white-space: pre; opacity: 1;" transform="translate(487.76,0)">Sep 2023</text></g><g class="xtick"><text text-anchor="middle" x="0" y="433" style="font-family: 'Open Sans', verdana, arial, sans-serif; font-size: 12px; fill: rgb(42, 63, 95); fill-opacity: 1; white-space: pre; opacity: 1;" transform="translate(562.45,0)">Nov 2023</text></g></g><g class="yaxislayer-above"><g class="ytick"><text text-anchor="end" x="79" y="4.199999999999999" transform="translate(0,383.31)" style="font-family: 'Open Sans', verdana, arial, sans-serif; font-size: 12px; fill: rgb(42, 63, 95); fill-opacity: 1; white-space: pre; opacity: 1;">$−0.5M</text></g><g class="ytick"><text text-anchor="end" x="79" y="4.199999999999999" style="font-family: 'Open Sans', verdana, arial, sans-serif; font-size: 12px; fill: rgb(42, 63, 95); fill-opacity: 1; white-space: pre; opacity: 1;" transform="translate(0,321.74)">$0</text></g><g class="ytick"><text text-anchor="end" x="79" y="4.199999999999999" style="font-family: 'Open Sans', verdana, arial, sans-serif; font-size: 12px; fill: rgb(42, 63, 95); fill-opacity: 1; white-space: pre; opacity: 1;" transform="translate(0,260.16999999999996)">$0.5M</text></g><g class="ytick"><text text-anchor="end" x="79" y="4.199999999999999" style="font-family: 'Open Sans', verdana, arial, sans-serif; font-size: 12px; fill: rgb(42, 63, 95); fill-opacity: 1; white-space: pre; opacity: 1;" transform="translate(0,198.61)">$1M</text></g><g class="ytick"><text text-anchor="end" x="79" y="4.199999999999999" style="font-family: 'Open Sans', verdana, arial, sans-serif; font-size: 12px; fill: rgb(42, 63, 95); fill-opacity: 1; white-space: pre; opacity: 1;" transform="translate(0,137.04)">$1.5M</text></g></g><g class="overaxes-above"/></g></g><g class="polarlayer"/><g class="smithlayer"/><g class="ternarylayer"/><g class="geolayer"/><g class="funnelarealayer"/><g class="pielayer"/><g class="iciclelayer"/><g class="treemaplayer"/><g class="sunburstlayer"/><g class="glimages"/><defs id="topdefs-17c608"><g class="clips"/></defs><g class="layer-above"><g class="imagelayer"/><g class="shapelayer"/></g><g class="infolayer"><g class="g-gtitle"><text class="gtitle" x="35" y="50" text-anchor="start" dy="0em" style="font-family: 'Open Sans', verdana, arial, sans-serif; font-size: 17px; fill: rgb(42, 63, 95); opacity: 1; font-weight: normal; white-space: pre;"><tspan class="line" dy="0em" x="35" y="50">Beefy - BIFI/WETH: Velodrome</tspan><tspan class="line" dy="1.3em" x="35" y="50">​<tspan style="font-size:70%" dy="-0.6em">Cumulative Net Flows since Program Announcement, Until Program End + 30 Days</tspan><tspan dy="0.42em">​</tspan></tspan></text></g><g class="g-xtitle"><text class="xtitle" x="350" y="460.3" text-anchor="middle" style="font-family: 'Open Sans', verdana, arial, sans-serif; font-size: 14px; fill: rgb(42, 63, 95); opacity: 1; font-weight: normal; white-space: pre;">Day</text></g><g class="g-ytitle"><text class="ytitle" transform="rotate(-90,14.340625000000003,260)" x="14.340625000000003" y="260" text-anchor="middle" style="font-family: 'Open Sans', verdana, arial, sans-serif; font-size: 14px; fill: rgb(42, 63, 95); opacity: 1; font-weight: normal; white-space: pre;">Cumulative Net Flows (USD)</text></g></g></svg>