<svg class="main-svg" xmlns="http://www.w3.org/2000/svg" xmlns:xlink="http://www.w3.org/1999/xlink" width="700" height="500" style="" viewBox="0 0 700 500"><rect x="0" y="0" width="700" height="500" style="fill: rgb(255, 255, 255); fill-opacity: 1;"/><defs id="defs-920c9a"><g class="clips"><clipPath id="clip920c9axyplot" class="plotclip"><rect width="540" height="320"/></clipPath><clipPath class="axesclip" id="clip920c9ax"><rect x="80" y="0" width="540" height="500"/></clipPath><clipPath class="axesclip" id="clip920c9ay"><rect x="0" y="100" width="700" height="320"/></clipPath><clipPath class="axesclip" id="clip920c9axy"><rect x="80" y="100" width="540" height="320"/></clipPath></g><g class="gradients"/><g class="patterns"/></defs><g class="bglayer"><rect class="bg" x="80" y="100" width="540" height="320" style="fill: rgb(229, 236, 246); fill-opacity: 1; stroke-width: 0;"/></g><g class="layer-below"><g class="imagelayer"/><g class="shapelayer"/></g><g class="cartesianlayer"><g class="subplot xy"><g class="layer-subplot"><g class="shapelayer"/><g class="imagelayer"/></g><g class="minor-gridlayer"><g class="x"/><g class="y"/></g><g class="gridlayer"><g class="x"><path class="xgrid crisp" transform="translate(117.74000000000001,0)" d="M0,100v320" style="stroke: rgb(255, 255, 255); stroke-opacity: 1; stroke-width: 1px;"/><path class="xgrid crisp" transform="translate(206.29000000000002,0)" d="M0,100v320" style="stroke: rgb(255, 255, 255); stroke-opacity: 1; stroke-width: 1px;"/><path class="xgrid crisp" transform="translate(294.84000000000003,0)" d="M0,100v320" style="stroke: rgb(255, 255, 255); stroke-opacity: 1; stroke-width: 1px;"/><path class="xgrid crisp" transform="translate(384.84,0)" d="M0,100v320" style="stroke: rgb(255, 255, 255); stroke-opacity: 1; stroke-width: 1px;"/><path class="xgrid crisp" transform="translate(473.39,0)" d="M0,100v320" style="stroke: rgb(255, 255, 255); stroke-opacity: 1; stroke-width: 1px;"/><path class="xgrid crisp" transform="translate(561.94,0)" d="M0,100v320" style="stroke: rgb(255, 255, 255); stroke-opacity: 1; stroke-width: 1px;"/></g><g class="y"><path class="ygrid crisp" transform="translate(0,369.66)" d="M80,0h540" style="stroke: rgb(255, 255, 255); stroke-opacity: 1; stroke-width: 1px;"/><path class="ygrid crisp" transform="translate(0,319.32)" d="M80,0h540" style="stroke: rgb(255, 255, 255); stroke-opacity: 1; stroke-width: 1px;"/><path class="ygrid crisp" transform="translate(0,268.99)" d="M80,0h540" style="stroke: rgb(255, 255, 255); stroke-opacity: 1; stroke-width: 1px;"/><path class="ygrid crisp" transform="translate(0,218.65)" d="M80,0h540" style="stroke: rgb(255, 255, 255); stroke-opacity: 1; stroke-width: 1px;"/><path class="ygrid crisp" transform="translate(0,168.31)" d="M80,0h540" style="stroke: rgb(255, 255, 255); stroke-opacity: 1; stroke-width: 1px;"/><path class="ygrid crisp" transform="translate(0,117.97)" d="M80,0h540" style="stroke: rgb(255, 255, 255); stroke-opacity: 1; stroke-width: 1px;"/></g></g><g class="zerolinelayer"><path class="yzl zl crisp" transform="translate(0,420)" d="M80,0h540" style="stroke: rgb(255, 255, 255); stroke-opacity: 1; stroke-width: 2px;"/></g><path class="xlines-below"/><path class="ylines-below"/><g class="overlines-below"/><g class="xaxislayer-below"/><g class="yaxislayer-below"/><g class="overaxes-below"/><g class="plot" transform="translate(80,100)" clip-path="url(#clip920c9axyplot)"><g class="scatterlayer mlayer"><g class="trace scatter tracecbb6dd" style="stroke-miterlimit: 2;"><g class="fills"><g><path class="js-fill" d="M540,320L0,320L0,285.34L5.81,284.64L7.26,280.73L8.71,244.47L10.16,238.21L13.06,221.75L14.52,212.43L15.97,199.31L17.42,193.96L18.87,192.12L20.32,185.2L21.77,182.98L23.23,172.75L24.68,164.54L26.13,163.04L27.58,152.11L29.03,161.43L30.48,164.78L31.94,175.39L33.39,159.48L34.84,81.78L36.29,81.41L37.74,68.78L39.19,68.51L40.65,70.1L42.1,82.37L43.55,84.35L45,82.49L46.45,85.1L47.9,83.89L49.35,83.76L50.81,81.14L52.26,76.68L53.71,79.08L55.16,84.66L56.61,84.31L58.06,82.21L59.52,85.09L60.97,82.89L62.42,88.66L63.87,88.62L65.32,87.22L66.77,87.96L69.68,83.04L71.13,83.35L74.03,83.92L75.48,82.07L76.94,82.35L78.39,79.97L79.84,80.55L81.29,79.83L82.74,68.35L84.19,67.62L85.65,63.19L87.1,62.88L90,56.42L91.45,57.47L94.35,57.21L95.81,55.49L97.26,59.65L98.71,58.39L100.16,39.89L101.61,51.09L105.97,50.42L107.42,45.99L108.87,44.89L110.32,45.25L111.77,58.68L113.23,56.69L117.58,55.52L119.03,54.53L120.48,51.1L121.94,50.93L124.84,45.95L126.29,46.03L129.19,46.07L130.65,47.43L133.55,47.05L135,51.51L136.45,49.19L137.9,49.22L139.35,46.47L140.81,46.63L142.26,45.18L143.71,50.76L145.16,50.77L146.61,51.91L148.06,50.37L149.52,50.4L150.97,50.46L152.42,49.5L155.32,40.46L156.77,40.41L159.68,36.59L161.13,36.72L164.03,36.36L165.48,34.91L169.84,35.1L171.29,33.31L174.19,34.68L175.65,34.63L177.1,33.28L178.55,28.29L181.45,25.73L182.9,25.21L185.81,23.12L187.26,23.09L190.16,22.42L191.61,20.98L193.06,20.96L194.52,17.13L198.87,17.44L200.32,16L203.23,34.08L204.68,34.15L206.13,31.68L207.58,31.64L209.03,42.11L210.48,75.59L211.94,83.7L213.39,85.86L214.84,94.1L216.29,94.36L219.19,94.81L220.65,94.81L222.1,164.65L223.55,164.74L225,164.74L226.45,199.62L227.9,166.35L229.35,166.4L230.81,166.4L232.26,171.46L233.71,193.35L235.16,193.35L239.52,193.59L240.97,196.63L248.23,196.63L249.68,196.63L254.03,196.8L255.48,201.4L256.94,196.36L258.39,196.48L265.65,196.51L267.1,197.93L272.9,198.67L274.35,201.07L275.81,198.72L277.26,201.07L278.71,198.68L280.16,198.68L300.48,198.68L301.94,201.1L303.39,198.87L304.84,198.87L307.74,198.87L309.19,201L310.65,198.84L312.1,198.85L317.9,198.85L319.35,200.79L320.81,198.85L322.26,198.85L323.71,198.85L325.16,200.98L326.61,198.81L328.06,200.98L330.97,198.86L332.42,199.13L336.77,199.13L338.23,200.83L342.58,199.17L344.03,199.17L357.1,199.17L358.55,200.91L360,199.26L361.45,200.91L362.9,199.25L364.35,199.25L365.81,199.25L367.26,200.87L368.71,199.23L370.16,200.87L371.61,199.25L373.06,200.87L374.52,199.28L375.97,199.28L377.42,200.98L378.87,198.87L441.29,198.91L442.74,201.1L444.19,198.96L445.65,198.96L452.9,198.96L454.35,201.85L455.81,199.07L457.26,199.07L458.71,201.75L460.16,199.25L480.48,199.27L481.94,203.3L483.39,199.52L484.84,199.52L486.29,199.52L487.74,202.98L490.65,199.51L492.1,199.51L502.26,199.51L503.71,203.25L505.16,199.67L506.61,199.67L510.97,199.67L512.42,202.81L513.87,200L515.32,200L526.94,199.99L528.39,202.85L531.29,199.81L532.74,199.81L537.1,199.81L538.55,203.07L540,199.8" style="fill: rgb(99, 110, 250); fill-opacity: 0.5; stroke-width: 0;"/></g></g><g class="errorbars"/><g class="lines"><path class="js-line" d="M0,285.34L5.81,284.64L7.26,280.73L8.71,244.47L10.16,238.21L13.06,221.75L14.52,212.43L15.97,199.31L17.42,193.96L18.87,192.12L20.32,185.2L21.77,182.98L23.23,172.75L24.68,164.54L26.13,163.04L27.58,152.11L29.03,161.43L30.48,164.78L31.94,175.39L33.39,159.48L34.84,81.78L36.29,81.41L37.74,68.78L39.19,68.51L40.65,70.1L42.1,82.37L43.55,84.35L45,82.49L46.45,85.1L47.9,83.89L49.35,83.76L50.81,81.14L52.26,76.68L53.71,79.08L55.16,84.66L56.61,84.31L58.06,82.21L59.52,85.09L60.97,82.89L62.42,88.66L63.87,88.62L65.32,87.22L66.77,87.96L69.68,83.04L71.13,83.35L74.03,83.92L75.48,82.07L76.94,82.35L78.39,79.97L79.84,80.55L81.29,79.83L82.74,68.35L84.19,67.62L85.65,63.19L87.1,62.88L90,56.42L91.45,57.47L94.35,57.21L95.81,55.49L97.26,59.65L98.71,58.39L100.16,39.89L101.61,51.09L105.97,50.42L107.42,45.99L108.87,44.89L110.32,45.25L111.77,58.68L113.23,56.69L117.58,55.52L119.03,54.53L120.48,51.1L121.94,50.93L124.84,45.95L126.29,46.03L129.19,46.07L130.65,47.43L133.55,47.05L135,51.51L136.45,49.19L137.9,49.22L139.35,46.47L140.81,46.63L142.26,45.18L143.71,50.76L145.16,50.77L146.61,51.91L148.06,50.37L149.52,50.4L150.97,50.46L152.42,49.5L155.32,40.46L156.77,40.41L159.68,36.59L161.13,36.72L164.03,36.36L165.48,34.91L169.84,35.1L171.29,33.31L174.19,34.68L175.65,34.63L177.1,33.28L178.55,28.29L181.45,25.73L182.9,25.21L185.81,23.12L187.26,23.09L190.16,22.42L191.61,20.98L193.06,20.96L194.52,17.13L198.87,17.44L200.32,16L203.23,34.08L204.68,34.15L206.13,31.68L207.58,31.64L209.03,42.11L210.48,75.59L211.94,83.7L213.39,85.86L214.84,94.1L216.29,94.36L219.19,94.81L220.65,94.81L222.1,164.65L223.55,164.74L225,164.74L226.45,199.62L227.9,166.35L229.35,166.4L230.81,166.4L232.26,171.46L233.71,193.35L235.16,193.35L239.52,193.59L240.97,196.63L248.23,196.63L249.68,196.63L254.03,196.8L255.48,201.4L256.94,196.36L258.39,196.48L265.65,196.51L267.1,197.93L272.9,198.67L274.35,201.07L275.81,198.72L277.26,201.07L278.71,198.68L280.16,198.68L300.48,198.68L301.94,201.1L303.39,198.87L304.84,198.87L307.74,198.87L309.19,201L310.65,198.84L312.1,198.85L317.9,198.85L319.35,200.79L320.81,198.85L322.26,198.85L323.71,198.85L325.16,200.98L326.61,198.81L328.06,200.98L330.97,198.86L332.42,199.13L336.77,199.13L338.23,200.83L342.58,199.17L344.03,199.17L357.1,199.17L358.55,200.91L360,199.26L361.45,200.91L362.9,199.25L364.35,199.25L365.81,199.25L367.26,200.87L368.71,199.23L370.16,200.87L371.61,199.25L373.06,200.87L374.52,199.28L375.97,199.28L377.42,200.98L378.87,198.87L441.29,198.91L442.74,201.1L444.19,198.96L445.65,198.96L452.9,198.96L454.35,201.85L455.81,199.07L457.26,199.07L458.71,201.75L460.16,199.25L480.48,199.27L481.94,203.3L483.39,199.52L484.84,199.52L486.29,199.52L487.74,202.98L490.65,199.51L492.1,199.51L502.26,199.51L503.71,203.25L505.16,199.67L506.61,199.67L510.97,199.67L512.42,202.81L513.87,200L515.32,200L526.94,199.99L528.39,202.85L531.29,199.81L532.74,199.81L537.1,199.81L538.55,203.07L540,199.8" style="vector-effect: none; fill: none; stroke: rgb(99, 110, 250); stroke-opacity: 1; stroke-width: 2px; opacity: 1;"/></g><g class="points"/><g class="text"/></g></g></g><g class="overplot"/><path class="xlines-above crisp" d="M0,0" style="fill: none;"/><path class="ylines-above crisp" d="M0,0" style="fill: none;"/><g class="overlines-above"/><g class="xaxislayer-above"><g class="xtick"><text text-anchor="middle" x="0" y="433" transform="translate(117.74000000000001,0)" style="font-family: 'Open Sans', verdana, arial, sans-serif; font-size: 12px; fill: rgb(42, 63, 95); fill-opacity: 1; white-space: pre; opacity: 1;">Mar 2023</text></g><g class="xtick"><text text-anchor="middle" x="0" y="433" style="font-family: 'Open Sans', verdana, arial, sans-serif; font-size: 12px; fill: rgb(42, 63, 95); fill-opacity: 1; white-space: pre; opacity: 1;" transform="translate(206.29000000000002,0)">May 2023</text></g><g class="xtick"><text text-anchor="middle" x="0" y="433" style="font-family: 'Open Sans', verdana, arial, sans-serif; font-size: 12px; fill: rgb(42, 63, 95); fill-opacity: 1; white-space: pre; opacity: 1;" transform="translate(294.84000000000003,0)">Jul 2023</text></g><g class="xtick"><text text-anchor="middle" x="0" y="433" style="font-family: 'Open Sans', verdana, arial, sans-serif; font-size: 12px; fill: rgb(42, 63, 95); fill-opacity: 1; white-space: pre; opacity: 1;" transform="translate(384.84,0)">Sep 2023</text></g><g class="xtick"><text text-anchor="middle" x="0" y="433" style="font-family: 'Open Sans', verdana, arial, sans-serif; font-size: 12px; fill: rgb(42, 63, 95); fill-opacity: 1; white-space: pre; opacity: 1;" transform="translate(473.39,0)">Nov 2023</text></g><g class="xtick"><text text-anchor="middle" x="0" y="433" style="font-family: 'Open Sans', verdana, arial, sans-serif; font-size: 12px; fill: rgb(42, 63, 95); fill-opacity: 1; white-space: pre; opacity: 1;" transform="translate(561.94,0)">Jan 2024</text></g></g><g class="yaxislayer-above"><g class="ytick"><text text-anchor="end" x="79" y="4.199999999999999" transform="translate(0,420)" style="font-family: 'Open Sans', verdana, arial, sans-serif; font-size: 12px; fill: rgb(42, 63, 95); fill-opacity: 1; white-space: pre; opacity: 1;">$0</text></g><g class="ytick"><text text-anchor="end" x="79" y="4.199999999999999" style="font-family: 'Open Sans', verdana, arial, sans-serif; font-size: 12px; fill: rgb(42, 63, 95); fill-opacity: 1; white-space: pre; opacity: 1;" transform="translate(0,369.66)">$0.2M</text></g><g class="ytick"><text text-anchor="end" x="79" y="4.199999999999999" style="font-family: 'Open Sans', verdana, arial, sans-serif; font-size: 12px; fill: rgb(42, 63, 95); fill-opacity: 1; white-space: pre; opacity: 1;" transform="translate(0,319.32)">$0.4M</text></g><g class="ytick"><text text-anchor="end" x="79" y="4.199999999999999" style="font-family: 'Open Sans', verdana, arial, sans-serif; font-size: 12px; fill: rgb(42, 63, 95); fill-opacity: 1; white-space: pre; opacity: 1;" transform="translate(0,268.99)">$0.6M</text></g><g class="ytick"><text text-anchor="end" x="79" y="4.199999999999999" style="font-family: 'Open Sans', verdana, arial, sans-serif; font-size: 12px; fill: rgb(42, 63, 95); fill-opacity: 1; white-space: pre; opacity: 1;" transform="translate(0,218.65)">$0.8M</text></g><g class="ytick"><text text-anchor="end" x="79" y="4.199999999999999" style="font-family: 'Open Sans', verdana, arial, sans-serif; font-size: 12px; fill: rgb(42, 63, 95); fill-opacity: 1; white-space: pre; opacity: 1;" transform="translate(0,168.31)">$1M</text></g><g class="ytick"><text text-anchor="end" x="79" y="4.199999999999999" style="font-family: 'Open Sans', verdana, arial, sans-serif; font-size: 12px; fill: rgb(42, 63, 95); fill-opacity: 1; white-space: pre; opacity: 1;" transform="translate(0,117.97)">$1.2M</text></g></g><g class="overaxes-above"/></g></g><g class="polarlayer"/><g class="smithlayer"/><g class="ternarylayer"/><g class="geolayer"/><g class="funnelarealayer"/><g class="pielayer"/><g class="iciclelayer"/><g class="treemaplayer"/><g class="sunburstlayer"/><g class="glimages"/><defs id="topdefs-920c9a"><g class="clips"/></defs><g class="layer-above"><g class="imagelayer"/><g class="shapelayer"/></g><g class="infolayer"><g class="g-gtitle"><text class="gtitle" x="35" y="50" text-anchor="start" dy="0em" style="font-family: 'Open Sans', verdana, arial, sans-serif; font-size: 17px; fill: rgb(42, 63, 95); opacity: 1; font-weight: normal; white-space: pre;"><tspan class="line" dy="0em" x="35" y="50">Dhedge - DHT/OP: Velodrome</tspan><tspan class="line" dy="1.3em" x="35" y="50">​<tspan style="font-size:70%" dy="-0.6em">Cumulative Net Flows since Program Announcement, Until Program End + 30 Days</tspan><tspan dy="0.42em">​</tspan></tspan></text></g><g class="g-xtitle"><text class="xtitle" x="350" y="460.3" text-anchor="middle" style="font-family: 'Open Sans', verdana, arial, sans-serif; font-size: 14px; fill: rgb(42, 63, 95); opacity: 1; font-weight: normal; white-space: pre;">Day</text></g><g class="g-ytitle"><text class="ytitle" transform="rotate(-90,21.340625000000003,260)" x="21.340625000000003" y="260" text-anchor="middle" style="font-family: 'Open Sans', verdana, arial, sans-serif; font-size: 14px; fill: rgb(42, 63, 95); opacity: 1; font-weight: normal; white-space: pre;">Cumulative Net Flows (USD)</text></g></g></svg>