<svg class="main-svg" xmlns="http://www.w3.org/2000/svg" xmlns:xlink="http://www.w3.org/1999/xlink" width="700" height="500" style="" viewBox="0 0 700 500"><rect x="0" y="0" width="700" height="500" style="fill: rgb(255, 255, 255); fill-opacity: 1;"/><defs id="defs-47f5d4"><g class="clips"><clipPath id="clip47f5d4xyplot" class="plotclip"><rect width="540" height="320"/></clipPath><clipPath class="axesclip" id="clip47f5d4x"><rect x="80" y="0" width="540" height="500"/></clipPath><clipPath class="axesclip" id="clip47f5d4y"><rect x="0" y="100" width="700" height="320"/></clipPath><clipPath class="axesclip" id="clip47f5d4xy"><rect x="80" y="100" width="540" height="320"/></clipPath></g><g class="gradients"/><g class="patterns"/></defs><g class="bglayer"><rect class="bg" x="80" y="100" width="540" height="320" style="fill: rgb(229, 236, 246); fill-opacity: 1; stroke-width: 0;"/></g><g class="layer-below"><g class="imagelayer"/><g class="shapelayer"/></g><g class="cartesianlayer"><g class="subplot xy"><g class="layer-subplot"><g class="shapelayer"/><g class="imagelayer"/></g><g class="minor-gridlayer"><g class="x"/><g class="y"/></g><g class="gridlayer"><g class="x"><path class="xgrid crisp" transform="translate(154.22,0)" d="M0,100v320" style="stroke: rgb(255, 255, 255); stroke-opacity: 1; stroke-width: 1px;"/><path class="xgrid crisp" transform="translate(231,0)" d="M0,100v320" style="stroke: rgb(255, 255, 255); stroke-opacity: 1; stroke-width: 1px;"/><path class="xgrid crisp" transform="translate(310.33000000000004,0)" d="M0,100v320" style="stroke: rgb(255, 255, 255); stroke-opacity: 1; stroke-width: 1px;"/><path class="xgrid crisp" transform="translate(389.67,0)" d="M0,100v320" style="stroke: rgb(255, 255, 255); stroke-opacity: 1; stroke-width: 1px;"/><path class="xgrid crisp" transform="translate(461.33,0)" d="M0,100v320" style="stroke: rgb(255, 255, 255); stroke-opacity: 1; stroke-width: 1px;"/><path class="xgrid crisp" transform="translate(540.6600000000001,0)" d="M0,100v320" style="stroke: rgb(255, 255, 255); stroke-opacity: 1; stroke-width: 1px;"/><path class="xgrid crisp" transform="translate(617.44,0)" d="M0,100v320" style="stroke: rgb(255, 255, 255); stroke-opacity: 1; stroke-width: 1px;"/></g><g class="y"><path class="ygrid crisp" transform="translate(0,348.23)" d="M80,0h540" style="stroke: rgb(255, 255, 255); stroke-opacity: 1; stroke-width: 1px;"/><path class="ygrid crisp" transform="translate(0,276.47)" d="M80,0h540" style="stroke: rgb(255, 255, 255); stroke-opacity: 1; stroke-width: 1px;"/><path class="ygrid crisp" transform="translate(0,204.7)" d="M80,0h540" style="stroke: rgb(255, 255, 255); stroke-opacity: 1; stroke-width: 1px;"/><path class="ygrid crisp" transform="translate(0,132.94)" d="M80,0h540" style="stroke: rgb(255, 255, 255); stroke-opacity: 1; stroke-width: 1px;"/></g></g><g class="zerolinelayer"><path class="yzl zl crisp" transform="translate(0,420)" d="M80,0h540" style="stroke: rgb(255, 255, 255); stroke-opacity: 1; stroke-width: 2px;"/></g><path class="xlines-below"/><path class="ylines-below"/><g class="overlines-below"/><g class="xaxislayer-below"/><g class="yaxislayer-below"/><g class="overaxes-below"/><g class="plot" transform="translate(80,100)" clip-path="url(#clip47f5d4xyplot)"><g class="scatterlayer mlayer"><g class="trace scatter trace6dd5e2" style="stroke-miterlimit: 2;"><g class="fills"><g><path class="js-fill" d="M540,320L0,320L0,317.52L2.56,317.52L5.12,306.99L10.24,300.94L12.8,293.99L17.91,293.64L20.47,293.21L23.03,292.72L25.59,276.41L28.15,255.71L30.71,255.56L33.27,255.29L35.83,252.37L38.39,249.55L40.95,249.52L46.07,248.44L48.63,249.53L51.18,247.29L53.74,238.4L56.3,224.67L58.86,216.53L61.42,209.26L63.98,207.53L66.54,207.02L69.1,204.16L71.66,199.51L74.22,197.29L76.78,175.56L79.34,182.5L84.45,181.29L87.01,187.65L92.13,199.41L94.69,199.71L97.25,202.9L99.81,202.92L104.93,203.03L107.49,205.65L110.05,206.34L112.61,206.2L115.17,207.16L117.73,210.75L133.08,211.43L135.64,210.75L140.76,209.1L143.32,207.07L156.11,206.07L158.67,204.71L161.23,208.9L163.79,226.75L166.35,226.69L168.91,228.11L171.47,256.16L174.03,256.14L176.59,254.99L179.15,254.93L181.71,256.11L184.27,254.6L189.38,254.99L191.94,254.63L204.74,252.71L207.3,251.98L214.98,251.56L217.54,248.04L220.09,248.88L222.65,216.2L225.21,215.75L227.77,212.03L230.33,214.44L232.89,212.69L235.45,209.73L238.01,211.12L240.57,214.19L243.13,213.35L245.69,213.22L248.25,230.28L250.81,226.38L253.36,226.12L258.48,224.69L261.04,222.4L263.6,201.59L266.16,201.94L276.4,200.89L278.96,201.55L281.52,195.29L284.08,195.13L286.64,194.68L289.19,192.51L291.75,191.62L294.31,183.08L296.87,178.65L299.43,177.75L301.99,201.54L304.55,190.8L307.11,181.28L309.67,181.89L312.23,148.05L314.79,129.27L317.35,125.77L319.91,125.16L322.46,125.13L325.02,123.16L327.58,120.38L330.14,111.47L335.26,108.36L337.82,92.88L340.38,87.75L342.94,86.54L345.5,72.85L348.06,101.1L350.62,108.14L353.18,108.33L358.29,109.26L360.85,109.14L363.41,109.64L365.97,83.06L368.53,76.34L371.09,79.38L373.65,63.69L376.21,55.98L378.77,48.75L381.33,45.6L383.89,36.13L386.45,33.99L389,37.19L391.56,37.17L394.12,22.28L396.68,16L399.24,17.42L401.8,37L406.92,46.33L409.48,49.01L412.04,50.06L414.6,57.26L417.16,56.69L419.72,44.28L422.27,57.8L424.83,78.01L429.95,72.33L432.51,126.07L435.07,125.64L437.63,123.77L440.19,124.19L442.75,117.01L447.87,116.5L450.43,141.89L455.55,160.61L458.1,158.46L460.66,143.13L463.22,123.2L465.78,122.12L468.34,120.15L470.9,119.27L473.46,132L476.02,131.71L478.58,130.14L481.14,106.07L483.7,114.65L486.26,116.2L488.82,107.69L491.37,98.97L493.93,98.25L499.05,96.16L501.61,93.97L504.17,92.73L506.73,98.08L509.29,92.04L511.85,91.58L514.41,91.89L516.97,91.37L519.53,90.18L522.09,85.66L527.2,84.86L529.76,82.77L534.88,80.63L537.44,80.8L540,80.79" style="fill: rgb(99, 110, 250); fill-opacity: 0.5; stroke-width: 0;"/></g></g><g class="errorbars"/><g class="lines"><path class="js-line" d="M0,317.52L2.56,317.52L5.12,306.99L10.24,300.94L12.8,293.99L17.91,293.64L20.47,293.21L23.03,292.72L25.59,276.41L28.15,255.71L30.71,255.56L33.27,255.29L35.83,252.37L38.39,249.55L40.95,249.52L46.07,248.44L48.63,249.53L51.18,247.29L53.74,238.4L56.3,224.67L58.86,216.53L61.42,209.26L63.98,207.53L66.54,207.02L69.1,204.16L71.66,199.51L74.22,197.29L76.78,175.56L79.34,182.5L84.45,181.29L87.01,187.65L92.13,199.41L94.69,199.71L97.25,202.9L99.81,202.92L104.93,203.03L107.49,205.65L110.05,206.34L112.61,206.2L115.17,207.16L117.73,210.75L133.08,211.43L135.64,210.75L140.76,209.1L143.32,207.07L156.11,206.07L158.67,204.71L161.23,208.9L163.79,226.75L166.35,226.69L168.91,228.11L171.47,256.16L174.03,256.14L176.59,254.99L179.15,254.93L181.71,256.11L184.27,254.6L189.38,254.99L191.94,254.63L204.74,252.71L207.3,251.98L214.98,251.56L217.54,248.04L220.09,248.88L222.65,216.2L225.21,215.75L227.77,212.03L230.33,214.44L232.89,212.69L235.45,209.73L238.01,211.12L240.57,214.19L243.13,213.35L245.69,213.22L248.25,230.28L250.81,226.38L253.36,226.12L258.48,224.69L261.04,222.4L263.6,201.59L266.16,201.94L276.4,200.89L278.96,201.55L281.52,195.29L284.08,195.13L286.64,194.68L289.19,192.51L291.75,191.62L294.31,183.08L296.87,178.65L299.43,177.75L301.99,201.54L304.55,190.8L307.11,181.28L309.67,181.89L312.23,148.05L314.79,129.27L317.35,125.77L319.91,125.16L322.46,125.13L325.02,123.16L327.58,120.38L330.14,111.47L335.26,108.36L337.82,92.88L340.38,87.75L342.94,86.54L345.5,72.85L348.06,101.1L350.62,108.14L353.18,108.33L358.29,109.26L360.85,109.14L363.41,109.64L365.97,83.06L368.53,76.34L371.09,79.38L373.65,63.69L376.21,55.98L378.77,48.75L381.33,45.6L383.89,36.13L386.45,33.99L389,37.19L391.56,37.17L394.12,22.28L396.68,16L399.24,17.42L401.8,37L406.92,46.33L409.48,49.01L412.04,50.06L414.6,57.26L417.16,56.69L419.72,44.28L422.27,57.8L424.83,78.01L429.95,72.33L432.51,126.07L435.07,125.64L437.63,123.77L440.19,124.19L442.75,117.01L447.87,116.5L450.43,141.89L455.55,160.61L458.1,158.46L460.66,143.13L463.22,123.2L465.78,122.12L468.34,120.15L470.9,119.27L473.46,132L476.02,131.71L478.58,130.14L481.14,106.07L483.7,114.65L486.26,116.2L488.82,107.69L491.37,98.97L493.93,98.25L499.05,96.16L501.61,93.97L504.17,92.73L506.73,98.08L509.29,92.04L511.85,91.58L514.41,91.89L516.97,91.37L519.53,90.18L522.09,85.66L527.2,84.86L529.76,82.77L534.88,80.63L537.44,80.8L540,80.79" style="vector-effect: none; fill: none; stroke: rgb(99, 110, 250); stroke-opacity: 1; stroke-width: 2px; opacity: 1;"/></g><g class="points"/><g class="text"/></g></g></g><g class="overplot"/><path class="xlines-above crisp" d="M0,0" style="fill: none;"/><path class="ylines-above crisp" d="M0,0" style="fill: none;"/><g class="overlines-above"/><g class="xaxislayer-above"><g class="xtick"><text text-anchor="middle" x="0" y="433" transform="translate(154.22,0)" style="font-family: 'Open Sans', verdana, arial, sans-serif; font-size: 12px; fill: rgb(42, 63, 95); fill-opacity: 1; white-space: pre; opacity: 1;">Nov 2022</text></g><g class="xtick"><text text-anchor="middle" x="0" y="433" style="font-family: 'Open Sans', verdana, arial, sans-serif; font-size: 12px; fill: rgb(42, 63, 95); fill-opacity: 1; white-space: pre; opacity: 1;" transform="translate(231,0)">Dec 2022</text></g><g class="xtick"><text text-anchor="middle" x="0" y="433" style="font-family: 'Open Sans', verdana, arial, sans-serif; font-size: 12px; fill: rgb(42, 63, 95); fill-opacity: 1; white-space: pre; opacity: 1;" transform="translate(310.33000000000004,0)">Jan 2023</text></g><g class="xtick"><text text-anchor="middle" x="0" y="433" style="font-family: 'Open Sans', verdana, arial, sans-serif; font-size: 12px; fill: rgb(42, 63, 95); fill-opacity: 1; white-space: pre; opacity: 1;" transform="translate(389.67,0)">Feb 2023</text></g><g class="xtick"><text text-anchor="middle" x="0" y="433" style="font-family: 'Open Sans', verdana, arial, sans-serif; font-size: 12px; fill: rgb(42, 63, 95); fill-opacity: 1; white-space: pre; opacity: 1;" transform="translate(461.33,0)">Mar 2023</text></g><g class="xtick"><text text-anchor="middle" x="0" y="433" style="font-family: 'Open Sans', verdana, arial, sans-serif; font-size: 12px; fill: rgb(42, 63, 95); fill-opacity: 1; white-space: pre; opacity: 1;" transform="translate(540.6600000000001,0)">Apr 2023</text></g><g class="xtick"><text text-anchor="middle" x="0" y="433" style="font-family: 'Open Sans', verdana, arial, sans-serif; font-size: 12px; fill: rgb(42, 63, 95); fill-opacity: 1; white-space: pre; opacity: 1;" transform="translate(617.44,0)">May 2023</text></g></g><g class="yaxislayer-above"><g class="ytick"><text text-anchor="end" x="79" y="4.199999999999999" transform="translate(0,420)" style="font-family: 'Open Sans', verdana, arial, sans-serif; font-size: 12px; fill: rgb(42, 63, 95); fill-opacity: 1; white-space: pre; opacity: 1;">$0</text></g><g class="ytick"><text text-anchor="end" x="79" y="4.199999999999999" style="font-family: 'Open Sans', verdana, arial, sans-serif; font-size: 12px; fill: rgb(42, 63, 95); fill-opacity: 1; white-space: pre; opacity: 1;" transform="translate(0,348.23)">$0.5M</text></g><g class="ytick"><text text-anchor="end" x="79" y="4.199999999999999" style="font-family: 'Open Sans', verdana, arial, sans-serif; font-size: 12px; fill: rgb(42, 63, 95); fill-opacity: 1; white-space: pre; opacity: 1;" transform="translate(0,276.47)">$1M</text></g><g class="ytick"><text text-anchor="end" x="79" y="4.199999999999999" style="font-family: 'Open Sans', verdana, arial, sans-serif; font-size: 12px; fill: rgb(42, 63, 95); fill-opacity: 1; white-space: pre; opacity: 1;" transform="translate(0,204.7)">$1.5M</text></g><g class="ytick"><text text-anchor="end" x="79" y="4.199999999999999" style="font-family: 'Open Sans', verdana, arial, sans-serif; font-size: 12px; fill: rgb(42, 63, 95); fill-opacity: 1; white-space: pre; opacity: 1;" transform="translate(0,132.94)">$2M</text></g></g><g class="overaxes-above"/></g></g><g class="polarlayer"/><g class="smithlayer"/><g class="ternarylayer"/><g class="geolayer"/><g class="funnelarealayer"/><g class="pielayer"/><g class="iciclelayer"/><g class="treemaplayer"/><g class="sunburstlayer"/><g class="glimages"/><defs id="topdefs-47f5d4"><g class="clips"/></defs><g class="layer-above"><g class="imagelayer"/><g class="shapelayer"/></g><g class="infolayer"><g class="g-gtitle"><text class="gtitle" x="35" y="50" text-anchor="start" dy="0em" style="font-family: 'Open Sans', verdana, arial, sans-serif; font-size: 17px; fill: rgb(42, 63, 95); opacity: 1; font-weight: normal; white-space: pre;"><tspan class="line" dy="0em" x="35" y="50">Beefy - BIFI/WETH: Velodrome</tspan><tspan class="line" dy="1.3em" x="35" y="50">​<tspan style="font-size:70%" dy="-0.6em">Cumulative Net Flows since Program Announcement, Until Program End + 30 Days</tspan><tspan dy="0.42em">​</tspan></tspan></text></g><g class="g-xtitle"><text class="xtitle" x="350" y="460.3" text-anchor="middle" style="font-family: 'Open Sans', verdana, arial, sans-serif; font-size: 14px; fill: rgb(42, 63, 95); opacity: 1; font-weight: normal; white-space: pre;">Day</text></g><g class="g-ytitle"><text class="ytitle" transform="rotate(-90,21.340625000000003,260)" x="21.340625000000003" y="260" text-anchor="middle" style="font-family: 'Open Sans', verdana, arial, sans-serif; font-size: 14px; fill: rgb(42, 63, 95); opacity: 1; font-weight: normal; white-space: pre;">Cumulative Net Flows (USD)</text></g></g></svg>