<svg class="main-svg" xmlns="http://www.w3.org/2000/svg" xmlns:xlink="http://www.w3.org/1999/xlink" width="700" height="500" style="" viewBox="0 0 700 500"><rect x="0" y="0" width="700" height="500" style="fill: rgb(255, 255, 255); fill-opacity: 1;"/><defs id="defs-482719"><g class="clips"><clipPath id="clip482719xyplot" class="plotclip"><rect width="540" height="320"/></clipPath><clipPath class="axesclip" id="clip482719x"><rect x="80" y="0" width="540" height="500"/></clipPath><clipPath class="axesclip" id="clip482719y"><rect x="0" y="100" width="700" height="320"/></clipPath><clipPath class="axesclip" id="clip482719xy"><rect x="80" y="100" width="540" height="320"/></clipPath></g><g class="gradients"/><g class="patterns"/></defs><g class="bglayer"><rect class="bg" x="80" y="100" width="540" height="320" style="fill: rgb(229, 236, 246); fill-opacity: 1; stroke-width: 0;"/></g><g class="layer-below"><g class="imagelayer"/><g class="shapelayer"/></g><g class="cartesianlayer"><g class="subplot xy"><g class="layer-subplot"><g class="shapelayer"/><g class="imagelayer"/></g><g class="minor-gridlayer"><g class="x"/><g class="y"/></g><g class="gridlayer"><g class="x"><path class="xgrid crisp" transform="translate(87.61,0)" d="M0,100v320" style="stroke: rgb(255, 255, 255); stroke-opacity: 1; stroke-width: 1px;"/><path class="xgrid crisp" transform="translate(166.2,0)" d="M0,100v320" style="stroke: rgb(255, 255, 255); stroke-opacity: 1; stroke-width: 1px;"/><path class="xgrid crisp" transform="translate(244.79,0)" d="M0,100v320" style="stroke: rgb(255, 255, 255); stroke-opacity: 1; stroke-width: 1px;"/><path class="xgrid crisp" transform="translate(315.77,0)" d="M0,100v320" style="stroke: rgb(255, 255, 255); stroke-opacity: 1; stroke-width: 1px;"/><path class="xgrid crisp" transform="translate(394.37,0)" d="M0,100v320" style="stroke: rgb(255, 255, 255); stroke-opacity: 1; stroke-width: 1px;"/><path class="xgrid crisp" transform="translate(470.42,0)" d="M0,100v320" style="stroke: rgb(255, 255, 255); stroke-opacity: 1; stroke-width: 1px;"/><path class="xgrid crisp" transform="translate(549.01,0)" d="M0,100v320" style="stroke: rgb(255, 255, 255); stroke-opacity: 1; stroke-width: 1px;"/></g><g class="y"><path class="ygrid crisp" transform="translate(0,358.96)" d="M80,0h540" style="stroke: rgb(255, 255, 255); stroke-opacity: 1; stroke-width: 1px;"/><path class="ygrid crisp" transform="translate(0,322.90999999999997)" d="M80,0h540" style="stroke: rgb(255, 255, 255); stroke-opacity: 1; stroke-width: 1px;"/><path class="ygrid crisp" transform="translate(0,286.86)" d="M80,0h540" style="stroke: rgb(255, 255, 255); stroke-opacity: 1; stroke-width: 1px;"/><path class="ygrid crisp" transform="translate(0,250.81)" d="M80,0h540" style="stroke: rgb(255, 255, 255); stroke-opacity: 1; stroke-width: 1px;"/><path class="ygrid crisp" transform="translate(0,214.76)" d="M80,0h540" style="stroke: rgb(255, 255, 255); stroke-opacity: 1; stroke-width: 1px;"/><path class="ygrid crisp" transform="translate(0,178.72)" d="M80,0h540" style="stroke: rgb(255, 255, 255); stroke-opacity: 1; stroke-width: 1px;"/><path class="ygrid crisp" transform="translate(0,142.67000000000002)" d="M80,0h540" style="stroke: rgb(255, 255, 255); stroke-opacity: 1; stroke-width: 1px;"/><path class="ygrid crisp" transform="translate(0,106.62)" d="M80,0h540" style="stroke: rgb(255, 255, 255); stroke-opacity: 1; stroke-width: 1px;"/></g></g><g class="zerolinelayer"><path class="yzl zl crisp" transform="translate(0,395.01)" d="M80,0h540" style="stroke: rgb(255, 255, 255); stroke-opacity: 1; stroke-width: 2px;"/></g><path class="xlines-below"/><path class="ylines-below"/><g class="overlines-below"/><g class="xaxislayer-below"/><g class="yaxislayer-below"/><g class="overaxes-below"/><g class="plot" transform="translate(80,100)" clip-path="url(#clip482719xyplot)"><g class="scatterlayer mlayer"><g class="trace scatter trace6aa1c8" style="stroke-miterlimit: 2;"><g class="fills"><g><path class="js-fill" d="M540,295.01L0,295.01L0,295.01L2.54,267.79L5.07,256.94L10.14,248.09L12.68,249.18L17.75,242.97L20.28,241.48L30.42,241.54L32.96,239.09L35.49,238.72L38.03,239.38L40.56,150.85L43.1,103.27L45.63,37.39L48.17,21.99L50.7,16L53.24,17.02L55.77,20.99L58.31,141.34L60.85,180.6L63.38,192.12L68.45,195.64L70.99,194.89L73.52,192.73L76.06,211.19L78.59,213.65L81.13,214.58L88.73,217.79L91.27,219.38L93.8,219.79L96.34,214.81L101.41,213.17L103.94,214.04L111.55,207.87L114.08,208.45L116.62,208.97L119.15,207.74L124.23,205.57L126.76,205.91L129.3,205.16L131.83,206.79L136.9,215.76L139.44,214.82L144.51,210.29L147.04,211.53L149.58,252.63L152.11,215.12L154.65,208.28L157.18,208.2L159.72,204.56L162.25,204.6L164.79,208.79L167.32,208.04L169.86,201.54L172.39,201.07L177.46,199.92L180,199.54L182.54,199.22L185.07,199.74L187.61,200.64L190.14,185.03L195.21,182.67L197.75,179.1L200.28,179.01L202.82,180.61L205.35,177.86L207.89,178.59L210.42,187.46L212.96,187.41L215.49,192.88L218.03,193.65L220.56,196.47L223.1,197.43L225.63,191.66L228.17,191.91L230.7,186.61L233.24,185.9L235.77,185.94L238.31,187.37L240.85,187.66L243.38,304L248.45,191.63L250.99,192.53L253.52,192.02L256.06,188.37L258.59,191.62L261.13,196.46L263.66,204.56L266.2,208.32L268.73,198.66L271.27,198.34L273.8,196.49L276.34,196.11L278.87,190.97L281.41,190.26L283.94,190.72L286.48,192.87L289.01,190.42L291.55,193.63L296.62,196.5L299.15,197.85L301.69,204.22L306.76,203.41L309.3,206.22L311.83,191.92L314.37,184.28L316.9,181.84L319.44,180.75L324.51,181.79L327.04,178.79L329.58,172.54L332.11,174.93L334.65,175.22L337.18,171.73L339.72,169.35L342.25,170.15L347.32,170.26L349.86,165.69L354.93,165.69L540,165.73" style="fill: rgb(99, 110, 250); fill-opacity: 0.5; stroke-width: 0;"/></g></g><g class="errorbars"/><g class="lines"><path class="js-line" d="M0,295.01L2.54,267.79L5.07,256.94L10.14,248.09L12.68,249.18L17.75,242.97L20.28,241.48L30.42,241.54L32.96,239.09L35.49,238.72L38.03,239.38L40.56,150.85L43.1,103.27L45.63,37.39L48.17,21.99L50.7,16L53.24,17.02L55.77,20.99L58.31,141.34L60.85,180.6L63.38,192.12L68.45,195.64L70.99,194.89L73.52,192.73L76.06,211.19L78.59,213.65L81.13,214.58L88.73,217.79L91.27,219.38L93.8,219.79L96.34,214.81L101.41,213.17L103.94,214.04L111.55,207.87L114.08,208.45L116.62,208.97L119.15,207.74L124.23,205.57L126.76,205.91L129.3,205.16L131.83,206.79L136.9,215.76L139.44,214.82L144.51,210.29L147.04,211.53L149.58,252.63L152.11,215.12L154.65,208.28L157.18,208.2L159.72,204.56L162.25,204.6L164.79,208.79L167.32,208.04L169.86,201.54L172.39,201.07L177.46,199.92L180,199.54L182.54,199.22L185.07,199.74L187.61,200.64L190.14,185.03L195.21,182.67L197.75,179.1L200.28,179.01L202.82,180.61L205.35,177.86L207.89,178.59L210.42,187.46L212.96,187.41L215.49,192.88L218.03,193.65L220.56,196.47L223.1,197.43L225.63,191.66L228.17,191.91L230.7,186.61L233.24,185.9L235.77,185.94L238.31,187.37L240.85,187.66L243.38,304L248.45,191.63L250.99,192.53L253.52,192.02L256.06,188.37L258.59,191.62L261.13,196.46L263.66,204.56L266.2,208.32L268.73,198.66L271.27,198.34L273.8,196.49L276.34,196.11L278.87,190.97L281.41,190.26L283.94,190.72L286.48,192.87L289.01,190.42L291.55,193.63" style="vector-effect: none; fill: none; stroke: rgb(99, 110, 250); stroke-opacity: 1; stroke-width: 2px; opacity: 1;"/><path class="js-line" d="M296.62,196.5L299.15,197.85L301.69,204.22L306.76,203.41L309.3,206.22L311.83,191.92L314.37,184.28L316.9,181.84L319.44,180.75L324.51,181.79L327.04,178.79L329.58,172.54L332.11,174.93L334.65,175.22L337.18,171.73L339.72,169.35L342.25,170.15L347.32,170.26L349.86,165.69" style="vector-effect: none; fill: none; stroke: rgb(99, 110, 250); stroke-opacity: 1; stroke-width: 2px; opacity: 1;"/><path class="js-line" d="M354.93,165.69L540,165.73" style="vector-effect: none; fill: none; stroke: rgb(99, 110, 250); stroke-opacity: 1; stroke-width: 2px; opacity: 1;"/></g><g class="points"/><g class="text"/></g></g></g><g class="overplot"/><path class="xlines-above crisp" d="M0,0" style="fill: none;"/><path class="ylines-above crisp" d="M0,0" style="fill: none;"/><g class="overlines-above"/><g class="xaxislayer-above"><g class="xtick"><text text-anchor="middle" x="0" y="433" transform="translate(87.61,0)" style="font-family: 'Open Sans', verdana, arial, sans-serif; font-size: 12px; fill: rgb(42, 63, 95); fill-opacity: 1; white-space: pre; opacity: 1;">Dec 2022</text></g><g class="xtick"><text text-anchor="middle" x="0" y="433" style="font-family: 'Open Sans', verdana, arial, sans-serif; font-size: 12px; fill: rgb(42, 63, 95); fill-opacity: 1; white-space: pre; opacity: 1;" transform="translate(166.2,0)">Jan 2023</text></g><g class="xtick"><text text-anchor="middle" x="0" y="433" style="font-family: 'Open Sans', verdana, arial, sans-serif; font-size: 12px; fill: rgb(42, 63, 95); fill-opacity: 1; white-space: pre; opacity: 1;" transform="translate(244.79,0)">Feb 2023</text></g><g class="xtick"><text text-anchor="middle" x="0" y="433" style="font-family: 'Open Sans', verdana, arial, sans-serif; font-size: 12px; fill: rgb(42, 63, 95); fill-opacity: 1; white-space: pre; opacity: 1;" transform="translate(315.77,0)">Mar 2023</text></g><g class="xtick"><text text-anchor="middle" x="0" y="433" style="font-family: 'Open Sans', verdana, arial, sans-serif; font-size: 12px; fill: rgb(42, 63, 95); fill-opacity: 1; white-space: pre; opacity: 1;" transform="translate(394.37,0)">Apr 2023</text></g><g class="xtick"><text text-anchor="middle" x="0" y="433" style="font-family: 'Open Sans', verdana, arial, sans-serif; font-size: 12px; fill: rgb(42, 63, 95); fill-opacity: 1; white-space: pre; opacity: 1;" transform="translate(470.42,0)">May 2023</text></g><g class="xtick"><text text-anchor="middle" x="0" y="433" style="font-family: 'Open Sans', verdana, arial, sans-serif; font-size: 12px; fill: rgb(42, 63, 95); fill-opacity: 1; white-space: pre; opacity: 1;" transform="translate(549.01,0)">Jun 2023</text></g></g><g class="yaxislayer-above"><g class="ytick"><text text-anchor="end" x="79" y="4.199999999999999" transform="translate(0,395.01)" style="font-family: 'Open Sans', verdana, arial, sans-serif; font-size: 12px; fill: rgb(42, 63, 95); fill-opacity: 1; white-space: pre; opacity: 1;">$0</text></g><g class="ytick"><text text-anchor="end" x="79" y="4.199999999999999" style="font-family: 'Open Sans', verdana, arial, sans-serif; font-size: 12px; fill: rgb(42, 63, 95); fill-opacity: 1; white-space: pre; opacity: 1;" transform="translate(0,358.96)">$2M</text></g><g class="ytick"><text text-anchor="end" x="79" y="4.199999999999999" style="font-family: 'Open Sans', verdana, arial, sans-serif; font-size: 12px; fill: rgb(42, 63, 95); fill-opacity: 1; white-space: pre; opacity: 1;" transform="translate(0,322.90999999999997)">$4M</text></g><g class="ytick"><text text-anchor="end" x="79" y="4.199999999999999" style="font-family: 'Open Sans', verdana, arial, sans-serif; font-size: 12px; fill: rgb(42, 63, 95); fill-opacity: 1; white-space: pre; opacity: 1;" transform="translate(0,286.86)">$6M</text></g><g class="ytick"><text text-anchor="end" x="79" y="4.199999999999999" style="font-family: 'Open Sans', verdana, arial, sans-serif; font-size: 12px; fill: rgb(42, 63, 95); fill-opacity: 1; white-space: pre; opacity: 1;" transform="translate(0,250.81)">$8M</text></g><g class="ytick"><text text-anchor="end" x="79" y="4.199999999999999" style="font-family: 'Open Sans', verdana, arial, sans-serif; font-size: 12px; fill: rgb(42, 63, 95); fill-opacity: 1; white-space: pre; opacity: 1;" transform="translate(0,214.76)">$10M</text></g><g class="ytick"><text text-anchor="end" x="79" y="4.199999999999999" style="font-family: 'Open Sans', verdana, arial, sans-serif; font-size: 12px; fill: rgb(42, 63, 95); fill-opacity: 1; white-space: pre; opacity: 1;" transform="translate(0,178.72)">$12M</text></g><g class="ytick"><text text-anchor="end" x="79" y="4.199999999999999" style="font-family: 'Open Sans', verdana, arial, sans-serif; font-size: 12px; fill: rgb(42, 63, 95); fill-opacity: 1; white-space: pre; opacity: 1;" transform="translate(0,142.67000000000002)">$14M</text></g><g class="ytick"><text text-anchor="end" x="79" y="4.199999999999999" style="font-family: 'Open Sans', verdana, arial, sans-serif; font-size: 12px; fill: rgb(42, 63, 95); fill-opacity: 1; white-space: pre; opacity: 1;" transform="translate(0,106.62)">$16M</text></g></g><g class="overaxes-above"/></g></g><g class="polarlayer"/><g class="smithlayer"/><g class="ternarylayer"/><g class="geolayer"/><g class="funnelarealayer"/><g class="pielayer"/><g class="iciclelayer"/><g class="treemaplayer"/><g class="sunburstlayer"/><g class="glimages"/><defs id="topdefs-482719"><g class="clips"/></defs><g class="layer-above"><g class="imagelayer"/><g class="shapelayer"/></g><g class="infolayer"><g class="g-gtitle"><text class="gtitle" x="35" y="50" text-anchor="start" dy="0em" style="font-family: 'Open Sans', verdana, arial, sans-serif; font-size: 17px; fill: rgb(42, 63, 95); opacity: 1; font-weight: normal; white-space: pre;"><tspan class="line" dy="0em" x="35" y="50">Hundred Finance</tspan><tspan class="line" dy="1.3em" x="35" y="50">​<tspan style="font-size:70%" dy="-0.6em">Cumulative Net Flows since Program Announcement, Until Program End + 30 Days</tspan><tspan dy="0.42em">​</tspan></tspan></text></g><g class="g-xtitle"><text class="xtitle" x="350" y="460.3" text-anchor="middle" style="font-family: 'Open Sans', verdana, arial, sans-serif; font-size: 14px; fill: rgb(42, 63, 95); opacity: 1; font-weight: normal; white-space: pre;">Day</text></g><g class="g-ytitle"><text class="ytitle" transform="rotate(-90,24.668750000000003,260)" x="24.668750000000003" y="260" text-anchor="middle" style="font-family: 'Open Sans', verdana, arial, sans-serif; font-size: 14px; fill: rgb(42, 63, 95); opacity: 1; font-weight: normal; white-space: pre;">Cumulative Net Flows (USD)</text></g></g></svg>