<svg class="main-svg" xmlns="http://www.w3.org/2000/svg" xmlns:xlink="http://www.w3.org/1999/xlink" width="700" height="500" style="" viewBox="0 0 700 500"><rect x="0" y="0" width="700" height="500" style="fill: rgb(255, 255, 255); fill-opacity: 1;"/><defs id="defs-8fbdf5"><g class="clips"><clipPath id="clip8fbdf5xyplot" class="plotclip"><rect width="540" height="320"/></clipPath><clipPath class="axesclip" id="clip8fbdf5x"><rect x="80" y="0" width="540" height="500"/></clipPath><clipPath class="axesclip" id="clip8fbdf5y"><rect x="0" y="100" width="700" height="320"/></clipPath><clipPath class="axesclip" id="clip8fbdf5xy"><rect x="80" y="100" width="540" height="320"/></clipPath></g><g class="gradients"/><g class="patterns"/></defs><g class="bglayer"><rect class="bg" x="80" y="100" width="540" height="320" style="fill: rgb(229, 236, 246); fill-opacity: 1; stroke-width: 0;"/></g><g class="layer-below"><g class="imagelayer"/><g class="shapelayer"/></g><g class="cartesianlayer"><g class="subplot xy"><g class="layer-subplot"><g class="shapelayer"/><g class="imagelayer"/></g><g class="minor-gridlayer"><g class="x"/><g class="y"/></g><g class="gridlayer"><g class="x"><path class="xgrid crisp" transform="translate(88.13,0)" d="M0,100v320" style="stroke: rgb(255, 255, 255); stroke-opacity: 1; stroke-width: 1px;"/><path class="xgrid crisp" transform="translate(158.97,0)" d="M0,100v320" style="stroke: rgb(255, 255, 255); stroke-opacity: 1; stroke-width: 1px;"/><path class="xgrid crisp" transform="translate(229.81,0)" d="M0,100v320" style="stroke: rgb(255, 255, 255); stroke-opacity: 1; stroke-width: 1px;"/><path class="xgrid crisp" transform="translate(298.32,0)" d="M0,100v320" style="stroke: rgb(255, 255, 255); stroke-opacity: 1; stroke-width: 1px;"/><path class="xgrid crisp" transform="translate(369.16,0)" d="M0,100v320" style="stroke: rgb(255, 255, 255); stroke-opacity: 1; stroke-width: 1px;"/><path class="xgrid crisp" transform="translate(440,0)" d="M0,100v320" style="stroke: rgb(255, 255, 255); stroke-opacity: 1; stroke-width: 1px;"/><path class="xgrid crisp" transform="translate(512,0)" d="M0,100v320" style="stroke: rgb(255, 255, 255); stroke-opacity: 1; stroke-width: 1px;"/><path class="xgrid crisp" transform="translate(582.8399999999999,0)" d="M0,100v320" style="stroke: rgb(255, 255, 255); stroke-opacity: 1; stroke-width: 1px;"/></g><g class="y"><path class="ygrid crisp" transform="translate(0,354.66999999999996)" d="M80,0h540" style="stroke: rgb(255, 255, 255); stroke-opacity: 1; stroke-width: 1px;"/><path class="ygrid crisp" transform="translate(0,289.34000000000003)" d="M80,0h540" style="stroke: rgb(255, 255, 255); stroke-opacity: 1; stroke-width: 1px;"/><path class="ygrid crisp" transform="translate(0,224)" d="M80,0h540" style="stroke: rgb(255, 255, 255); stroke-opacity: 1; stroke-width: 1px;"/><path class="ygrid crisp" transform="translate(0,158.67000000000002)" d="M80,0h540" style="stroke: rgb(255, 255, 255); stroke-opacity: 1; stroke-width: 1px;"/></g></g><g class="zerolinelayer"><path class="yzl zl crisp" transform="translate(0,420)" d="M80,0h540" style="stroke: rgb(255, 255, 255); stroke-opacity: 1; stroke-width: 2px;"/></g><path class="xlines-below"/><path class="ylines-below"/><g class="overlines-below"/><g class="xaxislayer-below"/><g class="yaxislayer-below"/><g class="overaxes-below"/><g class="plot" transform="translate(80,100)" clip-path="url(#clip8fbdf5xyplot)"><g class="scatterlayer mlayer"><g class="trace scatter trace8d460d" style="stroke-miterlimit: 2;"><g class="fills"><g><path class="js-fill" d="M540,320L0,320L0,181.11L1.16,181.99L2.32,180.35L5.81,175.51L6.97,158.44L8.13,155.41L9.29,158.59L11.61,152.63L12.77,153.56L15.1,144.85L16.26,128.6L19.74,117.25L20.9,113.14L22.06,112.56L23.23,113.5L25.55,121.66L26.71,116.44L29.03,126.02L30.19,127.02L31.35,128.26L32.52,132.09L33.68,138.32L34.84,139.81L36,139.5L37.16,140.15L38.32,143.43L39.48,143.77L40.65,146.61L41.81,160.87L44.13,162.21L45.29,162.25L46.45,162.89L47.61,166.86L48.77,167.38L49.94,165.38L51.1,166.23L52.26,168.48L53.42,169.96L54.58,170.22L56.9,171.93L58.06,172.77L59.23,161.35L60.39,161.29L61.55,161.35L62.71,164.43L65.03,164.28L66.19,164.37L68.52,163.42L69.68,162.97L70.84,160.16L72,160.96L73.16,160.27L74.32,162.98L77.81,163.54L78.97,156.72L81.29,149.14L82.45,121.79L83.61,119.27L84.77,119.26L87.1,119.38L88.26,124.5L89.42,131.32L90.58,144.19L91.74,142.78L92.9,145.04L96.39,146.07L97.55,150.79L98.71,153.34L99.87,152.72L101.03,153.52L102.19,156.17L103.35,159.28L104.52,158.51L105.68,155.74L106.84,156.15L111.48,156.99L112.65,155.35L113.81,159.21L114.97,159.37L116.13,155.25L117.29,155.72L120.77,155.58L121.94,151.64L123.1,152.8L124.26,152.35L125.42,153.19L126.58,153.1L127.74,146.52L128.9,147.31L130.06,134.01L131.23,151.16L132.39,152.05L133.55,151.92L135.87,152.85L137.03,151.32L138.19,149.76L139.35,150.25L144,149.82L145.16,151.82L148.65,152.2L149.81,163.53L154.45,162.15L155.61,160.83L157.94,153.15L159.1,148.07L160.26,147.64L161.42,139.79L162.58,138.59L163.74,139.03L164.9,137.62L166.06,128.35L173.03,120.22L174.19,117.84L176.52,115.12L177.68,116.03L178.84,114.12L180,98.64L181.16,98.08L182.32,80.4L183.48,79.73L184.65,73.13L185.81,71.65L186.97,64.42L188.13,27.25L189.29,24.28L190.45,27.38L191.61,26.84L193.94,16L195.1,50.98L196.26,48.68L197.42,48.56L198.58,46.33L199.74,46.51L200.9,46.21L202.06,46.93L204.39,42.44L205.55,43.42L206.71,42.88L207.87,43.71L209.03,51.92L210.19,52.42L213.68,52.15L214.84,51.85L217.16,52.6L218.32,41.96L219.48,41.98L220.65,43.52L221.81,23.24L222.97,22.38L226.45,22.52L227.61,28.35L228.77,32.86L229.94,42.61L231.1,174.64L232.26,175.93L234.58,125.72L235.74,123.47L236.9,105.31L238.06,108.39L239.23,121.04L240.39,120.27L241.55,119.98L242.71,117.47L245.03,64.47L246.19,64.21L248.52,96.51L249.68,100.6L250.84,139.65L252,146.22L256.65,167.28L257.81,169L260.13,169.99L261.29,171.37L262.45,176.57L263.61,178.29L269.42,180.73L270.58,182.52L271.74,184.6L272.9,184.35L274.06,184.67L275.23,186.1L281.03,187.17L282.19,190.47L283.35,190.58L284.52,194.46L290.32,194.98L291.48,195.98L293.81,196.72L294.97,197.8L296.13,228.92L297.29,229.91L299.61,230.61L300.77,231.31L301.94,231.36L303.1,200.41L308.9,200.47L310.06,204.04L315.87,204.66L317.03,205.45L321.68,205.67L322.84,206.53L333.29,207.05L334.45,214.44L339.1,215.13L340.26,216.39L344.9,217.07L346.06,217.26L348.39,217.07L349.55,222.75L350.71,222.97L351.87,224.41L354.19,224.79L355.35,225.78L362.32,226.51L363.48,227.29L364.65,229.24L365.81,229.18L372.77,229.52L373.94,230.61L376.26,230.93L377.42,231.14L378.58,232.44L379.74,251.99L393.68,252.24L394.84,289.74L396,289.82L397.16,252.65L399.48,252.69L400.65,289.74L402.97,289.16L404.13,258.12L405.29,258.21L406.45,252.46L407.61,275.14L408.77,275.16L415.74,275.18L416.9,281.64L478.45,282.5L479.61,282.96L493.55,282.63L494.71,289.73L501.68,289.88L502.84,289.9L519.1,290.33L520.26,289.51L540,289.59" style="fill: rgb(99, 110, 250); fill-opacity: 0.5; stroke-width: 0;"/></g></g><g class="errorbars"/><g class="lines"><path class="js-line" d="M0,181.11L1.16,181.99L2.32,180.35L5.81,175.51L6.97,158.44L8.13,155.41L9.29,158.59L11.61,152.63L12.77,153.56L15.1,144.85L16.26,128.6L19.74,117.25L20.9,113.14L22.06,112.56L23.23,113.5L25.55,121.66L26.71,116.44L29.03,126.02L30.19,127.02L31.35,128.26L32.52,132.09L33.68,138.32L34.84,139.81L36,139.5L37.16,140.15L38.32,143.43L39.48,143.77L40.65,146.61L41.81,160.87L44.13,162.21L45.29,162.25L46.45,162.89L47.61,166.86L48.77,167.38L49.94,165.38L51.1,166.23L52.26,168.48L53.42,169.96L54.58,170.22L56.9,171.93L58.06,172.77L59.23,161.35L60.39,161.29L61.55,161.35L62.71,164.43L65.03,164.28L66.19,164.37L68.52,163.42L69.68,162.97L70.84,160.16L72,160.96L73.16,160.27L74.32,162.98L77.81,163.54L78.97,156.72L81.29,149.14L82.45,121.79L83.61,119.27L84.77,119.26L87.1,119.38L88.26,124.5L89.42,131.32L90.58,144.19L91.74,142.78L92.9,145.04L96.39,146.07L97.55,150.79L98.71,153.34L99.87,152.72L101.03,153.52L102.19,156.17L103.35,159.28L104.52,158.51L105.68,155.74L106.84,156.15L111.48,156.99L112.65,155.35L113.81,159.21L114.97,159.37L116.13,155.25L117.29,155.72L120.77,155.58L121.94,151.64L123.1,152.8L124.26,152.35L125.42,153.19L126.58,153.1L127.74,146.52L128.9,147.31L130.06,134.01L131.23,151.16L132.39,152.05L133.55,151.92L135.87,152.85L137.03,151.32L138.19,149.76L139.35,150.25L144,149.82L145.16,151.82L148.65,152.2L149.81,163.53L154.45,162.15L155.61,160.83L157.94,153.15L159.1,148.07L160.26,147.64L161.42,139.79L162.58,138.59L163.74,139.03L164.9,137.62L166.06,128.35L173.03,120.22L174.19,117.84L176.52,115.12L177.68,116.03L178.84,114.12L180,98.64L181.16,98.08L182.32,80.4L183.48,79.73L184.65,73.13L185.81,71.65L186.97,64.42L188.13,27.25L189.29,24.28L190.45,27.38L191.61,26.84L193.94,16L195.1,50.98L196.26,48.68L197.42,48.56L198.58,46.33L199.74,46.51L200.9,46.21L202.06,46.93L204.39,42.44L205.55,43.42L206.71,42.88L207.87,43.71L209.03,51.92L210.19,52.42L213.68,52.15L214.84,51.85L217.16,52.6L218.32,41.96L219.48,41.98L220.65,43.52L221.81,23.24L222.97,22.38L226.45,22.52L227.61,28.35L228.77,32.86L229.94,42.61L231.1,174.64L232.26,175.93L234.58,125.72L235.74,123.47L236.9,105.31L238.06,108.39L239.23,121.04L240.39,120.27L241.55,119.98L242.71,117.47L245.03,64.47L246.19,64.21L248.52,96.51L249.68,100.6L250.84,139.65L252,146.22L256.65,167.28L257.81,169L260.13,169.99L261.29,171.37L262.45,176.57L263.61,178.29L269.42,180.73L270.58,182.52L271.74,184.6L272.9,184.35L274.06,184.67L275.23,186.1L281.03,187.17L282.19,190.47L283.35,190.58L284.52,194.46L290.32,194.98L291.48,195.98L293.81,196.72L294.97,197.8L296.13,228.92L297.29,229.91L299.61,230.61L300.77,231.31L301.94,231.36L303.1,200.41L308.9,200.47L310.06,204.04L315.87,204.66L317.03,205.45L321.68,205.67L322.84,206.53L333.29,207.05L334.45,214.44L339.1,215.13L340.26,216.39L344.9,217.07L346.06,217.26L348.39,217.07L349.55,222.75L350.71,222.97L351.87,224.41L354.19,224.79L355.35,225.78L362.32,226.51L363.48,227.29L364.65,229.24L365.81,229.18L372.77,229.52L373.94,230.61L376.26,230.93L377.42,231.14L378.58,232.44L379.74,251.99L393.68,252.24L394.84,289.74L396,289.82L397.16,252.65L399.48,252.69L400.65,289.74L402.97,289.16L404.13,258.12L405.29,258.21L406.45,252.46L407.61,275.14L408.77,275.16L415.74,275.18L416.9,281.64L478.45,282.5L479.61,282.96L493.55,282.63L494.71,289.73L501.68,289.88L502.84,289.9L519.1,290.33L520.26,289.51L540,289.59" style="vector-effect: none; fill: none; stroke: rgb(99, 110, 250); stroke-opacity: 1; stroke-width: 2px; opacity: 1;"/></g><g class="points"/><g class="text"/></g></g></g><g class="overplot"/><path class="xlines-above crisp" d="M0,0" style="fill: none;"/><path class="ylines-above crisp" d="M0,0" style="fill: none;"/><g class="overlines-above"/><g class="xaxislayer-above"><g class="xtick"><text text-anchor="middle" x="0" y="433" transform="translate(88.13,0)" style="font-family: 'Open Sans', verdana, arial, sans-serif; font-size: 12px; fill: rgb(42, 63, 95); fill-opacity: 1; white-space: pre; opacity: 1;">Sep 2022</text></g><g class="xtick"><text text-anchor="middle" x="0" y="433" style="font-family: 'Open Sans', verdana, arial, sans-serif; font-size: 12px; fill: rgb(42, 63, 95); fill-opacity: 1; white-space: pre; opacity: 1;" transform="translate(158.97,0)">Nov 2022</text></g><g class="xtick"><text text-anchor="middle" x="0" y="433" style="font-family: 'Open Sans', verdana, arial, sans-serif; font-size: 12px; fill: rgb(42, 63, 95); fill-opacity: 1; white-space: pre; opacity: 1;" transform="translate(229.81,0)">Jan 2023</text></g><g class="xtick"><text text-anchor="middle" x="0" y="433" style="font-family: 'Open Sans', verdana, arial, sans-serif; font-size: 12px; fill: rgb(42, 63, 95); fill-opacity: 1; white-space: pre; opacity: 1;" transform="translate(298.32,0)">Mar 2023</text></g><g class="xtick"><text text-anchor="middle" x="0" y="433" style="font-family: 'Open Sans', verdana, arial, sans-serif; font-size: 12px; fill: rgb(42, 63, 95); fill-opacity: 1; white-space: pre; opacity: 1;" transform="translate(369.16,0)">May 2023</text></g><g class="xtick"><text text-anchor="middle" x="0" y="433" style="font-family: 'Open Sans', verdana, arial, sans-serif; font-size: 12px; fill: rgb(42, 63, 95); fill-opacity: 1; white-space: pre; opacity: 1;" transform="translate(440,0)">Jul 2023</text></g><g class="xtick"><text text-anchor="middle" x="0" y="433" style="font-family: 'Open Sans', verdana, arial, sans-serif; font-size: 12px; fill: rgb(42, 63, 95); fill-opacity: 1; white-space: pre; opacity: 1;" transform="translate(512,0)">Sep 2023</text></g><g class="xtick"><text text-anchor="middle" x="0" y="433" style="font-family: 'Open Sans', verdana, arial, sans-serif; font-size: 12px; fill: rgb(42, 63, 95); fill-opacity: 1; white-space: pre; opacity: 1;" transform="translate(582.8399999999999,0)">Nov 2023</text></g></g><g class="yaxislayer-above"><g class="ytick"><text text-anchor="end" x="79" y="4.199999999999999" transform="translate(0,420)" style="font-family: 'Open Sans', verdana, arial, sans-serif; font-size: 12px; fill: rgb(42, 63, 95); fill-opacity: 1; white-space: pre; opacity: 1;">$0</text></g><g class="ytick"><text text-anchor="end" x="79" y="4.199999999999999" style="font-family: 'Open Sans', verdana, arial, sans-serif; font-size: 12px; fill: rgb(42, 63, 95); fill-opacity: 1; white-space: pre; opacity: 1;" transform="translate(0,354.66999999999996)">$10M</text></g><g class="ytick"><text text-anchor="end" x="79" y="4.199999999999999" style="font-family: 'Open Sans', verdana, arial, sans-serif; font-size: 12px; fill: rgb(42, 63, 95); fill-opacity: 1; white-space: pre; opacity: 1;" transform="translate(0,289.34000000000003)">$20M</text></g><g class="ytick"><text text-anchor="end" x="79" y="4.199999999999999" style="font-family: 'Open Sans', verdana, arial, sans-serif; font-size: 12px; fill: rgb(42, 63, 95); fill-opacity: 1; white-space: pre; opacity: 1;" transform="translate(0,224)">$30M</text></g><g class="ytick"><text text-anchor="end" x="79" y="4.199999999999999" style="font-family: 'Open Sans', verdana, arial, sans-serif; font-size: 12px; fill: rgb(42, 63, 95); fill-opacity: 1; white-space: pre; opacity: 1;" transform="translate(0,158.67000000000002)">$40M</text></g></g><g class="overaxes-above"/></g></g><g class="polarlayer"/><g class="smithlayer"/><g class="ternarylayer"/><g class="geolayer"/><g class="funnelarealayer"/><g class="pielayer"/><g class="iciclelayer"/><g class="treemaplayer"/><g class="sunburstlayer"/><g class="glimages"/><defs id="topdefs-8fbdf5"><g class="clips"/></defs><g class="layer-above"><g class="imagelayer"/><g class="shapelayer"/></g><g class="infolayer"><g class="g-gtitle"><text class="gtitle" x="35" y="50" text-anchor="start" dy="0em" style="font-family: 'Open Sans', verdana, arial, sans-serif; font-size: 17px; fill: rgb(42, 63, 95); opacity: 1; font-weight: normal; white-space: pre;"><tspan class="line" dy="0em" x="35" y="50">Synthetix - sUSD-3Crv: Curve</tspan><tspan class="line" dy="1.3em" x="35" y="50">​<tspan style="font-size:70%" dy="-0.6em">Cumulative Net Flows since Program Announcement, Until Program End + 30 Days</tspan><tspan dy="0.42em">​</tspan></tspan></text></g><g class="g-xtitle"><text class="xtitle" x="350" y="460.3" text-anchor="middle" style="font-family: 'Open Sans', verdana, arial, sans-serif; font-size: 14px; fill: rgb(42, 63, 95); opacity: 1; font-weight: normal; white-space: pre;">Day</text></g><g class="g-ytitle"><text class="ytitle" transform="rotate(-90,24.668750000000003,260)" x="24.668750000000003" y="260" text-anchor="middle" style="font-family: 'Open Sans', verdana, arial, sans-serif; font-size: 14px; fill: rgb(42, 63, 95); opacity: 1; font-weight: normal; white-space: pre;">Cumulative Net Flows (USD)</text></g></g></svg>