<svg class="main-svg" xmlns="http://www.w3.org/2000/svg" xmlns:xlink="http://www.w3.org/1999/xlink" width="700" height="500" style="" viewBox="0 0 700 500"><rect x="0" y="0" width="700" height="500" style="fill: rgb(255, 255, 255); fill-opacity: 1;"/><defs id="defs-788f30"><g class="clips"><clipPath id="clip788f30xyplot" class="plotclip"><rect width="540" height="320"/></clipPath><clipPath class="axesclip" id="clip788f30x"><rect x="80" y="0" width="540" height="500"/></clipPath><clipPath class="axesclip" id="clip788f30y"><rect x="0" y="100" width="700" height="320"/></clipPath><clipPath class="axesclip" id="clip788f30xy"><rect x="80" y="100" width="540" height="320"/></clipPath></g><g class="gradients"/><g class="patterns"/></defs><g class="bglayer"><rect class="bg" x="80" y="100" width="540" height="320" style="fill: rgb(229, 236, 246); fill-opacity: 1; stroke-width: 0;"/></g><g class="layer-below"><g class="imagelayer"/><g class="shapelayer"/></g><g class="cartesianlayer"><g class="subplot xy"><g class="layer-subplot"><g class="shapelayer"/><g class="imagelayer"/></g><g class="minor-gridlayer"><g class="x"/><g class="y"/></g><g class="gridlayer"><g class="x"><path class="xgrid crisp" transform="translate(95.63,0)" d="M0,100v320" style="stroke: rgb(255, 255, 255); stroke-opacity: 1; stroke-width: 1px;"/><path class="xgrid crisp" transform="translate(201.54000000000002,0)" d="M0,100v320" style="stroke: rgb(255, 255, 255); stroke-opacity: 1; stroke-width: 1px;"/><path class="xgrid crisp" transform="translate(307.46000000000004,0)" d="M0,100v320" style="stroke: rgb(255, 255, 255); stroke-opacity: 1; stroke-width: 1px;"/><path class="xgrid crisp" transform="translate(415.11,0)" d="M0,100v320" style="stroke: rgb(255, 255, 255); stroke-opacity: 1; stroke-width: 1px;"/><path class="xgrid crisp" transform="translate(521.03,0)" d="M0,100v320" style="stroke: rgb(255, 255, 255); stroke-opacity: 1; stroke-width: 1px;"/></g><g class="y"><path class="ygrid crisp" transform="translate(0,359.36)" d="M80,0h540" style="stroke: rgb(255, 255, 255); stroke-opacity: 1; stroke-width: 1px;"/><path class="ygrid crisp" transform="translate(0,314.73)" d="M80,0h540" style="stroke: rgb(255, 255, 255); stroke-opacity: 1; stroke-width: 1px;"/><path class="ygrid crisp" transform="translate(0,270.09000000000003)" d="M80,0h540" style="stroke: rgb(255, 255, 255); stroke-opacity: 1; stroke-width: 1px;"/><path class="ygrid crisp" transform="translate(0,225.45999999999998)" d="M80,0h540" style="stroke: rgb(255, 255, 255); stroke-opacity: 1; stroke-width: 1px;"/><path class="ygrid crisp" transform="translate(0,180.82)" d="M80,0h540" style="stroke: rgb(255, 255, 255); stroke-opacity: 1; stroke-width: 1px;"/><path class="ygrid crisp" transform="translate(0,136.18)" d="M80,0h540" style="stroke: rgb(255, 255, 255); stroke-opacity: 1; stroke-width: 1px;"/></g></g><g class="zerolinelayer"><path class="yzl zl crisp" transform="translate(0,404)" d="M80,0h540" style="stroke: rgb(255, 255, 255); stroke-opacity: 1; stroke-width: 2px;"/></g><path class="xlines-below"/><path class="ylines-below"/><g class="overlines-below"/><g class="xaxislayer-below"/><g class="yaxislayer-below"/><g class="overaxes-below"/><g class="plot" transform="translate(80,100)" clip-path="url(#clip788f30xyplot)"><g class="scatterlayer mlayer"><g class="trace scatter trace2ffab9" style="stroke-miterlimit: 2;"><g class="fills"><g><path class="js-fill" d="M540,304L0,304L0,304L3.47,303.88L5.21,112.87L6.95,47.16L8.68,22.45L10.42,32.92L12.15,32.35L13.89,70.87L15.63,27.31L17.36,50.05L19.1,45.69L20.84,17.12L22.57,17.28L26.05,16L27.78,46.12L29.52,72.82L31.25,51.91L32.99,115.7L34.73,116.26L36.46,219.48L38.2,190.64L41.67,218.1L43.41,219.07L46.88,218.82L48.62,219.38L50.35,217.83L52.09,217.87L53.83,219.5L55.56,219.5L57.3,219.84L59.04,214.94L60.77,214.81L62.51,213.48L64.24,213.46L65.98,215.78L72.93,215.59L74.66,221.47L76.4,218.64L78.14,218.59L79.87,218.33L81.61,212.43L88.55,212.85L90.29,215.58L92.03,205.81L93.76,205.81L95.5,208.48L97.23,208.34L98.97,203.47L100.71,203.5L118.07,203.38L119.81,202.01L121.54,202.01L123.28,200.26L137.17,200.41L138.91,188.53L142.38,188.28L144.12,155.22L145.85,153.54L147.59,153.51L149.32,153.59L151.06,166.27L159.74,165.38L161.48,166.11L164.95,164.03L166.69,163.89L168.42,161.78L170.16,161.82L171.9,158.1L173.63,157.88L175.37,156.96L177.11,176.75L178.84,167.09L180.58,166.89L184.05,166.94L185.79,165.71L189.26,164.96L191,168.52L196.21,168.52L197.94,154.26L199.68,159.55L201.41,159.64L208.36,159.14L210.1,170.36L215.31,169.99L217.04,163.05L218.78,163.07L220.51,194.76L223.99,235.22L225.72,248.53L234.41,249.12L236.14,250.66L277.81,251.25L279.55,251.59L540,252.06" style="fill: rgb(99, 110, 250); fill-opacity: 0.5; stroke-width: 0;"/></g></g><g class="errorbars"/><g class="lines"><path class="js-line" d="M0,304L3.47,303.88L5.21,112.87L6.95,47.16L8.68,22.45L10.42,32.92L12.15,32.35L13.89,70.87L15.63,27.31L17.36,50.05L19.1,45.69L20.84,17.12L22.57,17.28L26.05,16L27.78,46.12L29.52,72.82L31.25,51.91L32.99,115.7L34.73,116.26L36.46,219.48L38.2,190.64L41.67,218.1L43.41,219.07L46.88,218.82L48.62,219.38L50.35,217.83L52.09,217.87L53.83,219.5L55.56,219.5L57.3,219.84L59.04,214.94L60.77,214.81L62.51,213.48L64.24,213.46L65.98,215.78L72.93,215.59L74.66,221.47L76.4,218.64L78.14,218.59L79.87,218.33L81.61,212.43L88.55,212.85L90.29,215.58L92.03,205.81L93.76,205.81L95.5,208.48L97.23,208.34L98.97,203.47L100.71,203.5L118.07,203.38L119.81,202.01L121.54,202.01L123.28,200.26L137.17,200.41L138.91,188.53L142.38,188.28L144.12,155.22L145.85,153.54L147.59,153.51L149.32,153.59L151.06,166.27L159.74,165.38L161.48,166.11L164.95,164.03L166.69,163.89L168.42,161.78L170.16,161.82L171.9,158.1L173.63,157.88L175.37,156.96L177.11,176.75L178.84,167.09L180.58,166.89L184.05,166.94L185.79,165.71L189.26,164.96L191,168.52L196.21,168.52L197.94,154.26L199.68,159.55L201.41,159.64L208.36,159.14L210.1,170.36L215.31,169.99L217.04,163.05L218.78,163.07L220.51,194.76L223.99,235.22L225.72,248.53L234.41,249.12L236.14,250.66L277.81,251.25L279.55,251.59L540,252.06" style="vector-effect: none; fill: none; stroke: rgb(99, 110, 250); stroke-opacity: 1; stroke-width: 2px; opacity: 1;"/></g><g class="points"/><g class="text"/></g></g></g><g class="overplot"/><path class="xlines-above crisp" d="M0,0" style="fill: none;"/><path class="ylines-above crisp" d="M0,0" style="fill: none;"/><g class="overlines-above"/><g class="xaxislayer-above"><g class="xtick"><text text-anchor="middle" x="0" y="433" transform="translate(95.63,0)" style="font-family: 'Open Sans', verdana, arial, sans-serif; font-size: 12px; fill: rgb(42, 63, 95); fill-opacity: 1; white-space: pre; opacity: 1;">Mar 2023</text></g><g class="xtick"><text text-anchor="middle" x="0" y="433" style="font-family: 'Open Sans', verdana, arial, sans-serif; font-size: 12px; fill: rgb(42, 63, 95); fill-opacity: 1; white-space: pre; opacity: 1;" transform="translate(201.54000000000002,0)">May 2023</text></g><g class="xtick"><text text-anchor="middle" x="0" y="433" style="font-family: 'Open Sans', verdana, arial, sans-serif; font-size: 12px; fill: rgb(42, 63, 95); fill-opacity: 1; white-space: pre; opacity: 1;" transform="translate(307.46000000000004,0)">Jul 2023</text></g><g class="xtick"><text text-anchor="middle" x="0" y="433" style="font-family: 'Open Sans', verdana, arial, sans-serif; font-size: 12px; fill: rgb(42, 63, 95); fill-opacity: 1; white-space: pre; opacity: 1;" transform="translate(415.11,0)">Sep 2023</text></g><g class="xtick"><text text-anchor="middle" x="0" y="433" style="font-family: 'Open Sans', verdana, arial, sans-serif; font-size: 12px; fill: rgb(42, 63, 95); fill-opacity: 1; white-space: pre; opacity: 1;" transform="translate(521.03,0)">Nov 2023</text></g></g><g class="yaxislayer-above"><g class="ytick"><text text-anchor="end" x="79" y="4.199999999999999" transform="translate(0,404)" style="font-family: 'Open Sans', verdana, arial, sans-serif; font-size: 12px; fill: rgb(42, 63, 95); fill-opacity: 1; white-space: pre; opacity: 1;">$0</text></g><g class="ytick"><text text-anchor="end" x="79" y="4.199999999999999" style="font-family: 'Open Sans', verdana, arial, sans-serif; font-size: 12px; fill: rgb(42, 63, 95); fill-opacity: 1; white-space: pre; opacity: 1;" transform="translate(0,359.36)">$100k</text></g><g class="ytick"><text text-anchor="end" x="79" y="4.199999999999999" style="font-family: 'Open Sans', verdana, arial, sans-serif; font-size: 12px; fill: rgb(42, 63, 95); fill-opacity: 1; white-space: pre; opacity: 1;" transform="translate(0,314.73)">$200k</text></g><g class="ytick"><text text-anchor="end" x="79" y="4.199999999999999" style="font-family: 'Open Sans', verdana, arial, sans-serif; font-size: 12px; fill: rgb(42, 63, 95); fill-opacity: 1; white-space: pre; opacity: 1;" transform="translate(0,270.09000000000003)">$300k</text></g><g class="ytick"><text text-anchor="end" x="79" y="4.199999999999999" style="font-family: 'Open Sans', verdana, arial, sans-serif; font-size: 12px; fill: rgb(42, 63, 95); fill-opacity: 1; white-space: pre; opacity: 1;" transform="translate(0,225.45999999999998)">$400k</text></g><g class="ytick"><text text-anchor="end" x="79" y="4.199999999999999" style="font-family: 'Open Sans', verdana, arial, sans-serif; font-size: 12px; fill: rgb(42, 63, 95); fill-opacity: 1; white-space: pre; opacity: 1;" transform="translate(0,180.82)">$500k</text></g><g class="ytick"><text text-anchor="end" x="79" y="4.199999999999999" style="font-family: 'Open Sans', verdana, arial, sans-serif; font-size: 12px; fill: rgb(42, 63, 95); fill-opacity: 1; white-space: pre; opacity: 1;" transform="translate(0,136.18)">$600k</text></g></g><g class="overaxes-above"/></g></g><g class="polarlayer"/><g class="smithlayer"/><g class="ternarylayer"/><g class="geolayer"/><g class="funnelarealayer"/><g class="pielayer"/><g class="iciclelayer"/><g class="treemaplayer"/><g class="sunburstlayer"/><g class="glimages"/><defs id="topdefs-788f30"><g class="clips"/></defs><g class="layer-above"><g class="imagelayer"/><g class="shapelayer"/></g><g class="infolayer"><g class="g-gtitle"><text class="gtitle" x="35" y="50" text-anchor="start" dy="0em" style="font-family: 'Open Sans', verdana, arial, sans-serif; font-size: 17px; fill: rgb(42, 63, 95); opacity: 1; font-weight: normal; white-space: pre;"><tspan class="line" dy="0em" x="35" y="50">Angle - OP/agEUR: Velodrome</tspan><tspan class="line" dy="1.3em" x="35" y="50">​<tspan style="font-size:70%" dy="-0.6em">Cumulative Net Flows since Program Announcement, Until Program End + 30 Days</tspan><tspan dy="0.42em">​</tspan></tspan></text></g><g class="g-xtitle"><text class="xtitle" x="350" y="460.3" text-anchor="middle" style="font-family: 'Open Sans', verdana, arial, sans-serif; font-size: 14px; fill: rgb(42, 63, 95); opacity: 1; font-weight: normal; white-space: pre;">Day</text></g><g class="g-ytitle"><text class="ytitle" transform="rotate(-90,21.996875000000003,260)" x="21.996875000000003" y="260" text-anchor="middle" style="font-family: 'Open Sans', verdana, arial, sans-serif; font-size: 14px; fill: rgb(42, 63, 95); opacity: 1; font-weight: normal; white-space: pre;">Cumulative Net Flows (USD)</text></g></g></svg>