<svg class="main-svg" xmlns="http://www.w3.org/2000/svg" xmlns:xlink="http://www.w3.org/1999/xlink" width="700" height="500" style="" viewBox="0 0 700 500"><rect x="0" y="0" width="700" height="500" style="fill: rgb(255, 255, 255); fill-opacity: 1;"/><defs id="defs-300ed2"><g class="clips"><clipPath id="clip300ed2xyplot" class="plotclip"><rect width="540" height="320"/></clipPath><clipPath class="axesclip" id="clip300ed2x"><rect x="80" y="0" width="540" height="500"/></clipPath><clipPath class="axesclip" id="clip300ed2y"><rect x="0" y="100" width="700" height="320"/></clipPath><clipPath class="axesclip" id="clip300ed2xy"><rect x="80" y="100" width="540" height="320"/></clipPath></g><g class="gradients"/><g class="patterns"/></defs><g class="bglayer"><rect class="bg" x="80" y="100" width="540" height="320" style="fill: rgb(229, 236, 246); fill-opacity: 1; stroke-width: 0;"/></g><g class="layer-below"><g class="imagelayer"/><g class="shapelayer"/></g><g class="cartesianlayer"><g class="subplot xy"><g class="layer-subplot"><g class="shapelayer"/><g class="imagelayer"/></g><g class="minor-gridlayer"><g class="x"/><g class="y"/></g><g class="gridlayer"><g class="x"><path class="xgrid crisp" transform="translate(92.71000000000001,0)" d="M0,100v320" style="stroke: rgb(255, 255, 255); stroke-opacity: 1; stroke-width: 1px;"/><path class="xgrid crisp" transform="translate(189.59,0)" d="M0,100v320" style="stroke: rgb(255, 255, 255); stroke-opacity: 1; stroke-width: 1px;"/><path class="xgrid crisp" transform="translate(283.28999999999996,0)" d="M0,100v320" style="stroke: rgb(255, 255, 255); stroke-opacity: 1; stroke-width: 1px;"/><path class="xgrid crisp" transform="translate(380.18,0)" d="M0,100v320" style="stroke: rgb(255, 255, 255); stroke-opacity: 1; stroke-width: 1px;"/><path class="xgrid crisp" transform="translate(477.06,0)" d="M0,100v320" style="stroke: rgb(255, 255, 255); stroke-opacity: 1; stroke-width: 1px;"/><path class="xgrid crisp" transform="translate(575.53,0)" d="M0,100v320" style="stroke: rgb(255, 255, 255); stroke-opacity: 1; stroke-width: 1px;"/></g><g class="y"><path class="ygrid crisp" transform="translate(0,380.02)" d="M80,0h540" style="stroke: rgb(255, 255, 255); stroke-opacity: 1; stroke-width: 1px;"/><path class="ygrid crisp" transform="translate(0,340.05)" d="M80,0h540" style="stroke: rgb(255, 255, 255); stroke-opacity: 1; stroke-width: 1px;"/><path class="ygrid crisp" transform="translate(0,300.07)" d="M80,0h540" style="stroke: rgb(255, 255, 255); stroke-opacity: 1; stroke-width: 1px;"/><path class="ygrid crisp" transform="translate(0,260.1)" d="M80,0h540" style="stroke: rgb(255, 255, 255); stroke-opacity: 1; stroke-width: 1px;"/><path class="ygrid crisp" transform="translate(0,220.12)" d="M80,0h540" style="stroke: rgb(255, 255, 255); stroke-opacity: 1; stroke-width: 1px;"/><path class="ygrid crisp" transform="translate(0,180.15)" d="M80,0h540" style="stroke: rgb(255, 255, 255); stroke-opacity: 1; stroke-width: 1px;"/><path class="ygrid crisp" transform="translate(0,140.17000000000002)" d="M80,0h540" style="stroke: rgb(255, 255, 255); stroke-opacity: 1; stroke-width: 1px;"/></g></g><g class="zerolinelayer"><path class="yzl zl crisp" transform="translate(0,420)" d="M80,0h540" style="stroke: rgb(255, 255, 255); stroke-opacity: 1; stroke-width: 2px;"/></g><path class="xlines-below"/><path class="ylines-below"/><g class="overlines-below"/><g class="xaxislayer-below"/><g class="yaxislayer-below"/><g class="overaxes-below"/><g class="plot" transform="translate(80,100)" clip-path="url(#clip300ed2xyplot)"><g class="scatterlayer mlayer"><g class="trace scatter trace157a32" style="stroke-miterlimit: 2;"><g class="fills"><g><path class="js-fill" d="M540,320L0,320L0,320L270,320L271.59,27.54L273.18,16.88L274.76,17.47L276.35,19.54L277.94,18.92L279.53,20.49L281.12,16L284.29,36.26L285.88,42.29L287.47,37.49L289.06,38.89L292.24,34.96L293.82,31.1L297,24.73L298.59,24.95L300.18,26.65L301.76,33.03L303.35,31.87L304.94,28.91L306.53,33.4L308.12,31.48L309.71,45.7L311.29,49.73L312.88,55.74L314.47,55.95L316.06,59.94L317.65,66.08L324,69.53L325.59,71.36L327.18,68.65L328.76,68.65L330.35,69.9L331.94,69.73L333.53,71.23L335.12,70.33L336.71,66.27L338.29,75.66L339.88,74.46L341.47,71.9L343.06,73.28L344.65,66.89L347.82,70.81L349.41,74.01L351,72.24L352.59,67.91L355.76,69.3L357.35,74.96L358.94,66.83L360.53,72.11L362.12,70.32L363.71,75.21L365.29,86.98L366.88,88.28L368.47,89.33L370.06,92.37L371.65,98.6L373.24,100.86L376.41,93.97L378,94.6L379.59,96.63L381.18,89.56L382.76,86.96L384.35,91.97L385.94,93.27L387.53,97.1L389.12,95.81L390.71,98.54L392.29,96.64L393.88,110.32L395.47,126.83L397.06,117.91L398.65,123.2L400.24,117.82L401.82,115.24L403.41,114.54L405,116.33L406.59,125.6L408.18,129.16L409.76,128.67L411.35,131.89L412.94,131.96L414.53,133.89L416.12,138.91L417.71,133.56L419.29,136.82L424.06,136.48L425.65,133.14L428.82,123.72L430.41,125.35L432,123.23L433.59,119.24L436.76,125.58L438.35,125.02L439.94,127.33L441.53,127.42L443.12,125.52L444.71,143.98L447.88,148.84L449.47,153.45L451.06,156.24L452.65,156.78L454.24,163.61L455.82,163.07L459,161.16L460.59,166.06L463.76,175.03L465.35,174.82L468.53,177.81L470.12,181.07L471.71,183.82L473.29,190.68L474.88,196.18L476.47,198.91L478.06,199.08L479.65,200.16L481.24,197.2L482.82,188.15L484.41,185.04L486,187.44L490.76,193.9L492.35,192.28L493.94,194.77L495.53,207.08L498.71,210.31L500.29,211.15L501.88,209.66L503.47,210.58L505.06,212.59L506.65,209.64L509.82,212.49L511.41,213.99L513,214.83L514.59,213.37L516.18,213.17L517.76,217.51L519.35,216.43L520.94,213.04L522.53,213.6L524.12,211.24L527.29,196.63L528.88,200.85L532.06,201.13L533.65,199.85L535.24,200.68L536.82,195.01L538.41,194.2L540,196.41" style="fill: rgb(99, 110, 250); fill-opacity: 0.5; stroke-width: 0;"/></g></g><g class="errorbars"/><g class="lines"><path class="js-line" d="M0,320L270,320L271.59,27.54L273.18,16.88L274.76,17.47L276.35,19.54L277.94,18.92L279.53,20.49L281.12,16L284.29,36.26L285.88,42.29L287.47,37.49L289.06,38.89L292.24,34.96L293.82,31.1L297,24.73L298.59,24.95L300.18,26.65L301.76,33.03L303.35,31.87L304.94,28.91L306.53,33.4L308.12,31.48L309.71,45.7L311.29,49.73L312.88,55.74L314.47,55.95L316.06,59.94L317.65,66.08L324,69.53L325.59,71.36L327.18,68.65L328.76,68.65L330.35,69.9L331.94,69.73L333.53,71.23L335.12,70.33L336.71,66.27L338.29,75.66L339.88,74.46L341.47,71.9L343.06,73.28L344.65,66.89L347.82,70.81L349.41,74.01L351,72.24L352.59,67.91L355.76,69.3L357.35,74.96L358.94,66.83L360.53,72.11L362.12,70.32L363.71,75.21L365.29,86.98L366.88,88.28L368.47,89.33L370.06,92.37L371.65,98.6L373.24,100.86L376.41,93.97L378,94.6L379.59,96.63L381.18,89.56L382.76,86.96L384.35,91.97L385.94,93.27L387.53,97.1L389.12,95.81L390.71,98.54L392.29,96.64L393.88,110.32L395.47,126.83L397.06,117.91L398.65,123.2L400.24,117.82L401.82,115.24L403.41,114.54L405,116.33L406.59,125.6L408.18,129.16L409.76,128.67L411.35,131.89L412.94,131.96L414.53,133.89L416.12,138.91L417.71,133.56L419.29,136.82L424.06,136.48L425.65,133.14L428.82,123.72L430.41,125.35L432,123.23L433.59,119.24L436.76,125.58L438.35,125.02L439.94,127.33L441.53,127.42L443.12,125.52L444.71,143.98L447.88,148.84L449.47,153.45L451.06,156.24L452.65,156.78L454.24,163.61L455.82,163.07L459,161.16L460.59,166.06L463.76,175.03L465.35,174.82L468.53,177.81L470.12,181.07L471.71,183.82L473.29,190.68L474.88,196.18L476.47,198.91L478.06,199.08L479.65,200.16L481.24,197.2L482.82,188.15L484.41,185.04L486,187.44L490.76,193.9L492.35,192.28L493.94,194.77L495.53,207.08L498.71,210.31L500.29,211.15L501.88,209.66L503.47,210.58L505.06,212.59L506.65,209.64L509.82,212.49L511.41,213.99L513,214.83L514.59,213.37L516.18,213.17L517.76,217.51L519.35,216.43L520.94,213.04L522.53,213.6L524.12,211.24L527.29,196.63L528.88,200.85L532.06,201.13L533.65,199.85L535.24,200.68L536.82,195.01L538.41,194.2L540,196.41" style="vector-effect: none; fill: none; stroke: rgb(99, 110, 250); stroke-opacity: 1; stroke-width: 2px; opacity: 1;"/></g><g class="points"/><g class="text"/></g></g></g><g class="overplot"/><path class="xlines-above crisp" d="M0,0" style="fill: none;"/><path class="ylines-above crisp" d="M0,0" style="fill: none;"/><g class="overlines-above"/><g class="xaxislayer-above"><g class="xtick"><text text-anchor="middle" x="0" y="433" transform="translate(92.71000000000001,0)" style="font-family: 'Open Sans', verdana, arial, sans-serif; font-size: 12px; fill: rgb(42, 63, 95); fill-opacity: 1; white-space: pre; opacity: 1;">Nov 2022</text></g><g class="xtick"><text text-anchor="middle" x="0" y="433" style="font-family: 'Open Sans', verdana, arial, sans-serif; font-size: 12px; fill: rgb(42, 63, 95); fill-opacity: 1; white-space: pre; opacity: 1;" transform="translate(189.59,0)">Jan 2023</text></g><g class="xtick"><text text-anchor="middle" x="0" y="433" style="font-family: 'Open Sans', verdana, arial, sans-serif; font-size: 12px; fill: rgb(42, 63, 95); fill-opacity: 1; white-space: pre; opacity: 1;" transform="translate(283.28999999999996,0)">Mar 2023</text></g><g class="xtick"><text text-anchor="middle" x="0" y="433" style="font-family: 'Open Sans', verdana, arial, sans-serif; font-size: 12px; fill: rgb(42, 63, 95); fill-opacity: 1; white-space: pre; opacity: 1;" transform="translate(380.18,0)">May 2023</text></g><g class="xtick"><text text-anchor="middle" x="0" y="433" style="font-family: 'Open Sans', verdana, arial, sans-serif; font-size: 12px; fill: rgb(42, 63, 95); fill-opacity: 1; white-space: pre; opacity: 1;" transform="translate(477.06,0)">Jul 2023</text></g><g class="xtick"><text text-anchor="middle" x="0" y="433" style="font-family: 'Open Sans', verdana, arial, sans-serif; font-size: 12px; fill: rgb(42, 63, 95); fill-opacity: 1; white-space: pre; opacity: 1;" transform="translate(575.53,0)">Sep 2023</text></g></g><g class="yaxislayer-above"><g class="ytick"><text text-anchor="end" x="79" y="4.199999999999999" transform="translate(0,420)" style="font-family: 'Open Sans', verdana, arial, sans-serif; font-size: 12px; fill: rgb(42, 63, 95); fill-opacity: 1; white-space: pre; opacity: 1;">$0</text></g><g class="ytick"><text text-anchor="end" x="79" y="4.199999999999999" style="font-family: 'Open Sans', verdana, arial, sans-serif; font-size: 12px; fill: rgb(42, 63, 95); fill-opacity: 1; white-space: pre; opacity: 1;" transform="translate(0,380.02)">$10M</text></g><g class="ytick"><text text-anchor="end" x="79" y="4.199999999999999" style="font-family: 'Open Sans', verdana, arial, sans-serif; font-size: 12px; fill: rgb(42, 63, 95); fill-opacity: 1; white-space: pre; opacity: 1;" transform="translate(0,340.05)">$20M</text></g><g class="ytick"><text text-anchor="end" x="79" y="4.199999999999999" style="font-family: 'Open Sans', verdana, arial, sans-serif; font-size: 12px; fill: rgb(42, 63, 95); fill-opacity: 1; white-space: pre; opacity: 1;" transform="translate(0,300.07)">$30M</text></g><g class="ytick"><text text-anchor="end" x="79" y="4.199999999999999" style="font-family: 'Open Sans', verdana, arial, sans-serif; font-size: 12px; fill: rgb(42, 63, 95); fill-opacity: 1; white-space: pre; opacity: 1;" transform="translate(0,260.1)">$40M</text></g><g class="ytick"><text text-anchor="end" x="79" y="4.199999999999999" style="font-family: 'Open Sans', verdana, arial, sans-serif; font-size: 12px; fill: rgb(42, 63, 95); fill-opacity: 1; white-space: pre; opacity: 1;" transform="translate(0,220.12)">$50M</text></g><g class="ytick"><text text-anchor="end" x="79" y="4.199999999999999" style="font-family: 'Open Sans', verdana, arial, sans-serif; font-size: 12px; fill: rgb(42, 63, 95); fill-opacity: 1; white-space: pre; opacity: 1;" transform="translate(0,180.15)">$60M</text></g><g class="ytick"><text text-anchor="end" x="79" y="4.199999999999999" style="font-family: 'Open Sans', verdana, arial, sans-serif; font-size: 12px; fill: rgb(42, 63, 95); fill-opacity: 1; white-space: pre; opacity: 1;" transform="translate(0,140.17000000000002)">$70M</text></g><g class="ytick"><text text-anchor="end" x="79" y="4.199999999999999" style="font-family: 'Open Sans', verdana, arial, sans-serif; font-size: 12px; fill: rgb(42, 63, 95); fill-opacity: 1; white-space: pre; opacity: 1;" transform="translate(0,100.19)">$80M</text></g></g><g class="overaxes-above"/></g></g><g class="polarlayer"/><g class="smithlayer"/><g class="ternarylayer"/><g class="geolayer"/><g class="funnelarealayer"/><g class="pielayer"/><g class="iciclelayer"/><g class="treemaplayer"/><g class="sunburstlayer"/><g class="glimages"/><defs id="topdefs-300ed2"><g class="clips"/></defs><g class="layer-above"><g class="imagelayer"/><g class="shapelayer"/></g><g class="infolayer"><g class="g-gtitle"><text class="gtitle" x="35" y="50" text-anchor="start" dy="0em" style="font-family: 'Open Sans', verdana, arial, sans-serif; font-size: 17px; fill: rgb(42, 63, 95); opacity: 1; font-weight: normal; white-space: pre;"><tspan class="line" dy="0em" x="35" y="50">Beefy</tspan><tspan class="line" dy="1.3em" x="35" y="50">​<tspan style="font-size:70%" dy="-0.6em">Cumulative Net Flows since Program Announcement, Until Program End + 30 Days</tspan><tspan dy="0.42em">​</tspan></tspan></text></g><g class="g-xtitle"><text class="xtitle" x="350" y="460.3" text-anchor="middle" style="font-family: 'Open Sans', verdana, arial, sans-serif; font-size: 14px; fill: rgb(42, 63, 95); opacity: 1; font-weight: normal; white-space: pre;">Day</text></g><g class="g-ytitle"><text class="ytitle" transform="rotate(-90,24.668750000000003,260)" x="24.668750000000003" y="260" text-anchor="middle" style="font-family: 'Open Sans', verdana, arial, sans-serif; font-size: 14px; fill: rgb(42, 63, 95); opacity: 1; font-weight: normal; white-space: pre;">Cumulative Net Flows (USD)</text></g></g></svg>