<svg class="main-svg" xmlns="http://www.w3.org/2000/svg" xmlns:xlink="http://www.w3.org/1999/xlink" width="700" height="500" style="" viewBox="0 0 700 500"><rect x="0" y="0" width="700" height="500" style="fill: rgb(255, 255, 255); fill-opacity: 1;"/><defs id="defs-07f48e"><g class="clips"><clipPath id="clip07f48exyplot" class="plotclip"><rect width="540" height="320"/></clipPath><clipPath class="axesclip" id="clip07f48ex"><rect x="80" y="0" width="540" height="500"/></clipPath><clipPath class="axesclip" id="clip07f48ey"><rect x="0" y="100" width="700" height="320"/></clipPath><clipPath class="axesclip" id="clip07f48exy"><rect x="80" y="100" width="540" height="320"/></clipPath></g><g class="gradients"/><g class="patterns"/></defs><g class="bglayer"><rect class="bg" x="80" y="100" width="540" height="320" style="fill: rgb(229, 236, 246); fill-opacity: 1; stroke-width: 0;"/></g><g class="layer-below"><g class="imagelayer"/><g class="shapelayer"/></g><g class="cartesianlayer"><g class="subplot xy"><g class="layer-subplot"><g class="shapelayer"/><g class="imagelayer"/></g><g class="minor-gridlayer"><g class="x"/><g class="y"/></g><g class="gridlayer"><g class="x"><path class="xgrid crisp" transform="translate(99.48,0)" d="M0,100v320" style="stroke: rgb(255, 255, 255); stroke-opacity: 1; stroke-width: 1px;"/><path class="xgrid crisp" transform="translate(182.99,0)" d="M0,100v320" style="stroke: rgb(255, 255, 255); stroke-opacity: 1; stroke-width: 1px;"/><path class="xgrid crisp" transform="translate(269.28,0)" d="M0,100v320" style="stroke: rgb(255, 255, 255); stroke-opacity: 1; stroke-width: 1px;"/><path class="xgrid crisp" transform="translate(355.57,0)" d="M0,100v320" style="stroke: rgb(255, 255, 255); stroke-opacity: 1; stroke-width: 1px;"/><path class="xgrid crisp" transform="translate(433.51,0)" d="M0,100v320" style="stroke: rgb(255, 255, 255); stroke-opacity: 1; stroke-width: 1px;"/><path class="xgrid crisp" transform="translate(519.79,0)" d="M0,100v320" style="stroke: rgb(255, 255, 255); stroke-opacity: 1; stroke-width: 1px;"/><path class="xgrid crisp" transform="translate(603.3,0)" d="M0,100v320" style="stroke: rgb(255, 255, 255); stroke-opacity: 1; stroke-width: 1px;"/></g><g class="y"><path class="ygrid crisp" transform="translate(0,365.55)" d="M80,0h540" style="stroke: rgb(255, 255, 255); stroke-opacity: 1; stroke-width: 1px;"/><path class="ygrid crisp" transform="translate(0,311.1)" d="M80,0h540" style="stroke: rgb(255, 255, 255); stroke-opacity: 1; stroke-width: 1px;"/><path class="ygrid crisp" transform="translate(0,256.65)" d="M80,0h540" style="stroke: rgb(255, 255, 255); stroke-opacity: 1; stroke-width: 1px;"/><path class="ygrid crisp" transform="translate(0,202.2)" d="M80,0h540" style="stroke: rgb(255, 255, 255); stroke-opacity: 1; stroke-width: 1px;"/><path class="ygrid crisp" transform="translate(0,147.75)" d="M80,0h540" style="stroke: rgb(255, 255, 255); stroke-opacity: 1; stroke-width: 1px;"/></g></g><g class="zerolinelayer"><path class="yzl zl crisp" transform="translate(0,420)" d="M80,0h540" style="stroke: rgb(255, 255, 255); stroke-opacity: 1; stroke-width: 2px;"/></g><path class="xlines-below"/><path class="ylines-below"/><g class="overlines-below"/><g class="xaxislayer-below"/><g class="yaxislayer-below"/><g class="overaxes-below"/><g class="plot" transform="translate(80,100)" clip-path="url(#clip07f48exyplot)"><g class="scatterlayer mlayer"><g class="trace scatter trace4f8dac" style="stroke-miterlimit: 2;"><g class="fills"><g><path class="js-fill" d="M540,320L0,320L0,320L2.78,320L5.57,282.25L8.35,232.82L11.13,240.32L13.92,242.52L16.7,232.7L19.48,235.05L22.27,227.17L25.05,224.39L27.84,243.25L36.19,241.29L38.97,243.39L41.75,254.74L44.54,262.39L47.32,262.07L50.1,256.77L52.89,256.03L55.67,232.75L58.45,233.11L61.24,231.66L69.59,246.23L72.37,243.84L75.15,242.55L77.94,243.19L80.72,243.1L83.51,242.05L86.29,241.84L89.07,238.76L91.86,232.06L94.64,220.37L97.42,227.08L100.21,229.37L102.99,247.65L105.77,237.05L111.34,223.69L114.12,239.57L116.91,240.42L119.69,255.62L122.47,244.8L125.26,244.48L128.04,245.08L130.82,252.06L133.61,251.37L136.39,251.53L141.96,251.45L144.74,247.45L147.53,241.86L150.31,241.44L155.88,242.09L158.66,240.06L164.23,240.28L167.01,238.93L169.79,239.24L172.58,238.69L175.36,236.16L178.14,235.93L180.93,238.81L183.71,237.77L186.5,239.67L189.28,239.51L192.06,238.84L194.85,236.78L197.63,234.16L200.41,235.35L208.76,235.14L211.55,233.66L214.33,234.76L217.11,236.96L222.68,227.89L225.46,227.04L228.25,225.21L231.03,219.33L233.81,243.63L236.6,239.46L239.38,242.36L242.17,260.56L244.95,264.34L247.73,261.89L250.52,258.55L253.3,256.74L256.08,255.38L258.87,245.17L261.65,247.08L264.43,246.35L267.22,245.04L270,228.87L272.78,236.63L275.57,232.67L278.35,220.81L281.13,227.64L283.92,227.28L286.7,223.18L289.48,223.39L292.27,207.58L295.05,223.23L297.84,224.64L300.62,224.08L303.4,217.86L306.19,216.95L308.97,217.54L311.75,198.01L314.54,200.19L320.1,206.81L322.89,200.31L325.67,204.97L328.45,204.67L331.24,207.42L334.02,200.53L336.8,194.41L339.59,174.93L342.37,169.13L345.16,173.8L347.94,173.53L350.72,162.82L353.51,162.35L356.29,175.15L359.07,165.22L361.86,168.41L364.64,171.08L367.42,161.19L370.21,169.07L372.99,173.99L375.77,167.78L378.56,155.02L381.34,171.8L384.12,143.8L389.69,195.25L392.47,231.45L395.26,283.84L398.04,268.99L400.83,263.27L403.61,264.47L406.39,263.93L409.18,249.54L411.96,240.2L414.74,154.79L417.53,165.95L420.31,170.77L425.88,136.64L428.66,162.75L431.44,162.25L434.23,175.56L439.79,173.84L442.58,164.33L445.36,163.83L448.14,160.95L450.93,165.06L453.71,171.43L456.5,174.27L459.28,194.11L462.06,240.68L464.85,234.79L467.63,234.63L470.41,228.58L475.98,158.01L478.76,153.71L481.55,131.8L484.33,144.19L487.11,135.04L489.9,98.24L492.68,132.67L495.46,121.69L498.25,117.45L501.03,104.98L503.82,62.81L506.6,64.53L509.38,65.78L512.17,72.17L514.95,69.36L517.73,71.73L520.52,74.35L523.3,105.64L526.08,102.95L528.87,97.87L531.65,107.4L534.43,64.8L537.22,16L540,16.76" style="fill: rgb(99, 110, 250); fill-opacity: 0.5; stroke-width: 0;"/></g></g><g class="errorbars"/><g class="lines"><path class="js-line" d="M0,320L2.78,320L5.57,282.25L8.35,232.82L11.13,240.32L13.92,242.52L16.7,232.7L19.48,235.05L22.27,227.17L25.05,224.39L27.84,243.25L36.19,241.29L38.97,243.39L41.75,254.74L44.54,262.39L47.32,262.07L50.1,256.77L52.89,256.03L55.67,232.75L58.45,233.11L61.24,231.66L69.59,246.23L72.37,243.84L75.15,242.55L77.94,243.19L80.72,243.1L83.51,242.05L86.29,241.84L89.07,238.76L91.86,232.06L94.64,220.37L97.42,227.08L100.21,229.37L102.99,247.65L105.77,237.05L111.34,223.69L114.12,239.57L116.91,240.42L119.69,255.62L122.47,244.8L125.26,244.48L128.04,245.08L130.82,252.06L133.61,251.37L136.39,251.53L141.96,251.45L144.74,247.45L147.53,241.86L150.31,241.44L155.88,242.09L158.66,240.06L164.23,240.28L167.01,238.93L169.79,239.24L172.58,238.69L175.36,236.16L178.14,235.93L180.93,238.81L183.71,237.77L186.5,239.67L189.28,239.51L192.06,238.84L194.85,236.78L197.63,234.16L200.41,235.35L208.76,235.14L211.55,233.66L214.33,234.76L217.11,236.96L222.68,227.89L225.46,227.04L228.25,225.21L231.03,219.33L233.81,243.63L236.6,239.46L239.38,242.36L242.17,260.56L244.95,264.34L247.73,261.89L250.52,258.55L253.3,256.74L256.08,255.38L258.87,245.17L261.65,247.08L264.43,246.35L267.22,245.04L270,228.87L272.78,236.63L275.57,232.67L278.35,220.81L281.13,227.64L283.92,227.28L286.7,223.18L289.48,223.39L292.27,207.58L295.05,223.23L297.84,224.64L300.62,224.08L303.4,217.86L306.19,216.95L308.97,217.54L311.75,198.01L314.54,200.19L320.1,206.81L322.89,200.31L325.67,204.97L328.45,204.67L331.24,207.42L334.02,200.53L336.8,194.41L339.59,174.93L342.37,169.13L345.16,173.8L347.94,173.53L350.72,162.82L353.51,162.35L356.29,175.15L359.07,165.22L361.86,168.41L364.64,171.08L367.42,161.19L370.21,169.07L372.99,173.99L375.77,167.78L378.56,155.02L381.34,171.8L384.12,143.8L389.69,195.25L392.47,231.45L395.26,283.84L398.04,268.99L400.83,263.27L403.61,264.47L406.39,263.93L409.18,249.54L411.96,240.2L414.74,154.79L417.53,165.95L420.31,170.77L425.88,136.64L428.66,162.75L431.44,162.25L434.23,175.56L439.79,173.84L442.58,164.33L445.36,163.83L448.14,160.95L450.93,165.06L453.71,171.43L456.5,174.27L459.28,194.11L462.06,240.68L464.85,234.79L467.63,234.63L470.41,228.58L475.98,158.01L478.76,153.71L481.55,131.8L484.33,144.19L487.11,135.04L489.9,98.24L492.68,132.67L495.46,121.69L498.25,117.45L501.03,104.98L503.82,62.81L506.6,64.53L509.38,65.78L512.17,72.17L514.95,69.36L517.73,71.73L520.52,74.35L523.3,105.64L526.08,102.95L528.87,97.87L531.65,107.4L534.43,64.8L537.22,16L540,16.76" style="vector-effect: none; fill: none; stroke: rgb(99, 110, 250); stroke-opacity: 1; stroke-width: 2px; opacity: 1;"/></g><g class="points"/><g class="text"/></g></g></g><g class="overplot"/><path class="xlines-above crisp" d="M0,0" style="fill: none;"/><path class="ylines-above crisp" d="M0,0" style="fill: none;"/><g class="overlines-above"/><g class="xaxislayer-above"><g class="xtick"><text text-anchor="middle" x="0" y="433" transform="translate(99.48,0)" style="font-family: 'Open Sans', verdana, arial, sans-serif; font-size: 12px; fill: rgb(42, 63, 95); fill-opacity: 1; white-space: pre; opacity: 1;">Nov 2022</text></g><g class="xtick"><text text-anchor="middle" x="0" y="433" style="font-family: 'Open Sans', verdana, arial, sans-serif; font-size: 12px; fill: rgb(42, 63, 95); fill-opacity: 1; white-space: pre; opacity: 1;" transform="translate(182.99,0)">Dec 2022</text></g><g class="xtick"><text text-anchor="middle" x="0" y="433" style="font-family: 'Open Sans', verdana, arial, sans-serif; font-size: 12px; fill: rgb(42, 63, 95); fill-opacity: 1; white-space: pre; opacity: 1;" transform="translate(269.28,0)">Jan 2023</text></g><g class="xtick"><text text-anchor="middle" x="0" y="433" style="font-family: 'Open Sans', verdana, arial, sans-serif; font-size: 12px; fill: rgb(42, 63, 95); fill-opacity: 1; white-space: pre; opacity: 1;" transform="translate(355.57,0)">Feb 2023</text></g><g class="xtick"><text text-anchor="middle" x="0" y="433" style="font-family: 'Open Sans', verdana, arial, sans-serif; font-size: 12px; fill: rgb(42, 63, 95); fill-opacity: 1; white-space: pre; opacity: 1;" transform="translate(433.51,0)">Mar 2023</text></g><g class="xtick"><text text-anchor="middle" x="0" y="433" style="font-family: 'Open Sans', verdana, arial, sans-serif; font-size: 12px; fill: rgb(42, 63, 95); fill-opacity: 1; white-space: pre; opacity: 1;" transform="translate(519.79,0)">Apr 2023</text></g><g class="xtick"><text text-anchor="middle" x="0" y="433" style="font-family: 'Open Sans', verdana, arial, sans-serif; font-size: 12px; fill: rgb(42, 63, 95); fill-opacity: 1; white-space: pre; opacity: 1;" transform="translate(603.3,0)">May 2023</text></g></g><g class="yaxislayer-above"><g class="ytick"><text text-anchor="end" x="79" y="4.199999999999999" transform="translate(0,420)" style="font-family: 'Open Sans', verdana, arial, sans-serif; font-size: 12px; fill: rgb(42, 63, 95); fill-opacity: 1; white-space: pre; opacity: 1;">$0</text></g><g class="ytick"><text text-anchor="end" x="79" y="4.199999999999999" style="font-family: 'Open Sans', verdana, arial, sans-serif; font-size: 12px; fill: rgb(42, 63, 95); fill-opacity: 1; white-space: pre; opacity: 1;" transform="translate(0,365.55)">$0.5M</text></g><g class="ytick"><text text-anchor="end" x="79" y="4.199999999999999" style="font-family: 'Open Sans', verdana, arial, sans-serif; font-size: 12px; fill: rgb(42, 63, 95); fill-opacity: 1; white-space: pre; opacity: 1;" transform="translate(0,311.1)">$1M</text></g><g class="ytick"><text text-anchor="end" x="79" y="4.199999999999999" style="font-family: 'Open Sans', verdana, arial, sans-serif; font-size: 12px; fill: rgb(42, 63, 95); fill-opacity: 1; white-space: pre; opacity: 1;" transform="translate(0,256.65)">$1.5M</text></g><g class="ytick"><text text-anchor="end" x="79" y="4.199999999999999" style="font-family: 'Open Sans', verdana, arial, sans-serif; font-size: 12px; fill: rgb(42, 63, 95); fill-opacity: 1; white-space: pre; opacity: 1;" transform="translate(0,202.2)">$2M</text></g><g class="ytick"><text text-anchor="end" x="79" y="4.199999999999999" style="font-family: 'Open Sans', verdana, arial, sans-serif; font-size: 12px; fill: rgb(42, 63, 95); fill-opacity: 1; white-space: pre; opacity: 1;" transform="translate(0,147.75)">$2.5M</text></g></g><g class="overaxes-above"/></g></g><g class="polarlayer"/><g class="smithlayer"/><g class="ternarylayer"/><g class="geolayer"/><g class="funnelarealayer"/><g class="pielayer"/><g class="iciclelayer"/><g class="treemaplayer"/><g class="sunburstlayer"/><g class="glimages"/><defs id="topdefs-07f48e"><g class="clips"/></defs><g class="layer-above"><g class="imagelayer"/><g class="shapelayer"/></g><g class="infolayer"><g class="g-gtitle"><text class="gtitle" x="35" y="50" text-anchor="start" dy="0em" style="font-family: 'Open Sans', verdana, arial, sans-serif; font-size: 17px; fill: rgb(42, 63, 95); opacity: 1; font-weight: normal; white-space: pre;"><tspan class="line" dy="0em" x="35" y="50">Synthetix - All Synthetix Hop Pools</tspan><tspan class="line" dy="1.3em" x="35" y="50">​<tspan style="font-size:70%" dy="-0.6em">Cumulative Net Flows since Program Announcement, Until Program End + 30 Days</tspan><tspan dy="0.42em">​</tspan></tspan></text></g><g class="g-xtitle"><text class="xtitle" x="350" y="460.3" text-anchor="middle" style="font-family: 'Open Sans', verdana, arial, sans-serif; font-size: 14px; fill: rgb(42, 63, 95); opacity: 1; font-weight: normal; white-space: pre;">Day</text></g><g class="g-ytitle"><text class="ytitle" transform="rotate(-90,21.340625000000003,260)" x="21.340625000000003" y="260" text-anchor="middle" style="font-family: 'Open Sans', verdana, arial, sans-serif; font-size: 14px; fill: rgb(42, 63, 95); opacity: 1; font-weight: normal; white-space: pre;">Cumulative Net Flows (USD)</text></g></g></svg>