<svg class="main-svg" xmlns="http://www.w3.org/2000/svg" xmlns:xlink="http://www.w3.org/1999/xlink" width="700" height="500" style="" viewBox="0 0 700 500"><rect x="0" y="0" width="700" height="500" style="fill: rgb(255, 255, 255); fill-opacity: 1;"/><defs id="defs-ad4230"><g class="clips"><clipPath id="clipad4230xyplot" class="plotclip"><rect width="540" height="320"/></clipPath><clipPath class="axesclip" id="clipad4230x"><rect x="80" y="0" width="540" height="500"/></clipPath><clipPath class="axesclip" id="clipad4230y"><rect x="0" y="100" width="700" height="320"/></clipPath><clipPath class="axesclip" id="clipad4230xy"><rect x="80" y="100" width="540" height="320"/></clipPath></g><g class="gradients"/><g class="patterns"/></defs><g class="bglayer"><rect class="bg" x="80" y="100" width="540" height="320" style="fill: rgb(229, 236, 246); fill-opacity: 1; stroke-width: 0;"/></g><g class="layer-below"><g class="imagelayer"/><g class="shapelayer"/></g><g class="cartesianlayer"><g class="subplot xy"><g class="layer-subplot"><g class="shapelayer"/><g class="imagelayer"/></g><g class="minor-gridlayer"><g class="x"/><g class="y"/></g><g class="gridlayer"><g class="x"><path class="xgrid crisp" transform="translate(167.91,0)" d="M0,100v320" style="stroke: rgb(255, 255, 255); stroke-opacity: 1; stroke-width: 1px;"/><path class="xgrid crisp" transform="translate(277.34000000000003,0)" d="M0,100v320" style="stroke: rgb(255, 255, 255); stroke-opacity: 1; stroke-width: 1px;"/><path class="xgrid crisp" transform="translate(386.78,0)" d="M0,100v320" style="stroke: rgb(255, 255, 255); stroke-opacity: 1; stroke-width: 1px;"/><path class="xgrid crisp" transform="translate(492.62,0)" d="M0,100v320" style="stroke: rgb(255, 255, 255); stroke-opacity: 1; stroke-width: 1px;"/><path class="xgrid crisp" transform="translate(602.06,0)" d="M0,100v320" style="stroke: rgb(255, 255, 255); stroke-opacity: 1; stroke-width: 1px;"/></g><g class="y"><path class="ygrid crisp" transform="translate(0,415.4)" d="M80,0h540" style="stroke: rgb(255, 255, 255); stroke-opacity: 1; stroke-width: 1px;"/><path class="ygrid crisp" transform="translate(0,365.7)" d="M80,0h540" style="stroke: rgb(255, 255, 255); stroke-opacity: 1; stroke-width: 1px;"/><path class="ygrid crisp" transform="translate(0,315.99)" d="M80,0h540" style="stroke: rgb(255, 255, 255); stroke-opacity: 1; stroke-width: 1px;"/><path class="ygrid crisp" transform="translate(0,266.28)" d="M80,0h540" style="stroke: rgb(255, 255, 255); stroke-opacity: 1; stroke-width: 1px;"/><path class="ygrid crisp" transform="translate(0,216.57)" d="M80,0h540" style="stroke: rgb(255, 255, 255); stroke-opacity: 1; stroke-width: 1px;"/><path class="ygrid crisp" transform="translate(0,166.87)" d="M80,0h540" style="stroke: rgb(255, 255, 255); stroke-opacity: 1; stroke-width: 1px;"/></g></g><g class="zerolinelayer"><path class="yzl zl crisp" transform="translate(0,117.16)" d="M80,0h540" style="stroke: rgb(255, 255, 255); stroke-opacity: 1; stroke-width: 2px;"/></g><path class="xlines-below"/><path class="ylines-below"/><g class="overlines-below"/><g class="xaxislayer-below"/><g class="yaxislayer-below"/><g class="overaxes-below"/><g class="plot" transform="translate(80,100)" clip-path="url(#clipad4230xyplot)"><g class="scatterlayer mlayer"><g class="trace scatter trace95d24c" style="stroke-miterlimit: 2;"><g class="fills"><g><path class="js-fill" d="M540,17.16L0,17.16L0,20.11L1.79,17.97L3.59,17.74L5.38,16.16L7.18,16L8.97,178.35L10.76,166.41L12.56,163.61L14.35,170.05L16.15,172.96L17.94,164.79L21.53,164.71L23.32,173.14L25.12,173.32L26.91,171.77L30.5,171.57L32.29,174.06L34.09,174.2L35.88,179.44L37.67,161.19L39.47,155.67L41.26,151.2L43.06,157.39L44.85,162.94L46.64,157.53L48.44,161.29L50.23,159.73L52.03,155.04L53.82,144.68L55.61,145.45L57.41,143.49L59.2,141.84L61,142.08L62.79,136.65L64.58,135.26L66.38,134.27L68.17,136.64L71.76,137.72L73.55,147.35L75.35,147.78L77.14,155.55L78.94,157.94L80.73,153.37L82.52,153.01L84.32,167.4L86.11,168.21L87.91,171.85L89.7,174.46L91.5,175.31L95.08,175.03L96.88,176.17L100.47,173.43L102.26,160.98L107.64,161.84L109.44,156.2L111.23,156.37L113.02,168.93L116.61,165.32L118.41,165.14L120.2,166L121.99,165.51L125.58,162.54L127.38,151.92L129.17,153.31L130.96,153.03L134.55,152.67L136.35,152.83L139.93,151.32L141.73,146.84L145.32,146.52L147.11,144.9L148.9,145.25L150.7,144.35L152.49,145.44L154.29,144.74L159.67,144.38L161.46,143.94L163.26,144.06L165.05,142.67L166.84,140.68L168.64,140.61L170.43,139.5L172.23,140.86L174.02,135.1L175.81,135.01L177.61,137.42L179.4,137.02L182.99,139.63L184.78,143.58L188.37,147.17L190.17,150.72L193.75,154.23L195.55,154.3L197.34,159.13L199.14,157.11L200.93,158.26L202.72,169.22L204.52,168.59L206.31,169.04L208.11,168.47L209.9,166.55L211.69,173.06L213.49,173.27L215.28,197.69L217.08,201.19L218.87,207.34L220.66,209.57L224.25,224.82L226.05,224.38L227.84,273.08L229.63,282.52L231.43,281.83L233.22,280.13L235.02,281.59L236.81,279.02L238.6,285.78L240.4,285.07L243.99,285.08L245.78,281.05L247.57,289.95L249.37,289.96L251.16,296.22L252.96,297.27L254.75,304L256.55,289.09L258.34,288.58L260.13,293.96L261.93,292.35L263.72,288.35L265.52,287.95L267.31,294.43L270.9,294.27L272.69,293.73L274.49,292.53L276.28,297.41L278.07,297.01L279.87,291.76L281.66,289.05L283.46,288.94L285.25,288.3L287.04,288.79L288.84,286.46L290.63,288.12L292.43,286.23L294.22,286.48L296.01,286.57L297.81,285.85L299.6,285.28L301.4,283.21L303.19,282.35L304.98,282.53L306.78,283.37L308.57,282.42L310.37,282.35L312.16,281.4L313.95,280.81L315.75,286.58L317.54,284.78L319.34,284.28L321.13,283.95L322.92,280.5L324.72,277.68L326.51,278.01L328.31,279.86L330.1,275.61L331.89,291.01L333.69,292.24L335.48,293.1L337.28,296.86L339.07,297.25L340.86,295.07L342.66,299.01L344.45,300.88L349.83,295.53L351.63,299.15L353.42,297.4L355.22,297.03L357.01,298.18L358.8,298.42L360.6,296.4L362.39,297.59L364.19,296.75L365.98,298.18L367.77,299.11L369.57,297.35L371.36,298.05L373.16,295.76L374.95,294.81L376.74,296.3L378.54,293.41L380.33,292.63L382.13,290.16L383.92,291.24L385.71,289.51L387.51,289.27L389.3,288.75L391.1,290.17L392.89,289.28L394.68,292.91L396.48,291.41L398.27,292.27L400.07,284.26L401.86,282.88L403.65,282.87L405.45,281.61L407.24,281.75L409.04,279.88L410.83,277.63L412.62,276.91L414.42,278.34L416.21,276.94L419.8,279.34L421.6,278.87L423.39,277.92L425.18,278.06L428.77,278.43L430.57,273.3L432.36,287.19L434.15,283.86L435.95,277.59L437.74,283.16L439.54,286.87L441.33,286.62L443.12,287.4L444.92,290.89L446.71,292.52L448.51,292.6L450.3,286.89L452.09,285.71L453.89,287.21L455.68,286.29L457.48,285.59L459.27,287.19L461.06,279.08L462.86,281.44L464.65,282.38L466.45,278.94L468.24,276.04L470.03,274.72L473.62,276.35L475.42,278.9L477.21,281.18L479,279L480.8,276.08L482.59,276.56L484.39,274.91L486.18,276.33L487.97,274.76L489.77,275.13L491.56,275.56L493.36,274.88L495.15,272.86L496.94,274.12L498.74,267.37L500.53,270.57L502.33,269.07L504.12,270.85L507.71,266.8L509.5,268L511.3,271.87L513.09,272.15L516.68,271.99L518.47,269.81L520.27,269.41L522.06,268.05L523.85,271.16L525.65,270.76L527.44,268.11L529.24,263.76L531.03,261.15L532.82,253.75L534.62,255.01L536.41,220.66L538.21,222.54L540,219.51" style="fill: rgb(99, 110, 250); fill-opacity: 0.5; stroke-width: 0;"/></g></g><g class="errorbars"/><g class="lines"><path class="js-line" d="M0,20.11L1.79,17.97L3.59,17.74L5.38,16.16L7.18,16L8.97,178.35L10.76,166.41L12.56,163.61L14.35,170.05L16.15,172.96L17.94,164.79L21.53,164.71L23.32,173.14L25.12,173.32L26.91,171.77L30.5,171.57L32.29,174.06L34.09,174.2L35.88,179.44L37.67,161.19L39.47,155.67L41.26,151.2L43.06,157.39L44.85,162.94L46.64,157.53L48.44,161.29L50.23,159.73L52.03,155.04L53.82,144.68L55.61,145.45L57.41,143.49L59.2,141.84L61,142.08L62.79,136.65L64.58,135.26L66.38,134.27L68.17,136.64L71.76,137.72L73.55,147.35L75.35,147.78L77.14,155.55L78.94,157.94L80.73,153.37L82.52,153.01L84.32,167.4L86.11,168.21L87.91,171.85L89.7,174.46L91.5,175.31L95.08,175.03L96.88,176.17L100.47,173.43L102.26,160.98L107.64,161.84L109.44,156.2L111.23,156.37L113.02,168.93L116.61,165.32L118.41,165.14L120.2,166L121.99,165.51L125.58,162.54L127.38,151.92L129.17,153.31L130.96,153.03L134.55,152.67L136.35,152.83L139.93,151.32L141.73,146.84L145.32,146.52L147.11,144.9L148.9,145.25L150.7,144.35L152.49,145.44L154.29,144.74L159.67,144.38L161.46,143.94L163.26,144.06L165.05,142.67L166.84,140.68L168.64,140.61L170.43,139.5L172.23,140.86L174.02,135.1L175.81,135.01L177.61,137.42L179.4,137.02L182.99,139.63L184.78,143.58L188.37,147.17L190.17,150.72L193.75,154.23L195.55,154.3L197.34,159.13L199.14,157.11L200.93,158.26L202.72,169.22L204.52,168.59L206.31,169.04L208.11,168.47L209.9,166.55L211.69,173.06L213.49,173.27L215.28,197.69L217.08,201.19L218.87,207.34L220.66,209.57L224.25,224.82L226.05,224.38L227.84,273.08L229.63,282.52L231.43,281.83L233.22,280.13L235.02,281.59L236.81,279.02L238.6,285.78L240.4,285.07L243.99,285.08L245.78,281.05L247.57,289.95L249.37,289.96L251.16,296.22L252.96,297.27L254.75,304L256.55,289.09L258.34,288.58L260.13,293.96L261.93,292.35L263.72,288.35L265.52,287.95L267.31,294.43L270.9,294.27L272.69,293.73L274.49,292.53L276.28,297.41L278.07,297.01L279.87,291.76L281.66,289.05L283.46,288.94L285.25,288.3L287.04,288.79L288.84,286.46L290.63,288.12L292.43,286.23L294.22,286.48L296.01,286.57L297.81,285.85L299.6,285.28L301.4,283.21L303.19,282.35L304.98,282.53L306.78,283.37L308.57,282.42L310.37,282.35L312.16,281.4L313.95,280.81L315.75,286.58L317.54,284.78L319.34,284.28L321.13,283.95L322.92,280.5L324.72,277.68L326.51,278.01L328.31,279.86L330.1,275.61L331.89,291.01L333.69,292.24L335.48,293.1L337.28,296.86L339.07,297.25L340.86,295.07L342.66,299.01L344.45,300.88L349.83,295.53L351.63,299.15L353.42,297.4L355.22,297.03L357.01,298.18L358.8,298.42L360.6,296.4L362.39,297.59L364.19,296.75L365.98,298.18L367.77,299.11L369.57,297.35L371.36,298.05L373.16,295.76L374.95,294.81L376.74,296.3L378.54,293.41L380.33,292.63L382.13,290.16L383.92,291.24L385.71,289.51L387.51,289.27L389.3,288.75L391.1,290.17L392.89,289.28L394.68,292.91L396.48,291.41L398.27,292.27L400.07,284.26L401.86,282.88L403.65,282.87L405.45,281.61L407.24,281.75L409.04,279.88L410.83,277.63L412.62,276.91L414.42,278.34L416.21,276.94L419.8,279.34L421.6,278.87L423.39,277.92L425.18,278.06L428.77,278.43L430.57,273.3L432.36,287.19L434.15,283.86L435.95,277.59L437.74,283.16L439.54,286.87L441.33,286.62L443.12,287.4L444.92,290.89L446.71,292.52L448.51,292.6L450.3,286.89L452.09,285.71L453.89,287.21L455.68,286.29L457.48,285.59L459.27,287.19L461.06,279.08L462.86,281.44L464.65,282.38L466.45,278.94L468.24,276.04L470.03,274.72L473.62,276.35L475.42,278.9L477.21,281.18L479,279L480.8,276.08L482.59,276.56L484.39,274.91L486.18,276.33L487.97,274.76L489.77,275.13L491.56,275.56L493.36,274.88L495.15,272.86L496.94,274.12L498.74,267.37L500.53,270.57L502.33,269.07L504.12,270.85L507.71,266.8L509.5,268L511.3,271.87L513.09,272.15L516.68,271.99L518.47,269.81L520.27,269.41L522.06,268.05L523.85,271.16L525.65,270.76L527.44,268.11L529.24,263.76L531.03,261.15L532.82,253.75L534.62,255.01L536.41,220.66L538.21,222.54L540,219.51" style="vector-effect: none; fill: none; stroke: rgb(99, 110, 250); stroke-opacity: 1; stroke-width: 2px; opacity: 1;"/></g><g class="points"/><g class="text"/></g></g></g><g class="overplot"/><path class="xlines-above crisp" d="M0,0" style="fill: none;"/><path class="ylines-above crisp" d="M0,0" style="fill: none;"/><g class="overlines-above"/><g class="xaxislayer-above"><g class="xtick"><text text-anchor="middle" x="0" y="433" transform="translate(167.91,0)" style="font-family: 'Open Sans', verdana, arial, sans-serif; font-size: 12px; fill: rgb(42, 63, 95); fill-opacity: 1; white-space: pre; opacity: 1;">Sep 2022</text></g><g class="xtick"><text text-anchor="middle" x="0" y="433" style="font-family: 'Open Sans', verdana, arial, sans-serif; font-size: 12px; fill: rgb(42, 63, 95); fill-opacity: 1; white-space: pre; opacity: 1;" transform="translate(277.34000000000003,0)">Nov 2022</text></g><g class="xtick"><text text-anchor="middle" x="0" y="433" style="font-family: 'Open Sans', verdana, arial, sans-serif; font-size: 12px; fill: rgb(42, 63, 95); fill-opacity: 1; white-space: pre; opacity: 1;" transform="translate(386.78,0)">Jan 2023</text></g><g class="xtick"><text text-anchor="middle" x="0" y="433" style="font-family: 'Open Sans', verdana, arial, sans-serif; font-size: 12px; fill: rgb(42, 63, 95); fill-opacity: 1; white-space: pre; opacity: 1;" transform="translate(492.62,0)">Mar 2023</text></g><g class="xtick"><text text-anchor="middle" x="0" y="433" style="font-family: 'Open Sans', verdana, arial, sans-serif; font-size: 12px; fill: rgb(42, 63, 95); fill-opacity: 1; white-space: pre; opacity: 1;" transform="translate(602.06,0)">May 2023</text></g></g><g class="yaxislayer-above"><g class="ytick"><text text-anchor="end" x="79" y="4.199999999999999" transform="translate(0,415.4)" style="font-family: 'Open Sans', verdana, arial, sans-serif; font-size: 12px; fill: rgb(42, 63, 95); fill-opacity: 1; white-space: pre; opacity: 1;">$−12M</text></g><g class="ytick"><text text-anchor="end" x="79" y="4.199999999999999" style="font-family: 'Open Sans', verdana, arial, sans-serif; font-size: 12px; fill: rgb(42, 63, 95); fill-opacity: 1; white-space: pre; opacity: 1;" transform="translate(0,365.7)">$−10M</text></g><g class="ytick"><text text-anchor="end" x="79" y="4.199999999999999" style="font-family: 'Open Sans', verdana, arial, sans-serif; font-size: 12px; fill: rgb(42, 63, 95); fill-opacity: 1; white-space: pre; opacity: 1;" transform="translate(0,315.99)">$−8M</text></g><g class="ytick"><text text-anchor="end" x="79" y="4.199999999999999" style="font-family: 'Open Sans', verdana, arial, sans-serif; font-size: 12px; fill: rgb(42, 63, 95); fill-opacity: 1; white-space: pre; opacity: 1;" transform="translate(0,266.28)">$−6M</text></g><g class="ytick"><text text-anchor="end" x="79" y="4.199999999999999" style="font-family: 'Open Sans', verdana, arial, sans-serif; font-size: 12px; fill: rgb(42, 63, 95); fill-opacity: 1; white-space: pre; opacity: 1;" transform="translate(0,216.57)">$−4M</text></g><g class="ytick"><text text-anchor="end" x="79" y="4.199999999999999" style="font-family: 'Open Sans', verdana, arial, sans-serif; font-size: 12px; fill: rgb(42, 63, 95); fill-opacity: 1; white-space: pre; opacity: 1;" transform="translate(0,166.87)">$−2M</text></g><g class="ytick"><text text-anchor="end" x="79" y="4.199999999999999" style="font-family: 'Open Sans', verdana, arial, sans-serif; font-size: 12px; fill: rgb(42, 63, 95); fill-opacity: 1; white-space: pre; opacity: 1;" transform="translate(0,117.16)">$0</text></g></g><g class="overaxes-above"/></g></g><g class="polarlayer"/><g class="smithlayer"/><g class="ternarylayer"/><g class="geolayer"/><g class="funnelarealayer"/><g class="pielayer"/><g class="iciclelayer"/><g class="treemaplayer"/><g class="sunburstlayer"/><g class="glimages"/><defs id="topdefs-ad4230"><g class="clips"/></defs><g class="layer-above"><g class="imagelayer"/><g class="shapelayer"/></g><g class="infolayer"><g class="g-gtitle"><text class="gtitle" x="35" y="50" text-anchor="start" dy="0em" style="font-family: 'Open Sans', verdana, arial, sans-serif; font-size: 17px; fill: rgb(42, 63, 95); opacity: 1; font-weight: normal; white-space: pre;"><tspan class="line" dy="0em" x="35" y="50">Perpetual Protocol</tspan><tspan class="line" dy="1.3em" x="35" y="50">​<tspan style="font-size:70%" dy="-0.6em">Cumulative Net Flows since Program Announcement, Until Program End + 30 Days</tspan><tspan dy="0.42em">​</tspan></tspan></text></g><g class="g-xtitle"><text class="xtitle" x="350" y="460.3" text-anchor="middle" style="font-family: 'Open Sans', verdana, arial, sans-serif; font-size: 14px; fill: rgb(42, 63, 95); opacity: 1; font-weight: normal; white-space: pre;">Day</text></g><g class="g-ytitle"><text class="ytitle" transform="rotate(-90,17.668750000000003,260)" x="17.668750000000003" y="260" text-anchor="middle" style="font-family: 'Open Sans', verdana, arial, sans-serif; font-size: 14px; fill: rgb(42, 63, 95); opacity: 1; font-weight: normal; white-space: pre;">Cumulative Net Flows (USD)</text></g></g></svg>