<svg class="main-svg" xmlns="http://www.w3.org/2000/svg" xmlns:xlink="http://www.w3.org/1999/xlink" width="700" height="500" style="" viewBox="0 0 700 500"><rect x="0" y="0" width="700" height="500" style="fill: rgb(255, 255, 255); fill-opacity: 1;"/><defs id="defs-235873"><g class="clips"><clipPath id="clip235873xyplot" class="plotclip"><rect width="540" height="320"/></clipPath><clipPath class="axesclip" id="clip235873x"><rect x="80" y="0" width="540" height="500"/></clipPath><clipPath class="axesclip" id="clip235873y"><rect x="0" y="100" width="700" height="320"/></clipPath><clipPath class="axesclip" id="clip235873xy"><rect x="80" y="100" width="540" height="320"/></clipPath></g><g class="gradients"/><g class="patterns"/></defs><g class="bglayer"><rect class="bg" x="80" y="100" width="540" height="320" style="fill: rgb(229, 236, 246); fill-opacity: 1; stroke-width: 0;"/></g><g class="layer-below"><g class="imagelayer"/><g class="shapelayer"/></g><g class="cartesianlayer"><g class="subplot xy"><g class="layer-subplot"><g class="shapelayer"/><g class="imagelayer"/></g><g class="minor-gridlayer"><g class="x"/><g class="y"/></g><g class="gridlayer"><g class="x"><path class="xgrid crisp" transform="translate(97.1,0)" d="M0,100v320" style="stroke: rgb(255, 255, 255); stroke-opacity: 1; stroke-width: 1px;"/><path class="xgrid crisp" transform="translate(170.41,0)" d="M0,100v320" style="stroke: rgb(255, 255, 255); stroke-opacity: 1; stroke-width: 1px;"/><path class="xgrid crisp" transform="translate(246.15,0)" d="M0,100v320" style="stroke: rgb(255, 255, 255); stroke-opacity: 1; stroke-width: 1px;"/><path class="xgrid crisp" transform="translate(321.9,0)" d="M0,100v320" style="stroke: rgb(255, 255, 255); stroke-opacity: 1; stroke-width: 1px;"/><path class="xgrid crisp" transform="translate(390.32,0)" d="M0,100v320" style="stroke: rgb(255, 255, 255); stroke-opacity: 1; stroke-width: 1px;"/><path class="xgrid crisp" transform="translate(466.06,0)" d="M0,100v320" style="stroke: rgb(255, 255, 255); stroke-opacity: 1; stroke-width: 1px;"/><path class="xgrid crisp" transform="translate(539.37,0)" d="M0,100v320" style="stroke: rgb(255, 255, 255); stroke-opacity: 1; stroke-width: 1px;"/><path class="xgrid crisp" transform="translate(615.11,0)" d="M0,100v320" style="stroke: rgb(255, 255, 255); stroke-opacity: 1; stroke-width: 1px;"/></g><g class="y"><path class="ygrid crisp" transform="translate(0,369.84)" d="M80,0h540" style="stroke: rgb(255, 255, 255); stroke-opacity: 1; stroke-width: 1px;"/><path class="ygrid crisp" transform="translate(0,319.68)" d="M80,0h540" style="stroke: rgb(255, 255, 255); stroke-opacity: 1; stroke-width: 1px;"/><path class="ygrid crisp" transform="translate(0,269.52)" d="M80,0h540" style="stroke: rgb(255, 255, 255); stroke-opacity: 1; stroke-width: 1px;"/><path class="ygrid crisp" transform="translate(0,219.37)" d="M80,0h540" style="stroke: rgb(255, 255, 255); stroke-opacity: 1; stroke-width: 1px;"/><path class="ygrid crisp" transform="translate(0,169.20999999999998)" d="M80,0h540" style="stroke: rgb(255, 255, 255); stroke-opacity: 1; stroke-width: 1px;"/><path class="ygrid crisp" transform="translate(0,119.05)" d="M80,0h540" style="stroke: rgb(255, 255, 255); stroke-opacity: 1; stroke-width: 1px;"/></g></g><g class="zerolinelayer"><path class="yzl zl crisp" transform="translate(0,420)" d="M80,0h540" style="stroke: rgb(255, 255, 255); stroke-opacity: 1; stroke-width: 2px;"/></g><path class="xlines-below"/><path class="ylines-below"/><g class="overlines-below"/><g class="xaxislayer-below"/><g class="yaxislayer-below"/><g class="overaxes-below"/><g class="plot" transform="translate(80,100)" clip-path="url(#clip235873xyplot)"><g class="scatterlayer mlayer"><g class="trace scatter tracea13aa8" style="stroke-miterlimit: 2;"><g class="fills"><g><path class="js-fill" d="M540,320L0,320L0,320L2.44,320L4.89,285.23L7.33,239.69L9.77,246.6L12.22,248.63L14.66,239.58L17.1,241.74L19.55,234.48L21.99,231.92L24.43,249.29L31.76,247.49L34.21,249.43L36.65,259.88L39.1,266.93L41.54,266.63L43.98,261.76L46.43,261.07L48.87,239.63L51.31,239.96L53.76,238.62L61.09,252.04L63.53,249.85L65.97,248.65L68.42,249.24L70.86,249.16L73.3,248.19L75.75,248L78.19,245.16L80.63,238.99L83.08,228.22L85.52,234.4L87.96,236.51L90.41,253.35L92.85,243.58L97.74,231.28L100.18,245.91L102.62,246.69L105.07,260.69L107.51,250.72L109.95,250.43L112.4,250.98L114.84,257.41L119.73,256.92L122.17,256.73L124.62,256.86L127.06,253.16L129.5,248.02L131.95,247.63L136.83,248.23L139.28,246.36L144.16,246.56L146.61,245.32L149.05,245.6L151.49,245.09L153.94,242.77L156.38,242.55L158.82,245.21L161.27,244.25L163.71,246L166.15,245.85L168.6,245.24L171.04,243.34L173.48,240.93L175.93,242.02L183.26,241.83L185.7,240.46L188.15,241.48L190.59,243.51L195.48,235.15L197.92,234.36L200.36,232.68L202.81,227.26L205.25,249.65L207.69,245.81L210.14,248.48L212.58,265.24L215.02,268.73L217.47,266.47L219.91,263.39L222.35,261.73L224.8,260.47L227.24,251.07L229.68,252.82L232.13,252.15L234.57,250.95L237.01,236.05L239.46,243.2L241.9,239.55L244.34,228.63L246.79,234.91L249.23,234.58L251.67,230.81L254.12,231L256.56,216.44L259,230.85L261.45,232.15L263.89,231.64L266.34,225.9L268.78,225.07L271.22,225.62L273.67,207.62L276.11,209.63L281,215.73L283.44,209.74L285.88,214.03L288.33,213.75L290.77,216.29L293.21,209.94L295.66,204.31L298.1,186.36L300.54,181.02L302.99,185.32L305.43,185.08L307.87,175.21L310.32,174.77L312.76,186.56L315.2,177.42L317.65,180.35L320.09,182.82L322.53,173.71L324.98,180.97L327.42,185.5L329.86,179.78L332.31,168.02L334.75,183.48L337.2,157.68L342.08,205.08L344.53,238.43L346.97,286.69L349.41,273.01L351.86,267.74L354.3,268.85L356.74,268.34L359.19,255.09L361.63,246.49L364.07,167.81L366.52,178.09L368.96,182.53L373.85,151.09L376.29,175.14L378.73,174.68L381.18,186.94L386.06,185.36L388.51,176.59L390.95,176.14L393.39,173.49L395.84,177.27L398.28,183.13L400.72,185.76L403.17,204.03L405.61,246.93L408.05,241.5L410.5,241.36L412.94,235.78L417.83,170.77L420.27,166.82L422.72,146.63L425.16,158.04L427.6,149.62L430.05,115.72L432.49,147.43L434.93,137.32L437.38,133.41L439.82,121.92L442.26,83.08L444.71,84.66L447.15,85.82L449.59,91.7L452.04,89.11L454.48,91.29L456.92,93.71L459.37,122.53L461.81,120.05L464.25,115.37L466.7,124.16L469.14,84.91L471.58,39.96L474.03,40.65L476.47,41.11L478.91,52.29L481.36,30.38L483.8,32.42L486.24,16L488.69,65.5L493.58,52.38L496.02,56.8L498.46,62.33L500.91,70.58L503.35,54.75L505.79,60.5L508.24,87.15L510.68,91.26L513.12,98.72L515.57,91.95L518.01,66.51L520.45,69.37L522.9,57.17L525.34,53.73L527.78,38.9L530.23,42.18L535.11,161.44L537.56,157.62L540,158.29" style="fill: rgb(99, 110, 250); fill-opacity: 0.5; stroke-width: 0;"/></g></g><g class="errorbars"/><g class="lines"><path class="js-line" d="M0,320L2.44,320L4.89,285.23L7.33,239.69L9.77,246.6L12.22,248.63L14.66,239.58L17.1,241.74L19.55,234.48L21.99,231.92L24.43,249.29L31.76,247.49L34.21,249.43L36.65,259.88L39.1,266.93L41.54,266.63L43.98,261.76L46.43,261.07L48.87,239.63L51.31,239.96L53.76,238.62L61.09,252.04L63.53,249.85L65.97,248.65L68.42,249.24L70.86,249.16L73.3,248.19L75.75,248L78.19,245.16L80.63,238.99L83.08,228.22L85.52,234.4L87.96,236.51L90.41,253.35L92.85,243.58L97.74,231.28L100.18,245.91L102.62,246.69L105.07,260.69L107.51,250.72L109.95,250.43L112.4,250.98L114.84,257.41L119.73,256.92L122.17,256.73L124.62,256.86L127.06,253.16L129.5,248.02L131.95,247.63L136.83,248.23L139.28,246.36L144.16,246.56L146.61,245.32L149.05,245.6L151.49,245.09L153.94,242.77L156.38,242.55L158.82,245.21L161.27,244.25L163.71,246L166.15,245.85L168.6,245.24L171.04,243.34L173.48,240.93L175.93,242.02L183.26,241.83L185.7,240.46L188.15,241.48L190.59,243.51L195.48,235.15L197.92,234.36L200.36,232.68L202.81,227.26L205.25,249.65L207.69,245.81L210.14,248.48L212.58,265.24L215.02,268.73L217.47,266.47L219.91,263.39L222.35,261.73L224.8,260.47L227.24,251.07L229.68,252.82L232.13,252.15L234.57,250.95L237.01,236.05L239.46,243.2L241.9,239.55L244.34,228.63L246.79,234.91L249.23,234.58L251.67,230.81L254.12,231L256.56,216.44L259,230.85L261.45,232.15L263.89,231.64L266.34,225.9L268.78,225.07L271.22,225.62L273.67,207.62L276.11,209.63L281,215.73L283.44,209.74L285.88,214.03L288.33,213.75L290.77,216.29L293.21,209.94L295.66,204.31L298.1,186.36L300.54,181.02L302.99,185.32L305.43,185.08L307.87,175.21L310.32,174.77L312.76,186.56L315.2,177.42L317.65,180.35L320.09,182.82L322.53,173.71L324.98,180.97L327.42,185.5L329.86,179.78L332.31,168.02L334.75,183.48L337.2,157.68L342.08,205.08L344.53,238.43L346.97,286.69L349.41,273.01L351.86,267.74L354.3,268.85L356.74,268.34L359.19,255.09L361.63,246.49L364.07,167.81L366.52,178.09L368.96,182.53L373.85,151.09L376.29,175.14L378.73,174.68L381.18,186.94L386.06,185.36L388.51,176.59L390.95,176.14L393.39,173.49L395.84,177.27L398.28,183.13L400.72,185.76L403.17,204.03L405.61,246.93L408.05,241.5L410.5,241.36L412.94,235.78L417.83,170.77L420.27,166.82L422.72,146.63L425.16,158.04L427.6,149.62L430.05,115.72L432.49,147.43L434.93,137.32L437.38,133.41L439.82,121.92L442.26,83.08L444.71,84.66L447.15,85.82L449.59,91.7L452.04,89.11L454.48,91.29L456.92,93.71L459.37,122.53L461.81,120.05L464.25,115.37L466.7,124.16L469.14,84.91L471.58,39.96L474.03,40.65L476.47,41.11L478.91,52.29L481.36,30.38L483.8,32.42L486.24,16L488.69,65.5L493.58,52.38L496.02,56.8L498.46,62.33L500.91,70.58L503.35,54.75L505.79,60.5L508.24,87.15L510.68,91.26L513.12,98.72L515.57,91.95L518.01,66.51L520.45,69.37L522.9,57.17L525.34,53.73L527.78,38.9L530.23,42.18L535.11,161.44L537.56,157.62L540,158.29" style="vector-effect: none; fill: none; stroke: rgb(99, 110, 250); stroke-opacity: 1; stroke-width: 2px; opacity: 1;"/></g><g class="points"/><g class="text"/></g></g></g><g class="overplot"/><path class="xlines-above crisp" d="M0,0" style="fill: none;"/><path class="ylines-above crisp" d="M0,0" style="fill: none;"/><g class="overlines-above"/><g class="xaxislayer-above"><g class="xtick"><text text-anchor="middle" x="0" y="433" transform="translate(97.1,0)" style="font-family: 'Open Sans', verdana, arial, sans-serif; font-size: 12px; fill: rgb(42, 63, 95); fill-opacity: 1; white-space: pre; opacity: 1;">Nov 2022</text></g><g class="xtick"><text text-anchor="middle" x="0" y="433" style="font-family: 'Open Sans', verdana, arial, sans-serif; font-size: 12px; fill: rgb(42, 63, 95); fill-opacity: 1; white-space: pre; opacity: 1;" transform="translate(170.41,0)">Dec 2022</text></g><g class="xtick"><text text-anchor="middle" x="0" y="433" style="font-family: 'Open Sans', verdana, arial, sans-serif; font-size: 12px; fill: rgb(42, 63, 95); fill-opacity: 1; white-space: pre; opacity: 1;" transform="translate(246.15,0)">Jan 2023</text></g><g class="xtick"><text text-anchor="middle" x="0" y="433" style="font-family: 'Open Sans', verdana, arial, sans-serif; font-size: 12px; fill: rgb(42, 63, 95); fill-opacity: 1; white-space: pre; opacity: 1;" transform="translate(321.9,0)">Feb 2023</text></g><g class="xtick"><text text-anchor="middle" x="0" y="433" style="font-family: 'Open Sans', verdana, arial, sans-serif; font-size: 12px; fill: rgb(42, 63, 95); fill-opacity: 1; white-space: pre; opacity: 1;" transform="translate(390.32,0)">Mar 2023</text></g><g class="xtick"><text text-anchor="middle" x="0" y="433" style="font-family: 'Open Sans', verdana, arial, sans-serif; font-size: 12px; fill: rgb(42, 63, 95); fill-opacity: 1; white-space: pre; opacity: 1;" transform="translate(466.06,0)">Apr 2023</text></g><g class="xtick"><text text-anchor="middle" x="0" y="433" style="font-family: 'Open Sans', verdana, arial, sans-serif; font-size: 12px; fill: rgb(42, 63, 95); fill-opacity: 1; white-space: pre; opacity: 1;" transform="translate(539.37,0)">May 2023</text></g><g class="xtick"><text text-anchor="middle" x="0" y="433" style="font-family: 'Open Sans', verdana, arial, sans-serif; font-size: 12px; fill: rgb(42, 63, 95); fill-opacity: 1; white-space: pre; opacity: 1;" transform="translate(615.11,0)">Jun 2023</text></g></g><g class="yaxislayer-above"><g class="ytick"><text text-anchor="end" x="79" y="4.199999999999999" transform="translate(0,420)" style="font-family: 'Open Sans', verdana, arial, sans-serif; font-size: 12px; fill: rgb(42, 63, 95); fill-opacity: 1; white-space: pre; opacity: 1;">$0</text></g><g class="ytick"><text text-anchor="end" x="79" y="4.199999999999999" style="font-family: 'Open Sans', verdana, arial, sans-serif; font-size: 12px; fill: rgb(42, 63, 95); fill-opacity: 1; white-space: pre; opacity: 1;" transform="translate(0,369.84)">$0.5M</text></g><g class="ytick"><text text-anchor="end" x="79" y="4.199999999999999" style="font-family: 'Open Sans', verdana, arial, sans-serif; font-size: 12px; fill: rgb(42, 63, 95); fill-opacity: 1; white-space: pre; opacity: 1;" transform="translate(0,319.68)">$1M</text></g><g class="ytick"><text text-anchor="end" x="79" y="4.199999999999999" style="font-family: 'Open Sans', verdana, arial, sans-serif; font-size: 12px; fill: rgb(42, 63, 95); fill-opacity: 1; white-space: pre; opacity: 1;" transform="translate(0,269.52)">$1.5M</text></g><g class="ytick"><text text-anchor="end" x="79" y="4.199999999999999" style="font-family: 'Open Sans', verdana, arial, sans-serif; font-size: 12px; fill: rgb(42, 63, 95); fill-opacity: 1; white-space: pre; opacity: 1;" transform="translate(0,219.37)">$2M</text></g><g class="ytick"><text text-anchor="end" x="79" y="4.199999999999999" style="font-family: 'Open Sans', verdana, arial, sans-serif; font-size: 12px; fill: rgb(42, 63, 95); fill-opacity: 1; white-space: pre; opacity: 1;" transform="translate(0,169.20999999999998)">$2.5M</text></g><g class="ytick"><text text-anchor="end" x="79" y="4.199999999999999" style="font-family: 'Open Sans', verdana, arial, sans-serif; font-size: 12px; fill: rgb(42, 63, 95); fill-opacity: 1; white-space: pre; opacity: 1;" transform="translate(0,119.05)">$3M</text></g></g><g class="overaxes-above"/></g></g><g class="polarlayer"/><g class="smithlayer"/><g class="ternarylayer"/><g class="geolayer"/><g class="funnelarealayer"/><g class="pielayer"/><g class="iciclelayer"/><g class="treemaplayer"/><g class="sunburstlayer"/><g class="glimages"/><defs id="topdefs-235873"><g class="clips"/></defs><g class="layer-above"><g class="imagelayer"/><g class="shapelayer"/></g><g class="infolayer"><g class="g-gtitle"><text class="gtitle" x="35" y="50" text-anchor="start" dy="0em" style="font-family: 'Open Sans', verdana, arial, sans-serif; font-size: 17px; fill: rgb(42, 63, 95); opacity: 1; font-weight: normal; white-space: pre;"><tspan class="line" dy="0em" x="35" y="50">Synthetix - All Synthetix Hop Pools</tspan><tspan class="line" dy="1.3em" x="35" y="50">​<tspan style="font-size:70%" dy="-0.6em">Cumulative Net Flows since Program Announcement, Until Program End + 30 Days</tspan><tspan dy="0.42em">​</tspan></tspan></text></g><g class="g-xtitle"><text class="xtitle" x="350" y="460.3" text-anchor="middle" style="font-family: 'Open Sans', verdana, arial, sans-serif; font-size: 14px; fill: rgb(42, 63, 95); opacity: 1; font-weight: normal; white-space: pre;">Day</text></g><g class="g-ytitle"><text class="ytitle" transform="rotate(-90,21.340625000000003,260)" x="21.340625000000003" y="260" text-anchor="middle" style="font-family: 'Open Sans', verdana, arial, sans-serif; font-size: 14px; fill: rgb(42, 63, 95); opacity: 1; font-weight: normal; white-space: pre;">Cumulative Net Flows (USD)</text></g></g></svg>