<svg class="main-svg" xmlns="http://www.w3.org/2000/svg" xmlns:xlink="http://www.w3.org/1999/xlink" width="700" height="500" style="" viewBox="0 0 700 500"><rect x="0" y="0" width="700" height="500" style="fill: rgb(255, 255, 255); fill-opacity: 1;"/><defs id="defs-b72100"><g class="clips"><clipPath id="clipb72100xyplot" class="plotclip"><rect width="540" height="320"/></clipPath><clipPath class="axesclip" id="clipb72100x"><rect x="80" y="0" width="540" height="500"/></clipPath><clipPath class="axesclip" id="clipb72100y"><rect x="0" y="100" width="700" height="320"/></clipPath><clipPath class="axesclip" id="clipb72100xy"><rect x="80" y="100" width="540" height="320"/></clipPath></g><g class="gradients"/><g class="patterns"/></defs><g class="bglayer"><rect class="bg" x="80" y="100" width="540" height="320" style="fill: rgb(229, 236, 246); fill-opacity: 1; stroke-width: 0;"/></g><g class="layer-below"><g class="imagelayer"/><g class="shapelayer"/></g><g class="cartesianlayer"><g class="subplot xy"><g class="layer-subplot"><g class="shapelayer"/><g class="imagelayer"/></g><g class="minor-gridlayer"><g class="x"/><g class="y"/></g><g class="gridlayer"><g class="x"><path class="xgrid crisp" transform="translate(89.31,0)" d="M0,100v320" style="stroke: rgb(255, 255, 255); stroke-opacity: 1; stroke-width: 1px;"/><path class="xgrid crisp" transform="translate(170.44,0)" d="M0,100v320" style="stroke: rgb(255, 255, 255); stroke-opacity: 1; stroke-width: 1px;"/><path class="xgrid crisp" transform="translate(248.92,0)" d="M0,100v320" style="stroke: rgb(255, 255, 255); stroke-opacity: 1; stroke-width: 1px;"/><path class="xgrid crisp" transform="translate(330.05,0)" d="M0,100v320" style="stroke: rgb(255, 255, 255); stroke-opacity: 1; stroke-width: 1px;"/><path class="xgrid crisp" transform="translate(411.18,0)" d="M0,100v320" style="stroke: rgb(255, 255, 255); stroke-opacity: 1; stroke-width: 1px;"/><path class="xgrid crisp" transform="translate(493.65,0)" d="M0,100v320" style="stroke: rgb(255, 255, 255); stroke-opacity: 1; stroke-width: 1px;"/><path class="xgrid crisp" transform="translate(574.78,0)" d="M0,100v320" style="stroke: rgb(255, 255, 255); stroke-opacity: 1; stroke-width: 1px;"/></g><g class="y"><path class="ygrid crisp" transform="translate(0,369.84)" d="M80,0h540" style="stroke: rgb(255, 255, 255); stroke-opacity: 1; stroke-width: 1px;"/><path class="ygrid crisp" transform="translate(0,319.68)" d="M80,0h540" style="stroke: rgb(255, 255, 255); stroke-opacity: 1; stroke-width: 1px;"/><path class="ygrid crisp" transform="translate(0,269.52)" d="M80,0h540" style="stroke: rgb(255, 255, 255); stroke-opacity: 1; stroke-width: 1px;"/><path class="ygrid crisp" transform="translate(0,219.37)" d="M80,0h540" style="stroke: rgb(255, 255, 255); stroke-opacity: 1; stroke-width: 1px;"/><path class="ygrid crisp" transform="translate(0,169.20999999999998)" d="M80,0h540" style="stroke: rgb(255, 255, 255); stroke-opacity: 1; stroke-width: 1px;"/><path class="ygrid crisp" transform="translate(0,119.05)" d="M80,0h540" style="stroke: rgb(255, 255, 255); stroke-opacity: 1; stroke-width: 1px;"/></g></g><g class="zerolinelayer"><path class="yzl zl crisp" transform="translate(0,420)" d="M80,0h540" style="stroke: rgb(255, 255, 255); stroke-opacity: 1; stroke-width: 2px;"/></g><path class="xlines-below"/><path class="ylines-below"/><g class="overlines-below"/><g class="xaxislayer-below"/><g class="yaxislayer-below"/><g class="overaxes-below"/><g class="plot" transform="translate(80,100)" clip-path="url(#clipb72100xyplot)"><g class="scatterlayer mlayer"><g class="trace scatter trace0f4bfa" style="stroke-miterlimit: 2;"><g class="fills"><g><path class="js-fill" d="M540,320L0,320L0,320L1.33,320L2.66,285.23L3.99,239.69L5.32,246.6L6.65,248.63L7.98,239.58L9.31,241.74L10.64,234.48L11.97,231.92L13.3,249.29L17.29,247.49L18.62,249.43L21.28,266.93L22.61,266.63L23.94,261.76L25.27,261.07L26.6,239.63L27.93,239.96L29.26,238.62L30.59,242.9L33.25,252.04L34.58,249.85L35.91,248.65L37.24,249.24L38.57,249.16L39.9,248.19L41.23,248L42.56,245.16L43.89,238.99L45.22,228.22L46.55,234.4L47.88,236.51L49.21,253.35L50.54,243.58L53.2,231.28L54.53,245.91L55.86,246.69L57.19,260.69L58.52,250.72L59.85,250.43L61.18,250.98L62.51,257.41L65.17,256.92L66.5,256.73L67.83,256.86L69.16,253.16L70.49,248.02L71.82,247.63L74.48,248.23L75.81,246.36L78.47,246.56L79.8,245.32L81.13,245.6L82.46,245.09L83.79,242.77L85.12,242.55L86.45,245.21L87.78,244.25L89.11,246L90.44,245.85L91.77,245.24L93.1,243.34L94.43,240.93L95.76,242.02L99.75,241.83L101.08,240.46L102.41,241.48L103.74,243.51L106.4,235.15L107.73,234.36L109.06,232.68L110.39,227.26L111.72,249.65L113.05,245.81L114.38,248.48L115.71,265.24L117.04,268.73L118.37,266.47L121.03,261.73L122.36,260.47L123.69,251.07L125.02,252.82L127.68,250.95L129.01,236.05L130.34,243.2L131.67,239.55L133,228.63L134.33,234.91L135.67,234.58L137,230.81L138.33,231L139.66,216.44L140.99,230.85L142.32,232.15L143.65,231.64L144.98,225.9L146.31,225.07L147.64,225.62L148.97,207.62L150.3,209.63L152.96,215.73L154.29,209.74L155.62,214.03L156.95,213.75L158.28,216.29L159.61,209.94L160.94,204.31L162.27,186.36L163.6,181.02L164.93,185.32L166.26,185.08L167.59,175.21L168.92,174.77L170.25,186.56L171.58,177.42L172.91,180.35L174.24,182.82L175.57,173.71L178.23,185.5L179.56,179.78L180.89,168.02L182.22,183.48L183.55,157.68L184.88,179.46L187.54,238.43L188.87,286.69L190.2,273.01L191.53,267.74L192.86,268.85L194.19,268.34L196.85,246.49L198.18,167.81L200.84,182.53L202.17,167.16L203.5,151.09L204.83,175.14L206.16,174.68L207.49,186.94L210.15,185.36L211.48,176.59L212.81,176.14L214.14,173.49L218.13,185.76L219.46,204.03L220.79,246.93L222.12,241.5L223.45,241.36L224.78,235.78L227.44,170.77L228.77,166.82L230.1,146.63L231.43,158.04L232.76,149.62L234.09,115.72L235.42,147.43L236.75,137.32L238.08,133.41L239.41,121.92L240.74,83.08L242.07,84.66L243.4,85.82L244.73,91.7L246.06,89.11L247.39,91.29L248.72,93.71L250.05,122.53L251.38,120.05L252.71,115.37L254.04,124.16L255.37,84.91L256.7,39.96L258.03,40.65L259.36,41.11L260.69,52.29L262.02,30.38L263.35,32.42L264.68,16L266.01,65.5L268.67,52.38L270,56.8L272.66,70.58L273.99,54.75L275.32,60.5L276.65,87.15L277.98,91.26L279.31,98.72L280.64,91.95L281.97,66.51L283.3,69.37L284.63,57.17L285.96,53.73L287.29,38.9L288.62,42.18L289.95,104.91L291.28,161.44L292.61,157.62L293.94,158.28L295.27,141.18L296.6,139.3L297.93,144.17L299.26,144.22L300.59,193.82L303.25,162.61L304.58,183.85L305.91,187.8L307.24,187.46L308.57,188.82L309.9,196.55L311.23,193.24L312.56,196.77L313.89,212.79L315.22,201.3L316.55,201.73L317.88,204.12L319.21,191.7L320.54,195.89L321.87,195.47L323.2,195.97L324.53,195.75L325.86,187.54L327.19,192.95L328.52,194.66L329.85,231.68L331.18,215.74L332.51,207.39L333.84,204.19L335.17,200.15L336.5,199.93L337.83,204.74L339.16,213.71L340.49,221.8L341.82,221.89L343.15,221.87L344.48,219.71L347.14,213.1L348.47,215.32L351.13,194.55L352.46,203.46L355.12,226.21L356.45,214.48L359.11,192.98L360.44,187.53L361.77,186.75L363.1,176.65L364.43,176.77L365.76,173.01L368.42,178.89L369.75,184.96L371.08,175.65L372.41,188.44L375.07,194.15L376.4,191.99L377.73,192.74L379.06,205.47L380.39,207.59L381.72,190.01L383.05,190.67L384.38,196.64L385.71,201.95L387.04,194.14L388.37,194.01L389.7,197.23L392.36,181.76L393.69,183.33L395.02,173.47L396.35,176.17L397.68,176.95L399.01,185.29L401.67,189.25L403,208.21L404.33,209.91L405.67,194.5L407,195.85L408.33,192.52L409.66,180.59L410.99,179.85L412.32,175.5L413.65,180.1L414.98,184.57L416.31,175.16L417.64,175.01L418.97,177.85L420.3,179.54L421.63,207.31L424.29,208.37L425.62,205.95L428.28,207.16L429.61,217.64L430.94,216.8L432.27,220.09L433.6,219.67L434.93,221.38L437.59,221.46L438.92,220.32L440.25,221.2L441.58,225.11L444.24,224.27L445.57,228.21L446.9,227.67L448.23,217.78L449.56,218.74L450.89,225.87L452.22,228.56L453.55,240.13L456.21,262.47L457.54,294.79L458.87,299.99L460.2,299.94L462.86,297.65L464.19,299.03L466.85,302.44L468.18,298.37L472.17,297.34L473.5,297.75L474.83,298.39L476.16,299.93L477.49,291.69L478.82,291.63L480.15,293.98L481.48,292.83L484.14,302.83L485.47,303.26L486.8,304.7L488.13,296.79L490.79,297.09L492.12,297.54L494.78,298.74L496.11,298.33L500.1,298.21L501.43,310.35L502.76,318.71L504.09,318.6L505.42,318.98L506.75,304.64L508.08,304.67L509.41,311.18L510.74,312.46L512.07,312.49L514.73,310.68L516.06,311.87L524.04,312.58L525.37,314.52L529.36,314.43L530.69,315.35L537.34,315.66L538.67,315.57L540,315.64" style="fill: rgb(99, 110, 250); fill-opacity: 0.5; stroke-width: 0;"/></g></g><g class="errorbars"/><g class="lines"><path class="js-line" d="M0,320L1.33,320L2.66,285.23L3.99,239.69L5.32,246.6L6.65,248.63L7.98,239.58L9.31,241.74L10.64,234.48L11.97,231.92L13.3,249.29L17.29,247.49L18.62,249.43L21.28,266.93L22.61,266.63L23.94,261.76L25.27,261.07L26.6,239.63L27.93,239.96L29.26,238.62L30.59,242.9L33.25,252.04L34.58,249.85L35.91,248.65L37.24,249.24L38.57,249.16L39.9,248.19L41.23,248L42.56,245.16L43.89,238.99L45.22,228.22L46.55,234.4L47.88,236.51L49.21,253.35L50.54,243.58L53.2,231.28L54.53,245.91L55.86,246.69L57.19,260.69L58.52,250.72L59.85,250.43L61.18,250.98L62.51,257.41L65.17,256.92L66.5,256.73L67.83,256.86L69.16,253.16L70.49,248.02L71.82,247.63L74.48,248.23L75.81,246.36L78.47,246.56L79.8,245.32L81.13,245.6L82.46,245.09L83.79,242.77L85.12,242.55L86.45,245.21L87.78,244.25L89.11,246L90.44,245.85L91.77,245.24L93.1,243.34L94.43,240.93L95.76,242.02L99.75,241.83L101.08,240.46L102.41,241.48L103.74,243.51L106.4,235.15L107.73,234.36L109.06,232.68L110.39,227.26L111.72,249.65L113.05,245.81L114.38,248.48L115.71,265.24L117.04,268.73L118.37,266.47L121.03,261.73L122.36,260.47L123.69,251.07L125.02,252.82L127.68,250.95L129.01,236.05L130.34,243.2L131.67,239.55L133,228.63L134.33,234.91L135.67,234.58L137,230.81L138.33,231L139.66,216.44L140.99,230.85L142.32,232.15L143.65,231.64L144.98,225.9L146.31,225.07L147.64,225.62L148.97,207.62L150.3,209.63L152.96,215.73L154.29,209.74L155.62,214.03L156.95,213.75L158.28,216.29L159.61,209.94L160.94,204.31L162.27,186.36L163.6,181.02L164.93,185.32L166.26,185.08L167.59,175.21L168.92,174.77L170.25,186.56L171.58,177.42L172.91,180.35L174.24,182.82L175.57,173.71L178.23,185.5L179.56,179.78L180.89,168.02L182.22,183.48L183.55,157.68L184.88,179.46L187.54,238.43L188.87,286.69L190.2,273.01L191.53,267.74L192.86,268.85L194.19,268.34L196.85,246.49L198.18,167.81L200.84,182.53L202.17,167.16L203.5,151.09L204.83,175.14L206.16,174.68L207.49,186.94L210.15,185.36L211.48,176.59L212.81,176.14L214.14,173.49L218.13,185.76L219.46,204.03L220.79,246.93L222.12,241.5L223.45,241.36L224.78,235.78L227.44,170.77L228.77,166.82L230.1,146.63L231.43,158.04L232.76,149.62L234.09,115.72L235.42,147.43L236.75,137.32L238.08,133.41L239.41,121.92L240.74,83.08L242.07,84.66L243.4,85.82L244.73,91.7L246.06,89.11L247.39,91.29L248.72,93.71L250.05,122.53L251.38,120.05L252.71,115.37L254.04,124.16L255.37,84.91L256.7,39.96L258.03,40.65L259.36,41.11L260.69,52.29L262.02,30.38L263.35,32.42L264.68,16L266.01,65.5L268.67,52.38L270,56.8L272.66,70.58L273.99,54.75L275.32,60.5L276.65,87.15L277.98,91.26L279.31,98.72L280.64,91.95L281.97,66.51L283.3,69.37L284.63,57.17L285.96,53.73L287.29,38.9L288.62,42.18L289.95,104.91L291.28,161.44L292.61,157.62L293.94,158.28L295.27,141.18L296.6,139.3L297.93,144.17L299.26,144.22L300.59,193.82L303.25,162.61L304.58,183.85L305.91,187.8L307.24,187.46L308.57,188.82L309.9,196.55L311.23,193.24L312.56,196.77L313.89,212.79L315.22,201.3L316.55,201.73L317.88,204.12L319.21,191.7L320.54,195.89L321.87,195.47L323.2,195.97L324.53,195.75L325.86,187.54L327.19,192.95L328.52,194.66L329.85,231.68L331.18,215.74L332.51,207.39L333.84,204.19L335.17,200.15L336.5,199.93L337.83,204.74L339.16,213.71L340.49,221.8L341.82,221.89L343.15,221.87L344.48,219.71L347.14,213.1L348.47,215.32L351.13,194.55L352.46,203.46L355.12,226.21L356.45,214.48L359.11,192.98L360.44,187.53L361.77,186.75L363.1,176.65L364.43,176.77L365.76,173.01L368.42,178.89L369.75,184.96L371.08,175.65L372.41,188.44L375.07,194.15L376.4,191.99L377.73,192.74L379.06,205.47L380.39,207.59L381.72,190.01L383.05,190.67L384.38,196.64L385.71,201.95L387.04,194.14L388.37,194.01L389.7,197.23L392.36,181.76L393.69,183.33L395.02,173.47L396.35,176.17L397.68,176.95L399.01,185.29L401.67,189.25L403,208.21L404.33,209.91L405.67,194.5L407,195.85L408.33,192.52L409.66,180.59L410.99,179.85L412.32,175.5L413.65,180.1L414.98,184.57L416.31,175.16L417.64,175.01L418.97,177.85L420.3,179.54L421.63,207.31L424.29,208.37L425.62,205.95L428.28,207.16L429.61,217.64L430.94,216.8L432.27,220.09L433.6,219.67L434.93,221.38L437.59,221.46L438.92,220.32L440.25,221.2L441.58,225.11L444.24,224.27L445.57,228.21L446.9,227.67L448.23,217.78L449.56,218.74L450.89,225.87L452.22,228.56L453.55,240.13L456.21,262.47L457.54,294.79L458.87,299.99L460.2,299.94L462.86,297.65L464.19,299.03L466.85,302.44L468.18,298.37L472.17,297.34L473.5,297.75L474.83,298.39L476.16,299.93L477.49,291.69L478.82,291.63L480.15,293.98L481.48,292.83L484.14,302.83L485.47,303.26L486.8,304.7L488.13,296.79L490.79,297.09L492.12,297.54L494.78,298.74L496.11,298.33L500.1,298.21L501.43,310.35L502.76,318.71L504.09,318.6L505.42,318.98L506.75,304.64L508.08,304.67L509.41,311.18L510.74,312.46L512.07,312.49L514.73,310.68L516.06,311.87L524.04,312.58L525.37,314.52L529.36,314.43L530.69,315.35L537.34,315.66L538.67,315.57L540,315.64" style="vector-effect: none; fill: none; stroke: rgb(99, 110, 250); stroke-opacity: 1; stroke-width: 2px; opacity: 1;"/></g><g class="points"/><g class="text"/></g></g></g><g class="overplot"/><path class="xlines-above crisp" d="M0,0" style="fill: none;"/><path class="ylines-above crisp" d="M0,0" style="fill: none;"/><g class="overlines-above"/><g class="xaxislayer-above"><g class="xtick"><text text-anchor="middle" x="0" y="433" transform="translate(89.31,0)" style="font-family: 'Open Sans', verdana, arial, sans-serif; font-size: 12px; fill: rgb(42, 63, 95); fill-opacity: 1; white-space: pre; opacity: 1;">Nov 2022</text></g><g class="xtick"><text text-anchor="middle" x="0" y="433" style="font-family: 'Open Sans', verdana, arial, sans-serif; font-size: 12px; fill: rgb(42, 63, 95); fill-opacity: 1; white-space: pre; opacity: 1;" transform="translate(170.44,0)">Jan 2023</text></g><g class="xtick"><text text-anchor="middle" x="0" y="433" style="font-family: 'Open Sans', verdana, arial, sans-serif; font-size: 12px; fill: rgb(42, 63, 95); fill-opacity: 1; white-space: pre; opacity: 1;" transform="translate(248.92,0)">Mar 2023</text></g><g class="xtick"><text text-anchor="middle" x="0" y="433" style="font-family: 'Open Sans', verdana, arial, sans-serif; font-size: 12px; fill: rgb(42, 63, 95); fill-opacity: 1; white-space: pre; opacity: 1;" transform="translate(330.05,0)">May 2023</text></g><g class="xtick"><text text-anchor="middle" x="0" y="433" style="font-family: 'Open Sans', verdana, arial, sans-serif; font-size: 12px; fill: rgb(42, 63, 95); fill-opacity: 1; white-space: pre; opacity: 1;" transform="translate(411.18,0)">Jul 2023</text></g><g class="xtick"><text text-anchor="middle" x="0" y="433" style="font-family: 'Open Sans', verdana, arial, sans-serif; font-size: 12px; fill: rgb(42, 63, 95); fill-opacity: 1; white-space: pre; opacity: 1;" transform="translate(493.65,0)">Sep 2023</text></g><g class="xtick"><text text-anchor="middle" x="0" y="433" style="font-family: 'Open Sans', verdana, arial, sans-serif; font-size: 12px; fill: rgb(42, 63, 95); fill-opacity: 1; white-space: pre; opacity: 1;" transform="translate(574.78,0)">Nov 2023</text></g></g><g class="yaxislayer-above"><g class="ytick"><text text-anchor="end" x="79" y="4.199999999999999" transform="translate(0,420)" style="font-family: 'Open Sans', verdana, arial, sans-serif; font-size: 12px; fill: rgb(42, 63, 95); fill-opacity: 1; white-space: pre; opacity: 1;">$0</text></g><g class="ytick"><text text-anchor="end" x="79" y="4.199999999999999" style="font-family: 'Open Sans', verdana, arial, sans-serif; font-size: 12px; fill: rgb(42, 63, 95); fill-opacity: 1; white-space: pre; opacity: 1;" transform="translate(0,369.84)">$0.5M</text></g><g class="ytick"><text text-anchor="end" x="79" y="4.199999999999999" style="font-family: 'Open Sans', verdana, arial, sans-serif; font-size: 12px; fill: rgb(42, 63, 95); fill-opacity: 1; white-space: pre; opacity: 1;" transform="translate(0,319.68)">$1M</text></g><g class="ytick"><text text-anchor="end" x="79" y="4.199999999999999" style="font-family: 'Open Sans', verdana, arial, sans-serif; font-size: 12px; fill: rgb(42, 63, 95); fill-opacity: 1; white-space: pre; opacity: 1;" transform="translate(0,269.52)">$1.5M</text></g><g class="ytick"><text text-anchor="end" x="79" y="4.199999999999999" style="font-family: 'Open Sans', verdana, arial, sans-serif; font-size: 12px; fill: rgb(42, 63, 95); fill-opacity: 1; white-space: pre; opacity: 1;" transform="translate(0,219.37)">$2M</text></g><g class="ytick"><text text-anchor="end" x="79" y="4.199999999999999" style="font-family: 'Open Sans', verdana, arial, sans-serif; font-size: 12px; fill: rgb(42, 63, 95); fill-opacity: 1; white-space: pre; opacity: 1;" transform="translate(0,169.20999999999998)">$2.5M</text></g><g class="ytick"><text text-anchor="end" x="79" y="4.199999999999999" style="font-family: 'Open Sans', verdana, arial, sans-serif; font-size: 12px; fill: rgb(42, 63, 95); fill-opacity: 1; white-space: pre; opacity: 1;" transform="translate(0,119.05)">$3M</text></g></g><g class="overaxes-above"/></g></g><g class="polarlayer"/><g class="smithlayer"/><g class="ternarylayer"/><g class="geolayer"/><g class="funnelarealayer"/><g class="pielayer"/><g class="iciclelayer"/><g class="treemaplayer"/><g class="sunburstlayer"/><g class="glimages"/><defs id="topdefs-b72100"><g class="clips"/></defs><g class="layer-above"><g class="imagelayer"/><g class="shapelayer"/></g><g class="infolayer"><g class="g-gtitle"><text class="gtitle" x="35" y="50" text-anchor="start" dy="0em" style="font-family: 'Open Sans', verdana, arial, sans-serif; font-size: 17px; fill: rgb(42, 63, 95); opacity: 1; font-weight: normal; white-space: pre;"><tspan class="line" dy="0em" x="35" y="50">Synthetix - All Synthetix Hop Pools</tspan><tspan class="line" dy="1.3em" x="35" y="50">​<tspan style="font-size:70%" dy="-0.6em">Cumulative Net Flows since Program Announcement, Until Program End + 30 Days</tspan><tspan dy="0.42em">​</tspan></tspan></text></g><g class="g-xtitle"><text class="xtitle" x="350" y="460.3" text-anchor="middle" style="font-family: 'Open Sans', verdana, arial, sans-serif; font-size: 14px; fill: rgb(42, 63, 95); opacity: 1; font-weight: normal; white-space: pre;">Day</text></g><g class="g-ytitle"><text class="ytitle" transform="rotate(-90,21.340625000000003,260)" x="21.340625000000003" y="260" text-anchor="middle" style="font-family: 'Open Sans', verdana, arial, sans-serif; font-size: 14px; fill: rgb(42, 63, 95); opacity: 1; font-weight: normal; white-space: pre;">Cumulative Net Flows (USD)</text></g></g></svg>