<svg class="main-svg" xmlns="http://www.w3.org/2000/svg" xmlns:xlink="http://www.w3.org/1999/xlink" width="700" height="500" style="" viewBox="0 0 700 500"><rect x="0" y="0" width="700" height="500" style="fill: rgb(255, 255, 255); fill-opacity: 1;"/><defs id="defs-163420"><g class="clips"><clipPath id="clip163420xyplot" class="plotclip"><rect width="540" height="320"/></clipPath><clipPath class="axesclip" id="clip163420x"><rect x="80" y="0" width="540" height="500"/></clipPath><clipPath class="axesclip" id="clip163420y"><rect x="0" y="100" width="700" height="320"/></clipPath><clipPath class="axesclip" id="clip163420xy"><rect x="80" y="100" width="540" height="320"/></clipPath></g><g class="gradients"/><g class="patterns"/></defs><g class="bglayer"><rect class="bg" x="80" y="100" width="540" height="320" style="fill: rgb(229, 236, 246); fill-opacity: 1; stroke-width: 0;"/></g><g class="layer-below"><g class="imagelayer"/><g class="shapelayer"/></g><g class="cartesianlayer"><g class="subplot xy"><g class="layer-subplot"><g class="shapelayer"/><g class="imagelayer"/></g><g class="minor-gridlayer"><g class="x"/><g class="y"/></g><g class="gridlayer"><g class="x"><path class="xgrid crisp" transform="translate(143.75,0)" d="M0,100v320" style="stroke: rgb(255, 255, 255); stroke-opacity: 1; stroke-width: 1px;"/><path class="xgrid crisp" transform="translate(260,0)" d="M0,100v320" style="stroke: rgb(255, 255, 255); stroke-opacity: 1; stroke-width: 1px;"/><path class="xgrid crisp" transform="translate(372.5,0)" d="M0,100v320" style="stroke: rgb(255, 255, 255); stroke-opacity: 1; stroke-width: 1px;"/><path class="xgrid crisp" transform="translate(488.75,0)" d="M0,100v320" style="stroke: rgb(255, 255, 255); stroke-opacity: 1; stroke-width: 1px;"/><path class="xgrid crisp" transform="translate(605,0)" d="M0,100v320" style="stroke: rgb(255, 255, 255); stroke-opacity: 1; stroke-width: 1px;"/></g><g class="y"><path class="ygrid crisp" transform="translate(0,345.93)" d="M80,0h540" style="stroke: rgb(255, 255, 255); stroke-opacity: 1; stroke-width: 1px;"/><path class="ygrid crisp" transform="translate(0,271.86)" d="M80,0h540" style="stroke: rgb(255, 255, 255); stroke-opacity: 1; stroke-width: 1px;"/><path class="ygrid crisp" transform="translate(0,197.8)" d="M80,0h540" style="stroke: rgb(255, 255, 255); stroke-opacity: 1; stroke-width: 1px;"/><path class="ygrid crisp" transform="translate(0,123.73)" d="M80,0h540" style="stroke: rgb(255, 255, 255); stroke-opacity: 1; stroke-width: 1px;"/></g></g><g class="zerolinelayer"><path class="yzl zl crisp" transform="translate(0,420)" d="M80,0h540" style="stroke: rgb(255, 255, 255); stroke-opacity: 1; stroke-width: 2px;"/></g><path class="xlines-below"/><path class="ylines-below"/><g class="overlines-below"/><g class="xaxislayer-below"/><g class="yaxislayer-below"/><g class="overaxes-below"/><g class="plot" transform="translate(80,100)" clip-path="url(#clip163420xyplot)"><g class="scatterlayer mlayer"><g class="trace scatter trace1f5c06" style="stroke-miterlimit: 2;"><g class="fills"><g><path class="js-fill" d="M540,320L0,320L0,51.93L3.75,61.13L7.5,60.13L15,57.24L18.75,56.51L22.5,55.53L26.25,61.04L30,62.5L33.75,59.45L37.5,59.25L41.25,54.92L45,54.58L48.75,50.16L60,48.2L63.75,48.92L67.5,53.08L71.25,51.84L78.75,51.24L82.5,50.01L86.25,49.74L90,28.12L93.75,26.62L97.5,22.29L101.25,22.18L105,23L108.75,28.06L112.5,26.48L116.25,23.08L120,25.41L123.75,34.02L127.5,31.9L135,33.09L138.75,32.79L150,32.62L153.75,22.51L157.5,23.69L161.25,20.79L165,20.88L168.75,16L172.5,16.15L176.25,19.38L180,23.01L183.75,22.77L187.5,22.79L191.25,43.76L195,43.01L198.75,43.05L202.5,43.19L206.25,42.25L210,37.53L213.75,37.37L217.5,39.37L221.25,39.73L236.25,41.64L240,41.62L247.5,37.17L251.25,36.85L255,36.74L258.75,37.45L262.5,38.5L266.25,40.8L273.75,43.93L277.5,44.18L281.25,44.77L285,50.22L292.5,70.23L296.25,77.12L300,80.13L303.75,81.64L307.5,82.51L311.25,82.55L315,82.5L318.75,86.58L322.5,86.41L326.25,97.25L330,98.55L333.75,103.27L337.5,110.01L341.25,109.92L348.75,112.64L352.5,134.02L360,135.22L363.75,137.41L367.5,140.35L371.25,139.84L375,140.85L378.75,143.02L382.5,151.54L386.25,151.5L390,156.3L393.75,157.72L401.25,159.13L405,197.63L408.75,207.99L412.5,209.81L416.25,210.06L420,217.54L423.75,215.49L427.5,215.98L431.25,215.06L435,214.98L442.5,215.83L446.25,220.07L457.5,220.02L461.25,223.53L465,223.55L468.75,224.57L472.5,225.51L476.25,225.48L483.75,225.83L487.5,226.05L498.75,225.99L502.5,225.94L513.75,226.03L517.5,225.66L521.25,225.73L525,226.74L528.75,227.95L532.5,232.35L536.25,232.4L540,234.66" style="fill: rgb(99, 110, 250); fill-opacity: 0.5; stroke-width: 0;"/></g></g><g class="errorbars"/><g class="lines"><path class="js-line" d="M0,51.93L3.75,61.13L7.5,60.13L15,57.24L18.75,56.51L22.5,55.53L26.25,61.04L30,62.5L33.75,59.45L37.5,59.25L41.25,54.92L45,54.58L48.75,50.16L60,48.2L63.75,48.92L67.5,53.08L71.25,51.84L78.75,51.24L82.5,50.01L86.25,49.74L90,28.12L93.75,26.62L97.5,22.29L101.25,22.18L105,23L108.75,28.06L112.5,26.48L116.25,23.08L120,25.41L123.75,34.02L127.5,31.9L135,33.09L138.75,32.79L150,32.62L153.75,22.51L157.5,23.69L161.25,20.79L165,20.88L168.75,16L172.5,16.15L176.25,19.38L180,23.01L183.75,22.77L187.5,22.79L191.25,43.76L195,43.01L198.75,43.05L202.5,43.19L206.25,42.25L210,37.53L213.75,37.37L217.5,39.37L221.25,39.73L236.25,41.64L240,41.62L247.5,37.17L251.25,36.85L255,36.74L258.75,37.45L262.5,38.5L266.25,40.8L273.75,43.93L277.5,44.18L281.25,44.77L285,50.22L292.5,70.23L296.25,77.12L300,80.13L303.75,81.64L307.5,82.51L311.25,82.55L315,82.5L318.75,86.58L322.5,86.41L326.25,97.25L330,98.55L333.75,103.27L337.5,110.01L341.25,109.92L348.75,112.64L352.5,134.02L360,135.22L363.75,137.41L367.5,140.35L371.25,139.84L375,140.85L378.75,143.02L382.5,151.54L386.25,151.5L390,156.3L393.75,157.72L401.25,159.13L405,197.63L408.75,207.99L412.5,209.81L416.25,210.06L420,217.54L423.75,215.49L427.5,215.98L431.25,215.06L435,214.98L442.5,215.83L446.25,220.07L457.5,220.02L461.25,223.53L465,223.55L468.75,224.57L472.5,225.51L476.25,225.48L483.75,225.83L487.5,226.05L498.75,225.99L502.5,225.94L513.75,226.03L517.5,225.66L521.25,225.73L525,226.74L528.75,227.95L532.5,232.35L536.25,232.4L540,234.66" style="vector-effect: none; fill: none; stroke: rgb(99, 110, 250); stroke-opacity: 1; stroke-width: 2px; opacity: 1;"/></g><g class="points"/><g class="text"/></g></g></g><g class="overplot"/><path class="xlines-above crisp" d="M0,0" style="fill: none;"/><path class="ylines-above crisp" d="M0,0" style="fill: none;"/><g class="overlines-above"/><g class="xaxislayer-above"><g class="xtick"><text text-anchor="middle" x="0" y="433" transform="translate(143.75,0)" style="font-family: 'Open Sans', verdana, arial, sans-serif; font-size: 12px; fill: rgb(42, 63, 95); fill-opacity: 1; white-space: pre; opacity: 1;">May 2023</text></g><g class="xtick"><text text-anchor="middle" x="0" y="433" style="font-family: 'Open Sans', verdana, arial, sans-serif; font-size: 12px; fill: rgb(42, 63, 95); fill-opacity: 1; white-space: pre; opacity: 1;" transform="translate(260,0)">Jun 2023</text></g><g class="xtick"><text text-anchor="middle" x="0" y="433" style="font-family: 'Open Sans', verdana, arial, sans-serif; font-size: 12px; fill: rgb(42, 63, 95); fill-opacity: 1; white-space: pre; opacity: 1;" transform="translate(372.5,0)">Jul 2023</text></g><g class="xtick"><text text-anchor="middle" x="0" y="433" style="font-family: 'Open Sans', verdana, arial, sans-serif; font-size: 12px; fill: rgb(42, 63, 95); fill-opacity: 1; white-space: pre; opacity: 1;" transform="translate(488.75,0)">Aug 2023</text></g><g class="xtick"><text text-anchor="middle" x="0" y="433" style="font-family: 'Open Sans', verdana, arial, sans-serif; font-size: 12px; fill: rgb(42, 63, 95); fill-opacity: 1; white-space: pre; opacity: 1;" transform="translate(605,0)">Sep 2023</text></g></g><g class="yaxislayer-above"><g class="ytick"><text text-anchor="end" x="79" y="4.199999999999999" transform="translate(0,420)" style="font-family: 'Open Sans', verdana, arial, sans-serif; font-size: 12px; fill: rgb(42, 63, 95); fill-opacity: 1; white-space: pre; opacity: 1;">$0</text></g><g class="ytick"><text text-anchor="end" x="79" y="4.199999999999999" style="font-family: 'Open Sans', verdana, arial, sans-serif; font-size: 12px; fill: rgb(42, 63, 95); fill-opacity: 1; white-space: pre; opacity: 1;" transform="translate(0,345.93)">$5M</text></g><g class="ytick"><text text-anchor="end" x="79" y="4.199999999999999" style="font-family: 'Open Sans', verdana, arial, sans-serif; font-size: 12px; fill: rgb(42, 63, 95); fill-opacity: 1; white-space: pre; opacity: 1;" transform="translate(0,271.86)">$10M</text></g><g class="ytick"><text text-anchor="end" x="79" y="4.199999999999999" style="font-family: 'Open Sans', verdana, arial, sans-serif; font-size: 12px; fill: rgb(42, 63, 95); fill-opacity: 1; white-space: pre; opacity: 1;" transform="translate(0,197.8)">$15M</text></g><g class="ytick"><text text-anchor="end" x="79" y="4.199999999999999" style="font-family: 'Open Sans', verdana, arial, sans-serif; font-size: 12px; fill: rgb(42, 63, 95); fill-opacity: 1; white-space: pre; opacity: 1;" transform="translate(0,123.73)">$20M</text></g></g><g class="overaxes-above"/></g></g><g class="polarlayer"/><g class="smithlayer"/><g class="ternarylayer"/><g class="geolayer"/><g class="funnelarealayer"/><g class="pielayer"/><g class="iciclelayer"/><g class="treemaplayer"/><g class="sunburstlayer"/><g class="glimages"/><defs id="topdefs-163420"><g class="clips"/></defs><g class="layer-above"><g class="imagelayer"/><g class="shapelayer"/></g><g class="infolayer"><g class="g-gtitle"><text class="gtitle" x="35" y="50" text-anchor="start" dy="0em" style="font-family: 'Open Sans', verdana, arial, sans-serif; font-size: 17px; fill: rgb(42, 63, 95); opacity: 1; font-weight: normal; white-space: pre;"><tspan class="line" dy="0em" x="35" y="50">Lido - wstETHCRV: Curve</tspan><tspan class="line" dy="1.3em" x="35" y="50">​<tspan style="font-size:70%" dy="-0.6em">Cumulative Net Flows since Program Announcement, Until Program End + 30 Days</tspan><tspan dy="0.42em">​</tspan></tspan></text></g><g class="g-xtitle"><text class="xtitle" x="350" y="460.3" text-anchor="middle" style="font-family: 'Open Sans', verdana, arial, sans-serif; font-size: 14px; fill: rgb(42, 63, 95); opacity: 1; font-weight: normal; white-space: pre;">Day</text></g><g class="g-ytitle"><text class="ytitle" transform="rotate(-90,24.668750000000003,260)" x="24.668750000000003" y="260" text-anchor="middle" style="font-family: 'Open Sans', verdana, arial, sans-serif; font-size: 14px; fill: rgb(42, 63, 95); opacity: 1; font-weight: normal; white-space: pre;">Cumulative Net Flows (USD)</text></g></g></svg>