<svg class="main-svg" xmlns="http://www.w3.org/2000/svg" xmlns:xlink="http://www.w3.org/1999/xlink" width="700" height="500" style="" viewBox="0 0 700 500"><rect x="0" y="0" width="700" height="500" style="fill: rgb(255, 255, 255); fill-opacity: 1;"/><defs id="defs-afe2f4"><g class="clips"><clipPath id="clipafe2f4xyplot" class="plotclip"><rect width="540" height="320"/></clipPath><clipPath class="axesclip" id="clipafe2f4x"><rect x="80" y="0" width="540" height="500"/></clipPath><clipPath class="axesclip" id="clipafe2f4y"><rect x="0" y="100" width="700" height="320"/></clipPath><clipPath class="axesclip" id="clipafe2f4xy"><rect x="80" y="100" width="540" height="320"/></clipPath></g><g class="gradients"/><g class="patterns"/></defs><g class="bglayer"><rect class="bg" x="80" y="100" width="540" height="320" style="fill: rgb(229, 236, 246); fill-opacity: 1; stroke-width: 0;"/></g><g class="layer-below"><g class="imagelayer"/><g class="shapelayer"/></g><g class="cartesianlayer"><g class="subplot xy"><g class="layer-subplot"><g class="shapelayer"/><g class="imagelayer"/></g><g class="minor-gridlayer"><g class="x"/><g class="y"/></g><g class="gridlayer"><g class="x"><path class="xgrid crisp" transform="translate(136.1,0)" d="M0,100v320" style="stroke: rgb(255, 255, 255); stroke-opacity: 1; stroke-width: 1px;"/><path class="xgrid crisp" transform="translate(221.66,0)" d="M0,100v320" style="stroke: rgb(255, 255, 255); stroke-opacity: 1; stroke-width: 1px;"/><path class="xgrid crisp" transform="translate(304.41999999999996,0)" d="M0,100v320" style="stroke: rgb(255, 255, 255); stroke-opacity: 1; stroke-width: 1px;"/><path class="xgrid crisp" transform="translate(389.97,0)" d="M0,100v320" style="stroke: rgb(255, 255, 255); stroke-opacity: 1; stroke-width: 1px;"/><path class="xgrid crisp" transform="translate(475.53,0)" d="M0,100v320" style="stroke: rgb(255, 255, 255); stroke-opacity: 1; stroke-width: 1px;"/><path class="xgrid crisp" transform="translate(562.49,0)" d="M0,100v320" style="stroke: rgb(255, 255, 255); stroke-opacity: 1; stroke-width: 1px;"/></g><g class="y"><path class="ygrid crisp" transform="translate(0,365.37)" d="M80,0h540" style="stroke: rgb(255, 255, 255); stroke-opacity: 1; stroke-width: 1px;"/><path class="ygrid crisp" transform="translate(0,310.73)" d="M80,0h540" style="stroke: rgb(255, 255, 255); stroke-opacity: 1; stroke-width: 1px;"/><path class="ygrid crisp" transform="translate(0,256.1)" d="M80,0h540" style="stroke: rgb(255, 255, 255); stroke-opacity: 1; stroke-width: 1px;"/><path class="ygrid crisp" transform="translate(0,201.47)" d="M80,0h540" style="stroke: rgb(255, 255, 255); stroke-opacity: 1; stroke-width: 1px;"/><path class="ygrid crisp" transform="translate(0,146.82999999999998)" d="M80,0h540" style="stroke: rgb(255, 255, 255); stroke-opacity: 1; stroke-width: 1px;"/></g></g><g class="zerolinelayer"><path class="yzl zl crisp" transform="translate(0,420)" d="M80,0h540" style="stroke: rgb(255, 255, 255); stroke-opacity: 1; stroke-width: 2px;"/></g><path class="xlines-below"/><path class="ylines-below"/><g class="overlines-below"/><g class="xaxislayer-below"/><g class="yaxislayer-below"/><g class="overaxes-below"/><g class="plot" transform="translate(80,100)" clip-path="url(#clipafe2f4xyplot)"><g class="scatterlayer mlayer"><g class="trace scatter trace82ea60" style="stroke-miterlimit: 2;"><g class="fills"><g><path class="js-fill" d="M540,320L0,320L0,315.21L1.4,308.2L2.81,309.6L4.21,307.86L5.61,316.62L7.01,310.15L8.42,308.43L9.82,308.53L11.22,302.78L12.62,314.76L14.03,304.95L15.43,298.45L16.83,299.81L18.23,303.59L19.64,297.75L21.04,298.09L22.44,293.74L23.84,293.85L25.25,297.45L26.65,295.34L28.05,295.74L29.45,300.66L30.86,297.94L32.26,297.56L33.66,299.93L35.06,299.91L36.47,297.38L37.87,293.95L39.27,293.03L40.68,288.21L42.08,289L43.48,287.66L44.88,289.72L46.29,290.8L47.69,281.18L49.09,236.79L50.49,160.64L51.9,143.01L53.3,141.68L56.1,124.1L57.51,126.59L58.91,105.7L60.31,107.86L61.71,109.31L63.12,115.47L64.52,117.89L65.92,111.52L68.73,150.49L70.13,142.71L71.53,146.68L72.94,148.41L74.34,152.14L75.74,152.02L77.14,147.55L78.55,145.92L79.95,147.6L81.35,147.39L82.75,154.41L84.16,146.16L85.56,143.3L86.96,143.47L88.36,145.64L89.77,143.84L91.17,143.39L92.57,149.52L93.97,158.8L95.38,151.97L96.78,124.21L98.18,122.07L99.58,124.84L100.99,132.96L102.39,134.28L103.79,137.21L105.19,133.2L106.6,133.4L109.4,134.56L110.81,142.09L112.21,141.27L113.61,141.67L115.01,141.95L116.42,132.92L117.82,135.49L119.22,127.27L120.62,128.03L122.03,111.33L123.43,118.05L124.83,116.16L126.23,129.64L127.64,124.73L129.04,133.66L130.44,131.82L133.25,134.91L134.65,133.29L136.05,140.46L137.45,142.65L141.66,144.35L143.06,141.24L144.47,139.41L145.87,131.1L148.68,150.39L150.08,154.58L151.48,155.55L152.88,152.37L154.29,150.67L155.69,161.74L157.09,165.84L158.49,163.64L159.9,170.55L161.3,170.64L165.51,221.88L166.91,224.33L168.31,221.14L169.71,223.8L171.12,215.64L172.52,219.24L173.92,215L175.32,220.7L176.73,213.37L178.13,210.89L179.53,212.29L180.94,209.87L185.14,197.98L186.55,203.56L190.75,194.15L192.16,191.54L193.56,188.21L194.96,195.48L196.36,195.53L197.77,190.71L200.57,181.94L201.97,182.37L203.38,179.44L204.78,182.13L206.18,193.78L207.58,192.51L208.99,189.01L210.39,200.73L211.79,189.82L213.19,190.76L214.6,185.79L216,193.58L220.21,151.55L221.61,157.07L223.01,142.58L224.42,137.97L225.82,139.87L227.22,130.27L228.62,132.99L230.03,122.37L232.83,103.55L234.23,100.72L235.64,108.79L237.04,90.37L238.44,98.3L239.84,116.26L241.25,124.55L242.65,104.41L244.05,124.7L245.45,118.34L246.86,117.73L248.26,116.24L249.66,116.22L251.06,92.81L253.87,84.1L255.27,57.26L256.68,76.14L258.08,73.13L260.88,56.61L262.29,58.02L263.69,47.47L265.09,58.43L266.49,56.24L267.9,36.28L270.7,32.49L272.1,16L276.31,42.11L277.71,39.96L279.12,89.29L280.52,60.04L281.92,61.43L283.32,52.74L284.73,50L286.13,44.25L287.53,50.96L288.94,46.62L290.34,56.45L291.74,42.02L294.55,39.54L295.95,33.64L297.35,32.76L298.75,34.35L300.16,24.02L301.56,39.49L302.96,35.16L304.36,25.81L307.17,17.72L308.57,24.64L309.97,30.11L311.38,25.62L312.78,25.5L314.18,34.93L315.58,26.73L316.99,36.08L318.39,32.19L319.79,35.76L321.19,33.31L322.6,27.12L324,28.12L325.4,34.88L326.81,50.22L328.21,38.88L329.61,37.11L331.01,57.67L332.42,63.97L333.82,79.32L335.22,84.4L336.62,78.77L339.43,86.22L340.83,85.98L342.23,93.26L343.64,85.68L345.04,78.21L346.44,80.28L347.84,85.95L349.25,73.4L352.05,86.18L353.45,103.1L354.86,92.07L356.26,113.53L357.66,113.74L359.06,109.78L360.47,121.4L361.87,124.57L363.27,138.66L364.68,129.93L366.08,125.2L367.48,150.13L368.88,143.66L370.29,154.91L371.69,152.5L373.09,154.45L375.9,151.66L377.3,160.49L378.7,170.19L380.1,167.32L382.91,185.92L384.31,181.22L387.12,187.1L388.52,181.62L391.32,178.33L392.73,180.94L394.13,202.14L395.53,207.81L398.34,194.38L399.74,193.03L401.14,185.09L402.55,185.17L403.95,193.41L405.35,195.98L409.56,214.69L410.96,220.12L412.36,214.24L413.77,213.83L415.17,215.55L416.57,223.29L417.97,222.93L419.38,218.53L420.78,217.88L422.18,213.32L423.58,204.08L424.99,201.4L426.39,206.98L427.79,207.58L429.19,202.79L430.6,201.83L432,208.74L433.4,208.96L434.81,206.82L436.21,207.65L437.61,209.56L439.01,209.35L440.42,213.01L441.82,222.71L444.62,228.59L446.03,232.54L447.43,229.56L448.83,221.01L450.23,224.01L451.64,220.02L453.04,219L454.44,221.72L455.84,224.87L457.25,226.09L458.65,221.52L460.05,220.95L461.45,220.93L462.86,217.31L464.26,218.81L465.66,223.94L467.06,224.01L468.47,228.62L469.87,228.93L471.27,235.91L474.08,227.74L475.48,226.53L476.88,230.18L478.29,224.19L479.69,227.78L481.09,221.27L482.49,223.2L483.9,223.68L485.3,221.15L486.7,228.21L488.1,222.79L489.51,224.73L490.91,230.99L492.31,226.4L495.12,225.58L496.52,228.18L497.92,228.77L499.32,231.89L502.13,234.41L503.53,238.81L504.94,237.21L506.34,237.24L507.74,235.99L509.14,232.12L510.55,234.8L511.95,233.8L514.75,231.96L516.16,234L517.56,235.05L518.96,234.37L520.36,234.32L521.77,237.24L524.57,241.67L525.97,244.68L527.38,248.22L528.78,255.4L530.18,258.62L531.58,286.88L532.99,279.88L534.39,277.56L535.79,276.81L537.19,278.48L538.6,277.98L540,274.55" style="fill: rgb(99, 110, 250); fill-opacity: 0.5; stroke-width: 0;"/></g></g><g class="errorbars"/><g class="lines"><path class="js-line" d="M0,315.21L1.4,308.2L2.81,309.6L4.21,307.86L5.61,316.62L7.01,310.15L8.42,308.43L9.82,308.53L11.22,302.78L12.62,314.76L14.03,304.95L15.43,298.45L16.83,299.81L18.23,303.59L19.64,297.75L21.04,298.09L22.44,293.74L23.84,293.85L25.25,297.45L26.65,295.34L28.05,295.74L29.45,300.66L30.86,297.94L32.26,297.56L33.66,299.93L35.06,299.91L36.47,297.38L37.87,293.95L39.27,293.03L40.68,288.21L42.08,289L43.48,287.66L44.88,289.72L46.29,290.8L47.69,281.18L49.09,236.79L50.49,160.64L51.9,143.01L53.3,141.68L56.1,124.1L57.51,126.59L58.91,105.7L60.31,107.86L61.71,109.31L63.12,115.47L64.52,117.89L65.92,111.52L68.73,150.49L70.13,142.71L71.53,146.68L72.94,148.41L74.34,152.14L75.74,152.02L77.14,147.55L78.55,145.92L79.95,147.6L81.35,147.39L82.75,154.41L84.16,146.16L85.56,143.3L86.96,143.47L88.36,145.64L89.77,143.84L91.17,143.39L92.57,149.52L93.97,158.8L95.38,151.97L96.78,124.21L98.18,122.07L99.58,124.84L100.99,132.96L102.39,134.28L103.79,137.21L105.19,133.2L106.6,133.4L109.4,134.56L110.81,142.09L112.21,141.27L113.61,141.67L115.01,141.95L116.42,132.92L117.82,135.49L119.22,127.27L120.62,128.03L122.03,111.33L123.43,118.05L124.83,116.16L126.23,129.64L127.64,124.73L129.04,133.66L130.44,131.82L133.25,134.91L134.65,133.29L136.05,140.46L137.45,142.65L141.66,144.35L143.06,141.24L144.47,139.41L145.87,131.1L148.68,150.39L150.08,154.58L151.48,155.55L152.88,152.37L154.29,150.67L155.69,161.74L157.09,165.84L158.49,163.64L159.9,170.55L161.3,170.64L165.51,221.88L166.91,224.33L168.31,221.14L169.71,223.8L171.12,215.64L172.52,219.24L173.92,215L175.32,220.7L176.73,213.37L178.13,210.89L179.53,212.29L180.94,209.87L185.14,197.98L186.55,203.56L190.75,194.15L192.16,191.54L193.56,188.21L194.96,195.48L196.36,195.53L197.77,190.71L200.57,181.94L201.97,182.37L203.38,179.44L204.78,182.13L206.18,193.78L207.58,192.51L208.99,189.01L210.39,200.73L211.79,189.82L213.19,190.76L214.6,185.79L216,193.58L220.21,151.55L221.61,157.07L223.01,142.58L224.42,137.97L225.82,139.87L227.22,130.27L228.62,132.99L230.03,122.37L232.83,103.55L234.23,100.72L235.64,108.79L237.04,90.37L238.44,98.3L239.84,116.26L241.25,124.55L242.65,104.41L244.05,124.7L245.45,118.34L246.86,117.73L248.26,116.24L249.66,116.22L251.06,92.81L253.87,84.1L255.27,57.26L256.68,76.14L258.08,73.13L260.88,56.61L262.29,58.02L263.69,47.47L265.09,58.43L266.49,56.24L267.9,36.28L270.7,32.49L272.1,16L276.31,42.11L277.71,39.96L279.12,89.29L280.52,60.04L281.92,61.43L283.32,52.74L284.73,50L286.13,44.25L287.53,50.96L288.94,46.62L290.34,56.45L291.74,42.02L294.55,39.54L295.95,33.64L297.35,32.76L298.75,34.35L300.16,24.02L301.56,39.49L302.96,35.16L304.36,25.81L307.17,17.72L308.57,24.64L309.97,30.11L311.38,25.62L312.78,25.5L314.18,34.93L315.58,26.73L316.99,36.08L318.39,32.19L319.79,35.76L321.19,33.31L322.6,27.12L324,28.12L325.4,34.88L326.81,50.22L328.21,38.88L329.61,37.11L331.01,57.67L332.42,63.97L333.82,79.32L335.22,84.4L336.62,78.77L339.43,86.22L340.83,85.98L342.23,93.26L343.64,85.68L345.04,78.21L346.44,80.28L347.84,85.95L349.25,73.4L352.05,86.18L353.45,103.1L354.86,92.07L356.26,113.53L357.66,113.74L359.06,109.78L360.47,121.4L361.87,124.57L363.27,138.66L364.68,129.93L366.08,125.2L367.48,150.13L368.88,143.66L370.29,154.91L371.69,152.5L373.09,154.45L375.9,151.66L377.3,160.49L378.7,170.19L380.1,167.32L382.91,185.92L384.31,181.22L387.12,187.1L388.52,181.62L391.32,178.33L392.73,180.94L394.13,202.14L395.53,207.81L398.34,194.38L399.74,193.03L401.14,185.09L402.55,185.17L403.95,193.41L405.35,195.98L409.56,214.69L410.96,220.12L412.36,214.24L413.77,213.83L415.17,215.55L416.57,223.29L417.97,222.93L419.38,218.53L420.78,217.88L422.18,213.32L423.58,204.08L424.99,201.4L426.39,206.98L427.79,207.58L429.19,202.79L430.6,201.83L432,208.74L433.4,208.96L434.81,206.82L436.21,207.65L437.61,209.56L439.01,209.35L440.42,213.01L441.82,222.71L444.62,228.59L446.03,232.54L447.43,229.56L448.83,221.01L450.23,224.01L451.64,220.02L453.04,219L454.44,221.72L455.84,224.87L457.25,226.09L458.65,221.52L460.05,220.95L461.45,220.93L462.86,217.31L464.26,218.81L465.66,223.94L467.06,224.01L468.47,228.62L469.87,228.93L471.27,235.91L474.08,227.74L475.48,226.53L476.88,230.18L478.29,224.19L479.69,227.78L481.09,221.27L482.49,223.2L483.9,223.68L485.3,221.15L486.7,228.21L488.1,222.79L489.51,224.73L490.91,230.99L492.31,226.4L495.12,225.58L496.52,228.18L497.92,228.77L499.32,231.89L502.13,234.41L503.53,238.81L504.94,237.21L506.34,237.24L507.74,235.99L509.14,232.12L510.55,234.8L511.95,233.8L514.75,231.96L516.16,234L517.56,235.05L518.96,234.37L520.36,234.32L521.77,237.24L524.57,241.67L525.97,244.68L527.38,248.22L528.78,255.4L530.18,258.62L531.58,286.88L532.99,279.88L534.39,277.56L535.79,276.81L537.19,278.48L538.6,277.98L540,274.55" style="vector-effect: none; fill: none; stroke: rgb(99, 110, 250); stroke-opacity: 1; stroke-width: 2px; opacity: 1;"/></g><g class="points"/><g class="text"/></g></g></g><g class="overplot"/><path class="xlines-above crisp" d="M0,0" style="fill: none;"/><path class="ylines-above crisp" d="M0,0" style="fill: none;"/><g class="overlines-above"/><g class="xaxislayer-above"><g class="xtick"><text text-anchor="middle" x="0" y="433" transform="translate(136.1,0)" style="font-family: 'Open Sans', verdana, arial, sans-serif; font-size: 12px; fill: rgb(42, 63, 95); fill-opacity: 1; white-space: pre; opacity: 1;">Nov 2022</text></g><g class="xtick"><text text-anchor="middle" x="0" y="433" style="font-family: 'Open Sans', verdana, arial, sans-serif; font-size: 12px; fill: rgb(42, 63, 95); fill-opacity: 1; white-space: pre; opacity: 1;" transform="translate(221.66,0)">Jan 2023</text></g><g class="xtick"><text text-anchor="middle" x="0" y="433" style="font-family: 'Open Sans', verdana, arial, sans-serif; font-size: 12px; fill: rgb(42, 63, 95); fill-opacity: 1; white-space: pre; opacity: 1;" transform="translate(304.41999999999996,0)">Mar 2023</text></g><g class="xtick"><text text-anchor="middle" x="0" y="433" style="font-family: 'Open Sans', verdana, arial, sans-serif; font-size: 12px; fill: rgb(42, 63, 95); fill-opacity: 1; white-space: pre; opacity: 1;" transform="translate(389.97,0)">May 2023</text></g><g class="xtick"><text text-anchor="middle" x="0" y="433" style="font-family: 'Open Sans', verdana, arial, sans-serif; font-size: 12px; fill: rgb(42, 63, 95); fill-opacity: 1; white-space: pre; opacity: 1;" transform="translate(475.53,0)">Jul 2023</text></g><g class="xtick"><text text-anchor="middle" x="0" y="433" style="font-family: 'Open Sans', verdana, arial, sans-serif; font-size: 12px; fill: rgb(42, 63, 95); fill-opacity: 1; white-space: pre; opacity: 1;" transform="translate(562.49,0)">Sep 2023</text></g></g><g class="yaxislayer-above"><g class="ytick"><text text-anchor="end" x="79" y="4.199999999999999" transform="translate(0,420)" style="font-family: 'Open Sans', verdana, arial, sans-serif; font-size: 12px; fill: rgb(42, 63, 95); fill-opacity: 1; white-space: pre; opacity: 1;">$0</text></g><g class="ytick"><text text-anchor="end" x="79" y="4.199999999999999" style="font-family: 'Open Sans', verdana, arial, sans-serif; font-size: 12px; fill: rgb(42, 63, 95); fill-opacity: 1; white-space: pre; opacity: 1;" transform="translate(0,365.37)">$2M</text></g><g class="ytick"><text text-anchor="end" x="79" y="4.199999999999999" style="font-family: 'Open Sans', verdana, arial, sans-serif; font-size: 12px; fill: rgb(42, 63, 95); fill-opacity: 1; white-space: pre; opacity: 1;" transform="translate(0,310.73)">$4M</text></g><g class="ytick"><text text-anchor="end" x="79" y="4.199999999999999" style="font-family: 'Open Sans', verdana, arial, sans-serif; font-size: 12px; fill: rgb(42, 63, 95); fill-opacity: 1; white-space: pre; opacity: 1;" transform="translate(0,256.1)">$6M</text></g><g class="ytick"><text text-anchor="end" x="79" y="4.199999999999999" style="font-family: 'Open Sans', verdana, arial, sans-serif; font-size: 12px; fill: rgb(42, 63, 95); fill-opacity: 1; white-space: pre; opacity: 1;" transform="translate(0,201.47)">$8M</text></g><g class="ytick"><text text-anchor="end" x="79" y="4.199999999999999" style="font-family: 'Open Sans', verdana, arial, sans-serif; font-size: 12px; fill: rgb(42, 63, 95); fill-opacity: 1; white-space: pre; opacity: 1;" transform="translate(0,146.82999999999998)">$10M</text></g></g><g class="overaxes-above"/></g></g><g class="polarlayer"/><g class="smithlayer"/><g class="ternarylayer"/><g class="geolayer"/><g class="funnelarealayer"/><g class="pielayer"/><g class="iciclelayer"/><g class="treemaplayer"/><g class="sunburstlayer"/><g class="glimages"/><defs id="topdefs-afe2f4"><g class="clips"/></defs><g class="layer-above"><g class="imagelayer"/><g class="shapelayer"/></g><g class="infolayer"><g class="g-gtitle"><text class="gtitle" x="35" y="50" text-anchor="start" dy="0em" style="font-family: 'Open Sans', verdana, arial, sans-serif; font-size: 17px; fill: rgb(42, 63, 95); opacity: 1; font-weight: normal; white-space: pre;"><tspan class="line" dy="0em" x="35" y="50">Hop Protocol</tspan><tspan class="line" dy="1.3em" x="35" y="50">​<tspan style="font-size:70%" dy="-0.6em">Cumulative Net Flows since Program Announcement, Until Program End + 30 Days</tspan><tspan dy="0.42em">​</tspan></tspan></text></g><g class="g-xtitle"><text class="xtitle" x="350" y="460.3" text-anchor="middle" style="font-family: 'Open Sans', verdana, arial, sans-serif; font-size: 14px; fill: rgb(42, 63, 95); opacity: 1; font-weight: normal; white-space: pre;">Day</text></g><g class="g-ytitle"><text class="ytitle" transform="rotate(-90,24.668750000000003,260)" x="24.668750000000003" y="260" text-anchor="middle" style="font-family: 'Open Sans', verdana, arial, sans-serif; font-size: 14px; fill: rgb(42, 63, 95); opacity: 1; font-weight: normal; white-space: pre;">Cumulative Net Flows (USD)</text></g></g></svg>