<svg class="main-svg" xmlns="http://www.w3.org/2000/svg" xmlns:xlink="http://www.w3.org/1999/xlink" width="700" height="500" style="" viewBox="0 0 700 500"><rect x="0" y="0" width="700" height="500" style="fill: rgb(255, 255, 255); fill-opacity: 1;"/><defs id="defs-545b3d"><g class="clips"><clipPath id="clip545b3dxyplot" class="plotclip"><rect width="540" height="320"/></clipPath><clipPath class="axesclip" id="clip545b3dx"><rect x="80" y="0" width="540" height="500"/></clipPath><clipPath class="axesclip" id="clip545b3dy"><rect x="0" y="100" width="700" height="320"/></clipPath><clipPath class="axesclip" id="clip545b3dxy"><rect x="80" y="100" width="540" height="320"/></clipPath></g><g class="gradients"/><g class="patterns"/></defs><g class="bglayer"><rect class="bg" x="80" y="100" width="540" height="320" style="fill: rgb(229, 236, 246); fill-opacity: 1; stroke-width: 0;"/></g><g class="layer-below"><g class="imagelayer"/><g class="shapelayer"/></g><g class="cartesianlayer"><g class="subplot xy"><g class="layer-subplot"><g class="shapelayer"/><g class="imagelayer"/></g><g class="minor-gridlayer"><g class="x"/><g class="y"/></g><g class="gridlayer"><g class="x"><path class="xgrid crisp" transform="translate(90.68,0)" d="M0,100v320" style="stroke: rgb(255, 255, 255); stroke-opacity: 1; stroke-width: 1px;"/><path class="xgrid crisp" transform="translate(183.73000000000002,0)" d="M0,100v320" style="stroke: rgb(255, 255, 255); stroke-opacity: 1; stroke-width: 1px;"/><path class="xgrid crisp" transform="translate(276.78,0)" d="M0,100v320" style="stroke: rgb(255, 255, 255); stroke-opacity: 1; stroke-width: 1px;"/><path class="xgrid crisp" transform="translate(366.78,0)" d="M0,100v320" style="stroke: rgb(255, 255, 255); stroke-opacity: 1; stroke-width: 1px;"/><path class="xgrid crisp" transform="translate(459.83,0)" d="M0,100v320" style="stroke: rgb(255, 255, 255); stroke-opacity: 1; stroke-width: 1px;"/><path class="xgrid crisp" transform="translate(552.88,0)" d="M0,100v320" style="stroke: rgb(255, 255, 255); stroke-opacity: 1; stroke-width: 1px;"/></g><g class="y"><path class="ygrid crisp" transform="translate(0,406.23)" d="M80,0h540" style="stroke: rgb(255, 255, 255); stroke-opacity: 1; stroke-width: 1px;"/><path class="ygrid crisp" transform="translate(0,320.45)" d="M80,0h540" style="stroke: rgb(255, 255, 255); stroke-opacity: 1; stroke-width: 1px;"/><path class="ygrid crisp" transform="translate(0,277.56)" d="M80,0h540" style="stroke: rgb(255, 255, 255); stroke-opacity: 1; stroke-width: 1px;"/><path class="ygrid crisp" transform="translate(0,234.68)" d="M80,0h540" style="stroke: rgb(255, 255, 255); stroke-opacity: 1; stroke-width: 1px;"/><path class="ygrid crisp" transform="translate(0,191.79000000000002)" d="M80,0h540" style="stroke: rgb(255, 255, 255); stroke-opacity: 1; stroke-width: 1px;"/><path class="ygrid crisp" transform="translate(0,148.9)" d="M80,0h540" style="stroke: rgb(255, 255, 255); stroke-opacity: 1; stroke-width: 1px;"/><path class="ygrid crisp" transform="translate(0,106.01)" d="M80,0h540" style="stroke: rgb(255, 255, 255); stroke-opacity: 1; stroke-width: 1px;"/></g></g><g class="zerolinelayer"><path class="yzl zl crisp" transform="translate(0,363.34)" d="M80,0h540" style="stroke: rgb(255, 255, 255); stroke-opacity: 1; stroke-width: 2px;"/></g><path class="xlines-below"/><path class="ylines-below"/><g class="overlines-below"/><g class="xaxislayer-below"/><g class="yaxislayer-below"/><g class="overaxes-below"/><g class="plot" transform="translate(80,100)" clip-path="url(#clip545b3dxyplot)"><g class="scatterlayer mlayer"><g class="trace scatter trace4b0194" style="stroke-miterlimit: 2;"><g class="fills"><g><path class="js-fill" d="M540,263.34L0,263.34L0,262.45L1.53,224.23L3.05,217.62L4.58,214.75L6.1,214.7L7.63,208.8L9.15,206.39L10.68,205.08L12.2,206.68L13.73,201.21L15.25,199.05L16.78,195.97L18.31,204.24L19.83,201.95L21.36,204.22L22.88,195.28L24.41,191.21L25.93,188.75L27.46,187.99L32.03,195.02L33.56,183.69L35.08,176.23L36.61,174.98L38.14,172.82L39.66,177.76L41.19,177.6L42.71,175.12L45.76,175.07L47.29,175.82L50.34,173.76L51.86,147.67L53.39,149.52L54.92,155L56.44,153.86L57.97,153.78L62.54,157.03L64.07,163.61L65.59,160.29L67.12,167.95L68.64,167.94L70.17,169.02L71.69,172.27L73.22,169.78L76.27,169.14L77.8,167L80.85,166.63L82.37,165.04L83.9,166.37L85.42,166.16L93.05,166.44L94.58,164.96L96.1,165.65L97.63,176.74L99.15,174.71L100.68,163.73L109.83,164.19L111.36,165.02L112.88,163.34L114.41,163.18L115.93,193.68L117.46,197.49L118.98,185.97L120.51,180.57L122.03,186.15L123.56,177.06L126.61,175.02L128.14,176.72L129.66,180.59L131.19,179.67L132.71,178.78L134.24,180.37L137.29,180.51L138.81,175.15L140.34,175.56L141.86,174.62L149.49,174.3L151.02,172.02L152.54,172.1L154.07,168.46L155.59,168L157.12,163.22L158.64,151.39L160.17,146.13L161.69,146.55L163.22,144.88L164.75,144.78L166.27,143.46L167.8,140.09L169.32,139.42L172.37,132.53L173.9,135.94L176.95,136L178.47,138.89L180,151.03L181.53,151.41L183.05,151.84L184.58,151.07L189.15,151.11L190.68,156.17L192.2,156.07L193.73,153.06L195.25,140.73L196.78,138.18L198.31,142.2L199.83,142.14L201.36,147.09L202.88,147.59L204.41,144.92L205.93,144.95L207.46,148.11L208.98,146.24L212.03,124.81L213.56,123.41L215.08,128.23L216.61,124.61L218.14,123.44L219.66,125.25L222.71,124.45L224.24,127.38L225.76,123.2L227.29,113.93L228.81,111.02L230.34,110.26L231.86,108.48L233.39,87.09L234.92,42.79L236.44,39.33L237.97,41.67L239.49,32.25L241.02,31.48L242.54,17.98L244.07,17.59L245.59,16L247.12,20.25L248.64,30.34L250.17,34.47L251.69,34.45L253.22,42.67L254.75,57.63L256.27,59.8L257.8,60.16L259.32,59.91L260.85,40.07L262.37,42.08L263.9,39.88L265.42,40.15L266.95,38.01L268.47,42.97L270,52.08L273.05,53.23L274.58,66.66L277.63,68.06L279.15,67.24L280.68,65.2L282.2,61.01L283.73,60L285.25,59.9L288.31,59.42L289.83,60.76L292.88,60.43L294.41,57.33L295.93,58.6L297.46,56.54L298.98,52.44L300.51,52.87L302.03,51.09L303.56,64.11L306.61,60.12L308.14,52.09L309.66,50.06L311.19,52.75L312.71,57.27L314.24,59.42L315.76,62.09L317.29,62.29L318.81,60.89L320.34,61.37L323.39,62.96L324.92,78.42L326.44,88.64L327.97,129.3L329.49,177.1L331.02,200.69L332.54,202.96L334.07,210.16L337.12,216.83L338.64,219.65L340.17,226.8L341.69,228.29L344.75,230.54L346.27,231L347.8,231.7L349.32,234.66L350.85,236L352.37,236.22L353.9,282.63L355.42,283.01L356.95,283.51L358.47,285L364.58,286.88L366.1,284.76L370.68,285.4L372.2,288.84L373.73,290.61L375.25,290.77L379.83,291.32L381.36,291.34L395.08,291.84L396.61,294.38L401.19,294.39L402.71,295.23L414.92,295.89L416.44,299.69L457.63,301.4L459.15,301.9L495.76,302.86L497.29,303.22L540,304" style="fill: rgb(99, 110, 250); fill-opacity: 0.5; stroke-width: 0;"/></g></g><g class="errorbars"/><g class="lines"><path class="js-line" d="M0,262.45L1.53,224.23L3.05,217.62L4.58,214.75L6.1,214.7L7.63,208.8L9.15,206.39L10.68,205.08L12.2,206.68L13.73,201.21L15.25,199.05L16.78,195.97L18.31,204.24L19.83,201.95L21.36,204.22L22.88,195.28L24.41,191.21L25.93,188.75L27.46,187.99L32.03,195.02L33.56,183.69L35.08,176.23L36.61,174.98L38.14,172.82L39.66,177.76L41.19,177.6L42.71,175.12L45.76,175.07L47.29,175.82L50.34,173.76L51.86,147.67L53.39,149.52L54.92,155L56.44,153.86L57.97,153.78L62.54,157.03L64.07,163.61L65.59,160.29L67.12,167.95L68.64,167.94L70.17,169.02L71.69,172.27L73.22,169.78L76.27,169.14L77.8,167L80.85,166.63L82.37,165.04L83.9,166.37L85.42,166.16L93.05,166.44L94.58,164.96L96.1,165.65L97.63,176.74L99.15,174.71L100.68,163.73L109.83,164.19L111.36,165.02L112.88,163.34L114.41,163.18L115.93,193.68L117.46,197.49L118.98,185.97L120.51,180.57L122.03,186.15L123.56,177.06L126.61,175.02L128.14,176.72L129.66,180.59L131.19,179.67L132.71,178.78L134.24,180.37L137.29,180.51L138.81,175.15L140.34,175.56L141.86,174.62L149.49,174.3L151.02,172.02L152.54,172.1L154.07,168.46L155.59,168L157.12,163.22L158.64,151.39L160.17,146.13L161.69,146.55L163.22,144.88L164.75,144.78L166.27,143.46L167.8,140.09L169.32,139.42L172.37,132.53L173.9,135.94L176.95,136L178.47,138.89L180,151.03L181.53,151.41L183.05,151.84L184.58,151.07L189.15,151.11L190.68,156.17L192.2,156.07L193.73,153.06L195.25,140.73L196.78,138.18L198.31,142.2L199.83,142.14L201.36,147.09L202.88,147.59L204.41,144.92L205.93,144.95L207.46,148.11L208.98,146.24L212.03,124.81L213.56,123.41L215.08,128.23L216.61,124.61L218.14,123.44L219.66,125.25L222.71,124.45L224.24,127.38L225.76,123.2L227.29,113.93L228.81,111.02L230.34,110.26L231.86,108.48L233.39,87.09L234.92,42.79L236.44,39.33L237.97,41.67L239.49,32.25L241.02,31.48L242.54,17.98L244.07,17.59L245.59,16L247.12,20.25L248.64,30.34L250.17,34.47L251.69,34.45L253.22,42.67L254.75,57.63L256.27,59.8L257.8,60.16L259.32,59.91L260.85,40.07L262.37,42.08L263.9,39.88L265.42,40.15L266.95,38.01L268.47,42.97L270,52.08L273.05,53.23L274.58,66.66L277.63,68.06L279.15,67.24L280.68,65.2L282.2,61.01L283.73,60L285.25,59.9L288.31,59.42L289.83,60.76L292.88,60.43L294.41,57.33L295.93,58.6L297.46,56.54L298.98,52.44L300.51,52.87L302.03,51.09L303.56,64.11L306.61,60.12L308.14,52.09L309.66,50.06L311.19,52.75L312.71,57.27L314.24,59.42L315.76,62.09L317.29,62.29L318.81,60.89L320.34,61.37L323.39,62.96L324.92,78.42L326.44,88.64L327.97,129.3L329.49,177.1L331.02,200.69L332.54,202.96L334.07,210.16L337.12,216.83L338.64,219.65L340.17,226.8L341.69,228.29L344.75,230.54L346.27,231L347.8,231.7L349.32,234.66L350.85,236L352.37,236.22L353.9,282.63L355.42,283.01L356.95,283.51L358.47,285L364.58,286.88L366.1,284.76L370.68,285.4L372.2,288.84L373.73,290.61L375.25,290.77L379.83,291.32L381.36,291.34L395.08,291.84L396.61,294.38L401.19,294.39L402.71,295.23L414.92,295.89L416.44,299.69L457.63,301.4L459.15,301.9L495.76,302.86L497.29,303.22L540,304" style="vector-effect: none; fill: none; stroke: rgb(99, 110, 250); stroke-opacity: 1; stroke-width: 2px; opacity: 1;"/></g><g class="points"/><g class="text"/></g></g></g><g class="overplot"/><path class="xlines-above crisp" d="M0,0" style="fill: none;"/><path class="ylines-above crisp" d="M0,0" style="fill: none;"/><g class="overlines-above"/><g class="xaxislayer-above"><g class="xtick"><text text-anchor="middle" x="0" y="433" transform="translate(90.68,0)" style="font-family: 'Open Sans', verdana, arial, sans-serif; font-size: 12px; fill: rgb(42, 63, 95); fill-opacity: 1; white-space: pre; opacity: 1;">Sep 2022</text></g><g class="xtick"><text text-anchor="middle" x="0" y="433" style="font-family: 'Open Sans', verdana, arial, sans-serif; font-size: 12px; fill: rgb(42, 63, 95); fill-opacity: 1; white-space: pre; opacity: 1;" transform="translate(183.73000000000002,0)">Nov 2022</text></g><g class="xtick"><text text-anchor="middle" x="0" y="433" style="font-family: 'Open Sans', verdana, arial, sans-serif; font-size: 12px; fill: rgb(42, 63, 95); fill-opacity: 1; white-space: pre; opacity: 1;" transform="translate(276.78,0)">Jan 2023</text></g><g class="xtick"><text text-anchor="middle" x="0" y="433" style="font-family: 'Open Sans', verdana, arial, sans-serif; font-size: 12px; fill: rgb(42, 63, 95); fill-opacity: 1; white-space: pre; opacity: 1;" transform="translate(366.78,0)">Mar 2023</text></g><g class="xtick"><text text-anchor="middle" x="0" y="433" style="font-family: 'Open Sans', verdana, arial, sans-serif; font-size: 12px; fill: rgb(42, 63, 95); fill-opacity: 1; white-space: pre; opacity: 1;" transform="translate(459.83,0)">May 2023</text></g><g class="xtick"><text text-anchor="middle" x="0" y="433" style="font-family: 'Open Sans', verdana, arial, sans-serif; font-size: 12px; fill: rgb(42, 63, 95); fill-opacity: 1; white-space: pre; opacity: 1;" transform="translate(552.88,0)">Jul 2023</text></g></g><g class="yaxislayer-above"><g class="ytick"><text text-anchor="end" x="79" y="4.199999999999999" transform="translate(0,406.23)" style="font-family: 'Open Sans', verdana, arial, sans-serif; font-size: 12px; fill: rgb(42, 63, 95); fill-opacity: 1; white-space: pre; opacity: 1;">$−5M</text></g><g class="ytick"><text text-anchor="end" x="79" y="4.199999999999999" style="font-family: 'Open Sans', verdana, arial, sans-serif; font-size: 12px; fill: rgb(42, 63, 95); fill-opacity: 1; white-space: pre; opacity: 1;" transform="translate(0,363.34)">$0</text></g><g class="ytick"><text text-anchor="end" x="79" y="4.199999999999999" style="font-family: 'Open Sans', verdana, arial, sans-serif; font-size: 12px; fill: rgb(42, 63, 95); fill-opacity: 1; white-space: pre; opacity: 1;" transform="translate(0,320.45)">$5M</text></g><g class="ytick"><text text-anchor="end" x="79" y="4.199999999999999" style="font-family: 'Open Sans', verdana, arial, sans-serif; font-size: 12px; fill: rgb(42, 63, 95); fill-opacity: 1; white-space: pre; opacity: 1;" transform="translate(0,277.56)">$10M</text></g><g class="ytick"><text text-anchor="end" x="79" y="4.199999999999999" style="font-family: 'Open Sans', verdana, arial, sans-serif; font-size: 12px; fill: rgb(42, 63, 95); fill-opacity: 1; white-space: pre; opacity: 1;" transform="translate(0,234.68)">$15M</text></g><g class="ytick"><text text-anchor="end" x="79" y="4.199999999999999" style="font-family: 'Open Sans', verdana, arial, sans-serif; font-size: 12px; fill: rgb(42, 63, 95); fill-opacity: 1; white-space: pre; opacity: 1;" transform="translate(0,191.79000000000002)">$20M</text></g><g class="ytick"><text text-anchor="end" x="79" y="4.199999999999999" style="font-family: 'Open Sans', verdana, arial, sans-serif; font-size: 12px; fill: rgb(42, 63, 95); fill-opacity: 1; white-space: pre; opacity: 1;" transform="translate(0,148.9)">$25M</text></g><g class="ytick"><text text-anchor="end" x="79" y="4.199999999999999" style="font-family: 'Open Sans', verdana, arial, sans-serif; font-size: 12px; fill: rgb(42, 63, 95); fill-opacity: 1; white-space: pre; opacity: 1;" transform="translate(0,106.01)">$30M</text></g></g><g class="overaxes-above"/></g></g><g class="polarlayer"/><g class="smithlayer"/><g class="ternarylayer"/><g class="geolayer"/><g class="funnelarealayer"/><g class="pielayer"/><g class="iciclelayer"/><g class="treemaplayer"/><g class="sunburstlayer"/><g class="glimages"/><defs id="topdefs-545b3d"><g class="clips"/></defs><g class="layer-above"><g class="imagelayer"/><g class="shapelayer"/></g><g class="infolayer"><g class="g-gtitle"><text class="gtitle" x="35" y="50" text-anchor="start" dy="0em" style="font-family: 'Open Sans', verdana, arial, sans-serif; font-size: 17px; fill: rgb(42, 63, 95); opacity: 1; font-weight: normal; white-space: pre;"><tspan class="line" dy="0em" x="35" y="50">Synthetix - sETH-ETH: Curve</tspan><tspan class="line" dy="1.3em" x="35" y="50">​<tspan style="font-size:70%" dy="-0.6em">Cumulative Net Flows since Program Announcement, Until Program End + 30 Days</tspan><tspan dy="0.42em">​</tspan></tspan></text></g><g class="g-xtitle"><text class="xtitle" x="350" y="460.3" text-anchor="middle" style="font-family: 'Open Sans', verdana, arial, sans-serif; font-size: 14px; fill: rgb(42, 63, 95); opacity: 1; font-weight: normal; white-space: pre;">Day</text></g><g class="g-ytitle"><text class="ytitle" transform="rotate(-90,24.340625000000003,260)" x="24.340625000000003" y="260" text-anchor="middle" style="font-family: 'Open Sans', verdana, arial, sans-serif; font-size: 14px; fill: rgb(42, 63, 95); opacity: 1; font-weight: normal; white-space: pre;">Cumulative Net Flows (USD)</text></g></g></svg>