<svg class="main-svg" xmlns="http://www.w3.org/2000/svg" xmlns:xlink="http://www.w3.org/1999/xlink" width="700" height="500" style="" viewBox="0 0 700 500"><rect x="0" y="0" width="700" height="500" style="fill: rgb(255, 255, 255); fill-opacity: 1;"/><defs id="defs-ef4871"><g class="clips"><clipPath id="clipef4871xyplot" class="plotclip"><rect width="540" height="320"/></clipPath><clipPath class="axesclip" id="clipef4871x"><rect x="80" y="0" width="540" height="500"/></clipPath><clipPath class="axesclip" id="clipef4871y"><rect x="0" y="100" width="700" height="320"/></clipPath><clipPath class="axesclip" id="clipef4871xy"><rect x="80" y="100" width="540" height="320"/></clipPath></g><g class="gradients"/><g class="patterns"/></defs><g class="bglayer"><rect class="bg" x="80" y="100" width="540" height="320" style="fill: rgb(229, 236, 246); fill-opacity: 1; stroke-width: 0;"/></g><g class="layer-below"><g class="imagelayer"/><g class="shapelayer"/></g><g class="cartesianlayer"><g class="subplot xy"><g class="layer-subplot"><g class="shapelayer"/><g class="imagelayer"/></g><g class="minor-gridlayer"><g class="x"/><g class="y"/></g><g class="gridlayer"><g class="x"><path class="xgrid crisp" transform="translate(141.13,0)" d="M0,100v320" style="stroke: rgb(255, 255, 255); stroke-opacity: 1; stroke-width: 1px;"/><path class="xgrid crisp" transform="translate(265.43,0)" d="M0,100v320" style="stroke: rgb(255, 255, 255); stroke-opacity: 1; stroke-width: 1px;"/><path class="xgrid crisp" transform="translate(389.74,0)" d="M0,100v320" style="stroke: rgb(255, 255, 255); stroke-opacity: 1; stroke-width: 1px;"/><path class="xgrid crisp" transform="translate(516.0799999999999,0)" d="M0,100v320" style="stroke: rgb(255, 255, 255); stroke-opacity: 1; stroke-width: 1px;"/></g><g class="y"><path class="ygrid crisp" transform="translate(0,371.03)" d="M80,0h540" style="stroke: rgb(255, 255, 255); stroke-opacity: 1; stroke-width: 1px;"/><path class="ygrid crisp" transform="translate(0,322.06)" d="M80,0h540" style="stroke: rgb(255, 255, 255); stroke-opacity: 1; stroke-width: 1px;"/><path class="ygrid crisp" transform="translate(0,273.09000000000003)" d="M80,0h540" style="stroke: rgb(255, 255, 255); stroke-opacity: 1; stroke-width: 1px;"/><path class="ygrid crisp" transform="translate(0,224.12)" d="M80,0h540" style="stroke: rgb(255, 255, 255); stroke-opacity: 1; stroke-width: 1px;"/><path class="ygrid crisp" transform="translate(0,175.15)" d="M80,0h540" style="stroke: rgb(255, 255, 255); stroke-opacity: 1; stroke-width: 1px;"/><path class="ygrid crisp" transform="translate(0,126.18)" d="M80,0h540" style="stroke: rgb(255, 255, 255); stroke-opacity: 1; stroke-width: 1px;"/></g></g><g class="zerolinelayer"><path class="yzl zl crisp" transform="translate(0,420)" d="M80,0h540" style="stroke: rgb(255, 255, 255); stroke-opacity: 1; stroke-width: 2px;"/></g><path class="xlines-below"/><path class="ylines-below"/><g class="overlines-below"/><g class="xaxislayer-below"/><g class="yaxislayer-below"/><g class="overaxes-below"/><g class="plot" transform="translate(80,100)" clip-path="url(#clipef4871xyplot)"><g class="scatterlayer mlayer"><g class="trace scatter tracebaa4e8" style="stroke-miterlimit: 2;"><g class="fills"><g><path class="js-fill" d="M540,320L0,320L0,319.9L2.04,320L4.08,317.15L6.11,249.71L8.15,228.25L10.19,205.5L12.23,205.64L16.3,163.79L18.34,156.63L20.38,170.86L22.42,167.77L24.45,169.34L26.49,162.34L28.53,162.8L30.57,161.59L32.6,150.3L34.64,149.7L38.72,115.06L40.75,83.29L42.79,66.82L44.83,65.99L46.87,78.39L48.91,58.09L50.94,29.11L52.98,37.76L57.06,38.32L59.09,16L61.13,16.17L63.17,18.53L65.21,26.72L67.25,39.54L69.28,45.31L71.32,47.84L75.4,43.02L77.43,73.25L79.47,118.46L81.51,216.17L83.55,205.02L85.58,178.26L87.62,152.25L89.66,81.13L91.7,101.07L93.74,82.9L95.77,65.37L97.81,70.08L99.85,73.46L101.89,79.49L103.92,72.85L105.96,78.45L108,85.04L110.04,85.98L112.08,87.6L114.11,92.97L116.15,92.55L118.19,99.56L120.23,100.17L122.26,109.66L124.3,102.23L126.34,105.73L128.38,91.74L130.42,91.07L132.45,92.6L134.49,103.15L136.53,101.85L138.57,116.24L140.6,94.76L142.64,92.2L144.68,90.62L146.72,90.12L150.79,93.14L152.83,85.02L154.87,83.5L156.91,77.07L158.94,58.31L160.98,58.17L163.02,49.98L165.06,57.19L167.09,57.73L169.13,56.78L171.17,35.37L173.21,35.91L175.25,36.16L177.28,44.56L179.32,62.68L181.36,62.61L183.4,68.11L185.43,68.2L187.47,72.5L189.51,73.11L191.55,71.61L193.58,67.4L195.62,66.5L197.66,66.53L199.7,75L201.74,78.77L203.77,86.54L205.81,78.12L207.85,78.93L209.89,78.36L211.92,79.81L213.96,92.84L216,95.03L218.04,92.21L220.08,59.16L222.11,66.18L224.15,65.42L226.19,63.17L230.26,62.82L232.3,68.59L234.34,65.64L236.38,65.38L238.42,51.04L240.45,49.9L244.53,46.04L246.57,24.4L248.6,44.06L250.64,46.28L254.72,46.02L256.75,37.96L258.79,25.85L260.83,24.21L264.91,24.39L266.94,25.63L268.98,25.71L271.02,27.56L273.06,27L275.09,30.09L277.13,57L279.17,58.65L287.32,59.29L289.36,60.24L291.4,61.4L293.43,92.81L297.51,85.85L299.55,89.71L301.58,94.63L303.62,154.28L305.66,245.55L307.7,252.24L309.74,297.72L311.77,298.45L313.81,301.43L315.85,301.43L317.89,301.43L319.92,306.71L324,307.51L326.04,307.51L330.11,307.79L332.15,308.85L334.19,308.85L336.23,315.28L340.3,315.83L342.34,315.83L356.6,316.36L358.64,316.68L372.91,316.79L374.94,316.79L540,317.35" style="fill: rgb(99, 110, 250); fill-opacity: 0.5; stroke-width: 0;"/></g></g><g class="errorbars"/><g class="lines"><path class="js-line" d="M0,319.9L2.04,320L4.08,317.15L6.11,249.71L8.15,228.25L10.19,205.5L12.23,205.64L16.3,163.79L18.34,156.63L20.38,170.86L22.42,167.77L24.45,169.34L26.49,162.34L28.53,162.8L30.57,161.59L32.6,150.3L34.64,149.7L38.72,115.06L40.75,83.29L42.79,66.82L44.83,65.99L46.87,78.39L48.91,58.09L50.94,29.11L52.98,37.76L57.06,38.32L59.09,16L61.13,16.17L63.17,18.53L65.21,26.72L67.25,39.54L69.28,45.31L71.32,47.84L75.4,43.02L77.43,73.25L79.47,118.46L81.51,216.17L83.55,205.02L85.58,178.26L87.62,152.25L89.66,81.13L91.7,101.07L93.74,82.9L95.77,65.37L97.81,70.08L99.85,73.46L101.89,79.49L103.92,72.85L105.96,78.45L108,85.04L110.04,85.98L112.08,87.6L114.11,92.97L116.15,92.55L118.19,99.56L120.23,100.17L122.26,109.66L124.3,102.23L126.34,105.73L128.38,91.74L130.42,91.07L132.45,92.6L134.49,103.15L136.53,101.85L138.57,116.24L140.6,94.76L142.64,92.2L144.68,90.62L146.72,90.12L150.79,93.14L152.83,85.02L154.87,83.5L156.91,77.07L158.94,58.31L160.98,58.17L163.02,49.98L165.06,57.19L167.09,57.73L169.13,56.78L171.17,35.37L173.21,35.91L175.25,36.16L177.28,44.56L179.32,62.68L181.36,62.61L183.4,68.11L185.43,68.2L187.47,72.5L189.51,73.11L191.55,71.61L193.58,67.4L195.62,66.5L197.66,66.53L199.7,75L201.74,78.77L203.77,86.54L205.81,78.12L207.85,78.93L209.89,78.36L211.92,79.81L213.96,92.84L216,95.03L218.04,92.21L220.08,59.16L222.11,66.18L224.15,65.42L226.19,63.17L230.26,62.82L232.3,68.59L234.34,65.64L236.38,65.38L238.42,51.04L240.45,49.9L244.53,46.04L246.57,24.4L248.6,44.06L250.64,46.28L254.72,46.02L256.75,37.96L258.79,25.85L260.83,24.21L264.91,24.39L266.94,25.63L268.98,25.71L271.02,27.56L273.06,27L275.09,30.09L277.13,57L279.17,58.65L287.32,59.29L289.36,60.24L291.4,61.4L293.43,92.81L297.51,85.85L299.55,89.71L301.58,94.63L303.62,154.28L305.66,245.55L307.7,252.24L309.74,297.72L311.77,298.45L313.81,301.43L315.85,301.43L317.89,301.43L319.92,306.71L324,307.51L326.04,307.51L330.11,307.79L332.15,308.85L334.19,308.85L336.23,315.28L340.3,315.83L342.34,315.83L356.6,316.36L358.64,316.68L372.91,316.79L374.94,316.79L540,317.35" style="vector-effect: none; fill: none; stroke: rgb(99, 110, 250); stroke-opacity: 1; stroke-width: 2px; opacity: 1;"/></g><g class="points"/><g class="text"/></g></g></g><g class="overplot"/><path class="xlines-above crisp" d="M0,0" style="fill: none;"/><path class="ylines-above crisp" d="M0,0" style="fill: none;"/><g class="overlines-above"/><g class="xaxislayer-above"><g class="xtick"><text text-anchor="middle" x="0" y="433" transform="translate(141.13,0)" style="font-family: 'Open Sans', verdana, arial, sans-serif; font-size: 12px; fill: rgb(42, 63, 95); fill-opacity: 1; white-space: pre; opacity: 1;">Mar 2023</text></g><g class="xtick"><text text-anchor="middle" x="0" y="433" style="font-family: 'Open Sans', verdana, arial, sans-serif; font-size: 12px; fill: rgb(42, 63, 95); fill-opacity: 1; white-space: pre; opacity: 1;" transform="translate(265.43,0)">May 2023</text></g><g class="xtick"><text text-anchor="middle" x="0" y="433" style="font-family: 'Open Sans', verdana, arial, sans-serif; font-size: 12px; fill: rgb(42, 63, 95); fill-opacity: 1; white-space: pre; opacity: 1;" transform="translate(389.74,0)">Jul 2023</text></g><g class="xtick"><text text-anchor="middle" x="0" y="433" style="font-family: 'Open Sans', verdana, arial, sans-serif; font-size: 12px; fill: rgb(42, 63, 95); fill-opacity: 1; white-space: pre; opacity: 1;" transform="translate(516.0799999999999,0)">Sep 2023</text></g></g><g class="yaxislayer-above"><g class="ytick"><text text-anchor="end" x="79" y="4.199999999999999" transform="translate(0,420)" style="font-family: 'Open Sans', verdana, arial, sans-serif; font-size: 12px; fill: rgb(42, 63, 95); fill-opacity: 1; white-space: pre; opacity: 1;">$0</text></g><g class="ytick"><text text-anchor="end" x="79" y="4.199999999999999" style="font-family: 'Open Sans', verdana, arial, sans-serif; font-size: 12px; fill: rgb(42, 63, 95); fill-opacity: 1; white-space: pre; opacity: 1;" transform="translate(0,371.03)">$1M</text></g><g class="ytick"><text text-anchor="end" x="79" y="4.199999999999999" style="font-family: 'Open Sans', verdana, arial, sans-serif; font-size: 12px; fill: rgb(42, 63, 95); fill-opacity: 1; white-space: pre; opacity: 1;" transform="translate(0,322.06)">$2M</text></g><g class="ytick"><text text-anchor="end" x="79" y="4.199999999999999" style="font-family: 'Open Sans', verdana, arial, sans-serif; font-size: 12px; fill: rgb(42, 63, 95); fill-opacity: 1; white-space: pre; opacity: 1;" transform="translate(0,273.09000000000003)">$3M</text></g><g class="ytick"><text text-anchor="end" x="79" y="4.199999999999999" style="font-family: 'Open Sans', verdana, arial, sans-serif; font-size: 12px; fill: rgb(42, 63, 95); fill-opacity: 1; white-space: pre; opacity: 1;" transform="translate(0,224.12)">$4M</text></g><g class="ytick"><text text-anchor="end" x="79" y="4.199999999999999" style="font-family: 'Open Sans', verdana, arial, sans-serif; font-size: 12px; fill: rgb(42, 63, 95); fill-opacity: 1; white-space: pre; opacity: 1;" transform="translate(0,175.15)">$5M</text></g><g class="ytick"><text text-anchor="end" x="79" y="4.199999999999999" style="font-family: 'Open Sans', verdana, arial, sans-serif; font-size: 12px; fill: rgb(42, 63, 95); fill-opacity: 1; white-space: pre; opacity: 1;" transform="translate(0,126.18)">$6M</text></g></g><g class="overaxes-above"/></g></g><g class="polarlayer"/><g class="smithlayer"/><g class="ternarylayer"/><g class="geolayer"/><g class="funnelarealayer"/><g class="pielayer"/><g class="iciclelayer"/><g class="treemaplayer"/><g class="sunburstlayer"/><g class="glimages"/><defs id="topdefs-ef4871"><g class="clips"/></defs><g class="layer-above"><g class="imagelayer"/><g class="shapelayer"/></g><g class="infolayer"><g class="g-gtitle"><text class="gtitle" x="35" y="50" text-anchor="start" dy="0em" style="font-family: 'Open Sans', verdana, arial, sans-serif; font-size: 17px; fill: rgb(42, 63, 95); opacity: 1; font-weight: normal; white-space: pre;"><tspan class="line" dy="0em" x="35" y="50">Overnight - USD+/DOLA: Velodrome</tspan><tspan class="line" dy="1.3em" x="35" y="50">​<tspan style="font-size:70%" dy="-0.6em">Cumulative Net Flows since Program Announcement, Until Program End + 30 Days</tspan><tspan dy="0.42em">​</tspan></tspan></text></g><g class="g-xtitle"><text class="xtitle" x="350" y="460.3" text-anchor="middle" style="font-family: 'Open Sans', verdana, arial, sans-serif; font-size: 14px; fill: rgb(42, 63, 95); opacity: 1; font-weight: normal; white-space: pre;">Day</text></g><g class="g-ytitle"><text class="ytitle" transform="rotate(-90,31.356250000000003,260)" x="31.356250000000003" y="260" text-anchor="middle" style="font-family: 'Open Sans', verdana, arial, sans-serif; font-size: 14px; fill: rgb(42, 63, 95); opacity: 1; font-weight: normal; white-space: pre;">Cumulative Net Flows (USD)</text></g></g></svg>