<svg class="main-svg" xmlns="http://www.w3.org/2000/svg" xmlns:xlink="http://www.w3.org/1999/xlink" width="700" height="500" style="" viewBox="0 0 700 500"><rect x="0" y="0" width="700" height="500" style="fill: rgb(255, 255, 255); fill-opacity: 1;"/><defs id="defs-717775"><g class="clips"><clipPath id="clip717775xyplot" class="plotclip"><rect width="540" height="320"/></clipPath><clipPath class="axesclip" id="clip717775x"><rect x="80" y="0" width="540" height="500"/></clipPath><clipPath class="axesclip" id="clip717775y"><rect x="0" y="100" width="700" height="320"/></clipPath><clipPath class="axesclip" id="clip717775xy"><rect x="80" y="100" width="540" height="320"/></clipPath></g><g class="gradients"/><g class="patterns"/></defs><g class="bglayer"><rect class="bg" x="80" y="100" width="540" height="320" style="fill: rgb(229, 236, 246); fill-opacity: 1; stroke-width: 0;"/></g><g class="layer-below"><g class="imagelayer"/><g class="shapelayer"/></g><g class="cartesianlayer"><g class="subplot xy"><g class="layer-subplot"><g class="shapelayer"/><g class="imagelayer"/></g><g class="minor-gridlayer"><g class="x"/><g class="y"/></g><g class="gridlayer"><g class="x"><path class="xgrid crisp" transform="translate(188.91,0)" d="M0,100v320" style="stroke: rgb(255, 255, 255); stroke-opacity: 1; stroke-width: 1px;"/><path class="xgrid crisp" transform="translate(315.97,0)" d="M0,100v320" style="stroke: rgb(255, 255, 255); stroke-opacity: 1; stroke-width: 1px;"/><path class="xgrid crisp" transform="translate(456.64,0)" d="M0,100v320" style="stroke: rgb(255, 255, 255); stroke-opacity: 1; stroke-width: 1px;"/><path class="xgrid crisp" transform="translate(592.77,0)" d="M0,100v320" style="stroke: rgb(255, 255, 255); stroke-opacity: 1; stroke-width: 1px;"/></g><g class="y"><path class="ygrid crisp" transform="translate(0,354.08000000000004)" d="M80,0h540" style="stroke: rgb(255, 255, 255); stroke-opacity: 1; stroke-width: 1px;"/><path class="ygrid crisp" transform="translate(0,288.15)" d="M80,0h540" style="stroke: rgb(255, 255, 255); stroke-opacity: 1; stroke-width: 1px;"/><path class="ygrid crisp" transform="translate(0,222.23000000000002)" d="M80,0h540" style="stroke: rgb(255, 255, 255); stroke-opacity: 1; stroke-width: 1px;"/><path class="ygrid crisp" transform="translate(0,156.31)" d="M80,0h540" style="stroke: rgb(255, 255, 255); stroke-opacity: 1; stroke-width: 1px;"/></g></g><g class="zerolinelayer"><path class="yzl zl crisp" transform="translate(0,420)" d="M80,0h540" style="stroke: rgb(255, 255, 255); stroke-opacity: 1; stroke-width: 2px;"/></g><path class="xlines-below"/><path class="ylines-below"/><g class="overlines-below"/><g class="xaxislayer-below"/><g class="yaxislayer-below"/><g class="overaxes-below"/><g class="plot" transform="translate(80,100)" clip-path="url(#clip717775xyplot)"><g class="scatterlayer mlayer"><g class="trace scatter trace0bf43d" style="stroke-miterlimit: 2;"><g class="fills"><g><path class="js-fill" d="M540,320L0,320L0,237.84L4.54,241.69L9.08,241.69L13.61,242.28L18.15,242.02L31.76,242.02L36.3,240.59L45.38,240.58L49.92,241.5L58.99,240.44L63.53,240.5L81.68,240.28L86.22,237.52L90.76,226.54L95.29,226.71L99.83,226.6L104.37,223.29L108.91,220.72L113.45,220.25L122.52,220.71L127.06,220.01L131.6,221.62L136.13,219.55L145.21,219.01L149.75,217.88L154.29,215.09L158.82,207.91L163.36,218.29L167.9,215.7L172.44,214.78L176.97,194.06L181.51,193.71L186.05,195.27L190.59,195.16L195.13,107.5L199.66,107.57L204.2,105.81L208.74,97.32L213.28,96.96L217.82,91.63L222.35,90.77L226.89,90.88L231.43,85.67L235.97,85.48L240.5,76.82L245.04,73.08L249.58,72.1L254.12,78.55L258.66,77.83L267.73,77.18L272.27,77.17L276.81,86.65L281.34,99.02L285.88,88.72L290.42,50.27L294.96,40.28L299.5,40.36L304.03,38.19L308.57,37.18L313.11,47.6L317.65,51.71L326.72,51.3L331.26,53.53L335.8,61.5L340.34,61.14L358.49,61.61L363.03,49.5L367.56,50.03L372.1,36.44L381.18,37.09L385.71,36.21L390.25,36.23L394.79,33.11L399.33,33.39L403.87,32.31L408.4,32.07L412.94,29.35L422.02,33.94L426.55,16.1L431.09,16L435.63,19.85L440.17,73.73L444.71,72.47L449.24,73.05L453.78,72.1L458.32,68.28L462.86,65.85L467.39,65.01L471.93,65.57L481.01,65.24L485.55,59L503.7,59.19L508.24,57.78L512.77,56.72L517.31,52.37L521.85,53.56L526.39,53.67L540,53.37" style="fill: rgb(99, 110, 250); fill-opacity: 0.5; stroke-width: 0;"/></g></g><g class="errorbars"/><g class="lines"><path class="js-line" d="M0,237.84L4.54,241.69L9.08,241.69L13.61,242.28L18.15,242.02L31.76,242.02L36.3,240.59L45.38,240.58L49.92,241.5L58.99,240.44L63.53,240.5L81.68,240.28L86.22,237.52L90.76,226.54L95.29,226.71L99.83,226.6L104.37,223.29L108.91,220.72L113.45,220.25L122.52,220.71L127.06,220.01L131.6,221.62L136.13,219.55L145.21,219.01L149.75,217.88L154.29,215.09L158.82,207.91L163.36,218.29L167.9,215.7L172.44,214.78L176.97,194.06L181.51,193.71L186.05,195.27L190.59,195.16L195.13,107.5L199.66,107.57L204.2,105.81L208.74,97.32L213.28,96.96L217.82,91.63L222.35,90.77L226.89,90.88L231.43,85.67L235.97,85.48L240.5,76.82L245.04,73.08L249.58,72.1L254.12,78.55L258.66,77.83L267.73,77.18L272.27,77.17L276.81,86.65L281.34,99.02L285.88,88.72L290.42,50.27L294.96,40.28L299.5,40.36L304.03,38.19L308.57,37.18L313.11,47.6L317.65,51.71L326.72,51.3L331.26,53.53L335.8,61.5L340.34,61.14L358.49,61.61L363.03,49.5L367.56,50.03L372.1,36.44L381.18,37.09L385.71,36.21L390.25,36.23L394.79,33.11L399.33,33.39L403.87,32.31L408.4,32.07L412.94,29.35L422.02,33.94L426.55,16.1L431.09,16L435.63,19.85L440.17,73.73L444.71,72.47L449.24,73.05L453.78,72.1L458.32,68.28L462.86,65.85L467.39,65.01L471.93,65.57L481.01,65.24L485.55,59L503.7,59.19L508.24,57.78L512.77,56.72L517.31,52.37L521.85,53.56L526.39,53.67L540,53.37" style="vector-effect: none; fill: none; stroke: rgb(99, 110, 250); stroke-opacity: 1; stroke-width: 2px; opacity: 1;"/></g><g class="points"/><g class="text"/></g></g></g><g class="overplot"/><path class="xlines-above crisp" d="M0,0" style="fill: none;"/><path class="ylines-above crisp" d="M0,0" style="fill: none;"/><g class="overlines-above"/><g class="xaxislayer-above"><g class="xtick"><text text-anchor="middle" x="0" y="433" transform="translate(188.91,0)" style="font-family: 'Open Sans', verdana, arial, sans-serif; font-size: 12px; fill: rgb(42, 63, 95); fill-opacity: 1; white-space: pre; opacity: 1;">Feb 2023</text></g><g class="xtick"><text text-anchor="middle" x="0" y="433" style="font-family: 'Open Sans', verdana, arial, sans-serif; font-size: 12px; fill: rgb(42, 63, 95); fill-opacity: 1; white-space: pre; opacity: 1;" transform="translate(315.97,0)">Mar 2023</text></g><g class="xtick"><text text-anchor="middle" x="0" y="433" style="font-family: 'Open Sans', verdana, arial, sans-serif; font-size: 12px; fill: rgb(42, 63, 95); fill-opacity: 1; white-space: pre; opacity: 1;" transform="translate(456.64,0)">Apr 2023</text></g><g class="xtick"><text text-anchor="middle" x="0" y="433" style="font-family: 'Open Sans', verdana, arial, sans-serif; font-size: 12px; fill: rgb(42, 63, 95); fill-opacity: 1; white-space: pre; opacity: 1;" transform="translate(592.77,0)">May 2023</text></g></g><g class="yaxislayer-above"><g class="ytick"><text text-anchor="end" x="79" y="4.199999999999999" transform="translate(0,420)" style="font-family: 'Open Sans', verdana, arial, sans-serif; font-size: 12px; fill: rgb(42, 63, 95); fill-opacity: 1; white-space: pre; opacity: 1;">$0</text></g><g class="ytick"><text text-anchor="end" x="79" y="4.199999999999999" style="font-family: 'Open Sans', verdana, arial, sans-serif; font-size: 12px; fill: rgb(42, 63, 95); fill-opacity: 1; white-space: pre; opacity: 1;" transform="translate(0,354.08000000000004)">$1M</text></g><g class="ytick"><text text-anchor="end" x="79" y="4.199999999999999" style="font-family: 'Open Sans', verdana, arial, sans-serif; font-size: 12px; fill: rgb(42, 63, 95); fill-opacity: 1; white-space: pre; opacity: 1;" transform="translate(0,288.15)">$2M</text></g><g class="ytick"><text text-anchor="end" x="79" y="4.199999999999999" style="font-family: 'Open Sans', verdana, arial, sans-serif; font-size: 12px; fill: rgb(42, 63, 95); fill-opacity: 1; white-space: pre; opacity: 1;" transform="translate(0,222.23000000000002)">$3M</text></g><g class="ytick"><text text-anchor="end" x="79" y="4.199999999999999" style="font-family: 'Open Sans', verdana, arial, sans-serif; font-size: 12px; fill: rgb(42, 63, 95); fill-opacity: 1; white-space: pre; opacity: 1;" transform="translate(0,156.31)">$4M</text></g></g><g class="overaxes-above"/></g></g><g class="polarlayer"/><g class="smithlayer"/><g class="ternarylayer"/><g class="geolayer"/><g class="funnelarealayer"/><g class="pielayer"/><g class="iciclelayer"/><g class="treemaplayer"/><g class="sunburstlayer"/><g class="glimages"/><defs id="topdefs-717775"><g class="clips"/></defs><g class="layer-above"><g class="imagelayer"/><g class="shapelayer"/></g><g class="infolayer"><g class="g-gtitle"><text class="gtitle" x="35" y="50" text-anchor="start" dy="0em" style="font-family: 'Open Sans', verdana, arial, sans-serif; font-size: 17px; fill: rgb(42, 63, 95); opacity: 1; font-weight: normal; white-space: pre;"><tspan class="line" dy="0em" x="35" y="50">Alchemix - alETH/WETH: Velodrome</tspan><tspan class="line" dy="1.3em" x="35" y="50">​<tspan style="font-size:70%" dy="-0.6em">Cumulative Net Flows since Program Announcement, Until Program End + 30 Days</tspan><tspan dy="0.42em">​</tspan></tspan></text></g><g class="g-xtitle"><text class="xtitle" x="350" y="460.3" text-anchor="middle" style="font-family: 'Open Sans', verdana, arial, sans-serif; font-size: 14px; fill: rgb(42, 63, 95); opacity: 1; font-weight: normal; white-space: pre;">Day</text></g><g class="g-ytitle"><text class="ytitle" transform="rotate(-90,31.356250000000003,260)" x="31.356250000000003" y="260" text-anchor="middle" style="font-family: 'Open Sans', verdana, arial, sans-serif; font-size: 14px; fill: rgb(42, 63, 95); opacity: 1; font-weight: normal; white-space: pre;">Cumulative Net Flows (USD)</text></g></g></svg>