<svg class="main-svg" xmlns="http://www.w3.org/2000/svg" xmlns:xlink="http://www.w3.org/1999/xlink" width="700" height="500" style="" viewBox="0 0 700 500"><rect x="0" y="0" width="700" height="500" style="fill: rgb(255, 255, 255); fill-opacity: 1;"/><defs id="defs-a31104"><g class="clips"><clipPath id="clipa31104xyplot" class="plotclip"><rect width="540" height="320"/></clipPath><clipPath class="axesclip" id="clipa31104x"><rect x="80" y="0" width="540" height="500"/></clipPath><clipPath class="axesclip" id="clipa31104y"><rect x="0" y="100" width="700" height="320"/></clipPath><clipPath class="axesclip" id="clipa31104xy"><rect x="80" y="100" width="540" height="320"/></clipPath></g><g class="gradients"/><g class="patterns"/></defs><g class="bglayer"><rect class="bg" x="80" y="100" width="540" height="320" style="fill: rgb(229, 236, 246); fill-opacity: 1; stroke-width: 0;"/></g><g class="layer-below"><g class="imagelayer"/><g class="shapelayer"/></g><g class="cartesianlayer"><g class="subplot xy"><g class="layer-subplot"><g class="shapelayer"/><g class="imagelayer"/></g><g class="minor-gridlayer"><g class="x"/><g class="y"/></g><g class="gridlayer"><g class="x"><path class="xgrid crisp" transform="translate(150.3,0)" d="M0,100v320" style="stroke: rgb(255, 255, 255); stroke-opacity: 1; stroke-width: 1px;"/><path class="xgrid crisp" transform="translate(249.35,0)" d="M0,100v320" style="stroke: rgb(255, 255, 255); stroke-opacity: 1; stroke-width: 1px;"/><path class="xgrid crisp" transform="translate(348.4,0)" d="M0,100v320" style="stroke: rgb(255, 255, 255); stroke-opacity: 1; stroke-width: 1px;"/><path class="xgrid crisp" transform="translate(437.87,0)" d="M0,100v320" style="stroke: rgb(255, 255, 255); stroke-opacity: 1; stroke-width: 1px;"/><path class="xgrid crisp" transform="translate(536.9200000000001,0)" d="M0,100v320" style="stroke: rgb(255, 255, 255); stroke-opacity: 1; stroke-width: 1px;"/></g><g class="y"><path class="ygrid crisp" transform="translate(0,386.02)" d="M80,0h540" style="stroke: rgb(255, 255, 255); stroke-opacity: 1; stroke-width: 1px;"/><path class="ygrid crisp" transform="translate(0,309.66999999999996)" d="M80,0h540" style="stroke: rgb(255, 255, 255); stroke-opacity: 1; stroke-width: 1px;"/><path class="ygrid crisp" transform="translate(0,271.49)" d="M80,0h540" style="stroke: rgb(255, 255, 255); stroke-opacity: 1; stroke-width: 1px;"/><path class="ygrid crisp" transform="translate(0,233.31)" d="M80,0h540" style="stroke: rgb(255, 255, 255); stroke-opacity: 1; stroke-width: 1px;"/><path class="ygrid crisp" transform="translate(0,195.13)" d="M80,0h540" style="stroke: rgb(255, 255, 255); stroke-opacity: 1; stroke-width: 1px;"/><path class="ygrid crisp" transform="translate(0,156.96)" d="M80,0h540" style="stroke: rgb(255, 255, 255); stroke-opacity: 1; stroke-width: 1px;"/><path class="ygrid crisp" transform="translate(0,118.78)" d="M80,0h540" style="stroke: rgb(255, 255, 255); stroke-opacity: 1; stroke-width: 1px;"/></g></g><g class="zerolinelayer"><path class="yzl zl crisp" transform="translate(0,347.85)" d="M80,0h540" style="stroke: rgb(255, 255, 255); stroke-opacity: 1; stroke-width: 2px;"/></g><path class="xlines-below"/><path class="ylines-below"/><g class="overlines-below"/><g class="xaxislayer-below"/><g class="yaxislayer-below"/><g class="overaxes-below"/><g class="plot" transform="translate(80,100)" clip-path="url(#clipa31104xyplot)"><g class="scatterlayer mlayer"><g class="trace scatter trace3749cd" style="stroke-miterlimit: 2;"><g class="fills"><g><path class="js-fill" d="M540,247.85L0,247.85L0,247.9L6.39,243.83L9.59,242.89L25.56,242.28L28.76,242.69L47.93,239.9L51.12,240.67L83.08,241.08L86.27,240.38L89.47,241.93L92.66,241.67L105.44,241.34L108.64,242.6L111.83,243.41L115.03,243.26L121.42,242.28L124.62,242.27L134.2,241.92L137.4,240.29L140.59,240.72L143.79,240.28L146.98,239.38L150.18,239.31L159.76,238.86L162.96,237.02L169.35,237.05L172.54,234.85L175.74,234.52L178.93,237L182.13,235.32L185.33,235.63L191.72,235.25L194.91,235.68L198.11,235.68L201.3,234L204.5,232.81L207.69,233.2L210.89,231.21L214.08,231.02L220.47,228.53L223.67,228.4L230.06,229.39L233.25,227.83L236.45,226.84L239.64,214.09L242.84,215.28L246.04,215.07L249.23,211.12L252.43,210.88L255.62,211.19L258.82,206.28L262.01,234.25L265.21,235.74L268.4,233.45L271.6,223.22L277.99,222.61L281.18,217.88L284.38,217.39L287.57,193.22L290.77,192.35L293.96,185.72L297.16,186.26L300.36,179.15L303.55,179.4L306.75,157.74L309.94,158.06L313.14,157.2L316.33,156.91L319.53,148.1L322.72,148.08L325.92,148.96L329.11,136.24L332.31,136.28L338.7,134.5L341.89,129.07L345.09,119.63L348.28,118.45L354.67,117.89L357.87,115.43L361.07,115.39L364.26,108.3L370.65,108.71L373.85,103.74L377.04,102.15L380.24,101.6L383.43,98.73L386.63,103.25L389.82,103.4L393.02,106.12L396.21,103.76L399.41,88.6L402.6,82.39L405.8,82.62L408.99,77.24L412.19,56.6L415.38,57.68L418.58,49.21L421.78,36.37L424.97,34.95L434.56,34.03L437.75,35.2L440.95,35.29L444.14,38.12L447.34,18.6L450.53,16.01L453.73,16L456.92,25.55L463.31,25.95L466.51,25.16L476.09,24.97L479.29,39.37L482.49,50.75L485.68,47.25L492.07,47.35L495.27,45.65L501.66,46.88L504.85,46.68L508.05,52.55L511.24,51.79L514.44,51.13L517.63,185.4L520.83,60.61L524.02,59.42L536.8,58.24L540,304" style="fill: rgb(99, 110, 250); fill-opacity: 0.5; stroke-width: 0;"/></g></g><g class="errorbars"/><g class="lines"><path class="js-line" d="M0,247.9L6.39,243.83L9.59,242.89L25.56,242.28L28.76,242.69L47.93,239.9L51.12,240.67L83.08,241.08L86.27,240.38L89.47,241.93L92.66,241.67L105.44,241.34L108.64,242.6L111.83,243.41L115.03,243.26L121.42,242.28L124.62,242.27L134.2,241.92L137.4,240.29L140.59,240.72L143.79,240.28L146.98,239.38L150.18,239.31L159.76,238.86L162.96,237.02L169.35,237.05L172.54,234.85L175.74,234.52L178.93,237L182.13,235.32L185.33,235.63L191.72,235.25L194.91,235.68L198.11,235.68L201.3,234L204.5,232.81L207.69,233.2L210.89,231.21L214.08,231.02L220.47,228.53L223.67,228.4L230.06,229.39L233.25,227.83L236.45,226.84L239.64,214.09L242.84,215.28L246.04,215.07L249.23,211.12L252.43,210.88L255.62,211.19L258.82,206.28L262.01,234.25L265.21,235.74L268.4,233.45L271.6,223.22L277.99,222.61L281.18,217.88L284.38,217.39L287.57,193.22L290.77,192.35L293.96,185.72L297.16,186.26L300.36,179.15L303.55,179.4L306.75,157.74L309.94,158.06L313.14,157.2L316.33,156.91L319.53,148.1L322.72,148.08L325.92,148.96L329.11,136.24L332.31,136.28L338.7,134.5L341.89,129.07L345.09,119.63L348.28,118.45L354.67,117.89L357.87,115.43L361.07,115.39L364.26,108.3L370.65,108.71L373.85,103.74L377.04,102.15L380.24,101.6L383.43,98.73L386.63,103.25L389.82,103.4L393.02,106.12L396.21,103.76L399.41,88.6L402.6,82.39L405.8,82.62L408.99,77.24L412.19,56.6L415.38,57.68L418.58,49.21L421.78,36.37L424.97,34.95L434.56,34.03L437.75,35.2L440.95,35.29L444.14,38.12L447.34,18.6L450.53,16.01L453.73,16L456.92,25.55L463.31,25.95L466.51,25.16L476.09,24.97L479.29,39.37L482.49,50.75L485.68,47.25L492.07,47.35L495.27,45.65L501.66,46.88L504.85,46.68L508.05,52.55L511.24,51.79L514.44,51.13L517.63,185.4L520.83,60.61L524.02,59.42L536.8,58.24L540,304" style="vector-effect: none; fill: none; stroke: rgb(99, 110, 250); stroke-opacity: 1; stroke-width: 2px; opacity: 1;"/></g><g class="points"/><g class="text"/></g></g></g><g class="overplot"/><path class="xlines-above crisp" d="M0,0" style="fill: none;"/><path class="ylines-above crisp" d="M0,0" style="fill: none;"/><g class="overlines-above"/><g class="xaxislayer-above"><g class="xtick"><text text-anchor="middle" x="0" y="433" transform="translate(150.3,0)" style="font-family: 'Open Sans', verdana, arial, sans-serif; font-size: 12px; fill: rgb(42, 63, 95); fill-opacity: 1; white-space: pre; opacity: 1;">Dec 2022</text></g><g class="xtick"><text text-anchor="middle" x="0" y="433" style="font-family: 'Open Sans', verdana, arial, sans-serif; font-size: 12px; fill: rgb(42, 63, 95); fill-opacity: 1; white-space: pre; opacity: 1;" transform="translate(249.35,0)">Jan 2023</text></g><g class="xtick"><text text-anchor="middle" x="0" y="433" style="font-family: 'Open Sans', verdana, arial, sans-serif; font-size: 12px; fill: rgb(42, 63, 95); fill-opacity: 1; white-space: pre; opacity: 1;" transform="translate(348.4,0)">Feb 2023</text></g><g class="xtick"><text text-anchor="middle" x="0" y="433" style="font-family: 'Open Sans', verdana, arial, sans-serif; font-size: 12px; fill: rgb(42, 63, 95); fill-opacity: 1; white-space: pre; opacity: 1;" transform="translate(437.87,0)">Mar 2023</text></g><g class="xtick"><text text-anchor="middle" x="0" y="433" style="font-family: 'Open Sans', verdana, arial, sans-serif; font-size: 12px; fill: rgb(42, 63, 95); fill-opacity: 1; white-space: pre; opacity: 1;" transform="translate(536.9200000000001,0)">Apr 2023</text></g></g><g class="yaxislayer-above"><g class="ytick"><text text-anchor="end" x="79" y="4.199999999999999" transform="translate(0,386.02)" style="font-family: 'Open Sans', verdana, arial, sans-serif; font-size: 12px; fill: rgb(42, 63, 95); fill-opacity: 1; white-space: pre; opacity: 1;">$−5M</text></g><g class="ytick"><text text-anchor="end" x="79" y="4.199999999999999" style="font-family: 'Open Sans', verdana, arial, sans-serif; font-size: 12px; fill: rgb(42, 63, 95); fill-opacity: 1; white-space: pre; opacity: 1;" transform="translate(0,347.85)">$0</text></g><g class="ytick"><text text-anchor="end" x="79" y="4.199999999999999" style="font-family: 'Open Sans', verdana, arial, sans-serif; font-size: 12px; fill: rgb(42, 63, 95); fill-opacity: 1; white-space: pre; opacity: 1;" transform="translate(0,309.66999999999996)">$5M</text></g><g class="ytick"><text text-anchor="end" x="79" y="4.199999999999999" style="font-family: 'Open Sans', verdana, arial, sans-serif; font-size: 12px; fill: rgb(42, 63, 95); fill-opacity: 1; white-space: pre; opacity: 1;" transform="translate(0,271.49)">$10M</text></g><g class="ytick"><text text-anchor="end" x="79" y="4.199999999999999" style="font-family: 'Open Sans', verdana, arial, sans-serif; font-size: 12px; fill: rgb(42, 63, 95); fill-opacity: 1; white-space: pre; opacity: 1;" transform="translate(0,233.31)">$15M</text></g><g class="ytick"><text text-anchor="end" x="79" y="4.199999999999999" style="font-family: 'Open Sans', verdana, arial, sans-serif; font-size: 12px; fill: rgb(42, 63, 95); fill-opacity: 1; white-space: pre; opacity: 1;" transform="translate(0,195.13)">$20M</text></g><g class="ytick"><text text-anchor="end" x="79" y="4.199999999999999" style="font-family: 'Open Sans', verdana, arial, sans-serif; font-size: 12px; fill: rgb(42, 63, 95); fill-opacity: 1; white-space: pre; opacity: 1;" transform="translate(0,156.96)">$25M</text></g><g class="ytick"><text text-anchor="end" x="79" y="4.199999999999999" style="font-family: 'Open Sans', verdana, arial, sans-serif; font-size: 12px; fill: rgb(42, 63, 95); fill-opacity: 1; white-space: pre; opacity: 1;" transform="translate(0,118.78)">$30M</text></g></g><g class="overaxes-above"/></g></g><g class="polarlayer"/><g class="smithlayer"/><g class="ternarylayer"/><g class="geolayer"/><g class="funnelarealayer"/><g class="pielayer"/><g class="iciclelayer"/><g class="treemaplayer"/><g class="sunburstlayer"/><g class="glimages"/><defs id="topdefs-a31104"><g class="clips"/></defs><g class="layer-above"><g class="imagelayer"/><g class="shapelayer"/></g><g class="infolayer"><g class="g-gtitle"><text class="gtitle" x="35" y="50" text-anchor="start" dy="0em" style="font-family: 'Open Sans', verdana, arial, sans-serif; font-size: 17px; fill: rgb(42, 63, 95); opacity: 1; font-weight: normal; white-space: pre;"><tspan class="line" dy="0em" x="35" y="50">Rocket Pool - WETH/rETH: Beethoven X</tspan><tspan class="line" dy="1.3em" x="35" y="50">​<tspan style="font-size:70%" dy="-0.6em">Cumulative Net Flows since Program Announcement, Until Program End + 30 Days</tspan><tspan dy="0.42em">​</tspan></tspan></text></g><g class="g-xtitle"><text class="xtitle" x="350" y="460.3" text-anchor="middle" style="font-family: 'Open Sans', verdana, arial, sans-serif; font-size: 14px; fill: rgb(42, 63, 95); opacity: 1; font-weight: normal; white-space: pre;">Day</text></g><g class="g-ytitle"><text class="ytitle" transform="rotate(-90,24.340625000000003,260)" x="24.340625000000003" y="260" text-anchor="middle" style="font-family: 'Open Sans', verdana, arial, sans-serif; font-size: 14px; fill: rgb(42, 63, 95); opacity: 1; font-weight: normal; white-space: pre;">Cumulative Net Flows (USD)</text></g></g></svg>