<svg class="main-svg" xmlns="http://www.w3.org/2000/svg" xmlns:xlink="http://www.w3.org/1999/xlink" width="700" height="500" style="" viewBox="0 0 700 500"><rect x="0" y="0" width="700" height="500" style="fill: rgb(255, 255, 255); fill-opacity: 1;"/><defs id="defs-1a5c05"><g class="clips"><clipPath id="clip1a5c05xyplot" class="plotclip"><rect width="540" height="320"/></clipPath><clipPath class="axesclip" id="clip1a5c05x"><rect x="80" y="0" width="540" height="500"/></clipPath><clipPath class="axesclip" id="clip1a5c05y"><rect x="0" y="100" width="700" height="320"/></clipPath><clipPath class="axesclip" id="clip1a5c05xy"><rect x="80" y="100" width="540" height="320"/></clipPath></g><g class="gradients"/><g class="patterns"/></defs><g class="bglayer"><rect class="bg" x="80" y="100" width="540" height="320" style="fill: rgb(229, 236, 246); fill-opacity: 1; stroke-width: 0;"/></g><g class="layer-below"><g class="imagelayer"/><g class="shapelayer"/></g><g class="cartesianlayer"><g class="subplot xy"><g class="layer-subplot"><g class="shapelayer"/><g class="imagelayer"/></g><g class="minor-gridlayer"><g class="x"/><g class="y"/></g><g class="gridlayer"><g class="x"><path class="xgrid crisp" transform="translate(89.91,0)" d="M0,100v320" style="stroke: rgb(255, 255, 255); stroke-opacity: 1; stroke-width: 1px;"/><path class="xgrid crisp" transform="translate(166.7,0)" d="M0,100v320" style="stroke: rgb(255, 255, 255); stroke-opacity: 1; stroke-width: 1px;"/><path class="xgrid crisp" transform="translate(241.01,0)" d="M0,100v320" style="stroke: rgb(255, 255, 255); stroke-opacity: 1; stroke-width: 1px;"/><path class="xgrid crisp" transform="translate(317.8,0)" d="M0,100v320" style="stroke: rgb(255, 255, 255); stroke-opacity: 1; stroke-width: 1px;"/><path class="xgrid crisp" transform="translate(394.59,0)" d="M0,100v320" style="stroke: rgb(255, 255, 255); stroke-opacity: 1; stroke-width: 1px;"/><path class="xgrid crisp" transform="translate(463.94,0)" d="M0,100v320" style="stroke: rgb(255, 255, 255); stroke-opacity: 1; stroke-width: 1px;"/><path class="xgrid crisp" transform="translate(540.73,0)" d="M0,100v320" style="stroke: rgb(255, 255, 255); stroke-opacity: 1; stroke-width: 1px;"/><path class="xgrid crisp" transform="translate(615.05,0)" d="M0,100v320" style="stroke: rgb(255, 255, 255); stroke-opacity: 1; stroke-width: 1px;"/></g><g class="y"><path class="ygrid crisp" transform="translate(0,351.24)" d="M80,0h540" style="stroke: rgb(255, 255, 255); stroke-opacity: 1; stroke-width: 1px;"/><path class="ygrid crisp" transform="translate(0,308.41999999999996)" d="M80,0h540" style="stroke: rgb(255, 255, 255); stroke-opacity: 1; stroke-width: 1px;"/><path class="ygrid crisp" transform="translate(0,265.61)" d="M80,0h540" style="stroke: rgb(255, 255, 255); stroke-opacity: 1; stroke-width: 1px;"/><path class="ygrid crisp" transform="translate(0,222.79000000000002)" d="M80,0h540" style="stroke: rgb(255, 255, 255); stroke-opacity: 1; stroke-width: 1px;"/><path class="ygrid crisp" transform="translate(0,179.98000000000002)" d="M80,0h540" style="stroke: rgb(255, 255, 255); stroke-opacity: 1; stroke-width: 1px;"/><path class="ygrid crisp" transform="translate(0,137.16)" d="M80,0h540" style="stroke: rgb(255, 255, 255); stroke-opacity: 1; stroke-width: 1px;"/></g></g><g class="zerolinelayer"><path class="yzl zl crisp" transform="translate(0,394.05)" d="M80,0h540" style="stroke: rgb(255, 255, 255); stroke-opacity: 1; stroke-width: 2px;"/></g><path class="xlines-below"/><path class="ylines-below"/><g class="overlines-below"/><g class="xaxislayer-below"/><g class="yaxislayer-below"/><g class="overaxes-below"/><g class="plot" transform="translate(80,100)" clip-path="url(#clip1a5c05xyplot)"><g class="scatterlayer mlayer"><g class="trace scatter trace1d1966" style="stroke-miterlimit: 2;"><g class="fills"><g><path class="js-fill" d="M540,294.05L0,294.05L0,252.46L2.48,251.63L4.95,244.46L9.91,243.59L12.39,240.53L14.86,239.9L17.34,237.82L19.82,231.2L22.29,233.61L24.77,231.87L27.25,231.29L29.72,231.57L32.2,230.91L34.68,233.51L37.16,234.66L39.63,237.05L42.11,235.57L47.06,235.4L49.54,233.81L66.88,233.64L69.36,234.76L81.74,232.03L84.22,231.72L89.17,230.18L91.65,226.78L96.61,225.86L99.08,224.2L101.56,220.14L104.04,220.63L106.51,220.75L108.99,223.12L111.47,225.23L113.94,228.76L116.42,231.52L118.9,231.34L123.85,232L126.33,226.72L128.81,228.5L131.28,228.65L138.72,225.65L141.19,226.13L143.67,226.12L146.15,225.11L151.1,224.57L153.58,224.07L156.06,224.5L158.53,223.48L165.96,223.31L168.44,223.12L170.92,223.2L173.39,227.39L175.87,228.2L178.35,227.76L185.78,225.84L188.26,221.45L190.73,218.23L193.21,217.86L195.69,225.17L198.17,225.07L203.12,225.11L205.6,224.24L208.07,223.03L210.55,222.9L215.5,221.87L217.98,221.95L225.41,221.48L227.89,222.59L242.75,222.5L245.23,223.51L250.18,223.28L252.66,223.28L260.09,223.24L262.57,221.7L265.05,220.82L267.52,218.87L272.48,218.04L274.95,216.97L279.91,211.21L282.39,209.25L284.86,208.47L287.34,200.75L289.82,197.92L292.29,196.99L294.77,188.62L297.25,183.3L299.72,175.7L302.2,175.45L307.16,170.74L309.63,170.23L312.11,170.71L314.59,169.29L319.54,167.62L322.02,168.72L324.5,168.26L326.97,165.83L329.45,148.87L331.93,140.14L341.83,139.03L344.31,139.13L349.27,131L351.74,119.97L354.22,117.88L356.7,120.56L361.65,112.44L364.13,82.04L366.61,79.35L369.08,79.45L371.56,61.56L374.04,56.87L376.51,34.13L378.99,27.07L381.47,27.13L383.94,26.39L386.42,25.11L388.9,27.08L391.38,27.73L393.85,29.74L396.33,34.44L398.81,25.64L401.28,16L403.76,17.98L406.24,21.87L408.72,58.74L411.19,65.63L413.67,55.93L416.15,50.92L418.62,53.64L421.1,59.43L423.58,59.44L426.06,56.2L428.53,58.04L431.01,54.91L433.49,57.97L435.96,56.4L438.44,64.92L440.92,66.5L443.39,69.27L448.35,76.26L450.83,76.73L453.3,76.92L455.78,91.89L458.26,178.44L460.73,180.39L465.69,203.08L468.17,207.35L470.64,213.61L473.12,224.65L475.6,229.27L478.07,231.06L480.55,233.52L483.03,238.89L485.5,247.26L487.98,252.99L492.94,278.43L495.41,279.85L497.89,282.64L500.37,282.01L505.32,286.89L507.8,294.88L510.28,296.27L512.75,296.52L517.71,297.28L520.18,299.74L522.66,299.75L525.14,301.25L540,304" style="fill: rgb(99, 110, 250); fill-opacity: 0.5; stroke-width: 0;"/></g></g><g class="errorbars"/><g class="lines"><path class="js-line" d="M0,252.46L2.48,251.63L4.95,244.46L9.91,243.59L12.39,240.53L14.86,239.9L17.34,237.82L19.82,231.2L22.29,233.61L24.77,231.87L27.25,231.29L29.72,231.57L32.2,230.91L34.68,233.51L37.16,234.66L39.63,237.05L42.11,235.57L47.06,235.4L49.54,233.81L66.88,233.64L69.36,234.76L81.74,232.03L84.22,231.72L89.17,230.18L91.65,226.78L96.61,225.86L99.08,224.2L101.56,220.14L104.04,220.63L106.51,220.75L108.99,223.12L111.47,225.23L113.94,228.76L116.42,231.52L118.9,231.34L123.85,232L126.33,226.72L128.81,228.5L131.28,228.65L138.72,225.65L141.19,226.13L143.67,226.12L146.15,225.11L151.1,224.57L153.58,224.07L156.06,224.5L158.53,223.48L165.96,223.31L168.44,223.12L170.92,223.2L173.39,227.39L175.87,228.2L178.35,227.76L185.78,225.84L188.26,221.45L190.73,218.23L193.21,217.86L195.69,225.17L198.17,225.07L203.12,225.11L205.6,224.24L208.07,223.03L210.55,222.9L215.5,221.87L217.98,221.95L225.41,221.48L227.89,222.59L242.75,222.5L245.23,223.51L250.18,223.28L252.66,223.28L260.09,223.24L262.57,221.7L265.05,220.82L267.52,218.87L272.48,218.04L274.95,216.97L279.91,211.21L282.39,209.25L284.86,208.47L287.34,200.75L289.82,197.92L292.29,196.99L294.77,188.62L297.25,183.3L299.72,175.7L302.2,175.45L307.16,170.74L309.63,170.23L312.11,170.71L314.59,169.29L319.54,167.62L322.02,168.72L324.5,168.26L326.97,165.83L329.45,148.87L331.93,140.14L341.83,139.03L344.31,139.13L349.27,131L351.74,119.97L354.22,117.88L356.7,120.56L361.65,112.44L364.13,82.04L366.61,79.35L369.08,79.45L371.56,61.56L374.04,56.87L376.51,34.13L378.99,27.07L381.47,27.13L383.94,26.39L386.42,25.11L388.9,27.08L391.38,27.73L393.85,29.74L396.33,34.44L398.81,25.64L401.28,16L403.76,17.98L406.24,21.87L408.72,58.74L411.19,65.63L413.67,55.93L416.15,50.92L418.62,53.64L421.1,59.43L423.58,59.44L426.06,56.2L428.53,58.04L431.01,54.91L433.49,57.97L435.96,56.4L438.44,64.92L440.92,66.5L443.39,69.27L448.35,76.26L450.83,76.73L453.3,76.92L455.78,91.89L458.26,178.44L460.73,180.39L465.69,203.08L468.17,207.35L470.64,213.61L473.12,224.65L475.6,229.27L478.07,231.06L480.55,233.52L483.03,238.89L485.5,247.26L487.98,252.99L492.94,278.43L495.41,279.85L497.89,282.64L500.37,282.01L505.32,286.89L507.8,294.88L510.28,296.27L512.75,296.52L517.71,297.28L520.18,299.74L522.66,299.75L525.14,301.25L540,304" style="vector-effect: non-scaling-stroke; fill: none; stroke: rgb(99, 110, 250); stroke-opacity: 1; stroke-width: 2px; opacity: 1;"/></g><g class="points"/><g class="text"/></g></g></g><g class="overplot"/><path class="xlines-above crisp" d="M0,0" style="fill: none;"/><path class="ylines-above crisp" d="M0,0" style="fill: none;"/><g class="overlines-above"/><g class="xaxislayer-above"><g class="xtick"><text text-anchor="middle" x="0" y="433" transform="translate(89.91,0)" style="font-family: 'Open Sans', verdana, arial, sans-serif; font-size: 12px; fill: rgb(42, 63, 95); fill-opacity: 1; white-space: pre; opacity: 1;">Oct 2022</text></g><g class="xtick"><text text-anchor="middle" x="0" y="433" style="font-family: 'Open Sans', verdana, arial, sans-serif; font-size: 12px; fill: rgb(42, 63, 95); fill-opacity: 1; white-space: pre; opacity: 1;" transform="translate(166.7,0)">Nov 2022</text></g><g class="xtick"><text text-anchor="middle" x="0" y="433" style="font-family: 'Open Sans', verdana, arial, sans-serif; font-size: 12px; fill: rgb(42, 63, 95); fill-opacity: 1; white-space: pre; opacity: 1;" transform="translate(241.01,0)">Dec 2022</text></g><g class="xtick"><text text-anchor="middle" x="0" y="433" style="font-family: 'Open Sans', verdana, arial, sans-serif; font-size: 12px; fill: rgb(42, 63, 95); fill-opacity: 1; white-space: pre; opacity: 1;" transform="translate(317.8,0)">Jan 2023</text></g><g class="xtick"><text text-anchor="middle" x="0" y="433" style="font-family: 'Open Sans', verdana, arial, sans-serif; font-size: 12px; fill: rgb(42, 63, 95); fill-opacity: 1; white-space: pre; opacity: 1;" transform="translate(394.59,0)">Feb 2023</text></g><g class="xtick"><text text-anchor="middle" x="0" y="433" style="font-family: 'Open Sans', verdana, arial, sans-serif; font-size: 12px; fill: rgb(42, 63, 95); fill-opacity: 1; white-space: pre; opacity: 1;" transform="translate(463.94,0)">Mar 2023</text></g><g class="xtick"><text text-anchor="middle" x="0" y="433" style="font-family: 'Open Sans', verdana, arial, sans-serif; font-size: 12px; fill: rgb(42, 63, 95); fill-opacity: 1; white-space: pre; opacity: 1;" transform="translate(540.73,0)">Apr 2023</text></g><g class="xtick"><text text-anchor="middle" x="0" y="433" style="font-family: 'Open Sans', verdana, arial, sans-serif; font-size: 12px; fill: rgb(42, 63, 95); fill-opacity: 1; white-space: pre; opacity: 1;" transform="translate(615.05,0)">May 2023</text></g></g><g class="yaxislayer-above"><g class="ytick"><text text-anchor="end" x="79" y="4.199999999999999" transform="translate(0,394.05)" style="font-family: 'Open Sans', verdana, arial, sans-serif; font-size: 12px; fill: rgb(42, 63, 95); fill-opacity: 1; white-space: pre; opacity: 1;">$0</text></g><g class="ytick"><text text-anchor="end" x="79" y="4.199999999999999" style="font-family: 'Open Sans', verdana, arial, sans-serif; font-size: 12px; fill: rgb(42, 63, 95); fill-opacity: 1; white-space: pre; opacity: 1;" transform="translate(0,351.24)">$5M</text></g><g class="ytick"><text text-anchor="end" x="79" y="4.199999999999999" style="font-family: 'Open Sans', verdana, arial, sans-serif; font-size: 12px; fill: rgb(42, 63, 95); fill-opacity: 1; white-space: pre; opacity: 1;" transform="translate(0,308.41999999999996)">$10M</text></g><g class="ytick"><text text-anchor="end" x="79" y="4.199999999999999" style="font-family: 'Open Sans', verdana, arial, sans-serif; font-size: 12px; fill: rgb(42, 63, 95); fill-opacity: 1; white-space: pre; opacity: 1;" transform="translate(0,265.61)">$15M</text></g><g class="ytick"><text text-anchor="end" x="79" y="4.199999999999999" style="font-family: 'Open Sans', verdana, arial, sans-serif; font-size: 12px; fill: rgb(42, 63, 95); fill-opacity: 1; white-space: pre; opacity: 1;" transform="translate(0,222.79000000000002)">$20M</text></g><g class="ytick"><text text-anchor="end" x="79" y="4.199999999999999" style="font-family: 'Open Sans', verdana, arial, sans-serif; font-size: 12px; fill: rgb(42, 63, 95); fill-opacity: 1; white-space: pre; opacity: 1;" transform="translate(0,179.98000000000002)">$25M</text></g><g class="ytick"><text text-anchor="end" x="79" y="4.199999999999999" style="font-family: 'Open Sans', verdana, arial, sans-serif; font-size: 12px; fill: rgb(42, 63, 95); fill-opacity: 1; white-space: pre; opacity: 1;" transform="translate(0,137.16)">$30M</text></g></g><g class="overaxes-above"/></g></g><g class="polarlayer"/><g class="smithlayer"/><g class="ternarylayer"/><g class="geolayer"/><g class="funnelarealayer"/><g class="pielayer"/><g class="iciclelayer"/><g class="treemaplayer"/><g class="sunburstlayer"/><g class="glimages"/><defs id="topdefs-1a5c05"><g class="clips"/></defs><g class="layer-above"><g class="imagelayer"/><g class="shapelayer"/></g><g class="infolayer"><g class="g-gtitle"><text class="gtitle" x="35" y="50" text-anchor="start" dy="0em" style="font-family: 'Open Sans', verdana, arial, sans-serif; font-size: 17px; fill: rgb(42, 63, 95); opacity: 1; font-weight: normal; white-space: pre;"><tspan class="line" dy="0em" x="35" y="50">Synthetix - ETH/sETH: Velodrome</tspan><tspan class="line" dy="1.3em" x="35" y="50">​<tspan style="font-size:70%" dy="-0.6em">Cumulative Net Flows since Program Announcement, Until Program End + 30 Days</tspan><tspan dy="0.42em">​</tspan></tspan></text></g><g class="g-xtitle"><text class="xtitle" x="350" y="459.8" text-anchor="middle" style="font-family: 'Open Sans', verdana, arial, sans-serif; font-size: 14px; fill: rgb(42, 63, 95); opacity: 1; font-weight: normal; white-space: pre;">Day</text></g><g class="g-ytitle"><text class="ytitle" transform="rotate(-90,21.700000000000003,260)" x="21.700000000000003" y="260" text-anchor="middle" style="font-family: 'Open Sans', verdana, arial, sans-serif; font-size: 14px; fill: rgb(42, 63, 95); opacity: 1; font-weight: normal; white-space: pre;">Cumulative Net Flows (USD)</text></g></g></svg>