<svg class="main-svg" xmlns="http://www.w3.org/2000/svg" xmlns:xlink="http://www.w3.org/1999/xlink" width="700" height="500" style="" viewBox="0 0 700 500"><rect x="0" y="0" width="700" height="500" style="fill: rgb(255, 255, 255); fill-opacity: 1;"/><defs id="defs-cd69f1"><g class="clips"><clipPath id="clipcd69f1xyplot" class="plotclip"><rect width="540" height="320"/></clipPath><clipPath class="axesclip" id="clipcd69f1x"><rect x="80" y="0" width="540" height="500"/></clipPath><clipPath class="axesclip" id="clipcd69f1y"><rect x="0" y="100" width="700" height="320"/></clipPath><clipPath class="axesclip" id="clipcd69f1xy"><rect x="80" y="100" width="540" height="320"/></clipPath></g><g class="gradients"/><g class="patterns"/></defs><g class="bglayer"><rect class="bg" x="80" y="100" width="540" height="320" style="fill: rgb(229, 236, 246); fill-opacity: 1; stroke-width: 0;"/></g><g class="layer-below"><g class="imagelayer"/><g class="shapelayer"/></g><g class="cartesianlayer"><g class="subplot xy"><g class="layer-subplot"><g class="shapelayer"/><g class="imagelayer"/></g><g class="minor-gridlayer"><g class="x"/><g class="y"/></g><g class="gridlayer"><g class="x"><path class="xgrid crisp" transform="translate(94.26,0)" d="M0,100v320" style="stroke: rgb(255, 255, 255); stroke-opacity: 1; stroke-width: 1px;"/><path class="xgrid crisp" transform="translate(218.57,0)" d="M0,100v320" style="stroke: rgb(255, 255, 255); stroke-opacity: 1; stroke-width: 1px;"/><path class="xgrid crisp" transform="translate(338.79,0)" d="M0,100v320" style="stroke: rgb(255, 255, 255); stroke-opacity: 1; stroke-width: 1px;"/><path class="xgrid crisp" transform="translate(463.09,0)" d="M0,100v320" style="stroke: rgb(255, 255, 255); stroke-opacity: 1; stroke-width: 1px;"/><path class="xgrid crisp" transform="translate(587.4,0)" d="M0,100v320" style="stroke: rgb(255, 255, 255); stroke-opacity: 1; stroke-width: 1px;"/></g><g class="y"><path class="ygrid crisp" transform="translate(0,383.89)" d="M80,0h540" style="stroke: rgb(255, 255, 255); stroke-opacity: 1; stroke-width: 1px;"/><path class="ygrid crisp" transform="translate(0,347.78)" d="M80,0h540" style="stroke: rgb(255, 255, 255); stroke-opacity: 1; stroke-width: 1px;"/><path class="ygrid crisp" transform="translate(0,311.66999999999996)" d="M80,0h540" style="stroke: rgb(255, 255, 255); stroke-opacity: 1; stroke-width: 1px;"/><path class="ygrid crisp" transform="translate(0,275.56)" d="M80,0h540" style="stroke: rgb(255, 255, 255); stroke-opacity: 1; stroke-width: 1px;"/><path class="ygrid crisp" transform="translate(0,239.45)" d="M80,0h540" style="stroke: rgb(255, 255, 255); stroke-opacity: 1; stroke-width: 1px;"/><path class="ygrid crisp" transform="translate(0,203.34)" d="M80,0h540" style="stroke: rgb(255, 255, 255); stroke-opacity: 1; stroke-width: 1px;"/><path class="ygrid crisp" transform="translate(0,167.23000000000002)" d="M80,0h540" style="stroke: rgb(255, 255, 255); stroke-opacity: 1; stroke-width: 1px;"/><path class="ygrid crisp" transform="translate(0,131.12)" d="M80,0h540" style="stroke: rgb(255, 255, 255); stroke-opacity: 1; stroke-width: 1px;"/></g></g><g class="zerolinelayer"><path class="yzl zl crisp" transform="translate(0,420)" d="M80,0h540" style="stroke: rgb(255, 255, 255); stroke-opacity: 1; stroke-width: 2px;"/></g><path class="xlines-below"/><path class="ylines-below"/><g class="overlines-below"/><g class="xaxislayer-below"/><g class="yaxislayer-below"/><g class="overaxes-below"/><g class="plot" transform="translate(80,100)" clip-path="url(#clipcd69f1xyplot)"><g class="scatterlayer mlayer"><g class="trace scatter trace3b9c00" style="stroke-miterlimit: 2;"><g class="fills"><g><path class="js-fill" d="M540,320L0,320L0,320L2.04,320L4.08,257.42L6.11,175.46L8.15,187.89L10.19,191.54L12.23,175.26L14.26,179.16L16.3,166.09L18.34,161.48L20.38,192.75L22.42,191.83L24.45,189.8L26.49,189.5L28.53,192.99L32.6,224.48L34.64,223.95L36.68,215.17L38.72,213.93L40.75,175.34L42.79,175.94L44.83,173.54L46.87,181.23L50.94,197.69L52.98,193.74L55.02,191.59L57.06,192.65L59.09,192.51L61.13,190.76L63.17,190.41L65.21,185.31L67.25,174.19L69.28,154.81L71.32,165.95L73.36,169.74L75.4,200.05L77.43,182.47L81.51,160.32L83.55,186.65L85.58,188.06L87.62,213.26L89.66,195.32L91.7,194.8L93.74,195.78L95.77,207.36L97.81,206.22L99.85,206.47L103.92,206.35L105.96,199.71L108,190.46L110.04,189.75L112.08,189.75L114.11,190.82L116.15,187.46L118.19,187.74L120.23,187.83L122.26,185.59L124.3,186.1L126.34,185.19L128.38,181L130.42,180.61L132.45,185.39L134.49,183.67L136.53,186.82L138.57,186.55L140.6,185.44L142.64,182.02L144.68,177.69L146.72,179.66L152.83,179.31L154.87,176.85L156.91,178.68L158.94,182.33L163.02,167.28L165.06,165.87L167.09,162.85L169.13,153.09L171.17,193.38L173.21,186.48L175.25,191.28L177.28,221.44L179.32,227.72L181.36,223.66L183.4,218.11L185.43,215.12L187.47,212.86L189.51,195.94L191.55,199.1L193.58,197.89L195.62,195.73L197.66,168.91L199.7,181.77L201.74,175.22L203.77,155.55L205.81,166.87L207.85,166.27L209.89,159.47L211.92,159.82L213.96,133.61L216,159.56L218.04,161.9L220.08,160.97L222.11,150.65L224.15,149.15L226.19,150.13L228.23,117.75L230.26,121.35L234.34,132.33L236.38,121.55L238.42,129.28L240.45,128.78L242.49,133.35L244.53,121.92L246.57,111.78L248.6,79.48L250.64,69.86L252.68,77.61L254.72,77.17L256.75,59.4L258.79,58.62L260.83,79.85L262.87,63.38L264.91,68.66L266.94,73.1L268.98,56.71L271.02,69.77L273.06,77.93L275.09,67.63L277.13,46.48L279.17,74.29L281.21,27.86L285.28,113.17L287.32,173.18L289.36,260.04L291.4,235.43L293.43,225.95L295.47,227.93L297.51,227.03L299.55,203.17L301.58,187.7L303.62,46.09L305.66,64.59L307.7,72.59L311.77,16L313.81,59.29L315.85,58.46L317.89,80.53L321.96,77.68L324,61.9L326.04,61.08L328.08,56.31L330.11,63.12L332.15,73.67L334.19,78.39L336.23,111.29L338.26,188.49L340.3,178.72L342.34,178.47L344.38,177.45L346.42,188.98L348.45,210.66L350.49,208.91L352.53,211.82L354.57,211.33L356.6,214.94L358.64,166.93L360.68,269.72L366.79,214.3L368.83,208.12L370.87,210.62L372.91,210.27L374.94,210.21L376.98,211.14L379.02,211.31L381.06,220.37L383.09,273L385.13,267.06L387.17,263.62L389.21,265.24L391.25,172.39L393.28,163.04L395.32,163.1L397.36,165.19L399.4,169.73L401.43,130.21L403.47,134.53L405.51,98.83L407.55,175.24L409.58,162.48L411.62,143.91L413.66,146.47L415.7,150.84L417.74,138.63L419.77,111.31L421.81,122.15L423.85,163.06L425.89,163.54L427.92,157.47L429.96,183.73L432,136.99L434.04,137.32L438.11,126.1L440.15,101.4L442.19,106.15L444.23,219.03L446.26,276.11L448.3,268.34L450.34,269.71L452.38,236.69L454.42,233.3L456.45,241L458.49,241.09L460.53,237.71L462.57,208.89L464.6,210.7L468.68,222.97L470.72,223.16L472.75,216.69L474.79,218.64L476.83,211.17L478.87,217.44L480.91,217.33L482.94,218.39L484.98,218.82L487.02,220.3L489.06,214.08L491.09,219.86L495.17,222.2L497.21,221.67L499.25,224.34L501.28,225.5L503.32,220.71L505.36,235.14L511.47,235.49L513.51,234.25L515.55,225.71L517.58,227.11L519.62,245.64L521.66,245.81L523.7,245.99L525.74,248.6L527.77,247.83L529.81,240.66L531.85,233.72L533.89,235.78L535.92,218.34L537.96,226.56L540,235.72" style="fill: rgb(99, 110, 250); fill-opacity: 0.5; stroke-width: 0;"/></g></g><g class="errorbars"/><g class="lines"><path class="js-line" d="M0,320L2.04,320L4.08,257.42L6.11,175.46L8.15,187.89L10.19,191.54L12.23,175.26L14.26,179.16L16.3,166.09L18.34,161.48L20.38,192.75L22.42,191.83L24.45,189.8L26.49,189.5L28.53,192.99L32.6,224.48L34.64,223.95L36.68,215.17L38.72,213.93L40.75,175.34L42.79,175.94L44.83,173.54L46.87,181.23L50.94,197.69L52.98,193.74L55.02,191.59L57.06,192.65L59.09,192.51L61.13,190.76L63.17,190.41L65.21,185.31L67.25,174.19L69.28,154.81L71.32,165.95L73.36,169.74L75.4,200.05L77.43,182.47L81.51,160.32L83.55,186.65L85.58,188.06L87.62,213.26L89.66,195.32L91.7,194.8L93.74,195.78L95.77,207.36L97.81,206.22L99.85,206.47L103.92,206.35L105.96,199.71L108,190.46L110.04,189.75L112.08,189.75L114.11,190.82L116.15,187.46L118.19,187.74L120.23,187.83L122.26,185.59L124.3,186.1L126.34,185.19L128.38,181L130.42,180.61L132.45,185.39L134.49,183.67L136.53,186.82L138.57,186.55L140.6,185.44L142.64,182.02L144.68,177.69L146.72,179.66L152.83,179.31L154.87,176.85L156.91,178.68L158.94,182.33L163.02,167.28L165.06,165.87L167.09,162.85L169.13,153.09L171.17,193.38L173.21,186.48L175.25,191.28L177.28,221.44L179.32,227.72L181.36,223.66L183.4,218.11L185.43,215.12L187.47,212.86L189.51,195.94L191.55,199.1L193.58,197.89L195.62,195.73L197.66,168.91L199.7,181.77L201.74,175.22L203.77,155.55L205.81,166.87L207.85,166.27L209.89,159.47L211.92,159.82L213.96,133.61L216,159.56L218.04,161.9L220.08,160.97L222.11,150.65L224.15,149.15L226.19,150.13L228.23,117.75L230.26,121.35L234.34,132.33L236.38,121.55L238.42,129.28L240.45,128.78L242.49,133.35L244.53,121.92L246.57,111.78L248.6,79.48L250.64,69.86L252.68,77.61L254.72,77.17L256.75,59.4L258.79,58.62L260.83,79.85L262.87,63.38L264.91,68.66L266.94,73.1L268.98,56.71L271.02,69.77L273.06,77.93L275.09,67.63L277.13,46.48L279.17,74.29L281.21,27.86L285.28,113.17L287.32,173.18L289.36,260.04L291.4,235.43L293.43,225.95L295.47,227.93L297.51,227.03L299.55,203.17L301.58,187.7L303.62,46.09L305.66,64.59L307.7,72.59L311.77,16L313.81,59.29L315.85,58.46L317.89,80.53L321.96,77.68L324,61.9L326.04,61.08L328.08,56.31L330.11,63.12L332.15,73.67L334.19,78.39L336.23,111.29L338.26,188.49L340.3,178.72L342.34,178.47L344.38,177.45L346.42,188.98L348.45,210.66L350.49,208.91L352.53,211.82L354.57,211.33L356.6,214.94L358.64,166.93L360.68,269.72L366.79,214.3L368.83,208.12L370.87,210.62L372.91,210.27L374.94,210.21L376.98,211.14L379.02,211.31L381.06,220.37L383.09,273L385.13,267.06L387.17,263.62L389.21,265.24L391.25,172.39L393.28,163.04L395.32,163.1L397.36,165.19L399.4,169.73L401.43,130.21L403.47,134.53L405.51,98.83L407.55,175.24L409.58,162.48L411.62,143.91L413.66,146.47L415.7,150.84L417.74,138.63L419.77,111.31L421.81,122.15L423.85,163.06L425.89,163.54L427.92,157.47L429.96,183.73L432,136.99L434.04,137.32L438.11,126.1L440.15,101.4L442.19,106.15L444.23,219.03L446.26,276.11L448.3,268.34L450.34,269.71L452.38,236.69L454.42,233.3L456.45,241L458.49,241.09L460.53,237.71L462.57,208.89L464.6,210.7L468.68,222.97L470.72,223.16L472.75,216.69L474.79,218.64L476.83,211.17L478.87,217.44L480.91,217.33L482.94,218.39L484.98,218.82L487.02,220.3L489.06,214.08L491.09,219.86L495.17,222.2L497.21,221.67L499.25,224.34L501.28,225.5L503.32,220.71L505.36,235.14L511.47,235.49L513.51,234.25L515.55,225.71L517.58,227.11L519.62,245.64L521.66,245.81L523.7,245.99L525.74,248.6L527.77,247.83L529.81,240.66L531.85,233.72L533.89,235.78L535.92,218.34L537.96,226.56L540,235.72" style="vector-effect: none; fill: none; stroke: rgb(99, 110, 250); stroke-opacity: 1; stroke-width: 2px; opacity: 1;"/></g><g class="points"/><g class="text"/></g></g></g><g class="overplot"/><path class="xlines-above crisp" d="M0,0" style="fill: none;"/><path class="ylines-above crisp" d="M0,0" style="fill: none;"/><g class="overlines-above"/><g class="xaxislayer-above"><g class="xtick"><text text-anchor="middle" x="0" y="433" transform="translate(94.26,0)" style="font-family: 'Open Sans', verdana, arial, sans-serif; font-size: 12px; fill: rgb(42, 63, 95); fill-opacity: 1; white-space: pre; opacity: 1;">Nov 2022</text></g><g class="xtick"><text text-anchor="middle" x="0" y="433" style="font-family: 'Open Sans', verdana, arial, sans-serif; font-size: 12px; fill: rgb(42, 63, 95); fill-opacity: 1; white-space: pre; opacity: 1;" transform="translate(218.57,0)">Jan 2023</text></g><g class="xtick"><text text-anchor="middle" x="0" y="433" style="font-family: 'Open Sans', verdana, arial, sans-serif; font-size: 12px; fill: rgb(42, 63, 95); fill-opacity: 1; white-space: pre; opacity: 1;" transform="translate(338.79,0)">Mar 2023</text></g><g class="xtick"><text text-anchor="middle" x="0" y="433" style="font-family: 'Open Sans', verdana, arial, sans-serif; font-size: 12px; fill: rgb(42, 63, 95); fill-opacity: 1; white-space: pre; opacity: 1;" transform="translate(463.09,0)">May 2023</text></g><g class="xtick"><text text-anchor="middle" x="0" y="433" style="font-family: 'Open Sans', verdana, arial, sans-serif; font-size: 12px; fill: rgb(42, 63, 95); fill-opacity: 1; white-space: pre; opacity: 1;" transform="translate(587.4,0)">Jul 2023</text></g></g><g class="yaxislayer-above"><g class="ytick"><text text-anchor="end" x="79" y="4.199999999999999" transform="translate(0,420)" style="font-family: 'Open Sans', verdana, arial, sans-serif; font-size: 12px; fill: rgb(42, 63, 95); fill-opacity: 1; white-space: pre; opacity: 1;">$0</text></g><g class="ytick"><text text-anchor="end" x="79" y="4.199999999999999" style="font-family: 'Open Sans', verdana, arial, sans-serif; font-size: 12px; fill: rgb(42, 63, 95); fill-opacity: 1; white-space: pre; opacity: 1;" transform="translate(0,383.89)">$0.2M</text></g><g class="ytick"><text text-anchor="end" x="79" y="4.199999999999999" style="font-family: 'Open Sans', verdana, arial, sans-serif; font-size: 12px; fill: rgb(42, 63, 95); fill-opacity: 1; white-space: pre; opacity: 1;" transform="translate(0,347.78)">$0.4M</text></g><g class="ytick"><text text-anchor="end" x="79" y="4.199999999999999" style="font-family: 'Open Sans', verdana, arial, sans-serif; font-size: 12px; fill: rgb(42, 63, 95); fill-opacity: 1; white-space: pre; opacity: 1;" transform="translate(0,311.66999999999996)">$0.6M</text></g><g class="ytick"><text text-anchor="end" x="79" y="4.199999999999999" style="font-family: 'Open Sans', verdana, arial, sans-serif; font-size: 12px; fill: rgb(42, 63, 95); fill-opacity: 1; white-space: pre; opacity: 1;" transform="translate(0,275.56)">$0.8M</text></g><g class="ytick"><text text-anchor="end" x="79" y="4.199999999999999" style="font-family: 'Open Sans', verdana, arial, sans-serif; font-size: 12px; fill: rgb(42, 63, 95); fill-opacity: 1; white-space: pre; opacity: 1;" transform="translate(0,239.45)">$1M</text></g><g class="ytick"><text text-anchor="end" x="79" y="4.199999999999999" style="font-family: 'Open Sans', verdana, arial, sans-serif; font-size: 12px; fill: rgb(42, 63, 95); fill-opacity: 1; white-space: pre; opacity: 1;" transform="translate(0,203.34)">$1.2M</text></g><g class="ytick"><text text-anchor="end" x="79" y="4.199999999999999" style="font-family: 'Open Sans', verdana, arial, sans-serif; font-size: 12px; fill: rgb(42, 63, 95); fill-opacity: 1; white-space: pre; opacity: 1;" transform="translate(0,167.23000000000002)">$1.4M</text></g><g class="ytick"><text text-anchor="end" x="79" y="4.199999999999999" style="font-family: 'Open Sans', verdana, arial, sans-serif; font-size: 12px; fill: rgb(42, 63, 95); fill-opacity: 1; white-space: pre; opacity: 1;" transform="translate(0,131.12)">$1.6M</text></g></g><g class="overaxes-above"/></g></g><g class="polarlayer"/><g class="smithlayer"/><g class="ternarylayer"/><g class="geolayer"/><g class="funnelarealayer"/><g class="pielayer"/><g class="iciclelayer"/><g class="treemaplayer"/><g class="sunburstlayer"/><g class="glimages"/><defs id="topdefs-cd69f1"><g class="clips"/></defs><g class="layer-above"><g class="imagelayer"/><g class="shapelayer"/></g><g class="infolayer"><g class="g-gtitle"><text class="gtitle" x="35" y="50" text-anchor="start" dy="0em" style="font-family: 'Open Sans', verdana, arial, sans-serif; font-size: 17px; fill: rgb(42, 63, 95); opacity: 1; font-weight: normal; white-space: pre;"><tspan class="line" dy="0em" x="35" y="50">Synthetix - SNX Bridge: Hop</tspan><tspan class="line" dy="1.3em" x="35" y="50">​<tspan style="font-size:70%" dy="-0.6em">Cumulative Net Flows since Program Announcement, Until Program End + 30 Days</tspan><tspan dy="0.42em">​</tspan></tspan></text></g><g class="g-xtitle"><text class="xtitle" x="350" y="460.3" text-anchor="middle" style="font-family: 'Open Sans', verdana, arial, sans-serif; font-size: 14px; fill: rgb(42, 63, 95); opacity: 1; font-weight: normal; white-space: pre;">Day</text></g><g class="g-ytitle"><text class="ytitle" transform="rotate(-90,21.340625000000003,260)" x="21.340625000000003" y="260" text-anchor="middle" style="font-family: 'Open Sans', verdana, arial, sans-serif; font-size: 14px; fill: rgb(42, 63, 95); opacity: 1; font-weight: normal; white-space: pre;">Cumulative Net Flows (USD)</text></g></g></svg>