<svg class="main-svg" xmlns="http://www.w3.org/2000/svg" xmlns:xlink="http://www.w3.org/1999/xlink" width="700" height="500" style="" viewBox="0 0 700 500"><rect x="0" y="0" width="700" height="500" style="fill: rgb(255, 255, 255); fill-opacity: 1;"/><defs id="defs-c238d2"><g class="clips"><clipPath id="clipc238d2xyplot" class="plotclip"><rect width="540" height="320"/></clipPath><clipPath class="axesclip" id="clipc238d2x"><rect x="80" y="0" width="540" height="500"/></clipPath><clipPath class="axesclip" id="clipc238d2y"><rect x="0" y="100" width="700" height="320"/></clipPath><clipPath class="axesclip" id="clipc238d2xy"><rect x="80" y="100" width="540" height="320"/></clipPath></g><g class="gradients"/><g class="patterns"/></defs><g class="bglayer"><rect class="bg" x="80" y="100" width="540" height="320" style="fill: rgb(229, 236, 246); fill-opacity: 1; stroke-width: 0;"/></g><g class="layer-below"><g class="imagelayer"/><g class="shapelayer"/></g><g class="cartesianlayer"><g class="subplot xy"><g class="layer-subplot"><g class="shapelayer"/><g class="imagelayer"/></g><g class="minor-gridlayer"><g class="x"/><g class="y"/></g><g class="gridlayer"><g class="x"><path class="xgrid crisp" transform="translate(92.23,0)" d="M0,100v320" style="stroke: rgb(255, 255, 255); stroke-opacity: 1; stroke-width: 1px;"/><path class="xgrid crisp" transform="translate(198.82999999999998,0)" d="M0,100v320" style="stroke: rgb(255, 255, 255); stroke-opacity: 1; stroke-width: 1px;"/><path class="xgrid crisp" transform="translate(301.94,0)" d="M0,100v320" style="stroke: rgb(255, 255, 255); stroke-opacity: 1; stroke-width: 1px;"/><path class="xgrid crisp" transform="translate(408.54,0)" d="M0,100v320" style="stroke: rgb(255, 255, 255); stroke-opacity: 1; stroke-width: 1px;"/><path class="xgrid crisp" transform="translate(515.15,0)" d="M0,100v320" style="stroke: rgb(255, 255, 255); stroke-opacity: 1; stroke-width: 1px;"/></g><g class="y"><path class="ygrid crisp" transform="translate(0,383.89)" d="M80,0h540" style="stroke: rgb(255, 255, 255); stroke-opacity: 1; stroke-width: 1px;"/><path class="ygrid crisp" transform="translate(0,347.78)" d="M80,0h540" style="stroke: rgb(255, 255, 255); stroke-opacity: 1; stroke-width: 1px;"/><path class="ygrid crisp" transform="translate(0,311.66999999999996)" d="M80,0h540" style="stroke: rgb(255, 255, 255); stroke-opacity: 1; stroke-width: 1px;"/><path class="ygrid crisp" transform="translate(0,275.56)" d="M80,0h540" style="stroke: rgb(255, 255, 255); stroke-opacity: 1; stroke-width: 1px;"/><path class="ygrid crisp" transform="translate(0,239.45)" d="M80,0h540" style="stroke: rgb(255, 255, 255); stroke-opacity: 1; stroke-width: 1px;"/><path class="ygrid crisp" transform="translate(0,203.34)" d="M80,0h540" style="stroke: rgb(255, 255, 255); stroke-opacity: 1; stroke-width: 1px;"/><path class="ygrid crisp" transform="translate(0,167.23000000000002)" d="M80,0h540" style="stroke: rgb(255, 255, 255); stroke-opacity: 1; stroke-width: 1px;"/><path class="ygrid crisp" transform="translate(0,131.12)" d="M80,0h540" style="stroke: rgb(255, 255, 255); stroke-opacity: 1; stroke-width: 1px;"/></g></g><g class="zerolinelayer"><path class="yzl zl crisp" transform="translate(0,420)" d="M80,0h540" style="stroke: rgb(255, 255, 255); stroke-opacity: 1; stroke-width: 2px;"/></g><path class="xlines-below"/><path class="ylines-below"/><g class="overlines-below"/><g class="xaxislayer-below"/><g class="yaxislayer-below"/><g class="overaxes-below"/><g class="plot" transform="translate(80,100)" clip-path="url(#clipc238d2xyplot)"><g class="scatterlayer mlayer"><g class="trace scatter trace5fe886" style="stroke-miterlimit: 2;"><g class="fills"><g><path class="js-fill" d="M540,320L0,320L0,320L1.75,320L3.5,257.42L5.24,175.46L6.99,187.89L8.74,191.54L10.49,175.26L12.23,179.16L13.98,166.09L15.73,161.48L17.48,192.75L19.22,191.83L20.97,189.8L22.72,189.5L24.47,192.99L27.96,224.48L29.71,223.95L31.46,215.17L33.2,213.93L34.95,175.34L36.7,175.94L38.45,173.54L40.19,181.23L43.69,197.69L45.44,193.74L47.18,191.59L48.93,192.65L50.68,192.51L52.43,190.76L54.17,190.41L55.92,185.31L57.67,174.19L59.42,154.81L61.17,165.95L62.91,169.74L64.66,200.05L66.41,182.47L69.9,160.32L71.65,186.65L73.4,188.06L75.15,213.26L76.89,195.32L78.64,194.8L80.39,195.78L82.14,207.36L83.88,206.22L85.63,206.47L89.13,206.35L90.87,199.71L92.62,190.46L94.37,189.75L96.12,189.75L97.86,190.82L99.61,187.46L101.36,187.74L103.11,187.83L104.85,185.59L106.6,186.1L108.35,185.19L110.1,181L111.84,180.61L113.59,185.39L115.34,183.67L117.09,186.82L118.83,186.55L120.58,185.44L122.33,182.02L124.08,177.69L125.83,179.66L131.07,179.31L132.82,176.85L134.56,178.68L136.31,182.33L139.81,167.28L141.55,165.87L143.3,162.85L145.05,153.09L146.8,193.38L148.54,186.48L150.29,191.28L152.04,221.44L153.79,227.72L155.53,223.66L157.28,218.11L159.03,215.12L160.78,212.86L162.52,195.94L164.27,199.1L166.02,197.89L167.77,195.73L169.51,168.91L171.26,181.77L173.01,175.22L174.76,155.55L176.5,166.87L178.25,166.27L180,159.47L181.75,159.82L183.5,133.61L185.24,159.56L186.99,161.9L188.74,160.97L190.49,150.65L192.23,149.15L193.98,150.13L195.73,117.75L197.48,121.35L200.97,132.33L202.72,121.55L204.47,129.28L206.21,128.78L207.96,133.35L209.71,121.92L211.46,111.78L213.2,79.48L214.95,69.86L216.7,77.61L218.45,77.17L220.19,59.4L221.94,58.62L223.69,79.85L225.44,63.38L227.18,68.66L228.93,73.1L230.68,56.71L234.17,77.93L235.92,67.63L237.67,46.48L239.42,74.29L241.17,27.86L242.91,67.05L246.41,173.18L248.16,260.04L249.9,235.43L251.65,225.95L253.4,227.93L255.15,227.03L258.64,187.7L260.39,46.09L262.14,64.59L263.88,72.59L267.38,16L269.13,59.29L270.87,58.46L272.62,80.53L276.12,77.68L277.86,61.9L279.61,61.08L281.36,56.31L283.11,63.12L284.85,73.67L286.6,78.39L288.35,111.29L290.1,188.49L291.84,178.72L293.59,178.47L295.34,177.45L297.09,188.98L298.83,210.66L300.58,208.91L302.33,211.82L304.08,211.33L305.83,214.94L307.57,166.93L309.32,269.72L314.56,214.3L316.31,208.12L318.06,210.62L319.81,210.27L321.55,210.21L323.3,211.14L325.05,211.31L326.8,220.37L328.54,273L330.29,267.06L332.04,263.62L333.79,265.24L335.53,172.39L337.28,163.04L339.03,163.1L340.78,165.19L342.52,169.73L344.27,130.21L346.02,134.53L347.77,98.83L349.51,175.24L351.26,162.48L353.01,143.91L354.76,146.47L356.5,150.84L358.25,138.63L360,111.31L361.75,122.15L363.5,163.06L365.24,163.54L366.99,157.47L368.74,183.73L370.49,136.99L372.23,137.32L375.73,126.1L377.48,101.4L379.22,106.15L380.97,219.03L382.72,276.11L384.47,268.34L386.21,269.71L387.96,236.69L389.71,233.3L391.46,241L393.2,241.09L394.95,237.71L396.7,208.89L398.45,210.7L401.94,222.97L403.69,223.16L405.44,216.69L407.18,218.64L408.93,211.17L410.68,217.44L412.43,217.33L414.17,218.39L415.92,218.82L417.67,220.3L419.42,214.08L421.17,219.86L424.66,222.2L426.41,221.67L428.16,224.34L429.9,225.5L431.65,220.71L433.4,235.14L438.64,235.49L440.39,234.25L442.14,225.71L443.88,227.11L445.63,245.64L447.38,245.81L449.13,245.99L450.87,248.6L452.62,247.83L454.37,240.66L456.12,233.72L457.86,235.78L459.61,218.34L461.36,226.56L463.11,235.72L464.85,225.73L466.6,247.02L468.35,244.54L470.1,261.13L471.84,246.13L473.59,250.22L475.34,242.82L477.09,224.48L478.83,224.69L480.58,224.87L482.33,229.19L484.08,234.18L485.83,242.48L487.57,244.23L489.32,249.22L491.07,253.51L492.82,254.26L494.56,246.78L496.31,246.31L499.81,256.65L501.55,225.08L505.05,228.77L506.8,238.49L508.54,239.55L510.29,239.55L512.04,239.57L513.79,238.3L515.53,238.66L517.28,240.49L519.03,240.23L520.78,244.02L522.52,247.16L524.27,248.04L527.77,247.79L529.51,259.5L531.26,260.34L533.01,233.18L536.5,233.59L538.25,231.53L540,237.18" style="fill: rgb(99, 110, 250); fill-opacity: 0.5; stroke-width: 0;"/></g></g><g class="errorbars"/><g class="lines"><path class="js-line" d="M0,320L1.75,320L3.5,257.42L5.24,175.46L6.99,187.89L8.74,191.54L10.49,175.26L12.23,179.16L13.98,166.09L15.73,161.48L17.48,192.75L19.22,191.83L20.97,189.8L22.72,189.5L24.47,192.99L27.96,224.48L29.71,223.95L31.46,215.17L33.2,213.93L34.95,175.34L36.7,175.94L38.45,173.54L40.19,181.23L43.69,197.69L45.44,193.74L47.18,191.59L48.93,192.65L50.68,192.51L52.43,190.76L54.17,190.41L55.92,185.31L57.67,174.19L59.42,154.81L61.17,165.95L62.91,169.74L64.66,200.05L66.41,182.47L69.9,160.32L71.65,186.65L73.4,188.06L75.15,213.26L76.89,195.32L78.64,194.8L80.39,195.78L82.14,207.36L83.88,206.22L85.63,206.47L89.13,206.35L90.87,199.71L92.62,190.46L94.37,189.75L96.12,189.75L97.86,190.82L99.61,187.46L101.36,187.74L103.11,187.83L104.85,185.59L106.6,186.1L108.35,185.19L110.1,181L111.84,180.61L113.59,185.39L115.34,183.67L117.09,186.82L118.83,186.55L120.58,185.44L122.33,182.02L124.08,177.69L125.83,179.66L131.07,179.31L132.82,176.85L134.56,178.68L136.31,182.33L139.81,167.28L141.55,165.87L143.3,162.85L145.05,153.09L146.8,193.38L148.54,186.48L150.29,191.28L152.04,221.44L153.79,227.72L155.53,223.66L157.28,218.11L159.03,215.12L160.78,212.86L162.52,195.94L164.27,199.1L166.02,197.89L167.77,195.73L169.51,168.91L171.26,181.77L173.01,175.22L174.76,155.55L176.5,166.87L178.25,166.27L180,159.47L181.75,159.82L183.5,133.61L185.24,159.56L186.99,161.9L188.74,160.97L190.49,150.65L192.23,149.15L193.98,150.13L195.73,117.75L197.48,121.35L200.97,132.33L202.72,121.55L204.47,129.28L206.21,128.78L207.96,133.35L209.71,121.92L211.46,111.78L213.2,79.48L214.95,69.86L216.7,77.61L218.45,77.17L220.19,59.4L221.94,58.62L223.69,79.85L225.44,63.38L227.18,68.66L228.93,73.1L230.68,56.71L234.17,77.93L235.92,67.63L237.67,46.48L239.42,74.29L241.17,27.86L242.91,67.05L246.41,173.18L248.16,260.04L249.9,235.43L251.65,225.95L253.4,227.93L255.15,227.03L258.64,187.7L260.39,46.09L262.14,64.59L263.88,72.59L267.38,16L269.13,59.29L270.87,58.46L272.62,80.53L276.12,77.68L277.86,61.9L279.61,61.08L281.36,56.31L283.11,63.12L284.85,73.67L286.6,78.39L288.35,111.29L290.1,188.49L291.84,178.72L293.59,178.47L295.34,177.45L297.09,188.98L298.83,210.66L300.58,208.91L302.33,211.82L304.08,211.33L305.83,214.94L307.57,166.93L309.32,269.72L314.56,214.3L316.31,208.12L318.06,210.62L319.81,210.27L321.55,210.21L323.3,211.14L325.05,211.31L326.8,220.37L328.54,273L330.29,267.06L332.04,263.62L333.79,265.24L335.53,172.39L337.28,163.04L339.03,163.1L340.78,165.19L342.52,169.73L344.27,130.21L346.02,134.53L347.77,98.83L349.51,175.24L351.26,162.48L353.01,143.91L354.76,146.47L356.5,150.84L358.25,138.63L360,111.31L361.75,122.15L363.5,163.06L365.24,163.54L366.99,157.47L368.74,183.73L370.49,136.99L372.23,137.32L375.73,126.1L377.48,101.4L379.22,106.15L380.97,219.03L382.72,276.11L384.47,268.34L386.21,269.71L387.96,236.69L389.71,233.3L391.46,241L393.2,241.09L394.95,237.71L396.7,208.89L398.45,210.7L401.94,222.97L403.69,223.16L405.44,216.69L407.18,218.64L408.93,211.17L410.68,217.44L412.43,217.33L414.17,218.39L415.92,218.82L417.67,220.3L419.42,214.08L421.17,219.86L424.66,222.2L426.41,221.67L428.16,224.34L429.9,225.5L431.65,220.71L433.4,235.14L438.64,235.49L440.39,234.25L442.14,225.71L443.88,227.11L445.63,245.64L447.38,245.81L449.13,245.99L450.87,248.6L452.62,247.83L454.37,240.66L456.12,233.72L457.86,235.78L459.61,218.34L461.36,226.56L463.11,235.72L464.85,225.73L466.6,247.02L468.35,244.54L470.1,261.13L471.84,246.13L473.59,250.22L475.34,242.82L477.09,224.48L478.83,224.69L480.58,224.87L482.33,229.19L484.08,234.18L485.83,242.48L487.57,244.23L489.32,249.22L491.07,253.51L492.82,254.26L494.56,246.78L496.31,246.31L499.81,256.65L501.55,225.08L505.05,228.77L506.8,238.49L508.54,239.55L510.29,239.55L512.04,239.57L513.79,238.3L515.53,238.66L517.28,240.49L519.03,240.23L520.78,244.02L522.52,247.16L524.27,248.04L527.77,247.79L529.51,259.5L531.26,260.34L533.01,233.18L536.5,233.59L538.25,231.53L540,237.18" style="vector-effect: none; fill: none; stroke: rgb(99, 110, 250); stroke-opacity: 1; stroke-width: 2px; opacity: 1;"/></g><g class="points"/><g class="text"/></g></g></g><g class="overplot"/><path class="xlines-above crisp" d="M0,0" style="fill: none;"/><path class="ylines-above crisp" d="M0,0" style="fill: none;"/><g class="overlines-above"/><g class="xaxislayer-above"><g class="xtick"><text text-anchor="middle" x="0" y="433" transform="translate(92.23,0)" style="font-family: 'Open Sans', verdana, arial, sans-serif; font-size: 12px; fill: rgb(42, 63, 95); fill-opacity: 1; white-space: pre; opacity: 1;">Nov 2022</text></g><g class="xtick"><text text-anchor="middle" x="0" y="433" style="font-family: 'Open Sans', verdana, arial, sans-serif; font-size: 12px; fill: rgb(42, 63, 95); fill-opacity: 1; white-space: pre; opacity: 1;" transform="translate(198.82999999999998,0)">Jan 2023</text></g><g class="xtick"><text text-anchor="middle" x="0" y="433" style="font-family: 'Open Sans', verdana, arial, sans-serif; font-size: 12px; fill: rgb(42, 63, 95); fill-opacity: 1; white-space: pre; opacity: 1;" transform="translate(301.94,0)">Mar 2023</text></g><g class="xtick"><text text-anchor="middle" x="0" y="433" style="font-family: 'Open Sans', verdana, arial, sans-serif; font-size: 12px; fill: rgb(42, 63, 95); fill-opacity: 1; white-space: pre; opacity: 1;" transform="translate(408.54,0)">May 2023</text></g><g class="xtick"><text text-anchor="middle" x="0" y="433" style="font-family: 'Open Sans', verdana, arial, sans-serif; font-size: 12px; fill: rgb(42, 63, 95); fill-opacity: 1; white-space: pre; opacity: 1;" transform="translate(515.15,0)">Jul 2023</text></g></g><g class="yaxislayer-above"><g class="ytick"><text text-anchor="end" x="79" y="4.199999999999999" transform="translate(0,420)" style="font-family: 'Open Sans', verdana, arial, sans-serif; font-size: 12px; fill: rgb(42, 63, 95); fill-opacity: 1; white-space: pre; opacity: 1;">$0</text></g><g class="ytick"><text text-anchor="end" x="79" y="4.199999999999999" style="font-family: 'Open Sans', verdana, arial, sans-serif; font-size: 12px; fill: rgb(42, 63, 95); fill-opacity: 1; white-space: pre; opacity: 1;" transform="translate(0,383.89)">$0.2M</text></g><g class="ytick"><text text-anchor="end" x="79" y="4.199999999999999" style="font-family: 'Open Sans', verdana, arial, sans-serif; font-size: 12px; fill: rgb(42, 63, 95); fill-opacity: 1; white-space: pre; opacity: 1;" transform="translate(0,347.78)">$0.4M</text></g><g class="ytick"><text text-anchor="end" x="79" y="4.199999999999999" style="font-family: 'Open Sans', verdana, arial, sans-serif; font-size: 12px; fill: rgb(42, 63, 95); fill-opacity: 1; white-space: pre; opacity: 1;" transform="translate(0,311.66999999999996)">$0.6M</text></g><g class="ytick"><text text-anchor="end" x="79" y="4.199999999999999" style="font-family: 'Open Sans', verdana, arial, sans-serif; font-size: 12px; fill: rgb(42, 63, 95); fill-opacity: 1; white-space: pre; opacity: 1;" transform="translate(0,275.56)">$0.8M</text></g><g class="ytick"><text text-anchor="end" x="79" y="4.199999999999999" style="font-family: 'Open Sans', verdana, arial, sans-serif; font-size: 12px; fill: rgb(42, 63, 95); fill-opacity: 1; white-space: pre; opacity: 1;" transform="translate(0,239.45)">$1M</text></g><g class="ytick"><text text-anchor="end" x="79" y="4.199999999999999" style="font-family: 'Open Sans', verdana, arial, sans-serif; font-size: 12px; fill: rgb(42, 63, 95); fill-opacity: 1; white-space: pre; opacity: 1;" transform="translate(0,203.34)">$1.2M</text></g><g class="ytick"><text text-anchor="end" x="79" y="4.199999999999999" style="font-family: 'Open Sans', verdana, arial, sans-serif; font-size: 12px; fill: rgb(42, 63, 95); fill-opacity: 1; white-space: pre; opacity: 1;" transform="translate(0,167.23000000000002)">$1.4M</text></g><g class="ytick"><text text-anchor="end" x="79" y="4.199999999999999" style="font-family: 'Open Sans', verdana, arial, sans-serif; font-size: 12px; fill: rgb(42, 63, 95); fill-opacity: 1; white-space: pre; opacity: 1;" transform="translate(0,131.12)">$1.6M</text></g></g><g class="overaxes-above"/></g></g><g class="polarlayer"/><g class="smithlayer"/><g class="ternarylayer"/><g class="geolayer"/><g class="funnelarealayer"/><g class="pielayer"/><g class="iciclelayer"/><g class="treemaplayer"/><g class="sunburstlayer"/><g class="glimages"/><defs id="topdefs-c238d2"><g class="clips"/></defs><g class="layer-above"><g class="imagelayer"/><g class="shapelayer"/></g><g class="infolayer"><g class="g-gtitle"><text class="gtitle" x="35" y="50" text-anchor="start" dy="0em" style="font-family: 'Open Sans', verdana, arial, sans-serif; font-size: 17px; fill: rgb(42, 63, 95); opacity: 1; font-weight: normal; white-space: pre;"><tspan class="line" dy="0em" x="35" y="50">Synthetix - SNX Bridge: Hop</tspan><tspan class="line" dy="1.3em" x="35" y="50">​<tspan style="font-size:70%" dy="-0.6em">Cumulative Net Flows since Program Announcement, Until Program End + 30 Days</tspan><tspan dy="0.42em">​</tspan></tspan></text></g><g class="g-xtitle"><text class="xtitle" x="350" y="460.3" text-anchor="middle" style="font-family: 'Open Sans', verdana, arial, sans-serif; font-size: 14px; fill: rgb(42, 63, 95); opacity: 1; font-weight: normal; white-space: pre;">Day</text></g><g class="g-ytitle"><text class="ytitle" transform="rotate(-90,21.340625000000003,260)" x="21.340625000000003" y="260" text-anchor="middle" style="font-family: 'Open Sans', verdana, arial, sans-serif; font-size: 14px; fill: rgb(42, 63, 95); opacity: 1; font-weight: normal; white-space: pre;">Cumulative Net Flows (USD)</text></g></g></svg>