<svg class="main-svg" xmlns="http://www.w3.org/2000/svg" xmlns:xlink="http://www.w3.org/1999/xlink" width="700" height="500" style="" viewBox="0 0 700 500"><rect x="0" y="0" width="700" height="500" style="fill: rgb(255, 255, 255); fill-opacity: 1;"/><defs id="defs-d1da6f"><g class="clips"><clipPath id="clipd1da6fxyplot" class="plotclip"><rect width="540" height="320"/></clipPath><clipPath class="axesclip" id="clipd1da6fx"><rect x="80" y="0" width="540" height="500"/></clipPath><clipPath class="axesclip" id="clipd1da6fy"><rect x="0" y="100" width="700" height="320"/></clipPath><clipPath class="axesclip" id="clipd1da6fxy"><rect x="80" y="100" width="540" height="320"/></clipPath></g><g class="gradients"/><g class="patterns"/></defs><g class="bglayer"><rect class="bg" x="80" y="100" width="540" height="320" style="fill: rgb(229, 236, 246); fill-opacity: 1; stroke-width: 0;"/></g><g class="layer-below"><g class="imagelayer"/><g class="shapelayer"/></g><g class="cartesianlayer"><g class="subplot xy"><g class="layer-subplot"><g class="shapelayer"/><g class="imagelayer"/></g><g class="minor-gridlayer"><g class="x"/><g class="y"/></g><g class="gridlayer"><g class="x"><path class="xgrid crisp" transform="translate(182.76999999999998,0)" d="M0,100v320" style="stroke: rgb(255, 255, 255); stroke-opacity: 1; stroke-width: 1px;"/><path class="xgrid crisp" transform="translate(289.03,0)" d="M0,100v320" style="stroke: rgb(255, 255, 255); stroke-opacity: 1; stroke-width: 1px;"/><path class="xgrid crisp" transform="translate(397.03,0)" d="M0,100v320" style="stroke: rgb(255, 255, 255); stroke-opacity: 1; stroke-width: 1px;"/><path class="xgrid crisp" transform="translate(503.29,0)" d="M0,100v320" style="stroke: rgb(255, 255, 255); stroke-opacity: 1; stroke-width: 1px;"/><path class="xgrid crisp" transform="translate(609.55,0)" d="M0,100v320" style="stroke: rgb(255, 255, 255); stroke-opacity: 1; stroke-width: 1px;"/></g><g class="y"><path class="ygrid crisp" transform="translate(0,407.63)" d="M80,0h540" style="stroke: rgb(255, 255, 255); stroke-opacity: 1; stroke-width: 1px;"/><path class="ygrid crisp" transform="translate(0,339.83000000000004)" d="M80,0h540" style="stroke: rgb(255, 255, 255); stroke-opacity: 1; stroke-width: 1px;"/><path class="ygrid crisp" transform="translate(0,204.24)" d="M80,0h540" style="stroke: rgb(255, 255, 255); stroke-opacity: 1; stroke-width: 1px;"/><path class="ygrid crisp" transform="translate(0,136.45)" d="M80,0h540" style="stroke: rgb(255, 255, 255); stroke-opacity: 1; stroke-width: 1px;"/></g></g><g class="zerolinelayer"><path class="yzl zl crisp" transform="translate(0,272.03999999999996)" d="M80,0h540" style="stroke: rgb(255, 255, 255); stroke-opacity: 1; stroke-width: 2px;"/></g><path class="xlines-below"/><path class="ylines-below"/><g class="overlines-below"/><g class="xaxislayer-below"/><g class="yaxislayer-below"/><g class="overaxes-below"/><g class="plot" transform="translate(80,100)" clip-path="url(#clipd1da6fxyplot)"><g class="scatterlayer mlayer"><g class="trace scatter trace0a027c" style="stroke-miterlimit: 2;"><g class="fills"><g><path class="js-fill" d="M540,172.04L0,172.04L0,152.91L1.74,94.47L3.48,110.31L5.23,112.04L6.97,52.95L8.71,50.19L10.45,103.16L12.19,105.77L13.94,139.37L15.68,242.31L17.42,231.45L19.16,166.16L20.9,151.2L22.65,147.06L24.39,146.67L26.13,144.29L27.87,139.7L29.61,126.19L31.35,122.12L33.1,122.14L34.84,88.11L36.58,88.6L38.32,96.76L40.06,130.48L41.81,113.29L43.55,117.75L45.29,113.31L47.03,113.53L48.77,131.09L50.52,84.74L52.26,84.92L54,80.91L55.74,79.84L57.48,64.67L59.23,81.64L60.97,78.2L62.71,76.48L64.45,16L66.19,54.24L67.94,33.44L69.68,68.85L71.42,67.61L73.16,77.51L76.65,69.89L78.39,59.06L80.13,51.78L81.87,36.1L83.61,43.89L85.35,47.84L87.1,27.54L88.84,39.37L90.58,28.82L92.32,34.22L94.06,304L130.65,85.51L132.39,85.51L134.13,90.45L135.87,91.57L137.61,95.74L142.84,94.44L144.58,99.34L148.06,82.28L149.81,82.18L151.55,120.06L153.29,125.43L155.03,126.35L156.77,135.56L158.52,151.31L160.26,152.19L162,171.33L163.74,175.4L165.48,175.96L167.23,179.39L168.97,173.46L170.71,179.93L177.68,180.48L179.42,181.65L181.16,182.82L182.9,216.62L184.65,218.34L186.39,232.04L188.13,233.48L189.87,237.87L193.35,236.58L195.1,237.18L196.84,235.11L198.58,234.38L200.32,233.71L202.06,234.86L203.81,234.85L205.55,246.91L212.52,247.55L214.26,247.53L216,248.38L217.74,248.36L219.48,250.74L221.23,271.17L222.97,266.66L224.71,268.11L226.45,269.26L228.19,269.29L229.94,270.61L231.68,273.49L233.42,275.7L235.16,275.84L236.9,278.28L238.65,278.27L243.87,278.27L245.61,282.27L266.52,281.97L268.26,281.84L271.74,281.31L273.48,281.31L275.23,281.33L276.97,282.83L280.45,282.78L282.19,286.11L283.94,301.46L287.42,286.31L290.9,286.3L292.65,289.39L294.39,289.66L296.13,292.27L306.58,292.94L308.32,293.03L320.52,293.14L322.26,279.56L336.19,279.66L337.94,293.7L353.61,293.84L355.35,293.89L374.52,294.45L376.26,293.6L412.84,293.88L414.58,294.83L433.74,295.41L435.48,296.08L438.97,296.64L440.71,296.64L454.65,296.87L456.39,301.37L458.13,296.85L459.87,296.86L540,297.87" style="fill: rgb(99, 110, 250); fill-opacity: 0.5; stroke-width: 0;"/></g></g><g class="errorbars"/><g class="lines"><path class="js-line" d="M0,152.91L1.74,94.47L3.48,110.31L5.23,112.04L6.97,52.95L8.71,50.19L10.45,103.16L12.19,105.77L13.94,139.37L15.68,242.31L17.42,231.45L19.16,166.16L20.9,151.2L22.65,147.06L24.39,146.67L26.13,144.29L27.87,139.7L29.61,126.19L31.35,122.12L33.1,122.14L34.84,88.11L36.58,88.6L38.32,96.76L40.06,130.48L41.81,113.29L43.55,117.75L45.29,113.31L47.03,113.53L48.77,131.09L50.52,84.74L52.26,84.92L54,80.91L55.74,79.84L57.48,64.67L59.23,81.64L60.97,78.2L62.71,76.48L64.45,16L66.19,54.24L67.94,33.44L69.68,68.85L71.42,67.61L73.16,77.51L76.65,69.89L78.39,59.06L80.13,51.78L81.87,36.1L83.61,43.89L85.35,47.84L87.1,27.54L88.84,39.37L90.58,28.82L92.32,34.22L94.06,304L130.65,85.51L132.39,85.51L134.13,90.45L135.87,91.57L137.61,95.74L142.84,94.44L144.58,99.34L148.06,82.28L149.81,82.18L151.55,120.06L153.29,125.43L155.03,126.35L156.77,135.56L158.52,151.31L160.26,152.19L162,171.33L163.74,175.4L165.48,175.96L167.23,179.39L168.97,173.46L170.71,179.93L177.68,180.48L179.42,181.65L181.16,182.82L182.9,216.62L184.65,218.34L186.39,232.04L188.13,233.48L189.87,237.87L193.35,236.58L195.1,237.18L196.84,235.11L198.58,234.38L200.32,233.71L202.06,234.86L203.81,234.85L205.55,246.91L212.52,247.55L214.26,247.53L216,248.38L217.74,248.36L219.48,250.74L221.23,271.17L222.97,266.66L224.71,268.11L226.45,269.26L228.19,269.29L229.94,270.61L231.68,273.49L233.42,275.7L235.16,275.84L236.9,278.28L238.65,278.27L243.87,278.27L245.61,282.27L266.52,281.97L268.26,281.84L271.74,281.31L273.48,281.31L275.23,281.33L276.97,282.83L280.45,282.78L282.19,286.11L283.94,301.46L287.42,286.31L290.9,286.3L292.65,289.39L294.39,289.66L296.13,292.27L306.58,292.94L308.32,293.03L320.52,293.14L322.26,279.56L336.19,279.66L337.94,293.7L353.61,293.84L355.35,293.89L374.52,294.45L376.26,293.6L412.84,293.88L414.58,294.83L433.74,295.41L435.48,296.08L438.97,296.64L440.71,296.64L454.65,296.87L456.39,301.37L458.13,296.85L459.87,296.86L540,297.87" style="vector-effect: none; fill: none; stroke: rgb(99, 110, 250); stroke-opacity: 1; stroke-width: 2px; opacity: 1;"/></g><g class="points"/><g class="text"/></g></g></g><g class="overplot"/><path class="xlines-above crisp" d="M0,0" style="fill: none;"/><path class="ylines-above crisp" d="M0,0" style="fill: none;"/><g class="overlines-above"/><g class="xaxislayer-above"><g class="xtick"><text text-anchor="middle" x="0" y="433" transform="translate(182.76999999999998,0)" style="font-family: 'Open Sans', verdana, arial, sans-serif; font-size: 12px; fill: rgb(42, 63, 95); fill-opacity: 1; white-space: pre; opacity: 1;">May 2023</text></g><g class="xtick"><text text-anchor="middle" x="0" y="433" style="font-family: 'Open Sans', verdana, arial, sans-serif; font-size: 12px; fill: rgb(42, 63, 95); fill-opacity: 1; white-space: pre; opacity: 1;" transform="translate(289.03,0)">Jul 2023</text></g><g class="xtick"><text text-anchor="middle" x="0" y="433" style="font-family: 'Open Sans', verdana, arial, sans-serif; font-size: 12px; fill: rgb(42, 63, 95); fill-opacity: 1; white-space: pre; opacity: 1;" transform="translate(397.03,0)">Sep 2023</text></g><g class="xtick"><text text-anchor="middle" x="0" y="433" style="font-family: 'Open Sans', verdana, arial, sans-serif; font-size: 12px; fill: rgb(42, 63, 95); fill-opacity: 1; white-space: pre; opacity: 1;" transform="translate(503.29,0)">Nov 2023</text></g><g class="xtick"><text text-anchor="middle" x="0" y="433" style="font-family: 'Open Sans', verdana, arial, sans-serif; font-size: 12px; fill: rgb(42, 63, 95); fill-opacity: 1; white-space: pre; opacity: 1;" transform="translate(609.55,0)">Jan 2024</text></g></g><g class="yaxislayer-above"><g class="ytick"><text text-anchor="end" x="79" y="4.199999999999999" transform="translate(0,407.63)" style="font-family: 'Open Sans', verdana, arial, sans-serif; font-size: 12px; fill: rgb(42, 63, 95); fill-opacity: 1; white-space: pre; opacity: 1;">$−2M</text></g><g class="ytick"><text text-anchor="end" x="79" y="4.199999999999999" style="font-family: 'Open Sans', verdana, arial, sans-serif; font-size: 12px; fill: rgb(42, 63, 95); fill-opacity: 1; white-space: pre; opacity: 1;" transform="translate(0,339.83000000000004)">$−1M</text></g><g class="ytick"><text text-anchor="end" x="79" y="4.199999999999999" style="font-family: 'Open Sans', verdana, arial, sans-serif; font-size: 12px; fill: rgb(42, 63, 95); fill-opacity: 1; white-space: pre; opacity: 1;" transform="translate(0,272.03999999999996)">$0</text></g><g class="ytick"><text text-anchor="end" x="79" y="4.199999999999999" style="font-family: 'Open Sans', verdana, arial, sans-serif; font-size: 12px; fill: rgb(42, 63, 95); fill-opacity: 1; white-space: pre; opacity: 1;" transform="translate(0,204.24)">$1M</text></g><g class="ytick"><text text-anchor="end" x="79" y="4.199999999999999" style="font-family: 'Open Sans', verdana, arial, sans-serif; font-size: 12px; fill: rgb(42, 63, 95); fill-opacity: 1; white-space: pre; opacity: 1;" transform="translate(0,136.45)">$2M</text></g></g><g class="overaxes-above"/></g></g><g class="polarlayer"/><g class="smithlayer"/><g class="ternarylayer"/><g class="geolayer"/><g class="funnelarealayer"/><g class="pielayer"/><g class="iciclelayer"/><g class="treemaplayer"/><g class="sunburstlayer"/><g class="glimages"/><defs id="topdefs-d1da6f"><g class="clips"/></defs><g class="layer-above"><g class="imagelayer"/><g class="shapelayer"/></g><g class="infolayer"><g class="g-gtitle"><text class="gtitle" x="35" y="50" text-anchor="start" dy="0em" style="font-family: 'Open Sans', verdana, arial, sans-serif; font-size: 17px; fill: rgb(42, 63, 95); opacity: 1; font-weight: normal; white-space: pre;"><tspan class="line" dy="0em" x="35" y="50">Sushi Trident</tspan><tspan class="line" dy="1.3em" x="35" y="50">​<tspan style="font-size:70%" dy="-0.6em">Cumulative Net Flows since Program Announcement, Until Program End + 30 Days</tspan><tspan dy="0.42em">​</tspan></tspan></text></g><g class="g-xtitle"><text class="xtitle" x="350" y="460.3" text-anchor="middle" style="font-family: 'Open Sans', verdana, arial, sans-serif; font-size: 14px; fill: rgb(42, 63, 95); opacity: 1; font-weight: normal; white-space: pre;">Day</text></g><g class="g-ytitle"><text class="ytitle" transform="rotate(-90,24.340625000000003,260)" x="24.340625000000003" y="260" text-anchor="middle" style="font-family: 'Open Sans', verdana, arial, sans-serif; font-size: 14px; fill: rgb(42, 63, 95); opacity: 1; font-weight: normal; white-space: pre;">Cumulative Net Flows (USD)</text></g></g></svg>