<svg class="main-svg" xmlns="http://www.w3.org/2000/svg" xmlns:xlink="http://www.w3.org/1999/xlink" width="700" height="500" style="" viewBox="0 0 700 500"><rect x="0" y="0" width="700" height="500" style="fill: rgb(255, 255, 255); fill-opacity: 1;"/><defs id="defs-983980"><g class="clips"><clipPath id="clip983980xyplot" class="plotclip"><rect width="540" height="320"/></clipPath><clipPath class="axesclip" id="clip983980x"><rect x="80" y="0" width="540" height="500"/></clipPath><clipPath class="axesclip" id="clip983980y"><rect x="0" y="100" width="700" height="320"/></clipPath><clipPath class="axesclip" id="clip983980xy"><rect x="80" y="100" width="540" height="320"/></clipPath></g><g class="gradients"/><g class="patterns"/></defs><g class="bglayer"><rect class="bg" x="80" y="100" width="540" height="320" style="fill: rgb(229, 236, 246); fill-opacity: 1; stroke-width: 0;"/></g><g class="layer-below"><g class="imagelayer"/><g class="shapelayer"/></g><g class="cartesianlayer"><g class="subplot xy"><g class="layer-subplot"><g class="shapelayer"/><g class="imagelayer"/></g><g class="minor-gridlayer"><g class="x"/><g class="y"/></g><g class="gridlayer"><g class="x"><path class="xgrid crisp" transform="translate(166.4,0)" d="M0,100v320" style="stroke: rgb(255, 255, 255); stroke-opacity: 1; stroke-width: 1px;"/><path class="xgrid crisp" transform="translate(298.15999999999997,0)" d="M0,100v320" style="stroke: rgb(255, 255, 255); stroke-opacity: 1; stroke-width: 1px;"/><path class="xgrid crisp" transform="translate(425.6,0)" d="M0,100v320" style="stroke: rgb(255, 255, 255); stroke-opacity: 1; stroke-width: 1px;"/><path class="xgrid crisp" transform="translate(557.36,0)" d="M0,100v320" style="stroke: rgb(255, 255, 255); stroke-opacity: 1; stroke-width: 1px;"/></g><g class="y"><path class="ygrid crisp" transform="translate(0,365.37)" d="M80,0h540" style="stroke: rgb(255, 255, 255); stroke-opacity: 1; stroke-width: 1px;"/><path class="ygrid crisp" transform="translate(0,310.73)" d="M80,0h540" style="stroke: rgb(255, 255, 255); stroke-opacity: 1; stroke-width: 1px;"/><path class="ygrid crisp" transform="translate(0,256.1)" d="M80,0h540" style="stroke: rgb(255, 255, 255); stroke-opacity: 1; stroke-width: 1px;"/><path class="ygrid crisp" transform="translate(0,201.47)" d="M80,0h540" style="stroke: rgb(255, 255, 255); stroke-opacity: 1; stroke-width: 1px;"/><path class="ygrid crisp" transform="translate(0,146.82999999999998)" d="M80,0h540" style="stroke: rgb(255, 255, 255); stroke-opacity: 1; stroke-width: 1px;"/></g></g><g class="zerolinelayer"><path class="yzl zl crisp" transform="translate(0,420)" d="M80,0h540" style="stroke: rgb(255, 255, 255); stroke-opacity: 1; stroke-width: 2px;"/></g><path class="xlines-below"/><path class="ylines-below"/><g class="overlines-below"/><g class="xaxislayer-below"/><g class="yaxislayer-below"/><g class="overaxes-below"/><g class="plot" transform="translate(80,100)" clip-path="url(#clip983980xyplot)"><g class="scatterlayer mlayer"><g class="trace scatter trace83f696" style="stroke-miterlimit: 2;"><g class="fills"><g><path class="js-fill" d="M540,320L0,320L0,315.21L2.16,308.2L4.32,309.6L6.48,307.86L8.64,316.62L10.8,310.15L12.96,308.43L15.12,308.53L17.28,302.78L19.44,314.76L21.6,304.95L23.76,298.45L25.92,299.81L28.08,303.59L30.24,297.75L32.4,298.09L34.56,293.74L36.72,293.85L38.88,297.45L41.04,295.34L43.2,295.74L45.36,300.66L47.52,297.94L49.68,297.56L51.84,299.93L54,299.91L56.16,297.38L58.32,293.95L60.48,293.03L62.64,288.21L64.8,289L66.96,287.66L69.12,289.72L71.28,290.8L73.44,281.18L75.6,236.79L77.76,160.64L79.92,143.01L82.08,141.68L86.4,124.1L88.56,126.59L90.72,105.7L92.88,107.86L95.04,109.31L97.2,115.47L99.36,117.89L101.52,111.52L105.84,150.49L108,142.71L110.16,146.68L112.32,148.41L114.48,152.14L116.64,152.02L118.8,147.55L120.96,145.92L123.12,147.6L125.28,147.39L127.44,154.41L129.6,146.16L131.76,143.3L133.92,143.47L136.08,145.64L138.24,143.84L140.4,143.39L142.56,149.52L144.72,158.8L146.88,151.97L149.04,124.21L151.2,122.07L153.36,124.84L155.52,132.96L157.68,134.28L159.84,137.21L162,133.2L164.16,133.4L168.48,134.56L170.64,142.09L172.8,141.27L174.96,141.67L177.12,141.95L179.28,132.92L181.44,135.49L183.6,127.27L185.76,128.03L187.92,111.33L190.08,118.05L192.24,116.16L194.4,129.64L196.56,124.73L198.72,133.66L200.88,131.82L205.2,134.91L207.36,133.29L209.52,140.46L211.68,142.65L213.84,143.5L216,143.49L218.16,144.35L220.32,141.24L222.48,139.41L224.64,131.1L226.8,143.89L228.96,150.39L231.12,154.58L233.28,155.55L235.44,152.37L237.6,150.67L239.76,161.74L241.92,165.84L244.08,163.64L246.24,170.55L248.4,170.64L250.56,186.35L252.72,198.81L254.88,221.88L257.04,224.33L259.2,221.14L261.36,223.8L263.52,215.64L265.68,219.24L267.84,215L270,220.7L272.16,213.37L274.32,210.89L276.48,212.29L278.64,209.87L280.8,205.63L282.96,199.85L285.12,197.98L287.28,203.56L289.44,199.95L295.92,191.54L298.08,188.21L300.24,195.48L302.4,195.53L308.88,181.94L311.04,182.37L313.2,179.44L315.36,182.13L317.52,193.78L319.68,192.51L321.84,189.01L324,200.73L326.16,189.82L328.32,190.76L330.48,185.79L332.64,193.58L339.12,151.55L341.28,157.07L343.44,142.58L345.6,137.97L347.76,139.87L349.92,130.27L352.08,132.99L354.24,122.37L358.56,103.55L360.72,100.72L362.88,108.79L365.04,90.37L367.2,98.3L369.36,116.26L371.52,124.55L373.68,104.41L375.84,124.7L378,118.34L380.16,117.73L382.32,116.24L384.48,116.22L386.64,92.81L390.96,84.1L393.12,57.26L395.28,76.14L397.44,73.13L399.6,66.23L401.76,56.61L403.92,58.02L406.08,47.47L408.24,58.43L410.4,56.24L412.56,36.28L414.72,34.55L416.88,32.49L419.04,16L423.36,37.39L425.52,42.11L427.68,39.96L429.84,89.29L432,60.04L434.16,61.43L436.32,52.74L438.48,50L440.64,44.25L442.8,50.96L444.96,46.62L447.12,56.45L449.28,42.02L451.44,40.79L453.6,39.54L455.76,33.64L457.92,32.76L460.08,34.35L462.24,24.02L464.4,39.49L466.56,35.16L468.72,25.81L473.04,17.72L475.2,24.64L477.36,30.11L479.52,25.62L481.68,25.5L483.84,34.93L486,26.73L488.16,36.08L490.32,32.19L492.48,35.76L494.64,33.31L496.8,27.12L498.96,28.12L501.12,34.88L503.28,50.22L505.44,38.88L507.6,37.11L509.76,57.67L511.92,63.97L514.08,79.32L516.24,84.4L518.4,78.77L522.72,86.22L524.88,85.98L527.04,93.26L529.2,85.68L531.36,78.21L533.52,80.28L535.68,85.95L537.84,73.4L540,80.47" style="fill: rgb(99, 110, 250); fill-opacity: 0.5; stroke-width: 0;"/></g></g><g class="errorbars"/><g class="lines"><path class="js-line" d="M0,315.21L2.16,308.2L4.32,309.6L6.48,307.86L8.64,316.62L10.8,310.15L12.96,308.43L15.12,308.53L17.28,302.78L19.44,314.76L21.6,304.95L23.76,298.45L25.92,299.81L28.08,303.59L30.24,297.75L32.4,298.09L34.56,293.74L36.72,293.85L38.88,297.45L41.04,295.34L43.2,295.74L45.36,300.66L47.52,297.94L49.68,297.56L51.84,299.93L54,299.91L56.16,297.38L58.32,293.95L60.48,293.03L62.64,288.21L64.8,289L66.96,287.66L69.12,289.72L71.28,290.8L73.44,281.18L75.6,236.79L77.76,160.64L79.92,143.01L82.08,141.68L86.4,124.1L88.56,126.59L90.72,105.7L92.88,107.86L95.04,109.31L97.2,115.47L99.36,117.89L101.52,111.52L105.84,150.49L108,142.71L110.16,146.68L112.32,148.41L114.48,152.14L116.64,152.02L118.8,147.55L120.96,145.92L123.12,147.6L125.28,147.39L127.44,154.41L129.6,146.16L131.76,143.3L133.92,143.47L136.08,145.64L138.24,143.84L140.4,143.39L142.56,149.52L144.72,158.8L146.88,151.97L149.04,124.21L151.2,122.07L153.36,124.84L155.52,132.96L157.68,134.28L159.84,137.21L162,133.2L164.16,133.4L168.48,134.56L170.64,142.09L172.8,141.27L174.96,141.67L177.12,141.95L179.28,132.92L181.44,135.49L183.6,127.27L185.76,128.03L187.92,111.33L190.08,118.05L192.24,116.16L194.4,129.64L196.56,124.73L198.72,133.66L200.88,131.82L205.2,134.91L207.36,133.29L209.52,140.46L211.68,142.65L213.84,143.5L216,143.49L218.16,144.35L220.32,141.24L222.48,139.41L224.64,131.1L226.8,143.89L228.96,150.39L231.12,154.58L233.28,155.55L235.44,152.37L237.6,150.67L239.76,161.74L241.92,165.84L244.08,163.64L246.24,170.55L248.4,170.64L250.56,186.35L252.72,198.81L254.88,221.88L257.04,224.33L259.2,221.14L261.36,223.8L263.52,215.64L265.68,219.24L267.84,215L270,220.7L272.16,213.37L274.32,210.89L276.48,212.29L278.64,209.87L280.8,205.63L282.96,199.85L285.12,197.98L287.28,203.56L289.44,199.95L295.92,191.54L298.08,188.21L300.24,195.48L302.4,195.53L308.88,181.94L311.04,182.37L313.2,179.44L315.36,182.13L317.52,193.78L319.68,192.51L321.84,189.01L324,200.73L326.16,189.82L328.32,190.76L330.48,185.79L332.64,193.58L339.12,151.55L341.28,157.07L343.44,142.58L345.6,137.97L347.76,139.87L349.92,130.27L352.08,132.99L354.24,122.37L358.56,103.55L360.72,100.72L362.88,108.79L365.04,90.37L367.2,98.3L369.36,116.26L371.52,124.55L373.68,104.41L375.84,124.7L378,118.34L380.16,117.73L382.32,116.24L384.48,116.22L386.64,92.81L390.96,84.1L393.12,57.26L395.28,76.14L397.44,73.13L399.6,66.23L401.76,56.61L403.92,58.02L406.08,47.47L408.24,58.43L410.4,56.24L412.56,36.28L414.72,34.55L416.88,32.49L419.04,16L423.36,37.39L425.52,42.11L427.68,39.96L429.84,89.29L432,60.04L434.16,61.43L436.32,52.74L438.48,50L440.64,44.25L442.8,50.96L444.96,46.62L447.12,56.45L449.28,42.02L451.44,40.79L453.6,39.54L455.76,33.64L457.92,32.76L460.08,34.35L462.24,24.02L464.4,39.49L466.56,35.16L468.72,25.81L473.04,17.72L475.2,24.64L477.36,30.11L479.52,25.62L481.68,25.5L483.84,34.93L486,26.73L488.16,36.08L490.32,32.19L492.48,35.76L494.64,33.31L496.8,27.12L498.96,28.12L501.12,34.88L503.28,50.22L505.44,38.88L507.6,37.11L509.76,57.67L511.92,63.97L514.08,79.32L516.24,84.4L518.4,78.77L522.72,86.22L524.88,85.98L527.04,93.26L529.2,85.68L531.36,78.21L533.52,80.28L535.68,85.95L537.84,73.4L540,80.47" style="vector-effect: none; fill: none; stroke: rgb(99, 110, 250); stroke-opacity: 1; stroke-width: 2px; opacity: 1;"/></g><g class="points"/><g class="text"/></g></g></g><g class="overplot"/><path class="xlines-above crisp" d="M0,0" style="fill: none;"/><path class="ylines-above crisp" d="M0,0" style="fill: none;"/><g class="overlines-above"/><g class="xaxislayer-above"><g class="xtick"><text text-anchor="middle" x="0" y="433" transform="translate(166.4,0)" style="font-family: 'Open Sans', verdana, arial, sans-serif; font-size: 12px; fill: rgb(42, 63, 95); fill-opacity: 1; white-space: pre; opacity: 1;">Nov 2022</text></g><g class="xtick"><text text-anchor="middle" x="0" y="433" style="font-family: 'Open Sans', verdana, arial, sans-serif; font-size: 12px; fill: rgb(42, 63, 95); fill-opacity: 1; white-space: pre; opacity: 1;" transform="translate(298.15999999999997,0)">Jan 2023</text></g><g class="xtick"><text text-anchor="middle" x="0" y="433" style="font-family: 'Open Sans', verdana, arial, sans-serif; font-size: 12px; fill: rgb(42, 63, 95); fill-opacity: 1; white-space: pre; opacity: 1;" transform="translate(425.6,0)">Mar 2023</text></g><g class="xtick"><text text-anchor="middle" x="0" y="433" style="font-family: 'Open Sans', verdana, arial, sans-serif; font-size: 12px; fill: rgb(42, 63, 95); fill-opacity: 1; white-space: pre; opacity: 1;" transform="translate(557.36,0)">May 2023</text></g></g><g class="yaxislayer-above"><g class="ytick"><text text-anchor="end" x="79" y="4.199999999999999" transform="translate(0,420)" style="font-family: 'Open Sans', verdana, arial, sans-serif; font-size: 12px; fill: rgb(42, 63, 95); fill-opacity: 1; white-space: pre; opacity: 1;">$0</text></g><g class="ytick"><text text-anchor="end" x="79" y="4.199999999999999" style="font-family: 'Open Sans', verdana, arial, sans-serif; font-size: 12px; fill: rgb(42, 63, 95); fill-opacity: 1; white-space: pre; opacity: 1;" transform="translate(0,365.37)">$2M</text></g><g class="ytick"><text text-anchor="end" x="79" y="4.199999999999999" style="font-family: 'Open Sans', verdana, arial, sans-serif; font-size: 12px; fill: rgb(42, 63, 95); fill-opacity: 1; white-space: pre; opacity: 1;" transform="translate(0,310.73)">$4M</text></g><g class="ytick"><text text-anchor="end" x="79" y="4.199999999999999" style="font-family: 'Open Sans', verdana, arial, sans-serif; font-size: 12px; fill: rgb(42, 63, 95); fill-opacity: 1; white-space: pre; opacity: 1;" transform="translate(0,256.1)">$6M</text></g><g class="ytick"><text text-anchor="end" x="79" y="4.199999999999999" style="font-family: 'Open Sans', verdana, arial, sans-serif; font-size: 12px; fill: rgb(42, 63, 95); fill-opacity: 1; white-space: pre; opacity: 1;" transform="translate(0,201.47)">$8M</text></g><g class="ytick"><text text-anchor="end" x="79" y="4.199999999999999" style="font-family: 'Open Sans', verdana, arial, sans-serif; font-size: 12px; fill: rgb(42, 63, 95); fill-opacity: 1; white-space: pre; opacity: 1;" transform="translate(0,146.82999999999998)">$10M</text></g></g><g class="overaxes-above"/></g></g><g class="polarlayer"/><g class="smithlayer"/><g class="ternarylayer"/><g class="geolayer"/><g class="funnelarealayer"/><g class="pielayer"/><g class="iciclelayer"/><g class="treemaplayer"/><g class="sunburstlayer"/><g class="glimages"/><defs id="topdefs-983980"><g class="clips"/></defs><g class="layer-above"><g class="imagelayer"/><g class="shapelayer"/></g><g class="infolayer"><g class="g-gtitle"><text class="gtitle" x="35" y="50" text-anchor="start" dy="0em" style="font-family: 'Open Sans', verdana, arial, sans-serif; font-size: 17px; fill: rgb(42, 63, 95); opacity: 1; font-weight: normal; white-space: pre;"><tspan class="line" dy="0em" x="35" y="50">Hop Protocol</tspan><tspan class="line" dy="1.3em" x="35" y="50">​<tspan style="font-size:70%" dy="-0.6em">Cumulative Net Flows since Program Announcement, Until Program End + 30 Days</tspan><tspan dy="0.42em">​</tspan></tspan></text></g><g class="g-xtitle"><text class="xtitle" x="350" y="460.3" text-anchor="middle" style="font-family: 'Open Sans', verdana, arial, sans-serif; font-size: 14px; fill: rgb(42, 63, 95); opacity: 1; font-weight: normal; white-space: pre;">Day</text></g><g class="g-ytitle"><text class="ytitle" transform="rotate(-90,24.668750000000003,260)" x="24.668750000000003" y="260" text-anchor="middle" style="font-family: 'Open Sans', verdana, arial, sans-serif; font-size: 14px; fill: rgb(42, 63, 95); opacity: 1; font-weight: normal; white-space: pre;">Cumulative Net Flows (USD)</text></g></g></svg>