<svg class="main-svg" xmlns="http://www.w3.org/2000/svg" xmlns:xlink="http://www.w3.org/1999/xlink" width="700" height="500" style="" viewBox="0 0 700 500"><rect x="0" y="0" width="700" height="500" style="fill: rgb(255, 255, 255); fill-opacity: 1;"/><defs id="defs-57cbf6"><g class="clips"><clipPath id="clip57cbf6xyplot" class="plotclip"><rect width="540" height="320"/></clipPath><clipPath class="axesclip" id="clip57cbf6x"><rect x="80" y="0" width="540" height="500"/></clipPath><clipPath class="axesclip" id="clip57cbf6y"><rect x="0" y="100" width="700" height="320"/></clipPath><clipPath class="axesclip" id="clip57cbf6xy"><rect x="80" y="100" width="540" height="320"/></clipPath></g><g class="gradients"/><g class="patterns"/></defs><g class="bglayer"><rect class="bg" x="80" y="100" width="540" height="320" style="fill: rgb(229, 236, 246); fill-opacity: 1; stroke-width: 0;"/></g><g class="layer-below"><g class="imagelayer"/><g class="shapelayer"/></g><g class="cartesianlayer"><g class="subplot xy"><g class="layer-subplot"><g class="shapelayer"/><g class="imagelayer"/></g><g class="minor-gridlayer"><g class="x"/><g class="y"/></g><g class="gridlayer"><g class="x"><path class="xgrid crisp" transform="translate(141.25,0)" d="M0,100v320" style="stroke: rgb(255, 255, 255); stroke-opacity: 1; stroke-width: 1px;"/><path class="xgrid crisp" transform="translate(235.16,0)" d="M0,100v320" style="stroke: rgb(255, 255, 255); stroke-opacity: 1; stroke-width: 1px;"/><path class="xgrid crisp" transform="translate(327.03,0)" d="M0,100v320" style="stroke: rgb(255, 255, 255); stroke-opacity: 1; stroke-width: 1px;"/><path class="xgrid crisp" transform="translate(419.92,0)" d="M0,100v320" style="stroke: rgb(255, 255, 255); stroke-opacity: 1; stroke-width: 1px;"/><path class="xgrid crisp" transform="translate(513.8399999999999,0)" d="M0,100v320" style="stroke: rgb(255, 255, 255); stroke-opacity: 1; stroke-width: 1px;"/><path class="xgrid crisp" transform="translate(607.75,0)" d="M0,100v320" style="stroke: rgb(255, 255, 255); stroke-opacity: 1; stroke-width: 1px;"/></g><g class="y"><path class="ygrid crisp" transform="translate(0,397.2)" d="M80,0h540" style="stroke: rgb(255, 255, 255); stroke-opacity: 1; stroke-width: 1px;"/><path class="ygrid crisp" transform="translate(0,263.57)" d="M80,0h540" style="stroke: rgb(255, 255, 255); stroke-opacity: 1; stroke-width: 1px;"/><path class="ygrid crisp" transform="translate(0,196.76)" d="M80,0h540" style="stroke: rgb(255, 255, 255); stroke-opacity: 1; stroke-width: 1px;"/><path class="ygrid crisp" transform="translate(0,129.95)" d="M80,0h540" style="stroke: rgb(255, 255, 255); stroke-opacity: 1; stroke-width: 1px;"/></g></g><g class="zerolinelayer"><path class="yzl zl crisp" transform="translate(0,330.39)" d="M80,0h540" style="stroke: rgb(255, 255, 255); stroke-opacity: 1; stroke-width: 2px;"/></g><path class="xlines-below"/><path class="ylines-below"/><g class="overlines-below"/><g class="xaxislayer-below"/><g class="yaxislayer-below"/><g class="overaxes-below"/><g class="plot" transform="translate(80,100)" clip-path="url(#clip57cbf6xyplot)"><g class="scatterlayer mlayer"><g class="trace scatter trace541dc6" style="stroke-miterlimit: 2;"><g class="fills"><g><path class="js-fill" d="M540,230.39L0,230.39L0,230.43L1.02,206.68L2.04,147.82L4.08,116.12L5.1,107.66L7.15,82.02L8.17,45.65L9.19,40.31L10.21,44.49L11.23,27.22L12.25,23.23L13.27,22.53L14.29,16.86L15.31,32.71L16.33,16L18.37,22.64L19.4,32.38L23.48,37.29L24.5,37.62L26.54,39.01L27.56,41.37L28.58,40.7L29.6,42.79L31.64,40.03L32.67,49.62L33.69,50.36L34.71,49.66L35.73,48.64L36.75,54.21L38.79,54.85L39.81,59.49L41.85,68.01L42.87,75.39L43.89,89.21L44.91,89.51L45.94,88.81L46.96,60.52L47.98,59.09L49,55.02L51.04,56.5L52.06,60.7L53.08,62.75L54.1,48.26L55.12,46.02L56.14,40.58L57.16,37.78L58.19,39.7L59.21,42.99L60.23,42.17L62.27,38.78L63.29,40.17L64.31,38.09L65.33,40.38L67.37,44.34L68.39,42.34L69.41,41.39L70.43,47.56L71.46,52.86L72.48,51.65L73.5,50.63L74.52,52.09L75.54,51.54L76.56,45.47L77.58,67.28L78.6,71.01L80.64,75.38L81.66,76.19L82.68,101.34L83.71,99.07L84.73,100.67L85.75,107.08L87.79,134.53L88.81,131.92L89.83,113.02L90.85,112.32L91.87,118.62L92.89,115.08L94.93,119.41L95.95,115.12L96.98,119.22L98,109.84L99.02,111.22L100.04,108.1L102.08,135.92L103.1,129.34L104.12,122.15L105.14,126.16L106.16,130.44L107.18,149.07L108.2,145.85L109.22,147.26L110.25,147.62L111.27,139.11L112.29,136.62L113.31,137.49L115.35,132.35L116.37,138.86L117.39,143.08L118.41,142.96L120.45,145.14L121.47,141.05L122.5,143.26L123.52,150.12L124.54,150.1L125.56,143.02L126.58,142.12L127.6,143.67L129.64,141.32L130.66,140.36L131.68,141.44L132.7,148.19L134.74,148.21L135.77,149.18L136.79,150.51L137.81,148.19L138.83,145.32L139.85,147.27L140.87,145.55L141.89,147.04L142.91,144.73L143.93,153.85L145.97,157.27L146.99,158.18L148.02,158.27L149.04,157.16L150.06,156.26L151.08,157.98L153.12,157.95L154.14,165.13L155.16,165.4L156.18,164.02L157.2,163.61L158.22,164.16L160.26,167.25L161.29,165.01L163.33,166.82L164.35,167.59L165.37,169.55L166.39,167.89L167.41,150.54L168.43,146.87L169.45,151.05L170.47,148.05L171.49,147.43L172.51,145.5L173.53,144.39L174.56,141.36L175.58,143.7L176.6,141.53L177.62,140.97L178.64,135.22L179.66,134.99L180.68,135.99L181.7,127.71L182.72,132.21L183.74,128.49L184.76,131.22L185.78,128.39L186.81,130.47L187.83,125.32L188.85,126.23L189.87,127.44L190.89,133.77L191.91,135.15L192.93,134.91L193.95,134.25L194.97,132.08L195.99,131.6L197.01,134.91L198.03,133.11L199.05,134.5L200.08,137.8L201.1,137.43L202.12,137.72L203.14,142.3L205.18,141.02L206.2,142.81L208.24,142.33L209.26,140.58L210.28,139.59L211.3,134.51L212.33,133.8L213.35,135.88L214.37,134.24L215.39,134.96L217.43,137.28L218.45,137.3L219.47,135.97L220.49,139.74L222.53,141.8L223.55,141.64L224.57,142.59L225.6,152.23L226.62,156.92L227.64,153.71L228.66,158.42L229.68,156.13L230.7,164.72L231.72,165.47L232.74,161.69L233.76,162.51L235.8,166.47L236.82,166.66L238.87,171.62L239.89,162.76L240.91,161.46L241.93,163.36L243.97,164.32L244.99,167.48L246.01,174.43L247.03,172.31L249.07,170.96L250.09,169.43L251.12,172.07L252.14,171.87L253.16,171.58L254.18,173.03L256.22,170.79L257.24,171.96L259.28,172.02L260.3,172.23L262.34,171.33L263.36,172.69L266.43,170.73L267.45,168.75L268.47,175.97L269.49,176.8L274.59,179.52L275.61,177.68L276.64,177.25L277.66,177.72L281.74,180.74L282.76,180.03L284.8,183.23L285.82,184.07L286.84,184.98L287.86,183.84L288.88,183.58L289.91,190.75L290.93,189.47L291.95,190.77L292.97,189.81L293.99,191.4L296.03,192.07L297.05,195.11L298.07,195.18L299.09,198.62L302.16,245.74L303.18,168.3L305.22,167.93L306.24,167.86L307.26,166.84L308.28,167.94L309.3,168.01L310.32,166.87L314.4,168.63L315.43,198.3L316.45,201.64L317.47,200.6L320.53,204.82L321.55,204.76L322.57,204.76L323.59,207.54L324.61,208.17L325.63,207.85L326.65,207.99L327.67,207.35L328.7,206.58L329.72,203.13L331.76,202.85L332.78,205.21L334.82,202.61L335.84,200.25L336.86,198.89L337.88,204.84L338.9,202.13L339.92,206.98L344.01,207.51L345.03,210.09L346.05,209.69L347.07,212.1L349.11,210.99L350.13,211.33L352.17,211.03L353.19,211.62L354.22,207.18L355.24,208.11L356.26,213.2L357.28,213.25L358.3,215.11L359.32,213.84L361.36,213.08L362.38,212.23L363.4,211.47L364.42,213.77L365.44,214.46L366.47,210.68L367.49,209.68L368.51,210.29L370.55,210.12L371.57,209.82L372.59,207.42L373.61,207.41L374.63,211.44L375.65,212.12L376.67,211.59L377.69,214.43L378.71,213.26L379.74,210.32L381.78,207.91L382.8,211.91L384.84,214.27L385.86,214.43L387.9,214.68L388.92,218.74L389.94,221.27L390.96,219.93L391.98,220.38L393.01,219.73L394.03,218.02L395.05,218.4L396.07,219.3L397.09,211.03L398.11,209.89L399.13,215.95L400.15,216.3L401.17,215.26L402.19,213.86L403.21,221.27L405.26,219.7L406.28,220.21L408.32,220.06L409.34,220.44L410.36,220.12L411.38,218.92L413.42,217.35L414.44,217.68L416.48,216.09L417.5,213.36L418.53,214.29L419.55,213.34L421.59,212.38L422.61,214.42L424.65,213.58L425.67,217.8L427.71,217.3L428.73,217.1L430.78,216.27L431.8,216.96L432.82,221.48L433.84,220.64L434.86,221.09L435.88,211.37L437.92,207.6L438.94,209.09L440.98,209.09L442,209.48L443.02,209.74L444.05,211L446.09,210.24L447.11,212.8L450.17,211.2L451.19,210.28L453.23,209.38L454.25,217.69L456.29,217L457.32,217.52L458.34,221.05L459.36,220.67L461.4,225.06L462.42,224.92L463.44,224.9L464.46,223.15L465.48,221.6L466.5,221.73L467.52,221.73L468.54,222.92L473.65,221.17L474.67,225.49L475.69,228.17L476.71,237.01L477.73,239.84L478.75,240.05L480.79,240.07L481.81,243.18L486.92,239.96L487.94,240.31L488.96,240.05L489.98,232.64L491,231.02L492.02,239.78L496.11,239.68L497.13,243.67L498.15,242.28L499.17,244.4L501.21,244.23L502.23,244.24L505.29,246.67L506.31,246.28L507.33,247.88L508.36,254.44L509.38,254.14L510.4,257.31L511.42,262.18L512.44,262.16L513.46,266.07L514.48,266.09L517.54,266.77L518.56,269.4L519.58,269.69L520.6,272.11L521.63,264.05L522.65,264.11L524.69,264.42L525.71,273.34L526.73,303.01L527.75,303.24L529.79,303.24L530.81,303.99L531.83,304L532.85,302.6L534.9,303.04L535.92,297.65L536.94,297.61L537.96,298.96L538.98,303.76L540,303.69" style="fill: rgb(99, 110, 250); fill-opacity: 0.5; stroke-width: 0;"/></g></g><g class="errorbars"/><g class="lines"><path class="js-line" d="M0,230.43L1.02,206.68L2.04,147.82L4.08,116.12L5.1,107.66L7.15,82.02L8.17,45.65L9.19,40.31L10.21,44.49L11.23,27.22L12.25,23.23L13.27,22.53L14.29,16.86L15.31,32.71L16.33,16L18.37,22.64L19.4,32.38L23.48,37.29L24.5,37.62L26.54,39.01L27.56,41.37L28.58,40.7L29.6,42.79L31.64,40.03L32.67,49.62L33.69,50.36L34.71,49.66L35.73,48.64L36.75,54.21L38.79,54.85L39.81,59.49L41.85,68.01L42.87,75.39L43.89,89.21L44.91,89.51L45.94,88.81L46.96,60.52L47.98,59.09L49,55.02L51.04,56.5L52.06,60.7L53.08,62.75L54.1,48.26L55.12,46.02L56.14,40.58L57.16,37.78L58.19,39.7L59.21,42.99L60.23,42.17L62.27,38.78L63.29,40.17L64.31,38.09L65.33,40.38L67.37,44.34L68.39,42.34L69.41,41.39L70.43,47.56L71.46,52.86L72.48,51.65L73.5,50.63L74.52,52.09L75.54,51.54L76.56,45.47L77.58,67.28L78.6,71.01L80.64,75.38L81.66,76.19L82.68,101.34L83.71,99.07L84.73,100.67L85.75,107.08L87.79,134.53L88.81,131.92L89.83,113.02L90.85,112.32L91.87,118.62L92.89,115.08L94.93,119.41L95.95,115.12L96.98,119.22L98,109.84L99.02,111.22L100.04,108.1L102.08,135.92L103.1,129.34L104.12,122.15L105.14,126.16L106.16,130.44L107.18,149.07L108.2,145.85L109.22,147.26L110.25,147.62L111.27,139.11L112.29,136.62L113.31,137.49L115.35,132.35L116.37,138.86L117.39,143.08L118.41,142.96L120.45,145.14L121.47,141.05L122.5,143.26L123.52,150.12L124.54,150.1L125.56,143.02L126.58,142.12L127.6,143.67L129.64,141.32L130.66,140.36L131.68,141.44L132.7,148.19L134.74,148.21L135.77,149.18L136.79,150.51L137.81,148.19L138.83,145.32L139.85,147.27L140.87,145.55L141.89,147.04L142.91,144.73L143.93,153.85L145.97,157.27L146.99,158.18L148.02,158.27L149.04,157.16L150.06,156.26L151.08,157.98L153.12,157.95L154.14,165.13L155.16,165.4L156.18,164.02L157.2,163.61L158.22,164.16L160.26,167.25L161.29,165.01L163.33,166.82L164.35,167.59L165.37,169.55L166.39,167.89L167.41,150.54L168.43,146.87L169.45,151.05L170.47,148.05L171.49,147.43L172.51,145.5L173.53,144.39L174.56,141.36L175.58,143.7L176.6,141.53L177.62,140.97L178.64,135.22L179.66,134.99L180.68,135.99L181.7,127.71L182.72,132.21L183.74,128.49L184.76,131.22L185.78,128.39L186.81,130.47L187.83,125.32L188.85,126.23L189.87,127.44L190.89,133.77L191.91,135.15L192.93,134.91L193.95,134.25L194.97,132.08L195.99,131.6L197.01,134.91L198.03,133.11L199.05,134.5L200.08,137.8L201.1,137.43L202.12,137.72L203.14,142.3L205.18,141.02L206.2,142.81L208.24,142.33L209.26,140.58L210.28,139.59L211.3,134.51L212.33,133.8L213.35,135.88L214.37,134.24L215.39,134.96L217.43,137.28L218.45,137.3L219.47,135.97L220.49,139.74L222.53,141.8L223.55,141.64L224.57,142.59L225.6,152.23L226.62,156.92L227.64,153.71L228.66,158.42L229.68,156.13L230.7,164.72L231.72,165.47L232.74,161.69L233.76,162.51L235.8,166.47L236.82,166.66L238.87,171.62L239.89,162.76L240.91,161.46L241.93,163.36L243.97,164.32L244.99,167.48L246.01,174.43L247.03,172.31L249.07,170.96L250.09,169.43L251.12,172.07L252.14,171.87L253.16,171.58L254.18,173.03L256.22,170.79L257.24,171.96L259.28,172.02L260.3,172.23L262.34,171.33L263.36,172.69L266.43,170.73L267.45,168.75L268.47,175.97L269.49,176.8L274.59,179.52L275.61,177.68L276.64,177.25L277.66,177.72L281.74,180.74L282.76,180.03L284.8,183.23L285.82,184.07L286.84,184.98L287.86,183.84L288.88,183.58L289.91,190.75L290.93,189.47L291.95,190.77L292.97,189.81L293.99,191.4L296.03,192.07L297.05,195.11L298.07,195.18L299.09,198.62L302.16,245.74L303.18,168.3L305.22,167.93L306.24,167.86L307.26,166.84L308.28,167.94L309.3,168.01L310.32,166.87L314.4,168.63L315.43,198.3L316.45,201.64L317.47,200.6L320.53,204.82L321.55,204.76L322.57,204.76L323.59,207.54L324.61,208.17L325.63,207.85L326.65,207.99L327.67,207.35L328.7,206.58L329.72,203.13L331.76,202.85L332.78,205.21L334.82,202.61L335.84,200.25L336.86,198.89L337.88,204.84L338.9,202.13L339.92,206.98L344.01,207.51L345.03,210.09L346.05,209.69L347.07,212.1L349.11,210.99L350.13,211.33L352.17,211.03L353.19,211.62L354.22,207.18L355.24,208.11L356.26,213.2L357.28,213.25L358.3,215.11L359.32,213.84L361.36,213.08L362.38,212.23L363.4,211.47L364.42,213.77L365.44,214.46L366.47,210.68L367.49,209.68L368.51,210.29L370.55,210.12L371.57,209.82L372.59,207.42L373.61,207.41L374.63,211.44L375.65,212.12L376.67,211.59L377.69,214.43L378.71,213.26L379.74,210.32L381.78,207.91L382.8,211.91L384.84,214.27L385.86,214.43L387.9,214.68L388.92,218.74L389.94,221.27L390.96,219.93L391.98,220.38L393.01,219.73L394.03,218.02L395.05,218.4L396.07,219.3L397.09,211.03L398.11,209.89L399.13,215.95L400.15,216.3L401.17,215.26L402.19,213.86L403.21,221.27L405.26,219.7L406.28,220.21L408.32,220.06L409.34,220.44L410.36,220.12L411.38,218.92L413.42,217.35L414.44,217.68L416.48,216.09L417.5,213.36L418.53,214.29L419.55,213.34L421.59,212.38L422.61,214.42L424.65,213.58L425.67,217.8L427.71,217.3L428.73,217.1L430.78,216.27L431.8,216.96L432.82,221.48L433.84,220.64L434.86,221.09L435.88,211.37L437.92,207.6L438.94,209.09L440.98,209.09L442,209.48L443.02,209.74L444.05,211L446.09,210.24L447.11,212.8L450.17,211.2L451.19,210.28L453.23,209.38L454.25,217.69L456.29,217L457.32,217.52L458.34,221.05L459.36,220.67L461.4,225.06L462.42,224.92L463.44,224.9L464.46,223.15L465.48,221.6L466.5,221.73L467.52,221.73L468.54,222.92L473.65,221.17L474.67,225.49L475.69,228.17L476.71,237.01L477.73,239.84L478.75,240.05L480.79,240.07L481.81,243.18L486.92,239.96L487.94,240.31L488.96,240.05L489.98,232.64L491,231.02L492.02,239.78L496.11,239.68L497.13,243.67L498.15,242.28L499.17,244.4L501.21,244.23L502.23,244.24L505.29,246.67L506.31,246.28L507.33,247.88L508.36,254.44L509.38,254.14L510.4,257.31L511.42,262.18L512.44,262.16L513.46,266.07L514.48,266.09L517.54,266.77L518.56,269.4L519.58,269.69L520.6,272.11L521.63,264.05L522.65,264.11L524.69,264.42L525.71,273.34L526.73,303.01L527.75,303.24L529.79,303.24L530.81,303.99L531.83,304L532.85,302.6L534.9,303.04L535.92,297.65L536.94,297.61L537.96,298.96L538.98,303.76L540,303.69" style="vector-effect: none; fill: none; stroke: rgb(99, 110, 250); stroke-opacity: 1; stroke-width: 2px; opacity: 1;"/></g><g class="points"/><g class="text"/></g></g></g><g class="overplot"/><path class="xlines-above crisp" d="M0,0" style="fill: none;"/><path class="ylines-above crisp" d="M0,0" style="fill: none;"/><g class="overlines-above"/><g class="xaxislayer-above"><g class="xtick"><text text-anchor="middle" x="0" y="433" transform="translate(141.25,0)" style="font-family: 'Open Sans', verdana, arial, sans-serif; font-size: 12px; fill: rgb(42, 63, 95); fill-opacity: 1; white-space: pre; opacity: 1;">Oct 2022</text></g><g class="xtick"><text text-anchor="middle" x="0" y="433" style="font-family: 'Open Sans', verdana, arial, sans-serif; font-size: 12px; fill: rgb(42, 63, 95); fill-opacity: 1; white-space: pre; opacity: 1;" transform="translate(235.16,0)">Jan 2023</text></g><g class="xtick"><text text-anchor="middle" x="0" y="433" style="font-family: 'Open Sans', verdana, arial, sans-serif; font-size: 12px; fill: rgb(42, 63, 95); fill-opacity: 1; white-space: pre; opacity: 1;" transform="translate(327.03,0)">Apr 2023</text></g><g class="xtick"><text text-anchor="middle" x="0" y="433" style="font-family: 'Open Sans', verdana, arial, sans-serif; font-size: 12px; fill: rgb(42, 63, 95); fill-opacity: 1; white-space: pre; opacity: 1;" transform="translate(419.92,0)">Jul 2023</text></g><g class="xtick"><text text-anchor="middle" x="0" y="433" style="font-family: 'Open Sans', verdana, arial, sans-serif; font-size: 12px; fill: rgb(42, 63, 95); fill-opacity: 1; white-space: pre; opacity: 1;" transform="translate(513.8399999999999,0)">Oct 2023</text></g><g class="xtick"><text text-anchor="middle" x="0" y="433" style="font-family: 'Open Sans', verdana, arial, sans-serif; font-size: 12px; fill: rgb(42, 63, 95); fill-opacity: 1; white-space: pre; opacity: 1;" transform="translate(607.75,0)">Jan 2024</text></g></g><g class="yaxislayer-above"><g class="ytick"><text text-anchor="end" x="79" y="4.199999999999999" transform="translate(0,397.2)" style="font-family: 'Open Sans', verdana, arial, sans-serif; font-size: 12px; fill: rgb(42, 63, 95); fill-opacity: 1; white-space: pre; opacity: 1;">$−5M</text></g><g class="ytick"><text text-anchor="end" x="79" y="4.199999999999999" style="font-family: 'Open Sans', verdana, arial, sans-serif; font-size: 12px; fill: rgb(42, 63, 95); fill-opacity: 1; white-space: pre; opacity: 1;" transform="translate(0,330.39)">$0</text></g><g class="ytick"><text text-anchor="end" x="79" y="4.199999999999999" style="font-family: 'Open Sans', verdana, arial, sans-serif; font-size: 12px; fill: rgb(42, 63, 95); fill-opacity: 1; white-space: pre; opacity: 1;" transform="translate(0,263.57)">$5M</text></g><g class="ytick"><text text-anchor="end" x="79" y="4.199999999999999" style="font-family: 'Open Sans', verdana, arial, sans-serif; font-size: 12px; fill: rgb(42, 63, 95); fill-opacity: 1; white-space: pre; opacity: 1;" transform="translate(0,196.76)">$10M</text></g><g class="ytick"><text text-anchor="end" x="79" y="4.199999999999999" style="font-family: 'Open Sans', verdana, arial, sans-serif; font-size: 12px; fill: rgb(42, 63, 95); fill-opacity: 1; white-space: pre; opacity: 1;" transform="translate(0,129.95)">$15M</text></g></g><g class="overaxes-above"/></g></g><g class="polarlayer"/><g class="smithlayer"/><g class="ternarylayer"/><g class="geolayer"/><g class="funnelarealayer"/><g class="pielayer"/><g class="iciclelayer"/><g class="treemaplayer"/><g class="sunburstlayer"/><g class="glimages"/><defs id="topdefs-57cbf6"><g class="clips"/></defs><g class="layer-above"><g class="imagelayer"/><g class="shapelayer"/></g><g class="infolayer"><g class="g-gtitle"><text class="gtitle" x="35" y="50" text-anchor="start" dy="0em" style="font-family: 'Open Sans', verdana, arial, sans-serif; font-size: 17px; fill: rgb(42, 63, 95); opacity: 1; font-weight: normal; white-space: pre;"><tspan class="line" dy="0em" x="35" y="50">Lyra*</tspan><tspan class="line" dy="1.3em" x="35" y="50">​<tspan style="font-size:70%" dy="-0.6em">Cumulative Net Flows since Program Announcement, Until Program End + 30 Days</tspan><tspan dy="0.42em">​</tspan></tspan></text></g><g class="g-xtitle"><text class="xtitle" x="350" y="460.3" text-anchor="middle" style="font-family: 'Open Sans', verdana, arial, sans-serif; font-size: 14px; fill: rgb(42, 63, 95); opacity: 1; font-weight: normal; white-space: pre;">Day</text></g><g class="g-ytitle"><text class="ytitle" transform="rotate(-90,24.340625000000003,260)" x="24.340625000000003" y="260" text-anchor="middle" style="font-family: 'Open Sans', verdana, arial, sans-serif; font-size: 14px; fill: rgb(42, 63, 95); opacity: 1; font-weight: normal; white-space: pre;">Cumulative Net Flows (USD)</text></g></g></svg>