<svg class="main-svg" xmlns="http://www.w3.org/2000/svg" xmlns:xlink="http://www.w3.org/1999/xlink" width="700" height="500" style="" viewBox="0 0 700 500"><rect x="0" y="0" width="700" height="500" style="fill: rgb(255, 255, 255); fill-opacity: 1;"/><defs id="defs-56f698"><g class="clips"><clipPath id="clip56f698xyplot" class="plotclip"><rect width="540" height="320"/></clipPath><clipPath class="axesclip" id="clip56f698x"><rect x="80" y="0" width="540" height="500"/></clipPath><clipPath class="axesclip" id="clip56f698y"><rect x="0" y="100" width="700" height="320"/></clipPath><clipPath class="axesclip" id="clip56f698xy"><rect x="80" y="100" width="540" height="320"/></clipPath></g><g class="gradients"/><g class="patterns"/></defs><g class="bglayer"><rect class="bg" x="80" y="100" width="540" height="320" style="fill: rgb(229, 236, 246); fill-opacity: 1; stroke-width: 0;"/></g><g class="layer-below"><g class="imagelayer"/><g class="shapelayer"/></g><g class="cartesianlayer"><g class="subplot xy"><g class="layer-subplot"><g class="shapelayer"/><g class="imagelayer"/></g><g class="minor-gridlayer"><g class="x"/><g class="y"/></g><g class="gridlayer"><g class="x"><path class="xgrid crisp" transform="translate(178.32999999999998,0)" d="M0,100v320" style="stroke: rgb(255, 255, 255); stroke-opacity: 1; stroke-width: 1px;"/><path class="xgrid crisp" transform="translate(280,0)" d="M0,100v320" style="stroke: rgb(255, 255, 255); stroke-opacity: 1; stroke-width: 1px;"/><path class="xgrid crisp" transform="translate(383.33,0)" d="M0,100v320" style="stroke: rgb(255, 255, 255); stroke-opacity: 1; stroke-width: 1px;"/><path class="xgrid crisp" transform="translate(485,0)" d="M0,100v320" style="stroke: rgb(255, 255, 255); stroke-opacity: 1; stroke-width: 1px;"/><path class="xgrid crisp" transform="translate(586.6700000000001,0)" d="M0,100v320" style="stroke: rgb(255, 255, 255); stroke-opacity: 1; stroke-width: 1px;"/></g><g class="y"><path class="ygrid crisp" transform="translate(0,407.63)" d="M80,0h540" style="stroke: rgb(255, 255, 255); stroke-opacity: 1; stroke-width: 1px;"/><path class="ygrid crisp" transform="translate(0,339.83000000000004)" d="M80,0h540" style="stroke: rgb(255, 255, 255); stroke-opacity: 1; stroke-width: 1px;"/><path class="ygrid crisp" transform="translate(0,204.24)" d="M80,0h540" style="stroke: rgb(255, 255, 255); stroke-opacity: 1; stroke-width: 1px;"/><path class="ygrid crisp" transform="translate(0,136.45)" d="M80,0h540" style="stroke: rgb(255, 255, 255); stroke-opacity: 1; stroke-width: 1px;"/></g></g><g class="zerolinelayer"><path class="yzl zl crisp" transform="translate(0,272.03999999999996)" d="M80,0h540" style="stroke: rgb(255, 255, 255); stroke-opacity: 1; stroke-width: 2px;"/></g><path class="xlines-below"/><path class="ylines-below"/><g class="overlines-below"/><g class="xaxislayer-below"/><g class="yaxislayer-below"/><g class="overaxes-below"/><g class="plot" transform="translate(80,100)" clip-path="url(#clip56f698xyplot)"><g class="scatterlayer mlayer"><g class="trace scatter tracef4918b" style="stroke-miterlimit: 2;"><g class="fills"><g><path class="js-fill" d="M540,172.04L0,172.04L0,152.91L1.67,94.47L3.33,110.31L5,112.04L6.67,52.95L8.33,50.19L10,103.16L11.67,105.77L13.33,139.37L15,242.31L16.67,231.45L18.33,166.16L20,151.2L21.67,147.06L23.33,146.67L25,144.29L26.67,139.7L28.33,126.19L30,122.12L31.67,122.14L33.33,88.11L35,88.6L36.67,96.76L38.33,130.48L40,113.29L41.67,117.75L43.33,113.31L45,113.53L46.67,131.09L48.33,84.74L50,84.92L51.67,80.91L53.33,79.84L55,64.67L56.67,81.64L58.33,78.2L60,76.48L61.67,16L63.33,54.24L65,33.44L66.67,68.85L68.33,67.61L70,77.51L73.33,69.89L75,59.06L76.67,51.78L78.33,36.1L80,43.89L81.67,47.84L83.33,27.54L85,39.37L86.67,28.82L88.33,34.22L90,304L125,85.51L126.67,85.51L128.33,90.45L130,91.57L131.67,95.74L136.67,94.44L138.33,99.34L141.67,82.28L143.33,82.18L145,120.06L146.67,125.43L148.33,126.35L150,135.56L151.67,151.31L153.33,152.19L155,171.33L156.67,175.4L158.33,175.96L160,179.39L161.67,173.46L163.33,179.93L170,180.48L171.67,181.65L173.33,182.82L175,216.62L176.67,218.34L178.33,232.04L180,233.48L181.67,237.87L185,236.58L186.67,237.18L188.33,235.11L190,234.38L191.67,233.71L193.33,234.86L195,234.85L196.67,246.91L203.33,247.55L205,247.53L206.67,248.38L208.33,248.36L210,250.74L211.67,271.17L213.33,266.66L215,268.11L216.67,269.26L218.33,269.29L220,270.61L221.67,273.49L223.33,275.7L225,275.84L226.67,278.28L228.33,278.27L233.33,278.27L235,282.27L255,281.97L256.67,281.84L260,281.31L261.67,281.31L263.33,281.33L265,282.83L268.33,282.78L270,286.11L271.67,301.46L275,286.31L278.33,286.3L280,289.39L281.67,289.66L283.33,292.27L293.33,292.94L295,293.03L306.67,293.14L308.33,279.56L321.67,279.66L323.33,293.7L338.33,293.84L340,293.89L358.33,294.45L360,293.6L395,293.88L396.67,294.83L415,295.41L416.67,296.08L420,296.64L421.67,296.64L435,296.87L436.67,301.37L438.33,296.85L440,296.86L521.67,297.88L523.33,296.59L525,296.43L526.67,297.89L530,298.31L531.67,298.29L540,298.4" style="fill: rgb(99, 110, 250); fill-opacity: 0.5; stroke-width: 0;"/></g></g><g class="errorbars"/><g class="lines"><path class="js-line" d="M0,152.91L1.67,94.47L3.33,110.31L5,112.04L6.67,52.95L8.33,50.19L10,103.16L11.67,105.77L13.33,139.37L15,242.31L16.67,231.45L18.33,166.16L20,151.2L21.67,147.06L23.33,146.67L25,144.29L26.67,139.7L28.33,126.19L30,122.12L31.67,122.14L33.33,88.11L35,88.6L36.67,96.76L38.33,130.48L40,113.29L41.67,117.75L43.33,113.31L45,113.53L46.67,131.09L48.33,84.74L50,84.92L51.67,80.91L53.33,79.84L55,64.67L56.67,81.64L58.33,78.2L60,76.48L61.67,16L63.33,54.24L65,33.44L66.67,68.85L68.33,67.61L70,77.51L73.33,69.89L75,59.06L76.67,51.78L78.33,36.1L80,43.89L81.67,47.84L83.33,27.54L85,39.37L86.67,28.82L88.33,34.22L90,304L125,85.51L126.67,85.51L128.33,90.45L130,91.57L131.67,95.74L136.67,94.44L138.33,99.34L141.67,82.28L143.33,82.18L145,120.06L146.67,125.43L148.33,126.35L150,135.56L151.67,151.31L153.33,152.19L155,171.33L156.67,175.4L158.33,175.96L160,179.39L161.67,173.46L163.33,179.93L170,180.48L171.67,181.65L173.33,182.82L175,216.62L176.67,218.34L178.33,232.04L180,233.48L181.67,237.87L185,236.58L186.67,237.18L188.33,235.11L190,234.38L191.67,233.71L193.33,234.86L195,234.85L196.67,246.91L203.33,247.55L205,247.53L206.67,248.38L208.33,248.36L210,250.74L211.67,271.17L213.33,266.66L215,268.11L216.67,269.26L218.33,269.29L220,270.61L221.67,273.49L223.33,275.7L225,275.84L226.67,278.28L228.33,278.27L233.33,278.27L235,282.27L255,281.97L256.67,281.84L260,281.31L261.67,281.31L263.33,281.33L265,282.83L268.33,282.78L270,286.11L271.67,301.46L275,286.31L278.33,286.3L280,289.39L281.67,289.66L283.33,292.27L293.33,292.94L295,293.03L306.67,293.14L308.33,279.56L321.67,279.66L323.33,293.7L338.33,293.84L340,293.89L358.33,294.45L360,293.6L395,293.88L396.67,294.83L415,295.41L416.67,296.08L420,296.64L421.67,296.64L435,296.87L436.67,301.37L438.33,296.85L440,296.86L521.67,297.88L523.33,296.59L525,296.43L526.67,297.89L530,298.31L531.67,298.29L540,298.4" style="vector-effect: none; fill: none; stroke: rgb(99, 110, 250); stroke-opacity: 1; stroke-width: 2px; opacity: 1;"/></g><g class="points"/><g class="text"/></g></g></g><g class="overplot"/><path class="xlines-above crisp" d="M0,0" style="fill: none;"/><path class="ylines-above crisp" d="M0,0" style="fill: none;"/><g class="overlines-above"/><g class="xaxislayer-above"><g class="xtick"><text text-anchor="middle" x="0" y="433" transform="translate(178.32999999999998,0)" style="font-family: 'Open Sans', verdana, arial, sans-serif; font-size: 12px; fill: rgb(42, 63, 95); fill-opacity: 1; white-space: pre; opacity: 1;">May 2023</text></g><g class="xtick"><text text-anchor="middle" x="0" y="433" style="font-family: 'Open Sans', verdana, arial, sans-serif; font-size: 12px; fill: rgb(42, 63, 95); fill-opacity: 1; white-space: pre; opacity: 1;" transform="translate(280,0)">Jul 2023</text></g><g class="xtick"><text text-anchor="middle" x="0" y="433" style="font-family: 'Open Sans', verdana, arial, sans-serif; font-size: 12px; fill: rgb(42, 63, 95); fill-opacity: 1; white-space: pre; opacity: 1;" transform="translate(383.33,0)">Sep 2023</text></g><g class="xtick"><text text-anchor="middle" x="0" y="433" style="font-family: 'Open Sans', verdana, arial, sans-serif; font-size: 12px; fill: rgb(42, 63, 95); fill-opacity: 1; white-space: pre; opacity: 1;" transform="translate(485,0)">Nov 2023</text></g><g class="xtick"><text text-anchor="middle" x="0" y="433" style="font-family: 'Open Sans', verdana, arial, sans-serif; font-size: 12px; fill: rgb(42, 63, 95); fill-opacity: 1; white-space: pre; opacity: 1;" transform="translate(586.6700000000001,0)">Jan 2024</text></g></g><g class="yaxislayer-above"><g class="ytick"><text text-anchor="end" x="79" y="4.199999999999999" transform="translate(0,407.63)" style="font-family: 'Open Sans', verdana, arial, sans-serif; font-size: 12px; fill: rgb(42, 63, 95); fill-opacity: 1; white-space: pre; opacity: 1;">$−2M</text></g><g class="ytick"><text text-anchor="end" x="79" y="4.199999999999999" style="font-family: 'Open Sans', verdana, arial, sans-serif; font-size: 12px; fill: rgb(42, 63, 95); fill-opacity: 1; white-space: pre; opacity: 1;" transform="translate(0,339.83000000000004)">$−1M</text></g><g class="ytick"><text text-anchor="end" x="79" y="4.199999999999999" style="font-family: 'Open Sans', verdana, arial, sans-serif; font-size: 12px; fill: rgb(42, 63, 95); fill-opacity: 1; white-space: pre; opacity: 1;" transform="translate(0,272.03999999999996)">$0</text></g><g class="ytick"><text text-anchor="end" x="79" y="4.199999999999999" style="font-family: 'Open Sans', verdana, arial, sans-serif; font-size: 12px; fill: rgb(42, 63, 95); fill-opacity: 1; white-space: pre; opacity: 1;" transform="translate(0,204.24)">$1M</text></g><g class="ytick"><text text-anchor="end" x="79" y="4.199999999999999" style="font-family: 'Open Sans', verdana, arial, sans-serif; font-size: 12px; fill: rgb(42, 63, 95); fill-opacity: 1; white-space: pre; opacity: 1;" transform="translate(0,136.45)">$2M</text></g></g><g class="overaxes-above"/></g></g><g class="polarlayer"/><g class="smithlayer"/><g class="ternarylayer"/><g class="geolayer"/><g class="funnelarealayer"/><g class="pielayer"/><g class="iciclelayer"/><g class="treemaplayer"/><g class="sunburstlayer"/><g class="glimages"/><defs id="topdefs-56f698"><g class="clips"/></defs><g class="layer-above"><g class="imagelayer"/><g class="shapelayer"/></g><g class="infolayer"><g class="g-gtitle"><text class="gtitle" x="35" y="50" text-anchor="start" dy="0em" style="font-family: 'Open Sans', verdana, arial, sans-serif; font-size: 17px; fill: rgb(42, 63, 95); opacity: 1; font-weight: normal; white-space: pre;"><tspan class="line" dy="0em" x="35" y="50">Sushi Trident</tspan><tspan class="line" dy="1.3em" x="35" y="50">​<tspan style="font-size:70%" dy="-0.6em">Cumulative Net Flows since Program Announcement, Until Program End + 30 Days</tspan><tspan dy="0.42em">​</tspan></tspan></text></g><g class="g-xtitle"><text class="xtitle" x="350" y="460.3" text-anchor="middle" style="font-family: 'Open Sans', verdana, arial, sans-serif; font-size: 14px; fill: rgb(42, 63, 95); opacity: 1; font-weight: normal; white-space: pre;">Day</text></g><g class="g-ytitle"><text class="ytitle" transform="rotate(-90,24.340625000000003,260)" x="24.340625000000003" y="260" text-anchor="middle" style="font-family: 'Open Sans', verdana, arial, sans-serif; font-size: 14px; fill: rgb(42, 63, 95); opacity: 1; font-weight: normal; white-space: pre;">Cumulative Net Flows (USD)</text></g></g></svg>