<svg class="main-svg" xmlns="http://www.w3.org/2000/svg" xmlns:xlink="http://www.w3.org/1999/xlink" width="700" height="500" style="" viewBox="0 0 700 500"><rect x="0" y="0" width="700" height="500" style="fill: rgb(255, 255, 255); fill-opacity: 1;"/><defs id="defs-bb8332"><g class="clips"><clipPath id="clipbb8332xyplot" class="plotclip"><rect width="540" height="320"/></clipPath><clipPath class="axesclip" id="clipbb8332x"><rect x="80" y="0" width="540" height="500"/></clipPath><clipPath class="axesclip" id="clipbb8332y"><rect x="0" y="100" width="700" height="320"/></clipPath><clipPath class="axesclip" id="clipbb8332xy"><rect x="80" y="100" width="540" height="320"/></clipPath></g><g class="gradients"/><g class="patterns"/></defs><g class="bglayer"><rect class="bg" x="80" y="100" width="540" height="320" style="fill: rgb(229, 236, 246); fill-opacity: 1; stroke-width: 0;"/></g><g class="layer-below"><g class="imagelayer"/><g class="shapelayer"/></g><g class="cartesianlayer"><g class="subplot xy"><g class="layer-subplot"><g class="shapelayer"/><g class="imagelayer"/></g><g class="minor-gridlayer"><g class="x"/><g class="y"/></g><g class="gridlayer"><g class="x"><path class="xgrid crisp" transform="translate(151.37,0)" d="M0,100v320" style="stroke: rgb(255, 255, 255); stroke-opacity: 1; stroke-width: 1px;"/><path class="xgrid crisp" transform="translate(233.52,0)" d="M0,100v320" style="stroke: rgb(255, 255, 255); stroke-opacity: 1; stroke-width: 1px;"/><path class="xgrid crisp" transform="translate(312.97,0)" d="M0,100v320" style="stroke: rgb(255, 255, 255); stroke-opacity: 1; stroke-width: 1px;"/><path class="xgrid crisp" transform="translate(395.11,0)" d="M0,100v320" style="stroke: rgb(255, 255, 255); stroke-opacity: 1; stroke-width: 1px;"/><path class="xgrid crisp" transform="translate(477.26,0)" d="M0,100v320" style="stroke: rgb(255, 255, 255); stroke-opacity: 1; stroke-width: 1px;"/><path class="xgrid crisp" transform="translate(560.75,0)" d="M0,100v320" style="stroke: rgb(255, 255, 255); stroke-opacity: 1; stroke-width: 1px;"/></g><g class="y"><path class="ygrid crisp" transform="translate(0,362.66)" d="M80,0h540" style="stroke: rgb(255, 255, 255); stroke-opacity: 1; stroke-width: 1px;"/><path class="ygrid crisp" transform="translate(0,305.31)" d="M80,0h540" style="stroke: rgb(255, 255, 255); stroke-opacity: 1; stroke-width: 1px;"/><path class="ygrid crisp" transform="translate(0,247.97)" d="M80,0h540" style="stroke: rgb(255, 255, 255); stroke-opacity: 1; stroke-width: 1px;"/><path class="ygrid crisp" transform="translate(0,190.62)" d="M80,0h540" style="stroke: rgb(255, 255, 255); stroke-opacity: 1; stroke-width: 1px;"/><path class="ygrid crisp" transform="translate(0,133.28)" d="M80,0h540" style="stroke: rgb(255, 255, 255); stroke-opacity: 1; stroke-width: 1px;"/></g></g><g class="zerolinelayer"><path class="yzl zl crisp" transform="translate(0,420)" d="M80,0h540" style="stroke: rgb(255, 255, 255); stroke-opacity: 1; stroke-width: 2px;"/></g><path class="xlines-below"/><path class="ylines-below"/><g class="overlines-below"/><g class="xaxislayer-below"/><g class="yaxislayer-below"/><g class="overaxes-below"/><g class="plot" transform="translate(80,100)" clip-path="url(#clipbb8332xyplot)"><g class="scatterlayer mlayer"><g class="trace scatter trace3cf5bc" style="stroke-miterlimit: 2;"><g class="fills"><g><path class="js-fill" d="M540,320L0,320L0,320L325.89,320L327.23,16L328.58,19.35L329.93,30.71L331.27,36.62L332.62,36.87L333.97,36.92L335.31,34.3L338,34.48L339.35,36.42L340.7,39.31L342.04,38.21L343.39,39.85L344.74,31.85L346.08,28.84L347.43,48.39L350.12,45.79L351.47,45.8L352.82,39.04L354.16,42.52L355.51,40.77L356.86,75.15L359.55,54.78L360.9,55.21L362.24,55.55L363.59,62.23L364.94,56.15L366.28,61.94L367.63,68.42L368.98,68.94L370.32,82.33L371.67,81.97L373.02,84.57L374.36,79.91L375.71,86.54L377.06,87.63L378.4,100.21L379.75,96.14L382.44,96.91L383.79,94.08L385.14,88.04L386.48,89.19L387.83,88.06L389.18,85.77L390.52,83.57L391.87,85.72L393.22,88.99L394.56,146.35L395.91,186.28L397.26,193.21L398.6,187.88L399.95,203.03L401.3,200.61L402.64,201.76L403.99,202.85L405.34,206.19L406.68,204.02L408.03,204.41L409.38,206.71L410.72,205.75L412.07,205.45L413.42,207.58L414.76,205.08L416.11,206.41L417.46,206.11L418.8,213.48L420.15,223.12L421.5,223.64L422.84,225.51L424.19,231.98L426.88,232.37L428.23,234.03L429.58,236.06L430.92,236.48L432.27,235.09L433.62,235.49L436.31,235.07L437.66,240.21L439,240.97L440.35,240.23L441.7,241.39L443.04,241.39L448.43,242.43L449.78,246.09L452.47,246.35L453.82,244.14L457.86,251.75L459.2,252.18L460.55,253.21L461.9,256.5L463.24,257.13L464.59,256.93L468.63,257.56L469.98,256.54L474.01,258.24L475.36,258.66L476.71,258.99L478.05,257.64L479.4,258.48L480.75,260.27L483.44,260.71L484.79,260.69L486.13,266.01L487.48,266.86L492.87,267.1L494.21,268.02L495.56,269.42L496.91,269.01L500.95,267.59L502.29,268.26L503.64,268.64L504.99,268.19L507.68,268.32L509.03,269.49L510.37,269.27L511.72,270.19L514.41,270.44L515.76,270.13L517.11,270.23L518.45,268.95L522.49,267.14L523.84,268.38L527.88,269.76L529.23,269.35L531.92,269.92L533.27,271.24L535.96,271.59L537.31,275.59L538.65,275.4L540,276.35" style="fill: rgb(99, 110, 250); fill-opacity: 0.5; stroke-width: 0;"/></g></g><g class="errorbars"/><g class="lines"><path class="js-line" d="M0,320L325.89,320L327.23,16L328.58,19.35L329.93,30.71L331.27,36.62L332.62,36.87L333.97,36.92L335.31,34.3L338,34.48L339.35,36.42L340.7,39.31L342.04,38.21L343.39,39.85L344.74,31.85L346.08,28.84L347.43,48.39L350.12,45.79L351.47,45.8L352.82,39.04L354.16,42.52L355.51,40.77L356.86,75.15L359.55,54.78L360.9,55.21L362.24,55.55L363.59,62.23L364.94,56.15L366.28,61.94L367.63,68.42L368.98,68.94L370.32,82.33L371.67,81.97L373.02,84.57L374.36,79.91L375.71,86.54L377.06,87.63L378.4,100.21L379.75,96.14L382.44,96.91L383.79,94.08L385.14,88.04L386.48,89.19L387.83,88.06L389.18,85.77L390.52,83.57L391.87,85.72L393.22,88.99L394.56,146.35L395.91,186.28L397.26,193.21L398.6,187.88L399.95,203.03L401.3,200.61L402.64,201.76L403.99,202.85L405.34,206.19L406.68,204.02L408.03,204.41L409.38,206.71L410.72,205.75L412.07,205.45L413.42,207.58L414.76,205.08L416.11,206.41L417.46,206.11L418.8,213.48L420.15,223.12L421.5,223.64L422.84,225.51L424.19,231.98L426.88,232.37L428.23,234.03L429.58,236.06L430.92,236.48L432.27,235.09L433.62,235.49L436.31,235.07L437.66,240.21L439,240.97L440.35,240.23L441.7,241.39L443.04,241.39L448.43,242.43L449.78,246.09L452.47,246.35L453.82,244.14L457.86,251.75L459.2,252.18L460.55,253.21L461.9,256.5L463.24,257.13L464.59,256.93L468.63,257.56L469.98,256.54L474.01,258.24L475.36,258.66L476.71,258.99L478.05,257.64L479.4,258.48L480.75,260.27L483.44,260.71L484.79,260.69L486.13,266.01L487.48,266.86L492.87,267.1L494.21,268.02L495.56,269.42L496.91,269.01L500.95,267.59L502.29,268.26L503.64,268.64L504.99,268.19L507.68,268.32L509.03,269.49L510.37,269.27L511.72,270.19L514.41,270.44L515.76,270.13L517.11,270.23L518.45,268.95L522.49,267.14L523.84,268.38L527.88,269.76L529.23,269.35L531.92,269.92L533.27,271.24L535.96,271.59L537.31,275.59L538.65,275.4L540,276.35" style="vector-effect: none; fill: none; stroke: rgb(99, 110, 250); stroke-opacity: 1; stroke-width: 2px; opacity: 1;"/></g><g class="points"/><g class="text"/></g></g></g><g class="overplot"/><path class="xlines-above crisp" d="M0,0" style="fill: none;"/><path class="ylines-above crisp" d="M0,0" style="fill: none;"/><g class="overlines-above"/><g class="xaxislayer-above"><g class="xtick"><text text-anchor="middle" x="0" y="433" transform="translate(151.37,0)" style="font-family: 'Open Sans', verdana, arial, sans-serif; font-size: 12px; fill: rgb(42, 63, 95); fill-opacity: 1; white-space: pre; opacity: 1;">Nov 2022</text></g><g class="xtick"><text text-anchor="middle" x="0" y="433" style="font-family: 'Open Sans', verdana, arial, sans-serif; font-size: 12px; fill: rgb(42, 63, 95); fill-opacity: 1; white-space: pre; opacity: 1;" transform="translate(233.52,0)">Jan 2023</text></g><g class="xtick"><text text-anchor="middle" x="0" y="433" style="font-family: 'Open Sans', verdana, arial, sans-serif; font-size: 12px; fill: rgb(42, 63, 95); fill-opacity: 1; white-space: pre; opacity: 1;" transform="translate(312.97,0)">Mar 2023</text></g><g class="xtick"><text text-anchor="middle" x="0" y="433" style="font-family: 'Open Sans', verdana, arial, sans-serif; font-size: 12px; fill: rgb(42, 63, 95); fill-opacity: 1; white-space: pre; opacity: 1;" transform="translate(395.11,0)">May 2023</text></g><g class="xtick"><text text-anchor="middle" x="0" y="433" style="font-family: 'Open Sans', verdana, arial, sans-serif; font-size: 12px; fill: rgb(42, 63, 95); fill-opacity: 1; white-space: pre; opacity: 1;" transform="translate(477.26,0)">Jul 2023</text></g><g class="xtick"><text text-anchor="middle" x="0" y="433" style="font-family: 'Open Sans', verdana, arial, sans-serif; font-size: 12px; fill: rgb(42, 63, 95); fill-opacity: 1; white-space: pre; opacity: 1;" transform="translate(560.75,0)">Sep 2023</text></g></g><g class="yaxislayer-above"><g class="ytick"><text text-anchor="end" x="79" y="4.199999999999999" transform="translate(0,420)" style="font-family: 'Open Sans', verdana, arial, sans-serif; font-size: 12px; fill: rgb(42, 63, 95); fill-opacity: 1; white-space: pre; opacity: 1;">$0</text></g><g class="ytick"><text text-anchor="end" x="79" y="4.199999999999999" style="font-family: 'Open Sans', verdana, arial, sans-serif; font-size: 12px; fill: rgb(42, 63, 95); fill-opacity: 1; white-space: pre; opacity: 1;" transform="translate(0,362.66)">$0.5M</text></g><g class="ytick"><text text-anchor="end" x="79" y="4.199999999999999" style="font-family: 'Open Sans', verdana, arial, sans-serif; font-size: 12px; fill: rgb(42, 63, 95); fill-opacity: 1; white-space: pre; opacity: 1;" transform="translate(0,305.31)">$1M</text></g><g class="ytick"><text text-anchor="end" x="79" y="4.199999999999999" style="font-family: 'Open Sans', verdana, arial, sans-serif; font-size: 12px; fill: rgb(42, 63, 95); fill-opacity: 1; white-space: pre; opacity: 1;" transform="translate(0,247.97)">$1.5M</text></g><g class="ytick"><text text-anchor="end" x="79" y="4.199999999999999" style="font-family: 'Open Sans', verdana, arial, sans-serif; font-size: 12px; fill: rgb(42, 63, 95); fill-opacity: 1; white-space: pre; opacity: 1;" transform="translate(0,190.62)">$2M</text></g><g class="ytick"><text text-anchor="end" x="79" y="4.199999999999999" style="font-family: 'Open Sans', verdana, arial, sans-serif; font-size: 12px; fill: rgb(42, 63, 95); fill-opacity: 1; white-space: pre; opacity: 1;" transform="translate(0,133.28)">$2.5M</text></g></g><g class="overaxes-above"/></g></g><g class="polarlayer"/><g class="smithlayer"/><g class="ternarylayer"/><g class="geolayer"/><g class="funnelarealayer"/><g class="pielayer"/><g class="iciclelayer"/><g class="treemaplayer"/><g class="sunburstlayer"/><g class="glimages"/><defs id="topdefs-bb8332"><g class="clips"/></defs><g class="layer-above"><g class="imagelayer"/><g class="shapelayer"/></g><g class="infolayer"><g class="g-gtitle"><text class="gtitle" x="35" y="50" text-anchor="start" dy="0em" style="font-family: 'Open Sans', verdana, arial, sans-serif; font-size: 17px; fill: rgb(42, 63, 95); opacity: 1; font-weight: normal; white-space: pre;"><tspan class="line" dy="0em" x="35" y="50">Pickle - Pickle Finance</tspan><tspan class="line" dy="1.3em" x="35" y="50">​<tspan style="font-size:70%" dy="-0.6em">Cumulative Net Flows since Program Announcement, Until Program End + 30 Days</tspan><tspan dy="0.42em">​</tspan></tspan></text></g><g class="g-xtitle"><text class="xtitle" x="350" y="460.3" text-anchor="middle" style="font-family: 'Open Sans', verdana, arial, sans-serif; font-size: 14px; fill: rgb(42, 63, 95); opacity: 1; font-weight: normal; white-space: pre;">Day</text></g><g class="g-ytitle"><text class="ytitle" transform="rotate(-90,21.340625000000003,260)" x="21.340625000000003" y="260" text-anchor="middle" style="font-family: 'Open Sans', verdana, arial, sans-serif; font-size: 14px; fill: rgb(42, 63, 95); opacity: 1; font-weight: normal; white-space: pre;">Cumulative Net Flows (USD)</text></g></g></svg>