<svg class="main-svg" xmlns="http://www.w3.org/2000/svg" xmlns:xlink="http://www.w3.org/1999/xlink" width="700" height="500" style="" viewBox="0 0 700 500"><rect x="0" y="0" width="700" height="500" style="fill: rgb(255, 255, 255); fill-opacity: 1;"/><defs id="defs-946025"><g class="clips"><clipPath id="clip946025xyplot" class="plotclip"><rect width="540" height="320"/></clipPath><clipPath class="axesclip" id="clip946025x"><rect x="80" y="0" width="540" height="500"/></clipPath><clipPath class="axesclip" id="clip946025y"><rect x="0" y="100" width="700" height="320"/></clipPath><clipPath class="axesclip" id="clip946025xy"><rect x="80" y="100" width="540" height="320"/></clipPath></g><g class="gradients"/><g class="patterns"/></defs><g class="bglayer"><rect class="bg" x="80" y="100" width="540" height="320" style="fill: rgb(229, 236, 246); fill-opacity: 1; stroke-width: 0;"/></g><g class="layer-below"><g class="imagelayer"/><g class="shapelayer"/></g><g class="cartesianlayer"><g class="subplot xy"><g class="layer-subplot"><g class="shapelayer"/><g class="imagelayer"/></g><g class="minor-gridlayer"><g class="x"/><g class="y"/></g><g class="gridlayer"><g class="x"><path class="xgrid crisp" transform="translate(150.51999999999998,0)" d="M0,100v320" style="stroke: rgb(255, 255, 255); stroke-opacity: 1; stroke-width: 1px;"/><path class="xgrid crisp" transform="translate(260,0)" d="M0,100v320" style="stroke: rgb(255, 255, 255); stroke-opacity: 1; stroke-width: 1px;"/><path class="xgrid crisp" transform="translate(373.2,0)" d="M0,100v320" style="stroke: rgb(255, 255, 255); stroke-opacity: 1; stroke-width: 1px;"/><path class="xgrid crisp" transform="translate(486.39,0)" d="M0,100v320" style="stroke: rgb(255, 255, 255); stroke-opacity: 1; stroke-width: 1px;"/><path class="xgrid crisp" transform="translate(601.44,0)" d="M0,100v320" style="stroke: rgb(255, 255, 255); stroke-opacity: 1; stroke-width: 1px;"/></g><g class="y"><path class="ygrid crisp" transform="translate(0,361.29)" d="M80,0h540" style="stroke: rgb(255, 255, 255); stroke-opacity: 1; stroke-width: 1px;"/><path class="ygrid crisp" transform="translate(0,302.58000000000004)" d="M80,0h540" style="stroke: rgb(255, 255, 255); stroke-opacity: 1; stroke-width: 1px;"/><path class="ygrid crisp" transform="translate(0,243.86)" d="M80,0h540" style="stroke: rgb(255, 255, 255); stroke-opacity: 1; stroke-width: 1px;"/><path class="ygrid crisp" transform="translate(0,185.15)" d="M80,0h540" style="stroke: rgb(255, 255, 255); stroke-opacity: 1; stroke-width: 1px;"/><path class="ygrid crisp" transform="translate(0,126.44)" d="M80,0h540" style="stroke: rgb(255, 255, 255); stroke-opacity: 1; stroke-width: 1px;"/></g></g><g class="zerolinelayer"><path class="yzl zl crisp" transform="translate(0,420)" d="M80,0h540" style="stroke: rgb(255, 255, 255); stroke-opacity: 1; stroke-width: 2px;"/></g><path class="xlines-below"/><path class="ylines-below"/><g class="overlines-below"/><g class="xaxislayer-below"/><g class="yaxislayer-below"/><g class="overaxes-below"/><g class="plot" transform="translate(80,100)" clip-path="url(#clip946025xyplot)"><g class="scatterlayer mlayer"><g class="trace scatter trace5778f3" style="stroke-miterlimit: 2;"><g class="fills"><g><path class="js-fill" d="M540,320L0,320L0,317.53L3.71,316.07L5.57,315.02L9.28,317L11.13,314.76L16.7,311.27L18.56,311L20.41,309.55L22.27,310.12L24.12,307.89L25.98,308.07L27.84,306.43L29.69,306.6L31.55,307.94L33.4,304.75L35.26,305.34L37.11,304.26L38.97,305.37L40.82,308.6L42.68,312L44.54,312.91L48.25,312.23L50.1,308.59L57.53,307.09L59.38,307.48L63.09,307.32L64.95,308.34L66.8,306.97L68.66,307.34L70.52,308.35L72.37,308.5L76.08,308.45L77.94,306.94L79.79,307.06L81.65,305.72L85.36,303.51L87.22,301.28L89.07,299.64L90.93,293.13L92.78,293.67L94.64,287.15L96.49,287.66L98.35,285.62L100.21,284.12L102.06,280.9L103.92,281.81L105.77,277.96L107.63,273.08L109.48,271.21L111.34,268.01L113.2,267.83L115.05,264.68L116.91,252.98L120.62,243.03L122.47,240.97L124.33,238.2L126.19,239.64L135.46,213.23L137.32,211.42L141.03,185.77L142.89,180.89L144.74,180.84L146.6,181.93L148.45,174.08L150.31,171.27L152.16,169.39L154.02,164.02L155.88,154.84L157.73,153.89L159.59,137.15L161.44,133.56L163.3,123.2L165.15,105.02L167.01,81.55L168.87,77.78L170.72,66.52L172.58,50.42L174.43,48.6L176.29,30.13L178.14,27.75L180,23.55L181.86,16L183.71,17.86L185.57,30.78L187.42,34.24L191.13,27.81L192.99,27.04L194.85,32.98L196.7,50.5L198.56,86.48L200.41,158.11L205.98,97.09L207.84,96.43L211.55,43.4L213.4,45.17L215.26,42.99L217.11,43.4L218.97,43.73L220.82,47.06L222.68,46.74L224.54,62.2L226.39,63.8L228.25,62.83L230.1,66.95L231.96,66.76L235.67,65.05L237.53,83.76L239.38,77.37L241.24,78.89L243.09,81.53L244.95,73.35L246.8,69.2L248.66,77.72L250.52,82.8L252.37,82.61L254.23,85.69L256.08,85.01L257.94,89.7L259.79,91.21L261.65,81.55L263.51,78.04L267.22,72.38L269.07,67.04L270.93,59.42L272.78,64.97L274.64,65.58L276.49,72.87L280.21,65.93L282.06,58.79L285.77,51.73L287.63,48.42L289.48,49.1L291.34,48.33L295.05,53.55L296.91,55.01L298.76,57.29L300.62,67.02L302.47,59.06L304.33,72.99L306.19,76.46L308.04,83.58L309.9,86.38L311.75,91.05L313.61,102.78L315.46,105.13L317.32,107.75L319.18,108.83L321.03,106.4L322.89,106.56L326.6,110.92L328.45,110.8L330.31,110.53L332.16,113.21L334.02,112.53L335.88,108.05L337.73,118.48L339.59,117.8L341.44,116.24L343.3,116.62L345.15,115.85L347.01,119.57L348.87,121.03L350.72,127.59L352.58,130L354.43,128.19L358.14,124.95L360,132.77L361.86,130.45L363.71,123.07L365.57,121.04L367.42,122.68L369.28,138.45L371.13,138.7L372.99,139.16L374.85,136.61L376.7,147.29L378.56,151.15L380.41,158.28L382.27,156.72L384.12,158.72L385.98,158.1L389.69,151.23L391.55,158.49L393.4,168.35L395.26,171.77L397.11,175.53L398.97,177.53L400.82,180.72L402.68,195.83L404.54,163.95L406.39,146.23L410.1,130.79L411.96,128.82L413.81,124.18L415.67,124.1L419.38,138.24L421.24,135.42L423.09,135.67L424.95,137.27L426.8,139.37L428.66,139.84L430.52,129.74L432.37,132.67L437.94,123.79L439.79,118.06L443.51,109.79L445.36,109.53L449.07,101.22L450.93,104.81L452.78,101.94L454.64,94.97L456.49,93.24L458.35,86.32L460.21,83.49L462.06,96.08L463.92,90.29L465.77,104.27L467.63,102.8L469.48,96.73L471.34,91.59L473.2,92.78L475.05,96.36L476.91,97.56L478.76,99.34L480.62,112.3L482.47,128.29L484.33,133.9L486.19,132.4L488.04,135.02L489.9,136.04L491.75,139.44L493.61,146.04L495.46,161.8L497.32,163.12L499.18,166.55L501.03,161.26L502.89,159.99L504.74,157.75L506.6,160.51L512.16,165.57L514.02,166.3L515.88,169.93L517.73,166.27L519.59,176.11L521.44,202.14L523.3,204.38L525.15,204.44L527.01,207.32L528.87,207.41L532.58,220.43L534.43,221.44L536.29,224.42L538.14,224.36L540,225.42" style="fill: rgb(99, 110, 250); fill-opacity: 0.5; stroke-width: 0;"/></g></g><g class="errorbars"/><g class="lines"><path class="js-line" d="M0,317.53L3.71,316.07L5.57,315.02L9.28,317L11.13,314.76L16.7,311.27L18.56,311L20.41,309.55L22.27,310.12L24.12,307.89L25.98,308.07L27.84,306.43L29.69,306.6L31.55,307.94L33.4,304.75L35.26,305.34L37.11,304.26L38.97,305.37L40.82,308.6L42.68,312L44.54,312.91L48.25,312.23L50.1,308.59L57.53,307.09L59.38,307.48L63.09,307.32L64.95,308.34L66.8,306.97L68.66,307.34L70.52,308.35L72.37,308.5L76.08,308.45L77.94,306.94L79.79,307.06L81.65,305.72L85.36,303.51L87.22,301.28L89.07,299.64L90.93,293.13L92.78,293.67L94.64,287.15L96.49,287.66L98.35,285.62L100.21,284.12L102.06,280.9L103.92,281.81L105.77,277.96L107.63,273.08L109.48,271.21L111.34,268.01L113.2,267.83L115.05,264.68L116.91,252.98L120.62,243.03L122.47,240.97L124.33,238.2L126.19,239.64L135.46,213.23L137.32,211.42L141.03,185.77L142.89,180.89L144.74,180.84L146.6,181.93L148.45,174.08L150.31,171.27L152.16,169.39L154.02,164.02L155.88,154.84L157.73,153.89L159.59,137.15L161.44,133.56L163.3,123.2L165.15,105.02L167.01,81.55L168.87,77.78L170.72,66.52L172.58,50.42L174.43,48.6L176.29,30.13L178.14,27.75L180,23.55L181.86,16L183.71,17.86L185.57,30.78L187.42,34.24L191.13,27.81L192.99,27.04L194.85,32.98L196.7,50.5L198.56,86.48L200.41,158.11L205.98,97.09L207.84,96.43L211.55,43.4L213.4,45.17L215.26,42.99L217.11,43.4L218.97,43.73L220.82,47.06L222.68,46.74L224.54,62.2L226.39,63.8L228.25,62.83L230.1,66.95L231.96,66.76L235.67,65.05L237.53,83.76L239.38,77.37L241.24,78.89L243.09,81.53L244.95,73.35L246.8,69.2L248.66,77.72L250.52,82.8L252.37,82.61L254.23,85.69L256.08,85.01L257.94,89.7L259.79,91.21L261.65,81.55L263.51,78.04L267.22,72.38L269.07,67.04L270.93,59.42L272.78,64.97L274.64,65.58L276.49,72.87L280.21,65.93L282.06,58.79L285.77,51.73L287.63,48.42L289.48,49.1L291.34,48.33L295.05,53.55L296.91,55.01L298.76,57.29L300.62,67.02L302.47,59.06L304.33,72.99L306.19,76.46L308.04,83.58L309.9,86.38L311.75,91.05L313.61,102.78L315.46,105.13L317.32,107.75L319.18,108.83L321.03,106.4L322.89,106.56L326.6,110.92L328.45,110.8L330.31,110.53L332.16,113.21L334.02,112.53L335.88,108.05L337.73,118.48L339.59,117.8L341.44,116.24L343.3,116.62L345.15,115.85L347.01,119.57L348.87,121.03L350.72,127.59L352.58,130L354.43,128.19L358.14,124.95L360,132.77L361.86,130.45L363.71,123.07L365.57,121.04L367.42,122.68L369.28,138.45L371.13,138.7L372.99,139.16L374.85,136.61L376.7,147.29L378.56,151.15L380.41,158.28L382.27,156.72L384.12,158.72L385.98,158.1L389.69,151.23L391.55,158.49L393.4,168.35L395.26,171.77L397.11,175.53L398.97,177.53L400.82,180.72L402.68,195.83L404.54,163.95L406.39,146.23L410.1,130.79L411.96,128.82L413.81,124.18L415.67,124.1L419.38,138.24L421.24,135.42L423.09,135.67L424.95,137.27L426.8,139.37L428.66,139.84L430.52,129.74L432.37,132.67L437.94,123.79L439.79,118.06L443.51,109.79L445.36,109.53L449.07,101.22L450.93,104.81L452.78,101.94L454.64,94.97L456.49,93.24L458.35,86.32L460.21,83.49L462.06,96.08L463.92,90.29L465.77,104.27L467.63,102.8L469.48,96.73L471.34,91.59L473.2,92.78L475.05,96.36L476.91,97.56L478.76,99.34L480.62,112.3L482.47,128.29L484.33,133.9L486.19,132.4L488.04,135.02L489.9,136.04L491.75,139.44L493.61,146.04L495.46,161.8L497.32,163.12L499.18,166.55L501.03,161.26L502.89,159.99L504.74,157.75L506.6,160.51L512.16,165.57L514.02,166.3L515.88,169.93L517.73,166.27L519.59,176.11L521.44,202.14L523.3,204.38L525.15,204.44L527.01,207.32L528.87,207.41L532.58,220.43L534.43,221.44L536.29,224.42L538.14,224.36L540,225.42" style="vector-effect: none; fill: none; stroke: rgb(99, 110, 250); stroke-opacity: 1; stroke-width: 2px; opacity: 1;"/></g><g class="points"/><g class="text"/></g></g></g><g class="overplot"/><path class="xlines-above crisp" d="M0,0" style="fill: none;"/><path class="ylines-above crisp" d="M0,0" style="fill: none;"/><g class="overlines-above"/><g class="xaxislayer-above"><g class="xtick"><text text-anchor="middle" x="0" y="433" transform="translate(150.51999999999998,0)" style="font-family: 'Open Sans', verdana, arial, sans-serif; font-size: 12px; fill: rgb(42, 63, 95); fill-opacity: 1; white-space: pre; opacity: 1;">Jan 2023</text></g><g class="xtick"><text text-anchor="middle" x="0" y="433" style="font-family: 'Open Sans', verdana, arial, sans-serif; font-size: 12px; fill: rgb(42, 63, 95); fill-opacity: 1; white-space: pre; opacity: 1;" transform="translate(260,0)">Mar 2023</text></g><g class="xtick"><text text-anchor="middle" x="0" y="433" style="font-family: 'Open Sans', verdana, arial, sans-serif; font-size: 12px; fill: rgb(42, 63, 95); fill-opacity: 1; white-space: pre; opacity: 1;" transform="translate(373.2,0)">May 2023</text></g><g class="xtick"><text text-anchor="middle" x="0" y="433" style="font-family: 'Open Sans', verdana, arial, sans-serif; font-size: 12px; fill: rgb(42, 63, 95); fill-opacity: 1; white-space: pre; opacity: 1;" transform="translate(486.39,0)">Jul 2023</text></g><g class="xtick"><text text-anchor="middle" x="0" y="433" style="font-family: 'Open Sans', verdana, arial, sans-serif; font-size: 12px; fill: rgb(42, 63, 95); fill-opacity: 1; white-space: pre; opacity: 1;" transform="translate(601.44,0)">Sep 2023</text></g></g><g class="yaxislayer-above"><g class="ytick"><text text-anchor="end" x="79" y="4.199999999999999" transform="translate(0,420)" style="font-family: 'Open Sans', verdana, arial, sans-serif; font-size: 12px; fill: rgb(42, 63, 95); fill-opacity: 1; white-space: pre; opacity: 1;">$0</text></g><g class="ytick"><text text-anchor="end" x="79" y="4.199999999999999" style="font-family: 'Open Sans', verdana, arial, sans-serif; font-size: 12px; fill: rgb(42, 63, 95); fill-opacity: 1; white-space: pre; opacity: 1;" transform="translate(0,361.29)">$50M</text></g><g class="ytick"><text text-anchor="end" x="79" y="4.199999999999999" style="font-family: 'Open Sans', verdana, arial, sans-serif; font-size: 12px; fill: rgb(42, 63, 95); fill-opacity: 1; white-space: pre; opacity: 1;" transform="translate(0,302.58000000000004)">$100M</text></g><g class="ytick"><text text-anchor="end" x="79" y="4.199999999999999" style="font-family: 'Open Sans', verdana, arial, sans-serif; font-size: 12px; fill: rgb(42, 63, 95); fill-opacity: 1; white-space: pre; opacity: 1;" transform="translate(0,243.86)">$150M</text></g><g class="ytick"><text text-anchor="end" x="79" y="4.199999999999999" style="font-family: 'Open Sans', verdana, arial, sans-serif; font-size: 12px; fill: rgb(42, 63, 95); fill-opacity: 1; white-space: pre; opacity: 1;" transform="translate(0,185.15)">$200M</text></g><g class="ytick"><text text-anchor="end" x="79" y="4.199999999999999" style="font-family: 'Open Sans', verdana, arial, sans-serif; font-size: 12px; fill: rgb(42, 63, 95); fill-opacity: 1; white-space: pre; opacity: 1;" transform="translate(0,126.44)">$250M</text></g></g><g class="overaxes-above"/></g></g><g class="polarlayer"/><g class="smithlayer"/><g class="ternarylayer"/><g class="geolayer"/><g class="funnelarealayer"/><g class="pielayer"/><g class="iciclelayer"/><g class="treemaplayer"/><g class="sunburstlayer"/><g class="glimages"/><defs id="topdefs-946025"><g class="clips"/></defs><g class="layer-above"><g class="imagelayer"/><g class="shapelayer"/></g><g class="infolayer"><g class="g-gtitle"><text class="gtitle" x="35" y="50" text-anchor="start" dy="0em" style="font-family: 'Open Sans', verdana, arial, sans-serif; font-size: 17px; fill: rgb(42, 63, 95); opacity: 1; font-weight: normal; white-space: pre;"><tspan class="line" dy="0em" x="35" y="50">Velodrome - Velodrome #2 (Tour de OP)*</tspan><tspan class="line" dy="1.3em" x="35" y="50">​<tspan style="font-size:70%" dy="-0.6em">Cumulative Net Flows since Program Announcement, Until Program End + 30 Days</tspan><tspan dy="0.42em">​</tspan></tspan></text></g><g class="g-xtitle"><text class="xtitle" x="350" y="460.3" text-anchor="middle" style="font-family: 'Open Sans', verdana, arial, sans-serif; font-size: 14px; fill: rgb(42, 63, 95); opacity: 1; font-weight: normal; white-space: pre;">Day</text></g><g class="g-ytitle"><text class="ytitle" transform="rotate(-90,17.996875000000003,260)" x="17.996875000000003" y="260" text-anchor="middle" style="font-family: 'Open Sans', verdana, arial, sans-serif; font-size: 14px; fill: rgb(42, 63, 95); opacity: 1; font-weight: normal; white-space: pre;">Cumulative Net Flows (USD)</text></g></g></svg>