<svg class="main-svg" xmlns="http://www.w3.org/2000/svg" xmlns:xlink="http://www.w3.org/1999/xlink" width="700" height="500" style="" viewBox="0 0 700 500"><rect x="0" y="0" width="700" height="500" style="fill: rgb(255, 255, 255); fill-opacity: 1;"/><defs id="defs-ac9937"><g class="clips"><clipPath id="clipac9937xyplot" class="plotclip"><rect width="540" height="320"/></clipPath><clipPath class="axesclip" id="clipac9937x"><rect x="80" y="0" width="540" height="500"/></clipPath><clipPath class="axesclip" id="clipac9937y"><rect x="0" y="100" width="700" height="320"/></clipPath><clipPath class="axesclip" id="clipac9937xy"><rect x="80" y="100" width="540" height="320"/></clipPath></g><g class="gradients"/><g class="patterns"/></defs><g class="bglayer"><rect class="bg" x="80" y="100" width="540" height="320" style="fill: rgb(229, 236, 246); fill-opacity: 1; stroke-width: 0;"/></g><g class="layer-below"><g class="imagelayer"/><g class="shapelayer"/></g><g class="cartesianlayer"><g class="subplot xy"><g class="layer-subplot"><g class="shapelayer"/><g class="imagelayer"/></g><g class="minor-gridlayer"><g class="x"/><g class="y"/></g><g class="gridlayer"><g class="x"><path class="xgrid crisp" transform="translate(120.38,0)" d="M0,100v320" style="stroke: rgb(255, 255, 255); stroke-opacity: 1; stroke-width: 1px;"/><path class="xgrid crisp" transform="translate(190.76999999999998,0)" d="M0,100v320" style="stroke: rgb(255, 255, 255); stroke-opacity: 1; stroke-width: 1px;"/><path class="xgrid crisp" transform="translate(258.85,0)" d="M0,100v320" style="stroke: rgb(255, 255, 255); stroke-opacity: 1; stroke-width: 1px;"/><path class="xgrid crisp" transform="translate(329.23,0)" d="M0,100v320" style="stroke: rgb(255, 255, 255); stroke-opacity: 1; stroke-width: 1px;"/><path class="xgrid crisp" transform="translate(399.62,0)" d="M0,100v320" style="stroke: rgb(255, 255, 255); stroke-opacity: 1; stroke-width: 1px;"/><path class="xgrid crisp" transform="translate(471.15,0)" d="M0,100v320" style="stroke: rgb(255, 255, 255); stroke-opacity: 1; stroke-width: 1px;"/><path class="xgrid crisp" transform="translate(541.54,0)" d="M0,100v320" style="stroke: rgb(255, 255, 255); stroke-opacity: 1; stroke-width: 1px;"/><path class="xgrid crisp" transform="translate(611.92,0)" d="M0,100v320" style="stroke: rgb(255, 255, 255); stroke-opacity: 1; stroke-width: 1px;"/></g><g class="y"><path class="ygrid crisp" transform="translate(0,406.82)" d="M80,0h540" style="stroke: rgb(255, 255, 255); stroke-opacity: 1; stroke-width: 1px;"/><path class="ygrid crisp" transform="translate(0,283.22)" d="M80,0h540" style="stroke: rgb(255, 255, 255); stroke-opacity: 1; stroke-width: 1px;"/><path class="ygrid crisp" transform="translate(0,221.42000000000002)" d="M80,0h540" style="stroke: rgb(255, 255, 255); stroke-opacity: 1; stroke-width: 1px;"/><path class="ygrid crisp" transform="translate(0,159.62)" d="M80,0h540" style="stroke: rgb(255, 255, 255); stroke-opacity: 1; stroke-width: 1px;"/></g></g><g class="zerolinelayer"><path class="yzl zl crisp" transform="translate(0,345.02)" d="M80,0h540" style="stroke: rgb(255, 255, 255); stroke-opacity: 1; stroke-width: 2px;"/></g><path class="xlines-below"/><path class="ylines-below"/><g class="overlines-below"/><g class="xaxislayer-below"/><g class="yaxislayer-below"/><g class="overaxes-below"/><g class="plot" transform="translate(80,100)" clip-path="url(#clipac9937xyplot)"><g class="scatterlayer mlayer"><g class="trace scatter trace0475f9" style="stroke-miterlimit: 2;"><g class="fills"><g><path class="js-fill" d="M540,245.02L0,245.02L0,245L20.77,244.81L21.92,244.78L26.54,247.49L27.69,247.41L28.85,247.45L30,246.62L31.15,246.72L32.31,248.07L34.62,261.18L35.77,260.32L39.23,259.39L40.38,260.07L41.54,260.17L42.69,251.96L46.15,252.23L47.31,253.26L48.46,270.61L49.62,273.14L51.92,271.31L53.08,272.31L55.38,271.97L56.54,270.53L57.69,272.46L58.85,269.1L60,265.4L61.15,265.06L62.31,265.83L63.46,265.53L64.62,266.48L65.77,265.8L66.92,250.96L68.08,251.02L71.54,250.96L72.69,250.06L73.85,250.85L75,250.64L77.31,250.24L78.46,247.4L79.62,247.48L80.77,255.5L81.92,255.7L83.08,268.88L84.23,261.66L85.38,261.24L86.54,261.1L87.69,258.81L88.85,254.84L90,254.51L91.15,254.19L92.31,255.23L94.62,255.21L95.77,256.3L96.92,255.84L98.08,253.41L99.23,248.64L100.38,248.46L102.69,248.35L103.85,250.82L105,255.55L106.15,255.31L107.31,255.29L108.46,256.46L109.62,261.4L110.77,261.28L111.92,257.85L113.08,258.23L114.23,256.61L115.38,257.6L116.54,258.52L117.69,258.01L118.85,259.05L120,258.4L122.31,257.99L123.46,257.43L124.62,257.34L125.77,258.29L129.23,257.74L130.38,256.6L131.54,252.5L132.69,256.36L133.85,248.46L135,248.01L136.15,248.33L137.31,240.67L138.46,209.59L139.62,204.64L140.77,201.37L141.92,201.53L143.08,201.56L144.23,199.14L146.54,199.06L147.69,193.56L148.85,190.99L150,181.24L151.15,179.09L152.31,171.21L153.46,171.06L154.62,167.48L155.77,166.54L156.92,174.09L158.08,171.4L159.23,171.28L160.38,170.56L161.54,176.5L163.85,148.87L165,156.04L166.15,156.68L167.31,125.03L168.46,127.31L169.62,126.52L170.77,128.81L171.92,128.37L174.23,116.86L175.38,90.19L176.54,80.67L177.69,82.9L178.85,83.65L180,38.11L181.15,33.67L182.31,41.17L183.46,50.6L184.62,44.05L185.77,16L186.92,22.03L189.23,86.95L190.38,182.02L191.54,181.24L192.69,153.64L193.85,157.46L195,132.6L196.15,120.99L197.31,77.44L198.46,74.04L199.62,74.23L200.77,65.13L201.92,77.71L204.23,36.89L205.38,35.71L206.54,42.27L207.69,41.86L208.85,42.56L210,44.4L211.15,44.49L212.31,88.2L213.46,169.73L214.62,166.49L215.77,165.63L216.92,166.57L218.08,166.49L219.23,170.18L221.54,200.86L222.69,201.02L227.31,204.51L228.46,208.59L229.62,213.7L230.77,213.26L231.92,212.48L233.08,212.6L234.23,212.62L235.38,214.04L236.54,220.37L237.69,222.45L238.85,230.48L240,230.64L242.31,231.09L243.46,237.59L244.62,241.95L245.77,241.97L251.54,242.46L252.69,243.79L253.85,243.79L255,244.63L256.15,244.82L257.31,245.98L259.62,247.28L260.77,253.32L264.23,254.02L265.38,259.58L267.69,259.67L268.85,260.85L273.46,262.18L274.62,265.17L275.77,267.12L276.92,267.47L291.92,268.1L293.08,269.93L315,270.34L316.15,270.96L317.31,289.54L318.46,290.88L320.77,290.89L321.92,291.65L327.69,291.76L328.85,292.43L330,293.78L331.15,293.79L332.31,295.71L333.46,301.89L356.54,303.2L357.69,303.14L376.15,303.53L377.31,303.53L540,303.95" style="fill: rgb(99, 110, 250); fill-opacity: 0.5; stroke-width: 0;"/></g></g><g class="errorbars"/><g class="lines"><path class="js-line" d="M0,245L20.77,244.81L21.92,244.78L26.54,247.49L27.69,247.41L28.85,247.45L30,246.62L31.15,246.72L32.31,248.07L34.62,261.18L35.77,260.32L39.23,259.39L40.38,260.07L41.54,260.17L42.69,251.96L46.15,252.23L47.31,253.26L48.46,270.61L49.62,273.14L51.92,271.31L53.08,272.31L55.38,271.97L56.54,270.53L57.69,272.46L58.85,269.1L60,265.4L61.15,265.06L62.31,265.83L63.46,265.53L64.62,266.48L65.77,265.8L66.92,250.96L68.08,251.02L71.54,250.96L72.69,250.06L73.85,250.85L75,250.64L77.31,250.24L78.46,247.4L79.62,247.48L80.77,255.5L81.92,255.7L83.08,268.88L84.23,261.66L85.38,261.24L86.54,261.1L87.69,258.81L88.85,254.84L90,254.51L91.15,254.19L92.31,255.23L94.62,255.21L95.77,256.3L96.92,255.84L98.08,253.41L99.23,248.64L100.38,248.46L102.69,248.35L103.85,250.82L105,255.55L106.15,255.31L107.31,255.29L108.46,256.46L109.62,261.4L110.77,261.28L111.92,257.85L113.08,258.23L114.23,256.61L115.38,257.6L116.54,258.52L117.69,258.01L118.85,259.05L120,258.4L122.31,257.99L123.46,257.43L124.62,257.34L125.77,258.29L129.23,257.74L130.38,256.6L131.54,252.5L132.69,256.36L133.85,248.46L135,248.01L136.15,248.33L137.31,240.67L138.46,209.59L139.62,204.64L140.77,201.37L141.92,201.53L143.08,201.56L144.23,199.14L146.54,199.06L147.69,193.56L148.85,190.99L150,181.24L151.15,179.09L152.31,171.21L153.46,171.06L154.62,167.48L155.77,166.54L156.92,174.09L158.08,171.4L159.23,171.28L160.38,170.56L161.54,176.5L163.85,148.87L165,156.04L166.15,156.68L167.31,125.03L168.46,127.31L169.62,126.52L170.77,128.81L171.92,128.37L174.23,116.86L175.38,90.19L176.54,80.67L177.69,82.9L178.85,83.65L180,38.11L181.15,33.67L182.31,41.17L183.46,50.6L184.62,44.05L185.77,16L186.92,22.03L189.23,86.95L190.38,182.02L191.54,181.24L192.69,153.64L193.85,157.46L195,132.6L196.15,120.99L197.31,77.44L198.46,74.04L199.62,74.23L200.77,65.13L201.92,77.71L204.23,36.89L205.38,35.71L206.54,42.27L207.69,41.86L208.85,42.56L210,44.4L211.15,44.49L212.31,88.2L213.46,169.73L214.62,166.49L215.77,165.63L216.92,166.57L218.08,166.49L219.23,170.18L221.54,200.86L222.69,201.02L227.31,204.51L228.46,208.59L229.62,213.7L230.77,213.26L231.92,212.48L233.08,212.6L234.23,212.62L235.38,214.04L236.54,220.37L237.69,222.45L238.85,230.48L240,230.64L242.31,231.09L243.46,237.59L244.62,241.95L245.77,241.97L251.54,242.46L252.69,243.79L253.85,243.79L255,244.63L256.15,244.82L257.31,245.98L259.62,247.28L260.77,253.32L264.23,254.02L265.38,259.58L267.69,259.67L268.85,260.85L273.46,262.18L274.62,265.17L275.77,267.12L276.92,267.47L291.92,268.1L293.08,269.93L315,270.34L316.15,270.96L317.31,289.54L318.46,290.88L320.77,290.89L321.92,291.65L327.69,291.76L328.85,292.43L330,293.78L331.15,293.79L332.31,295.71L333.46,301.89L356.54,303.2L357.69,303.14L376.15,303.53L377.31,303.53L540,303.95" style="vector-effect: none; fill: none; stroke: rgb(99, 110, 250); stroke-opacity: 1; stroke-width: 2px; opacity: 1;"/></g><g class="points"/><g class="text"/></g></g></g><g class="overplot"/><path class="xlines-above crisp" d="M0,0" style="fill: none;"/><path class="ylines-above crisp" d="M0,0" style="fill: none;"/><g class="overlines-above"/><g class="xaxislayer-above"><g class="xtick"><text text-anchor="middle" x="0" y="433" transform="translate(120.38,0)" style="font-family: 'Open Sans', verdana, arial, sans-serif; font-size: 12px; fill: rgb(42, 63, 95); fill-opacity: 1; white-space: pre; opacity: 1;">Nov 2022</text></g><g class="xtick"><text text-anchor="middle" x="0" y="433" style="font-family: 'Open Sans', verdana, arial, sans-serif; font-size: 12px; fill: rgb(42, 63, 95); fill-opacity: 1; white-space: pre; opacity: 1;" transform="translate(190.76999999999998,0)">Jan 2023</text></g><g class="xtick"><text text-anchor="middle" x="0" y="433" style="font-family: 'Open Sans', verdana, arial, sans-serif; font-size: 12px; fill: rgb(42, 63, 95); fill-opacity: 1; white-space: pre; opacity: 1;" transform="translate(258.85,0)">Mar 2023</text></g><g class="xtick"><text text-anchor="middle" x="0" y="433" style="font-family: 'Open Sans', verdana, arial, sans-serif; font-size: 12px; fill: rgb(42, 63, 95); fill-opacity: 1; white-space: pre; opacity: 1;" transform="translate(329.23,0)">May 2023</text></g><g class="xtick"><text text-anchor="middle" x="0" y="433" style="font-family: 'Open Sans', verdana, arial, sans-serif; font-size: 12px; fill: rgb(42, 63, 95); fill-opacity: 1; white-space: pre; opacity: 1;" transform="translate(399.62,0)">Jul 2023</text></g><g class="xtick"><text text-anchor="middle" x="0" y="433" style="font-family: 'Open Sans', verdana, arial, sans-serif; font-size: 12px; fill: rgb(42, 63, 95); fill-opacity: 1; white-space: pre; opacity: 1;" transform="translate(471.15,0)">Sep 2023</text></g><g class="xtick"><text text-anchor="middle" x="0" y="433" style="font-family: 'Open Sans', verdana, arial, sans-serif; font-size: 12px; fill: rgb(42, 63, 95); fill-opacity: 1; white-space: pre; opacity: 1;" transform="translate(541.54,0)">Nov 2023</text></g><g class="xtick"><text text-anchor="middle" x="0" y="433" style="font-family: 'Open Sans', verdana, arial, sans-serif; font-size: 12px; fill: rgb(42, 63, 95); fill-opacity: 1; white-space: pre; opacity: 1;" transform="translate(611.92,0)">Jan 2024</text></g></g><g class="yaxislayer-above"><g class="ytick"><text text-anchor="end" x="79" y="4.199999999999999" transform="translate(0,406.82)" style="font-family: 'Open Sans', verdana, arial, sans-serif; font-size: 12px; fill: rgb(42, 63, 95); fill-opacity: 1; white-space: pre; opacity: 1;">$−2M</text></g><g class="ytick"><text text-anchor="end" x="79" y="4.199999999999999" style="font-family: 'Open Sans', verdana, arial, sans-serif; font-size: 12px; fill: rgb(42, 63, 95); fill-opacity: 1; white-space: pre; opacity: 1;" transform="translate(0,345.02)">$0</text></g><g class="ytick"><text text-anchor="end" x="79" y="4.199999999999999" style="font-family: 'Open Sans', verdana, arial, sans-serif; font-size: 12px; fill: rgb(42, 63, 95); fill-opacity: 1; white-space: pre; opacity: 1;" transform="translate(0,283.22)">$2M</text></g><g class="ytick"><text text-anchor="end" x="79" y="4.199999999999999" style="font-family: 'Open Sans', verdana, arial, sans-serif; font-size: 12px; fill: rgb(42, 63, 95); fill-opacity: 1; white-space: pre; opacity: 1;" transform="translate(0,221.42000000000002)">$4M</text></g><g class="ytick"><text text-anchor="end" x="79" y="4.199999999999999" style="font-family: 'Open Sans', verdana, arial, sans-serif; font-size: 12px; fill: rgb(42, 63, 95); fill-opacity: 1; white-space: pre; opacity: 1;" transform="translate(0,159.62)">$6M</text></g></g><g class="overaxes-above"/></g></g><g class="polarlayer"/><g class="smithlayer"/><g class="ternarylayer"/><g class="geolayer"/><g class="funnelarealayer"/><g class="pielayer"/><g class="iciclelayer"/><g class="treemaplayer"/><g class="sunburstlayer"/><g class="glimages"/><defs id="topdefs-ac9937"><g class="clips"/></defs><g class="layer-above"><g class="imagelayer"/><g class="shapelayer"/></g><g class="infolayer"><g class="g-gtitle"><text class="gtitle" x="35" y="50" text-anchor="start" dy="0em" style="font-family: 'Open Sans', verdana, arial, sans-serif; font-size: 17px; fill: rgb(42, 63, 95); opacity: 1; font-weight: normal; white-space: pre;"><tspan class="line" dy="0em" x="35" y="50">Synthetix - USDC/SNX: Velodrome</tspan><tspan class="line" dy="1.3em" x="35" y="50">​<tspan style="font-size:70%" dy="-0.6em">Cumulative Net Flows since Program Announcement, Until Program End + 30 Days</tspan><tspan dy="0.42em">​</tspan></tspan></text></g><g class="g-xtitle"><text class="xtitle" x="350" y="460.3" text-anchor="middle" style="font-family: 'Open Sans', verdana, arial, sans-serif; font-size: 14px; fill: rgb(42, 63, 95); opacity: 1; font-weight: normal; white-space: pre;">Day</text></g><g class="g-ytitle"><text class="ytitle" transform="rotate(-90,24.340625000000003,260)" x="24.340625000000003" y="260" text-anchor="middle" style="font-family: 'Open Sans', verdana, arial, sans-serif; font-size: 14px; fill: rgb(42, 63, 95); opacity: 1; font-weight: normal; white-space: pre;">Cumulative Net Flows (USD)</text></g></g></svg>