<svg class="main-svg" xmlns="http://www.w3.org/2000/svg" xmlns:xlink="http://www.w3.org/1999/xlink" width="700" height="500" style="" viewBox="0 0 700 500"><rect x="0" y="0" width="700" height="500" style="fill: rgb(255, 255, 255); fill-opacity: 1;"/><defs id="defs-a53b0d"><g class="clips"><clipPath id="clipa53b0dxyplot" class="plotclip"><rect width="540" height="320"/></clipPath><clipPath class="axesclip" id="clipa53b0dx"><rect x="80" y="0" width="540" height="500"/></clipPath><clipPath class="axesclip" id="clipa53b0dy"><rect x="0" y="100" width="700" height="320"/></clipPath><clipPath class="axesclip" id="clipa53b0dxy"><rect x="80" y="100" width="540" height="320"/></clipPath></g><g class="gradients"/><g class="patterns"/></defs><g class="bglayer"><rect class="bg" x="80" y="100" width="540" height="320" style="fill: rgb(229, 236, 246); fill-opacity: 1; stroke-width: 0;"/></g><g class="layer-below"><g class="imagelayer"/><g class="shapelayer"/></g><g class="cartesianlayer"><g class="subplot xy"><g class="layer-subplot"><g class="shapelayer"/><g class="imagelayer"/></g><g class="minor-gridlayer"><g class="x"/><g class="y"/></g><g class="gridlayer"><g class="x"><path class="xgrid crisp" transform="translate(88.85,0)" d="M0,100v320" style="stroke: rgb(255, 255, 255); stroke-opacity: 1; stroke-width: 1px;"/><path class="xgrid crisp" transform="translate(178.85,0)" d="M0,100v320" style="stroke: rgb(255, 255, 255); stroke-opacity: 1; stroke-width: 1px;"/><path class="xgrid crisp" transform="translate(268.85,0)" d="M0,100v320" style="stroke: rgb(255, 255, 255); stroke-opacity: 1; stroke-width: 1px;"/><path class="xgrid crisp" transform="translate(355.9,0)" d="M0,100v320" style="stroke: rgb(255, 255, 255); stroke-opacity: 1; stroke-width: 1px;"/><path class="xgrid crisp" transform="translate(445.9,0)" d="M0,100v320" style="stroke: rgb(255, 255, 255); stroke-opacity: 1; stroke-width: 1px;"/><path class="xgrid crisp" transform="translate(535.9,0)" d="M0,100v320" style="stroke: rgb(255, 255, 255); stroke-opacity: 1; stroke-width: 1px;"/></g><g class="y"><path class="ygrid crisp" transform="translate(0,413)" d="M80,0h540" style="stroke: rgb(255, 255, 255); stroke-opacity: 1; stroke-width: 1px;"/><path class="ygrid crisp" transform="translate(0,354.12)" d="M80,0h540" style="stroke: rgb(255, 255, 255); stroke-opacity: 1; stroke-width: 1px;"/><path class="ygrid crisp" transform="translate(0,295.25)" d="M80,0h540" style="stroke: rgb(255, 255, 255); stroke-opacity: 1; stroke-width: 1px;"/><path class="ygrid crisp" transform="translate(0,236.37)" d="M80,0h540" style="stroke: rgb(255, 255, 255); stroke-opacity: 1; stroke-width: 1px;"/><path class="ygrid crisp" transform="translate(0,118.62)" d="M80,0h540" style="stroke: rgb(255, 255, 255); stroke-opacity: 1; stroke-width: 1px;"/></g></g><g class="zerolinelayer"><path class="yzl zl crisp" transform="translate(0,177.49)" d="M80,0h540" style="stroke: rgb(255, 255, 255); stroke-opacity: 1; stroke-width: 2px;"/></g><path class="xlines-below"/><path class="ylines-below"/><g class="overlines-below"/><g class="xaxislayer-below"/><g class="yaxislayer-below"/><g class="overaxes-below"/><g class="plot" transform="translate(80,100)" clip-path="url(#clipa53b0dxyplot)"><g class="scatterlayer mlayer"><g class="trace scatter traceca4464" style="stroke-miterlimit: 2;"><g class="fills"><g><path class="js-fill" d="M540,77.49L0,77.49L0,77.73L38.36,76.72L39.84,76.57L50.16,76.6L51.64,76.67L64.92,76.56L66.39,76.55L75.25,76.62L76.72,77.85L78.2,70.13L79.67,67.9L81.15,57.85L82.62,40.96L85.57,54.21L87.05,56.53L88.52,58.79L90,52.38L91.48,53.82L92.95,53.53L94.43,52.49L95.9,52.62L97.38,46.23L98.85,45.75L101.8,46.61L103.28,47.43L104.75,45.68L106.23,45.75L107.7,77.09L109.18,91.17L112.13,101.99L113.61,101.24L118.03,103.58L119.51,107.09L122.46,107.02L123.93,98.79L125.41,96.08L126.89,95.09L128.36,96.58L129.84,93.95L131.31,81.72L132.79,84.24L134.26,79.52L135.74,81.21L137.21,82.55L138.69,82.42L141.64,87.7L143.11,81.83L144.59,59.41L146.07,57.24L149.02,56.71L150.49,59.07L153.44,50.51L154.92,53.66L156.39,53.57L157.87,55.36L159.34,56.04L160.82,67.08L162.3,71.45L163.77,71.48L165.25,71.7L166.72,69.2L168.2,71.48L169.67,71.57L171.15,73.77L172.62,72.01L177.05,68.69L178.52,68.74L180,67.82L181.48,60.36L185.9,62.22L187.38,61.09L190.33,66.43L191.8,66.72L194.75,68.81L196.23,67.95L197.7,57.96L199.18,57.7L200.66,53.46L202.13,58.28L203.61,58.38L205.08,71.56L209.51,75.46L210.98,75.7L212.46,75.34L213.93,71L215.41,69.11L216.89,69.75L218.36,68.29L219.84,68.32L221.31,85.31L222.79,82.63L224.26,77.42L225.74,89.71L227.21,89.78L228.69,86.4L230.16,86.62L231.64,82.55L233.11,80.48L234.59,83.2L236.07,81.58L237.54,85.81L239.02,88.15L240.49,88.34L241.97,87.8L243.44,86.22L244.92,86.3L246.39,89.67L247.87,93.32L249.34,102.51L253.77,103.58L255.25,117.38L258.2,85.32L259.67,84.83L261.15,84.6L262.62,82.56L264.1,81.34L265.57,64.42L267.05,24.33L268.52,16L270,17.79L271.48,17.77L274.43,18.88L275.9,25.73L277.38,25.63L278.85,44.46L280.33,46.88L281.8,44.62L283.28,46.26L284.75,40.24L286.23,38.7L287.7,46.72L290.66,137.68L292.13,137.36L293.61,133.6L295.08,124.74L296.56,125.07L298.03,95.41L299.51,94.38L300.98,95.38L302.46,97.51L303.93,96.31L305.41,97.92L306.89,96.32L308.36,86.84L309.84,109.75L314.26,120.61L315.74,121.85L317.21,122.67L318.69,133.18L320.16,133.53L321.64,128.14L323.11,127.55L324.59,127.77L326.07,99.55L327.54,99.5L329.02,103.11L330.49,94.34L334.92,91.33L336.39,91.49L337.87,91L339.34,89.41L340.82,86.83L342.3,82.53L343.77,80.43L345.25,71.83L346.72,67.86L348.2,78.48L349.67,76.99L351.15,44.37L354.1,46.58L355.57,46.73L357.05,46.69L358.52,49.34L360,49.38L361.48,42.63L362.95,42.15L364.43,44.73L365.9,44.34L367.38,46.41L368.85,49.06L370.33,55.25L371.8,52.41L373.28,52.56L374.75,59.58L376.23,59.76L377.7,63.26L379.18,64.65L380.66,68.01L382.13,69.28L386.56,69.49L388.03,70.31L389.51,65.21L390.98,56.89L393.93,55.71L395.41,57.26L396.89,54.08L398.36,57.92L399.84,60.76L401.31,61.01L402.79,59.81L404.26,60.18L408.69,59.75L410.16,61L411.64,63.58L413.11,64.45L414.59,62.6L416.07,63.14L419.02,64.55L420.49,64.04L423.44,61.12L424.92,64.38L426.39,62.8L427.87,62.55L429.34,62.14L430.82,62.98L432.3,64.89L433.77,65.16L436.72,64.78L438.2,64.86L439.67,63.76L441.15,64.98L442.62,43.56L444.1,44.49L445.57,44.02L447.05,48.88L451.48,59.25L452.95,176.92L454.43,196.98L455.9,200.62L457.38,201.79L458.85,210.65L460.33,216.23L461.8,216.88L463.28,218.46L464.75,218.69L469.18,220.67L470.66,223.96L472.13,287.96L473.61,288.74L475.08,292.37L476.56,292.39L478.03,295.57L479.51,295.62L482.46,296.29L483.93,296.29L485.41,296.32L486.89,298.81L497.21,298.85L498.69,299.92L500.16,299.94L501.64,301.14L506.07,301.27L507.54,303.13L514.92,303.33L516.39,303.33L540,304" style="fill: rgb(99, 110, 250); fill-opacity: 0.5; stroke-width: 0;"/></g></g><g class="errorbars"/><g class="lines"><path class="js-line" d="M0,77.73L38.36,76.72L39.84,76.57L50.16,76.6L51.64,76.67L64.92,76.56L66.39,76.55L75.25,76.62L76.72,77.85L78.2,70.13L79.67,67.9L81.15,57.85L82.62,40.96L85.57,54.21L87.05,56.53L88.52,58.79L90,52.38L91.48,53.82L92.95,53.53L94.43,52.49L95.9,52.62L97.38,46.23L98.85,45.75L101.8,46.61L103.28,47.43L104.75,45.68L106.23,45.75L107.7,77.09L109.18,91.17L112.13,101.99L113.61,101.24L118.03,103.58L119.51,107.09L122.46,107.02L123.93,98.79L125.41,96.08L126.89,95.09L128.36,96.58L129.84,93.95L131.31,81.72L132.79,84.24L134.26,79.52L135.74,81.21L137.21,82.55L138.69,82.42L141.64,87.7L143.11,81.83L144.59,59.41L146.07,57.24L149.02,56.71L150.49,59.07L153.44,50.51L154.92,53.66L156.39,53.57L157.87,55.36L159.34,56.04L160.82,67.08L162.3,71.45L163.77,71.48L165.25,71.7L166.72,69.2L168.2,71.48L169.67,71.57L171.15,73.77L172.62,72.01L177.05,68.69L178.52,68.74L180,67.82L181.48,60.36L185.9,62.22L187.38,61.09L190.33,66.43L191.8,66.72L194.75,68.81L196.23,67.95L197.7,57.96L199.18,57.7L200.66,53.46L202.13,58.28L203.61,58.38L205.08,71.56L209.51,75.46L210.98,75.7L212.46,75.34L213.93,71L215.41,69.11L216.89,69.75L218.36,68.29L219.84,68.32L221.31,85.31L222.79,82.63L224.26,77.42L225.74,89.71L227.21,89.78L228.69,86.4L230.16,86.62L231.64,82.55L233.11,80.48L234.59,83.2L236.07,81.58L237.54,85.81L239.02,88.15L240.49,88.34L241.97,87.8L243.44,86.22L244.92,86.3L246.39,89.67L247.87,93.32L249.34,102.51L253.77,103.58L255.25,117.38L258.2,85.32L259.67,84.83L261.15,84.6L262.62,82.56L264.1,81.34L265.57,64.42L267.05,24.33L268.52,16L270,17.79L271.48,17.77L274.43,18.88L275.9,25.73L277.38,25.63L278.85,44.46L280.33,46.88L281.8,44.62L283.28,46.26L284.75,40.24L286.23,38.7L287.7,46.72L290.66,137.68L292.13,137.36L293.61,133.6L295.08,124.74L296.56,125.07L298.03,95.41L299.51,94.38L300.98,95.38L302.46,97.51L303.93,96.31L305.41,97.92L306.89,96.32L308.36,86.84L309.84,109.75L314.26,120.61L315.74,121.85L317.21,122.67L318.69,133.18L320.16,133.53L321.64,128.14L323.11,127.55L324.59,127.77L326.07,99.55L327.54,99.5L329.02,103.11L330.49,94.34L334.92,91.33L336.39,91.49L337.87,91L339.34,89.41L340.82,86.83L342.3,82.53L343.77,80.43L345.25,71.83L346.72,67.86L348.2,78.48L349.67,76.99L351.15,44.37L354.1,46.58L355.57,46.73L357.05,46.69L358.52,49.34L360,49.38L361.48,42.63L362.95,42.15L364.43,44.73L365.9,44.34L367.38,46.41L368.85,49.06L370.33,55.25L371.8,52.41L373.28,52.56L374.75,59.58L376.23,59.76L377.7,63.26L379.18,64.65L380.66,68.01L382.13,69.28L386.56,69.49L388.03,70.31L389.51,65.21L390.98,56.89L393.93,55.71L395.41,57.26L396.89,54.08L398.36,57.92L399.84,60.76L401.31,61.01L402.79,59.81L404.26,60.18L408.69,59.75L410.16,61L411.64,63.58L413.11,64.45L414.59,62.6L416.07,63.14L419.02,64.55L420.49,64.04L423.44,61.12L424.92,64.38L426.39,62.8L427.87,62.55L429.34,62.14L430.82,62.98L432.3,64.89L433.77,65.16L436.72,64.78L438.2,64.86L439.67,63.76L441.15,64.98L442.62,43.56L444.1,44.49L445.57,44.02L447.05,48.88L451.48,59.25L452.95,176.92L454.43,196.98L455.9,200.62L457.38,201.79L458.85,210.65L460.33,216.23L461.8,216.88L463.28,218.46L464.75,218.69L469.18,220.67L470.66,223.96L472.13,287.96L473.61,288.74L475.08,292.37L476.56,292.39L478.03,295.57L479.51,295.62L482.46,296.29L483.93,296.29L485.41,296.32L486.89,298.81L497.21,298.85L498.69,299.92L500.16,299.94L501.64,301.14L506.07,301.27L507.54,303.13L514.92,303.33L516.39,303.33L540,304" style="vector-effect: none; fill: none; stroke: rgb(99, 110, 250); stroke-opacity: 1; stroke-width: 2px; opacity: 1;"/></g><g class="points"/><g class="text"/></g></g></g><g class="overplot"/><path class="xlines-above crisp" d="M0,0" style="fill: none;"/><path class="ylines-above crisp" d="M0,0" style="fill: none;"/><g class="overlines-above"/><g class="xaxislayer-above"><g class="xtick"><text text-anchor="middle" x="0" y="433" transform="translate(88.85,0)" style="font-family: 'Open Sans', verdana, arial, sans-serif; font-size: 12px; fill: rgb(42, 63, 95); fill-opacity: 1; white-space: pre; opacity: 1;">Sep 2022</text></g><g class="xtick"><text text-anchor="middle" x="0" y="433" style="font-family: 'Open Sans', verdana, arial, sans-serif; font-size: 12px; fill: rgb(42, 63, 95); fill-opacity: 1; white-space: pre; opacity: 1;" transform="translate(178.85,0)">Nov 2022</text></g><g class="xtick"><text text-anchor="middle" x="0" y="433" style="font-family: 'Open Sans', verdana, arial, sans-serif; font-size: 12px; fill: rgb(42, 63, 95); fill-opacity: 1; white-space: pre; opacity: 1;" transform="translate(268.85,0)">Jan 2023</text></g><g class="xtick"><text text-anchor="middle" x="0" y="433" style="font-family: 'Open Sans', verdana, arial, sans-serif; font-size: 12px; fill: rgb(42, 63, 95); fill-opacity: 1; white-space: pre; opacity: 1;" transform="translate(355.9,0)">Mar 2023</text></g><g class="xtick"><text text-anchor="middle" x="0" y="433" style="font-family: 'Open Sans', verdana, arial, sans-serif; font-size: 12px; fill: rgb(42, 63, 95); fill-opacity: 1; white-space: pre; opacity: 1;" transform="translate(445.9,0)">May 2023</text></g><g class="xtick"><text text-anchor="middle" x="0" y="433" style="font-family: 'Open Sans', verdana, arial, sans-serif; font-size: 12px; fill: rgb(42, 63, 95); fill-opacity: 1; white-space: pre; opacity: 1;" transform="translate(535.9,0)">Jul 2023</text></g></g><g class="yaxislayer-above"><g class="ytick"><text text-anchor="end" x="79" y="4.199999999999999" transform="translate(0,413)" style="font-family: 'Open Sans', verdana, arial, sans-serif; font-size: 12px; fill: rgb(42, 63, 95); fill-opacity: 1; white-space: pre; opacity: 1;">$−8M</text></g><g class="ytick"><text text-anchor="end" x="79" y="4.199999999999999" style="font-family: 'Open Sans', verdana, arial, sans-serif; font-size: 12px; fill: rgb(42, 63, 95); fill-opacity: 1; white-space: pre; opacity: 1;" transform="translate(0,354.12)">$−6M</text></g><g class="ytick"><text text-anchor="end" x="79" y="4.199999999999999" style="font-family: 'Open Sans', verdana, arial, sans-serif; font-size: 12px; fill: rgb(42, 63, 95); fill-opacity: 1; white-space: pre; opacity: 1;" transform="translate(0,295.25)">$−4M</text></g><g class="ytick"><text text-anchor="end" x="79" y="4.199999999999999" style="font-family: 'Open Sans', verdana, arial, sans-serif; font-size: 12px; fill: rgb(42, 63, 95); fill-opacity: 1; white-space: pre; opacity: 1;" transform="translate(0,236.37)">$−2M</text></g><g class="ytick"><text text-anchor="end" x="79" y="4.199999999999999" style="font-family: 'Open Sans', verdana, arial, sans-serif; font-size: 12px; fill: rgb(42, 63, 95); fill-opacity: 1; white-space: pre; opacity: 1;" transform="translate(0,177.49)">$0</text></g><g class="ytick"><text text-anchor="end" x="79" y="4.199999999999999" style="font-family: 'Open Sans', verdana, arial, sans-serif; font-size: 12px; fill: rgb(42, 63, 95); fill-opacity: 1; white-space: pre; opacity: 1;" transform="translate(0,118.62)">$2M</text></g></g><g class="overaxes-above"/></g></g><g class="polarlayer"/><g class="smithlayer"/><g class="ternarylayer"/><g class="geolayer"/><g class="funnelarealayer"/><g class="pielayer"/><g class="iciclelayer"/><g class="treemaplayer"/><g class="sunburstlayer"/><g class="glimages"/><defs id="topdefs-a53b0d"><g class="clips"/></defs><g class="layer-above"><g class="imagelayer"/><g class="shapelayer"/></g><g class="infolayer"><g class="g-gtitle"><text class="gtitle" x="35" y="50" text-anchor="start" dy="0em" style="font-family: 'Open Sans', verdana, arial, sans-serif; font-size: 17px; fill: rgb(42, 63, 95); opacity: 1; font-weight: normal; white-space: pre;"><tspan class="line" dy="0em" x="35" y="50">Qidao - sUSDC/MAI: Velodrome</tspan><tspan class="line" dy="1.3em" x="35" y="50">​<tspan style="font-size:70%" dy="-0.6em">Cumulative Net Flows since Program Announcement, Until Program End + 30 Days</tspan><tspan dy="0.42em">​</tspan></tspan></text></g><g class="g-xtitle"><text class="xtitle" x="350" y="460.3" text-anchor="middle" style="font-family: 'Open Sans', verdana, arial, sans-serif; font-size: 14px; fill: rgb(42, 63, 95); opacity: 1; font-weight: normal; white-space: pre;">Day</text></g><g class="g-ytitle"><text class="ytitle" transform="rotate(-90,24.340625000000003,260)" x="24.340625000000003" y="260" text-anchor="middle" style="font-family: 'Open Sans', verdana, arial, sans-serif; font-size: 14px; fill: rgb(42, 63, 95); opacity: 1; font-weight: normal; white-space: pre;">Cumulative Net Flows (USD)</text></g></g></svg>