<svg class="main-svg" xmlns="http://www.w3.org/2000/svg" xmlns:xlink="http://www.w3.org/1999/xlink" width="700" height="500" style="" viewBox="0 0 700 500"><rect x="0" y="0" width="700" height="500" style="fill: rgb(255, 255, 255); fill-opacity: 1;"/><defs id="defs-008bc5"><g class="clips"><clipPath id="clip008bc5xyplot" class="plotclip"><rect width="540" height="320"/></clipPath><clipPath class="axesclip" id="clip008bc5x"><rect x="80" y="0" width="540" height="500"/></clipPath><clipPath class="axesclip" id="clip008bc5y"><rect x="0" y="100" width="700" height="320"/></clipPath><clipPath class="axesclip" id="clip008bc5xy"><rect x="80" y="100" width="540" height="320"/></clipPath></g><g class="gradients"/><g class="patterns"/></defs><g class="bglayer"><rect class="bg" x="80" y="100" width="540" height="320" style="fill: rgb(229, 236, 246); fill-opacity: 1; stroke-width: 0;"/></g><g class="layer-below"><g class="imagelayer"/><g class="shapelayer"/></g><g class="cartesianlayer"><g class="subplot xy"><g class="layer-subplot"><g class="shapelayer"/><g class="imagelayer"/></g><g class="minor-gridlayer"><g class="x"/><g class="y"/></g><g class="gridlayer"><g class="x"><path class="xgrid crisp" transform="translate(168.16,0)" d="M0,100v320" style="stroke: rgb(255, 255, 255); stroke-opacity: 1; stroke-width: 1px;"/><path class="xgrid crisp" transform="translate(280.2,0)" d="M0,100v320" style="stroke: rgb(255, 255, 255); stroke-opacity: 1; stroke-width: 1px;"/><path class="xgrid crisp" transform="translate(392.24,0)" d="M0,100v320" style="stroke: rgb(255, 255, 255); stroke-opacity: 1; stroke-width: 1px;"/><path class="xgrid crisp" transform="translate(500.61,0)" d="M0,100v320" style="stroke: rgb(255, 255, 255); stroke-opacity: 1; stroke-width: 1px;"/><path class="xgrid crisp" transform="translate(612.65,0)" d="M0,100v320" style="stroke: rgb(255, 255, 255); stroke-opacity: 1; stroke-width: 1px;"/></g><g class="y"><path class="ygrid crisp" transform="translate(0,395.54)" d="M80,0h540" style="stroke: rgb(255, 255, 255); stroke-opacity: 1; stroke-width: 1px;"/><path class="ygrid crisp" transform="translate(0,354.90999999999997)" d="M80,0h540" style="stroke: rgb(255, 255, 255); stroke-opacity: 1; stroke-width: 1px;"/><path class="ygrid crisp" transform="translate(0,314.28)" d="M80,0h540" style="stroke: rgb(255, 255, 255); stroke-opacity: 1; stroke-width: 1px;"/><path class="ygrid crisp" transform="translate(0,233.02)" d="M80,0h540" style="stroke: rgb(255, 255, 255); stroke-opacity: 1; stroke-width: 1px;"/><path class="ygrid crisp" transform="translate(0,192.39)" d="M80,0h540" style="stroke: rgb(255, 255, 255); stroke-opacity: 1; stroke-width: 1px;"/><path class="ygrid crisp" transform="translate(0,151.76)" d="M80,0h540" style="stroke: rgb(255, 255, 255); stroke-opacity: 1; stroke-width: 1px;"/><path class="ygrid crisp" transform="translate(0,111.13)" d="M80,0h540" style="stroke: rgb(255, 255, 255); stroke-opacity: 1; stroke-width: 1px;"/></g></g><g class="zerolinelayer"><path class="yzl zl crisp" transform="translate(0,273.65)" d="M80,0h540" style="stroke: rgb(255, 255, 255); stroke-opacity: 1; stroke-width: 2px;"/></g><path class="xlines-below"/><path class="ylines-below"/><g class="overlines-below"/><g class="xaxislayer-below"/><g class="yaxislayer-below"/><g class="overaxes-below"/><g class="plot" transform="translate(80,100)" clip-path="url(#clip008bc5xyplot)"><g class="scatterlayer mlayer"><g class="trace scatter tracec6b175" style="stroke-miterlimit: 2;"><g class="fills"><g><path class="js-fill" d="M540,173.65L0,173.65L0,165.79L1.84,137.73L3.67,128.28L5.51,133.92L7.35,136.39L9.18,137.47L11.02,142.34L12.86,143.44L14.69,102.64L16.53,90.85L18.37,91.26L20.2,94.26L22.04,126.11L23.88,131.97L25.71,128.92L27.55,109.98L29.39,113.74L31.22,112.3L33.06,108.16L34.9,106.31L36.73,109.19L38.57,129.47L40.41,115.28L44.08,147.05L45.92,151.52L47.76,149.14L49.59,124.99L53.27,86.38L55.1,85.65L56.94,95.21L58.78,119.45L60.61,121.6L62.45,130.47L64.29,124.39L66.12,94.55L67.96,95.5L69.8,120.26L71.63,114.11L73.47,115.79L75.31,117.13L77.14,136.42L78.98,121.2L80.82,113.34L82.65,146.16L84.49,136.12L86.33,132.66L88.16,138.99L90,136.2L91.84,122.58L93.67,136.7L95.51,143.53L97.35,146.24L99.18,156.48L101.02,167.74L102.86,169.12L104.69,152.25L106.53,153.83L108.37,110.13L110.2,137.82L112.04,138.93L113.88,143.55L115.71,146.54L117.55,152.14L119.39,77.18L121.22,137.66L123.06,127.62L124.9,132.56L126.73,144.44L128.57,147.55L130.41,127.06L132.24,129.3L134.08,130.49L135.92,144.37L137.76,116.16L139.59,115.84L141.43,113.96L143.27,115.52L145.1,99.69L146.94,143.63L148.78,142.1L150.61,135.61L152.45,158.73L154.29,161L156.12,159.46L157.96,168.26L161.63,207.1L163.47,196.23L167.14,184.86L168.98,169.66L170.82,167.55L172.65,183.56L176.33,154.87L178.16,144.37L180,155.65L181.84,161.01L183.67,162.28L185.51,172.96L187.35,179.82L189.18,182.96L191.02,165.57L192.86,161.54L196.53,130.91L198.37,170.61L200.2,162.94L202.04,168.26L203.88,148.93L205.71,158.19L207.55,124.7L209.39,135.1L211.22,165.8L213.06,111.75L214.9,127.01L216.73,111.61L218.57,104.34L220.41,72.25L222.24,73.05L224.08,111.27L225.92,104.42L227.76,102.4L229.59,95.56L231.43,100.46L233.27,76.33L235.1,77.82L236.94,80.4L238.78,71.45L240.61,39.59L242.45,39.3L244.29,112.01L246.12,80.22L247.96,95.69L249.8,83.8L251.63,103.54L253.47,148.55L255.31,77.99L257.14,86L258.98,36.24L260.82,41.95L264.49,72.33L266.33,51.88L270,27.85L271.84,16L273.67,21.05L275.51,96.98L279.18,129.54L281.02,143.66L282.86,150.85L284.69,124.54L286.53,125.91L288.37,143.49L290.2,127.23L292.04,134.56L293.88,123.03L295.71,128.95L297.55,119.7L299.39,142.08L301.22,126.85L303.06,139.24L304.9,141.72L306.73,137.92L308.57,112.96L310.41,135.35L312.24,136.05L314.08,168.11L315.92,152.96L317.76,158.7L319.59,139.5L321.43,131.45L323.27,99.06L325.1,97.01L326.94,104.1L328.78,81.51L330.61,77.94L332.45,88.61L334.29,107.47L336.12,91.52L337.96,97.71L339.8,106.84L341.63,119.96L343.47,114.56L345.31,113.35L347.14,114.5L348.98,82.48L350.82,102.71L352.65,120.34L354.49,74.04L356.33,67.11L358.16,106.31L361.84,157.39L363.67,136.24L365.51,168.38L367.35,122.27L369.18,196.01L371.02,204.48L372.86,190.15L374.69,183.09L376.53,200.65L378.37,201.64L380.2,198.94L382.04,193.76L383.88,178.05L385.71,175.24L387.55,163.44L389.39,145.48L391.22,43.97L393.06,164.07L394.9,168.29L396.73,163.93L398.57,168.99L400.41,165.9L402.24,173.86L404.08,189.64L405.92,192.85L407.76,185.8L409.59,175.41L411.43,174.68L413.27,153.56L415.1,174L416.94,241.07L418.78,143.34L420.61,146.44L422.45,159.1L424.29,160.36L426.12,137.16L427.96,139.48L429.8,178.91L431.63,174.46L433.47,257.07L437.14,264.99L438.98,250.96L440.82,271.27L442.65,271.12L448.16,239.07L450,253.54L451.84,258.56L453.67,269.41L455.51,263.5L457.35,280.4L459.18,269.31L461.02,243.12L462.86,240.19L464.69,276.42L466.53,280.38L468.37,288.58L470.2,277.71L472.04,284.76L473.88,267.58L475.71,283.88L477.55,256.53L479.39,284.84L481.22,288.15L483.06,286.86L484.9,284.49L486.73,257.02L488.57,255.49L490.41,243.52L492.24,282.09L494.08,293.86L495.92,289.04L497.76,275.84L499.59,267.83L501.43,276.9L503.27,258.78L505.1,278.76L506.94,283.42L508.78,263.1L510.61,265.77L512.45,256.33L514.29,249.72L516.12,218.23L519.8,265.83L521.63,225.63L523.47,225.84L525.31,237.31L527.14,282.48L528.98,277.89L530.82,283.93L532.65,292.6L534.49,282.33L536.33,283.88L538.16,280.37L540,286.84L540,304" style="fill: rgb(99, 110, 250); fill-opacity: 0.5; stroke-width: 0;"/></g></g><g class="errorbars"/><g class="lines"><path class="js-line" d="M0,165.79L1.84,137.73L3.67,128.28L5.51,133.92L7.35,136.39L9.18,137.47L11.02,142.34L12.86,143.44L14.69,102.64L16.53,90.85L18.37,91.26L20.2,94.26L22.04,126.11L23.88,131.97L25.71,128.92L27.55,109.98L29.39,113.74L31.22,112.3L33.06,108.16L34.9,106.31L36.73,109.19L38.57,129.47L40.41,115.28L44.08,147.05L45.92,151.52L47.76,149.14L49.59,124.99L53.27,86.38L55.1,85.65L56.94,95.21L58.78,119.45L60.61,121.6L62.45,130.47L64.29,124.39L66.12,94.55L67.96,95.5L69.8,120.26L71.63,114.11L73.47,115.79L75.31,117.13L77.14,136.42L78.98,121.2L80.82,113.34L82.65,146.16L84.49,136.12L86.33,132.66L88.16,138.99L90,136.2L91.84,122.58L93.67,136.7L95.51,143.53L97.35,146.24L99.18,156.48L101.02,167.74L102.86,169.12L104.69,152.25L106.53,153.83L108.37,110.13L110.2,137.82L112.04,138.93L113.88,143.55L115.71,146.54L117.55,152.14L119.39,77.18L121.22,137.66L123.06,127.62L124.9,132.56L126.73,144.44L128.57,147.55L130.41,127.06L132.24,129.3L134.08,130.49L135.92,144.37L137.76,116.16L139.59,115.84L141.43,113.96L143.27,115.52L145.1,99.69L146.94,143.63L148.78,142.1L150.61,135.61L152.45,158.73L154.29,161L156.12,159.46L157.96,168.26L161.63,207.1L163.47,196.23L167.14,184.86L168.98,169.66L170.82,167.55L172.65,183.56L176.33,154.87L178.16,144.37L180,155.65L181.84,161.01L183.67,162.28L185.51,172.96L187.35,179.82L189.18,182.96L191.02,165.57L192.86,161.54L196.53,130.91L198.37,170.61L200.2,162.94L202.04,168.26L203.88,148.93L205.71,158.19L207.55,124.7L209.39,135.1L211.22,165.8L213.06,111.75L214.9,127.01L216.73,111.61L218.57,104.34L220.41,72.25L222.24,73.05L224.08,111.27L225.92,104.42L227.76,102.4L229.59,95.56L231.43,100.46L233.27,76.33L235.1,77.82L236.94,80.4L238.78,71.45L240.61,39.59L242.45,39.3L244.29,112.01L246.12,80.22L247.96,95.69L249.8,83.8L251.63,103.54L253.47,148.55L255.31,77.99L257.14,86L258.98,36.24L260.82,41.95L264.49,72.33L266.33,51.88L270,27.85L271.84,16L273.67,21.05L275.51,96.98L279.18,129.54L281.02,143.66L282.86,150.85L284.69,124.54L286.53,125.91L288.37,143.49L290.2,127.23L292.04,134.56L293.88,123.03L295.71,128.95L297.55,119.7L299.39,142.08L301.22,126.85L303.06,139.24L304.9,141.72L306.73,137.92L308.57,112.96L310.41,135.35L312.24,136.05L314.08,168.11L315.92,152.96L317.76,158.7L319.59,139.5L321.43,131.45L323.27,99.06L325.1,97.01L326.94,104.1L328.78,81.51L330.61,77.94L332.45,88.61L334.29,107.47L336.12,91.52L337.96,97.71L339.8,106.84L341.63,119.96L343.47,114.56L345.31,113.35L347.14,114.5L348.98,82.48L350.82,102.71L352.65,120.34L354.49,74.04L356.33,67.11L358.16,106.31L361.84,157.39L363.67,136.24L365.51,168.38L367.35,122.27L369.18,196.01L371.02,204.48L372.86,190.15L374.69,183.09L376.53,200.65L378.37,201.64L380.2,198.94L382.04,193.76L383.88,178.05L385.71,175.24L387.55,163.44L389.39,145.48L391.22,43.97L393.06,164.07L394.9,168.29L396.73,163.93L398.57,168.99L400.41,165.9L402.24,173.86L404.08,189.64L405.92,192.85L407.76,185.8L409.59,175.41L411.43,174.68L413.27,153.56L415.1,174L416.94,241.07L418.78,143.34L420.61,146.44L422.45,159.1L424.29,160.36L426.12,137.16L427.96,139.48L429.8,178.91L431.63,174.46L433.47,257.07L437.14,264.99L438.98,250.96L440.82,271.27L442.65,271.12L448.16,239.07L450,253.54L451.84,258.56L453.67,269.41L455.51,263.5L457.35,280.4L459.18,269.31L461.02,243.12L462.86,240.19L464.69,276.42L466.53,280.38L468.37,288.58L470.2,277.71L472.04,284.76L473.88,267.58L475.71,283.88L477.55,256.53L479.39,284.84L481.22,288.15L483.06,286.86L484.9,284.49L486.73,257.02L488.57,255.49L490.41,243.52L492.24,282.09L494.08,293.86L495.92,289.04L497.76,275.84L499.59,267.83L501.43,276.9L503.27,258.78L505.1,278.76L506.94,283.42L508.78,263.1L510.61,265.77L512.45,256.33L514.29,249.72L516.12,218.23L519.8,265.83L521.63,225.63L523.47,225.84L525.31,237.31L527.14,282.48L528.98,277.89L530.82,283.93L532.65,292.6L534.49,282.33L536.33,283.88L538.16,280.37L540,286.84L540,304" style="vector-effect: none; fill: none; stroke: rgb(99, 110, 250); stroke-opacity: 1; stroke-width: 2px; opacity: 1;"/></g><g class="points"/><g class="text"/></g></g></g><g class="overplot"/><path class="xlines-above crisp" d="M0,0" style="fill: none;"/><path class="ylines-above crisp" d="M0,0" style="fill: none;"/><g class="overlines-above"/><g class="xaxislayer-above"><g class="xtick"><text text-anchor="middle" x="0" y="433" transform="translate(168.16,0)" style="font-family: 'Open Sans', verdana, arial, sans-serif; font-size: 12px; fill: rgb(42, 63, 95); fill-opacity: 1; white-space: pre; opacity: 1;">Sep 2022</text></g><g class="xtick"><text text-anchor="middle" x="0" y="433" style="font-family: 'Open Sans', verdana, arial, sans-serif; font-size: 12px; fill: rgb(42, 63, 95); fill-opacity: 1; white-space: pre; opacity: 1;" transform="translate(280.2,0)">Nov 2022</text></g><g class="xtick"><text text-anchor="middle" x="0" y="433" style="font-family: 'Open Sans', verdana, arial, sans-serif; font-size: 12px; fill: rgb(42, 63, 95); fill-opacity: 1; white-space: pre; opacity: 1;" transform="translate(392.24,0)">Jan 2023</text></g><g class="xtick"><text text-anchor="middle" x="0" y="433" style="font-family: 'Open Sans', verdana, arial, sans-serif; font-size: 12px; fill: rgb(42, 63, 95); fill-opacity: 1; white-space: pre; opacity: 1;" transform="translate(500.61,0)">Mar 2023</text></g><g class="xtick"><text text-anchor="middle" x="0" y="433" style="font-family: 'Open Sans', verdana, arial, sans-serif; font-size: 12px; fill: rgb(42, 63, 95); fill-opacity: 1; white-space: pre; opacity: 1;" transform="translate(612.65,0)">May 2023</text></g></g><g class="yaxislayer-above"><g class="ytick"><text text-anchor="end" x="79" y="4.199999999999999" transform="translate(0,395.54)" style="font-family: 'Open Sans', verdana, arial, sans-serif; font-size: 12px; fill: rgb(42, 63, 95); fill-opacity: 1; white-space: pre; opacity: 1;">$−150k</text></g><g class="ytick"><text text-anchor="end" x="79" y="4.199999999999999" style="font-family: 'Open Sans', verdana, arial, sans-serif; font-size: 12px; fill: rgb(42, 63, 95); fill-opacity: 1; white-space: pre; opacity: 1;" transform="translate(0,354.90999999999997)">$−100k</text></g><g class="ytick"><text text-anchor="end" x="79" y="4.199999999999999" style="font-family: 'Open Sans', verdana, arial, sans-serif; font-size: 12px; fill: rgb(42, 63, 95); fill-opacity: 1; white-space: pre; opacity: 1;" transform="translate(0,314.28)">$−50k</text></g><g class="ytick"><text text-anchor="end" x="79" y="4.199999999999999" style="font-family: 'Open Sans', verdana, arial, sans-serif; font-size: 12px; fill: rgb(42, 63, 95); fill-opacity: 1; white-space: pre; opacity: 1;" transform="translate(0,273.65)">$0</text></g><g class="ytick"><text text-anchor="end" x="79" y="4.199999999999999" style="font-family: 'Open Sans', verdana, arial, sans-serif; font-size: 12px; fill: rgb(42, 63, 95); fill-opacity: 1; white-space: pre; opacity: 1;" transform="translate(0,233.02)">$50k</text></g><g class="ytick"><text text-anchor="end" x="79" y="4.199999999999999" style="font-family: 'Open Sans', verdana, arial, sans-serif; font-size: 12px; fill: rgb(42, 63, 95); fill-opacity: 1; white-space: pre; opacity: 1;" transform="translate(0,192.39)">$100k</text></g><g class="ytick"><text text-anchor="end" x="79" y="4.199999999999999" style="font-family: 'Open Sans', verdana, arial, sans-serif; font-size: 12px; fill: rgb(42, 63, 95); fill-opacity: 1; white-space: pre; opacity: 1;" transform="translate(0,151.76)">$150k</text></g><g class="ytick"><text text-anchor="end" x="79" y="4.199999999999999" style="font-family: 'Open Sans', verdana, arial, sans-serif; font-size: 12px; fill: rgb(42, 63, 95); fill-opacity: 1; white-space: pre; opacity: 1;" transform="translate(0,111.13)">$200k</text></g></g><g class="overaxes-above"/></g></g><g class="polarlayer"/><g class="smithlayer"/><g class="ternarylayer"/><g class="geolayer"/><g class="funnelarealayer"/><g class="pielayer"/><g class="iciclelayer"/><g class="treemaplayer"/><g class="sunburstlayer"/><g class="glimages"/><defs id="topdefs-008bc5"><g class="clips"/></defs><g class="layer-above"><g class="imagelayer"/><g class="shapelayer"/></g><g class="infolayer"><g class="g-gtitle"><text class="gtitle" x="35" y="50" text-anchor="start" dy="0em" style="font-family: 'Open Sans', verdana, arial, sans-serif; font-size: 17px; fill: rgb(42, 63, 95); opacity: 1; font-weight: normal; white-space: pre;"><tspan class="line" dy="0em" x="35" y="50">Thales</tspan><tspan class="line" dy="1.3em" x="35" y="50">​<tspan style="font-size:70%" dy="-0.6em">Cumulative Net Flows since Program Announcement, Until Program End + 30 Days</tspan><tspan dy="0.42em">​</tspan></tspan></text></g><g class="g-xtitle"><text class="xtitle" x="350" y="460.3" text-anchor="middle" style="font-family: 'Open Sans', verdana, arial, sans-serif; font-size: 14px; fill: rgb(42, 63, 95); opacity: 1; font-weight: normal; white-space: pre;">Day</text></g><g class="g-ytitle"><text class="ytitle" transform="rotate(-90,14.996875000000003,260)" x="14.996875000000003" y="260" text-anchor="middle" style="font-family: 'Open Sans', verdana, arial, sans-serif; font-size: 14px; fill: rgb(42, 63, 95); opacity: 1; font-weight: normal; white-space: pre;">Cumulative Net Flows (USD)</text></g></g></svg>