<svg class="main-svg" xmlns="http://www.w3.org/2000/svg" xmlns:xlink="http://www.w3.org/1999/xlink" width="700" height="500" style="" viewBox="0 0 700 500"><rect x="0" y="0" width="700" height="500" style="fill: rgb(255, 255, 255); fill-opacity: 1;"/><defs id="defs-1e4805"><g class="clips"><clipPath id="clip1e4805xyplot" class="plotclip"><rect width="540" height="320"/></clipPath><clipPath class="axesclip" id="clip1e4805x"><rect x="80" y="0" width="540" height="500"/></clipPath><clipPath class="axesclip" id="clip1e4805y"><rect x="0" y="100" width="700" height="320"/></clipPath><clipPath class="axesclip" id="clip1e4805xy"><rect x="80" y="100" width="540" height="320"/></clipPath></g><g class="gradients"/><g class="patterns"/></defs><g class="bglayer"><rect class="bg" x="80" y="100" width="540" height="320" style="fill: rgb(229, 236, 246); fill-opacity: 1; stroke-width: 0;"/></g><g class="layer-below"><g class="imagelayer"/><g class="shapelayer"/></g><g class="cartesianlayer"><g class="subplot xy"><g class="layer-subplot"><g class="shapelayer"/><g class="imagelayer"/></g><g class="minor-gridlayer"><g class="x"/><g class="y"/></g><g class="gridlayer"><g class="x"><path class="xgrid crisp" transform="translate(168.76999999999998,0)" d="M0,100v320" style="stroke: rgb(255, 255, 255); stroke-opacity: 1; stroke-width: 1px;"/><path class="xgrid crisp" transform="translate(281.58000000000004,0)" d="M0,100v320" style="stroke: rgb(255, 255, 255); stroke-opacity: 1; stroke-width: 1px;"/><path class="xgrid crisp" transform="translate(394.38,0)" d="M0,100v320" style="stroke: rgb(255, 255, 255); stroke-opacity: 1; stroke-width: 1px;"/><path class="xgrid crisp" transform="translate(503.49,0)" d="M0,100v320" style="stroke: rgb(255, 255, 255); stroke-opacity: 1; stroke-width: 1px;"/><path class="xgrid crisp" transform="translate(616.3,0)" d="M0,100v320" style="stroke: rgb(255, 255, 255); stroke-opacity: 1; stroke-width: 1px;"/></g><g class="y"><path class="ygrid crisp" transform="translate(0,405.75)" d="M80,0h540" style="stroke: rgb(255, 255, 255); stroke-opacity: 1; stroke-width: 1px;"/><path class="ygrid crisp" transform="translate(0,363.63)" d="M80,0h540" style="stroke: rgb(255, 255, 255); stroke-opacity: 1; stroke-width: 1px;"/><path class="ygrid crisp" transform="translate(0,321.52)" d="M80,0h540" style="stroke: rgb(255, 255, 255); stroke-opacity: 1; stroke-width: 1px;"/><path class="ygrid crisp" transform="translate(0,237.29)" d="M80,0h540" style="stroke: rgb(255, 255, 255); stroke-opacity: 1; stroke-width: 1px;"/><path class="ygrid crisp" transform="translate(0,195.18)" d="M80,0h540" style="stroke: rgb(255, 255, 255); stroke-opacity: 1; stroke-width: 1px;"/><path class="ygrid crisp" transform="translate(0,153.06)" d="M80,0h540" style="stroke: rgb(255, 255, 255); stroke-opacity: 1; stroke-width: 1px;"/><path class="ygrid crisp" transform="translate(0,110.95)" d="M80,0h540" style="stroke: rgb(255, 255, 255); stroke-opacity: 1; stroke-width: 1px;"/></g></g><g class="zerolinelayer"><path class="yzl zl crisp" transform="translate(0,279.40999999999997)" d="M80,0h540" style="stroke: rgb(255, 255, 255); stroke-opacity: 1; stroke-width: 2px;"/></g><path class="xlines-below"/><path class="ylines-below"/><g class="overlines-below"/><g class="xaxislayer-below"/><g class="yaxislayer-below"/><g class="overaxes-below"/><g class="plot" transform="translate(80,100)" clip-path="url(#clip1e4805xyplot)"><g class="scatterlayer mlayer"><g class="trace scatter trace26581a" style="stroke-miterlimit: 2;"><g class="fills"><g><path class="js-fill" d="M540,179.41L0,179.41L0,171.25L1.85,142.17L3.7,132.38L5.55,138.23L7.4,140.78L9.25,141.9L11.1,146.95L12.95,148.09L14.79,105.8L16.64,93.58L18.49,94L20.34,97.12L22.19,130.13L24.04,136.2L25.89,133.04L27.74,113.41L29.59,117.31L31.44,115.82L33.29,111.52L35.14,109.6L36.99,112.59L38.84,133.61L40.68,118.91L44.38,151.84L46.23,156.46L48.08,154L49.93,128.97L53.63,88.95L55.48,88.19L57.33,98.1L59.18,123.23L61.03,125.46L62.88,134.65L64.73,128.35L66.58,97.42L68.42,98.4L70.27,124.06L72.12,117.69L73.97,119.43L75.82,120.82L77.67,140.82L79.52,125.04L81.37,116.89L83.22,150.91L85.07,140.5L86.92,136.92L88.77,143.48L90.62,140.59L92.47,126.47L94.32,141.1L96.16,148.18L98.01,151L99.86,161.6L101.71,173.28L103.56,174.71L105.41,157.22L107.26,158.86L109.11,113.57L110.96,142.27L112.81,143.41L114.66,148.21L116.51,151.3L118.36,157.11L120.21,79.42L122.05,142.1L123.9,131.69L125.75,136.82L127.6,149.13L129.45,152.35L131.3,131.12L133.15,133.43L135,134.66L136.85,149.06L138.7,119.82L140.55,119.49L142.4,117.54L144.25,119.16L146.1,102.75L147.95,148.29L149.79,146.7L151.64,139.98L153.49,163.94L155.34,166.3L157.19,164.69L159.04,173.81L162.74,214.08L164.59,202.81L168.29,191.02L170.14,175.27L171.99,173.08L173.84,189.68L177.53,159.94L179.38,149.06L181.23,160.74L183.08,166.31L184.93,167.62L186.78,178.69L188.63,185.8L190.48,189.05L192.33,171.03L194.18,166.85L197.88,135.11L199.73,176.25L201.58,168.31L203.42,173.82L205.27,153.79L207.12,163.38L208.97,128.67L210.82,139.45L212.67,171.27L214.52,115.24L216.37,131.07L218.22,115.1L220.07,107.56L221.92,74.3L223.77,75.13L225.62,114.75L227.47,107.65L229.32,105.56L231.16,98.47L233.01,103.54L234.86,78.53L236.71,80.07L238.56,82.75L240.41,73.48L242.26,40.45L244.11,40.15L245.96,115.51L247.81,82.56L249.66,98.6L251.51,86.27L253.36,106.74L255.21,153.39L257.05,80.25L258.9,88.55L260.75,36.98L262.6,42.9L266.3,74.39L268.15,53.19L271.85,28.29L273.7,16L275.55,21.23L277.4,99.93L281.1,133.68L282.95,148.32L284.79,155.77L286.64,128.51L288.49,129.92L290.34,148.15L292.19,131.29L294.04,138.89L295.89,126.94L297.74,133.07L299.59,123.49L301.44,146.68L303.29,130.9L305.14,143.73L306.99,146.3L308.84,142.37L310.68,116.5L312.53,139.71L314.38,140.43L316.23,173.67L318.08,157.96L319.93,163.91L321.78,144.01L323.63,135.66L325.48,102.09L327.33,99.97L329.18,107.31L331.03,83.9L332.88,80.2L334.73,91.26L336.58,110.81L338.42,94.27L340.27,100.7L342.12,110.15L343.97,123.76L345.82,118.15L347.67,116.9L349.52,118.1L351.37,84.9L353.22,105.87L355.07,124.15L356.92,76.16L358.77,68.98L360.62,109.61L364.32,162.55L366.16,140.63L368.01,173.94L369.86,126.15L371.71,202.58L373.56,211.36L375.41,196.5L377.26,189.19L379.11,207.39L380.96,208.42L382.81,205.62L384.66,200.24L386.51,183.96L388.36,181.05L390.21,168.83L392.05,150.21L393.9,44.99L395.75,169.48L397.6,173.84L399.45,169.33L401.3,174.57L403.15,171.37L405,179.62L406.85,195.98L408.7,199.31L410.55,192L412.4,181.23L414.25,180.48L416.1,158.58L417.95,179.77L419.79,249.28L421.64,147.99L423.49,151.2L425.34,164.32L427.19,165.63L429.04,141.58L430.89,143.99L432.74,184.85L434.59,180.25L436.44,265.87L440.14,274.08L441.99,259.54L443.84,280.58L445.68,280.43L451.23,247.22L453.08,262.21L454.93,267.42L456.78,278.66L458.63,272.54L460.48,290.05L462.33,278.55L464.18,251.41L466.03,248.37L467.88,285.92L469.73,290.03L471.58,298.53L473.42,287.26L475.27,294.57L477.12,276.76L478.97,293.66L480.82,265.31L482.67,294.65L484.52,298.08L486.37,296.75L488.22,294.29L490.07,265.81L491.92,264.24L493.77,251.83L495.62,291.8L497.47,304L499.32,299L501.16,285.33L503.01,277.02L504.86,286.42L506.71,267.64L508.56,288.35L510.41,293.18L512.26,272.12L514.11,274.88L515.96,265.11L517.81,258.25L519.66,225.62L523.36,274.95L525.21,233.28L527.05,233.5L528.9,245.38L530.75,292.21L532.6,287.45L534.45,293.71L536.3,302.7L538.15,292.05L540,293.66" style="fill: rgb(99, 110, 250); fill-opacity: 0.5; stroke-width: 0;"/></g></g><g class="errorbars"/><g class="lines"><path class="js-line" d="M0,171.25L1.85,142.17L3.7,132.38L5.55,138.23L7.4,140.78L9.25,141.9L11.1,146.95L12.95,148.09L14.79,105.8L16.64,93.58L18.49,94L20.34,97.12L22.19,130.13L24.04,136.2L25.89,133.04L27.74,113.41L29.59,117.31L31.44,115.82L33.29,111.52L35.14,109.6L36.99,112.59L38.84,133.61L40.68,118.91L44.38,151.84L46.23,156.46L48.08,154L49.93,128.97L53.63,88.95L55.48,88.19L57.33,98.1L59.18,123.23L61.03,125.46L62.88,134.65L64.73,128.35L66.58,97.42L68.42,98.4L70.27,124.06L72.12,117.69L73.97,119.43L75.82,120.82L77.67,140.82L79.52,125.04L81.37,116.89L83.22,150.91L85.07,140.5L86.92,136.92L88.77,143.48L90.62,140.59L92.47,126.47L94.32,141.1L96.16,148.18L98.01,151L99.86,161.6L101.71,173.28L103.56,174.71L105.41,157.22L107.26,158.86L109.11,113.57L110.96,142.27L112.81,143.41L114.66,148.21L116.51,151.3L118.36,157.11L120.21,79.42L122.05,142.1L123.9,131.69L125.75,136.82L127.6,149.13L129.45,152.35L131.3,131.12L133.15,133.43L135,134.66L136.85,149.06L138.7,119.82L140.55,119.49L142.4,117.54L144.25,119.16L146.1,102.75L147.95,148.29L149.79,146.7L151.64,139.98L153.49,163.94L155.34,166.3L157.19,164.69L159.04,173.81L162.74,214.08L164.59,202.81L168.29,191.02L170.14,175.27L171.99,173.08L173.84,189.68L177.53,159.94L179.38,149.06L181.23,160.74L183.08,166.31L184.93,167.62L186.78,178.69L188.63,185.8L190.48,189.05L192.33,171.03L194.18,166.85L197.88,135.11L199.73,176.25L201.58,168.31L203.42,173.82L205.27,153.79L207.12,163.38L208.97,128.67L210.82,139.45L212.67,171.27L214.52,115.24L216.37,131.07L218.22,115.1L220.07,107.56L221.92,74.3L223.77,75.13L225.62,114.75L227.47,107.65L229.32,105.56L231.16,98.47L233.01,103.54L234.86,78.53L236.71,80.07L238.56,82.75L240.41,73.48L242.26,40.45L244.11,40.15L245.96,115.51L247.81,82.56L249.66,98.6L251.51,86.27L253.36,106.74L255.21,153.39L257.05,80.25L258.9,88.55L260.75,36.98L262.6,42.9L266.3,74.39L268.15,53.19L271.85,28.29L273.7,16L275.55,21.23L277.4,99.93L281.1,133.68L282.95,148.32L284.79,155.77L286.64,128.51L288.49,129.92L290.34,148.15L292.19,131.29L294.04,138.89L295.89,126.94L297.74,133.07L299.59,123.49L301.44,146.68L303.29,130.9L305.14,143.73L306.99,146.3L308.84,142.37L310.68,116.5L312.53,139.71L314.38,140.43L316.23,173.67L318.08,157.96L319.93,163.91L321.78,144.01L323.63,135.66L325.48,102.09L327.33,99.97L329.18,107.31L331.03,83.9L332.88,80.2L334.73,91.26L336.58,110.81L338.42,94.27L340.27,100.7L342.12,110.15L343.97,123.76L345.82,118.15L347.67,116.9L349.52,118.1L351.37,84.9L353.22,105.87L355.07,124.15L356.92,76.16L358.77,68.98L360.62,109.61L364.32,162.55L366.16,140.63L368.01,173.94L369.86,126.15L371.71,202.58L373.56,211.36L375.41,196.5L377.26,189.19L379.11,207.39L380.96,208.42L382.81,205.62L384.66,200.24L386.51,183.96L388.36,181.05L390.21,168.83L392.05,150.21L393.9,44.99L395.75,169.48L397.6,173.84L399.45,169.33L401.3,174.57L403.15,171.37L405,179.62L406.85,195.98L408.7,199.31L410.55,192L412.4,181.23L414.25,180.48L416.1,158.58L417.95,179.77L419.79,249.28L421.64,147.99L423.49,151.2L425.34,164.32L427.19,165.63L429.04,141.58L430.89,143.99L432.74,184.85L434.59,180.25L436.44,265.87L440.14,274.08L441.99,259.54L443.84,280.58L445.68,280.43L451.23,247.22L453.08,262.21L454.93,267.42L456.78,278.66L458.63,272.54L460.48,290.05L462.33,278.55L464.18,251.41L466.03,248.37L467.88,285.92L469.73,290.03L471.58,298.53L473.42,287.26L475.27,294.57L477.12,276.76L478.97,293.66L480.82,265.31L482.67,294.65L484.52,298.08L486.37,296.75L488.22,294.29L490.07,265.81L491.92,264.24L493.77,251.83L495.62,291.8L497.47,304L499.32,299L501.16,285.33L503.01,277.02L504.86,286.42L506.71,267.64L508.56,288.35L510.41,293.18L512.26,272.12L514.11,274.88L515.96,265.11L517.81,258.25L519.66,225.62L523.36,274.95L525.21,233.28L527.05,233.5L528.9,245.38L530.75,292.21L532.6,287.45L534.45,293.71L536.3,302.7L538.15,292.05L540,293.66" style="vector-effect: none; fill: none; stroke: rgb(99, 110, 250); stroke-opacity: 1; stroke-width: 2px; opacity: 1;"/></g><g class="points"/><g class="text"/></g></g></g><g class="overplot"/><path class="xlines-above crisp" d="M0,0" style="fill: none;"/><path class="ylines-above crisp" d="M0,0" style="fill: none;"/><g class="overlines-above"/><g class="xaxislayer-above"><g class="xtick"><text text-anchor="middle" x="0" y="433" transform="translate(168.76999999999998,0)" style="font-family: 'Open Sans', verdana, arial, sans-serif; font-size: 12px; fill: rgb(42, 63, 95); fill-opacity: 1; white-space: pre; opacity: 1;">Sep 2022</text></g><g class="xtick"><text text-anchor="middle" x="0" y="433" style="font-family: 'Open Sans', verdana, arial, sans-serif; font-size: 12px; fill: rgb(42, 63, 95); fill-opacity: 1; white-space: pre; opacity: 1;" transform="translate(281.58000000000004,0)">Nov 2022</text></g><g class="xtick"><text text-anchor="middle" x="0" y="433" style="font-family: 'Open Sans', verdana, arial, sans-serif; font-size: 12px; fill: rgb(42, 63, 95); fill-opacity: 1; white-space: pre; opacity: 1;" transform="translate(394.38,0)">Jan 2023</text></g><g class="xtick"><text text-anchor="middle" x="0" y="433" style="font-family: 'Open Sans', verdana, arial, sans-serif; font-size: 12px; fill: rgb(42, 63, 95); fill-opacity: 1; white-space: pre; opacity: 1;" transform="translate(503.49,0)">Mar 2023</text></g><g class="xtick"><text text-anchor="middle" x="0" y="433" style="font-family: 'Open Sans', verdana, arial, sans-serif; font-size: 12px; fill: rgb(42, 63, 95); fill-opacity: 1; white-space: pre; opacity: 1;" transform="translate(616.3,0)">May 2023</text></g></g><g class="yaxislayer-above"><g class="ytick"><text text-anchor="end" x="79" y="4.199999999999999" transform="translate(0,405.75)" style="font-family: 'Open Sans', verdana, arial, sans-serif; font-size: 12px; fill: rgb(42, 63, 95); fill-opacity: 1; white-space: pre; opacity: 1;">$−150k</text></g><g class="ytick"><text text-anchor="end" x="79" y="4.199999999999999" style="font-family: 'Open Sans', verdana, arial, sans-serif; font-size: 12px; fill: rgb(42, 63, 95); fill-opacity: 1; white-space: pre; opacity: 1;" transform="translate(0,363.63)">$−100k</text></g><g class="ytick"><text text-anchor="end" x="79" y="4.199999999999999" style="font-family: 'Open Sans', verdana, arial, sans-serif; font-size: 12px; fill: rgb(42, 63, 95); fill-opacity: 1; white-space: pre; opacity: 1;" transform="translate(0,321.52)">$−50k</text></g><g class="ytick"><text text-anchor="end" x="79" y="4.199999999999999" style="font-family: 'Open Sans', verdana, arial, sans-serif; font-size: 12px; fill: rgb(42, 63, 95); fill-opacity: 1; white-space: pre; opacity: 1;" transform="translate(0,279.40999999999997)">$0</text></g><g class="ytick"><text text-anchor="end" x="79" y="4.199999999999999" style="font-family: 'Open Sans', verdana, arial, sans-serif; font-size: 12px; fill: rgb(42, 63, 95); fill-opacity: 1; white-space: pre; opacity: 1;" transform="translate(0,237.29)">$50k</text></g><g class="ytick"><text text-anchor="end" x="79" y="4.199999999999999" style="font-family: 'Open Sans', verdana, arial, sans-serif; font-size: 12px; fill: rgb(42, 63, 95); fill-opacity: 1; white-space: pre; opacity: 1;" transform="translate(0,195.18)">$100k</text></g><g class="ytick"><text text-anchor="end" x="79" y="4.199999999999999" style="font-family: 'Open Sans', verdana, arial, sans-serif; font-size: 12px; fill: rgb(42, 63, 95); fill-opacity: 1; white-space: pre; opacity: 1;" transform="translate(0,153.06)">$150k</text></g><g class="ytick"><text text-anchor="end" x="79" y="4.199999999999999" style="font-family: 'Open Sans', verdana, arial, sans-serif; font-size: 12px; fill: rgb(42, 63, 95); fill-opacity: 1; white-space: pre; opacity: 1;" transform="translate(0,110.95)">$200k</text></g></g><g class="overaxes-above"/></g></g><g class="polarlayer"/><g class="smithlayer"/><g class="ternarylayer"/><g class="geolayer"/><g class="funnelarealayer"/><g class="pielayer"/><g class="iciclelayer"/><g class="treemaplayer"/><g class="sunburstlayer"/><g class="glimages"/><defs id="topdefs-1e4805"><g class="clips"/></defs><g class="layer-above"><g class="imagelayer"/><g class="shapelayer"/></g><g class="infolayer"><g class="g-gtitle"><text class="gtitle" x="35" y="50" text-anchor="start" dy="0em" style="font-family: 'Open Sans', verdana, arial, sans-serif; font-size: 17px; fill: rgb(42, 63, 95); opacity: 1; font-weight: normal; white-space: pre;"><tspan class="line" dy="0em" x="35" y="50">Thales</tspan><tspan class="line" dy="1.3em" x="35" y="50">​<tspan style="font-size:70%" dy="-0.6em">Cumulative Net Flows since Program Announcement, Until Program End + 30 Days</tspan><tspan dy="0.42em">​</tspan></tspan></text></g><g class="g-xtitle"><text class="xtitle" x="350" y="460.3" text-anchor="middle" style="font-family: 'Open Sans', verdana, arial, sans-serif; font-size: 14px; fill: rgb(42, 63, 95); opacity: 1; font-weight: normal; white-space: pre;">Day</text></g><g class="g-ytitle"><text class="ytitle" transform="rotate(-90,14.996875000000003,260)" x="14.996875000000003" y="260" text-anchor="middle" style="font-family: 'Open Sans', verdana, arial, sans-serif; font-size: 14px; fill: rgb(42, 63, 95); opacity: 1; font-weight: normal; white-space: pre;">Cumulative Net Flows (USD)</text></g></g></svg>