<svg class="main-svg" xmlns="http://www.w3.org/2000/svg" xmlns:xlink="http://www.w3.org/1999/xlink" width="700" height="500" style="" viewBox="0 0 700 500"><rect x="0" y="0" width="700" height="500" style="fill: rgb(255, 255, 255); fill-opacity: 1;"/><defs id="defs-98874e"><g class="clips"><clipPath id="clip98874exyplot" class="plotclip"><rect width="540" height="320"/></clipPath><clipPath class="axesclip" id="clip98874ex"><rect x="80" y="0" width="540" height="500"/></clipPath><clipPath class="axesclip" id="clip98874ey"><rect x="0" y="100" width="700" height="320"/></clipPath><clipPath class="axesclip" id="clip98874exy"><rect x="80" y="100" width="540" height="320"/></clipPath></g><g class="gradients"/><g class="patterns"/></defs><g class="bglayer"><rect class="bg" x="80" y="100" width="540" height="320" style="fill: rgb(229, 236, 246); fill-opacity: 1; stroke-width: 0;"/></g><g class="layer-below"><g class="imagelayer"/><g class="shapelayer"/></g><g class="cartesianlayer"><g class="subplot xy"><g class="layer-subplot"><g class="shapelayer"/><g class="imagelayer"/></g><g class="minor-gridlayer"><g class="x"/><g class="y"/></g><g class="gridlayer"><g class="x"><path class="xgrid crisp" transform="translate(121.19,0)" d="M0,100v320" style="stroke: rgb(255, 255, 255); stroke-opacity: 1; stroke-width: 1px;"/><path class="xgrid crisp" transform="translate(226.44,0)" d="M0,100v320" style="stroke: rgb(255, 255, 255); stroke-opacity: 1; stroke-width: 1px;"/><path class="xgrid crisp" transform="translate(329.40999999999997,0)" d="M0,100v320" style="stroke: rgb(255, 255, 255); stroke-opacity: 1; stroke-width: 1px;"/><path class="xgrid crisp" transform="translate(433.52,0)" d="M0,100v320" style="stroke: rgb(255, 255, 255); stroke-opacity: 1; stroke-width: 1px;"/><path class="xgrid crisp" transform="translate(538.77,0)" d="M0,100v320" style="stroke: rgb(255, 255, 255); stroke-opacity: 1; stroke-width: 1px;"/></g><g class="y"><path class="ygrid crisp" transform="translate(0,410.54)" d="M80,0h540" style="stroke: rgb(255, 255, 255); stroke-opacity: 1; stroke-width: 1px;"/><path class="ygrid crisp" transform="translate(0,352.15)" d="M80,0h540" style="stroke: rgb(255, 255, 255); stroke-opacity: 1; stroke-width: 1px;"/><path class="ygrid crisp" transform="translate(0,293.76)" d="M80,0h540" style="stroke: rgb(255, 255, 255); stroke-opacity: 1; stroke-width: 1px;"/><path class="ygrid crisp" transform="translate(0,235.37)" d="M80,0h540" style="stroke: rgb(255, 255, 255); stroke-opacity: 1; stroke-width: 1px;"/><path class="ygrid crisp" transform="translate(0,118.59)" d="M80,0h540" style="stroke: rgb(255, 255, 255); stroke-opacity: 1; stroke-width: 1px;"/></g></g><g class="zerolinelayer"><path class="yzl zl crisp" transform="translate(0,176.98000000000002)" d="M80,0h540" style="stroke: rgb(255, 255, 255); stroke-opacity: 1; stroke-width: 2px;"/></g><path class="xlines-below"/><path class="ylines-below"/><g class="overlines-below"/><g class="xaxislayer-below"/><g class="yaxislayer-below"/><g class="overaxes-below"/><g class="plot" transform="translate(80,100)" clip-path="url(#clip98874exyplot)"><g class="scatterlayer mlayer"><g class="trace scatter traceb9bc49" style="stroke-miterlimit: 2;"><g class="fills"><g><path class="js-fill" d="M540,76.98L0,76.98L0,77.22L29.75,76.22L30.89,76.07L38.9,76.1L40.04,76.17L52.63,76.08L53.77,76.09L58.35,76.12L59.49,77.34L60.64,69.68L61.78,67.47L62.92,57.51L64.07,40.75L66.36,53.89L67.5,56.19L68.64,58.44L69.79,52.08L70.93,53.51L72.08,53.21L73.22,52.19L74.36,52.32L75.51,45.98L76.65,45.51L78.94,46.35L80.08,47.17L81.23,45.44L82.37,45.51L84.66,90.54L85.81,95.82L86.95,101.28L88.09,100.54L91.53,102.85L92.67,106.33L94.96,106.26L96.1,98.1L98.39,94.44L99.53,95.92L100.68,93.3L101.82,81.17L102.97,83.68L104.11,78.99L106.4,81.99L107.54,81.87L109.83,87.11L110.97,81.29L112.12,59.06L113.26,56.9L115.55,56.37L116.69,58.72L118.98,50.22L120.13,53.35L121.27,53.26L122.42,55.03L123.56,55.71L124.7,66.66L125.85,70.99L126.99,71.02L128.14,71.23L129.28,68.76L130.42,71.02L131.57,71.11L132.71,73.3L133.86,71.55L137.29,68.26L138.43,68.3L139.58,67.39L140.72,59.99L144.15,61.83L145.3,60.72L147.58,66.01L148.73,66.3L151.02,68.37L152.16,67.52L153.31,57.61L154.45,57.36L155.59,53.15L156.74,57.93L157.88,58.03L159.03,71.1L162.46,74.96L163.6,75.21L164.75,74.85L165.89,70.54L167.03,68.67L168.18,69.3L169.32,67.86L170.47,67.89L171.61,84.73L172.75,82.08L173.9,76.91L175.04,89.1L176.19,89.17L177.33,85.82L178.47,86.04L179.62,81.99L180.76,79.95L181.91,82.64L183.05,81.04L184.19,85.23L185.34,87.55L186.48,87.74L187.63,87.21L188.77,85.64L189.92,85.72L191.06,89.06L192.2,92.67L193.35,101.79L196.78,102.85L197.92,116.54L200.21,84.75L201.36,84.26L202.5,84.04L203.64,82.01L204.79,80.8L205.93,64.02L207.08,24.26L208.22,16L209.36,17.78L210.51,17.76L212.8,18.86L213.94,25.65L215.08,25.55L216.23,44.23L217.37,46.63L218.52,44.38L219.66,46.01L220.81,40.04L221.95,38.51L223.09,46.47L225.38,136.68L226.53,136.35L227.67,132.63L228.81,123.84L229.96,124.17L231.1,94.75L232.25,93.73L233.39,94.72L234.53,96.84L235.68,95.64L236.82,97.24L237.97,95.66L239.11,86.25L240.25,108.98L244.83,120.97L245.97,121.78L247.12,132.21L248.26,132.55L249.41,127.21L250.55,126.62L251.69,126.84L252.84,98.86L253.98,98.81L255.13,102.38L256.27,93.69L257.42,92.73L259.7,90.71L260.85,90.87L261.99,90.37L263.14,88.8L266.57,79.9L267.71,71.36L268.86,67.43L270,77.96L271.14,76.48L272.29,44.14L274.58,46.33L275.72,46.47L276.86,46.43L278.01,49.06L279.15,49.1L280.3,42.41L281.44,41.94L282.58,44.49L283.73,44.1L284.87,46.16L286.02,48.78L287.16,54.92L288.31,52.11L289.45,52.26L290.59,59.22L291.74,59.4L295.17,67.58L296.31,68.84L299.75,69.05L300.89,69.86L303.18,56.55L304.32,56.25L305.47,55.38L306.61,56.91L307.75,53.76L308.9,57.57L310.04,60.39L311.19,60.64L312.33,59.45L313.47,59.82L316.91,59.39L318.05,60.62L320.34,64.05L321.48,62.21L324.92,64.14L326.06,63.64L328.35,60.75L329.49,63.98L330.64,62.41L331.78,62.16L332.92,61.76L334.07,62.59L335.21,64.48L336.36,64.76L338.64,64.38L339.79,64.46L340.93,63.36L342.08,64.57L343.22,43.33L344.36,44.26L345.51,43.78L346.65,48.61L350.08,58.89L351.23,175.59L352.37,195.48L353.52,199.09L354.66,200.25L355.81,209.04L356.95,214.57L358.09,215.22L359.24,216.78L360.38,217.01L363.81,218.98L364.96,222.24L366.1,285.7L367.25,286.48L368.39,290.08L369.53,290.1L370.68,293.25L371.82,293.3L374.11,293.96L375.25,293.96L376.4,294L377.54,296.46L385.55,296.51L386.69,297.56L387.84,297.59L388.98,298.78L392.42,298.9L393.56,300.75L399.28,300.95L400.42,300.95L435.89,301.78L437.03,302.38L473.64,303.13L474.79,303.66L540,304" style="fill: rgb(99, 110, 250); fill-opacity: 0.5; stroke-width: 0;"/></g></g><g class="errorbars"/><g class="lines"><path class="js-line" d="M0,77.22L29.75,76.22L30.89,76.07L38.9,76.1L40.04,76.17L52.63,76.08L53.77,76.09L58.35,76.12L59.49,77.34L60.64,69.68L61.78,67.47L62.92,57.51L64.07,40.75L66.36,53.89L67.5,56.19L68.64,58.44L69.79,52.08L70.93,53.51L72.08,53.21L73.22,52.19L74.36,52.32L75.51,45.98L76.65,45.51L78.94,46.35L80.08,47.17L81.23,45.44L82.37,45.51L84.66,90.54L85.81,95.82L86.95,101.28L88.09,100.54L91.53,102.85L92.67,106.33L94.96,106.26L96.1,98.1L98.39,94.44L99.53,95.92L100.68,93.3L101.82,81.17L102.97,83.68L104.11,78.99L106.4,81.99L107.54,81.87L109.83,87.11L110.97,81.29L112.12,59.06L113.26,56.9L115.55,56.37L116.69,58.72L118.98,50.22L120.13,53.35L121.27,53.26L122.42,55.03L123.56,55.71L124.7,66.66L125.85,70.99L126.99,71.02L128.14,71.23L129.28,68.76L130.42,71.02L131.57,71.11L132.71,73.3L133.86,71.55L137.29,68.26L138.43,68.3L139.58,67.39L140.72,59.99L144.15,61.83L145.3,60.72L147.58,66.01L148.73,66.3L151.02,68.37L152.16,67.52L153.31,57.61L154.45,57.36L155.59,53.15L156.74,57.93L157.88,58.03L159.03,71.1L162.46,74.96L163.6,75.21L164.75,74.85L165.89,70.54L167.03,68.67L168.18,69.3L169.32,67.86L170.47,67.89L171.61,84.73L172.75,82.08L173.9,76.91L175.04,89.1L176.19,89.17L177.33,85.82L178.47,86.04L179.62,81.99L180.76,79.95L181.91,82.64L183.05,81.04L184.19,85.23L185.34,87.55L186.48,87.74L187.63,87.21L188.77,85.64L189.92,85.72L191.06,89.06L192.2,92.67L193.35,101.79L196.78,102.85L197.92,116.54L200.21,84.75L201.36,84.26L202.5,84.04L203.64,82.01L204.79,80.8L205.93,64.02L207.08,24.26L208.22,16L209.36,17.78L210.51,17.76L212.8,18.86L213.94,25.65L215.08,25.55L216.23,44.23L217.37,46.63L218.52,44.38L219.66,46.01L220.81,40.04L221.95,38.51L223.09,46.47L225.38,136.68L226.53,136.35L227.67,132.63L228.81,123.84L229.96,124.17L231.1,94.75L232.25,93.73L233.39,94.72L234.53,96.84L235.68,95.64L236.82,97.24L237.97,95.66L239.11,86.25L240.25,108.98L244.83,120.97L245.97,121.78L247.12,132.21L248.26,132.55L249.41,127.21L250.55,126.62L251.69,126.84L252.84,98.86L253.98,98.81L255.13,102.38L256.27,93.69L257.42,92.73L259.7,90.71L260.85,90.87L261.99,90.37L263.14,88.8L266.57,79.9L267.71,71.36L268.86,67.43L270,77.96L271.14,76.48L272.29,44.14L274.58,46.33L275.72,46.47L276.86,46.43L278.01,49.06L279.15,49.1L280.3,42.41L281.44,41.94L282.58,44.49L283.73,44.1L284.87,46.16L286.02,48.78L287.16,54.92L288.31,52.11L289.45,52.26L290.59,59.22L291.74,59.4L295.17,67.58L296.31,68.84L299.75,69.05L300.89,69.86L303.18,56.55L304.32,56.25L305.47,55.38L306.61,56.91L307.75,53.76L308.9,57.57L310.04,60.39L311.19,60.64L312.33,59.45L313.47,59.82L316.91,59.39L318.05,60.62L320.34,64.05L321.48,62.21L324.92,64.14L326.06,63.64L328.35,60.75L329.49,63.98L330.64,62.41L331.78,62.16L332.92,61.76L334.07,62.59L335.21,64.48L336.36,64.76L338.64,64.38L339.79,64.46L340.93,63.36L342.08,64.57L343.22,43.33L344.36,44.26L345.51,43.78L346.65,48.61L350.08,58.89L351.23,175.59L352.37,195.48L353.52,199.09L354.66,200.25L355.81,209.04L356.95,214.57L358.09,215.22L359.24,216.78L360.38,217.01L363.81,218.98L364.96,222.24L366.1,285.7L367.25,286.48L368.39,290.08L369.53,290.1L370.68,293.25L371.82,293.3L374.11,293.96L375.25,293.96L376.4,294L377.54,296.46L385.55,296.51L386.69,297.56L387.84,297.59L388.98,298.78L392.42,298.9L393.56,300.75L399.28,300.95L400.42,300.95L435.89,301.78L437.03,302.38L473.64,303.13L474.79,303.66L540,304" style="vector-effect: none; fill: none; stroke: rgb(99, 110, 250); stroke-opacity: 1; stroke-width: 2px; opacity: 1;"/></g><g class="points"/><g class="text"/></g></g></g><g class="overplot"/><path class="xlines-above crisp" d="M0,0" style="fill: none;"/><path class="ylines-above crisp" d="M0,0" style="fill: none;"/><g class="overlines-above"/><g class="xaxislayer-above"><g class="xtick"><text text-anchor="middle" x="0" y="433" transform="translate(121.19,0)" style="font-family: 'Open Sans', verdana, arial, sans-serif; font-size: 12px; fill: rgb(42, 63, 95); fill-opacity: 1; white-space: pre; opacity: 1;">Oct 2022</text></g><g class="xtick"><text text-anchor="middle" x="0" y="433" style="font-family: 'Open Sans', verdana, arial, sans-serif; font-size: 12px; fill: rgb(42, 63, 95); fill-opacity: 1; white-space: pre; opacity: 1;" transform="translate(226.44,0)">Jan 2023</text></g><g class="xtick"><text text-anchor="middle" x="0" y="433" style="font-family: 'Open Sans', verdana, arial, sans-serif; font-size: 12px; fill: rgb(42, 63, 95); fill-opacity: 1; white-space: pre; opacity: 1;" transform="translate(329.40999999999997,0)">Apr 2023</text></g><g class="xtick"><text text-anchor="middle" x="0" y="433" style="font-family: 'Open Sans', verdana, arial, sans-serif; font-size: 12px; fill: rgb(42, 63, 95); fill-opacity: 1; white-space: pre; opacity: 1;" transform="translate(433.52,0)">Jul 2023</text></g><g class="xtick"><text text-anchor="middle" x="0" y="433" style="font-family: 'Open Sans', verdana, arial, sans-serif; font-size: 12px; fill: rgb(42, 63, 95); fill-opacity: 1; white-space: pre; opacity: 1;" transform="translate(538.77,0)">Oct 2023</text></g></g><g class="yaxislayer-above"><g class="ytick"><text text-anchor="end" x="79" y="4.199999999999999" transform="translate(0,410.54)" style="font-family: 'Open Sans', verdana, arial, sans-serif; font-size: 12px; fill: rgb(42, 63, 95); fill-opacity: 1; white-space: pre; opacity: 1;">$−8M</text></g><g class="ytick"><text text-anchor="end" x="79" y="4.199999999999999" style="font-family: 'Open Sans', verdana, arial, sans-serif; font-size: 12px; fill: rgb(42, 63, 95); fill-opacity: 1; white-space: pre; opacity: 1;" transform="translate(0,352.15)">$−6M</text></g><g class="ytick"><text text-anchor="end" x="79" y="4.199999999999999" style="font-family: 'Open Sans', verdana, arial, sans-serif; font-size: 12px; fill: rgb(42, 63, 95); fill-opacity: 1; white-space: pre; opacity: 1;" transform="translate(0,293.76)">$−4M</text></g><g class="ytick"><text text-anchor="end" x="79" y="4.199999999999999" style="font-family: 'Open Sans', verdana, arial, sans-serif; font-size: 12px; fill: rgb(42, 63, 95); fill-opacity: 1; white-space: pre; opacity: 1;" transform="translate(0,235.37)">$−2M</text></g><g class="ytick"><text text-anchor="end" x="79" y="4.199999999999999" style="font-family: 'Open Sans', verdana, arial, sans-serif; font-size: 12px; fill: rgb(42, 63, 95); fill-opacity: 1; white-space: pre; opacity: 1;" transform="translate(0,176.98000000000002)">$0</text></g><g class="ytick"><text text-anchor="end" x="79" y="4.199999999999999" style="font-family: 'Open Sans', verdana, arial, sans-serif; font-size: 12px; fill: rgb(42, 63, 95); fill-opacity: 1; white-space: pre; opacity: 1;" transform="translate(0,118.59)">$2M</text></g></g><g class="overaxes-above"/></g></g><g class="polarlayer"/><g class="smithlayer"/><g class="ternarylayer"/><g class="geolayer"/><g class="funnelarealayer"/><g class="pielayer"/><g class="iciclelayer"/><g class="treemaplayer"/><g class="sunburstlayer"/><g class="glimages"/><defs id="topdefs-98874e"><g class="clips"/></defs><g class="layer-above"><g class="imagelayer"/><g class="shapelayer"/></g><g class="infolayer"><g class="g-gtitle"><text class="gtitle" x="35" y="50" text-anchor="start" dy="0em" style="font-family: 'Open Sans', verdana, arial, sans-serif; font-size: 17px; fill: rgb(42, 63, 95); opacity: 1; font-weight: normal; white-space: pre;"><tspan class="line" dy="0em" x="35" y="50">Qidao - sUSDC/MAI: Velodrome</tspan><tspan class="line" dy="1.3em" x="35" y="50">​<tspan style="font-size:70%" dy="-0.6em">Cumulative Net Flows since Program Announcement, Until Program End + 30 Days</tspan><tspan dy="0.42em">​</tspan></tspan></text></g><g class="g-xtitle"><text class="xtitle" x="350" y="460.3" text-anchor="middle" style="font-family: 'Open Sans', verdana, arial, sans-serif; font-size: 14px; fill: rgb(42, 63, 95); opacity: 1; font-weight: normal; white-space: pre;">Day</text></g><g class="g-ytitle"><text class="ytitle" transform="rotate(-90,24.340625000000003,260)" x="24.340625000000003" y="260" text-anchor="middle" style="font-family: 'Open Sans', verdana, arial, sans-serif; font-size: 14px; fill: rgb(42, 63, 95); opacity: 1; font-weight: normal; white-space: pre;">Cumulative Net Flows (USD)</text></g></g></svg>