<svg class="main-svg" xmlns="http://www.w3.org/2000/svg" xmlns:xlink="http://www.w3.org/1999/xlink" width="700" height="500" style="" viewBox="0 0 700 500"><rect x="0" y="0" width="700" height="500" style="fill: rgb(255, 255, 255); fill-opacity: 1;"/><defs id="defs-7cfd75"><g class="clips"><clipPath id="clip7cfd75xyplot" class="plotclip"><rect width="540" height="320"/></clipPath><clipPath class="axesclip" id="clip7cfd75x"><rect x="80" y="0" width="540" height="500"/></clipPath><clipPath class="axesclip" id="clip7cfd75y"><rect x="0" y="100" width="700" height="320"/></clipPath><clipPath class="axesclip" id="clip7cfd75xy"><rect x="80" y="100" width="540" height="320"/></clipPath></g><g class="gradients"/><g class="patterns"/></defs><g class="bglayer"><rect class="bg" x="80" y="100" width="540" height="320" style="fill: rgb(229, 236, 246); fill-opacity: 1; stroke-width: 0;"/></g><g class="layer-below"><g class="imagelayer"/><g class="shapelayer"/></g><g class="cartesianlayer"><g class="subplot xy"><g class="layer-subplot"><g class="shapelayer"/><g class="imagelayer"/></g><g class="minor-gridlayer"><g class="x"/><g class="y"/></g><g class="gridlayer"><g class="x"><path class="xgrid crisp" transform="translate(88.03999999999999,0)" d="M0,100v320" style="stroke: rgb(255, 255, 255); stroke-opacity: 1; stroke-width: 1px;"/><path class="xgrid crisp" transform="translate(158.13,0)" d="M0,100v320" style="stroke: rgb(255, 255, 255); stroke-opacity: 1; stroke-width: 1px;"/><path class="xgrid crisp" transform="translate(228.21,0)" d="M0,100v320" style="stroke: rgb(255, 255, 255); stroke-opacity: 1; stroke-width: 1px;"/><path class="xgrid crisp" transform="translate(296,0)" d="M0,100v320" style="stroke: rgb(255, 255, 255); stroke-opacity: 1; stroke-width: 1px;"/><path class="xgrid crisp" transform="translate(366.09,0)" d="M0,100v320" style="stroke: rgb(255, 255, 255); stroke-opacity: 1; stroke-width: 1px;"/><path class="xgrid crisp" transform="translate(436.17,0)" d="M0,100v320" style="stroke: rgb(255, 255, 255); stroke-opacity: 1; stroke-width: 1px;"/><path class="xgrid crisp" transform="translate(507.4,0)" d="M0,100v320" style="stroke: rgb(255, 255, 255); stroke-opacity: 1; stroke-width: 1px;"/><path class="xgrid crisp" transform="translate(577.49,0)" d="M0,100v320" style="stroke: rgb(255, 255, 255); stroke-opacity: 1; stroke-width: 1px;"/></g><g class="y"><path class="ygrid crisp" transform="translate(0,354.66999999999996)" d="M80,0h540" style="stroke: rgb(255, 255, 255); stroke-opacity: 1; stroke-width: 1px;"/><path class="ygrid crisp" transform="translate(0,289.34000000000003)" d="M80,0h540" style="stroke: rgb(255, 255, 255); stroke-opacity: 1; stroke-width: 1px;"/><path class="ygrid crisp" transform="translate(0,224)" d="M80,0h540" style="stroke: rgb(255, 255, 255); stroke-opacity: 1; stroke-width: 1px;"/><path class="ygrid crisp" transform="translate(0,158.67000000000002)" d="M80,0h540" style="stroke: rgb(255, 255, 255); stroke-opacity: 1; stroke-width: 1px;"/></g></g><g class="zerolinelayer"><path class="yzl zl crisp" transform="translate(0,420)" d="M80,0h540" style="stroke: rgb(255, 255, 255); stroke-opacity: 1; stroke-width: 2px;"/></g><path class="xlines-below"/><path class="ylines-below"/><g class="overlines-below"/><g class="xaxislayer-below"/><g class="yaxislayer-below"/><g class="overaxes-below"/><g class="plot" transform="translate(80,100)" clip-path="url(#clip7cfd75xyplot)"><g class="scatterlayer mlayer"><g class="trace scatter trace2529c1" style="stroke-miterlimit: 2;"><g class="fills"><g><path class="js-fill" d="M540,320L0,320L0,181.11L1.15,181.99L2.3,180.35L5.74,175.51L6.89,158.44L8.04,155.41L9.19,158.59L11.49,152.63L12.64,153.56L14.94,144.85L16.09,128.6L19.53,117.25L20.68,113.14L21.83,112.56L22.98,113.5L25.28,121.66L26.43,116.44L28.72,126.02L29.87,127.02L31.02,128.26L32.17,132.09L33.32,138.32L34.47,139.81L35.62,139.5L36.77,140.15L37.91,143.43L39.06,143.77L40.21,146.61L41.36,160.87L43.66,162.21L44.81,162.25L45.96,162.89L47.11,166.86L48.26,167.38L49.4,165.38L50.55,166.23L51.7,168.48L54,170.22L55.15,170.78L57.45,172.77L58.6,161.35L60.89,161.35L62.04,164.43L64.34,164.28L65.49,164.37L67.79,163.42L68.94,162.97L70.09,160.16L71.23,160.96L72.38,160.27L73.53,162.98L76.98,163.54L78.13,156.72L80.43,149.14L81.57,121.79L82.72,119.27L83.87,119.26L86.17,119.38L87.32,124.5L88.47,131.32L89.62,144.19L90.77,142.78L91.91,145.04L95.36,146.07L96.51,150.79L97.66,153.34L98.81,152.72L99.96,153.52L101.11,156.17L102.26,159.28L103.4,158.51L104.55,155.74L105.7,156.15L110.3,156.99L111.45,155.35L112.6,159.21L113.74,159.37L114.89,155.25L116.04,155.72L119.49,155.58L120.64,151.64L121.79,152.8L122.94,152.35L125.23,153.1L126.38,146.52L127.53,147.31L128.68,134.01L129.83,151.16L130.98,152.05L132.13,151.92L133.28,152.85L134.43,152.85L135.57,151.32L136.72,149.76L137.87,150.25L142.47,149.82L143.62,151.82L147.06,152.2L148.21,163.53L152.81,162.15L153.96,160.83L157.4,148.07L158.55,147.64L159.7,139.79L160.85,138.59L162,139.03L163.15,137.62L164.3,128.35L165.45,126.96L166.6,126.53L167.74,124.77L171.19,120.22L172.34,117.84L174.64,115.12L175.79,116.03L176.94,114.12L178.09,98.64L179.23,98.08L180.38,80.4L181.53,79.73L182.68,73.13L183.83,71.65L184.98,64.42L186.13,27.25L187.28,24.28L188.43,27.38L189.57,26.84L191.87,16L193.02,50.98L194.17,48.68L195.32,48.56L196.47,46.33L197.62,46.51L198.77,46.21L199.91,46.93L202.21,42.44L203.36,43.42L204.51,42.88L205.66,43.71L206.81,51.92L207.96,52.42L211.4,52.15L212.55,51.85L214.85,52.6L216,41.96L217.15,41.98L218.3,43.52L219.45,23.24L220.6,22.38L224.04,22.52L225.19,28.35L226.34,32.86L227.49,42.61L228.64,174.64L229.79,175.93L232.09,125.72L233.23,123.47L234.38,105.31L235.53,108.39L236.68,121.04L237.83,120.27L238.98,119.98L240.13,117.47L242.43,64.47L243.57,64.21L245.87,96.51L247.02,100.6L248.17,139.65L249.32,146.22L253.91,167.28L255.06,169L257.36,169.99L258.51,171.37L259.66,176.57L260.81,178.29L266.55,180.73L267.7,182.52L268.85,184.6L270,184.35L271.15,184.67L272.3,186.1L278.04,187.17L279.19,190.47L280.34,190.58L281.49,194.46L287.23,194.98L288.38,195.98L290.68,196.72L291.83,197.8L292.98,228.92L294.13,229.91L296.43,230.61L297.57,231.31L298.72,231.36L299.87,200.41L305.62,200.47L306.77,204.04L312.51,204.66L313.66,205.45L318.26,205.67L319.4,206.53L329.74,207.05L330.89,214.44L335.49,215.13L336.64,216.39L341.23,217.07L342.38,217.26L344.68,217.07L345.83,222.75L346.98,222.97L348.13,224.41L350.43,224.79L351.57,225.78L358.47,226.51L359.62,227.29L360.77,229.24L361.91,229.18L368.81,229.52L369.96,230.61L372.26,230.93L373.4,231.14L374.55,232.44L375.7,251.99L389.49,252.24L390.64,289.74L391.79,289.82L392.94,252.65L395.23,252.69L396.38,289.74L398.68,289.16L399.83,258.12L400.98,258.21L402.13,252.46L403.28,275.14L404.43,275.16L411.32,275.18L412.47,281.64L473.36,282.5L474.51,282.96L488.3,282.63L489.45,289.73L496.34,289.88L497.49,289.9L513.57,290.33L514.72,289.51L536.55,290.06L537.7,289.51L540,289.33" style="fill: rgb(99, 110, 250); fill-opacity: 0.5; stroke-width: 0;"/></g></g><g class="errorbars"/><g class="lines"><path class="js-line" d="M0,181.11L1.15,181.99L2.3,180.35L5.74,175.51L6.89,158.44L8.04,155.41L9.19,158.59L11.49,152.63L12.64,153.56L14.94,144.85L16.09,128.6L19.53,117.25L20.68,113.14L21.83,112.56L22.98,113.5L25.28,121.66L26.43,116.44L28.72,126.02L29.87,127.02L31.02,128.26L32.17,132.09L33.32,138.32L34.47,139.81L35.62,139.5L36.77,140.15L37.91,143.43L39.06,143.77L40.21,146.61L41.36,160.87L43.66,162.21L44.81,162.25L45.96,162.89L47.11,166.86L48.26,167.38L49.4,165.38L50.55,166.23L51.7,168.48L54,170.22L55.15,170.78L57.45,172.77L58.6,161.35L60.89,161.35L62.04,164.43L64.34,164.28L65.49,164.37L67.79,163.42L68.94,162.97L70.09,160.16L71.23,160.96L72.38,160.27L73.53,162.98L76.98,163.54L78.13,156.72L80.43,149.14L81.57,121.79L82.72,119.27L83.87,119.26L86.17,119.38L87.32,124.5L88.47,131.32L89.62,144.19L90.77,142.78L91.91,145.04L95.36,146.07L96.51,150.79L97.66,153.34L98.81,152.72L99.96,153.52L101.11,156.17L102.26,159.28L103.4,158.51L104.55,155.74L105.7,156.15L110.3,156.99L111.45,155.35L112.6,159.21L113.74,159.37L114.89,155.25L116.04,155.72L119.49,155.58L120.64,151.64L121.79,152.8L122.94,152.35L125.23,153.1L126.38,146.52L127.53,147.31L128.68,134.01L129.83,151.16L130.98,152.05L132.13,151.92L133.28,152.85L134.43,152.85L135.57,151.32L136.72,149.76L137.87,150.25L142.47,149.82L143.62,151.82L147.06,152.2L148.21,163.53L152.81,162.15L153.96,160.83L157.4,148.07L158.55,147.64L159.7,139.79L160.85,138.59L162,139.03L163.15,137.62L164.3,128.35L165.45,126.96L166.6,126.53L167.74,124.77L171.19,120.22L172.34,117.84L174.64,115.12L175.79,116.03L176.94,114.12L178.09,98.64L179.23,98.08L180.38,80.4L181.53,79.73L182.68,73.13L183.83,71.65L184.98,64.42L186.13,27.25L187.28,24.28L188.43,27.38L189.57,26.84L191.87,16L193.02,50.98L194.17,48.68L195.32,48.56L196.47,46.33L197.62,46.51L198.77,46.21L199.91,46.93L202.21,42.44L203.36,43.42L204.51,42.88L205.66,43.71L206.81,51.92L207.96,52.42L211.4,52.15L212.55,51.85L214.85,52.6L216,41.96L217.15,41.98L218.3,43.52L219.45,23.24L220.6,22.38L224.04,22.52L225.19,28.35L226.34,32.86L227.49,42.61L228.64,174.64L229.79,175.93L232.09,125.72L233.23,123.47L234.38,105.31L235.53,108.39L236.68,121.04L237.83,120.27L238.98,119.98L240.13,117.47L242.43,64.47L243.57,64.21L245.87,96.51L247.02,100.6L248.17,139.65L249.32,146.22L253.91,167.28L255.06,169L257.36,169.99L258.51,171.37L259.66,176.57L260.81,178.29L266.55,180.73L267.7,182.52L268.85,184.6L270,184.35L271.15,184.67L272.3,186.1L278.04,187.17L279.19,190.47L280.34,190.58L281.49,194.46L287.23,194.98L288.38,195.98L290.68,196.72L291.83,197.8L292.98,228.92L294.13,229.91L296.43,230.61L297.57,231.31L298.72,231.36L299.87,200.41L305.62,200.47L306.77,204.04L312.51,204.66L313.66,205.45L318.26,205.67L319.4,206.53L329.74,207.05L330.89,214.44L335.49,215.13L336.64,216.39L341.23,217.07L342.38,217.26L344.68,217.07L345.83,222.75L346.98,222.97L348.13,224.41L350.43,224.79L351.57,225.78L358.47,226.51L359.62,227.29L360.77,229.24L361.91,229.18L368.81,229.52L369.96,230.61L372.26,230.93L373.4,231.14L374.55,232.44L375.7,251.99L389.49,252.24L390.64,289.74L391.79,289.82L392.94,252.65L395.23,252.69L396.38,289.74L398.68,289.16L399.83,258.12L400.98,258.21L402.13,252.46L403.28,275.14L404.43,275.16L411.32,275.18L412.47,281.64L473.36,282.5L474.51,282.96L488.3,282.63L489.45,289.73L496.34,289.88L497.49,289.9L513.57,290.33L514.72,289.51L536.55,290.06L537.7,289.51L540,289.33" style="vector-effect: none; fill: none; stroke: rgb(99, 110, 250); stroke-opacity: 1; stroke-width: 2px; opacity: 1;"/></g><g class="points"/><g class="text"/></g></g></g><g class="overplot"/><path class="xlines-above crisp" d="M0,0" style="fill: none;"/><path class="ylines-above crisp" d="M0,0" style="fill: none;"/><g class="overlines-above"/><g class="xaxislayer-above"><g class="xtick"><text text-anchor="middle" x="0" y="433" transform="translate(88.03999999999999,0)" style="font-family: 'Open Sans', verdana, arial, sans-serif; font-size: 12px; fill: rgb(42, 63, 95); fill-opacity: 1; white-space: pre; opacity: 1;">Sep 2022</text></g><g class="xtick"><text text-anchor="middle" x="0" y="433" style="font-family: 'Open Sans', verdana, arial, sans-serif; font-size: 12px; fill: rgb(42, 63, 95); fill-opacity: 1; white-space: pre; opacity: 1;" transform="translate(158.13,0)">Nov 2022</text></g><g class="xtick"><text text-anchor="middle" x="0" y="433" style="font-family: 'Open Sans', verdana, arial, sans-serif; font-size: 12px; fill: rgb(42, 63, 95); fill-opacity: 1; white-space: pre; opacity: 1;" transform="translate(228.21,0)">Jan 2023</text></g><g class="xtick"><text text-anchor="middle" x="0" y="433" style="font-family: 'Open Sans', verdana, arial, sans-serif; font-size: 12px; fill: rgb(42, 63, 95); fill-opacity: 1; white-space: pre; opacity: 1;" transform="translate(296,0)">Mar 2023</text></g><g class="xtick"><text text-anchor="middle" x="0" y="433" style="font-family: 'Open Sans', verdana, arial, sans-serif; font-size: 12px; fill: rgb(42, 63, 95); fill-opacity: 1; white-space: pre; opacity: 1;" transform="translate(366.09,0)">May 2023</text></g><g class="xtick"><text text-anchor="middle" x="0" y="433" style="font-family: 'Open Sans', verdana, arial, sans-serif; font-size: 12px; fill: rgb(42, 63, 95); fill-opacity: 1; white-space: pre; opacity: 1;" transform="translate(436.17,0)">Jul 2023</text></g><g class="xtick"><text text-anchor="middle" x="0" y="433" style="font-family: 'Open Sans', verdana, arial, sans-serif; font-size: 12px; fill: rgb(42, 63, 95); fill-opacity: 1; white-space: pre; opacity: 1;" transform="translate(507.4,0)">Sep 2023</text></g><g class="xtick"><text text-anchor="middle" x="0" y="433" style="font-family: 'Open Sans', verdana, arial, sans-serif; font-size: 12px; fill: rgb(42, 63, 95); fill-opacity: 1; white-space: pre; opacity: 1;" transform="translate(577.49,0)">Nov 2023</text></g></g><g class="yaxislayer-above"><g class="ytick"><text text-anchor="end" x="79" y="4.199999999999999" transform="translate(0,420)" style="font-family: 'Open Sans', verdana, arial, sans-serif; font-size: 12px; fill: rgb(42, 63, 95); fill-opacity: 1; white-space: pre; opacity: 1;">$0</text></g><g class="ytick"><text text-anchor="end" x="79" y="4.199999999999999" style="font-family: 'Open Sans', verdana, arial, sans-serif; font-size: 12px; fill: rgb(42, 63, 95); fill-opacity: 1; white-space: pre; opacity: 1;" transform="translate(0,354.66999999999996)">$10M</text></g><g class="ytick"><text text-anchor="end" x="79" y="4.199999999999999" style="font-family: 'Open Sans', verdana, arial, sans-serif; font-size: 12px; fill: rgb(42, 63, 95); fill-opacity: 1; white-space: pre; opacity: 1;" transform="translate(0,289.34000000000003)">$20M</text></g><g class="ytick"><text text-anchor="end" x="79" y="4.199999999999999" style="font-family: 'Open Sans', verdana, arial, sans-serif; font-size: 12px; fill: rgb(42, 63, 95); fill-opacity: 1; white-space: pre; opacity: 1;" transform="translate(0,224)">$30M</text></g><g class="ytick"><text text-anchor="end" x="79" y="4.199999999999999" style="font-family: 'Open Sans', verdana, arial, sans-serif; font-size: 12px; fill: rgb(42, 63, 95); fill-opacity: 1; white-space: pre; opacity: 1;" transform="translate(0,158.67000000000002)">$40M</text></g></g><g class="overaxes-above"/></g></g><g class="polarlayer"/><g class="smithlayer"/><g class="ternarylayer"/><g class="geolayer"/><g class="funnelarealayer"/><g class="pielayer"/><g class="iciclelayer"/><g class="treemaplayer"/><g class="sunburstlayer"/><g class="glimages"/><defs id="topdefs-7cfd75"><g class="clips"/></defs><g class="layer-above"><g class="imagelayer"/><g class="shapelayer"/></g><g class="infolayer"><g class="g-gtitle"><text class="gtitle" x="35" y="50" text-anchor="start" dy="0em" style="font-family: 'Open Sans', verdana, arial, sans-serif; font-size: 17px; fill: rgb(42, 63, 95); opacity: 1; font-weight: normal; white-space: pre;"><tspan class="line" dy="0em" x="35" y="50">Synthetix - sUSD-3Crv: Curve</tspan><tspan class="line" dy="1.3em" x="35" y="50">​<tspan style="font-size:70%" dy="-0.6em">Cumulative Net Flows since Program Announcement, Until Program End + 30 Days</tspan><tspan dy="0.42em">​</tspan></tspan></text></g><g class="g-xtitle"><text class="xtitle" x="350" y="460.3" text-anchor="middle" style="font-family: 'Open Sans', verdana, arial, sans-serif; font-size: 14px; fill: rgb(42, 63, 95); opacity: 1; font-weight: normal; white-space: pre;">Day</text></g><g class="g-ytitle"><text class="ytitle" transform="rotate(-90,24.668750000000003,260)" x="24.668750000000003" y="260" text-anchor="middle" style="font-family: 'Open Sans', verdana, arial, sans-serif; font-size: 14px; fill: rgb(42, 63, 95); opacity: 1; font-weight: normal; white-space: pre;">Cumulative Net Flows (USD)</text></g></g></svg>