<svg class="main-svg" xmlns="http://www.w3.org/2000/svg" xmlns:xlink="http://www.w3.org/1999/xlink" width="700" height="500" style="" viewBox="0 0 700 500"><rect x="0" y="0" width="700" height="500" style="fill: rgb(255, 255, 255); fill-opacity: 1;"/><defs id="defs-84ad88"><g class="clips"><clipPath id="clip84ad88xyplot" class="plotclip"><rect width="540" height="320"/></clipPath><clipPath class="axesclip" id="clip84ad88x"><rect x="80" y="0" width="540" height="500"/></clipPath><clipPath class="axesclip" id="clip84ad88y"><rect x="0" y="100" width="700" height="320"/></clipPath><clipPath class="axesclip" id="clip84ad88xy"><rect x="80" y="100" width="540" height="320"/></clipPath></g><g class="gradients"/><g class="patterns"/></defs><g class="bglayer"><rect class="bg" x="80" y="100" width="540" height="320" style="fill: rgb(229, 236, 246); fill-opacity: 1; stroke-width: 0;"/></g><g class="layer-below"><g class="imagelayer"/><g class="shapelayer"/></g><g class="cartesianlayer"><g class="subplot xy"><g class="layer-subplot"><g class="shapelayer"/><g class="imagelayer"/></g><g class="minor-gridlayer"><g class="x"/><g class="y"/></g><g class="gridlayer"><g class="x"><path class="xgrid crisp" transform="translate(119.72,0)" d="M0,100v320" style="stroke: rgb(255, 255, 255); stroke-opacity: 1; stroke-width: 1px;"/><path class="xgrid crisp" transform="translate(218.49,0)" d="M0,100v320" style="stroke: rgb(255, 255, 255); stroke-opacity: 1; stroke-width: 1px;"/><path class="xgrid crisp" transform="translate(315.11,0)" d="M0,100v320" style="stroke: rgb(255, 255, 255); stroke-opacity: 1; stroke-width: 1px;"/><path class="xgrid crisp" transform="translate(412.8,0)" d="M0,100v320" style="stroke: rgb(255, 255, 255); stroke-opacity: 1; stroke-width: 1px;"/><path class="xgrid crisp" transform="translate(511.57,0)" d="M0,100v320" style="stroke: rgb(255, 255, 255); stroke-opacity: 1; stroke-width: 1px;"/><path class="xgrid crisp" transform="translate(610.34,0)" d="M0,100v320" style="stroke: rgb(255, 255, 255); stroke-opacity: 1; stroke-width: 1px;"/></g><g class="y"><path class="ygrid crisp" transform="translate(0,362.51)" d="M80,0h540" style="stroke: rgb(255, 255, 255); stroke-opacity: 1; stroke-width: 1px;"/><path class="ygrid crisp" transform="translate(0,323.47)" d="M80,0h540" style="stroke: rgb(255, 255, 255); stroke-opacity: 1; stroke-width: 1px;"/><path class="ygrid crisp" transform="translate(0,284.44)" d="M80,0h540" style="stroke: rgb(255, 255, 255); stroke-opacity: 1; stroke-width: 1px;"/><path class="ygrid crisp" transform="translate(0,245.4)" d="M80,0h540" style="stroke: rgb(255, 255, 255); stroke-opacity: 1; stroke-width: 1px;"/><path class="ygrid crisp" transform="translate(0,206.36)" d="M80,0h540" style="stroke: rgb(255, 255, 255); stroke-opacity: 1; stroke-width: 1px;"/><path class="ygrid crisp" transform="translate(0,167.32999999999998)" d="M80,0h540" style="stroke: rgb(255, 255, 255); stroke-opacity: 1; stroke-width: 1px;"/><path class="ygrid crisp" transform="translate(0,128.29)" d="M80,0h540" style="stroke: rgb(255, 255, 255); stroke-opacity: 1; stroke-width: 1px;"/></g></g><g class="zerolinelayer"><path class="yzl zl crisp" transform="translate(0,401.54)" d="M80,0h540" style="stroke: rgb(255, 255, 255); stroke-opacity: 1; stroke-width: 2px;"/></g><path class="xlines-below"/><path class="ylines-below"/><g class="overlines-below"/><g class="xaxislayer-below"/><g class="yaxislayer-below"/><g class="overaxes-below"/><g class="plot" transform="translate(80,100)" clip-path="url(#clip84ad88xyplot)"><g class="scatterlayer mlayer"><g class="trace scatter traceb55211" style="stroke-miterlimit: 2;"><g class="fills"><g><path class="js-fill" d="M540,301.54L0,301.54L0,218.15L1.07,201.28L2.15,197.3L5.37,190.39L6.44,179.09L7.51,176.69L8.59,179.32L10.74,172.28L11.81,171.44L12.88,171.77L13.96,168.95L17.18,148.52L18.25,146.46L19.32,143.65L20.4,144.42L22.54,150.17L23.62,146.79L24.69,140.28L25.77,142.07L28.99,147.96L30.06,149.12L31.13,152.72L32.21,153.71L34.35,153.57L35.43,155.28L36.5,143.61L37.57,146.14L38.65,157.16L39.72,157.1L41.87,157.98L42.94,158.94L45.09,164.97L46.16,162.26L48.31,167.59L49.38,168.97L50.46,170.6L51.53,169.81L53.68,170.7L54.75,162.9L56.9,162.74L57.97,163.86L59.05,164.6L60.12,164.28L63.34,163.87L64.41,163.6L65.49,161.94L66.56,161.74L67.63,161.65L68.71,168.31L69.78,167.36L70.85,162.34L71.93,162.73L73,158.64L75.15,154.06L76.22,137.85L77.3,136.49L78.37,136.86L80.52,136.09L81.59,153.03L83.74,161.29L84.81,157.99L85.88,161.88L86.96,157.99L89.11,157.43L90.18,161.02L91.25,164.31L92.33,163.52L93.4,163.59L94.47,165.9L95.55,167.96L96.62,167.35L97.69,163.26L98.77,163.7L101.99,163.48L103.06,163.8L104.14,162.74L105.21,164.95L106.28,164.01L107.36,161.58L110.58,157.76L111.65,152.36L112.72,147.61L113.8,148.49L114.87,147.46L115.94,147.92L117.02,147.26L118.09,141.79L119.17,141.97L120.24,132.12L121.31,141.13L122.39,143.22L124.53,143.72L125.61,145.04L126.68,149.65L127.75,148.89L128.83,149.37L129.9,148.9L132.05,149.05L133.12,148.79L134.19,152.29L135.27,152.42L136.34,151.04L137.42,145.49L139.56,152.79L140.64,152.71L141.71,154.55L142.78,154.55L144.93,149.31L146,149.41L148.15,139.72L149.22,130.82L150.3,129.48L151.37,131.93L152.45,129.44L153.52,123.36L155.67,122.86L156.74,121.69L157.81,122.2L158.89,119.57L161.03,111.44L162.11,110.38L163.18,108.65L164.25,99.46L166.4,67.34L167.48,68.07L168.55,53.21L169.62,52.46L170.7,42.38L171.77,41.32L172.84,36.27L173.92,16L176.06,22.55L177.14,22.22L178.21,23.01L179.28,26.29L180.36,48.17L181.43,46.96L182.5,46.78L183.58,36.42L184.65,37.44L185.73,36.26L186.8,36.81L187.87,34.61L188.95,35.41L190.02,40.15L191.09,39.92L192.17,40.84L193.24,51.86L194.31,52.47L196.46,52.45L197.53,51.33L198.61,49.25L199.68,49.25L200.76,49.19L201.83,42.87L202.9,42.62L203.98,44.15L205.05,31.93L206.12,31.37L207.2,29.94L208.27,30.33L209.34,29.69L210.42,31.3L212.56,39.21L213.64,124.02L214.71,123.58L215.79,109.93L216.86,89.33L217.93,87.06L219.01,77.43L220.08,81.33L221.15,89.86L222.23,90.62L223.3,90.54L224.37,88.4L226.52,57.15L227.59,57.52L230.82,109.45L231.89,154.54L232.96,169.19L234.04,173.26L236.18,183.92L237.26,189.12L240.48,195.97L241.55,197.42L243.7,202.16L244.77,202.72L246.92,205.35L247.99,205.45L249.07,227.11L250.14,228.35L252.29,230.35L253.36,230.79L255.51,232.39L256.58,232.39L257.65,231.49L258.73,231.89L259.8,232.14L260.87,234.19L261.95,235.82L263.02,238.94L271.61,240.66L272.68,241.34L273.76,259.97L274.83,260.63L278.05,261.53L279.13,262.7L280.2,244.22L281.27,244.21L284.49,244.72L285.57,244.65L286.64,246.89L287.71,246.96L292.01,247.44L293.08,249.64L308.11,251.01L309.18,255.43L315.63,256.76L316.7,257.36L322.07,257.36L323.14,260.98L327.44,262.26L328.51,262.84L334.95,263.33L336.02,263.88L337.1,265.13L338.17,265.12L344.61,265.33L345.69,266.12L348.91,266.43L349.98,267.38L351.05,279.07L352.13,279.1L363.94,279.23L365.01,301.9L366.08,301.98L367.16,279.79L369.3,279.81L370.38,301.95L372.52,301.6L373.6,283.06L374.67,283.11L375.75,279.68L376.82,293.24L377.89,293.25L384.33,293.28L385.41,297.14L442.31,297.68L443.38,297.95L456.26,297.76L457.34,302.09L463.78,302.41L464.85,303.04L489.54,303.09L490.62,303.84L499.2,303.84L500.28,303.7L502.43,303.67L503.5,303.64L507.79,303.19L508.87,301.26L513.16,301.23L514.23,301.98L540,302.67" style="fill: rgb(99, 110, 250); fill-opacity: 0.5; stroke-width: 0;"/></g></g><g class="errorbars"/><g class="lines"><path class="js-line" d="M0,218.15L1.07,201.28L2.15,197.3L5.37,190.39L6.44,179.09L7.51,176.69L8.59,179.32L10.74,172.28L11.81,171.44L12.88,171.77L13.96,168.95L17.18,148.52L18.25,146.46L19.32,143.65L20.4,144.42L22.54,150.17L23.62,146.79L24.69,140.28L25.77,142.07L28.99,147.96L30.06,149.12L31.13,152.72L32.21,153.71L34.35,153.57L35.43,155.28L36.5,143.61L37.57,146.14L38.65,157.16L39.72,157.1L41.87,157.98L42.94,158.94L45.09,164.97L46.16,162.26L48.31,167.59L49.38,168.97L50.46,170.6L51.53,169.81L53.68,170.7L54.75,162.9L56.9,162.74L57.97,163.86L59.05,164.6L60.12,164.28L63.34,163.87L64.41,163.6L65.49,161.94L66.56,161.74L67.63,161.65L68.71,168.31L69.78,167.36L70.85,162.34L71.93,162.73L73,158.64L75.15,154.06L76.22,137.85L77.3,136.49L78.37,136.86L80.52,136.09L81.59,153.03L83.74,161.29L84.81,157.99L85.88,161.88L86.96,157.99L89.11,157.43L90.18,161.02L91.25,164.31L92.33,163.52L93.4,163.59L94.47,165.9L95.55,167.96L96.62,167.35L97.69,163.26L98.77,163.7L101.99,163.48L103.06,163.8L104.14,162.74L105.21,164.95L106.28,164.01L107.36,161.58L110.58,157.76L111.65,152.36L112.72,147.61L113.8,148.49L114.87,147.46L115.94,147.92L117.02,147.26L118.09,141.79L119.17,141.97L120.24,132.12L121.31,141.13L122.39,143.22L124.53,143.72L125.61,145.04L126.68,149.65L127.75,148.89L128.83,149.37L129.9,148.9L132.05,149.05L133.12,148.79L134.19,152.29L135.27,152.42L136.34,151.04L137.42,145.49L139.56,152.79L140.64,152.71L141.71,154.55L142.78,154.55L144.93,149.31L146,149.41L148.15,139.72L149.22,130.82L150.3,129.48L151.37,131.93L152.45,129.44L153.52,123.36L155.67,122.86L156.74,121.69L157.81,122.2L158.89,119.57L161.03,111.44L162.11,110.38L163.18,108.65L164.25,99.46L166.4,67.34L167.48,68.07L168.55,53.21L169.62,52.46L170.7,42.38L171.77,41.32L172.84,36.27L173.92,16L176.06,22.55L177.14,22.22L178.21,23.01L179.28,26.29L180.36,48.17L181.43,46.96L182.5,46.78L183.58,36.42L184.65,37.44L185.73,36.26L186.8,36.81L187.87,34.61L188.95,35.41L190.02,40.15L191.09,39.92L192.17,40.84L193.24,51.86L194.31,52.47L196.46,52.45L197.53,51.33L198.61,49.25L199.68,49.25L200.76,49.19L201.83,42.87L202.9,42.62L203.98,44.15L205.05,31.93L206.12,31.37L207.2,29.94L208.27,30.33L209.34,29.69L210.42,31.3L212.56,39.21L213.64,124.02L214.71,123.58L215.79,109.93L216.86,89.33L217.93,87.06L219.01,77.43L220.08,81.33L221.15,89.86L222.23,90.62L223.3,90.54L224.37,88.4L226.52,57.15L227.59,57.52L230.82,109.45L231.89,154.54L232.96,169.19L234.04,173.26L236.18,183.92L237.26,189.12L240.48,195.97L241.55,197.42L243.7,202.16L244.77,202.72L246.92,205.35L247.99,205.45L249.07,227.11L250.14,228.35L252.29,230.35L253.36,230.79L255.51,232.39L256.58,232.39L257.65,231.49L258.73,231.89L259.8,232.14L260.87,234.19L261.95,235.82L263.02,238.94L271.61,240.66L272.68,241.34L273.76,259.97L274.83,260.63L278.05,261.53L279.13,262.7L280.2,244.22L281.27,244.21L284.49,244.72L285.57,244.65L286.64,246.89L287.71,246.96L292.01,247.44L293.08,249.64L308.11,251.01L309.18,255.43L315.63,256.76L316.7,257.36L322.07,257.36L323.14,260.98L327.44,262.26L328.51,262.84L334.95,263.33L336.02,263.88L337.1,265.13L338.17,265.12L344.61,265.33L345.69,266.12L348.91,266.43L349.98,267.38L351.05,279.07L352.13,279.1L363.94,279.23L365.01,301.9L366.08,301.98L367.16,279.79L369.3,279.81L370.38,301.95L372.52,301.6L373.6,283.06L374.67,283.11L375.75,279.68L376.82,293.24L377.89,293.25L384.33,293.28L385.41,297.14L442.31,297.68L443.38,297.95L456.26,297.76L457.34,302.09L463.78,302.41L464.85,303.04L489.54,303.09L490.62,303.84L499.2,303.84L500.28,303.7L502.43,303.67L503.5,303.64L507.79,303.19L508.87,301.26L513.16,301.23L514.23,301.98L540,302.67" style="vector-effect: none; fill: none; stroke: rgb(99, 110, 250); stroke-opacity: 1; stroke-width: 2px; opacity: 1;"/></g><g class="points"/><g class="text"/></g></g></g><g class="overplot"/><path class="xlines-above crisp" d="M0,0" style="fill: none;"/><path class="ylines-above crisp" d="M0,0" style="fill: none;"/><g class="overlines-above"/><g class="xaxislayer-above"><g class="xtick"><text text-anchor="middle" x="0" y="433" transform="translate(119.72,0)" style="font-family: 'Open Sans', verdana, arial, sans-serif; font-size: 12px; fill: rgb(42, 63, 95); fill-opacity: 1; white-space: pre; opacity: 1;">Oct 2022</text></g><g class="xtick"><text text-anchor="middle" x="0" y="433" style="font-family: 'Open Sans', verdana, arial, sans-serif; font-size: 12px; fill: rgb(42, 63, 95); fill-opacity: 1; white-space: pre; opacity: 1;" transform="translate(218.49,0)">Jan 2023</text></g><g class="xtick"><text text-anchor="middle" x="0" y="433" style="font-family: 'Open Sans', verdana, arial, sans-serif; font-size: 12px; fill: rgb(42, 63, 95); fill-opacity: 1; white-space: pre; opacity: 1;" transform="translate(315.11,0)">Apr 2023</text></g><g class="xtick"><text text-anchor="middle" x="0" y="433" style="font-family: 'Open Sans', verdana, arial, sans-serif; font-size: 12px; fill: rgb(42, 63, 95); fill-opacity: 1; white-space: pre; opacity: 1;" transform="translate(412.8,0)">Jul 2023</text></g><g class="xtick"><text text-anchor="middle" x="0" y="433" style="font-family: 'Open Sans', verdana, arial, sans-serif; font-size: 12px; fill: rgb(42, 63, 95); fill-opacity: 1; white-space: pre; opacity: 1;" transform="translate(511.57,0)">Oct 2023</text></g><g class="xtick"><text text-anchor="middle" x="0" y="433" style="font-family: 'Open Sans', verdana, arial, sans-serif; font-size: 12px; fill: rgb(42, 63, 95); fill-opacity: 1; white-space: pre; opacity: 1;" transform="translate(610.34,0)">Jan 2024</text></g></g><g class="yaxislayer-above"><g class="ytick"><text text-anchor="end" x="79" y="4.199999999999999" transform="translate(0,401.54)" style="font-family: 'Open Sans', verdana, arial, sans-serif; font-size: 12px; fill: rgb(42, 63, 95); fill-opacity: 1; white-space: pre; opacity: 1;">$0</text></g><g class="ytick"><text text-anchor="end" x="79" y="4.199999999999999" style="font-family: 'Open Sans', verdana, arial, sans-serif; font-size: 12px; fill: rgb(42, 63, 95); fill-opacity: 1; white-space: pre; opacity: 1;" transform="translate(0,362.51)">$10M</text></g><g class="ytick"><text text-anchor="end" x="79" y="4.199999999999999" style="font-family: 'Open Sans', verdana, arial, sans-serif; font-size: 12px; fill: rgb(42, 63, 95); fill-opacity: 1; white-space: pre; opacity: 1;" transform="translate(0,323.47)">$20M</text></g><g class="ytick"><text text-anchor="end" x="79" y="4.199999999999999" style="font-family: 'Open Sans', verdana, arial, sans-serif; font-size: 12px; fill: rgb(42, 63, 95); fill-opacity: 1; white-space: pre; opacity: 1;" transform="translate(0,284.44)">$30M</text></g><g class="ytick"><text text-anchor="end" x="79" y="4.199999999999999" style="font-family: 'Open Sans', verdana, arial, sans-serif; font-size: 12px; fill: rgb(42, 63, 95); fill-opacity: 1; white-space: pre; opacity: 1;" transform="translate(0,245.4)">$40M</text></g><g class="ytick"><text text-anchor="end" x="79" y="4.199999999999999" style="font-family: 'Open Sans', verdana, arial, sans-serif; font-size: 12px; fill: rgb(42, 63, 95); fill-opacity: 1; white-space: pre; opacity: 1;" transform="translate(0,206.36)">$50M</text></g><g class="ytick"><text text-anchor="end" x="79" y="4.199999999999999" style="font-family: 'Open Sans', verdana, arial, sans-serif; font-size: 12px; fill: rgb(42, 63, 95); fill-opacity: 1; white-space: pre; opacity: 1;" transform="translate(0,167.32999999999998)">$60M</text></g><g class="ytick"><text text-anchor="end" x="79" y="4.199999999999999" style="font-family: 'Open Sans', verdana, arial, sans-serif; font-size: 12px; fill: rgb(42, 63, 95); fill-opacity: 1; white-space: pre; opacity: 1;" transform="translate(0,128.29)">$70M</text></g></g><g class="overaxes-above"/></g></g><g class="polarlayer"/><g class="smithlayer"/><g class="ternarylayer"/><g class="geolayer"/><g class="funnelarealayer"/><g class="pielayer"/><g class="iciclelayer"/><g class="treemaplayer"/><g class="sunburstlayer"/><g class="glimages"/><defs id="topdefs-84ad88"><g class="clips"/></defs><g class="layer-above"><g class="imagelayer"/><g class="shapelayer"/></g><g class="infolayer"><g class="g-gtitle"><text class="gtitle" x="35" y="50" text-anchor="start" dy="0em" style="font-family: 'Open Sans', verdana, arial, sans-serif; font-size: 17px; fill: rgb(42, 63, 95); opacity: 1; font-weight: normal; white-space: pre;"><tspan class="line" dy="0em" x="35" y="50">Synthetix - All Synthetix Curve Pools</tspan><tspan class="line" dy="1.3em" x="35" y="50">​<tspan style="font-size:70%" dy="-0.6em">Cumulative Net Flows since Program Announcement, Until Program End + 30 Days</tspan><tspan dy="0.42em">​</tspan></tspan></text></g><g class="g-xtitle"><text class="xtitle" x="350" y="460.3" text-anchor="middle" style="font-family: 'Open Sans', verdana, arial, sans-serif; font-size: 14px; fill: rgb(42, 63, 95); opacity: 1; font-weight: normal; white-space: pre;">Day</text></g><g class="g-ytitle"><text class="ytitle" transform="rotate(-90,24.668750000000003,260)" x="24.668750000000003" y="260" text-anchor="middle" style="font-family: 'Open Sans', verdana, arial, sans-serif; font-size: 14px; fill: rgb(42, 63, 95); opacity: 1; font-weight: normal; white-space: pre;">Cumulative Net Flows (USD)</text></g></g></svg>