<svg class="main-svg" xmlns="http://www.w3.org/2000/svg" xmlns:xlink="http://www.w3.org/1999/xlink" width="700" height="500" style="" viewBox="0 0 700 500"><rect x="0" y="0" width="700" height="500" style="fill: rgb(255, 255, 255); fill-opacity: 1;"/><defs id="defs-78be9d"><g class="clips"><clipPath id="clip78be9dxyplot" class="plotclip"><rect width="540" height="320"/></clipPath><clipPath class="axesclip" id="clip78be9dx"><rect x="80" y="0" width="540" height="500"/></clipPath><clipPath class="axesclip" id="clip78be9dy"><rect x="0" y="100" width="700" height="320"/></clipPath><clipPath class="axesclip" id="clip78be9dxy"><rect x="80" y="100" width="540" height="320"/></clipPath></g><g class="gradients"/><g class="patterns"/></defs><g class="bglayer"><rect class="bg" x="80" y="100" width="540" height="320" style="fill: rgb(229, 236, 246); fill-opacity: 1; stroke-width: 0;"/></g><g class="layer-below"><g class="imagelayer"/><g class="shapelayer"/></g><g class="cartesianlayer"><g class="subplot xy"><g class="layer-subplot"><g class="shapelayer"/><g class="imagelayer"/></g><g class="minor-gridlayer"><g class="x"/><g class="y"/></g><g class="gridlayer"><g class="x"><path class="xgrid crisp" transform="translate(122.77000000000001,0)" d="M0,100v320" style="stroke: rgb(255, 255, 255); stroke-opacity: 1; stroke-width: 1px;"/><path class="xgrid crisp" transform="translate(231.49,0)" d="M0,100v320" style="stroke: rgb(255, 255, 255); stroke-opacity: 1; stroke-width: 1px;"/><path class="xgrid crisp" transform="translate(341.98,0)" d="M0,100v320" style="stroke: rgb(255, 255, 255); stroke-opacity: 1; stroke-width: 1px;"/><path class="xgrid crisp" transform="translate(450.69,0)" d="M0,100v320" style="stroke: rgb(255, 255, 255); stroke-opacity: 1; stroke-width: 1px;"/><path class="xgrid crisp" transform="translate(559.4100000000001,0)" d="M0,100v320" style="stroke: rgb(255, 255, 255); stroke-opacity: 1; stroke-width: 1px;"/></g><g class="y"><path class="ygrid crisp" transform="translate(0,315.06)" d="M80,0h540" style="stroke: rgb(255, 255, 255); stroke-opacity: 1; stroke-width: 1px;"/><path class="ygrid crisp" transform="translate(0,256.33000000000004)" d="M80,0h540" style="stroke: rgb(255, 255, 255); stroke-opacity: 1; stroke-width: 1px;"/><path class="ygrid crisp" transform="translate(0,197.6)" d="M80,0h540" style="stroke: rgb(255, 255, 255); stroke-opacity: 1; stroke-width: 1px;"/><path class="ygrid crisp" transform="translate(0,138.87)" d="M80,0h540" style="stroke: rgb(255, 255, 255); stroke-opacity: 1; stroke-width: 1px;"/></g></g><g class="zerolinelayer"><path class="yzl zl crisp" transform="translate(0,373.78)" d="M80,0h540" style="stroke: rgb(255, 255, 255); stroke-opacity: 1; stroke-width: 2px;"/></g><path class="xlines-below"/><path class="ylines-below"/><g class="overlines-below"/><g class="xaxislayer-below"/><g class="yaxislayer-below"/><g class="overaxes-below"/><g class="plot" transform="translate(80,100)" clip-path="url(#clip78be9dxyplot)"><g class="scatterlayer mlayer"><g class="trace scatter trace0fe9b3" style="stroke-miterlimit: 2;"><g class="fills"><g><path class="js-fill" d="M540,273.78L0,273.78L0,274.88L1.78,274.89L3.56,284.95L7.13,287.31L8.91,291.04L10.69,214.93L12.48,210.3L14.26,208.67L16.04,179.76L17.82,165.29L19.6,168.3L21.39,170.3L23.17,86.93L24.95,84.6L26.73,123.88L28.51,96.76L30.3,87.55L32.08,89.78L33.86,68.38L35.64,67.64L37.43,86.69L39.21,80.32L40.99,59.55L42.77,53.76L44.55,55.73L46.34,56.31L48.12,67.37L49.9,80.09L51.68,145.19L55.25,144.86L57.03,142.28L58.81,142.29L60.59,139.5L62.38,128.07L64.16,87.47L65.94,99.26L67.72,96.95L69.5,96.75L71.29,92.02L73.07,72.54L74.85,72.55L76.63,74.53L78.42,73.24L80.2,79.81L81.98,77.69L83.76,77.42L85.54,75.26L87.33,74.03L89.11,73.83L90.89,83.71L92.67,53.5L94.46,71.66L96.24,73.21L101.58,73L103.37,67.45L105.15,74.52L106.93,43.46L108.71,42.4L110.5,35.17L112.28,37.32L114.06,41.07L115.84,40.01L117.62,40.22L119.41,40.16L121.19,38.88L124.75,38.92L126.53,25.31L128.32,25.4L130.1,16L133.66,21.35L135.45,16.39L137.23,17.86L139.01,22.11L140.79,31.14L142.57,30.55L144.36,30.62L146.14,110.54L147.92,219.94L149.7,222.09L155.05,243.24L156.83,243.39L160.4,244.08L162.18,246.86L163.96,246.92L165.74,292.57L169.31,293.42L171.09,293.98L190.69,294.74L192.48,294.98L204.95,295.01L206.73,298.15L251.29,298.48L253.07,300.07L317.23,300.58L319.01,301.71L459.8,302.46L461.58,302.52L493.66,302.55L495.45,304L540,304" style="fill: rgb(99, 110, 250); fill-opacity: 0.5; stroke-width: 0;"/></g></g><g class="errorbars"/><g class="lines"><path class="js-line" d="M0,274.88L1.78,274.89L3.56,284.95L7.13,287.31L8.91,291.04L10.69,214.93L12.48,210.3L14.26,208.67L16.04,179.76L17.82,165.29L19.6,168.3L21.39,170.3L23.17,86.93L24.95,84.6L26.73,123.88L28.51,96.76L30.3,87.55L32.08,89.78L33.86,68.38L35.64,67.64L37.43,86.69L39.21,80.32L40.99,59.55L42.77,53.76L44.55,55.73L46.34,56.31L48.12,67.37L49.9,80.09L51.68,145.19L55.25,144.86L57.03,142.28L58.81,142.29L60.59,139.5L62.38,128.07L64.16,87.47L65.94,99.26L67.72,96.95L69.5,96.75L71.29,92.02L73.07,72.54L74.85,72.55L76.63,74.53L78.42,73.24L80.2,79.81L81.98,77.69L83.76,77.42L85.54,75.26L87.33,74.03L89.11,73.83L90.89,83.71L92.67,53.5L94.46,71.66L96.24,73.21L101.58,73L103.37,67.45L105.15,74.52L106.93,43.46L108.71,42.4L110.5,35.17L112.28,37.32L114.06,41.07L115.84,40.01L117.62,40.22L119.41,40.16L121.19,38.88L124.75,38.92L126.53,25.31L128.32,25.4L130.1,16L133.66,21.35L135.45,16.39L137.23,17.86L139.01,22.11L140.79,31.14L142.57,30.55L144.36,30.62L146.14,110.54L147.92,219.94L149.7,222.09L155.05,243.24L156.83,243.39L160.4,244.08L162.18,246.86L163.96,246.92L165.74,292.57L169.31,293.42L171.09,293.98L190.69,294.74L192.48,294.98L204.95,295.01L206.73,298.15L251.29,298.48L253.07,300.07L317.23,300.58L319.01,301.71L459.8,302.46L461.58,302.52L493.66,302.55L495.45,304L540,304" style="vector-effect: none; fill: none; stroke: rgb(99, 110, 250); stroke-opacity: 1; stroke-width: 2px; opacity: 1;"/></g><g class="points"/><g class="text"/></g></g></g><g class="overplot"/><path class="xlines-above crisp" d="M0,0" style="fill: none;"/><path class="ylines-above crisp" d="M0,0" style="fill: none;"/><g class="overlines-above"/><g class="xaxislayer-above"><g class="xtick"><text text-anchor="middle" x="0" y="433" transform="translate(122.77000000000001,0)" style="font-family: 'Open Sans', verdana, arial, sans-serif; font-size: 12px; fill: rgb(42, 63, 95); fill-opacity: 1; white-space: pre; opacity: 1;">May 2023</text></g><g class="xtick"><text text-anchor="middle" x="0" y="433" style="font-family: 'Open Sans', verdana, arial, sans-serif; font-size: 12px; fill: rgb(42, 63, 95); fill-opacity: 1; white-space: pre; opacity: 1;" transform="translate(231.49,0)">Jul 2023</text></g><g class="xtick"><text text-anchor="middle" x="0" y="433" style="font-family: 'Open Sans', verdana, arial, sans-serif; font-size: 12px; fill: rgb(42, 63, 95); fill-opacity: 1; white-space: pre; opacity: 1;" transform="translate(341.98,0)">Sep 2023</text></g><g class="xtick"><text text-anchor="middle" x="0" y="433" style="font-family: 'Open Sans', verdana, arial, sans-serif; font-size: 12px; fill: rgb(42, 63, 95); fill-opacity: 1; white-space: pre; opacity: 1;" transform="translate(450.69,0)">Nov 2023</text></g><g class="xtick"><text text-anchor="middle" x="0" y="433" style="font-family: 'Open Sans', verdana, arial, sans-serif; font-size: 12px; fill: rgb(42, 63, 95); fill-opacity: 1; white-space: pre; opacity: 1;" transform="translate(559.4100000000001,0)">Jan 2024</text></g></g><g class="yaxislayer-above"><g class="ytick"><text text-anchor="end" x="79" y="4.199999999999999" transform="translate(0,373.78)" style="font-family: 'Open Sans', verdana, arial, sans-serif; font-size: 12px; fill: rgb(42, 63, 95); fill-opacity: 1; white-space: pre; opacity: 1;">$0</text></g><g class="ytick"><text text-anchor="end" x="79" y="4.199999999999999" style="font-family: 'Open Sans', verdana, arial, sans-serif; font-size: 12px; fill: rgb(42, 63, 95); fill-opacity: 1; white-space: pre; opacity: 1;" transform="translate(0,315.06)">$0.5M</text></g><g class="ytick"><text text-anchor="end" x="79" y="4.199999999999999" style="font-family: 'Open Sans', verdana, arial, sans-serif; font-size: 12px; fill: rgb(42, 63, 95); fill-opacity: 1; white-space: pre; opacity: 1;" transform="translate(0,256.33000000000004)">$1M</text></g><g class="ytick"><text text-anchor="end" x="79" y="4.199999999999999" style="font-family: 'Open Sans', verdana, arial, sans-serif; font-size: 12px; fill: rgb(42, 63, 95); fill-opacity: 1; white-space: pre; opacity: 1;" transform="translate(0,197.6)">$1.5M</text></g><g class="ytick"><text text-anchor="end" x="79" y="4.199999999999999" style="font-family: 'Open Sans', verdana, arial, sans-serif; font-size: 12px; fill: rgb(42, 63, 95); fill-opacity: 1; white-space: pre; opacity: 1;" transform="translate(0,138.87)">$2M</text></g></g><g class="overaxes-above"/></g></g><g class="polarlayer"/><g class="smithlayer"/><g class="ternarylayer"/><g class="geolayer"/><g class="funnelarealayer"/><g class="pielayer"/><g class="iciclelayer"/><g class="treemaplayer"/><g class="sunburstlayer"/><g class="glimages"/><defs id="topdefs-78be9d"><g class="clips"/></defs><g class="layer-above"><g class="imagelayer"/><g class="shapelayer"/></g><g class="infolayer"><g class="g-gtitle"><text class="gtitle" x="35" y="50" text-anchor="start" dy="0em" style="font-family: 'Open Sans', verdana, arial, sans-serif; font-size: 17px; fill: rgb(42, 63, 95); opacity: 1; font-weight: normal; white-space: pre;"><tspan class="line" dy="0em" x="35" y="50">Lido - wstETH/OP: Velodrome</tspan><tspan class="line" dy="1.3em" x="35" y="50">​<tspan style="font-size:70%" dy="-0.6em">Cumulative Net Flows since Program Announcement, Until Program End + 30 Days</tspan><tspan dy="0.42em">​</tspan></tspan></text></g><g class="g-xtitle"><text class="xtitle" x="350" y="460.3" text-anchor="middle" style="font-family: 'Open Sans', verdana, arial, sans-serif; font-size: 14px; fill: rgb(42, 63, 95); opacity: 1; font-weight: normal; white-space: pre;">Day</text></g><g class="g-ytitle"><text class="ytitle" transform="rotate(-90,21.340625000000003,260)" x="21.340625000000003" y="260" text-anchor="middle" style="font-family: 'Open Sans', verdana, arial, sans-serif; font-size: 14px; fill: rgb(42, 63, 95); opacity: 1; font-weight: normal; white-space: pre;">Cumulative Net Flows (USD)</text></g></g></svg>