<svg class="main-svg" xmlns="http://www.w3.org/2000/svg" xmlns:xlink="http://www.w3.org/1999/xlink" width="700" height="500" style="" viewBox="0 0 700 500"><rect x="0" y="0" width="700" height="500" style="fill: rgb(255, 255, 255); fill-opacity: 1;"/><defs id="defs-f10f2f"><g class="clips"><clipPath id="clipf10f2fxyplot" class="plotclip"><rect width="540" height="320"/></clipPath><clipPath class="axesclip" id="clipf10f2fx"><rect x="80" y="0" width="540" height="500"/></clipPath><clipPath class="axesclip" id="clipf10f2fy"><rect x="0" y="100" width="700" height="320"/></clipPath><clipPath class="axesclip" id="clipf10f2fxy"><rect x="80" y="100" width="540" height="320"/></clipPath></g><g class="gradients"/><g class="patterns"/></defs><g class="bglayer"><rect class="bg" x="80" y="100" width="540" height="320" style="fill: rgb(229, 236, 246); fill-opacity: 1; stroke-width: 0;"/></g><g class="layer-below"><g class="imagelayer"/><g class="shapelayer"/></g><g class="cartesianlayer"><g class="subplot xy"><g class="layer-subplot"><g class="shapelayer"/><g class="imagelayer"/></g><g class="minor-gridlayer"><g class="x"/><g class="y"/></g><g class="gridlayer"><g class="x"><path class="xgrid crisp" transform="translate(137.92000000000002,0)" d="M0,100v320" style="stroke: rgb(255, 255, 255); stroke-opacity: 1; stroke-width: 1px;"/><path class="xgrid crisp" transform="translate(238.42,0)" d="M0,100v320" style="stroke: rgb(255, 255, 255); stroke-opacity: 1; stroke-width: 1px;"/><path class="xgrid crisp" transform="translate(342.33,0)" d="M0,100v320" style="stroke: rgb(255, 255, 255); stroke-opacity: 1; stroke-width: 1px;"/><path class="xgrid crisp" transform="translate(446.25,0)" d="M0,100v320" style="stroke: rgb(255, 255, 255); stroke-opacity: 1; stroke-width: 1px;"/><path class="xgrid crisp" transform="translate(551.86,0)" d="M0,100v320" style="stroke: rgb(255, 255, 255); stroke-opacity: 1; stroke-width: 1px;"/></g><g class="y"><path class="ygrid crisp" transform="translate(0,358.96)" d="M80,0h540" style="stroke: rgb(255, 255, 255); stroke-opacity: 1; stroke-width: 1px;"/><path class="ygrid crisp" transform="translate(0,322.90999999999997)" d="M80,0h540" style="stroke: rgb(255, 255, 255); stroke-opacity: 1; stroke-width: 1px;"/><path class="ygrid crisp" transform="translate(0,286.86)" d="M80,0h540" style="stroke: rgb(255, 255, 255); stroke-opacity: 1; stroke-width: 1px;"/><path class="ygrid crisp" transform="translate(0,250.81)" d="M80,0h540" style="stroke: rgb(255, 255, 255); stroke-opacity: 1; stroke-width: 1px;"/><path class="ygrid crisp" transform="translate(0,214.76)" d="M80,0h540" style="stroke: rgb(255, 255, 255); stroke-opacity: 1; stroke-width: 1px;"/><path class="ygrid crisp" transform="translate(0,178.72)" d="M80,0h540" style="stroke: rgb(255, 255, 255); stroke-opacity: 1; stroke-width: 1px;"/><path class="ygrid crisp" transform="translate(0,142.67000000000002)" d="M80,0h540" style="stroke: rgb(255, 255, 255); stroke-opacity: 1; stroke-width: 1px;"/><path class="ygrid crisp" transform="translate(0,106.62)" d="M80,0h540" style="stroke: rgb(255, 255, 255); stroke-opacity: 1; stroke-width: 1px;"/></g></g><g class="zerolinelayer"><path class="yzl zl crisp" transform="translate(0,395.01)" d="M80,0h540" style="stroke: rgb(255, 255, 255); stroke-opacity: 1; stroke-width: 2px;"/></g><path class="xlines-below"/><path class="ylines-below"/><g class="overlines-below"/><g class="xaxislayer-below"/><g class="yaxislayer-below"/><g class="overaxes-below"/><g class="plot" transform="translate(80,100)" clip-path="url(#clipf10f2fxyplot)"><g class="scatterlayer mlayer"><g class="trace scatter trace53e215" style="stroke-miterlimit: 2;"><g class="fills"><g><path class="js-fill" d="M540,295.01L0,295.01L0,295.01L1.7,267.79L3.41,256.94L6.81,248.09L8.52,249.18L13.63,241.48L15.33,241.51L20.44,241.54L22.15,239.09L23.85,238.72L25.55,239.38L27.26,150.85L28.96,103.27L30.66,37.39L32.37,21.99L34.07,16L35.77,17.02L37.48,20.99L39.18,141.34L40.88,180.6L42.59,192.12L45.99,195.64L47.7,194.89L49.4,192.73L51.1,211.19L52.81,213.65L54.51,214.58L59.62,217.79L61.32,219.38L63.03,219.79L64.73,214.81L68.14,213.17L69.84,214.04L74.95,207.87L76.66,208.45L78.36,208.97L80.06,207.74L83.47,205.57L85.17,205.91L86.88,205.16L88.58,206.79L91.99,215.76L93.69,214.82L97.1,210.29L98.8,211.53L100.5,252.63L102.21,215.12L103.91,208.28L105.62,208.2L107.32,204.56L109.02,204.6L110.73,208.79L112.43,208.04L114.13,201.54L115.84,201.07L119.24,199.92L120.95,199.54L122.65,199.22L124.35,199.74L126.06,200.64L127.76,185.03L131.17,182.67L132.87,179.1L134.57,179.01L136.28,180.61L137.98,177.86L139.68,178.59L141.39,187.46L143.09,187.41L144.79,192.88L146.5,193.65L148.2,196.47L149.91,197.43L151.61,191.66L153.31,191.91L155.02,186.61L156.72,185.9L158.42,185.94L160.13,187.37L161.83,187.66L163.53,304L166.94,191.63L168.64,192.53L170.35,192.02L172.05,188.37L175.46,196.46L177.16,204.56L178.86,208.32L180.57,198.66L182.27,198.34L183.97,196.49L185.68,196.11L187.38,190.97L189.09,190.26L190.79,190.72L192.49,192.87L194.2,190.42L195.9,193.63L199.31,196.5L201.01,197.85L202.71,204.22L206.12,203.41L207.82,206.22L209.53,191.92L211.23,184.28L212.93,181.84L214.64,180.75L218.04,181.79L219.75,178.79L221.45,172.54L223.15,174.93L224.86,175.22L226.56,171.73L228.26,169.35L229.97,170.15L233.38,170.26L235.08,165.69L238.49,165.69L540,165.73" style="fill: rgb(99, 110, 250); fill-opacity: 0.5; stroke-width: 0;"/></g></g><g class="errorbars"/><g class="lines"><path class="js-line" d="M0,295.01L1.7,267.79L3.41,256.94L6.81,248.09L8.52,249.18L13.63,241.48L15.33,241.51L20.44,241.54L22.15,239.09L23.85,238.72L25.55,239.38L27.26,150.85L28.96,103.27L30.66,37.39L32.37,21.99L34.07,16L35.77,17.02L37.48,20.99L39.18,141.34L40.88,180.6L42.59,192.12L45.99,195.64L47.7,194.89L49.4,192.73L51.1,211.19L52.81,213.65L54.51,214.58L59.62,217.79L61.32,219.38L63.03,219.79L64.73,214.81L68.14,213.17L69.84,214.04L74.95,207.87L76.66,208.45L78.36,208.97L80.06,207.74L83.47,205.57L85.17,205.91L86.88,205.16L88.58,206.79L91.99,215.76L93.69,214.82L97.1,210.29L98.8,211.53L100.5,252.63L102.21,215.12L103.91,208.28L105.62,208.2L107.32,204.56L109.02,204.6L110.73,208.79L112.43,208.04L114.13,201.54L115.84,201.07L119.24,199.92L120.95,199.54L122.65,199.22L124.35,199.74L126.06,200.64L127.76,185.03L131.17,182.67L132.87,179.1L134.57,179.01L136.28,180.61L137.98,177.86L139.68,178.59L141.39,187.46L143.09,187.41L144.79,192.88L146.5,193.65L148.2,196.47L149.91,197.43L151.61,191.66L153.31,191.91L155.02,186.61L156.72,185.9L158.42,185.94L160.13,187.37L161.83,187.66L163.53,304L166.94,191.63L168.64,192.53L170.35,192.02L172.05,188.37L175.46,196.46L177.16,204.56L178.86,208.32L180.57,198.66L182.27,198.34L183.97,196.49L185.68,196.11L187.38,190.97L189.09,190.26L190.79,190.72L192.49,192.87L194.2,190.42L195.9,193.63" style="vector-effect: none; fill: none; stroke: rgb(99, 110, 250); stroke-opacity: 1; stroke-width: 2px; opacity: 1;"/><path class="js-line" d="M199.31,196.5L201.01,197.85L202.71,204.22L206.12,203.41L207.82,206.22L209.53,191.92L211.23,184.28L212.93,181.84L214.64,180.75L218.04,181.79L219.75,178.79L221.45,172.54L223.15,174.93L224.86,175.22L226.56,171.73L228.26,169.35L229.97,170.15L233.38,170.26L235.08,165.69" style="vector-effect: none; fill: none; stroke: rgb(99, 110, 250); stroke-opacity: 1; stroke-width: 2px; opacity: 1;"/><path class="js-line" d="M238.49,165.69L540,165.73" style="vector-effect: none; fill: none; stroke: rgb(99, 110, 250); stroke-opacity: 1; stroke-width: 2px; opacity: 1;"/></g><g class="points"/><g class="text"/></g></g></g><g class="overplot"/><path class="xlines-above crisp" d="M0,0" style="fill: none;"/><path class="ylines-above crisp" d="M0,0" style="fill: none;"/><g class="overlines-above"/><g class="xaxislayer-above"><g class="xtick"><text text-anchor="middle" x="0" y="433" transform="translate(137.92000000000002,0)" style="font-family: 'Open Sans', verdana, arial, sans-serif; font-size: 12px; fill: rgb(42, 63, 95); fill-opacity: 1; white-space: pre; opacity: 1;">Jan 2023</text></g><g class="xtick"><text text-anchor="middle" x="0" y="433" style="font-family: 'Open Sans', verdana, arial, sans-serif; font-size: 12px; fill: rgb(42, 63, 95); fill-opacity: 1; white-space: pre; opacity: 1;" transform="translate(238.42,0)">Mar 2023</text></g><g class="xtick"><text text-anchor="middle" x="0" y="433" style="font-family: 'Open Sans', verdana, arial, sans-serif; font-size: 12px; fill: rgb(42, 63, 95); fill-opacity: 1; white-space: pre; opacity: 1;" transform="translate(342.33,0)">May 2023</text></g><g class="xtick"><text text-anchor="middle" x="0" y="433" style="font-family: 'Open Sans', verdana, arial, sans-serif; font-size: 12px; fill: rgb(42, 63, 95); fill-opacity: 1; white-space: pre; opacity: 1;" transform="translate(446.25,0)">Jul 2023</text></g><g class="xtick"><text text-anchor="middle" x="0" y="433" style="font-family: 'Open Sans', verdana, arial, sans-serif; font-size: 12px; fill: rgb(42, 63, 95); fill-opacity: 1; white-space: pre; opacity: 1;" transform="translate(551.86,0)">Sep 2023</text></g></g><g class="yaxislayer-above"><g class="ytick"><text text-anchor="end" x="79" y="4.199999999999999" transform="translate(0,395.01)" style="font-family: 'Open Sans', verdana, arial, sans-serif; font-size: 12px; fill: rgb(42, 63, 95); fill-opacity: 1; white-space: pre; opacity: 1;">$0</text></g><g class="ytick"><text text-anchor="end" x="79" y="4.199999999999999" style="font-family: 'Open Sans', verdana, arial, sans-serif; font-size: 12px; fill: rgb(42, 63, 95); fill-opacity: 1; white-space: pre; opacity: 1;" transform="translate(0,358.96)">$2M</text></g><g class="ytick"><text text-anchor="end" x="79" y="4.199999999999999" style="font-family: 'Open Sans', verdana, arial, sans-serif; font-size: 12px; fill: rgb(42, 63, 95); fill-opacity: 1; white-space: pre; opacity: 1;" transform="translate(0,322.90999999999997)">$4M</text></g><g class="ytick"><text text-anchor="end" x="79" y="4.199999999999999" style="font-family: 'Open Sans', verdana, arial, sans-serif; font-size: 12px; fill: rgb(42, 63, 95); fill-opacity: 1; white-space: pre; opacity: 1;" transform="translate(0,286.86)">$6M</text></g><g class="ytick"><text text-anchor="end" x="79" y="4.199999999999999" style="font-family: 'Open Sans', verdana, arial, sans-serif; font-size: 12px; fill: rgb(42, 63, 95); fill-opacity: 1; white-space: pre; opacity: 1;" transform="translate(0,250.81)">$8M</text></g><g class="ytick"><text text-anchor="end" x="79" y="4.199999999999999" style="font-family: 'Open Sans', verdana, arial, sans-serif; font-size: 12px; fill: rgb(42, 63, 95); fill-opacity: 1; white-space: pre; opacity: 1;" transform="translate(0,214.76)">$10M</text></g><g class="ytick"><text text-anchor="end" x="79" y="4.199999999999999" style="font-family: 'Open Sans', verdana, arial, sans-serif; font-size: 12px; fill: rgb(42, 63, 95); fill-opacity: 1; white-space: pre; opacity: 1;" transform="translate(0,178.72)">$12M</text></g><g class="ytick"><text text-anchor="end" x="79" y="4.199999999999999" style="font-family: 'Open Sans', verdana, arial, sans-serif; font-size: 12px; fill: rgb(42, 63, 95); fill-opacity: 1; white-space: pre; opacity: 1;" transform="translate(0,142.67000000000002)">$14M</text></g><g class="ytick"><text text-anchor="end" x="79" y="4.199999999999999" style="font-family: 'Open Sans', verdana, arial, sans-serif; font-size: 12px; fill: rgb(42, 63, 95); fill-opacity: 1; white-space: pre; opacity: 1;" transform="translate(0,106.62)">$16M</text></g></g><g class="overaxes-above"/></g></g><g class="polarlayer"/><g class="smithlayer"/><g class="ternarylayer"/><g class="geolayer"/><g class="funnelarealayer"/><g class="pielayer"/><g class="iciclelayer"/><g class="treemaplayer"/><g class="sunburstlayer"/><g class="glimages"/><defs id="topdefs-f10f2f"><g class="clips"/></defs><g class="layer-above"><g class="imagelayer"/><g class="shapelayer"/></g><g class="infolayer"><g class="g-gtitle"><text class="gtitle" x="35" y="50" text-anchor="start" dy="0em" style="font-family: 'Open Sans', verdana, arial, sans-serif; font-size: 17px; fill: rgb(42, 63, 95); opacity: 1; font-weight: normal; white-space: pre;"><tspan class="line" dy="0em" x="35" y="50">Hundred Finance</tspan><tspan class="line" dy="1.3em" x="35" y="50">​<tspan style="font-size:70%" dy="-0.6em">Cumulative Net Flows since Program Announcement, Until Program End + 30 Days</tspan><tspan dy="0.42em">​</tspan></tspan></text></g><g class="g-xtitle"><text class="xtitle" x="350" y="460.3" text-anchor="middle" style="font-family: 'Open Sans', verdana, arial, sans-serif; font-size: 14px; fill: rgb(42, 63, 95); opacity: 1; font-weight: normal; white-space: pre;">Day</text></g><g class="g-ytitle"><text class="ytitle" transform="rotate(-90,24.668750000000003,260)" x="24.668750000000003" y="260" text-anchor="middle" style="font-family: 'Open Sans', verdana, arial, sans-serif; font-size: 14px; fill: rgb(42, 63, 95); opacity: 1; font-weight: normal; white-space: pre;">Cumulative Net Flows (USD)</text></g></g></svg>