<svg class="main-svg" xmlns="http://www.w3.org/2000/svg" xmlns:xlink="http://www.w3.org/1999/xlink" width="700" height="500" style="" viewBox="0 0 700 500"><rect x="0" y="0" width="700" height="500" style="fill: rgb(255, 255, 255); fill-opacity: 1;"/><defs id="defs-55ff41"><g class="clips"><clipPath id="clip55ff41xyplot" class="plotclip"><rect width="540" height="320"/></clipPath><clipPath class="axesclip" id="clip55ff41x"><rect x="80" y="0" width="540" height="500"/></clipPath><clipPath class="axesclip" id="clip55ff41y"><rect x="0" y="100" width="700" height="320"/></clipPath><clipPath class="axesclip" id="clip55ff41xy"><rect x="80" y="100" width="540" height="320"/></clipPath></g><g class="gradients"/><g class="patterns"/></defs><g class="bglayer"><rect class="bg" x="80" y="100" width="540" height="320" style="fill: rgb(229, 236, 246); fill-opacity: 1; stroke-width: 0;"/></g><g class="layer-below"><g class="imagelayer"/><g class="shapelayer"/></g><g class="cartesianlayer"><g class="subplot xy"><g class="layer-subplot"><g class="shapelayer"/><g class="imagelayer"/></g><g class="minor-gridlayer"><g class="x"/><g class="y"/></g><g class="gridlayer"><g class="x"><path class="xgrid crisp" transform="translate(98.28999999999999,0)" d="M0,100v320" style="stroke: rgb(255, 255, 255); stroke-opacity: 1; stroke-width: 1px;"/><path class="xgrid crisp" transform="translate(197.25,0)" d="M0,100v320" style="stroke: rgb(255, 255, 255); stroke-opacity: 1; stroke-width: 1px;"/><path class="xgrid crisp" transform="translate(294.06,0)" d="M0,100v320" style="stroke: rgb(255, 255, 255); stroke-opacity: 1; stroke-width: 1px;"/><path class="xgrid crisp" transform="translate(391.95,0)" d="M0,100v320" style="stroke: rgb(255, 255, 255); stroke-opacity: 1; stroke-width: 1px;"/><path class="xgrid crisp" transform="translate(490.92,0)" d="M0,100v320" style="stroke: rgb(255, 255, 255); stroke-opacity: 1; stroke-width: 1px;"/><path class="xgrid crisp" transform="translate(589.88,0)" d="M0,100v320" style="stroke: rgb(255, 255, 255); stroke-opacity: 1; stroke-width: 1px;"/></g><g class="y"><path class="ygrid crisp" transform="translate(0,331.06)" d="M80,0h540" style="stroke: rgb(255, 255, 255); stroke-opacity: 1; stroke-width: 1px;"/><path class="ygrid crisp" transform="translate(0,267.37)" d="M80,0h540" style="stroke: rgb(255, 255, 255); stroke-opacity: 1; stroke-width: 1px;"/><path class="ygrid crisp" transform="translate(0,203.68)" d="M80,0h540" style="stroke: rgb(255, 255, 255); stroke-opacity: 1; stroke-width: 1px;"/><path class="ygrid crisp" transform="translate(0,140)" d="M80,0h540" style="stroke: rgb(255, 255, 255); stroke-opacity: 1; stroke-width: 1px;"/></g></g><g class="zerolinelayer"><path class="yzl zl crisp" transform="translate(0,394.74)" d="M80,0h540" style="stroke: rgb(255, 255, 255); stroke-opacity: 1; stroke-width: 2px;"/></g><path class="xlines-below"/><path class="ylines-below"/><g class="overlines-below"/><g class="xaxislayer-below"/><g class="yaxislayer-below"/><g class="overaxes-below"/><g class="plot" transform="translate(80,100)" clip-path="url(#clip55ff41xyplot)"><g class="scatterlayer mlayer"><g class="trace scatter trace1f8a2a" style="stroke-miterlimit: 2;"><g class="fills"><g><path class="js-fill" d="M540,294.74L0,294.74L0,296.91L1.08,296.37L2.15,297.8L3.23,301.35L4.3,300.94L5.38,302.3L6.45,301.64L8.61,304L9.68,302.59L12.91,302.44L13.98,301.23L17.21,300.18L18.29,299.23L23.67,296.55L24.74,293.46L30.12,293.24L31.2,292.79L34.42,291.54L35.5,290.49L36.57,289.53L37.65,290.02L38.73,289.22L39.8,285.53L41.95,281.97L43.03,282.39L44.1,281.94L45.18,271.03L48.41,275.3L49.48,274.9L50.56,275.46L51.63,274.1L52.71,273.8L53.78,274.57L54.86,270.77L55.94,271.16L57.01,267.68L58.09,267.08L59.16,266.8L60.24,270.33L61.31,277.46L62.39,276.86L63.47,280.07L64.54,280.29L65.62,287.58L66.69,287.01L67.77,285.58L68.84,286.58L69.92,285.31L71,285.43L72.07,283.59L73.15,285.13L75.3,285.03L76.37,283.48L79.6,280.44L80.68,281.13L81.75,281.04L82.83,279.24L83.9,279.01L84.98,277.8L88.21,276.4L89.28,276.68L90.36,275.3L91.43,275.53L92.51,272.34L93.59,272.18L95.74,270.96L96.81,272.74L98.96,269.7L100.04,270.19L101.12,270.02L102.19,270.63L103.27,270.1L104.34,270.92L107.57,268.08L108.65,268.8L114.02,268.32L115.1,269.12L116.18,270.76L117.25,270.83L118.33,271.09L119.4,269.15L120.48,267.3L121.55,262.82L122.63,261.85L123.71,263.46L126.93,251.48L128.01,247.74L129.08,246.55L130.16,248.86L131.24,249.48L132.31,251.46L133.39,252.28L134.46,256.75L136.61,262.22L137.69,262.36L139.84,274.12L140.92,276.58L143.07,278.54L144.14,278.23L147.37,280.56L148.45,280.33L150.6,281.12L151.67,279.9L154.9,281.65L155.98,282L159.2,281.11L160.28,282.83L161.35,284.27L162.43,284.3L164.58,284.99L165.66,284.51L166.73,283.32L167.81,284.05L172.11,285.01L173.19,285.24L177.49,287.62L178.57,287.07L182.87,287.19L183.94,288.55L186.1,289.83L187.17,290.18L189.32,290.64L190.4,291.57L192.55,294.55L193.63,292.78L195.78,292.42L196.85,292.72L197.93,292.58L199,295.42L201.16,296.97L202.23,297.16L203.31,296.77L204.38,297.19L205.46,296.38L206.53,297.03L210.84,296.64L211.91,295.45L212.99,294.63L214.06,142.35L217.29,142.1L218.37,140.61L219.44,141.34L220.52,141.15L222.67,142.42L223.75,141.37L226.97,141.49L228.05,139.76L229.12,141.38L230.2,141.3L231.27,141.21L232.35,140.21L233.43,150.28L234.5,149.41L235.58,148.2L236.65,153.11L237.73,150.6L238.8,151.14L239.88,151.17L240.96,149.75L242.03,145.69L243.11,147.93L244.18,147.93L245.26,146.8L246.33,146.23L247.41,149.1L248.49,148.63L249.56,91.01L250.64,90.9L251.71,148.28L252.79,141.96L253.86,144L254.94,143.81L256.02,142.67L257.09,139.11L258.17,142.99L259.24,142.74L260.32,139.44L261.39,138.22L262.47,135.75L263.55,137.87L264.62,135.01L266.77,140.68L267.85,139.52L268.92,141.65L270,142.08L271.08,141.61L272.15,142.97L273.23,147.29L274.3,146.11L275.38,146.73L276.45,146.22L278.61,148.05L279.68,152.62L280.76,155.47L281.83,152.65L282.91,152.66L283.98,154.18L285.06,158.47L286.14,155.12L288.29,155.26L289.36,157.75L292.59,161.4L293.67,160.32L295.82,164.57L296.89,164.21L297.97,162.04L299.04,164.28L300.12,166.13L301.2,159.87L302.27,157.79L303.35,162.47L304.42,163.92L305.5,163.46L307.65,162.03L308.73,159.91L309.8,164.18L310.88,163.1L311.95,158.77L313.03,158.24L314.1,158.35L315.18,156.39L316.25,155.87L317.33,144.73L320.56,135.67L321.63,138.96L322.71,135L323.78,134.21L324.86,132.66L325.94,123.66L327.01,114.89L328.09,117.58L329.16,125.38L330.24,115.84L331.31,115.27L332.39,123.29L333.47,118.79L334.54,118.07L335.62,120.06L336.69,120.27L337.77,116.12L338.84,115.43L339.92,124.16L341,112.73L344.22,94.1L345.3,89.65L347.45,79.46L348.53,82.69L349.6,112.17L350.68,115.16L351.75,104.38L352.83,103.11L354.98,88.87L356.06,87.77L357.13,94.64L358.21,91.29L359.28,85.17L360.36,90.16L362.51,79.77L363.59,100.82L364.66,109.62L365.74,111.89L366.81,109.78L367.89,100.67L370.04,109.27L371.12,57.19L372.19,50.3L373.27,50.58L374.34,45.13L375.42,58.45L376.49,62.03L377.57,68.64L378.65,53.01L379.72,61.45L380.8,58.09L381.87,58.93L382.95,51.23L384.02,73.7L385.1,77.31L386.18,86.88L387.25,93.05L388.33,59.17L389.4,64.01L390.48,109.17L391.55,97.53L392.63,99.8L393.71,95.32L394.78,96.07L395.86,94.99L396.93,97.69L398.01,87.74L399.08,87.15L400.16,90.14L401.24,87.31L402.31,90.19L403.39,89.91L404.46,94.16L405.54,94.53L406.61,91.59L407.69,91.55L409.84,88.19L410.92,100.94L411.99,127.5L413.07,120.44L414.14,118.01L415.22,119.27L416.29,123.12L417.37,124.02L419.52,123.9L420.6,127.46L421.67,129.19L422.75,135.39L423.82,136.84L424.9,135.74L427.05,137.87L428.13,135.6L429.2,137.89L430.28,137.01L431.35,135.84L432.43,131.73L433.51,132.92L434.58,131.06L435.66,126.36L436.73,107.08L439.96,91.35L441.04,92.05L442.11,92.31L443.19,106.11L444.26,96.18L445.34,107.1L446.41,111.49L447.49,107.18L448.57,110.32L449.64,107.19L452.87,117.39L453.94,114.6L455.02,120.26L456.1,113.01L459.32,74.79L460.4,84.37L462.55,63.7L463.63,63.96L465.78,58.66L466.85,58.3L467.93,65.24L469,65.64L470.08,40.15L471.16,46.24L472.23,67.8L473.31,59.79L474.38,64.93L475.46,62.93L476.53,60.24L477.61,67.76L478.69,82.11L479.76,79.12L481.91,64.97L482.99,66.67L484.06,63.91L485.14,69.3L486.22,50.62L487.29,47.33L488.37,22.75L489.44,21.25L490.52,20.13L491.59,16.94L492.67,21.52L493.75,20.48L494.82,24.19L495.9,23.17L496.97,41.7L498.05,35.96L499.12,50.02L500.2,42.76L501.27,42.95L502.35,40.64L503.43,34.27L504.5,38.4L505.58,34.17L506.65,33.08L507.73,31.36L508.8,34.97L510.96,24.68L512.03,45.4L513.11,17.96L514.18,26.08L515.26,31.39L516.33,31.35L517.41,30.58L518.49,24.57L519.56,22.21L520.64,22.7L522.79,23.99L523.86,18.15L524.94,16.97L526.02,20.43L529.24,18.8L530.32,18.44L531.39,17.85L532.47,20.5L533.55,18.02L534.62,20.19L535.7,17.6L536.77,18.2L537.85,16L538.92,16.37L540,16.66" style="fill: rgb(99, 110, 250); fill-opacity: 0.5; stroke-width: 0;"/></g></g><g class="errorbars"/><g class="lines"><path class="js-line" d="M0,296.91L1.08,296.37L2.15,297.8L3.23,301.35L4.3,300.94L5.38,302.3L6.45,301.64L8.61,304L9.68,302.59L12.91,302.44L13.98,301.23L17.21,300.18L18.29,299.23L23.67,296.55L24.74,293.46L30.12,293.24L31.2,292.79L34.42,291.54L35.5,290.49L36.57,289.53L37.65,290.02L38.73,289.22L39.8,285.53L41.95,281.97L43.03,282.39L44.1,281.94L45.18,271.03L48.41,275.3L49.48,274.9L50.56,275.46L51.63,274.1L52.71,273.8L53.78,274.57L54.86,270.77L55.94,271.16L57.01,267.68L58.09,267.08L59.16,266.8L60.24,270.33L61.31,277.46L62.39,276.86L63.47,280.07L64.54,280.29L65.62,287.58L66.69,287.01L67.77,285.58L68.84,286.58L69.92,285.31L71,285.43L72.07,283.59L73.15,285.13L75.3,285.03L76.37,283.48L79.6,280.44L80.68,281.13L81.75,281.04L82.83,279.24L83.9,279.01L84.98,277.8L88.21,276.4L89.28,276.68L90.36,275.3L91.43,275.53L92.51,272.34L93.59,272.18L95.74,270.96L96.81,272.74L98.96,269.7L100.04,270.19L101.12,270.02L102.19,270.63L103.27,270.1L104.34,270.92L107.57,268.08L108.65,268.8L114.02,268.32L115.1,269.12L116.18,270.76L117.25,270.83L118.33,271.09L119.4,269.15L120.48,267.3L121.55,262.82L122.63,261.85L123.71,263.46L126.93,251.48L128.01,247.74L129.08,246.55L130.16,248.86L131.24,249.48L132.31,251.46L133.39,252.28L134.46,256.75L136.61,262.22L137.69,262.36L139.84,274.12L140.92,276.58L143.07,278.54L144.14,278.23L147.37,280.56L148.45,280.33L150.6,281.12L151.67,279.9L154.9,281.65L155.98,282L159.2,281.11L160.28,282.83L161.35,284.27L162.43,284.3L164.58,284.99L165.66,284.51L166.73,283.32L167.81,284.05L172.11,285.01L173.19,285.24L177.49,287.62L178.57,287.07L182.87,287.19L183.94,288.55L186.1,289.83L187.17,290.18L189.32,290.64L190.4,291.57L192.55,294.55L193.63,292.78L195.78,292.42L196.85,292.72L197.93,292.58L199,295.42L201.16,296.97L202.23,297.16L203.31,296.77L204.38,297.19L205.46,296.38L206.53,297.03L210.84,296.64L211.91,295.45L212.99,294.63L214.06,142.35L217.29,142.1L218.37,140.61L219.44,141.34L220.52,141.15L222.67,142.42L223.75,141.37L226.97,141.49L228.05,139.76L229.12,141.38L230.2,141.3L231.27,141.21L232.35,140.21L233.43,150.28L234.5,149.41L235.58,148.2L236.65,153.11L237.73,150.6L238.8,151.14L239.88,151.17L240.96,149.75L242.03,145.69L243.11,147.93L244.18,147.93L245.26,146.8L246.33,146.23L247.41,149.1L248.49,148.63L249.56,91.01L250.64,90.9L251.71,148.28L252.79,141.96L253.86,144L254.94,143.81L256.02,142.67L257.09,139.11L258.17,142.99L259.24,142.74L260.32,139.44L261.39,138.22L262.47,135.75L263.55,137.87L264.62,135.01L266.77,140.68L267.85,139.52L268.92,141.65L270,142.08L271.08,141.61L272.15,142.97L273.23,147.29L274.3,146.11L275.38,146.73L276.45,146.22L278.61,148.05L279.68,152.62L280.76,155.47L281.83,152.65L282.91,152.66L283.98,154.18L285.06,158.47L286.14,155.12L288.29,155.26L289.36,157.75L292.59,161.4L293.67,160.32L295.82,164.57L296.89,164.21L297.97,162.04L299.04,164.28L300.12,166.13L301.2,159.87L302.27,157.79L303.35,162.47L304.42,163.92L305.5,163.46L307.65,162.03L308.73,159.91L309.8,164.18L310.88,163.1L311.95,158.77L313.03,158.24L314.1,158.35L315.18,156.39L316.25,155.87L317.33,144.73L320.56,135.67L321.63,138.96L322.71,135L323.78,134.21L324.86,132.66L325.94,123.66L327.01,114.89L328.09,117.58L329.16,125.38L330.24,115.84L331.31,115.27L332.39,123.29L333.47,118.79L334.54,118.07L335.62,120.06L336.69,120.27L337.77,116.12L338.84,115.43L339.92,124.16L341,112.73L344.22,94.1L345.3,89.65L347.45,79.46L348.53,82.69L349.6,112.17L350.68,115.16L351.75,104.38L352.83,103.11L354.98,88.87L356.06,87.77L357.13,94.64L358.21,91.29L359.28,85.17L360.36,90.16L362.51,79.77L363.59,100.82L364.66,109.62L365.74,111.89L366.81,109.78L367.89,100.67L370.04,109.27L371.12,57.19L372.19,50.3L373.27,50.58L374.34,45.13L375.42,58.45L376.49,62.03L377.57,68.64L378.65,53.01L379.72,61.45L380.8,58.09L381.87,58.93L382.95,51.23L384.02,73.7L385.1,77.31L386.18,86.88L387.25,93.05L388.33,59.17L389.4,64.01L390.48,109.17L391.55,97.53L392.63,99.8L393.71,95.32L394.78,96.07L395.86,94.99L396.93,97.69L398.01,87.74L399.08,87.15L400.16,90.14L401.24,87.31L402.31,90.19L403.39,89.91L404.46,94.16L405.54,94.53L406.61,91.59L407.69,91.55L409.84,88.19L410.92,100.94L411.99,127.5L413.07,120.44L414.14,118.01L415.22,119.27L416.29,123.12L417.37,124.02L419.52,123.9L420.6,127.46L421.67,129.19L422.75,135.39L423.82,136.84L424.9,135.74L427.05,137.87L428.13,135.6L429.2,137.89L430.28,137.01L431.35,135.84L432.43,131.73L433.51,132.92L434.58,131.06L435.66,126.36L436.73,107.08L439.96,91.35L441.04,92.05L442.11,92.31L443.19,106.11L444.26,96.18L445.34,107.1L446.41,111.49L447.49,107.18L448.57,110.32L449.64,107.19L452.87,117.39L453.94,114.6L455.02,120.26L456.1,113.01L459.32,74.79L460.4,84.37L462.55,63.7L463.63,63.96L465.78,58.66L466.85,58.3L467.93,65.24L469,65.64L470.08,40.15L471.16,46.24L472.23,67.8L473.31,59.79L474.38,64.93L475.46,62.93L476.53,60.24L477.61,67.76L478.69,82.11L479.76,79.12L481.91,64.97L482.99,66.67L484.06,63.91L485.14,69.3L486.22,50.62L487.29,47.33L488.37,22.75L489.44,21.25L490.52,20.13L491.59,16.94L492.67,21.52L493.75,20.48L494.82,24.19L495.9,23.17L496.97,41.7L498.05,35.96L499.12,50.02L500.2,42.76L501.27,42.95L502.35,40.64L503.43,34.27L504.5,38.4L505.58,34.17L506.65,33.08L507.73,31.36L508.8,34.97L510.96,24.68L512.03,45.4L513.11,17.96L514.18,26.08L515.26,31.39L516.33,31.35L517.41,30.58L518.49,24.57L519.56,22.21L520.64,22.7L522.79,23.99L523.86,18.15L524.94,16.97L526.02,20.43L529.24,18.8L530.32,18.44L531.39,17.85L532.47,20.5L533.55,18.02L534.62,20.19L535.7,17.6L536.77,18.2L537.85,16L538.92,16.37L540,16.66" style="vector-effect: none; fill: none; stroke: rgb(99, 110, 250); stroke-opacity: 1; stroke-width: 2px; opacity: 1;"/></g><g class="points"/><g class="text"/></g></g></g><g class="overplot"/><path class="xlines-above crisp" d="M0,0" style="fill: none;"/><path class="ylines-above crisp" d="M0,0" style="fill: none;"/><g class="overlines-above"/><g class="xaxislayer-above"><g class="xtick"><text text-anchor="middle" x="0" y="433" transform="translate(98.28999999999999,0)" style="font-family: 'Open Sans', verdana, arial, sans-serif; font-size: 12px; fill: rgb(42, 63, 95); fill-opacity: 1; white-space: pre; opacity: 1;">Oct 2022</text></g><g class="xtick"><text text-anchor="middle" x="0" y="433" style="font-family: 'Open Sans', verdana, arial, sans-serif; font-size: 12px; fill: rgb(42, 63, 95); fill-opacity: 1; white-space: pre; opacity: 1;" transform="translate(197.25,0)">Jan 2023</text></g><g class="xtick"><text text-anchor="middle" x="0" y="433" style="font-family: 'Open Sans', verdana, arial, sans-serif; font-size: 12px; fill: rgb(42, 63, 95); fill-opacity: 1; white-space: pre; opacity: 1;" transform="translate(294.06,0)">Apr 2023</text></g><g class="xtick"><text text-anchor="middle" x="0" y="433" style="font-family: 'Open Sans', verdana, arial, sans-serif; font-size: 12px; fill: rgb(42, 63, 95); fill-opacity: 1; white-space: pre; opacity: 1;" transform="translate(391.95,0)">Jul 2023</text></g><g class="xtick"><text text-anchor="middle" x="0" y="433" style="font-family: 'Open Sans', verdana, arial, sans-serif; font-size: 12px; fill: rgb(42, 63, 95); fill-opacity: 1; white-space: pre; opacity: 1;" transform="translate(490.92,0)">Oct 2023</text></g><g class="xtick"><text text-anchor="middle" x="0" y="433" style="font-family: 'Open Sans', verdana, arial, sans-serif; font-size: 12px; fill: rgb(42, 63, 95); fill-opacity: 1; white-space: pre; opacity: 1;" transform="translate(589.88,0)">Jan 2024</text></g></g><g class="yaxislayer-above"><g class="ytick"><text text-anchor="end" x="79" y="4.199999999999999" transform="translate(0,394.74)" style="font-family: 'Open Sans', verdana, arial, sans-serif; font-size: 12px; fill: rgb(42, 63, 95); fill-opacity: 1; white-space: pre; opacity: 1;">$0</text></g><g class="ytick"><text text-anchor="end" x="79" y="4.199999999999999" style="font-family: 'Open Sans', verdana, arial, sans-serif; font-size: 12px; fill: rgb(42, 63, 95); fill-opacity: 1; white-space: pre; opacity: 1;" transform="translate(0,331.06)">$1M</text></g><g class="ytick"><text text-anchor="end" x="79" y="4.199999999999999" style="font-family: 'Open Sans', verdana, arial, sans-serif; font-size: 12px; fill: rgb(42, 63, 95); fill-opacity: 1; white-space: pre; opacity: 1;" transform="translate(0,267.37)">$2M</text></g><g class="ytick"><text text-anchor="end" x="79" y="4.199999999999999" style="font-family: 'Open Sans', verdana, arial, sans-serif; font-size: 12px; fill: rgb(42, 63, 95); fill-opacity: 1; white-space: pre; opacity: 1;" transform="translate(0,203.68)">$3M</text></g><g class="ytick"><text text-anchor="end" x="79" y="4.199999999999999" style="font-family: 'Open Sans', verdana, arial, sans-serif; font-size: 12px; fill: rgb(42, 63, 95); fill-opacity: 1; white-space: pre; opacity: 1;" transform="translate(0,140)">$4M</text></g></g><g class="overaxes-above"/></g></g><g class="polarlayer"/><g class="smithlayer"/><g class="ternarylayer"/><g class="geolayer"/><g class="funnelarealayer"/><g class="pielayer"/><g class="iciclelayer"/><g class="treemaplayer"/><g class="sunburstlayer"/><g class="glimages"/><defs id="topdefs-55ff41"><g class="clips"/></defs><g class="layer-above"><g class="imagelayer"/><g class="shapelayer"/></g><g class="infolayer"><g class="g-gtitle"><text class="gtitle" x="35" y="50" text-anchor="start" dy="0em" style="font-family: 'Open Sans', verdana, arial, sans-serif; font-size: 17px; fill: rgb(42, 63, 95); opacity: 1; font-weight: normal; white-space: pre;"><tspan class="line" dy="0em" x="35" y="50">Polynomial Protocol*</tspan><tspan class="line" dy="1.3em" x="35" y="50">​<tspan style="font-size:70%" dy="-0.6em">Cumulative Net Flows since Program Announcement, Until Program End + 30 Days</tspan><tspan dy="0.42em">​</tspan></tspan></text></g><g class="g-xtitle"><text class="xtitle" x="350" y="460.3" text-anchor="middle" style="font-family: 'Open Sans', verdana, arial, sans-serif; font-size: 14px; fill: rgb(42, 63, 95); opacity: 1; font-weight: normal; white-space: pre;">Day</text></g><g class="g-ytitle"><text class="ytitle" transform="rotate(-90,31.356250000000003,260)" x="31.356250000000003" y="260" text-anchor="middle" style="font-family: 'Open Sans', verdana, arial, sans-serif; font-size: 14px; fill: rgb(42, 63, 95); opacity: 1; font-weight: normal; white-space: pre;">Cumulative Net Flows (USD)</text></g></g></svg>