<svg class="main-svg" xmlns="http://www.w3.org/2000/svg" xmlns:xlink="http://www.w3.org/1999/xlink" width="700" height="500" style="" viewBox="0 0 700 500"><rect x="0" y="0" width="700" height="500" style="fill: rgb(255, 255, 255); fill-opacity: 1;"/><defs id="defs-17cf15"><g class="clips"><clipPath id="clip17cf15xyplot" class="plotclip"><rect width="540" height="320"/></clipPath><clipPath class="axesclip" id="clip17cf15x"><rect x="80" y="0" width="540" height="500"/></clipPath><clipPath class="axesclip" id="clip17cf15y"><rect x="0" y="100" width="700" height="320"/></clipPath><clipPath class="axesclip" id="clip17cf15xy"><rect x="80" y="100" width="540" height="320"/></clipPath></g><g class="gradients"/><g class="patterns"/></defs><g class="bglayer"><rect class="bg" x="80" y="100" width="540" height="320" style="fill: rgb(229, 236, 246); fill-opacity: 1; stroke-width: 0;"/></g><g class="layer-below"><g class="imagelayer"/><g class="shapelayer"/></g><g class="cartesianlayer"><g class="subplot xy"><g class="layer-subplot"><g class="shapelayer"/><g class="imagelayer"/></g><g class="minor-gridlayer"><g class="x"/><g class="y"/></g><g class="gridlayer"><g class="x"><path class="xgrid crisp" transform="translate(120.28,0)" d="M0,100v320" style="stroke: rgb(255, 255, 255); stroke-opacity: 1; stroke-width: 1px;"/><path class="xgrid crisp" transform="translate(211.27,0)" d="M0,100v320" style="stroke: rgb(255, 255, 255); stroke-opacity: 1; stroke-width: 1px;"/><path class="xgrid crisp" transform="translate(302.27,0)" d="M0,100v320" style="stroke: rgb(255, 255, 255); stroke-opacity: 1; stroke-width: 1px;"/><path class="xgrid crisp" transform="translate(390.28,0)" d="M0,100v320" style="stroke: rgb(255, 255, 255); stroke-opacity: 1; stroke-width: 1px;"/><path class="xgrid crisp" transform="translate(481.27,0)" d="M0,100v320" style="stroke: rgb(255, 255, 255); stroke-opacity: 1; stroke-width: 1px;"/><path class="xgrid crisp" transform="translate(572.27,0)" d="M0,100v320" style="stroke: rgb(255, 255, 255); stroke-opacity: 1; stroke-width: 1px;"/></g><g class="y"><path class="ygrid crisp" transform="translate(0,329.2)" d="M80,0h540" style="stroke: rgb(255, 255, 255); stroke-opacity: 1; stroke-width: 1px;"/><path class="ygrid crisp" transform="translate(0,270.22)" d="M80,0h540" style="stroke: rgb(255, 255, 255); stroke-opacity: 1; stroke-width: 1px;"/><path class="ygrid crisp" transform="translate(0,211.24)" d="M80,0h540" style="stroke: rgb(255, 255, 255); stroke-opacity: 1; stroke-width: 1px;"/><path class="ygrid crisp" transform="translate(0,152.25)" d="M80,0h540" style="stroke: rgb(255, 255, 255); stroke-opacity: 1; stroke-width: 1px;"/></g></g><g class="zerolinelayer"><path class="yzl zl crisp" transform="translate(0,388.18)" d="M80,0h540" style="stroke: rgb(255, 255, 255); stroke-opacity: 1; stroke-width: 2px;"/></g><path class="xlines-below"/><path class="ylines-below"/><g class="overlines-below"/><g class="xaxislayer-below"/><g class="yaxislayer-below"/><g class="overaxes-below"/><g class="plot" transform="translate(80,100)" clip-path="url(#clip17cf15xyplot)"><g class="scatterlayer mlayer"><g class="trace scatter tracef62f23" style="stroke-miterlimit: 2;"><g class="fills"><g><path class="js-fill" d="M540,288.18L0,288.18L0,298.96L1.49,231.88L2.98,241.16L4.48,244.09L5.97,250.34L7.46,251.98L8.95,250.82L10.44,244.92L11.93,232.6L13.43,248.75L14.92,243.73L16.41,241.79L17.9,236.09L20.88,240.19L22.38,230.34L23.87,231.42L25.36,229.18L28.34,218.7L29.83,223.14L31.33,226.34L32.82,225.12L35.8,222L37.29,214.58L38.78,207.67L40.28,204.47L41.77,190.51L43.26,190.07L46.24,177.66L47.73,197.38L50.72,208.42L52.21,185.81L53.7,180.4L55.19,178.91L56.69,175.61L58.18,167.23L59.67,161.1L61.16,183.5L64.14,181L65.64,178.69L67.13,179L68.62,175.91L70.11,180.63L71.6,200.1L73.09,196.12L74.59,196.06L76.08,202.73L77.57,204.47L80.55,187.96L82.04,183.97L83.54,191.03L85.03,192.76L86.52,192.35L88.01,185.41L90.99,197.28L92.49,186.09L93.98,177.12L95.47,160.92L96.96,156.06L98.45,156.23L99.94,152.59L101.44,109.36L102.93,101.58L104.42,100.04L107.4,102.36L108.9,102.41L110.39,104.58L111.88,97.93L113.37,96.78L114.86,97.31L116.35,96.05L117.85,97.32L119.34,96.95L120.83,95.42L122.32,105.97L123.81,102.88L125.3,102.81L126.8,99.59L128.29,99.61L129.78,95.81L131.27,73.7L132.76,69.89L134.25,65.6L135.75,41.58L137.24,32.84L138.73,16L143.2,38.3L144.7,55.58L146.19,226.29L147.68,290.26L149.17,301.72L150.66,293.29L152.15,297.06L153.65,304L155.14,291.25L156.63,296.45L159.61,291.52L161.1,295.98L162.6,297.61L164.09,288.02L165.58,293.5L167.07,291.41L168.56,285.31L170.06,289.32L171.55,288.26L173.04,290.13L174.53,283.06L176.02,271.2L180.5,264.38L181.99,265.34L183.48,260.54L184.97,259.95L187.96,251.67L189.45,250.29L190.94,250.24L192.43,248.61L195.41,258.7L196.91,258.18L198.4,256.22L199.89,257.65L201.38,272.61L202.87,267.11L204.36,268.73L205.86,255.36L207.35,243.84L208.84,238.76L210.33,237.82L211.82,237.83L214.81,240.16L216.3,242.21L219.28,241.27L220.77,236.77L222.27,243.12L223.76,242.26L225.25,234.44L226.74,234.75L228.23,231.02L229.72,233.65L231.22,238.24L232.71,247.09L234.2,249.14L235.69,249.82L237.18,249.73L238.67,253.25L240.17,251.04L241.66,257.68L244.64,260.67L246.13,255.87L247.62,242.51L249.12,237.43L252.1,240.12L253.59,237.78L255.08,230.44L256.57,230.65L258.07,228.7L259.56,232.65L262.54,236.33L264.03,235.67L267.02,219.04L268.51,188.44L270,194.81L271.49,195.66L274.48,189.96L275.97,186.57L277.46,191.16L278.95,199.85L280.44,193.88L281.93,199.41L283.43,191.48L284.92,188.75L286.41,186.95L287.9,172.84L289.39,169.99L290.88,173.47L292.38,197.31L293.87,189.55L296.85,198.03L298.34,198.04L299.83,195.88L301.33,210.22L302.82,212.5L304.31,224.29L305.8,223.1L307.29,223.72L308.78,217.77L310.28,221.76L311.77,222.51L313.26,211.3L314.75,207.55L316.24,198.14L317.73,202.76L319.23,203.14L322.21,201.3L323.7,199.64L325.19,164.71L326.69,157.53L329.67,102.52L331.16,87.73L334.14,61.37L335.64,58.19L337.13,93.67L338.62,94.05L340.11,101.07L341.6,98.38L343.09,97.63L344.59,89.75L346.08,123.48L347.57,127.38L350.55,149.37L352.04,163.32L353.54,159.4L355.03,160.74L356.52,157.21L358.01,158.32L359.5,161.05L360.99,169.39L362.49,173.91L363.98,170.33L365.47,164.89L366.96,165.85L368.45,173.2L369.94,161.61L371.44,169.13L372.93,143.86L375.91,116.43L377.4,109.73L378.9,105.74L380.39,95.14L381.88,98.35L383.37,99.16L384.86,105.6L386.35,115.62L389.34,127.89L390.83,131.34L392.32,131.24L393.81,134.16L395.3,134.98L396.8,137.02L399.78,125.09L401.27,123.5L402.76,136.8L404.25,138.98L405.75,140.1L407.24,136.53L408.73,148.5L410.22,130.57L411.71,126.66L413.2,129.95L416.19,143.03L417.68,138.5L420.66,154.69L422.15,145.76L423.65,158.38L425.14,163.69L428.12,179L429.61,187.16L431.1,179.5L432.6,184.91L434.09,184.14L435.58,176.33L438.56,185.61L440.06,182L441.55,184.6L443.04,181.06L444.53,193.04L446.02,186.47L447.51,190.4L449.01,191.56L450.5,198.65L451.99,194.86L453.48,207.17L454.97,200.92L457.96,214.51L459.45,216.17L460.94,219.14L462.43,219.78L463.92,239.41L465.41,242.11L466.91,239.6L468.4,251.95L471.38,279.33L472.87,284.85L474.36,276.25L475.86,272.52L477.35,272.09L478.84,273.05L480.33,268.96L481.82,252.58L484.81,234.23L486.3,232.41L487.79,240.23L489.28,238.86L490.77,249.14L492.27,266.24L493.76,260.53L495.25,263.08L499.72,247.48L501.22,246.21L504.2,219.02L505.69,218.55L508.67,238.87L510.17,242.42L513.15,247.12L514.64,243.27L517.62,244.84L519.12,258.62L520.61,255.15L522.1,248.9L523.59,246.72L525.08,246.44L528.07,242.86L529.56,243.5L532.54,225.07L534.03,222.94L535.52,229.21L537.02,230.81L538.51,220.98L540,224.12" style="fill: rgb(99, 110, 250); fill-opacity: 0.5; stroke-width: 0;"/></g></g><g class="errorbars"/><g class="lines"><path class="js-line" d="M0,298.96L1.49,231.88L2.98,241.16L4.48,244.09L5.97,250.34L7.46,251.98L8.95,250.82L10.44,244.92L11.93,232.6L13.43,248.75L14.92,243.73L16.41,241.79L17.9,236.09L20.88,240.19L22.38,230.34L23.87,231.42L25.36,229.18L28.34,218.7L29.83,223.14L31.33,226.34L32.82,225.12L35.8,222L37.29,214.58L38.78,207.67L40.28,204.47L41.77,190.51L43.26,190.07L46.24,177.66L47.73,197.38L50.72,208.42L52.21,185.81L53.7,180.4L55.19,178.91L56.69,175.61L58.18,167.23L59.67,161.1L61.16,183.5L64.14,181L65.64,178.69L67.13,179L68.62,175.91L70.11,180.63L71.6,200.1L73.09,196.12L74.59,196.06L76.08,202.73L77.57,204.47L80.55,187.96L82.04,183.97L83.54,191.03L85.03,192.76L86.52,192.35L88.01,185.41L90.99,197.28L92.49,186.09L93.98,177.12L95.47,160.92L96.96,156.06L98.45,156.23L99.94,152.59L101.44,109.36L102.93,101.58L104.42,100.04L107.4,102.36L108.9,102.41L110.39,104.58L111.88,97.93L113.37,96.78L114.86,97.31L116.35,96.05L117.85,97.32L119.34,96.95L120.83,95.42L122.32,105.97L123.81,102.88L125.3,102.81L126.8,99.59L128.29,99.61L129.78,95.81L131.27,73.7L132.76,69.89L134.25,65.6L135.75,41.58L137.24,32.84L138.73,16L143.2,38.3L144.7,55.58L146.19,226.29L147.68,290.26L149.17,301.72L150.66,293.29L152.15,297.06L153.65,304L155.14,291.25L156.63,296.45L159.61,291.52L161.1,295.98L162.6,297.61L164.09,288.02L165.58,293.5L167.07,291.41L168.56,285.31L170.06,289.32L171.55,288.26L173.04,290.13L174.53,283.06L176.02,271.2L180.5,264.38L181.99,265.34L183.48,260.54L184.97,259.95L187.96,251.67L189.45,250.29L190.94,250.24L192.43,248.61L195.41,258.7L196.91,258.18L198.4,256.22L199.89,257.65L201.38,272.61L202.87,267.11L204.36,268.73L205.86,255.36L207.35,243.84L208.84,238.76L210.33,237.82L211.82,237.83L214.81,240.16L216.3,242.21L219.28,241.27L220.77,236.77L222.27,243.12L223.76,242.26L225.25,234.44L226.74,234.75L228.23,231.02L229.72,233.65L231.22,238.24L232.71,247.09L234.2,249.14L235.69,249.82L237.18,249.73L238.67,253.25L240.17,251.04L241.66,257.68L244.64,260.67L246.13,255.87L247.62,242.51L249.12,237.43L252.1,240.12L253.59,237.78L255.08,230.44L256.57,230.65L258.07,228.7L259.56,232.65L262.54,236.33L264.03,235.67L267.02,219.04L268.51,188.44L270,194.81L271.49,195.66L274.48,189.96L275.97,186.57L277.46,191.16L278.95,199.85L280.44,193.88L281.93,199.41L283.43,191.48L284.92,188.75L286.41,186.95L287.9,172.84L289.39,169.99L290.88,173.47L292.38,197.31L293.87,189.55L296.85,198.03L298.34,198.04L299.83,195.88L301.33,210.22L302.82,212.5L304.31,224.29L305.8,223.1L307.29,223.72L308.78,217.77L310.28,221.76L311.77,222.51L313.26,211.3L314.75,207.55L316.24,198.14L317.73,202.76L319.23,203.14L322.21,201.3L323.7,199.64L325.19,164.71L326.69,157.53L329.67,102.52L331.16,87.73L334.14,61.37L335.64,58.19L337.13,93.67L338.62,94.05L340.11,101.07L341.6,98.38L343.09,97.63L344.59,89.75L346.08,123.48L347.57,127.38L350.55,149.37L352.04,163.32L353.54,159.4L355.03,160.74L356.52,157.21L358.01,158.32L359.5,161.05L360.99,169.39L362.49,173.91L363.98,170.33L365.47,164.89L366.96,165.85L368.45,173.2L369.94,161.61L371.44,169.13L372.93,143.86L375.91,116.43L377.4,109.73L378.9,105.74L380.39,95.14L381.88,98.35L383.37,99.16L384.86,105.6L386.35,115.62L389.34,127.89L390.83,131.34L392.32,131.24L393.81,134.16L395.3,134.98L396.8,137.02L399.78,125.09L401.27,123.5L402.76,136.8L404.25,138.98L405.75,140.1L407.24,136.53L408.73,148.5L410.22,130.57L411.71,126.66L413.2,129.95L416.19,143.03L417.68,138.5L420.66,154.69L422.15,145.76L423.65,158.38L425.14,163.69L428.12,179L429.61,187.16L431.1,179.5L432.6,184.91L434.09,184.14L435.58,176.33L438.56,185.61L440.06,182L441.55,184.6L443.04,181.06L444.53,193.04L446.02,186.47L447.51,190.4L449.01,191.56L450.5,198.65L451.99,194.86L453.48,207.17L454.97,200.92L457.96,214.51L459.45,216.17L460.94,219.14L462.43,219.78L463.92,239.41L465.41,242.11L466.91,239.6L468.4,251.95L471.38,279.33L472.87,284.85L474.36,276.25L475.86,272.52L477.35,272.09L478.84,273.05L480.33,268.96L481.82,252.58L484.81,234.23L486.3,232.41L487.79,240.23L489.28,238.86L490.77,249.14L492.27,266.24L493.76,260.53L495.25,263.08L499.72,247.48L501.22,246.21L504.2,219.02L505.69,218.55L508.67,238.87L510.17,242.42L513.15,247.12L514.64,243.27L517.62,244.84L519.12,258.62L520.61,255.15L522.1,248.9L523.59,246.72L525.08,246.44L528.07,242.86L529.56,243.5L532.54,225.07L534.03,222.94L535.52,229.21L537.02,230.81L538.51,220.98L540,224.12" style="vector-effect: none; fill: none; stroke: rgb(99, 110, 250); stroke-opacity: 1; stroke-width: 2px; opacity: 1;"/></g><g class="points"/><g class="text"/></g></g></g><g class="overplot"/><path class="xlines-above crisp" d="M0,0" style="fill: none;"/><path class="ylines-above crisp" d="M0,0" style="fill: none;"/><g class="overlines-above"/><g class="xaxislayer-above"><g class="xtick"><text text-anchor="middle" x="0" y="433" transform="translate(120.28,0)" style="font-family: 'Open Sans', verdana, arial, sans-serif; font-size: 12px; fill: rgb(42, 63, 95); fill-opacity: 1; white-space: pre; opacity: 1;">Sep 2022</text></g><g class="xtick"><text text-anchor="middle" x="0" y="433" style="font-family: 'Open Sans', verdana, arial, sans-serif; font-size: 12px; fill: rgb(42, 63, 95); fill-opacity: 1; white-space: pre; opacity: 1;" transform="translate(211.27,0)">Nov 2022</text></g><g class="xtick"><text text-anchor="middle" x="0" y="433" style="font-family: 'Open Sans', verdana, arial, sans-serif; font-size: 12px; fill: rgb(42, 63, 95); fill-opacity: 1; white-space: pre; opacity: 1;" transform="translate(302.27,0)">Jan 2023</text></g><g class="xtick"><text text-anchor="middle" x="0" y="433" style="font-family: 'Open Sans', verdana, arial, sans-serif; font-size: 12px; fill: rgb(42, 63, 95); fill-opacity: 1; white-space: pre; opacity: 1;" transform="translate(390.28,0)">Mar 2023</text></g><g class="xtick"><text text-anchor="middle" x="0" y="433" style="font-family: 'Open Sans', verdana, arial, sans-serif; font-size: 12px; fill: rgb(42, 63, 95); fill-opacity: 1; white-space: pre; opacity: 1;" transform="translate(481.27,0)">May 2023</text></g><g class="xtick"><text text-anchor="middle" x="0" y="433" style="font-family: 'Open Sans', verdana, arial, sans-serif; font-size: 12px; fill: rgb(42, 63, 95); fill-opacity: 1; white-space: pre; opacity: 1;" transform="translate(572.27,0)">Jul 2023</text></g></g><g class="yaxislayer-above"><g class="ytick"><text text-anchor="end" x="79" y="4.199999999999999" transform="translate(0,388.18)" style="font-family: 'Open Sans', verdana, arial, sans-serif; font-size: 12px; fill: rgb(42, 63, 95); fill-opacity: 1; white-space: pre; opacity: 1;">$0</text></g><g class="ytick"><text text-anchor="end" x="79" y="4.199999999999999" style="font-family: 'Open Sans', verdana, arial, sans-serif; font-size: 12px; fill: rgb(42, 63, 95); fill-opacity: 1; white-space: pre; opacity: 1;" transform="translate(0,329.2)">$10M</text></g><g class="ytick"><text text-anchor="end" x="79" y="4.199999999999999" style="font-family: 'Open Sans', verdana, arial, sans-serif; font-size: 12px; fill: rgb(42, 63, 95); fill-opacity: 1; white-space: pre; opacity: 1;" transform="translate(0,270.22)">$20M</text></g><g class="ytick"><text text-anchor="end" x="79" y="4.199999999999999" style="font-family: 'Open Sans', verdana, arial, sans-serif; font-size: 12px; fill: rgb(42, 63, 95); fill-opacity: 1; white-space: pre; opacity: 1;" transform="translate(0,211.24)">$30M</text></g><g class="ytick"><text text-anchor="end" x="79" y="4.199999999999999" style="font-family: 'Open Sans', verdana, arial, sans-serif; font-size: 12px; fill: rgb(42, 63, 95); fill-opacity: 1; white-space: pre; opacity: 1;" transform="translate(0,152.25)">$40M</text></g></g><g class="overaxes-above"/></g></g><g class="polarlayer"/><g class="smithlayer"/><g class="ternarylayer"/><g class="geolayer"/><g class="funnelarealayer"/><g class="pielayer"/><g class="iciclelayer"/><g class="treemaplayer"/><g class="sunburstlayer"/><g class="glimages"/><defs id="topdefs-17cf15"><g class="clips"/></defs><g class="layer-above"><g class="imagelayer"/><g class="shapelayer"/></g><g class="infolayer"><g class="g-gtitle"><text class="gtitle" x="35" y="50" text-anchor="start" dy="0em" style="font-family: 'Open Sans', verdana, arial, sans-serif; font-size: 17px; fill: rgb(42, 63, 95); opacity: 1; font-weight: normal; white-space: pre;"><tspan class="line" dy="0em" x="35" y="50">Stargate</tspan><tspan class="line" dy="1.3em" x="35" y="50">​<tspan style="font-size:70%" dy="-0.6em">Cumulative Net Flows since Program Announcement, Until Program End + 30 Days</tspan><tspan dy="0.42em">​</tspan></tspan></text></g><g class="g-xtitle"><text class="xtitle" x="350" y="460.3" text-anchor="middle" style="font-family: 'Open Sans', verdana, arial, sans-serif; font-size: 14px; fill: rgb(42, 63, 95); opacity: 1; font-weight: normal; white-space: pre;">Day</text></g><g class="g-ytitle"><text class="ytitle" transform="rotate(-90,24.668750000000003,260)" x="24.668750000000003" y="260" text-anchor="middle" style="font-family: 'Open Sans', verdana, arial, sans-serif; font-size: 14px; fill: rgb(42, 63, 95); opacity: 1; font-weight: normal; white-space: pre;">Cumulative Net Flows (USD)</text></g></g></svg>