<svg class="main-svg" xmlns="http://www.w3.org/2000/svg" xmlns:xlink="http://www.w3.org/1999/xlink" width="700" height="500" style="" viewBox="0 0 700 500"><rect x="0" y="0" width="700" height="500" style="fill: rgb(255, 255, 255); fill-opacity: 1;"/><defs id="defs-a94977"><g class="clips"><clipPath id="clipa94977xyplot" class="plotclip"><rect width="540" height="320"/></clipPath><clipPath class="axesclip" id="clipa94977x"><rect x="80" y="0" width="540" height="500"/></clipPath><clipPath class="axesclip" id="clipa94977y"><rect x="0" y="100" width="700" height="320"/></clipPath><clipPath class="axesclip" id="clipa94977xy"><rect x="80" y="100" width="540" height="320"/></clipPath></g><g class="gradients"/><g class="patterns"/></defs><g class="bglayer"><rect class="bg" x="80" y="100" width="540" height="320" style="fill: rgb(229, 236, 246); fill-opacity: 1; stroke-width: 0;"/></g><g class="layer-below"><g class="imagelayer"/><g class="shapelayer"/></g><g class="cartesianlayer"><g class="subplot xy"><g class="layer-subplot"><g class="shapelayer"/><g class="imagelayer"/></g><g class="minor-gridlayer"><g class="x"/><g class="y"/></g><g class="gridlayer"><g class="x"><path class="xgrid crisp" transform="translate(122.33,0)" d="M0,100v320" style="stroke: rgb(255, 255, 255); stroke-opacity: 1; stroke-width: 1px;"/><path class="xgrid crisp" transform="translate(227.58,0)" d="M0,100v320" style="stroke: rgb(255, 255, 255); stroke-opacity: 1; stroke-width: 1px;"/><path class="xgrid crisp" transform="translate(330.55,0)" d="M0,100v320" style="stroke: rgb(255, 255, 255); stroke-opacity: 1; stroke-width: 1px;"/><path class="xgrid crisp" transform="translate(434.66,0)" d="M0,100v320" style="stroke: rgb(255, 255, 255); stroke-opacity: 1; stroke-width: 1px;"/><path class="xgrid crisp" transform="translate(539.9200000000001,0)" d="M0,100v320" style="stroke: rgb(255, 255, 255); stroke-opacity: 1; stroke-width: 1px;"/></g><g class="y"><path class="ygrid crisp" transform="translate(0,401.91)" d="M80,0h540" style="stroke: rgb(255, 255, 255); stroke-opacity: 1; stroke-width: 1px;"/><path class="ygrid crisp" transform="translate(0,317.40999999999997)" d="M80,0h540" style="stroke: rgb(255, 255, 255); stroke-opacity: 1; stroke-width: 1px;"/><path class="ygrid crisp" transform="translate(0,275.15999999999997)" d="M80,0h540" style="stroke: rgb(255, 255, 255); stroke-opacity: 1; stroke-width: 1px;"/><path class="ygrid crisp" transform="translate(0,232.91)" d="M80,0h540" style="stroke: rgb(255, 255, 255); stroke-opacity: 1; stroke-width: 1px;"/><path class="ygrid crisp" transform="translate(0,190.66)" d="M80,0h540" style="stroke: rgb(255, 255, 255); stroke-opacity: 1; stroke-width: 1px;"/><path class="ygrid crisp" transform="translate(0,148.41)" d="M80,0h540" style="stroke: rgb(255, 255, 255); stroke-opacity: 1; stroke-width: 1px;"/><path class="ygrid crisp" transform="translate(0,106.16)" d="M80,0h540" style="stroke: rgb(255, 255, 255); stroke-opacity: 1; stroke-width: 1px;"/></g></g><g class="zerolinelayer"><path class="yzl zl crisp" transform="translate(0,359.66)" d="M80,0h540" style="stroke: rgb(255, 255, 255); stroke-opacity: 1; stroke-width: 2px;"/></g><path class="xlines-below"/><path class="ylines-below"/><g class="overlines-below"/><g class="xaxislayer-below"/><g class="yaxislayer-below"/><g class="overaxes-below"/><g class="plot" transform="translate(80,100)" clip-path="url(#clipa94977xyplot)"><g class="scatterlayer mlayer"><g class="trace scatter tracef17c41" style="stroke-miterlimit: 2;"><g class="fills"><g><path class="js-fill" d="M540,259.66L0,259.66L0,258.78L1.14,221.12L2.29,214.62L3.43,211.79L4.58,211.74L6.86,203.55L8.01,202.26L9.15,203.84L10.3,198.45L12.58,193.29L13.73,201.44L14.87,199.18L16.02,201.42L18.31,188.6L19.45,186.18L20.59,185.43L21.74,187.83L24.03,192.36L25.17,181.19L26.31,173.84L27.46,172.62L28.6,170.49L29.75,175.35L30.89,175.2L32.03,172.75L34.32,172.7L35.47,173.44L37.75,171.41L38.9,145.71L40.04,147.53L41.19,152.93L43.47,151.73L44.62,152.91L46.91,154.93L48.05,161.41L49.19,158.14L50.34,165.69L51.48,165.68L52.63,166.74L53.77,169.94L54.92,167.49L57.2,166.86L58.35,164.75L60.64,164.39L61.78,162.82L62.92,164.13L64.07,163.92L69.79,164.2L70.93,162.74L72.08,163.42L73.22,174.34L74.36,172.34L75.51,161.53L82.37,161.98L83.52,162.8L84.66,161.15L85.81,160.99L86.95,191.03L88.09,194.79L90.38,178.12L91.53,183.62L92.67,174.66L93.81,173.49L94.96,172.65L96.1,174.32L97.25,178.14L98.39,177.23L99.53,176.36L100.68,177.92L102.97,178.06L104.11,172.78L105.25,173.18L106.4,172.26L112.12,171.94L113.26,169.7L114.41,169.77L115.55,166.19L116.69,165.73L117.84,161.02L120.13,144.19L121.27,144.6L122.42,142.96L123.56,142.86L124.7,141.56L125.85,138.24L126.99,137.58L128.14,133.48L129.28,130.8L130.42,134.16L132.71,134.21L133.86,137.06L135,149.02L136.14,149.4L137.29,149.81L138.43,149.06L141.86,149.1L143.01,154.08L144.15,153.99L145.3,151.02L146.44,138.87L147.58,136.36L148.73,140.32L149.87,140.26L151.02,145.14L152.16,145.63L153.31,143L154.45,143.03L155.59,146.14L156.74,144.3L159.03,123.18L160.17,121.81L161.31,126.56L162.46,123L163.6,121.84L164.75,123.62L167.03,122.84L168.18,125.73L169.32,121.6L170.47,112.47L171.61,109.61L172.75,108.85L173.9,107.11L175.04,86.03L176.19,42.39L177.33,38.99L178.47,41.29L179.62,32L180.76,31.25L181.91,17.95L183.05,17.57L184.19,16L185.34,20.19L186.48,30.12L187.63,34.2L188.77,34.18L189.92,42.27L191.06,57.01L192.2,59.14L193.35,59.5L194.49,59.26L195.64,39.71L196.78,41.69L197.92,39.53L199.07,39.79L200.21,37.68L201.36,42.56L202.5,51.54L204.79,52.68L205.93,65.91L208.22,67.29L209.36,66.48L210.51,64.47L211.65,60.34L213.94,59.25L215.08,59.33L216.23,58.77L217.37,60.09L219.66,59.77L220.81,56.72L221.95,57.97L223.09,55.94L224.24,51.89L225.38,52.32L226.53,50.56L227.67,63.4L229.96,59.46L231.1,51.56L232.25,49.55L233.39,52.2L235.68,58.77L236.82,61.4L237.97,61.6L239.11,60.23L242.54,62.26L243.69,77.49L244.83,87.55L245.97,127.61L248.26,197.94L249.41,200.17L251.69,211.2L252.84,213.84L253.98,216.61L255.13,223.66L258.56,227.34L259.7,227.8L260.85,228.49L261.99,231.4L264.28,232.94L265.42,278.66L267.71,279.52L268.86,280.99L273.43,282.84L274.58,280.76L278.01,281.39L279.15,284.78L280.3,286.52L281.44,286.68L284.87,287.22L286.02,287.24L296.31,287.74L297.46,290.23L300.89,290.24L302.03,291.07L311.19,291.73L312.33,295.47L336.36,296.7L337.5,297.07L356.95,297.86L358.09,298.03L363.81,298.27L364.96,298.27L387.84,298.99L388.98,299.57L400.42,299.68L401.57,299.69L491.95,300L493.09,300.48L494.24,300.48L495.38,301.83L521.69,302.25L522.84,304L540,303.72" style="fill: rgb(99, 110, 250); fill-opacity: 0.5; stroke-width: 0;"/></g></g><g class="errorbars"/><g class="lines"><path class="js-line" d="M0,258.78L1.14,221.12L2.29,214.62L3.43,211.79L4.58,211.74L6.86,203.55L8.01,202.26L9.15,203.84L10.3,198.45L12.58,193.29L13.73,201.44L14.87,199.18L16.02,201.42L18.31,188.6L19.45,186.18L20.59,185.43L21.74,187.83L24.03,192.36L25.17,181.19L26.31,173.84L27.46,172.62L28.6,170.49L29.75,175.35L30.89,175.2L32.03,172.75L34.32,172.7L35.47,173.44L37.75,171.41L38.9,145.71L40.04,147.53L41.19,152.93L43.47,151.73L44.62,152.91L46.91,154.93L48.05,161.41L49.19,158.14L50.34,165.69L51.48,165.68L52.63,166.74L53.77,169.94L54.92,167.49L57.2,166.86L58.35,164.75L60.64,164.39L61.78,162.82L62.92,164.13L64.07,163.92L69.79,164.2L70.93,162.74L72.08,163.42L73.22,174.34L74.36,172.34L75.51,161.53L82.37,161.98L83.52,162.8L84.66,161.15L85.81,160.99L86.95,191.03L88.09,194.79L90.38,178.12L91.53,183.62L92.67,174.66L93.81,173.49L94.96,172.65L96.1,174.32L97.25,178.14L98.39,177.23L99.53,176.36L100.68,177.92L102.97,178.06L104.11,172.78L105.25,173.18L106.4,172.26L112.12,171.94L113.26,169.7L114.41,169.77L115.55,166.19L116.69,165.73L117.84,161.02L120.13,144.19L121.27,144.6L122.42,142.96L123.56,142.86L124.7,141.56L125.85,138.24L126.99,137.58L128.14,133.48L129.28,130.8L130.42,134.16L132.71,134.21L133.86,137.06L135,149.02L136.14,149.4L137.29,149.81L138.43,149.06L141.86,149.1L143.01,154.08L144.15,153.99L145.3,151.02L146.44,138.87L147.58,136.36L148.73,140.32L149.87,140.26L151.02,145.14L152.16,145.63L153.31,143L154.45,143.03L155.59,146.14L156.74,144.3L159.03,123.18L160.17,121.81L161.31,126.56L162.46,123L163.6,121.84L164.75,123.62L167.03,122.84L168.18,125.73L169.32,121.6L170.47,112.47L171.61,109.61L172.75,108.85L173.9,107.11L175.04,86.03L176.19,42.39L177.33,38.99L178.47,41.29L179.62,32L180.76,31.25L181.91,17.95L183.05,17.57L184.19,16L185.34,20.19L186.48,30.12L187.63,34.2L188.77,34.18L189.92,42.27L191.06,57.01L192.2,59.14L193.35,59.5L194.49,59.26L195.64,39.71L196.78,41.69L197.92,39.53L199.07,39.79L200.21,37.68L201.36,42.56L202.5,51.54L204.79,52.68L205.93,65.91L208.22,67.29L209.36,66.48L210.51,64.47L211.65,60.34L213.94,59.25L215.08,59.33L216.23,58.77L217.37,60.09L219.66,59.77L220.81,56.72L221.95,57.97L223.09,55.94L224.24,51.89L225.38,52.32L226.53,50.56L227.67,63.4L229.96,59.46L231.1,51.56L232.25,49.55L233.39,52.2L235.68,58.77L236.82,61.4L237.97,61.6L239.11,60.23L242.54,62.26L243.69,77.49L244.83,87.55L245.97,127.61L248.26,197.94L249.41,200.17L251.69,211.2L252.84,213.84L253.98,216.61L255.13,223.66L258.56,227.34L259.7,227.8L260.85,228.49L261.99,231.4L264.28,232.94L265.42,278.66L267.71,279.52L268.86,280.99L273.43,282.84L274.58,280.76L278.01,281.39L279.15,284.78L280.3,286.52L281.44,286.68L284.87,287.22L286.02,287.24L296.31,287.74L297.46,290.23L300.89,290.24L302.03,291.07L311.19,291.73L312.33,295.47L336.36,296.7L337.5,297.07L356.95,297.86L358.09,298.03L363.81,298.27L364.96,298.27L387.84,298.99L388.98,299.57L400.42,299.68L401.57,299.69L491.95,300L493.09,300.48L494.24,300.48L495.38,301.83L521.69,302.25L522.84,304L540,303.72" style="vector-effect: none; fill: none; stroke: rgb(99, 110, 250); stroke-opacity: 1; stroke-width: 2px; opacity: 1;"/></g><g class="points"/><g class="text"/></g></g></g><g class="overplot"/><path class="xlines-above crisp" d="M0,0" style="fill: none;"/><path class="ylines-above crisp" d="M0,0" style="fill: none;"/><g class="overlines-above"/><g class="xaxislayer-above"><g class="xtick"><text text-anchor="middle" x="0" y="433" transform="translate(122.33,0)" style="font-family: 'Open Sans', verdana, arial, sans-serif; font-size: 12px; fill: rgb(42, 63, 95); fill-opacity: 1; white-space: pre; opacity: 1;">Oct 2022</text></g><g class="xtick"><text text-anchor="middle" x="0" y="433" style="font-family: 'Open Sans', verdana, arial, sans-serif; font-size: 12px; fill: rgb(42, 63, 95); fill-opacity: 1; white-space: pre; opacity: 1;" transform="translate(227.58,0)">Jan 2023</text></g><g class="xtick"><text text-anchor="middle" x="0" y="433" style="font-family: 'Open Sans', verdana, arial, sans-serif; font-size: 12px; fill: rgb(42, 63, 95); fill-opacity: 1; white-space: pre; opacity: 1;" transform="translate(330.55,0)">Apr 2023</text></g><g class="xtick"><text text-anchor="middle" x="0" y="433" style="font-family: 'Open Sans', verdana, arial, sans-serif; font-size: 12px; fill: rgb(42, 63, 95); fill-opacity: 1; white-space: pre; opacity: 1;" transform="translate(434.66,0)">Jul 2023</text></g><g class="xtick"><text text-anchor="middle" x="0" y="433" style="font-family: 'Open Sans', verdana, arial, sans-serif; font-size: 12px; fill: rgb(42, 63, 95); fill-opacity: 1; white-space: pre; opacity: 1;" transform="translate(539.9200000000001,0)">Oct 2023</text></g></g><g class="yaxislayer-above"><g class="ytick"><text text-anchor="end" x="79" y="4.199999999999999" transform="translate(0,401.91)" style="font-family: 'Open Sans', verdana, arial, sans-serif; font-size: 12px; fill: rgb(42, 63, 95); fill-opacity: 1; white-space: pre; opacity: 1;">$−5M</text></g><g class="ytick"><text text-anchor="end" x="79" y="4.199999999999999" style="font-family: 'Open Sans', verdana, arial, sans-serif; font-size: 12px; fill: rgb(42, 63, 95); fill-opacity: 1; white-space: pre; opacity: 1;" transform="translate(0,359.66)">$0</text></g><g class="ytick"><text text-anchor="end" x="79" y="4.199999999999999" style="font-family: 'Open Sans', verdana, arial, sans-serif; font-size: 12px; fill: rgb(42, 63, 95); fill-opacity: 1; white-space: pre; opacity: 1;" transform="translate(0,317.40999999999997)">$5M</text></g><g class="ytick"><text text-anchor="end" x="79" y="4.199999999999999" style="font-family: 'Open Sans', verdana, arial, sans-serif; font-size: 12px; fill: rgb(42, 63, 95); fill-opacity: 1; white-space: pre; opacity: 1;" transform="translate(0,275.15999999999997)">$10M</text></g><g class="ytick"><text text-anchor="end" x="79" y="4.199999999999999" style="font-family: 'Open Sans', verdana, arial, sans-serif; font-size: 12px; fill: rgb(42, 63, 95); fill-opacity: 1; white-space: pre; opacity: 1;" transform="translate(0,232.91)">$15M</text></g><g class="ytick"><text text-anchor="end" x="79" y="4.199999999999999" style="font-family: 'Open Sans', verdana, arial, sans-serif; font-size: 12px; fill: rgb(42, 63, 95); fill-opacity: 1; white-space: pre; opacity: 1;" transform="translate(0,190.66)">$20M</text></g><g class="ytick"><text text-anchor="end" x="79" y="4.199999999999999" style="font-family: 'Open Sans', verdana, arial, sans-serif; font-size: 12px; fill: rgb(42, 63, 95); fill-opacity: 1; white-space: pre; opacity: 1;" transform="translate(0,148.41)">$25M</text></g><g class="ytick"><text text-anchor="end" x="79" y="4.199999999999999" style="font-family: 'Open Sans', verdana, arial, sans-serif; font-size: 12px; fill: rgb(42, 63, 95); fill-opacity: 1; white-space: pre; opacity: 1;" transform="translate(0,106.16)">$30M</text></g></g><g class="overaxes-above"/></g></g><g class="polarlayer"/><g class="smithlayer"/><g class="ternarylayer"/><g class="geolayer"/><g class="funnelarealayer"/><g class="pielayer"/><g class="iciclelayer"/><g class="treemaplayer"/><g class="sunburstlayer"/><g class="glimages"/><defs id="topdefs-a94977"><g class="clips"/></defs><g class="layer-above"><g class="imagelayer"/><g class="shapelayer"/></g><g class="infolayer"><g class="g-gtitle"><text class="gtitle" x="35" y="50" text-anchor="start" dy="0em" style="font-family: 'Open Sans', verdana, arial, sans-serif; font-size: 17px; fill: rgb(42, 63, 95); opacity: 1; font-weight: normal; white-space: pre;"><tspan class="line" dy="0em" x="35" y="50">Synthetix - sETH-ETH: Curve</tspan><tspan class="line" dy="1.3em" x="35" y="50">​<tspan style="font-size:70%" dy="-0.6em">Cumulative Net Flows since Program Announcement, Until Program End + 30 Days</tspan><tspan dy="0.42em">​</tspan></tspan></text></g><g class="g-xtitle"><text class="xtitle" x="350" y="460.3" text-anchor="middle" style="font-family: 'Open Sans', verdana, arial, sans-serif; font-size: 14px; fill: rgb(42, 63, 95); opacity: 1; font-weight: normal; white-space: pre;">Day</text></g><g class="g-ytitle"><text class="ytitle" transform="rotate(-90,24.340625000000003,260)" x="24.340625000000003" y="260" text-anchor="middle" style="font-family: 'Open Sans', verdana, arial, sans-serif; font-size: 14px; fill: rgb(42, 63, 95); opacity: 1; font-weight: normal; white-space: pre;">Cumulative Net Flows (USD)</text></g></g></svg>