<svg class="main-svg" xmlns="http://www.w3.org/2000/svg" xmlns:xlink="http://www.w3.org/1999/xlink" width="700" height="500" style="" viewBox="0 0 700 500"><rect x="0" y="0" width="700" height="500" style="fill: rgb(255, 255, 255); fill-opacity: 1;"/><defs id="defs-5bb9c8"><g class="clips"><clipPath id="clip5bb9c8xyplot" class="plotclip"><rect width="540" height="320"/></clipPath><clipPath class="axesclip" id="clip5bb9c8x"><rect x="80" y="0" width="540" height="500"/></clipPath><clipPath class="axesclip" id="clip5bb9c8y"><rect x="0" y="100" width="700" height="320"/></clipPath><clipPath class="axesclip" id="clip5bb9c8xy"><rect x="80" y="100" width="540" height="320"/></clipPath></g><g class="gradients"/><g class="patterns"/></defs><g class="bglayer"><rect class="bg" x="80" y="100" width="540" height="320" style="fill: rgb(229, 236, 246); fill-opacity: 1; stroke-width: 0;"/></g><g class="layer-below"><g class="imagelayer"/><g class="shapelayer"/></g><g class="cartesianlayer"><g class="subplot xy"><g class="layer-subplot"><g class="shapelayer"/><g class="imagelayer"/></g><g class="minor-gridlayer"><g class="x"/><g class="y"/></g><g class="gridlayer"><g class="x"><path class="xgrid crisp" transform="translate(99.05,0)" d="M0,100v320" style="stroke: rgb(255, 255, 255); stroke-opacity: 1; stroke-width: 1px;"/><path class="xgrid crisp" transform="translate(202.12,0)" d="M0,100v320" style="stroke: rgb(255, 255, 255); stroke-opacity: 1; stroke-width: 1px;"/><path class="xgrid crisp" transform="translate(302.95,0)" d="M0,100v320" style="stroke: rgb(255, 255, 255); stroke-opacity: 1; stroke-width: 1px;"/><path class="xgrid crisp" transform="translate(404.9,0)" d="M0,100v320" style="stroke: rgb(255, 255, 255); stroke-opacity: 1; stroke-width: 1px;"/><path class="xgrid crisp" transform="translate(507.97,0)" d="M0,100v320" style="stroke: rgb(255, 255, 255); stroke-opacity: 1; stroke-width: 1px;"/><path class="xgrid crisp" transform="translate(611.04,0)" d="M0,100v320" style="stroke: rgb(255, 255, 255); stroke-opacity: 1; stroke-width: 1px;"/></g><g class="y"><path class="ygrid crisp" transform="translate(0,330.82)" d="M80,0h540" style="stroke: rgb(255, 255, 255); stroke-opacity: 1; stroke-width: 1px;"/><path class="ygrid crisp" transform="translate(0,266.91999999999996)" d="M80,0h540" style="stroke: rgb(255, 255, 255); stroke-opacity: 1; stroke-width: 1px;"/><path class="ygrid crisp" transform="translate(0,203.03)" d="M80,0h540" style="stroke: rgb(255, 255, 255); stroke-opacity: 1; stroke-width: 1px;"/><path class="ygrid crisp" transform="translate(0,139.14)" d="M80,0h540" style="stroke: rgb(255, 255, 255); stroke-opacity: 1; stroke-width: 1px;"/></g></g><g class="zerolinelayer"><path class="yzl zl crisp" transform="translate(0,394.71)" d="M80,0h540" style="stroke: rgb(255, 255, 255); stroke-opacity: 1; stroke-width: 2px;"/></g><path class="xlines-below"/><path class="ylines-below"/><g class="overlines-below"/><g class="xaxislayer-below"/><g class="yaxislayer-below"/><g class="overaxes-below"/><g class="plot" transform="translate(80,100)" clip-path="url(#clip5bb9c8xyplot)"><g class="scatterlayer mlayer"><g class="trace scatter trace3951da" style="stroke-miterlimit: 2;"><g class="fills"><g><path class="js-fill" d="M540,294.71L0,294.71L0,296.88L1.12,296.35L2.24,297.78L3.36,301.34L4.48,300.93L5.6,302.29L6.72,301.63L8.96,304L10.08,302.58L13.44,302.44L14.56,301.22L17.93,300.17L19.05,299.22L24.65,296.53L25.77,293.42L31.37,293.2L32.49,292.75L35.85,291.5L36.97,290.45L38.09,289.48L39.21,289.98L40.33,289.17L41.45,285.47L43.69,281.9L44.81,282.32L45.93,281.87L47.05,270.92L50.41,275.2L51.54,274.8L52.66,275.37L53.78,274L54.9,273.7L56.02,274.48L57.14,270.66L58.26,271.05L59.38,267.56L60.5,266.96L61.62,266.68L62.74,270.22L63.86,277.37L64.98,276.78L66.1,279.99L67.22,280.22L68.34,287.53L69.46,286.95L70.58,285.52L71.7,286.53L72.82,285.25L73.94,285.37L75.06,283.53L76.18,285.07L78.42,284.97L79.54,283.41L82.9,280.37L84.02,281.05L85.15,280.97L86.27,279.16L87.39,278.92L88.51,277.71L91.87,276.31L92.99,276.59L94.11,275.2L95.23,275.44L96.35,272.24L97.47,272.07L99.71,270.85L100.83,272.64L103.07,269.59L104.19,270.07L105.31,269.91L106.43,270.52L107.55,269.99L108.67,270.81L112.03,267.97L113.15,268.68L118.76,268.2L119.88,269L121,270.65L122.12,270.72L123.24,270.98L124.36,269.04L125.48,267.18L126.6,262.68L127.72,261.71L128.84,263.32L132.2,251.31L133.32,247.55L134.44,246.36L135.56,248.68L136.68,249.31L137.8,251.29L138.92,252.11L140.04,256.6L142.28,262.08L143.4,262.22L145.64,274.02L146.76,276.49L149,278.46L150.12,278.15L153.49,280.49L154.61,280.25L156.85,281.05L157.97,279.82L161.33,281.57L162.45,281.93L165.81,281.04L166.93,282.76L168.05,284.21L169.17,284.24L171.41,284.93L172.53,284.45L173.65,283.25L174.77,283.99L179.25,284.95L180.37,285.18L184.85,287.56L185.98,287.02L190.46,287.14L191.58,288.49L193.82,289.78L194.94,290.14L197.18,290.59L198.3,291.53L200.54,294.52L201.66,292.75L203.9,292.39L205.02,292.68L206.14,292.54L207.26,295.39L209.5,296.95L210.62,297.14L211.74,296.75L212.86,297.16L213.98,296.36L215.1,297L219.59,296.62L220.71,295.42L221.83,294.6L222.95,141.82L226.31,141.57L227.43,140.07L228.55,140.81L229.67,140.61L231.91,141.9L233.03,140.83L236.39,140.96L237.51,139.23L238.63,140.84L239.75,140.77L240.87,140.68L241.99,139.68L243.11,149.78L244.23,148.9L245.35,147.69L246.47,152.62L247.59,150.1L248.71,150.64L249.83,150.67L250.95,149.24L252.07,145.18L253.2,147.42L254.32,147.42L255.44,146.28L256.56,145.72L257.68,148.59L258.8,148.12L259.92,90.32L261.04,90.21L262.16,147.77L263.28,141.43L264.4,143.48L265.52,143.28L266.64,142.15L267.76,138.57L268.88,142.46L270,142.21L271.12,138.9L272.24,137.68L273.36,135.21L274.48,137.33L275.6,134.45L277.84,140.15L278.96,138.98L280.08,141.12L281.2,141.55L282.32,141.08L283.44,142.45L284.56,146.78L285.68,145.59L286.8,146.22L287.93,145.71L290.17,147.55L291.29,152.13L292.41,154.99L293.53,152.15L294.65,152.16L295.77,153.69L296.89,157.99L298.01,154.64L300.25,154.78L301.37,157.28L304.73,160.94L305.85,159.85L308.09,164.12L309.21,163.75L310.33,161.58L311.45,163.82L312.57,165.68L313.69,159.4L314.81,157.31L315.93,162.01L317.05,163.46L318.17,163L320.41,161.57L321.54,159.44L322.66,163.73L323.78,162.64L324.9,158.3L326.02,157.77L327.14,157.87L328.26,155.91L329.38,155.39L330.5,144.21L333.86,135.12L334.98,138.42L336.1,134.45L337.22,133.65L338.34,132.1L339.46,123.07L340.58,114.27L341.7,116.97L342.82,124.79L343.94,115.23L345.06,114.66L346.18,122.71L347.3,118.19L348.42,117.46L349.54,119.46L350.66,119.67L351.78,115.51L352.9,114.81L354.02,123.57L355.15,112.11L358.51,93.42L359.63,88.95L361.87,78.73L362.99,81.97L364.11,111.54L365.23,114.54L366.35,103.73L367.47,102.45L369.71,88.16L370.83,87.07L371.95,93.96L373.07,90.59L374.19,84.46L375.31,89.47L377.55,79.04L378.67,100.16L379.79,108.99L380.91,111.27L382.03,109.15L383.15,100.01L385.39,108.64L386.51,56.39L387.63,49.48L388.76,49.75L389.88,44.28L391,57.65L392.12,61.24L393.24,67.87L394.36,52.19L395.48,60.66L396.6,57.29L397.72,58.13L398.84,50.4L399.96,72.95L401.08,76.57L402.2,86.17L403.32,92.36L404.44,58.37L405.56,63.23L406.68,108.54L407.8,96.86L408.92,99.14L410.04,94.64L411.16,95.39L412.28,94.31L413.4,97.01L414.52,87.04L415.64,86.45L416.76,89.44L417.88,86.61L419,89.49L420.12,89.21L421.24,93.48L422.37,93.85L423.49,90.9L424.61,90.86L426.85,87.49L427.97,100.27L429.09,126.92L430.21,119.84L431.33,117.4L432.45,118.67L433.57,122.53L434.69,123.44L436.93,123.31L438.05,126.89L439.17,128.62L440.29,134.84L441.41,136.3L442.53,135.19L444.77,137.33L445.89,135.05L447.01,137.34L448.13,136.46L449.25,135.29L450.37,131.17L451.49,132.37L452.61,130.49L453.73,125.78L454.85,106.44L458.22,90.65L459.34,91.36L460.46,91.62L461.58,105.47L462.7,95.5L463.82,106.45L464.94,110.87L466.06,106.54L467.18,109.69L468.3,106.55L471.66,116.79L472.78,113.98L473.9,119.66L475.02,112.38L478.38,74.04L479.5,83.65L481.74,62.92L482.86,63.17L485.1,57.86L486.22,57.5L487.34,64.46L488.46,64.86L489.59,39.29L490.71,45.4L491.83,67.03L492.95,58.99L494.07,64.15L495.19,62.14L496.31,59.45L497.43,66.99L498.55,81.38L499.67,78.38L501.91,64.19L503.03,65.9L504.15,63.13L505.27,68.54L506.39,49.79L507.51,46.5L508.63,21.83L509.75,20.33L510.87,19.21L511.99,16L513.11,20.6L514.23,19.56L515.35,23.28L516.47,22.26L517.59,40.84L518.71,35.08L519.83,49.19L520.95,41.91L522.07,42.1L523.2,39.78L524.32,33.39L525.44,37.53L526.56,33.29L527.68,32.2L528.8,30.47L529.92,34.09L532.16,23.77L533.28,44.55L534.4,17.02L535.52,25.17L536.64,30.5L537.76,30.46L538.88,29.69L540,23.66" style="fill: rgb(99, 110, 250); fill-opacity: 0.5; stroke-width: 0;"/></g></g><g class="errorbars"/><g class="lines"><path class="js-line" d="M0,296.88L1.12,296.35L2.24,297.78L3.36,301.34L4.48,300.93L5.6,302.29L6.72,301.63L8.96,304L10.08,302.58L13.44,302.44L14.56,301.22L17.93,300.17L19.05,299.22L24.65,296.53L25.77,293.42L31.37,293.2L32.49,292.75L35.85,291.5L36.97,290.45L38.09,289.48L39.21,289.98L40.33,289.17L41.45,285.47L43.69,281.9L44.81,282.32L45.93,281.87L47.05,270.92L50.41,275.2L51.54,274.8L52.66,275.37L53.78,274L54.9,273.7L56.02,274.48L57.14,270.66L58.26,271.05L59.38,267.56L60.5,266.96L61.62,266.68L62.74,270.22L63.86,277.37L64.98,276.78L66.1,279.99L67.22,280.22L68.34,287.53L69.46,286.95L70.58,285.52L71.7,286.53L72.82,285.25L73.94,285.37L75.06,283.53L76.18,285.07L78.42,284.97L79.54,283.41L82.9,280.37L84.02,281.05L85.15,280.97L86.27,279.16L87.39,278.92L88.51,277.71L91.87,276.31L92.99,276.59L94.11,275.2L95.23,275.44L96.35,272.24L97.47,272.07L99.71,270.85L100.83,272.64L103.07,269.59L104.19,270.07L105.31,269.91L106.43,270.52L107.55,269.99L108.67,270.81L112.03,267.97L113.15,268.68L118.76,268.2L119.88,269L121,270.65L122.12,270.72L123.24,270.98L124.36,269.04L125.48,267.18L126.6,262.68L127.72,261.71L128.84,263.32L132.2,251.31L133.32,247.55L134.44,246.36L135.56,248.68L136.68,249.31L137.8,251.29L138.92,252.11L140.04,256.6L142.28,262.08L143.4,262.22L145.64,274.02L146.76,276.49L149,278.46L150.12,278.15L153.49,280.49L154.61,280.25L156.85,281.05L157.97,279.82L161.33,281.57L162.45,281.93L165.81,281.04L166.93,282.76L168.05,284.21L169.17,284.24L171.41,284.93L172.53,284.45L173.65,283.25L174.77,283.99L179.25,284.95L180.37,285.18L184.85,287.56L185.98,287.02L190.46,287.14L191.58,288.49L193.82,289.78L194.94,290.14L197.18,290.59L198.3,291.53L200.54,294.52L201.66,292.75L203.9,292.39L205.02,292.68L206.14,292.54L207.26,295.39L209.5,296.95L210.62,297.14L211.74,296.75L212.86,297.16L213.98,296.36L215.1,297L219.59,296.62L220.71,295.42L221.83,294.6L222.95,141.82L226.31,141.57L227.43,140.07L228.55,140.81L229.67,140.61L231.91,141.9L233.03,140.83L236.39,140.96L237.51,139.23L238.63,140.84L239.75,140.77L240.87,140.68L241.99,139.68L243.11,149.78L244.23,148.9L245.35,147.69L246.47,152.62L247.59,150.1L248.71,150.64L249.83,150.67L250.95,149.24L252.07,145.18L253.2,147.42L254.32,147.42L255.44,146.28L256.56,145.72L257.68,148.59L258.8,148.12L259.92,90.32L261.04,90.21L262.16,147.77L263.28,141.43L264.4,143.48L265.52,143.28L266.64,142.15L267.76,138.57L268.88,142.46L270,142.21L271.12,138.9L272.24,137.68L273.36,135.21L274.48,137.33L275.6,134.45L277.84,140.15L278.96,138.98L280.08,141.12L281.2,141.55L282.32,141.08L283.44,142.45L284.56,146.78L285.68,145.59L286.8,146.22L287.93,145.71L290.17,147.55L291.29,152.13L292.41,154.99L293.53,152.15L294.65,152.16L295.77,153.69L296.89,157.99L298.01,154.64L300.25,154.78L301.37,157.28L304.73,160.94L305.85,159.85L308.09,164.12L309.21,163.75L310.33,161.58L311.45,163.82L312.57,165.68L313.69,159.4L314.81,157.31L315.93,162.01L317.05,163.46L318.17,163L320.41,161.57L321.54,159.44L322.66,163.73L323.78,162.64L324.9,158.3L326.02,157.77L327.14,157.87L328.26,155.91L329.38,155.39L330.5,144.21L333.86,135.12L334.98,138.42L336.1,134.45L337.22,133.65L338.34,132.1L339.46,123.07L340.58,114.27L341.7,116.97L342.82,124.79L343.94,115.23L345.06,114.66L346.18,122.71L347.3,118.19L348.42,117.46L349.54,119.46L350.66,119.67L351.78,115.51L352.9,114.81L354.02,123.57L355.15,112.11L358.51,93.42L359.63,88.95L361.87,78.73L362.99,81.97L364.11,111.54L365.23,114.54L366.35,103.73L367.47,102.45L369.71,88.16L370.83,87.07L371.95,93.96L373.07,90.59L374.19,84.46L375.31,89.47L377.55,79.04L378.67,100.16L379.79,108.99L380.91,111.27L382.03,109.15L383.15,100.01L385.39,108.64L386.51,56.39L387.63,49.48L388.76,49.75L389.88,44.28L391,57.65L392.12,61.24L393.24,67.87L394.36,52.19L395.48,60.66L396.6,57.29L397.72,58.13L398.84,50.4L399.96,72.95L401.08,76.57L402.2,86.17L403.32,92.36L404.44,58.37L405.56,63.23L406.68,108.54L407.8,96.86L408.92,99.14L410.04,94.64L411.16,95.39L412.28,94.31L413.4,97.01L414.52,87.04L415.64,86.45L416.76,89.44L417.88,86.61L419,89.49L420.12,89.21L421.24,93.48L422.37,93.85L423.49,90.9L424.61,90.86L426.85,87.49L427.97,100.27L429.09,126.92L430.21,119.84L431.33,117.4L432.45,118.67L433.57,122.53L434.69,123.44L436.93,123.31L438.05,126.89L439.17,128.62L440.29,134.84L441.41,136.3L442.53,135.19L444.77,137.33L445.89,135.05L447.01,137.34L448.13,136.46L449.25,135.29L450.37,131.17L451.49,132.37L452.61,130.49L453.73,125.78L454.85,106.44L458.22,90.65L459.34,91.36L460.46,91.62L461.58,105.47L462.7,95.5L463.82,106.45L464.94,110.87L466.06,106.54L467.18,109.69L468.3,106.55L471.66,116.79L472.78,113.98L473.9,119.66L475.02,112.38L478.38,74.04L479.5,83.65L481.74,62.92L482.86,63.17L485.1,57.86L486.22,57.5L487.34,64.46L488.46,64.86L489.59,39.29L490.71,45.4L491.83,67.03L492.95,58.99L494.07,64.15L495.19,62.14L496.31,59.45L497.43,66.99L498.55,81.38L499.67,78.38L501.91,64.19L503.03,65.9L504.15,63.13L505.27,68.54L506.39,49.79L507.51,46.5L508.63,21.83L509.75,20.33L510.87,19.21L511.99,16L513.11,20.6L514.23,19.56L515.35,23.28L516.47,22.26L517.59,40.84L518.71,35.08L519.83,49.19L520.95,41.91L522.07,42.1L523.2,39.78L524.32,33.39L525.44,37.53L526.56,33.29L527.68,32.2L528.8,30.47L529.92,34.09L532.16,23.77L533.28,44.55L534.4,17.02L535.52,25.17L536.64,30.5L537.76,30.46L538.88,29.69L540,23.66" style="vector-effect: none; fill: none; stroke: rgb(99, 110, 250); stroke-opacity: 1; stroke-width: 2px; opacity: 1;"/></g><g class="points"/><g class="text"/></g></g></g><g class="overplot"/><path class="xlines-above crisp" d="M0,0" style="fill: none;"/><path class="ylines-above crisp" d="M0,0" style="fill: none;"/><g class="overlines-above"/><g class="xaxislayer-above"><g class="xtick"><text text-anchor="middle" x="0" y="433" transform="translate(99.05,0)" style="font-family: 'Open Sans', verdana, arial, sans-serif; font-size: 12px; fill: rgb(42, 63, 95); fill-opacity: 1; white-space: pre; opacity: 1;">Oct 2022</text></g><g class="xtick"><text text-anchor="middle" x="0" y="433" style="font-family: 'Open Sans', verdana, arial, sans-serif; font-size: 12px; fill: rgb(42, 63, 95); fill-opacity: 1; white-space: pre; opacity: 1;" transform="translate(202.12,0)">Jan 2023</text></g><g class="xtick"><text text-anchor="middle" x="0" y="433" style="font-family: 'Open Sans', verdana, arial, sans-serif; font-size: 12px; fill: rgb(42, 63, 95); fill-opacity: 1; white-space: pre; opacity: 1;" transform="translate(302.95,0)">Apr 2023</text></g><g class="xtick"><text text-anchor="middle" x="0" y="433" style="font-family: 'Open Sans', verdana, arial, sans-serif; font-size: 12px; fill: rgb(42, 63, 95); fill-opacity: 1; white-space: pre; opacity: 1;" transform="translate(404.9,0)">Jul 2023</text></g><g class="xtick"><text text-anchor="middle" x="0" y="433" style="font-family: 'Open Sans', verdana, arial, sans-serif; font-size: 12px; fill: rgb(42, 63, 95); fill-opacity: 1; white-space: pre; opacity: 1;" transform="translate(507.97,0)">Oct 2023</text></g><g class="xtick"><text text-anchor="middle" x="0" y="433" style="font-family: 'Open Sans', verdana, arial, sans-serif; font-size: 12px; fill: rgb(42, 63, 95); fill-opacity: 1; white-space: pre; opacity: 1;" transform="translate(611.04,0)">Jan 2024</text></g></g><g class="yaxislayer-above"><g class="ytick"><text text-anchor="end" x="79" y="4.199999999999999" transform="translate(0,394.71)" style="font-family: 'Open Sans', verdana, arial, sans-serif; font-size: 12px; fill: rgb(42, 63, 95); fill-opacity: 1; white-space: pre; opacity: 1;">$0</text></g><g class="ytick"><text text-anchor="end" x="79" y="4.199999999999999" style="font-family: 'Open Sans', verdana, arial, sans-serif; font-size: 12px; fill: rgb(42, 63, 95); fill-opacity: 1; white-space: pre; opacity: 1;" transform="translate(0,330.82)">$1M</text></g><g class="ytick"><text text-anchor="end" x="79" y="4.199999999999999" style="font-family: 'Open Sans', verdana, arial, sans-serif; font-size: 12px; fill: rgb(42, 63, 95); fill-opacity: 1; white-space: pre; opacity: 1;" transform="translate(0,266.91999999999996)">$2M</text></g><g class="ytick"><text text-anchor="end" x="79" y="4.199999999999999" style="font-family: 'Open Sans', verdana, arial, sans-serif; font-size: 12px; fill: rgb(42, 63, 95); fill-opacity: 1; white-space: pre; opacity: 1;" transform="translate(0,203.03)">$3M</text></g><g class="ytick"><text text-anchor="end" x="79" y="4.199999999999999" style="font-family: 'Open Sans', verdana, arial, sans-serif; font-size: 12px; fill: rgb(42, 63, 95); fill-opacity: 1; white-space: pre; opacity: 1;" transform="translate(0,139.14)">$4M</text></g></g><g class="overaxes-above"/></g></g><g class="polarlayer"/><g class="smithlayer"/><g class="ternarylayer"/><g class="geolayer"/><g class="funnelarealayer"/><g class="pielayer"/><g class="iciclelayer"/><g class="treemaplayer"/><g class="sunburstlayer"/><g class="glimages"/><defs id="topdefs-5bb9c8"><g class="clips"/></defs><g class="layer-above"><g class="imagelayer"/><g class="shapelayer"/></g><g class="infolayer"><g class="g-gtitle"><text class="gtitle" x="35" y="50" text-anchor="start" dy="0em" style="font-family: 'Open Sans', verdana, arial, sans-serif; font-size: 17px; fill: rgb(42, 63, 95); opacity: 1; font-weight: normal; white-space: pre;"><tspan class="line" dy="0em" x="35" y="50">Polynomial Protocol*</tspan><tspan class="line" dy="1.3em" x="35" y="50">​<tspan style="font-size:70%" dy="-0.6em">Cumulative Net Flows since Program Announcement, Until Program End + 30 Days</tspan><tspan dy="0.42em">​</tspan></tspan></text></g><g class="g-xtitle"><text class="xtitle" x="350" y="460.3" text-anchor="middle" style="font-family: 'Open Sans', verdana, arial, sans-serif; font-size: 14px; fill: rgb(42, 63, 95); opacity: 1; font-weight: normal; white-space: pre;">Day</text></g><g class="g-ytitle"><text class="ytitle" transform="rotate(-90,31.356250000000003,260)" x="31.356250000000003" y="260" text-anchor="middle" style="font-family: 'Open Sans', verdana, arial, sans-serif; font-size: 14px; fill: rgb(42, 63, 95); opacity: 1; font-weight: normal; white-space: pre;">Cumulative Net Flows (USD)</text></g></g></svg>