<svg class="main-svg" xmlns="http://www.w3.org/2000/svg" xmlns:xlink="http://www.w3.org/1999/xlink" width="700" height="500" style="" viewBox="0 0 700 500"><rect x="0" y="0" width="700" height="500" style="fill: rgb(255, 255, 255); fill-opacity: 1;"/><defs id="defs-1540ed"><g class="clips"><clipPath id="clip1540edxyplot" class="plotclip"><rect width="540" height="320"/></clipPath><clipPath class="axesclip" id="clip1540edx"><rect x="80" y="0" width="540" height="500"/></clipPath><clipPath class="axesclip" id="clip1540edy"><rect x="0" y="100" width="700" height="320"/></clipPath><clipPath class="axesclip" id="clip1540edxy"><rect x="80" y="100" width="540" height="320"/></clipPath></g><g class="gradients"/><g class="patterns"/></defs><g class="bglayer"><rect class="bg" x="80" y="100" width="540" height="320" style="fill: rgb(229, 236, 246); fill-opacity: 1; stroke-width: 0;"/></g><g class="layer-below"><g class="imagelayer"/><g class="shapelayer"/></g><g class="cartesianlayer"><g class="subplot xy"><g class="layer-subplot"><g class="shapelayer"/><g class="imagelayer"/></g><g class="minor-gridlayer"><g class="x"/><g class="y"/></g><g class="gridlayer"><g class="x"><path class="xgrid crisp" transform="translate(125.31,0)" d="M0,100v320" style="stroke: rgb(255, 255, 255); stroke-opacity: 1; stroke-width: 1px;"/><path class="xgrid crisp" transform="translate(240.49,0)" d="M0,100v320" style="stroke: rgb(255, 255, 255); stroke-opacity: 1; stroke-width: 1px;"/><path class="xgrid crisp" transform="translate(357.55,0)" d="M0,100v320" style="stroke: rgb(255, 255, 255); stroke-opacity: 1; stroke-width: 1px;"/><path class="xgrid crisp" transform="translate(472.73,0)" d="M0,100v320" style="stroke: rgb(255, 255, 255); stroke-opacity: 1; stroke-width: 1px;"/><path class="xgrid crisp" transform="translate(587.9,0)" d="M0,100v320" style="stroke: rgb(255, 255, 255); stroke-opacity: 1; stroke-width: 1px;"/></g><g class="y"><path class="ygrid crisp" transform="translate(0,377.43)" d="M80,0h540" style="stroke: rgb(255, 255, 255); stroke-opacity: 1; stroke-width: 1px;"/><path class="ygrid crisp" transform="translate(0,334.86)" d="M80,0h540" style="stroke: rgb(255, 255, 255); stroke-opacity: 1; stroke-width: 1px;"/><path class="ygrid crisp" transform="translate(0,292.3)" d="M80,0h540" style="stroke: rgb(255, 255, 255); stroke-opacity: 1; stroke-width: 1px;"/><path class="ygrid crisp" transform="translate(0,249.73)" d="M80,0h540" style="stroke: rgb(255, 255, 255); stroke-opacity: 1; stroke-width: 1px;"/><path class="ygrid crisp" transform="translate(0,207.16)" d="M80,0h540" style="stroke: rgb(255, 255, 255); stroke-opacity: 1; stroke-width: 1px;"/><path class="ygrid crisp" transform="translate(0,164.59)" d="M80,0h540" style="stroke: rgb(255, 255, 255); stroke-opacity: 1; stroke-width: 1px;"/><path class="ygrid crisp" transform="translate(0,122.03)" d="M80,0h540" style="stroke: rgb(255, 255, 255); stroke-opacity: 1; stroke-width: 1px;"/></g></g><g class="zerolinelayer"><path class="yzl zl crisp" transform="translate(0,420)" d="M80,0h540" style="stroke: rgb(255, 255, 255); stroke-opacity: 1; stroke-width: 2px;"/></g><path class="xlines-below"/><path class="ylines-below"/><g class="overlines-below"/><g class="xaxislayer-below"/><g class="yaxislayer-below"/><g class="overaxes-below"/><g class="plot" transform="translate(80,100)" clip-path="url(#clip1540edxyplot)"><g class="scatterlayer mlayer"><g class="trace scatter traceae6a40" style="stroke-miterlimit: 2;"><g class="fills"><g><path class="js-fill" d="M540,320L0,320L0,95.43L1.89,101.64L3.78,116.78L5.66,123.05L7.55,132.86L9.44,133.16L11.33,129.88L13.22,117.59L15.1,117.51L16.99,88.18L18.88,86.98L20.77,77.88L22.66,77.55L24.55,65.94L26.43,59.07L28.32,48.16L30.21,49.35L35.87,48.65L37.76,46.99L39.65,47.97L41.54,69L49.09,69.02L50.98,21.87L52.87,16.99L54.76,16.87L56.64,17.38L58.53,20.73L60.42,28.88L62.31,29.04L64.2,29.17L66.08,26.22L67.97,31.06L69.86,31.11L71.75,29.45L73.64,29.52L75.52,30.83L77.41,21.95L79.3,20.81L81.19,20.84L88.74,20.76L90.63,16.99L92.52,16.11L94.41,16.1L98.18,16.18L100.07,16L101.96,39.23L103.85,39.23L105.73,38.83L107.62,39.58L111.4,39.26L113.29,25.69L115.17,29.29L117.06,45.95L118.95,46.35L120.84,65.37L122.73,70.08L124.62,70.62L126.5,70.57L128.39,72.55L139.72,73.34L141.61,68.06L143.5,126.65L145.38,128.95L147.27,128.92L149.16,127.6L151.05,129.01L152.94,140.97L154.83,142.77L156.71,220.07L158.6,235.76L160.49,271.52L166.15,274.51L168.04,275.26L169.93,275.59L171.82,277.12L173.71,277.44L175.59,303.32L181.26,304.21L183.15,306.15L186.92,307.24L188.81,307.37L198.25,307.88L200.14,309.17L205.8,309.18L207.69,310.08L232.24,311.84L234.13,311.84L264.34,311.96L266.22,314.65L268.11,312L270,312.04L303.99,312.53L305.87,314.6L309.65,312.5L311.54,312.5L319.09,312.52L320.98,314.53L322.87,312.5L324.76,312.5L326.64,314.51L328.53,312.51L354.97,312.54L356.85,314.43L360.63,312.47L362.52,314.43L364.41,312.46L366.29,312.46L370.07,312.46L371.96,314.46L373.85,312.32L375.73,312.32L381.4,312.44L383.29,314.57L385.17,312.63L387.06,312.63L388.95,314.6L390.84,312.66L398.39,312.68L400.28,314.63L402.17,312.59L404.06,314.63L405.94,312.58L407.83,312.58L417.27,313.01L419.16,314.72L421.05,313.01L422.94,313.95L436.15,314.23L438.04,314.72L441.82,314.23L443.71,314.25L540,314.13" style="fill: rgb(99, 110, 250); fill-opacity: 0.5; stroke-width: 0;"/></g></g><g class="errorbars"/><g class="lines"><path class="js-line" d="M0,95.43L1.89,101.64L3.78,116.78L5.66,123.05L7.55,132.86L9.44,133.16L11.33,129.88L13.22,117.59L15.1,117.51L16.99,88.18L18.88,86.98L20.77,77.88L22.66,77.55L24.55,65.94L26.43,59.07L28.32,48.16L30.21,49.35L35.87,48.65L37.76,46.99L39.65,47.97L41.54,69L49.09,69.02L50.98,21.87L52.87,16.99L54.76,16.87L56.64,17.38L58.53,20.73L60.42,28.88L62.31,29.04L64.2,29.17L66.08,26.22L67.97,31.06L69.86,31.11L71.75,29.45L73.64,29.52L75.52,30.83L77.41,21.95L79.3,20.81L81.19,20.84L88.74,20.76L90.63,16.99L92.52,16.11L94.41,16.1L98.18,16.18L100.07,16L101.96,39.23L103.85,39.23L105.73,38.83L107.62,39.58L111.4,39.26L113.29,25.69L115.17,29.29L117.06,45.95L118.95,46.35L120.84,65.37L122.73,70.08L124.62,70.62L126.5,70.57L128.39,72.55L139.72,73.34L141.61,68.06L143.5,126.65L145.38,128.95L147.27,128.92L149.16,127.6L151.05,129.01L152.94,140.97L154.83,142.77L156.71,220.07L158.6,235.76L160.49,271.52L166.15,274.51L168.04,275.26L169.93,275.59L171.82,277.12L173.71,277.44L175.59,303.32L181.26,304.21L183.15,306.15L186.92,307.24L188.81,307.37L198.25,307.88L200.14,309.17L205.8,309.18L207.69,310.08L232.24,311.84L234.13,311.84L264.34,311.96L266.22,314.65L268.11,312L270,312.04L303.99,312.53L305.87,314.6L309.65,312.5L311.54,312.5L319.09,312.52L320.98,314.53L322.87,312.5L324.76,312.5L326.64,314.51L328.53,312.51L354.97,312.54L356.85,314.43L360.63,312.47L362.52,314.43L364.41,312.46L366.29,312.46L370.07,312.46L371.96,314.46L373.85,312.32L375.73,312.32L381.4,312.44L383.29,314.57L385.17,312.63L387.06,312.63L388.95,314.6L390.84,312.66L398.39,312.68L400.28,314.63L402.17,312.59L404.06,314.63L405.94,312.58L407.83,312.58L417.27,313.01L419.16,314.72L421.05,313.01L422.94,313.95L436.15,314.23L438.04,314.72L441.82,314.23L443.71,314.25L540,314.13" style="vector-effect: none; fill: none; stroke: rgb(99, 110, 250); stroke-opacity: 1; stroke-width: 2px; opacity: 1;"/></g><g class="points"/><g class="text"/></g></g></g><g class="overplot"/><path class="xlines-above crisp" d="M0,0" style="fill: none;"/><path class="ylines-above crisp" d="M0,0" style="fill: none;"/><g class="overlines-above"/><g class="xaxislayer-above"><g class="xtick"><text text-anchor="middle" x="0" y="433" transform="translate(125.31,0)" style="font-family: 'Open Sans', verdana, arial, sans-serif; font-size: 12px; fill: rgb(42, 63, 95); fill-opacity: 1; white-space: pre; opacity: 1;">May 2023</text></g><g class="xtick"><text text-anchor="middle" x="0" y="433" style="font-family: 'Open Sans', verdana, arial, sans-serif; font-size: 12px; fill: rgb(42, 63, 95); fill-opacity: 1; white-space: pre; opacity: 1;" transform="translate(240.49,0)">Jul 2023</text></g><g class="xtick"><text text-anchor="middle" x="0" y="433" style="font-family: 'Open Sans', verdana, arial, sans-serif; font-size: 12px; fill: rgb(42, 63, 95); fill-opacity: 1; white-space: pre; opacity: 1;" transform="translate(357.55,0)">Sep 2023</text></g><g class="xtick"><text text-anchor="middle" x="0" y="433" style="font-family: 'Open Sans', verdana, arial, sans-serif; font-size: 12px; fill: rgb(42, 63, 95); fill-opacity: 1; white-space: pre; opacity: 1;" transform="translate(472.73,0)">Nov 2023</text></g><g class="xtick"><text text-anchor="middle" x="0" y="433" style="font-family: 'Open Sans', verdana, arial, sans-serif; font-size: 12px; fill: rgb(42, 63, 95); fill-opacity: 1; white-space: pre; opacity: 1;" transform="translate(587.9,0)">Jan 2024</text></g></g><g class="yaxislayer-above"><g class="ytick"><text text-anchor="end" x="79" y="4.199999999999999" transform="translate(0,420)" style="font-family: 'Open Sans', verdana, arial, sans-serif; font-size: 12px; fill: rgb(42, 63, 95); fill-opacity: 1; white-space: pre; opacity: 1;">$0</text></g><g class="ytick"><text text-anchor="end" x="79" y="4.199999999999999" style="font-family: 'Open Sans', verdana, arial, sans-serif; font-size: 12px; fill: rgb(42, 63, 95); fill-opacity: 1; white-space: pre; opacity: 1;" transform="translate(0,377.43)">$2M</text></g><g class="ytick"><text text-anchor="end" x="79" y="4.199999999999999" style="font-family: 'Open Sans', verdana, arial, sans-serif; font-size: 12px; fill: rgb(42, 63, 95); fill-opacity: 1; white-space: pre; opacity: 1;" transform="translate(0,334.86)">$4M</text></g><g class="ytick"><text text-anchor="end" x="79" y="4.199999999999999" style="font-family: 'Open Sans', verdana, arial, sans-serif; font-size: 12px; fill: rgb(42, 63, 95); fill-opacity: 1; white-space: pre; opacity: 1;" transform="translate(0,292.3)">$6M</text></g><g class="ytick"><text text-anchor="end" x="79" y="4.199999999999999" style="font-family: 'Open Sans', verdana, arial, sans-serif; font-size: 12px; fill: rgb(42, 63, 95); fill-opacity: 1; white-space: pre; opacity: 1;" transform="translate(0,249.73)">$8M</text></g><g class="ytick"><text text-anchor="end" x="79" y="4.199999999999999" style="font-family: 'Open Sans', verdana, arial, sans-serif; font-size: 12px; fill: rgb(42, 63, 95); fill-opacity: 1; white-space: pre; opacity: 1;" transform="translate(0,207.16)">$10M</text></g><g class="ytick"><text text-anchor="end" x="79" y="4.199999999999999" style="font-family: 'Open Sans', verdana, arial, sans-serif; font-size: 12px; fill: rgb(42, 63, 95); fill-opacity: 1; white-space: pre; opacity: 1;" transform="translate(0,164.59)">$12M</text></g><g class="ytick"><text text-anchor="end" x="79" y="4.199999999999999" style="font-family: 'Open Sans', verdana, arial, sans-serif; font-size: 12px; fill: rgb(42, 63, 95); fill-opacity: 1; white-space: pre; opacity: 1;" transform="translate(0,122.03)">$14M</text></g></g><g class="overaxes-above"/></g></g><g class="polarlayer"/><g class="smithlayer"/><g class="ternarylayer"/><g class="geolayer"/><g class="funnelarealayer"/><g class="pielayer"/><g class="iciclelayer"/><g class="treemaplayer"/><g class="sunburstlayer"/><g class="glimages"/><defs id="topdefs-1540ed"><g class="clips"/></defs><g class="layer-above"><g class="imagelayer"/><g class="shapelayer"/></g><g class="infolayer"><g class="g-gtitle"><text class="gtitle" x="35" y="50" text-anchor="start" dy="0em" style="font-family: 'Open Sans', verdana, arial, sans-serif; font-size: 17px; fill: rgb(42, 63, 95); opacity: 1; font-weight: normal; white-space: pre;"><tspan class="line" dy="0em" x="35" y="50">Lido - wstETH/WETH: Velodrome</tspan><tspan class="line" dy="1.3em" x="35" y="50">​<tspan style="font-size:70%" dy="-0.6em">Cumulative Net Flows since Program Announcement, Until Program End + 30 Days</tspan><tspan dy="0.42em">​</tspan></tspan></text></g><g class="g-xtitle"><text class="xtitle" x="350" y="460.3" text-anchor="middle" style="font-family: 'Open Sans', verdana, arial, sans-serif; font-size: 14px; fill: rgb(42, 63, 95); opacity: 1; font-weight: normal; white-space: pre;">Day</text></g><g class="g-ytitle"><text class="ytitle" transform="rotate(-90,24.668750000000003,260)" x="24.668750000000003" y="260" text-anchor="middle" style="font-family: 'Open Sans', verdana, arial, sans-serif; font-size: 14px; fill: rgb(42, 63, 95); opacity: 1; font-weight: normal; white-space: pre;">Cumulative Net Flows (USD)</text></g></g></svg>