<svg class="main-svg" xmlns="http://www.w3.org/2000/svg" xmlns:xlink="http://www.w3.org/1999/xlink" width="700" height="500" style="" viewBox="0 0 700 500"><rect x="0" y="0" width="700" height="500" style="fill: rgb(255, 255, 255); fill-opacity: 1;"/><defs id="defs-d08b47"><g class="clips"><clipPath id="clipd08b47xyplot" class="plotclip"><rect width="540" height="320"/></clipPath><clipPath class="axesclip" id="clipd08b47x"><rect x="80" y="0" width="540" height="500"/></clipPath><clipPath class="axesclip" id="clipd08b47y"><rect x="0" y="100" width="700" height="320"/></clipPath><clipPath class="axesclip" id="clipd08b47xy"><rect x="80" y="100" width="540" height="320"/></clipPath></g><g class="gradients"/><g class="patterns"/></defs><g class="bglayer"><rect class="bg" x="80" y="100" width="540" height="320" style="fill: rgb(229, 236, 246); fill-opacity: 1; stroke-width: 0;"/></g><g class="layer-below"><g class="imagelayer"/><g class="shapelayer"/></g><g class="cartesianlayer"><g class="subplot xy"><g class="layer-subplot"><g class="shapelayer"/><g class="imagelayer"/></g><g class="minor-gridlayer"><g class="x"/><g class="y"/></g><g class="gridlayer"><g class="x"><path class="xgrid crisp" transform="translate(90.19,0)" d="M0,100v320" style="stroke: rgb(255, 255, 255); stroke-opacity: 1; stroke-width: 1px;"/><path class="xgrid crisp" transform="translate(169.15,0)" d="M0,100v320" style="stroke: rgb(255, 255, 255); stroke-opacity: 1; stroke-width: 1px;"/><path class="xgrid crisp" transform="translate(245.57,0)" d="M0,100v320" style="stroke: rgb(255, 255, 255); stroke-opacity: 1; stroke-width: 1px;"/><path class="xgrid crisp" transform="translate(324.53,0)" d="M0,100v320" style="stroke: rgb(255, 255, 255); stroke-opacity: 1; stroke-width: 1px;"/><path class="xgrid crisp" transform="translate(403.49,0)" d="M0,100v320" style="stroke: rgb(255, 255, 255); stroke-opacity: 1; stroke-width: 1px;"/><path class="xgrid crisp" transform="translate(474.81,0)" d="M0,100v320" style="stroke: rgb(255, 255, 255); stroke-opacity: 1; stroke-width: 1px;"/><path class="xgrid crisp" transform="translate(553.77,0)" d="M0,100v320" style="stroke: rgb(255, 255, 255); stroke-opacity: 1; stroke-width: 1px;"/></g><g class="y"><path class="ygrid crisp" transform="translate(0,354.76)" d="M80,0h540" style="stroke: rgb(255, 255, 255); stroke-opacity: 1; stroke-width: 1px;"/><path class="ygrid crisp" transform="translate(0,311.3)" d="M80,0h540" style="stroke: rgb(255, 255, 255); stroke-opacity: 1; stroke-width: 1px;"/><path class="ygrid crisp" transform="translate(0,267.85)" d="M80,0h540" style="stroke: rgb(255, 255, 255); stroke-opacity: 1; stroke-width: 1px;"/><path class="ygrid crisp" transform="translate(0,224.39)" d="M80,0h540" style="stroke: rgb(255, 255, 255); stroke-opacity: 1; stroke-width: 1px;"/><path class="ygrid crisp" transform="translate(0,180.93)" d="M80,0h540" style="stroke: rgb(255, 255, 255); stroke-opacity: 1; stroke-width: 1px;"/><path class="ygrid crisp" transform="translate(0,137.48)" d="M80,0h540" style="stroke: rgb(255, 255, 255); stroke-opacity: 1; stroke-width: 1px;"/></g></g><g class="zerolinelayer"><path class="yzl zl crisp" transform="translate(0,398.22)" d="M80,0h540" style="stroke: rgb(255, 255, 255); stroke-opacity: 1; stroke-width: 2px;"/></g><path class="xlines-below"/><path class="ylines-below"/><g class="overlines-below"/><g class="xaxislayer-below"/><g class="yaxislayer-below"/><g class="overaxes-below"/><g class="plot" transform="translate(80,100)" clip-path="url(#clipd08b47xyplot)"><g class="scatterlayer mlayer"><g class="trace scatter trace82ca9d" style="stroke-miterlimit: 2;"><g class="fills"><g><path class="js-fill" d="M540,298.22L0,298.22L0,256L2.55,255.15L5.09,247.88L10.19,246.99L12.74,243.88L15.28,243.25L17.83,241.14L20.38,234.42L22.92,236.86L25.47,235.1L28.02,234.52L30.57,234.8L33.11,234.12L35.66,236.77L38.21,237.93L40.75,240.36L43.3,238.86L48.4,238.68L50.94,237.07L68.77,236.9L71.32,238.03L84.06,235.27L86.6,234.95L91.7,233.39L94.25,229.94L99.34,229L101.89,227.31L104.43,223.2L106.98,223.69L109.53,223.81L112.08,226.22L114.62,228.36L117.17,231.94L119.72,234.75L122.26,234.57L127.36,235.23L129.91,229.87L132.45,231.68L135,231.83L142.64,228.79L145.19,229.28L147.74,229.27L150.28,228.23L155.38,227.69L157.92,227.18L160.47,227.62L163.02,226.58L170.66,226.41L173.21,226.22L175.75,226.3L178.3,230.56L180.85,231.38L183.4,230.93L191.04,228.98L193.58,224.52L196.13,221.25L198.68,220.89L201.23,228.3L203.77,228.2L208.87,228.23L211.42,227.36L213.96,226.13L216.51,226L221.6,224.96L224.15,225.03L231.79,224.55L234.34,225.68L249.62,225.59L252.17,226.62L257.26,226.38L259.81,226.38L267.45,226.34L270,224.78L272.55,223.89L275.09,221.9L280.19,221.06L282.74,219.97L287.83,214.13L290.38,212.15L292.92,211.35L295.47,203.52L298.02,200.64L300.57,199.69L303.11,191.2L305.66,185.81L308.21,178.09L310.75,177.84L315.85,173.05L318.4,172.54L320.94,173.02L323.49,171.58L328.58,169.89L331.13,171L333.68,170.53L336.23,168.07L338.77,150.86L341.32,141.99L351.51,140.87L354.06,140.97L359.15,132.72L361.7,121.53L364.25,119.4L366.79,122.13L371.89,113.88L374.43,83.03L376.98,80.3L379.53,80.4L382.08,62.24L384.62,57.48L387.17,34.4L389.72,27.24L392.26,27.29L394.81,26.55L397.36,25.24L399.91,27.25L402.45,27.9L405,29.95L407.55,34.72L410.09,25.79L412.64,16L415.19,18.01L417.74,21.95L420.28,59.38L422.83,66.37L425.38,56.53L427.92,51.44L430.47,54.2L433.02,60.08L435.57,60.09L438.11,56.8L440.66,58.67L443.21,55.49L445.75,58.6L448.3,57L450.85,65.65L453.4,67.26L455.94,70.07L461.04,77.16L463.58,77.64L466.13,77.83L468.68,93.02L471.23,180.87L473.77,182.85L476.32,196.44L478.87,205.88L481.42,210.22L483.96,216.57L486.51,227.77L489.06,232.46L494.15,236.77L496.7,242.22L499.25,250.72L501.79,256.54L506.89,282.36L509.43,283.8L511.98,286.62L514.53,285.99L519.62,290.95L522.17,299.05L524.72,300.47L527.26,300.71L532.36,301.48L534.91,303.99L540,304" style="fill: rgb(99, 110, 250); fill-opacity: 0.5; stroke-width: 0;"/></g></g><g class="errorbars"/><g class="lines"><path class="js-line" d="M0,256L2.55,255.15L5.09,247.88L10.19,246.99L12.74,243.88L15.28,243.25L17.83,241.14L20.38,234.42L22.92,236.86L25.47,235.1L28.02,234.52L30.57,234.8L33.11,234.12L35.66,236.77L38.21,237.93L40.75,240.36L43.3,238.86L48.4,238.68L50.94,237.07L68.77,236.9L71.32,238.03L84.06,235.27L86.6,234.95L91.7,233.39L94.25,229.94L99.34,229L101.89,227.31L104.43,223.2L106.98,223.69L109.53,223.81L112.08,226.22L114.62,228.36L117.17,231.94L119.72,234.75L122.26,234.57L127.36,235.23L129.91,229.87L132.45,231.68L135,231.83L142.64,228.79L145.19,229.28L147.74,229.27L150.28,228.23L155.38,227.69L157.92,227.18L160.47,227.62L163.02,226.58L170.66,226.41L173.21,226.22L175.75,226.3L178.3,230.56L180.85,231.38L183.4,230.93L191.04,228.98L193.58,224.52L196.13,221.25L198.68,220.89L201.23,228.3L203.77,228.2L208.87,228.23L211.42,227.36L213.96,226.13L216.51,226L221.6,224.96L224.15,225.03L231.79,224.55L234.34,225.68L249.62,225.59L252.17,226.62L257.26,226.38L259.81,226.38L267.45,226.34L270,224.78L272.55,223.89L275.09,221.9L280.19,221.06L282.74,219.97L287.83,214.13L290.38,212.15L292.92,211.35L295.47,203.52L298.02,200.64L300.57,199.69L303.11,191.2L305.66,185.81L308.21,178.09L310.75,177.84L315.85,173.05L318.4,172.54L320.94,173.02L323.49,171.58L328.58,169.89L331.13,171L333.68,170.53L336.23,168.07L338.77,150.86L341.32,141.99L351.51,140.87L354.06,140.97L359.15,132.72L361.7,121.53L364.25,119.4L366.79,122.13L371.89,113.88L374.43,83.03L376.98,80.3L379.53,80.4L382.08,62.24L384.62,57.48L387.17,34.4L389.72,27.24L392.26,27.29L394.81,26.55L397.36,25.24L399.91,27.25L402.45,27.9L405,29.95L407.55,34.72L410.09,25.79L412.64,16L415.19,18.01L417.74,21.95L420.28,59.38L422.83,66.37L425.38,56.53L427.92,51.44L430.47,54.2L433.02,60.08L435.57,60.09L438.11,56.8L440.66,58.67L443.21,55.49L445.75,58.6L448.3,57L450.85,65.65L453.4,67.26L455.94,70.07L461.04,77.16L463.58,77.64L466.13,77.83L468.68,93.02L471.23,180.87L473.77,182.85L476.32,196.44L478.87,205.88L481.42,210.22L483.96,216.57L486.51,227.77L489.06,232.46L494.15,236.77L496.7,242.22L499.25,250.72L501.79,256.54L506.89,282.36L509.43,283.8L511.98,286.62L514.53,285.99L519.62,290.95L522.17,299.05L524.72,300.47L527.26,300.71L532.36,301.48L534.91,303.99L540,304" style="vector-effect: none; fill: none; stroke: rgb(99, 110, 250); stroke-opacity: 1; stroke-width: 2px; opacity: 1;"/></g><g class="points"/><g class="text"/></g></g></g><g class="overplot"/><path class="xlines-above crisp" d="M0,0" style="fill: none;"/><path class="ylines-above crisp" d="M0,0" style="fill: none;"/><g class="overlines-above"/><g class="xaxislayer-above"><g class="xtick"><text text-anchor="middle" x="0" y="433" transform="translate(90.19,0)" style="font-family: 'Open Sans', verdana, arial, sans-serif; font-size: 12px; fill: rgb(42, 63, 95); fill-opacity: 1; white-space: pre; opacity: 1;">Oct 2022</text></g><g class="xtick"><text text-anchor="middle" x="0" y="433" style="font-family: 'Open Sans', verdana, arial, sans-serif; font-size: 12px; fill: rgb(42, 63, 95); fill-opacity: 1; white-space: pre; opacity: 1;" transform="translate(169.15,0)">Nov 2022</text></g><g class="xtick"><text text-anchor="middle" x="0" y="433" style="font-family: 'Open Sans', verdana, arial, sans-serif; font-size: 12px; fill: rgb(42, 63, 95); fill-opacity: 1; white-space: pre; opacity: 1;" transform="translate(245.57,0)">Dec 2022</text></g><g class="xtick"><text text-anchor="middle" x="0" y="433" style="font-family: 'Open Sans', verdana, arial, sans-serif; font-size: 12px; fill: rgb(42, 63, 95); fill-opacity: 1; white-space: pre; opacity: 1;" transform="translate(324.53,0)">Jan 2023</text></g><g class="xtick"><text text-anchor="middle" x="0" y="433" style="font-family: 'Open Sans', verdana, arial, sans-serif; font-size: 12px; fill: rgb(42, 63, 95); fill-opacity: 1; white-space: pre; opacity: 1;" transform="translate(403.49,0)">Feb 2023</text></g><g class="xtick"><text text-anchor="middle" x="0" y="433" style="font-family: 'Open Sans', verdana, arial, sans-serif; font-size: 12px; fill: rgb(42, 63, 95); fill-opacity: 1; white-space: pre; opacity: 1;" transform="translate(474.81,0)">Mar 2023</text></g><g class="xtick"><text text-anchor="middle" x="0" y="433" style="font-family: 'Open Sans', verdana, arial, sans-serif; font-size: 12px; fill: rgb(42, 63, 95); fill-opacity: 1; white-space: pre; opacity: 1;" transform="translate(553.77,0)">Apr 2023</text></g></g><g class="yaxislayer-above"><g class="ytick"><text text-anchor="end" x="79" y="4.199999999999999" transform="translate(0,398.22)" style="font-family: 'Open Sans', verdana, arial, sans-serif; font-size: 12px; fill: rgb(42, 63, 95); fill-opacity: 1; white-space: pre; opacity: 1;">$0</text></g><g class="ytick"><text text-anchor="end" x="79" y="4.199999999999999" style="font-family: 'Open Sans', verdana, arial, sans-serif; font-size: 12px; fill: rgb(42, 63, 95); fill-opacity: 1; white-space: pre; opacity: 1;" transform="translate(0,354.76)">$5M</text></g><g class="ytick"><text text-anchor="end" x="79" y="4.199999999999999" style="font-family: 'Open Sans', verdana, arial, sans-serif; font-size: 12px; fill: rgb(42, 63, 95); fill-opacity: 1; white-space: pre; opacity: 1;" transform="translate(0,311.3)">$10M</text></g><g class="ytick"><text text-anchor="end" x="79" y="4.199999999999999" style="font-family: 'Open Sans', verdana, arial, sans-serif; font-size: 12px; fill: rgb(42, 63, 95); fill-opacity: 1; white-space: pre; opacity: 1;" transform="translate(0,267.85)">$15M</text></g><g class="ytick"><text text-anchor="end" x="79" y="4.199999999999999" style="font-family: 'Open Sans', verdana, arial, sans-serif; font-size: 12px; fill: rgb(42, 63, 95); fill-opacity: 1; white-space: pre; opacity: 1;" transform="translate(0,224.39)">$20M</text></g><g class="ytick"><text text-anchor="end" x="79" y="4.199999999999999" style="font-family: 'Open Sans', verdana, arial, sans-serif; font-size: 12px; fill: rgb(42, 63, 95); fill-opacity: 1; white-space: pre; opacity: 1;" transform="translate(0,180.93)">$25M</text></g><g class="ytick"><text text-anchor="end" x="79" y="4.199999999999999" style="font-family: 'Open Sans', verdana, arial, sans-serif; font-size: 12px; fill: rgb(42, 63, 95); fill-opacity: 1; white-space: pre; opacity: 1;" transform="translate(0,137.48)">$30M</text></g></g><g class="overaxes-above"/></g></g><g class="polarlayer"/><g class="smithlayer"/><g class="ternarylayer"/><g class="geolayer"/><g class="funnelarealayer"/><g class="pielayer"/><g class="iciclelayer"/><g class="treemaplayer"/><g class="sunburstlayer"/><g class="glimages"/><defs id="topdefs-d08b47"><g class="clips"/></defs><g class="layer-above"><g class="imagelayer"/><g class="shapelayer"/></g><g class="infolayer"><g class="g-gtitle"><text class="gtitle" x="35" y="50" text-anchor="start" dy="0em" style="font-family: 'Open Sans', verdana, arial, sans-serif; font-size: 17px; fill: rgb(42, 63, 95); opacity: 1; font-weight: normal; white-space: pre;"><tspan class="line" dy="0em" x="35" y="50">Synthetix - ETH/sETH: Velodrome</tspan><tspan class="line" dy="1.3em" x="35" y="50">​<tspan style="font-size:70%" dy="-0.6em">Cumulative Net Flows since Program Announcement, Until Program End + 30 Days</tspan><tspan dy="0.42em">​</tspan></tspan></text></g><g class="g-xtitle"><text class="xtitle" x="350" y="460.3" text-anchor="middle" style="font-family: 'Open Sans', verdana, arial, sans-serif; font-size: 14px; fill: rgb(42, 63, 95); opacity: 1; font-weight: normal; white-space: pre;">Day</text></g><g class="g-ytitle"><text class="ytitle" transform="rotate(-90,24.668750000000003,260)" x="24.668750000000003" y="260" text-anchor="middle" style="font-family: 'Open Sans', verdana, arial, sans-serif; font-size: 14px; fill: rgb(42, 63, 95); opacity: 1; font-weight: normal; white-space: pre;">Cumulative Net Flows (USD)</text></g></g></svg>