<svg class="main-svg" xmlns="http://www.w3.org/2000/svg" xmlns:xlink="http://www.w3.org/1999/xlink" width="700" height="500" style="" viewBox="0 0 700 500"><rect x="0" y="0" width="700" height="500" style="fill: rgb(255, 255, 255); fill-opacity: 1;"/><defs id="defs-d468b1"><g class="clips"><clipPath id="clipd468b1xyplot" class="plotclip"><rect width="540" height="320"/></clipPath><clipPath class="axesclip" id="clipd468b1x"><rect x="80" y="0" width="540" height="500"/></clipPath><clipPath class="axesclip" id="clipd468b1y"><rect x="0" y="100" width="700" height="320"/></clipPath><clipPath class="axesclip" id="clipd468b1xy"><rect x="80" y="100" width="540" height="320"/></clipPath></g><g class="gradients"/><g class="patterns"/></defs><g class="bglayer"><rect class="bg" x="80" y="100" width="540" height="320" style="fill: rgb(229, 236, 246); fill-opacity: 1; stroke-width: 0;"/></g><g class="layer-below"><g class="imagelayer"/><g class="shapelayer"/></g><g class="cartesianlayer"><g class="subplot xy"><g class="layer-subplot"><g class="shapelayer"/><g class="imagelayer"/></g><g class="minor-gridlayer"><g class="x"/><g class="y"/></g><g class="gridlayer"><g class="x"><path class="xgrid crisp" transform="translate(114.53,0)" d="M0,100v320" style="stroke: rgb(255, 255, 255); stroke-opacity: 1; stroke-width: 1px;"/><path class="xgrid crisp" transform="translate(210.81,0)" d="M0,100v320" style="stroke: rgb(255, 255, 255); stroke-opacity: 1; stroke-width: 1px;"/><path class="xgrid crisp" transform="translate(305,0)" d="M0,100v320" style="stroke: rgb(255, 255, 255); stroke-opacity: 1; stroke-width: 1px;"/><path class="xgrid crisp" transform="translate(400.23,0)" d="M0,100v320" style="stroke: rgb(255, 255, 255); stroke-opacity: 1; stroke-width: 1px;"/><path class="xgrid crisp" transform="translate(496.51,0)" d="M0,100v320" style="stroke: rgb(255, 255, 255); stroke-opacity: 1; stroke-width: 1px;"/><path class="xgrid crisp" transform="translate(592.79,0)" d="M0,100v320" style="stroke: rgb(255, 255, 255); stroke-opacity: 1; stroke-width: 1px;"/></g><g class="y"><path class="ygrid crisp" transform="translate(0,362.94)" d="M80,0h540" style="stroke: rgb(255, 255, 255); stroke-opacity: 1; stroke-width: 1px;"/><path class="ygrid crisp" transform="translate(0,323.14)" d="M80,0h540" style="stroke: rgb(255, 255, 255); stroke-opacity: 1; stroke-width: 1px;"/><path class="ygrid crisp" transform="translate(0,283.33000000000004)" d="M80,0h540" style="stroke: rgb(255, 255, 255); stroke-opacity: 1; stroke-width: 1px;"/><path class="ygrid crisp" transform="translate(0,243.52)" d="M80,0h540" style="stroke: rgb(255, 255, 255); stroke-opacity: 1; stroke-width: 1px;"/><path class="ygrid crisp" transform="translate(0,203.72)" d="M80,0h540" style="stroke: rgb(255, 255, 255); stroke-opacity: 1; stroke-width: 1px;"/><path class="ygrid crisp" transform="translate(0,163.91)" d="M80,0h540" style="stroke: rgb(255, 255, 255); stroke-opacity: 1; stroke-width: 1px;"/><path class="ygrid crisp" transform="translate(0,124.1)" d="M80,0h540" style="stroke: rgb(255, 255, 255); stroke-opacity: 1; stroke-width: 1px;"/></g></g><g class="zerolinelayer"><path class="yzl zl crisp" transform="translate(0,402.75)" d="M80,0h540" style="stroke: rgb(255, 255, 255); stroke-opacity: 1; stroke-width: 2px;"/></g><path class="xlines-below"/><path class="ylines-below"/><g class="overlines-below"/><g class="xaxislayer-below"/><g class="yaxislayer-below"/><g class="overaxes-below"/><g class="plot" transform="translate(80,100)" clip-path="url(#clipd468b1xyplot)"><g class="scatterlayer mlayer"><g class="trace scatter tracec7c503" style="stroke-miterlimit: 2;"><g class="fills"><g><path class="js-fill" d="M540,302.75L0,302.75L0,302.67L4.19,300.36L5.23,298.49L7.33,297.22L8.37,277.75L11.51,227.8L12.56,224.58L13.6,222.22L14.65,217.72L16.74,198.58L17.79,197.88L18.84,197.72L19.88,178.75L20.93,180.83L21.98,170.21L23.02,171.19L24.07,156.14L26.16,145.34L27.21,129.49L29.3,124.96L30.35,136.17L31.4,144.2L32.44,142.07L33.49,141.8L34.53,138.79L36.63,137.55L37.67,128.93L38.72,133.27L39.77,129.09L40.81,126.02L41.86,126.54L43.95,128.43L45,126.5L46.05,125.2L47.09,127.95L48.14,129.35L49.19,128.51L50.23,125.89L51.28,126.36L53.37,128.19L54.42,127.27L55.47,128.92L56.51,128.99L58.6,129.4L59.65,134.94L61.74,135.35L62.79,129.87L66.98,126L68.02,122.35L69.07,121.31L70.12,123.95L71.16,125.88L72.21,124.56L75.35,120.13L76.4,127.82L77.44,136.78L78.49,135.76L79.53,134.06L80.58,139.77L81.63,146.26L82.67,145.14L83.72,146.44L84.77,149.54L85.81,150.31L86.86,149.66L88.95,148.57L90,146.78L91.05,151.58L92.09,151L93.14,151.21L94.19,150.33L95.23,149.06L96.28,153.87L101.51,152.51L102.56,152.48L103.6,150.72L104.65,154.14L105.7,154.47L106.74,151.81L107.79,153.39L108.84,158.95L109.88,158.94L110.93,155.83L111.98,155.85L113.02,154.41L114.07,151.3L115.12,156.14L116.16,154.32L117.21,154.93L120.35,154.39L121.4,152.98L122.44,174.99L123.49,174.14L125.58,174.43L126.63,175.92L127.67,175.56L128.72,173L130.81,170.82L131.86,173.86L133.95,172.99L135,166.2L137.09,160.65L138.14,159.15L139.19,159.98L140.23,156.29L141.28,151.29L142.33,150.66L143.37,150.14L144.42,140.83L145.47,136.44L146.51,137.69L149.65,137.27L150.7,129.78L151.74,129.88L152.79,123.91L153.84,119.69L154.88,120.06L155.93,119.91L156.98,121.69L159.07,117.73L160.12,117.54L161.16,118.29L162.21,115.04L163.26,120.22L164.3,113.67L167.44,99.27L168.49,101.41L169.53,100.97L170.58,64.66L172.67,62.18L173.72,64.88L174.77,69.49L175.81,70.37L176.86,68L177.91,69.07L178.95,67.22L180,68.89L181.05,68.79L182.09,71.27L183.14,68.58L184.19,84.73L186.28,85.84L187.33,79.29L189.42,68.42L190.47,63.87L192.56,52.22L193.6,61.45L194.65,60.97L195.7,61.74L197.79,60.09L198.84,60.11L199.88,62.52L200.93,54.36L201.98,56.32L203.02,61.41L204.07,91.59L205.12,86.12L206.16,77.76L207.21,41.84L208.26,40.04L209.3,32.96L210.35,32.25L211.4,34.24L212.44,58.42L213.49,57.44L214.53,61.58L215.58,62.18L217.67,65.51L218.72,65.46L219.77,69.38L220.81,70.22L221.86,68.38L222.91,69.31L223.95,69.05L225,80.34L227.09,79.39L228.14,76.53L230.23,76.57L231.28,83.85L232.33,86.01L233.37,86.13L234.42,82.9L235.47,86.29L238.6,84.54L239.65,80.43L240.7,80.45L241.74,79.29L242.79,77.17L243.84,80.42L245.93,80.06L246.98,78.66L248.02,33.92L249.07,33.21L251.16,27.03L252.21,29.59L253.26,28.66L254.3,30.3L256.4,30.5L257.44,29.18L258.49,26.78L259.53,85.86L261.63,83.2L262.67,76.35L263.72,83.81L264.77,84.55L265.81,83.97L266.86,84.48L267.91,77.59L268.95,77.01L270,63.03L271.05,61.78L272.09,65.04L273.14,58.17L274.19,59.45L275.23,59.02L276.28,59.84L277.33,58.08L278.37,57.77L279.42,60.36L280.47,62.4L281.51,62.68L282.56,61.17L283.6,67.7L284.65,64.09L285.7,65.96L286.74,67.47L287.79,70.45L288.84,63.95L289.88,16.29L293.02,16L294.07,16.39L296.16,20.09L297.21,19.2L298.26,22.15L299.3,21.13L301.4,20.12L302.44,21.15L305.58,24.58L306.63,24.16L310.81,29.11L311.86,30.09L312.91,30.55L313.95,29.69L318.14,34.92L319.19,40.34L320.23,39.24L321.28,41.25L322.33,40.27L323.37,42.99L324.42,43.68L325.47,63.85L326.51,80.64L327.56,79.13L328.6,78.07L329.65,219.21L330.7,219.5L331.74,226.06L332.79,180.98L333.84,183.4L335.93,187L336.98,200.83L338.02,200.33L339.07,202.43L341.16,203.12L342.21,200.57L343.26,200.25L344.3,198.32L346.4,200.97L347.44,205.35L348.49,205.27L349.53,208.87L350.58,208.5L351.63,210.1L352.67,216.52L353.72,207.65L354.77,202.65L355.81,201.92L358.95,201L360,193.31L361.05,193.35L362.09,190.89L366.28,191.29L367.33,190.74L369.42,191.14L370.47,193.61L371.51,191.24L372.56,191.25L374.65,190.02L375.7,190.67L376.74,191.87L377.79,190.05L381.98,191.3L383.02,190.8L384.07,190.56L385.12,192.27L387.21,192.41L388.26,192.29L389.3,192.45L390.35,193.45L392.44,191.97L393.49,192.43L396.63,189.85L397.67,190.77L398.72,198.97L399.77,198.59L408.14,198.45L409.19,198.39L410.23,198.05L411.28,199.23L414.42,198.93L415.47,200.43L418.6,200.69L419.65,199.1L420.7,200.2L421.74,200.06L422.79,198.53L423.84,198.64L425.93,198.75L426.98,198.7L428.02,198.63L429.07,200.63L432.21,200.13L433.26,202.84L434.3,203.14L435.35,201.58L436.4,203.49L437.44,202.93L439.53,201.74L440.58,202.38L441.63,205.51L442.67,204.41L445.81,204.87L446.86,206.55L447.91,205.52L448.95,206.52L450,206.98L451.05,205.57L455.23,205.88L456.28,204.53L457.33,207.01L458.37,212.07L460.47,218.54L461.51,221.6L462.56,216.28L463.6,216.58L464.65,216.94L465.7,218.29L466.74,216.86L467.79,216.98L469.88,217.1L470.93,220.2L471.98,220.29L473.02,221.27L474.07,220.97L475.12,222.3L476.16,223.7L477.21,223.51L482.44,226.4L483.49,226.4L485.58,227.56L486.63,230.16L488.72,231.39L489.77,239.25L490.81,239.65L491.86,242.35L492.91,277.16L493.95,278.03L495,283.4L496.05,284.33L498.14,283.9L499.19,284.64L500.23,284.3L501.28,286.46L502.33,286.5L503.37,290.23L508.6,292.45L509.65,292.97L510.7,294.79L511.74,294.49L512.79,294.94L513.84,297.21L516.98,296.74L518.02,297.27L520.12,297.37L521.16,298.32L526.4,299.39L527.44,300.38L531.63,300.82L532.67,302.89L535.81,303.56L536.86,303.67L540,304" style="fill: rgb(99, 110, 250); fill-opacity: 0.5; stroke-width: 0;"/></g></g><g class="errorbars"/><g class="lines"><path class="js-line" d="M0,302.67L4.19,300.36L5.23,298.49L7.33,297.22L8.37,277.75L11.51,227.8L12.56,224.58L13.6,222.22L14.65,217.72L16.74,198.58L17.79,197.88L18.84,197.72L19.88,178.75L20.93,180.83L21.98,170.21L23.02,171.19L24.07,156.14L26.16,145.34L27.21,129.49L29.3,124.96L30.35,136.17L31.4,144.2L32.44,142.07L33.49,141.8L34.53,138.79L36.63,137.55L37.67,128.93L38.72,133.27L39.77,129.09L40.81,126.02L41.86,126.54L43.95,128.43L45,126.5L46.05,125.2L47.09,127.95L48.14,129.35L49.19,128.51L50.23,125.89L51.28,126.36L53.37,128.19L54.42,127.27L55.47,128.92L56.51,128.99L58.6,129.4L59.65,134.94L61.74,135.35L62.79,129.87L66.98,126L68.02,122.35L69.07,121.31L70.12,123.95L71.16,125.88L72.21,124.56L75.35,120.13L76.4,127.82L77.44,136.78L78.49,135.76L79.53,134.06L80.58,139.77L81.63,146.26L82.67,145.14L83.72,146.44L84.77,149.54L85.81,150.31L86.86,149.66L88.95,148.57L90,146.78L91.05,151.58L92.09,151L93.14,151.21L94.19,150.33L95.23,149.06L96.28,153.87L101.51,152.51L102.56,152.48L103.6,150.72L104.65,154.14L105.7,154.47L106.74,151.81L107.79,153.39L108.84,158.95L109.88,158.94L110.93,155.83L111.98,155.85L113.02,154.41L114.07,151.3L115.12,156.14L116.16,154.32L117.21,154.93L120.35,154.39L121.4,152.98L122.44,174.99L123.49,174.14L125.58,174.43L126.63,175.92L127.67,175.56L128.72,173L130.81,170.82L131.86,173.86L133.95,172.99L135,166.2L137.09,160.65L138.14,159.15L139.19,159.98L140.23,156.29L141.28,151.29L142.33,150.66L143.37,150.14L144.42,140.83L145.47,136.44L146.51,137.69L149.65,137.27L150.7,129.78L151.74,129.88L152.79,123.91L153.84,119.69L154.88,120.06L155.93,119.91L156.98,121.69L159.07,117.73L160.12,117.54L161.16,118.29L162.21,115.04L163.26,120.22L164.3,113.67L167.44,99.27L168.49,101.41L169.53,100.97L170.58,64.66L172.67,62.18L173.72,64.88L174.77,69.49L175.81,70.37L176.86,68L177.91,69.07L178.95,67.22L180,68.89L181.05,68.79L182.09,71.27L183.14,68.58L184.19,84.73L186.28,85.84L187.33,79.29L189.42,68.42L190.47,63.87L192.56,52.22L193.6,61.45L194.65,60.97L195.7,61.74L197.79,60.09L198.84,60.11L199.88,62.52L200.93,54.36L201.98,56.32L203.02,61.41L204.07,91.59L205.12,86.12L206.16,77.76L207.21,41.84L208.26,40.04L209.3,32.96L210.35,32.25L211.4,34.24L212.44,58.42L213.49,57.44L214.53,61.58L215.58,62.18L217.67,65.51L218.72,65.46L219.77,69.38L220.81,70.22L221.86,68.38L222.91,69.31L223.95,69.05L225,80.34L227.09,79.39L228.14,76.53L230.23,76.57L231.28,83.85L232.33,86.01L233.37,86.13L234.42,82.9L235.47,86.29L238.6,84.54L239.65,80.43L240.7,80.45L241.74,79.29L242.79,77.17L243.84,80.42L245.93,80.06L246.98,78.66L248.02,33.92L249.07,33.21L251.16,27.03L252.21,29.59L253.26,28.66L254.3,30.3L256.4,30.5L257.44,29.18L258.49,26.78L259.53,85.86L261.63,83.2L262.67,76.35L263.72,83.81L264.77,84.55L265.81,83.97L266.86,84.48L267.91,77.59L268.95,77.01L270,63.03L271.05,61.78L272.09,65.04L273.14,58.17L274.19,59.45L275.23,59.02L276.28,59.84L277.33,58.08L278.37,57.77L279.42,60.36L280.47,62.4L281.51,62.68L282.56,61.17L283.6,67.7L284.65,64.09L285.7,65.96L286.74,67.47L287.79,70.45L288.84,63.95L289.88,16.29L293.02,16L294.07,16.39L296.16,20.09L297.21,19.2L298.26,22.15L299.3,21.13L301.4,20.12L302.44,21.15L305.58,24.58L306.63,24.16L310.81,29.11L311.86,30.09L312.91,30.55L313.95,29.69L318.14,34.92L319.19,40.34L320.23,39.24L321.28,41.25L322.33,40.27L323.37,42.99L324.42,43.68L325.47,63.85L326.51,80.64L327.56,79.13L328.6,78.07L329.65,219.21L330.7,219.5L331.74,226.06L332.79,180.98L333.84,183.4L335.93,187L336.98,200.83L338.02,200.33L339.07,202.43L341.16,203.12L342.21,200.57L343.26,200.25L344.3,198.32L346.4,200.97L347.44,205.35L348.49,205.27L349.53,208.87L350.58,208.5L351.63,210.1L352.67,216.52L353.72,207.65L354.77,202.65L355.81,201.92L358.95,201L360,193.31L361.05,193.35L362.09,190.89L366.28,191.29L367.33,190.74L369.42,191.14L370.47,193.61L371.51,191.24L372.56,191.25L374.65,190.02L375.7,190.67L376.74,191.87L377.79,190.05L381.98,191.3L383.02,190.8L384.07,190.56L385.12,192.27L387.21,192.41L388.26,192.29L389.3,192.45L390.35,193.45L392.44,191.97L393.49,192.43L396.63,189.85L397.67,190.77L398.72,198.97L399.77,198.59L408.14,198.45L409.19,198.39L410.23,198.05L411.28,199.23L414.42,198.93L415.47,200.43L418.6,200.69L419.65,199.1L420.7,200.2L421.74,200.06L422.79,198.53L423.84,198.64L425.93,198.75L426.98,198.7L428.02,198.63L429.07,200.63L432.21,200.13L433.26,202.84L434.3,203.14L435.35,201.58L436.4,203.49L437.44,202.93L439.53,201.74L440.58,202.38L441.63,205.51L442.67,204.41L445.81,204.87L446.86,206.55L447.91,205.52L448.95,206.52L450,206.98L451.05,205.57L455.23,205.88L456.28,204.53L457.33,207.01L458.37,212.07L460.47,218.54L461.51,221.6L462.56,216.28L463.6,216.58L464.65,216.94L465.7,218.29L466.74,216.86L467.79,216.98L469.88,217.1L470.93,220.2L471.98,220.29L473.02,221.27L474.07,220.97L475.12,222.3L476.16,223.7L477.21,223.51L482.44,226.4L483.49,226.4L485.58,227.56L486.63,230.16L488.72,231.39L489.77,239.25L490.81,239.65L491.86,242.35L492.91,277.16L493.95,278.03L495,283.4L496.05,284.33L498.14,283.9L499.19,284.64L500.23,284.3L501.28,286.46L502.33,286.5L503.37,290.23L508.6,292.45L509.65,292.97L510.7,294.79L511.74,294.49L512.79,294.94L513.84,297.21L516.98,296.74L518.02,297.27L520.12,297.37L521.16,298.32L526.4,299.39L527.44,300.38L531.63,300.82L532.67,302.89L535.81,303.56L536.86,303.67L540,304" style="vector-effect: none; fill: none; stroke: rgb(99, 110, 250); stroke-opacity: 1; stroke-width: 2px; opacity: 1;"/></g><g class="points"/><g class="text"/></g></g></g><g class="overplot"/><path class="xlines-above crisp" d="M0,0" style="fill: none;"/><path class="ylines-above crisp" d="M0,0" style="fill: none;"/><g class="overlines-above"/><g class="xaxislayer-above"><g class="xtick"><text text-anchor="middle" x="0" y="433" transform="translate(114.53,0)" style="font-family: 'Open Sans', verdana, arial, sans-serif; font-size: 12px; fill: rgb(42, 63, 95); fill-opacity: 1; white-space: pre; opacity: 1;">Oct 2022</text></g><g class="xtick"><text text-anchor="middle" x="0" y="433" style="font-family: 'Open Sans', verdana, arial, sans-serif; font-size: 12px; fill: rgb(42, 63, 95); fill-opacity: 1; white-space: pre; opacity: 1;" transform="translate(210.81,0)">Jan 2023</text></g><g class="xtick"><text text-anchor="middle" x="0" y="433" style="font-family: 'Open Sans', verdana, arial, sans-serif; font-size: 12px; fill: rgb(42, 63, 95); fill-opacity: 1; white-space: pre; opacity: 1;" transform="translate(305,0)">Apr 2023</text></g><g class="xtick"><text text-anchor="middle" x="0" y="433" style="font-family: 'Open Sans', verdana, arial, sans-serif; font-size: 12px; fill: rgb(42, 63, 95); fill-opacity: 1; white-space: pre; opacity: 1;" transform="translate(400.23,0)">Jul 2023</text></g><g class="xtick"><text text-anchor="middle" x="0" y="433" style="font-family: 'Open Sans', verdana, arial, sans-serif; font-size: 12px; fill: rgb(42, 63, 95); fill-opacity: 1; white-space: pre; opacity: 1;" transform="translate(496.51,0)">Oct 2023</text></g><g class="xtick"><text text-anchor="middle" x="0" y="433" style="font-family: 'Open Sans', verdana, arial, sans-serif; font-size: 12px; fill: rgb(42, 63, 95); fill-opacity: 1; white-space: pre; opacity: 1;" transform="translate(592.79,0)">Jan 2024</text></g></g><g class="yaxislayer-above"><g class="ytick"><text text-anchor="end" x="79" y="4.199999999999999" transform="translate(0,402.75)" style="font-family: 'Open Sans', verdana, arial, sans-serif; font-size: 12px; fill: rgb(42, 63, 95); fill-opacity: 1; white-space: pre; opacity: 1;">$0</text></g><g class="ytick"><text text-anchor="end" x="79" y="4.199999999999999" style="font-family: 'Open Sans', verdana, arial, sans-serif; font-size: 12px; fill: rgb(42, 63, 95); fill-opacity: 1; white-space: pre; opacity: 1;" transform="translate(0,362.94)">$2M</text></g><g class="ytick"><text text-anchor="end" x="79" y="4.199999999999999" style="font-family: 'Open Sans', verdana, arial, sans-serif; font-size: 12px; fill: rgb(42, 63, 95); fill-opacity: 1; white-space: pre; opacity: 1;" transform="translate(0,323.14)">$4M</text></g><g class="ytick"><text text-anchor="end" x="79" y="4.199999999999999" style="font-family: 'Open Sans', verdana, arial, sans-serif; font-size: 12px; fill: rgb(42, 63, 95); fill-opacity: 1; white-space: pre; opacity: 1;" transform="translate(0,283.33000000000004)">$6M</text></g><g class="ytick"><text text-anchor="end" x="79" y="4.199999999999999" style="font-family: 'Open Sans', verdana, arial, sans-serif; font-size: 12px; fill: rgb(42, 63, 95); fill-opacity: 1; white-space: pre; opacity: 1;" transform="translate(0,243.52)">$8M</text></g><g class="ytick"><text text-anchor="end" x="79" y="4.199999999999999" style="font-family: 'Open Sans', verdana, arial, sans-serif; font-size: 12px; fill: rgb(42, 63, 95); fill-opacity: 1; white-space: pre; opacity: 1;" transform="translate(0,203.72)">$10M</text></g><g class="ytick"><text text-anchor="end" x="79" y="4.199999999999999" style="font-family: 'Open Sans', verdana, arial, sans-serif; font-size: 12px; fill: rgb(42, 63, 95); fill-opacity: 1; white-space: pre; opacity: 1;" transform="translate(0,163.91)">$12M</text></g><g class="ytick"><text text-anchor="end" x="79" y="4.199999999999999" style="font-family: 'Open Sans', verdana, arial, sans-serif; font-size: 12px; fill: rgb(42, 63, 95); fill-opacity: 1; white-space: pre; opacity: 1;" transform="translate(0,124.1)">$14M</text></g></g><g class="overaxes-above"/></g></g><g class="polarlayer"/><g class="smithlayer"/><g class="ternarylayer"/><g class="geolayer"/><g class="funnelarealayer"/><g class="pielayer"/><g class="iciclelayer"/><g class="treemaplayer"/><g class="sunburstlayer"/><g class="glimages"/><defs id="topdefs-d468b1"><g class="clips"/></defs><g class="layer-above"><g class="imagelayer"/><g class="shapelayer"/></g><g class="infolayer"><g class="g-gtitle"><text class="gtitle" x="35" y="50" text-anchor="start" dy="0em" style="font-family: 'Open Sans', verdana, arial, sans-serif; font-size: 17px; fill: rgb(42, 63, 95); opacity: 1; font-weight: normal; white-space: pre;"><tspan class="line" dy="0em" x="35" y="50">Pika Protocol*</tspan><tspan class="line" dy="1.3em" x="35" y="50">​<tspan style="font-size:70%" dy="-0.6em">Cumulative Net Flows since Program Announcement, Until Program End + 30 Days</tspan><tspan dy="0.42em">​</tspan></tspan></text></g><g class="g-xtitle"><text class="xtitle" x="350" y="460.3" text-anchor="middle" style="font-family: 'Open Sans', verdana, arial, sans-serif; font-size: 14px; fill: rgb(42, 63, 95); opacity: 1; font-weight: normal; white-space: pre;">Day</text></g><g class="g-ytitle"><text class="ytitle" transform="rotate(-90,24.668750000000003,260)" x="24.668750000000003" y="260" text-anchor="middle" style="font-family: 'Open Sans', verdana, arial, sans-serif; font-size: 14px; fill: rgb(42, 63, 95); opacity: 1; font-weight: normal; white-space: pre;">Cumulative Net Flows (USD)</text></g></g></svg>