<svg class="main-svg" xmlns="http://www.w3.org/2000/svg" xmlns:xlink="http://www.w3.org/1999/xlink" width="700" height="500" style="" viewBox="0 0 700 500"><rect x="0" y="0" width="700" height="500" style="fill: rgb(255, 255, 255); fill-opacity: 1;"/><defs id="defs-90e11c"><g class="clips"><clipPath id="clip90e11cxyplot" class="plotclip"><rect width="540" height="320"/></clipPath><clipPath class="axesclip" id="clip90e11cx"><rect x="80" y="0" width="540" height="500"/></clipPath><clipPath class="axesclip" id="clip90e11cy"><rect x="0" y="100" width="700" height="320"/></clipPath><clipPath class="axesclip" id="clip90e11cxy"><rect x="80" y="100" width="540" height="320"/></clipPath></g><g class="gradients"/><g class="patterns"/></defs><g class="bglayer"><rect class="bg" x="80" y="100" width="540" height="320" style="fill: rgb(229, 236, 246); fill-opacity: 1; stroke-width: 0;"/></g><g class="layer-below"><g class="imagelayer"/><g class="shapelayer"/></g><g class="cartesianlayer"><g class="subplot xy"><g class="layer-subplot"><g class="shapelayer"/><g class="imagelayer"/></g><g class="minor-gridlayer"><g class="x"/><g class="y"/></g><g class="gridlayer"><g class="x"><path class="xgrid crisp" transform="translate(142.45,0)" d="M0,100v320" style="stroke: rgb(255, 255, 255); stroke-opacity: 1; stroke-width: 1px;"/><path class="xgrid crisp" transform="translate(256.33000000000004,0)" d="M0,100v320" style="stroke: rgb(255, 255, 255); stroke-opacity: 1; stroke-width: 1px;"/><path class="xgrid crisp" transform="translate(366.53,0)" d="M0,100v320" style="stroke: rgb(255, 255, 255); stroke-opacity: 1; stroke-width: 1px;"/><path class="xgrid crisp" transform="translate(480.41,0)" d="M0,100v320" style="stroke: rgb(255, 255, 255); stroke-opacity: 1; stroke-width: 1px;"/><path class="xgrid crisp" transform="translate(594.29,0)" d="M0,100v320" style="stroke: rgb(255, 255, 255); stroke-opacity: 1; stroke-width: 1px;"/></g><g class="y"><path class="ygrid crisp" transform="translate(0,345.93)" d="M80,0h540" style="stroke: rgb(255, 255, 255); stroke-opacity: 1; stroke-width: 1px;"/><path class="ygrid crisp" transform="translate(0,271.86)" d="M80,0h540" style="stroke: rgb(255, 255, 255); stroke-opacity: 1; stroke-width: 1px;"/><path class="ygrid crisp" transform="translate(0,197.8)" d="M80,0h540" style="stroke: rgb(255, 255, 255); stroke-opacity: 1; stroke-width: 1px;"/><path class="ygrid crisp" transform="translate(0,123.73)" d="M80,0h540" style="stroke: rgb(255, 255, 255); stroke-opacity: 1; stroke-width: 1px;"/></g></g><g class="zerolinelayer"><path class="yzl zl crisp" transform="translate(0,420)" d="M80,0h540" style="stroke: rgb(255, 255, 255); stroke-opacity: 1; stroke-width: 2px;"/></g><path class="xlines-below"/><path class="ylines-below"/><g class="overlines-below"/><g class="xaxislayer-below"/><g class="yaxislayer-below"/><g class="overaxes-below"/><g class="plot" transform="translate(80,100)" clip-path="url(#clip90e11cxyplot)"><g class="scatterlayer mlayer"><g class="trace scatter trace633004" style="stroke-miterlimit: 2;"><g class="fills"><g><path class="js-fill" d="M540,320L0,320L0,51.93L3.67,61.13L7.35,60.13L14.69,57.24L18.37,56.51L22.04,55.53L25.71,61.04L29.39,62.5L33.06,59.45L36.73,59.25L40.41,54.92L44.08,54.58L47.76,50.16L58.78,48.2L62.45,48.92L66.12,53.08L69.8,51.84L77.14,51.24L80.82,50.01L84.49,49.74L88.16,28.12L91.84,26.62L95.51,22.29L99.18,22.18L102.86,23L106.53,28.06L110.2,26.48L113.88,23.08L117.55,25.41L121.22,34.02L124.9,31.9L132.24,33.09L135.92,32.79L146.94,32.62L150.61,22.51L154.29,23.69L157.96,20.79L161.63,20.88L165.31,16L168.98,16.15L172.65,19.38L176.33,23.01L180,22.77L183.67,22.79L187.35,43.76L191.02,43.01L194.69,43.05L198.37,43.19L202.04,42.25L205.71,37.53L209.39,37.37L213.06,39.37L216.73,39.73L231.43,41.64L235.1,41.62L242.45,37.17L246.12,36.85L249.8,36.74L253.47,37.45L257.14,38.5L260.82,40.8L268.16,43.93L271.84,44.18L275.51,44.77L279.18,50.22L286.53,70.23L290.2,77.12L293.88,80.13L297.55,81.64L301.22,82.51L304.9,82.55L308.57,82.5L312.24,86.58L315.92,86.41L319.59,97.25L323.27,98.55L326.94,103.27L330.61,110.01L334.29,109.92L341.63,112.64L345.31,134.02L352.65,135.22L356.33,137.41L360,140.35L363.67,139.84L367.35,140.85L371.02,143.02L374.69,151.54L378.37,151.5L382.04,156.3L385.71,157.72L393.06,159.13L396.73,197.63L400.41,207.99L404.08,209.81L407.76,210.06L411.43,217.54L415.1,215.49L418.78,215.98L422.45,215.06L426.12,214.98L433.47,215.83L437.14,220.07L448.16,220.02L451.84,223.53L455.51,223.55L459.18,224.57L462.86,225.51L466.53,225.48L473.88,225.83L477.55,226.05L488.57,225.99L492.24,225.94L503.27,226.03L506.94,225.66L510.61,225.73L514.29,226.74L517.96,227.95L521.63,232.35L525.31,232.4L528.98,234.66L536.33,234.7L540,238.41" style="fill: rgb(99, 110, 250); fill-opacity: 0.5; stroke-width: 0;"/></g></g><g class="errorbars"/><g class="lines"><path class="js-line" d="M0,51.93L3.67,61.13L7.35,60.13L14.69,57.24L18.37,56.51L22.04,55.53L25.71,61.04L29.39,62.5L33.06,59.45L36.73,59.25L40.41,54.92L44.08,54.58L47.76,50.16L58.78,48.2L62.45,48.92L66.12,53.08L69.8,51.84L77.14,51.24L80.82,50.01L84.49,49.74L88.16,28.12L91.84,26.62L95.51,22.29L99.18,22.18L102.86,23L106.53,28.06L110.2,26.48L113.88,23.08L117.55,25.41L121.22,34.02L124.9,31.9L132.24,33.09L135.92,32.79L146.94,32.62L150.61,22.51L154.29,23.69L157.96,20.79L161.63,20.88L165.31,16L168.98,16.15L172.65,19.38L176.33,23.01L180,22.77L183.67,22.79L187.35,43.76L191.02,43.01L194.69,43.05L198.37,43.19L202.04,42.25L205.71,37.53L209.39,37.37L213.06,39.37L216.73,39.73L231.43,41.64L235.1,41.62L242.45,37.17L246.12,36.85L249.8,36.74L253.47,37.45L257.14,38.5L260.82,40.8L268.16,43.93L271.84,44.18L275.51,44.77L279.18,50.22L286.53,70.23L290.2,77.12L293.88,80.13L297.55,81.64L301.22,82.51L304.9,82.55L308.57,82.5L312.24,86.58L315.92,86.41L319.59,97.25L323.27,98.55L326.94,103.27L330.61,110.01L334.29,109.92L341.63,112.64L345.31,134.02L352.65,135.22L356.33,137.41L360,140.35L363.67,139.84L367.35,140.85L371.02,143.02L374.69,151.54L378.37,151.5L382.04,156.3L385.71,157.72L393.06,159.13L396.73,197.63L400.41,207.99L404.08,209.81L407.76,210.06L411.43,217.54L415.1,215.49L418.78,215.98L422.45,215.06L426.12,214.98L433.47,215.83L437.14,220.07L448.16,220.02L451.84,223.53L455.51,223.55L459.18,224.57L462.86,225.51L466.53,225.48L473.88,225.83L477.55,226.05L488.57,225.99L492.24,225.94L503.27,226.03L506.94,225.66L510.61,225.73L514.29,226.74L517.96,227.95L521.63,232.35L525.31,232.4L528.98,234.66L536.33,234.7L540,238.41" style="vector-effect: none; fill: none; stroke: rgb(99, 110, 250); stroke-opacity: 1; stroke-width: 2px; opacity: 1;"/></g><g class="points"/><g class="text"/></g></g></g><g class="overplot"/><path class="xlines-above crisp" d="M0,0" style="fill: none;"/><path class="ylines-above crisp" d="M0,0" style="fill: none;"/><g class="overlines-above"/><g class="xaxislayer-above"><g class="xtick"><text text-anchor="middle" x="0" y="433" transform="translate(142.45,0)" style="font-family: 'Open Sans', verdana, arial, sans-serif; font-size: 12px; fill: rgb(42, 63, 95); fill-opacity: 1; white-space: pre; opacity: 1;">May 2023</text></g><g class="xtick"><text text-anchor="middle" x="0" y="433" style="font-family: 'Open Sans', verdana, arial, sans-serif; font-size: 12px; fill: rgb(42, 63, 95); fill-opacity: 1; white-space: pre; opacity: 1;" transform="translate(256.33000000000004,0)">Jun 2023</text></g><g class="xtick"><text text-anchor="middle" x="0" y="433" style="font-family: 'Open Sans', verdana, arial, sans-serif; font-size: 12px; fill: rgb(42, 63, 95); fill-opacity: 1; white-space: pre; opacity: 1;" transform="translate(366.53,0)">Jul 2023</text></g><g class="xtick"><text text-anchor="middle" x="0" y="433" style="font-family: 'Open Sans', verdana, arial, sans-serif; font-size: 12px; fill: rgb(42, 63, 95); fill-opacity: 1; white-space: pre; opacity: 1;" transform="translate(480.41,0)">Aug 2023</text></g><g class="xtick"><text text-anchor="middle" x="0" y="433" style="font-family: 'Open Sans', verdana, arial, sans-serif; font-size: 12px; fill: rgb(42, 63, 95); fill-opacity: 1; white-space: pre; opacity: 1;" transform="translate(594.29,0)">Sep 2023</text></g></g><g class="yaxislayer-above"><g class="ytick"><text text-anchor="end" x="79" y="4.199999999999999" transform="translate(0,420)" style="font-family: 'Open Sans', verdana, arial, sans-serif; font-size: 12px; fill: rgb(42, 63, 95); fill-opacity: 1; white-space: pre; opacity: 1;">$0</text></g><g class="ytick"><text text-anchor="end" x="79" y="4.199999999999999" style="font-family: 'Open Sans', verdana, arial, sans-serif; font-size: 12px; fill: rgb(42, 63, 95); fill-opacity: 1; white-space: pre; opacity: 1;" transform="translate(0,345.93)">$5M</text></g><g class="ytick"><text text-anchor="end" x="79" y="4.199999999999999" style="font-family: 'Open Sans', verdana, arial, sans-serif; font-size: 12px; fill: rgb(42, 63, 95); fill-opacity: 1; white-space: pre; opacity: 1;" transform="translate(0,271.86)">$10M</text></g><g class="ytick"><text text-anchor="end" x="79" y="4.199999999999999" style="font-family: 'Open Sans', verdana, arial, sans-serif; font-size: 12px; fill: rgb(42, 63, 95); fill-opacity: 1; white-space: pre; opacity: 1;" transform="translate(0,197.8)">$15M</text></g><g class="ytick"><text text-anchor="end" x="79" y="4.199999999999999" style="font-family: 'Open Sans', verdana, arial, sans-serif; font-size: 12px; fill: rgb(42, 63, 95); fill-opacity: 1; white-space: pre; opacity: 1;" transform="translate(0,123.73)">$20M</text></g></g><g class="overaxes-above"/></g></g><g class="polarlayer"/><g class="smithlayer"/><g class="ternarylayer"/><g class="geolayer"/><g class="funnelarealayer"/><g class="pielayer"/><g class="iciclelayer"/><g class="treemaplayer"/><g class="sunburstlayer"/><g class="glimages"/><defs id="topdefs-90e11c"><g class="clips"/></defs><g class="layer-above"><g class="imagelayer"/><g class="shapelayer"/></g><g class="infolayer"><g class="g-gtitle"><text class="gtitle" x="35" y="50" text-anchor="start" dy="0em" style="font-family: 'Open Sans', verdana, arial, sans-serif; font-size: 17px; fill: rgb(42, 63, 95); opacity: 1; font-weight: normal; white-space: pre;"><tspan class="line" dy="0em" x="35" y="50">Lido - wstETHCRV: Curve</tspan><tspan class="line" dy="1.3em" x="35" y="50">​<tspan style="font-size:70%" dy="-0.6em">Cumulative Net Flows since Program Announcement, Until Program End + 30 Days</tspan><tspan dy="0.42em">​</tspan></tspan></text></g><g class="g-xtitle"><text class="xtitle" x="350" y="460.3" text-anchor="middle" style="font-family: 'Open Sans', verdana, arial, sans-serif; font-size: 14px; fill: rgb(42, 63, 95); opacity: 1; font-weight: normal; white-space: pre;">Day</text></g><g class="g-ytitle"><text class="ytitle" transform="rotate(-90,24.668750000000003,260)" x="24.668750000000003" y="260" text-anchor="middle" style="font-family: 'Open Sans', verdana, arial, sans-serif; font-size: 14px; fill: rgb(42, 63, 95); opacity: 1; font-weight: normal; white-space: pre;">Cumulative Net Flows (USD)</text></g></g></svg>