<svg class="main-svg" xmlns="http://www.w3.org/2000/svg" xmlns:xlink="http://www.w3.org/1999/xlink" width="700" height="500" style="" viewBox="0 0 700 500"><rect x="0" y="0" width="700" height="500" style="fill: rgb(255, 255, 255); fill-opacity: 1;"/><defs id="defs-db511a"><g class="clips"><clipPath id="clipdb511axyplot" class="plotclip"><rect width="540" height="320"/></clipPath><clipPath class="axesclip" id="clipdb511ax"><rect x="80" y="0" width="540" height="500"/></clipPath><clipPath class="axesclip" id="clipdb511ay"><rect x="0" y="100" width="700" height="320"/></clipPath><clipPath class="axesclip" id="clipdb511axy"><rect x="80" y="100" width="540" height="320"/></clipPath></g><g class="gradients"/><g class="patterns"/></defs><g class="bglayer"><rect class="bg" x="80" y="100" width="540" height="320" style="fill: rgb(229, 236, 246); fill-opacity: 1; stroke-width: 0;"/></g><g class="layer-below"><g class="imagelayer"/><g class="shapelayer"/></g><g class="cartesianlayer"><g class="subplot xy"><g class="layer-subplot"><g class="shapelayer"/><g class="imagelayer"/></g><g class="minor-gridlayer"><g class="x"/><g class="y"/></g><g class="gridlayer"><g class="x"><path class="xgrid crisp" transform="translate(123.15,0)" d="M0,100v320" style="stroke: rgb(255, 255, 255); stroke-opacity: 1; stroke-width: 1px;"/><path class="xgrid crisp" transform="translate(202.91,0)" d="M0,100v320" style="stroke: rgb(255, 255, 255); stroke-opacity: 1; stroke-width: 1px;"/><path class="xgrid crisp" transform="translate(280.05,0)" d="M0,100v320" style="stroke: rgb(255, 255, 255); stroke-opacity: 1; stroke-width: 1px;"/><path class="xgrid crisp" transform="translate(359.81,0)" d="M0,100v320" style="stroke: rgb(255, 255, 255); stroke-opacity: 1; stroke-width: 1px;"/><path class="xgrid crisp" transform="translate(439.56,0)" d="M0,100v320" style="stroke: rgb(255, 255, 255); stroke-opacity: 1; stroke-width: 1px;"/><path class="xgrid crisp" transform="translate(520.63,0)" d="M0,100v320" style="stroke: rgb(255, 255, 255); stroke-opacity: 1; stroke-width: 1px;"/><path class="xgrid crisp" transform="translate(600.39,0)" d="M0,100v320" style="stroke: rgb(255, 255, 255); stroke-opacity: 1; stroke-width: 1px;"/></g><g class="y"><path class="ygrid crisp" transform="translate(0,382.85)" d="M80,0h540" style="stroke: rgb(255, 255, 255); stroke-opacity: 1; stroke-width: 1px;"/><path class="ygrid crisp" transform="translate(0,345.69)" d="M80,0h540" style="stroke: rgb(255, 255, 255); stroke-opacity: 1; stroke-width: 1px;"/><path class="ygrid crisp" transform="translate(0,308.53999999999996)" d="M80,0h540" style="stroke: rgb(255, 255, 255); stroke-opacity: 1; stroke-width: 1px;"/><path class="ygrid crisp" transform="translate(0,271.39)" d="M80,0h540" style="stroke: rgb(255, 255, 255); stroke-opacity: 1; stroke-width: 1px;"/><path class="ygrid crisp" transform="translate(0,234.24)" d="M80,0h540" style="stroke: rgb(255, 255, 255); stroke-opacity: 1; stroke-width: 1px;"/><path class="ygrid crisp" transform="translate(0,197.07999999999998)" d="M80,0h540" style="stroke: rgb(255, 255, 255); stroke-opacity: 1; stroke-width: 1px;"/><path class="ygrid crisp" transform="translate(0,159.93)" d="M80,0h540" style="stroke: rgb(255, 255, 255); stroke-opacity: 1; stroke-width: 1px;"/><path class="ygrid crisp" transform="translate(0,122.78)" d="M80,0h540" style="stroke: rgb(255, 255, 255); stroke-opacity: 1; stroke-width: 1px;"/></g></g><g class="zerolinelayer"><path class="yzl zl crisp" transform="translate(0,420)" d="M80,0h540" style="stroke: rgb(255, 255, 255); stroke-opacity: 1; stroke-width: 2px;"/></g><path class="xlines-below"/><path class="ylines-below"/><g class="overlines-below"/><g class="xaxislayer-below"/><g class="yaxislayer-below"/><g class="overaxes-below"/><g class="plot" transform="translate(80,100)" clip-path="url(#clipdb511axyplot)"><g class="scatterlayer mlayer"><g class="trace scatter trace1549ad" style="stroke-miterlimit: 2;"><g class="fills"><g><path class="js-fill" d="M540,320L0,320L0,319.8L1.31,295.57L2.62,285.97L3.92,279.65L5.23,286.52L6.54,272.64L7.85,270.83L9.15,273.61L10.46,268.76L13.08,249.49L14.38,224.56L15.69,225.39L17,220.67L18.31,219.97L19.61,224.85L20.92,228.84L22.23,228.69L24.84,225.36L26.15,224.5L27.46,224.37L28.77,228.18L30.07,228.12L31.38,227.22L32.69,225.89L34,231.27L35.3,218.88L36.61,213.66L37.92,212.29L39.23,208.07L41.84,195.82L43.15,192.16L44.46,196.66L45.76,197.48L49.69,181.05L50.99,186.11L52.3,186.1L53.61,205.91L54.92,226.42L56.22,221.34L58.84,220.76L60.15,222.29L62.76,219.48L64.07,220.11L65.38,222.93L66.68,220.75L67.99,220.57L69.3,224.98L70.61,224.14L71.91,220.75L74.53,213.61L75.84,213.81L77.14,212.31L78.45,212.99L79.76,216.59L81.07,214.81L83.68,207.7L84.99,212.07L86.3,217.11L87.6,216.59L88.91,219.14L90.22,227.59L91.53,232.33L92.83,230.74L94.14,229.47L95.45,223.32L96.76,224.36L98.06,222.32L99.37,216.92L100.68,218.32L103.29,225.24L104.6,224.31L105.91,223.99L107.22,224.74L108.52,221.5L109.83,222.14L111.14,209.16L112.45,209.45L113.75,210.56L115.06,210L117.68,207.26L118.98,209.14L124.21,204.48L125.52,200.73L129.44,197.93L130.75,212.29L132.06,213.14L133.37,207.73L134.67,205.07L135.98,205.11L137.29,199.3L138.6,198.29L141.21,170.16L142.52,164.18L143.83,161.25L145.13,163.05L146.44,169.9L147.75,185.11L149.06,178.3L150.36,191.46L151.67,201L152.98,181.97L154.29,191.05L155.59,189.48L156.9,186.2L158.21,185.49L160.82,177.52L162.13,209.6L163.44,210.45L164.75,203.25L166.05,195.11L167.36,196.34L169.98,190.9L171.28,193.47L172.59,147.34L173.9,150.06L175.21,151.68L176.51,158.71L177.82,148.93L179.13,154.53L181.74,128.43L183.05,111.96L184.36,118.78L185.67,102.32L186.97,101.04L188.28,105.02L189.59,86.08L190.9,90.44L192.2,93.16L193.51,90.13L194.82,109.03L196.13,95.98L197.43,88.36L198.74,89.17L200.05,89.87L201.36,82.8L202.66,84L203.97,83.64L206.59,83.07L207.89,77.75L209.2,123.46L210.51,123.44L211.82,113.77L213.12,121.77L214.43,127.64L215.74,126.25L217.05,120.55L218.35,110.79L220.97,103.38L222.28,62.54L223.58,76.2L224.89,76.78L227.51,56.82L228.81,58.45L230.12,59.74L231.43,59.19L232.74,58L234.04,59.36L235.35,58.54L236.66,60.15L237.97,36.22L239.27,30.94L240.58,29.67L241.89,38.67L243.2,41.31L244.5,41.9L247.12,39.39L248.43,27.95L249.73,22.7L251.04,32.5L252.35,33.4L253.66,19.16L254.96,17.15L256.27,17.29L257.58,16L258.89,24.4L261.5,28.05L262.81,36.43L264.12,34.51L265.42,34.85L266.73,45.39L268.04,45.95L270.65,45.94L271.96,44.71L273.27,33.97L274.58,33L275.88,31.29L277.19,31.91L279.81,31.07L281.11,34.99L282.42,24.36L283.73,25.54L285.04,27.43L286.34,31.18L287.65,30.16L288.96,43.14L290.27,43.7L291.57,42.8L294.19,42.37L295.5,45.83L298.11,47.1L299.42,49.44L300.73,53.43L302.03,53.99L303.34,53.56L304.65,54.01L305.96,56.85L307.26,55.6L308.57,57.42L309.88,69.6L311.19,79.64L312.49,81.56L313.8,83.38L315.11,77.82L316.42,56.36L317.72,83.06L319.03,100.51L320.34,99.99L321.65,93.72L322.95,92.77L325.57,91.4L326.88,92.02L328.18,92.13L329.49,93.06L330.8,91.47L332.11,95.04L333.41,111.28L334.72,113.24L336.03,109.85L337.34,116.16L338.64,118.31L339.95,115.79L341.26,114.08L342.57,136.94L343.87,154.65L345.18,155.23L346.49,155.25L347.8,170.75L349.1,162.2L350.41,162.48L351.72,164.51L353.03,163.61L354.33,166.05L355.64,164.6L356.95,164.93L358.26,175.74L359.56,175.56L360.87,187.48L362.18,186.21L363.49,187.02L366.1,185.89L367.41,172.93L368.72,173.06L370.02,170.88L371.33,155.5L372.64,154.9L373.95,156.11L375.25,158.83L376.56,159.37L377.87,162.35L379.18,169.94L380.48,167.79L381.79,167.61L383.1,171.38L384.41,176.31L385.71,185.93L388.33,189.35L389.64,188.76L390.94,185.42L392.25,188.33L393.56,192.52L394.87,192.3L396.17,191.87L397.48,189.64L398.79,195.02L400.1,196.23L402.71,195.19L404.02,193.4L405.33,198.41L406.63,198.17L409.25,198.44L410.56,198.73L411.86,199.87L413.17,198.41L414.48,217.02L415.79,217.07L417.09,217.85L418.4,215.81L419.71,217.95L421.02,215.8L422.32,216.3L423.63,214.74L424.94,216.12L426.25,216.29L427.55,216.48L428.86,225L430.17,224.84L431.48,222.57L432.78,222.91L434.09,221.48L435.4,223.92L436.71,248.15L438.01,247.56L439.32,247.79L441.94,250.75L443.24,250.83L445.86,250.65L447.17,247.83L451.09,237.94L452.4,237.84L464.16,238.22L465.47,231.43L466.78,228.36L468.09,228.66L470.7,228.26L472.01,229.29L473.32,230.17L474.62,233.35L475.93,234.27L477.24,231.15L478.55,227.89L479.85,226.86L481.16,225.87L482.47,223.03L483.78,222.57L485.08,219.53L489.01,214.57L490.31,214.52L491.62,212.99L492.93,212.99L494.24,215.4L495.54,215.34L496.85,212.82L498.16,213.51L499.47,213.48L500.77,215.15L502.08,222.5L503.39,223.22L504.7,234.89L506,233.58L508.62,230.76L509.93,230.64L511.23,228.91L512.54,228.63L515.16,226.46L516.46,226.63L519.08,223.61L520.39,222.9L521.69,209.57L523,214.03L525.62,197.65L526.92,195.36L528.23,199.98L529.54,195.89L530.85,195.9L532.15,200.37L533.46,199.58L534.77,201.63L536.08,207.62L537.38,206.56L538.69,203.85L540,203.13" style="fill: rgb(99, 110, 250); fill-opacity: 0.5; stroke-width: 0;"/></g></g><g class="errorbars"/><g class="lines"><path class="js-line" d="M0,319.8L1.31,295.57L2.62,285.97L3.92,279.65L5.23,286.52L6.54,272.64L7.85,270.83L9.15,273.61L10.46,268.76L13.08,249.49L14.38,224.56L15.69,225.39L17,220.67L18.31,219.97L19.61,224.85L20.92,228.84L22.23,228.69L24.84,225.36L26.15,224.5L27.46,224.37L28.77,228.18L30.07,228.12L31.38,227.22L32.69,225.89L34,231.27L35.3,218.88L36.61,213.66L37.92,212.29L39.23,208.07L41.84,195.82L43.15,192.16L44.46,196.66L45.76,197.48L49.69,181.05L50.99,186.11L52.3,186.1L53.61,205.91L54.92,226.42L56.22,221.34L58.84,220.76L60.15,222.29L62.76,219.48L64.07,220.11L65.38,222.93L66.68,220.75L67.99,220.57L69.3,224.98L70.61,224.14L71.91,220.75L74.53,213.61L75.84,213.81L77.14,212.31L78.45,212.99L79.76,216.59L81.07,214.81L83.68,207.7L84.99,212.07L86.3,217.11L87.6,216.59L88.91,219.14L90.22,227.59L91.53,232.33L92.83,230.74L94.14,229.47L95.45,223.32L96.76,224.36L98.06,222.32L99.37,216.92L100.68,218.32L103.29,225.24L104.6,224.31L105.91,223.99L107.22,224.74L108.52,221.5L109.83,222.14L111.14,209.16L112.45,209.45L113.75,210.56L115.06,210L117.68,207.26L118.98,209.14L124.21,204.48L125.52,200.73L129.44,197.93L130.75,212.29L132.06,213.14L133.37,207.73L134.67,205.07L135.98,205.11L137.29,199.3L138.6,198.29L141.21,170.16L142.52,164.18L143.83,161.25L145.13,163.05L146.44,169.9L147.75,185.11L149.06,178.3L150.36,191.46L151.67,201L152.98,181.97L154.29,191.05L155.59,189.48L156.9,186.2L158.21,185.49L160.82,177.52L162.13,209.6L163.44,210.45L164.75,203.25L166.05,195.11L167.36,196.34L169.98,190.9L171.28,193.47L172.59,147.34L173.9,150.06L175.21,151.68L176.51,158.71L177.82,148.93L179.13,154.53L181.74,128.43L183.05,111.96L184.36,118.78L185.67,102.32L186.97,101.04L188.28,105.02L189.59,86.08L190.9,90.44L192.2,93.16L193.51,90.13L194.82,109.03L196.13,95.98L197.43,88.36L198.74,89.17L200.05,89.87L201.36,82.8L202.66,84L203.97,83.64L206.59,83.07L207.89,77.75L209.2,123.46L210.51,123.44L211.82,113.77L213.12,121.77L214.43,127.64L215.74,126.25L217.05,120.55L218.35,110.79L220.97,103.38L222.28,62.54L223.58,76.2L224.89,76.78L227.51,56.82L228.81,58.45L230.12,59.74L231.43,59.19L232.74,58L234.04,59.36L235.35,58.54L236.66,60.15L237.97,36.22L239.27,30.94L240.58,29.67L241.89,38.67L243.2,41.31L244.5,41.9L247.12,39.39L248.43,27.95L249.73,22.7L251.04,32.5L252.35,33.4L253.66,19.16L254.96,17.15L256.27,17.29L257.58,16L258.89,24.4L261.5,28.05L262.81,36.43L264.12,34.51L265.42,34.85L266.73,45.39L268.04,45.95L270.65,45.94L271.96,44.71L273.27,33.97L274.58,33L275.88,31.29L277.19,31.91L279.81,31.07L281.11,34.99L282.42,24.36L283.73,25.54L285.04,27.43L286.34,31.18L287.65,30.16L288.96,43.14L290.27,43.7L291.57,42.8L294.19,42.37L295.5,45.83L298.11,47.1L299.42,49.44L300.73,53.43L302.03,53.99L303.34,53.56L304.65,54.01L305.96,56.85L307.26,55.6L308.57,57.42L309.88,69.6L311.19,79.64L312.49,81.56L313.8,83.38L315.11,77.82L316.42,56.36L317.72,83.06L319.03,100.51L320.34,99.99L321.65,93.72L322.95,92.77L325.57,91.4L326.88,92.02L328.18,92.13L329.49,93.06L330.8,91.47L332.11,95.04L333.41,111.28L334.72,113.24L336.03,109.85L337.34,116.16L338.64,118.31L339.95,115.79L341.26,114.08L342.57,136.94L343.87,154.65L345.18,155.23L346.49,155.25L347.8,170.75L349.1,162.2L350.41,162.48L351.72,164.51L353.03,163.61L354.33,166.05L355.64,164.6L356.95,164.93L358.26,175.74L359.56,175.56L360.87,187.48L362.18,186.21L363.49,187.02L366.1,185.89L367.41,172.93L368.72,173.06L370.02,170.88L371.33,155.5L372.64,154.9L373.95,156.11L375.25,158.83L376.56,159.37L377.87,162.35L379.18,169.94L380.48,167.79L381.79,167.61L383.1,171.38L384.41,176.31L385.71,185.93L388.33,189.35L389.64,188.76L390.94,185.42L392.25,188.33L393.56,192.52L394.87,192.3L396.17,191.87L397.48,189.64L398.79,195.02L400.1,196.23L402.71,195.19L404.02,193.4L405.33,198.41L406.63,198.17L409.25,198.44L410.56,198.73L411.86,199.87L413.17,198.41L414.48,217.02L415.79,217.07L417.09,217.85L418.4,215.81L419.71,217.95L421.02,215.8L422.32,216.3L423.63,214.74L424.94,216.12L426.25,216.29L427.55,216.48L428.86,225L430.17,224.84L431.48,222.57L432.78,222.91L434.09,221.48L435.4,223.92L436.71,248.15L438.01,247.56L439.32,247.79L441.94,250.75L443.24,250.83L445.86,250.65L447.17,247.83L451.09,237.94L452.4,237.84L464.16,238.22L465.47,231.43L466.78,228.36L468.09,228.66L470.7,228.26L472.01,229.29L473.32,230.17L474.62,233.35L475.93,234.27L477.24,231.15L478.55,227.89L479.85,226.86L481.16,225.87L482.47,223.03L483.78,222.57L485.08,219.53L489.01,214.57L490.31,214.52L491.62,212.99L492.93,212.99L494.24,215.4L495.54,215.34L496.85,212.82L498.16,213.51L499.47,213.48L500.77,215.15L502.08,222.5L503.39,223.22L504.7,234.89L506,233.58L508.62,230.76L509.93,230.64L511.23,228.91L512.54,228.63L515.16,226.46L516.46,226.63L519.08,223.61L520.39,222.9L521.69,209.57L523,214.03L525.62,197.65L526.92,195.36L528.23,199.98L529.54,195.89L530.85,195.9L532.15,200.37L533.46,199.58L534.77,201.63L536.08,207.62L537.38,206.56L538.69,203.85L540,203.13" style="vector-effect: none; fill: none; stroke: rgb(99, 110, 250); stroke-opacity: 1; stroke-width: 2px; opacity: 1;"/></g><g class="points"/><g class="text"/></g></g></g><g class="overplot"/><path class="xlines-above crisp" d="M0,0" style="fill: none;"/><path class="ylines-above crisp" d="M0,0" style="fill: none;"/><g class="overlines-above"/><g class="xaxislayer-above"><g class="xtick"><text text-anchor="middle" x="0" y="433" transform="translate(123.15,0)" style="font-family: 'Open Sans', verdana, arial, sans-serif; font-size: 12px; fill: rgb(42, 63, 95); fill-opacity: 1; white-space: pre; opacity: 1;">Nov 2022</text></g><g class="xtick"><text text-anchor="middle" x="0" y="433" style="font-family: 'Open Sans', verdana, arial, sans-serif; font-size: 12px; fill: rgb(42, 63, 95); fill-opacity: 1; white-space: pre; opacity: 1;" transform="translate(202.91,0)">Jan 2023</text></g><g class="xtick"><text text-anchor="middle" x="0" y="433" style="font-family: 'Open Sans', verdana, arial, sans-serif; font-size: 12px; fill: rgb(42, 63, 95); fill-opacity: 1; white-space: pre; opacity: 1;" transform="translate(280.05,0)">Mar 2023</text></g><g class="xtick"><text text-anchor="middle" x="0" y="433" style="font-family: 'Open Sans', verdana, arial, sans-serif; font-size: 12px; fill: rgb(42, 63, 95); fill-opacity: 1; white-space: pre; opacity: 1;" transform="translate(359.81,0)">May 2023</text></g><g class="xtick"><text text-anchor="middle" x="0" y="433" style="font-family: 'Open Sans', verdana, arial, sans-serif; font-size: 12px; fill: rgb(42, 63, 95); fill-opacity: 1; white-space: pre; opacity: 1;" transform="translate(439.56,0)">Jul 2023</text></g><g class="xtick"><text text-anchor="middle" x="0" y="433" style="font-family: 'Open Sans', verdana, arial, sans-serif; font-size: 12px; fill: rgb(42, 63, 95); fill-opacity: 1; white-space: pre; opacity: 1;" transform="translate(520.63,0)">Sep 2023</text></g><g class="xtick"><text text-anchor="middle" x="0" y="433" style="font-family: 'Open Sans', verdana, arial, sans-serif; font-size: 12px; fill: rgb(42, 63, 95); fill-opacity: 1; white-space: pre; opacity: 1;" transform="translate(600.39,0)">Nov 2023</text></g></g><g class="yaxislayer-above"><g class="ytick"><text text-anchor="end" x="79" y="4.199999999999999" transform="translate(0,420)" style="font-family: 'Open Sans', verdana, arial, sans-serif; font-size: 12px; fill: rgb(42, 63, 95); fill-opacity: 1; white-space: pre; opacity: 1;">$0</text></g><g class="ytick"><text text-anchor="end" x="79" y="4.199999999999999" style="font-family: 'Open Sans', verdana, arial, sans-serif; font-size: 12px; fill: rgb(42, 63, 95); fill-opacity: 1; white-space: pre; opacity: 1;" transform="translate(0,382.85)">$5M</text></g><g class="ytick"><text text-anchor="end" x="79" y="4.199999999999999" style="font-family: 'Open Sans', verdana, arial, sans-serif; font-size: 12px; fill: rgb(42, 63, 95); fill-opacity: 1; white-space: pre; opacity: 1;" transform="translate(0,345.69)">$10M</text></g><g class="ytick"><text text-anchor="end" x="79" y="4.199999999999999" style="font-family: 'Open Sans', verdana, arial, sans-serif; font-size: 12px; fill: rgb(42, 63, 95); fill-opacity: 1; white-space: pre; opacity: 1;" transform="translate(0,308.53999999999996)">$15M</text></g><g class="ytick"><text text-anchor="end" x="79" y="4.199999999999999" style="font-family: 'Open Sans', verdana, arial, sans-serif; font-size: 12px; fill: rgb(42, 63, 95); fill-opacity: 1; white-space: pre; opacity: 1;" transform="translate(0,271.39)">$20M</text></g><g class="ytick"><text text-anchor="end" x="79" y="4.199999999999999" style="font-family: 'Open Sans', verdana, arial, sans-serif; font-size: 12px; fill: rgb(42, 63, 95); fill-opacity: 1; white-space: pre; opacity: 1;" transform="translate(0,234.24)">$25M</text></g><g class="ytick"><text text-anchor="end" x="79" y="4.199999999999999" style="font-family: 'Open Sans', verdana, arial, sans-serif; font-size: 12px; fill: rgb(42, 63, 95); fill-opacity: 1; white-space: pre; opacity: 1;" transform="translate(0,197.07999999999998)">$30M</text></g><g class="ytick"><text text-anchor="end" x="79" y="4.199999999999999" style="font-family: 'Open Sans', verdana, arial, sans-serif; font-size: 12px; fill: rgb(42, 63, 95); fill-opacity: 1; white-space: pre; opacity: 1;" transform="translate(0,159.93)">$35M</text></g><g class="ytick"><text text-anchor="end" x="79" y="4.199999999999999" style="font-family: 'Open Sans', verdana, arial, sans-serif; font-size: 12px; fill: rgb(42, 63, 95); fill-opacity: 1; white-space: pre; opacity: 1;" transform="translate(0,122.78)">$40M</text></g></g><g class="overaxes-above"/></g></g><g class="polarlayer"/><g class="smithlayer"/><g class="ternarylayer"/><g class="geolayer"/><g class="funnelarealayer"/><g class="pielayer"/><g class="iciclelayer"/><g class="treemaplayer"/><g class="sunburstlayer"/><g class="glimages"/><defs id="topdefs-db511a"><g class="clips"/></defs><g class="layer-above"><g class="imagelayer"/><g class="shapelayer"/></g><g class="infolayer"><g class="g-gtitle"><text class="gtitle" x="35" y="50" text-anchor="start" dy="0em" style="font-family: 'Open Sans', verdana, arial, sans-serif; font-size: 17px; fill: rgb(42, 63, 95); opacity: 1; font-weight: normal; white-space: pre;"><tspan class="line" dy="0em" x="35" y="50">Beethoven X</tspan><tspan class="line" dy="1.3em" x="35" y="50">​<tspan style="font-size:70%" dy="-0.6em">Cumulative Net Flows since Program Announcement, Until Program End + 30 Days</tspan><tspan dy="0.42em">​</tspan></tspan></text></g><g class="g-xtitle"><text class="xtitle" x="350" y="460.3" text-anchor="middle" style="font-family: 'Open Sans', verdana, arial, sans-serif; font-size: 14px; fill: rgb(42, 63, 95); opacity: 1; font-weight: normal; white-space: pre;">Day</text></g><g class="g-ytitle"><text class="ytitle" transform="rotate(-90,24.668750000000003,260)" x="24.668750000000003" y="260" text-anchor="middle" style="font-family: 'Open Sans', verdana, arial, sans-serif; font-size: 14px; fill: rgb(42, 63, 95); opacity: 1; font-weight: normal; white-space: pre;">Cumulative Net Flows (USD)</text></g></g></svg>