<svg class="main-svg" xmlns="http://www.w3.org/2000/svg" xmlns:xlink="http://www.w3.org/1999/xlink" width="700" height="500" style="" viewBox="0 0 700 500"><rect x="0" y="0" width="700" height="500" style="fill: rgb(255, 255, 255); fill-opacity: 1;"/><defs id="defs-2a960f"><g class="clips"><clipPath id="clip2a960fxyplot" class="plotclip"><rect width="540" height="320"/></clipPath><clipPath class="axesclip" id="clip2a960fx"><rect x="80" y="0" width="540" height="500"/></clipPath><clipPath class="axesclip" id="clip2a960fy"><rect x="0" y="100" width="700" height="320"/></clipPath><clipPath class="axesclip" id="clip2a960fxy"><rect x="80" y="100" width="540" height="320"/></clipPath></g><g class="gradients"/><g class="patterns"/></defs><g class="bglayer"><rect class="bg" x="80" y="100" width="540" height="320" style="fill: rgb(229, 236, 246); fill-opacity: 1; stroke-width: 0;"/></g><g class="layer-below"><g class="imagelayer"/><g class="shapelayer"/></g><g class="cartesianlayer"><g class="subplot xy"><g class="layer-subplot"><g class="shapelayer"/><g class="imagelayer"/></g><g class="minor-gridlayer"><g class="x"/><g class="y"/></g><g class="gridlayer"><g class="x"><path class="xgrid crisp" transform="translate(88.61,0)" d="M0,100v320" style="stroke: rgb(255, 255, 255); stroke-opacity: 1; stroke-width: 1px;"/><path class="xgrid crisp" transform="translate(163.64,0)" d="M0,100v320" style="stroke: rgb(255, 255, 255); stroke-opacity: 1; stroke-width: 1px;"/><path class="xgrid crisp" transform="translate(236.22,0)" d="M0,100v320" style="stroke: rgb(255, 255, 255); stroke-opacity: 1; stroke-width: 1px;"/><path class="xgrid crisp" transform="translate(311.25,0)" d="M0,100v320" style="stroke: rgb(255, 255, 255); stroke-opacity: 1; stroke-width: 1px;"/><path class="xgrid crisp" transform="translate(386.29,0)" d="M0,100v320" style="stroke: rgb(255, 255, 255); stroke-opacity: 1; stroke-width: 1px;"/><path class="xgrid crisp" transform="translate(462.55,0)" d="M0,100v320" style="stroke: rgb(255, 255, 255); stroke-opacity: 1; stroke-width: 1px;"/><path class="xgrid crisp" transform="translate(537.5899999999999,0)" d="M0,100v320" style="stroke: rgb(255, 255, 255); stroke-opacity: 1; stroke-width: 1px;"/><path class="xgrid crisp" transform="translate(612.62,0)" d="M0,100v320" style="stroke: rgb(255, 255, 255); stroke-opacity: 1; stroke-width: 1px;"/></g><g class="y"><path class="ygrid crisp" transform="translate(0,410.05)" d="M80,0h540" style="stroke: rgb(255, 255, 255); stroke-opacity: 1; stroke-width: 1px;"/><path class="ygrid crisp" transform="translate(0,326.76)" d="M80,0h540" style="stroke: rgb(255, 255, 255); stroke-opacity: 1; stroke-width: 1px;"/><path class="ygrid crisp" transform="translate(0,285.11)" d="M80,0h540" style="stroke: rgb(255, 255, 255); stroke-opacity: 1; stroke-width: 1px;"/><path class="ygrid crisp" transform="translate(0,243.47)" d="M80,0h540" style="stroke: rgb(255, 255, 255); stroke-opacity: 1; stroke-width: 1px;"/><path class="ygrid crisp" transform="translate(0,201.82)" d="M80,0h540" style="stroke: rgb(255, 255, 255); stroke-opacity: 1; stroke-width: 1px;"/><path class="ygrid crisp" transform="translate(0,160.18)" d="M80,0h540" style="stroke: rgb(255, 255, 255); stroke-opacity: 1; stroke-width: 1px;"/><path class="ygrid crisp" transform="translate(0,118.53)" d="M80,0h540" style="stroke: rgb(255, 255, 255); stroke-opacity: 1; stroke-width: 1px;"/></g></g><g class="zerolinelayer"><path class="yzl zl crisp" transform="translate(0,368.4)" d="M80,0h540" style="stroke: rgb(255, 255, 255); stroke-opacity: 1; stroke-width: 2px;"/></g><path class="xlines-below"/><path class="ylines-below"/><g class="overlines-below"/><g class="xaxislayer-below"/><g class="yaxislayer-below"/><g class="overaxes-below"/><g class="plot" transform="translate(80,100)" clip-path="url(#clip2a960fxyplot)"><g class="scatterlayer mlayer"><g class="trace scatter trace846e6d" style="stroke-miterlimit: 2;"><g class="fills"><g><path class="js-fill" d="M540,268.4L0,268.4L0,268.4L1.23,268.4L2.46,239.53L3.69,201.72L4.92,207.46L6.15,209.14L7.38,201.63L8.61,203.43L9.84,197.4L11.07,195.27L12.3,209.7L15.99,208.2L17.22,209.81L19.68,224.34L20.91,224.1L22.14,220.04L23.37,219.47L24.6,201.67L25.83,201.95L27.06,200.84L28.29,204.39L30.75,211.98L31.98,210.16L33.21,209.17L34.44,209.65L36.9,208.78L38.13,208.62L39.36,206.27L40.59,201.14L41.82,192.2L43.05,197.34L44.28,199.08L45.51,213.07L47.97,199.78L49.2,194.74L50.43,206.88L51.66,207.53L52.89,219.16L54.12,210.88L56.58,211.1L57.81,216.44L60.27,216.03L61.5,215.87L62.73,215.98L63.96,212.91L65.19,208.64L66.42,208.31L68.88,208.81L70.11,207.26L72.57,207.43L73.8,206.4L76.26,206.21L77.49,204.28L78.72,204.1L79.95,206.31L81.18,205.51L82.41,206.97L84.87,206.33L86.1,204.75L87.33,202.75L88.56,203.66L92.26,203.5L93.49,202.37L95.95,204.89L97.18,200.86L98.41,197.95L99.64,197.3L100.87,195.9L102.1,191.4L103.33,209.99L104.56,206.81L105.79,209.02L107.02,222.94L108.25,225.83L109.48,223.96L111.94,220.02L113.17,218.98L114.4,211.17L115.63,212.63L118.09,211.07L119.32,198.7L120.55,204.63L121.78,201.61L123.01,192.54L124.24,197.76L125.47,197.48L126.7,194.35L127.93,194.51L129.16,182.42L130.39,194.39L131.62,195.47L132.85,195.04L134.08,190.28L135.31,189.59L136.54,190.04L137.77,175.1L139,176.76L141.46,181.83L142.69,176.86L143.92,180.42L145.15,180.19L146.38,182.3L147.61,177.02L148.84,172.35L150.07,157.45L151.3,153.01L152.53,156.58L153.76,156.38L154.99,148.18L156.22,147.82L157.45,157.61L158.68,150.02L159.91,152.46L161.14,154.5L162.37,146.94L164.83,156.73L166.06,151.98L167.29,142.22L168.52,155.05L169.75,133.63L170.98,151.71L173.44,200.67L174.67,240.74L175.9,229.39L177.13,225.02L178.36,225.93L179.59,225.51L182.05,207.37L183.28,142.04L185.74,154.27L186.97,141.5L188.2,128.16L189.43,148.13L190.66,147.75L191.89,157.93L194.35,156.62L195.58,149.34L196.81,148.96L198.04,146.76L201.73,156.94L202.96,172.12L204.19,207.74L205.42,203.23L206.65,203.11L207.88,198.48L210.34,144.5L211.57,141.22L212.8,124.46L214.03,133.93L215.26,126.94L216.49,98.79L217.72,125.13L218.95,116.73L220.18,113.48L221.41,103.95L222.64,71.7L223.87,73L225.1,73.97L226.33,78.85L227.56,76.7L228.79,78.51L230.02,80.52L231.25,104.45L232.48,102.39L233.71,98.51L234.94,105.8L236.17,73.21L237.4,35.89L238.63,36.47L239.86,36.85L241.09,46.13L242.32,27.94L243.55,29.64L244.78,16L246.01,57.1L248.47,46.21L249.7,49.87L252.16,61.32L253.39,48.18L254.62,52.95L255.85,75.08L257.08,78.48L258.31,84.68L259.54,79.06L260.77,57.94L262,60.31L263.23,50.19L264.46,47.32L265.69,35.01L266.92,37.74L268.15,89.82L269.38,136.75L270.62,133.59L271.85,134.13L273.08,119.93L274.31,118.37L275.54,122.41L276.77,122.46L278,163.64L280.46,137.73L281.69,155.36L282.92,158.64L284.15,158.36L285.38,159.49L286.61,165.91L287.84,163.16L289.07,166.09L290.3,179.39L291.53,169.85L292.76,170.2L293.99,172.19L295.22,161.88L296.45,165.36L298.91,165.43L300.14,165.24L301.37,158.43L302.6,162.92L303.83,164.34L305.06,195.08L307.52,174.91L308.75,172.25L309.98,168.89L311.21,168.72L312.44,172.7L313.67,180.15L314.9,186.87L316.13,186.95L317.36,186.93L318.59,185.14L321.05,179.65L322.28,181.49L324.74,164.25L325.97,171.64L328.43,190.53L329.66,180.79L332.12,162.94L333.35,158.42L334.58,157.77L335.81,149.38L337.04,149.48L338.27,146.36L340.73,151.24L341.96,156.28L343.19,148.55L344.42,159.17L346.88,163.92L348.11,162.12L349.34,162.74L350.57,173.31L351.8,175.07L353.03,160.48L354.26,161.02L355.49,165.98L356.72,170.39L357.95,163.9L359.18,163.8L360.41,166.47L362.87,153.63L364.1,154.93L365.33,146.74L366.56,148.99L367.79,149.63L369.02,156.55L371.48,159.84L372.71,175.59L373.94,177L375.17,164.2L376.4,165.32L377.63,162.56L378.86,152.66L380.09,152.04L381.32,148.43L382.55,152.24L383.78,155.96L385.01,148.14L386.24,148.02L387.47,150.38L388.7,151.79L389.93,174.84L392.39,175.72L393.62,173.71L396.08,174.72L397.31,183.42L398.54,182.72L399.77,185.45L401,185.1L402.23,186.52L404.69,186.59L405.92,185.64L407.15,186.37L408.38,189.62L410.84,188.92L412.07,192.19L413.3,191.75L414.53,183.53L415.76,184.33L416.99,190.25L418.22,192.48L419.45,202.09L421.91,220.64L423.14,247.47L424.37,251.79L425.6,251.75L428.06,249.85L429.29,250.99L431.75,253.82L432.98,250.44L437.9,249.93L439.13,250.46L440.36,251.74L441.59,244.9L442.82,244.85L444.05,246.8L445.28,245.84L446.51,251.6L447.74,254.15L448.97,254.5L450.21,255.7L451.44,249.13L455.13,249.76L456.36,250.39L458.82,250.41L460.05,250.34L462.51,250.31L463.74,260.39L464.97,267.33L466.2,267.24L467.43,267.56L468.66,255.65L469.89,255.68L471.12,261.08L472.35,262.14L473.58,262.17L476.04,260.66L477.27,261.65L484.65,262.24L485.88,263.85L489.57,263.78L490.8,264.55L499.41,264.78L500.64,264.78L501.87,262.46L503.1,262.48L505.56,262.1L506.79,304L508.02,301.71L509.25,301.4L510.48,300.58L511.71,300.85L514.17,300.62L515.4,301.11L531.39,300.76L532.62,299.94L540,299.99" style="fill: rgb(99, 110, 250); fill-opacity: 0.5; stroke-width: 0;"/></g></g><g class="errorbars"/><g class="lines"><path class="js-line" d="M0,268.4L1.23,268.4L2.46,239.53L3.69,201.72L4.92,207.46L6.15,209.14L7.38,201.63L8.61,203.43L9.84,197.4L11.07,195.27L12.3,209.7L15.99,208.2L17.22,209.81L19.68,224.34L20.91,224.1L22.14,220.04L23.37,219.47L24.6,201.67L25.83,201.95L27.06,200.84L28.29,204.39L30.75,211.98L31.98,210.16L33.21,209.17L34.44,209.65L36.9,208.78L38.13,208.62L39.36,206.27L40.59,201.14L41.82,192.2L43.05,197.34L44.28,199.08L45.51,213.07L47.97,199.78L49.2,194.74L50.43,206.88L51.66,207.53L52.89,219.16L54.12,210.88L56.58,211.1L57.81,216.44L60.27,216.03L61.5,215.87L62.73,215.98L63.96,212.91L65.19,208.64L66.42,208.31L68.88,208.81L70.11,207.26L72.57,207.43L73.8,206.4L76.26,206.21L77.49,204.28L78.72,204.1L79.95,206.31L81.18,205.51L82.41,206.97L84.87,206.33L86.1,204.75L87.33,202.75L88.56,203.66L92.26,203.5L93.49,202.37L95.95,204.89L97.18,200.86L98.41,197.95L99.64,197.3L100.87,195.9L102.1,191.4L103.33,209.99L104.56,206.81L105.79,209.02L107.02,222.94L108.25,225.83L109.48,223.96L111.94,220.02L113.17,218.98L114.4,211.17L115.63,212.63L118.09,211.07L119.32,198.7L120.55,204.63L121.78,201.61L123.01,192.54L124.24,197.76L125.47,197.48L126.7,194.35L127.93,194.51L129.16,182.42L130.39,194.39L131.62,195.47L132.85,195.04L134.08,190.28L135.31,189.59L136.54,190.04L137.77,175.1L139,176.76L141.46,181.83L142.69,176.86L143.92,180.42L145.15,180.19L146.38,182.3L147.61,177.02L148.84,172.35L150.07,157.45L151.3,153.01L152.53,156.58L153.76,156.38L154.99,148.18L156.22,147.82L157.45,157.61L158.68,150.02L159.91,152.46L161.14,154.5L162.37,146.94L164.83,156.73L166.06,151.98L167.29,142.22L168.52,155.05L169.75,133.63L170.98,151.71L173.44,200.67L174.67,240.74L175.9,229.39L177.13,225.02L178.36,225.93L179.59,225.51L182.05,207.37L183.28,142.04L185.74,154.27L186.97,141.5L188.2,128.16L189.43,148.13L190.66,147.75L191.89,157.93L194.35,156.62L195.58,149.34L196.81,148.96L198.04,146.76L201.73,156.94L202.96,172.12L204.19,207.74L205.42,203.23L206.65,203.11L207.88,198.48L210.34,144.5L211.57,141.22L212.8,124.46L214.03,133.93L215.26,126.94L216.49,98.79L217.72,125.13L218.95,116.73L220.18,113.48L221.41,103.95L222.64,71.7L223.87,73L225.1,73.97L226.33,78.85L227.56,76.7L228.79,78.51L230.02,80.52L231.25,104.45L232.48,102.39L233.71,98.51L234.94,105.8L236.17,73.21L237.4,35.89L238.63,36.47L239.86,36.85L241.09,46.13L242.32,27.94L243.55,29.64L244.78,16L246.01,57.1L248.47,46.21L249.7,49.87L252.16,61.32L253.39,48.18L254.62,52.95L255.85,75.08L257.08,78.48L258.31,84.68L259.54,79.06L260.77,57.94L262,60.31L263.23,50.19L264.46,47.32L265.69,35.01L266.92,37.74L268.15,89.82L269.38,136.75L270.62,133.59L271.85,134.13L273.08,119.93L274.31,118.37L275.54,122.41L276.77,122.46L278,163.64L280.46,137.73L281.69,155.36L282.92,158.64L284.15,158.36L285.38,159.49L286.61,165.91L287.84,163.16L289.07,166.09L290.3,179.39L291.53,169.85L292.76,170.2L293.99,172.19L295.22,161.88L296.45,165.36L298.91,165.43L300.14,165.24L301.37,158.43L302.6,162.92L303.83,164.34L305.06,195.08L307.52,174.91L308.75,172.25L309.98,168.89L311.21,168.72L312.44,172.7L313.67,180.15L314.9,186.87L316.13,186.95L317.36,186.93L318.59,185.14L321.05,179.65L322.28,181.49L324.74,164.25L325.97,171.64L328.43,190.53L329.66,180.79L332.12,162.94L333.35,158.42L334.58,157.77L335.81,149.38L337.04,149.48L338.27,146.36L340.73,151.24L341.96,156.28L343.19,148.55L344.42,159.17L346.88,163.92L348.11,162.12L349.34,162.74L350.57,173.31L351.8,175.07L353.03,160.48L354.26,161.02L355.49,165.98L356.72,170.39L357.95,163.9L359.18,163.8L360.41,166.47L362.87,153.63L364.1,154.93L365.33,146.74L366.56,148.99L367.79,149.63L369.02,156.55L371.48,159.84L372.71,175.59L373.94,177L375.17,164.2L376.4,165.32L377.63,162.56L378.86,152.66L380.09,152.04L381.32,148.43L382.55,152.24L383.78,155.96L385.01,148.14L386.24,148.02L387.47,150.38L388.7,151.79L389.93,174.84L392.39,175.72L393.62,173.71L396.08,174.72L397.31,183.42L398.54,182.72L399.77,185.45L401,185.1L402.23,186.52L404.69,186.59L405.92,185.64L407.15,186.37L408.38,189.62L410.84,188.92L412.07,192.19L413.3,191.75L414.53,183.53L415.76,184.33L416.99,190.25L418.22,192.48L419.45,202.09L421.91,220.64L423.14,247.47L424.37,251.79L425.6,251.75L428.06,249.85L429.29,250.99L431.75,253.82L432.98,250.44L437.9,249.93L439.13,250.46L440.36,251.74L441.59,244.9L442.82,244.85L444.05,246.8L445.28,245.84L446.51,251.6L447.74,254.15L448.97,254.5L450.21,255.7L451.44,249.13L455.13,249.76L456.36,250.39L458.82,250.41L460.05,250.34L462.51,250.31L463.74,260.39L464.97,267.33L466.2,267.24L467.43,267.56L468.66,255.65L469.89,255.68L471.12,261.08L472.35,262.14L473.58,262.17L476.04,260.66L477.27,261.65L484.65,262.24L485.88,263.85L489.57,263.78L490.8,264.55L499.41,264.78L500.64,264.78L501.87,262.46L503.1,262.48L505.56,262.1L506.79,304L508.02,301.71L509.25,301.4L510.48,300.58L511.71,300.85L514.17,300.62L515.4,301.11L531.39,300.76L532.62,299.94L540,299.99" style="vector-effect: none; fill: none; stroke: rgb(99, 110, 250); stroke-opacity: 1; stroke-width: 2px; opacity: 1;"/></g><g class="points"/><g class="text"/></g></g></g><g class="overplot"/><path class="xlines-above crisp" d="M0,0" style="fill: none;"/><path class="ylines-above crisp" d="M0,0" style="fill: none;"/><g class="overlines-above"/><g class="xaxislayer-above"><g class="xtick"><text text-anchor="middle" x="0" y="433" transform="translate(88.61,0)" style="font-family: 'Open Sans', verdana, arial, sans-serif; font-size: 12px; fill: rgb(42, 63, 95); fill-opacity: 1; white-space: pre; opacity: 1;">Nov 2022</text></g><g class="xtick"><text text-anchor="middle" x="0" y="433" style="font-family: 'Open Sans', verdana, arial, sans-serif; font-size: 12px; fill: rgb(42, 63, 95); fill-opacity: 1; white-space: pre; opacity: 1;" transform="translate(163.64,0)">Jan 2023</text></g><g class="xtick"><text text-anchor="middle" x="0" y="433" style="font-family: 'Open Sans', verdana, arial, sans-serif; font-size: 12px; fill: rgb(42, 63, 95); fill-opacity: 1; white-space: pre; opacity: 1;" transform="translate(236.22,0)">Mar 2023</text></g><g class="xtick"><text text-anchor="middle" x="0" y="433" style="font-family: 'Open Sans', verdana, arial, sans-serif; font-size: 12px; fill: rgb(42, 63, 95); fill-opacity: 1; white-space: pre; opacity: 1;" transform="translate(311.25,0)">May 2023</text></g><g class="xtick"><text text-anchor="middle" x="0" y="433" style="font-family: 'Open Sans', verdana, arial, sans-serif; font-size: 12px; fill: rgb(42, 63, 95); fill-opacity: 1; white-space: pre; opacity: 1;" transform="translate(386.29,0)">Jul 2023</text></g><g class="xtick"><text text-anchor="middle" x="0" y="433" style="font-family: 'Open Sans', verdana, arial, sans-serif; font-size: 12px; fill: rgb(42, 63, 95); fill-opacity: 1; white-space: pre; opacity: 1;" transform="translate(462.55,0)">Sep 2023</text></g><g class="xtick"><text text-anchor="middle" x="0" y="433" style="font-family: 'Open Sans', verdana, arial, sans-serif; font-size: 12px; fill: rgb(42, 63, 95); fill-opacity: 1; white-space: pre; opacity: 1;" transform="translate(537.5899999999999,0)">Nov 2023</text></g><g class="xtick"><text text-anchor="middle" x="0" y="433" style="font-family: 'Open Sans', verdana, arial, sans-serif; font-size: 12px; fill: rgb(42, 63, 95); fill-opacity: 1; white-space: pre; opacity: 1;" transform="translate(612.62,0)">Jan 2024</text></g></g><g class="yaxislayer-above"><g class="ytick"><text text-anchor="end" x="79" y="4.199999999999999" transform="translate(0,410.05)" style="font-family: 'Open Sans', verdana, arial, sans-serif; font-size: 12px; fill: rgb(42, 63, 95); fill-opacity: 1; white-space: pre; opacity: 1;">$−0.5M</text></g><g class="ytick"><text text-anchor="end" x="79" y="4.199999999999999" style="font-family: 'Open Sans', verdana, arial, sans-serif; font-size: 12px; fill: rgb(42, 63, 95); fill-opacity: 1; white-space: pre; opacity: 1;" transform="translate(0,368.4)">$0</text></g><g class="ytick"><text text-anchor="end" x="79" y="4.199999999999999" style="font-family: 'Open Sans', verdana, arial, sans-serif; font-size: 12px; fill: rgb(42, 63, 95); fill-opacity: 1; white-space: pre; opacity: 1;" transform="translate(0,326.76)">$0.5M</text></g><g class="ytick"><text text-anchor="end" x="79" y="4.199999999999999" style="font-family: 'Open Sans', verdana, arial, sans-serif; font-size: 12px; fill: rgb(42, 63, 95); fill-opacity: 1; white-space: pre; opacity: 1;" transform="translate(0,285.11)">$1M</text></g><g class="ytick"><text text-anchor="end" x="79" y="4.199999999999999" style="font-family: 'Open Sans', verdana, arial, sans-serif; font-size: 12px; fill: rgb(42, 63, 95); fill-opacity: 1; white-space: pre; opacity: 1;" transform="translate(0,243.47)">$1.5M</text></g><g class="ytick"><text text-anchor="end" x="79" y="4.199999999999999" style="font-family: 'Open Sans', verdana, arial, sans-serif; font-size: 12px; fill: rgb(42, 63, 95); fill-opacity: 1; white-space: pre; opacity: 1;" transform="translate(0,201.82)">$2M</text></g><g class="ytick"><text text-anchor="end" x="79" y="4.199999999999999" style="font-family: 'Open Sans', verdana, arial, sans-serif; font-size: 12px; fill: rgb(42, 63, 95); fill-opacity: 1; white-space: pre; opacity: 1;" transform="translate(0,160.18)">$2.5M</text></g><g class="ytick"><text text-anchor="end" x="79" y="4.199999999999999" style="font-family: 'Open Sans', verdana, arial, sans-serif; font-size: 12px; fill: rgb(42, 63, 95); fill-opacity: 1; white-space: pre; opacity: 1;" transform="translate(0,118.53)">$3M</text></g></g><g class="overaxes-above"/></g></g><g class="polarlayer"/><g class="smithlayer"/><g class="ternarylayer"/><g class="geolayer"/><g class="funnelarealayer"/><g class="pielayer"/><g class="iciclelayer"/><g class="treemaplayer"/><g class="sunburstlayer"/><g class="glimages"/><defs id="topdefs-2a960f"><g class="clips"/></defs><g class="layer-above"><g class="imagelayer"/><g class="shapelayer"/></g><g class="infolayer"><g class="g-gtitle"><text class="gtitle" x="35" y="50" text-anchor="start" dy="0em" style="font-family: 'Open Sans', verdana, arial, sans-serif; font-size: 17px; fill: rgb(42, 63, 95); opacity: 1; font-weight: normal; white-space: pre;"><tspan class="line" dy="0em" x="35" y="50">Synthetix - All Synthetix Hop Pools</tspan><tspan class="line" dy="1.3em" x="35" y="50">​<tspan style="font-size:70%" dy="-0.6em">Cumulative Net Flows since Program Announcement, Until Program End + 30 Days</tspan><tspan dy="0.42em">​</tspan></tspan></text></g><g class="g-xtitle"><text class="xtitle" x="350" y="460.3" text-anchor="middle" style="font-family: 'Open Sans', verdana, arial, sans-serif; font-size: 14px; fill: rgb(42, 63, 95); opacity: 1; font-weight: normal; white-space: pre;">Day</text></g><g class="g-ytitle"><text class="ytitle" transform="rotate(-90,14.340625000000003,260)" x="14.340625000000003" y="260" text-anchor="middle" style="font-family: 'Open Sans', verdana, arial, sans-serif; font-size: 14px; fill: rgb(42, 63, 95); opacity: 1; font-weight: normal; white-space: pre;">Cumulative Net Flows (USD)</text></g></g></svg>