<svg class="main-svg" xmlns="http://www.w3.org/2000/svg" xmlns:xlink="http://www.w3.org/1999/xlink" width="700" height="500" style="" viewBox="0 0 700 500"><rect x="0" y="0" width="700" height="500" style="fill: rgb(255, 255, 255); fill-opacity: 1;"/><defs id="defs-7f432d"><g class="clips"><clipPath id="clip7f432dxyplot" class="plotclip"><rect width="540" height="320"/></clipPath><clipPath class="axesclip" id="clip7f432dx"><rect x="80" y="0" width="540" height="500"/></clipPath><clipPath class="axesclip" id="clip7f432dy"><rect x="0" y="100" width="700" height="320"/></clipPath><clipPath class="axesclip" id="clip7f432dxy"><rect x="80" y="100" width="540" height="320"/></clipPath></g><g class="gradients"/><g class="patterns"/></defs><g class="bglayer"><rect class="bg" x="80" y="100" width="540" height="320" style="fill: rgb(229, 236, 246); fill-opacity: 1; stroke-width: 0;"/></g><g class="layer-below"><g class="imagelayer"/><g class="shapelayer"/></g><g class="cartesianlayer"><g class="subplot xy"><g class="layer-subplot"><g class="shapelayer"/><g class="imagelayer"/></g><g class="minor-gridlayer"><g class="x"/><g class="y"/></g><g class="gridlayer"><g class="x"><path class="xgrid crisp" transform="translate(83.62,0)" d="M0,100v320" style="stroke: rgb(255, 255, 255); stroke-opacity: 1; stroke-width: 1px;"/><path class="xgrid crisp" transform="translate(195.97,0)" d="M0,100v320" style="stroke: rgb(255, 255, 255); stroke-opacity: 1; stroke-width: 1px;"/><path class="xgrid crisp" transform="translate(308.32,0)" d="M0,100v320" style="stroke: rgb(255, 255, 255); stroke-opacity: 1; stroke-width: 1px;"/><path class="xgrid crisp" transform="translate(409.8,0)" d="M0,100v320" style="stroke: rgb(255, 255, 255); stroke-opacity: 1; stroke-width: 1px;"/><path class="xgrid crisp" transform="translate(522.15,0)" d="M0,100v320" style="stroke: rgb(255, 255, 255); stroke-opacity: 1; stroke-width: 1px;"/></g><g class="y"><path class="ygrid crisp" transform="translate(0,402)" d="M80,0h540" style="stroke: rgb(255, 255, 255); stroke-opacity: 1; stroke-width: 1px;"/><path class="ygrid crisp" transform="translate(0,317.63)" d="M80,0h540" style="stroke: rgb(255, 255, 255); stroke-opacity: 1; stroke-width: 1px;"/><path class="ygrid crisp" transform="translate(0,275.45)" d="M80,0h540" style="stroke: rgb(255, 255, 255); stroke-opacity: 1; stroke-width: 1px;"/><path class="ygrid crisp" transform="translate(0,233.26)" d="M80,0h540" style="stroke: rgb(255, 255, 255); stroke-opacity: 1; stroke-width: 1px;"/><path class="ygrid crisp" transform="translate(0,191.07999999999998)" d="M80,0h540" style="stroke: rgb(255, 255, 255); stroke-opacity: 1; stroke-width: 1px;"/><path class="ygrid crisp" transform="translate(0,148.9)" d="M80,0h540" style="stroke: rgb(255, 255, 255); stroke-opacity: 1; stroke-width: 1px;"/><path class="ygrid crisp" transform="translate(0,106.71)" d="M80,0h540" style="stroke: rgb(255, 255, 255); stroke-opacity: 1; stroke-width: 1px;"/></g></g><g class="zerolinelayer"><path class="yzl zl crisp" transform="translate(0,359.82)" d="M80,0h540" style="stroke: rgb(255, 255, 255); stroke-opacity: 1; stroke-width: 2px;"/></g><path class="xlines-below"/><path class="ylines-below"/><g class="overlines-below"/><g class="xaxislayer-below"/><g class="yaxislayer-below"/><g class="overaxes-below"/><g class="plot" transform="translate(80,100)" clip-path="url(#clip7f432dxyplot)"><g class="scatterlayer mlayer"><g class="trace scatter trace9ff953" style="stroke-miterlimit: 2;"><g class="fills"><g><path class="js-fill" d="M540,259.82L0,259.82L0,265.62L3.62,275.55L7.25,263.46L10.87,260.06L14.5,230.71L18.12,236.62L21.74,237.98L25.37,236.22L28.99,224.67L32.62,221.59L36.24,219.98L43.49,212.2L47.11,210.44L50.74,216.98L54.36,198.48L57.99,200.99L61.61,201.97L65.23,138.21L68.86,141.13L72.48,141.14L76.11,135.89L79.73,141.26L83.36,129.82L86.98,131.57L90.6,131.26L97.85,130.87L101.48,140.51L105.1,140.22L108.72,141.43L112.35,140.4L115.97,93.73L119.6,109.42L123.22,109.94L126.85,105.48L130.47,94.85L134.09,105.08L137.72,107.74L141.34,108.16L144.97,107.18L148.59,102.07L152.21,102.91L155.84,99.12L159.46,103.33L170.34,56.81L173.96,55.57L177.58,53.39L181.21,34.6L184.83,38.14L188.46,24.97L192.08,26.1L195.7,23.32L199.33,25.8L202.95,34.85L206.58,29.55L210.2,32.2L213.83,32.48L217.45,30.28L221.07,24.17L224.7,29.24L228.32,27.08L231.95,16.95L235.57,18.55L239.19,16.88L242.82,23L246.44,16L253.69,26.6L257.32,44.55L260.94,123.27L264.56,158.63L268.19,165.47L271.81,165.58L275.44,165.6L279.06,162.6L282.68,143.04L286.31,118.43L289.93,113.74L293.56,111.99L297.18,106.32L300.81,108.91L304.43,120.57L308.05,116.6L311.68,114.92L315.3,115.84L318.93,115.53L322.55,120.11L326.17,122.15L329.8,160.57L337.05,163.6L340.67,167.02L344.3,168.71L347.92,171.63L351.54,156.96L355.17,169.64L358.79,166.09L362.42,149.06L366.04,152.06L369.66,162.12L373.29,162.52L376.91,160.71L380.54,149.24L384.16,141.13L391.41,126.92L395.03,144.67L398.66,137.05L402.28,142.49L405.91,138.41L409.53,144.69L413.15,139.4L416.78,141.08L420.4,131.11L424.03,128.92L427.65,141.97L431.28,142.9L434.9,152.13L438.52,151L442.15,153.56L445.77,154.95L449.4,147.31L453.02,146.34L456.64,140.2L460.27,142.3L467.52,138.89L471.14,144.35L478.39,141.24L482.01,143.15L489.26,139.43L492.89,143.63L496.51,143.84L500.13,147.2L503.76,148.36L507.38,157.1L511.01,152.89L514.63,155.79L518.26,165.36L521.88,165.56L525.5,168.56L529.13,168.33L532.75,162.92L536.38,162.7L539.39,155.62L540,304" style="fill: rgb(99, 110, 250); fill-opacity: 0.5; stroke-width: 0;"/></g></g><g class="errorbars"/><g class="lines"><path class="js-line" d="M0,265.62L3.62,275.55L7.25,263.46L10.87,260.06L14.5,230.71L18.12,236.62L21.74,237.98L25.37,236.22L28.99,224.67L32.62,221.59L36.24,219.98L43.49,212.2L47.11,210.44L50.74,216.98L54.36,198.48L57.99,200.99L61.61,201.97L65.23,138.21L68.86,141.13L72.48,141.14L76.11,135.89L79.73,141.26L83.36,129.82L86.98,131.57L90.6,131.26L97.85,130.87L101.48,140.51L105.1,140.22L108.72,141.43L112.35,140.4L115.97,93.73L119.6,109.42L123.22,109.94L126.85,105.48L130.47,94.85L134.09,105.08L137.72,107.74L141.34,108.16L144.97,107.18L148.59,102.07L152.21,102.91L155.84,99.12L159.46,103.33L170.34,56.81L173.96,55.57L177.58,53.39L181.21,34.6L184.83,38.14L188.46,24.97L192.08,26.1L195.7,23.32L199.33,25.8L202.95,34.85L206.58,29.55L210.2,32.2L213.83,32.48L217.45,30.28L221.07,24.17L224.7,29.24L228.32,27.08L231.95,16.95L235.57,18.55L239.19,16.88L242.82,23L246.44,16L253.69,26.6L257.32,44.55L260.94,123.27L264.56,158.63L268.19,165.47L271.81,165.58L275.44,165.6L279.06,162.6L282.68,143.04L286.31,118.43L289.93,113.74L293.56,111.99L297.18,106.32L300.81,108.91L304.43,120.57L308.05,116.6L311.68,114.92L315.3,115.84L318.93,115.53L322.55,120.11L326.17,122.15L329.8,160.57L337.05,163.6L340.67,167.02L344.3,168.71L347.92,171.63L351.54,156.96L355.17,169.64L358.79,166.09L362.42,149.06L366.04,152.06L369.66,162.12L373.29,162.52L376.91,160.71L380.54,149.24L384.16,141.13L391.41,126.92L395.03,144.67L398.66,137.05L402.28,142.49L405.91,138.41L409.53,144.69L413.15,139.4L416.78,141.08L420.4,131.11L424.03,128.92L427.65,141.97L431.28,142.9L434.9,152.13L438.52,151L442.15,153.56L445.77,154.95L449.4,147.31L453.02,146.34L456.64,140.2L460.27,142.3L467.52,138.89L471.14,144.35L478.39,141.24L482.01,143.15L489.26,139.43L492.89,143.63L496.51,143.84L500.13,147.2L503.76,148.36L507.38,157.1L511.01,152.89L514.63,155.79L518.26,165.36L521.88,165.56L525.5,168.56L529.13,168.33L532.75,162.92L536.38,162.7L539.39,155.62L540,304" style="vector-effect: none; fill: none; stroke: rgb(99, 110, 250); stroke-opacity: 1; stroke-width: 2px; opacity: 1;"/></g><g class="points"/><g class="text"/></g></g></g><g class="overplot"/><path class="xlines-above crisp" d="M0,0" style="fill: none;"/><path class="ylines-above crisp" d="M0,0" style="fill: none;"/><g class="overlines-above"/><g class="xaxislayer-above"><g class="xtick"><text text-anchor="middle" x="0" y="433" transform="translate(83.62,0)" style="font-family: 'Open Sans', verdana, arial, sans-serif; font-size: 12px; fill: rgb(42, 63, 95); fill-opacity: 1; white-space: pre; opacity: 1;">Dec 2022</text></g><g class="xtick"><text text-anchor="middle" x="0" y="433" style="font-family: 'Open Sans', verdana, arial, sans-serif; font-size: 12px; fill: rgb(42, 63, 95); fill-opacity: 1; white-space: pre; opacity: 1;" transform="translate(195.97,0)">Jan 2023</text></g><g class="xtick"><text text-anchor="middle" x="0" y="433" style="font-family: 'Open Sans', verdana, arial, sans-serif; font-size: 12px; fill: rgb(42, 63, 95); fill-opacity: 1; white-space: pre; opacity: 1;" transform="translate(308.32,0)">Feb 2023</text></g><g class="xtick"><text text-anchor="middle" x="0" y="433" style="font-family: 'Open Sans', verdana, arial, sans-serif; font-size: 12px; fill: rgb(42, 63, 95); fill-opacity: 1; white-space: pre; opacity: 1;" transform="translate(409.8,0)">Mar 2023</text></g><g class="xtick"><text text-anchor="middle" x="0" y="433" style="font-family: 'Open Sans', verdana, arial, sans-serif; font-size: 12px; fill: rgb(42, 63, 95); fill-opacity: 1; white-space: pre; opacity: 1;" transform="translate(522.15,0)">Apr 2023</text></g></g><g class="yaxislayer-above"><g class="ytick"><text text-anchor="end" x="79" y="4.199999999999999" transform="translate(0,402)" style="font-family: 'Open Sans', verdana, arial, sans-serif; font-size: 12px; fill: rgb(42, 63, 95); fill-opacity: 1; white-space: pre; opacity: 1;">$−2M</text></g><g class="ytick"><text text-anchor="end" x="79" y="4.199999999999999" style="font-family: 'Open Sans', verdana, arial, sans-serif; font-size: 12px; fill: rgb(42, 63, 95); fill-opacity: 1; white-space: pre; opacity: 1;" transform="translate(0,359.82)">$0</text></g><g class="ytick"><text text-anchor="end" x="79" y="4.199999999999999" style="font-family: 'Open Sans', verdana, arial, sans-serif; font-size: 12px; fill: rgb(42, 63, 95); fill-opacity: 1; white-space: pre; opacity: 1;" transform="translate(0,317.63)">$2M</text></g><g class="ytick"><text text-anchor="end" x="79" y="4.199999999999999" style="font-family: 'Open Sans', verdana, arial, sans-serif; font-size: 12px; fill: rgb(42, 63, 95); fill-opacity: 1; white-space: pre; opacity: 1;" transform="translate(0,275.45)">$4M</text></g><g class="ytick"><text text-anchor="end" x="79" y="4.199999999999999" style="font-family: 'Open Sans', verdana, arial, sans-serif; font-size: 12px; fill: rgb(42, 63, 95); fill-opacity: 1; white-space: pre; opacity: 1;" transform="translate(0,233.26)">$6M</text></g><g class="ytick"><text text-anchor="end" x="79" y="4.199999999999999" style="font-family: 'Open Sans', verdana, arial, sans-serif; font-size: 12px; fill: rgb(42, 63, 95); fill-opacity: 1; white-space: pre; opacity: 1;" transform="translate(0,191.07999999999998)">$8M</text></g><g class="ytick"><text text-anchor="end" x="79" y="4.199999999999999" style="font-family: 'Open Sans', verdana, arial, sans-serif; font-size: 12px; fill: rgb(42, 63, 95); fill-opacity: 1; white-space: pre; opacity: 1;" transform="translate(0,148.9)">$10M</text></g><g class="ytick"><text text-anchor="end" x="79" y="4.199999999999999" style="font-family: 'Open Sans', verdana, arial, sans-serif; font-size: 12px; fill: rgb(42, 63, 95); fill-opacity: 1; white-space: pre; opacity: 1;" transform="translate(0,106.71)">$12M</text></g></g><g class="overaxes-above"/></g></g><g class="polarlayer"/><g class="smithlayer"/><g class="ternarylayer"/><g class="geolayer"/><g class="funnelarealayer"/><g class="pielayer"/><g class="iciclelayer"/><g class="treemaplayer"/><g class="sunburstlayer"/><g class="glimages"/><defs id="topdefs-7f432d"><g class="clips"/></defs><g class="layer-above"><g class="imagelayer"/><g class="shapelayer"/></g><g class="infolayer"><g class="g-gtitle"><text class="gtitle" x="35" y="50" text-anchor="start" dy="0em" style="font-family: 'Open Sans', verdana, arial, sans-serif; font-size: 17px; fill: rgb(42, 63, 95); opacity: 1; font-weight: normal; white-space: pre;"><tspan class="line" dy="0em" x="35" y="50">Dforce</tspan><tspan class="line" dy="1.3em" x="35" y="50">​<tspan style="font-size:70%" dy="-0.6em">Cumulative Net Flows since Program Announcement, Until Program End + 30 Days</tspan><tspan dy="0.42em">​</tspan></tspan></text></g><g class="g-xtitle"><text class="xtitle" x="350" y="460.3" text-anchor="middle" style="font-family: 'Open Sans', verdana, arial, sans-serif; font-size: 14px; fill: rgb(42, 63, 95); opacity: 1; font-weight: normal; white-space: pre;">Day</text></g><g class="g-ytitle"><text class="ytitle" transform="rotate(-90,24.340625000000003,260)" x="24.340625000000003" y="260" text-anchor="middle" style="font-family: 'Open Sans', verdana, arial, sans-serif; font-size: 14px; fill: rgb(42, 63, 95); opacity: 1; font-weight: normal; white-space: pre;">Cumulative Net Flows (USD)</text></g></g></svg>