<svg class="main-svg" xmlns="http://www.w3.org/2000/svg" xmlns:xlink="http://www.w3.org/1999/xlink" width="700" height="500" style="" viewBox="0 0 700 500"><rect x="0" y="0" width="700" height="500" style="fill: rgb(255, 255, 255); fill-opacity: 1;"/><defs id="defs-51bd79"><g class="clips"><clipPath id="clip51bd79xyplot" class="plotclip"><rect width="540" height="320"/></clipPath><clipPath class="axesclip" id="clip51bd79x"><rect x="80" y="0" width="540" height="500"/></clipPath><clipPath class="axesclip" id="clip51bd79y"><rect x="0" y="100" width="700" height="320"/></clipPath><clipPath class="axesclip" id="clip51bd79xy"><rect x="80" y="100" width="540" height="320"/></clipPath></g><g class="gradients"/><g class="patterns"/></defs><g class="bglayer"><rect class="bg" x="80" y="100" width="540" height="320" style="fill: rgb(229, 236, 246); fill-opacity: 1; stroke-width: 0;"/></g><g class="layer-below"><g class="imagelayer"/><g class="shapelayer"/></g><g class="cartesianlayer"><g class="subplot xy"><g class="layer-subplot"><g class="shapelayer"/><g class="imagelayer"/></g><g class="minor-gridlayer"><g class="x"/><g class="y"/></g><g class="gridlayer"><g class="x"><path class="xgrid crisp" transform="translate(121.81,0)" d="M0,100v320" style="stroke: rgb(255, 255, 255); stroke-opacity: 1; stroke-width: 1px;"/><path class="xgrid crisp" transform="translate(194.69,0)" d="M0,100v320" style="stroke: rgb(255, 255, 255); stroke-opacity: 1; stroke-width: 1px;"/><path class="xgrid crisp" transform="translate(265.18,0)" d="M0,100v320" style="stroke: rgb(255, 255, 255); stroke-opacity: 1; stroke-width: 1px;"/><path class="xgrid crisp" transform="translate(338.05,0)" d="M0,100v320" style="stroke: rgb(255, 255, 255); stroke-opacity: 1; stroke-width: 1px;"/><path class="xgrid crisp" transform="translate(410.93,0)" d="M0,100v320" style="stroke: rgb(255, 255, 255); stroke-opacity: 1; stroke-width: 1px;"/><path class="xgrid crisp" transform="translate(485,0)" d="M0,100v320" style="stroke: rgb(255, 255, 255); stroke-opacity: 1; stroke-width: 1px;"/><path class="xgrid crisp" transform="translate(557.88,0)" d="M0,100v320" style="stroke: rgb(255, 255, 255); stroke-opacity: 1; stroke-width: 1px;"/></g><g class="y"><path class="ygrid crisp" transform="translate(0,378.89)" d="M80,0h540" style="stroke: rgb(255, 255, 255); stroke-opacity: 1; stroke-width: 1px;"/><path class="ygrid crisp" transform="translate(0,239.97)" d="M80,0h540" style="stroke: rgb(255, 255, 255); stroke-opacity: 1; stroke-width: 1px;"/><path class="ygrid crisp" transform="translate(0,170.51999999999998)" d="M80,0h540" style="stroke: rgb(255, 255, 255); stroke-opacity: 1; stroke-width: 1px;"/><path class="ygrid crisp" transform="translate(0,101.06)" d="M80,0h540" style="stroke: rgb(255, 255, 255); stroke-opacity: 1; stroke-width: 1px;"/></g></g><g class="zerolinelayer"><path class="yzl zl crisp" transform="translate(0,309.43)" d="M80,0h540" style="stroke: rgb(255, 255, 255); stroke-opacity: 1; stroke-width: 2px;"/></g><path class="xlines-below"/><path class="ylines-below"/><g class="overlines-below"/><g class="xaxislayer-below"/><g class="yaxislayer-below"/><g class="overaxes-below"/><g class="plot" transform="translate(80,100)" clip-path="url(#clip51bd79xyplot)"><g class="scatterlayer mlayer"><g class="trace scatter trace63bc43" style="stroke-miterlimit: 2;"><g class="fills"><g><path class="js-fill" d="M540,209.43L0,209.43L0,209.47L22.7,209.36L23.89,210.52L25.09,203.69L26.28,203.57L27.48,203.57L28.67,206.01L29.87,206.13L31.06,204.79L33.45,205.82L34.65,210.12L38.23,202.6L39.42,202.95L43.01,202.32L44.2,202.38L48.98,201.56L50.18,212.41L51.37,213.58L52.57,223.73L53.76,222.46L54.96,223.12L56.15,223.13L57.35,224.04L58.54,215.57L59.73,214.31L60.93,218.09L62.12,216.92L63.32,216.04L64.51,216.53L65.71,217.48L66.9,217.44L68.1,218.61L69.29,218.28L70.49,217.39L71.68,212.9L72.88,212.53L74.07,217.12L75.27,217.55L76.46,216.89L77.65,210.67L78.85,208.55L81.24,209L82.43,207.29L83.63,206.54L84.82,202.78L86.02,202.49L87.21,200.41L88.41,206.48L89.6,185.34L90.8,196.07L91.99,196.25L93.19,200.45L94.38,213.69L95.58,213.84L96.77,219.34L97.96,220.12L99.16,219.77L100.35,214.78L101.55,214.88L102.74,216.39L103.94,216.63L108.72,216.84L109.91,217.73L117.08,217.37L118.27,217.26L119.47,217.13L120.66,218.91L121.86,216.65L123.05,216.48L124.25,213.49L125.44,212.76L126.64,212.63L127.83,211.34L130.22,209.57L131.42,209.83L132.61,209.71L133.81,207.24L135,206.83L136.19,200.96L138.58,193.82L139.78,197.2L142.17,181L143.36,178.38L145.75,160.05L146.95,156.37L148.14,156.4L149.34,153.83L150.53,145.19L151.73,142.9L154.12,136.15L155.31,135.14L156.5,131.21L157.7,108.69L158.89,107.12L160.09,93.58L161.28,95.94L162.48,96.03L164.87,84.56L166.06,83.83L167.26,83.87L168.45,80.69L169.65,81.95L170.84,76.95L172.04,75.5L173.23,65.87L175.62,57.13L176.81,64.21L178.01,60.27L179.2,48.24L180.4,48.81L181.59,47.94L183.98,34.9L185.18,23.39L186.37,17.51L187.57,17.25L188.76,16L189.96,16.94L191.15,16.09L192.35,19.17L193.54,20.63L194.73,25.77L195.93,91.26L197.12,223.45L198.32,222.76L199.51,201.99L200.71,158.08L201.9,151.83L203.1,142.27L204.29,119.51L206.68,68.5L207.88,65.5L209.07,68.03L210.27,67.7L212.65,76.76L213.85,79.79L215.04,80.14L216.24,86.24L217.43,86.23L218.63,89.54L219.82,90.06L221.02,83.97L223.41,83.91L224.6,87.95L225.8,93.62L226.99,92.04L229.38,85.23L230.58,85.88L231.77,99.14L232.96,103L234.16,104.08L235.35,103.52L236.55,103.08L237.74,89.54L238.94,91.41L240.13,91.45L244.91,91.45L246.11,94.61L247.3,88.49L248.5,88.66L250.88,75.03L252.08,71.59L253.27,74.22L254.47,73.16L258.05,72.57L259.25,74.01L260.44,75.58L261.64,79.31L262.83,80.96L264.03,85.53L265.22,85.52L266.42,90.13L268.81,95.32L270,102.29L271.19,102.94L272.39,102.66L273.58,102.71L274.78,104.17L275.97,98.34L277.17,98.49L278.36,100.4L279.56,98.19L280.75,102.24L281.95,102.39L284.34,102.25L285.53,102.6L287.92,103.25L289.12,108.49L290.31,107.97L291.5,108.51L293.89,109.18L295.09,111.19L296.28,111.58L297.48,114.42L299.87,115.17L301.06,119.75L303.45,101.38L304.65,101.54L305.84,115.4L307.04,116.36L309.42,116.35L310.62,117.14L311.81,131.9L313.01,135.56L314.2,132.92L315.4,132.99L317.79,144.93L318.98,152.09L321.37,152.54L322.57,153.27L323.76,153.7L324.96,158.43L326.15,161.32L327.35,174.32L329.73,195.28L330.93,201.46L332.12,202.34L333.32,207.66L334.51,224.11L335.71,224.24L339.29,225.09L340.49,225.12L341.68,225.57L342.88,227.16L344.07,279.63L345.27,279.72L346.46,290.99L347.65,290.99L350.04,292.08L351.24,292.13L352.43,294.12L353.63,294.36L381.11,295.42L382.3,296.21L520.88,297.51L522.08,304L540,304" style="fill: rgb(99, 110, 250); fill-opacity: 0.5; stroke-width: 0;"/></g></g><g class="errorbars"/><g class="lines"><path class="js-line" d="M0,209.47L22.7,209.36L23.89,210.52L25.09,203.69L26.28,203.57L27.48,203.57L28.67,206.01L29.87,206.13L31.06,204.79L33.45,205.82L34.65,210.12L38.23,202.6L39.42,202.95L43.01,202.32L44.2,202.38L48.98,201.56L50.18,212.41L51.37,213.58L52.57,223.73L53.76,222.46L54.96,223.12L56.15,223.13L57.35,224.04L58.54,215.57L59.73,214.31L60.93,218.09L62.12,216.92L63.32,216.04L64.51,216.53L65.71,217.48L66.9,217.44L68.1,218.61L69.29,218.28L70.49,217.39L71.68,212.9L72.88,212.53L74.07,217.12L75.27,217.55L76.46,216.89L77.65,210.67L78.85,208.55L81.24,209L82.43,207.29L83.63,206.54L84.82,202.78L86.02,202.49L87.21,200.41L88.41,206.48L89.6,185.34L90.8,196.07L91.99,196.25L93.19,200.45L94.38,213.69L95.58,213.84L96.77,219.34L97.96,220.12L99.16,219.77L100.35,214.78L101.55,214.88L102.74,216.39L103.94,216.63L108.72,216.84L109.91,217.73L117.08,217.37L118.27,217.26L119.47,217.13L120.66,218.91L121.86,216.65L123.05,216.48L124.25,213.49L125.44,212.76L126.64,212.63L127.83,211.34L130.22,209.57L131.42,209.83L132.61,209.71L133.81,207.24L135,206.83L136.19,200.96L138.58,193.82L139.78,197.2L142.17,181L143.36,178.38L145.75,160.05L146.95,156.37L148.14,156.4L149.34,153.83L150.53,145.19L151.73,142.9L154.12,136.15L155.31,135.14L156.5,131.21L157.7,108.69L158.89,107.12L160.09,93.58L161.28,95.94L162.48,96.03L164.87,84.56L166.06,83.83L167.26,83.87L168.45,80.69L169.65,81.95L170.84,76.95L172.04,75.5L173.23,65.87L175.62,57.13L176.81,64.21L178.01,60.27L179.2,48.24L180.4,48.81L181.59,47.94L183.98,34.9L185.18,23.39L186.37,17.51L187.57,17.25L188.76,16L189.96,16.94L191.15,16.09L192.35,19.17L193.54,20.63L194.73,25.77L195.93,91.26L197.12,223.45L198.32,222.76L199.51,201.99L200.71,158.08L201.9,151.83L203.1,142.27L204.29,119.51L206.68,68.5L207.88,65.5L209.07,68.03L210.27,67.7L212.65,76.76L213.85,79.79L215.04,80.14L216.24,86.24L217.43,86.23L218.63,89.54L219.82,90.06L221.02,83.97L223.41,83.91L224.6,87.95L225.8,93.62L226.99,92.04L229.38,85.23L230.58,85.88L231.77,99.14L232.96,103L234.16,104.08L235.35,103.52L236.55,103.08L237.74,89.54L238.94,91.41L240.13,91.45L244.91,91.45L246.11,94.61L247.3,88.49L248.5,88.66L250.88,75.03L252.08,71.59L253.27,74.22L254.47,73.16L258.05,72.57L259.25,74.01L260.44,75.58L261.64,79.31L262.83,80.96L264.03,85.53L265.22,85.52L266.42,90.13L268.81,95.32L270,102.29L271.19,102.94L272.39,102.66L273.58,102.71L274.78,104.17L275.97,98.34L277.17,98.49L278.36,100.4L279.56,98.19L280.75,102.24L281.95,102.39L284.34,102.25L285.53,102.6L287.92,103.25L289.12,108.49L290.31,107.97L291.5,108.51L293.89,109.18L295.09,111.19L296.28,111.58L297.48,114.42L299.87,115.17L301.06,119.75L303.45,101.38L304.65,101.54L305.84,115.4L307.04,116.36L309.42,116.35L310.62,117.14L311.81,131.9L313.01,135.56L314.2,132.92L315.4,132.99L317.79,144.93L318.98,152.09L321.37,152.54L322.57,153.27L323.76,153.7L324.96,158.43L326.15,161.32L327.35,174.32L329.73,195.28L330.93,201.46L332.12,202.34L333.32,207.66L334.51,224.11L335.71,224.24L339.29,225.09L340.49,225.12L341.68,225.57L342.88,227.16L344.07,279.63L345.27,279.72L346.46,290.99L347.65,290.99L350.04,292.08L351.24,292.13L352.43,294.12L353.63,294.36L381.11,295.42L382.3,296.21L520.88,297.51L522.08,304L540,304" style="vector-effect: none; fill: none; stroke: rgb(99, 110, 250); stroke-opacity: 1; stroke-width: 2px; opacity: 1;"/></g><g class="points"/><g class="text"/></g></g></g><g class="overplot"/><path class="xlines-above crisp" d="M0,0" style="fill: none;"/><path class="ylines-above crisp" d="M0,0" style="fill: none;"/><g class="overlines-above"/><g class="xaxislayer-above"><g class="xtick"><text text-anchor="middle" x="0" y="433" transform="translate(121.81,0)" style="font-family: 'Open Sans', verdana, arial, sans-serif; font-size: 12px; fill: rgb(42, 63, 95); fill-opacity: 1; white-space: pre; opacity: 1;">Nov 2022</text></g><g class="xtick"><text text-anchor="middle" x="0" y="433" style="font-family: 'Open Sans', verdana, arial, sans-serif; font-size: 12px; fill: rgb(42, 63, 95); fill-opacity: 1; white-space: pre; opacity: 1;" transform="translate(194.69,0)">Jan 2023</text></g><g class="xtick"><text text-anchor="middle" x="0" y="433" style="font-family: 'Open Sans', verdana, arial, sans-serif; font-size: 12px; fill: rgb(42, 63, 95); fill-opacity: 1; white-space: pre; opacity: 1;" transform="translate(265.18,0)">Mar 2023</text></g><g class="xtick"><text text-anchor="middle" x="0" y="433" style="font-family: 'Open Sans', verdana, arial, sans-serif; font-size: 12px; fill: rgb(42, 63, 95); fill-opacity: 1; white-space: pre; opacity: 1;" transform="translate(338.05,0)">May 2023</text></g><g class="xtick"><text text-anchor="middle" x="0" y="433" style="font-family: 'Open Sans', verdana, arial, sans-serif; font-size: 12px; fill: rgb(42, 63, 95); fill-opacity: 1; white-space: pre; opacity: 1;" transform="translate(410.93,0)">Jul 2023</text></g><g class="xtick"><text text-anchor="middle" x="0" y="433" style="font-family: 'Open Sans', verdana, arial, sans-serif; font-size: 12px; fill: rgb(42, 63, 95); fill-opacity: 1; white-space: pre; opacity: 1;" transform="translate(485,0)">Sep 2023</text></g><g class="xtick"><text text-anchor="middle" x="0" y="433" style="font-family: 'Open Sans', verdana, arial, sans-serif; font-size: 12px; fill: rgb(42, 63, 95); fill-opacity: 1; white-space: pre; opacity: 1;" transform="translate(557.88,0)">Nov 2023</text></g></g><g class="yaxislayer-above"><g class="ytick"><text text-anchor="end" x="79" y="4.199999999999999" transform="translate(0,378.89)" style="font-family: 'Open Sans', verdana, arial, sans-serif; font-size: 12px; fill: rgb(42, 63, 95); fill-opacity: 1; white-space: pre; opacity: 1;">$−10M</text></g><g class="ytick"><text text-anchor="end" x="79" y="4.199999999999999" style="font-family: 'Open Sans', verdana, arial, sans-serif; font-size: 12px; fill: rgb(42, 63, 95); fill-opacity: 1; white-space: pre; opacity: 1;" transform="translate(0,309.43)">$0</text></g><g class="ytick"><text text-anchor="end" x="79" y="4.199999999999999" style="font-family: 'Open Sans', verdana, arial, sans-serif; font-size: 12px; fill: rgb(42, 63, 95); fill-opacity: 1; white-space: pre; opacity: 1;" transform="translate(0,239.97)">$10M</text></g><g class="ytick"><text text-anchor="end" x="79" y="4.199999999999999" style="font-family: 'Open Sans', verdana, arial, sans-serif; font-size: 12px; fill: rgb(42, 63, 95); fill-opacity: 1; white-space: pre; opacity: 1;" transform="translate(0,170.51999999999998)">$20M</text></g><g class="ytick"><text text-anchor="end" x="79" y="4.199999999999999" style="font-family: 'Open Sans', verdana, arial, sans-serif; font-size: 12px; fill: rgb(42, 63, 95); fill-opacity: 1; white-space: pre; opacity: 1;" transform="translate(0,101.06)">$30M</text></g></g><g class="overaxes-above"/></g></g><g class="polarlayer"/><g class="smithlayer"/><g class="ternarylayer"/><g class="geolayer"/><g class="funnelarealayer"/><g class="pielayer"/><g class="iciclelayer"/><g class="treemaplayer"/><g class="sunburstlayer"/><g class="glimages"/><defs id="topdefs-51bd79"><g class="clips"/></defs><g class="layer-above"><g class="imagelayer"/><g class="shapelayer"/></g><g class="infolayer"><g class="g-gtitle"><text class="gtitle" x="35" y="50" text-anchor="start" dy="0em" style="font-family: 'Open Sans', verdana, arial, sans-serif; font-size: 17px; fill: rgb(42, 63, 95); opacity: 1; font-weight: normal; white-space: pre;"><tspan class="line" dy="0em" x="35" y="50">Synthetix - USDC/sUSD: Velodrome</tspan><tspan class="line" dy="1.3em" x="35" y="50">​<tspan style="font-size:70%" dy="-0.6em">Cumulative Net Flows since Program Announcement, Until Program End + 30 Days</tspan><tspan dy="0.42em">​</tspan></tspan></text></g><g class="g-xtitle"><text class="xtitle" x="350" y="460.3" text-anchor="middle" style="font-family: 'Open Sans', verdana, arial, sans-serif; font-size: 14px; fill: rgb(42, 63, 95); opacity: 1; font-weight: normal; white-space: pre;">Day</text></g><g class="g-ytitle"><text class="ytitle" transform="rotate(-90,17.668750000000003,260)" x="17.668750000000003" y="260" text-anchor="middle" style="font-family: 'Open Sans', verdana, arial, sans-serif; font-size: 14px; fill: rgb(42, 63, 95); opacity: 1; font-weight: normal; white-space: pre;">Cumulative Net Flows (USD)</text></g></g></svg>