<svg class="main-svg" xmlns="http://www.w3.org/2000/svg" xmlns:xlink="http://www.w3.org/1999/xlink" width="700" height="500" style="" viewBox="0 0 700 500"><rect x="0" y="0" width="700" height="500" style="fill: rgb(255, 255, 255); fill-opacity: 1;"/><defs id="defs-6c9e6f"><g class="clips"><clipPath id="clip6c9e6fxyplot" class="plotclip"><rect width="540" height="320"/></clipPath><clipPath class="axesclip" id="clip6c9e6fx"><rect x="80" y="0" width="540" height="500"/></clipPath><clipPath class="axesclip" id="clip6c9e6fy"><rect x="0" y="100" width="700" height="320"/></clipPath><clipPath class="axesclip" id="clip6c9e6fxy"><rect x="80" y="100" width="540" height="320"/></clipPath></g><g class="gradients"/><g class="patterns"/></defs><g class="bglayer"><rect class="bg" x="80" y="100" width="540" height="320" style="fill: rgb(229, 236, 246); fill-opacity: 1; stroke-width: 0;"/></g><g class="layer-below"><g class="imagelayer"/><g class="shapelayer"/></g><g class="cartesianlayer"><g class="subplot xy"><g class="layer-subplot"><g class="shapelayer"/><g class="imagelayer"/></g><g class="minor-gridlayer"><g class="x"/><g class="y"/></g><g class="gridlayer"><g class="x"><path class="xgrid crisp" transform="translate(143.87,0)" d="M0,100v320" style="stroke: rgb(255, 255, 255); stroke-opacity: 1; stroke-width: 1px;"/><path class="xgrid crisp" transform="translate(233.87,0)" d="M0,100v320" style="stroke: rgb(255, 255, 255); stroke-opacity: 1; stroke-width: 1px;"/><path class="xgrid crisp" transform="translate(323.87,0)" d="M0,100v320" style="stroke: rgb(255, 255, 255); stroke-opacity: 1; stroke-width: 1px;"/><path class="xgrid crisp" transform="translate(405.16,0)" d="M0,100v320" style="stroke: rgb(255, 255, 255); stroke-opacity: 1; stroke-width: 1px;"/><path class="xgrid crisp" transform="translate(495.16,0)" d="M0,100v320" style="stroke: rgb(255, 255, 255); stroke-opacity: 1; stroke-width: 1px;"/><path class="xgrid crisp" transform="translate(582.26,0)" d="M0,100v320" style="stroke: rgb(255, 255, 255); stroke-opacity: 1; stroke-width: 1px;"/></g><g class="y"><path class="ygrid crisp" transform="translate(0,356.52)" d="M80,0h540" style="stroke: rgb(255, 255, 255); stroke-opacity: 1; stroke-width: 1px;"/><path class="ygrid crisp" transform="translate(0,309.11)" d="M80,0h540" style="stroke: rgb(255, 255, 255); stroke-opacity: 1; stroke-width: 1px;"/><path class="ygrid crisp" transform="translate(0,261.69)" d="M80,0h540" style="stroke: rgb(255, 255, 255); stroke-opacity: 1; stroke-width: 1px;"/><path class="ygrid crisp" transform="translate(0,214.28)" d="M80,0h540" style="stroke: rgb(255, 255, 255); stroke-opacity: 1; stroke-width: 1px;"/><path class="ygrid crisp" transform="translate(0,166.87)" d="M80,0h540" style="stroke: rgb(255, 255, 255); stroke-opacity: 1; stroke-width: 1px;"/><path class="ygrid crisp" transform="translate(0,119.45)" d="M80,0h540" style="stroke: rgb(255, 255, 255); stroke-opacity: 1; stroke-width: 1px;"/></g></g><g class="zerolinelayer"><path class="yzl zl crisp" transform="translate(0,403.93)" d="M80,0h540" style="stroke: rgb(255, 255, 255); stroke-opacity: 1; stroke-width: 2px;"/></g><path class="xlines-below"/><path class="ylines-below"/><g class="overlines-below"/><g class="xaxislayer-below"/><g class="yaxislayer-below"/><g class="overaxes-below"/><g class="plot" transform="translate(80,100)" clip-path="url(#clip6c9e6fxyplot)"><g class="scatterlayer mlayer"><g class="trace scatter trace825b45" style="stroke-miterlimit: 2;"><g class="fills"><g><path class="js-fill" d="M540,303.93L0,303.93L0,304L5.81,298.94L8.71,297.78L23.23,297.03L26.13,297.53L40.65,294.96L43.55,294.06L46.45,295.02L49.35,295.15L69.68,295.78L72.58,295.6L75.48,295.53L78.39,294.66L81.29,296.58L84.19,296.26L95.81,295.86L98.71,297.42L101.61,298.43L104.52,298.24L107.42,297.18L110.32,297.03L121.94,296.58L124.84,294.55L127.74,295.08L130.65,294.54L133.55,293.42L136.45,293.33L145.16,292.78L148.06,290.49L153.87,290.53L156.77,287.8L159.68,287.39L162.58,290.47L165.48,288.38L168.39,288.77L174.19,288.29L177.1,288.83L180,288.83L182.9,286.74L185.81,285.26L188.71,285.75L191.61,283.28L194.52,283.04L200.32,279.95L203.23,279.78L209.03,281.01L211.94,279.08L214.84,277.85L217.74,262.01L220.65,263.49L223.55,263.23L226.45,258.33L229.35,258.02L232.26,258.41L235.16,252.31L238.06,287.04L240.97,288.9L243.87,286.06L246.77,273.35L249.68,273.4L252.58,272.59L255.48,266.72L258.39,266.11L261.29,236.1L264.19,235.01L267.1,226.78L270,227.45L272.9,218.63L275.81,218.94L278.71,192.03L281.61,192.43L287.42,191.01L290.32,180.05L293.23,180.03L296.13,181.12L299.03,165.33L301.94,165.37L307.74,163.17L310.65,156.42L313.55,144.7L316.45,143.23L322.26,142.54L325.16,139.48L328.06,139.44L330.97,130.63L336.77,131.13L339.68,124.96L342.58,122.99L345.48,122.31L348.39,118.74L351.29,124.36L354.19,124.54L357.1,127.93L360,125L362.9,106.17L365.81,98.45L368.71,98.73L371.61,92.06L374.52,66.43L377.42,67.77L380.32,57.24L383.23,41.3L386.13,39.53L394.84,38.39L397.74,39.84L400.65,39.95L403.55,43.47L406.45,19.23L409.35,16.02L412.26,16L415.16,27.87L420.97,28.36L423.87,27.38L429.68,27.53L432.58,27.14L438.39,59.15L441.29,54.81L447.1,54.93L450,52.83L455.81,54.35L458.71,54.1L461.61,61.39L464.52,60.45L467.42,59.63L470.32,226.38L473.23,71.41L476.13,69.93L493.55,68.23L496.45,59.36L499.35,57.62L502.26,62.46L505.16,49.65L508.06,50.89L510.97,51.22L513.87,55.05L519.68,54.65L522.58,56.35L525.48,54.07L528.39,53.73L540,53.7" style="fill: rgb(99, 110, 250); fill-opacity: 0.5; stroke-width: 0;"/></g></g><g class="errorbars"/><g class="lines"><path class="js-line" d="M0,304L5.81,298.94L8.71,297.78L23.23,297.03L26.13,297.53L40.65,294.96L43.55,294.06L46.45,295.02L49.35,295.15L69.68,295.78L72.58,295.6L75.48,295.53L78.39,294.66L81.29,296.58L84.19,296.26L95.81,295.86L98.71,297.42L101.61,298.43L104.52,298.24L107.42,297.18L110.32,297.03L121.94,296.58L124.84,294.55L127.74,295.08L130.65,294.54L133.55,293.42L136.45,293.33L145.16,292.78L148.06,290.49L153.87,290.53L156.77,287.8L159.68,287.39L162.58,290.47L165.48,288.38L168.39,288.77L174.19,288.29L177.1,288.83L180,288.83L182.9,286.74L185.81,285.26L188.71,285.75L191.61,283.28L194.52,283.04L200.32,279.95L203.23,279.78L209.03,281.01L211.94,279.08L214.84,277.85L217.74,262.01L220.65,263.49L223.55,263.23L226.45,258.33L229.35,258.02L232.26,258.41L235.16,252.31L238.06,287.04L240.97,288.9L243.87,286.06L246.77,273.35L249.68,273.4L252.58,272.59L255.48,266.72L258.39,266.11L261.29,236.1L264.19,235.01L267.1,226.78L270,227.45L272.9,218.63L275.81,218.94L278.71,192.03L281.61,192.43L287.42,191.01L290.32,180.05L293.23,180.03L296.13,181.12L299.03,165.33L301.94,165.37L307.74,163.17L310.65,156.42L313.55,144.7L316.45,143.23L322.26,142.54L325.16,139.48L328.06,139.44L330.97,130.63L336.77,131.13L339.68,124.96L342.58,122.99L345.48,122.31L348.39,118.74L351.29,124.36L354.19,124.54L357.1,127.93L360,125L362.9,106.17L365.81,98.45L368.71,98.73L371.61,92.06L374.52,66.43L377.42,67.77L380.32,57.24L383.23,41.3L386.13,39.53L394.84,38.39L397.74,39.84L400.65,39.95L403.55,43.47L406.45,19.23L409.35,16.02L412.26,16L415.16,27.87L420.97,28.36L423.87,27.38L429.68,27.53L432.58,27.14L438.39,59.15L441.29,54.81L447.1,54.93L450,52.83L455.81,54.35L458.71,54.1L461.61,61.39L464.52,60.45L467.42,59.63L470.32,226.38L473.23,71.41L476.13,69.93L493.55,68.23L496.45,59.36L499.35,57.62L502.26,62.46L505.16,49.65L508.06,50.89L510.97,51.22L513.87,55.05L519.68,54.65L522.58,56.35L525.48,54.07L528.39,53.73L540,53.7" style="vector-effect: none; fill: none; stroke: rgb(99, 110, 250); stroke-opacity: 1; stroke-width: 2px; opacity: 1;"/></g><g class="points"/><g class="text"/></g></g></g><g class="overplot"/><path class="xlines-above crisp" d="M0,0" style="fill: none;"/><path class="ylines-above crisp" d="M0,0" style="fill: none;"/><g class="overlines-above"/><g class="xaxislayer-above"><g class="xtick"><text text-anchor="middle" x="0" y="433" transform="translate(143.87,0)" style="font-family: 'Open Sans', verdana, arial, sans-serif; font-size: 12px; fill: rgb(42, 63, 95); fill-opacity: 1; white-space: pre; opacity: 1;">Dec 2022</text></g><g class="xtick"><text text-anchor="middle" x="0" y="433" style="font-family: 'Open Sans', verdana, arial, sans-serif; font-size: 12px; fill: rgb(42, 63, 95); fill-opacity: 1; white-space: pre; opacity: 1;" transform="translate(233.87,0)">Jan 2023</text></g><g class="xtick"><text text-anchor="middle" x="0" y="433" style="font-family: 'Open Sans', verdana, arial, sans-serif; font-size: 12px; fill: rgb(42, 63, 95); fill-opacity: 1; white-space: pre; opacity: 1;" transform="translate(323.87,0)">Feb 2023</text></g><g class="xtick"><text text-anchor="middle" x="0" y="433" style="font-family: 'Open Sans', verdana, arial, sans-serif; font-size: 12px; fill: rgb(42, 63, 95); fill-opacity: 1; white-space: pre; opacity: 1;" transform="translate(405.16,0)">Mar 2023</text></g><g class="xtick"><text text-anchor="middle" x="0" y="433" style="font-family: 'Open Sans', verdana, arial, sans-serif; font-size: 12px; fill: rgb(42, 63, 95); fill-opacity: 1; white-space: pre; opacity: 1;" transform="translate(495.16,0)">Apr 2023</text></g><g class="xtick"><text text-anchor="middle" x="0" y="433" style="font-family: 'Open Sans', verdana, arial, sans-serif; font-size: 12px; fill: rgb(42, 63, 95); fill-opacity: 1; white-space: pre; opacity: 1;" transform="translate(582.26,0)">May 2023</text></g></g><g class="yaxislayer-above"><g class="ytick"><text text-anchor="end" x="79" y="4.199999999999999" transform="translate(0,403.93)" style="font-family: 'Open Sans', verdana, arial, sans-serif; font-size: 12px; fill: rgb(42, 63, 95); fill-opacity: 1; white-space: pre; opacity: 1;">$0</text></g><g class="ytick"><text text-anchor="end" x="79" y="4.199999999999999" style="font-family: 'Open Sans', verdana, arial, sans-serif; font-size: 12px; fill: rgb(42, 63, 95); fill-opacity: 1; white-space: pre; opacity: 1;" transform="translate(0,356.52)">$5M</text></g><g class="ytick"><text text-anchor="end" x="79" y="4.199999999999999" style="font-family: 'Open Sans', verdana, arial, sans-serif; font-size: 12px; fill: rgb(42, 63, 95); fill-opacity: 1; white-space: pre; opacity: 1;" transform="translate(0,309.11)">$10M</text></g><g class="ytick"><text text-anchor="end" x="79" y="4.199999999999999" style="font-family: 'Open Sans', verdana, arial, sans-serif; font-size: 12px; fill: rgb(42, 63, 95); fill-opacity: 1; white-space: pre; opacity: 1;" transform="translate(0,261.69)">$15M</text></g><g class="ytick"><text text-anchor="end" x="79" y="4.199999999999999" style="font-family: 'Open Sans', verdana, arial, sans-serif; font-size: 12px; fill: rgb(42, 63, 95); fill-opacity: 1; white-space: pre; opacity: 1;" transform="translate(0,214.28)">$20M</text></g><g class="ytick"><text text-anchor="end" x="79" y="4.199999999999999" style="font-family: 'Open Sans', verdana, arial, sans-serif; font-size: 12px; fill: rgb(42, 63, 95); fill-opacity: 1; white-space: pre; opacity: 1;" transform="translate(0,166.87)">$25M</text></g><g class="ytick"><text text-anchor="end" x="79" y="4.199999999999999" style="font-family: 'Open Sans', verdana, arial, sans-serif; font-size: 12px; fill: rgb(42, 63, 95); fill-opacity: 1; white-space: pre; opacity: 1;" transform="translate(0,119.45)">$30M</text></g></g><g class="overaxes-above"/></g></g><g class="polarlayer"/><g class="smithlayer"/><g class="ternarylayer"/><g class="geolayer"/><g class="funnelarealayer"/><g class="pielayer"/><g class="iciclelayer"/><g class="treemaplayer"/><g class="sunburstlayer"/><g class="glimages"/><defs id="topdefs-6c9e6f"><g class="clips"/></defs><g class="layer-above"><g class="imagelayer"/><g class="shapelayer"/></g><g class="infolayer"><g class="g-gtitle"><text class="gtitle" x="35" y="50" text-anchor="start" dy="0em" style="font-family: 'Open Sans', verdana, arial, sans-serif; font-size: 17px; fill: rgb(42, 63, 95); opacity: 1; font-weight: normal; white-space: pre;"><tspan class="line" dy="0em" x="35" y="50">Rocket Pool - WETH/rETH: Beethoven X</tspan><tspan class="line" dy="1.3em" x="35" y="50">​<tspan style="font-size:70%" dy="-0.6em">Cumulative Net Flows since Program Announcement, Until Program End + 30 Days</tspan><tspan dy="0.42em">​</tspan></tspan></text></g><g class="g-xtitle"><text class="xtitle" x="350" y="460.3" text-anchor="middle" style="font-family: 'Open Sans', verdana, arial, sans-serif; font-size: 14px; fill: rgb(42, 63, 95); opacity: 1; font-weight: normal; white-space: pre;">Day</text></g><g class="g-ytitle"><text class="ytitle" transform="rotate(-90,24.668750000000003,260)" x="24.668750000000003" y="260" text-anchor="middle" style="font-family: 'Open Sans', verdana, arial, sans-serif; font-size: 14px; fill: rgb(42, 63, 95); opacity: 1; font-weight: normal; white-space: pre;">Cumulative Net Flows (USD)</text></g></g></svg>