<svg class="main-svg" xmlns="http://www.w3.org/2000/svg" xmlns:xlink="http://www.w3.org/1999/xlink" width="700" height="500" style="" viewBox="0 0 700 500"><rect x="0" y="0" width="700" height="500" style="fill: rgb(255, 255, 255); fill-opacity: 1;"/><defs id="defs-acdba3"><g class="clips"><clipPath id="clipacdba3xyplot" class="plotclip"><rect width="540" height="320"/></clipPath><clipPath class="axesclip" id="clipacdba3x"><rect x="80" y="0" width="540" height="500"/></clipPath><clipPath class="axesclip" id="clipacdba3y"><rect x="0" y="100" width="700" height="320"/></clipPath><clipPath class="axesclip" id="clipacdba3xy"><rect x="80" y="100" width="540" height="320"/></clipPath></g><g class="gradients"/><g class="patterns"/></defs><g class="bglayer"><rect class="bg" x="80" y="100" width="540" height="320" style="fill: rgb(229, 236, 246); fill-opacity: 1; stroke-width: 0;"/></g><g class="layer-below"><g class="imagelayer"/><g class="shapelayer"/></g><g class="cartesianlayer"><g class="subplot xy"><g class="layer-subplot"><g class="shapelayer"/><g class="imagelayer"/></g><g class="minor-gridlayer"><g class="x"/><g class="y"/></g><g class="gridlayer"><g class="x"><path class="xgrid crisp" transform="translate(119.8,0)" d="M0,100v320" style="stroke: rgb(255, 255, 255); stroke-opacity: 1; stroke-width: 1px;"/><path class="xgrid crisp" transform="translate(218.76,0)" d="M0,100v320" style="stroke: rgb(255, 255, 255); stroke-opacity: 1; stroke-width: 1px;"/><path class="xgrid crisp" transform="translate(315.58000000000004,0)" d="M0,100v320" style="stroke: rgb(255, 255, 255); stroke-opacity: 1; stroke-width: 1px;"/><path class="xgrid crisp" transform="translate(413.47,0)" d="M0,100v320" style="stroke: rgb(255, 255, 255); stroke-opacity: 1; stroke-width: 1px;"/><path class="xgrid crisp" transform="translate(512.4300000000001,0)" d="M0,100v320" style="stroke: rgb(255, 255, 255); stroke-opacity: 1; stroke-width: 1px;"/><path class="xgrid crisp" transform="translate(611.39,0)" d="M0,100v320" style="stroke: rgb(255, 255, 255); stroke-opacity: 1; stroke-width: 1px;"/></g><g class="y"><path class="ygrid crisp" transform="translate(0,362.51)" d="M80,0h540" style="stroke: rgb(255, 255, 255); stroke-opacity: 1; stroke-width: 1px;"/><path class="ygrid crisp" transform="translate(0,323.47)" d="M80,0h540" style="stroke: rgb(255, 255, 255); stroke-opacity: 1; stroke-width: 1px;"/><path class="ygrid crisp" transform="translate(0,284.44)" d="M80,0h540" style="stroke: rgb(255, 255, 255); stroke-opacity: 1; stroke-width: 1px;"/><path class="ygrid crisp" transform="translate(0,245.4)" d="M80,0h540" style="stroke: rgb(255, 255, 255); stroke-opacity: 1; stroke-width: 1px;"/><path class="ygrid crisp" transform="translate(0,206.36)" d="M80,0h540" style="stroke: rgb(255, 255, 255); stroke-opacity: 1; stroke-width: 1px;"/><path class="ygrid crisp" transform="translate(0,167.32999999999998)" d="M80,0h540" style="stroke: rgb(255, 255, 255); stroke-opacity: 1; stroke-width: 1px;"/><path class="ygrid crisp" transform="translate(0,128.29)" d="M80,0h540" style="stroke: rgb(255, 255, 255); stroke-opacity: 1; stroke-width: 1px;"/></g></g><g class="zerolinelayer"><path class="yzl zl crisp" transform="translate(0,401.54)" d="M80,0h540" style="stroke: rgb(255, 255, 255); stroke-opacity: 1; stroke-width: 2px;"/></g><path class="xlines-below"/><path class="ylines-below"/><g class="overlines-below"/><g class="xaxislayer-below"/><g class="yaxislayer-below"/><g class="overaxes-below"/><g class="plot" transform="translate(80,100)" clip-path="url(#clipacdba3xyplot)"><g class="scatterlayer mlayer"><g class="trace scatter tracef2b151" style="stroke-miterlimit: 2;"><g class="fills"><g><path class="js-fill" d="M540,301.54L0,301.54L0,218.15L1.08,201.28L2.15,197.3L5.38,190.39L6.45,179.09L7.53,176.69L8.61,179.32L10.76,172.28L11.83,171.44L12.91,171.77L13.98,168.95L17.21,148.52L18.29,146.46L19.36,143.65L20.44,144.42L22.59,150.17L23.67,146.79L24.74,140.28L25.82,142.07L29.04,147.96L30.12,149.12L32.27,153.71L33.35,153.86L34.42,153.57L35.5,155.28L36.57,143.61L37.65,146.14L38.73,157.16L39.8,157.1L41.95,157.98L43.03,158.94L45.18,164.97L46.25,162.26L48.41,167.59L49.48,168.97L50.56,170.6L51.63,169.81L53.78,170.7L54.86,162.9L57.01,162.74L58.09,163.86L59.16,164.6L60.24,164.28L63.47,163.87L64.54,163.6L65.62,161.94L66.69,161.74L67.77,161.65L68.84,168.31L69.92,167.36L71,162.34L72.07,162.73L73.15,158.64L75.3,154.06L76.37,137.85L77.45,136.49L78.53,136.86L80.68,136.09L81.75,153.03L83.9,161.29L84.98,157.99L86.06,161.88L87.13,157.99L89.28,157.43L90.36,161.02L91.43,164.31L92.51,163.52L93.59,163.59L94.66,165.9L95.74,167.96L96.81,167.35L97.89,163.26L98.96,163.7L102.19,163.48L103.27,163.8L104.34,162.74L105.42,164.95L106.49,164.01L107.57,161.58L110.8,157.76L111.87,152.36L112.95,147.61L114.02,148.49L115.1,147.46L116.18,147.92L117.25,147.26L118.33,141.79L119.4,141.97L120.48,132.12L121.55,141.13L122.63,143.22L124.78,143.72L125.86,145.04L126.93,149.65L128.01,148.89L129.08,149.37L130.16,148.9L132.31,149.05L133.39,148.79L134.46,152.29L135.54,152.42L136.61,151.04L137.69,145.49L139.84,152.79L140.92,152.71L141.99,154.55L143.07,154.55L145.22,149.31L146.29,149.41L148.45,139.72L149.52,130.82L150.6,129.48L151.67,131.93L152.75,129.44L153.82,123.36L155.98,122.86L157.05,121.69L158.13,122.2L159.2,119.57L161.35,111.44L162.43,110.38L163.51,108.65L164.58,99.46L166.73,67.34L167.81,68.07L168.88,53.21L169.96,52.46L171.04,42.38L172.11,41.32L173.19,36.27L174.26,16L176.41,22.55L177.49,22.22L178.57,23.01L179.64,26.29L180.72,48.17L181.79,46.96L182.87,46.78L183.94,36.42L185.02,37.44L186.1,36.26L187.17,36.81L188.25,34.61L189.32,35.41L190.4,40.15L191.47,39.92L192.55,40.84L193.63,51.86L194.7,52.47L196.85,52.45L197.93,51.33L199,49.25L200.08,49.25L201.16,49.19L202.23,42.87L203.31,42.62L204.38,44.15L205.46,31.93L206.53,31.37L207.61,29.94L208.69,30.33L209.76,29.69L210.84,31.3L212.99,39.21L214.06,124.02L215.14,123.58L216.22,109.93L217.29,89.33L218.37,87.06L219.44,77.43L220.52,81.33L221.59,89.86L222.67,90.62L223.75,90.54L224.82,88.4L226.97,57.15L228.05,57.52L231.27,109.45L232.35,154.54L233.43,169.19L234.5,173.26L236.65,183.92L237.73,189.12L240.96,195.97L242.03,197.42L244.18,202.16L245.26,202.72L247.41,205.35L248.49,205.45L249.56,227.11L250.64,228.35L252.79,230.35L253.86,230.79L256.02,232.39L257.09,232.39L258.17,231.49L259.24,231.89L260.32,232.14L261.39,234.19L262.47,235.82L263.55,238.94L272.15,240.66L273.23,241.34L274.3,259.97L275.38,260.63L278.61,261.53L279.68,262.7L280.76,244.22L281.83,244.21L285.06,244.72L286.14,244.65L287.21,246.89L288.29,246.96L292.59,247.44L293.67,249.64L308.73,251.01L309.8,255.43L316.25,256.76L317.33,257.36L322.71,257.36L323.78,260.98L328.09,262.26L329.16,262.84L335.62,263.33L336.69,263.88L337.77,265.13L338.84,265.12L345.3,265.33L346.37,266.12L349.6,266.43L350.68,267.38L351.75,279.07L352.83,279.1L364.66,279.23L365.74,301.9L366.81,301.98L367.89,279.79L370.04,279.81L371.12,301.95L373.27,301.6L374.34,283.06L375.42,283.11L376.49,279.68L377.57,293.24L378.65,293.25L385.1,293.28L386.18,297.14L443.19,297.68L444.26,297.95L457.17,297.76L458.25,302.09L464.7,302.41L465.78,303.04L490.52,303.09L491.59,303.84L500.2,303.84L501.27,303.7L503.43,303.67L504.5,303.64L508.8,303.19L509.88,301.26L514.18,301.23L515.26,301.98L540,302.68" style="fill: rgb(99, 110, 250); fill-opacity: 0.5; stroke-width: 0;"/></g></g><g class="errorbars"/><g class="lines"><path class="js-line" d="M0,218.15L1.08,201.28L2.15,197.3L5.38,190.39L6.45,179.09L7.53,176.69L8.61,179.32L10.76,172.28L11.83,171.44L12.91,171.77L13.98,168.95L17.21,148.52L18.29,146.46L19.36,143.65L20.44,144.42L22.59,150.17L23.67,146.79L24.74,140.28L25.82,142.07L29.04,147.96L30.12,149.12L32.27,153.71L33.35,153.86L34.42,153.57L35.5,155.28L36.57,143.61L37.65,146.14L38.73,157.16L39.8,157.1L41.95,157.98L43.03,158.94L45.18,164.97L46.25,162.26L48.41,167.59L49.48,168.97L50.56,170.6L51.63,169.81L53.78,170.7L54.86,162.9L57.01,162.74L58.09,163.86L59.16,164.6L60.24,164.28L63.47,163.87L64.54,163.6L65.62,161.94L66.69,161.74L67.77,161.65L68.84,168.31L69.92,167.36L71,162.34L72.07,162.73L73.15,158.64L75.3,154.06L76.37,137.85L77.45,136.49L78.53,136.86L80.68,136.09L81.75,153.03L83.9,161.29L84.98,157.99L86.06,161.88L87.13,157.99L89.28,157.43L90.36,161.02L91.43,164.31L92.51,163.52L93.59,163.59L94.66,165.9L95.74,167.96L96.81,167.35L97.89,163.26L98.96,163.7L102.19,163.48L103.27,163.8L104.34,162.74L105.42,164.95L106.49,164.01L107.57,161.58L110.8,157.76L111.87,152.36L112.95,147.61L114.02,148.49L115.1,147.46L116.18,147.92L117.25,147.26L118.33,141.79L119.4,141.97L120.48,132.12L121.55,141.13L122.63,143.22L124.78,143.72L125.86,145.04L126.93,149.65L128.01,148.89L129.08,149.37L130.16,148.9L132.31,149.05L133.39,148.79L134.46,152.29L135.54,152.42L136.61,151.04L137.69,145.49L139.84,152.79L140.92,152.71L141.99,154.55L143.07,154.55L145.22,149.31L146.29,149.41L148.45,139.72L149.52,130.82L150.6,129.48L151.67,131.93L152.75,129.44L153.82,123.36L155.98,122.86L157.05,121.69L158.13,122.2L159.2,119.57L161.35,111.44L162.43,110.38L163.51,108.65L164.58,99.46L166.73,67.34L167.81,68.07L168.88,53.21L169.96,52.46L171.04,42.38L172.11,41.32L173.19,36.27L174.26,16L176.41,22.55L177.49,22.22L178.57,23.01L179.64,26.29L180.72,48.17L181.79,46.96L182.87,46.78L183.94,36.42L185.02,37.44L186.1,36.26L187.17,36.81L188.25,34.61L189.32,35.41L190.4,40.15L191.47,39.92L192.55,40.84L193.63,51.86L194.7,52.47L196.85,52.45L197.93,51.33L199,49.25L200.08,49.25L201.16,49.19L202.23,42.87L203.31,42.62L204.38,44.15L205.46,31.93L206.53,31.37L207.61,29.94L208.69,30.33L209.76,29.69L210.84,31.3L212.99,39.21L214.06,124.02L215.14,123.58L216.22,109.93L217.29,89.33L218.37,87.06L219.44,77.43L220.52,81.33L221.59,89.86L222.67,90.62L223.75,90.54L224.82,88.4L226.97,57.15L228.05,57.52L231.27,109.45L232.35,154.54L233.43,169.19L234.5,173.26L236.65,183.92L237.73,189.12L240.96,195.97L242.03,197.42L244.18,202.16L245.26,202.72L247.41,205.35L248.49,205.45L249.56,227.11L250.64,228.35L252.79,230.35L253.86,230.79L256.02,232.39L257.09,232.39L258.17,231.49L259.24,231.89L260.32,232.14L261.39,234.19L262.47,235.82L263.55,238.94L272.15,240.66L273.23,241.34L274.3,259.97L275.38,260.63L278.61,261.53L279.68,262.7L280.76,244.22L281.83,244.21L285.06,244.72L286.14,244.65L287.21,246.89L288.29,246.96L292.59,247.44L293.67,249.64L308.73,251.01L309.8,255.43L316.25,256.76L317.33,257.36L322.71,257.36L323.78,260.98L328.09,262.26L329.16,262.84L335.62,263.33L336.69,263.88L337.77,265.13L338.84,265.12L345.3,265.33L346.37,266.12L349.6,266.43L350.68,267.38L351.75,279.07L352.83,279.1L364.66,279.23L365.74,301.9L366.81,301.98L367.89,279.79L370.04,279.81L371.12,301.95L373.27,301.6L374.34,283.06L375.42,283.11L376.49,279.68L377.57,293.24L378.65,293.25L385.1,293.28L386.18,297.14L443.19,297.68L444.26,297.95L457.17,297.76L458.25,302.09L464.7,302.41L465.78,303.04L490.52,303.09L491.59,303.84L500.2,303.84L501.27,303.7L503.43,303.67L504.5,303.64L508.8,303.19L509.88,301.26L514.18,301.23L515.26,301.98L540,302.68" style="vector-effect: none; fill: none; stroke: rgb(99, 110, 250); stroke-opacity: 1; stroke-width: 2px; opacity: 1;"/></g><g class="points"/><g class="text"/></g></g></g><g class="overplot"/><path class="xlines-above crisp" d="M0,0" style="fill: none;"/><path class="ylines-above crisp" d="M0,0" style="fill: none;"/><g class="overlines-above"/><g class="xaxislayer-above"><g class="xtick"><text text-anchor="middle" x="0" y="433" transform="translate(119.8,0)" style="font-family: 'Open Sans', verdana, arial, sans-serif; font-size: 12px; fill: rgb(42, 63, 95); fill-opacity: 1; white-space: pre; opacity: 1;">Oct 2022</text></g><g class="xtick"><text text-anchor="middle" x="0" y="433" style="font-family: 'Open Sans', verdana, arial, sans-serif; font-size: 12px; fill: rgb(42, 63, 95); fill-opacity: 1; white-space: pre; opacity: 1;" transform="translate(218.76,0)">Jan 2023</text></g><g class="xtick"><text text-anchor="middle" x="0" y="433" style="font-family: 'Open Sans', verdana, arial, sans-serif; font-size: 12px; fill: rgb(42, 63, 95); fill-opacity: 1; white-space: pre; opacity: 1;" transform="translate(315.58000000000004,0)">Apr 2023</text></g><g class="xtick"><text text-anchor="middle" x="0" y="433" style="font-family: 'Open Sans', verdana, arial, sans-serif; font-size: 12px; fill: rgb(42, 63, 95); fill-opacity: 1; white-space: pre; opacity: 1;" transform="translate(413.47,0)">Jul 2023</text></g><g class="xtick"><text text-anchor="middle" x="0" y="433" style="font-family: 'Open Sans', verdana, arial, sans-serif; font-size: 12px; fill: rgb(42, 63, 95); fill-opacity: 1; white-space: pre; opacity: 1;" transform="translate(512.4300000000001,0)">Oct 2023</text></g><g class="xtick"><text text-anchor="middle" x="0" y="433" style="font-family: 'Open Sans', verdana, arial, sans-serif; font-size: 12px; fill: rgb(42, 63, 95); fill-opacity: 1; white-space: pre; opacity: 1;" transform="translate(611.39,0)">Jan 2024</text></g></g><g class="yaxislayer-above"><g class="ytick"><text text-anchor="end" x="79" y="4.199999999999999" transform="translate(0,401.54)" style="font-family: 'Open Sans', verdana, arial, sans-serif; font-size: 12px; fill: rgb(42, 63, 95); fill-opacity: 1; white-space: pre; opacity: 1;">$0</text></g><g class="ytick"><text text-anchor="end" x="79" y="4.199999999999999" style="font-family: 'Open Sans', verdana, arial, sans-serif; font-size: 12px; fill: rgb(42, 63, 95); fill-opacity: 1; white-space: pre; opacity: 1;" transform="translate(0,362.51)">$10M</text></g><g class="ytick"><text text-anchor="end" x="79" y="4.199999999999999" style="font-family: 'Open Sans', verdana, arial, sans-serif; font-size: 12px; fill: rgb(42, 63, 95); fill-opacity: 1; white-space: pre; opacity: 1;" transform="translate(0,323.47)">$20M</text></g><g class="ytick"><text text-anchor="end" x="79" y="4.199999999999999" style="font-family: 'Open Sans', verdana, arial, sans-serif; font-size: 12px; fill: rgb(42, 63, 95); fill-opacity: 1; white-space: pre; opacity: 1;" transform="translate(0,284.44)">$30M</text></g><g class="ytick"><text text-anchor="end" x="79" y="4.199999999999999" style="font-family: 'Open Sans', verdana, arial, sans-serif; font-size: 12px; fill: rgb(42, 63, 95); fill-opacity: 1; white-space: pre; opacity: 1;" transform="translate(0,245.4)">$40M</text></g><g class="ytick"><text text-anchor="end" x="79" y="4.199999999999999" style="font-family: 'Open Sans', verdana, arial, sans-serif; font-size: 12px; fill: rgb(42, 63, 95); fill-opacity: 1; white-space: pre; opacity: 1;" transform="translate(0,206.36)">$50M</text></g><g class="ytick"><text text-anchor="end" x="79" y="4.199999999999999" style="font-family: 'Open Sans', verdana, arial, sans-serif; font-size: 12px; fill: rgb(42, 63, 95); fill-opacity: 1; white-space: pre; opacity: 1;" transform="translate(0,167.32999999999998)">$60M</text></g><g class="ytick"><text text-anchor="end" x="79" y="4.199999999999999" style="font-family: 'Open Sans', verdana, arial, sans-serif; font-size: 12px; fill: rgb(42, 63, 95); fill-opacity: 1; white-space: pre; opacity: 1;" transform="translate(0,128.29)">$70M</text></g></g><g class="overaxes-above"/></g></g><g class="polarlayer"/><g class="smithlayer"/><g class="ternarylayer"/><g class="geolayer"/><g class="funnelarealayer"/><g class="pielayer"/><g class="iciclelayer"/><g class="treemaplayer"/><g class="sunburstlayer"/><g class="glimages"/><defs id="topdefs-acdba3"><g class="clips"/></defs><g class="layer-above"><g class="imagelayer"/><g class="shapelayer"/></g><g class="infolayer"><g class="g-gtitle"><text class="gtitle" x="35" y="50" text-anchor="start" dy="0em" style="font-family: 'Open Sans', verdana, arial, sans-serif; font-size: 17px; fill: rgb(42, 63, 95); opacity: 1; font-weight: normal; white-space: pre;"><tspan class="line" dy="0em" x="35" y="50">Synthetix - All Synthetix Curve Pools</tspan><tspan class="line" dy="1.3em" x="35" y="50">​<tspan style="font-size:70%" dy="-0.6em">Cumulative Net Flows since Program Announcement, Until Program End + 30 Days</tspan><tspan dy="0.42em">​</tspan></tspan></text></g><g class="g-xtitle"><text class="xtitle" x="350" y="460.3" text-anchor="middle" style="font-family: 'Open Sans', verdana, arial, sans-serif; font-size: 14px; fill: rgb(42, 63, 95); opacity: 1; font-weight: normal; white-space: pre;">Day</text></g><g class="g-ytitle"><text class="ytitle" transform="rotate(-90,24.668750000000003,260)" x="24.668750000000003" y="260" text-anchor="middle" style="font-family: 'Open Sans', verdana, arial, sans-serif; font-size: 14px; fill: rgb(42, 63, 95); opacity: 1; font-weight: normal; white-space: pre;">Cumulative Net Flows (USD)</text></g></g></svg>