<svg class="main-svg" xmlns="http://www.w3.org/2000/svg" xmlns:xlink="http://www.w3.org/1999/xlink" width="700" height="500" style="" viewBox="0 0 700 500"><rect x="0" y="0" width="700" height="500" style="fill: rgb(255, 255, 255); fill-opacity: 1;"/><defs id="defs-91c76a"><g class="clips"><clipPath id="clip91c76axyplot" class="plotclip"><rect width="540" height="320"/></clipPath><clipPath class="axesclip" id="clip91c76ax"><rect x="80" y="0" width="540" height="500"/></clipPath><clipPath class="axesclip" id="clip91c76ay"><rect x="0" y="100" width="700" height="320"/></clipPath><clipPath class="axesclip" id="clip91c76axy"><rect x="80" y="100" width="540" height="320"/></clipPath></g><g class="gradients"/><g class="patterns"/></defs><g class="bglayer"><rect class="bg" x="80" y="100" width="540" height="320" style="fill: rgb(229, 236, 246); fill-opacity: 1; stroke-width: 0;"/></g><g class="layer-below"><g class="imagelayer"/><g class="shapelayer"/></g><g class="cartesianlayer"><g class="subplot xy"><g class="layer-subplot"><g class="shapelayer"/><g class="imagelayer"/></g><g class="minor-gridlayer"><g class="x"/><g class="y"/></g><g class="gridlayer"><g class="x"><path class="xgrid crisp" transform="translate(177.38,0)" d="M0,100v320" style="stroke: rgb(255, 255, 255); stroke-opacity: 1; stroke-width: 1px;"/><path class="xgrid crisp" transform="translate(314.59000000000003,0)" d="M0,100v320" style="stroke: rgb(255, 255, 255); stroke-opacity: 1; stroke-width: 1px;"/><path class="xgrid crisp" transform="translate(449.59,0)" d="M0,100v320" style="stroke: rgb(255, 255, 255); stroke-opacity: 1; stroke-width: 1px;"/><path class="xgrid crisp" transform="translate(584.5899999999999,0)" d="M0,100v320" style="stroke: rgb(255, 255, 255); stroke-opacity: 1; stroke-width: 1px;"/></g><g class="y"><path class="ygrid crisp" transform="translate(0,371.8)" d="M80,0h540" style="stroke: rgb(255, 255, 255); stroke-opacity: 1; stroke-width: 1px;"/><path class="ygrid crisp" transform="translate(0,323.59000000000003)" d="M80,0h540" style="stroke: rgb(255, 255, 255); stroke-opacity: 1; stroke-width: 1px;"/><path class="ygrid crisp" transform="translate(0,275.39)" d="M80,0h540" style="stroke: rgb(255, 255, 255); stroke-opacity: 1; stroke-width: 1px;"/><path class="ygrid crisp" transform="translate(0,227.19)" d="M80,0h540" style="stroke: rgb(255, 255, 255); stroke-opacity: 1; stroke-width: 1px;"/><path class="ygrid crisp" transform="translate(0,178.98000000000002)" d="M80,0h540" style="stroke: rgb(255, 255, 255); stroke-opacity: 1; stroke-width: 1px;"/><path class="ygrid crisp" transform="translate(0,130.78)" d="M80,0h540" style="stroke: rgb(255, 255, 255); stroke-opacity: 1; stroke-width: 1px;"/></g></g><g class="zerolinelayer"><path class="yzl zl crisp" transform="translate(0,420)" d="M80,0h540" style="stroke: rgb(255, 255, 255); stroke-opacity: 1; stroke-width: 2px;"/></g><path class="xlines-below"/><path class="ylines-below"/><g class="overlines-below"/><g class="xaxislayer-below"/><g class="yaxislayer-below"/><g class="overaxes-below"/><g class="plot" transform="translate(80,100)" clip-path="url(#clip91c76axyplot)"><g class="scatterlayer mlayer"><g class="trace scatter trace44eb96" style="stroke-miterlimit: 2;"><g class="fills"><g><path class="js-fill" d="M540,320L0,320L0,312.45L2.21,282.84L4.43,276.52L8.85,275.37L11.07,275.49L13.28,270.61L15.49,262.6L17.7,254.22L19.92,238.18L24.34,233.1L26.56,229.04L28.77,227.95L30.98,224.8L33.2,201.83L35.41,194.78L37.62,193.18L39.84,189.95L48.69,189.43L50.9,198.95L53.11,202.48L55.33,201.99L57.54,201.44L59.75,199.52L61.97,194.62L64.18,197.49L66.39,192.97L68.61,192.74L70.82,186.3L73.03,182.67L75.25,179.01L77.46,151.43L79.67,156.97L81.89,144.6L84.1,140.88L86.31,139.7L90.74,153.46L92.95,155.14L97.38,169.89L99.59,158L101.8,156.59L104.02,152.14L106.23,154.27L108.44,154.1L110.66,154.37L112.87,146.92L115.08,139.5L117.3,136.27L119.51,133.64L121.72,145.88L123.93,141.39L126.15,132.19L128.36,131.37L130.57,123.24L135,116.65L137.21,129.34L139.43,127.94L141.64,120L143.85,119.67L146.07,128.83L148.28,143.68L150.49,120.66L152.7,106.55L154.92,102.33L157.13,90.95L159.34,70.39L161.56,65.11L163.77,95.62L165.98,112.11L168.2,57.06L170.41,55.18L172.62,49.34L174.84,31.06L177.05,30.47L179.26,29.94L181.48,27.17L185.9,16L188.11,38.53L190.33,34.24L192.54,38.29L196.97,33.79L199.18,27.68L203.61,34.82L205.82,35.83L210.25,35.31L212.46,39.9L214.67,40.32L216.89,36L219.1,38.52L221.31,32.79L223.52,35.24L225.74,35.74L227.95,36.85L230.16,60.68L234.59,97.04L236.8,99.84L239.02,100.49L241.23,97.66L243.44,102.53L245.66,121.4L250.08,93.92L252.3,92.31L254.51,91.17L256.72,96.45L258.93,90.82L261.15,91.66L263.36,93.95L265.57,94.63L267.79,96.86L270,96.15L272.21,96.57L274.43,96.21L278.85,102.29L281.07,95.32L283.28,95.06L285.49,96.94L287.7,96.32L289.92,98L292.13,100.78L294.34,96.51L298.77,101.81L300.98,98.52L303.2,98.61L305.41,100.92L307.62,115.98L309.84,116.11L312.05,117.36L314.26,116.27L316.48,115.55L318.69,301.51L323.11,130.33L325.33,301.51L327.54,148.29L329.75,148L331.97,160.59L334.18,160.45L336.39,159.02L338.61,160.68L340.82,147.11L343.03,147.88L345.25,146.82L347.46,148.47L349.67,154.08L351.89,154.16L356.31,158.91L358.52,164.25L362.95,162.6L365.16,165.66L367.38,152.74L369.59,152.7L374.02,153.28L376.23,152.62L378.44,151.19L380.66,155.31L382.87,154.59L385.08,154.96L387.3,156.22L389.51,159.82L393.93,151.17L396.15,150.68L398.36,148.33L400.57,148.48L407.21,146.72L409.43,153.51L411.64,155.93L413.85,154.3L416.07,154.42L418.28,152.56L422.7,148.87L424.92,149.59L427.13,149.91L429.34,153.04L431.56,152.74L433.77,155.12L438.2,155.67L440.41,158.26L442.62,159.01L444.84,165.41L447.05,168.21L449.26,169L451.48,136.66L453.69,134.5L455.9,136.44L458.11,140.45L460.33,140.75L462.54,138.82L466.97,142.91L469.18,141.71L475.82,142.33L478.03,143.05L480.25,141.9L482.46,142.09L486.89,144.44L489.1,142.87L491.31,146.38L493.52,144.23L500.16,145.17L502.38,144.28L504.59,142.77L506.8,143.2L509.02,142.97L511.23,134.88L513.44,134.22L515.66,132.34L520.08,134.9L522.3,135.16L524.51,131.2L526.72,135.15L528.93,130.04L531.15,140.47L533.36,138.4L535.57,142.19L537.79,145.52L540,142.75" style="fill: rgb(99, 110, 250); fill-opacity: 0.5; stroke-width: 0;"/></g></g><g class="errorbars"/><g class="lines"><path class="js-line" d="M0,312.45L2.21,282.84L4.43,276.52L8.85,275.37L11.07,275.49L13.28,270.61L15.49,262.6L17.7,254.22L19.92,238.18L24.34,233.1L26.56,229.04L28.77,227.95L30.98,224.8L33.2,201.83L35.41,194.78L37.62,193.18L39.84,189.95L48.69,189.43L50.9,198.95L53.11,202.48L55.33,201.99L57.54,201.44L59.75,199.52L61.97,194.62L64.18,197.49L66.39,192.97L68.61,192.74L70.82,186.3L73.03,182.67L75.25,179.01L77.46,151.43L79.67,156.97L81.89,144.6L84.1,140.88L86.31,139.7L90.74,153.46L92.95,155.14L97.38,169.89L99.59,158L101.8,156.59L104.02,152.14L106.23,154.27L108.44,154.1L110.66,154.37L112.87,146.92L115.08,139.5L117.3,136.27L119.51,133.64L121.72,145.88L123.93,141.39L126.15,132.19L128.36,131.37L130.57,123.24L135,116.65L137.21,129.34L139.43,127.94L141.64,120L143.85,119.67L146.07,128.83L148.28,143.68L150.49,120.66L152.7,106.55L154.92,102.33L157.13,90.95L159.34,70.39L161.56,65.11L163.77,95.62L165.98,112.11L168.2,57.06L170.41,55.18L172.62,49.34L174.84,31.06L177.05,30.47L179.26,29.94L181.48,27.17L185.9,16L188.11,38.53L190.33,34.24L192.54,38.29L196.97,33.79L199.18,27.68L203.61,34.82L205.82,35.83L210.25,35.31L212.46,39.9L214.67,40.32L216.89,36L219.1,38.52L221.31,32.79L223.52,35.24L225.74,35.74L227.95,36.85L230.16,60.68L234.59,97.04L236.8,99.84L239.02,100.49L241.23,97.66L243.44,102.53L245.66,121.4L250.08,93.92L252.3,92.31L254.51,91.17L256.72,96.45L258.93,90.82L261.15,91.66L263.36,93.95L265.57,94.63L267.79,96.86L270,96.15L272.21,96.57L274.43,96.21L278.85,102.29L281.07,95.32L283.28,95.06L285.49,96.94L287.7,96.32L289.92,98L292.13,100.78L294.34,96.51L298.77,101.81L300.98,98.52L303.2,98.61L305.41,100.92L307.62,115.98L309.84,116.11L312.05,117.36L314.26,116.27L316.48,115.55L318.69,301.51L323.11,130.33L325.33,301.51L327.54,148.29L329.75,148L331.97,160.59L334.18,160.45L336.39,159.02L338.61,160.68L340.82,147.11L343.03,147.88L345.25,146.82L347.46,148.47L349.67,154.08L351.89,154.16L356.31,158.91L358.52,164.25L362.95,162.6L365.16,165.66L367.38,152.74L369.59,152.7L374.02,153.28L376.23,152.62L378.44,151.19L380.66,155.31L382.87,154.59L385.08,154.96L387.3,156.22L389.51,159.82L393.93,151.17L396.15,150.68L398.36,148.33L400.57,148.48L407.21,146.72L409.43,153.51L411.64,155.93L413.85,154.3L416.07,154.42L418.28,152.56L422.7,148.87L424.92,149.59L427.13,149.91L429.34,153.04L431.56,152.74L433.77,155.12L438.2,155.67L440.41,158.26L442.62,159.01L444.84,165.41L447.05,168.21L449.26,169L451.48,136.66L453.69,134.5L455.9,136.44L458.11,140.45L460.33,140.75L462.54,138.82L466.97,142.91L469.18,141.71L475.82,142.33L478.03,143.05L480.25,141.9L482.46,142.09L486.89,144.44L489.1,142.87L491.31,146.38L493.52,144.23L500.16,145.17L502.38,144.28L504.59,142.77L506.8,143.2L509.02,142.97L511.23,134.88L513.44,134.22L515.66,132.34L520.08,134.9L522.3,135.16L524.51,131.2L526.72,135.15L528.93,130.04L531.15,140.47L533.36,138.4L535.57,142.19L537.79,145.52L540,142.75" style="vector-effect: none; fill: none; stroke: rgb(99, 110, 250); stroke-opacity: 1; stroke-width: 2px; opacity: 1;"/></g><g class="points"/><g class="text"/></g></g></g><g class="overplot"/><path class="xlines-above crisp" d="M0,0" style="fill: none;"/><path class="ylines-above crisp" d="M0,0" style="fill: none;"/><g class="overlines-above"/><g class="xaxislayer-above"><g class="xtick"><text text-anchor="middle" x="0" y="433" transform="translate(177.38,0)" style="font-family: 'Open Sans', verdana, arial, sans-serif; font-size: 12px; fill: rgb(42, 63, 95); fill-opacity: 1; white-space: pre; opacity: 1;">Jul 2023</text></g><g class="xtick"><text text-anchor="middle" x="0" y="433" style="font-family: 'Open Sans', verdana, arial, sans-serif; font-size: 12px; fill: rgb(42, 63, 95); fill-opacity: 1; white-space: pre; opacity: 1;" transform="translate(314.59000000000003,0)">Sep 2023</text></g><g class="xtick"><text text-anchor="middle" x="0" y="433" style="font-family: 'Open Sans', verdana, arial, sans-serif; font-size: 12px; fill: rgb(42, 63, 95); fill-opacity: 1; white-space: pre; opacity: 1;" transform="translate(449.59,0)">Nov 2023</text></g><g class="xtick"><text text-anchor="middle" x="0" y="433" style="font-family: 'Open Sans', verdana, arial, sans-serif; font-size: 12px; fill: rgb(42, 63, 95); fill-opacity: 1; white-space: pre; opacity: 1;" transform="translate(584.5899999999999,0)">Jan 2024</text></g></g><g class="yaxislayer-above"><g class="ytick"><text text-anchor="end" x="79" y="4.199999999999999" transform="translate(0,420)" style="font-family: 'Open Sans', verdana, arial, sans-serif; font-size: 12px; fill: rgb(42, 63, 95); fill-opacity: 1; white-space: pre; opacity: 1;">$0</text></g><g class="ytick"><text text-anchor="end" x="79" y="4.199999999999999" style="font-family: 'Open Sans', verdana, arial, sans-serif; font-size: 12px; fill: rgb(42, 63, 95); fill-opacity: 1; white-space: pre; opacity: 1;" transform="translate(0,371.8)">$5M</text></g><g class="ytick"><text text-anchor="end" x="79" y="4.199999999999999" style="font-family: 'Open Sans', verdana, arial, sans-serif; font-size: 12px; fill: rgb(42, 63, 95); fill-opacity: 1; white-space: pre; opacity: 1;" transform="translate(0,323.59000000000003)">$10M</text></g><g class="ytick"><text text-anchor="end" x="79" y="4.199999999999999" style="font-family: 'Open Sans', verdana, arial, sans-serif; font-size: 12px; fill: rgb(42, 63, 95); fill-opacity: 1; white-space: pre; opacity: 1;" transform="translate(0,275.39)">$15M</text></g><g class="ytick"><text text-anchor="end" x="79" y="4.199999999999999" style="font-family: 'Open Sans', verdana, arial, sans-serif; font-size: 12px; fill: rgb(42, 63, 95); fill-opacity: 1; white-space: pre; opacity: 1;" transform="translate(0,227.19)">$20M</text></g><g class="ytick"><text text-anchor="end" x="79" y="4.199999999999999" style="font-family: 'Open Sans', verdana, arial, sans-serif; font-size: 12px; fill: rgb(42, 63, 95); fill-opacity: 1; white-space: pre; opacity: 1;" transform="translate(0,178.98000000000002)">$25M</text></g><g class="ytick"><text text-anchor="end" x="79" y="4.199999999999999" style="font-family: 'Open Sans', verdana, arial, sans-serif; font-size: 12px; fill: rgb(42, 63, 95); fill-opacity: 1; white-space: pre; opacity: 1;" transform="translate(0,130.78)">$30M</text></g></g><g class="overaxes-above"/></g></g><g class="polarlayer"/><g class="smithlayer"/><g class="ternarylayer"/><g class="geolayer"/><g class="funnelarealayer"/><g class="pielayer"/><g class="iciclelayer"/><g class="treemaplayer"/><g class="sunburstlayer"/><g class="glimages"/><defs id="topdefs-91c76a"><g class="clips"/></defs><g class="layer-above"><g class="imagelayer"/><g class="shapelayer"/></g><g class="infolayer"><g class="g-gtitle"><text class="gtitle" x="35" y="50" text-anchor="start" dy="0em" style="font-family: 'Open Sans', verdana, arial, sans-serif; font-size: 17px; fill: rgb(42, 63, 95); opacity: 1; font-weight: normal; white-space: pre;"><tspan class="line" dy="0em" x="35" y="50">Yearn Finance</tspan><tspan class="line" dy="1.3em" x="35" y="50">​<tspan style="font-size:70%" dy="-0.6em">Cumulative Net Flows since Program Announcement, Until Program End + 30 Days</tspan><tspan dy="0.42em">​</tspan></tspan></text></g><g class="g-xtitle"><text class="xtitle" x="350" y="460.3" text-anchor="middle" style="font-family: 'Open Sans', verdana, arial, sans-serif; font-size: 14px; fill: rgb(42, 63, 95); opacity: 1; font-weight: normal; white-space: pre;">Day</text></g><g class="g-ytitle"><text class="ytitle" transform="rotate(-90,24.668750000000003,260)" x="24.668750000000003" y="260" text-anchor="middle" style="font-family: 'Open Sans', verdana, arial, sans-serif; font-size: 14px; fill: rgb(42, 63, 95); opacity: 1; font-weight: normal; white-space: pre;">Cumulative Net Flows (USD)</text></g></g></svg>