<svg class="main-svg" xmlns="http://www.w3.org/2000/svg" xmlns:xlink="http://www.w3.org/1999/xlink" width="700" height="500" style="" viewBox="0 0 700 500"><rect x="0" y="0" width="700" height="500" style="fill: rgb(255, 255, 255); fill-opacity: 1;"/><defs id="defs-4b1154"><g class="clips"><clipPath id="clip4b1154xyplot" class="plotclip"><rect width="540" height="320"/></clipPath><clipPath class="axesclip" id="clip4b1154x"><rect x="80" y="0" width="540" height="500"/></clipPath><clipPath class="axesclip" id="clip4b1154y"><rect x="0" y="100" width="700" height="320"/></clipPath><clipPath class="axesclip" id="clip4b1154xy"><rect x="80" y="100" width="540" height="320"/></clipPath></g><g class="gradients"/><g class="patterns"/></defs><g class="bglayer"><rect class="bg" x="80" y="100" width="540" height="320" style="fill: rgb(229, 236, 246); fill-opacity: 1; stroke-width: 0;"/></g><g class="layer-below"><g class="imagelayer"/><g class="shapelayer"/></g><g class="cartesianlayer"><g class="subplot xy"><g class="layer-subplot"><g class="shapelayer"/><g class="imagelayer"/></g><g class="minor-gridlayer"><g class="x"/><g class="y"/></g><g class="gridlayer"><g class="x"><path class="xgrid crisp" transform="translate(164.93,0)" d="M0,100v320" style="stroke: rgb(255, 255, 255); stroke-opacity: 1; stroke-width: 1px;"/><path class="xgrid crisp" transform="translate(259.47,0)" d="M0,100v320" style="stroke: rgb(255, 255, 255); stroke-opacity: 1; stroke-width: 1px;"/><path class="xgrid crisp" transform="translate(357.21,0)" d="M0,100v320" style="stroke: rgb(255, 255, 255); stroke-opacity: 1; stroke-width: 1px;"/><path class="xgrid crisp" transform="translate(454.96,0)" d="M0,100v320" style="stroke: rgb(255, 255, 255); stroke-opacity: 1; stroke-width: 1px;"/><path class="xgrid crisp" transform="translate(554.3,0)" d="M0,100v320" style="stroke: rgb(255, 255, 255); stroke-opacity: 1; stroke-width: 1px;"/></g><g class="y"><path class="ygrid crisp" transform="translate(0,356.48)" d="M80,0h540" style="stroke: rgb(255, 255, 255); stroke-opacity: 1; stroke-width: 1px;"/><path class="ygrid crisp" transform="translate(0,309.03)" d="M80,0h540" style="stroke: rgb(255, 255, 255); stroke-opacity: 1; stroke-width: 1px;"/><path class="ygrid crisp" transform="translate(0,261.57)" d="M80,0h540" style="stroke: rgb(255, 255, 255); stroke-opacity: 1; stroke-width: 1px;"/><path class="ygrid crisp" transform="translate(0,214.12)" d="M80,0h540" style="stroke: rgb(255, 255, 255); stroke-opacity: 1; stroke-width: 1px;"/><path class="ygrid crisp" transform="translate(0,166.66)" d="M80,0h540" style="stroke: rgb(255, 255, 255); stroke-opacity: 1; stroke-width: 1px;"/><path class="ygrid crisp" transform="translate(0,119.21000000000001)" d="M80,0h540" style="stroke: rgb(255, 255, 255); stroke-opacity: 1; stroke-width: 1px;"/></g></g><g class="zerolinelayer"><path class="yzl zl crisp" transform="translate(0,403.93)" d="M80,0h540" style="stroke: rgb(255, 255, 255); stroke-opacity: 1; stroke-width: 2px;"/></g><path class="xlines-below"/><path class="ylines-below"/><g class="overlines-below"/><g class="xaxislayer-below"/><g class="yaxislayer-below"/><g class="overaxes-below"/><g class="plot" transform="translate(80,100)" clip-path="url(#clip4b1154xyplot)"><g class="scatterlayer mlayer"><g class="trace scatter trace93ef59" style="stroke-miterlimit: 2;"><g class="fills"><g><path class="js-fill" d="M540,303.93L0,303.93L0,304L4.81,297.78L6.41,297.48L17.63,296.66L19.23,296.46L22.43,294.97L24.04,294.07L27.24,295.15L28.84,295.34L38.46,295.78L40.06,295.61L41.66,295.54L43.26,294.67L44.87,296.59L46.47,296.27L52.88,295.87L54.48,297.43L56.08,298.44L57.69,298.26L59.29,297.19L60.89,297.04L67.3,296.6L68.9,294.57L70.5,295.1L72.11,294.55L73.71,293.43L75.31,293.35L80.12,292.79L81.72,290.5L84.93,290.54L86.53,287.81L88.13,287.4L89.73,290.48L91.34,288.39L92.94,288.79L96.14,288.31L97.74,288.85L99.35,288.85L100.95,286.75L102.55,285.28L104.15,285.77L105.76,283.3L107.36,283.07L110.56,279.97L112.17,279.8L115.37,281.03L116.97,279.11L118.58,277.87L120.18,262.02L121.78,263.5L123.38,263.25L124.99,258.34L126.59,258.03L128.19,258.42L129.79,252.32L131.39,287.08L133,288.94L134.6,286.1L136.2,273.38L137.8,273.42L139.41,272.62L141.01,266.75L142.61,266.14L144.21,236.1L145.82,235.02L147.42,226.78L149.02,227.45L150.62,218.63L152.23,218.94L153.83,192.01L155.43,192.42L158.64,190.99L160.24,180.03L161.84,180.01L163.44,181.11L165.04,165.31L166.65,165.36L169.85,163.16L171.45,156.41L173.06,144.69L174.66,143.22L177.86,142.53L179.47,139.46L181.07,139.42L182.67,130.61L185.88,131.12L187.48,124.95L189.08,122.98L190.68,122.3L192.28,118.73L193.89,124.36L195.49,124.54L197.09,127.93L198.69,125L200.3,106.15L201.9,98.44L203.5,98.73L205.1,92.07L206.71,66.41L208.31,67.76L209.91,57.23L211.51,41.29L213.12,39.52L217.92,38.38L219.53,39.84L221.13,39.94L222.73,43.46L224.33,19.2L225.93,16L227.54,16L229.14,27.88L232.34,28.4L233.95,27.43L237.15,27.6L238.75,27.21L241.96,59.26L243.56,54.91L246.77,55.04L248.37,52.93L251.57,54.46L253.18,54.22L254.78,61.52L256.38,60.58L257.98,59.75L259.58,226.58L261.19,71.54L262.79,70.06L272.4,68.4L274.01,59.53L275.61,57.79L277.21,62.66L278.81,49.83L280.42,51.07L282.02,51.4L283.62,55.24L286.82,54.83L288.43,56.56L290.03,54.28L291.63,53.94L298.04,53.94L299.64,55.1L304.45,55.36L306.05,54.54L307.66,54.66L309.26,52.44L310.86,54.26L312.46,70.06L314.07,83.84L315.67,86.52L317.27,87.3L318.87,80.32L320.47,52.37L322.08,84.44L323.68,106L325.28,105.93L326.88,97.99L328.49,96.78L331.69,93.26L333.29,93.57L336.5,93.04L338.1,91.1L339.7,96.61L341.31,117.3L342.91,117.56L344.51,113.11L346.11,121.48L347.72,122.34L350.92,117L352.52,144.58L354.12,166.47L355.73,166.61L357.33,166.87L358.93,186.38L360.53,175.41L362.14,175.41L363.74,177.48L365.34,176.85L366.94,180.33L368.55,181.36L370.15,180.82L371.75,195.38L373.35,197.19L374.96,212.73L381.36,209.27L382.97,209.66L384.57,192.29L386.17,189.11L387.77,163.06L389.38,163.09L392.58,164.88L394.18,165.19L395.79,169.12L397.39,169.16L398.99,175.45L400.59,174.68L403.8,180.66L405.4,198.86L407,200.73L408.61,205.83L410.21,206.16L411.81,200.81L413.41,204.69L415.01,210.98L416.62,211.23L418.22,213.22L419.82,211.87L421.42,216.76L424.63,218.27L426.23,219.22L427.83,219.07L429.44,224.19L431.04,224.34L432.64,225.68L435.85,226.36L437.45,227.46L439.05,227.17L440.65,251.4L447.06,252.17L448.66,250.45L451.87,249.94L453.47,251.27L455.07,250.87L456.68,252.17L458.28,257.62L459.88,259.82L463.09,261.2L464.69,260.79L466.29,261.6L467.89,293.44L469.5,292.52L471.1,292.71L479.11,292.76L480.71,289.06L483.92,280.31L485.52,279.87L490.33,279.45L491.93,280.12L501.54,280.28L503.15,277.87L504.75,282.15L506.35,282.47L511.16,282.6L512.76,284.41L514.36,288.59L515.96,288.63L522.37,288.64L523.98,288.56L538.4,289.1L540,292.97" style="fill: rgb(99, 110, 250); fill-opacity: 0.5; stroke-width: 0;"/></g></g><g class="errorbars"/><g class="lines"><path class="js-line" d="M0,304L4.81,297.78L6.41,297.48L17.63,296.66L19.23,296.46L22.43,294.97L24.04,294.07L27.24,295.15L28.84,295.34L38.46,295.78L40.06,295.61L41.66,295.54L43.26,294.67L44.87,296.59L46.47,296.27L52.88,295.87L54.48,297.43L56.08,298.44L57.69,298.26L59.29,297.19L60.89,297.04L67.3,296.6L68.9,294.57L70.5,295.1L72.11,294.55L73.71,293.43L75.31,293.35L80.12,292.79L81.72,290.5L84.93,290.54L86.53,287.81L88.13,287.4L89.73,290.48L91.34,288.39L92.94,288.79L96.14,288.31L97.74,288.85L99.35,288.85L100.95,286.75L102.55,285.28L104.15,285.77L105.76,283.3L107.36,283.07L110.56,279.97L112.17,279.8L115.37,281.03L116.97,279.11L118.58,277.87L120.18,262.02L121.78,263.5L123.38,263.25L124.99,258.34L126.59,258.03L128.19,258.42L129.79,252.32L131.39,287.08L133,288.94L134.6,286.1L136.2,273.38L137.8,273.42L139.41,272.62L141.01,266.75L142.61,266.14L144.21,236.1L145.82,235.02L147.42,226.78L149.02,227.45L150.62,218.63L152.23,218.94L153.83,192.01L155.43,192.42L158.64,190.99L160.24,180.03L161.84,180.01L163.44,181.11L165.04,165.31L166.65,165.36L169.85,163.16L171.45,156.41L173.06,144.69L174.66,143.22L177.86,142.53L179.47,139.46L181.07,139.42L182.67,130.61L185.88,131.12L187.48,124.95L189.08,122.98L190.68,122.3L192.28,118.73L193.89,124.36L195.49,124.54L197.09,127.93L198.69,125L200.3,106.15L201.9,98.44L203.5,98.73L205.1,92.07L206.71,66.41L208.31,67.76L209.91,57.23L211.51,41.29L213.12,39.52L217.92,38.38L219.53,39.84L221.13,39.94L222.73,43.46L224.33,19.2L225.93,16L227.54,16L229.14,27.88L232.34,28.4L233.95,27.43L237.15,27.6L238.75,27.21L241.96,59.26L243.56,54.91L246.77,55.04L248.37,52.93L251.57,54.46L253.18,54.22L254.78,61.52L256.38,60.58L257.98,59.75L259.58,226.58L261.19,71.54L262.79,70.06L272.4,68.4L274.01,59.53L275.61,57.79L277.21,62.66L278.81,49.83L280.42,51.07L282.02,51.4L283.62,55.24L286.82,54.83L288.43,56.56L290.03,54.28L291.63,53.94L298.04,53.94L299.64,55.1L304.45,55.36L306.05,54.54L307.66,54.66L309.26,52.44L310.86,54.26L312.46,70.06L314.07,83.84L315.67,86.52L317.27,87.3L318.87,80.32L320.47,52.37L322.08,84.44L323.68,106L325.28,105.93L326.88,97.99L328.49,96.78L331.69,93.26L333.29,93.57L336.5,93.04L338.1,91.1L339.7,96.61L341.31,117.3L342.91,117.56L344.51,113.11L346.11,121.48L347.72,122.34L350.92,117L352.52,144.58L354.12,166.47L355.73,166.61L357.33,166.87L358.93,186.38L360.53,175.41L362.14,175.41L363.74,177.48L365.34,176.85L366.94,180.33L368.55,181.36L370.15,180.82L371.75,195.38L373.35,197.19L374.96,212.73L381.36,209.27L382.97,209.66L384.57,192.29L386.17,189.11L387.77,163.06L389.38,163.09L392.58,164.88L394.18,165.19L395.79,169.12L397.39,169.16L398.99,175.45L400.59,174.68L403.8,180.66L405.4,198.86L407,200.73L408.61,205.83L410.21,206.16L411.81,200.81L413.41,204.69L415.01,210.98L416.62,211.23L418.22,213.22L419.82,211.87L421.42,216.76L424.63,218.27L426.23,219.22L427.83,219.07L429.44,224.19L431.04,224.34L432.64,225.68L435.85,226.36L437.45,227.46L439.05,227.17L440.65,251.4L447.06,252.17L448.66,250.45L451.87,249.94L453.47,251.27L455.07,250.87L456.68,252.17L458.28,257.62L459.88,259.82L463.09,261.2L464.69,260.79L466.29,261.6L467.89,293.44L469.5,292.52L471.1,292.71L479.11,292.76L480.71,289.06L483.92,280.31L485.52,279.87L490.33,279.45L491.93,280.12L501.54,280.28L503.15,277.87L504.75,282.15L506.35,282.47L511.16,282.6L512.76,284.41L514.36,288.59L515.96,288.63L522.37,288.64L523.98,288.56L538.4,289.1L540,292.97" style="vector-effect: none; fill: none; stroke: rgb(99, 110, 250); stroke-opacity: 1; stroke-width: 2px; opacity: 1;"/></g><g class="points"/><g class="text"/></g></g></g><g class="overplot"/><path class="xlines-above crisp" d="M0,0" style="fill: none;"/><path class="ylines-above crisp" d="M0,0" style="fill: none;"/><g class="overlines-above"/><g class="xaxislayer-above"><g class="xtick"><text text-anchor="middle" x="0" y="433" transform="translate(164.93,0)" style="font-family: 'Open Sans', verdana, arial, sans-serif; font-size: 12px; fill: rgb(42, 63, 95); fill-opacity: 1; white-space: pre; opacity: 1;">Jan 2023</text></g><g class="xtick"><text text-anchor="middle" x="0" y="433" style="font-family: 'Open Sans', verdana, arial, sans-serif; font-size: 12px; fill: rgb(42, 63, 95); fill-opacity: 1; white-space: pre; opacity: 1;" transform="translate(259.47,0)">Mar 2023</text></g><g class="xtick"><text text-anchor="middle" x="0" y="433" style="font-family: 'Open Sans', verdana, arial, sans-serif; font-size: 12px; fill: rgb(42, 63, 95); fill-opacity: 1; white-space: pre; opacity: 1;" transform="translate(357.21,0)">May 2023</text></g><g class="xtick"><text text-anchor="middle" x="0" y="433" style="font-family: 'Open Sans', verdana, arial, sans-serif; font-size: 12px; fill: rgb(42, 63, 95); fill-opacity: 1; white-space: pre; opacity: 1;" transform="translate(454.96,0)">Jul 2023</text></g><g class="xtick"><text text-anchor="middle" x="0" y="433" style="font-family: 'Open Sans', verdana, arial, sans-serif; font-size: 12px; fill: rgb(42, 63, 95); fill-opacity: 1; white-space: pre; opacity: 1;" transform="translate(554.3,0)">Sep 2023</text></g></g><g class="yaxislayer-above"><g class="ytick"><text text-anchor="end" x="79" y="4.199999999999999" transform="translate(0,403.93)" style="font-family: 'Open Sans', verdana, arial, sans-serif; font-size: 12px; fill: rgb(42, 63, 95); fill-opacity: 1; white-space: pre; opacity: 1;">$0</text></g><g class="ytick"><text text-anchor="end" x="79" y="4.199999999999999" style="font-family: 'Open Sans', verdana, arial, sans-serif; font-size: 12px; fill: rgb(42, 63, 95); fill-opacity: 1; white-space: pre; opacity: 1;" transform="translate(0,356.48)">$5M</text></g><g class="ytick"><text text-anchor="end" x="79" y="4.199999999999999" style="font-family: 'Open Sans', verdana, arial, sans-serif; font-size: 12px; fill: rgb(42, 63, 95); fill-opacity: 1; white-space: pre; opacity: 1;" transform="translate(0,309.03)">$10M</text></g><g class="ytick"><text text-anchor="end" x="79" y="4.199999999999999" style="font-family: 'Open Sans', verdana, arial, sans-serif; font-size: 12px; fill: rgb(42, 63, 95); fill-opacity: 1; white-space: pre; opacity: 1;" transform="translate(0,261.57)">$15M</text></g><g class="ytick"><text text-anchor="end" x="79" y="4.199999999999999" style="font-family: 'Open Sans', verdana, arial, sans-serif; font-size: 12px; fill: rgb(42, 63, 95); fill-opacity: 1; white-space: pre; opacity: 1;" transform="translate(0,214.12)">$20M</text></g><g class="ytick"><text text-anchor="end" x="79" y="4.199999999999999" style="font-family: 'Open Sans', verdana, arial, sans-serif; font-size: 12px; fill: rgb(42, 63, 95); fill-opacity: 1; white-space: pre; opacity: 1;" transform="translate(0,166.66)">$25M</text></g><g class="ytick"><text text-anchor="end" x="79" y="4.199999999999999" style="font-family: 'Open Sans', verdana, arial, sans-serif; font-size: 12px; fill: rgb(42, 63, 95); fill-opacity: 1; white-space: pre; opacity: 1;" transform="translate(0,119.21000000000001)">$30M</text></g></g><g class="overaxes-above"/></g></g><g class="polarlayer"/><g class="smithlayer"/><g class="ternarylayer"/><g class="geolayer"/><g class="funnelarealayer"/><g class="pielayer"/><g class="iciclelayer"/><g class="treemaplayer"/><g class="sunburstlayer"/><g class="glimages"/><defs id="topdefs-4b1154"><g class="clips"/></defs><g class="layer-above"><g class="imagelayer"/><g class="shapelayer"/></g><g class="infolayer"><g class="g-gtitle"><text class="gtitle" x="35" y="50" text-anchor="start" dy="0em" style="font-family: 'Open Sans', verdana, arial, sans-serif; font-size: 17px; fill: rgb(42, 63, 95); opacity: 1; font-weight: normal; white-space: pre;"><tspan class="line" dy="0em" x="35" y="50">Rocket Pool - WETH/rETH: Beethoven X</tspan><tspan class="line" dy="1.3em" x="35" y="50">​<tspan style="font-size:70%" dy="-0.6em">Cumulative Net Flows since Program Announcement, Until Program End + 30 Days</tspan><tspan dy="0.42em">​</tspan></tspan></text></g><g class="g-xtitle"><text class="xtitle" x="350" y="460.3" text-anchor="middle" style="font-family: 'Open Sans', verdana, arial, sans-serif; font-size: 14px; fill: rgb(42, 63, 95); opacity: 1; font-weight: normal; white-space: pre;">Day</text></g><g class="g-ytitle"><text class="ytitle" transform="rotate(-90,24.668750000000003,260)" x="24.668750000000003" y="260" text-anchor="middle" style="font-family: 'Open Sans', verdana, arial, sans-serif; font-size: 14px; fill: rgb(42, 63, 95); opacity: 1; font-weight: normal; white-space: pre;">Cumulative Net Flows (USD)</text></g></g></svg>