<svg class="main-svg" xmlns="http://www.w3.org/2000/svg" xmlns:xlink="http://www.w3.org/1999/xlink" width="700" height="500" style="" viewBox="0 0 700 500"><rect x="0" y="0" width="700" height="500" style="fill: rgb(255, 255, 255); fill-opacity: 1;"/><defs id="defs-896587"><g class="clips"><clipPath id="clip896587xyplot" class="plotclip"><rect width="540" height="320"/></clipPath><clipPath class="axesclip" id="clip896587x"><rect x="80" y="0" width="540" height="500"/></clipPath><clipPath class="axesclip" id="clip896587y"><rect x="0" y="100" width="700" height="320"/></clipPath><clipPath class="axesclip" id="clip896587xy"><rect x="80" y="100" width="540" height="320"/></clipPath></g><g class="gradients"/><g class="patterns"/></defs><g class="bglayer"><rect class="bg" x="80" y="100" width="540" height="320" style="fill: rgb(229, 236, 246); fill-opacity: 1; stroke-width: 0;"/></g><g class="layer-below"><g class="imagelayer"/><g class="shapelayer"/></g><g class="cartesianlayer"><g class="subplot xy"><g class="layer-subplot"><g class="shapelayer"/><g class="imagelayer"/></g><g class="minor-gridlayer"><g class="x"/><g class="y"/></g><g class="gridlayer"><g class="x"><path class="xgrid crisp" transform="translate(135.26,0)" d="M0,100v320" style="stroke: rgb(255, 255, 255); stroke-opacity: 1; stroke-width: 1px;"/><path class="xgrid crisp" transform="translate(231.58,0)" d="M0,100v320" style="stroke: rgb(255, 255, 255); stroke-opacity: 1; stroke-width: 1px;"/><path class="xgrid crisp" transform="translate(324.74,0)" d="M0,100v320" style="stroke: rgb(255, 255, 255); stroke-opacity: 1; stroke-width: 1px;"/><path class="xgrid crisp" transform="translate(421.05,0)" d="M0,100v320" style="stroke: rgb(255, 255, 255); stroke-opacity: 1; stroke-width: 1px;"/><path class="xgrid crisp" transform="translate(517.37,0)" d="M0,100v320" style="stroke: rgb(255, 255, 255); stroke-opacity: 1; stroke-width: 1px;"/><path class="xgrid crisp" transform="translate(615.26,0)" d="M0,100v320" style="stroke: rgb(255, 255, 255); stroke-opacity: 1; stroke-width: 1px;"/></g><g class="y"><path class="ygrid crisp" transform="translate(0,383.28)" d="M80,0h540" style="stroke: rgb(255, 255, 255); stroke-opacity: 1; stroke-width: 1px;"/><path class="ygrid crisp" transform="translate(0,250.14)" d="M80,0h540" style="stroke: rgb(255, 255, 255); stroke-opacity: 1; stroke-width: 1px;"/><path class="ygrid crisp" transform="translate(0,183.56)" d="M80,0h540" style="stroke: rgb(255, 255, 255); stroke-opacity: 1; stroke-width: 1px;"/><path class="ygrid crisp" transform="translate(0,116.99)" d="M80,0h540" style="stroke: rgb(255, 255, 255); stroke-opacity: 1; stroke-width: 1px;"/></g></g><g class="zerolinelayer"><path class="yzl zl crisp" transform="translate(0,316.71000000000004)" d="M80,0h540" style="stroke: rgb(255, 255, 255); stroke-opacity: 1; stroke-width: 2px;"/></g><path class="xlines-below"/><path class="ylines-below"/><g class="overlines-below"/><g class="xaxislayer-below"/><g class="yaxislayer-below"/><g class="overaxes-below"/><g class="plot" transform="translate(80,100)" clip-path="url(#clip896587xyplot)"><g class="scatterlayer mlayer"><g class="trace scatter trace40059e" style="stroke-miterlimit: 2;"><g class="fills"><g><path class="js-fill" d="M540,216.71L0,216.71L0,216.56L31.58,216.43L33.16,213.21L36.32,213.36L37.89,214.44L39.47,214.6L41.05,213.85L42.63,213.99L44.21,214.89L45.79,217.42L47.37,216.55L48.95,214.26L50.53,213.53L53.68,213.33L55.26,212.89L56.84,212.68L58.42,210.46L63.16,209.41L64.74,207.58L66.32,214.94L67.89,215.88L69.47,221.66L71.05,221.8L74.21,224.62L75.79,224.96L77.37,220.76L78.95,220.59L83.68,219.26L85.26,219.18L86.84,219.47L88.42,218.91L90,219.56L91.58,217.79L93.16,216.99L94.74,214.8L96.32,214.44L97.89,216.46L99.47,216.73L101.05,216.14L102.63,213.16L104.21,212.04L107.37,211.81L108.95,211.01L110.53,213.12L112.11,211.63L113.68,212.75L115.26,210.64L116.84,213.18L118.42,202.95L120,206.15L121.58,204.53L123.16,206.34L124.74,215.53L126.32,215.68L127.89,218.34L131.05,218.32L132.63,215.52L138.95,215.21L140.53,215.2L151.58,217.17L153.16,216.82L157.89,216.71L159.47,217.75L161.05,216.61L162.63,216.62L164.21,214.95L165.79,214.55L168.95,212.8L170.53,211.42L175.26,210.54L176.84,208.12L178.42,206.8L180,202.79L181.58,200.56L183.16,195.62L184.74,196.09L186.32,191.9L191.05,168.96L192.63,164.36L194.21,161.68L195.79,160.79L197.37,159.11L198.95,155.13L200.53,153.45L202.11,150.41L206.84,145.33L208.42,132.77L211.58,115.07L213.16,116.02L214.74,116.88L216.32,113.44L217.89,110.69L219.47,110.34L221.05,109.07L222.63,105.08L224.21,99.67L225.79,97.2L227.37,97.66L228.95,88.17L230.53,84.23L232.11,70.49L233.68,73.1L235.26,71.29L236.84,57.62L238.42,55.67L240,43.55L241.58,37.36L243.16,33.73L244.74,28L246.32,19.79L247.89,20.02L249.47,20.5L251.05,22.74L252.63,23.46L254.21,18.4L255.79,16L257.37,22.42L258.95,59.3L260.53,144.63L262.11,147.13L263.68,130.75L265.26,107.79L266.84,103.04L268.42,99.43L270,83.82L271.58,66.51L273.16,58.47L274.74,54.82L276.32,58.56L277.89,55.55L279.47,59.7L281.05,61.58L282.63,64.85L284.21,66.48L285.79,70.78L287.37,69.93L288.95,71.39L290.53,82.13L292.11,121.57L293.68,121.97L295.26,127.08L298.42,137.11L300,139.2L301.58,143.71L303.16,145.26L304.74,146.28L306.32,153.71L312.63,169.05L314.21,167.85L317.37,170.22L318.95,169.91L322.11,172L323.68,175.91L325.26,178.19L326.84,176.16L328.42,176.53L330,172.1L333.16,170.14L334.74,172.43L339.47,172.13L341.05,172.35L344.21,174.19L345.79,176.12L347.37,177L348.95,179.37L350.53,179.39L352.11,181.73L355.26,184.64L356.84,188.72L358.42,189.59L360,189.53L361.58,189.96L363.16,191.42L364.74,189.21L366.32,196.62L367.89,197.68L369.47,196.66L371.05,199.1L372.63,199.29L375.79,199.6L377.37,199.97L380.53,200.33L382.11,202.89L388.42,203.59L390,204.89L391.58,205.11L393.16,206.52L396.32,207.15L397.89,209.34L401.05,200.74L402.63,200.99L404.21,207.64L405.79,208.1L410.53,208.48L412.11,215.78L413.68,217.54L415.26,216.28L416.84,216.56L418.42,218.92L421.58,225.71L423.16,226.19L427.89,227.52L429.47,229.96L431.05,231.56L432.63,238.67L435.79,251.12L437.37,254.42L438.95,254.91L440.53,257.46L442.11,265.97L443.68,266.04L453.16,268.23L454.74,293.68L456.32,294.4L457.89,299.81L464.21,300.44L465.79,301.41L480,301.86L481.58,301.86L484.74,302.43L486.32,302.42L524.21,303.3L525.79,303.61L540,304" style="fill: rgb(99, 110, 250); fill-opacity: 0.5; stroke-width: 0;"/></g></g><g class="errorbars"/><g class="lines"><path class="js-line" d="M0,216.56L31.58,216.43L33.16,213.21L36.32,213.36L37.89,214.44L39.47,214.6L41.05,213.85L42.63,213.99L44.21,214.89L45.79,217.42L47.37,216.55L48.95,214.26L50.53,213.53L53.68,213.33L55.26,212.89L56.84,212.68L58.42,210.46L63.16,209.41L64.74,207.58L66.32,214.94L67.89,215.88L69.47,221.66L71.05,221.8L74.21,224.62L75.79,224.96L77.37,220.76L78.95,220.59L83.68,219.26L85.26,219.18L86.84,219.47L88.42,218.91L90,219.56L91.58,217.79L93.16,216.99L94.74,214.8L96.32,214.44L97.89,216.46L99.47,216.73L101.05,216.14L102.63,213.16L104.21,212.04L107.37,211.81L108.95,211.01L110.53,213.12L112.11,211.63L113.68,212.75L115.26,210.64L116.84,213.18L118.42,202.95L120,206.15L121.58,204.53L123.16,206.34L124.74,215.53L126.32,215.68L127.89,218.34L131.05,218.32L132.63,215.52L138.95,215.21L140.53,215.2L151.58,217.17L153.16,216.82L157.89,216.71L159.47,217.75L161.05,216.61L162.63,216.62L164.21,214.95L165.79,214.55L168.95,212.8L170.53,211.42L175.26,210.54L176.84,208.12L178.42,206.8L180,202.79L181.58,200.56L183.16,195.62L184.74,196.09L186.32,191.9L191.05,168.96L192.63,164.36L194.21,161.68L195.79,160.79L197.37,159.11L198.95,155.13L200.53,153.45L202.11,150.41L206.84,145.33L208.42,132.77L211.58,115.07L213.16,116.02L214.74,116.88L216.32,113.44L217.89,110.69L219.47,110.34L221.05,109.07L222.63,105.08L224.21,99.67L225.79,97.2L227.37,97.66L228.95,88.17L230.53,84.23L232.11,70.49L233.68,73.1L235.26,71.29L236.84,57.62L238.42,55.67L240,43.55L241.58,37.36L243.16,33.73L244.74,28L246.32,19.79L247.89,20.02L249.47,20.5L251.05,22.74L252.63,23.46L254.21,18.4L255.79,16L257.37,22.42L258.95,59.3L260.53,144.63L262.11,147.13L263.68,130.75L265.26,107.79L266.84,103.04L268.42,99.43L270,83.82L271.58,66.51L273.16,58.47L274.74,54.82L276.32,58.56L277.89,55.55L279.47,59.7L281.05,61.58L282.63,64.85L284.21,66.48L285.79,70.78L287.37,69.93L288.95,71.39L290.53,82.13L292.11,121.57L293.68,121.97L295.26,127.08L298.42,137.11L300,139.2L301.58,143.71L303.16,145.26L304.74,146.28L306.32,153.71L312.63,169.05L314.21,167.85L317.37,170.22L318.95,169.91L322.11,172L323.68,175.91L325.26,178.19L326.84,176.16L328.42,176.53L330,172.1L333.16,170.14L334.74,172.43L339.47,172.13L341.05,172.35L344.21,174.19L345.79,176.12L347.37,177L348.95,179.37L350.53,179.39L352.11,181.73L355.26,184.64L356.84,188.72L358.42,189.59L360,189.53L361.58,189.96L363.16,191.42L364.74,189.21L366.32,196.62L367.89,197.68L369.47,196.66L371.05,199.1L372.63,199.29L375.79,199.6L377.37,199.97L380.53,200.33L382.11,202.89L388.42,203.59L390,204.89L391.58,205.11L393.16,206.52L396.32,207.15L397.89,209.34L401.05,200.74L402.63,200.99L404.21,207.64L405.79,208.1L410.53,208.48L412.11,215.78L413.68,217.54L415.26,216.28L416.84,216.56L418.42,218.92L421.58,225.71L423.16,226.19L427.89,227.52L429.47,229.96L431.05,231.56L432.63,238.67L435.79,251.12L437.37,254.42L438.95,254.91L440.53,257.46L442.11,265.97L443.68,266.04L453.16,268.23L454.74,293.68L456.32,294.4L457.89,299.81L464.21,300.44L465.79,301.41L480,301.86L481.58,301.86L484.74,302.43L486.32,302.42L524.21,303.3L525.79,303.61L540,304" style="vector-effect: none; fill: none; stroke: rgb(99, 110, 250); stroke-opacity: 1; stroke-width: 2px; opacity: 1;"/></g><g class="points"/><g class="text"/></g></g></g><g class="overplot"/><path class="xlines-above crisp" d="M0,0" style="fill: none;"/><path class="ylines-above crisp" d="M0,0" style="fill: none;"/><g class="overlines-above"/><g class="xaxislayer-above"><g class="xtick"><text text-anchor="middle" x="0" y="433" transform="translate(135.26,0)" style="font-family: 'Open Sans', verdana, arial, sans-serif; font-size: 12px; fill: rgb(42, 63, 95); fill-opacity: 1; white-space: pre; opacity: 1;">Nov 2022</text></g><g class="xtick"><text text-anchor="middle" x="0" y="433" style="font-family: 'Open Sans', verdana, arial, sans-serif; font-size: 12px; fill: rgb(42, 63, 95); fill-opacity: 1; white-space: pre; opacity: 1;" transform="translate(231.58,0)">Jan 2023</text></g><g class="xtick"><text text-anchor="middle" x="0" y="433" style="font-family: 'Open Sans', verdana, arial, sans-serif; font-size: 12px; fill: rgb(42, 63, 95); fill-opacity: 1; white-space: pre; opacity: 1;" transform="translate(324.74,0)">Mar 2023</text></g><g class="xtick"><text text-anchor="middle" x="0" y="433" style="font-family: 'Open Sans', verdana, arial, sans-serif; font-size: 12px; fill: rgb(42, 63, 95); fill-opacity: 1; white-space: pre; opacity: 1;" transform="translate(421.05,0)">May 2023</text></g><g class="xtick"><text text-anchor="middle" x="0" y="433" style="font-family: 'Open Sans', verdana, arial, sans-serif; font-size: 12px; fill: rgb(42, 63, 95); fill-opacity: 1; white-space: pre; opacity: 1;" transform="translate(517.37,0)">Jul 2023</text></g><g class="xtick"><text text-anchor="middle" x="0" y="433" style="font-family: 'Open Sans', verdana, arial, sans-serif; font-size: 12px; fill: rgb(42, 63, 95); fill-opacity: 1; white-space: pre; opacity: 1;" transform="translate(615.26,0)">Sep 2023</text></g></g><g class="yaxislayer-above"><g class="ytick"><text text-anchor="end" x="79" y="4.199999999999999" transform="translate(0,383.28)" style="font-family: 'Open Sans', verdana, arial, sans-serif; font-size: 12px; fill: rgb(42, 63, 95); fill-opacity: 1; white-space: pre; opacity: 1;">$−20M</text></g><g class="ytick"><text text-anchor="end" x="79" y="4.199999999999999" style="font-family: 'Open Sans', verdana, arial, sans-serif; font-size: 12px; fill: rgb(42, 63, 95); fill-opacity: 1; white-space: pre; opacity: 1;" transform="translate(0,316.71000000000004)">$0</text></g><g class="ytick"><text text-anchor="end" x="79" y="4.199999999999999" style="font-family: 'Open Sans', verdana, arial, sans-serif; font-size: 12px; fill: rgb(42, 63, 95); fill-opacity: 1; white-space: pre; opacity: 1;" transform="translate(0,250.14)">$20M</text></g><g class="ytick"><text text-anchor="end" x="79" y="4.199999999999999" style="font-family: 'Open Sans', verdana, arial, sans-serif; font-size: 12px; fill: rgb(42, 63, 95); fill-opacity: 1; white-space: pre; opacity: 1;" transform="translate(0,183.56)">$40M</text></g><g class="ytick"><text text-anchor="end" x="79" y="4.199999999999999" style="font-family: 'Open Sans', verdana, arial, sans-serif; font-size: 12px; fill: rgb(42, 63, 95); fill-opacity: 1; white-space: pre; opacity: 1;" transform="translate(0,116.99)">$60M</text></g></g><g class="overaxes-above"/></g></g><g class="polarlayer"/><g class="smithlayer"/><g class="ternarylayer"/><g class="geolayer"/><g class="funnelarealayer"/><g class="pielayer"/><g class="iciclelayer"/><g class="treemaplayer"/><g class="sunburstlayer"/><g class="glimages"/><defs id="topdefs-896587"><g class="clips"/></defs><g class="layer-above"><g class="imagelayer"/><g class="shapelayer"/></g><g class="infolayer"><g class="g-gtitle"><text class="gtitle" x="35" y="50" text-anchor="start" dy="0em" style="font-family: 'Open Sans', verdana, arial, sans-serif; font-size: 17px; fill: rgb(42, 63, 95); opacity: 1; font-weight: normal; white-space: pre;"><tspan class="line" dy="0em" x="35" y="50">Synthetix - All Synthetix Velo Pools</tspan><tspan class="line" dy="1.3em" x="35" y="50">​<tspan style="font-size:70%" dy="-0.6em">Cumulative Net Flows since Program Announcement, Until Program End + 30 Days</tspan><tspan dy="0.42em">​</tspan></tspan></text></g><g class="g-xtitle"><text class="xtitle" x="350" y="460.3" text-anchor="middle" style="font-family: 'Open Sans', verdana, arial, sans-serif; font-size: 14px; fill: rgb(42, 63, 95); opacity: 1; font-weight: normal; white-space: pre;">Day</text></g><g class="g-ytitle"><text class="ytitle" transform="rotate(-90,17.668750000000003,260)" x="17.668750000000003" y="260" text-anchor="middle" style="font-family: 'Open Sans', verdana, arial, sans-serif; font-size: 14px; fill: rgb(42, 63, 95); opacity: 1; font-weight: normal; white-space: pre;">Cumulative Net Flows (USD)</text></g></g></svg>