<svg class="main-svg" xmlns="http://www.w3.org/2000/svg" xmlns:xlink="http://www.w3.org/1999/xlink" width="700" height="500" style="" viewBox="0 0 700 500"><rect x="0" y="0" width="700" height="500" style="fill: rgb(255, 255, 255); fill-opacity: 1;"/><defs id="defs-d15c4b"><g class="clips"><clipPath id="clipd15c4bxyplot" class="plotclip"><rect width="540" height="320"/></clipPath><clipPath class="axesclip" id="clipd15c4bx"><rect x="80" y="0" width="540" height="500"/></clipPath><clipPath class="axesclip" id="clipd15c4by"><rect x="0" y="100" width="700" height="320"/></clipPath><clipPath class="axesclip" id="clipd15c4bxy"><rect x="80" y="100" width="540" height="320"/></clipPath></g><g class="gradients"/><g class="patterns"/></defs><g class="bglayer"><rect class="bg" x="80" y="100" width="540" height="320" style="fill: rgb(229, 236, 246); fill-opacity: 1; stroke-width: 0;"/></g><g class="layer-below"><g class="imagelayer"/><g class="shapelayer"/></g><g class="cartesianlayer"><g class="subplot xy"><g class="layer-subplot"><g class="shapelayer"/><g class="imagelayer"/></g><g class="minor-gridlayer"><g class="x"/><g class="y"/></g><g class="gridlayer"><g class="x"><path class="xgrid crisp" transform="translate(187.59,0)" d="M0,100v320" style="stroke: rgb(255, 255, 255); stroke-opacity: 1; stroke-width: 1px;"/><path class="xgrid crisp" transform="translate(313.78999999999996,0)" d="M0,100v320" style="stroke: rgb(255, 255, 255); stroke-opacity: 1; stroke-width: 1px;"/><path class="xgrid crisp" transform="translate(440,0)" d="M0,100v320" style="stroke: rgb(255, 255, 255); stroke-opacity: 1; stroke-width: 1px;"/><path class="xgrid crisp" transform="translate(568.28,0)" d="M0,100v320" style="stroke: rgb(255, 255, 255); stroke-opacity: 1; stroke-width: 1px;"/></g><g class="y"><path class="ygrid crisp" transform="translate(0,403.3)" d="M80,0h540" style="stroke: rgb(255, 255, 255); stroke-opacity: 1; stroke-width: 1px;"/><path class="ygrid crisp" transform="translate(0,299.81)" d="M80,0h540" style="stroke: rgb(255, 255, 255); stroke-opacity: 1; stroke-width: 1px;"/><path class="ygrid crisp" transform="translate(0,248.07)" d="M80,0h540" style="stroke: rgb(255, 255, 255); stroke-opacity: 1; stroke-width: 1px;"/><path class="ygrid crisp" transform="translate(0,196.32999999999998)" d="M80,0h540" style="stroke: rgb(255, 255, 255); stroke-opacity: 1; stroke-width: 1px;"/><path class="ygrid crisp" transform="translate(0,144.59)" d="M80,0h540" style="stroke: rgb(255, 255, 255); stroke-opacity: 1; stroke-width: 1px;"/></g></g><g class="zerolinelayer"><path class="yzl zl crisp" transform="translate(0,351.56)" d="M80,0h540" style="stroke: rgb(255, 255, 255); stroke-opacity: 1; stroke-width: 2px;"/></g><path class="xlines-below"/><path class="ylines-below"/><g class="overlines-below"/><g class="xaxislayer-below"/><g class="yaxislayer-below"/><g class="overaxes-below"/><g class="plot" transform="translate(80,100)" clip-path="url(#clipd15c4bxyplot)"><g class="scatterlayer mlayer"><g class="trace scatter tracee12ec4" style="stroke-miterlimit: 2;"><g class="fills"><g><path class="js-fill" d="M540,251.56L0,251.56L0,187.1L2.07,189.85L4.14,189.85L8.28,189.99L10.34,190.06L14.48,190.11L16.55,189.39L37.24,189.54L39.31,187.4L41.38,178.82L43.45,178.93L45.52,178.86L47.59,176.4L49.66,174.38L51.72,174.09L60,173.72L62.07,172.46L66.21,172.13L68.28,171.07L70.34,168.94L72.41,163.33L74.48,170.99L76.55,169.4L78.62,168.84L80.69,152.04L82.76,151.77L84.83,152.67L86.9,152.6L88.97,84L91.03,84.05L93.1,82.97L95.17,76.51L97.24,76.3L99.31,72.12L101.38,71.6L103.45,71.25L105.52,67.38L107.59,67.27L109.66,60.67L111.72,58.06L113.79,56.97L115.86,61.45L117.93,61.1L124.14,60.71L126.21,68.67L128.28,77.32L130.34,69.32L132.41,40.46L134.48,32.61L136.55,32.65L138.62,30.97L140.69,30.65L142.76,38.92L144.83,41.47L146.9,41.15L148.97,41.18L151.03,42.49L153.1,48.71L155.17,48.97L163.45,49.19L165.52,39.84L167.59,40.18L169.66,30.95L173.79,31.36L175.86,30.79L177.93,30.79L180,28.78L182.07,29L184.14,28.32L186.21,28.29L188.28,26.17L192.41,29.12L194.48,16L196.55,16.01L198.62,18.49L200.69,60.74L202.76,60.05L204.83,60.44L206.9,59.84L211.03,54.2L213.1,53.72L217.24,53.88L219.31,54L221.38,49.55L223.45,49.92L227.59,49.8L229.66,49.79L233.79,47.83L235.86,44.88L237.93,45.71L240,45.69L246.21,45.45L248.28,47.81L252.41,45.82L254.48,45.82L256.55,54.3L258.62,53.65L260.69,53.63L262.76,52.61L264.83,51.53L266.9,51.52L271.03,51.51L273.1,54.23L275.17,54.22L277.24,58.23L279.31,58.22L281.38,172.7L283.45,167.95L285.52,167.93L300,166.03L302.07,166.18L304.14,165.81L306.21,161.67L308.28,161.64L310.34,159.27L312.41,160.16L314.48,156.64L316.55,152.37L318.62,152.28L320.69,151.99L322.76,132.23L324.83,128.72L326.9,133.02L328.97,135.55L331.03,134.42L333.1,125.32L335.17,121.92L337.24,118.43L339.31,119.17L341.38,110.98L343.45,135.34L345.52,132.86L347.59,143.57L349.66,143.03L351.72,143.76L353.79,144.67L355.86,198.29L357.93,214.41L360,218.33L362.07,218.99L364.14,223.42L366.21,224.72L368.28,239.11L370.34,235.36L372.41,235.47L374.48,235.51L376.55,237.3L378.62,248.6L380.69,253.99L382.76,298.18L384.83,298.36L386.9,299.47L388.97,299.47L405.52,299.85L407.59,300.33L461.38,300.87L463.45,301.21L531.72,301.63L533.79,304L535.86,301.67L537.93,301.67L540,301.67" style="fill: rgb(99, 110, 250); fill-opacity: 0.5; stroke-width: 0;"/></g></g><g class="errorbars"/><g class="lines"><path class="js-line" d="M0,187.1L2.07,189.85L4.14,189.85L8.28,189.99L10.34,190.06L14.48,190.11L16.55,189.39L37.24,189.54L39.31,187.4L41.38,178.82L43.45,178.93L45.52,178.86L47.59,176.4L49.66,174.38L51.72,174.09L60,173.72L62.07,172.46L66.21,172.13L68.28,171.07L70.34,168.94L72.41,163.33L74.48,170.99L76.55,169.4L78.62,168.84L80.69,152.04L82.76,151.77L84.83,152.67L86.9,152.6L88.97,84L91.03,84.05L93.1,82.97L95.17,76.51L97.24,76.3L99.31,72.12L101.38,71.6L103.45,71.25L105.52,67.38L107.59,67.27L109.66,60.67L111.72,58.06L113.79,56.97L115.86,61.45L117.93,61.1L124.14,60.71L126.21,68.67L128.28,77.32L130.34,69.32L132.41,40.46L134.48,32.61L136.55,32.65L138.62,30.97L140.69,30.65L142.76,38.92L144.83,41.47L146.9,41.15L148.97,41.18L151.03,42.49L153.1,48.71L155.17,48.97L163.45,49.19L165.52,39.84L167.59,40.18L169.66,30.95L173.79,31.36L175.86,30.79L177.93,30.79L180,28.78L182.07,29L184.14,28.32L186.21,28.29L188.28,26.17L192.41,29.12L194.48,16L196.55,16.01L198.62,18.49L200.69,60.74L202.76,60.05L204.83,60.44L206.9,59.84L211.03,54.2L213.1,53.72L217.24,53.88L219.31,54L221.38,49.55L223.45,49.92L227.59,49.8L229.66,49.79L233.79,47.83L235.86,44.88L237.93,45.71L240,45.69L246.21,45.45L248.28,47.81L252.41,45.82L254.48,45.82L256.55,54.3L258.62,53.65L260.69,53.63L262.76,52.61L264.83,51.53L266.9,51.52L271.03,51.51L273.1,54.23L275.17,54.22L277.24,58.23L279.31,58.22L281.38,172.7L283.45,167.95L285.52,167.93L300,166.03L302.07,166.18L304.14,165.81L306.21,161.67L308.28,161.64L310.34,159.27L312.41,160.16L314.48,156.64L316.55,152.37L318.62,152.28L320.69,151.99L322.76,132.23L324.83,128.72L326.9,133.02L328.97,135.55L331.03,134.42L333.1,125.32L335.17,121.92L337.24,118.43L339.31,119.17L341.38,110.98L343.45,135.34L345.52,132.86L347.59,143.57L349.66,143.03L351.72,143.76L353.79,144.67L355.86,198.29L357.93,214.41L360,218.33L362.07,218.99L364.14,223.42L366.21,224.72L368.28,239.11L370.34,235.36L372.41,235.47L374.48,235.51L376.55,237.3L378.62,248.6L380.69,253.99L382.76,298.18L384.83,298.36L386.9,299.47L388.97,299.47L405.52,299.85L407.59,300.33L461.38,300.87L463.45,301.21L531.72,301.63L533.79,304L535.86,301.67L537.93,301.67L540,301.67" style="vector-effect: none; fill: none; stroke: rgb(99, 110, 250); stroke-opacity: 1; stroke-width: 2px; opacity: 1;"/></g><g class="points"/><g class="text"/></g></g></g><g class="overplot"/><path class="xlines-above crisp" d="M0,0" style="fill: none;"/><path class="ylines-above crisp" d="M0,0" style="fill: none;"/><g class="overlines-above"/><g class="xaxislayer-above"><g class="xtick"><text text-anchor="middle" x="0" y="433" transform="translate(187.59,0)" style="font-family: 'Open Sans', verdana, arial, sans-serif; font-size: 12px; fill: rgb(42, 63, 95); fill-opacity: 1; white-space: pre; opacity: 1;">Mar 2023</text></g><g class="xtick"><text text-anchor="middle" x="0" y="433" style="font-family: 'Open Sans', verdana, arial, sans-serif; font-size: 12px; fill: rgb(42, 63, 95); fill-opacity: 1; white-space: pre; opacity: 1;" transform="translate(313.78999999999996,0)">May 2023</text></g><g class="xtick"><text text-anchor="middle" x="0" y="433" style="font-family: 'Open Sans', verdana, arial, sans-serif; font-size: 12px; fill: rgb(42, 63, 95); fill-opacity: 1; white-space: pre; opacity: 1;" transform="translate(440,0)">Jul 2023</text></g><g class="xtick"><text text-anchor="middle" x="0" y="433" style="font-family: 'Open Sans', verdana, arial, sans-serif; font-size: 12px; fill: rgb(42, 63, 95); fill-opacity: 1; white-space: pre; opacity: 1;" transform="translate(568.28,0)">Sep 2023</text></g></g><g class="yaxislayer-above"><g class="ytick"><text text-anchor="end" x="79" y="4.199999999999999" transform="translate(0,403.3)" style="font-family: 'Open Sans', verdana, arial, sans-serif; font-size: 12px; fill: rgb(42, 63, 95); fill-opacity: 1; white-space: pre; opacity: 1;">$−1M</text></g><g class="ytick"><text text-anchor="end" x="79" y="4.199999999999999" style="font-family: 'Open Sans', verdana, arial, sans-serif; font-size: 12px; fill: rgb(42, 63, 95); fill-opacity: 1; white-space: pre; opacity: 1;" transform="translate(0,351.56)">$0</text></g><g class="ytick"><text text-anchor="end" x="79" y="4.199999999999999" style="font-family: 'Open Sans', verdana, arial, sans-serif; font-size: 12px; fill: rgb(42, 63, 95); fill-opacity: 1; white-space: pre; opacity: 1;" transform="translate(0,299.81)">$1M</text></g><g class="ytick"><text text-anchor="end" x="79" y="4.199999999999999" style="font-family: 'Open Sans', verdana, arial, sans-serif; font-size: 12px; fill: rgb(42, 63, 95); fill-opacity: 1; white-space: pre; opacity: 1;" transform="translate(0,248.07)">$2M</text></g><g class="ytick"><text text-anchor="end" x="79" y="4.199999999999999" style="font-family: 'Open Sans', verdana, arial, sans-serif; font-size: 12px; fill: rgb(42, 63, 95); fill-opacity: 1; white-space: pre; opacity: 1;" transform="translate(0,196.32999999999998)">$3M</text></g><g class="ytick"><text text-anchor="end" x="79" y="4.199999999999999" style="font-family: 'Open Sans', verdana, arial, sans-serif; font-size: 12px; fill: rgb(42, 63, 95); fill-opacity: 1; white-space: pre; opacity: 1;" transform="translate(0,144.59)">$4M</text></g></g><g class="overaxes-above"/></g></g><g class="polarlayer"/><g class="smithlayer"/><g class="ternarylayer"/><g class="geolayer"/><g class="funnelarealayer"/><g class="pielayer"/><g class="iciclelayer"/><g class="treemaplayer"/><g class="sunburstlayer"/><g class="glimages"/><defs id="topdefs-d15c4b"><g class="clips"/></defs><g class="layer-above"><g class="imagelayer"/><g class="shapelayer"/></g><g class="infolayer"><g class="g-gtitle"><text class="gtitle" x="35" y="50" text-anchor="start" dy="0em" style="font-family: 'Open Sans', verdana, arial, sans-serif; font-size: 17px; fill: rgb(42, 63, 95); opacity: 1; font-weight: normal; white-space: pre;"><tspan class="line" dy="0em" x="35" y="50">Alchemix - alETH/WETH: Velodrome</tspan><tspan class="line" dy="1.3em" x="35" y="50">​<tspan style="font-size:70%" dy="-0.6em">Cumulative Net Flows since Program Announcement, Until Program End + 30 Days</tspan><tspan dy="0.42em">​</tspan></tspan></text></g><g class="g-xtitle"><text class="xtitle" x="350" y="460.3" text-anchor="middle" style="font-family: 'Open Sans', verdana, arial, sans-serif; font-size: 14px; fill: rgb(42, 63, 95); opacity: 1; font-weight: normal; white-space: pre;">Day</text></g><g class="g-ytitle"><text class="ytitle" transform="rotate(-90,24.340625000000003,260)" x="24.340625000000003" y="260" text-anchor="middle" style="font-family: 'Open Sans', verdana, arial, sans-serif; font-size: 14px; fill: rgb(42, 63, 95); opacity: 1; font-weight: normal; white-space: pre;">Cumulative Net Flows (USD)</text></g></g></svg>