<svg class="main-svg" xmlns="http://www.w3.org/2000/svg" xmlns:xlink="http://www.w3.org/1999/xlink" width="700" height="500" style="" viewBox="0 0 700 500"><rect x="0" y="0" width="700" height="500" style="fill: rgb(255, 255, 255); fill-opacity: 1;"/><defs id="defs-2cfada"><g class="clips"><clipPath id="clip2cfadaxyplot" class="plotclip"><rect width="540" height="320"/></clipPath><clipPath class="axesclip" id="clip2cfadax"><rect x="80" y="0" width="540" height="500"/></clipPath><clipPath class="axesclip" id="clip2cfaday"><rect x="0" y="100" width="700" height="320"/></clipPath><clipPath class="axesclip" id="clip2cfadaxy"><rect x="80" y="100" width="540" height="320"/></clipPath></g><g class="gradients"/><g class="patterns"/></defs><g class="bglayer"><rect class="bg" x="80" y="100" width="540" height="320" style="fill: rgb(229, 236, 246); fill-opacity: 1; stroke-width: 0;"/></g><g class="layer-below"><g class="imagelayer"/><g class="shapelayer"/></g><g class="cartesianlayer"><g class="subplot xy"><g class="layer-subplot"><g class="shapelayer"/><g class="imagelayer"/></g><g class="minor-gridlayer"><g class="x"/><g class="y"/></g><g class="gridlayer"><g class="x"><path class="xgrid crisp" transform="translate(113.68,0)" d="M0,100v320" style="stroke: rgb(255, 255, 255); stroke-opacity: 1; stroke-width: 1px;"/><path class="xgrid crisp" transform="translate(184.51999999999998,0)" d="M0,100v320" style="stroke: rgb(255, 255, 255); stroke-opacity: 1; stroke-width: 1px;"/><path class="xgrid crisp" transform="translate(253.03,0)" d="M0,100v320" style="stroke: rgb(255, 255, 255); stroke-opacity: 1; stroke-width: 1px;"/><path class="xgrid crisp" transform="translate(323.87,0)" d="M0,100v320" style="stroke: rgb(255, 255, 255); stroke-opacity: 1; stroke-width: 1px;"/><path class="xgrid crisp" transform="translate(394.71,0)" d="M0,100v320" style="stroke: rgb(255, 255, 255); stroke-opacity: 1; stroke-width: 1px;"/><path class="xgrid crisp" transform="translate(466.71,0)" d="M0,100v320" style="stroke: rgb(255, 255, 255); stroke-opacity: 1; stroke-width: 1px;"/><path class="xgrid crisp" transform="translate(537.55,0)" d="M0,100v320" style="stroke: rgb(255, 255, 255); stroke-opacity: 1; stroke-width: 1px;"/><path class="xgrid crisp" transform="translate(608.39,0)" d="M0,100v320" style="stroke: rgb(255, 255, 255); stroke-opacity: 1; stroke-width: 1px;"/></g><g class="y"><path class="ygrid crisp" transform="translate(0,383.31)" d="M80,0h540" style="stroke: rgb(255, 255, 255); stroke-opacity: 1; stroke-width: 1px;"/><path class="ygrid crisp" transform="translate(0,260.16999999999996)" d="M80,0h540" style="stroke: rgb(255, 255, 255); stroke-opacity: 1; stroke-width: 1px;"/><path class="ygrid crisp" transform="translate(0,198.61)" d="M80,0h540" style="stroke: rgb(255, 255, 255); stroke-opacity: 1; stroke-width: 1px;"/><path class="ygrid crisp" transform="translate(0,137.04)" d="M80,0h540" style="stroke: rgb(255, 255, 255); stroke-opacity: 1; stroke-width: 1px;"/></g></g><g class="zerolinelayer"><path class="yzl zl crisp" transform="translate(0,321.74)" d="M80,0h540" style="stroke: rgb(255, 255, 255); stroke-opacity: 1; stroke-width: 2px;"/></g><path class="xlines-below"/><path class="ylines-below"/><g class="overlines-below"/><g class="xaxislayer-below"/><g class="yaxislayer-below"/><g class="overaxes-below"/><g class="plot" transform="translate(80,100)" clip-path="url(#clip2cfadaxyplot)"><g class="scatterlayer mlayer"><g class="trace scatter trace66bda5" style="stroke-miterlimit: 2;"><g class="fills"><g><path class="js-fill" d="M540,221.74L0,221.74L0,221.72L15.1,221.19L16.26,218.68L17.42,216.27L18.58,216.24L20.9,215.31L22.06,216.24L23.23,214.33L24.39,206.71L26.71,187.95L27.87,181.71L31.35,177.33L32.52,173.34L33.68,171.44L34.84,152.83L36,158.78L37.16,158.44L38.32,157.74L39.48,163.2L41.81,173.29L42.97,173.55L44.13,176.27L45.29,176.29L47.61,176.39L48.77,178.64L52.26,179.93L53.42,183.01L61.55,183.01L62.71,182.37L63.87,181.6L65.03,179.86L70.84,179L72,177.83L73.16,181.42L74.32,196.74L75.48,196.69L76.65,197.9L77.81,221.97L78.97,221.95L81.29,220.91L82.45,221.93L83.61,220.63L84.77,221L88.26,220.45L89.42,219.79L90.58,220.04L91.74,219.23L97.55,218.02L98.71,215L99.87,215.72L101.03,187.7L102.19,187.31L103.35,184.12L104.52,186.19L105.68,184.69L106.84,182.15L108,183.35L109.16,185.98L110.32,185.26L111.48,185.15L112.65,199.78L113.81,196.43L114.97,196.2L117.29,194.98L118.45,193.02L119.61,175.19L120.77,175.49L125.42,174.6L126.58,175.16L127.74,169.78L128.9,169.65L130.06,169.27L131.23,167.41L132.39,166.64L133.55,159.31L134.71,155.51L135.87,154.74L137.03,175.16L138.19,165.95L139.35,157.77L140.52,158.29L142.84,113.12L144,110.11L146.32,109.56L147.48,107.88L148.65,105.48L149.81,97.85L152.13,95.19L153.29,81.94L154.45,77.53L155.61,76.49L156.77,64.75L157.94,88.99L159.1,95.01L160.26,95.18L162.58,95.97L163.74,95.87L164.9,96.3L166.06,73.53L167.23,67.76L168.39,70.37L170.71,50.3L171.87,44.11L173.03,41.4L174.19,33.27L175.35,31.44L176.52,34.19L177.68,34.17L178.84,21.39L180,16L181.16,17.22L182.32,34.03L183.48,37.8L185.81,44.32L186.97,45.22L188.13,51.39L189.29,50.9L190.45,40.28L191.61,51.87L192.77,69.27L193.94,67.15L195.1,64.39L196.26,110.51L197.42,110.14L198.58,108.53L199.74,108.9L200.9,102.73L203.23,102.29L204.39,124.08L206.71,140.13L207.87,138.29L210.19,108.03L211.35,107.11L213.68,104.66L214.84,115.58L216,115.33L217.16,113.98L218.32,93.34L219.48,100.71L220.65,102.04L221.81,94.73L222.97,87.26L224.13,86.64L226.45,84.85L227.61,82.97L228.77,81.91L229.94,86.5L231.1,81.31L232.26,80.92L234.58,80.74L235.74,79.71L236.9,75.84L238.06,75.27L239.23,75.15L240.39,73.36L245.03,70.88L246.19,71.46L248.52,74.22L249.68,75.67L250.84,18.31L252,23.74L253.16,24.16L254.32,27.19L255.48,29.72L256.65,95.07L258.97,97.33L260.13,97.15L261.29,96.48L262.45,167.33L265.94,167.15L267.1,167L269.42,166.62L270.58,165.15L271.74,167.05L272.9,166.89L276.39,166.46L277.55,173.29L281.03,172.39L282.19,172.37L283.35,173.24L284.52,172.79L286.84,172.32L288,164.21L290.32,166.39L291.48,164.38L292.65,161.37L293.81,160.93L294.97,161.08L296.13,162.03L297.29,163.94L298.45,163.1L300.77,163.91L301.94,160.55L303.1,161.23L304.26,160.87L308.9,160.9L310.06,159.85L311.23,166.72L312.39,186.84L315.87,219.37L317.03,224.46L319.35,234.17L320.52,254.59L321.68,257.04L322.84,257.12L324,257.13L325.16,258.26L326.32,260.73L327.48,261.09L332.13,262.33L333.29,262.51L336.77,263.72L337.94,263.82L348.39,264.92L349.55,266.55L356.52,266.67L357.68,299.48L437.81,300.15L438.97,300.43L440.13,301.76L441.29,301.76L468,301.8L469.16,303.9L540,303.92" style="fill: rgb(99, 110, 250); fill-opacity: 0.5; stroke-width: 0;"/></g></g><g class="errorbars"/><g class="lines"><path class="js-line" d="M0,221.72L15.1,221.19L16.26,218.68L17.42,216.27L18.58,216.24L20.9,215.31L22.06,216.24L23.23,214.33L24.39,206.71L26.71,187.95L27.87,181.71L31.35,177.33L32.52,173.34L33.68,171.44L34.84,152.83L36,158.78L37.16,158.44L38.32,157.74L39.48,163.2L41.81,173.29L42.97,173.55L44.13,176.27L45.29,176.29L47.61,176.39L48.77,178.64L52.26,179.93L53.42,183.01L61.55,183.01L62.71,182.37L63.87,181.6L65.03,179.86L70.84,179L72,177.83L73.16,181.42L74.32,196.74L75.48,196.69L76.65,197.9L77.81,221.97L78.97,221.95L81.29,220.91L82.45,221.93L83.61,220.63L84.77,221L88.26,220.45L89.42,219.79L90.58,220.04L91.74,219.23L97.55,218.02L98.71,215L99.87,215.72L101.03,187.7L102.19,187.31L103.35,184.12L104.52,186.19L105.68,184.69L106.84,182.15L108,183.35L109.16,185.98L110.32,185.26L111.48,185.15L112.65,199.78L113.81,196.43L114.97,196.2L117.29,194.98L118.45,193.02L119.61,175.19L120.77,175.49L125.42,174.6L126.58,175.16L127.74,169.78L128.9,169.65L130.06,169.27L131.23,167.41L132.39,166.64L133.55,159.31L134.71,155.51L135.87,154.74L137.03,175.16L138.19,165.95L139.35,157.77L140.52,158.29L142.84,113.12L144,110.11L146.32,109.56L147.48,107.88L148.65,105.48L149.81,97.85L152.13,95.19L153.29,81.94L154.45,77.53L155.61,76.49L156.77,64.75L157.94,88.99L159.1,95.01L160.26,95.18L162.58,95.97L163.74,95.87L164.9,96.3L166.06,73.53L167.23,67.76L168.39,70.37L170.71,50.3L171.87,44.11L173.03,41.4L174.19,33.27L175.35,31.44L176.52,34.19L177.68,34.17L178.84,21.39L180,16L181.16,17.22L182.32,34.03L183.48,37.8L185.81,44.32L186.97,45.22L188.13,51.39L189.29,50.9L190.45,40.28L191.61,51.87L192.77,69.27L193.94,67.15L195.1,64.39L196.26,110.51L197.42,110.14L198.58,108.53L199.74,108.9L200.9,102.73L203.23,102.29L204.39,124.08L206.71,140.13L207.87,138.29L210.19,108.03L211.35,107.11L213.68,104.66L214.84,115.58L216,115.33L217.16,113.98L218.32,93.34L219.48,100.71L220.65,102.04L221.81,94.73L222.97,87.26L224.13,86.64L226.45,84.85L227.61,82.97L228.77,81.91L229.94,86.5L231.1,81.31L232.26,80.92L234.58,80.74L235.74,79.71L236.9,75.84L238.06,75.27L239.23,75.15L240.39,73.36L245.03,70.88L246.19,71.46L248.52,74.22L249.68,75.67L250.84,18.31L252,23.74L253.16,24.16L254.32,27.19L255.48,29.72L256.65,95.07L258.97,97.33L260.13,97.15L261.29,96.48L262.45,167.33L265.94,167.15L267.1,167L269.42,166.62L270.58,165.15L271.74,167.05L272.9,166.89L276.39,166.46L277.55,173.29L281.03,172.39L282.19,172.37L283.35,173.24L284.52,172.79L286.84,172.32L288,164.21L290.32,166.39L291.48,164.38L292.65,161.37L293.81,160.93L294.97,161.08L296.13,162.03L297.29,163.94L298.45,163.1L300.77,163.91L301.94,160.55L303.1,161.23L304.26,160.87L308.9,160.9L310.06,159.85L311.23,166.72L312.39,186.84L315.87,219.37L317.03,224.46L319.35,234.17L320.52,254.59L321.68,257.04L322.84,257.12L324,257.13L325.16,258.26L326.32,260.73L327.48,261.09L332.13,262.33L333.29,262.51L336.77,263.72L337.94,263.82L348.39,264.92L349.55,266.55L356.52,266.67L357.68,299.48L437.81,300.15L438.97,300.43L440.13,301.76L441.29,301.76L468,301.8L469.16,303.9L540,303.92" style="vector-effect: none; fill: none; stroke: rgb(99, 110, 250); stroke-opacity: 1; stroke-width: 2px; opacity: 1;"/></g><g class="points"/><g class="text"/></g></g></g><g class="overplot"/><path class="xlines-above crisp" d="M0,0" style="fill: none;"/><path class="ylines-above crisp" d="M0,0" style="fill: none;"/><g class="overlines-above"/><g class="xaxislayer-above"><g class="xtick"><text text-anchor="middle" x="0" y="433" transform="translate(113.68,0)" style="font-family: 'Open Sans', verdana, arial, sans-serif; font-size: 12px; fill: rgb(42, 63, 95); fill-opacity: 1; white-space: pre; opacity: 1;">Nov 2022</text></g><g class="xtick"><text text-anchor="middle" x="0" y="433" style="font-family: 'Open Sans', verdana, arial, sans-serif; font-size: 12px; fill: rgb(42, 63, 95); fill-opacity: 1; white-space: pre; opacity: 1;" transform="translate(184.51999999999998,0)">Jan 2023</text></g><g class="xtick"><text text-anchor="middle" x="0" y="433" style="font-family: 'Open Sans', verdana, arial, sans-serif; font-size: 12px; fill: rgb(42, 63, 95); fill-opacity: 1; white-space: pre; opacity: 1;" transform="translate(253.03,0)">Mar 2023</text></g><g class="xtick"><text text-anchor="middle" x="0" y="433" style="font-family: 'Open Sans', verdana, arial, sans-serif; font-size: 12px; fill: rgb(42, 63, 95); fill-opacity: 1; white-space: pre; opacity: 1;" transform="translate(323.87,0)">May 2023</text></g><g class="xtick"><text text-anchor="middle" x="0" y="433" style="font-family: 'Open Sans', verdana, arial, sans-serif; font-size: 12px; fill: rgb(42, 63, 95); fill-opacity: 1; white-space: pre; opacity: 1;" transform="translate(394.71,0)">Jul 2023</text></g><g class="xtick"><text text-anchor="middle" x="0" y="433" style="font-family: 'Open Sans', verdana, arial, sans-serif; font-size: 12px; fill: rgb(42, 63, 95); fill-opacity: 1; white-space: pre; opacity: 1;" transform="translate(466.71,0)">Sep 2023</text></g><g class="xtick"><text text-anchor="middle" x="0" y="433" style="font-family: 'Open Sans', verdana, arial, sans-serif; font-size: 12px; fill: rgb(42, 63, 95); fill-opacity: 1; white-space: pre; opacity: 1;" transform="translate(537.55,0)">Nov 2023</text></g><g class="xtick"><text text-anchor="middle" x="0" y="433" style="font-family: 'Open Sans', verdana, arial, sans-serif; font-size: 12px; fill: rgb(42, 63, 95); fill-opacity: 1; white-space: pre; opacity: 1;" transform="translate(608.39,0)">Jan 2024</text></g></g><g class="yaxislayer-above"><g class="ytick"><text text-anchor="end" x="79" y="4.199999999999999" transform="translate(0,383.31)" style="font-family: 'Open Sans', verdana, arial, sans-serif; font-size: 12px; fill: rgb(42, 63, 95); fill-opacity: 1; white-space: pre; opacity: 1;">$−0.5M</text></g><g class="ytick"><text text-anchor="end" x="79" y="4.199999999999999" style="font-family: 'Open Sans', verdana, arial, sans-serif; font-size: 12px; fill: rgb(42, 63, 95); fill-opacity: 1; white-space: pre; opacity: 1;" transform="translate(0,321.74)">$0</text></g><g class="ytick"><text text-anchor="end" x="79" y="4.199999999999999" style="font-family: 'Open Sans', verdana, arial, sans-serif; font-size: 12px; fill: rgb(42, 63, 95); fill-opacity: 1; white-space: pre; opacity: 1;" transform="translate(0,260.16999999999996)">$0.5M</text></g><g class="ytick"><text text-anchor="end" x="79" y="4.199999999999999" style="font-family: 'Open Sans', verdana, arial, sans-serif; font-size: 12px; fill: rgb(42, 63, 95); fill-opacity: 1; white-space: pre; opacity: 1;" transform="translate(0,198.61)">$1M</text></g><g class="ytick"><text text-anchor="end" x="79" y="4.199999999999999" style="font-family: 'Open Sans', verdana, arial, sans-serif; font-size: 12px; fill: rgb(42, 63, 95); fill-opacity: 1; white-space: pre; opacity: 1;" transform="translate(0,137.04)">$1.5M</text></g></g><g class="overaxes-above"/></g></g><g class="polarlayer"/><g class="smithlayer"/><g class="ternarylayer"/><g class="geolayer"/><g class="funnelarealayer"/><g class="pielayer"/><g class="iciclelayer"/><g class="treemaplayer"/><g class="sunburstlayer"/><g class="glimages"/><defs id="topdefs-2cfada"><g class="clips"/></defs><g class="layer-above"><g class="imagelayer"/><g class="shapelayer"/></g><g class="infolayer"><g class="g-gtitle"><text class="gtitle" x="35" y="50" text-anchor="start" dy="0em" style="font-family: 'Open Sans', verdana, arial, sans-serif; font-size: 17px; fill: rgb(42, 63, 95); opacity: 1; font-weight: normal; white-space: pre;"><tspan class="line" dy="0em" x="35" y="50">Beefy - BIFI/WETH: Velodrome</tspan><tspan class="line" dy="1.3em" x="35" y="50">​<tspan style="font-size:70%" dy="-0.6em">Cumulative Net Flows since Program Announcement, Until Program End + 30 Days</tspan><tspan dy="0.42em">​</tspan></tspan></text></g><g class="g-xtitle"><text class="xtitle" x="350" y="460.3" text-anchor="middle" style="font-family: 'Open Sans', verdana, arial, sans-serif; font-size: 14px; fill: rgb(42, 63, 95); opacity: 1; font-weight: normal; white-space: pre;">Day</text></g><g class="g-ytitle"><text class="ytitle" transform="rotate(-90,14.340625000000003,260)" x="14.340625000000003" y="260" text-anchor="middle" style="font-family: 'Open Sans', verdana, arial, sans-serif; font-size: 14px; fill: rgb(42, 63, 95); opacity: 1; font-weight: normal; white-space: pre;">Cumulative Net Flows (USD)</text></g></g></svg>