<svg class="main-svg" xmlns="http://www.w3.org/2000/svg" xmlns:xlink="http://www.w3.org/1999/xlink" width="700" height="500" style="" viewBox="0 0 700 500"><rect x="0" y="0" width="700" height="500" style="fill: rgb(255, 255, 255); fill-opacity: 1;"/><defs id="defs-b3c7db"><g class="clips"><clipPath id="clipb3c7dbxyplot" class="plotclip"><rect width="540" height="320"/></clipPath><clipPath class="axesclip" id="clipb3c7dbx"><rect x="80" y="0" width="540" height="500"/></clipPath><clipPath class="axesclip" id="clipb3c7dby"><rect x="0" y="100" width="700" height="320"/></clipPath><clipPath class="axesclip" id="clipb3c7dbxy"><rect x="80" y="100" width="540" height="320"/></clipPath></g><g class="gradients"/><g class="patterns"/></defs><g class="bglayer"><rect class="bg" x="80" y="100" width="540" height="320" style="fill: rgb(229, 236, 246); fill-opacity: 1; stroke-width: 0;"/></g><g class="layer-below"><g class="imagelayer"/><g class="shapelayer"/></g><g class="cartesianlayer"><g class="subplot xy"><g class="layer-subplot"><g class="shapelayer"/><g class="imagelayer"/></g><g class="minor-gridlayer"><g class="x"/><g class="y"/></g><g class="gridlayer"><g class="x"><path class="xgrid crisp" transform="translate(90.15,0)" d="M0,100v320" style="stroke: rgb(255, 255, 255); stroke-opacity: 1; stroke-width: 1px;"/><path class="xgrid crisp" transform="translate(193.86,0)" d="M0,100v320" style="stroke: rgb(255, 255, 255); stroke-opacity: 1; stroke-width: 1px;"/><path class="xgrid crisp" transform="translate(295.32,0)" d="M0,100v320" style="stroke: rgb(255, 255, 255); stroke-opacity: 1; stroke-width: 1px;"/><path class="xgrid crisp" transform="translate(397.91,0)" d="M0,100v320" style="stroke: rgb(255, 255, 255); stroke-opacity: 1; stroke-width: 1px;"/><path class="xgrid crisp" transform="translate(501.63,0)" d="M0,100v320" style="stroke: rgb(255, 255, 255); stroke-opacity: 1; stroke-width: 1px;"/><path class="xgrid crisp" transform="translate(605.34,0)" d="M0,100v320" style="stroke: rgb(255, 255, 255); stroke-opacity: 1; stroke-width: 1px;"/></g><g class="y"><path class="ygrid crisp" transform="translate(0,339.94)" d="M80,0h540" style="stroke: rgb(255, 255, 255); stroke-opacity: 1; stroke-width: 1px;"/><path class="ygrid crisp" transform="translate(0,290.88)" d="M80,0h540" style="stroke: rgb(255, 255, 255); stroke-opacity: 1; stroke-width: 1px;"/><path class="ygrid crisp" transform="translate(0,241.81)" d="M80,0h540" style="stroke: rgb(255, 255, 255); stroke-opacity: 1; stroke-width: 1px;"/><path class="ygrid crisp" transform="translate(0,192.75)" d="M80,0h540" style="stroke: rgb(255, 255, 255); stroke-opacity: 1; stroke-width: 1px;"/><path class="ygrid crisp" transform="translate(0,143.69)" d="M80,0h540" style="stroke: rgb(255, 255, 255); stroke-opacity: 1; stroke-width: 1px;"/></g></g><g class="zerolinelayer"><path class="yzl zl crisp" transform="translate(0,389)" d="M80,0h540" style="stroke: rgb(255, 255, 255); stroke-opacity: 1; stroke-width: 2px;"/></g><path class="xlines-below"/><path class="ylines-below"/><g class="overlines-below"/><g class="xaxislayer-below"/><g class="yaxislayer-below"/><g class="overaxes-below"/><g class="plot" transform="translate(80,100)" clip-path="url(#clipb3c7dbxyplot)"><g class="scatterlayer mlayer"><g class="trace scatter trace6bc574" style="stroke-miterlimit: 2;"><g class="fills"><g><path class="js-fill" d="M540,289L0,289L0,284.7L1.13,278.4L2.25,279.66L3.38,278.1L4.51,285.97L5.64,280.15L6.76,278.62L7.89,278.7L9.02,273.54L10.15,284.3L11.27,275.48L12.4,269.65L13.53,270.88L14.66,274.27L15.78,269.02L16.91,269.32L18.04,265.42L19.16,265.52L20.29,268.75L21.42,266.86L22.55,267.22L23.67,271.64L24.8,269.19L25.93,268.85L27.06,270.98L28.18,270.96L29.31,268.69L30.44,265.61L31.57,264.78L32.69,260.46L33.82,261.17L34.95,259.96L36.08,261.81L37.2,262.78L38.33,254.14L39.46,214.28L40.58,145.89L41.71,130.06L42.84,128.87L45.09,113.08L46.22,115.31L47.35,96.55L48.48,98.49L49.6,99.79L50.73,105.33L51.86,107.5L52.99,101.78L55.24,136.78L56.37,129.79L59.75,138.26L60.88,138.15L63.13,132.67L64.26,134.18L65.39,134L66.51,140.3L68.77,130.32L69.9,130.47L71.02,132.43L72.15,130.8L73.28,130.4L74.41,135.91L75.53,144.24L76.66,138.11L77.79,113.18L78.91,111.25L80.04,113.74L81.17,121.03L82.3,122.22L83.42,124.85L84.55,121.25L85.68,121.43L87.93,122.47L89.06,129.23L90.19,128.5L91.32,128.85L92.44,129.1L93.57,121L94.7,123.3L95.82,115.93L96.95,116.6L98.08,101.61L99.21,107.65L100.33,105.95L101.46,118.05L102.59,113.64L103.72,121.66L104.84,120.01L107.1,122.78L108.23,121.33L109.35,127.77L110.48,129.73L113.86,131.27L114.99,128.47L116.12,126.83L117.24,119.36L119.5,136.68L120.63,140.45L121.75,141.32L122.88,138.47L124.01,136.94L125.14,146.88L126.26,150.56L127.39,148.59L128.52,154.79L129.65,154.87L133.03,200.89L134.15,203.09L135.28,200.22L136.41,202.61L137.54,195.28L138.66,198.52L139.79,194.71L140.92,199.83L143.17,191.02L144.3,192.28L146.56,186.3L147.68,181.1L148.81,179.43L149.94,184.44L154.45,173.64L155.57,170.65L156.7,177.18L157.83,177.22L161.21,165.02L162.34,165.4L163.47,162.78L164.59,165.19L165.72,175.65L166.85,174.51L167.97,171.37L169.1,181.9L170.23,172.1L171.36,172.94L172.48,168.48L173.61,175.48L176.99,137.73L178.12,142.69L179.25,129.67L180.38,125.54L181.5,127.24L182.63,118.62L183.76,121.06L184.89,111.52L187.14,94.62L188.27,92.08L189.39,99.32L190.52,82.79L191.65,89.91L192.78,106.04L193.9,113.48L195.03,95.39L196.16,113.62L197.29,107.9L200.67,106L201.8,84.98L204.05,77.16L205.18,53.05L206.3,70.01L207.43,67.31L209.69,52.47L210.81,53.73L211.94,44.26L213.07,54.1L214.2,52.13L215.32,34.22L217.58,30.8L218.71,16L222.09,39.45L223.22,37.51L224.34,81.82L225.47,55.55L226.6,56.8L227.72,49L228.85,46.54L229.98,41.37L231.11,47.4L232.23,43.49L233.36,52.33L234.49,39.37L236.74,37.14L237.87,31.84L239,31.05L240.13,32.48L241.25,23.2L242.38,37.1L243.51,33.21L244.63,24.81L246.89,17.55L248.02,23.76L249.14,28.67L250.27,24.64L251.4,24.53L252.53,33L253.65,25.64L254.78,34.03L255.91,30.54L257.04,33.75L258.16,31.54L259.29,25.98L260.42,26.88L261.54,32.95L262.67,46.74L263.8,36.55L264.93,34.96L266.05,53.42L267.18,59.08L268.31,72.87L269.44,77.43L270.56,72.37L272.82,79.06L273.95,78.84L275.07,85.38L276.2,78.57L277.33,71.86L278.46,73.73L279.58,78.82L280.71,67.55L282.96,79.03L284.09,94.22L285.22,84.31L286.35,103.59L287.47,103.77L288.6,100.22L289.73,110.65L290.86,113.5L291.98,126.16L293.11,118.32L294.24,114.07L295.37,136.45L296.49,130.64L297.62,140.74L298.75,138.58L299.87,140.33L302.13,137.83L303.26,145.76L304.38,154.47L305.51,151.89L307.77,168.59L308.89,164.37L311.15,169.65L312.28,164.73L314.53,161.77L315.66,164.12L316.78,183.16L317.91,188.25L320.17,176.2L321.29,174.98L322.42,167.85L323.55,167.92L324.68,175.32L325.8,177.62L330.31,199.31L331.44,194.02L332.57,193.66L333.7,195.2L334.82,202.15L335.95,201.83L337.08,197.88L338.2,197.29L339.33,193.2L340.46,184.9L341.59,182.5L342.71,187.51L343.84,188.05L344.97,183.74L346.1,182.88L347.22,189.08L348.35,189.29L349.48,187.36L350.61,188.11L351.73,189.83L352.86,189.64L353.99,192.92L355.11,201.63L356.24,203.77L358.5,210.46L359.62,207.78L360.75,200.11L361.88,202.8L363.01,199.22L364.13,198.3L367.52,204.67L368.64,200.57L370.9,200.04L372.03,196.78L373.15,198.13L374.28,202.74L375.41,202.8L376.53,206.94L377.66,207.22L378.79,213.49L382.17,205.07L383.3,208.34L384.43,202.96L385.55,206.19L386.68,200.34L387.81,202.07L388.94,202.5L390.06,200.24L391.19,206.57L392.32,201.7L393.44,203.45L394.57,209.07L395.7,204.95L396.83,204.73L397.95,204.21L399.08,206.54L400.21,207.07L401.34,209.87L403.59,212.14L404.72,216.09L405.85,214.65L406.97,214.68L408.1,213.56L409.23,210.08L410.35,212.49L411.48,211.59L413.74,209.94L414.86,211.77L415.99,212.72L417.12,212.11L418.25,212.06L419.37,214.69L421.63,218.66L422.76,221.36L423.88,224.54L425.01,230.99L426.14,233.88L427.27,259.26L429.52,250.89L430.65,250.22L431.77,251.72L432.9,251.27L434.03,248.19L435.16,248.36L437.41,250.98L438.54,251.12L439.67,251.14L440.79,252.2L441.92,250.25L443.05,250.77L444.18,264.35L445.3,261.76L447.56,258.92L448.68,263.01L449.81,259.06L450.94,258.8L452.07,259.77L453.19,258.07L454.32,258.47L455.45,265.99L456.58,268.1L457.7,266.51L458.83,264.06L459.96,266.27L461.09,266L462.21,266.73L463.34,269.62L464.47,268.61L465.59,269.98L466.72,265.81L467.85,268.14L468.98,278.53L471.23,271.54L472.36,273.04L473.49,274.23L474.61,272.27L475.74,271.04L476.87,275.31L478,275.57L479.12,286.06L481.38,277.79L482.51,279.64L483.63,277.17L484.76,277.24L485.89,275.18L487.01,270.91L488.14,270.81L489.27,272.15L490.4,274.78L491.52,275.27L492.65,280.22L493.78,277.95L494.91,275.62L496.03,271.22L498.29,269.88L499.42,271.45L500.54,272.18L501.67,286.25L502.8,288.44L503.92,288.45L505.05,287.94L506.18,289.23L508.43,288.32L509.56,292.61L510.69,292.51L511.82,295.21L514.07,288.77L515.2,288.49L518.58,294.9L519.71,294.75L520.84,293.01L521.96,294.05L523.09,292.81L524.22,293.81L525.34,291.94L526.47,292.83L527.6,295.95L528.73,292.07L529.85,292.74L530.98,291.88L532.11,292.42L533.24,293.97L534.36,294.32L535.49,302.76L536.62,302.67L537.75,304L540,302.1" style="fill: rgb(99, 110, 250); fill-opacity: 0.5; stroke-width: 0;"/></g></g><g class="errorbars"/><g class="lines"><path class="js-line" d="M0,284.7L1.13,278.4L2.25,279.66L3.38,278.1L4.51,285.97L5.64,280.15L6.76,278.62L7.89,278.7L9.02,273.54L10.15,284.3L11.27,275.48L12.4,269.65L13.53,270.88L14.66,274.27L15.78,269.02L16.91,269.32L18.04,265.42L19.16,265.52L20.29,268.75L21.42,266.86L22.55,267.22L23.67,271.64L24.8,269.19L25.93,268.85L27.06,270.98L28.18,270.96L29.31,268.69L30.44,265.61L31.57,264.78L32.69,260.46L33.82,261.17L34.95,259.96L36.08,261.81L37.2,262.78L38.33,254.14L39.46,214.28L40.58,145.89L41.71,130.06L42.84,128.87L45.09,113.08L46.22,115.31L47.35,96.55L48.48,98.49L49.6,99.79L50.73,105.33L51.86,107.5L52.99,101.78L55.24,136.78L56.37,129.79L59.75,138.26L60.88,138.15L63.13,132.67L64.26,134.18L65.39,134L66.51,140.3L68.77,130.32L69.9,130.47L71.02,132.43L72.15,130.8L73.28,130.4L74.41,135.91L75.53,144.24L76.66,138.11L77.79,113.18L78.91,111.25L80.04,113.74L81.17,121.03L82.3,122.22L83.42,124.85L84.55,121.25L85.68,121.43L87.93,122.47L89.06,129.23L90.19,128.5L91.32,128.85L92.44,129.1L93.57,121L94.7,123.3L95.82,115.93L96.95,116.6L98.08,101.61L99.21,107.65L100.33,105.95L101.46,118.05L102.59,113.64L103.72,121.66L104.84,120.01L107.1,122.78L108.23,121.33L109.35,127.77L110.48,129.73L113.86,131.27L114.99,128.47L116.12,126.83L117.24,119.36L119.5,136.68L120.63,140.45L121.75,141.32L122.88,138.47L124.01,136.94L125.14,146.88L126.26,150.56L127.39,148.59L128.52,154.79L129.65,154.87L133.03,200.89L134.15,203.09L135.28,200.22L136.41,202.61L137.54,195.28L138.66,198.52L139.79,194.71L140.92,199.83L143.17,191.02L144.3,192.28L146.56,186.3L147.68,181.1L148.81,179.43L149.94,184.44L154.45,173.64L155.57,170.65L156.7,177.18L157.83,177.22L161.21,165.02L162.34,165.4L163.47,162.78L164.59,165.19L165.72,175.65L166.85,174.51L167.97,171.37L169.1,181.9L170.23,172.1L171.36,172.94L172.48,168.48L173.61,175.48L176.99,137.73L178.12,142.69L179.25,129.67L180.38,125.54L181.5,127.24L182.63,118.62L183.76,121.06L184.89,111.52L187.14,94.62L188.27,92.08L189.39,99.32L190.52,82.79L191.65,89.91L192.78,106.04L193.9,113.48L195.03,95.39L196.16,113.62L197.29,107.9L200.67,106L201.8,84.98L204.05,77.16L205.18,53.05L206.3,70.01L207.43,67.31L209.69,52.47L210.81,53.73L211.94,44.26L213.07,54.1L214.2,52.13L215.32,34.22L217.58,30.8L218.71,16L222.09,39.45L223.22,37.51L224.34,81.82L225.47,55.55L226.6,56.8L227.72,49L228.85,46.54L229.98,41.37L231.11,47.4L232.23,43.49L233.36,52.33L234.49,39.37L236.74,37.14L237.87,31.84L239,31.05L240.13,32.48L241.25,23.2L242.38,37.1L243.51,33.21L244.63,24.81L246.89,17.55L248.02,23.76L249.14,28.67L250.27,24.64L251.4,24.53L252.53,33L253.65,25.64L254.78,34.03L255.91,30.54L257.04,33.75L258.16,31.54L259.29,25.98L260.42,26.88L261.54,32.95L262.67,46.74L263.8,36.55L264.93,34.96L266.05,53.42L267.18,59.08L268.31,72.87L269.44,77.43L270.56,72.37L272.82,79.06L273.95,78.84L275.07,85.38L276.2,78.57L277.33,71.86L278.46,73.73L279.58,78.82L280.71,67.55L282.96,79.03L284.09,94.22L285.22,84.31L286.35,103.59L287.47,103.77L288.6,100.22L289.73,110.65L290.86,113.5L291.98,126.16L293.11,118.32L294.24,114.07L295.37,136.45L296.49,130.64L297.62,140.74L298.75,138.58L299.87,140.33L302.13,137.83L303.26,145.76L304.38,154.47L305.51,151.89L307.77,168.59L308.89,164.37L311.15,169.65L312.28,164.73L314.53,161.77L315.66,164.12L316.78,183.16L317.91,188.25L320.17,176.2L321.29,174.98L322.42,167.85L323.55,167.92L324.68,175.32L325.8,177.62L330.31,199.31L331.44,194.02L332.57,193.66L333.7,195.2L334.82,202.15L335.95,201.83L337.08,197.88L338.2,197.29L339.33,193.2L340.46,184.9L341.59,182.5L342.71,187.51L343.84,188.05L344.97,183.74L346.1,182.88L347.22,189.08L348.35,189.29L349.48,187.36L350.61,188.11L351.73,189.83L352.86,189.64L353.99,192.92L355.11,201.63L356.24,203.77L358.5,210.46L359.62,207.78L360.75,200.11L361.88,202.8L363.01,199.22L364.13,198.3L367.52,204.67L368.64,200.57L370.9,200.04L372.03,196.78L373.15,198.13L374.28,202.74L375.41,202.8L376.53,206.94L377.66,207.22L378.79,213.49L382.17,205.07L383.3,208.34L384.43,202.96L385.55,206.19L386.68,200.34L387.81,202.07L388.94,202.5L390.06,200.24L391.19,206.57L392.32,201.7L393.44,203.45L394.57,209.07L395.7,204.95L396.83,204.73L397.95,204.21L399.08,206.54L400.21,207.07L401.34,209.87L403.59,212.14L404.72,216.09L405.85,214.65L406.97,214.68L408.1,213.56L409.23,210.08L410.35,212.49L411.48,211.59L413.74,209.94L414.86,211.77L415.99,212.72L417.12,212.11L418.25,212.06L419.37,214.69L421.63,218.66L422.76,221.36L423.88,224.54L425.01,230.99L426.14,233.88L427.27,259.26L429.52,250.89L430.65,250.22L431.77,251.72L432.9,251.27L434.03,248.19L435.16,248.36L437.41,250.98L438.54,251.12L439.67,251.14L440.79,252.2L441.92,250.25L443.05,250.77L444.18,264.35L445.3,261.76L447.56,258.92L448.68,263.01L449.81,259.06L450.94,258.8L452.07,259.77L453.19,258.07L454.32,258.47L455.45,265.99L456.58,268.1L457.7,266.51L458.83,264.06L459.96,266.27L461.09,266L462.21,266.73L463.34,269.62L464.47,268.61L465.59,269.98L466.72,265.81L467.85,268.14L468.98,278.53L471.23,271.54L472.36,273.04L473.49,274.23L474.61,272.27L475.74,271.04L476.87,275.31L478,275.57L479.12,286.06L481.38,277.79L482.51,279.64L483.63,277.17L484.76,277.24L485.89,275.18L487.01,270.91L488.14,270.81L489.27,272.15L490.4,274.78L491.52,275.27L492.65,280.22L493.78,277.95L494.91,275.62L496.03,271.22L498.29,269.88L499.42,271.45L500.54,272.18L501.67,286.25L502.8,288.44L503.92,288.45L505.05,287.94L506.18,289.23L508.43,288.32L509.56,292.61L510.69,292.51L511.82,295.21L514.07,288.77L515.2,288.49L518.58,294.9L519.71,294.75L520.84,293.01L521.96,294.05L523.09,292.81L524.22,293.81L525.34,291.94L526.47,292.83L527.6,295.95L528.73,292.07L529.85,292.74L530.98,291.88L532.11,292.42L533.24,293.97L534.36,294.32L535.49,302.76L536.62,302.67L537.75,304L540,302.1" style="vector-effect: none; fill: none; stroke: rgb(99, 110, 250); stroke-opacity: 1; stroke-width: 2px; opacity: 1;"/></g><g class="points"/><g class="text"/></g></g></g><g class="overplot"/><path class="xlines-above crisp" d="M0,0" style="fill: none;"/><path class="ylines-above crisp" d="M0,0" style="fill: none;"/><g class="overlines-above"/><g class="xaxislayer-above"><g class="xtick"><text text-anchor="middle" x="0" y="433" transform="translate(90.15,0)" style="font-family: 'Open Sans', verdana, arial, sans-serif; font-size: 12px; fill: rgb(42, 63, 95); fill-opacity: 1; white-space: pre; opacity: 1;">Oct 2022</text></g><g class="xtick"><text text-anchor="middle" x="0" y="433" style="font-family: 'Open Sans', verdana, arial, sans-serif; font-size: 12px; fill: rgb(42, 63, 95); fill-opacity: 1; white-space: pre; opacity: 1;" transform="translate(193.86,0)">Jan 2023</text></g><g class="xtick"><text text-anchor="middle" x="0" y="433" style="font-family: 'Open Sans', verdana, arial, sans-serif; font-size: 12px; fill: rgb(42, 63, 95); fill-opacity: 1; white-space: pre; opacity: 1;" transform="translate(295.32,0)">Apr 2023</text></g><g class="xtick"><text text-anchor="middle" x="0" y="433" style="font-family: 'Open Sans', verdana, arial, sans-serif; font-size: 12px; fill: rgb(42, 63, 95); fill-opacity: 1; white-space: pre; opacity: 1;" transform="translate(397.91,0)">Jul 2023</text></g><g class="xtick"><text text-anchor="middle" x="0" y="433" style="font-family: 'Open Sans', verdana, arial, sans-serif; font-size: 12px; fill: rgb(42, 63, 95); fill-opacity: 1; white-space: pre; opacity: 1;" transform="translate(501.63,0)">Oct 2023</text></g><g class="xtick"><text text-anchor="middle" x="0" y="433" style="font-family: 'Open Sans', verdana, arial, sans-serif; font-size: 12px; fill: rgb(42, 63, 95); fill-opacity: 1; white-space: pre; opacity: 1;" transform="translate(605.34,0)">Jan 2024</text></g></g><g class="yaxislayer-above"><g class="ytick"><text text-anchor="end" x="79" y="4.199999999999999" transform="translate(0,389)" style="font-family: 'Open Sans', verdana, arial, sans-serif; font-size: 12px; fill: rgb(42, 63, 95); fill-opacity: 1; white-space: pre; opacity: 1;">$0</text></g><g class="ytick"><text text-anchor="end" x="79" y="4.199999999999999" style="font-family: 'Open Sans', verdana, arial, sans-serif; font-size: 12px; fill: rgb(42, 63, 95); fill-opacity: 1; white-space: pre; opacity: 1;" transform="translate(0,339.94)">$2M</text></g><g class="ytick"><text text-anchor="end" x="79" y="4.199999999999999" style="font-family: 'Open Sans', verdana, arial, sans-serif; font-size: 12px; fill: rgb(42, 63, 95); fill-opacity: 1; white-space: pre; opacity: 1;" transform="translate(0,290.88)">$4M</text></g><g class="ytick"><text text-anchor="end" x="79" y="4.199999999999999" style="font-family: 'Open Sans', verdana, arial, sans-serif; font-size: 12px; fill: rgb(42, 63, 95); fill-opacity: 1; white-space: pre; opacity: 1;" transform="translate(0,241.81)">$6M</text></g><g class="ytick"><text text-anchor="end" x="79" y="4.199999999999999" style="font-family: 'Open Sans', verdana, arial, sans-serif; font-size: 12px; fill: rgb(42, 63, 95); fill-opacity: 1; white-space: pre; opacity: 1;" transform="translate(0,192.75)">$8M</text></g><g class="ytick"><text text-anchor="end" x="79" y="4.199999999999999" style="font-family: 'Open Sans', verdana, arial, sans-serif; font-size: 12px; fill: rgb(42, 63, 95); fill-opacity: 1; white-space: pre; opacity: 1;" transform="translate(0,143.69)">$10M</text></g></g><g class="overaxes-above"/></g></g><g class="polarlayer"/><g class="smithlayer"/><g class="ternarylayer"/><g class="geolayer"/><g class="funnelarealayer"/><g class="pielayer"/><g class="iciclelayer"/><g class="treemaplayer"/><g class="sunburstlayer"/><g class="glimages"/><defs id="topdefs-b3c7db"><g class="clips"/></defs><g class="layer-above"><g class="imagelayer"/><g class="shapelayer"/></g><g class="infolayer"><g class="g-gtitle"><text class="gtitle" x="35" y="50" text-anchor="start" dy="0em" style="font-family: 'Open Sans', verdana, arial, sans-serif; font-size: 17px; fill: rgb(42, 63, 95); opacity: 1; font-weight: normal; white-space: pre;"><tspan class="line" dy="0em" x="35" y="50">Hop Protocol</tspan><tspan class="line" dy="1.3em" x="35" y="50">​<tspan style="font-size:70%" dy="-0.6em">Cumulative Net Flows since Program Announcement, Until Program End + 30 Days</tspan><tspan dy="0.42em">​</tspan></tspan></text></g><g class="g-xtitle"><text class="xtitle" x="350" y="460.3" text-anchor="middle" style="font-family: 'Open Sans', verdana, arial, sans-serif; font-size: 14px; fill: rgb(42, 63, 95); opacity: 1; font-weight: normal; white-space: pre;">Day</text></g><g class="g-ytitle"><text class="ytitle" transform="rotate(-90,24.668750000000003,260)" x="24.668750000000003" y="260" text-anchor="middle" style="font-family: 'Open Sans', verdana, arial, sans-serif; font-size: 14px; fill: rgb(42, 63, 95); opacity: 1; font-weight: normal; white-space: pre;">Cumulative Net Flows (USD)</text></g></g></svg>