<svg class="main-svg" xmlns="http://www.w3.org/2000/svg" xmlns:xlink="http://www.w3.org/1999/xlink" width="700" height="500" style="" viewBox="0 0 700 500"><rect x="0" y="0" width="700" height="500" style="fill: rgb(255, 255, 255); fill-opacity: 1;"/><defs id="defs-9ead57"><g class="clips"><clipPath id="clip9ead57xyplot" class="plotclip"><rect width="540" height="320"/></clipPath><clipPath class="axesclip" id="clip9ead57x"><rect x="80" y="0" width="540" height="500"/></clipPath><clipPath class="axesclip" id="clip9ead57y"><rect x="0" y="100" width="700" height="320"/></clipPath><clipPath class="axesclip" id="clip9ead57xy"><rect x="80" y="100" width="540" height="320"/></clipPath></g><g class="gradients"/><g class="patterns"/></defs><g class="bglayer"><rect class="bg" x="80" y="100" width="540" height="320" style="fill: rgb(229, 236, 246); fill-opacity: 1; stroke-width: 0;"/></g><g class="layer-below"><g class="imagelayer"/><g class="shapelayer"/></g><g class="cartesianlayer"><g class="subplot xy"><g class="layer-subplot"><g class="shapelayer"/><g class="imagelayer"/></g><g class="minor-gridlayer"><g class="x"/><g class="y"/></g><g class="gridlayer"><g class="x"><path class="xgrid crisp" transform="translate(82.66,0)" d="M0,100v320" style="stroke: rgb(255, 255, 255); stroke-opacity: 1; stroke-width: 1px;"/><path class="xgrid crisp" transform="translate(165.12,0)" d="M0,100v320" style="stroke: rgb(255, 255, 255); stroke-opacity: 1; stroke-width: 1px;"/><path class="xgrid crisp" transform="translate(247.59,0)" d="M0,100v320" style="stroke: rgb(255, 255, 255); stroke-opacity: 1; stroke-width: 1px;"/><path class="xgrid crisp" transform="translate(322.07,0)" d="M0,100v320" style="stroke: rgb(255, 255, 255); stroke-opacity: 1; stroke-width: 1px;"/><path class="xgrid crisp" transform="translate(404.53,0)" d="M0,100v320" style="stroke: rgb(255, 255, 255); stroke-opacity: 1; stroke-width: 1px;"/><path class="xgrid crisp" transform="translate(484.33,0)" d="M0,100v320" style="stroke: rgb(255, 255, 255); stroke-opacity: 1; stroke-width: 1px;"/><path class="xgrid crisp" transform="translate(566.8,0)" d="M0,100v320" style="stroke: rgb(255, 255, 255); stroke-opacity: 1; stroke-width: 1px;"/></g><g class="y"><path class="ygrid crisp" transform="translate(0,339.74)" d="M80,0h540" style="stroke: rgb(255, 255, 255); stroke-opacity: 1; stroke-width: 1px;"/><path class="ygrid crisp" transform="translate(0,292.93)" d="M80,0h540" style="stroke: rgb(255, 255, 255); stroke-opacity: 1; stroke-width: 1px;"/><path class="ygrid crisp" transform="translate(0,246.12)" d="M80,0h540" style="stroke: rgb(255, 255, 255); stroke-opacity: 1; stroke-width: 1px;"/><path class="ygrid crisp" transform="translate(0,199.31)" d="M80,0h540" style="stroke: rgb(255, 255, 255); stroke-opacity: 1; stroke-width: 1px;"/><path class="ygrid crisp" transform="translate(0,152.5)" d="M80,0h540" style="stroke: rgb(255, 255, 255); stroke-opacity: 1; stroke-width: 1px;"/><path class="ygrid crisp" transform="translate(0,105.69)" d="M80,0h540" style="stroke: rgb(255, 255, 255); stroke-opacity: 1; stroke-width: 1px;"/></g></g><g class="zerolinelayer"><path class="yzl zl crisp" transform="translate(0,386.55)" d="M80,0h540" style="stroke: rgb(255, 255, 255); stroke-opacity: 1; stroke-width: 2px;"/></g><path class="xlines-below"/><path class="ylines-below"/><g class="overlines-below"/><g class="xaxislayer-below"/><g class="yaxislayer-below"/><g class="overaxes-below"/><g class="plot" transform="translate(80,100)" clip-path="url(#clip9ead57xyplot)"><g class="scatterlayer mlayer"><g class="trace scatter tracec87070" style="stroke-miterlimit: 2;"><g class="fills"><g><path class="js-fill" d="M540,286.55L0,286.55L0,292.98L2.66,304L5.32,290.59L7.98,286.82L10.64,254.25L13.3,260.8L15.96,262.32L18.62,260.37L21.28,247.55L23.94,244.13L26.6,242.34L31.92,233.71L34.58,231.76L37.24,239.01L39.9,218.48L42.56,221.27L45.22,222.35L47.88,151.61L50.54,154.84L53.2,154.86L55.86,149.03L58.52,155L61.18,142.3L63.84,144.24L66.5,143.9L71.82,143.46L74.48,154.16L77.14,153.83L79.8,155.18L82.46,154.03L85.12,102.26L87.78,119.66L90.44,120.24L93.1,115.29L95.76,103.5L98.42,114.85L101.08,117.8L103.74,118.26L106.4,117.18L109.06,111.51L111.72,112.43L114.38,108.23L117.04,112.9L125.02,61.29L127.68,59.9L130.34,57.49L133,36.64L135.67,40.56L138.33,25.96L140.99,27.21L143.65,24.13L146.31,26.88L148.97,36.92L151.63,31.04L154.29,33.97L156.95,34.29L159.61,31.85L162.27,25.06L164.93,30.69L167.59,28.3L170.25,17.05L172.91,18.83L175.57,16.97L178.23,23.77L180.89,16L186.21,27.77L188.87,47.68L191.53,135.02L194.19,174.26L196.85,181.85L199.51,181.97L202.17,182L204.83,178.67L210.15,129.66L212.81,124.46L215.47,122.52L218.13,116.22L220.79,119.09L223.45,132.03L226.11,127.62L228.77,125.76L231.43,126.78L234.09,126.44L236.75,131.53L239.41,133.78L242.07,176.42L244.73,177.83L247.39,179.78L250.05,183.58L252.71,185.46L255.37,188.69L258.03,172.41L260.69,186.49L263.35,182.54L266.01,163.65L268.67,166.97L271.33,178.14L273.99,178.58L276.65,176.58L279.31,163.85L281.97,154.84L287.29,139.08L289.95,158.78L292.61,150.32L295.27,156.36L297.93,151.83L300.59,158.79L303.25,152.92L305.91,154.8L308.57,143.73L311.23,141.3L313.89,155.78L316.55,156.81L319.21,167.05L321.87,165.8L324.53,168.64L327.19,170.19L329.85,161.71L332.51,160.63L335.17,153.81L337.83,156.15L343.15,152.36L345.81,158.42L351.13,154.97L353.79,157.09L359.11,152.96L361.77,157.62L364.43,157.86L367.09,161.59L369.75,162.87L372.41,172.57L375.07,167.9L377.73,171.11L380.39,181.74L383.05,181.95L385.71,185.29L388.37,185.03L391.03,179.03L393.69,178.78L396.35,171.53L399.01,172.47L401.67,171.77L404.33,174.17L407,177.03L409.66,176.63L412.32,164.33L414.98,181.54L417.64,175.89L420.3,180.74L422.96,177.4L425.62,179.22L428.28,213.83L430.94,211.81L433.6,172.4L436.26,174.06L438.92,174.56L441.58,180.17L444.24,186.18L446.9,176.04L449.56,175.93L452.22,178.55L454.88,169.45L457.54,172.35L460.2,176.24L462.86,167.63L465.52,162.89L468.18,172.85L470.84,174.55L473.5,169.77L476.16,172.36L478.82,169.32L489.46,168.26L492.12,157.75L494.78,144.85L497.44,144.47L502.76,130.46L505.42,142.53L508.08,135.4L510.74,135.37L513.4,124.82L516.06,129.61L518.72,128.53L521.38,133L524.04,137.7L526.7,157.84L529.36,162.42L532.02,161.97L537.34,161.29L540,156.64" style="fill: rgb(99, 110, 250); fill-opacity: 0.5; stroke-width: 0;"/></g></g><g class="errorbars"/><g class="lines"><path class="js-line" d="M0,292.98L2.66,304L5.32,290.59L7.98,286.82L10.64,254.25L13.3,260.8L15.96,262.32L18.62,260.37L21.28,247.55L23.94,244.13L26.6,242.34L31.92,233.71L34.58,231.76L37.24,239.01L39.9,218.48L42.56,221.27L45.22,222.35L47.88,151.61L50.54,154.84L53.2,154.86L55.86,149.03L58.52,155L61.18,142.3L63.84,144.24L66.5,143.9L71.82,143.46L74.48,154.16L77.14,153.83L79.8,155.18L82.46,154.03L85.12,102.26L87.78,119.66L90.44,120.24L93.1,115.29L95.76,103.5L98.42,114.85L101.08,117.8L103.74,118.26L106.4,117.18L109.06,111.51L111.72,112.43L114.38,108.23L117.04,112.9L125.02,61.29L127.68,59.9L130.34,57.49L133,36.64L135.67,40.56L138.33,25.96L140.99,27.21L143.65,24.13L146.31,26.88L148.97,36.92L151.63,31.04L154.29,33.97L156.95,34.29L159.61,31.85L162.27,25.06L164.93,30.69L167.59,28.3L170.25,17.05L172.91,18.83L175.57,16.97L178.23,23.77L180.89,16L186.21,27.77L188.87,47.68L191.53,135.02L194.19,174.26L196.85,181.85L199.51,181.97L202.17,182L204.83,178.67L210.15,129.66L212.81,124.46L215.47,122.52L218.13,116.22L220.79,119.09L223.45,132.03L226.11,127.62L228.77,125.76L231.43,126.78L234.09,126.44L236.75,131.53L239.41,133.78L242.07,176.42L244.73,177.83L247.39,179.78L250.05,183.58L252.71,185.46L255.37,188.69L258.03,172.41L260.69,186.49L263.35,182.54L266.01,163.65L268.67,166.97L271.33,178.14L273.99,178.58L276.65,176.58L279.31,163.85L281.97,154.84L287.29,139.08L289.95,158.78L292.61,150.32L295.27,156.36L297.93,151.83L300.59,158.79L303.25,152.92L305.91,154.8L308.57,143.73L311.23,141.3L313.89,155.78L316.55,156.81L319.21,167.05L321.87,165.8L324.53,168.64L327.19,170.19L329.85,161.71L332.51,160.63L335.17,153.81L337.83,156.15L343.15,152.36L345.81,158.42L351.13,154.97L353.79,157.09L359.11,152.96L361.77,157.62L364.43,157.86L367.09,161.59L369.75,162.87L372.41,172.57L375.07,167.9L377.73,171.11L380.39,181.74L383.05,181.95L385.71,185.29L388.37,185.03L391.03,179.03L393.69,178.78L396.35,171.53L399.01,172.47L401.67,171.77L404.33,174.17L407,177.03L409.66,176.63L412.32,164.33L414.98,181.54L417.64,175.89L420.3,180.74L422.96,177.4L425.62,179.22L428.28,213.83L430.94,211.81L433.6,172.4L436.26,174.06L438.92,174.56L441.58,180.17L444.24,186.18L446.9,176.04L449.56,175.93L452.22,178.55L454.88,169.45L457.54,172.35L460.2,176.24L462.86,167.63L465.52,162.89L468.18,172.85L470.84,174.55L473.5,169.77L476.16,172.36L478.82,169.32L489.46,168.26L492.12,157.75L494.78,144.85L497.44,144.47L502.76,130.46L505.42,142.53L508.08,135.4L510.74,135.37L513.4,124.82L516.06,129.61L518.72,128.53L521.38,133L524.04,137.7L526.7,157.84L529.36,162.42L532.02,161.97L537.34,161.29L540,156.64" style="vector-effect: none; fill: none; stroke: rgb(99, 110, 250); stroke-opacity: 1; stroke-width: 2px; opacity: 1;"/></g><g class="points"/><g class="text"/></g></g></g><g class="overplot"/><path class="xlines-above crisp" d="M0,0" style="fill: none;"/><path class="ylines-above crisp" d="M0,0" style="fill: none;"/><g class="overlines-above"/><g class="xaxislayer-above"><g class="xtick"><text text-anchor="middle" x="0" y="433" transform="translate(82.66,0)" style="font-family: 'Open Sans', verdana, arial, sans-serif; font-size: 12px; fill: rgb(42, 63, 95); fill-opacity: 1; white-space: pre; opacity: 1;">Dec 2022</text></g><g class="xtick"><text text-anchor="middle" x="0" y="433" style="font-family: 'Open Sans', verdana, arial, sans-serif; font-size: 12px; fill: rgb(42, 63, 95); fill-opacity: 1; white-space: pre; opacity: 1;" transform="translate(165.12,0)">Jan 2023</text></g><g class="xtick"><text text-anchor="middle" x="0" y="433" style="font-family: 'Open Sans', verdana, arial, sans-serif; font-size: 12px; fill: rgb(42, 63, 95); fill-opacity: 1; white-space: pre; opacity: 1;" transform="translate(247.59,0)">Feb 2023</text></g><g class="xtick"><text text-anchor="middle" x="0" y="433" style="font-family: 'Open Sans', verdana, arial, sans-serif; font-size: 12px; fill: rgb(42, 63, 95); fill-opacity: 1; white-space: pre; opacity: 1;" transform="translate(322.07,0)">Mar 2023</text></g><g class="xtick"><text text-anchor="middle" x="0" y="433" style="font-family: 'Open Sans', verdana, arial, sans-serif; font-size: 12px; fill: rgb(42, 63, 95); fill-opacity: 1; white-space: pre; opacity: 1;" transform="translate(404.53,0)">Apr 2023</text></g><g class="xtick"><text text-anchor="middle" x="0" y="433" style="font-family: 'Open Sans', verdana, arial, sans-serif; font-size: 12px; fill: rgb(42, 63, 95); fill-opacity: 1; white-space: pre; opacity: 1;" transform="translate(484.33,0)">May 2023</text></g><g class="xtick"><text text-anchor="middle" x="0" y="433" style="font-family: 'Open Sans', verdana, arial, sans-serif; font-size: 12px; fill: rgb(42, 63, 95); fill-opacity: 1; white-space: pre; opacity: 1;" transform="translate(566.8,0)">Jun 2023</text></g></g><g class="yaxislayer-above"><g class="ytick"><text text-anchor="end" x="79" y="4.199999999999999" transform="translate(0,386.55)" style="font-family: 'Open Sans', verdana, arial, sans-serif; font-size: 12px; fill: rgb(42, 63, 95); fill-opacity: 1; white-space: pre; opacity: 1;">$0</text></g><g class="ytick"><text text-anchor="end" x="79" y="4.199999999999999" style="font-family: 'Open Sans', verdana, arial, sans-serif; font-size: 12px; fill: rgb(42, 63, 95); fill-opacity: 1; white-space: pre; opacity: 1;" transform="translate(0,339.74)">$2M</text></g><g class="ytick"><text text-anchor="end" x="79" y="4.199999999999999" style="font-family: 'Open Sans', verdana, arial, sans-serif; font-size: 12px; fill: rgb(42, 63, 95); fill-opacity: 1; white-space: pre; opacity: 1;" transform="translate(0,292.93)">$4M</text></g><g class="ytick"><text text-anchor="end" x="79" y="4.199999999999999" style="font-family: 'Open Sans', verdana, arial, sans-serif; font-size: 12px; fill: rgb(42, 63, 95); fill-opacity: 1; white-space: pre; opacity: 1;" transform="translate(0,246.12)">$6M</text></g><g class="ytick"><text text-anchor="end" x="79" y="4.199999999999999" style="font-family: 'Open Sans', verdana, arial, sans-serif; font-size: 12px; fill: rgb(42, 63, 95); fill-opacity: 1; white-space: pre; opacity: 1;" transform="translate(0,199.31)">$8M</text></g><g class="ytick"><text text-anchor="end" x="79" y="4.199999999999999" style="font-family: 'Open Sans', verdana, arial, sans-serif; font-size: 12px; fill: rgb(42, 63, 95); fill-opacity: 1; white-space: pre; opacity: 1;" transform="translate(0,152.5)">$10M</text></g><g class="ytick"><text text-anchor="end" x="79" y="4.199999999999999" style="font-family: 'Open Sans', verdana, arial, sans-serif; font-size: 12px; fill: rgb(42, 63, 95); fill-opacity: 1; white-space: pre; opacity: 1;" transform="translate(0,105.69)">$12M</text></g></g><g class="overaxes-above"/></g></g><g class="polarlayer"/><g class="smithlayer"/><g class="ternarylayer"/><g class="geolayer"/><g class="funnelarealayer"/><g class="pielayer"/><g class="iciclelayer"/><g class="treemaplayer"/><g class="sunburstlayer"/><g class="glimages"/><defs id="topdefs-9ead57"><g class="clips"/></defs><g class="layer-above"><g class="imagelayer"/><g class="shapelayer"/></g><g class="infolayer"><g class="g-gtitle"><text class="gtitle" x="35" y="50" text-anchor="start" dy="0em" style="font-family: 'Open Sans', verdana, arial, sans-serif; font-size: 17px; fill: rgb(42, 63, 95); opacity: 1; font-weight: normal; white-space: pre;"><tspan class="line" dy="0em" x="35" y="50">Dforce</tspan><tspan class="line" dy="1.3em" x="35" y="50">​<tspan style="font-size:70%" dy="-0.6em">Cumulative Net Flows since Program Announcement, Until Program End + 30 Days</tspan><tspan dy="0.42em">​</tspan></tspan></text></g><g class="g-xtitle"><text class="xtitle" x="350" y="460.3" text-anchor="middle" style="font-family: 'Open Sans', verdana, arial, sans-serif; font-size: 14px; fill: rgb(42, 63, 95); opacity: 1; font-weight: normal; white-space: pre;">Day</text></g><g class="g-ytitle"><text class="ytitle" transform="rotate(-90,24.668750000000003,260)" x="24.668750000000003" y="260" text-anchor="middle" style="font-family: 'Open Sans', verdana, arial, sans-serif; font-size: 14px; fill: rgb(42, 63, 95); opacity: 1; font-weight: normal; white-space: pre;">Cumulative Net Flows (USD)</text></g></g></svg>