<svg class="main-svg" xmlns="http://www.w3.org/2000/svg" xmlns:xlink="http://www.w3.org/1999/xlink" width="700" height="500" style="" viewBox="0 0 700 500"><rect x="0" y="0" width="700" height="500" style="fill: rgb(255, 255, 255); fill-opacity: 1;"/><defs id="defs-96db79"><g class="clips"><clipPath id="clip96db79xyplot" class="plotclip"><rect width="540" height="320"/></clipPath><clipPath class="axesclip" id="clip96db79x"><rect x="80" y="0" width="540" height="500"/></clipPath><clipPath class="axesclip" id="clip96db79y"><rect x="0" y="100" width="700" height="320"/></clipPath><clipPath class="axesclip" id="clip96db79xy"><rect x="80" y="100" width="540" height="320"/></clipPath></g><g class="gradients"/><g class="patterns"/></defs><g class="bglayer"><rect class="bg" x="80" y="100" width="540" height="320" style="fill: rgb(229, 236, 246); fill-opacity: 1; stroke-width: 0;"/></g><g class="layer-below"><g class="imagelayer"/><g class="shapelayer"/></g><g class="cartesianlayer"><g class="subplot xy"><g class="layer-subplot"><g class="shapelayer"/><g class="imagelayer"/></g><g class="minor-gridlayer"><g class="x"/><g class="y"/></g><g class="gridlayer"><g class="x"><path class="xgrid crisp" transform="translate(117.97999999999999,0)" d="M0,100v320" style="stroke: rgb(255, 255, 255); stroke-opacity: 1; stroke-width: 1px;"/><path class="xgrid crisp" transform="translate(212.43,0)" d="M0,100v320" style="stroke: rgb(255, 255, 255); stroke-opacity: 1; stroke-width: 1px;"/><path class="xgrid crisp" transform="translate(304.83000000000004,0)" d="M0,100v320" style="stroke: rgb(255, 255, 255); stroke-opacity: 1; stroke-width: 1px;"/><path class="xgrid crisp" transform="translate(398.25,0)" d="M0,100v320" style="stroke: rgb(255, 255, 255); stroke-opacity: 1; stroke-width: 1px;"/><path class="xgrid crisp" transform="translate(492.7,0)" d="M0,100v320" style="stroke: rgb(255, 255, 255); stroke-opacity: 1; stroke-width: 1px;"/><path class="xgrid crisp" transform="translate(587.15,0)" d="M0,100v320" style="stroke: rgb(255, 255, 255); stroke-opacity: 1; stroke-width: 1px;"/></g><g class="y"><path class="ygrid crisp" transform="translate(0,401.64)" d="M80,0h540" style="stroke: rgb(255, 255, 255); stroke-opacity: 1; stroke-width: 1px;"/><path class="ygrid crisp" transform="translate(0,317.22)" d="M80,0h540" style="stroke: rgb(255, 255, 255); stroke-opacity: 1; stroke-width: 1px;"/><path class="ygrid crisp" transform="translate(0,275.01)" d="M80,0h540" style="stroke: rgb(255, 255, 255); stroke-opacity: 1; stroke-width: 1px;"/><path class="ygrid crisp" transform="translate(0,232.8)" d="M80,0h540" style="stroke: rgb(255, 255, 255); stroke-opacity: 1; stroke-width: 1px;"/><path class="ygrid crisp" transform="translate(0,190.59)" d="M80,0h540" style="stroke: rgb(255, 255, 255); stroke-opacity: 1; stroke-width: 1px;"/><path class="ygrid crisp" transform="translate(0,148.38)" d="M80,0h540" style="stroke: rgb(255, 255, 255); stroke-opacity: 1; stroke-width: 1px;"/><path class="ygrid crisp" transform="translate(0,106.17)" d="M80,0h540" style="stroke: rgb(255, 255, 255); stroke-opacity: 1; stroke-width: 1px;"/></g></g><g class="zerolinelayer"><path class="yzl zl crisp" transform="translate(0,359.43)" d="M80,0h540" style="stroke: rgb(255, 255, 255); stroke-opacity: 1; stroke-width: 2px;"/></g><path class="xlines-below"/><path class="ylines-below"/><g class="overlines-below"/><g class="xaxislayer-below"/><g class="yaxislayer-below"/><g class="overaxes-below"/><g class="plot" transform="translate(80,100)" clip-path="url(#clip96db79xyplot)"><g class="scatterlayer mlayer"><g class="trace scatter tracee8ceca" style="stroke-miterlimit: 2;"><g class="fills"><g><path class="js-fill" d="M540,259.43L0,259.43L0,258.55L1.03,220.93L2.05,214.43L3.08,211.61L4.11,211.55L6.16,203.38L7.19,202.09L8.21,203.67L9.24,198.28L11.29,193.12L12.32,201.26L13.35,199.01L14.37,201.24L16.43,188.44L17.45,186.02L18.48,185.27L19.51,187.67L21.56,192.19L22.59,181.04L23.61,173.69L24.64,172.47L25.67,170.34L26.69,175.2L27.72,175.05L28.75,172.6L30.8,172.55L31.83,173.29L33.88,171.26L34.9,145.59L35.93,147.41L36.96,152.8L39.01,151.6L40.04,152.78L42.09,154.8L43.12,161.27L44.14,158L45.17,165.55L46.2,165.54L47.22,166.6L48.25,169.8L49.28,167.34L51.33,166.71L52.36,164.61L54.41,164.25L55.44,162.68L56.46,163.99L57.49,163.78L62.62,164.06L63.65,162.6L64.68,163.28L65.7,174.19L66.73,172.2L67.76,161.4L73.92,161.85L74.94,162.66L75.97,161.01L77,160.85L78.02,190.87L79.05,194.62L81.1,177.97L82.13,183.46L83.16,174.51L84.18,173.34L85.21,172.5L86.24,174.17L87.26,177.99L88.29,177.08L89.32,176.21L90.34,177.77L92.4,177.9L93.42,172.64L94.45,173.03L95.48,172.11L100.61,171.79L101.63,169.56L102.66,169.63L103.69,166.05L104.71,165.59L105.74,160.89L107.79,144.07L108.82,144.48L109.85,142.84L110.87,142.74L111.9,141.44L112.93,138.12L113.95,137.47L114.98,133.37L116.01,130.69L117.03,134.05L119.09,134.1L120.11,136.94L121.14,148.9L122.17,149.27L123.19,149.69L124.22,148.93L127.3,148.97L128.33,153.95L129.35,153.86L130.38,150.89L131.41,138.76L132.43,136.25L133.46,140.21L134.49,140.14L135.51,145.02L136.54,145.5L137.57,142.88L138.59,142.91L139.62,146.02L140.65,144.17L142.7,123.08L143.73,121.71L144.75,126.46L145.78,122.89L146.81,121.74L147.83,123.52L149.89,122.73L150.91,125.62L151.94,121.5L152.97,112.38L155.02,108.77L156.05,107.02L157.07,85.97L158.1,42.37L159.13,38.96L160.15,41.26L161.18,31.99L162.21,31.23L163.23,17.95L164.26,17.57L165.29,16L166.31,20.18L168.37,34.18L169.39,34.16L170.42,42.25L171.44,56.97L172.47,59.1L173.5,59.46L174.52,59.22L175.55,39.69L176.58,41.66L177.6,39.51L178.63,39.77L179.66,37.66L180.68,42.54L181.71,51.51L183.76,52.64L184.79,65.86L186.84,67.24L187.87,66.43L188.9,64.42L189.92,60.3L191.98,59.21L193,59.29L194.03,58.73L195.06,60.05L197.11,59.73L198.14,56.68L199.16,57.93L200.19,55.9L201.22,51.86L202.24,52.28L203.27,50.53L204.3,63.35L206.35,59.42L207.38,51.52L208.4,49.52L209.43,52.17L211.48,58.73L212.51,61.36L213.54,61.55L214.56,60.18L217.64,62.22L218.67,77.43L219.7,87.49L220.72,127.5L222.78,197.76L223.8,200L225.86,211.02L226.88,213.65L227.91,216.42L228.94,223.47L232.02,227.14L233.04,227.6L234.07,228.28L235.1,231.2L237.15,232.73L238.17,278.41L240.23,279.27L241.25,280.74L245.36,282.59L246.39,280.51L249.47,281.13L250.49,284.53L251.52,286.27L252.55,286.42L255.63,286.97L256.65,286.98L265.89,287.48L266.92,289.97L270,289.98L271.03,290.81L279.24,291.46L280.27,295.2L307.98,296.88L309.01,297.38L333.65,298.32L334.68,298.67L365.48,299.44L366.5,299.44L407.57,299.5L408.59,299.5L443.5,300.21L444.52,301.56L468.14,301.98L469.16,303.73L540,304" style="fill: rgb(99, 110, 250); fill-opacity: 0.5; stroke-width: 0;"/></g></g><g class="errorbars"/><g class="lines"><path class="js-line" d="M0,258.55L1.03,220.93L2.05,214.43L3.08,211.61L4.11,211.55L6.16,203.38L7.19,202.09L8.21,203.67L9.24,198.28L11.29,193.12L12.32,201.26L13.35,199.01L14.37,201.24L16.43,188.44L17.45,186.02L18.48,185.27L19.51,187.67L21.56,192.19L22.59,181.04L23.61,173.69L24.64,172.47L25.67,170.34L26.69,175.2L27.72,175.05L28.75,172.6L30.8,172.55L31.83,173.29L33.88,171.26L34.9,145.59L35.93,147.41L36.96,152.8L39.01,151.6L40.04,152.78L42.09,154.8L43.12,161.27L44.14,158L45.17,165.55L46.2,165.54L47.22,166.6L48.25,169.8L49.28,167.34L51.33,166.71L52.36,164.61L54.41,164.25L55.44,162.68L56.46,163.99L57.49,163.78L62.62,164.06L63.65,162.6L64.68,163.28L65.7,174.19L66.73,172.2L67.76,161.4L73.92,161.85L74.94,162.66L75.97,161.01L77,160.85L78.02,190.87L79.05,194.62L81.1,177.97L82.13,183.46L83.16,174.51L84.18,173.34L85.21,172.5L86.24,174.17L87.26,177.99L88.29,177.08L89.32,176.21L90.34,177.77L92.4,177.9L93.42,172.64L94.45,173.03L95.48,172.11L100.61,171.79L101.63,169.56L102.66,169.63L103.69,166.05L104.71,165.59L105.74,160.89L107.79,144.07L108.82,144.48L109.85,142.84L110.87,142.74L111.9,141.44L112.93,138.12L113.95,137.47L114.98,133.37L116.01,130.69L117.03,134.05L119.09,134.1L120.11,136.94L121.14,148.9L122.17,149.27L123.19,149.69L124.22,148.93L127.3,148.97L128.33,153.95L129.35,153.86L130.38,150.89L131.41,138.76L132.43,136.25L133.46,140.21L134.49,140.14L135.51,145.02L136.54,145.5L137.57,142.88L138.59,142.91L139.62,146.02L140.65,144.17L142.7,123.08L143.73,121.71L144.75,126.46L145.78,122.89L146.81,121.74L147.83,123.52L149.89,122.73L150.91,125.62L151.94,121.5L152.97,112.38L155.02,108.77L156.05,107.02L157.07,85.97L158.1,42.37L159.13,38.96L160.15,41.26L161.18,31.99L162.21,31.23L163.23,17.95L164.26,17.57L165.29,16L166.31,20.18L168.37,34.18L169.39,34.16L170.42,42.25L171.44,56.97L172.47,59.1L173.5,59.46L174.52,59.22L175.55,39.69L176.58,41.66L177.6,39.51L178.63,39.77L179.66,37.66L180.68,42.54L181.71,51.51L183.76,52.64L184.79,65.86L186.84,67.24L187.87,66.43L188.9,64.42L189.92,60.3L191.98,59.21L193,59.29L194.03,58.73L195.06,60.05L197.11,59.73L198.14,56.68L199.16,57.93L200.19,55.9L201.22,51.86L202.24,52.28L203.27,50.53L204.3,63.35L206.35,59.42L207.38,51.52L208.4,49.52L209.43,52.17L211.48,58.73L212.51,61.36L213.54,61.55L214.56,60.18L217.64,62.22L218.67,77.43L219.7,87.49L220.72,127.5L222.78,197.76L223.8,200L225.86,211.02L226.88,213.65L227.91,216.42L228.94,223.47L232.02,227.14L233.04,227.6L234.07,228.28L235.1,231.2L237.15,232.73L238.17,278.41L240.23,279.27L241.25,280.74L245.36,282.59L246.39,280.51L249.47,281.13L250.49,284.53L251.52,286.27L252.55,286.42L255.63,286.97L256.65,286.98L265.89,287.48L266.92,289.97L270,289.98L271.03,290.81L279.24,291.46L280.27,295.2L307.98,296.88L309.01,297.38L333.65,298.32L334.68,298.67L365.48,299.44L366.5,299.44L407.57,299.5L408.59,299.5L443.5,300.21L444.52,301.56L468.14,301.98L469.16,303.73L540,304" style="vector-effect: none; fill: none; stroke: rgb(99, 110, 250); stroke-opacity: 1; stroke-width: 2px; opacity: 1;"/></g><g class="points"/><g class="text"/></g></g></g><g class="overplot"/><path class="xlines-above crisp" d="M0,0" style="fill: none;"/><path class="ylines-above crisp" d="M0,0" style="fill: none;"/><g class="overlines-above"/><g class="xaxislayer-above"><g class="xtick"><text text-anchor="middle" x="0" y="433" transform="translate(117.97999999999999,0)" style="font-family: 'Open Sans', verdana, arial, sans-serif; font-size: 12px; fill: rgb(42, 63, 95); fill-opacity: 1; white-space: pre; opacity: 1;">Oct 2022</text></g><g class="xtick"><text text-anchor="middle" x="0" y="433" style="font-family: 'Open Sans', verdana, arial, sans-serif; font-size: 12px; fill: rgb(42, 63, 95); fill-opacity: 1; white-space: pre; opacity: 1;" transform="translate(212.43,0)">Jan 2023</text></g><g class="xtick"><text text-anchor="middle" x="0" y="433" style="font-family: 'Open Sans', verdana, arial, sans-serif; font-size: 12px; fill: rgb(42, 63, 95); fill-opacity: 1; white-space: pre; opacity: 1;" transform="translate(304.83000000000004,0)">Apr 2023</text></g><g class="xtick"><text text-anchor="middle" x="0" y="433" style="font-family: 'Open Sans', verdana, arial, sans-serif; font-size: 12px; fill: rgb(42, 63, 95); fill-opacity: 1; white-space: pre; opacity: 1;" transform="translate(398.25,0)">Jul 2023</text></g><g class="xtick"><text text-anchor="middle" x="0" y="433" style="font-family: 'Open Sans', verdana, arial, sans-serif; font-size: 12px; fill: rgb(42, 63, 95); fill-opacity: 1; white-space: pre; opacity: 1;" transform="translate(492.7,0)">Oct 2023</text></g><g class="xtick"><text text-anchor="middle" x="0" y="433" style="font-family: 'Open Sans', verdana, arial, sans-serif; font-size: 12px; fill: rgb(42, 63, 95); fill-opacity: 1; white-space: pre; opacity: 1;" transform="translate(587.15,0)">Jan 2024</text></g></g><g class="yaxislayer-above"><g class="ytick"><text text-anchor="end" x="79" y="4.199999999999999" transform="translate(0,401.64)" style="font-family: 'Open Sans', verdana, arial, sans-serif; font-size: 12px; fill: rgb(42, 63, 95); fill-opacity: 1; white-space: pre; opacity: 1;">$−5M</text></g><g class="ytick"><text text-anchor="end" x="79" y="4.199999999999999" style="font-family: 'Open Sans', verdana, arial, sans-serif; font-size: 12px; fill: rgb(42, 63, 95); fill-opacity: 1; white-space: pre; opacity: 1;" transform="translate(0,359.43)">$0</text></g><g class="ytick"><text text-anchor="end" x="79" y="4.199999999999999" style="font-family: 'Open Sans', verdana, arial, sans-serif; font-size: 12px; fill: rgb(42, 63, 95); fill-opacity: 1; white-space: pre; opacity: 1;" transform="translate(0,317.22)">$5M</text></g><g class="ytick"><text text-anchor="end" x="79" y="4.199999999999999" style="font-family: 'Open Sans', verdana, arial, sans-serif; font-size: 12px; fill: rgb(42, 63, 95); fill-opacity: 1; white-space: pre; opacity: 1;" transform="translate(0,275.01)">$10M</text></g><g class="ytick"><text text-anchor="end" x="79" y="4.199999999999999" style="font-family: 'Open Sans', verdana, arial, sans-serif; font-size: 12px; fill: rgb(42, 63, 95); fill-opacity: 1; white-space: pre; opacity: 1;" transform="translate(0,232.8)">$15M</text></g><g class="ytick"><text text-anchor="end" x="79" y="4.199999999999999" style="font-family: 'Open Sans', verdana, arial, sans-serif; font-size: 12px; fill: rgb(42, 63, 95); fill-opacity: 1; white-space: pre; opacity: 1;" transform="translate(0,190.59)">$20M</text></g><g class="ytick"><text text-anchor="end" x="79" y="4.199999999999999" style="font-family: 'Open Sans', verdana, arial, sans-serif; font-size: 12px; fill: rgb(42, 63, 95); fill-opacity: 1; white-space: pre; opacity: 1;" transform="translate(0,148.38)">$25M</text></g><g class="ytick"><text text-anchor="end" x="79" y="4.199999999999999" style="font-family: 'Open Sans', verdana, arial, sans-serif; font-size: 12px; fill: rgb(42, 63, 95); fill-opacity: 1; white-space: pre; opacity: 1;" transform="translate(0,106.17)">$30M</text></g></g><g class="overaxes-above"/></g></g><g class="polarlayer"/><g class="smithlayer"/><g class="ternarylayer"/><g class="geolayer"/><g class="funnelarealayer"/><g class="pielayer"/><g class="iciclelayer"/><g class="treemaplayer"/><g class="sunburstlayer"/><g class="glimages"/><defs id="topdefs-96db79"><g class="clips"/></defs><g class="layer-above"><g class="imagelayer"/><g class="shapelayer"/></g><g class="infolayer"><g class="g-gtitle"><text class="gtitle" x="35" y="50" text-anchor="start" dy="0em" style="font-family: 'Open Sans', verdana, arial, sans-serif; font-size: 17px; fill: rgb(42, 63, 95); opacity: 1; font-weight: normal; white-space: pre;"><tspan class="line" dy="0em" x="35" y="50">Synthetix - sETH-ETH: Curve</tspan><tspan class="line" dy="1.3em" x="35" y="50">​<tspan style="font-size:70%" dy="-0.6em">Cumulative Net Flows since Program Announcement, Until Program End + 30 Days</tspan><tspan dy="0.42em">​</tspan></tspan></text></g><g class="g-xtitle"><text class="xtitle" x="350" y="460.3" text-anchor="middle" style="font-family: 'Open Sans', verdana, arial, sans-serif; font-size: 14px; fill: rgb(42, 63, 95); opacity: 1; font-weight: normal; white-space: pre;">Day</text></g><g class="g-ytitle"><text class="ytitle" transform="rotate(-90,24.340625000000003,260)" x="24.340625000000003" y="260" text-anchor="middle" style="font-family: 'Open Sans', verdana, arial, sans-serif; font-size: 14px; fill: rgb(42, 63, 95); opacity: 1; font-weight: normal; white-space: pre;">Cumulative Net Flows (USD)</text></g></g></svg>