<svg class="main-svg" xmlns="http://www.w3.org/2000/svg" xmlns:xlink="http://www.w3.org/1999/xlink" width="700" height="500" style="" viewBox="0 0 700 500"><rect x="0" y="0" width="700" height="500" style="fill: rgb(255, 255, 255); fill-opacity: 1;"/><defs id="defs-e663ed"><g class="clips"><clipPath id="clipe663edxyplot" class="plotclip"><rect width="540" height="320"/></clipPath><clipPath class="axesclip" id="clipe663edx"><rect x="80" y="0" width="540" height="500"/></clipPath><clipPath class="axesclip" id="clipe663edy"><rect x="0" y="100" width="700" height="320"/></clipPath><clipPath class="axesclip" id="clipe663edxy"><rect x="80" y="100" width="540" height="320"/></clipPath></g><g class="gradients"/><g class="patterns"/></defs><g class="bglayer"><rect class="bg" x="80" y="100" width="540" height="320" style="fill: rgb(229, 236, 246); fill-opacity: 1; stroke-width: 0;"/></g><g class="layer-below"><g class="imagelayer"/><g class="shapelayer"/></g><g class="cartesianlayer"><g class="subplot xy"><g class="layer-subplot"><g class="shapelayer"/><g class="imagelayer"/></g><g class="minor-gridlayer"><g class="x"/><g class="y"/></g><g class="gridlayer"><g class="x"><path class="xgrid crisp" transform="translate(92.35,0)" d="M0,100v320" style="stroke: rgb(255, 255, 255); stroke-opacity: 1; stroke-width: 1px;"/><path class="xgrid crisp" transform="translate(200,0)" d="M0,100v320" style="stroke: rgb(255, 255, 255); stroke-opacity: 1; stroke-width: 1px;"/><path class="xgrid crisp" transform="translate(304.12,0)" d="M0,100v320" style="stroke: rgb(255, 255, 255); stroke-opacity: 1; stroke-width: 1px;"/><path class="xgrid crisp" transform="translate(411.76,0)" d="M0,100v320" style="stroke: rgb(255, 255, 255); stroke-opacity: 1; stroke-width: 1px;"/><path class="xgrid crisp" transform="translate(519.4100000000001,0)" d="M0,100v320" style="stroke: rgb(255, 255, 255); stroke-opacity: 1; stroke-width: 1px;"/></g><g class="y"><path class="ygrid crisp" transform="translate(0,369.84)" d="M80,0h540" style="stroke: rgb(255, 255, 255); stroke-opacity: 1; stroke-width: 1px;"/><path class="ygrid crisp" transform="translate(0,319.68)" d="M80,0h540" style="stroke: rgb(255, 255, 255); stroke-opacity: 1; stroke-width: 1px;"/><path class="ygrid crisp" transform="translate(0,269.52)" d="M80,0h540" style="stroke: rgb(255, 255, 255); stroke-opacity: 1; stroke-width: 1px;"/><path class="ygrid crisp" transform="translate(0,219.37)" d="M80,0h540" style="stroke: rgb(255, 255, 255); stroke-opacity: 1; stroke-width: 1px;"/><path class="ygrid crisp" transform="translate(0,169.20999999999998)" d="M80,0h540" style="stroke: rgb(255, 255, 255); stroke-opacity: 1; stroke-width: 1px;"/><path class="ygrid crisp" transform="translate(0,119.05)" d="M80,0h540" style="stroke: rgb(255, 255, 255); stroke-opacity: 1; stroke-width: 1px;"/></g></g><g class="zerolinelayer"><path class="yzl zl crisp" transform="translate(0,420)" d="M80,0h540" style="stroke: rgb(255, 255, 255); stroke-opacity: 1; stroke-width: 2px;"/></g><path class="xlines-below"/><path class="ylines-below"/><g class="overlines-below"/><g class="xaxislayer-below"/><g class="yaxislayer-below"/><g class="overaxes-below"/><g class="plot" transform="translate(80,100)" clip-path="url(#clipe663edxyplot)"><g class="scatterlayer mlayer"><g class="trace scatter trace182f6b" style="stroke-miterlimit: 2;"><g class="fills"><g><path class="js-fill" d="M540,320L0,320L0,320L1.76,320L3.53,285.23L5.29,239.69L7.06,246.6L8.82,248.63L10.59,239.58L12.35,241.74L14.12,234.48L15.88,231.92L17.65,249.29L22.94,247.49L24.71,249.43L28.24,266.93L30,266.63L31.76,261.76L33.53,261.07L35.29,239.63L37.06,239.96L38.82,238.62L40.59,242.9L44.12,252.04L45.88,249.85L47.65,248.65L49.41,249.24L51.18,249.16L52.94,248.19L54.71,248L56.47,245.16L58.24,238.99L60,228.22L61.76,234.4L63.53,236.51L65.29,253.35L67.06,243.58L70.59,231.28L72.35,245.91L74.12,246.69L75.88,260.69L77.65,250.72L79.41,250.43L81.18,250.98L82.94,257.41L86.47,256.92L88.24,256.73L90,256.86L91.76,253.16L93.53,248.02L95.29,247.63L98.82,248.23L100.59,246.36L104.12,246.56L105.88,245.32L107.65,245.6L109.41,245.09L111.18,242.77L112.94,242.55L114.71,245.21L116.47,244.25L118.24,246L120,245.85L121.76,245.24L123.53,243.34L125.29,240.93L127.06,242.02L132.35,241.83L134.12,240.46L135.88,241.48L137.65,243.51L141.18,235.15L142.94,234.36L144.71,232.68L146.47,227.26L148.24,249.65L150,245.81L151.76,248.48L153.53,265.24L155.29,268.73L157.06,266.47L160.59,261.73L162.35,260.47L164.12,251.07L165.88,252.82L169.41,250.95L171.18,236.05L172.94,243.2L174.71,239.55L176.47,228.63L178.24,234.91L180,234.58L181.76,230.81L183.53,231L185.29,216.44L187.06,230.85L188.82,232.15L190.59,231.64L192.35,225.9L194.12,225.07L195.88,225.62L197.65,207.62L199.41,209.63L202.94,215.73L204.71,209.74L206.47,214.03L208.24,213.75L210,216.29L211.76,209.94L213.53,204.31L215.29,186.36L217.06,181.02L218.82,185.32L220.59,185.08L222.35,175.21L224.12,174.77L225.88,186.56L227.65,177.42L229.41,180.35L231.18,182.82L232.94,173.71L236.47,185.5L238.24,179.78L240,168.02L241.76,183.48L243.53,157.68L245.29,179.46L248.82,238.43L250.59,286.69L252.35,273.01L254.12,267.74L255.88,268.85L257.65,268.34L261.18,246.49L262.94,167.81L264.71,178.09L266.47,182.53L270,151.09L271.76,175.14L273.53,174.68L275.29,186.94L278.82,185.36L280.59,176.59L282.35,176.14L284.12,173.49L285.88,177.27L287.65,183.13L289.41,185.76L291.18,204.03L292.94,246.93L294.71,241.5L296.47,241.36L298.24,235.78L301.76,170.77L303.53,166.82L305.29,146.63L307.06,158.04L308.82,149.62L310.59,115.72L312.35,147.43L314.12,137.32L315.88,133.41L317.65,121.92L319.41,83.08L321.18,84.66L322.94,85.82L324.71,91.7L326.47,89.11L328.24,91.29L330,93.71L331.76,122.53L333.53,120.05L335.29,115.37L337.06,124.16L338.82,84.91L340.59,39.96L342.35,40.65L344.12,41.11L345.88,52.29L347.65,30.38L349.41,32.42L351.18,16L352.94,65.5L356.47,52.38L358.24,56.8L360,62.33L361.76,70.58L363.53,54.75L365.29,60.5L367.06,87.15L368.82,91.26L370.59,98.72L372.35,91.95L374.12,66.51L375.88,69.37L377.65,57.17L379.41,53.73L381.18,38.9L382.94,42.18L386.47,161.44L388.24,157.62L390,158.28L391.76,141.18L393.53,139.3L395.29,144.17L397.06,144.22L398.82,193.82L402.35,162.61L404.12,183.85L405.88,187.8L407.65,187.46L409.41,188.82L411.18,196.55L412.94,193.24L414.71,196.77L416.47,212.79L418.24,201.3L420,201.73L421.76,204.12L423.53,191.7L425.29,195.89L427.06,195.47L428.82,195.97L430.59,195.75L432.35,187.54L434.12,192.95L435.88,194.66L437.65,231.68L439.41,215.74L441.18,207.39L442.94,204.19L444.71,200.15L446.47,199.93L448.24,204.74L450,213.71L451.76,221.8L453.53,221.89L455.29,221.87L457.06,219.71L460.59,213.1L462.35,215.32L465.88,194.55L467.65,203.46L471.18,226.21L472.94,214.48L476.47,192.98L478.24,187.53L480,186.75L481.76,176.65L483.53,176.77L485.29,173.01L488.82,178.89L490.59,184.96L492.35,175.65L494.12,188.44L497.65,194.15L499.41,191.99L501.18,192.74L502.94,205.47L504.71,207.59L506.47,190.01L508.24,190.67L510,196.64L511.76,201.95L513.53,194.14L515.29,194.01L517.06,197.23L518.82,186.96L520.59,181.76L522.35,183.33L524.12,173.47L525.88,176.17L527.65,176.95L529.41,185.29L531.18,187.82L532.94,189.25L534.71,208.21L536.47,209.91L538.24,194.5L540,195.85" style="fill: rgb(99, 110, 250); fill-opacity: 0.5; stroke-width: 0;"/></g></g><g class="errorbars"/><g class="lines"><path class="js-line" d="M0,320L1.76,320L3.53,285.23L5.29,239.69L7.06,246.6L8.82,248.63L10.59,239.58L12.35,241.74L14.12,234.48L15.88,231.92L17.65,249.29L22.94,247.49L24.71,249.43L28.24,266.93L30,266.63L31.76,261.76L33.53,261.07L35.29,239.63L37.06,239.96L38.82,238.62L40.59,242.9L44.12,252.04L45.88,249.85L47.65,248.65L49.41,249.24L51.18,249.16L52.94,248.19L54.71,248L56.47,245.16L58.24,238.99L60,228.22L61.76,234.4L63.53,236.51L65.29,253.35L67.06,243.58L70.59,231.28L72.35,245.91L74.12,246.69L75.88,260.69L77.65,250.72L79.41,250.43L81.18,250.98L82.94,257.41L86.47,256.92L88.24,256.73L90,256.86L91.76,253.16L93.53,248.02L95.29,247.63L98.82,248.23L100.59,246.36L104.12,246.56L105.88,245.32L107.65,245.6L109.41,245.09L111.18,242.77L112.94,242.55L114.71,245.21L116.47,244.25L118.24,246L120,245.85L121.76,245.24L123.53,243.34L125.29,240.93L127.06,242.02L132.35,241.83L134.12,240.46L135.88,241.48L137.65,243.51L141.18,235.15L142.94,234.36L144.71,232.68L146.47,227.26L148.24,249.65L150,245.81L151.76,248.48L153.53,265.24L155.29,268.73L157.06,266.47L160.59,261.73L162.35,260.47L164.12,251.07L165.88,252.82L169.41,250.95L171.18,236.05L172.94,243.2L174.71,239.55L176.47,228.63L178.24,234.91L180,234.58L181.76,230.81L183.53,231L185.29,216.44L187.06,230.85L188.82,232.15L190.59,231.64L192.35,225.9L194.12,225.07L195.88,225.62L197.65,207.62L199.41,209.63L202.94,215.73L204.71,209.74L206.47,214.03L208.24,213.75L210,216.29L211.76,209.94L213.53,204.31L215.29,186.36L217.06,181.02L218.82,185.32L220.59,185.08L222.35,175.21L224.12,174.77L225.88,186.56L227.65,177.42L229.41,180.35L231.18,182.82L232.94,173.71L236.47,185.5L238.24,179.78L240,168.02L241.76,183.48L243.53,157.68L245.29,179.46L248.82,238.43L250.59,286.69L252.35,273.01L254.12,267.74L255.88,268.85L257.65,268.34L261.18,246.49L262.94,167.81L264.71,178.09L266.47,182.53L270,151.09L271.76,175.14L273.53,174.68L275.29,186.94L278.82,185.36L280.59,176.59L282.35,176.14L284.12,173.49L285.88,177.27L287.65,183.13L289.41,185.76L291.18,204.03L292.94,246.93L294.71,241.5L296.47,241.36L298.24,235.78L301.76,170.77L303.53,166.82L305.29,146.63L307.06,158.04L308.82,149.62L310.59,115.72L312.35,147.43L314.12,137.32L315.88,133.41L317.65,121.92L319.41,83.08L321.18,84.66L322.94,85.82L324.71,91.7L326.47,89.11L328.24,91.29L330,93.71L331.76,122.53L333.53,120.05L335.29,115.37L337.06,124.16L338.82,84.91L340.59,39.96L342.35,40.65L344.12,41.11L345.88,52.29L347.65,30.38L349.41,32.42L351.18,16L352.94,65.5L356.47,52.38L358.24,56.8L360,62.33L361.76,70.58L363.53,54.75L365.29,60.5L367.06,87.15L368.82,91.26L370.59,98.72L372.35,91.95L374.12,66.51L375.88,69.37L377.65,57.17L379.41,53.73L381.18,38.9L382.94,42.18L386.47,161.44L388.24,157.62L390,158.28L391.76,141.18L393.53,139.3L395.29,144.17L397.06,144.22L398.82,193.82L402.35,162.61L404.12,183.85L405.88,187.8L407.65,187.46L409.41,188.82L411.18,196.55L412.94,193.24L414.71,196.77L416.47,212.79L418.24,201.3L420,201.73L421.76,204.12L423.53,191.7L425.29,195.89L427.06,195.47L428.82,195.97L430.59,195.75L432.35,187.54L434.12,192.95L435.88,194.66L437.65,231.68L439.41,215.74L441.18,207.39L442.94,204.19L444.71,200.15L446.47,199.93L448.24,204.74L450,213.71L451.76,221.8L453.53,221.89L455.29,221.87L457.06,219.71L460.59,213.1L462.35,215.32L465.88,194.55L467.65,203.46L471.18,226.21L472.94,214.48L476.47,192.98L478.24,187.53L480,186.75L481.76,176.65L483.53,176.77L485.29,173.01L488.82,178.89L490.59,184.96L492.35,175.65L494.12,188.44L497.65,194.15L499.41,191.99L501.18,192.74L502.94,205.47L504.71,207.59L506.47,190.01L508.24,190.67L510,196.64L511.76,201.95L513.53,194.14L515.29,194.01L517.06,197.23L518.82,186.96L520.59,181.76L522.35,183.33L524.12,173.47L525.88,176.17L527.65,176.95L529.41,185.29L531.18,187.82L532.94,189.25L534.71,208.21L536.47,209.91L538.24,194.5L540,195.85" style="vector-effect: none; fill: none; stroke: rgb(99, 110, 250); stroke-opacity: 1; stroke-width: 2px; opacity: 1;"/></g><g class="points"/><g class="text"/></g></g></g><g class="overplot"/><path class="xlines-above crisp" d="M0,0" style="fill: none;"/><path class="ylines-above crisp" d="M0,0" style="fill: none;"/><g class="overlines-above"/><g class="xaxislayer-above"><g class="xtick"><text text-anchor="middle" x="0" y="433" transform="translate(92.35,0)" style="font-family: 'Open Sans', verdana, arial, sans-serif; font-size: 12px; fill: rgb(42, 63, 95); fill-opacity: 1; white-space: pre; opacity: 1;">Nov 2022</text></g><g class="xtick"><text text-anchor="middle" x="0" y="433" style="font-family: 'Open Sans', verdana, arial, sans-serif; font-size: 12px; fill: rgb(42, 63, 95); fill-opacity: 1; white-space: pre; opacity: 1;" transform="translate(200,0)">Jan 2023</text></g><g class="xtick"><text text-anchor="middle" x="0" y="433" style="font-family: 'Open Sans', verdana, arial, sans-serif; font-size: 12px; fill: rgb(42, 63, 95); fill-opacity: 1; white-space: pre; opacity: 1;" transform="translate(304.12,0)">Mar 2023</text></g><g class="xtick"><text text-anchor="middle" x="0" y="433" style="font-family: 'Open Sans', verdana, arial, sans-serif; font-size: 12px; fill: rgb(42, 63, 95); fill-opacity: 1; white-space: pre; opacity: 1;" transform="translate(411.76,0)">May 2023</text></g><g class="xtick"><text text-anchor="middle" x="0" y="433" style="font-family: 'Open Sans', verdana, arial, sans-serif; font-size: 12px; fill: rgb(42, 63, 95); fill-opacity: 1; white-space: pre; opacity: 1;" transform="translate(519.4100000000001,0)">Jul 2023</text></g></g><g class="yaxislayer-above"><g class="ytick"><text text-anchor="end" x="79" y="4.199999999999999" transform="translate(0,420)" style="font-family: 'Open Sans', verdana, arial, sans-serif; font-size: 12px; fill: rgb(42, 63, 95); fill-opacity: 1; white-space: pre; opacity: 1;">$0</text></g><g class="ytick"><text text-anchor="end" x="79" y="4.199999999999999" style="font-family: 'Open Sans', verdana, arial, sans-serif; font-size: 12px; fill: rgb(42, 63, 95); fill-opacity: 1; white-space: pre; opacity: 1;" transform="translate(0,369.84)">$0.5M</text></g><g class="ytick"><text text-anchor="end" x="79" y="4.199999999999999" style="font-family: 'Open Sans', verdana, arial, sans-serif; font-size: 12px; fill: rgb(42, 63, 95); fill-opacity: 1; white-space: pre; opacity: 1;" transform="translate(0,319.68)">$1M</text></g><g class="ytick"><text text-anchor="end" x="79" y="4.199999999999999" style="font-family: 'Open Sans', verdana, arial, sans-serif; font-size: 12px; fill: rgb(42, 63, 95); fill-opacity: 1; white-space: pre; opacity: 1;" transform="translate(0,269.52)">$1.5M</text></g><g class="ytick"><text text-anchor="end" x="79" y="4.199999999999999" style="font-family: 'Open Sans', verdana, arial, sans-serif; font-size: 12px; fill: rgb(42, 63, 95); fill-opacity: 1; white-space: pre; opacity: 1;" transform="translate(0,219.37)">$2M</text></g><g class="ytick"><text text-anchor="end" x="79" y="4.199999999999999" style="font-family: 'Open Sans', verdana, arial, sans-serif; font-size: 12px; fill: rgb(42, 63, 95); fill-opacity: 1; white-space: pre; opacity: 1;" transform="translate(0,169.20999999999998)">$2.5M</text></g><g class="ytick"><text text-anchor="end" x="79" y="4.199999999999999" style="font-family: 'Open Sans', verdana, arial, sans-serif; font-size: 12px; fill: rgb(42, 63, 95); fill-opacity: 1; white-space: pre; opacity: 1;" transform="translate(0,119.05)">$3M</text></g></g><g class="overaxes-above"/></g></g><g class="polarlayer"/><g class="smithlayer"/><g class="ternarylayer"/><g class="geolayer"/><g class="funnelarealayer"/><g class="pielayer"/><g class="iciclelayer"/><g class="treemaplayer"/><g class="sunburstlayer"/><g class="glimages"/><defs id="topdefs-e663ed"><g class="clips"/></defs><g class="layer-above"><g class="imagelayer"/><g class="shapelayer"/></g><g class="infolayer"><g class="g-gtitle"><text class="gtitle" x="35" y="50" text-anchor="start" dy="0em" style="font-family: 'Open Sans', verdana, arial, sans-serif; font-size: 17px; fill: rgb(42, 63, 95); opacity: 1; font-weight: normal; white-space: pre;"><tspan class="line" dy="0em" x="35" y="50">Synthetix - All Synthetix Hop Pools</tspan><tspan class="line" dy="1.3em" x="35" y="50">​<tspan style="font-size:70%" dy="-0.6em">Cumulative Net Flows since Program Announcement, Until Program End + 30 Days</tspan><tspan dy="0.42em">​</tspan></tspan></text></g><g class="g-xtitle"><text class="xtitle" x="350" y="460.3" text-anchor="middle" style="font-family: 'Open Sans', verdana, arial, sans-serif; font-size: 14px; fill: rgb(42, 63, 95); opacity: 1; font-weight: normal; white-space: pre;">Day</text></g><g class="g-ytitle"><text class="ytitle" transform="rotate(-90,21.340625000000003,260)" x="21.340625000000003" y="260" text-anchor="middle" style="font-family: 'Open Sans', verdana, arial, sans-serif; font-size: 14px; fill: rgb(42, 63, 95); opacity: 1; font-weight: normal; white-space: pre;">Cumulative Net Flows (USD)</text></g></g></svg>