<svg class="main-svg" xmlns="http://www.w3.org/2000/svg" xmlns:xlink="http://www.w3.org/1999/xlink" width="700" height="500" style="" viewBox="0 0 700 500"><rect x="0" y="0" width="700" height="500" style="fill: rgb(255, 255, 255); fill-opacity: 1;"/><defs id="defs-19ec4c"><g class="clips"><clipPath id="clip19ec4cxyplot" class="plotclip"><rect width="540" height="320"/></clipPath><clipPath class="axesclip" id="clip19ec4cx"><rect x="80" y="0" width="540" height="500"/></clipPath><clipPath class="axesclip" id="clip19ec4cy"><rect x="0" y="100" width="700" height="320"/></clipPath><clipPath class="axesclip" id="clip19ec4cxy"><rect x="80" y="100" width="540" height="320"/></clipPath></g><g class="gradients"/><g class="patterns"/></defs><g class="bglayer"><rect class="bg" x="80" y="100" width="540" height="320" style="fill: rgb(229, 236, 246); fill-opacity: 1; stroke-width: 0;"/></g><g class="layer-below"><g class="imagelayer"/><g class="shapelayer"/></g><g class="cartesianlayer"><g class="subplot xy"><g class="layer-subplot"><g class="shapelayer"/><g class="imagelayer"/></g><g class="minor-gridlayer"><g class="x"/><g class="y"/></g><g class="gridlayer"><g class="x"><path class="xgrid crisp" transform="translate(180.5,0)" d="M0,100v320" style="stroke: rgb(255, 255, 255); stroke-opacity: 1; stroke-width: 1px;"/><path class="xgrid crisp" transform="translate(284.41999999999996,0)" d="M0,100v320" style="stroke: rgb(255, 255, 255); stroke-opacity: 1; stroke-width: 1px;"/><path class="xgrid crisp" transform="translate(390.03,0)" d="M0,100v320" style="stroke: rgb(255, 255, 255); stroke-opacity: 1; stroke-width: 1px;"/><path class="xgrid crisp" transform="translate(493.94,0)" d="M0,100v320" style="stroke: rgb(255, 255, 255); stroke-opacity: 1; stroke-width: 1px;"/><path class="xgrid crisp" transform="translate(597.85,0)" d="M0,100v320" style="stroke: rgb(255, 255, 255); stroke-opacity: 1; stroke-width: 1px;"/></g><g class="y"><path class="ygrid crisp" transform="translate(0,407.63)" d="M80,0h540" style="stroke: rgb(255, 255, 255); stroke-opacity: 1; stroke-width: 1px;"/><path class="ygrid crisp" transform="translate(0,339.83000000000004)" d="M80,0h540" style="stroke: rgb(255, 255, 255); stroke-opacity: 1; stroke-width: 1px;"/><path class="ygrid crisp" transform="translate(0,204.24)" d="M80,0h540" style="stroke: rgb(255, 255, 255); stroke-opacity: 1; stroke-width: 1px;"/><path class="ygrid crisp" transform="translate(0,136.45)" d="M80,0h540" style="stroke: rgb(255, 255, 255); stroke-opacity: 1; stroke-width: 1px;"/></g></g><g class="zerolinelayer"><path class="yzl zl crisp" transform="translate(0,272.03999999999996)" d="M80,0h540" style="stroke: rgb(255, 255, 255); stroke-opacity: 1; stroke-width: 2px;"/></g><path class="xlines-below"/><path class="ylines-below"/><g class="overlines-below"/><g class="xaxislayer-below"/><g class="yaxislayer-below"/><g class="overaxes-below"/><g class="plot" transform="translate(80,100)" clip-path="url(#clip19ec4cxyplot)"><g class="scatterlayer mlayer"><g class="trace scatter trace2a0362" style="stroke-miterlimit: 2;"><g class="fills"><g><path class="js-fill" d="M540,172.04L0,172.04L0,152.91L1.7,94.47L3.41,110.31L5.11,112.04L6.81,52.95L8.52,50.19L10.22,103.16L11.92,105.77L13.63,139.37L15.33,242.31L17.03,231.45L18.74,166.16L20.44,151.2L22.15,147.06L23.85,146.67L25.55,144.29L27.26,139.7L28.96,126.19L30.66,122.12L32.37,122.14L34.07,88.11L35.77,88.6L37.48,96.76L39.18,130.48L40.88,113.29L42.59,117.75L44.29,113.31L45.99,113.53L47.7,131.09L49.4,84.74L51.1,84.92L52.81,80.91L54.51,79.84L56.21,64.67L57.92,81.64L59.62,78.2L61.32,76.48L63.03,16L64.73,54.24L66.44,33.44L68.14,68.85L69.84,67.61L71.55,77.51L74.95,69.89L76.66,59.06L78.36,51.78L80.06,36.1L81.77,43.89L83.47,47.84L85.17,27.54L86.88,39.37L88.58,28.82L90.28,34.22L91.99,304L127.76,85.51L129.46,85.51L131.17,90.45L132.87,91.57L134.57,95.74L139.68,94.44L141.39,99.34L144.79,82.28L146.5,82.18L148.2,120.06L149.91,125.43L151.61,126.35L153.31,135.56L155.02,151.31L156.72,152.19L158.42,171.33L160.13,175.4L161.83,175.96L163.53,179.39L165.24,173.46L166.94,179.93L173.75,180.48L175.46,181.65L177.16,182.82L178.86,216.62L180.57,218.34L182.27,232.04L183.97,233.48L185.68,237.87L189.09,236.58L190.79,237.18L192.49,235.11L194.2,234.38L195.9,233.71L197.6,234.86L199.31,234.85L201.01,246.91L207.82,247.55L209.53,247.53L211.23,248.38L212.93,248.36L214.64,250.74L216.34,271.17L218.04,266.66L219.75,268.11L221.45,269.26L223.15,269.29L224.86,270.61L226.56,273.49L228.26,275.7L229.97,275.84L231.67,278.28L233.38,278.27L238.49,278.27L240.19,282.27L260.63,281.97L262.33,281.84L265.74,281.31L267.44,281.31L269.15,281.33L270.85,282.83L274.26,282.78L275.96,286.11L277.67,301.46L281.07,286.31L284.48,286.3L286.18,289.39L287.89,289.66L289.59,292.27L299.81,292.94L301.51,293.03L313.44,293.14L315.14,279.56L328.77,279.66L330.47,293.7L345.8,293.84L347.51,293.89L366.25,294.45L367.95,293.6L403.72,293.88L405.43,294.83L424.16,295.41L425.87,296.08L429.27,296.64L430.98,296.64L444.61,296.87L446.31,301.37L448.01,296.85L449.72,296.86L533.19,297.88L534.89,296.59L536.59,296.43L538.3,297.89L540,298.3" style="fill: rgb(99, 110, 250); fill-opacity: 0.5; stroke-width: 0;"/></g></g><g class="errorbars"/><g class="lines"><path class="js-line" d="M0,152.91L1.7,94.47L3.41,110.31L5.11,112.04L6.81,52.95L8.52,50.19L10.22,103.16L11.92,105.77L13.63,139.37L15.33,242.31L17.03,231.45L18.74,166.16L20.44,151.2L22.15,147.06L23.85,146.67L25.55,144.29L27.26,139.7L28.96,126.19L30.66,122.12L32.37,122.14L34.07,88.11L35.77,88.6L37.48,96.76L39.18,130.48L40.88,113.29L42.59,117.75L44.29,113.31L45.99,113.53L47.7,131.09L49.4,84.74L51.1,84.92L52.81,80.91L54.51,79.84L56.21,64.67L57.92,81.64L59.62,78.2L61.32,76.48L63.03,16L64.73,54.24L66.44,33.44L68.14,68.85L69.84,67.61L71.55,77.51L74.95,69.89L76.66,59.06L78.36,51.78L80.06,36.1L81.77,43.89L83.47,47.84L85.17,27.54L86.88,39.37L88.58,28.82L90.28,34.22L91.99,304L127.76,85.51L129.46,85.51L131.17,90.45L132.87,91.57L134.57,95.74L139.68,94.44L141.39,99.34L144.79,82.28L146.5,82.18L148.2,120.06L149.91,125.43L151.61,126.35L153.31,135.56L155.02,151.31L156.72,152.19L158.42,171.33L160.13,175.4L161.83,175.96L163.53,179.39L165.24,173.46L166.94,179.93L173.75,180.48L175.46,181.65L177.16,182.82L178.86,216.62L180.57,218.34L182.27,232.04L183.97,233.48L185.68,237.87L189.09,236.58L190.79,237.18L192.49,235.11L194.2,234.38L195.9,233.71L197.6,234.86L199.31,234.85L201.01,246.91L207.82,247.55L209.53,247.53L211.23,248.38L212.93,248.36L214.64,250.74L216.34,271.17L218.04,266.66L219.75,268.11L221.45,269.26L223.15,269.29L224.86,270.61L226.56,273.49L228.26,275.7L229.97,275.84L231.67,278.28L233.38,278.27L238.49,278.27L240.19,282.27L260.63,281.97L262.33,281.84L265.74,281.31L267.44,281.31L269.15,281.33L270.85,282.83L274.26,282.78L275.96,286.11L277.67,301.46L281.07,286.31L284.48,286.3L286.18,289.39L287.89,289.66L289.59,292.27L299.81,292.94L301.51,293.03L313.44,293.14L315.14,279.56L328.77,279.66L330.47,293.7L345.8,293.84L347.51,293.89L366.25,294.45L367.95,293.6L403.72,293.88L405.43,294.83L424.16,295.41L425.87,296.08L429.27,296.64L430.98,296.64L444.61,296.87L446.31,301.37L448.01,296.85L449.72,296.86L533.19,297.88L534.89,296.59L536.59,296.43L538.3,297.89L540,298.3" style="vector-effect: none; fill: none; stroke: rgb(99, 110, 250); stroke-opacity: 1; stroke-width: 2px; opacity: 1;"/></g><g class="points"/><g class="text"/></g></g></g><g class="overplot"/><path class="xlines-above crisp" d="M0,0" style="fill: none;"/><path class="ylines-above crisp" d="M0,0" style="fill: none;"/><g class="overlines-above"/><g class="xaxislayer-above"><g class="xtick"><text text-anchor="middle" x="0" y="433" transform="translate(180.5,0)" style="font-family: 'Open Sans', verdana, arial, sans-serif; font-size: 12px; fill: rgb(42, 63, 95); fill-opacity: 1; white-space: pre; opacity: 1;">May 2023</text></g><g class="xtick"><text text-anchor="middle" x="0" y="433" style="font-family: 'Open Sans', verdana, arial, sans-serif; font-size: 12px; fill: rgb(42, 63, 95); fill-opacity: 1; white-space: pre; opacity: 1;" transform="translate(284.41999999999996,0)">Jul 2023</text></g><g class="xtick"><text text-anchor="middle" x="0" y="433" style="font-family: 'Open Sans', verdana, arial, sans-serif; font-size: 12px; fill: rgb(42, 63, 95); fill-opacity: 1; white-space: pre; opacity: 1;" transform="translate(390.03,0)">Sep 2023</text></g><g class="xtick"><text text-anchor="middle" x="0" y="433" style="font-family: 'Open Sans', verdana, arial, sans-serif; font-size: 12px; fill: rgb(42, 63, 95); fill-opacity: 1; white-space: pre; opacity: 1;" transform="translate(493.94,0)">Nov 2023</text></g><g class="xtick"><text text-anchor="middle" x="0" y="433" style="font-family: 'Open Sans', verdana, arial, sans-serif; font-size: 12px; fill: rgb(42, 63, 95); fill-opacity: 1; white-space: pre; opacity: 1;" transform="translate(597.85,0)">Jan 2024</text></g></g><g class="yaxislayer-above"><g class="ytick"><text text-anchor="end" x="79" y="4.199999999999999" transform="translate(0,407.63)" style="font-family: 'Open Sans', verdana, arial, sans-serif; font-size: 12px; fill: rgb(42, 63, 95); fill-opacity: 1; white-space: pre; opacity: 1;">$−2M</text></g><g class="ytick"><text text-anchor="end" x="79" y="4.199999999999999" style="font-family: 'Open Sans', verdana, arial, sans-serif; font-size: 12px; fill: rgb(42, 63, 95); fill-opacity: 1; white-space: pre; opacity: 1;" transform="translate(0,339.83000000000004)">$−1M</text></g><g class="ytick"><text text-anchor="end" x="79" y="4.199999999999999" style="font-family: 'Open Sans', verdana, arial, sans-serif; font-size: 12px; fill: rgb(42, 63, 95); fill-opacity: 1; white-space: pre; opacity: 1;" transform="translate(0,272.03999999999996)">$0</text></g><g class="ytick"><text text-anchor="end" x="79" y="4.199999999999999" style="font-family: 'Open Sans', verdana, arial, sans-serif; font-size: 12px; fill: rgb(42, 63, 95); fill-opacity: 1; white-space: pre; opacity: 1;" transform="translate(0,204.24)">$1M</text></g><g class="ytick"><text text-anchor="end" x="79" y="4.199999999999999" style="font-family: 'Open Sans', verdana, arial, sans-serif; font-size: 12px; fill: rgb(42, 63, 95); fill-opacity: 1; white-space: pre; opacity: 1;" transform="translate(0,136.45)">$2M</text></g></g><g class="overaxes-above"/></g></g><g class="polarlayer"/><g class="smithlayer"/><g class="ternarylayer"/><g class="geolayer"/><g class="funnelarealayer"/><g class="pielayer"/><g class="iciclelayer"/><g class="treemaplayer"/><g class="sunburstlayer"/><g class="glimages"/><defs id="topdefs-19ec4c"><g class="clips"/></defs><g class="layer-above"><g class="imagelayer"/><g class="shapelayer"/></g><g class="infolayer"><g class="g-gtitle"><text class="gtitle" x="35" y="50" text-anchor="start" dy="0em" style="font-family: 'Open Sans', verdana, arial, sans-serif; font-size: 17px; fill: rgb(42, 63, 95); opacity: 1; font-weight: normal; white-space: pre;"><tspan class="line" dy="0em" x="35" y="50">Sushi Trident</tspan><tspan class="line" dy="1.3em" x="35" y="50">​<tspan style="font-size:70%" dy="-0.6em">Cumulative Net Flows since Program Announcement, Until Program End + 30 Days</tspan><tspan dy="0.42em">​</tspan></tspan></text></g><g class="g-xtitle"><text class="xtitle" x="350" y="460.3" text-anchor="middle" style="font-family: 'Open Sans', verdana, arial, sans-serif; font-size: 14px; fill: rgb(42, 63, 95); opacity: 1; font-weight: normal; white-space: pre;">Day</text></g><g class="g-ytitle"><text class="ytitle" transform="rotate(-90,24.340625000000003,260)" x="24.340625000000003" y="260" text-anchor="middle" style="font-family: 'Open Sans', verdana, arial, sans-serif; font-size: 14px; fill: rgb(42, 63, 95); opacity: 1; font-weight: normal; white-space: pre;">Cumulative Net Flows (USD)</text></g></g></svg>