<svg class="main-svg" xmlns="http://www.w3.org/2000/svg" xmlns:xlink="http://www.w3.org/1999/xlink" width="700" height="500" style="" viewBox="0 0 700 500"><rect x="0" y="0" width="700" height="500" style="fill: rgb(255, 255, 255); fill-opacity: 1;"/><defs id="defs-042bdc"><g class="clips"><clipPath id="clip042bdcxyplot" class="plotclip"><rect width="540" height="320"/></clipPath><clipPath class="axesclip" id="clip042bdcx"><rect x="80" y="0" width="540" height="500"/></clipPath><clipPath class="axesclip" id="clip042bdcy"><rect x="0" y="100" width="700" height="320"/></clipPath><clipPath class="axesclip" id="clip042bdcxy"><rect x="80" y="100" width="540" height="320"/></clipPath></g><g class="gradients"/><g class="patterns"/></defs><g class="bglayer"><rect class="bg" x="80" y="100" width="540" height="320" style="fill: rgb(229, 236, 246); fill-opacity: 1; stroke-width: 0;"/></g><g class="layer-below"><g class="imagelayer"/><g class="shapelayer"/></g><g class="cartesianlayer"><g class="subplot xy"><g class="layer-subplot"><g class="shapelayer"/><g class="imagelayer"/></g><g class="minor-gridlayer"><g class="x"/><g class="y"/></g><g class="gridlayer"><g class="x"><path class="xgrid crisp" transform="translate(142.25,0)" d="M0,100v320" style="stroke: rgb(255, 255, 255); stroke-opacity: 1; stroke-width: 1px;"/><path class="xgrid crisp" transform="translate(237.18,0)" d="M0,100v320" style="stroke: rgb(255, 255, 255); stroke-opacity: 1; stroke-width: 1px;"/><path class="xgrid crisp" transform="translate(328.99,0)" d="M0,100v320" style="stroke: rgb(255, 255, 255); stroke-opacity: 1; stroke-width: 1px;"/><path class="xgrid crisp" transform="translate(423.92,0)" d="M0,100v320" style="stroke: rgb(255, 255, 255); stroke-opacity: 1; stroke-width: 1px;"/><path class="xgrid crisp" transform="translate(518.85,0)" d="M0,100v320" style="stroke: rgb(255, 255, 255); stroke-opacity: 1; stroke-width: 1px;"/><path class="xgrid crisp" transform="translate(615.33,0)" d="M0,100v320" style="stroke: rgb(255, 255, 255); stroke-opacity: 1; stroke-width: 1px;"/></g><g class="y"><path class="ygrid crisp" transform="translate(0,365.37)" d="M80,0h540" style="stroke: rgb(255, 255, 255); stroke-opacity: 1; stroke-width: 1px;"/><path class="ygrid crisp" transform="translate(0,310.73)" d="M80,0h540" style="stroke: rgb(255, 255, 255); stroke-opacity: 1; stroke-width: 1px;"/><path class="ygrid crisp" transform="translate(0,256.1)" d="M80,0h540" style="stroke: rgb(255, 255, 255); stroke-opacity: 1; stroke-width: 1px;"/><path class="ygrid crisp" transform="translate(0,201.47)" d="M80,0h540" style="stroke: rgb(255, 255, 255); stroke-opacity: 1; stroke-width: 1px;"/><path class="ygrid crisp" transform="translate(0,146.82999999999998)" d="M80,0h540" style="stroke: rgb(255, 255, 255); stroke-opacity: 1; stroke-width: 1px;"/></g></g><g class="zerolinelayer"><path class="yzl zl crisp" transform="translate(0,420)" d="M80,0h540" style="stroke: rgb(255, 255, 255); stroke-opacity: 1; stroke-width: 2px;"/></g><path class="xlines-below"/><path class="ylines-below"/><g class="overlines-below"/><g class="xaxislayer-below"/><g class="yaxislayer-below"/><g class="overaxes-below"/><g class="plot" transform="translate(80,100)" clip-path="url(#clip042bdcxyplot)"><g class="scatterlayer mlayer"><g class="trace scatter traced32b68" style="stroke-miterlimit: 2;"><g class="fills"><g><path class="js-fill" d="M540,320L0,320L0,315.21L1.56,308.2L3.11,309.6L4.67,307.86L6.22,316.62L7.78,310.15L9.34,308.43L10.89,308.53L12.45,302.78L14.01,314.76L15.56,304.95L17.12,298.45L18.67,299.81L20.23,303.59L21.79,297.75L23.34,298.09L24.9,293.74L26.46,293.85L28.01,297.45L29.57,295.34L31.12,295.74L32.68,300.66L34.24,297.94L35.79,297.56L37.35,299.93L38.9,299.91L40.46,297.38L42.02,293.95L43.57,293.03L45.13,288.21L46.69,289L48.24,287.66L49.8,289.72L51.35,290.8L52.91,281.18L54.47,236.79L56.02,160.64L57.58,143.01L59.14,141.68L62.25,124.1L63.8,126.59L65.36,105.7L66.92,107.86L68.47,109.31L70.03,115.47L71.59,117.89L73.14,111.52L76.25,150.49L77.81,142.71L79.37,146.68L80.92,148.41L82.48,152.14L84.03,152.02L85.59,147.55L87.15,145.92L88.7,147.6L90.26,147.39L91.82,154.41L93.37,146.16L94.93,143.3L96.48,143.47L98.04,145.64L99.6,143.84L101.15,143.39L102.71,149.52L104.27,158.8L105.82,151.97L107.38,124.21L108.93,122.07L110.49,124.84L112.05,132.96L113.6,134.28L115.16,137.21L116.71,133.2L118.27,133.4L121.38,134.56L122.94,142.09L124.5,141.27L126.05,141.67L127.61,141.95L129.16,132.92L130.72,135.49L132.28,127.27L133.83,128.03L135.39,111.33L136.95,118.05L138.5,116.16L140.06,129.64L141.61,124.73L143.17,133.66L144.73,131.82L147.84,134.91L149.39,133.29L150.95,140.46L152.51,142.65L154.06,143.5L155.62,143.49L157.18,144.35L158.73,141.24L160.29,139.41L161.84,131.1L163.4,143.89L164.96,150.39L166.51,154.58L168.07,155.55L171.18,150.67L172.74,161.74L174.29,165.84L175.85,163.64L177.41,170.55L178.96,170.64L183.63,221.88L185.19,224.33L186.74,221.14L188.3,223.8L189.86,215.64L191.41,219.24L192.97,215L194.52,220.7L196.08,213.37L197.64,210.89L199.19,212.29L200.75,209.87L203.86,199.85L205.42,197.98L206.97,203.56L208.53,199.95L213.2,191.54L214.76,188.21L216.31,195.48L217.87,195.53L222.54,181.94L224.09,182.37L225.65,179.44L227.2,182.13L228.76,193.78L230.32,192.51L231.87,189.01L233.43,200.73L234.99,189.82L236.54,190.76L238.1,185.79L239.65,193.58L244.32,151.55L245.88,157.07L247.44,142.58L248.99,137.97L250.55,139.87L252.1,130.27L253.66,132.99L255.22,122.37L258.33,103.55L259.88,100.72L261.44,108.79L263,90.37L264.55,98.3L266.11,116.26L267.67,124.55L269.22,104.41L270.78,124.7L272.33,118.34L273.89,117.73L275.45,116.24L277,116.22L278.56,92.81L281.67,84.1L283.23,57.26L284.78,76.14L286.34,73.13L289.45,56.61L291.01,58.02L292.56,47.47L294.12,58.43L295.68,56.24L297.23,36.28L300.35,32.49L301.9,16L306.57,42.11L308.13,39.96L309.68,89.29L311.24,60.04L312.8,61.43L314.35,52.74L315.91,50L317.46,44.25L319.02,50.96L320.58,46.62L322.13,56.45L323.69,42.02L326.8,39.54L328.36,33.64L329.91,32.76L331.47,34.35L333.03,24.02L334.58,39.49L336.14,35.16L337.69,25.81L340.81,17.72L342.36,24.64L343.92,30.11L345.48,25.62L347.03,25.5L348.59,34.93L350.14,26.73L351.7,36.08L353.26,32.19L354.81,35.76L356.37,33.31L357.93,27.12L359.48,28.12L361.04,34.88L362.59,50.22L364.15,38.88L365.71,37.11L367.26,57.67L368.82,63.97L370.37,79.32L371.93,84.4L373.49,78.77L376.6,86.22L378.16,85.98L379.71,93.26L381.27,85.68L382.82,78.21L384.38,80.28L385.94,85.95L387.49,73.4L390.61,86.18L392.16,103.1L393.72,92.07L395.27,113.53L396.83,113.74L398.39,109.78L399.94,121.4L401.5,124.57L403.05,138.66L404.61,129.93L406.17,125.2L407.72,150.13L409.28,143.66L410.84,154.91L412.39,152.5L413.95,154.45L417.06,151.66L418.62,160.49L420.17,170.19L421.73,167.32L424.84,185.92L426.4,181.22L429.51,187.1L431.07,181.62L434.18,178.33L435.73,180.94L437.29,202.14L438.85,207.81L441.96,194.38L443.52,193.03L445.07,185.09L446.63,185.17L448.18,193.41L449.74,195.98L451.3,203.21L452.85,206.72L455.97,220.12L457.52,214.24L459.08,213.83L460.63,215.55L462.19,223.29L463.75,222.93L465.3,218.53L466.86,217.88L468.41,213.32L469.97,204.08L471.53,201.4L473.08,206.98L474.64,207.58L476.2,202.79L477.75,201.83L479.31,208.74L480.86,208.96L482.42,206.82L483.98,207.65L485.53,209.56L487.09,209.35L488.65,213.01L490.2,222.71L491.76,225.09L494.87,232.54L496.43,229.56L497.98,221.01L499.54,224.01L501.1,220.02L502.65,219L507.32,226.09L508.88,221.52L511.99,220.93L513.54,217.31L515.1,218.81L516.66,223.94L518.21,224.01L519.77,228.62L521.33,228.93L522.88,235.91L525.99,227.74L527.55,226.53L529.11,230.18L530.66,224.19L532.22,227.78L533.78,221.27L535.33,223.2L536.89,223.68L538.44,221.15L540,228.21" style="fill: rgb(99, 110, 250); fill-opacity: 0.5; stroke-width: 0;"/></g></g><g class="errorbars"/><g class="lines"><path class="js-line" d="M0,315.21L1.56,308.2L3.11,309.6L4.67,307.86L6.22,316.62L7.78,310.15L9.34,308.43L10.89,308.53L12.45,302.78L14.01,314.76L15.56,304.95L17.12,298.45L18.67,299.81L20.23,303.59L21.79,297.75L23.34,298.09L24.9,293.74L26.46,293.85L28.01,297.45L29.57,295.34L31.12,295.74L32.68,300.66L34.24,297.94L35.79,297.56L37.35,299.93L38.9,299.91L40.46,297.38L42.02,293.95L43.57,293.03L45.13,288.21L46.69,289L48.24,287.66L49.8,289.72L51.35,290.8L52.91,281.18L54.47,236.79L56.02,160.64L57.58,143.01L59.14,141.68L62.25,124.1L63.8,126.59L65.36,105.7L66.92,107.86L68.47,109.31L70.03,115.47L71.59,117.89L73.14,111.52L76.25,150.49L77.81,142.71L79.37,146.68L80.92,148.41L82.48,152.14L84.03,152.02L85.59,147.55L87.15,145.92L88.7,147.6L90.26,147.39L91.82,154.41L93.37,146.16L94.93,143.3L96.48,143.47L98.04,145.64L99.6,143.84L101.15,143.39L102.71,149.52L104.27,158.8L105.82,151.97L107.38,124.21L108.93,122.07L110.49,124.84L112.05,132.96L113.6,134.28L115.16,137.21L116.71,133.2L118.27,133.4L121.38,134.56L122.94,142.09L124.5,141.27L126.05,141.67L127.61,141.95L129.16,132.92L130.72,135.49L132.28,127.27L133.83,128.03L135.39,111.33L136.95,118.05L138.5,116.16L140.06,129.64L141.61,124.73L143.17,133.66L144.73,131.82L147.84,134.91L149.39,133.29L150.95,140.46L152.51,142.65L154.06,143.5L155.62,143.49L157.18,144.35L158.73,141.24L160.29,139.41L161.84,131.1L163.4,143.89L164.96,150.39L166.51,154.58L168.07,155.55L171.18,150.67L172.74,161.74L174.29,165.84L175.85,163.64L177.41,170.55L178.96,170.64L183.63,221.88L185.19,224.33L186.74,221.14L188.3,223.8L189.86,215.64L191.41,219.24L192.97,215L194.52,220.7L196.08,213.37L197.64,210.89L199.19,212.29L200.75,209.87L203.86,199.85L205.42,197.98L206.97,203.56L208.53,199.95L213.2,191.54L214.76,188.21L216.31,195.48L217.87,195.53L222.54,181.94L224.09,182.37L225.65,179.44L227.2,182.13L228.76,193.78L230.32,192.51L231.87,189.01L233.43,200.73L234.99,189.82L236.54,190.76L238.1,185.79L239.65,193.58L244.32,151.55L245.88,157.07L247.44,142.58L248.99,137.97L250.55,139.87L252.1,130.27L253.66,132.99L255.22,122.37L258.33,103.55L259.88,100.72L261.44,108.79L263,90.37L264.55,98.3L266.11,116.26L267.67,124.55L269.22,104.41L270.78,124.7L272.33,118.34L273.89,117.73L275.45,116.24L277,116.22L278.56,92.81L281.67,84.1L283.23,57.26L284.78,76.14L286.34,73.13L289.45,56.61L291.01,58.02L292.56,47.47L294.12,58.43L295.68,56.24L297.23,36.28L300.35,32.49L301.9,16L306.57,42.11L308.13,39.96L309.68,89.29L311.24,60.04L312.8,61.43L314.35,52.74L315.91,50L317.46,44.25L319.02,50.96L320.58,46.62L322.13,56.45L323.69,42.02L326.8,39.54L328.36,33.64L329.91,32.76L331.47,34.35L333.03,24.02L334.58,39.49L336.14,35.16L337.69,25.81L340.81,17.72L342.36,24.64L343.92,30.11L345.48,25.62L347.03,25.5L348.59,34.93L350.14,26.73L351.7,36.08L353.26,32.19L354.81,35.76L356.37,33.31L357.93,27.12L359.48,28.12L361.04,34.88L362.59,50.22L364.15,38.88L365.71,37.11L367.26,57.67L368.82,63.97L370.37,79.32L371.93,84.4L373.49,78.77L376.6,86.22L378.16,85.98L379.71,93.26L381.27,85.68L382.82,78.21L384.38,80.28L385.94,85.95L387.49,73.4L390.61,86.18L392.16,103.1L393.72,92.07L395.27,113.53L396.83,113.74L398.39,109.78L399.94,121.4L401.5,124.57L403.05,138.66L404.61,129.93L406.17,125.2L407.72,150.13L409.28,143.66L410.84,154.91L412.39,152.5L413.95,154.45L417.06,151.66L418.62,160.49L420.17,170.19L421.73,167.32L424.84,185.92L426.4,181.22L429.51,187.1L431.07,181.62L434.18,178.33L435.73,180.94L437.29,202.14L438.85,207.81L441.96,194.38L443.52,193.03L445.07,185.09L446.63,185.17L448.18,193.41L449.74,195.98L451.3,203.21L452.85,206.72L455.97,220.12L457.52,214.24L459.08,213.83L460.63,215.55L462.19,223.29L463.75,222.93L465.3,218.53L466.86,217.88L468.41,213.32L469.97,204.08L471.53,201.4L473.08,206.98L474.64,207.58L476.2,202.79L477.75,201.83L479.31,208.74L480.86,208.96L482.42,206.82L483.98,207.65L485.53,209.56L487.09,209.35L488.65,213.01L490.2,222.71L491.76,225.09L494.87,232.54L496.43,229.56L497.98,221.01L499.54,224.01L501.1,220.02L502.65,219L507.32,226.09L508.88,221.52L511.99,220.93L513.54,217.31L515.1,218.81L516.66,223.94L518.21,224.01L519.77,228.62L521.33,228.93L522.88,235.91L525.99,227.74L527.55,226.53L529.11,230.18L530.66,224.19L532.22,227.78L533.78,221.27L535.33,223.2L536.89,223.68L538.44,221.15L540,228.21" style="vector-effect: none; fill: none; stroke: rgb(99, 110, 250); stroke-opacity: 1; stroke-width: 2px; opacity: 1;"/></g><g class="points"/><g class="text"/></g></g></g><g class="overplot"/><path class="xlines-above crisp" d="M0,0" style="fill: none;"/><path class="ylines-above crisp" d="M0,0" style="fill: none;"/><g class="overlines-above"/><g class="xaxislayer-above"><g class="xtick"><text text-anchor="middle" x="0" y="433" transform="translate(142.25,0)" style="font-family: 'Open Sans', verdana, arial, sans-serif; font-size: 12px; fill: rgb(42, 63, 95); fill-opacity: 1; white-space: pre; opacity: 1;">Nov 2022</text></g><g class="xtick"><text text-anchor="middle" x="0" y="433" style="font-family: 'Open Sans', verdana, arial, sans-serif; font-size: 12px; fill: rgb(42, 63, 95); fill-opacity: 1; white-space: pre; opacity: 1;" transform="translate(237.18,0)">Jan 2023</text></g><g class="xtick"><text text-anchor="middle" x="0" y="433" style="font-family: 'Open Sans', verdana, arial, sans-serif; font-size: 12px; fill: rgb(42, 63, 95); fill-opacity: 1; white-space: pre; opacity: 1;" transform="translate(328.99,0)">Mar 2023</text></g><g class="xtick"><text text-anchor="middle" x="0" y="433" style="font-family: 'Open Sans', verdana, arial, sans-serif; font-size: 12px; fill: rgb(42, 63, 95); fill-opacity: 1; white-space: pre; opacity: 1;" transform="translate(423.92,0)">May 2023</text></g><g class="xtick"><text text-anchor="middle" x="0" y="433" style="font-family: 'Open Sans', verdana, arial, sans-serif; font-size: 12px; fill: rgb(42, 63, 95); fill-opacity: 1; white-space: pre; opacity: 1;" transform="translate(518.85,0)">Jul 2023</text></g><g class="xtick"><text text-anchor="middle" x="0" y="433" style="font-family: 'Open Sans', verdana, arial, sans-serif; font-size: 12px; fill: rgb(42, 63, 95); fill-opacity: 1; white-space: pre; opacity: 1;" transform="translate(615.33,0)">Sep 2023</text></g></g><g class="yaxislayer-above"><g class="ytick"><text text-anchor="end" x="79" y="4.199999999999999" transform="translate(0,420)" style="font-family: 'Open Sans', verdana, arial, sans-serif; font-size: 12px; fill: rgb(42, 63, 95); fill-opacity: 1; white-space: pre; opacity: 1;">$0</text></g><g class="ytick"><text text-anchor="end" x="79" y="4.199999999999999" style="font-family: 'Open Sans', verdana, arial, sans-serif; font-size: 12px; fill: rgb(42, 63, 95); fill-opacity: 1; white-space: pre; opacity: 1;" transform="translate(0,365.37)">$2M</text></g><g class="ytick"><text text-anchor="end" x="79" y="4.199999999999999" style="font-family: 'Open Sans', verdana, arial, sans-serif; font-size: 12px; fill: rgb(42, 63, 95); fill-opacity: 1; white-space: pre; opacity: 1;" transform="translate(0,310.73)">$4M</text></g><g class="ytick"><text text-anchor="end" x="79" y="4.199999999999999" style="font-family: 'Open Sans', verdana, arial, sans-serif; font-size: 12px; fill: rgb(42, 63, 95); fill-opacity: 1; white-space: pre; opacity: 1;" transform="translate(0,256.1)">$6M</text></g><g class="ytick"><text text-anchor="end" x="79" y="4.199999999999999" style="font-family: 'Open Sans', verdana, arial, sans-serif; font-size: 12px; fill: rgb(42, 63, 95); fill-opacity: 1; white-space: pre; opacity: 1;" transform="translate(0,201.47)">$8M</text></g><g class="ytick"><text text-anchor="end" x="79" y="4.199999999999999" style="font-family: 'Open Sans', verdana, arial, sans-serif; font-size: 12px; fill: rgb(42, 63, 95); fill-opacity: 1; white-space: pre; opacity: 1;" transform="translate(0,146.82999999999998)">$10M</text></g></g><g class="overaxes-above"/></g></g><g class="polarlayer"/><g class="smithlayer"/><g class="ternarylayer"/><g class="geolayer"/><g class="funnelarealayer"/><g class="pielayer"/><g class="iciclelayer"/><g class="treemaplayer"/><g class="sunburstlayer"/><g class="glimages"/><defs id="topdefs-042bdc"><g class="clips"/></defs><g class="layer-above"><g class="imagelayer"/><g class="shapelayer"/></g><g class="infolayer"><g class="g-gtitle"><text class="gtitle" x="35" y="50" text-anchor="start" dy="0em" style="font-family: 'Open Sans', verdana, arial, sans-serif; font-size: 17px; fill: rgb(42, 63, 95); opacity: 1; font-weight: normal; white-space: pre;"><tspan class="line" dy="0em" x="35" y="50">Hop Protocol</tspan><tspan class="line" dy="1.3em" x="35" y="50">​<tspan style="font-size:70%" dy="-0.6em">Cumulative Net Flows since Program Announcement, Until Program End + 30 Days</tspan><tspan dy="0.42em">​</tspan></tspan></text></g><g class="g-xtitle"><text class="xtitle" x="350" y="460.3" text-anchor="middle" style="font-family: 'Open Sans', verdana, arial, sans-serif; font-size: 14px; fill: rgb(42, 63, 95); opacity: 1; font-weight: normal; white-space: pre;">Day</text></g><g class="g-ytitle"><text class="ytitle" transform="rotate(-90,24.668750000000003,260)" x="24.668750000000003" y="260" text-anchor="middle" style="font-family: 'Open Sans', verdana, arial, sans-serif; font-size: 14px; fill: rgb(42, 63, 95); opacity: 1; font-weight: normal; white-space: pre;">Cumulative Net Flows (USD)</text></g></g></svg>