<svg class="main-svg" xmlns="http://www.w3.org/2000/svg" xmlns:xlink="http://www.w3.org/1999/xlink" width="700" height="500" style="" viewBox="0 0 700 500"><rect x="0" y="0" width="700" height="500" style="fill: rgb(255, 255, 255); fill-opacity: 1;"/><defs id="defs-5ea7dd"><g class="clips"><clipPath id="clip5ea7ddxyplot" class="plotclip"><rect width="540" height="320"/></clipPath><clipPath class="axesclip" id="clip5ea7ddx"><rect x="80" y="0" width="540" height="500"/></clipPath><clipPath class="axesclip" id="clip5ea7ddy"><rect x="0" y="100" width="700" height="320"/></clipPath><clipPath class="axesclip" id="clip5ea7ddxy"><rect x="80" y="100" width="540" height="320"/></clipPath></g><g class="gradients"/><g class="patterns"/></defs><g class="bglayer"><rect class="bg" x="80" y="100" width="540" height="320" style="fill: rgb(229, 236, 246); fill-opacity: 1; stroke-width: 0;"/></g><g class="layer-below"><g class="imagelayer"/><g class="shapelayer"/></g><g class="cartesianlayer"><g class="subplot xy"><g class="layer-subplot"><g class="shapelayer"/><g class="imagelayer"/></g><g class="minor-gridlayer"><g class="x"/><g class="y"/></g><g class="gridlayer"><g class="x"><path class="xgrid crisp" transform="translate(143.69,0)" d="M0,100v320" style="stroke: rgb(255, 255, 255); stroke-opacity: 1; stroke-width: 1px;"/><path class="xgrid crisp" transform="translate(224.62,0)" d="M0,100v320" style="stroke: rgb(255, 255, 255); stroke-opacity: 1; stroke-width: 1px;"/><path class="xgrid crisp" transform="translate(302.9,0)" d="M0,100v320" style="stroke: rgb(255, 255, 255); stroke-opacity: 1; stroke-width: 1px;"/><path class="xgrid crisp" transform="translate(383.83,0)" d="M0,100v320" style="stroke: rgb(255, 255, 255); stroke-opacity: 1; stroke-width: 1px;"/><path class="xgrid crisp" transform="translate(464.77,0)" d="M0,100v320" style="stroke: rgb(255, 255, 255); stroke-opacity: 1; stroke-width: 1px;"/><path class="xgrid crisp" transform="translate(547.03,0)" d="M0,100v320" style="stroke: rgb(255, 255, 255); stroke-opacity: 1; stroke-width: 1px;"/></g><g class="y"><path class="ygrid crisp" transform="translate(0,322.85)" d="M80,0h540" style="stroke: rgb(255, 255, 255); stroke-opacity: 1; stroke-width: 1px;"/><path class="ygrid crisp" transform="translate(0,252)" d="M80,0h540" style="stroke: rgb(255, 255, 255); stroke-opacity: 1; stroke-width: 1px;"/><path class="ygrid crisp" transform="translate(0,181.15)" d="M80,0h540" style="stroke: rgb(255, 255, 255); stroke-opacity: 1; stroke-width: 1px;"/><path class="ygrid crisp" transform="translate(0,110.3)" d="M80,0h540" style="stroke: rgb(255, 255, 255); stroke-opacity: 1; stroke-width: 1px;"/></g></g><g class="zerolinelayer"><path class="yzl zl crisp" transform="translate(0,393.7)" d="M80,0h540" style="stroke: rgb(255, 255, 255); stroke-opacity: 1; stroke-width: 2px;"/></g><path class="xlines-below"/><path class="ylines-below"/><g class="overlines-below"/><g class="xaxislayer-below"/><g class="yaxislayer-below"/><g class="overaxes-below"/><g class="plot" transform="translate(80,100)" clip-path="url(#clip5ea7ddxyplot)"><g class="scatterlayer mlayer"><g class="trace scatter trace5bd8ad" style="stroke-miterlimit: 2;"><g class="fills"><g><path class="js-fill" d="M540,293.7L0,293.7L0,296.11L1.33,295.51L2.65,297.11L3.98,301.05L5.31,300.59L6.63,302.11L7.96,301.38L10.61,304L11.94,302.43L14.59,301.77L15.92,302.27L18.57,300.6L19.9,299.74L21.23,299.75L22.56,298.69L29.19,295.72L30.52,292.27L37.15,292.03L38.48,291.53L42.46,290.14L43.78,288.98L45.11,287.9L46.44,288.45L47.76,287.56L49.09,283.45L51.74,279.49L53.07,279.96L54.4,279.46L55.72,267.32L59.71,272.07L61.03,271.63L62.36,272.25L63.69,270.73L65.01,270.4L66.34,271.26L67.67,267.03L68.99,267.47L70.32,263.59L71.65,262.92L72.97,262.62L74.3,266.54L75.63,274.47L76.95,273.81L78.28,277.38L79.61,277.63L80.93,285.73L82.26,285.1L83.59,283.51L84.91,284.62L86.24,283.21L87.57,283.34L88.89,281.3L90.22,283.01L91.55,283.38L92.87,282.9L95.53,280.31L96.86,279.09L98.18,277.79L99.51,278.55L100.84,278.46L102.16,276.45L103.49,276.19L104.82,274.85L108.8,273.3L110.12,273.61L111.45,272.07L112.78,272.33L114.1,268.78L115.43,268.6L116.76,267.36L118.08,267.24L119.41,269.22L120.74,266.71L122.06,265.84L123.39,266.38L124.72,266.19L126.04,266.87L127.37,266.28L128.7,267.2L130.02,266.22L131.35,264.22L132.68,264.04L134,264.84L140.64,264.3L141.97,265.19L143.29,267.02L144.62,267.1L145.95,267.39L147.27,265.23L148.6,263.17L149.93,258.18L151.25,257.11L152.58,258.89L155.23,250.79L156.56,245.57L157.89,241.41L159.21,240.09L160.54,242.66L161.87,243.35L164.52,246.46L165.85,251.44L168.5,257.52L169.83,257.67L171.15,267.14L172.48,270.75L173.81,273.5L175.14,274.26L176.46,275.67L177.79,275.34L181.77,277.93L183.1,277.66L185.75,278.55L187.08,277.19L191.06,279.13L192.38,279.53L196.36,278.54L197.69,280.45L199.02,282.05L200.34,282.08L203,282.85L204.32,282.32L205.65,281L206.98,281.81L212.29,282.88L213.61,283.13L218.92,285.77L220.25,285.17L225.55,285.3L226.88,286.81L229.53,288.24L230.86,288.63L233.51,289.13L234.84,290.17L237.49,293.48L238.82,291.52L241.47,291.12L242.8,291.45L244.13,291.29L245.45,294.45L248.11,296.18L249.43,296.39L250.76,295.96L252.09,296.42L253.42,295.52L254.74,296.24L260.05,295.81L261.38,294.48L262.7,293.58L264.03,124.16L268.01,123.88L269.34,122.22L270.66,123.04L271.99,122.82L274.64,124.24L275.97,123.07L279.95,123.2L281.28,121.28L282.6,123.08L283.93,122.99L285.26,122.9L286.58,121.78L287.91,132.99L289.24,132.01L290.57,130.67L291.89,136.13L293.22,133.34L294.55,133.94L295.87,133.97L297.2,132.39L298.53,127.88L299.85,130.37L301.18,130.37L302.51,129.11L303.83,128.48L305.16,131.67L306.49,131.15L307.81,67.05L309.14,66.93L310.47,130.76L311.79,123.73L313.12,126L314.45,125.78L315.77,124.52L317.1,120.56L318.43,124.88L319.75,124.59L321.08,120.93L322.41,119.56L323.73,116.82L325.06,119.18L326.39,115.99L329.04,122.3L330.37,121.01L331.7,123.38L333.02,123.87L334.35,123.33L335.68,124.86L337,129.66L338.33,128.34L339.66,129.04L340.98,128.47L343.64,130.51L344.96,135.59L346.29,138.76L347.62,135.62L348.94,135.63L350.27,137.32L351.6,142.09L352.92,138.37L355.58,138.53L356.9,141.3L360.88,145.36L362.21,144.15L364.86,148.89L366.19,148.48L367.52,146.07L368.85,148.56L370.17,150.62L371.5,143.65L372.83,141.34L374.15,146.55L375.48,148.16L376.81,147.64L379.46,146.06L380.79,143.7L382.11,148.45L383.44,147.25L384.77,142.43L386.09,141.84L387.42,141.96L388.75,139.79L390.07,139.21L391.4,126.81L394.05,117.91L395.38,116.73L396.71,120.39L398.03,115.99L400.69,113.39L402.01,103.37L403.34,93.61L404.67,96.61L406,105.28L407.32,94.67L408.65,94.04L409.98,102.96L411.3,97.95L412.63,97.15L413.96,99.37L415.28,99.6L416.61,94.98L417.94,94.21L419.26,103.92L420.59,91.21L423.24,75.64L424.57,70.49L425.9,65.54L427.22,57.58L428.55,54.2L429.88,57.8L431.2,90.59L432.53,93.91L433.86,81.93L435.18,80.5L437.84,64.66L439.16,63.44L440.49,71.08L441.82,67.35L443.14,60.55L444.47,66.1L447.13,54.54L448.45,77.96L449.78,87.75L451.11,90.28L452.43,87.93L453.76,77.8L456.41,87.36L457.74,29.42L459.07,21.76L460.39,22.06L461.72,16L463.05,30.83L464.37,34.81L465.7,42.16L467.03,24.77L468.35,34.16L469.68,30.42L471.01,31.36L472.33,22.79L473.66,47.79L474.99,51.8L476.31,62.46L477.64,69.32L478.97,31.62L480.29,37.01L481.62,87.25L482.95,74.3L484.28,76.83L485.6,71.84L486.93,72.67L488.26,71.48L489.58,74.48L490.91,63.41L492.24,62.76L493.56,66.08L494.89,62.93L496.22,66.14L497.54,65.82L498.87,70.56L500.2,70.96L501.52,67.69L502.85,67.65L505.5,63.91L506.83,78.09L508.16,107.64L509.48,99.79L510.81,97.09L512.14,98.48L513.46,102.77L514.79,103.78L517.44,103.64L518.77,107.6L520.1,109.52L521.43,116.42L522.75,118.03L524.08,116.8L526.73,119.18L528.06,116.66L529.39,119.2L530.71,118.22L532.04,116.92L533.37,112.35L534.69,113.68L536.02,111.6L537.35,106.37L538.67,84.92L540,79.32" style="fill: rgb(99, 110, 250); fill-opacity: 0.5; stroke-width: 0;"/></g></g><g class="errorbars"/><g class="lines"><path class="js-line" d="M0,296.11L1.33,295.51L2.65,297.11L3.98,301.05L5.31,300.59L6.63,302.11L7.96,301.38L10.61,304L11.94,302.43L14.59,301.77L15.92,302.27L18.57,300.6L19.9,299.74L21.23,299.75L22.56,298.69L29.19,295.72L30.52,292.27L37.15,292.03L38.48,291.53L42.46,290.14L43.78,288.98L45.11,287.9L46.44,288.45L47.76,287.56L49.09,283.45L51.74,279.49L53.07,279.96L54.4,279.46L55.72,267.32L59.71,272.07L61.03,271.63L62.36,272.25L63.69,270.73L65.01,270.4L66.34,271.26L67.67,267.03L68.99,267.47L70.32,263.59L71.65,262.92L72.97,262.62L74.3,266.54L75.63,274.47L76.95,273.81L78.28,277.38L79.61,277.63L80.93,285.73L82.26,285.1L83.59,283.51L84.91,284.62L86.24,283.21L87.57,283.34L88.89,281.3L90.22,283.01L91.55,283.38L92.87,282.9L95.53,280.31L96.86,279.09L98.18,277.79L99.51,278.55L100.84,278.46L102.16,276.45L103.49,276.19L104.82,274.85L108.8,273.3L110.12,273.61L111.45,272.07L112.78,272.33L114.1,268.78L115.43,268.6L116.76,267.36L118.08,267.24L119.41,269.22L120.74,266.71L122.06,265.84L123.39,266.38L124.72,266.19L126.04,266.87L127.37,266.28L128.7,267.2L130.02,266.22L131.35,264.22L132.68,264.04L134,264.84L140.64,264.3L141.97,265.19L143.29,267.02L144.62,267.1L145.95,267.39L147.27,265.23L148.6,263.17L149.93,258.18L151.25,257.11L152.58,258.89L155.23,250.79L156.56,245.57L157.89,241.41L159.21,240.09L160.54,242.66L161.87,243.35L164.52,246.46L165.85,251.44L168.5,257.52L169.83,257.67L171.15,267.14L172.48,270.75L173.81,273.5L175.14,274.26L176.46,275.67L177.79,275.34L181.77,277.93L183.1,277.66L185.75,278.55L187.08,277.19L191.06,279.13L192.38,279.53L196.36,278.54L197.69,280.45L199.02,282.05L200.34,282.08L203,282.85L204.32,282.32L205.65,281L206.98,281.81L212.29,282.88L213.61,283.13L218.92,285.77L220.25,285.17L225.55,285.3L226.88,286.81L229.53,288.24L230.86,288.63L233.51,289.13L234.84,290.17L237.49,293.48L238.82,291.52L241.47,291.12L242.8,291.45L244.13,291.29L245.45,294.45L248.11,296.18L249.43,296.39L250.76,295.96L252.09,296.42L253.42,295.52L254.74,296.24L260.05,295.81L261.38,294.48L262.7,293.58L264.03,124.16L268.01,123.88L269.34,122.22L270.66,123.04L271.99,122.82L274.64,124.24L275.97,123.07L279.95,123.2L281.28,121.28L282.6,123.08L283.93,122.99L285.26,122.9L286.58,121.78L287.91,132.99L289.24,132.01L290.57,130.67L291.89,136.13L293.22,133.34L294.55,133.94L295.87,133.97L297.2,132.39L298.53,127.88L299.85,130.37L301.18,130.37L302.51,129.11L303.83,128.48L305.16,131.67L306.49,131.15L307.81,67.05L309.14,66.93L310.47,130.76L311.79,123.73L313.12,126L314.45,125.78L315.77,124.52L317.1,120.56L318.43,124.88L319.75,124.59L321.08,120.93L322.41,119.56L323.73,116.82L325.06,119.18L326.39,115.99L329.04,122.3L330.37,121.01L331.7,123.38L333.02,123.87L334.35,123.33L335.68,124.86L337,129.66L338.33,128.34L339.66,129.04L340.98,128.47L343.64,130.51L344.96,135.59L346.29,138.76L347.62,135.62L348.94,135.63L350.27,137.32L351.6,142.09L352.92,138.37L355.58,138.53L356.9,141.3L360.88,145.36L362.21,144.15L364.86,148.89L366.19,148.48L367.52,146.07L368.85,148.56L370.17,150.62L371.5,143.65L372.83,141.34L374.15,146.55L375.48,148.16L376.81,147.64L379.46,146.06L380.79,143.7L382.11,148.45L383.44,147.25L384.77,142.43L386.09,141.84L387.42,141.96L388.75,139.79L390.07,139.21L391.4,126.81L394.05,117.91L395.38,116.73L396.71,120.39L398.03,115.99L400.69,113.39L402.01,103.37L403.34,93.61L404.67,96.61L406,105.28L407.32,94.67L408.65,94.04L409.98,102.96L411.3,97.95L412.63,97.15L413.96,99.37L415.28,99.6L416.61,94.98L417.94,94.21L419.26,103.92L420.59,91.21L423.24,75.64L424.57,70.49L425.9,65.54L427.22,57.58L428.55,54.2L429.88,57.8L431.2,90.59L432.53,93.91L433.86,81.93L435.18,80.5L437.84,64.66L439.16,63.44L440.49,71.08L441.82,67.35L443.14,60.55L444.47,66.1L447.13,54.54L448.45,77.96L449.78,87.75L451.11,90.28L452.43,87.93L453.76,77.8L456.41,87.36L457.74,29.42L459.07,21.76L460.39,22.06L461.72,16L463.05,30.83L464.37,34.81L465.7,42.16L467.03,24.77L468.35,34.16L469.68,30.42L471.01,31.36L472.33,22.79L473.66,47.79L474.99,51.8L476.31,62.46L477.64,69.32L478.97,31.62L480.29,37.01L481.62,87.25L482.95,74.3L484.28,76.83L485.6,71.84L486.93,72.67L488.26,71.48L489.58,74.48L490.91,63.41L492.24,62.76L493.56,66.08L494.89,62.93L496.22,66.14L497.54,65.82L498.87,70.56L500.2,70.96L501.52,67.69L502.85,67.65L505.5,63.91L506.83,78.09L508.16,107.64L509.48,99.79L510.81,97.09L512.14,98.48L513.46,102.77L514.79,103.78L517.44,103.64L518.77,107.6L520.1,109.52L521.43,116.42L522.75,118.03L524.08,116.8L526.73,119.18L528.06,116.66L529.39,119.2L530.71,118.22L532.04,116.92L533.37,112.35L534.69,113.68L536.02,111.6L537.35,106.37L538.67,84.92L540,79.32" style="vector-effect: none; fill: none; stroke: rgb(99, 110, 250); stroke-opacity: 1; stroke-width: 2px; opacity: 1;"/></g><g class="points"/><g class="text"/></g></g></g><g class="overplot"/><path class="xlines-above crisp" d="M0,0" style="fill: none;"/><path class="ylines-above crisp" d="M0,0" style="fill: none;"/><g class="overlines-above"/><g class="xaxislayer-above"><g class="xtick"><text text-anchor="middle" x="0" y="433" transform="translate(143.69,0)" style="font-family: 'Open Sans', verdana, arial, sans-serif; font-size: 12px; fill: rgb(42, 63, 95); fill-opacity: 1; white-space: pre; opacity: 1;">Nov 2022</text></g><g class="xtick"><text text-anchor="middle" x="0" y="433" style="font-family: 'Open Sans', verdana, arial, sans-serif; font-size: 12px; fill: rgb(42, 63, 95); fill-opacity: 1; white-space: pre; opacity: 1;" transform="translate(224.62,0)">Jan 2023</text></g><g class="xtick"><text text-anchor="middle" x="0" y="433" style="font-family: 'Open Sans', verdana, arial, sans-serif; font-size: 12px; fill: rgb(42, 63, 95); fill-opacity: 1; white-space: pre; opacity: 1;" transform="translate(302.9,0)">Mar 2023</text></g><g class="xtick"><text text-anchor="middle" x="0" y="433" style="font-family: 'Open Sans', verdana, arial, sans-serif; font-size: 12px; fill: rgb(42, 63, 95); fill-opacity: 1; white-space: pre; opacity: 1;" transform="translate(383.83,0)">May 2023</text></g><g class="xtick"><text text-anchor="middle" x="0" y="433" style="font-family: 'Open Sans', verdana, arial, sans-serif; font-size: 12px; fill: rgb(42, 63, 95); fill-opacity: 1; white-space: pre; opacity: 1;" transform="translate(464.77,0)">Jul 2023</text></g><g class="xtick"><text text-anchor="middle" x="0" y="433" style="font-family: 'Open Sans', verdana, arial, sans-serif; font-size: 12px; fill: rgb(42, 63, 95); fill-opacity: 1; white-space: pre; opacity: 1;" transform="translate(547.03,0)">Sep 2023</text></g></g><g class="yaxislayer-above"><g class="ytick"><text text-anchor="end" x="79" y="4.199999999999999" transform="translate(0,393.7)" style="font-family: 'Open Sans', verdana, arial, sans-serif; font-size: 12px; fill: rgb(42, 63, 95); fill-opacity: 1; white-space: pre; opacity: 1;">$0</text></g><g class="ytick"><text text-anchor="end" x="79" y="4.199999999999999" style="font-family: 'Open Sans', verdana, arial, sans-serif; font-size: 12px; fill: rgb(42, 63, 95); fill-opacity: 1; white-space: pre; opacity: 1;" transform="translate(0,322.85)">$1M</text></g><g class="ytick"><text text-anchor="end" x="79" y="4.199999999999999" style="font-family: 'Open Sans', verdana, arial, sans-serif; font-size: 12px; fill: rgb(42, 63, 95); fill-opacity: 1; white-space: pre; opacity: 1;" transform="translate(0,252)">$2M</text></g><g class="ytick"><text text-anchor="end" x="79" y="4.199999999999999" style="font-family: 'Open Sans', verdana, arial, sans-serif; font-size: 12px; fill: rgb(42, 63, 95); fill-opacity: 1; white-space: pre; opacity: 1;" transform="translate(0,181.15)">$3M</text></g><g class="ytick"><text text-anchor="end" x="79" y="4.199999999999999" style="font-family: 'Open Sans', verdana, arial, sans-serif; font-size: 12px; fill: rgb(42, 63, 95); fill-opacity: 1; white-space: pre; opacity: 1;" transform="translate(0,110.3)">$4M</text></g></g><g class="overaxes-above"/></g></g><g class="polarlayer"/><g class="smithlayer"/><g class="ternarylayer"/><g class="geolayer"/><g class="funnelarealayer"/><g class="pielayer"/><g class="iciclelayer"/><g class="treemaplayer"/><g class="sunburstlayer"/><g class="glimages"/><defs id="topdefs-5ea7dd"><g class="clips"/></defs><g class="layer-above"><g class="imagelayer"/><g class="shapelayer"/></g><g class="infolayer"><g class="g-gtitle"><text class="gtitle" x="35" y="50" text-anchor="start" dy="0em" style="font-family: 'Open Sans', verdana, arial, sans-serif; font-size: 17px; fill: rgb(42, 63, 95); opacity: 1; font-weight: normal; white-space: pre;"><tspan class="line" dy="0em" x="35" y="50">Polynomial Protocol*</tspan><tspan class="line" dy="1.3em" x="35" y="50">​<tspan style="font-size:70%" dy="-0.6em">Cumulative Net Flows since Program Announcement, Until Program End + 30 Days</tspan><tspan dy="0.42em">​</tspan></tspan></text></g><g class="g-xtitle"><text class="xtitle" x="350" y="460.3" text-anchor="middle" style="font-family: 'Open Sans', verdana, arial, sans-serif; font-size: 14px; fill: rgb(42, 63, 95); opacity: 1; font-weight: normal; white-space: pre;">Day</text></g><g class="g-ytitle"><text class="ytitle" transform="rotate(-90,31.356250000000003,260)" x="31.356250000000003" y="260" text-anchor="middle" style="font-family: 'Open Sans', verdana, arial, sans-serif; font-size: 14px; fill: rgb(42, 63, 95); opacity: 1; font-weight: normal; white-space: pre;">Cumulative Net Flows (USD)</text></g></g></svg>