<svg class="main-svg" xmlns="http://www.w3.org/2000/svg" xmlns:xlink="http://www.w3.org/1999/xlink" width="700" height="500" style="" viewBox="0 0 700 500"><rect x="0" y="0" width="700" height="500" style="fill: rgb(255, 255, 255); fill-opacity: 1;"/><defs id="defs-79b573"><g class="clips"><clipPath id="clip79b573xyplot" class="plotclip"><rect width="540" height="320"/></clipPath><clipPath class="axesclip" id="clip79b573x"><rect x="80" y="0" width="540" height="500"/></clipPath><clipPath class="axesclip" id="clip79b573y"><rect x="0" y="100" width="700" height="320"/></clipPath><clipPath class="axesclip" id="clip79b573xy"><rect x="80" y="100" width="540" height="320"/></clipPath></g><g class="gradients"/><g class="patterns"/></defs><g class="bglayer"><rect class="bg" x="80" y="100" width="540" height="320" style="fill: rgb(229, 236, 246); fill-opacity: 1; stroke-width: 0;"/></g><g class="layer-below"><g class="imagelayer"/><g class="shapelayer"/></g><g class="cartesianlayer"><g class="subplot xy"><g class="layer-subplot"><g class="shapelayer"/><g class="imagelayer"/></g><g class="minor-gridlayer"><g class="x"/><g class="y"/></g><g class="gridlayer"><g class="x"><path class="xgrid crisp" transform="translate(88.96000000000001,0)" d="M0,100v320" style="stroke: rgb(255, 255, 255); stroke-opacity: 1; stroke-width: 1px;"/><path class="xgrid crisp" transform="translate(167.01,0)" d="M0,100v320" style="stroke: rgb(255, 255, 255); stroke-opacity: 1; stroke-width: 1px;"/><path class="xgrid crisp" transform="translate(242.51,0)" d="M0,100v320" style="stroke: rgb(255, 255, 255); stroke-opacity: 1; stroke-width: 1px;"/><path class="xgrid crisp" transform="translate(320.57,0)" d="M0,100v320" style="stroke: rgb(255, 255, 255); stroke-opacity: 1; stroke-width: 1px;"/><path class="xgrid crisp" transform="translate(398.63,0)" d="M0,100v320" style="stroke: rgb(255, 255, 255); stroke-opacity: 1; stroke-width: 1px;"/><path class="xgrid crisp" transform="translate(477.96,0)" d="M0,100v320" style="stroke: rgb(255, 255, 255); stroke-opacity: 1; stroke-width: 1px;"/><path class="xgrid crisp" transform="translate(556.02,0)" d="M0,100v320" style="stroke: rgb(255, 255, 255); stroke-opacity: 1; stroke-width: 1px;"/></g><g class="y"><path class="ygrid crisp" transform="translate(0,403.66)" d="M80,0h540" style="stroke: rgb(255, 255, 255); stroke-opacity: 1; stroke-width: 1px;"/><path class="ygrid crisp" transform="translate(0,271.93)" d="M80,0h540" style="stroke: rgb(255, 255, 255); stroke-opacity: 1; stroke-width: 1px;"/><path class="ygrid crisp" transform="translate(0,206.07)" d="M80,0h540" style="stroke: rgb(255, 255, 255); stroke-opacity: 1; stroke-width: 1px;"/><path class="ygrid crisp" transform="translate(0,140.21)" d="M80,0h540" style="stroke: rgb(255, 255, 255); stroke-opacity: 1; stroke-width: 1px;"/></g></g><g class="zerolinelayer"><path class="yzl zl crisp" transform="translate(0,337.8)" d="M80,0h540" style="stroke: rgb(255, 255, 255); stroke-opacity: 1; stroke-width: 2px;"/></g><path class="xlines-below"/><path class="ylines-below"/><g class="overlines-below"/><g class="xaxislayer-below"/><g class="yaxislayer-below"/><g class="overaxes-below"/><g class="plot" transform="translate(80,100)" clip-path="url(#clip79b573xyplot)"><g class="scatterlayer mlayer"><g class="trace scatter trace7c75a9" style="stroke-miterlimit: 2;"><g class="fills"><g><path class="js-fill" d="M540,237.8L0,237.8L0,237.8L1.28,237.8L2.56,192.14L3.84,132.34L5.12,141.41L6.4,144.07L7.68,132.2L8.96,135.04L10.24,125.5L11.52,122.14L12.8,144.95L16.64,142.58L17.91,145.13L20.47,168.11L21.75,167.72L23.03,161.31L24.31,160.41L25.59,132.26L26.87,132.69L28.15,130.94L29.43,136.55L31.99,148.56L33.27,145.68L34.55,144.11L35.83,144.88L37.11,144.78L38.39,143.51L39.67,143.25L40.95,139.53L42.23,131.42L43.51,117.27L44.79,125.4L46.07,128.17L47.35,150.28L48.63,137.45L51.18,121.29L52.46,140.5L53.74,141.53L55.02,159.92L56.3,146.83L57.58,146.45L58.86,147.16L60.14,155.61L61.42,154.78L62.7,154.97L65.26,154.88L66.54,150.03L67.82,143.28L69.1,142.76L70.38,142.76L71.66,143.55L72.94,141.09L74.22,141.3L75.5,141.36L76.78,139.73L78.06,140.1L79.34,139.44L80.62,136.38L81.9,136.1L83.18,139.59L84.45,138.33L85.73,140.63L87.01,140.43L88.29,139.62L89.57,137.13L90.85,133.97L92.13,135.4L95.97,135.15L97.25,133.36L98.53,134.69L99.81,137.35L102.37,126.37L103.65,125.34L104.93,123.14L106.21,116.02L107.49,145.42L108.77,140.38L110.05,143.88L111.33,165.89L112.61,170.47L113.89,167.51L116.45,161.28L117.73,159.63L119,147.28L120.28,149.59L122.84,147.13L124.12,127.56L125.4,136.94L126.68,132.16L127.96,117.81L129.24,126.07L130.52,125.63L131.8,120.68L133.08,120.93L134.36,101.81L135.64,120.74L136.92,122.45L138.2,121.77L139.48,114.24L140.76,113.15L142.04,113.86L143.32,90.23L144.6,92.86L147.16,100.87L148.44,93.01L149.72,98.65L151,98.28L152.27,101.62L153.55,93.28L154.83,85.88L156.11,62.31L157.39,55.3L158.67,60.95L159.95,60.63L161.23,47.67L162.51,47.09L163.79,62.58L165.07,50.57L166.35,54.42L167.63,57.66L168.91,45.7L171.47,61.18L172.75,53.67L174.03,38.23L175.31,58.53L176.59,24.66L177.87,53.25L180.43,130.68L181.71,194.05L182.99,176.1L184.27,169.18L185.55,170.63L186.82,169.97L189.38,141.27L190.66,37.95L193.22,57.29L194.5,37.1L195.78,16L197.06,47.58L198.34,46.98L199.62,63.08L202.18,61L203.46,49.49L204.74,48.89L206.02,45.41L209.86,61.52L211.14,85.52L212.42,141.85L213.7,134.72L216.26,133.79L217.54,142.2L218.82,158.02L220.09,156.75L221.37,158.87L222.65,158.51L223.93,161.15L225.21,126.12L226.49,201.11L227.77,185.76L230.33,160.68L231.61,156.17L232.89,157.99L234.17,157.74L236.73,158.37L238.01,158.49L239.29,165.11L240.57,203.51L243.13,196.66L244.41,197.84L245.69,130.1L246.97,123.28L248.25,123.32L249.53,124.85L250.81,128.16L252.09,99.32L253.36,102.48L254.64,76.43L255.92,132.18L257.2,122.87L258.48,109.32L259.76,111.19L261.04,114.38L262.32,105.47L263.6,85.54L264.88,93.45L266.16,123.3L267.44,123.64L268.72,119.22L270,138.37L271.28,104.27L272.56,104.51L275.12,96.33L276.4,78.31L277.68,81.77L278.96,164.13L280.24,205.77L281.52,200.11L282.8,201.1L284.08,177.01L285.36,174.54L286.64,180.16L287.91,180.23L289.19,177.76L290.47,156.73L291.75,158.05L294.31,167.01L295.59,167.14L296.87,162.42L298.15,163.84L299.43,158.39L300.71,162.97L301.99,162.88L303.27,163.66L305.83,165.06L307.11,160.51L308.39,164.73L309.67,165.8L310.95,166.44L312.23,166.06L314.79,168.85L316.07,165.35L317.35,175.88L318.63,176.05L319.91,176.5L321.18,176.14L322.46,175.23L323.74,169L325.02,170.02L326.3,183.54L328.86,183.8L330.14,185.71L331.42,185.14L332.7,179.91L333.98,174.84L335.26,176.35L336.54,163.62L337.82,169.62L339.1,176.3L340.38,169.02L341.66,184.55L342.94,182.74L344.22,194.84L345.5,183.9L346.78,186.89L348.06,181.49L349.34,168.11L350.62,168.25L351.9,168.39L353.18,171.54L354.45,175.18L355.73,181.23L357.01,182.51L358.29,186.15L359.57,189.29L360.85,189.83L362.13,184.38L363.41,184.03L365.97,191.58L367.25,168.54L369.81,171.23L371.09,178.32L373.65,179.1L374.93,179.11L376.21,178.19L377.49,178.45L378.77,179.79L380.05,179.6L382.61,184.66L383.89,185.29L386.45,185.11L387.73,193.65L389,194.27L390.28,174.45L392.84,174.75L394.12,173.25L395.4,177.37L396.68,172.44L397.96,174.24L399.24,179.98L401.8,179.62L403.08,180.05L404.36,182.31L405.64,218.64L408.2,218.72L409.48,216.48L410.76,216.47L412.04,217.32L413.32,217.79L414.6,216.69L415.88,217.08L417.16,215.39L418.44,218.14L419.72,218.18L422.27,218.32L423.55,215.78L424.83,220.93L426.11,221.08L427.39,221.2L428.67,222.25L429.95,222.51L431.23,208.39L432.51,209.69L433.79,219.37L436.35,227.54L437.63,228.16L438.91,231.25L440.19,241.85L441.47,242.06L442.75,236.25L446.59,236.93L447.87,238.4L449.15,240.41L450.43,234.98L451.71,232.45L452.99,232.81L458.1,233.99L459.38,223.05L460.66,223.41L461.94,225.87L463.22,224.35L464.5,228.64L465.78,231.2L467.06,230.35L468.34,232.24L469.62,232.27L472.18,232.59L473.46,233.17L474.74,235.3L476.02,234.8L478.58,235.33L479.86,235.33L482.42,235.72L483.7,246.69L484.98,246.55L486.26,247.4L487.54,225.54L488.82,225.58L490.09,234L491.37,235.62L495.21,236.04L496.49,237.6L504.17,238.41L505.45,241.17L520.81,241.58L522.09,237.9L525.92,237.73L527.2,304L528.48,300.37L529.76,299.88L531.04,298.59L532.32,299.02L534.88,298.65L536.16,299.7L540,299.72" style="fill: rgb(99, 110, 250); fill-opacity: 0.5; stroke-width: 0;"/></g></g><g class="errorbars"/><g class="lines"><path class="js-line" d="M0,237.8L1.28,237.8L2.56,192.14L3.84,132.34L5.12,141.41L6.4,144.07L7.68,132.2L8.96,135.04L10.24,125.5L11.52,122.14L12.8,144.95L16.64,142.58L17.91,145.13L20.47,168.11L21.75,167.72L23.03,161.31L24.31,160.41L25.59,132.26L26.87,132.69L28.15,130.94L29.43,136.55L31.99,148.56L33.27,145.68L34.55,144.11L35.83,144.88L37.11,144.78L38.39,143.51L39.67,143.25L40.95,139.53L42.23,131.42L43.51,117.27L44.79,125.4L46.07,128.17L47.35,150.28L48.63,137.45L51.18,121.29L52.46,140.5L53.74,141.53L55.02,159.92L56.3,146.83L57.58,146.45L58.86,147.16L60.14,155.61L61.42,154.78L62.7,154.97L65.26,154.88L66.54,150.03L67.82,143.28L69.1,142.76L70.38,142.76L71.66,143.55L72.94,141.09L74.22,141.3L75.5,141.36L76.78,139.73L78.06,140.1L79.34,139.44L80.62,136.38L81.9,136.1L83.18,139.59L84.45,138.33L85.73,140.63L87.01,140.43L88.29,139.62L89.57,137.13L90.85,133.97L92.13,135.4L95.97,135.15L97.25,133.36L98.53,134.69L99.81,137.35L102.37,126.37L103.65,125.34L104.93,123.14L106.21,116.02L107.49,145.42L108.77,140.38L110.05,143.88L111.33,165.89L112.61,170.47L113.89,167.51L116.45,161.28L117.73,159.63L119,147.28L120.28,149.59L122.84,147.13L124.12,127.56L125.4,136.94L126.68,132.16L127.96,117.81L129.24,126.07L130.52,125.63L131.8,120.68L133.08,120.93L134.36,101.81L135.64,120.74L136.92,122.45L138.2,121.77L139.48,114.24L140.76,113.15L142.04,113.86L143.32,90.23L144.6,92.86L147.16,100.87L148.44,93.01L149.72,98.65L151,98.28L152.27,101.62L153.55,93.28L154.83,85.88L156.11,62.31L157.39,55.3L158.67,60.95L159.95,60.63L161.23,47.67L162.51,47.09L163.79,62.58L165.07,50.57L166.35,54.42L167.63,57.66L168.91,45.7L171.47,61.18L172.75,53.67L174.03,38.23L175.31,58.53L176.59,24.66L177.87,53.25L180.43,130.68L181.71,194.05L182.99,176.1L184.27,169.18L185.55,170.63L186.82,169.97L189.38,141.27L190.66,37.95L193.22,57.29L194.5,37.1L195.78,16L197.06,47.58L198.34,46.98L199.62,63.08L202.18,61L203.46,49.49L204.74,48.89L206.02,45.41L209.86,61.52L211.14,85.52L212.42,141.85L213.7,134.72L216.26,133.79L217.54,142.2L218.82,158.02L220.09,156.75L221.37,158.87L222.65,158.51L223.93,161.15L225.21,126.12L226.49,201.11L227.77,185.76L230.33,160.68L231.61,156.17L232.89,157.99L234.17,157.74L236.73,158.37L238.01,158.49L239.29,165.11L240.57,203.51L243.13,196.66L244.41,197.84L245.69,130.1L246.97,123.28L248.25,123.32L249.53,124.85L250.81,128.16L252.09,99.32L253.36,102.48L254.64,76.43L255.92,132.18L257.2,122.87L258.48,109.32L259.76,111.19L261.04,114.38L262.32,105.47L263.6,85.54L264.88,93.45L266.16,123.3L267.44,123.64L268.72,119.22L270,138.37L271.28,104.27L272.56,104.51L275.12,96.33L276.4,78.31L277.68,81.77L278.96,164.13L280.24,205.77L281.52,200.11L282.8,201.1L284.08,177.01L285.36,174.54L286.64,180.16L287.91,180.23L289.19,177.76L290.47,156.73L291.75,158.05L294.31,167.01L295.59,167.14L296.87,162.42L298.15,163.84L299.43,158.39L300.71,162.97L301.99,162.88L303.27,163.66L305.83,165.06L307.11,160.51L308.39,164.73L309.67,165.8L310.95,166.44L312.23,166.06L314.79,168.85L316.07,165.35L317.35,175.88L318.63,176.05L319.91,176.5L321.18,176.14L322.46,175.23L323.74,169L325.02,170.02L326.3,183.54L328.86,183.8L330.14,185.71L331.42,185.14L332.7,179.91L333.98,174.84L335.26,176.35L336.54,163.62L337.82,169.62L339.1,176.3L340.38,169.02L341.66,184.55L342.94,182.74L344.22,194.84L345.5,183.9L346.78,186.89L348.06,181.49L349.34,168.11L350.62,168.25L351.9,168.39L353.18,171.54L354.45,175.18L355.73,181.23L357.01,182.51L358.29,186.15L359.57,189.29L360.85,189.83L362.13,184.38L363.41,184.03L365.97,191.58L367.25,168.54L369.81,171.23L371.09,178.32L373.65,179.1L374.93,179.11L376.21,178.19L377.49,178.45L378.77,179.79L380.05,179.6L382.61,184.66L383.89,185.29L386.45,185.11L387.73,193.65L389,194.27L390.28,174.45L392.84,174.75L394.12,173.25L395.4,177.37L396.68,172.44L397.96,174.24L399.24,179.98L401.8,179.62L403.08,180.05L404.36,182.31L405.64,218.64L408.2,218.72L409.48,216.48L410.76,216.47L412.04,217.32L413.32,217.79L414.6,216.69L415.88,217.08L417.16,215.39L418.44,218.14L419.72,218.18L422.27,218.32L423.55,215.78L424.83,220.93L426.11,221.08L427.39,221.2L428.67,222.25L429.95,222.51L431.23,208.39L432.51,209.69L433.79,219.37L436.35,227.54L437.63,228.16L438.91,231.25L440.19,241.85L441.47,242.06L442.75,236.25L446.59,236.93L447.87,238.4L449.15,240.41L450.43,234.98L451.71,232.45L452.99,232.81L458.1,233.99L459.38,223.05L460.66,223.41L461.94,225.87L463.22,224.35L464.5,228.64L465.78,231.2L467.06,230.35L468.34,232.24L469.62,232.27L472.18,232.59L473.46,233.17L474.74,235.3L476.02,234.8L478.58,235.33L479.86,235.33L482.42,235.72L483.7,246.69L484.98,246.55L486.26,247.4L487.54,225.54L488.82,225.58L490.09,234L491.37,235.62L495.21,236.04L496.49,237.6L504.17,238.41L505.45,241.17L520.81,241.58L522.09,237.9L525.92,237.73L527.2,304L528.48,300.37L529.76,299.88L531.04,298.59L532.32,299.02L534.88,298.65L536.16,299.7L540,299.72" style="vector-effect: none; fill: none; stroke: rgb(99, 110, 250); stroke-opacity: 1; stroke-width: 2px; opacity: 1;"/></g><g class="points"/><g class="text"/></g></g></g><g class="overplot"/><path class="xlines-above crisp" d="M0,0" style="fill: none;"/><path class="ylines-above crisp" d="M0,0" style="fill: none;"/><g class="overlines-above"/><g class="xaxislayer-above"><g class="xtick"><text text-anchor="middle" x="0" y="433" transform="translate(88.96000000000001,0)" style="font-family: 'Open Sans', verdana, arial, sans-serif; font-size: 12px; fill: rgb(42, 63, 95); fill-opacity: 1; white-space: pre; opacity: 1;">Nov 2022</text></g><g class="xtick"><text text-anchor="middle" x="0" y="433" style="font-family: 'Open Sans', verdana, arial, sans-serif; font-size: 12px; fill: rgb(42, 63, 95); fill-opacity: 1; white-space: pre; opacity: 1;" transform="translate(167.01,0)">Jan 2023</text></g><g class="xtick"><text text-anchor="middle" x="0" y="433" style="font-family: 'Open Sans', verdana, arial, sans-serif; font-size: 12px; fill: rgb(42, 63, 95); fill-opacity: 1; white-space: pre; opacity: 1;" transform="translate(242.51,0)">Mar 2023</text></g><g class="xtick"><text text-anchor="middle" x="0" y="433" style="font-family: 'Open Sans', verdana, arial, sans-serif; font-size: 12px; fill: rgb(42, 63, 95); fill-opacity: 1; white-space: pre; opacity: 1;" transform="translate(320.57,0)">May 2023</text></g><g class="xtick"><text text-anchor="middle" x="0" y="433" style="font-family: 'Open Sans', verdana, arial, sans-serif; font-size: 12px; fill: rgb(42, 63, 95); fill-opacity: 1; white-space: pre; opacity: 1;" transform="translate(398.63,0)">Jul 2023</text></g><g class="xtick"><text text-anchor="middle" x="0" y="433" style="font-family: 'Open Sans', verdana, arial, sans-serif; font-size: 12px; fill: rgb(42, 63, 95); fill-opacity: 1; white-space: pre; opacity: 1;" transform="translate(477.96,0)">Sep 2023</text></g><g class="xtick"><text text-anchor="middle" x="0" y="433" style="font-family: 'Open Sans', verdana, arial, sans-serif; font-size: 12px; fill: rgb(42, 63, 95); fill-opacity: 1; white-space: pre; opacity: 1;" transform="translate(556.02,0)">Nov 2023</text></g></g><g class="yaxislayer-above"><g class="ytick"><text text-anchor="end" x="79" y="4.199999999999999" transform="translate(0,403.66)" style="font-family: 'Open Sans', verdana, arial, sans-serif; font-size: 12px; fill: rgb(42, 63, 95); fill-opacity: 1; white-space: pre; opacity: 1;">$−0.5M</text></g><g class="ytick"><text text-anchor="end" x="79" y="4.199999999999999" style="font-family: 'Open Sans', verdana, arial, sans-serif; font-size: 12px; fill: rgb(42, 63, 95); fill-opacity: 1; white-space: pre; opacity: 1;" transform="translate(0,337.8)">$0</text></g><g class="ytick"><text text-anchor="end" x="79" y="4.199999999999999" style="font-family: 'Open Sans', verdana, arial, sans-serif; font-size: 12px; fill: rgb(42, 63, 95); fill-opacity: 1; white-space: pre; opacity: 1;" transform="translate(0,271.93)">$0.5M</text></g><g class="ytick"><text text-anchor="end" x="79" y="4.199999999999999" style="font-family: 'Open Sans', verdana, arial, sans-serif; font-size: 12px; fill: rgb(42, 63, 95); fill-opacity: 1; white-space: pre; opacity: 1;" transform="translate(0,206.07)">$1M</text></g><g class="ytick"><text text-anchor="end" x="79" y="4.199999999999999" style="font-family: 'Open Sans', verdana, arial, sans-serif; font-size: 12px; fill: rgb(42, 63, 95); fill-opacity: 1; white-space: pre; opacity: 1;" transform="translate(0,140.21)">$1.5M</text></g></g><g class="overaxes-above"/></g></g><g class="polarlayer"/><g class="smithlayer"/><g class="ternarylayer"/><g class="geolayer"/><g class="funnelarealayer"/><g class="pielayer"/><g class="iciclelayer"/><g class="treemaplayer"/><g class="sunburstlayer"/><g class="glimages"/><defs id="topdefs-79b573"><g class="clips"/></defs><g class="layer-above"><g class="imagelayer"/><g class="shapelayer"/></g><g class="infolayer"><g class="g-gtitle"><text class="gtitle" x="35" y="50" text-anchor="start" dy="0em" style="font-family: 'Open Sans', verdana, arial, sans-serif; font-size: 17px; fill: rgb(42, 63, 95); opacity: 1; font-weight: normal; white-space: pre;"><tspan class="line" dy="0em" x="35" y="50">Synthetix - SNX Bridge: Hop</tspan><tspan class="line" dy="1.3em" x="35" y="50">​<tspan style="font-size:70%" dy="-0.6em">Cumulative Net Flows since Program Announcement, Until Program End + 30 Days</tspan><tspan dy="0.42em">​</tspan></tspan></text></g><g class="g-xtitle"><text class="xtitle" x="350" y="460.3" text-anchor="middle" style="font-family: 'Open Sans', verdana, arial, sans-serif; font-size: 14px; fill: rgb(42, 63, 95); opacity: 1; font-weight: normal; white-space: pre;">Day</text></g><g class="g-ytitle"><text class="ytitle" transform="rotate(-90,14.340625000000003,260)" x="14.340625000000003" y="260" text-anchor="middle" style="font-family: 'Open Sans', verdana, arial, sans-serif; font-size: 14px; fill: rgb(42, 63, 95); opacity: 1; font-weight: normal; white-space: pre;">Cumulative Net Flows (USD)</text></g></g></svg>