<svg class="main-svg" xmlns="http://www.w3.org/2000/svg" xmlns:xlink="http://www.w3.org/1999/xlink" width="700" height="500" style="" viewBox="0 0 700 500"><rect x="0" y="0" width="700" height="500" style="fill: rgb(255, 255, 255); fill-opacity: 1;"/><defs id="defs-63bdef"><g class="clips"><clipPath id="clip63bdefxyplot" class="plotclip"><rect width="540" height="320"/></clipPath><clipPath class="axesclip" id="clip63bdefx"><rect x="80" y="0" width="540" height="500"/></clipPath><clipPath class="axesclip" id="clip63bdefy"><rect x="0" y="100" width="700" height="320"/></clipPath><clipPath class="axesclip" id="clip63bdefxy"><rect x="80" y="100" width="540" height="320"/></clipPath></g><g class="gradients"/><g class="patterns"/></defs><g class="bglayer"><rect class="bg" x="80" y="100" width="540" height="320" style="fill: rgb(229, 236, 246); fill-opacity: 1; stroke-width: 0;"/></g><g class="layer-below"><g class="imagelayer"/><g class="shapelayer"/></g><g class="cartesianlayer"><g class="subplot xy"><g class="layer-subplot"><g class="shapelayer"/><g class="imagelayer"/></g><g class="minor-gridlayer"><g class="x"/><g class="y"/></g><g class="gridlayer"><g class="x"><path class="xgrid crisp" transform="translate(94.26,0)" d="M0,100v320" style="stroke: rgb(255, 255, 255); stroke-opacity: 1; stroke-width: 1px;"/><path class="xgrid crisp" transform="translate(218.57,0)" d="M0,100v320" style="stroke: rgb(255, 255, 255); stroke-opacity: 1; stroke-width: 1px;"/><path class="xgrid crisp" transform="translate(342.87,0)" d="M0,100v320" style="stroke: rgb(255, 255, 255); stroke-opacity: 1; stroke-width: 1px;"/><path class="xgrid crisp" transform="translate(463.09,0)" d="M0,100v320" style="stroke: rgb(255, 255, 255); stroke-opacity: 1; stroke-width: 1px;"/><path class="xgrid crisp" transform="translate(587.4,0)" d="M0,100v320" style="stroke: rgb(255, 255, 255); stroke-opacity: 1; stroke-width: 1px;"/></g><g class="y"><path class="ygrid crisp" transform="translate(0,378.44)" d="M80,0h540" style="stroke: rgb(255, 255, 255); stroke-opacity: 1; stroke-width: 1px;"/><path class="ygrid crisp" transform="translate(0,336.88)" d="M80,0h540" style="stroke: rgb(255, 255, 255); stroke-opacity: 1; stroke-width: 1px;"/><path class="ygrid crisp" transform="translate(0,295.32)" d="M80,0h540" style="stroke: rgb(255, 255, 255); stroke-opacity: 1; stroke-width: 1px;"/><path class="ygrid crisp" transform="translate(0,253.76)" d="M80,0h540" style="stroke: rgb(255, 255, 255); stroke-opacity: 1; stroke-width: 1px;"/><path class="ygrid crisp" transform="translate(0,212.2)" d="M80,0h540" style="stroke: rgb(255, 255, 255); stroke-opacity: 1; stroke-width: 1px;"/><path class="ygrid crisp" transform="translate(0,170.65)" d="M80,0h540" style="stroke: rgb(255, 255, 255); stroke-opacity: 1; stroke-width: 1px;"/><path class="ygrid crisp" transform="translate(0,129.09)" d="M80,0h540" style="stroke: rgb(255, 255, 255); stroke-opacity: 1; stroke-width: 1px;"/></g></g><g class="zerolinelayer"><path class="yzl zl crisp" transform="translate(0,420)" d="M80,0h540" style="stroke: rgb(255, 255, 255); stroke-opacity: 1; stroke-width: 2px;"/></g><path class="xlines-below"/><path class="ylines-below"/><g class="overlines-below"/><g class="xaxislayer-below"/><g class="yaxislayer-below"/><g class="overaxes-below"/><g class="plot" transform="translate(80,100)" clip-path="url(#clip63bdefxyplot)"><g class="scatterlayer mlayer"><g class="trace scatter trace502e87" style="stroke-miterlimit: 2;"><g class="fills"><g><path class="js-fill" d="M540,320L0,320L0,231.21L2.04,213.26L4.08,209.02L6.11,206.33L8.15,204.94L10.19,201.66L12.23,189.63L14.26,187.07L16.3,189.88L20.38,182.38L22.42,181.48L24.45,181.84L26.49,178.84L30.57,162.54L32.6,157.08L36.68,151.9L38.72,152.72L40.75,154.95L42.79,158.84L44.83,155.24L46.87,148.31L50.94,152.75L52.98,155.77L57.06,157.73L59.09,161.56L61.13,162.61L63.17,162.77L65.21,162.46L67.25,164.28L69.28,151.85L71.32,154.55L73.36,166.28L75.4,166.22L79.47,167.15L81.51,168.18L85.58,174.6L87.62,171.71L89.66,175.97L91.7,177.39L95.77,180.6L97.81,179.75L101.89,180.7L103.92,172.4L108,172.22L110.04,173.41L112.08,174.21L114.11,173.86L120.23,173.43L122.26,173.15L124.3,171.37L126.34,171.16L128.38,171.06L130.42,178.16L132.45,177.14L134.49,171.8L136.53,172.21L138.57,167.85L142.64,162.98L144.68,145.72L146.72,144.27L148.75,144.67L152.83,143.85L154.87,161.89L156.91,168.08L158.94,170.68L160.98,167.16L163.02,171.31L165.06,167.17L167.09,166.94L169.13,166.57L171.17,170.39L173.21,173.89L175.25,173.05L177.28,173.13L179.32,175.59L181.36,177.79L183.4,177.14L185.43,172.78L187.47,173.24L193.58,173.01L195.62,173.35L197.66,172.22L199.7,174.58L201.74,173.57L203.77,170.99L205.81,169.53L207.85,169.23L209.89,166.92L211.92,161.17L213.96,156.11L216,157.06L218.04,155.96L220.08,156.45L222.11,155.75L224.15,149.93L226.19,150.11L228.23,139.63L230.26,149.22L232.3,151.44L236.38,151.97L238.42,153.38L240.45,158.29L242.49,157.48L244.53,158L246.57,157.49L250.64,157.65L252.68,157.37L254.72,161.1L256.75,161.24L258.79,159.77L260.83,153.86L262.87,159.82L264.91,161.63L266.94,161.54L268.98,163.5L271.02,163.5L273.06,161.38L275.09,157.93L277.13,158.03L279.17,153.9L281.21,147.71L283.25,138.25L285.28,136.81L287.32,139.42L289.36,136.77L291.4,130.3L293.43,130.3L297.51,128.52L299.55,129.07L301.58,126.26L303.62,120.53L305.66,117.61L307.7,116.48L309.74,114.64L311.77,104.86L313.81,82.18L315.85,70.66L317.89,71.43L319.92,55.62L321.96,54.82L324,44.08L326.04,42.95L328.08,37.58L330.11,16L332.15,18.99L334.19,22.97L336.23,22.62L338.26,23.46L340.3,26.95L342.34,50.25L344.38,48.96L346.42,48.77L348.45,37.74L350.49,38.82L352.53,37.57L354.57,38.16L356.6,35.81L358.64,36.66L360.68,41.71L362.72,41.47L364.75,42.45L366.79,54.18L368.83,54.82L370.87,55.23L372.91,54.81L374.94,53.62L376.98,51.4L381.06,51.34L383.09,44.61L385.13,44.34L387.17,45.97L389.21,32.96L391.25,32.37L393.28,30.84L395.32,31.25L397.36,30.58L399.4,32.29L401.43,35.37L403.47,40.71L405.51,131L407.55,130.53L409.58,116L411.62,94.07L413.66,91.65L415.7,81.4L417.74,85.55L419.77,94.64L421.81,95.44L423.85,95.35L425.89,93.08L427.92,78.38L429.96,59.81L432,60.21L438.11,115.49L440.15,163.49L442.19,179.1L444.23,183.42L446.26,191.51L448.3,194.78L450.34,200.31L452.38,202.77L454.42,206.54L456.45,207.6L458.49,209.15L460.53,212.87L468.68,217.59L470.72,217.7L472.75,240.75L474.79,242.08L476.83,243.64L478.87,244.2L480.91,244.68L482.94,245.94L487.02,246.38L489.06,245.42L493.13,246.11L495.17,248.29L497.21,250.03L499.25,253.35L515.55,255.18L517.58,255.9L519.62,275.74L521.66,276.44L527.77,277.4L529.81,278.65L531.85,258.97L533.89,258.96L540,259.5" style="fill: rgb(99, 110, 250); fill-opacity: 0.5; stroke-width: 0;"/></g></g><g class="errorbars"/><g class="lines"><path class="js-line" d="M0,231.21L2.04,213.26L4.08,209.02L6.11,206.33L8.15,204.94L10.19,201.66L12.23,189.63L14.26,187.07L16.3,189.88L20.38,182.38L22.42,181.48L24.45,181.84L26.49,178.84L30.57,162.54L32.6,157.08L36.68,151.9L38.72,152.72L40.75,154.95L42.79,158.84L44.83,155.24L46.87,148.31L50.94,152.75L52.98,155.77L57.06,157.73L59.09,161.56L61.13,162.61L63.17,162.77L65.21,162.46L67.25,164.28L69.28,151.85L71.32,154.55L73.36,166.28L75.4,166.22L79.47,167.15L81.51,168.18L85.58,174.6L87.62,171.71L89.66,175.97L91.7,177.39L95.77,180.6L97.81,179.75L101.89,180.7L103.92,172.4L108,172.22L110.04,173.41L112.08,174.21L114.11,173.86L120.23,173.43L122.26,173.15L124.3,171.37L126.34,171.16L128.38,171.06L130.42,178.16L132.45,177.14L134.49,171.8L136.53,172.21L138.57,167.85L142.64,162.98L144.68,145.72L146.72,144.27L148.75,144.67L152.83,143.85L154.87,161.89L156.91,168.08L158.94,170.68L160.98,167.16L163.02,171.31L165.06,167.17L167.09,166.94L169.13,166.57L171.17,170.39L173.21,173.89L175.25,173.05L177.28,173.13L179.32,175.59L181.36,177.79L183.4,177.14L185.43,172.78L187.47,173.24L193.58,173.01L195.62,173.35L197.66,172.22L199.7,174.58L201.74,173.57L203.77,170.99L205.81,169.53L207.85,169.23L209.89,166.92L211.92,161.17L213.96,156.11L216,157.06L218.04,155.96L220.08,156.45L222.11,155.75L224.15,149.93L226.19,150.11L228.23,139.63L230.26,149.22L232.3,151.44L236.38,151.97L238.42,153.38L240.45,158.29L242.49,157.48L244.53,158L246.57,157.49L250.64,157.65L252.68,157.37L254.72,161.1L256.75,161.24L258.79,159.77L260.83,153.86L262.87,159.82L264.91,161.63L266.94,161.54L268.98,163.5L271.02,163.5L273.06,161.38L275.09,157.93L277.13,158.03L279.17,153.9L281.21,147.71L283.25,138.25L285.28,136.81L287.32,139.42L289.36,136.77L291.4,130.3L293.43,130.3L297.51,128.52L299.55,129.07L301.58,126.26L303.62,120.53L305.66,117.61L307.7,116.48L309.74,114.64L311.77,104.86L313.81,82.18L315.85,70.66L317.89,71.43L319.92,55.62L321.96,54.82L324,44.08L326.04,42.95L328.08,37.58L330.11,16L332.15,18.99L334.19,22.97L336.23,22.62L338.26,23.46L340.3,26.95L342.34,50.25L344.38,48.96L346.42,48.77L348.45,37.74L350.49,38.82L352.53,37.57L354.57,38.16L356.6,35.81L358.64,36.66L360.68,41.71L362.72,41.47L364.75,42.45L366.79,54.18L368.83,54.82L370.87,55.23L372.91,54.81L374.94,53.62L376.98,51.4L381.06,51.34L383.09,44.61L385.13,44.34L387.17,45.97L389.21,32.96L391.25,32.37L393.28,30.84L395.32,31.25L397.36,30.58L399.4,32.29L401.43,35.37L403.47,40.71L405.51,131L407.55,130.53L409.58,116L411.62,94.07L413.66,91.65L415.7,81.4L417.74,85.55L419.77,94.64L421.81,95.44L423.85,95.35L425.89,93.08L427.92,78.38L429.96,59.81L432,60.21L438.11,115.49L440.15,163.49L442.19,179.1L444.23,183.42L446.26,191.51L448.3,194.78L450.34,200.31L452.38,202.77L454.42,206.54L456.45,207.6L458.49,209.15L460.53,212.87L468.68,217.59L470.72,217.7L472.75,240.75L474.79,242.08L476.83,243.64L478.87,244.2L480.91,244.68L482.94,245.94L487.02,246.38L489.06,245.42L493.13,246.11L495.17,248.29L497.21,250.03L499.25,253.35L515.55,255.18L517.58,255.9L519.62,275.74L521.66,276.44L527.77,277.4L529.81,278.65L531.85,258.97L533.89,258.96L540,259.5" style="vector-effect: non-scaling-stroke; fill: none; stroke: rgb(99, 110, 250); stroke-opacity: 1; stroke-width: 2px; opacity: 1;"/></g><g class="points"/><g class="text"/></g></g></g><g class="overplot"/><path class="xlines-above crisp" d="M0,0" style="fill: none;"/><path class="ylines-above crisp" d="M0,0" style="fill: none;"/><g class="overlines-above"/><g class="xaxislayer-above"><g class="xtick"><text text-anchor="middle" x="0" y="433" transform="translate(94.26,0)" style="font-family: 'Open Sans', verdana, arial, sans-serif; font-size: 12px; fill: rgb(42, 63, 95); fill-opacity: 1; white-space: pre; opacity: 1;">Sep 2022</text></g><g class="xtick"><text text-anchor="middle" x="0" y="433" style="font-family: 'Open Sans', verdana, arial, sans-serif; font-size: 12px; fill: rgb(42, 63, 95); fill-opacity: 1; white-space: pre; opacity: 1;" transform="translate(218.57,0)">Nov 2022</text></g><g class="xtick"><text text-anchor="middle" x="0" y="433" style="font-family: 'Open Sans', verdana, arial, sans-serif; font-size: 12px; fill: rgb(42, 63, 95); fill-opacity: 1; white-space: pre; opacity: 1;" transform="translate(342.87,0)">Jan 2023</text></g><g class="xtick"><text text-anchor="middle" x="0" y="433" style="font-family: 'Open Sans', verdana, arial, sans-serif; font-size: 12px; fill: rgb(42, 63, 95); fill-opacity: 1; white-space: pre; opacity: 1;" transform="translate(463.09,0)">Mar 2023</text></g><g class="xtick"><text text-anchor="middle" x="0" y="433" style="font-family: 'Open Sans', verdana, arial, sans-serif; font-size: 12px; fill: rgb(42, 63, 95); fill-opacity: 1; white-space: pre; opacity: 1;" transform="translate(587.4,0)">May 2023</text></g></g><g class="yaxislayer-above"><g class="ytick"><text text-anchor="end" x="79" y="4.199999999999999" transform="translate(0,420)" style="font-family: 'Open Sans', verdana, arial, sans-serif; font-size: 12px; fill: rgb(42, 63, 95); fill-opacity: 1; white-space: pre; opacity: 1;">$0</text></g><g class="ytick"><text text-anchor="end" x="79" y="4.199999999999999" style="font-family: 'Open Sans', verdana, arial, sans-serif; font-size: 12px; fill: rgb(42, 63, 95); fill-opacity: 1; white-space: pre; opacity: 1;" transform="translate(0,378.44)">$10M</text></g><g class="ytick"><text text-anchor="end" x="79" y="4.199999999999999" style="font-family: 'Open Sans', verdana, arial, sans-serif; font-size: 12px; fill: rgb(42, 63, 95); fill-opacity: 1; white-space: pre; opacity: 1;" transform="translate(0,336.88)">$20M</text></g><g class="ytick"><text text-anchor="end" x="79" y="4.199999999999999" style="font-family: 'Open Sans', verdana, arial, sans-serif; font-size: 12px; fill: rgb(42, 63, 95); fill-opacity: 1; white-space: pre; opacity: 1;" transform="translate(0,295.32)">$30M</text></g><g class="ytick"><text text-anchor="end" x="79" y="4.199999999999999" style="font-family: 'Open Sans', verdana, arial, sans-serif; font-size: 12px; fill: rgb(42, 63, 95); fill-opacity: 1; white-space: pre; opacity: 1;" transform="translate(0,253.76)">$40M</text></g><g class="ytick"><text text-anchor="end" x="79" y="4.199999999999999" style="font-family: 'Open Sans', verdana, arial, sans-serif; font-size: 12px; fill: rgb(42, 63, 95); fill-opacity: 1; white-space: pre; opacity: 1;" transform="translate(0,212.2)">$50M</text></g><g class="ytick"><text text-anchor="end" x="79" y="4.199999999999999" style="font-family: 'Open Sans', verdana, arial, sans-serif; font-size: 12px; fill: rgb(42, 63, 95); fill-opacity: 1; white-space: pre; opacity: 1;" transform="translate(0,170.65)">$60M</text></g><g class="ytick"><text text-anchor="end" x="79" y="4.199999999999999" style="font-family: 'Open Sans', verdana, arial, sans-serif; font-size: 12px; fill: rgb(42, 63, 95); fill-opacity: 1; white-space: pre; opacity: 1;" transform="translate(0,129.09)">$70M</text></g></g><g class="overaxes-above"/></g></g><g class="polarlayer"/><g class="smithlayer"/><g class="ternarylayer"/><g class="geolayer"/><g class="funnelarealayer"/><g class="pielayer"/><g class="iciclelayer"/><g class="treemaplayer"/><g class="sunburstlayer"/><g class="glimages"/><defs id="topdefs-63bdef"><g class="clips"/></defs><g class="layer-above"><g class="imagelayer"/><g class="shapelayer"/></g><g class="infolayer"><g class="g-gtitle"><text class="gtitle" x="35" y="50" text-anchor="start" dy="0em" style="font-family: 'Open Sans', verdana, arial, sans-serif; font-size: 17px; fill: rgb(42, 63, 95); opacity: 1; font-weight: normal; white-space: pre;"><tspan class="line" dy="0em" x="35" y="50">Synthetix - All Synthetix Curve Pools</tspan><tspan class="line" dy="1.3em" x="35" y="50">​<tspan style="font-size:70%" dy="-0.6em">Cumulative Net Flows since Program Announcement, Until Program End + 30 Days</tspan><tspan dy="0.42em">​</tspan></tspan></text></g><g class="g-xtitle"><text class="xtitle" x="350" y="460.3" text-anchor="middle" style="font-family: 'Open Sans', verdana, arial, sans-serif; font-size: 14px; fill: rgb(42, 63, 95); opacity: 1; font-weight: normal; white-space: pre;">Day</text></g><g class="g-ytitle"><text class="ytitle" transform="rotate(-90,21.200000000000003,260)" x="21.200000000000003" y="260" text-anchor="middle" style="font-family: 'Open Sans', verdana, arial, sans-serif; font-size: 14px; fill: rgb(42, 63, 95); opacity: 1; font-weight: normal; white-space: pre;">Cumulative Net Flows (USD)</text></g></g></svg>