<svg class="main-svg" xmlns="http://www.w3.org/2000/svg" xmlns:xlink="http://www.w3.org/1999/xlink" width="700" height="500" style="" viewBox="0 0 700 500"><rect x="0" y="0" width="700" height="500" style="fill: rgb(255, 255, 255); fill-opacity: 1;"/><defs id="defs-10c67e"><g class="clips"><clipPath id="clip10c67exyplot" class="plotclip"><rect width="540" height="320"/></clipPath><clipPath class="axesclip" id="clip10c67ex"><rect x="80" y="0" width="540" height="500"/></clipPath><clipPath class="axesclip" id="clip10c67ey"><rect x="0" y="100" width="700" height="320"/></clipPath><clipPath class="axesclip" id="clip10c67exy"><rect x="80" y="100" width="540" height="320"/></clipPath></g><g class="gradients"/><g class="patterns"/></defs><g class="bglayer"><rect class="bg" x="80" y="100" width="540" height="320" style="fill: rgb(229, 236, 246); fill-opacity: 1; stroke-width: 0;"/></g><g class="layer-below"><g class="imagelayer"/><g class="shapelayer"/></g><g class="cartesianlayer"><g class="subplot xy"><g class="layer-subplot"><g class="shapelayer"/><g class="imagelayer"/></g><g class="minor-gridlayer"><g class="x"/><g class="y"/></g><g class="gridlayer"><g class="x"><path class="xgrid crisp" transform="translate(135.47,0)" d="M0,100v320" style="stroke: rgb(255, 255, 255); stroke-opacity: 1; stroke-width: 1px;"/><path class="xgrid crisp" transform="translate(239.62,0)" d="M0,100v320" style="stroke: rgb(255, 255, 255); stroke-opacity: 1; stroke-width: 1px;"/><path class="xgrid crisp" transform="translate(341.51,0)" d="M0,100v320" style="stroke: rgb(255, 255, 255); stroke-opacity: 1; stroke-width: 1px;"/><path class="xgrid crisp" transform="translate(444.53,0)" d="M0,100v320" style="stroke: rgb(255, 255, 255); stroke-opacity: 1; stroke-width: 1px;"/><path class="xgrid crisp" transform="translate(548.6800000000001,0)" d="M0,100v320" style="stroke: rgb(255, 255, 255); stroke-opacity: 1; stroke-width: 1px;"/></g><g class="y"><path class="ygrid crisp" transform="translate(0,398.82)" d="M80,0h540" style="stroke: rgb(255, 255, 255); stroke-opacity: 1; stroke-width: 1px;"/><path class="ygrid crisp" transform="translate(0,360.9)" d="M80,0h540" style="stroke: rgb(255, 255, 255); stroke-opacity: 1; stroke-width: 1px;"/><path class="ygrid crisp" transform="translate(0,322.98)" d="M80,0h540" style="stroke: rgb(255, 255, 255); stroke-opacity: 1; stroke-width: 1px;"/><path class="ygrid crisp" transform="translate(0,285.06)" d="M80,0h540" style="stroke: rgb(255, 255, 255); stroke-opacity: 1; stroke-width: 1px;"/><path class="ygrid crisp" transform="translate(0,209.23000000000002)" d="M80,0h540" style="stroke: rgb(255, 255, 255); stroke-opacity: 1; stroke-width: 1px;"/><path class="ygrid crisp" transform="translate(0,171.31)" d="M80,0h540" style="stroke: rgb(255, 255, 255); stroke-opacity: 1; stroke-width: 1px;"/><path class="ygrid crisp" transform="translate(0,133.39)" d="M80,0h540" style="stroke: rgb(255, 255, 255); stroke-opacity: 1; stroke-width: 1px;"/></g></g><g class="zerolinelayer"><path class="yzl zl crisp" transform="translate(0,247.15)" d="M80,0h540" style="stroke: rgb(255, 255, 255); stroke-opacity: 1; stroke-width: 2px;"/></g><path class="xlines-below"/><path class="ylines-below"/><g class="overlines-below"/><g class="xaxislayer-below"/><g class="yaxislayer-below"/><g class="overaxes-below"/><g class="plot" transform="translate(80,100)" clip-path="url(#clip10c67exyplot)"><g class="scatterlayer mlayer"><g class="trace scatter trace8a6da9" style="stroke-miterlimit: 2;"><g class="fills"><g><path class="js-fill" d="M540,147.15L0,147.15L0,172.88L1.13,185.93L2.26,184.87L3.4,186.54L4.53,192.49L5.66,192.67L6.79,109.56L7.92,206.5L9.06,198.1L10.19,204.17L11.32,203.35L13.58,208.54L14.72,198.72L15.85,199.75L16.98,202.35L18.11,202.54L19.25,187.88L20.38,182.58L21.51,180.89L22.64,193.1L23.77,191.22L24.91,187.16L26.04,185.92L27.17,190.88L28.3,187.1L30.57,176.57L31.7,162.84L33.96,157.29L35.09,179L36.23,167.59L37.36,166.35L38.49,179.07L39.62,181.83L40.75,182.56L41.89,181.12L45.28,185.58L46.42,199.07L48.68,200.12L49.81,197.37L50.94,204.31L52.08,204.39L53.21,208.84L54.34,209.88L55.47,212.97L56.6,213.51L58.87,226.19L60,222.39L61.13,226.37L62.26,225.46L63.4,220.72L64.53,230.49L65.66,227.92L66.79,230.63L67.92,226.48L69.06,227.01L70.19,238.33L71.32,236.46L72.45,237.39L73.58,239.97L74.72,240.47L75.85,239.25L76.98,234.93L78.11,235.54L80.38,235.56L81.51,236.5L82.64,236.62L83.77,232.4L86.04,226.2L87.17,223.8L89.43,223.97L90.57,221.33L91.7,224.13L92.83,197.7L95.09,217.71L96.23,216.09L97.36,214.64L98.49,203.07L99.62,212.3L100.75,252.05L101.89,222.02L103.02,216.27L104.15,216.03L105.28,220.69L106.42,228.41L107.55,209.08L108.68,173.39L109.81,198.58L112.08,172.37L113.21,179.85L114.34,187.52L115.47,205.26L116.6,215.72L117.74,241.89L118.87,246.26L120,223.28L121.13,229.62L122.26,229.17L123.4,227.89L124.53,219.21L125.66,224.35L126.79,258.66L127.92,244.88L129.06,218.5L130.19,227.37L131.32,220.73L132.45,229.53L133.58,222.65L134.72,232.87L135.85,221.33L136.98,251.03L138.11,235.37L139.25,255.23L140.38,242.64L141.51,234.84L142.64,216.98L143.77,227.04L144.91,220.09L146.04,233.52L147.17,201.08L148.3,164.26L149.43,208.98L150.57,176.85L151.7,179.21L152.83,184.21L153.96,181.61L155.09,209.03L156.23,203.88L157.36,120.15L158.49,152.37L159.62,129.93L160.75,145.75L164.15,142.18L165.28,148.63L166.42,151.04L167.55,149.46L168.68,158.36L169.81,159.21L170.94,157.67L172.08,170.19L173.21,177.23L174.34,156.32L175.47,148.17L176.6,147.62L177.74,160.97L178.87,160.56L180,154.63L181.13,171.3L182.26,182.33L183.4,164.54L184.53,157L185.66,157.01L186.79,163.37L187.92,160.11L189.06,171.55L190.19,150.51L191.32,139.48L192.45,158.73L193.58,161.83L194.72,144.54L195.85,149.26L196.98,185.75L198.11,187.89L199.25,202.64L200.38,185.65L201.51,186.79L202.64,160.14L203.77,113.25L204.91,138.45L206.04,86.7L207.17,108.41L208.3,112.09L209.43,114.52L210.57,103.97L211.7,91.43L212.83,105.55L215.09,49.73L216.23,43.94L217.36,33.81L218.49,57.18L219.62,58.03L220.75,46.96L221.89,24.26L223.02,45.76L224.15,35.85L225.28,35.8L226.42,55.58L227.55,57.96L228.68,54.34L229.81,74.73L230.94,79.68L232.08,74.39L234.34,85.07L235.47,69.75L236.6,43.2L237.74,83.58L238.87,113.35L240,83.56L241.13,89.43L242.26,80.25L243.4,72.49L244.53,75.79L245.66,82.22L246.79,63.62L247.92,58.82L249.06,34.54L250.19,23.05L251.32,29.54L252.45,16L253.58,28.23L254.72,66.15L255.85,42.15L256.98,81.76L258.11,64.89L260.38,43.33L261.51,39.11L262.64,54.96L263.77,39.63L264.91,63.22L266.04,44L267.17,59.32L268.3,61.38L270.57,93.01L271.7,91.07L272.83,95.04L273.96,113.21L275.09,133.26L276.23,138.49L277.36,136.11L278.49,150.86L279.62,138.26L280.75,137.55L281.89,146L283.02,139.04L285.28,148.91L286.42,143.45L288.68,167.57L289.81,159.59L292.08,138.42L293.21,148.32L295.47,117.57L296.6,117.45L297.74,109.03L298.87,112.03L300,82.57L301.13,88.81L302.26,93.07L303.4,106.12L304.53,112.01L305.66,136.2L306.79,143.26L307.92,112.37L309.06,122.28L310.19,124.21L311.32,125.24L312.45,127.72L313.58,128.89L314.72,132.49L315.85,140.64L316.98,139.72L318.11,143.23L319.25,135.54L320.38,129.07L321.51,142.28L322.64,137.91L323.77,129.72L324.91,122.47L326.04,127.54L328.3,137.54L329.43,128.52L330.57,150.05L331.7,147.29L333.96,164.71L335.09,163.1L337.36,167.39L338.49,165.5L340.75,154.52L341.89,159.18L344.15,166.92L345.28,162.29L346.42,158.84L347.55,165.02L348.68,169.39L349.81,165.87L350.94,166.4L352.08,172.06L353.21,157.57L354.34,157.87L355.47,154.58L356.6,158.32L357.74,159.31L358.87,158.1L360,161.34L361.13,161.63L362.26,165.89L363.4,198.74L364.53,194.47L365.66,208.29L366.79,210.89L367.92,205.95L369.06,206.37L370.19,208.5L372.45,217.11L373.58,215.2L374.72,216.58L375.85,214.26L376.98,213.77L378.11,211.64L380.38,231.23L381.51,228.46L382.64,228.69L383.77,230.36L387.17,244.92L388.3,245.92L389.43,247.45L390.57,245.4L391.7,245.43L392.83,246.56L393.96,246.2L395.09,249.16L396.23,248.92L397.36,243.32L398.49,255.48L399.62,247.55L400.75,248.34L401.89,250.84L403.02,255.82L404.15,247.15L405.28,246.48L406.42,246.91L407.55,244.84L408.68,238.25L409.81,239.39L410.94,239.14L413.21,239.68L414.34,239.9L416.6,238.98L417.74,236.99L418.87,236.57L420,239.34L421.13,239.34L422.26,240.4L423.4,239.36L424.53,239.59L426.79,240L427.92,234.18L429.06,234.15L430.19,235.85L431.32,236.53L432.45,235.41L433.58,242.23L434.72,240.88L435.85,241.13L436.98,239.55L439.25,238.79L440.38,238.84L441.51,238.99L442.64,241.02L443.77,242.01L444.91,242L448.3,241.77L449.43,243.36L451.7,243.51L452.83,244.25L455.09,244.46L456.23,244.28L457.36,238.18L458.49,237.4L459.62,237.82L460.75,236.47L464.15,235.51L465.28,238.17L467.55,238.26L468.68,238.37L474.34,237.48L475.47,237L477.74,236.91L478.87,236.99L480,231.12L481.13,232.42L482.26,231.95L483.4,233.61L487.92,234.19L489.06,234.91L490.19,233.3L491.32,234.54L492.45,233.43L493.58,234.41L495.85,234.25L496.98,235.28L498.11,229.42L499.25,229.12L501.51,229.1L502.64,236.35L504.91,230.4L506.04,232.08L507.17,236.5L508.3,236.9L510.57,238.57L511.7,237.48L512.83,237.59L513.96,238.67L515.09,239.81L516.23,239.81L518.49,239.71L519.62,237.21L520.75,304L528.68,223.33L530.94,222.41L532.08,222.94L536.6,224L537.74,225.2L540,225.02" style="fill: rgb(99, 110, 250); fill-opacity: 0.5; stroke-width: 0;"/></g></g><g class="errorbars"/><g class="lines"><path class="js-line" d="M0,172.88L1.13,185.93L2.26,184.87L3.4,186.54L4.53,192.49L5.66,192.67L6.79,109.56L7.92,206.5L9.06,198.1L10.19,204.17L11.32,203.35L13.58,208.54L14.72,198.72L15.85,199.75L16.98,202.35L18.11,202.54L19.25,187.88L20.38,182.58L21.51,180.89L22.64,193.1L23.77,191.22L24.91,187.16L26.04,185.92L27.17,190.88L28.3,187.1L30.57,176.57L31.7,162.84L33.96,157.29L35.09,179L36.23,167.59L37.36,166.35L38.49,179.07L39.62,181.83L40.75,182.56L41.89,181.12L45.28,185.58L46.42,199.07L48.68,200.12L49.81,197.37L50.94,204.31L52.08,204.39L53.21,208.84L54.34,209.88L55.47,212.97L56.6,213.51L58.87,226.19L60,222.39L61.13,226.37L62.26,225.46L63.4,220.72L64.53,230.49L65.66,227.92L66.79,230.63L67.92,226.48L69.06,227.01L70.19,238.33L71.32,236.46L72.45,237.39L73.58,239.97L74.72,240.47L75.85,239.25L76.98,234.93L78.11,235.54L80.38,235.56L81.51,236.5L82.64,236.62L83.77,232.4L86.04,226.2L87.17,223.8L89.43,223.97L90.57,221.33L91.7,224.13L92.83,197.7L95.09,217.71L96.23,216.09L97.36,214.64L98.49,203.07L99.62,212.3L100.75,252.05L101.89,222.02L103.02,216.27L104.15,216.03L105.28,220.69L106.42,228.41L107.55,209.08L108.68,173.39L109.81,198.58L112.08,172.37L113.21,179.85L114.34,187.52L115.47,205.26L116.6,215.72L117.74,241.89L118.87,246.26L120,223.28L121.13,229.62L122.26,229.17L123.4,227.89L124.53,219.21L125.66,224.35L126.79,258.66L127.92,244.88L129.06,218.5L130.19,227.37L131.32,220.73L132.45,229.53L133.58,222.65L134.72,232.87L135.85,221.33L136.98,251.03L138.11,235.37L139.25,255.23L140.38,242.64L141.51,234.84L142.64,216.98L143.77,227.04L144.91,220.09L146.04,233.52L147.17,201.08L148.3,164.26L149.43,208.98L150.57,176.85L151.7,179.21L152.83,184.21L153.96,181.61L155.09,209.03L156.23,203.88L157.36,120.15L158.49,152.37L159.62,129.93L160.75,145.75L164.15,142.18L165.28,148.63L166.42,151.04L167.55,149.46L168.68,158.36L169.81,159.21L170.94,157.67L172.08,170.19L173.21,177.23L174.34,156.32L175.47,148.17L176.6,147.62L177.74,160.97L178.87,160.56L180,154.63L181.13,171.3L182.26,182.33L183.4,164.54L184.53,157L185.66,157.01L186.79,163.37L187.92,160.11L189.06,171.55L190.19,150.51L191.32,139.48L192.45,158.73L193.58,161.83L194.72,144.54L195.85,149.26L196.98,185.75L198.11,187.89L199.25,202.64L200.38,185.65L201.51,186.79L202.64,160.14L203.77,113.25L204.91,138.45L206.04,86.7L207.17,108.41L208.3,112.09L209.43,114.52L210.57,103.97L211.7,91.43L212.83,105.55L215.09,49.73L216.23,43.94L217.36,33.81L218.49,57.18L219.62,58.03L220.75,46.96L221.89,24.26L223.02,45.76L224.15,35.85L225.28,35.8L226.42,55.58L227.55,57.96L228.68,54.34L229.81,74.73L230.94,79.68L232.08,74.39L234.34,85.07L235.47,69.75L236.6,43.2L237.74,83.58L238.87,113.35L240,83.56L241.13,89.43L242.26,80.25L243.4,72.49L244.53,75.79L245.66,82.22L246.79,63.62L247.92,58.82L249.06,34.54L250.19,23.05L251.32,29.54L252.45,16L253.58,28.23L254.72,66.15L255.85,42.15L256.98,81.76L258.11,64.89L260.38,43.33L261.51,39.11L262.64,54.96L263.77,39.63L264.91,63.22L266.04,44L267.17,59.32L268.3,61.38L270.57,93.01L271.7,91.07L272.83,95.04L273.96,113.21L275.09,133.26L276.23,138.49L277.36,136.11L278.49,150.86L279.62,138.26L280.75,137.55L281.89,146L283.02,139.04L285.28,148.91L286.42,143.45L288.68,167.57L289.81,159.59L292.08,138.42L293.21,148.32L295.47,117.57L296.6,117.45L297.74,109.03L298.87,112.03L300,82.57L301.13,88.81L302.26,93.07L303.4,106.12L304.53,112.01L305.66,136.2L306.79,143.26L307.92,112.37L309.06,122.28L310.19,124.21L311.32,125.24L312.45,127.72L313.58,128.89L314.72,132.49L315.85,140.64L316.98,139.72L318.11,143.23L319.25,135.54L320.38,129.07L321.51,142.28L322.64,137.91L323.77,129.72L324.91,122.47L326.04,127.54L328.3,137.54L329.43,128.52L330.57,150.05L331.7,147.29L333.96,164.71L335.09,163.1L337.36,167.39L338.49,165.5L340.75,154.52L341.89,159.18L344.15,166.92L345.28,162.29L346.42,158.84L347.55,165.02L348.68,169.39L349.81,165.87L350.94,166.4L352.08,172.06L353.21,157.57L354.34,157.87L355.47,154.58L356.6,158.32L357.74,159.31L358.87,158.1L360,161.34L361.13,161.63L362.26,165.89L363.4,198.74L364.53,194.47L365.66,208.29L366.79,210.89L367.92,205.95L369.06,206.37L370.19,208.5L372.45,217.11L373.58,215.2L374.72,216.58L375.85,214.26L376.98,213.77L378.11,211.64L380.38,231.23L381.51,228.46L382.64,228.69L383.77,230.36L387.17,244.92L388.3,245.92L389.43,247.45L390.57,245.4L391.7,245.43L392.83,246.56L393.96,246.2L395.09,249.16L396.23,248.92L397.36,243.32L398.49,255.48L399.62,247.55L400.75,248.34L401.89,250.84L403.02,255.82L404.15,247.15L405.28,246.48L406.42,246.91L407.55,244.84L408.68,238.25L409.81,239.39L410.94,239.14L413.21,239.68L414.34,239.9L416.6,238.98L417.74,236.99L418.87,236.57L420,239.34L421.13,239.34L422.26,240.4L423.4,239.36L424.53,239.59L426.79,240L427.92,234.18L429.06,234.15L430.19,235.85L431.32,236.53L432.45,235.41L433.58,242.23L434.72,240.88L435.85,241.13L436.98,239.55L439.25,238.79L440.38,238.84L441.51,238.99L442.64,241.02L443.77,242.01L444.91,242L448.3,241.77L449.43,243.36L451.7,243.51L452.83,244.25L455.09,244.46L456.23,244.28L457.36,238.18L458.49,237.4L459.62,237.82L460.75,236.47L464.15,235.51L465.28,238.17L467.55,238.26L468.68,238.37L474.34,237.48L475.47,237L477.74,236.91L478.87,236.99L480,231.12L481.13,232.42L482.26,231.95L483.4,233.61L487.92,234.19L489.06,234.91L490.19,233.3L491.32,234.54L492.45,233.43L493.58,234.41L495.85,234.25L496.98,235.28L498.11,229.42L499.25,229.12L501.51,229.1L502.64,236.35L504.91,230.4L506.04,232.08L507.17,236.5L508.3,236.9L510.57,238.57L511.7,237.48L512.83,237.59L513.96,238.67L515.09,239.81L516.23,239.81L518.49,239.71L519.62,237.21L520.75,304L528.68,223.33L530.94,222.41L532.08,222.94L536.6,224L537.74,225.2L540,225.02" style="vector-effect: none; fill: none; stroke: rgb(99, 110, 250); stroke-opacity: 1; stroke-width: 2px; opacity: 1;"/></g><g class="points"/><g class="text"/></g></g></g><g class="overplot"/><path class="xlines-above crisp" d="M0,0" style="fill: none;"/><path class="ylines-above crisp" d="M0,0" style="fill: none;"/><g class="overlines-above"/><g class="xaxislayer-above"><g class="xtick"><text text-anchor="middle" x="0" y="433" transform="translate(135.47,0)" style="font-family: 'Open Sans', verdana, arial, sans-serif; font-size: 12px; fill: rgb(42, 63, 95); fill-opacity: 1; white-space: pre; opacity: 1;">Oct 2022</text></g><g class="xtick"><text text-anchor="middle" x="0" y="433" style="font-family: 'Open Sans', verdana, arial, sans-serif; font-size: 12px; fill: rgb(42, 63, 95); fill-opacity: 1; white-space: pre; opacity: 1;" transform="translate(239.62,0)">Jan 2023</text></g><g class="xtick"><text text-anchor="middle" x="0" y="433" style="font-family: 'Open Sans', verdana, arial, sans-serif; font-size: 12px; fill: rgb(42, 63, 95); fill-opacity: 1; white-space: pre; opacity: 1;" transform="translate(341.51,0)">Apr 2023</text></g><g class="xtick"><text text-anchor="middle" x="0" y="433" style="font-family: 'Open Sans', verdana, arial, sans-serif; font-size: 12px; fill: rgb(42, 63, 95); fill-opacity: 1; white-space: pre; opacity: 1;" transform="translate(444.53,0)">Jul 2023</text></g><g class="xtick"><text text-anchor="middle" x="0" y="433" style="font-family: 'Open Sans', verdana, arial, sans-serif; font-size: 12px; fill: rgb(42, 63, 95); fill-opacity: 1; white-space: pre; opacity: 1;" transform="translate(548.6800000000001,0)">Oct 2023</text></g></g><g class="yaxislayer-above"><g class="ytick"><text text-anchor="end" x="79" y="4.199999999999999" transform="translate(0,398.82)" style="font-family: 'Open Sans', verdana, arial, sans-serif; font-size: 12px; fill: rgb(42, 63, 95); fill-opacity: 1; white-space: pre; opacity: 1;">$−8M</text></g><g class="ytick"><text text-anchor="end" x="79" y="4.199999999999999" style="font-family: 'Open Sans', verdana, arial, sans-serif; font-size: 12px; fill: rgb(42, 63, 95); fill-opacity: 1; white-space: pre; opacity: 1;" transform="translate(0,360.9)">$−6M</text></g><g class="ytick"><text text-anchor="end" x="79" y="4.199999999999999" style="font-family: 'Open Sans', verdana, arial, sans-serif; font-size: 12px; fill: rgb(42, 63, 95); fill-opacity: 1; white-space: pre; opacity: 1;" transform="translate(0,322.98)">$−4M</text></g><g class="ytick"><text text-anchor="end" x="79" y="4.199999999999999" style="font-family: 'Open Sans', verdana, arial, sans-serif; font-size: 12px; fill: rgb(42, 63, 95); fill-opacity: 1; white-space: pre; opacity: 1;" transform="translate(0,285.06)">$−2M</text></g><g class="ytick"><text text-anchor="end" x="79" y="4.199999999999999" style="font-family: 'Open Sans', verdana, arial, sans-serif; font-size: 12px; fill: rgb(42, 63, 95); fill-opacity: 1; white-space: pre; opacity: 1;" transform="translate(0,247.15)">$0</text></g><g class="ytick"><text text-anchor="end" x="79" y="4.199999999999999" style="font-family: 'Open Sans', verdana, arial, sans-serif; font-size: 12px; fill: rgb(42, 63, 95); fill-opacity: 1; white-space: pre; opacity: 1;" transform="translate(0,209.23000000000002)">$2M</text></g><g class="ytick"><text text-anchor="end" x="79" y="4.199999999999999" style="font-family: 'Open Sans', verdana, arial, sans-serif; font-size: 12px; fill: rgb(42, 63, 95); fill-opacity: 1; white-space: pre; opacity: 1;" transform="translate(0,171.31)">$4M</text></g><g class="ytick"><text text-anchor="end" x="79" y="4.199999999999999" style="font-family: 'Open Sans', verdana, arial, sans-serif; font-size: 12px; fill: rgb(42, 63, 95); fill-opacity: 1; white-space: pre; opacity: 1;" transform="translate(0,133.39)">$6M</text></g></g><g class="overaxes-above"/></g></g><g class="polarlayer"/><g class="smithlayer"/><g class="ternarylayer"/><g class="geolayer"/><g class="funnelarealayer"/><g class="pielayer"/><g class="iciclelayer"/><g class="treemaplayer"/><g class="sunburstlayer"/><g class="glimages"/><defs id="topdefs-10c67e"><g class="clips"/></defs><g class="layer-above"><g class="imagelayer"/><g class="shapelayer"/></g><g class="infolayer"><g class="g-gtitle"><text class="gtitle" x="35" y="50" text-anchor="start" dy="0em" style="font-family: 'Open Sans', verdana, arial, sans-serif; font-size: 17px; fill: rgb(42, 63, 95); opacity: 1; font-weight: normal; white-space: pre;"><tspan class="line" dy="0em" x="35" y="50">Cbridge - Celer</tspan><tspan class="line" dy="1.3em" x="35" y="50">​<tspan style="font-size:70%" dy="-0.6em">Cumulative Net Flows since Program Announcement, Until Program End + 30 Days</tspan><tspan dy="0.42em">​</tspan></tspan></text></g><g class="g-xtitle"><text class="xtitle" x="350" y="460.3" text-anchor="middle" style="font-family: 'Open Sans', verdana, arial, sans-serif; font-size: 14px; fill: rgb(42, 63, 95); opacity: 1; font-weight: normal; white-space: pre;">Day</text></g><g class="g-ytitle"><text class="ytitle" transform="rotate(-90,24.340625000000003,260)" x="24.340625000000003" y="260" text-anchor="middle" style="font-family: 'Open Sans', verdana, arial, sans-serif; font-size: 14px; fill: rgb(42, 63, 95); opacity: 1; font-weight: normal; white-space: pre;">Cumulative Net Flows (USD)</text></g></g></svg>