<svg class="main-svg" xmlns="http://www.w3.org/2000/svg" xmlns:xlink="http://www.w3.org/1999/xlink" width="700" height="500" style="" viewBox="0 0 700 500"><rect x="0" y="0" width="700" height="500" style="fill: rgb(255, 255, 255); fill-opacity: 1;"/><defs id="defs-d17aaf"><g class="clips"><clipPath id="clipd17aafxyplot" class="plotclip"><rect width="540" height="320"/></clipPath><clipPath class="axesclip" id="clipd17aafx"><rect x="80" y="0" width="540" height="500"/></clipPath><clipPath class="axesclip" id="clipd17aafy"><rect x="0" y="100" width="700" height="320"/></clipPath><clipPath class="axesclip" id="clipd17aafxy"><rect x="80" y="100" width="540" height="320"/></clipPath></g><g class="gradients"/><g class="patterns"/></defs><g class="bglayer"><rect class="bg" x="80" y="100" width="540" height="320" style="fill: rgb(229, 236, 246); fill-opacity: 1; stroke-width: 0;"/></g><g class="layer-below"><g class="imagelayer"/><g class="shapelayer"/></g><g class="cartesianlayer"><g class="subplot xy"><g class="layer-subplot"><g class="shapelayer"/><g class="imagelayer"/></g><g class="minor-gridlayer"><g class="x"/><g class="y"/></g><g class="gridlayer"><g class="x"><path class="xgrid crisp" transform="translate(132.19,0)" d="M0,100v320" style="stroke: rgb(255, 255, 255); stroke-opacity: 1; stroke-width: 1px;"/><path class="xgrid crisp" transform="translate(230.18,0)" d="M0,100v320" style="stroke: rgb(255, 255, 255); stroke-opacity: 1; stroke-width: 1px;"/><path class="xgrid crisp" transform="translate(326.03999999999996,0)" d="M0,100v320" style="stroke: rgb(255, 255, 255); stroke-opacity: 1; stroke-width: 1px;"/><path class="xgrid crisp" transform="translate(422.96,0)" d="M0,100v320" style="stroke: rgb(255, 255, 255); stroke-opacity: 1; stroke-width: 1px;"/><path class="xgrid crisp" transform="translate(520.95,0)" d="M0,100v320" style="stroke: rgb(255, 255, 255); stroke-opacity: 1; stroke-width: 1px;"/><path class="xgrid crisp" transform="translate(618.93,0)" d="M0,100v320" style="stroke: rgb(255, 255, 255); stroke-opacity: 1; stroke-width: 1px;"/></g><g class="y"><path class="ygrid crisp" transform="translate(0,398.82)" d="M80,0h540" style="stroke: rgb(255, 255, 255); stroke-opacity: 1; stroke-width: 1px;"/><path class="ygrid crisp" transform="translate(0,360.9)" d="M80,0h540" style="stroke: rgb(255, 255, 255); stroke-opacity: 1; stroke-width: 1px;"/><path class="ygrid crisp" transform="translate(0,322.98)" d="M80,0h540" style="stroke: rgb(255, 255, 255); stroke-opacity: 1; stroke-width: 1px;"/><path class="ygrid crisp" transform="translate(0,285.06)" d="M80,0h540" style="stroke: rgb(255, 255, 255); stroke-opacity: 1; stroke-width: 1px;"/><path class="ygrid crisp" transform="translate(0,209.23000000000002)" d="M80,0h540" style="stroke: rgb(255, 255, 255); stroke-opacity: 1; stroke-width: 1px;"/><path class="ygrid crisp" transform="translate(0,171.31)" d="M80,0h540" style="stroke: rgb(255, 255, 255); stroke-opacity: 1; stroke-width: 1px;"/><path class="ygrid crisp" transform="translate(0,133.39)" d="M80,0h540" style="stroke: rgb(255, 255, 255); stroke-opacity: 1; stroke-width: 1px;"/></g></g><g class="zerolinelayer"><path class="yzl zl crisp" transform="translate(0,247.15)" d="M80,0h540" style="stroke: rgb(255, 255, 255); stroke-opacity: 1; stroke-width: 2px;"/></g><path class="xlines-below"/><path class="ylines-below"/><g class="overlines-below"/><g class="xaxislayer-below"/><g class="yaxislayer-below"/><g class="overaxes-below"/><g class="plot" transform="translate(80,100)" clip-path="url(#clipd17aafxyplot)"><g class="scatterlayer mlayer"><g class="trace scatter trace6f3471" style="stroke-miterlimit: 2;"><g class="fills"><g><path class="js-fill" d="M540,147.15L0,147.15L0,172.88L1.07,185.93L2.13,184.87L3.2,186.54L4.26,192.49L5.33,192.67L6.39,109.56L7.46,206.5L8.52,198.1L9.59,204.17L10.65,203.35L12.78,208.54L13.85,198.72L14.91,199.75L15.98,202.35L17.04,202.54L18.11,187.88L20.24,180.89L21.3,193.1L22.37,191.22L23.43,187.16L24.5,185.92L25.56,190.88L27.69,182.04L28.76,176.57L29.82,162.84L30.89,159.32L31.95,157.29L33.02,179L34.08,167.59L35.15,166.35L36.21,179.07L37.28,181.83L38.34,182.56L39.41,181.12L42.6,185.58L43.67,199.07L45.8,200.12L46.86,197.37L47.93,204.31L48.99,204.39L50.06,208.84L51.12,209.88L52.19,212.97L53.25,213.51L55.38,226.19L56.45,222.39L57.51,226.37L58.58,225.46L59.64,220.72L60.71,230.49L61.78,227.92L62.84,230.63L63.91,226.48L64.97,227.01L66.04,238.33L67.1,236.46L68.17,237.39L69.23,239.97L70.3,240.47L71.36,239.25L72.43,234.93L73.49,235.54L75.62,235.56L76.69,236.5L77.75,236.62L78.82,232.4L80.95,226.2L82.01,223.8L84.14,223.97L85.21,221.33L86.27,224.13L87.34,197.7L89.47,217.71L90.53,216.09L91.6,214.64L92.66,203.07L93.73,212.3L94.79,252.05L95.86,222.02L96.92,216.27L97.99,216.03L99.05,220.69L100.12,228.41L101.18,209.08L102.25,173.39L103.31,198.58L105.44,172.37L106.51,179.85L107.57,187.52L108.64,205.26L109.7,215.72L110.77,241.89L111.83,246.26L112.9,223.28L113.96,229.62L115.03,229.17L116.09,227.89L117.16,219.21L118.22,224.35L119.29,258.66L120.36,244.88L121.42,218.5L122.49,227.37L123.55,220.73L124.62,229.53L125.68,222.65L126.75,232.87L127.81,221.33L128.88,251.03L129.94,235.37L131.01,255.23L132.07,242.64L133.14,234.84L134.2,216.98L135.27,227.04L136.33,220.09L137.4,233.52L138.46,201.08L139.53,164.26L140.59,208.98L141.66,176.85L142.72,179.21L143.79,184.21L144.85,181.61L145.92,209.03L146.98,203.88L148.05,120.15L149.11,152.37L150.18,129.93L151.24,145.75L154.44,142.18L155.5,148.63L156.57,151.04L157.63,149.46L158.7,158.36L159.76,159.21L160.83,157.67L161.89,170.19L162.96,177.23L164.02,156.32L165.09,148.17L166.15,147.62L167.22,160.97L168.28,160.56L169.35,154.63L170.41,171.3L171.48,182.33L172.54,164.54L173.61,157L174.67,157.01L175.74,163.37L176.8,160.11L177.87,171.55L178.93,150.51L180,139.48L181.07,158.73L182.13,161.83L183.2,144.54L184.26,149.26L185.33,185.75L186.39,187.89L187.46,202.64L188.52,185.65L189.59,186.79L190.65,160.14L191.72,113.25L192.78,138.45L193.85,86.7L194.91,108.41L195.98,112.09L197.04,114.52L198.11,103.97L199.17,91.43L200.24,105.55L202.37,49.73L203.43,43.94L204.5,33.81L205.56,57.18L206.63,58.03L207.69,46.96L208.76,24.26L209.82,45.76L210.89,35.85L211.95,35.8L213.02,55.58L214.08,57.96L215.15,54.34L216.21,74.73L217.28,79.68L218.34,74.39L220.47,85.07L221.54,69.75L222.6,43.2L223.67,83.58L224.73,113.35L225.8,83.56L226.86,89.43L227.93,80.25L228.99,72.49L230.06,75.79L231.12,82.22L232.19,63.62L233.25,58.82L234.32,34.54L235.38,23.05L236.45,29.54L237.51,16L238.58,28.23L239.64,66.15L240.71,42.15L241.78,81.76L242.84,64.89L244.97,43.33L246.04,39.11L247.1,54.96L248.17,39.63L249.23,63.22L250.3,44L251.36,59.32L252.43,61.38L254.56,93.01L255.62,91.07L256.69,95.04L257.75,113.21L258.82,133.26L259.88,138.49L260.95,136.11L262.01,150.86L263.08,138.26L264.14,137.55L265.21,146L266.27,139.04L268.4,148.91L269.47,143.45L271.6,167.57L272.66,159.59L274.79,138.42L275.86,148.32L277.99,117.57L279.05,117.45L280.12,109.03L281.18,112.03L282.25,82.57L283.31,88.81L284.38,93.07L285.44,106.12L286.51,112.01L287.57,136.2L288.64,143.26L289.7,112.37L290.77,122.28L291.83,124.21L292.9,125.24L293.96,127.72L295.03,128.89L296.09,132.49L297.16,140.64L298.22,139.72L299.29,143.23L300.36,135.54L301.42,129.07L302.49,142.28L303.55,137.91L304.62,129.72L305.68,122.47L306.75,127.54L308.88,137.54L309.94,128.52L311.01,150.05L312.07,147.29L314.2,164.71L315.27,163.1L317.4,167.39L318.46,165.5L320.59,154.52L321.66,159.18L323.79,166.92L324.85,162.29L325.92,158.84L326.98,165.02L328.05,169.39L329.11,165.87L330.18,166.4L331.24,172.06L332.31,157.57L333.37,157.87L334.44,154.58L335.5,158.32L336.57,159.31L337.63,158.1L338.7,161.34L339.76,161.63L340.83,165.89L341.89,198.74L342.96,194.47L344.02,208.29L345.09,210.89L346.15,205.95L347.22,206.37L348.28,208.5L350.41,217.11L351.48,215.2L352.54,216.58L353.61,214.26L354.67,213.77L355.74,211.64L357.87,231.23L358.93,228.46L360,228.69L361.07,230.36L364.26,244.92L365.33,245.92L366.39,247.45L367.46,245.4L368.52,245.43L369.59,246.56L370.65,246.2L371.72,249.16L372.78,248.92L373.85,243.32L374.91,255.48L375.98,247.55L377.04,248.34L378.11,250.84L379.17,255.82L380.24,247.15L381.3,246.48L382.37,246.91L383.43,244.84L384.5,238.25L385.56,239.39L386.63,239.14L388.76,239.68L389.82,239.9L391.95,238.98L393.02,236.99L394.08,236.57L395.15,239.34L396.21,239.34L397.28,240.4L398.34,239.36L399.41,239.59L401.54,240L402.6,234.18L403.67,234.15L404.73,235.85L405.8,236.53L406.86,235.41L407.93,242.23L408.99,240.88L410.06,241.13L411.12,239.55L413.25,238.79L414.32,238.84L415.38,238.99L416.45,241.02L418.58,242L419.64,242.08L421.78,241.77L422.84,243.36L424.97,243.51L426.04,244.25L428.17,244.46L429.23,244.28L430.3,238.18L431.36,237.4L432.43,237.82L433.49,236.47L436.69,235.51L437.75,238.17L439.88,238.26L440.95,238.37L446.27,237.48L447.34,237L449.47,236.91L450.53,236.99L451.6,231.12L452.66,232.42L453.73,231.95L454.79,233.61L459.05,234.19L460.12,234.91L461.18,233.3L462.25,234.54L463.31,233.43L464.38,234.41L466.51,234.25L467.57,235.28L468.64,229.42L469.7,229.12L471.83,229.1L472.9,236.35L475.03,230.4L476.09,232.08L477.16,236.5L478.22,236.9L480.36,238.57L481.42,237.48L482.49,237.59L483.55,238.67L484.62,239.81L485.68,239.81L487.81,239.71L488.88,237.21L489.94,304L497.4,223.33L499.53,222.41L500.59,222.94L504.85,224L505.92,225.2L509.11,225.6L510.18,226.07L511.24,227.73L512.31,226.98L513.37,228.89L514.44,227.15L515.5,227.97L516.57,219.87L517.63,215.69L518.7,215.89L519.76,216.93L520.83,214.27L521.89,213.66L522.96,215.24L525.09,203.2L526.15,203.32L527.22,207.14L528.28,206.91L529.35,202.47L530.41,204.58L531.48,203.83L532.54,204.64L533.61,204.14L534.67,211.61L535.74,214.08L536.8,214.31L537.87,217.77L538.93,210.97L540,213.34" style="fill: rgb(99, 110, 250); fill-opacity: 0.5; stroke-width: 0;"/></g></g><g class="errorbars"/><g class="lines"><path class="js-line" d="M0,172.88L1.07,185.93L2.13,184.87L3.2,186.54L4.26,192.49L5.33,192.67L6.39,109.56L7.46,206.5L8.52,198.1L9.59,204.17L10.65,203.35L12.78,208.54L13.85,198.72L14.91,199.75L15.98,202.35L17.04,202.54L18.11,187.88L20.24,180.89L21.3,193.1L22.37,191.22L23.43,187.16L24.5,185.92L25.56,190.88L27.69,182.04L28.76,176.57L29.82,162.84L30.89,159.32L31.95,157.29L33.02,179L34.08,167.59L35.15,166.35L36.21,179.07L37.28,181.83L38.34,182.56L39.41,181.12L42.6,185.58L43.67,199.07L45.8,200.12L46.86,197.37L47.93,204.31L48.99,204.39L50.06,208.84L51.12,209.88L52.19,212.97L53.25,213.51L55.38,226.19L56.45,222.39L57.51,226.37L58.58,225.46L59.64,220.72L60.71,230.49L61.78,227.92L62.84,230.63L63.91,226.48L64.97,227.01L66.04,238.33L67.1,236.46L68.17,237.39L69.23,239.97L70.3,240.47L71.36,239.25L72.43,234.93L73.49,235.54L75.62,235.56L76.69,236.5L77.75,236.62L78.82,232.4L80.95,226.2L82.01,223.8L84.14,223.97L85.21,221.33L86.27,224.13L87.34,197.7L89.47,217.71L90.53,216.09L91.6,214.64L92.66,203.07L93.73,212.3L94.79,252.05L95.86,222.02L96.92,216.27L97.99,216.03L99.05,220.69L100.12,228.41L101.18,209.08L102.25,173.39L103.31,198.58L105.44,172.37L106.51,179.85L107.57,187.52L108.64,205.26L109.7,215.72L110.77,241.89L111.83,246.26L112.9,223.28L113.96,229.62L115.03,229.17L116.09,227.89L117.16,219.21L118.22,224.35L119.29,258.66L120.36,244.88L121.42,218.5L122.49,227.37L123.55,220.73L124.62,229.53L125.68,222.65L126.75,232.87L127.81,221.33L128.88,251.03L129.94,235.37L131.01,255.23L132.07,242.64L133.14,234.84L134.2,216.98L135.27,227.04L136.33,220.09L137.4,233.52L138.46,201.08L139.53,164.26L140.59,208.98L141.66,176.85L142.72,179.21L143.79,184.21L144.85,181.61L145.92,209.03L146.98,203.88L148.05,120.15L149.11,152.37L150.18,129.93L151.24,145.75L154.44,142.18L155.5,148.63L156.57,151.04L157.63,149.46L158.7,158.36L159.76,159.21L160.83,157.67L161.89,170.19L162.96,177.23L164.02,156.32L165.09,148.17L166.15,147.62L167.22,160.97L168.28,160.56L169.35,154.63L170.41,171.3L171.48,182.33L172.54,164.54L173.61,157L174.67,157.01L175.74,163.37L176.8,160.11L177.87,171.55L178.93,150.51L180,139.48L181.07,158.73L182.13,161.83L183.2,144.54L184.26,149.26L185.33,185.75L186.39,187.89L187.46,202.64L188.52,185.65L189.59,186.79L190.65,160.14L191.72,113.25L192.78,138.45L193.85,86.7L194.91,108.41L195.98,112.09L197.04,114.52L198.11,103.97L199.17,91.43L200.24,105.55L202.37,49.73L203.43,43.94L204.5,33.81L205.56,57.18L206.63,58.03L207.69,46.96L208.76,24.26L209.82,45.76L210.89,35.85L211.95,35.8L213.02,55.58L214.08,57.96L215.15,54.34L216.21,74.73L217.28,79.68L218.34,74.39L220.47,85.07L221.54,69.75L222.6,43.2L223.67,83.58L224.73,113.35L225.8,83.56L226.86,89.43L227.93,80.25L228.99,72.49L230.06,75.79L231.12,82.22L232.19,63.62L233.25,58.82L234.32,34.54L235.38,23.05L236.45,29.54L237.51,16L238.58,28.23L239.64,66.15L240.71,42.15L241.78,81.76L242.84,64.89L244.97,43.33L246.04,39.11L247.1,54.96L248.17,39.63L249.23,63.22L250.3,44L251.36,59.32L252.43,61.38L254.56,93.01L255.62,91.07L256.69,95.04L257.75,113.21L258.82,133.26L259.88,138.49L260.95,136.11L262.01,150.86L263.08,138.26L264.14,137.55L265.21,146L266.27,139.04L268.4,148.91L269.47,143.45L271.6,167.57L272.66,159.59L274.79,138.42L275.86,148.32L277.99,117.57L279.05,117.45L280.12,109.03L281.18,112.03L282.25,82.57L283.31,88.81L284.38,93.07L285.44,106.12L286.51,112.01L287.57,136.2L288.64,143.26L289.7,112.37L290.77,122.28L291.83,124.21L292.9,125.24L293.96,127.72L295.03,128.89L296.09,132.49L297.16,140.64L298.22,139.72L299.29,143.23L300.36,135.54L301.42,129.07L302.49,142.28L303.55,137.91L304.62,129.72L305.68,122.47L306.75,127.54L308.88,137.54L309.94,128.52L311.01,150.05L312.07,147.29L314.2,164.71L315.27,163.1L317.4,167.39L318.46,165.5L320.59,154.52L321.66,159.18L323.79,166.92L324.85,162.29L325.92,158.84L326.98,165.02L328.05,169.39L329.11,165.87L330.18,166.4L331.24,172.06L332.31,157.57L333.37,157.87L334.44,154.58L335.5,158.32L336.57,159.31L337.63,158.1L338.7,161.34L339.76,161.63L340.83,165.89L341.89,198.74L342.96,194.47L344.02,208.29L345.09,210.89L346.15,205.95L347.22,206.37L348.28,208.5L350.41,217.11L351.48,215.2L352.54,216.58L353.61,214.26L354.67,213.77L355.74,211.64L357.87,231.23L358.93,228.46L360,228.69L361.07,230.36L364.26,244.92L365.33,245.92L366.39,247.45L367.46,245.4L368.52,245.43L369.59,246.56L370.65,246.2L371.72,249.16L372.78,248.92L373.85,243.32L374.91,255.48L375.98,247.55L377.04,248.34L378.11,250.84L379.17,255.82L380.24,247.15L381.3,246.48L382.37,246.91L383.43,244.84L384.5,238.25L385.56,239.39L386.63,239.14L388.76,239.68L389.82,239.9L391.95,238.98L393.02,236.99L394.08,236.57L395.15,239.34L396.21,239.34L397.28,240.4L398.34,239.36L399.41,239.59L401.54,240L402.6,234.18L403.67,234.15L404.73,235.85L405.8,236.53L406.86,235.41L407.93,242.23L408.99,240.88L410.06,241.13L411.12,239.55L413.25,238.79L414.32,238.84L415.38,238.99L416.45,241.02L418.58,242L419.64,242.08L421.78,241.77L422.84,243.36L424.97,243.51L426.04,244.25L428.17,244.46L429.23,244.28L430.3,238.18L431.36,237.4L432.43,237.82L433.49,236.47L436.69,235.51L437.75,238.17L439.88,238.26L440.95,238.37L446.27,237.48L447.34,237L449.47,236.91L450.53,236.99L451.6,231.12L452.66,232.42L453.73,231.95L454.79,233.61L459.05,234.19L460.12,234.91L461.18,233.3L462.25,234.54L463.31,233.43L464.38,234.41L466.51,234.25L467.57,235.28L468.64,229.42L469.7,229.12L471.83,229.1L472.9,236.35L475.03,230.4L476.09,232.08L477.16,236.5L478.22,236.9L480.36,238.57L481.42,237.48L482.49,237.59L483.55,238.67L484.62,239.81L485.68,239.81L487.81,239.71L488.88,237.21L489.94,304L497.4,223.33L499.53,222.41L500.59,222.94L504.85,224L505.92,225.2L509.11,225.6L510.18,226.07L511.24,227.73L512.31,226.98L513.37,228.89L514.44,227.15L515.5,227.97L516.57,219.87L517.63,215.69L518.7,215.89L519.76,216.93L520.83,214.27L521.89,213.66L522.96,215.24L525.09,203.2L526.15,203.32L527.22,207.14L528.28,206.91L529.35,202.47L530.41,204.58L531.48,203.83L532.54,204.64L533.61,204.14L534.67,211.61L535.74,214.08L536.8,214.31L537.87,217.77L538.93,210.97L540,213.34" style="vector-effect: none; fill: none; stroke: rgb(99, 110, 250); stroke-opacity: 1; stroke-width: 2px; opacity: 1;"/></g><g class="points"/><g class="text"/></g></g></g><g class="overplot"/><path class="xlines-above crisp" d="M0,0" style="fill: none;"/><path class="ylines-above crisp" d="M0,0" style="fill: none;"/><g class="overlines-above"/><g class="xaxislayer-above"><g class="xtick"><text text-anchor="middle" x="0" y="433" transform="translate(132.19,0)" style="font-family: 'Open Sans', verdana, arial, sans-serif; font-size: 12px; fill: rgb(42, 63, 95); fill-opacity: 1; white-space: pre; opacity: 1;">Oct 2022</text></g><g class="xtick"><text text-anchor="middle" x="0" y="433" style="font-family: 'Open Sans', verdana, arial, sans-serif; font-size: 12px; fill: rgb(42, 63, 95); fill-opacity: 1; white-space: pre; opacity: 1;" transform="translate(230.18,0)">Jan 2023</text></g><g class="xtick"><text text-anchor="middle" x="0" y="433" style="font-family: 'Open Sans', verdana, arial, sans-serif; font-size: 12px; fill: rgb(42, 63, 95); fill-opacity: 1; white-space: pre; opacity: 1;" transform="translate(326.03999999999996,0)">Apr 2023</text></g><g class="xtick"><text text-anchor="middle" x="0" y="433" style="font-family: 'Open Sans', verdana, arial, sans-serif; font-size: 12px; fill: rgb(42, 63, 95); fill-opacity: 1; white-space: pre; opacity: 1;" transform="translate(422.96,0)">Jul 2023</text></g><g class="xtick"><text text-anchor="middle" x="0" y="433" style="font-family: 'Open Sans', verdana, arial, sans-serif; font-size: 12px; fill: rgb(42, 63, 95); fill-opacity: 1; white-space: pre; opacity: 1;" transform="translate(520.95,0)">Oct 2023</text></g><g class="xtick"><text text-anchor="middle" x="0" y="433" style="font-family: 'Open Sans', verdana, arial, sans-serif; font-size: 12px; fill: rgb(42, 63, 95); fill-opacity: 1; white-space: pre; opacity: 1;" transform="translate(618.93,0)">Jan 2024</text></g></g><g class="yaxislayer-above"><g class="ytick"><text text-anchor="end" x="79" y="4.199999999999999" transform="translate(0,398.82)" style="font-family: 'Open Sans', verdana, arial, sans-serif; font-size: 12px; fill: rgb(42, 63, 95); fill-opacity: 1; white-space: pre; opacity: 1;">$−8M</text></g><g class="ytick"><text text-anchor="end" x="79" y="4.199999999999999" style="font-family: 'Open Sans', verdana, arial, sans-serif; font-size: 12px; fill: rgb(42, 63, 95); fill-opacity: 1; white-space: pre; opacity: 1;" transform="translate(0,360.9)">$−6M</text></g><g class="ytick"><text text-anchor="end" x="79" y="4.199999999999999" style="font-family: 'Open Sans', verdana, arial, sans-serif; font-size: 12px; fill: rgb(42, 63, 95); fill-opacity: 1; white-space: pre; opacity: 1;" transform="translate(0,322.98)">$−4M</text></g><g class="ytick"><text text-anchor="end" x="79" y="4.199999999999999" style="font-family: 'Open Sans', verdana, arial, sans-serif; font-size: 12px; fill: rgb(42, 63, 95); fill-opacity: 1; white-space: pre; opacity: 1;" transform="translate(0,285.06)">$−2M</text></g><g class="ytick"><text text-anchor="end" x="79" y="4.199999999999999" style="font-family: 'Open Sans', verdana, arial, sans-serif; font-size: 12px; fill: rgb(42, 63, 95); fill-opacity: 1; white-space: pre; opacity: 1;" transform="translate(0,247.15)">$0</text></g><g class="ytick"><text text-anchor="end" x="79" y="4.199999999999999" style="font-family: 'Open Sans', verdana, arial, sans-serif; font-size: 12px; fill: rgb(42, 63, 95); fill-opacity: 1; white-space: pre; opacity: 1;" transform="translate(0,209.23000000000002)">$2M</text></g><g class="ytick"><text text-anchor="end" x="79" y="4.199999999999999" style="font-family: 'Open Sans', verdana, arial, sans-serif; font-size: 12px; fill: rgb(42, 63, 95); fill-opacity: 1; white-space: pre; opacity: 1;" transform="translate(0,171.31)">$4M</text></g><g class="ytick"><text text-anchor="end" x="79" y="4.199999999999999" style="font-family: 'Open Sans', verdana, arial, sans-serif; font-size: 12px; fill: rgb(42, 63, 95); fill-opacity: 1; white-space: pre; opacity: 1;" transform="translate(0,133.39)">$6M</text></g></g><g class="overaxes-above"/></g></g><g class="polarlayer"/><g class="smithlayer"/><g class="ternarylayer"/><g class="geolayer"/><g class="funnelarealayer"/><g class="pielayer"/><g class="iciclelayer"/><g class="treemaplayer"/><g class="sunburstlayer"/><g class="glimages"/><defs id="topdefs-d17aaf"><g class="clips"/></defs><g class="layer-above"><g class="imagelayer"/><g class="shapelayer"/></g><g class="infolayer"><g class="g-gtitle"><text class="gtitle" x="35" y="50" text-anchor="start" dy="0em" style="font-family: 'Open Sans', verdana, arial, sans-serif; font-size: 17px; fill: rgb(42, 63, 95); opacity: 1; font-weight: normal; white-space: pre;"><tspan class="line" dy="0em" x="35" y="50">Cbridge - Celer</tspan><tspan class="line" dy="1.3em" x="35" y="50">​<tspan style="font-size:70%" dy="-0.6em">Cumulative Net Flows since Program Announcement, Until Program End + 30 Days</tspan><tspan dy="0.42em">​</tspan></tspan></text></g><g class="g-xtitle"><text class="xtitle" x="350" y="460.3" text-anchor="middle" style="font-family: 'Open Sans', verdana, arial, sans-serif; font-size: 14px; fill: rgb(42, 63, 95); opacity: 1; font-weight: normal; white-space: pre;">Day</text></g><g class="g-ytitle"><text class="ytitle" transform="rotate(-90,24.340625000000003,260)" x="24.340625000000003" y="260" text-anchor="middle" style="font-family: 'Open Sans', verdana, arial, sans-serif; font-size: 14px; fill: rgb(42, 63, 95); opacity: 1; font-weight: normal; white-space: pre;">Cumulative Net Flows (USD)</text></g></g></svg>