<svg class="main-svg" xmlns="http://www.w3.org/2000/svg" xmlns:xlink="http://www.w3.org/1999/xlink" width="700" height="500" style="" viewBox="0 0 700 500"><rect x="0" y="0" width="700" height="500" style="fill: rgb(255, 255, 255); fill-opacity: 1;"/><defs id="defs-3b6af3"><g class="clips"><clipPath id="clip3b6af3xyplot" class="plotclip"><rect width="540" height="320"/></clipPath><clipPath class="axesclip" id="clip3b6af3x"><rect x="80" y="0" width="540" height="500"/></clipPath><clipPath class="axesclip" id="clip3b6af3y"><rect x="0" y="100" width="700" height="320"/></clipPath><clipPath class="axesclip" id="clip3b6af3xy"><rect x="80" y="100" width="540" height="320"/></clipPath></g><g class="gradients"/><g class="patterns"/></defs><g class="bglayer"><rect class="bg" x="80" y="100" width="540" height="320" style="fill: rgb(229, 236, 246); fill-opacity: 1; stroke-width: 0;"/></g><g class="layer-below"><g class="imagelayer"/><g class="shapelayer"/></g><g class="cartesianlayer"><g class="subplot xy"><g class="layer-subplot"><g class="shapelayer"/><g class="imagelayer"/></g><g class="minor-gridlayer"><g class="x"/><g class="y"/></g><g class="gridlayer"><g class="x"><path class="xgrid crisp" transform="translate(117.3,0)" d="M0,100v320" style="stroke: rgb(255, 255, 255); stroke-opacity: 1; stroke-width: 1px;"/><path class="xgrid crisp" transform="translate(201.56,0)" d="M0,100v320" style="stroke: rgb(255, 255, 255); stroke-opacity: 1; stroke-width: 1px;"/><path class="xgrid crisp" transform="translate(285.82,0)" d="M0,100v320" style="stroke: rgb(255, 255, 255); stroke-opacity: 1; stroke-width: 1px;"/><path class="xgrid crisp" transform="translate(367.32,0)" d="M0,100v320" style="stroke: rgb(255, 255, 255); stroke-opacity: 1; stroke-width: 1px;"/><path class="xgrid crisp" transform="translate(451.58,0)" d="M0,100v320" style="stroke: rgb(255, 255, 255); stroke-opacity: 1; stroke-width: 1px;"/><path class="xgrid crisp" transform="translate(535.8399999999999,0)" d="M0,100v320" style="stroke: rgb(255, 255, 255); stroke-opacity: 1; stroke-width: 1px;"/></g><g class="y"><path class="ygrid crisp" transform="translate(0,317.4)" d="M80,0h540" style="stroke: rgb(255, 255, 255); stroke-opacity: 1; stroke-width: 1px;"/><path class="ygrid crisp" transform="translate(0,261.69)" d="M80,0h540" style="stroke: rgb(255, 255, 255); stroke-opacity: 1; stroke-width: 1px;"/><path class="ygrid crisp" transform="translate(0,205.97)" d="M80,0h540" style="stroke: rgb(255, 255, 255); stroke-opacity: 1; stroke-width: 1px;"/><path class="ygrid crisp" transform="translate(0,150.25)" d="M80,0h540" style="stroke: rgb(255, 255, 255); stroke-opacity: 1; stroke-width: 1px;"/></g></g><g class="zerolinelayer"><path class="yzl zl crisp" transform="translate(0,373.12)" d="M80,0h540" style="stroke: rgb(255, 255, 255); stroke-opacity: 1; stroke-width: 2px;"/></g><path class="xlines-below"/><path class="ylines-below"/><g class="overlines-below"/><g class="xaxislayer-below"/><g class="yaxislayer-below"/><g class="overaxes-below"/><g class="plot" transform="translate(80,100)" clip-path="url(#clip3b6af3xyplot)"><g class="scatterlayer mlayer"><g class="trace scatter traceb6126f" style="stroke-miterlimit: 2;"><g class="fills"><g><path class="js-fill" d="M540,273.12L0,273.12L0,283.31L1.38,219.94L2.76,228.71L4.14,231.47L5.53,237.38L6.91,238.93L8.29,237.83L9.67,232.26L11.05,220.62L12.43,235.87L13.81,231.13L15.19,229.3L16.58,223.91L19.34,227.79L20.72,218.48L22.1,219.51L23.48,217.38L26.25,207.49L27.63,211.68L29.01,214.7L30.39,213.56L33.15,210.6L34.53,203.59L37.3,194.04L38.68,180.86L40.06,180.44L41.44,175.5L42.82,168.71L44.2,187.34L46.97,197.77L48.35,176.41L49.73,171.31L51.11,169.9L52.49,166.78L53.87,158.86L55.25,153.07L56.64,174.24L59.4,171.88L60.78,169.69L62.16,169.98L63.54,167.07L64.92,171.52L66.3,189.91L67.69,186.16L69.07,186.1L70.45,192.4L71.83,194.04L74.59,178.44L75.97,174.68L77.36,181.35L78.74,182.98L80.12,182.59L81.5,176.03L84.26,187.25L85.64,176.68L87.02,168.21L88.41,152.91L89.79,148.31L91.17,148.47L92.55,145.03L93.93,104.19L95.31,96.84L96.69,95.39L99.46,97.59L100.84,97.63L102.22,99.68L103.6,93.4L104.98,92.31L106.36,92.82L107.74,91.62L109.13,92.82L110.51,92.47L111.89,91.02L113.27,101L114.65,98.07L116.03,98.01L117.41,94.96L118.8,94.99L120.18,91.39L121.56,70.51L122.94,66.91L124.32,62.85L125.7,40.17L127.08,31.91L128.46,16L132.61,37.06L133.99,53.39L135.37,214.66L136.75,275.09L138.13,285.91L139.52,277.95L140.9,281.51L142.28,288.07L143.66,276.02L145.04,280.94L147.8,276.28L149.19,280.49L150.57,282.03L151.95,272.97L153.33,278.15L154.71,276.17L156.09,270.41L157.47,274.2L158.85,273.2L160.24,274.97L161.62,268.28L163,257.09L167.14,250.64L168.52,251.55L169.91,247.01L171.29,246.46L174.05,238.63L175.43,237.33L176.81,237.28L178.19,235.74L180.96,245.27L182.34,244.78L183.72,242.93L185.1,244.28L186.48,258.41L187.86,253.22L189.24,254.75L190.63,242.12L192.01,231.24L193.39,226.43L194.77,225.55L196.15,225.56L198.91,227.76L200.29,229.69L203.06,228.81L204.44,224.56L205.82,230.56L207.2,229.74L208.58,222.36L209.96,222.65L211.35,219.12L212.73,221.61L214.11,225.95L215.49,234.31L218.25,236.89L219.63,236.8L221.01,240.13L222.4,238.04L223.78,244.31L225.16,245.63L226.54,247.13L227.92,242.6L229.3,229.98L230.68,225.18L233.45,227.72L234.83,225.51L236.21,218.58L237.59,218.78L238.97,216.93L240.35,220.66L243.12,224.15L244.5,223.52L247.26,207.81L248.64,178.9L250.02,184.92L251.4,185.72L254.17,180.34L255.55,177.14L256.93,181.47L258.31,189.68L259.69,184.04L261.07,189.27L262.46,181.77L263.84,179.19L265.22,177.49L266.6,164.16L267.98,161.47L269.36,164.76L270.74,187.28L272.12,179.95L274.89,187.96L276.27,187.97L277.65,185.93L279.03,199.48L280.41,201.63L281.79,212.77L283.18,211.65L284.56,212.23L285.94,206.61L287.32,210.37L288.7,211.08L290.08,200.5L291.46,196.95L292.84,188.06L294.23,192.43L295.61,192.78L298.37,191.05L299.75,189.49L301.13,156.48L302.51,149.7L306.66,83.76L308.04,72.2L309.42,58.86L310.8,55.86L312.18,89.37L313.56,89.73L314.95,96.37L316.33,93.82L317.71,93.11L319.09,85.67L320.47,117.53L321.85,121.21L324.62,141.99L326,155.17L327.38,151.47L328.76,152.74L330.14,149.4L331.52,150.44L332.9,153.03L334.29,160.9L335.67,165.17L337.05,161.79L338.43,156.65L339.81,157.56L341.19,164.5L342.57,153.56L343.95,160.66L345.34,136.79L348.1,110.87L349.48,104.55L350.86,100.78L352.24,90.76L353.62,93.8L355.01,94.56L357.77,110.1L359.15,116.96L361.91,124.96L363.29,124.86L364.67,127.62L366.06,128.39L367.44,130.32L368.82,124.85L370.2,119.05L371.58,117.55L372.96,130.11L374.34,132.18L375.73,133.23L377.11,129.86L378.49,141.17L379.87,124.23L381.25,120.54L382.63,123.64L385.39,136L386.78,131.72L389.54,147.02L390.92,138.58L392.3,150.5L393.68,155.52L397.83,177.69L399.21,170.45L400.59,175.56L401.97,174.83L403.35,167.46L404.73,171.8L406.11,176.23L407.5,172.82L408.88,175.27L410.26,171.93L411.64,183.24L413.02,177.04L414.4,180.75L415.78,181.85L417.17,188.55L418.55,184.96L419.93,196.59L421.31,190.69L424.07,203.53L425.45,205.1L426.84,207.9L428.22,208.51L429.6,227.05L430.98,229.6L432.36,227.23L433.74,238.9L436.5,264.76L437.89,269.98L439.27,261.85L440.65,258.33L442.03,257.92L443.41,258.83L444.79,254.96L446.17,239.49L448.94,222.16L450.32,220.44L451.7,227.83L453.08,226.53L454.46,236.25L455.84,252.39L457.22,247L458.61,249.41L462.75,234.67L464.13,233.48L466.89,207.79L468.28,207.34L471.04,226.54L472.42,229.89L475.18,234.34L476.56,230.7L479.33,232.18L480.71,245.2L482.09,241.92L483.47,236.02L484.85,233.96L486.23,233.7L489,230.31L490.38,230.92L493.14,213.51L494.52,211.5L495.9,217.41L497.28,218.93L498.66,209.64L500.05,212.61L501.43,216.78L502.81,252.96L504.19,273.61L505.57,278.27L506.95,288.05L508.33,282.07L509.72,275.42L511.1,281.47L512.48,284.77L513.86,282.92L515.24,277.33L516.62,286.92L518,289.65L519.39,286.62L520.77,275.89L522.15,278.14L523.53,272.5L524.91,283.29L530.44,289.43L531.82,298.13L533.2,299.56L534.58,304L535.96,302.59L537.34,299.61L538.72,299.69L540,281.06" style="fill: rgb(99, 110, 250); fill-opacity: 0.5; stroke-width: 0;"/></g></g><g class="errorbars"/><g class="lines"><path class="js-line" d="M0,283.31L1.38,219.94L2.76,228.71L4.14,231.47L5.53,237.38L6.91,238.93L8.29,237.83L9.67,232.26L11.05,220.62L12.43,235.87L13.81,231.13L15.19,229.3L16.58,223.91L19.34,227.79L20.72,218.48L22.1,219.51L23.48,217.38L26.25,207.49L27.63,211.68L29.01,214.7L30.39,213.56L33.15,210.6L34.53,203.59L37.3,194.04L38.68,180.86L40.06,180.44L41.44,175.5L42.82,168.71L44.2,187.34L46.97,197.77L48.35,176.41L49.73,171.31L51.11,169.9L52.49,166.78L53.87,158.86L55.25,153.07L56.64,174.24L59.4,171.88L60.78,169.69L62.16,169.98L63.54,167.07L64.92,171.52L66.3,189.91L67.69,186.16L69.07,186.1L70.45,192.4L71.83,194.04L74.59,178.44L75.97,174.68L77.36,181.35L78.74,182.98L80.12,182.59L81.5,176.03L84.26,187.25L85.64,176.68L87.02,168.21L88.41,152.91L89.79,148.31L91.17,148.47L92.55,145.03L93.93,104.19L95.31,96.84L96.69,95.39L99.46,97.59L100.84,97.63L102.22,99.68L103.6,93.4L104.98,92.31L106.36,92.82L107.74,91.62L109.13,92.82L110.51,92.47L111.89,91.02L113.27,101L114.65,98.07L116.03,98.01L117.41,94.96L118.8,94.99L120.18,91.39L121.56,70.51L122.94,66.91L124.32,62.85L125.7,40.17L127.08,31.91L128.46,16L132.61,37.06L133.99,53.39L135.37,214.66L136.75,275.09L138.13,285.91L139.52,277.95L140.9,281.51L142.28,288.07L143.66,276.02L145.04,280.94L147.8,276.28L149.19,280.49L150.57,282.03L151.95,272.97L153.33,278.15L154.71,276.17L156.09,270.41L157.47,274.2L158.85,273.2L160.24,274.97L161.62,268.28L163,257.09L167.14,250.64L168.52,251.55L169.91,247.01L171.29,246.46L174.05,238.63L175.43,237.33L176.81,237.28L178.19,235.74L180.96,245.27L182.34,244.78L183.72,242.93L185.1,244.28L186.48,258.41L187.86,253.22L189.24,254.75L190.63,242.12L192.01,231.24L193.39,226.43L194.77,225.55L196.15,225.56L198.91,227.76L200.29,229.69L203.06,228.81L204.44,224.56L205.82,230.56L207.2,229.74L208.58,222.36L209.96,222.65L211.35,219.12L212.73,221.61L214.11,225.95L215.49,234.31L218.25,236.89L219.63,236.8L221.01,240.13L222.4,238.04L223.78,244.31L225.16,245.63L226.54,247.13L227.92,242.6L229.3,229.98L230.68,225.18L233.45,227.72L234.83,225.51L236.21,218.58L237.59,218.78L238.97,216.93L240.35,220.66L243.12,224.15L244.5,223.52L247.26,207.81L248.64,178.9L250.02,184.92L251.4,185.72L254.17,180.34L255.55,177.14L256.93,181.47L258.31,189.68L259.69,184.04L261.07,189.27L262.46,181.77L263.84,179.19L265.22,177.49L266.6,164.16L267.98,161.47L269.36,164.76L270.74,187.28L272.12,179.95L274.89,187.96L276.27,187.97L277.65,185.93L279.03,199.48L280.41,201.63L281.79,212.77L283.18,211.65L284.56,212.23L285.94,206.61L287.32,210.37L288.7,211.08L290.08,200.5L291.46,196.95L292.84,188.06L294.23,192.43L295.61,192.78L298.37,191.05L299.75,189.49L301.13,156.48L302.51,149.7L306.66,83.76L308.04,72.2L309.42,58.86L310.8,55.86L312.18,89.37L313.56,89.73L314.95,96.37L316.33,93.82L317.71,93.11L319.09,85.67L320.47,117.53L321.85,121.21L324.62,141.99L326,155.17L327.38,151.47L328.76,152.74L330.14,149.4L331.52,150.44L332.9,153.03L334.29,160.9L335.67,165.17L337.05,161.79L338.43,156.65L339.81,157.56L341.19,164.5L342.57,153.56L343.95,160.66L345.34,136.79L348.1,110.87L349.48,104.55L350.86,100.78L352.24,90.76L353.62,93.8L355.01,94.56L357.77,110.1L359.15,116.96L361.91,124.96L363.29,124.86L364.67,127.62L366.06,128.39L367.44,130.32L368.82,124.85L370.2,119.05L371.58,117.55L372.96,130.11L374.34,132.18L375.73,133.23L377.11,129.86L378.49,141.17L379.87,124.23L381.25,120.54L382.63,123.64L385.39,136L386.78,131.72L389.54,147.02L390.92,138.58L392.3,150.5L393.68,155.52L397.83,177.69L399.21,170.45L400.59,175.56L401.97,174.83L403.35,167.46L404.73,171.8L406.11,176.23L407.5,172.82L408.88,175.27L410.26,171.93L411.64,183.24L413.02,177.04L414.4,180.75L415.78,181.85L417.17,188.55L418.55,184.96L419.93,196.59L421.31,190.69L424.07,203.53L425.45,205.1L426.84,207.9L428.22,208.51L429.6,227.05L430.98,229.6L432.36,227.23L433.74,238.9L436.5,264.76L437.89,269.98L439.27,261.85L440.65,258.33L442.03,257.92L443.41,258.83L444.79,254.96L446.17,239.49L448.94,222.16L450.32,220.44L451.7,227.83L453.08,226.53L454.46,236.25L455.84,252.39L457.22,247L458.61,249.41L462.75,234.67L464.13,233.48L466.89,207.79L468.28,207.34L471.04,226.54L472.42,229.89L475.18,234.34L476.56,230.7L479.33,232.18L480.71,245.2L482.09,241.92L483.47,236.02L484.85,233.96L486.23,233.7L489,230.31L490.38,230.92L493.14,213.51L494.52,211.5L495.9,217.41L497.28,218.93L498.66,209.64L500.05,212.61L501.43,216.78L502.81,252.96L504.19,273.61L505.57,278.27L506.95,288.05L508.33,282.07L509.72,275.42L511.1,281.47L512.48,284.77L513.86,282.92L515.24,277.33L516.62,286.92L518,289.65L519.39,286.62L520.77,275.89L522.15,278.14L523.53,272.5L524.91,283.29L530.44,289.43L531.82,298.13L533.2,299.56L534.58,304L535.96,302.59L537.34,299.61L538.72,299.69L540,281.06" style="vector-effect: none; fill: none; stroke: rgb(99, 110, 250); stroke-opacity: 1; stroke-width: 2px; opacity: 1;"/></g><g class="points"/><g class="text"/></g></g></g><g class="overplot"/><path class="xlines-above crisp" d="M0,0" style="fill: none;"/><path class="ylines-above crisp" d="M0,0" style="fill: none;"/><g class="overlines-above"/><g class="xaxislayer-above"><g class="xtick"><text text-anchor="middle" x="0" y="433" transform="translate(117.3,0)" style="font-family: 'Open Sans', verdana, arial, sans-serif; font-size: 12px; fill: rgb(42, 63, 95); fill-opacity: 1; white-space: pre; opacity: 1;">Sep 2022</text></g><g class="xtick"><text text-anchor="middle" x="0" y="433" style="font-family: 'Open Sans', verdana, arial, sans-serif; font-size: 12px; fill: rgb(42, 63, 95); fill-opacity: 1; white-space: pre; opacity: 1;" transform="translate(201.56,0)">Nov 2022</text></g><g class="xtick"><text text-anchor="middle" x="0" y="433" style="font-family: 'Open Sans', verdana, arial, sans-serif; font-size: 12px; fill: rgb(42, 63, 95); fill-opacity: 1; white-space: pre; opacity: 1;" transform="translate(285.82,0)">Jan 2023</text></g><g class="xtick"><text text-anchor="middle" x="0" y="433" style="font-family: 'Open Sans', verdana, arial, sans-serif; font-size: 12px; fill: rgb(42, 63, 95); fill-opacity: 1; white-space: pre; opacity: 1;" transform="translate(367.32,0)">Mar 2023</text></g><g class="xtick"><text text-anchor="middle" x="0" y="433" style="font-family: 'Open Sans', verdana, arial, sans-serif; font-size: 12px; fill: rgb(42, 63, 95); fill-opacity: 1; white-space: pre; opacity: 1;" transform="translate(451.58,0)">May 2023</text></g><g class="xtick"><text text-anchor="middle" x="0" y="433" style="font-family: 'Open Sans', verdana, arial, sans-serif; font-size: 12px; fill: rgb(42, 63, 95); fill-opacity: 1; white-space: pre; opacity: 1;" transform="translate(535.8399999999999,0)">Jul 2023</text></g></g><g class="yaxislayer-above"><g class="ytick"><text text-anchor="end" x="79" y="4.199999999999999" transform="translate(0,373.12)" style="font-family: 'Open Sans', verdana, arial, sans-serif; font-size: 12px; fill: rgb(42, 63, 95); fill-opacity: 1; white-space: pre; opacity: 1;">$0</text></g><g class="ytick"><text text-anchor="end" x="79" y="4.199999999999999" style="font-family: 'Open Sans', verdana, arial, sans-serif; font-size: 12px; fill: rgb(42, 63, 95); fill-opacity: 1; white-space: pre; opacity: 1;" transform="translate(0,317.4)">$10M</text></g><g class="ytick"><text text-anchor="end" x="79" y="4.199999999999999" style="font-family: 'Open Sans', verdana, arial, sans-serif; font-size: 12px; fill: rgb(42, 63, 95); fill-opacity: 1; white-space: pre; opacity: 1;" transform="translate(0,261.69)">$20M</text></g><g class="ytick"><text text-anchor="end" x="79" y="4.199999999999999" style="font-family: 'Open Sans', verdana, arial, sans-serif; font-size: 12px; fill: rgb(42, 63, 95); fill-opacity: 1; white-space: pre; opacity: 1;" transform="translate(0,205.97)">$30M</text></g><g class="ytick"><text text-anchor="end" x="79" y="4.199999999999999" style="font-family: 'Open Sans', verdana, arial, sans-serif; font-size: 12px; fill: rgb(42, 63, 95); fill-opacity: 1; white-space: pre; opacity: 1;" transform="translate(0,150.25)">$40M</text></g></g><g class="overaxes-above"/></g></g><g class="polarlayer"/><g class="smithlayer"/><g class="ternarylayer"/><g class="geolayer"/><g class="funnelarealayer"/><g class="pielayer"/><g class="iciclelayer"/><g class="treemaplayer"/><g class="sunburstlayer"/><g class="glimages"/><defs id="topdefs-3b6af3"><g class="clips"/></defs><g class="layer-above"><g class="imagelayer"/><g class="shapelayer"/></g><g class="infolayer"><g class="g-gtitle"><text class="gtitle" x="35" y="50" text-anchor="start" dy="0em" style="font-family: 'Open Sans', verdana, arial, sans-serif; font-size: 17px; fill: rgb(42, 63, 95); opacity: 1; font-weight: normal; white-space: pre;"><tspan class="line" dy="0em" x="35" y="50">Stargate</tspan><tspan class="line" dy="1.3em" x="35" y="50">​<tspan style="font-size:70%" dy="-0.6em">Cumulative Net Flows since Program Announcement, Until Program End + 30 Days</tspan><tspan dy="0.42em">​</tspan></tspan></text></g><g class="g-xtitle"><text class="xtitle" x="350" y="460.3" text-anchor="middle" style="font-family: 'Open Sans', verdana, arial, sans-serif; font-size: 14px; fill: rgb(42, 63, 95); opacity: 1; font-weight: normal; white-space: pre;">Day</text></g><g class="g-ytitle"><text class="ytitle" transform="rotate(-90,24.668750000000003,260)" x="24.668750000000003" y="260" text-anchor="middle" style="font-family: 'Open Sans', verdana, arial, sans-serif; font-size: 14px; fill: rgb(42, 63, 95); opacity: 1; font-weight: normal; white-space: pre;">Cumulative Net Flows (USD)</text></g></g></svg>