<svg class="main-svg" xmlns="http://www.w3.org/2000/svg" xmlns:xlink="http://www.w3.org/1999/xlink" width="700" height="500" style="" viewBox="0 0 700 500"><rect x="0" y="0" width="700" height="500" style="fill: rgb(255, 255, 255); fill-opacity: 1;"/><defs id="defs-06912d"><g class="clips"><clipPath id="clip06912dxyplot" class="plotclip"><rect width="540" height="320"/></clipPath><clipPath class="axesclip" id="clip06912dx"><rect x="80" y="0" width="540" height="500"/></clipPath><clipPath class="axesclip" id="clip06912dy"><rect x="0" y="100" width="700" height="320"/></clipPath><clipPath class="axesclip" id="clip06912dxy"><rect x="80" y="100" width="540" height="320"/></clipPath></g><g class="gradients"/><g class="patterns"/></defs><g class="bglayer"><rect class="bg" x="80" y="100" width="540" height="320" style="fill: rgb(229, 236, 246); fill-opacity: 1; stroke-width: 0;"/></g><g class="layer-below"><g class="imagelayer"/><g class="shapelayer"/></g><g class="cartesianlayer"><g class="subplot xy"><g class="layer-subplot"><g class="shapelayer"/><g class="imagelayer"/></g><g class="minor-gridlayer"><g class="x"/><g class="y"/></g><g class="gridlayer"><g class="x"><path class="xgrid crisp" transform="translate(128.29,0)" d="M0,100v320" style="stroke: rgb(255, 255, 255); stroke-opacity: 1; stroke-width: 1px;"/><path class="xgrid crisp" transform="translate(217.56,0)" d="M0,100v320" style="stroke: rgb(255, 255, 255); stroke-opacity: 1; stroke-width: 1px;"/><path class="xgrid crisp" transform="translate(303.9,0)" d="M0,100v320" style="stroke: rgb(255, 255, 255); stroke-opacity: 1; stroke-width: 1px;"/><path class="xgrid crisp" transform="translate(393.17,0)" d="M0,100v320" style="stroke: rgb(255, 255, 255); stroke-opacity: 1; stroke-width: 1px;"/><path class="xgrid crisp" transform="translate(482.44,0)" d="M0,100v320" style="stroke: rgb(255, 255, 255); stroke-opacity: 1; stroke-width: 1px;"/><path class="xgrid crisp" transform="translate(573.1700000000001,0)" d="M0,100v320" style="stroke: rgb(255, 255, 255); stroke-opacity: 1; stroke-width: 1px;"/></g><g class="y"><path class="ygrid crisp" transform="translate(0,314.83000000000004)" d="M80,0h540" style="stroke: rgb(255, 255, 255); stroke-opacity: 1; stroke-width: 1px;"/><path class="ygrid crisp" transform="translate(0,250.51)" d="M80,0h540" style="stroke: rgb(255, 255, 255); stroke-opacity: 1; stroke-width: 1px;"/><path class="ygrid crisp" transform="translate(0,186.19)" d="M80,0h540" style="stroke: rgb(255, 255, 255); stroke-opacity: 1; stroke-width: 1px;"/><path class="ygrid crisp" transform="translate(0,121.87)" d="M80,0h540" style="stroke: rgb(255, 255, 255); stroke-opacity: 1; stroke-width: 1px;"/></g></g><g class="zerolinelayer"><path class="yzl zl crisp" transform="translate(0,379.15)" d="M80,0h540" style="stroke: rgb(255, 255, 255); stroke-opacity: 1; stroke-width: 2px;"/></g><path class="xlines-below"/><path class="ylines-below"/><g class="overlines-below"/><g class="xaxislayer-below"/><g class="yaxislayer-below"/><g class="overaxes-below"/><g class="plot" transform="translate(80,100)" clip-path="url(#clip06912dxyplot)"><g class="scatterlayer mlayer"><g class="trace scatter traceb659c0" style="stroke-miterlimit: 2;"><g class="fills"><g><path class="js-fill" d="M540,279.15L0,279.15L0,278.98L1.46,258L2.93,249.7L4.39,244.22L5.85,250.17L7.32,238.16L8.78,236.59L10.24,239L11.71,234.8L14.63,218.11L16.1,196.53L17.56,197.26L19.02,193.17L20.49,192.56L21.95,196.79L23.41,200.24L24.88,200.11L27.8,197.22L29.27,196.48L30.73,196.37L32.2,199.67L35.12,198.84L36.59,197.69L38.05,202.35L39.51,191.62L40.98,187.1L42.44,185.91L43.9,182.26L45.37,176.52L48.29,168.49L49.76,172.38L51.22,173.09L52.68,168.37L55.61,158.87L57.07,163.26L58.54,163.24L60,180.39L61.46,198.14L62.93,193.75L65.85,193.24L67.32,194.57L70.24,192.14L71.71,192.69L73.17,195.13L74.63,193.23L76.1,193.08L77.56,196.9L79.02,196.17L80.49,193.24L83.41,187.05L84.88,187.23L86.34,185.93L87.8,186.52L89.27,189.63L90.73,188.1L93.66,181.94L95.12,185.72L96.59,190.09L98.05,189.64L99.51,191.84L100.98,199.16L102.44,203.27L103.9,201.89L105.37,200.78L106.83,195.46L108.29,196.36L109.76,194.59L111.22,189.92L112.68,191.14L115.61,197.12L117.07,196.32L118.54,196.05L120,196.69L121.46,193.88L122.93,194.44L124.39,183.2L125.85,183.45L127.32,184.41L128.78,183.93L131.71,181.56L133.17,183.19L139.02,179.15L140.49,175.91L144.88,173.48L146.34,185.92L147.8,186.65L149.27,181.97L150.73,179.67L152.2,179.7L153.66,174.67L155.12,173.8L158.05,149.45L159.51,144.27L160.98,141.73L162.44,143.29L163.9,149.22L165.37,162.38L166.83,156.49L168.29,167.89L169.76,176.14L171.22,159.67L172.68,167.53L174.15,166.17L175.61,163.33L177.07,162.71L180,155.81L181.46,183.59L182.93,184.32L184.39,178.09L185.85,171.04L187.32,172.11L190.24,167.4L191.71,169.62L193.17,129.69L194.63,132.05L196.1,133.45L197.56,139.53L199.02,131.07L200.49,135.92L201.95,120L203.41,113.32L204.88,99.07L206.34,104.97L207.8,90.72L209.27,89.61L210.73,93.06L212.2,76.67L215.12,82.79L216.59,80.17L218.05,96.53L219.51,85.24L220.98,78.63L222.44,79.34L223.9,79.94L225.37,73.82L226.83,74.86L228.29,74.55L231.22,74.06L232.68,69.45L234.15,109.02L235.61,109L237.07,100.63L238.54,107.56L240,112.64L241.46,111.43L242.93,106.5L244.39,98.05L245.85,93.51L247.32,91.64L248.78,56.28L250.24,68.11L251.71,68.61L253.17,61.91L254.63,51.33L256.1,52.75L257.56,53.86L259.02,53.38L260.49,52.35L261.95,53.53L263.41,52.83L264.88,54.21L266.34,33.5L267.8,28.94L269.27,27.83L270.73,35.63L272.2,37.91L273.66,38.42L276.59,36.25L278.05,26.34L279.51,21.8L280.98,30.28L282.44,31.06L283.9,18.74L285.37,16.99L286.83,17.12L288.29,16L289.76,23.27L292.68,26.43L294.15,33.69L295.61,32.02L297.07,32.32L298.54,41.44L300,41.92L302.93,41.92L304.39,40.85L305.85,31.56L307.32,30.71L308.78,29.24L310.24,29.77L313.17,29.04L314.63,32.44L316.1,23.24L317.56,24.26L319.02,25.89L320.49,29.14L321.95,28.26L323.41,39.49L324.88,39.98L326.34,39.2L329.27,38.83L330.73,41.82L333.66,42.92L335.12,44.94L336.59,48.4L338.05,48.88L340.98,48.9L342.44,51.36L343.9,50.28L345.37,51.85L348.29,71.09L349.76,72.75L351.22,74.32L352.68,69.51L354.15,50.93L355.61,74.05L357.07,89.15L358.54,88.7L360,83.28L361.46,82.45L364.39,81.27L365.85,81.8L368.78,82.71L370.24,81.33L371.71,84.42L373.17,98.48L374.63,100.18L376.1,97.24L377.56,102.7L379.02,104.56L381.95,100.9L383.41,120.69L384.88,136.02L386.34,136.52L387.8,136.54L389.27,149.96L390.73,142.56L392.2,142.79L393.66,144.55L395.12,143.77L396.59,145.89L398.05,144.63L399.51,144.92L400.98,154.27L402.44,154.12L403.9,164.44L405.37,163.34L406.83,164.04L409.76,163.06L411.22,151.84L412.68,151.96L414.15,150.07L415.61,136.76L417.07,136.23L418.54,137.29L420,139.64L421.46,140.11L422.93,142.68L424.39,149.26L425.85,147.39L427.32,147.23L428.78,150.5L430.24,154.77L431.71,163.1L434.63,166.06L436.1,165.55L437.56,162.65L439.02,165.17L440.49,168.8L441.95,168.61L443.41,168.24L444.88,166.31L446.34,170.96L447.8,172.01L450.73,171.11L452.2,169.56L453.66,173.9L455.12,173.69L458.05,173.93L459.51,174.18L460.98,175.16L462.44,173.9L463.9,190.01L465.37,190.05L466.83,190.73L468.29,188.96L469.76,190.81L471.22,188.95L472.68,189.38L474.15,188.03L475.61,189.23L477.07,189.38L478.54,189.54L480,196.92L481.46,196.77L482.93,194.81L484.39,195.11L485.85,193.87L487.32,195.98L488.78,216.95L491.71,216.64L493.17,218.52L496.1,219.27L497.56,219.26L499.02,219.12L500.49,216.68L504.88,208.12L506.34,208.03L519.51,208.36L520.98,202.49L522.44,199.83L523.9,200.09L526.83,199.74L528.29,200.63L529.76,201.39L531.22,204.15L532.68,204.94L534.15,202.24L535.61,199.41L537.07,304L540,304" style="fill: rgb(99, 110, 250); fill-opacity: 0.5; stroke-width: 0;"/></g></g><g class="errorbars"/><g class="lines"><path class="js-line" d="M0,278.98L1.46,258L2.93,249.7L4.39,244.22L5.85,250.17L7.32,238.16L8.78,236.59L10.24,239L11.71,234.8L14.63,218.11L16.1,196.53L17.56,197.26L19.02,193.17L20.49,192.56L21.95,196.79L23.41,200.24L24.88,200.11L27.8,197.22L29.27,196.48L30.73,196.37L32.2,199.67L35.12,198.84L36.59,197.69L38.05,202.35L39.51,191.62L40.98,187.1L42.44,185.91L43.9,182.26L45.37,176.52L48.29,168.49L49.76,172.38L51.22,173.09L52.68,168.37L55.61,158.87L57.07,163.26L58.54,163.24L60,180.39L61.46,198.14L62.93,193.75L65.85,193.24L67.32,194.57L70.24,192.14L71.71,192.69L73.17,195.13L74.63,193.23L76.1,193.08L77.56,196.9L79.02,196.17L80.49,193.24L83.41,187.05L84.88,187.23L86.34,185.93L87.8,186.52L89.27,189.63L90.73,188.1L93.66,181.94L95.12,185.72L96.59,190.09L98.05,189.64L99.51,191.84L100.98,199.16L102.44,203.27L103.9,201.89L105.37,200.78L106.83,195.46L108.29,196.36L109.76,194.59L111.22,189.92L112.68,191.14L115.61,197.12L117.07,196.32L118.54,196.05L120,196.69L121.46,193.88L122.93,194.44L124.39,183.2L125.85,183.45L127.32,184.41L128.78,183.93L131.71,181.56L133.17,183.19L139.02,179.15L140.49,175.91L144.88,173.48L146.34,185.92L147.8,186.65L149.27,181.97L150.73,179.67L152.2,179.7L153.66,174.67L155.12,173.8L158.05,149.45L159.51,144.27L160.98,141.73L162.44,143.29L163.9,149.22L165.37,162.38L166.83,156.49L168.29,167.89L169.76,176.14L171.22,159.67L172.68,167.53L174.15,166.17L175.61,163.33L177.07,162.71L180,155.81L181.46,183.59L182.93,184.32L184.39,178.09L185.85,171.04L187.32,172.11L190.24,167.4L191.71,169.62L193.17,129.69L194.63,132.05L196.1,133.45L197.56,139.53L199.02,131.07L200.49,135.92L201.95,120L203.41,113.32L204.88,99.07L206.34,104.97L207.8,90.72L209.27,89.61L210.73,93.06L212.2,76.67L215.12,82.79L216.59,80.17L218.05,96.53L219.51,85.24L220.98,78.63L222.44,79.34L223.9,79.94L225.37,73.82L226.83,74.86L228.29,74.55L231.22,74.06L232.68,69.45L234.15,109.02L235.61,109L237.07,100.63L238.54,107.56L240,112.64L241.46,111.43L242.93,106.5L244.39,98.05L245.85,93.51L247.32,91.64L248.78,56.28L250.24,68.11L251.71,68.61L253.17,61.91L254.63,51.33L256.1,52.75L257.56,53.86L259.02,53.38L260.49,52.35L261.95,53.53L263.41,52.83L264.88,54.21L266.34,33.5L267.8,28.94L269.27,27.83L270.73,35.63L272.2,37.91L273.66,38.42L276.59,36.25L278.05,26.34L279.51,21.8L280.98,30.28L282.44,31.06L283.9,18.74L285.37,16.99L286.83,17.12L288.29,16L289.76,23.27L292.68,26.43L294.15,33.69L295.61,32.02L297.07,32.32L298.54,41.44L300,41.92L302.93,41.92L304.39,40.85L305.85,31.56L307.32,30.71L308.78,29.24L310.24,29.77L313.17,29.04L314.63,32.44L316.1,23.24L317.56,24.26L319.02,25.89L320.49,29.14L321.95,28.26L323.41,39.49L324.88,39.98L326.34,39.2L329.27,38.83L330.73,41.82L333.66,42.92L335.12,44.94L336.59,48.4L338.05,48.88L340.98,48.9L342.44,51.36L343.9,50.28L345.37,51.85L348.29,71.09L349.76,72.75L351.22,74.32L352.68,69.51L354.15,50.93L355.61,74.05L357.07,89.15L358.54,88.7L360,83.28L361.46,82.45L364.39,81.27L365.85,81.8L368.78,82.71L370.24,81.33L371.71,84.42L373.17,98.48L374.63,100.18L376.1,97.24L377.56,102.7L379.02,104.56L381.95,100.9L383.41,120.69L384.88,136.02L386.34,136.52L387.8,136.54L389.27,149.96L390.73,142.56L392.2,142.79L393.66,144.55L395.12,143.77L396.59,145.89L398.05,144.63L399.51,144.92L400.98,154.27L402.44,154.12L403.9,164.44L405.37,163.34L406.83,164.04L409.76,163.06L411.22,151.84L412.68,151.96L414.15,150.07L415.61,136.76L417.07,136.23L418.54,137.29L420,139.64L421.46,140.11L422.93,142.68L424.39,149.26L425.85,147.39L427.32,147.23L428.78,150.5L430.24,154.77L431.71,163.1L434.63,166.06L436.1,165.55L437.56,162.65L439.02,165.17L440.49,168.8L441.95,168.61L443.41,168.24L444.88,166.31L446.34,170.96L447.8,172.01L450.73,171.11L452.2,169.56L453.66,173.9L455.12,173.69L458.05,173.93L459.51,174.18L460.98,175.16L462.44,173.9L463.9,190.01L465.37,190.05L466.83,190.73L468.29,188.96L469.76,190.81L471.22,188.95L472.68,189.38L474.15,188.03L475.61,189.23L477.07,189.38L478.54,189.54L480,196.92L481.46,196.77L482.93,194.81L484.39,195.11L485.85,193.87L487.32,195.98L488.78,216.95L491.71,216.64L493.17,218.52L496.1,219.27L497.56,219.26L499.02,219.12L500.49,216.68L504.88,208.12L506.34,208.03L519.51,208.36L520.98,202.49L522.44,199.83L523.9,200.09L526.83,199.74L528.29,200.63L529.76,201.39L531.22,204.15L532.68,204.94L534.15,202.24L535.61,199.41L537.07,304L540,304" style="vector-effect: none; fill: none; stroke: rgb(99, 110, 250); stroke-opacity: 1; stroke-width: 2px; opacity: 1;"/></g><g class="points"/><g class="text"/></g></g></g><g class="overplot"/><path class="xlines-above crisp" d="M0,0" style="fill: none;"/><path class="ylines-above crisp" d="M0,0" style="fill: none;"/><g class="overlines-above"/><g class="xaxislayer-above"><g class="xtick"><text text-anchor="middle" x="0" y="433" transform="translate(128.29,0)" style="font-family: 'Open Sans', verdana, arial, sans-serif; font-size: 12px; fill: rgb(42, 63, 95); fill-opacity: 1; white-space: pre; opacity: 1;">Nov 2022</text></g><g class="xtick"><text text-anchor="middle" x="0" y="433" style="font-family: 'Open Sans', verdana, arial, sans-serif; font-size: 12px; fill: rgb(42, 63, 95); fill-opacity: 1; white-space: pre; opacity: 1;" transform="translate(217.56,0)">Jan 2023</text></g><g class="xtick"><text text-anchor="middle" x="0" y="433" style="font-family: 'Open Sans', verdana, arial, sans-serif; font-size: 12px; fill: rgb(42, 63, 95); fill-opacity: 1; white-space: pre; opacity: 1;" transform="translate(303.9,0)">Mar 2023</text></g><g class="xtick"><text text-anchor="middle" x="0" y="433" style="font-family: 'Open Sans', verdana, arial, sans-serif; font-size: 12px; fill: rgb(42, 63, 95); fill-opacity: 1; white-space: pre; opacity: 1;" transform="translate(393.17,0)">May 2023</text></g><g class="xtick"><text text-anchor="middle" x="0" y="433" style="font-family: 'Open Sans', verdana, arial, sans-serif; font-size: 12px; fill: rgb(42, 63, 95); fill-opacity: 1; white-space: pre; opacity: 1;" transform="translate(482.44,0)">Jul 2023</text></g><g class="xtick"><text text-anchor="middle" x="0" y="433" style="font-family: 'Open Sans', verdana, arial, sans-serif; font-size: 12px; fill: rgb(42, 63, 95); fill-opacity: 1; white-space: pre; opacity: 1;" transform="translate(573.1700000000001,0)">Sep 2023</text></g></g><g class="yaxislayer-above"><g class="ytick"><text text-anchor="end" x="79" y="4.199999999999999" transform="translate(0,379.15)" style="font-family: 'Open Sans', verdana, arial, sans-serif; font-size: 12px; fill: rgb(42, 63, 95); fill-opacity: 1; white-space: pre; opacity: 1;">$0</text></g><g class="ytick"><text text-anchor="end" x="79" y="4.199999999999999" style="font-family: 'Open Sans', verdana, arial, sans-serif; font-size: 12px; fill: rgb(42, 63, 95); fill-opacity: 1; white-space: pre; opacity: 1;" transform="translate(0,314.83000000000004)">$10M</text></g><g class="ytick"><text text-anchor="end" x="79" y="4.199999999999999" style="font-family: 'Open Sans', verdana, arial, sans-serif; font-size: 12px; fill: rgb(42, 63, 95); fill-opacity: 1; white-space: pre; opacity: 1;" transform="translate(0,250.51)">$20M</text></g><g class="ytick"><text text-anchor="end" x="79" y="4.199999999999999" style="font-family: 'Open Sans', verdana, arial, sans-serif; font-size: 12px; fill: rgb(42, 63, 95); fill-opacity: 1; white-space: pre; opacity: 1;" transform="translate(0,186.19)">$30M</text></g><g class="ytick"><text text-anchor="end" x="79" y="4.199999999999999" style="font-family: 'Open Sans', verdana, arial, sans-serif; font-size: 12px; fill: rgb(42, 63, 95); fill-opacity: 1; white-space: pre; opacity: 1;" transform="translate(0,121.87)">$40M</text></g></g><g class="overaxes-above"/></g></g><g class="polarlayer"/><g class="smithlayer"/><g class="ternarylayer"/><g class="geolayer"/><g class="funnelarealayer"/><g class="pielayer"/><g class="iciclelayer"/><g class="treemaplayer"/><g class="sunburstlayer"/><g class="glimages"/><defs id="topdefs-06912d"><g class="clips"/></defs><g class="layer-above"><g class="imagelayer"/><g class="shapelayer"/></g><g class="infolayer"><g class="g-gtitle"><text class="gtitle" x="35" y="50" text-anchor="start" dy="0em" style="font-family: 'Open Sans', verdana, arial, sans-serif; font-size: 17px; fill: rgb(42, 63, 95); opacity: 1; font-weight: normal; white-space: pre;"><tspan class="line" dy="0em" x="35" y="50">Beethoven X</tspan><tspan class="line" dy="1.3em" x="35" y="50">​<tspan style="font-size:70%" dy="-0.6em">Cumulative Net Flows since Program Announcement, Until Program End + 30 Days</tspan><tspan dy="0.42em">​</tspan></tspan></text></g><g class="g-xtitle"><text class="xtitle" x="350" y="460.3" text-anchor="middle" style="font-family: 'Open Sans', verdana, arial, sans-serif; font-size: 14px; fill: rgb(42, 63, 95); opacity: 1; font-weight: normal; white-space: pre;">Day</text></g><g class="g-ytitle"><text class="ytitle" transform="rotate(-90,24.668750000000003,260)" x="24.668750000000003" y="260" text-anchor="middle" style="font-family: 'Open Sans', verdana, arial, sans-serif; font-size: 14px; fill: rgb(42, 63, 95); opacity: 1; font-weight: normal; white-space: pre;">Cumulative Net Flows (USD)</text></g></g></svg>