<svg class="main-svg" xmlns="http://www.w3.org/2000/svg" xmlns:xlink="http://www.w3.org/1999/xlink" width="700" height="500" style="" viewBox="0 0 700 500"><rect x="0" y="0" width="700" height="500" style="fill: rgb(255, 255, 255); fill-opacity: 1;"/><defs id="defs-3277e1"><g class="clips"><clipPath id="clip3277e1xyplot" class="plotclip"><rect width="540" height="320"/></clipPath><clipPath class="axesclip" id="clip3277e1x"><rect x="80" y="0" width="540" height="500"/></clipPath><clipPath class="axesclip" id="clip3277e1y"><rect x="0" y="100" width="700" height="320"/></clipPath><clipPath class="axesclip" id="clip3277e1xy"><rect x="80" y="100" width="540" height="320"/></clipPath></g><g class="gradients"/><g class="patterns"/></defs><g class="bglayer"><rect class="bg" x="80" y="100" width="540" height="320" style="fill: rgb(229, 236, 246); fill-opacity: 1; stroke-width: 0;"/></g><g class="layer-below"><g class="imagelayer"/><g class="shapelayer"/></g><g class="cartesianlayer"><g class="subplot xy"><g class="layer-subplot"><g class="shapelayer"/><g class="imagelayer"/></g><g class="minor-gridlayer"><g class="x"/><g class="y"/></g><g class="gridlayer"><g class="x"><path class="xgrid crisp" transform="translate(152.82,0)" d="M0,100v320" style="stroke: rgb(255, 255, 255); stroke-opacity: 1; stroke-width: 1px;"/><path class="xgrid crisp" transform="translate(233.89,0)" d="M0,100v320" style="stroke: rgb(255, 255, 255); stroke-opacity: 1; stroke-width: 1px;"/><path class="xgrid crisp" transform="translate(317.71000000000004,0)" d="M0,100v320" style="stroke: rgb(255, 255, 255); stroke-opacity: 1; stroke-width: 1px;"/><path class="xgrid crisp" transform="translate(401.53,0)" d="M0,100v320" style="stroke: rgb(255, 255, 255); stroke-opacity: 1; stroke-width: 1px;"/><path class="xgrid crisp" transform="translate(486.72,0)" d="M0,100v320" style="stroke: rgb(255, 255, 255); stroke-opacity: 1; stroke-width: 1px;"/><path class="xgrid crisp" transform="translate(570.53,0)" d="M0,100v320" style="stroke: rgb(255, 255, 255); stroke-opacity: 1; stroke-width: 1px;"/></g><g class="y"><path class="ygrid crisp" transform="translate(0,344.72)" d="M80,0h540" style="stroke: rgb(255, 255, 255); stroke-opacity: 1; stroke-width: 1px;"/><path class="ygrid crisp" transform="translate(0,299.58000000000004)" d="M80,0h540" style="stroke: rgb(255, 255, 255); stroke-opacity: 1; stroke-width: 1px;"/><path class="ygrid crisp" transform="translate(0,254.45)" d="M80,0h540" style="stroke: rgb(255, 255, 255); stroke-opacity: 1; stroke-width: 1px;"/><path class="ygrid crisp" transform="translate(0,209.32)" d="M80,0h540" style="stroke: rgb(255, 255, 255); stroke-opacity: 1; stroke-width: 1px;"/><path class="ygrid crisp" transform="translate(0,164.19)" d="M80,0h540" style="stroke: rgb(255, 255, 255); stroke-opacity: 1; stroke-width: 1px;"/><path class="ygrid crisp" transform="translate(0,119.05)" d="M80,0h540" style="stroke: rgb(255, 255, 255); stroke-opacity: 1; stroke-width: 1px;"/></g></g><g class="zerolinelayer"><path class="yzl zl crisp" transform="translate(0,389.85)" d="M80,0h540" style="stroke: rgb(255, 255, 255); stroke-opacity: 1; stroke-width: 2px;"/></g><path class="xlines-below"/><path class="ylines-below"/><g class="overlines-below"/><g class="xaxislayer-below"/><g class="yaxislayer-below"/><g class="overaxes-below"/><g class="plot" transform="translate(80,100)" clip-path="url(#clip3277e1xyplot)"><g class="scatterlayer mlayer"><g class="trace scatter trace59a0cb" style="stroke-miterlimit: 2;"><g class="fills"><g><path class="js-fill" d="M540,289.85L0,289.85L0,289.91L4.12,284L5.5,283.71L15.11,282.93L16.49,282.74L20.61,280.46L21.98,281.38L34.35,281.93L35.73,281.86L37.1,281.04L38.47,282.86L43.97,282.15L45.34,282.18L48.09,284.62L49.47,284.45L52.21,283.3L53.59,283.28L57.71,282.87L59.08,280.94L60.46,281.44L61.83,280.93L63.21,279.86L64.58,279.78L68.7,279.25L70.08,277.07L72.82,277.11L74.2,274.52L75.57,274.13L76.95,277.06L78.32,275.07L79.69,275.44L82.44,274.99L83.82,275.5L85.19,275.5L86.56,273.51L87.94,272.1L89.31,272.57L90.69,270.22L92.06,270L94.81,267.06L96.18,266.9L98.93,268.07L100.31,266.24L101.68,265.06L103.05,249.99L104.43,251.39L105.8,251.15L107.18,246.48L108.55,246.19L109.92,246.57L111.3,240.76L112.67,273.82L114.05,275.59L115.42,272.89L116.79,260.79L118.17,260.83L119.54,260.07L120.92,254.48L122.29,253.9L123.66,225.33L125.04,224.3L126.41,216.47L127.79,217.11L129.16,208.72L130.53,209.01L131.91,183.4L133.28,183.79L136.03,182.43L137.4,172.01L138.78,171.99L140.15,173.03L141.53,158L142.9,158.05L145.65,155.96L147.02,149.54L148.4,138.39L149.77,137L152.52,136.34L153.89,133.42L155.27,133.38L156.64,125L159.39,125.49L160.76,119.62L163.51,117.1L164.89,113.71L166.26,119.06L167.63,119.23L169.01,122.45L170.38,119.66L171.76,101.74L173.13,94.41L174.5,94.69L175.88,88.35L177.25,63.95L178.63,65.22L181.37,40.06L182.75,38.37L186.87,37.29L188.24,38.67L189.62,38.77L190.99,42.12L192.37,19.05L193.74,16L195.11,16L196.49,27.29L199.24,27.79L200.61,26.87L203.36,27.03L204.73,26.66L207.48,57.15L208.85,53.01L211.6,53.13L212.98,51.12L215.73,52.58L217.1,52.35L218.47,59.29L219.85,58.4L221.22,57.61L222.6,216.28L223.97,68.82L225.34,67.41L233.59,65.83L234.96,57.4L236.34,55.74L237.71,60.37L239.08,48.18L240.46,49.36L241.83,49.67L243.21,53.32L245.95,52.93L247.33,54.58L248.7,52.41L250.08,52.09L255.57,52.08L256.95,53.19L263.82,52.77L265.19,50.65L266.56,52.39L267.94,67.42L269.31,80.52L270.69,83.07L272.06,83.81L273.44,77.18L274.81,50.59L276.18,81.09L277.56,101.6L278.93,101.53L280.31,93.98L281.68,92.83L284.43,89.48L285.8,89.78L288.55,89.27L289.92,87.42L291.3,92.66L292.67,112.34L294.05,112.59L295.42,108.36L296.79,116.32L298.17,117.13L300.92,112.06L302.29,138.29L303.66,159.11L305.04,159.24L306.41,159.49L307.79,178.05L309.16,167.61L310.53,167.61L311.91,169.58L313.28,168.98L314.66,172.3L316.03,173.27L317.4,172.76L318.78,186.6L320.15,188.33L321.53,203.11L327.02,199.82L328.4,200.18L329.77,183.67L331.15,180.64L332.52,155.86L333.89,155.89L336.64,157.59L338.02,157.89L339.39,161.63L340.76,161.67L342.14,167.65L343.51,166.92L346.26,172.61L347.63,189.91L349.01,191.69L350.38,196.54L351.76,196.86L353.13,191.77L354.5,195.46L355.88,201.44L357.25,201.68L358.63,203.57L360,202.29L361.37,206.94L364.12,208.37L365.5,209.28L366.87,209.14L368.24,214.01L369.62,214.15L370.99,215.42L373.74,216.07L375.11,217.12L376.49,216.84L377.86,239.88L383.36,240.62L384.73,238.98L387.48,238.5L388.85,239.76L390.23,239.38L391.6,240.62L392.98,245.8L394.35,247.9L397.1,249.2L398.47,248.81L399.85,249.58L401.22,279.87L402.6,279L403.97,279.17L410.84,279.22L412.21,275.7L414.96,267.38L416.34,266.96L420.46,266.57L421.83,267.2L430.08,267.36L431.45,265.06L432.82,269.13L434.2,269.43L438.32,269.55L439.69,271.28L441.07,275.26L442.44,275.3L447.94,275.3L449.31,275.23L461.68,275.74L463.05,279.42L467.18,279.45L468.55,282.85L469.92,286.15L471.3,285.93L472.67,295.6L474.05,295.78L478.17,296.02L479.54,294.22L480.92,294.26L482.29,292.46L490.53,292.82L491.91,294.56L493.28,294.65L494.66,298.15L501.53,298.38L502.9,300.2L504.27,303.21L505.65,303.25L508.4,303.83L509.77,303.84L515.27,304L516.64,298.71L529.01,299L530.38,297.76L534.5,297.48L535.88,298.15L540,298.86" style="fill: rgb(99, 110, 250); fill-opacity: 0.5; stroke-width: 0;"/></g></g><g class="errorbars"/><g class="lines"><path class="js-line" d="M0,289.91L4.12,284L5.5,283.71L15.11,282.93L16.49,282.74L20.61,280.46L21.98,281.38L34.35,281.93L35.73,281.86L37.1,281.04L38.47,282.86L43.97,282.15L45.34,282.18L48.09,284.62L49.47,284.45L52.21,283.3L53.59,283.28L57.71,282.87L59.08,280.94L60.46,281.44L61.83,280.93L63.21,279.86L64.58,279.78L68.7,279.25L70.08,277.07L72.82,277.11L74.2,274.52L75.57,274.13L76.95,277.06L78.32,275.07L79.69,275.44L82.44,274.99L83.82,275.5L85.19,275.5L86.56,273.51L87.94,272.1L89.31,272.57L90.69,270.22L92.06,270L94.81,267.06L96.18,266.9L98.93,268.07L100.31,266.24L101.68,265.06L103.05,249.99L104.43,251.39L105.8,251.15L107.18,246.48L108.55,246.19L109.92,246.57L111.3,240.76L112.67,273.82L114.05,275.59L115.42,272.89L116.79,260.79L118.17,260.83L119.54,260.07L120.92,254.48L122.29,253.9L123.66,225.33L125.04,224.3L126.41,216.47L127.79,217.11L129.16,208.72L130.53,209.01L131.91,183.4L133.28,183.79L136.03,182.43L137.4,172.01L138.78,171.99L140.15,173.03L141.53,158L142.9,158.05L145.65,155.96L147.02,149.54L148.4,138.39L149.77,137L152.52,136.34L153.89,133.42L155.27,133.38L156.64,125L159.39,125.49L160.76,119.62L163.51,117.1L164.89,113.71L166.26,119.06L167.63,119.23L169.01,122.45L170.38,119.66L171.76,101.74L173.13,94.41L174.5,94.69L175.88,88.35L177.25,63.95L178.63,65.22L181.37,40.06L182.75,38.37L186.87,37.29L188.24,38.67L189.62,38.77L190.99,42.12L192.37,19.05L193.74,16L195.11,16L196.49,27.29L199.24,27.79L200.61,26.87L203.36,27.03L204.73,26.66L207.48,57.15L208.85,53.01L211.6,53.13L212.98,51.12L215.73,52.58L217.1,52.35L218.47,59.29L219.85,58.4L221.22,57.61L222.6,216.28L223.97,68.82L225.34,67.41L233.59,65.83L234.96,57.4L236.34,55.74L237.71,60.37L239.08,48.18L240.46,49.36L241.83,49.67L243.21,53.32L245.95,52.93L247.33,54.58L248.7,52.41L250.08,52.09L255.57,52.08L256.95,53.19L263.82,52.77L265.19,50.65L266.56,52.39L267.94,67.42L269.31,80.52L270.69,83.07L272.06,83.81L273.44,77.18L274.81,50.59L276.18,81.09L277.56,101.6L278.93,101.53L280.31,93.98L281.68,92.83L284.43,89.48L285.8,89.78L288.55,89.27L289.92,87.42L291.3,92.66L292.67,112.34L294.05,112.59L295.42,108.36L296.79,116.32L298.17,117.13L300.92,112.06L302.29,138.29L303.66,159.11L305.04,159.24L306.41,159.49L307.79,178.05L309.16,167.61L310.53,167.61L311.91,169.58L313.28,168.98L314.66,172.3L316.03,173.27L317.4,172.76L318.78,186.6L320.15,188.33L321.53,203.11L327.02,199.82L328.4,200.18L329.77,183.67L331.15,180.64L332.52,155.86L333.89,155.89L336.64,157.59L338.02,157.89L339.39,161.63L340.76,161.67L342.14,167.65L343.51,166.92L346.26,172.61L347.63,189.91L349.01,191.69L350.38,196.54L351.76,196.86L353.13,191.77L354.5,195.46L355.88,201.44L357.25,201.68L358.63,203.57L360,202.29L361.37,206.94L364.12,208.37L365.5,209.28L366.87,209.14L368.24,214.01L369.62,214.15L370.99,215.42L373.74,216.07L375.11,217.12L376.49,216.84L377.86,239.88L383.36,240.62L384.73,238.98L387.48,238.5L388.85,239.76L390.23,239.38L391.6,240.62L392.98,245.8L394.35,247.9L397.1,249.2L398.47,248.81L399.85,249.58L401.22,279.87L402.6,279L403.97,279.17L410.84,279.22L412.21,275.7L414.96,267.38L416.34,266.96L420.46,266.57L421.83,267.2L430.08,267.36L431.45,265.06L432.82,269.13L434.2,269.43L438.32,269.55L439.69,271.28L441.07,275.26L442.44,275.3L447.94,275.3L449.31,275.23L461.68,275.74L463.05,279.42L467.18,279.45L468.55,282.85L469.92,286.15L471.3,285.93L472.67,295.6L474.05,295.78L478.17,296.02L479.54,294.22L480.92,294.26L482.29,292.46L490.53,292.82L491.91,294.56L493.28,294.65L494.66,298.15L501.53,298.38L502.9,300.2L504.27,303.21L505.65,303.25L508.4,303.83L509.77,303.84L515.27,304L516.64,298.71L529.01,299L530.38,297.76L534.5,297.48L535.88,298.15L540,298.86" style="vector-effect: none; fill: none; stroke: rgb(99, 110, 250); stroke-opacity: 1; stroke-width: 2px; opacity: 1;"/></g><g class="points"/><g class="text"/></g></g></g><g class="overplot"/><path class="xlines-above crisp" d="M0,0" style="fill: none;"/><path class="ylines-above crisp" d="M0,0" style="fill: none;"/><g class="overlines-above"/><g class="xaxislayer-above"><g class="xtick"><text text-anchor="middle" x="0" y="433" transform="translate(152.82,0)" style="font-family: 'Open Sans', verdana, arial, sans-serif; font-size: 12px; fill: rgb(42, 63, 95); fill-opacity: 1; white-space: pre; opacity: 1;">Jan 2023</text></g><g class="xtick"><text text-anchor="middle" x="0" y="433" style="font-family: 'Open Sans', verdana, arial, sans-serif; font-size: 12px; fill: rgb(42, 63, 95); fill-opacity: 1; white-space: pre; opacity: 1;" transform="translate(233.89,0)">Mar 2023</text></g><g class="xtick"><text text-anchor="middle" x="0" y="433" style="font-family: 'Open Sans', verdana, arial, sans-serif; font-size: 12px; fill: rgb(42, 63, 95); fill-opacity: 1; white-space: pre; opacity: 1;" transform="translate(317.71000000000004,0)">May 2023</text></g><g class="xtick"><text text-anchor="middle" x="0" y="433" style="font-family: 'Open Sans', verdana, arial, sans-serif; font-size: 12px; fill: rgb(42, 63, 95); fill-opacity: 1; white-space: pre; opacity: 1;" transform="translate(401.53,0)">Jul 2023</text></g><g class="xtick"><text text-anchor="middle" x="0" y="433" style="font-family: 'Open Sans', verdana, arial, sans-serif; font-size: 12px; fill: rgb(42, 63, 95); fill-opacity: 1; white-space: pre; opacity: 1;" transform="translate(486.72,0)">Sep 2023</text></g><g class="xtick"><text text-anchor="middle" x="0" y="433" style="font-family: 'Open Sans', verdana, arial, sans-serif; font-size: 12px; fill: rgb(42, 63, 95); fill-opacity: 1; white-space: pre; opacity: 1;" transform="translate(570.53,0)">Nov 2023</text></g></g><g class="yaxislayer-above"><g class="ytick"><text text-anchor="end" x="79" y="4.199999999999999" transform="translate(0,389.85)" style="font-family: 'Open Sans', verdana, arial, sans-serif; font-size: 12px; fill: rgb(42, 63, 95); fill-opacity: 1; white-space: pre; opacity: 1;">$0</text></g><g class="ytick"><text text-anchor="end" x="79" y="4.199999999999999" style="font-family: 'Open Sans', verdana, arial, sans-serif; font-size: 12px; fill: rgb(42, 63, 95); fill-opacity: 1; white-space: pre; opacity: 1;" transform="translate(0,344.72)">$5M</text></g><g class="ytick"><text text-anchor="end" x="79" y="4.199999999999999" style="font-family: 'Open Sans', verdana, arial, sans-serif; font-size: 12px; fill: rgb(42, 63, 95); fill-opacity: 1; white-space: pre; opacity: 1;" transform="translate(0,299.58000000000004)">$10M</text></g><g class="ytick"><text text-anchor="end" x="79" y="4.199999999999999" style="font-family: 'Open Sans', verdana, arial, sans-serif; font-size: 12px; fill: rgb(42, 63, 95); fill-opacity: 1; white-space: pre; opacity: 1;" transform="translate(0,254.45)">$15M</text></g><g class="ytick"><text text-anchor="end" x="79" y="4.199999999999999" style="font-family: 'Open Sans', verdana, arial, sans-serif; font-size: 12px; fill: rgb(42, 63, 95); fill-opacity: 1; white-space: pre; opacity: 1;" transform="translate(0,209.32)">$20M</text></g><g class="ytick"><text text-anchor="end" x="79" y="4.199999999999999" style="font-family: 'Open Sans', verdana, arial, sans-serif; font-size: 12px; fill: rgb(42, 63, 95); fill-opacity: 1; white-space: pre; opacity: 1;" transform="translate(0,164.19)">$25M</text></g><g class="ytick"><text text-anchor="end" x="79" y="4.199999999999999" style="font-family: 'Open Sans', verdana, arial, sans-serif; font-size: 12px; fill: rgb(42, 63, 95); fill-opacity: 1; white-space: pre; opacity: 1;" transform="translate(0,119.05)">$30M</text></g></g><g class="overaxes-above"/></g></g><g class="polarlayer"/><g class="smithlayer"/><g class="ternarylayer"/><g class="geolayer"/><g class="funnelarealayer"/><g class="pielayer"/><g class="iciclelayer"/><g class="treemaplayer"/><g class="sunburstlayer"/><g class="glimages"/><defs id="topdefs-3277e1"><g class="clips"/></defs><g class="layer-above"><g class="imagelayer"/><g class="shapelayer"/></g><g class="infolayer"><g class="g-gtitle"><text class="gtitle" x="35" y="50" text-anchor="start" dy="0em" style="font-family: 'Open Sans', verdana, arial, sans-serif; font-size: 17px; fill: rgb(42, 63, 95); opacity: 1; font-weight: normal; white-space: pre;"><tspan class="line" dy="0em" x="35" y="50">Rocket Pool - WETH/rETH: Beethoven X</tspan><tspan class="line" dy="1.3em" x="35" y="50">​<tspan style="font-size:70%" dy="-0.6em">Cumulative Net Flows since Program Announcement, Until Program End + 30 Days</tspan><tspan dy="0.42em">​</tspan></tspan></text></g><g class="g-xtitle"><text class="xtitle" x="350" y="460.3" text-anchor="middle" style="font-family: 'Open Sans', verdana, arial, sans-serif; font-size: 14px; fill: rgb(42, 63, 95); opacity: 1; font-weight: normal; white-space: pre;">Day</text></g><g class="g-ytitle"><text class="ytitle" transform="rotate(-90,24.668750000000003,260)" x="24.668750000000003" y="260" text-anchor="middle" style="font-family: 'Open Sans', verdana, arial, sans-serif; font-size: 14px; fill: rgb(42, 63, 95); opacity: 1; font-weight: normal; white-space: pre;">Cumulative Net Flows (USD)</text></g></g></svg>