<svg class="main-svg" xmlns="http://www.w3.org/2000/svg" xmlns:xlink="http://www.w3.org/1999/xlink" width="700" height="500" style="" viewBox="0 0 700 500"><rect x="0" y="0" width="700" height="500" style="fill: rgb(255, 255, 255); fill-opacity: 1;"/><defs id="defs-74f34f"><g class="clips"><clipPath id="clip74f34fxyplot" class="plotclip"><rect width="540" height="320"/></clipPath><clipPath class="axesclip" id="clip74f34fx"><rect x="80" y="0" width="540" height="500"/></clipPath><clipPath class="axesclip" id="clip74f34fy"><rect x="0" y="100" width="700" height="320"/></clipPath><clipPath class="axesclip" id="clip74f34fxy"><rect x="80" y="100" width="540" height="320"/></clipPath></g><g class="gradients"/><g class="patterns"/></defs><g class="bglayer"><rect class="bg" x="80" y="100" width="540" height="320" style="fill: rgb(229, 236, 246); fill-opacity: 1; stroke-width: 0;"/></g><g class="layer-below"><g class="imagelayer"/><g class="shapelayer"/></g><g class="cartesianlayer"><g class="subplot xy"><g class="layer-subplot"><g class="shapelayer"/><g class="imagelayer"/></g><g class="minor-gridlayer"><g class="x"/><g class="y"/></g><g class="gridlayer"><g class="x"><path class="xgrid crisp" transform="translate(152.2,0)" d="M0,100v320" style="stroke: rgb(255, 255, 255); stroke-opacity: 1; stroke-width: 1px;"/><path class="xgrid crisp" transform="translate(243.96,0)" d="M0,100v320" style="stroke: rgb(255, 255, 255); stroke-opacity: 1; stroke-width: 1px;"/><path class="xgrid crisp" transform="translate(335.71000000000004,0)" d="M0,100v320" style="stroke: rgb(255, 255, 255); stroke-opacity: 1; stroke-width: 1px;"/><path class="xgrid crisp" transform="translate(424.46,0)" d="M0,100v320" style="stroke: rgb(255, 255, 255); stroke-opacity: 1; stroke-width: 1px;"/><path class="xgrid crisp" transform="translate(516.21,0)" d="M0,100v320" style="stroke: rgb(255, 255, 255); stroke-opacity: 1; stroke-width: 1px;"/><path class="xgrid crisp" transform="translate(607.97,0)" d="M0,100v320" style="stroke: rgb(255, 255, 255); stroke-opacity: 1; stroke-width: 1px;"/></g><g class="y"><path class="ygrid crisp" transform="translate(0,413.54)" d="M80,0h540" style="stroke: rgb(255, 255, 255); stroke-opacity: 1; stroke-width: 1px;"/><path class="ygrid crisp" transform="translate(0,340.26)" d="M80,0h540" style="stroke: rgb(255, 255, 255); stroke-opacity: 1; stroke-width: 1px;"/><path class="ygrid crisp" transform="translate(0,303.62)" d="M80,0h540" style="stroke: rgb(255, 255, 255); stroke-opacity: 1; stroke-width: 1px;"/><path class="ygrid crisp" transform="translate(0,266.98)" d="M80,0h540" style="stroke: rgb(255, 255, 255); stroke-opacity: 1; stroke-width: 1px;"/><path class="ygrid crisp" transform="translate(0,230.33)" d="M80,0h540" style="stroke: rgb(255, 255, 255); stroke-opacity: 1; stroke-width: 1px;"/><path class="ygrid crisp" transform="translate(0,193.69)" d="M80,0h540" style="stroke: rgb(255, 255, 255); stroke-opacity: 1; stroke-width: 1px;"/><path class="ygrid crisp" transform="translate(0,157.05)" d="M80,0h540" style="stroke: rgb(255, 255, 255); stroke-opacity: 1; stroke-width: 1px;"/><path class="ygrid crisp" transform="translate(0,120.41)" d="M80,0h540" style="stroke: rgb(255, 255, 255); stroke-opacity: 1; stroke-width: 1px;"/></g></g><g class="zerolinelayer"><path class="yzl zl crisp" transform="translate(0,376.9)" d="M80,0h540" style="stroke: rgb(255, 255, 255); stroke-opacity: 1; stroke-width: 2px;"/></g><path class="xlines-below"/><path class="ylines-below"/><g class="overlines-below"/><g class="xaxislayer-below"/><g class="yaxislayer-below"/><g class="overaxes-below"/><g class="plot" transform="translate(80,100)" clip-path="url(#clip74f34fxyplot)"><g class="scatterlayer mlayer"><g class="trace scatter trace4c9706" style="stroke-miterlimit: 2;"><g class="fills"><g><path class="js-fill" d="M540,276.9L0,276.9L0,275.13L1.5,268.8L3.01,266.67L6.02,268.5L7.52,268.74L10.53,270.09L12.03,260.89L13.54,258.23L15.04,258.32L16.55,259L18.05,266.18L19.55,267.5L21.06,266.82L22.56,262.54L24.07,263.39L28.58,261.72L30.08,262.37L31.59,266.94L33.09,263.74L36.1,270.9L37.6,271.91L39.11,271.37L40.61,265.93L43.62,257.22L45.13,257.06L46.63,259.21L48.13,264.68L49.64,265.16L51.14,267.16L52.65,265.79L54.15,259.07L55.65,259.28L57.16,264.86L58.66,263.47L60.17,263.85L61.67,264.16L63.18,268.51L66.18,263.3L67.69,270.7L69.19,268.44L70.7,267.66L72.2,269.09L73.7,268.46L75.21,265.38L76.71,268.57L81.23,273.03L82.73,275.57L84.23,275.88L85.74,272.07L87.24,272.43L88.75,262.58L90.25,268.82L91.75,269.07L96.27,272.05L97.77,255.15L99.28,268.78L100.78,266.52L102.28,267.64L103.79,270.31L105.29,271.01L106.8,266.4L109.81,267.17L111.31,270.3L112.81,263.94L114.32,263.87L115.82,263.44L117.33,263.79L118.83,260.22L120.33,270.13L121.84,269.79L123.34,268.32L124.85,273.54L126.35,274.05L127.86,273.7L129.36,275.68L132.37,284.44L133.87,281.99L136.88,279.43L138.38,276L139.89,275.52L141.39,279.13L144.4,272.67L145.91,270.3L148.91,274.05L150.42,274.33L153.43,278.29L154.93,279L156.43,275.08L157.94,274.17L160.95,267.26L162.45,276.21L163.96,274.49L165.46,275.68L166.96,271.33L168.47,273.41L169.97,265.86L171.48,268.21L172.98,275.13L174.48,262.94L175.99,266.38L177.49,262.91L179,261.27L180.5,254.04L182.01,254.22L183.51,262.84L185.01,261.29L186.52,260.84L188.02,259.29L189.53,260.4L191.03,254.96L192.53,255.29L194.04,255.88L195.54,253.86L197.05,246.67L198.55,246.61L200.06,263L201.56,255.83L203.06,259.32L204.57,256.64L206.07,261.09L207.58,271.24L209.08,255.33L210.58,257.14L212.09,245.92L213.59,247.21L216.6,254.06L218.11,249.45L222.62,241.36L224.12,242.49L225.63,259.61L227.13,263.97L231.64,271.76L233.15,265.83L234.65,266.14L236.16,270.1L237.66,266.43L239.16,268.09L240.67,265.49L242.17,266.82L243.68,264.74L245.18,269.78L246.69,266.35L248.19,269.14L249.69,269.7L251.2,268.84L252.7,263.22L254.21,268.26L255.71,268.42L257.21,275.65L258.72,272.24L260.22,273.53L261.73,269.2L263.23,267.38L264.74,260.08L266.24,259.62L267.74,261.22L269.25,256.13L270.75,255.32L272.26,257.73L273.76,261.98L275.26,258.38L278.27,261.84L279.78,264.79L282.79,263.3L284.29,263.56L285.79,256.34L287.3,260.9L288.8,264.88L290.31,254.44L291.81,252.88L293.31,261.72L296.32,273.23L297.83,268.47L299.33,275.71L300.84,265.32L302.34,281.94L303.84,283.85L306.85,279.03L308.36,282.99L309.86,283.21L311.36,282.6L312.87,281.43L314.37,277.89L315.88,277.26L317.38,274.6L318.89,270.55L320.39,247.66L321.89,274.74L323.4,275.69L324.9,274.71L326.41,275.85L327.91,275.15L329.42,276.95L330.92,280.5L332.42,281.23L335.43,277.3L336.94,277.13L338.44,272.37L339.94,276.98L341.45,292.1L342.95,270.07L344.46,270.77L345.96,273.62L347.47,273.9L348.97,268.67L350.47,269.2L351.98,278.08L353.48,277.08L354.99,295.71L357.99,297.49L359.5,294.33L361,298.91L362.51,298.87L367.02,291.65L368.52,294.91L370.03,296.04L371.53,298.49L373.04,297.16L374.54,300.96L376.04,298.46L377.55,292.56L379.05,291.9L380.56,300.07L382.06,300.96L383.57,302.81L385.07,300.36L386.57,301.95L388.08,298.08L389.58,301.75L391.09,295.59L392.59,301.97L394.09,302.71L395.6,302.42L397.1,301.89L398.61,295.69L400.11,295.35L401.62,292.65L403.12,301.35L404.62,304L406.13,302.91L407.63,299.94L409.14,298.13L410.64,300.18L412.14,296.09L413.65,300.6L415.15,301.65L416.66,297.07L418.16,297.67L419.67,295.54L421.17,294.05L422.67,286.95L425.68,297.68L427.19,288.62L428.69,288.67L430.19,291.25L431.7,301.43L433.2,300.4L436.21,303.72L437.72,301.4L439.22,301.75L440.72,300.96L442.23,302.42L443.73,301.8L445.24,301.2L446.74,111.52L448.25,106.95L449.75,120.23L454.26,116.41L455.77,116.77L457.27,122.05L458.77,120.28L460.28,107.4L461.78,110.24L463.29,107.88L464.79,97.69L467.8,90.69L469.3,95.73L470.81,88.99L472.31,89.21L473.82,87.28L475.32,78.58L476.82,68.74L478.33,65.42L479.83,57.79L481.34,58.58L482.84,57.21L484.35,50.6L487.35,41.44L488.86,27.36L491.87,25.18L493.37,20.02L494.87,23.8L496.38,16L499.39,24.85L500.89,18.03L502.4,26.88L503.9,30.14L505.4,27.53L506.91,27.63L509.92,27.93L511.42,30.64L512.92,55.32L514.43,50.75L515.93,54.82L517.44,47.07L518.94,52.89L520.45,62.24L523.45,55.02L524.96,66.74L526.46,72.97L527.97,71.85L529.47,71.35L530.97,74.65L532.48,84.34L533.98,85.71L535.49,86.93L536.99,85.47L540,79.25" style="fill: rgb(99, 110, 250); fill-opacity: 0.5; stroke-width: 0;"/></g></g><g class="errorbars"/><g class="lines"><path class="js-line" d="M0,275.13L1.5,268.8L3.01,266.67L6.02,268.5L7.52,268.74L10.53,270.09L12.03,260.89L13.54,258.23L15.04,258.32L16.55,259L18.05,266.18L19.55,267.5L21.06,266.82L22.56,262.54L24.07,263.39L28.58,261.72L30.08,262.37L31.59,266.94L33.09,263.74L36.1,270.9L37.6,271.91L39.11,271.37L40.61,265.93L43.62,257.22L45.13,257.06L46.63,259.21L48.13,264.68L49.64,265.16L51.14,267.16L52.65,265.79L54.15,259.07L55.65,259.28L57.16,264.86L58.66,263.47L60.17,263.85L61.67,264.16L63.18,268.51L66.18,263.3L67.69,270.7L69.19,268.44L70.7,267.66L72.2,269.09L73.7,268.46L75.21,265.38L76.71,268.57L81.23,273.03L82.73,275.57L84.23,275.88L85.74,272.07L87.24,272.43L88.75,262.58L90.25,268.82L91.75,269.07L96.27,272.05L97.77,255.15L99.28,268.78L100.78,266.52L102.28,267.64L103.79,270.31L105.29,271.01L106.8,266.4L109.81,267.17L111.31,270.3L112.81,263.94L114.32,263.87L115.82,263.44L117.33,263.79L118.83,260.22L120.33,270.13L121.84,269.79L123.34,268.32L124.85,273.54L126.35,274.05L127.86,273.7L129.36,275.68L132.37,284.44L133.87,281.99L136.88,279.43L138.38,276L139.89,275.52L141.39,279.13L144.4,272.67L145.91,270.3L148.91,274.05L150.42,274.33L153.43,278.29L154.93,279L156.43,275.08L157.94,274.17L160.95,267.26L162.45,276.21L163.96,274.49L165.46,275.68L166.96,271.33L168.47,273.41L169.97,265.86L171.48,268.21L172.98,275.13L174.48,262.94L175.99,266.38L177.49,262.91L179,261.27L180.5,254.04L182.01,254.22L183.51,262.84L185.01,261.29L186.52,260.84L188.02,259.29L189.53,260.4L191.03,254.96L192.53,255.29L194.04,255.88L195.54,253.86L197.05,246.67L198.55,246.61L200.06,263L201.56,255.83L203.06,259.32L204.57,256.64L206.07,261.09L207.58,271.24L209.08,255.33L210.58,257.14L212.09,245.92L213.59,247.21L216.6,254.06L218.11,249.45L222.62,241.36L224.12,242.49L225.63,259.61L227.13,263.97L231.64,271.76L233.15,265.83L234.65,266.14L236.16,270.1L237.66,266.43L239.16,268.09L240.67,265.49L242.17,266.82L243.68,264.74L245.18,269.78L246.69,266.35L248.19,269.14L249.69,269.7L251.2,268.84L252.7,263.22L254.21,268.26L255.71,268.42L257.21,275.65L258.72,272.24L260.22,273.53L261.73,269.2L263.23,267.38L264.74,260.08L266.24,259.62L267.74,261.22L269.25,256.13L270.75,255.32L272.26,257.73L273.76,261.98L275.26,258.38L278.27,261.84L279.78,264.79L282.79,263.3L284.29,263.56L285.79,256.34L287.3,260.9L288.8,264.88L290.31,254.44L291.81,252.88L293.31,261.72L296.32,273.23L297.83,268.47L299.33,275.71L300.84,265.32L302.34,281.94L303.84,283.85L306.85,279.03L308.36,282.99L309.86,283.21L311.36,282.6L312.87,281.43L314.37,277.89L315.88,277.26L317.38,274.6L318.89,270.55L320.39,247.66L321.89,274.74L323.4,275.69L324.9,274.71L326.41,275.85L327.91,275.15L329.42,276.95L330.92,280.5L332.42,281.23L335.43,277.3L336.94,277.13L338.44,272.37L339.94,276.98L341.45,292.1L342.95,270.07L344.46,270.77L345.96,273.62L347.47,273.9L348.97,268.67L350.47,269.2L351.98,278.08L353.48,277.08L354.99,295.71L357.99,297.49L359.5,294.33L361,298.91L362.51,298.87L367.02,291.65L368.52,294.91L370.03,296.04L371.53,298.49L373.04,297.16L374.54,300.96L376.04,298.46L377.55,292.56L379.05,291.9L380.56,300.07L382.06,300.96L383.57,302.81L385.07,300.36L386.57,301.95L388.08,298.08L389.58,301.75L391.09,295.59L392.59,301.97L394.09,302.71L395.6,302.42L397.1,301.89L398.61,295.69L400.11,295.35L401.62,292.65L403.12,301.35L404.62,304L406.13,302.91L407.63,299.94L409.14,298.13L410.64,300.18L412.14,296.09L413.65,300.6L415.15,301.65L416.66,297.07L418.16,297.67L419.67,295.54L421.17,294.05L422.67,286.95L425.68,297.68L427.19,288.62L428.69,288.67L430.19,291.25L431.7,301.43L433.2,300.4L436.21,303.72L437.72,301.4L439.22,301.75L440.72,300.96L442.23,302.42L443.73,301.8L445.24,301.2L446.74,111.52L448.25,106.95L449.75,120.23L454.26,116.41L455.77,116.77L457.27,122.05L458.77,120.28L460.28,107.4L461.78,110.24L463.29,107.88L464.79,97.69L467.8,90.69L469.3,95.73L470.81,88.99L472.31,89.21L473.82,87.28L475.32,78.58L476.82,68.74L478.33,65.42L479.83,57.79L481.34,58.58L482.84,57.21L484.35,50.6L487.35,41.44L488.86,27.36L491.87,25.18L493.37,20.02L494.87,23.8L496.38,16L499.39,24.85L500.89,18.03L502.4,26.88L503.9,30.14L505.4,27.53L506.91,27.63L509.92,27.93L511.42,30.64L512.92,55.32L514.43,50.75L515.93,54.82L517.44,47.07L518.94,52.89L520.45,62.24L523.45,55.02L524.96,66.74L526.46,72.97L527.97,71.85L529.47,71.35L530.97,74.65L532.48,84.34L533.98,85.71L535.49,86.93L536.99,85.47L540,79.25" style="vector-effect: none; fill: none; stroke: rgb(99, 110, 250); stroke-opacity: 1; stroke-width: 2px; opacity: 1;"/></g><g class="points"/><g class="text"/></g></g></g><g class="overplot"/><path class="xlines-above crisp" d="M0,0" style="fill: none;"/><path class="ylines-above crisp" d="M0,0" style="fill: none;"/><g class="overlines-above"/><g class="xaxislayer-above"><g class="xtick"><text text-anchor="middle" x="0" y="433" transform="translate(152.2,0)" style="font-family: 'Open Sans', verdana, arial, sans-serif; font-size: 12px; fill: rgb(42, 63, 95); fill-opacity: 1; white-space: pre; opacity: 1;">Sep 2022</text></g><g class="xtick"><text text-anchor="middle" x="0" y="433" style="font-family: 'Open Sans', verdana, arial, sans-serif; font-size: 12px; fill: rgb(42, 63, 95); fill-opacity: 1; white-space: pre; opacity: 1;" transform="translate(243.96,0)">Nov 2022</text></g><g class="xtick"><text text-anchor="middle" x="0" y="433" style="font-family: 'Open Sans', verdana, arial, sans-serif; font-size: 12px; fill: rgb(42, 63, 95); fill-opacity: 1; white-space: pre; opacity: 1;" transform="translate(335.71000000000004,0)">Jan 2023</text></g><g class="xtick"><text text-anchor="middle" x="0" y="433" style="font-family: 'Open Sans', verdana, arial, sans-serif; font-size: 12px; fill: rgb(42, 63, 95); fill-opacity: 1; white-space: pre; opacity: 1;" transform="translate(424.46,0)">Mar 2023</text></g><g class="xtick"><text text-anchor="middle" x="0" y="433" style="font-family: 'Open Sans', verdana, arial, sans-serif; font-size: 12px; fill: rgb(42, 63, 95); fill-opacity: 1; white-space: pre; opacity: 1;" transform="translate(516.21,0)">May 2023</text></g><g class="xtick"><text text-anchor="middle" x="0" y="433" style="font-family: 'Open Sans', verdana, arial, sans-serif; font-size: 12px; fill: rgb(42, 63, 95); fill-opacity: 1; white-space: pre; opacity: 1;" transform="translate(607.97,0)">Jul 2023</text></g></g><g class="yaxislayer-above"><g class="ytick"><text text-anchor="end" x="79" y="4.199999999999999" transform="translate(0,413.54)" style="font-family: 'Open Sans', verdana, arial, sans-serif; font-size: 12px; fill: rgb(42, 63, 95); fill-opacity: 1; white-space: pre; opacity: 1;">$−0.2M</text></g><g class="ytick"><text text-anchor="end" x="79" y="4.199999999999999" style="font-family: 'Open Sans', verdana, arial, sans-serif; font-size: 12px; fill: rgb(42, 63, 95); fill-opacity: 1; white-space: pre; opacity: 1;" transform="translate(0,376.9)">$0</text></g><g class="ytick"><text text-anchor="end" x="79" y="4.199999999999999" style="font-family: 'Open Sans', verdana, arial, sans-serif; font-size: 12px; fill: rgb(42, 63, 95); fill-opacity: 1; white-space: pre; opacity: 1;" transform="translate(0,340.26)">$0.2M</text></g><g class="ytick"><text text-anchor="end" x="79" y="4.199999999999999" style="font-family: 'Open Sans', verdana, arial, sans-serif; font-size: 12px; fill: rgb(42, 63, 95); fill-opacity: 1; white-space: pre; opacity: 1;" transform="translate(0,303.62)">$0.4M</text></g><g class="ytick"><text text-anchor="end" x="79" y="4.199999999999999" style="font-family: 'Open Sans', verdana, arial, sans-serif; font-size: 12px; fill: rgb(42, 63, 95); fill-opacity: 1; white-space: pre; opacity: 1;" transform="translate(0,266.98)">$0.6M</text></g><g class="ytick"><text text-anchor="end" x="79" y="4.199999999999999" style="font-family: 'Open Sans', verdana, arial, sans-serif; font-size: 12px; fill: rgb(42, 63, 95); fill-opacity: 1; white-space: pre; opacity: 1;" transform="translate(0,230.33)">$0.8M</text></g><g class="ytick"><text text-anchor="end" x="79" y="4.199999999999999" style="font-family: 'Open Sans', verdana, arial, sans-serif; font-size: 12px; fill: rgb(42, 63, 95); fill-opacity: 1; white-space: pre; opacity: 1;" transform="translate(0,193.69)">$1M</text></g><g class="ytick"><text text-anchor="end" x="79" y="4.199999999999999" style="font-family: 'Open Sans', verdana, arial, sans-serif; font-size: 12px; fill: rgb(42, 63, 95); fill-opacity: 1; white-space: pre; opacity: 1;" transform="translate(0,157.05)">$1.2M</text></g><g class="ytick"><text text-anchor="end" x="79" y="4.199999999999999" style="font-family: 'Open Sans', verdana, arial, sans-serif; font-size: 12px; fill: rgb(42, 63, 95); fill-opacity: 1; white-space: pre; opacity: 1;" transform="translate(0,120.41)">$1.4M</text></g></g><g class="overaxes-above"/></g></g><g class="polarlayer"/><g class="smithlayer"/><g class="ternarylayer"/><g class="geolayer"/><g class="funnelarealayer"/><g class="pielayer"/><g class="iciclelayer"/><g class="treemaplayer"/><g class="sunburstlayer"/><g class="glimages"/><defs id="topdefs-74f34f"><g class="clips"/></defs><g class="layer-above"><g class="imagelayer"/><g class="shapelayer"/></g><g class="infolayer"><g class="g-gtitle"><text class="gtitle" x="35" y="50" text-anchor="start" dy="0em" style="font-family: 'Open Sans', verdana, arial, sans-serif; font-size: 17px; fill: rgb(42, 63, 95); opacity: 1; font-weight: normal; white-space: pre;"><tspan class="line" dy="0em" x="35" y="50">Thales</tspan><tspan class="line" dy="1.3em" x="35" y="50">​<tspan style="font-size:70%" dy="-0.6em">Cumulative Net Flows since Program Announcement, Until Program End + 30 Days</tspan><tspan dy="0.42em">​</tspan></tspan></text></g><g class="g-xtitle"><text class="xtitle" x="350" y="460.3" text-anchor="middle" style="font-family: 'Open Sans', verdana, arial, sans-serif; font-size: 14px; fill: rgb(42, 63, 95); opacity: 1; font-weight: normal; white-space: pre;">Day</text></g><g class="g-ytitle"><text class="ytitle" transform="rotate(-90,14.340625000000003,260)" x="14.340625000000003" y="260" text-anchor="middle" style="font-family: 'Open Sans', verdana, arial, sans-serif; font-size: 14px; fill: rgb(42, 63, 95); opacity: 1; font-weight: normal; white-space: pre;">Cumulative Net Flows (USD)</text></g></g></svg>