<svg class="main-svg" xmlns="http://www.w3.org/2000/svg" xmlns:xlink="http://www.w3.org/1999/xlink" width="700" height="500" style="" viewBox="0 0 700 500"><rect x="0" y="0" width="700" height="500" style="fill: rgb(255, 255, 255); fill-opacity: 1;"/><defs id="defs-d7760f"><g class="clips"><clipPath id="clipd7760fxyplot" class="plotclip"><rect width="540" height="320"/></clipPath><clipPath class="axesclip" id="clipd7760fx"><rect x="80" y="0" width="540" height="500"/></clipPath><clipPath class="axesclip" id="clipd7760fy"><rect x="0" y="100" width="700" height="320"/></clipPath><clipPath class="axesclip" id="clipd7760fxy"><rect x="80" y="100" width="540" height="320"/></clipPath></g><g class="gradients"/><g class="patterns"/></defs><g class="bglayer"><rect class="bg" x="80" y="100" width="540" height="320" style="fill: rgb(229, 236, 246); fill-opacity: 1; stroke-width: 0;"/></g><g class="layer-below"><g class="imagelayer"/><g class="shapelayer"/></g><g class="cartesianlayer"><g class="subplot xy"><g class="layer-subplot"><g class="shapelayer"/><g class="imagelayer"/></g><g class="minor-gridlayer"><g class="x"/><g class="y"/></g><g class="gridlayer"><g class="x"><path class="xgrid crisp" transform="translate(201.68,0)" d="M0,100v320" style="stroke: rgb(255, 255, 255); stroke-opacity: 1; stroke-width: 1px;"/><path class="xgrid crisp" transform="translate(327.48,0)" d="M0,100v320" style="stroke: rgb(255, 255, 255); stroke-opacity: 1; stroke-width: 1px;"/><path class="xgrid crisp" transform="translate(455.35,0)" d="M0,100v320" style="stroke: rgb(255, 255, 255); stroke-opacity: 1; stroke-width: 1px;"/><path class="xgrid crisp" transform="translate(581.1600000000001,0)" d="M0,100v320" style="stroke: rgb(255, 255, 255); stroke-opacity: 1; stroke-width: 1px;"/></g><g class="y"><path class="ygrid crisp" transform="translate(0,407.63)" d="M80,0h540" style="stroke: rgb(255, 255, 255); stroke-opacity: 1; stroke-width: 1px;"/><path class="ygrid crisp" transform="translate(0,339.83000000000004)" d="M80,0h540" style="stroke: rgb(255, 255, 255); stroke-opacity: 1; stroke-width: 1px;"/><path class="ygrid crisp" transform="translate(0,204.24)" d="M80,0h540" style="stroke: rgb(255, 255, 255); stroke-opacity: 1; stroke-width: 1px;"/><path class="ygrid crisp" transform="translate(0,136.45)" d="M80,0h540" style="stroke: rgb(255, 255, 255); stroke-opacity: 1; stroke-width: 1px;"/></g></g><g class="zerolinelayer"><path class="yzl zl crisp" transform="translate(0,272.03999999999996)" d="M80,0h540" style="stroke: rgb(255, 255, 255); stroke-opacity: 1; stroke-width: 2px;"/></g><path class="xlines-below"/><path class="ylines-below"/><g class="overlines-below"/><g class="xaxislayer-below"/><g class="yaxislayer-below"/><g class="overaxes-below"/><g class="plot" transform="translate(80,100)" clip-path="url(#clipd7760fxyplot)"><g class="scatterlayer mlayer"><g class="trace scatter tracea5767b" style="stroke-miterlimit: 2;"><g class="fills"><g><path class="js-fill" d="M540,172.04L0,172.04L0,152.91L2.06,94.47L4.12,110.31L6.19,112.04L8.25,52.95L10.31,50.19L12.37,103.16L14.44,105.77L16.5,139.37L18.56,242.31L20.62,231.45L22.69,166.16L24.75,151.2L26.81,147.06L28.87,146.67L30.94,144.29L33,139.7L35.06,126.19L37.12,122.12L39.19,122.14L41.25,88.11L43.31,88.6L45.37,96.76L47.43,130.48L49.5,113.29L51.56,117.75L53.62,113.31L55.68,113.53L57.75,131.09L59.81,84.74L61.87,84.92L63.93,80.91L66,79.84L68.06,64.67L70.12,81.64L72.18,78.2L74.25,76.48L76.31,16L78.37,54.24L80.43,33.44L82.49,68.85L84.56,67.61L86.62,77.51L88.68,74.46L90.74,69.89L94.87,51.78L96.93,36.1L98.99,43.89L101.06,47.84L103.12,27.54L105.18,39.37L107.24,28.82L109.31,34.22L111.37,304L154.68,85.51L156.74,85.51L158.8,90.45L160.86,91.57L162.93,95.74L169.11,94.44L171.18,99.34L173.24,92.26L175.3,82.28L177.36,82.18L179.43,120.06L181.49,125.43L183.55,126.35L185.61,135.56L187.68,151.31L189.74,152.19L191.8,171.33L193.86,175.4L195.93,175.96L197.99,179.39L200.05,173.46L202.11,179.93L204.17,180.18L208.3,179.95L210.36,180.48L214.49,182.82L216.55,216.62L218.61,218.34L220.67,232.04L222.74,233.48L224.8,237.87L228.92,236.58L230.99,237.18L233.05,235.11L235.11,234.38L237.17,233.71L239.23,234.86L241.3,234.85L243.36,246.91L251.61,247.55L253.67,247.53L255.73,248.38L257.8,248.36L259.86,250.74L261.92,271.17L263.98,266.66L266.05,268.11L268.11,269.26L270.17,269.29L272.23,270.61L274.3,273.49L276.36,275.7L278.42,275.84L280.48,278.28L282.54,278.27L288.73,278.27L290.79,282.27L315.54,281.97L317.6,281.84L321.73,281.31L323.79,281.31L325.85,281.33L327.92,282.83L332.04,282.78L334.1,286.11L336.17,301.46L340.29,286.31L344.42,286.3L346.48,289.39L348.54,289.66L350.6,292.27L362.98,292.94L365.04,293.03L379.48,293.14L381.54,279.56L398.04,279.66L400.1,293.7L418.66,293.84L420.72,293.89L443.41,294.45L445.47,293.6L488.78,293.88L490.84,294.83L513.53,295.41L515.59,296.08L519.72,296.64L521.78,296.64L540,296.87" style="fill: rgb(99, 110, 250); fill-opacity: 0.5; stroke-width: 0;"/></g></g><g class="errorbars"/><g class="lines"><path class="js-line" d="M0,152.91L2.06,94.47L4.12,110.31L6.19,112.04L8.25,52.95L10.31,50.19L12.37,103.16L14.44,105.77L16.5,139.37L18.56,242.31L20.62,231.45L22.69,166.16L24.75,151.2L26.81,147.06L28.87,146.67L30.94,144.29L33,139.7L35.06,126.19L37.12,122.12L39.19,122.14L41.25,88.11L43.31,88.6L45.37,96.76L47.43,130.48L49.5,113.29L51.56,117.75L53.62,113.31L55.68,113.53L57.75,131.09L59.81,84.74L61.87,84.92L63.93,80.91L66,79.84L68.06,64.67L70.12,81.64L72.18,78.2L74.25,76.48L76.31,16L78.37,54.24L80.43,33.44L82.49,68.85L84.56,67.61L86.62,77.51L88.68,74.46L90.74,69.89L94.87,51.78L96.93,36.1L98.99,43.89L101.06,47.84L103.12,27.54L105.18,39.37L107.24,28.82L109.31,34.22L111.37,304L154.68,85.51L156.74,85.51L158.8,90.45L160.86,91.57L162.93,95.74L169.11,94.44L171.18,99.34L173.24,92.26L175.3,82.28L177.36,82.18L179.43,120.06L181.49,125.43L183.55,126.35L185.61,135.56L187.68,151.31L189.74,152.19L191.8,171.33L193.86,175.4L195.93,175.96L197.99,179.39L200.05,173.46L202.11,179.93L204.17,180.18L208.3,179.95L210.36,180.48L214.49,182.82L216.55,216.62L218.61,218.34L220.67,232.04L222.74,233.48L224.8,237.87L228.92,236.58L230.99,237.18L233.05,235.11L235.11,234.38L237.17,233.71L239.23,234.86L241.3,234.85L243.36,246.91L251.61,247.55L253.67,247.53L255.73,248.38L257.8,248.36L259.86,250.74L261.92,271.17L263.98,266.66L266.05,268.11L268.11,269.26L270.17,269.29L272.23,270.61L274.3,273.49L276.36,275.7L278.42,275.84L280.48,278.28L282.54,278.27L288.73,278.27L290.79,282.27L315.54,281.97L317.6,281.84L321.73,281.31L323.79,281.31L325.85,281.33L327.92,282.83L332.04,282.78L334.1,286.11L336.17,301.46L340.29,286.31L344.42,286.3L346.48,289.39L348.54,289.66L350.6,292.27L362.98,292.94L365.04,293.03L379.48,293.14L381.54,279.56L398.04,279.66L400.1,293.7L418.66,293.84L420.72,293.89L443.41,294.45L445.47,293.6L488.78,293.88L490.84,294.83L513.53,295.41L515.59,296.08L519.72,296.64L521.78,296.64L540,296.87" style="vector-effect: none; fill: none; stroke: rgb(99, 110, 250); stroke-opacity: 1; stroke-width: 2px; opacity: 1;"/></g><g class="points"/><g class="text"/></g></g></g><g class="overplot"/><path class="xlines-above crisp" d="M0,0" style="fill: none;"/><path class="ylines-above crisp" d="M0,0" style="fill: none;"/><g class="overlines-above"/><g class="xaxislayer-above"><g class="xtick"><text text-anchor="middle" x="0" y="433" transform="translate(201.68,0)" style="font-family: 'Open Sans', verdana, arial, sans-serif; font-size: 12px; fill: rgb(42, 63, 95); fill-opacity: 1; white-space: pre; opacity: 1;">May 2023</text></g><g class="xtick"><text text-anchor="middle" x="0" y="433" style="font-family: 'Open Sans', verdana, arial, sans-serif; font-size: 12px; fill: rgb(42, 63, 95); fill-opacity: 1; white-space: pre; opacity: 1;" transform="translate(327.48,0)">Jul 2023</text></g><g class="xtick"><text text-anchor="middle" x="0" y="433" style="font-family: 'Open Sans', verdana, arial, sans-serif; font-size: 12px; fill: rgb(42, 63, 95); fill-opacity: 1; white-space: pre; opacity: 1;" transform="translate(455.35,0)">Sep 2023</text></g><g class="xtick"><text text-anchor="middle" x="0" y="433" style="font-family: 'Open Sans', verdana, arial, sans-serif; font-size: 12px; fill: rgb(42, 63, 95); fill-opacity: 1; white-space: pre; opacity: 1;" transform="translate(581.1600000000001,0)">Nov 2023</text></g></g><g class="yaxislayer-above"><g class="ytick"><text text-anchor="end" x="79" y="4.199999999999999" transform="translate(0,407.63)" style="font-family: 'Open Sans', verdana, arial, sans-serif; font-size: 12px; fill: rgb(42, 63, 95); fill-opacity: 1; white-space: pre; opacity: 1;">$−2M</text></g><g class="ytick"><text text-anchor="end" x="79" y="4.199999999999999" style="font-family: 'Open Sans', verdana, arial, sans-serif; font-size: 12px; fill: rgb(42, 63, 95); fill-opacity: 1; white-space: pre; opacity: 1;" transform="translate(0,339.83000000000004)">$−1M</text></g><g class="ytick"><text text-anchor="end" x="79" y="4.199999999999999" style="font-family: 'Open Sans', verdana, arial, sans-serif; font-size: 12px; fill: rgb(42, 63, 95); fill-opacity: 1; white-space: pre; opacity: 1;" transform="translate(0,272.03999999999996)">$0</text></g><g class="ytick"><text text-anchor="end" x="79" y="4.199999999999999" style="font-family: 'Open Sans', verdana, arial, sans-serif; font-size: 12px; fill: rgb(42, 63, 95); fill-opacity: 1; white-space: pre; opacity: 1;" transform="translate(0,204.24)">$1M</text></g><g class="ytick"><text text-anchor="end" x="79" y="4.199999999999999" style="font-family: 'Open Sans', verdana, arial, sans-serif; font-size: 12px; fill: rgb(42, 63, 95); fill-opacity: 1; white-space: pre; opacity: 1;" transform="translate(0,136.45)">$2M</text></g></g><g class="overaxes-above"/></g></g><g class="polarlayer"/><g class="smithlayer"/><g class="ternarylayer"/><g class="geolayer"/><g class="funnelarealayer"/><g class="pielayer"/><g class="iciclelayer"/><g class="treemaplayer"/><g class="sunburstlayer"/><g class="glimages"/><defs id="topdefs-d7760f"><g class="clips"/></defs><g class="layer-above"><g class="imagelayer"/><g class="shapelayer"/></g><g class="infolayer"><g class="g-gtitle"><text class="gtitle" x="35" y="50" text-anchor="start" dy="0em" style="font-family: 'Open Sans', verdana, arial, sans-serif; font-size: 17px; fill: rgb(42, 63, 95); opacity: 1; font-weight: normal; white-space: pre;"><tspan class="line" dy="0em" x="35" y="50">Sushi Trident</tspan><tspan class="line" dy="1.3em" x="35" y="50">​<tspan style="font-size:70%" dy="-0.6em">Cumulative Net Flows since Program Announcement, Until Program End + 30 Days</tspan><tspan dy="0.42em">​</tspan></tspan></text></g><g class="g-xtitle"><text class="xtitle" x="350" y="460.3" text-anchor="middle" style="font-family: 'Open Sans', verdana, arial, sans-serif; font-size: 14px; fill: rgb(42, 63, 95); opacity: 1; font-weight: normal; white-space: pre;">Day</text></g><g class="g-ytitle"><text class="ytitle" transform="rotate(-90,24.340625000000003,260)" x="24.340625000000003" y="260" text-anchor="middle" style="font-family: 'Open Sans', verdana, arial, sans-serif; font-size: 14px; fill: rgb(42, 63, 95); opacity: 1; font-weight: normal; white-space: pre;">Cumulative Net Flows (USD)</text></g></g></svg>