<svg class="main-svg" xmlns="http://www.w3.org/2000/svg" xmlns:xlink="http://www.w3.org/1999/xlink" width="700" height="500" style="" viewBox="0 0 700 500"><rect x="0" y="0" width="700" height="500" style="fill: rgb(255, 255, 255); fill-opacity: 1;"/><defs id="defs-79c3db"><g class="clips"><clipPath id="clip79c3dbxyplot" class="plotclip"><rect width="540" height="320"/></clipPath><clipPath class="axesclip" id="clip79c3dbx"><rect x="80" y="0" width="540" height="500"/></clipPath><clipPath class="axesclip" id="clip79c3dby"><rect x="0" y="100" width="700" height="320"/></clipPath><clipPath class="axesclip" id="clip79c3dbxy"><rect x="80" y="100" width="540" height="320"/></clipPath></g><g class="gradients"/><g class="patterns"/></defs><g class="bglayer"><rect class="bg" x="80" y="100" width="540" height="320" style="fill: rgb(229, 236, 246); fill-opacity: 1; stroke-width: 0;"/></g><g class="layer-below"><g class="imagelayer"/><g class="shapelayer"/></g><g class="cartesianlayer"><g class="subplot xy"><g class="layer-subplot"><g class="shapelayer"/><g class="imagelayer"/></g><g class="minor-gridlayer"><g class="x"/><g class="y"/></g><g class="gridlayer"><g class="x"><path class="xgrid crisp" transform="translate(129.46,0)" d="M0,100v320" style="stroke: rgb(255, 255, 255); stroke-opacity: 1; stroke-width: 1px;"/><path class="xgrid crisp" transform="translate(222.32,0)" d="M0,100v320" style="stroke: rgb(255, 255, 255); stroke-opacity: 1; stroke-width: 1px;"/><path class="xgrid crisp" transform="translate(313.15999999999997,0)" d="M0,100v320" style="stroke: rgb(255, 255, 255); stroke-opacity: 1; stroke-width: 1px;"/><path class="xgrid crisp" transform="translate(405.01,0)" d="M0,100v320" style="stroke: rgb(255, 255, 255); stroke-opacity: 1; stroke-width: 1px;"/><path class="xgrid crisp" transform="translate(497.87,0)" d="M0,100v320" style="stroke: rgb(255, 255, 255); stroke-opacity: 1; stroke-width: 1px;"/><path class="xgrid crisp" transform="translate(590.73,0)" d="M0,100v320" style="stroke: rgb(255, 255, 255); stroke-opacity: 1; stroke-width: 1px;"/></g><g class="y"><path class="ygrid crisp" transform="translate(0,398.82)" d="M80,0h540" style="stroke: rgb(255, 255, 255); stroke-opacity: 1; stroke-width: 1px;"/><path class="ygrid crisp" transform="translate(0,360.9)" d="M80,0h540" style="stroke: rgb(255, 255, 255); stroke-opacity: 1; stroke-width: 1px;"/><path class="ygrid crisp" transform="translate(0,322.98)" d="M80,0h540" style="stroke: rgb(255, 255, 255); stroke-opacity: 1; stroke-width: 1px;"/><path class="ygrid crisp" transform="translate(0,285.06)" d="M80,0h540" style="stroke: rgb(255, 255, 255); stroke-opacity: 1; stroke-width: 1px;"/><path class="ygrid crisp" transform="translate(0,209.23000000000002)" d="M80,0h540" style="stroke: rgb(255, 255, 255); stroke-opacity: 1; stroke-width: 1px;"/><path class="ygrid crisp" transform="translate(0,171.31)" d="M80,0h540" style="stroke: rgb(255, 255, 255); stroke-opacity: 1; stroke-width: 1px;"/><path class="ygrid crisp" transform="translate(0,133.39)" d="M80,0h540" style="stroke: rgb(255, 255, 255); stroke-opacity: 1; stroke-width: 1px;"/></g></g><g class="zerolinelayer"><path class="yzl zl crisp" transform="translate(0,247.15)" d="M80,0h540" style="stroke: rgb(255, 255, 255); stroke-opacity: 1; stroke-width: 2px;"/></g><path class="xlines-below"/><path class="ylines-below"/><g class="overlines-below"/><g class="xaxislayer-below"/><g class="yaxislayer-below"/><g class="overaxes-below"/><g class="plot" transform="translate(80,100)" clip-path="url(#clip79c3dbxyplot)"><g class="scatterlayer mlayer"><g class="trace scatter trace4de22a" style="stroke-miterlimit: 2;"><g class="fills"><g><path class="js-fill" d="M540,147.15L0,147.15L0,172.88L1.01,185.93L2.02,184.87L3.03,186.54L4.04,192.49L5.05,192.67L6.06,109.56L7.07,206.5L8.07,198.1L9.08,204.17L10.09,203.35L12.11,208.54L13.12,198.72L14.13,199.75L15.14,202.35L16.15,202.54L17.16,187.88L19.18,180.89L20.19,193.1L21.2,191.22L22.21,187.16L23.21,185.92L24.22,190.88L26.24,182.04L27.25,176.57L29.27,159.32L30.28,157.29L31.29,179L32.3,167.59L33.31,166.35L34.32,179.07L36.34,182.56L37.35,181.12L40.37,185.58L41.38,199.07L43.4,200.12L44.41,197.37L45.42,204.31L46.43,204.39L47.44,208.84L48.45,209.88L49.46,212.97L50.47,213.51L52.49,226.19L53.5,222.39L54.5,226.37L55.51,225.46L56.52,220.72L57.53,230.49L58.54,227.92L59.55,230.63L60.56,226.48L61.57,227.01L62.58,238.33L63.59,236.46L64.6,237.39L65.61,239.97L66.62,240.47L67.63,239.25L68.64,234.93L69.64,235.54L71.66,235.56L72.67,236.5L73.68,236.62L74.69,232.4L76.71,226.2L77.72,223.8L79.74,223.97L80.75,221.33L81.76,224.13L82.77,197.7L84.79,217.71L85.79,216.09L86.8,214.64L87.81,203.07L88.82,212.3L89.83,252.05L90.84,222.02L91.85,216.27L92.86,216.03L93.87,220.69L94.88,228.41L95.89,209.08L96.9,173.39L97.91,198.58L99.93,172.37L100.93,179.85L101.94,187.52L102.95,205.26L103.96,215.72L104.97,241.89L105.98,246.26L106.99,223.28L108,229.62L109.01,229.17L110.02,227.89L111.03,219.21L112.04,224.35L113.05,258.66L114.06,244.88L115.07,218.5L116.07,227.37L117.08,220.73L118.09,229.53L119.1,222.65L120.11,232.87L121.12,221.33L122.13,251.03L123.14,235.37L124.15,255.23L125.16,242.64L126.17,234.84L127.18,216.98L128.19,227.04L129.2,220.09L130.21,233.52L131.21,201.08L132.22,164.26L133.23,208.98L134.24,176.85L135.25,179.21L136.26,184.21L137.27,181.61L138.28,209.03L139.29,203.88L140.3,120.15L141.31,152.37L142.32,129.93L143.33,145.75L146.36,142.18L147.36,148.63L148.37,151.04L149.38,149.46L150.39,158.36L151.4,159.21L152.41,157.67L153.42,170.19L154.43,177.23L155.44,156.32L156.45,148.17L157.46,147.62L158.47,160.97L159.48,160.56L160.49,154.63L161.5,171.3L162.5,182.33L163.51,164.54L164.52,157L165.53,157.01L166.54,163.37L167.55,160.11L168.56,171.55L169.57,150.51L170.58,139.48L171.59,158.73L172.6,161.83L173.61,144.54L174.62,149.26L175.63,185.75L176.64,187.89L177.64,202.64L178.65,185.65L179.66,186.79L180.67,160.14L181.68,113.25L182.69,138.45L183.7,86.7L184.71,108.41L185.72,112.09L186.73,114.52L187.74,103.97L188.75,91.43L189.76,105.55L191.78,49.73L192.79,43.94L193.79,33.81L194.8,57.18L195.81,58.03L196.82,46.96L197.83,24.26L198.84,45.76L199.85,35.85L200.86,35.8L201.87,55.58L202.88,57.96L203.89,54.34L204.9,74.73L205.91,79.68L206.92,74.39L208.93,85.07L209.94,69.75L210.95,43.2L211.96,83.58L212.97,113.35L213.98,83.56L214.99,89.43L216,80.25L217.01,72.49L218.02,75.79L219.03,82.22L220.04,63.62L221.05,58.82L222.06,34.54L223.07,23.05L224.07,29.54L225.08,16L226.09,28.23L227.1,66.15L228.11,42.15L229.12,81.76L230.13,64.89L232.15,43.33L233.16,39.11L234.17,54.96L235.18,39.63L236.19,63.22L237.2,44L238.21,59.32L239.21,61.38L241.23,93.01L242.24,91.07L243.25,95.04L244.26,113.21L246.28,138.49L247.29,136.11L248.3,150.86L249.31,138.26L250.32,137.55L251.33,146L252.34,139.04L253.35,143.36L254.36,148.91L255.36,143.45L257.38,167.57L258.39,159.59L260.41,138.42L261.42,148.32L263.44,117.57L264.45,117.45L265.46,109.03L266.47,112.03L267.48,82.57L268.49,88.81L269.5,93.07L270.5,106.12L271.51,112.01L272.52,136.2L273.53,143.26L274.54,112.37L275.55,122.28L276.56,124.21L277.57,125.24L278.58,127.72L279.59,128.89L280.6,132.49L281.61,140.64L282.62,139.72L283.63,143.23L284.64,135.54L285.64,129.07L286.65,142.28L287.66,137.91L288.67,129.72L289.68,122.47L290.69,127.54L292.71,137.54L293.72,128.52L294.73,150.05L295.74,147.29L297.76,164.71L298.77,163.1L300.79,167.39L301.79,165.5L303.81,154.52L304.82,159.18L306.84,166.92L307.85,162.29L308.86,158.84L309.87,165.02L310.88,169.39L311.89,165.87L312.9,166.4L313.91,172.06L314.92,157.57L315.93,157.87L316.93,154.58L317.94,158.32L318.95,159.31L319.96,158.1L320.97,161.34L321.98,161.63L322.99,165.89L324,198.74L325.01,194.47L326.02,208.29L327.03,210.89L328.04,205.95L329.05,206.37L330.06,208.5L332.07,217.11L333.08,215.2L334.09,216.58L335.1,214.26L336.11,213.77L337.12,211.64L339.14,231.23L340.15,228.46L341.16,228.69L342.17,230.36L345.2,244.92L346.21,245.92L347.21,247.45L348.22,245.4L349.23,245.43L350.24,246.56L351.25,246.2L352.26,249.16L353.27,248.92L354.28,243.32L355.29,255.48L356.3,247.55L357.31,248.34L358.32,250.84L359.33,255.82L360.34,247.15L361.35,246.48L362.36,246.91L363.36,244.84L364.37,238.25L365.38,239.39L366.39,239.14L368.41,239.68L369.42,239.9L371.44,238.98L372.45,236.99L373.46,236.57L374.47,239.34L375.48,239.34L376.49,240.4L377.5,239.36L378.5,239.59L380.52,240L381.53,234.18L382.54,234.15L383.55,235.85L384.56,236.53L385.57,235.41L386.58,242.23L387.59,240.88L388.6,241.13L389.61,239.55L391.63,238.79L392.64,238.84L393.64,238.99L394.65,241.02L396.67,242L397.68,242.08L399.7,241.77L400.71,243.36L402.73,243.51L403.74,244.25L405.76,244.46L406.77,244.28L407.78,238.18L408.79,237.4L409.79,237.82L410.8,236.47L413.83,235.51L414.84,238.17L416.86,238.26L417.87,238.37L422.92,237.48L423.93,237L425.94,236.91L426.95,236.99L427.96,231.12L428.97,232.42L429.98,231.95L430.99,233.61L435.03,234.19L436.04,234.91L437.05,233.3L438.06,234.54L439.07,233.43L440.07,234.41L442.09,234.25L443.1,235.28L444.11,229.42L445.12,229.12L447.14,229.1L448.15,236.35L450.17,230.4L451.18,232.08L452.19,236.5L453.2,236.9L455.21,238.57L456.22,237.48L457.23,237.59L458.24,238.67L459.25,239.81L460.26,239.81L462.28,239.71L463.29,237.21L464.3,304L471.36,223.33L473.38,222.41L474.39,222.94L478.43,224L479.44,225.2L482.47,225.6L483.48,226.07L484.49,227.73L485.5,226.98L486.5,228.89L487.51,227.15L488.52,227.97L489.53,219.87L490.54,215.69L491.55,215.89L492.56,216.93L493.57,214.27L494.58,213.66L495.59,215.24L497.61,203.2L498.62,203.32L499.63,207.14L500.64,206.91L501.64,202.47L502.65,204.58L503.66,203.83L504.67,204.64L505.68,204.14L506.69,211.61L507.7,214.08L508.71,214.31L509.72,217.77L510.73,210.97L511.74,213.34L512.75,212.92L513.76,208.96L514.77,195.06L515.78,198.03L516.79,196.97L517.79,196.79L518.8,170.42L519.81,210.48L520.82,217.88L521.83,212.55L522.84,202.57L523.85,205.25L524.86,202.76L525.87,204.08L526.88,207.31L527.89,223.25L528.9,217.04L529.91,214.69L530.92,201.85L531.93,203.93L532.93,209.58L533.94,220.68L534.95,217.44L535.96,215.46L536.97,220.2L537.98,222.08L538.99,228.52L540,220.5" style="fill: rgb(99, 110, 250); fill-opacity: 0.5; stroke-width: 0;"/></g></g><g class="errorbars"/><g class="lines"><path class="js-line" d="M0,172.88L1.01,185.93L2.02,184.87L3.03,186.54L4.04,192.49L5.05,192.67L6.06,109.56L7.07,206.5L8.07,198.1L9.08,204.17L10.09,203.35L12.11,208.54L13.12,198.72L14.13,199.75L15.14,202.35L16.15,202.54L17.16,187.88L19.18,180.89L20.19,193.1L21.2,191.22L22.21,187.16L23.21,185.92L24.22,190.88L26.24,182.04L27.25,176.57L29.27,159.32L30.28,157.29L31.29,179L32.3,167.59L33.31,166.35L34.32,179.07L36.34,182.56L37.35,181.12L40.37,185.58L41.38,199.07L43.4,200.12L44.41,197.37L45.42,204.31L46.43,204.39L47.44,208.84L48.45,209.88L49.46,212.97L50.47,213.51L52.49,226.19L53.5,222.39L54.5,226.37L55.51,225.46L56.52,220.72L57.53,230.49L58.54,227.92L59.55,230.63L60.56,226.48L61.57,227.01L62.58,238.33L63.59,236.46L64.6,237.39L65.61,239.97L66.62,240.47L67.63,239.25L68.64,234.93L69.64,235.54L71.66,235.56L72.67,236.5L73.68,236.62L74.69,232.4L76.71,226.2L77.72,223.8L79.74,223.97L80.75,221.33L81.76,224.13L82.77,197.7L84.79,217.71L85.79,216.09L86.8,214.64L87.81,203.07L88.82,212.3L89.83,252.05L90.84,222.02L91.85,216.27L92.86,216.03L93.87,220.69L94.88,228.41L95.89,209.08L96.9,173.39L97.91,198.58L99.93,172.37L100.93,179.85L101.94,187.52L102.95,205.26L103.96,215.72L104.97,241.89L105.98,246.26L106.99,223.28L108,229.62L109.01,229.17L110.02,227.89L111.03,219.21L112.04,224.35L113.05,258.66L114.06,244.88L115.07,218.5L116.07,227.37L117.08,220.73L118.09,229.53L119.1,222.65L120.11,232.87L121.12,221.33L122.13,251.03L123.14,235.37L124.15,255.23L125.16,242.64L126.17,234.84L127.18,216.98L128.19,227.04L129.2,220.09L130.21,233.52L131.21,201.08L132.22,164.26L133.23,208.98L134.24,176.85L135.25,179.21L136.26,184.21L137.27,181.61L138.28,209.03L139.29,203.88L140.3,120.15L141.31,152.37L142.32,129.93L143.33,145.75L146.36,142.18L147.36,148.63L148.37,151.04L149.38,149.46L150.39,158.36L151.4,159.21L152.41,157.67L153.42,170.19L154.43,177.23L155.44,156.32L156.45,148.17L157.46,147.62L158.47,160.97L159.48,160.56L160.49,154.63L161.5,171.3L162.5,182.33L163.51,164.54L164.52,157L165.53,157.01L166.54,163.37L167.55,160.11L168.56,171.55L169.57,150.51L170.58,139.48L171.59,158.73L172.6,161.83L173.61,144.54L174.62,149.26L175.63,185.75L176.64,187.89L177.64,202.64L178.65,185.65L179.66,186.79L180.67,160.14L181.68,113.25L182.69,138.45L183.7,86.7L184.71,108.41L185.72,112.09L186.73,114.52L187.74,103.97L188.75,91.43L189.76,105.55L191.78,49.73L192.79,43.94L193.79,33.81L194.8,57.18L195.81,58.03L196.82,46.96L197.83,24.26L198.84,45.76L199.85,35.85L200.86,35.8L201.87,55.58L202.88,57.96L203.89,54.34L204.9,74.73L205.91,79.68L206.92,74.39L208.93,85.07L209.94,69.75L210.95,43.2L211.96,83.58L212.97,113.35L213.98,83.56L214.99,89.43L216,80.25L217.01,72.49L218.02,75.79L219.03,82.22L220.04,63.62L221.05,58.82L222.06,34.54L223.07,23.05L224.07,29.54L225.08,16L226.09,28.23L227.1,66.15L228.11,42.15L229.12,81.76L230.13,64.89L232.15,43.33L233.16,39.11L234.17,54.96L235.18,39.63L236.19,63.22L237.2,44L238.21,59.32L239.21,61.38L241.23,93.01L242.24,91.07L243.25,95.04L244.26,113.21L246.28,138.49L247.29,136.11L248.3,150.86L249.31,138.26L250.32,137.55L251.33,146L252.34,139.04L253.35,143.36L254.36,148.91L255.36,143.45L257.38,167.57L258.39,159.59L260.41,138.42L261.42,148.32L263.44,117.57L264.45,117.45L265.46,109.03L266.47,112.03L267.48,82.57L268.49,88.81L269.5,93.07L270.5,106.12L271.51,112.01L272.52,136.2L273.53,143.26L274.54,112.37L275.55,122.28L276.56,124.21L277.57,125.24L278.58,127.72L279.59,128.89L280.6,132.49L281.61,140.64L282.62,139.72L283.63,143.23L284.64,135.54L285.64,129.07L286.65,142.28L287.66,137.91L288.67,129.72L289.68,122.47L290.69,127.54L292.71,137.54L293.72,128.52L294.73,150.05L295.74,147.29L297.76,164.71L298.77,163.1L300.79,167.39L301.79,165.5L303.81,154.52L304.82,159.18L306.84,166.92L307.85,162.29L308.86,158.84L309.87,165.02L310.88,169.39L311.89,165.87L312.9,166.4L313.91,172.06L314.92,157.57L315.93,157.87L316.93,154.58L317.94,158.32L318.95,159.31L319.96,158.1L320.97,161.34L321.98,161.63L322.99,165.89L324,198.74L325.01,194.47L326.02,208.29L327.03,210.89L328.04,205.95L329.05,206.37L330.06,208.5L332.07,217.11L333.08,215.2L334.09,216.58L335.1,214.26L336.11,213.77L337.12,211.64L339.14,231.23L340.15,228.46L341.16,228.69L342.17,230.36L345.2,244.92L346.21,245.92L347.21,247.45L348.22,245.4L349.23,245.43L350.24,246.56L351.25,246.2L352.26,249.16L353.27,248.92L354.28,243.32L355.29,255.48L356.3,247.55L357.31,248.34L358.32,250.84L359.33,255.82L360.34,247.15L361.35,246.48L362.36,246.91L363.36,244.84L364.37,238.25L365.38,239.39L366.39,239.14L368.41,239.68L369.42,239.9L371.44,238.98L372.45,236.99L373.46,236.57L374.47,239.34L375.48,239.34L376.49,240.4L377.5,239.36L378.5,239.59L380.52,240L381.53,234.18L382.54,234.15L383.55,235.85L384.56,236.53L385.57,235.41L386.58,242.23L387.59,240.88L388.6,241.13L389.61,239.55L391.63,238.79L392.64,238.84L393.64,238.99L394.65,241.02L396.67,242L397.68,242.08L399.7,241.77L400.71,243.36L402.73,243.51L403.74,244.25L405.76,244.46L406.77,244.28L407.78,238.18L408.79,237.4L409.79,237.82L410.8,236.47L413.83,235.51L414.84,238.17L416.86,238.26L417.87,238.37L422.92,237.48L423.93,237L425.94,236.91L426.95,236.99L427.96,231.12L428.97,232.42L429.98,231.95L430.99,233.61L435.03,234.19L436.04,234.91L437.05,233.3L438.06,234.54L439.07,233.43L440.07,234.41L442.09,234.25L443.1,235.28L444.11,229.42L445.12,229.12L447.14,229.1L448.15,236.35L450.17,230.4L451.18,232.08L452.19,236.5L453.2,236.9L455.21,238.57L456.22,237.48L457.23,237.59L458.24,238.67L459.25,239.81L460.26,239.81L462.28,239.71L463.29,237.21L464.3,304L471.36,223.33L473.38,222.41L474.39,222.94L478.43,224L479.44,225.2L482.47,225.6L483.48,226.07L484.49,227.73L485.5,226.98L486.5,228.89L487.51,227.15L488.52,227.97L489.53,219.87L490.54,215.69L491.55,215.89L492.56,216.93L493.57,214.27L494.58,213.66L495.59,215.24L497.61,203.2L498.62,203.32L499.63,207.14L500.64,206.91L501.64,202.47L502.65,204.58L503.66,203.83L504.67,204.64L505.68,204.14L506.69,211.61L507.7,214.08L508.71,214.31L509.72,217.77L510.73,210.97L511.74,213.34L512.75,212.92L513.76,208.96L514.77,195.06L515.78,198.03L516.79,196.97L517.79,196.79L518.8,170.42L519.81,210.48L520.82,217.88L521.83,212.55L522.84,202.57L523.85,205.25L524.86,202.76L525.87,204.08L526.88,207.31L527.89,223.25L528.9,217.04L529.91,214.69L530.92,201.85L531.93,203.93L532.93,209.58L533.94,220.68L534.95,217.44L535.96,215.46L536.97,220.2L537.98,222.08L538.99,228.52L540,220.5" style="vector-effect: none; fill: none; stroke: rgb(99, 110, 250); stroke-opacity: 1; stroke-width: 2px; opacity: 1;"/></g><g class="points"/><g class="text"/></g></g></g><g class="overplot"/><path class="xlines-above crisp" d="M0,0" style="fill: none;"/><path class="ylines-above crisp" d="M0,0" style="fill: none;"/><g class="overlines-above"/><g class="xaxislayer-above"><g class="xtick"><text text-anchor="middle" x="0" y="433" transform="translate(129.46,0)" style="font-family: 'Open Sans', verdana, arial, sans-serif; font-size: 12px; fill: rgb(42, 63, 95); fill-opacity: 1; white-space: pre; opacity: 1;">Oct 2022</text></g><g class="xtick"><text text-anchor="middle" x="0" y="433" style="font-family: 'Open Sans', verdana, arial, sans-serif; font-size: 12px; fill: rgb(42, 63, 95); fill-opacity: 1; white-space: pre; opacity: 1;" transform="translate(222.32,0)">Jan 2023</text></g><g class="xtick"><text text-anchor="middle" x="0" y="433" style="font-family: 'Open Sans', verdana, arial, sans-serif; font-size: 12px; fill: rgb(42, 63, 95); fill-opacity: 1; white-space: pre; opacity: 1;" transform="translate(313.15999999999997,0)">Apr 2023</text></g><g class="xtick"><text text-anchor="middle" x="0" y="433" style="font-family: 'Open Sans', verdana, arial, sans-serif; font-size: 12px; fill: rgb(42, 63, 95); fill-opacity: 1; white-space: pre; opacity: 1;" transform="translate(405.01,0)">Jul 2023</text></g><g class="xtick"><text text-anchor="middle" x="0" y="433" style="font-family: 'Open Sans', verdana, arial, sans-serif; font-size: 12px; fill: rgb(42, 63, 95); fill-opacity: 1; white-space: pre; opacity: 1;" transform="translate(497.87,0)">Oct 2023</text></g><g class="xtick"><text text-anchor="middle" x="0" y="433" style="font-family: 'Open Sans', verdana, arial, sans-serif; font-size: 12px; fill: rgb(42, 63, 95); fill-opacity: 1; white-space: pre; opacity: 1;" transform="translate(590.73,0)">Jan 2024</text></g></g><g class="yaxislayer-above"><g class="ytick"><text text-anchor="end" x="79" y="4.199999999999999" transform="translate(0,398.82)" style="font-family: 'Open Sans', verdana, arial, sans-serif; font-size: 12px; fill: rgb(42, 63, 95); fill-opacity: 1; white-space: pre; opacity: 1;">$−8M</text></g><g class="ytick"><text text-anchor="end" x="79" y="4.199999999999999" style="font-family: 'Open Sans', verdana, arial, sans-serif; font-size: 12px; fill: rgb(42, 63, 95); fill-opacity: 1; white-space: pre; opacity: 1;" transform="translate(0,360.9)">$−6M</text></g><g class="ytick"><text text-anchor="end" x="79" y="4.199999999999999" style="font-family: 'Open Sans', verdana, arial, sans-serif; font-size: 12px; fill: rgb(42, 63, 95); fill-opacity: 1; white-space: pre; opacity: 1;" transform="translate(0,322.98)">$−4M</text></g><g class="ytick"><text text-anchor="end" x="79" y="4.199999999999999" style="font-family: 'Open Sans', verdana, arial, sans-serif; font-size: 12px; fill: rgb(42, 63, 95); fill-opacity: 1; white-space: pre; opacity: 1;" transform="translate(0,285.06)">$−2M</text></g><g class="ytick"><text text-anchor="end" x="79" y="4.199999999999999" style="font-family: 'Open Sans', verdana, arial, sans-serif; font-size: 12px; fill: rgb(42, 63, 95); fill-opacity: 1; white-space: pre; opacity: 1;" transform="translate(0,247.15)">$0</text></g><g class="ytick"><text text-anchor="end" x="79" y="4.199999999999999" style="font-family: 'Open Sans', verdana, arial, sans-serif; font-size: 12px; fill: rgb(42, 63, 95); fill-opacity: 1; white-space: pre; opacity: 1;" transform="translate(0,209.23000000000002)">$2M</text></g><g class="ytick"><text text-anchor="end" x="79" y="4.199999999999999" style="font-family: 'Open Sans', verdana, arial, sans-serif; font-size: 12px; fill: rgb(42, 63, 95); fill-opacity: 1; white-space: pre; opacity: 1;" transform="translate(0,171.31)">$4M</text></g><g class="ytick"><text text-anchor="end" x="79" y="4.199999999999999" style="font-family: 'Open Sans', verdana, arial, sans-serif; font-size: 12px; fill: rgb(42, 63, 95); fill-opacity: 1; white-space: pre; opacity: 1;" transform="translate(0,133.39)">$6M</text></g></g><g class="overaxes-above"/></g></g><g class="polarlayer"/><g class="smithlayer"/><g class="ternarylayer"/><g class="geolayer"/><g class="funnelarealayer"/><g class="pielayer"/><g class="iciclelayer"/><g class="treemaplayer"/><g class="sunburstlayer"/><g class="glimages"/><defs id="topdefs-79c3db"><g class="clips"/></defs><g class="layer-above"><g class="imagelayer"/><g class="shapelayer"/></g><g class="infolayer"><g class="g-gtitle"><text class="gtitle" x="35" y="50" text-anchor="start" dy="0em" style="font-family: 'Open Sans', verdana, arial, sans-serif; font-size: 17px; fill: rgb(42, 63, 95); opacity: 1; font-weight: normal; white-space: pre;"><tspan class="line" dy="0em" x="35" y="50">Cbridge - Celer</tspan><tspan class="line" dy="1.3em" x="35" y="50">​<tspan style="font-size:70%" dy="-0.6em">Cumulative Net Flows since Program Announcement, Until Program End + 30 Days</tspan><tspan dy="0.42em">​</tspan></tspan></text></g><g class="g-xtitle"><text class="xtitle" x="350" y="460.3" text-anchor="middle" style="font-family: 'Open Sans', verdana, arial, sans-serif; font-size: 14px; fill: rgb(42, 63, 95); opacity: 1; font-weight: normal; white-space: pre;">Day</text></g><g class="g-ytitle"><text class="ytitle" transform="rotate(-90,24.340625000000003,260)" x="24.340625000000003" y="260" text-anchor="middle" style="font-family: 'Open Sans', verdana, arial, sans-serif; font-size: 14px; fill: rgb(42, 63, 95); opacity: 1; font-weight: normal; white-space: pre;">Cumulative Net Flows (USD)</text></g></g></svg>