<svg class="main-svg" xmlns="http://www.w3.org/2000/svg" xmlns:xlink="http://www.w3.org/1999/xlink" width="700" height="500" style="" viewBox="0 0 700 500"><rect x="0" y="0" width="700" height="500" style="fill: rgb(255, 255, 255); fill-opacity: 1;"/><defs id="defs-82e082"><g class="clips"><clipPath id="clip82e082xyplot" class="plotclip"><rect width="540" height="320"/></clipPath><clipPath class="axesclip" id="clip82e082x"><rect x="80" y="0" width="540" height="500"/></clipPath><clipPath class="axesclip" id="clip82e082y"><rect x="0" y="100" width="700" height="320"/></clipPath><clipPath class="axesclip" id="clip82e082xy"><rect x="80" y="100" width="540" height="320"/></clipPath></g><g class="gradients"/><g class="patterns"/></defs><g class="bglayer"><rect class="bg" x="80" y="100" width="540" height="320" style="fill: rgb(229, 236, 246); fill-opacity: 1; stroke-width: 0;"/></g><g class="layer-below"><g class="imagelayer"/><g class="shapelayer"/></g><g class="cartesianlayer"><g class="subplot xy"><g class="layer-subplot"><g class="shapelayer"/><g class="imagelayer"/></g><g class="minor-gridlayer"><g class="x"/><g class="y"/></g><g class="gridlayer"><g class="x"><path class="xgrid crisp" transform="translate(164.66,0)" d="M0,100v320" style="stroke: rgb(255, 255, 255); stroke-opacity: 1; stroke-width: 1px;"/><path class="xgrid crisp" transform="translate(304.24,0)" d="M0,100v320" style="stroke: rgb(255, 255, 255); stroke-opacity: 1; stroke-width: 1px;"/><path class="xgrid crisp" transform="translate(443.81,0)" d="M0,100v320" style="stroke: rgb(255, 255, 255); stroke-opacity: 1; stroke-width: 1px;"/><path class="xgrid crisp" transform="translate(585.6800000000001,0)" d="M0,100v320" style="stroke: rgb(255, 255, 255); stroke-opacity: 1; stroke-width: 1px;"/></g><g class="y"><path class="ygrid crisp" transform="translate(0,360.53)" d="M80,0h540" style="stroke: rgb(255, 255, 255); stroke-opacity: 1; stroke-width: 1px;"/><path class="ygrid crisp" transform="translate(0,295.4)" d="M80,0h540" style="stroke: rgb(255, 255, 255); stroke-opacity: 1; stroke-width: 1px;"/><path class="ygrid crisp" transform="translate(0,230.26)" d="M80,0h540" style="stroke: rgb(255, 255, 255); stroke-opacity: 1; stroke-width: 1px;"/><path class="ygrid crisp" transform="translate(0,165.13)" d="M80,0h540" style="stroke: rgb(255, 255, 255); stroke-opacity: 1; stroke-width: 1px;"/></g></g><g class="zerolinelayer"><path class="yzl zl crisp" transform="translate(0,100)" d="M80,0h540" style="stroke: rgb(255, 255, 255); stroke-opacity: 1; stroke-width: 2px;"/></g><path class="xlines-below"/><path class="ylines-below"/><g class="overlines-below"/><g class="xaxislayer-below"/><g class="yaxislayer-below"/><g class="overaxes-below"/><g class="plot" transform="translate(80,100)" clip-path="url(#clip82e082xyplot)"><g class="scatterlayer mlayer"><g class="trace scatter trace729ad4" style="stroke-miterlimit: 2;"><g class="fills"><g><path class="js-fill" d="M540,0L0,0L0,3.29L2.29,3.72L4.58,41.28L6.86,42.49L9.15,47.63L13.73,53.98L16.02,57.67L20.59,60.19L22.88,62.47L25.17,62.02L27.46,63.46L32.03,67.53L34.32,69.31L36.61,69.29L38.9,72.03L41.19,79.86L43.47,81.95L48.05,89.3L50.34,89.74L52.63,92.49L54.92,84.24L57.2,85.78L59.49,90.5L61.78,112.17L64.07,112.51L68.64,111.99L70.93,115.27L73.22,117.58L75.51,115.41L77.8,116.28L80.08,115.27L82.37,106.66L84.66,107.2L86.95,109.7L89.24,115.83L93.81,120.72L96.1,121.11L102.97,121.57L105.25,117.94L107.54,122.66L109.83,135.51L112.12,136.58L114.41,132.92L116.69,133.1L118.98,123.63L121.27,119.51L123.56,120.93L125.85,121.67L128.14,129.37L130.42,129.65L132.71,136.52L135,137.53L137.29,136.69L139.58,136.77L141.86,141.74L144.15,143.42L146.44,143.66L148.73,138.36L151.02,135.52L153.31,137.77L155.59,137.77L157.88,133.82L160.17,137.25L162.46,138.46L164.75,127.11L167.03,126.4L169.32,127.7L171.61,125.84L173.9,126.01L176.19,126.67L178.47,133.52L183.05,128.55L185.34,131.68L189.92,134.17L192.2,132.11L194.49,131.38L196.78,132.29L199.07,130.82L201.36,131.4L203.64,131.41L205.93,132.5L208.22,132.75L210.51,135.1L212.8,135.71L215.08,135.1L217.37,135.43L219.66,138.87L221.95,138.67L224.24,134.42L233.39,134.57L235.68,136.01L240.25,136.62L242.54,136.96L247.12,136.01L249.41,139.17L251.69,137.69L253.98,137.5L256.27,135.97L258.56,136.09L260.85,138.18L263.14,138.31L267.71,141.91L270,147.48L272.29,147.78L274.58,150.81L279.15,158.85L281.44,158.39L286.02,92.39L288.31,75.22L292.88,64.19L295.17,76.85L297.46,75.58L299.75,95.52L302.03,86.23L304.32,96.52L311.19,115.54L313.47,119.61L320.34,123.15L322.63,131.54L324.92,134.78L327.2,135.68L336.36,141.19L338.64,140.28L345.51,143.92L347.8,144.81L350.08,145.3L352.37,144.42L356.95,145.46L359.24,147.17L361.53,150.35L363.81,169.83L366.1,170.67L368.39,174.18L370.68,184.7L372.97,185.45L379.83,186.4L382.12,190.12L388.98,191.1L391.27,190.65L398.14,191.11L400.42,191.74L402.71,194.99L405,192.8L407.29,189.56L409.58,187.69L411.86,185.58L414.15,189.75L416.44,188.43L418.73,189.39L423.31,190.87L425.59,198.19L430.17,199.06L432.46,199.87L434.75,202.6L437.03,203.18L439.32,203.15L441.61,190.13L453.05,189.62L455.34,205.99L457.63,217.59L459.92,219.29L462.2,219.32L464.49,221.16L469.07,225.43L471.36,226.23L473.64,226.17L475.93,228.11L480.51,226.61L482.8,226.5L485.08,238.24L487.37,239.15L489.66,247.46L491.95,242.56L494.24,252.49L496.53,257.55L498.81,258.52L501.1,258.65L503.39,259.81L505.68,266.08L507.97,266.85L510.25,272L517.12,272.95L519.41,274.53L523.98,276.63L526.27,296.63L528.56,298.86L530.85,299.63L535.42,300.88L537.71,303.28L540,304" style="fill: rgb(99, 110, 250); fill-opacity: 0.5; stroke-width: 0;"/></g></g><g class="errorbars"/><g class="lines"><path class="js-line" d="M0,3.29L2.29,3.72L4.58,41.28L6.86,42.49L9.15,47.63L13.73,53.98L16.02,57.67L20.59,60.19L22.88,62.47L25.17,62.02L27.46,63.46L32.03,67.53L34.32,69.31L36.61,69.29L38.9,72.03L41.19,79.86L43.47,81.95L48.05,89.3L50.34,89.74L52.63,92.49L54.92,84.24L57.2,85.78L59.49,90.5L61.78,112.17L64.07,112.51L68.64,111.99L70.93,115.27L73.22,117.58L75.51,115.41L77.8,116.28L80.08,115.27L82.37,106.66L84.66,107.2L86.95,109.7L89.24,115.83L93.81,120.72L96.1,121.11L102.97,121.57L105.25,117.94L107.54,122.66L109.83,135.51L112.12,136.58L114.41,132.92L116.69,133.1L118.98,123.63L121.27,119.51L123.56,120.93L125.85,121.67L128.14,129.37L130.42,129.65L132.71,136.52L135,137.53L137.29,136.69L139.58,136.77L141.86,141.74L144.15,143.42L146.44,143.66L148.73,138.36L151.02,135.52L153.31,137.77L155.59,137.77L157.88,133.82L160.17,137.25L162.46,138.46L164.75,127.11L167.03,126.4L169.32,127.7L171.61,125.84L173.9,126.01L176.19,126.67L178.47,133.52L183.05,128.55L185.34,131.68L189.92,134.17L192.2,132.11L194.49,131.38L196.78,132.29L199.07,130.82L201.36,131.4L203.64,131.41L205.93,132.5L208.22,132.75L210.51,135.1L212.8,135.71L215.08,135.1L217.37,135.43L219.66,138.87L221.95,138.67L224.24,134.42L233.39,134.57L235.68,136.01L240.25,136.62L242.54,136.96L247.12,136.01L249.41,139.17L251.69,137.69L253.98,137.5L256.27,135.97L258.56,136.09L260.85,138.18L263.14,138.31L267.71,141.91L270,147.48L272.29,147.78L274.58,150.81L279.15,158.85L281.44,158.39L286.02,92.39L288.31,75.22L292.88,64.19L295.17,76.85L297.46,75.58L299.75,95.52L302.03,86.23L304.32,96.52L311.19,115.54L313.47,119.61L320.34,123.15L322.63,131.54L324.92,134.78L327.2,135.68L336.36,141.19L338.64,140.28L345.51,143.92L347.8,144.81L350.08,145.3L352.37,144.42L356.95,145.46L359.24,147.17L361.53,150.35L363.81,169.83L366.1,170.67L368.39,174.18L370.68,184.7L372.97,185.45L379.83,186.4L382.12,190.12L388.98,191.1L391.27,190.65L398.14,191.11L400.42,191.74L402.71,194.99L405,192.8L407.29,189.56L409.58,187.69L411.86,185.58L414.15,189.75L416.44,188.43L418.73,189.39L423.31,190.87L425.59,198.19L430.17,199.06L432.46,199.87L434.75,202.6L437.03,203.18L439.32,203.15L441.61,190.13L453.05,189.62L455.34,205.99L457.63,217.59L459.92,219.29L462.2,219.32L464.49,221.16L469.07,225.43L471.36,226.23L473.64,226.17L475.93,228.11L480.51,226.61L482.8,226.5L485.08,238.24L487.37,239.15L489.66,247.46L491.95,242.56L494.24,252.49L496.53,257.55L498.81,258.52L501.1,258.65L503.39,259.81L505.68,266.08L507.97,266.85L510.25,272L517.12,272.95L519.41,274.53L523.98,276.63L526.27,296.63L528.56,298.86L530.85,299.63L535.42,300.88L537.71,303.28L540,304" style="vector-effect: none; fill: none; stroke: rgb(99, 110, 250); stroke-opacity: 1; stroke-width: 2px; opacity: 1;"/></g><g class="points"/><g class="text"/></g></g></g><g class="overplot"/><path class="xlines-above crisp" d="M0,0" style="fill: none;"/><path class="ylines-above crisp" d="M0,0" style="fill: none;"/><g class="overlines-above"/><g class="xaxislayer-above"><g class="xtick"><text text-anchor="middle" x="0" y="433" transform="translate(164.66,0)" style="font-family: 'Open Sans', verdana, arial, sans-serif; font-size: 12px; fill: rgb(42, 63, 95); fill-opacity: 1; white-space: pre; opacity: 1;">Mar 2023</text></g><g class="xtick"><text text-anchor="middle" x="0" y="433" style="font-family: 'Open Sans', verdana, arial, sans-serif; font-size: 12px; fill: rgb(42, 63, 95); fill-opacity: 1; white-space: pre; opacity: 1;" transform="translate(304.24,0)">May 2023</text></g><g class="xtick"><text text-anchor="middle" x="0" y="433" style="font-family: 'Open Sans', verdana, arial, sans-serif; font-size: 12px; fill: rgb(42, 63, 95); fill-opacity: 1; white-space: pre; opacity: 1;" transform="translate(443.81,0)">Jul 2023</text></g><g class="xtick"><text text-anchor="middle" x="0" y="433" style="font-family: 'Open Sans', verdana, arial, sans-serif; font-size: 12px; fill: rgb(42, 63, 95); fill-opacity: 1; white-space: pre; opacity: 1;" transform="translate(585.6800000000001,0)">Sep 2023</text></g></g><g class="yaxislayer-above"><g class="ytick"><text text-anchor="end" x="79" y="4.199999999999999" transform="translate(0,360.53)" style="font-family: 'Open Sans', verdana, arial, sans-serif; font-size: 12px; fill: rgb(42, 63, 95); fill-opacity: 1; white-space: pre; opacity: 1;">$−400k</text></g><g class="ytick"><text text-anchor="end" x="79" y="4.199999999999999" style="font-family: 'Open Sans', verdana, arial, sans-serif; font-size: 12px; fill: rgb(42, 63, 95); fill-opacity: 1; white-space: pre; opacity: 1;" transform="translate(0,295.4)">$−300k</text></g><g class="ytick"><text text-anchor="end" x="79" y="4.199999999999999" style="font-family: 'Open Sans', verdana, arial, sans-serif; font-size: 12px; fill: rgb(42, 63, 95); fill-opacity: 1; white-space: pre; opacity: 1;" transform="translate(0,230.26)">$−200k</text></g><g class="ytick"><text text-anchor="end" x="79" y="4.199999999999999" style="font-family: 'Open Sans', verdana, arial, sans-serif; font-size: 12px; fill: rgb(42, 63, 95); fill-opacity: 1; white-space: pre; opacity: 1;" transform="translate(0,165.13)">$−100k</text></g><g class="ytick"><text text-anchor="end" x="79" y="4.199999999999999" style="font-family: 'Open Sans', verdana, arial, sans-serif; font-size: 12px; fill: rgb(42, 63, 95); fill-opacity: 1; white-space: pre; opacity: 1;" transform="translate(0,100)">$0</text></g></g><g class="overaxes-above"/></g></g><g class="polarlayer"/><g class="smithlayer"/><g class="ternarylayer"/><g class="geolayer"/><g class="funnelarealayer"/><g class="pielayer"/><g class="iciclelayer"/><g class="treemaplayer"/><g class="sunburstlayer"/><g class="glimages"/><defs id="topdefs-82e082"><g class="clips"/></defs><g class="layer-above"><g class="imagelayer"/><g class="shapelayer"/></g><g class="infolayer"><g class="g-gtitle"><text class="gtitle" x="35" y="50" text-anchor="start" dy="0em" style="font-family: 'Open Sans', verdana, arial, sans-serif; font-size: 17px; fill: rgb(42, 63, 95); opacity: 1; font-weight: normal; white-space: pre;"><tspan class="line" dy="0em" x="35" y="50">Clipper</tspan><tspan class="line" dy="1.3em" x="35" y="50">​<tspan style="font-size:70%" dy="-0.6em">Cumulative Net Flows since Program Announcement, Until Program End + 30 Days</tspan><tspan dy="0.42em">​</tspan></tspan></text></g><g class="g-xtitle"><text class="xtitle" x="350" y="460.3" text-anchor="middle" style="font-family: 'Open Sans', verdana, arial, sans-serif; font-size: 14px; fill: rgb(42, 63, 95); opacity: 1; font-weight: normal; white-space: pre;">Day</text></g><g class="g-ytitle"><text class="ytitle" transform="rotate(-90,14.996875000000003,260)" x="14.996875000000003" y="260" text-anchor="middle" style="font-family: 'Open Sans', verdana, arial, sans-serif; font-size: 14px; fill: rgb(42, 63, 95); opacity: 1; font-weight: normal; white-space: pre;">Cumulative Net Flows (USD)</text></g></g></svg>