<svg class="main-svg" xmlns="http://www.w3.org/2000/svg" xmlns:xlink="http://www.w3.org/1999/xlink" width="700" height="500" style="" viewBox="0 0 700 500"><rect x="0" y="0" width="700" height="500" style="fill: rgb(255, 255, 255); fill-opacity: 1;"/><defs id="defs-e0b964"><g class="clips"><clipPath id="clipe0b964xyplot" class="plotclip"><rect width="540" height="320"/></clipPath><clipPath class="axesclip" id="clipe0b964x"><rect x="80" y="0" width="540" height="500"/></clipPath><clipPath class="axesclip" id="clipe0b964y"><rect x="0" y="100" width="700" height="320"/></clipPath><clipPath class="axesclip" id="clipe0b964xy"><rect x="80" y="100" width="540" height="320"/></clipPath></g><g class="gradients"/><g class="patterns"/></defs><g class="bglayer"><rect class="bg" x="80" y="100" width="540" height="320" style="fill: rgb(229, 236, 246); fill-opacity: 1; stroke-width: 0;"/></g><g class="layer-below"><g class="imagelayer"/><g class="shapelayer"/></g><g class="cartesianlayer"><g class="subplot xy"><g class="layer-subplot"><g class="shapelayer"/><g class="imagelayer"/></g><g class="minor-gridlayer"><g class="x"/><g class="y"/></g><g class="gridlayer"><g class="x"><path class="xgrid crisp" transform="translate(172.12,0)" d="M0,100v320" style="stroke: rgb(255, 255, 255); stroke-opacity: 1; stroke-width: 1px;"/><path class="xgrid crisp" transform="translate(267.40999999999997,0)" d="M0,100v320" style="stroke: rgb(255, 255, 255); stroke-opacity: 1; stroke-width: 1px;"/><path class="xgrid crisp" transform="translate(365.88,0)" d="M0,100v320" style="stroke: rgb(255, 255, 255); stroke-opacity: 1; stroke-width: 1px;"/><path class="xgrid crisp" transform="translate(461.18,0)" d="M0,100v320" style="stroke: rgb(255, 255, 255); stroke-opacity: 1; stroke-width: 1px;"/><path class="xgrid crisp" transform="translate(559.65,0)" d="M0,100v320" style="stroke: rgb(255, 255, 255); stroke-opacity: 1; stroke-width: 1px;"/></g><g class="y"><path class="ygrid crisp" transform="translate(0,407.63)" d="M80,0h540" style="stroke: rgb(255, 255, 255); stroke-opacity: 1; stroke-width: 1px;"/><path class="ygrid crisp" transform="translate(0,339.83000000000004)" d="M80,0h540" style="stroke: rgb(255, 255, 255); stroke-opacity: 1; stroke-width: 1px;"/><path class="ygrid crisp" transform="translate(0,204.24)" d="M80,0h540" style="stroke: rgb(255, 255, 255); stroke-opacity: 1; stroke-width: 1px;"/><path class="ygrid crisp" transform="translate(0,136.45)" d="M80,0h540" style="stroke: rgb(255, 255, 255); stroke-opacity: 1; stroke-width: 1px;"/></g></g><g class="zerolinelayer"><path class="yzl zl crisp" transform="translate(0,272.03999999999996)" d="M80,0h540" style="stroke: rgb(255, 255, 255); stroke-opacity: 1; stroke-width: 2px;"/></g><path class="xlines-below"/><path class="ylines-below"/><g class="overlines-below"/><g class="xaxislayer-below"/><g class="yaxislayer-below"/><g class="overaxes-below"/><g class="plot" transform="translate(80,100)" clip-path="url(#clipe0b964xyplot)"><g class="scatterlayer mlayer"><g class="trace scatter trace28d3a0" style="stroke-miterlimit: 2;"><g class="fills"><g><path class="js-fill" d="M540,172.04L0,172.04L0,152.91L3.18,94.47L6.35,110.31L9.53,112.04L12.71,52.95L15.88,50.19L19.06,103.16L22.24,105.77L25.41,139.37L28.59,242.31L31.76,231.45L34.94,166.16L38.12,151.2L41.29,147.06L44.47,146.67L47.65,144.29L50.82,139.7L54,126.19L57.18,122.12L60.35,122.14L63.53,88.11L66.71,88.6L69.88,96.76L73.06,130.48L76.24,113.29L79.41,117.75L82.59,113.31L85.76,113.53L88.94,131.09L92.12,84.74L95.29,84.92L98.47,80.91L101.65,79.84L104.82,64.67L108,81.64L111.18,78.2L114.35,76.48L117.53,16L120.71,54.24L123.88,33.44L127.06,68.85L130.24,67.61L133.41,77.51L136.59,74.46L139.76,69.89L142.94,59.06L146.12,51.78L149.29,36.1L152.47,43.89L155.65,47.84L158.82,27.54L162,39.37L165.18,28.82L168.35,34.22L171.53,304L238.24,85.51L241.41,85.51L244.59,90.45L247.76,91.57L250.94,95.74L254.12,95.25L260.47,94.44L263.65,99.34L266.82,92.26L270,82.28L273.18,82.18L276.35,120.06L279.53,125.43L282.71,126.35L285.88,135.56L289.06,151.31L292.24,152.19L295.41,171.33L298.59,175.4L301.76,175.96L304.94,179.39L308.12,173.46L311.29,179.93L314.47,180.18L320.82,179.95L324,180.48L330.35,182.82L333.53,216.62L336.71,218.34L339.88,232.04L343.06,233.48L346.24,237.87L352.59,236.58L355.76,237.18L358.94,235.11L362.12,234.38L365.29,233.71L368.47,234.86L371.65,234.85L374.82,246.91L387.53,247.55L390.71,247.53L393.88,248.38L397.06,248.36L400.24,250.74L403.41,271.17L406.59,266.66L409.76,268.11L412.94,269.26L416.12,269.29L419.29,270.61L422.47,273.49L425.65,275.7L428.82,275.84L432,278.28L435.18,278.27L444.71,278.27L447.88,282.27L486,281.97L489.18,281.84L495.53,281.31L498.71,281.31L501.88,281.33L505.06,282.83L511.41,282.78L514.59,286.11L517.76,301.46L524.12,286.31L530.47,286.3L533.65,289.39L536.82,289.66L540,292.27" style="fill: rgb(99, 110, 250); fill-opacity: 0.5; stroke-width: 0;"/></g></g><g class="errorbars"/><g class="lines"><path class="js-line" d="M0,152.91L3.18,94.47L6.35,110.31L9.53,112.04L12.71,52.95L15.88,50.19L19.06,103.16L22.24,105.77L25.41,139.37L28.59,242.31L31.76,231.45L34.94,166.16L38.12,151.2L41.29,147.06L44.47,146.67L47.65,144.29L50.82,139.7L54,126.19L57.18,122.12L60.35,122.14L63.53,88.11L66.71,88.6L69.88,96.76L73.06,130.48L76.24,113.29L79.41,117.75L82.59,113.31L85.76,113.53L88.94,131.09L92.12,84.74L95.29,84.92L98.47,80.91L101.65,79.84L104.82,64.67L108,81.64L111.18,78.2L114.35,76.48L117.53,16L120.71,54.24L123.88,33.44L127.06,68.85L130.24,67.61L133.41,77.51L136.59,74.46L139.76,69.89L142.94,59.06L146.12,51.78L149.29,36.1L152.47,43.89L155.65,47.84L158.82,27.54L162,39.37L165.18,28.82L168.35,34.22L171.53,304L238.24,85.51L241.41,85.51L244.59,90.45L247.76,91.57L250.94,95.74L254.12,95.25L260.47,94.44L263.65,99.34L266.82,92.26L270,82.28L273.18,82.18L276.35,120.06L279.53,125.43L282.71,126.35L285.88,135.56L289.06,151.31L292.24,152.19L295.41,171.33L298.59,175.4L301.76,175.96L304.94,179.39L308.12,173.46L311.29,179.93L314.47,180.18L320.82,179.95L324,180.48L330.35,182.82L333.53,216.62L336.71,218.34L339.88,232.04L343.06,233.48L346.24,237.87L352.59,236.58L355.76,237.18L358.94,235.11L362.12,234.38L365.29,233.71L368.47,234.86L371.65,234.85L374.82,246.91L387.53,247.55L390.71,247.53L393.88,248.38L397.06,248.36L400.24,250.74L403.41,271.17L406.59,266.66L409.76,268.11L412.94,269.26L416.12,269.29L419.29,270.61L422.47,273.49L425.65,275.7L428.82,275.84L432,278.28L435.18,278.27L444.71,278.27L447.88,282.27L486,281.97L489.18,281.84L495.53,281.31L498.71,281.31L501.88,281.33L505.06,282.83L511.41,282.78L514.59,286.11L517.76,301.46L524.12,286.31L530.47,286.3L533.65,289.39L536.82,289.66L540,292.27" style="vector-effect: none; fill: none; stroke: rgb(99, 110, 250); stroke-opacity: 1; stroke-width: 2px; opacity: 1;"/></g><g class="points"/><g class="text"/></g></g></g><g class="overplot"/><path class="xlines-above crisp" d="M0,0" style="fill: none;"/><path class="ylines-above crisp" d="M0,0" style="fill: none;"/><g class="overlines-above"/><g class="xaxislayer-above"><g class="xtick"><text text-anchor="middle" x="0" y="433" transform="translate(172.12,0)" style="font-family: 'Open Sans', verdana, arial, sans-serif; font-size: 12px; fill: rgb(42, 63, 95); fill-opacity: 1; white-space: pre; opacity: 1;">Apr 2023</text></g><g class="xtick"><text text-anchor="middle" x="0" y="433" style="font-family: 'Open Sans', verdana, arial, sans-serif; font-size: 12px; fill: rgb(42, 63, 95); fill-opacity: 1; white-space: pre; opacity: 1;" transform="translate(267.40999999999997,0)">May 2023</text></g><g class="xtick"><text text-anchor="middle" x="0" y="433" style="font-family: 'Open Sans', verdana, arial, sans-serif; font-size: 12px; fill: rgb(42, 63, 95); fill-opacity: 1; white-space: pre; opacity: 1;" transform="translate(365.88,0)">Jun 2023</text></g><g class="xtick"><text text-anchor="middle" x="0" y="433" style="font-family: 'Open Sans', verdana, arial, sans-serif; font-size: 12px; fill: rgb(42, 63, 95); fill-opacity: 1; white-space: pre; opacity: 1;" transform="translate(461.18,0)">Jul 2023</text></g><g class="xtick"><text text-anchor="middle" x="0" y="433" style="font-family: 'Open Sans', verdana, arial, sans-serif; font-size: 12px; fill: rgb(42, 63, 95); fill-opacity: 1; white-space: pre; opacity: 1;" transform="translate(559.65,0)">Aug 2023</text></g></g><g class="yaxislayer-above"><g class="ytick"><text text-anchor="end" x="79" y="4.199999999999999" transform="translate(0,407.63)" style="font-family: 'Open Sans', verdana, arial, sans-serif; font-size: 12px; fill: rgb(42, 63, 95); fill-opacity: 1; white-space: pre; opacity: 1;">$−2M</text></g><g class="ytick"><text text-anchor="end" x="79" y="4.199999999999999" style="font-family: 'Open Sans', verdana, arial, sans-serif; font-size: 12px; fill: rgb(42, 63, 95); fill-opacity: 1; white-space: pre; opacity: 1;" transform="translate(0,339.83000000000004)">$−1M</text></g><g class="ytick"><text text-anchor="end" x="79" y="4.199999999999999" style="font-family: 'Open Sans', verdana, arial, sans-serif; font-size: 12px; fill: rgb(42, 63, 95); fill-opacity: 1; white-space: pre; opacity: 1;" transform="translate(0,272.03999999999996)">$0</text></g><g class="ytick"><text text-anchor="end" x="79" y="4.199999999999999" style="font-family: 'Open Sans', verdana, arial, sans-serif; font-size: 12px; fill: rgb(42, 63, 95); fill-opacity: 1; white-space: pre; opacity: 1;" transform="translate(0,204.24)">$1M</text></g><g class="ytick"><text text-anchor="end" x="79" y="4.199999999999999" style="font-family: 'Open Sans', verdana, arial, sans-serif; font-size: 12px; fill: rgb(42, 63, 95); fill-opacity: 1; white-space: pre; opacity: 1;" transform="translate(0,136.45)">$2M</text></g></g><g class="overaxes-above"/></g></g><g class="polarlayer"/><g class="smithlayer"/><g class="ternarylayer"/><g class="geolayer"/><g class="funnelarealayer"/><g class="pielayer"/><g class="iciclelayer"/><g class="treemaplayer"/><g class="sunburstlayer"/><g class="glimages"/><defs id="topdefs-e0b964"><g class="clips"/></defs><g class="layer-above"><g class="imagelayer"/><g class="shapelayer"/></g><g class="infolayer"><g class="g-gtitle"><text class="gtitle" x="35" y="50" text-anchor="start" dy="0em" style="font-family: 'Open Sans', verdana, arial, sans-serif; font-size: 17px; fill: rgb(42, 63, 95); opacity: 1; font-weight: normal; white-space: pre;"><tspan class="line" dy="0em" x="35" y="50">Sushi Trident</tspan><tspan class="line" dy="1.3em" x="35" y="50">​<tspan style="font-size:70%" dy="-0.6em">Cumulative Net Flows since Program Announcement, Until Program End + 30 Days</tspan><tspan dy="0.42em">​</tspan></tspan></text></g><g class="g-xtitle"><text class="xtitle" x="350" y="460.3" text-anchor="middle" style="font-family: 'Open Sans', verdana, arial, sans-serif; font-size: 14px; fill: rgb(42, 63, 95); opacity: 1; font-weight: normal; white-space: pre;">Day</text></g><g class="g-ytitle"><text class="ytitle" transform="rotate(-90,24.340625000000003,260)" x="24.340625000000003" y="260" text-anchor="middle" style="font-family: 'Open Sans', verdana, arial, sans-serif; font-size: 14px; fill: rgb(42, 63, 95); opacity: 1; font-weight: normal; white-space: pre;">Cumulative Net Flows (USD)</text></g></g></svg>