<svg class="main-svg" xmlns="http://www.w3.org/2000/svg" xmlns:xlink="http://www.w3.org/1999/xlink" width="700" height="500" style="" viewBox="0 0 700 500"><rect x="0" y="0" width="700" height="500" style="fill: rgb(255, 255, 255); fill-opacity: 1;"/><defs id="defs-cd1bbb"><g class="clips"><clipPath id="clipcd1bbbxyplot" class="plotclip"><rect width="540" height="320"/></clipPath><clipPath class="axesclip" id="clipcd1bbbx"><rect x="80" y="0" width="540" height="500"/></clipPath><clipPath class="axesclip" id="clipcd1bbby"><rect x="0" y="100" width="700" height="320"/></clipPath><clipPath class="axesclip" id="clipcd1bbbxy"><rect x="80" y="100" width="540" height="320"/></clipPath></g><g class="gradients"/><g class="patterns"/></defs><g class="bglayer"><rect class="bg" x="80" y="100" width="540" height="320" style="fill: rgb(229, 236, 246); fill-opacity: 1; stroke-width: 0;"/></g><g class="layer-below"><g class="imagelayer"/><g class="shapelayer"/></g><g class="cartesianlayer"><g class="subplot xy"><g class="layer-subplot"><g class="shapelayer"/><g class="imagelayer"/></g><g class="minor-gridlayer"><g class="x"/><g class="y"/></g><g class="gridlayer"><g class="x"><path class="xgrid crisp" transform="translate(136.25,0)" d="M0,100v320" style="stroke: rgb(255, 255, 255); stroke-opacity: 1; stroke-width: 1px;"/><path class="xgrid crisp" transform="translate(234.29,0)" d="M0,100v320" style="stroke: rgb(255, 255, 255); stroke-opacity: 1; stroke-width: 1px;"/><path class="xgrid crisp" transform="translate(329.11,0)" d="M0,100v320" style="stroke: rgb(255, 255, 255); stroke-opacity: 1; stroke-width: 1px;"/><path class="xgrid crisp" transform="translate(427.14,0)" d="M0,100v320" style="stroke: rgb(255, 255, 255); stroke-opacity: 1; stroke-width: 1px;"/><path class="xgrid crisp" transform="translate(525.1800000000001,0)" d="M0,100v320" style="stroke: rgb(255, 255, 255); stroke-opacity: 1; stroke-width: 1px;"/></g><g class="y"><path class="ygrid crisp" transform="translate(0,383.44)" d="M80,0h540" style="stroke: rgb(255, 255, 255); stroke-opacity: 1; stroke-width: 1px;"/><path class="ygrid crisp" transform="translate(0,250.22)" d="M80,0h540" style="stroke: rgb(255, 255, 255); stroke-opacity: 1; stroke-width: 1px;"/><path class="ygrid crisp" transform="translate(0,183.6)" d="M80,0h540" style="stroke: rgb(255, 255, 255); stroke-opacity: 1; stroke-width: 1px;"/><path class="ygrid crisp" transform="translate(0,116.99)" d="M80,0h540" style="stroke: rgb(255, 255, 255); stroke-opacity: 1; stroke-width: 1px;"/></g></g><g class="zerolinelayer"><path class="yzl zl crisp" transform="translate(0,316.83000000000004)" d="M80,0h540" style="stroke: rgb(255, 255, 255); stroke-opacity: 1; stroke-width: 2px;"/></g><path class="xlines-below"/><path class="ylines-below"/><g class="overlines-below"/><g class="xaxislayer-below"/><g class="yaxislayer-below"/><g class="overaxes-below"/><g class="plot" transform="translate(80,100)" clip-path="url(#clipcd1bbbxyplot)"><g class="scatterlayer mlayer"><g class="trace scatter tracea64190" style="stroke-miterlimit: 2;"><g class="fills"><g><path class="js-fill" d="M540,216.83L0,216.83L0,216.68L32.14,216.55L33.75,213.33L36.96,213.47L38.57,214.55L40.18,214.72L41.79,213.97L43.39,214.11L45,215.01L46.61,217.53L48.21,216.67L49.82,214.38L51.43,213.65L54.64,213.45L56.25,213L57.86,212.8L59.46,210.58L64.29,209.52L65.89,207.69L67.5,215.06L69.11,216L70.71,221.78L72.32,221.92L75.54,224.74L77.14,225.09L78.75,220.88L80.36,220.71L85.18,219.38L86.79,219.3L88.39,219.59L90,219.02L91.61,219.68L93.21,217.91L94.82,217.11L96.43,214.91L98.04,214.56L99.64,216.58L101.25,216.85L102.86,216.25L104.46,213.27L106.07,212.16L109.29,211.93L110.89,211.13L112.5,213.24L114.11,211.75L115.71,212.87L117.32,210.76L118.93,213.3L120.54,203.06L122.14,206.27L123.75,204.64L125.36,206.45L126.96,215.65L128.57,215.8L130.18,218.46L133.39,218.44L135,215.63L141.43,215.32L143.04,215.32L154.29,217.29L155.89,216.94L160.71,216.83L162.32,217.87L163.93,216.73L165.54,216.74L167.14,215.07L168.75,214.67L171.96,212.92L173.57,211.53L178.39,210.65L180,208.23L181.61,206.91L183.21,202.9L184.82,200.66L186.43,195.72L188.04,196.19L189.64,192L194.46,169.05L196.07,164.45L197.68,161.77L199.29,160.87L200.89,159.19L202.5,155.21L204.11,153.53L205.71,150.49L210.54,145.41L212.14,132.84L215.36,115.13L216.96,116.08L218.57,116.93L220.18,113.5L221.79,110.75L223.39,110.39L225,109.12L226.61,105.13L228.21,99.71L229.82,97.25L231.43,97.71L233.04,88.21L234.64,84.27L236.25,70.52L237.86,73.13L239.46,71.32L241.07,57.65L242.68,55.69L244.29,43.56L245.89,37.37L247.5,33.74L249.11,28.01L250.71,19.79L252.32,20.03L253.93,20.5L255.54,22.75L257.14,23.47L258.75,18.4L260.36,16L261.96,22.43L263.57,59.33L265.18,144.7L266.79,147.21L268.39,130.81L270,107.85L271.61,103.09L273.21,99.48L274.82,83.86L276.43,66.54L278.04,58.49L279.64,54.84L281.25,58.59L282.86,55.58L284.46,59.73L286.07,61.61L287.68,64.88L289.29,66.51L290.89,70.81L292.5,69.96L294.11,71.42L295.71,82.17L297.32,121.63L298.93,122.03L300.54,127.14L303.75,137.18L305.36,139.27L306.96,143.78L308.57,145.34L310.18,146.36L311.79,153.79L318.21,169.14L319.82,167.94L323.04,170.31L324.64,170L327.86,172.09L329.46,176.01L331.07,178.28L332.68,176.25L334.29,176.63L335.89,172.19L339.11,170.23L340.71,172.53L345.54,172.22L347.14,172.44L350.36,174.28L351.96,176.22L353.57,177.1L355.18,179.46L356.79,179.49L358.39,181.82L361.61,184.74L363.21,188.82L364.82,189.69L366.43,189.63L368.04,190.06L369.64,191.52L371.25,189.31L372.86,196.72L374.46,197.79L376.07,196.77L377.68,199.21L379.29,199.39L382.5,199.71L384.11,200.08L387.32,200.44L388.93,203L395.36,203.7L396.96,205L398.57,205.22L400.18,206.63L403.39,207.26L405,209.46L408.21,200.85L409.82,201.1L411.43,207.75L413.04,208.21L417.86,208.59L419.46,215.9L421.07,217.66L422.68,216.39L424.29,216.67L425.89,219.04L429.11,225.83L430.71,226.31L435.54,227.64L437.14,230.09L438.75,231.68L440.36,238.8L443.57,251.26L445.18,254.56L446.79,255.05L448.39,257.6L450,266.12L451.61,266.19L461.25,268.38L462.86,293.84L464.46,294.57L466.07,299.98L472.5,300.61L474.11,301.58L488.57,302.02L490.18,302.03L493.39,302.6L495,302.59L533.57,303.47L535.18,303.78L540,304" style="fill: rgb(99, 110, 250); fill-opacity: 0.5; stroke-width: 0;"/></g></g><g class="errorbars"/><g class="lines"><path class="js-line" d="M0,216.68L32.14,216.55L33.75,213.33L36.96,213.47L38.57,214.55L40.18,214.72L41.79,213.97L43.39,214.11L45,215.01L46.61,217.53L48.21,216.67L49.82,214.38L51.43,213.65L54.64,213.45L56.25,213L57.86,212.8L59.46,210.58L64.29,209.52L65.89,207.69L67.5,215.06L69.11,216L70.71,221.78L72.32,221.92L75.54,224.74L77.14,225.09L78.75,220.88L80.36,220.71L85.18,219.38L86.79,219.3L88.39,219.59L90,219.02L91.61,219.68L93.21,217.91L94.82,217.11L96.43,214.91L98.04,214.56L99.64,216.58L101.25,216.85L102.86,216.25L104.46,213.27L106.07,212.16L109.29,211.93L110.89,211.13L112.5,213.24L114.11,211.75L115.71,212.87L117.32,210.76L118.93,213.3L120.54,203.06L122.14,206.27L123.75,204.64L125.36,206.45L126.96,215.65L128.57,215.8L130.18,218.46L133.39,218.44L135,215.63L141.43,215.32L143.04,215.32L154.29,217.29L155.89,216.94L160.71,216.83L162.32,217.87L163.93,216.73L165.54,216.74L167.14,215.07L168.75,214.67L171.96,212.92L173.57,211.53L178.39,210.65L180,208.23L181.61,206.91L183.21,202.9L184.82,200.66L186.43,195.72L188.04,196.19L189.64,192L194.46,169.05L196.07,164.45L197.68,161.77L199.29,160.87L200.89,159.19L202.5,155.21L204.11,153.53L205.71,150.49L210.54,145.41L212.14,132.84L215.36,115.13L216.96,116.08L218.57,116.93L220.18,113.5L221.79,110.75L223.39,110.39L225,109.12L226.61,105.13L228.21,99.71L229.82,97.25L231.43,97.71L233.04,88.21L234.64,84.27L236.25,70.52L237.86,73.13L239.46,71.32L241.07,57.65L242.68,55.69L244.29,43.56L245.89,37.37L247.5,33.74L249.11,28.01L250.71,19.79L252.32,20.03L253.93,20.5L255.54,22.75L257.14,23.47L258.75,18.4L260.36,16L261.96,22.43L263.57,59.33L265.18,144.7L266.79,147.21L268.39,130.81L270,107.85L271.61,103.09L273.21,99.48L274.82,83.86L276.43,66.54L278.04,58.49L279.64,54.84L281.25,58.59L282.86,55.58L284.46,59.73L286.07,61.61L287.68,64.88L289.29,66.51L290.89,70.81L292.5,69.96L294.11,71.42L295.71,82.17L297.32,121.63L298.93,122.03L300.54,127.14L303.75,137.18L305.36,139.27L306.96,143.78L308.57,145.34L310.18,146.36L311.79,153.79L318.21,169.14L319.82,167.94L323.04,170.31L324.64,170L327.86,172.09L329.46,176.01L331.07,178.28L332.68,176.25L334.29,176.63L335.89,172.19L339.11,170.23L340.71,172.53L345.54,172.22L347.14,172.44L350.36,174.28L351.96,176.22L353.57,177.1L355.18,179.46L356.79,179.49L358.39,181.82L361.61,184.74L363.21,188.82L364.82,189.69L366.43,189.63L368.04,190.06L369.64,191.52L371.25,189.31L372.86,196.72L374.46,197.79L376.07,196.77L377.68,199.21L379.29,199.39L382.5,199.71L384.11,200.08L387.32,200.44L388.93,203L395.36,203.7L396.96,205L398.57,205.22L400.18,206.63L403.39,207.26L405,209.46L408.21,200.85L409.82,201.1L411.43,207.75L413.04,208.21L417.86,208.59L419.46,215.9L421.07,217.66L422.68,216.39L424.29,216.67L425.89,219.04L429.11,225.83L430.71,226.31L435.54,227.64L437.14,230.09L438.75,231.68L440.36,238.8L443.57,251.26L445.18,254.56L446.79,255.05L448.39,257.6L450,266.12L451.61,266.19L461.25,268.38L462.86,293.84L464.46,294.57L466.07,299.98L472.5,300.61L474.11,301.58L488.57,302.02L490.18,302.03L493.39,302.6L495,302.59L533.57,303.47L535.18,303.78L540,304" style="vector-effect: none; fill: none; stroke: rgb(99, 110, 250); stroke-opacity: 1; stroke-width: 2px; opacity: 1;"/></g><g class="points"/><g class="text"/></g></g></g><g class="overplot"/><path class="xlines-above crisp" d="M0,0" style="fill: none;"/><path class="ylines-above crisp" d="M0,0" style="fill: none;"/><g class="overlines-above"/><g class="xaxislayer-above"><g class="xtick"><text text-anchor="middle" x="0" y="433" transform="translate(136.25,0)" style="font-family: 'Open Sans', verdana, arial, sans-serif; font-size: 12px; fill: rgb(42, 63, 95); fill-opacity: 1; white-space: pre; opacity: 1;">Nov 2022</text></g><g class="xtick"><text text-anchor="middle" x="0" y="433" style="font-family: 'Open Sans', verdana, arial, sans-serif; font-size: 12px; fill: rgb(42, 63, 95); fill-opacity: 1; white-space: pre; opacity: 1;" transform="translate(234.29,0)">Jan 2023</text></g><g class="xtick"><text text-anchor="middle" x="0" y="433" style="font-family: 'Open Sans', verdana, arial, sans-serif; font-size: 12px; fill: rgb(42, 63, 95); fill-opacity: 1; white-space: pre; opacity: 1;" transform="translate(329.11,0)">Mar 2023</text></g><g class="xtick"><text text-anchor="middle" x="0" y="433" style="font-family: 'Open Sans', verdana, arial, sans-serif; font-size: 12px; fill: rgb(42, 63, 95); fill-opacity: 1; white-space: pre; opacity: 1;" transform="translate(427.14,0)">May 2023</text></g><g class="xtick"><text text-anchor="middle" x="0" y="433" style="font-family: 'Open Sans', verdana, arial, sans-serif; font-size: 12px; fill: rgb(42, 63, 95); fill-opacity: 1; white-space: pre; opacity: 1;" transform="translate(525.1800000000001,0)">Jul 2023</text></g></g><g class="yaxislayer-above"><g class="ytick"><text text-anchor="end" x="79" y="4.199999999999999" transform="translate(0,383.44)" style="font-family: 'Open Sans', verdana, arial, sans-serif; font-size: 12px; fill: rgb(42, 63, 95); fill-opacity: 1; white-space: pre; opacity: 1;">$−20M</text></g><g class="ytick"><text text-anchor="end" x="79" y="4.199999999999999" style="font-family: 'Open Sans', verdana, arial, sans-serif; font-size: 12px; fill: rgb(42, 63, 95); fill-opacity: 1; white-space: pre; opacity: 1;" transform="translate(0,316.83000000000004)">$0</text></g><g class="ytick"><text text-anchor="end" x="79" y="4.199999999999999" style="font-family: 'Open Sans', verdana, arial, sans-serif; font-size: 12px; fill: rgb(42, 63, 95); fill-opacity: 1; white-space: pre; opacity: 1;" transform="translate(0,250.22)">$20M</text></g><g class="ytick"><text text-anchor="end" x="79" y="4.199999999999999" style="font-family: 'Open Sans', verdana, arial, sans-serif; font-size: 12px; fill: rgb(42, 63, 95); fill-opacity: 1; white-space: pre; opacity: 1;" transform="translate(0,183.6)">$40M</text></g><g class="ytick"><text text-anchor="end" x="79" y="4.199999999999999" style="font-family: 'Open Sans', verdana, arial, sans-serif; font-size: 12px; fill: rgb(42, 63, 95); fill-opacity: 1; white-space: pre; opacity: 1;" transform="translate(0,116.99)">$60M</text></g></g><g class="overaxes-above"/></g></g><g class="polarlayer"/><g class="smithlayer"/><g class="ternarylayer"/><g class="geolayer"/><g class="funnelarealayer"/><g class="pielayer"/><g class="iciclelayer"/><g class="treemaplayer"/><g class="sunburstlayer"/><g class="glimages"/><defs id="topdefs-cd1bbb"><g class="clips"/></defs><g class="layer-above"><g class="imagelayer"/><g class="shapelayer"/></g><g class="infolayer"><g class="g-gtitle"><text class="gtitle" x="35" y="50" text-anchor="start" dy="0em" style="font-family: 'Open Sans', verdana, arial, sans-serif; font-size: 17px; fill: rgb(42, 63, 95); opacity: 1; font-weight: normal; white-space: pre;"><tspan class="line" dy="0em" x="35" y="50">Synthetix - All Synthetix Velo Pools</tspan><tspan class="line" dy="1.3em" x="35" y="50">​<tspan style="font-size:70%" dy="-0.6em">Cumulative Net Flows since Program Announcement, Until Program End + 30 Days</tspan><tspan dy="0.42em">​</tspan></tspan></text></g><g class="g-xtitle"><text class="xtitle" x="350" y="460.3" text-anchor="middle" style="font-family: 'Open Sans', verdana, arial, sans-serif; font-size: 14px; fill: rgb(42, 63, 95); opacity: 1; font-weight: normal; white-space: pre;">Day</text></g><g class="g-ytitle"><text class="ytitle" transform="rotate(-90,17.668750000000003,260)" x="17.668750000000003" y="260" text-anchor="middle" style="font-family: 'Open Sans', verdana, arial, sans-serif; font-size: 14px; fill: rgb(42, 63, 95); opacity: 1; font-weight: normal; white-space: pre;">Cumulative Net Flows (USD)</text></g></g></svg>