<svg class="main-svg" xmlns="http://www.w3.org/2000/svg" xmlns:xlink="http://www.w3.org/1999/xlink" width="700" height="500" style="" viewBox="0 0 700 500"><rect x="0" y="0" width="700" height="500" style="fill: rgb(255, 255, 255); fill-opacity: 1;"/><defs id="defs-31ae8b"><g class="clips"><clipPath id="clip31ae8bxyplot" class="plotclip"><rect width="540" height="320"/></clipPath><clipPath class="axesclip" id="clip31ae8bx"><rect x="80" y="0" width="540" height="500"/></clipPath><clipPath class="axesclip" id="clip31ae8by"><rect x="0" y="100" width="700" height="320"/></clipPath><clipPath class="axesclip" id="clip31ae8bxy"><rect x="80" y="100" width="540" height="320"/></clipPath></g><g class="gradients"/><g class="patterns"/></defs><g class="bglayer"><rect class="bg" x="80" y="100" width="540" height="320" style="fill: rgb(229, 236, 246); fill-opacity: 1; stroke-width: 0;"/></g><g class="layer-below"><g class="imagelayer"/><g class="shapelayer"/></g><g class="cartesianlayer"><g class="subplot xy"><g class="layer-subplot"><g class="shapelayer"/><g class="imagelayer"/></g><g class="minor-gridlayer"><g class="x"/><g class="y"/></g><g class="gridlayer"><g class="x"><path class="xgrid crisp" transform="translate(140.89,0)" d="M0,100v320" style="stroke: rgb(255, 255, 255); stroke-opacity: 1; stroke-width: 1px;"/><path class="xgrid crisp" transform="translate(210.98,0)" d="M0,100v320" style="stroke: rgb(255, 255, 255); stroke-opacity: 1; stroke-width: 1px;"/><path class="xgrid crisp" transform="translate(278.77,0)" d="M0,100v320" style="stroke: rgb(255, 255, 255); stroke-opacity: 1; stroke-width: 1px;"/><path class="xgrid crisp" transform="translate(348.85,0)" d="M0,100v320" style="stroke: rgb(255, 255, 255); stroke-opacity: 1; stroke-width: 1px;"/><path class="xgrid crisp" transform="translate(418.94,0)" d="M0,100v320" style="stroke: rgb(255, 255, 255); stroke-opacity: 1; stroke-width: 1px;"/><path class="xgrid crisp" transform="translate(490.17,0)" d="M0,100v320" style="stroke: rgb(255, 255, 255); stroke-opacity: 1; stroke-width: 1px;"/><path class="xgrid crisp" transform="translate(560.26,0)" d="M0,100v320" style="stroke: rgb(255, 255, 255); stroke-opacity: 1; stroke-width: 1px;"/></g><g class="y"><path class="ygrid crisp" transform="translate(0,339.38)" d="M80,0h540" style="stroke: rgb(255, 255, 255); stroke-opacity: 1; stroke-width: 1px;"/><path class="ygrid crisp" transform="translate(0,292.35)" d="M80,0h540" style="stroke: rgb(255, 255, 255); stroke-opacity: 1; stroke-width: 1px;"/><path class="ygrid crisp" transform="translate(0,245.32)" d="M80,0h540" style="stroke: rgb(255, 255, 255); stroke-opacity: 1; stroke-width: 1px;"/><path class="ygrid crisp" transform="translate(0,198.29000000000002)" d="M80,0h540" style="stroke: rgb(255, 255, 255); stroke-opacity: 1; stroke-width: 1px;"/><path class="ygrid crisp" transform="translate(0,151.26)" d="M80,0h540" style="stroke: rgb(255, 255, 255); stroke-opacity: 1; stroke-width: 1px;"/><path class="ygrid crisp" transform="translate(0,104.23)" d="M80,0h540" style="stroke: rgb(255, 255, 255); stroke-opacity: 1; stroke-width: 1px;"/></g></g><g class="zerolinelayer"><path class="yzl zl crisp" transform="translate(0,386.41)" d="M80,0h540" style="stroke: rgb(255, 255, 255); stroke-opacity: 1; stroke-width: 2px;"/></g><path class="xlines-below"/><path class="ylines-below"/><g class="overlines-below"/><g class="xaxislayer-below"/><g class="yaxislayer-below"/><g class="overaxes-below"/><g class="plot" transform="translate(80,100)" clip-path="url(#clip31ae8bxyplot)"><g class="scatterlayer mlayer"><g class="trace scatter trace6f81e3" style="stroke-miterlimit: 2;"><g class="fills"><g><path class="js-fill" d="M540,286.41L0,286.41L0,279.57L1.15,269.3L2.3,270.62L4.6,255.4L5.74,256.46L6.89,255.85L8.04,259.38L9.19,239.52L10.34,237.53L11.49,235.96L12.64,232.18L13.79,233.41L14.94,236.02L16.09,230.77L17.23,230.08L18.38,229.21L19.53,225.03L20.68,225.53L21.83,221.23L22.98,221.46L24.13,216.6L26.43,204.08L27.57,206.89L31.02,193.74L32.17,192.78L34.47,201.66L35.62,198.57L36.77,199.37L37.91,203.39L39.06,212.52L40.21,215.42L41.36,218.96L42.51,219.26L44.81,217.17L45.96,218.14L47.11,227.38L48.26,225.54L49.4,227.45L50.55,226.97L52.85,228.43L54,224.64L55.15,222.38L56.3,222.53L57.45,221.66L58.6,219.55L59.74,220.96L60.89,218.65L62.04,213.86L63.19,213.02L66.64,206.45L67.79,210.17L68.94,214.2L70.09,222.67L71.23,230.16L72.38,227.36L73.53,226.37L74.68,229.75L76.98,229.03L78.13,227.94L81.57,227.17L82.72,221.07L86.17,230.93L87.32,229.61L90.77,229.97L91.91,230.99L93.06,232.18L94.21,229.73L95.36,225.63L96.51,227.22L97.66,221.15L98.81,221.95L99.96,221.45L101.11,222.31L102.26,220.91L103.4,224.6L104.55,223.74L105.7,225.39L108,227.37L109.15,226.87L110.3,225.41L111.45,225.52L112.6,226.6L113.74,229.45L114.89,230.98L116.04,230.84L117.19,232.15L118.34,230.75L119.49,230.35L120.64,230.85L121.79,230.73L122.94,228.12L124.09,228.36L125.23,230.86L126.38,227.52L127.53,227.99L128.68,226.99L129.83,227.46L130.98,225.65L132.13,225.47L134.43,224.95L135.57,222.74L136.72,223.31L137.87,222.11L139.02,222.48L140.17,219.66L142.47,216.13L143.62,209.96L145.91,214.35L147.06,214.9L148.21,213.38L149.36,210.61L150.51,208.61L151.66,203.43L152.81,200.76L153.96,196.05L155.11,196L156.26,192.57L157.4,194.03L158.55,194.27L159.7,184.6L160.85,184.08L162,180.43L163.15,181.73L165.45,178.55L166.6,177.36L168.89,170.37L170.04,171.21L172.34,175.6L173.49,167.44L174.64,163.35L175.79,166.51L176.94,170.87L178.09,170.95L179.23,167.12L180.38,167.91L181.53,169.71L182.68,166.2L184.98,154.56L186.13,151.51L187.28,150.24L188.43,131.54L189.57,129.36L190.72,133.52L191.87,139.24L193.02,136.27L194.17,92.38L195.32,94.7L196.47,90L197.62,92.93L198.77,93.76L199.91,28.61L201.06,29.96L202.21,24.37L203.36,20.7L204.51,304L207.96,19.12L209.11,28.77L210.26,43.97L211.4,173.38L212.55,165.99L213.7,152.18L214.85,23.97L216,24.66L218.3,16L219.45,22.84L220.6,28.45L221.74,28.31L222.89,29.36L224.04,31.43L226.34,39.83L227.49,38.36L229.79,40.68L230.94,37.87L232.09,303.85L233.23,35.51L234.38,31.7L235.53,32.54L236.68,32.99L237.83,32.1L240.13,20.47L241.28,28.11L244.72,28.66L245.87,25.55L247.02,33.91L248.17,35.1L249.32,36.35L250.47,41L251.62,40.1L252.77,36.95L253.91,24.93L255.06,149.67L256.21,150.23L257.36,151.77L258.51,157.17L259.66,154.38L260.81,155.36L261.96,154.09L263.11,151.23L264.26,151.07L265.4,149.85L266.55,150.05L267.7,147.74L268.85,148.87L270,155.74L271.15,149.64L272.3,154.81L273.45,164.61L274.6,163.41L275.74,173.89L278.04,179.41L279.19,179.2L280.34,180.57L281.49,185.23L282.64,187.65L283.79,187.76L284.94,187.77L286.09,186.7L288.38,186.77L289.53,187.57L290.68,188.76L291.83,188.3L292.98,188.98L294.13,185.7L295.28,184.46L296.43,192.48L299.87,191.42L301.02,188.65L302.17,190.07L303.32,189.35L304.47,203.45L305.62,198.18L306.77,195.1L307.91,195.28L309.06,195.41L310.21,198.16L311.36,195.66L312.51,198.04L313.66,200.69L314.81,200.91L315.96,206.4L317.11,206.25L318.26,207.32L319.4,205.4L320.55,208.13L321.7,208.57L322.85,213.73L324,212.06L326.3,212.38L327.45,211.22L328.6,208.74L329.74,209.21L332.04,207.81L333.19,206.91L335.49,209.13L336.64,232.65L337.79,249.02L338.94,251.87L340.09,249.68L341.23,255.89L342.38,254.9L343.53,255.37L344.68,255.82L345.83,257.19L346.98,256.3L348.13,256.46L349.28,257.4L350.43,257.01L351.57,256.89L352.72,257.76L353.87,256.73L355.02,257.28L356.17,257.16L357.32,260.18L358.47,264.13L359.62,264.35L360.77,265.11L361.91,267.76L365.36,268.6L366.51,269.44L369.96,269.21L371.11,269.17L372.26,269.03L373.4,271.14L378,271.62L379.15,271.74L382.6,272.05L383.74,273.55L386.04,273.66L387.19,272.75L391.79,276.05L392.94,276.47L395.23,278.08L396.38,278L404.43,278.53L405.57,278.7L409.02,278.63L410.17,279.37L413.62,279.54L414.77,281.72L418.21,282.01L419.36,282.15L421.66,282.54L422.81,283.12L428.55,282.64L429.7,282.8L433.15,282.67L434.3,283.15L440.04,283.41L441.19,283.45L445.79,282.18L446.94,282.69L452.68,283.25L453.83,283.32L456.13,284.03L457.28,284.01L458.43,285.65L459.57,285.57L461.87,285.87L463.02,285.51L467.62,286.18L468.77,285.91L474.51,284.46L475.66,284.66L489.45,283.85L490.6,285.78L504.38,286.93L505.53,286.14L510.13,286.22L511.28,286.55L521.62,285.3L522.77,284.41L523.91,284.42L525.06,285.8L526.21,284.39L527.36,285.24L529.66,285.08L530.81,284.68L533.11,285.13L534.26,285.32L537.7,285.18L538.85,288.92L540,289.29" style="fill: rgb(99, 110, 250); fill-opacity: 0.5; stroke-width: 0;"/></g></g><g class="errorbars"/><g class="lines"><path class="js-line" d="M0,279.57L1.15,269.3L2.3,270.62L4.6,255.4L5.74,256.46L6.89,255.85L8.04,259.38L9.19,239.52L10.34,237.53L11.49,235.96L12.64,232.18L13.79,233.41L14.94,236.02L16.09,230.77L17.23,230.08L18.38,229.21L19.53,225.03L20.68,225.53L21.83,221.23L22.98,221.46L24.13,216.6L26.43,204.08L27.57,206.89L31.02,193.74L32.17,192.78L34.47,201.66L35.62,198.57L36.77,199.37L37.91,203.39L39.06,212.52L40.21,215.42L41.36,218.96L42.51,219.26L44.81,217.17L45.96,218.14L47.11,227.38L48.26,225.54L49.4,227.45L50.55,226.97L52.85,228.43L54,224.64L55.15,222.38L56.3,222.53L57.45,221.66L58.6,219.55L59.74,220.96L60.89,218.65L62.04,213.86L63.19,213.02L66.64,206.45L67.79,210.17L68.94,214.2L70.09,222.67L71.23,230.16L72.38,227.36L73.53,226.37L74.68,229.75L76.98,229.03L78.13,227.94L81.57,227.17L82.72,221.07L86.17,230.93L87.32,229.61L90.77,229.97L91.91,230.99L93.06,232.18L94.21,229.73L95.36,225.63L96.51,227.22L97.66,221.15L98.81,221.95L99.96,221.45L101.11,222.31L102.26,220.91L103.4,224.6L104.55,223.74L105.7,225.39L108,227.37L109.15,226.87L110.3,225.41L111.45,225.52L112.6,226.6L113.74,229.45L114.89,230.98L116.04,230.84L117.19,232.15L118.34,230.75L119.49,230.35L120.64,230.85L121.79,230.73L122.94,228.12L124.09,228.36L125.23,230.86L126.38,227.52L127.53,227.99L128.68,226.99L129.83,227.46L130.98,225.65L132.13,225.47L134.43,224.95L135.57,222.74L136.72,223.31L137.87,222.11L139.02,222.48L140.17,219.66L142.47,216.13L143.62,209.96L145.91,214.35L147.06,214.9L148.21,213.38L149.36,210.61L150.51,208.61L151.66,203.43L152.81,200.76L153.96,196.05L155.11,196L156.26,192.57L157.4,194.03L158.55,194.27L159.7,184.6L160.85,184.08L162,180.43L163.15,181.73L165.45,178.55L166.6,177.36L168.89,170.37L170.04,171.21L172.34,175.6L173.49,167.44L174.64,163.35L175.79,166.51L176.94,170.87L178.09,170.95L179.23,167.12L180.38,167.91L181.53,169.71L182.68,166.2L184.98,154.56L186.13,151.51L187.28,150.24L188.43,131.54L189.57,129.36L190.72,133.52L191.87,139.24L193.02,136.27L194.17,92.38L195.32,94.7L196.47,90L197.62,92.93L198.77,93.76L199.91,28.61L201.06,29.96L202.21,24.37L203.36,20.7L204.51,304L207.96,19.12L209.11,28.77L210.26,43.97L211.4,173.38L212.55,165.99L213.7,152.18L214.85,23.97L216,24.66L218.3,16L219.45,22.84L220.6,28.45L221.74,28.31L222.89,29.36L224.04,31.43L226.34,39.83L227.49,38.36L229.79,40.68L230.94,37.87L232.09,303.85L233.23,35.51L234.38,31.7L235.53,32.54L236.68,32.99L237.83,32.1L240.13,20.47L241.28,28.11L244.72,28.66L245.87,25.55L247.02,33.91L248.17,35.1L249.32,36.35L250.47,41L251.62,40.1L252.77,36.95L253.91,24.93L255.06,149.67L256.21,150.23L257.36,151.77L258.51,157.17L259.66,154.38L260.81,155.36L261.96,154.09L263.11,151.23L264.26,151.07L265.4,149.85L266.55,150.05L267.7,147.74L268.85,148.87L270,155.74L271.15,149.64L272.3,154.81L273.45,164.61L274.6,163.41L275.74,173.89L278.04,179.41L279.19,179.2L280.34,180.57L281.49,185.23L282.64,187.65L283.79,187.76L284.94,187.77L286.09,186.7L288.38,186.77L289.53,187.57L290.68,188.76L291.83,188.3L292.98,188.98L294.13,185.7L295.28,184.46L296.43,192.48L299.87,191.42L301.02,188.65L302.17,190.07L303.32,189.35L304.47,203.45L305.62,198.18L306.77,195.1L307.91,195.28L309.06,195.41L310.21,198.16L311.36,195.66L312.51,198.04L313.66,200.69L314.81,200.91L315.96,206.4L317.11,206.25L318.26,207.32L319.4,205.4L320.55,208.13L321.7,208.57L322.85,213.73L324,212.06L326.3,212.38L327.45,211.22L328.6,208.74L329.74,209.21L332.04,207.81L333.19,206.91L335.49,209.13L336.64,232.65L337.79,249.02L338.94,251.87L340.09,249.68L341.23,255.89L342.38,254.9L343.53,255.37L344.68,255.82L345.83,257.19L346.98,256.3L348.13,256.46L349.28,257.4L350.43,257.01L351.57,256.89L352.72,257.76L353.87,256.73L355.02,257.28L356.17,257.16L357.32,260.18L358.47,264.13L359.62,264.35L360.77,265.11L361.91,267.76L365.36,268.6L366.51,269.44L369.96,269.21L371.11,269.17L372.26,269.03L373.4,271.14L378,271.62L379.15,271.74L382.6,272.05L383.74,273.55L386.04,273.66L387.19,272.75L391.79,276.05L392.94,276.47L395.23,278.08L396.38,278L404.43,278.53L405.57,278.7L409.02,278.63L410.17,279.37L413.62,279.54L414.77,281.72L418.21,282.01L419.36,282.15L421.66,282.54L422.81,283.12L428.55,282.64L429.7,282.8L433.15,282.67L434.3,283.15L440.04,283.41L441.19,283.45L445.79,282.18L446.94,282.69L452.68,283.25L453.83,283.32L456.13,284.03L457.28,284.01L458.43,285.65L459.57,285.57L461.87,285.87L463.02,285.51L467.62,286.18L468.77,285.91L474.51,284.46L475.66,284.66L489.45,283.85L490.6,285.78L504.38,286.93L505.53,286.14L510.13,286.22L511.28,286.55L521.62,285.3L522.77,284.41L523.91,284.42L525.06,285.8L526.21,284.39L527.36,285.24L529.66,285.08L530.81,284.68L533.11,285.13L534.26,285.32L537.7,285.18L538.85,288.92L540,289.29" style="vector-effect: none; fill: none; stroke: rgb(99, 110, 250); stroke-opacity: 1; stroke-width: 2px; opacity: 1;"/></g><g class="points"/><g class="text"/></g></g></g><g class="overplot"/><path class="xlines-above crisp" d="M0,0" style="fill: none;"/><path class="ylines-above crisp" d="M0,0" style="fill: none;"/><g class="overlines-above"/><g class="xaxislayer-above"><g class="xtick"><text text-anchor="middle" x="0" y="433" transform="translate(140.89,0)" style="font-family: 'Open Sans', verdana, arial, sans-serif; font-size: 12px; fill: rgb(42, 63, 95); fill-opacity: 1; white-space: pre; opacity: 1;">Nov 2022</text></g><g class="xtick"><text text-anchor="middle" x="0" y="433" style="font-family: 'Open Sans', verdana, arial, sans-serif; font-size: 12px; fill: rgb(42, 63, 95); fill-opacity: 1; white-space: pre; opacity: 1;" transform="translate(210.98,0)">Jan 2023</text></g><g class="xtick"><text text-anchor="middle" x="0" y="433" style="font-family: 'Open Sans', verdana, arial, sans-serif; font-size: 12px; fill: rgb(42, 63, 95); fill-opacity: 1; white-space: pre; opacity: 1;" transform="translate(278.77,0)">Mar 2023</text></g><g class="xtick"><text text-anchor="middle" x="0" y="433" style="font-family: 'Open Sans', verdana, arial, sans-serif; font-size: 12px; fill: rgb(42, 63, 95); fill-opacity: 1; white-space: pre; opacity: 1;" transform="translate(348.85,0)">May 2023</text></g><g class="xtick"><text text-anchor="middle" x="0" y="433" style="font-family: 'Open Sans', verdana, arial, sans-serif; font-size: 12px; fill: rgb(42, 63, 95); fill-opacity: 1; white-space: pre; opacity: 1;" transform="translate(418.94,0)">Jul 2023</text></g><g class="xtick"><text text-anchor="middle" x="0" y="433" style="font-family: 'Open Sans', verdana, arial, sans-serif; font-size: 12px; fill: rgb(42, 63, 95); fill-opacity: 1; white-space: pre; opacity: 1;" transform="translate(490.17,0)">Sep 2023</text></g><g class="xtick"><text text-anchor="middle" x="0" y="433" style="font-family: 'Open Sans', verdana, arial, sans-serif; font-size: 12px; fill: rgb(42, 63, 95); fill-opacity: 1; white-space: pre; opacity: 1;" transform="translate(560.26,0)">Nov 2023</text></g></g><g class="yaxislayer-above"><g class="ytick"><text text-anchor="end" x="79" y="4.199999999999999" transform="translate(0,386.41)" style="font-family: 'Open Sans', verdana, arial, sans-serif; font-size: 12px; fill: rgb(42, 63, 95); fill-opacity: 1; white-space: pre; opacity: 1;">$0</text></g><g class="ytick"><text text-anchor="end" x="79" y="4.199999999999999" style="font-family: 'Open Sans', verdana, arial, sans-serif; font-size: 12px; fill: rgb(42, 63, 95); fill-opacity: 1; white-space: pre; opacity: 1;" transform="translate(0,339.38)">$1M</text></g><g class="ytick"><text text-anchor="end" x="79" y="4.199999999999999" style="font-family: 'Open Sans', verdana, arial, sans-serif; font-size: 12px; fill: rgb(42, 63, 95); fill-opacity: 1; white-space: pre; opacity: 1;" transform="translate(0,292.35)">$2M</text></g><g class="ytick"><text text-anchor="end" x="79" y="4.199999999999999" style="font-family: 'Open Sans', verdana, arial, sans-serif; font-size: 12px; fill: rgb(42, 63, 95); fill-opacity: 1; white-space: pre; opacity: 1;" transform="translate(0,245.32)">$3M</text></g><g class="ytick"><text text-anchor="end" x="79" y="4.199999999999999" style="font-family: 'Open Sans', verdana, arial, sans-serif; font-size: 12px; fill: rgb(42, 63, 95); fill-opacity: 1; white-space: pre; opacity: 1;" transform="translate(0,198.29000000000002)">$4M</text></g><g class="ytick"><text text-anchor="end" x="79" y="4.199999999999999" style="font-family: 'Open Sans', verdana, arial, sans-serif; font-size: 12px; fill: rgb(42, 63, 95); fill-opacity: 1; white-space: pre; opacity: 1;" transform="translate(0,151.26)">$5M</text></g><g class="ytick"><text text-anchor="end" x="79" y="4.199999999999999" style="font-family: 'Open Sans', verdana, arial, sans-serif; font-size: 12px; fill: rgb(42, 63, 95); fill-opacity: 1; white-space: pre; opacity: 1;" transform="translate(0,104.23)">$6M</text></g></g><g class="overaxes-above"/></g></g><g class="polarlayer"/><g class="smithlayer"/><g class="ternarylayer"/><g class="geolayer"/><g class="funnelarealayer"/><g class="pielayer"/><g class="iciclelayer"/><g class="treemaplayer"/><g class="sunburstlayer"/><g class="glimages"/><defs id="topdefs-31ae8b"><g class="clips"/></defs><g class="layer-above"><g class="imagelayer"/><g class="shapelayer"/></g><g class="infolayer"><g class="g-gtitle"><text class="gtitle" x="35" y="50" text-anchor="start" dy="0em" style="font-family: 'Open Sans', verdana, arial, sans-serif; font-size: 17px; fill: rgb(42, 63, 95); opacity: 1; font-weight: normal; white-space: pre;"><tspan class="line" dy="0em" x="35" y="50">Pickle - Pickle Finance</tspan><tspan class="line" dy="1.3em" x="35" y="50">​<tspan style="font-size:70%" dy="-0.6em">Cumulative Net Flows since Program Announcement, Until Program End + 30 Days</tspan><tspan dy="0.42em">​</tspan></tspan></text></g><g class="g-xtitle"><text class="xtitle" x="350" y="460.3" text-anchor="middle" style="font-family: 'Open Sans', verdana, arial, sans-serif; font-size: 14px; fill: rgb(42, 63, 95); opacity: 1; font-weight: normal; white-space: pre;">Day</text></g><g class="g-ytitle"><text class="ytitle" transform="rotate(-90,31.356250000000003,260)" x="31.356250000000003" y="260" text-anchor="middle" style="font-family: 'Open Sans', verdana, arial, sans-serif; font-size: 14px; fill: rgb(42, 63, 95); opacity: 1; font-weight: normal; white-space: pre;">Cumulative Net Flows (USD)</text></g></g></svg>