<svg class="main-svg" xmlns="http://www.w3.org/2000/svg" xmlns:xlink="http://www.w3.org/1999/xlink" width="700" height="500" style="" viewBox="0 0 700 500"><rect x="0" y="0" width="700" height="500" style="fill: rgb(255, 255, 255); fill-opacity: 1;"/><defs id="defs-fe631c"><g class="clips"><clipPath id="clipfe631cxyplot" class="plotclip"><rect width="540" height="320"/></clipPath><clipPath class="axesclip" id="clipfe631cx"><rect x="80" y="0" width="540" height="500"/></clipPath><clipPath class="axesclip" id="clipfe631cy"><rect x="0" y="100" width="700" height="320"/></clipPath><clipPath class="axesclip" id="clipfe631cxy"><rect x="80" y="100" width="540" height="320"/></clipPath></g><g class="gradients"/><g class="patterns"/></defs><g class="bglayer"><rect class="bg" x="80" y="100" width="540" height="320" style="fill: rgb(229, 236, 246); fill-opacity: 1; stroke-width: 0;"/></g><g class="layer-below"><g class="imagelayer"/><g class="shapelayer"/></g><g class="cartesianlayer"><g class="subplot xy"><g class="layer-subplot"><g class="shapelayer"/><g class="imagelayer"/></g><g class="minor-gridlayer"><g class="x"/><g class="y"/></g><g class="gridlayer"><g class="x"><path class="xgrid crisp" transform="translate(130.63,0)" d="M0,100v320" style="stroke: rgb(255, 255, 255); stroke-opacity: 1; stroke-width: 1px;"/><path class="xgrid crisp" transform="translate(205.36,0)" d="M0,100v320" style="stroke: rgb(255, 255, 255); stroke-opacity: 1; stroke-width: 1px;"/><path class="xgrid crisp" transform="translate(277.68,0)" d="M0,100v320" style="stroke: rgb(255, 255, 255); stroke-opacity: 1; stroke-width: 1px;"/><path class="xgrid crisp" transform="translate(352.41,0)" d="M0,100v320" style="stroke: rgb(255, 255, 255); stroke-opacity: 1; stroke-width: 1px;"/><path class="xgrid crisp" transform="translate(424.73,0)" d="M0,100v320" style="stroke: rgb(255, 255, 255); stroke-opacity: 1; stroke-width: 1px;"/><path class="xgrid crisp" transform="translate(499.46,0)" d="M0,100v320" style="stroke: rgb(255, 255, 255); stroke-opacity: 1; stroke-width: 1px;"/><path class="xgrid crisp" transform="translate(574.2,0)" d="M0,100v320" style="stroke: rgb(255, 255, 255); stroke-opacity: 1; stroke-width: 1px;"/></g><g class="y"><path class="ygrid crisp" transform="translate(0,322.46000000000004)" d="M80,0h540" style="stroke: rgb(255, 255, 255); stroke-opacity: 1; stroke-width: 1px;"/><path class="ygrid crisp" transform="translate(0,268.18)" d="M80,0h540" style="stroke: rgb(255, 255, 255); stroke-opacity: 1; stroke-width: 1px;"/><path class="ygrid crisp" transform="translate(0,213.9)" d="M80,0h540" style="stroke: rgb(255, 255, 255); stroke-opacity: 1; stroke-width: 1px;"/><path class="ygrid crisp" transform="translate(0,159.62)" d="M80,0h540" style="stroke: rgb(255, 255, 255); stroke-opacity: 1; stroke-width: 1px;"/><path class="ygrid crisp" transform="translate(0,105.34)" d="M80,0h540" style="stroke: rgb(255, 255, 255); stroke-opacity: 1; stroke-width: 1px;"/></g></g><g class="zerolinelayer"><path class="yzl zl crisp" transform="translate(0,376.74)" d="M80,0h540" style="stroke: rgb(255, 255, 255); stroke-opacity: 1; stroke-width: 2px;"/></g><path class="xlines-below"/><path class="ylines-below"/><g class="overlines-below"/><g class="xaxislayer-below"/><g class="yaxislayer-below"/><g class="overaxes-below"/><g class="plot" transform="translate(80,100)" clip-path="url(#clipfe631cxyplot)"><g class="scatterlayer mlayer"><g class="trace scatter trace7e5089" style="stroke-miterlimit: 2;"><g class="fills"><g><path class="js-fill" d="M540,276.74L0,276.74L0,271.37L2.41,242.9L4.82,233.33L7.23,223.62L9.64,219.79L12.05,217.4L14.46,216.12L16.88,216.37L19.29,207.98L21.7,194.05L24.11,191.1L26.52,182.36L28.93,152.68L33.75,144.68L36.16,132.32L38.57,110.35L40.98,106.84L43.39,104.29L45.8,97.81L50.63,95.48L53.04,91.89L65.09,75.26L67.5,74.05L72.32,80.2L74.73,81.55L77.14,81.91L79.55,81.36L81.96,62.92L84.38,60.81L86.79,58.57L89.2,58.26L91.61,58.45L94.02,55.91L96.43,54.16L98.84,69.17L103.66,69.76L106.07,66.4L108.48,67.53L110.89,66.99L113.3,62.55L115.71,63.83L118.13,59.31L120.54,60.39L122.95,57.99L125.36,47.93L127.77,47.11L130.18,49.16L132.59,46.95L135,46.07L137.41,42.3L139.82,40.29L142.23,40.24L144.64,46.91L149.46,68.48L151.88,76.27L154.29,75.71L156.7,64.01L159.11,53.8L161.52,57.92L163.93,31.54L166.34,30.34L168.75,27.88L171.16,22.09L173.57,23.44L175.98,22.09L178.39,25.35L180.8,25.06L183.21,22.56L185.63,21.8L188.04,16L190.45,16.53L195.27,16.88L197.68,18.58L200.09,33.68L202.5,34L209.73,53.07L212.14,62.03L214.55,69.97L216.96,73.17L221.79,74.49L224.2,89.24L236.25,90.34L238.66,94.61L243.48,94.6L245.89,95.67L248.3,94.89L250.71,79.34L253.13,80.99L255.54,84.04L257.95,85.01L260.36,89L262.77,114.69L265.18,115.03L267.59,115.45L270,120.11L272.41,121.79L274.82,133.68L277.23,134.01L279.64,135.25L294.11,135.64L296.52,136.02L303.75,137.38L306.16,143.52L313.39,141.9L315.8,142.09L318.21,142.44L320.63,126.41L323.04,153.1L325.45,157.96L327.86,159.7L330.27,164.08L332.68,175.65L335.09,179.65L339.91,196.1L342.32,200.37L347.14,205.77L349.55,214.74L354.38,215.4L356.79,216.01L361.61,216.96L364.02,264.55L373.66,265.42L376.07,270.48L385.71,270.84L388.13,291.36L395.36,291.96L397.77,292.28L426.7,292.91L429.11,295.48L450.8,295.81L453.21,299.7L530.36,300.23L532.77,304L535.18,300.12L537.59,300.12L540,300.12" style="fill: rgb(99, 110, 250); fill-opacity: 0.5; stroke-width: 0;"/></g></g><g class="errorbars"/><g class="lines"><path class="js-line" d="M0,271.37L2.41,242.9L4.82,233.33L7.23,223.62L9.64,219.79L12.05,217.4L14.46,216.12L16.88,216.37L19.29,207.98L21.7,194.05L24.11,191.1L26.52,182.36L28.93,152.68L33.75,144.68L36.16,132.32L38.57,110.35L40.98,106.84L43.39,104.29L45.8,97.81L50.63,95.48L53.04,91.89L65.09,75.26L67.5,74.05L72.32,80.2L74.73,81.55L77.14,81.91L79.55,81.36L81.96,62.92L84.38,60.81L86.79,58.57L89.2,58.26L91.61,58.45L94.02,55.91L96.43,54.16L98.84,69.17L103.66,69.76L106.07,66.4L108.48,67.53L110.89,66.99L113.3,62.55L115.71,63.83L118.13,59.31L120.54,60.39L122.95,57.99L125.36,47.93L127.77,47.11L130.18,49.16L132.59,46.95L135,46.07L137.41,42.3L139.82,40.29L142.23,40.24L144.64,46.91L149.46,68.48L151.88,76.27L154.29,75.71L156.7,64.01L159.11,53.8L161.52,57.92L163.93,31.54L166.34,30.34L168.75,27.88L171.16,22.09L173.57,23.44L175.98,22.09L178.39,25.35L180.8,25.06L183.21,22.56L185.63,21.8L188.04,16L190.45,16.53L195.27,16.88L197.68,18.58L200.09,33.68L202.5,34L209.73,53.07L212.14,62.03L214.55,69.97L216.96,73.17L221.79,74.49L224.2,89.24L236.25,90.34L238.66,94.61L243.48,94.6L245.89,95.67L248.3,94.89L250.71,79.34L253.13,80.99L255.54,84.04L257.95,85.01L260.36,89L262.77,114.69L265.18,115.03L267.59,115.45L270,120.11L272.41,121.79L274.82,133.68L277.23,134.01L279.64,135.25L294.11,135.64L296.52,136.02L303.75,137.38L306.16,143.52L313.39,141.9L315.8,142.09L318.21,142.44L320.63,126.41L323.04,153.1L325.45,157.96L327.86,159.7L330.27,164.08L332.68,175.65L335.09,179.65L339.91,196.1L342.32,200.37L347.14,205.77L349.55,214.74L354.38,215.4L356.79,216.01L361.61,216.96L364.02,264.55L373.66,265.42L376.07,270.48L385.71,270.84L388.13,291.36L395.36,291.96L397.77,292.28L426.7,292.91L429.11,295.48L450.8,295.81L453.21,299.7L530.36,300.23L532.77,304L535.18,300.12L537.59,300.12L540,300.12" style="vector-effect: none; fill: none; stroke: rgb(99, 110, 250); stroke-opacity: 1; stroke-width: 2px; opacity: 1;"/></g><g class="points"/><g class="text"/></g></g></g><g class="overplot"/><path class="xlines-above crisp" d="M0,0" style="fill: none;"/><path class="ylines-above crisp" d="M0,0" style="fill: none;"/><g class="overlines-above"/><g class="xaxislayer-above"><g class="xtick"><text text-anchor="middle" x="0" y="433" transform="translate(130.63,0)" style="font-family: 'Open Sans', verdana, arial, sans-serif; font-size: 12px; fill: rgb(42, 63, 95); fill-opacity: 1; white-space: pre; opacity: 1;">Mar 2023</text></g><g class="xtick"><text text-anchor="middle" x="0" y="433" style="font-family: 'Open Sans', verdana, arial, sans-serif; font-size: 12px; fill: rgb(42, 63, 95); fill-opacity: 1; white-space: pre; opacity: 1;" transform="translate(205.36,0)">Apr 2023</text></g><g class="xtick"><text text-anchor="middle" x="0" y="433" style="font-family: 'Open Sans', verdana, arial, sans-serif; font-size: 12px; fill: rgb(42, 63, 95); fill-opacity: 1; white-space: pre; opacity: 1;" transform="translate(277.68,0)">May 2023</text></g><g class="xtick"><text text-anchor="middle" x="0" y="433" style="font-family: 'Open Sans', verdana, arial, sans-serif; font-size: 12px; fill: rgb(42, 63, 95); fill-opacity: 1; white-space: pre; opacity: 1;" transform="translate(352.41,0)">Jun 2023</text></g><g class="xtick"><text text-anchor="middle" x="0" y="433" style="font-family: 'Open Sans', verdana, arial, sans-serif; font-size: 12px; fill: rgb(42, 63, 95); fill-opacity: 1; white-space: pre; opacity: 1;" transform="translate(424.73,0)">Jul 2023</text></g><g class="xtick"><text text-anchor="middle" x="0" y="433" style="font-family: 'Open Sans', verdana, arial, sans-serif; font-size: 12px; fill: rgb(42, 63, 95); fill-opacity: 1; white-space: pre; opacity: 1;" transform="translate(499.46,0)">Aug 2023</text></g><g class="xtick"><text text-anchor="middle" x="0" y="433" style="font-family: 'Open Sans', verdana, arial, sans-serif; font-size: 12px; fill: rgb(42, 63, 95); fill-opacity: 1; white-space: pre; opacity: 1;" transform="translate(574.2,0)">Sep 2023</text></g></g><g class="yaxislayer-above"><g class="ytick"><text text-anchor="end" x="79" y="4.199999999999999" transform="translate(0,376.74)" style="font-family: 'Open Sans', verdana, arial, sans-serif; font-size: 12px; fill: rgb(42, 63, 95); fill-opacity: 1; white-space: pre; opacity: 1;">$0</text></g><g class="ytick"><text text-anchor="end" x="79" y="4.199999999999999" style="font-family: 'Open Sans', verdana, arial, sans-serif; font-size: 12px; fill: rgb(42, 63, 95); fill-opacity: 1; white-space: pre; opacity: 1;" transform="translate(0,322.46000000000004)">$5M</text></g><g class="ytick"><text text-anchor="end" x="79" y="4.199999999999999" style="font-family: 'Open Sans', verdana, arial, sans-serif; font-size: 12px; fill: rgb(42, 63, 95); fill-opacity: 1; white-space: pre; opacity: 1;" transform="translate(0,268.18)">$10M</text></g><g class="ytick"><text text-anchor="end" x="79" y="4.199999999999999" style="font-family: 'Open Sans', verdana, arial, sans-serif; font-size: 12px; fill: rgb(42, 63, 95); fill-opacity: 1; white-space: pre; opacity: 1;" transform="translate(0,213.9)">$15M</text></g><g class="ytick"><text text-anchor="end" x="79" y="4.199999999999999" style="font-family: 'Open Sans', verdana, arial, sans-serif; font-size: 12px; fill: rgb(42, 63, 95); fill-opacity: 1; white-space: pre; opacity: 1;" transform="translate(0,159.62)">$20M</text></g><g class="ytick"><text text-anchor="end" x="79" y="4.199999999999999" style="font-family: 'Open Sans', verdana, arial, sans-serif; font-size: 12px; fill: rgb(42, 63, 95); fill-opacity: 1; white-space: pre; opacity: 1;" transform="translate(0,105.34)">$25M</text></g></g><g class="overaxes-above"/></g></g><g class="polarlayer"/><g class="smithlayer"/><g class="ternarylayer"/><g class="geolayer"/><g class="funnelarealayer"/><g class="pielayer"/><g class="iciclelayer"/><g class="treemaplayer"/><g class="sunburstlayer"/><g class="glimages"/><defs id="topdefs-fe631c"><g class="clips"/></defs><g class="layer-above"><g class="imagelayer"/><g class="shapelayer"/></g><g class="infolayer"><g class="g-gtitle"><text class="gtitle" x="35" y="50" text-anchor="start" dy="0em" style="font-family: 'Open Sans', verdana, arial, sans-serif; font-size: 17px; fill: rgb(42, 63, 95); opacity: 1; font-weight: normal; white-space: pre;"><tspan class="line" dy="0em" x="35" y="50">Rocket Pool - vWETH/rETH: Velodrome</tspan><tspan class="line" dy="1.3em" x="35" y="50">​<tspan style="font-size:70%" dy="-0.6em">Cumulative Net Flows since Program Announcement, Until Program End + 30 Days</tspan><tspan dy="0.42em">​</tspan></tspan></text></g><g class="g-xtitle"><text class="xtitle" x="350" y="460.3" text-anchor="middle" style="font-family: 'Open Sans', verdana, arial, sans-serif; font-size: 14px; fill: rgb(42, 63, 95); opacity: 1; font-weight: normal; white-space: pre;">Day</text></g><g class="g-ytitle"><text class="ytitle" transform="rotate(-90,24.668750000000003,260)" x="24.668750000000003" y="260" text-anchor="middle" style="font-family: 'Open Sans', verdana, arial, sans-serif; font-size: 14px; fill: rgb(42, 63, 95); opacity: 1; font-weight: normal; white-space: pre;">Cumulative Net Flows (USD)</text></g></g></svg>