<svg class="main-svg" xmlns="http://www.w3.org/2000/svg" xmlns:xlink="http://www.w3.org/1999/xlink" width="700" height="500" style="" viewBox="0 0 700 500"><rect x="0" y="0" width="700" height="500" style="fill: rgb(255, 255, 255); fill-opacity: 1;"/><defs id="defs-20d940"><g class="clips"><clipPath id="clip20d940xyplot" class="plotclip"><rect width="540" height="320"/></clipPath><clipPath class="axesclip" id="clip20d940x"><rect x="80" y="0" width="540" height="500"/></clipPath><clipPath class="axesclip" id="clip20d940y"><rect x="0" y="100" width="700" height="320"/></clipPath><clipPath class="axesclip" id="clip20d940xy"><rect x="80" y="100" width="540" height="320"/></clipPath></g><g class="gradients"/><g class="patterns"/></defs><g class="bglayer"><rect class="bg" x="80" y="100" width="540" height="320" style="fill: rgb(229, 236, 246); fill-opacity: 1; stroke-width: 0;"/></g><g class="layer-below"><g class="imagelayer"/><g class="shapelayer"/></g><g class="cartesianlayer"><g class="subplot xy"><g class="layer-subplot"><g class="shapelayer"/><g class="imagelayer"/></g><g class="minor-gridlayer"><g class="x"/><g class="y"/></g><g class="gridlayer"><g class="x"><path class="xgrid crisp" transform="translate(127.45,0)" d="M0,100v320" style="stroke: rgb(255, 255, 255); stroke-opacity: 1; stroke-width: 1px;"/><path class="xgrid crisp" transform="translate(227.27,0)" d="M0,100v320" style="stroke: rgb(255, 255, 255); stroke-opacity: 1; stroke-width: 1px;"/><path class="xgrid crisp" transform="translate(323.82,0)" d="M0,100v320" style="stroke: rgb(255, 255, 255); stroke-opacity: 1; stroke-width: 1px;"/><path class="xgrid crisp" transform="translate(423.64,0)" d="M0,100v320" style="stroke: rgb(255, 255, 255); stroke-opacity: 1; stroke-width: 1px;"/><path class="xgrid crisp" transform="translate(523.45,0)" d="M0,100v320" style="stroke: rgb(255, 255, 255); stroke-opacity: 1; stroke-width: 1px;"/></g><g class="y"><path class="ygrid crisp" transform="translate(0,387.26)" d="M80,0h540" style="stroke: rgb(255, 255, 255); stroke-opacity: 1; stroke-width: 1px;"/><path class="ygrid crisp" transform="translate(0,262.31)" d="M80,0h540" style="stroke: rgb(255, 255, 255); stroke-opacity: 1; stroke-width: 1px;"/><path class="ygrid crisp" transform="translate(0,199.82999999999998)" d="M80,0h540" style="stroke: rgb(255, 255, 255); stroke-opacity: 1; stroke-width: 1px;"/><path class="ygrid crisp" transform="translate(0,137.35)" d="M80,0h540" style="stroke: rgb(255, 255, 255); stroke-opacity: 1; stroke-width: 1px;"/></g></g><g class="zerolinelayer"><path class="yzl zl crisp" transform="translate(0,324.78)" d="M80,0h540" style="stroke: rgb(255, 255, 255); stroke-opacity: 1; stroke-width: 2px;"/></g><path class="xlines-below"/><path class="ylines-below"/><g class="overlines-below"/><g class="xaxislayer-below"/><g class="yaxislayer-below"/><g class="overaxes-below"/><g class="plot" transform="translate(80,100)" clip-path="url(#clip20d940xyplot)"><g class="scatterlayer mlayer"><g class="trace scatter traceacb701" style="stroke-miterlimit: 2;"><g class="fills"><g><path class="js-fill" d="M540,224.78L0,224.78L0,224.76L21.27,224.23L22.91,221.68L24.55,219.23L26.18,219.2L29.45,218.26L31.09,219.2L32.73,217.26L34.36,209.53L37.64,190.5L39.27,184.16L40.91,182.65L42.55,182.21L44.18,179.72L45.82,175.67L47.45,173.74L49.09,154.86L50.73,160.9L52.36,160.54L54,159.83L55.64,165.38L58.91,175.62L60.55,175.88L62.18,178.64L63.82,178.66L67.09,178.76L68.73,181.04L73.64,182.35L75.27,185.48L86.73,185.48L88.36,184.84L90,184.05L91.64,182.28L99.82,181.41L101.45,180.22L103.09,183.87L104.73,199.41L106.36,199.36L108,200.59L109.64,225.02L111.27,224.99L112.91,223.99L114.55,223.95L116.18,224.97L117.82,223.66L121.09,224L122.73,223.69L130.91,222.01L132.55,221.38L137.45,221.01L139.09,217.95L140.73,218.68L142.36,190.24L144,189.85L145.64,186.61L147.27,188.71L148.91,187.18L150.55,184.61L152.18,185.82L153.82,188.49L155.45,187.76L157.09,187.65L158.73,202.49L160.36,199.1L162,198.87L165.27,197.63L166.91,195.64L168.55,177.55L170.18,177.85L176.73,176.94L178.36,177.51L180,172.06L181.64,171.93L183.27,171.54L184.91,169.65L186.55,168.87L188.18,161.43L189.82,157.57L191.45,156.79L193.09,177.51L194.73,168.16L196.36,159.87L198,160.39L201.27,114.55L202.91,111.5L206.18,110.95L207.82,109.24L209.45,106.81L211.09,99.06L214.36,96.36L216,82.91L217.64,78.44L219.27,77.38L220.91,65.48L222.55,90.07L224.18,96.18L225.82,96.35L229.09,97.15L230.73,97.05L232.36,97.49L234,74.38L235.64,68.52L237.27,71.18L238.91,57.52L240.55,50.81L242.18,44.52L243.82,41.77L245.45,33.53L247.09,31.67L248.73,34.46L250.36,34.44L252,21.47L253.64,16L255.27,17.23L256.91,34.3L261.82,44.74L263.45,45.66L265.09,51.91L266.73,51.42L268.36,40.64L270,52.4L271.64,70.06L273.27,67.91L274.91,65.11L276.55,111.9L278.18,111.54L279.82,109.9L281.45,110.27L283.09,104.02L286.36,103.57L288,125.68L291.27,141.97L292.91,140.1L296.18,109.39L297.82,108.46L301.09,105.97L302.73,117.06L304.36,116.8L306,115.43L307.64,94.49L309.27,101.96L310.91,103.31L312.55,95.9L314.18,88.32L315.82,87.68L319.09,85.87L320.73,83.96L322.36,82.88L324,87.54L325.64,82.28L327.27,81.88L330.55,81.7L332.18,80.66L333.82,76.72L335.45,76.15L337.09,76.02L338.73,74.21L345.27,71.69L346.91,72.28L348.55,74.38L350.18,75.09L351.82,76.55L353.45,18.34L355.09,23.86L356.73,24.28L360,29.92L361.64,96.24L363.27,96.96L364.91,98.54L368.18,97.67L369.82,169.57L374.73,169.39L376.36,169.23L379.64,168.85L381.27,167.36L382.91,169.29L384.55,169.12L389.45,168.69L391.09,175.62L394.36,174.27L396,174.7L397.64,174.68L399.27,175.56L404.18,174.63L405.82,166.4L409.09,168.61L410.73,166.57L412.36,163.52L414,163.08L415.64,163.22L417.27,164.19L418.91,166.12L420.55,165.28L423.82,166.09L425.45,162.68L427.09,163.38L428.73,163.01L433.64,163.11L435.27,163.04L436.91,161.98L438.55,168.95L441.82,202.47L443.45,216.84L450,237.4L451.64,258.12L453.27,260.61L454.91,260.68L456.55,260.7L458.18,261.84L459.82,264.35L461.45,264.71L468,265.97L469.64,266.15L474.55,267.39L476.18,267.48L490.91,268.61L492.55,270.26L502.36,270.38L504,303.67L540,304" style="fill: rgb(99, 110, 250); fill-opacity: 0.5; stroke-width: 0;"/></g></g><g class="errorbars"/><g class="lines"><path class="js-line" d="M0,224.76L21.27,224.23L22.91,221.68L24.55,219.23L26.18,219.2L29.45,218.26L31.09,219.2L32.73,217.26L34.36,209.53L37.64,190.5L39.27,184.16L40.91,182.65L42.55,182.21L44.18,179.72L45.82,175.67L47.45,173.74L49.09,154.86L50.73,160.9L52.36,160.54L54,159.83L55.64,165.38L58.91,175.62L60.55,175.88L62.18,178.64L63.82,178.66L67.09,178.76L68.73,181.04L73.64,182.35L75.27,185.48L86.73,185.48L88.36,184.84L90,184.05L91.64,182.28L99.82,181.41L101.45,180.22L103.09,183.87L104.73,199.41L106.36,199.36L108,200.59L109.64,225.02L111.27,224.99L112.91,223.99L114.55,223.95L116.18,224.97L117.82,223.66L121.09,224L122.73,223.69L130.91,222.01L132.55,221.38L137.45,221.01L139.09,217.95L140.73,218.68L142.36,190.24L144,189.85L145.64,186.61L147.27,188.71L148.91,187.18L150.55,184.61L152.18,185.82L153.82,188.49L155.45,187.76L157.09,187.65L158.73,202.49L160.36,199.1L162,198.87L165.27,197.63L166.91,195.64L168.55,177.55L170.18,177.85L176.73,176.94L178.36,177.51L180,172.06L181.64,171.93L183.27,171.54L184.91,169.65L186.55,168.87L188.18,161.43L189.82,157.57L191.45,156.79L193.09,177.51L194.73,168.16L196.36,159.87L198,160.39L201.27,114.55L202.91,111.5L206.18,110.95L207.82,109.24L209.45,106.81L211.09,99.06L214.36,96.36L216,82.91L217.64,78.44L219.27,77.38L220.91,65.48L222.55,90.07L224.18,96.18L225.82,96.35L229.09,97.15L230.73,97.05L232.36,97.49L234,74.38L235.64,68.52L237.27,71.18L238.91,57.52L240.55,50.81L242.18,44.52L243.82,41.77L245.45,33.53L247.09,31.67L248.73,34.46L250.36,34.44L252,21.47L253.64,16L255.27,17.23L256.91,34.3L261.82,44.74L263.45,45.66L265.09,51.91L266.73,51.42L268.36,40.64L270,52.4L271.64,70.06L273.27,67.91L274.91,65.11L276.55,111.9L278.18,111.54L279.82,109.9L281.45,110.27L283.09,104.02L286.36,103.57L288,125.68L291.27,141.97L292.91,140.1L296.18,109.39L297.82,108.46L301.09,105.97L302.73,117.06L304.36,116.8L306,115.43L307.64,94.49L309.27,101.96L310.91,103.31L312.55,95.9L314.18,88.32L315.82,87.68L319.09,85.87L320.73,83.96L322.36,82.88L324,87.54L325.64,82.28L327.27,81.88L330.55,81.7L332.18,80.66L333.82,76.72L335.45,76.15L337.09,76.02L338.73,74.21L345.27,71.69L346.91,72.28L348.55,74.38L350.18,75.09L351.82,76.55L353.45,18.34L355.09,23.86L356.73,24.28L360,29.92L361.64,96.24L363.27,96.96L364.91,98.54L368.18,97.67L369.82,169.57L374.73,169.39L376.36,169.23L379.64,168.85L381.27,167.36L382.91,169.29L384.55,169.12L389.45,168.69L391.09,175.62L394.36,174.27L396,174.7L397.64,174.68L399.27,175.56L404.18,174.63L405.82,166.4L409.09,168.61L410.73,166.57L412.36,163.52L414,163.08L415.64,163.22L417.27,164.19L418.91,166.12L420.55,165.28L423.82,166.09L425.45,162.68L427.09,163.38L428.73,163.01L433.64,163.11L435.27,163.04L436.91,161.98L438.55,168.95L441.82,202.47L443.45,216.84L450,237.4L451.64,258.12L453.27,260.61L454.91,260.68L456.55,260.7L458.18,261.84L459.82,264.35L461.45,264.71L468,265.97L469.64,266.15L474.55,267.39L476.18,267.48L490.91,268.61L492.55,270.26L502.36,270.38L504,303.67L540,304" style="vector-effect: none; fill: none; stroke: rgb(99, 110, 250); stroke-opacity: 1; stroke-width: 2px; opacity: 1;"/></g><g class="points"/><g class="text"/></g></g></g><g class="overplot"/><path class="xlines-above crisp" d="M0,0" style="fill: none;"/><path class="ylines-above crisp" d="M0,0" style="fill: none;"/><g class="overlines-above"/><g class="xaxislayer-above"><g class="xtick"><text text-anchor="middle" x="0" y="433" transform="translate(127.45,0)" style="font-family: 'Open Sans', verdana, arial, sans-serif; font-size: 12px; fill: rgb(42, 63, 95); fill-opacity: 1; white-space: pre; opacity: 1;">Nov 2022</text></g><g class="xtick"><text text-anchor="middle" x="0" y="433" style="font-family: 'Open Sans', verdana, arial, sans-serif; font-size: 12px; fill: rgb(42, 63, 95); fill-opacity: 1; white-space: pre; opacity: 1;" transform="translate(227.27,0)">Jan 2023</text></g><g class="xtick"><text text-anchor="middle" x="0" y="433" style="font-family: 'Open Sans', verdana, arial, sans-serif; font-size: 12px; fill: rgb(42, 63, 95); fill-opacity: 1; white-space: pre; opacity: 1;" transform="translate(323.82,0)">Mar 2023</text></g><g class="xtick"><text text-anchor="middle" x="0" y="433" style="font-family: 'Open Sans', verdana, arial, sans-serif; font-size: 12px; fill: rgb(42, 63, 95); fill-opacity: 1; white-space: pre; opacity: 1;" transform="translate(423.64,0)">May 2023</text></g><g class="xtick"><text text-anchor="middle" x="0" y="433" style="font-family: 'Open Sans', verdana, arial, sans-serif; font-size: 12px; fill: rgb(42, 63, 95); fill-opacity: 1; white-space: pre; opacity: 1;" transform="translate(523.45,0)">Jul 2023</text></g></g><g class="yaxislayer-above"><g class="ytick"><text text-anchor="end" x="79" y="4.199999999999999" transform="translate(0,387.26)" style="font-family: 'Open Sans', verdana, arial, sans-serif; font-size: 12px; fill: rgb(42, 63, 95); fill-opacity: 1; white-space: pre; opacity: 1;">$−0.5M</text></g><g class="ytick"><text text-anchor="end" x="79" y="4.199999999999999" style="font-family: 'Open Sans', verdana, arial, sans-serif; font-size: 12px; fill: rgb(42, 63, 95); fill-opacity: 1; white-space: pre; opacity: 1;" transform="translate(0,324.78)">$0</text></g><g class="ytick"><text text-anchor="end" x="79" y="4.199999999999999" style="font-family: 'Open Sans', verdana, arial, sans-serif; font-size: 12px; fill: rgb(42, 63, 95); fill-opacity: 1; white-space: pre; opacity: 1;" transform="translate(0,262.31)">$0.5M</text></g><g class="ytick"><text text-anchor="end" x="79" y="4.199999999999999" style="font-family: 'Open Sans', verdana, arial, sans-serif; font-size: 12px; fill: rgb(42, 63, 95); fill-opacity: 1; white-space: pre; opacity: 1;" transform="translate(0,199.82999999999998)">$1M</text></g><g class="ytick"><text text-anchor="end" x="79" y="4.199999999999999" style="font-family: 'Open Sans', verdana, arial, sans-serif; font-size: 12px; fill: rgb(42, 63, 95); fill-opacity: 1; white-space: pre; opacity: 1;" transform="translate(0,137.35)">$1.5M</text></g></g><g class="overaxes-above"/></g></g><g class="polarlayer"/><g class="smithlayer"/><g class="ternarylayer"/><g class="geolayer"/><g class="funnelarealayer"/><g class="pielayer"/><g class="iciclelayer"/><g class="treemaplayer"/><g class="sunburstlayer"/><g class="glimages"/><defs id="topdefs-20d940"><g class="clips"/></defs><g class="layer-above"><g class="imagelayer"/><g class="shapelayer"/></g><g class="infolayer"><g class="g-gtitle"><text class="gtitle" x="35" y="50" text-anchor="start" dy="0em" style="font-family: 'Open Sans', verdana, arial, sans-serif; font-size: 17px; fill: rgb(42, 63, 95); opacity: 1; font-weight: normal; white-space: pre;"><tspan class="line" dy="0em" x="35" y="50">Beefy - BIFI/WETH: Velodrome</tspan><tspan class="line" dy="1.3em" x="35" y="50">​<tspan style="font-size:70%" dy="-0.6em">Cumulative Net Flows since Program Announcement, Until Program End + 30 Days</tspan><tspan dy="0.42em">​</tspan></tspan></text></g><g class="g-xtitle"><text class="xtitle" x="350" y="460.3" text-anchor="middle" style="font-family: 'Open Sans', verdana, arial, sans-serif; font-size: 14px; fill: rgb(42, 63, 95); opacity: 1; font-weight: normal; white-space: pre;">Day</text></g><g class="g-ytitle"><text class="ytitle" transform="rotate(-90,14.340625000000003,260)" x="14.340625000000003" y="260" text-anchor="middle" style="font-family: 'Open Sans', verdana, arial, sans-serif; font-size: 14px; fill: rgb(42, 63, 95); opacity: 1; font-weight: normal; white-space: pre;">Cumulative Net Flows (USD)</text></g></g></svg>