<svg class="main-svg" xmlns="http://www.w3.org/2000/svg" xmlns:xlink="http://www.w3.org/1999/xlink" width="700" height="500" style="" viewBox="0 0 700 500"><rect x="0" y="0" width="700" height="500" style="fill: rgb(255, 255, 255); fill-opacity: 1;"/><defs id="defs-a63f77"><g class="clips"><clipPath id="clipa63f77xyplot" class="plotclip"><rect width="540" height="320"/></clipPath><clipPath class="axesclip" id="clipa63f77x"><rect x="80" y="0" width="540" height="500"/></clipPath><clipPath class="axesclip" id="clipa63f77y"><rect x="0" y="100" width="700" height="320"/></clipPath><clipPath class="axesclip" id="clipa63f77xy"><rect x="80" y="100" width="540" height="320"/></clipPath></g><g class="gradients"/><g class="patterns"/></defs><g class="bglayer"><rect class="bg" x="80" y="100" width="540" height="320" style="fill: rgb(229, 236, 246); fill-opacity: 1; stroke-width: 0;"/></g><g class="layer-below"><g class="imagelayer"/><g class="shapelayer"/></g><g class="cartesianlayer"><g class="subplot xy"><g class="layer-subplot"><g class="shapelayer"/><g class="imagelayer"/></g><g class="minor-gridlayer"><g class="x"/><g class="y"/></g><g class="gridlayer"><g class="x"><path class="xgrid crisp" transform="translate(120.75,0)" d="M0,100v320" style="stroke: rgb(255, 255, 255); stroke-opacity: 1; stroke-width: 1px;"/><path class="xgrid crisp" transform="translate(195.9,0)" d="M0,100v320" style="stroke: rgb(255, 255, 255); stroke-opacity: 1; stroke-width: 1px;"/><path class="xgrid crisp" transform="translate(273.58000000000004,0)" d="M0,100v320" style="stroke: rgb(255, 255, 255); stroke-opacity: 1; stroke-width: 1px;"/><path class="xgrid crisp" transform="translate(351.27,0)" d="M0,100v320" style="stroke: rgb(255, 255, 255); stroke-opacity: 1; stroke-width: 1px;"/><path class="xgrid crisp" transform="translate(430.24,0)" d="M0,100v320" style="stroke: rgb(255, 255, 255); stroke-opacity: 1; stroke-width: 1px;"/><path class="xgrid crisp" transform="translate(507.92,0)" d="M0,100v320" style="stroke: rgb(255, 255, 255); stroke-opacity: 1; stroke-width: 1px;"/><path class="xgrid crisp" transform="translate(585.61,0)" d="M0,100v320" style="stroke: rgb(255, 255, 255); stroke-opacity: 1; stroke-width: 1px;"/></g><g class="y"><path class="ygrid crisp" transform="translate(0,402.05)" d="M80,0h540" style="stroke: rgb(255, 255, 255); stroke-opacity: 1; stroke-width: 1px;"/><path class="ygrid crisp" transform="translate(0,317.66999999999996)" d="M80,0h540" style="stroke: rgb(255, 255, 255); stroke-opacity: 1; stroke-width: 1px;"/><path class="ygrid crisp" transform="translate(0,275.48)" d="M80,0h540" style="stroke: rgb(255, 255, 255); stroke-opacity: 1; stroke-width: 1px;"/><path class="ygrid crisp" transform="translate(0,233.28)" d="M80,0h540" style="stroke: rgb(255, 255, 255); stroke-opacity: 1; stroke-width: 1px;"/><path class="ygrid crisp" transform="translate(0,191.09)" d="M80,0h540" style="stroke: rgb(255, 255, 255); stroke-opacity: 1; stroke-width: 1px;"/><path class="ygrid crisp" transform="translate(0,148.9)" d="M80,0h540" style="stroke: rgb(255, 255, 255); stroke-opacity: 1; stroke-width: 1px;"/><path class="ygrid crisp" transform="translate(0,106.71)" d="M80,0h540" style="stroke: rgb(255, 255, 255); stroke-opacity: 1; stroke-width: 1px;"/></g></g><g class="zerolinelayer"><path class="yzl zl crisp" transform="translate(0,359.86)" d="M80,0h540" style="stroke: rgb(255, 255, 255); stroke-opacity: 1; stroke-width: 2px;"/></g><path class="xlines-below"/><path class="ylines-below"/><g class="overlines-below"/><g class="xaxislayer-below"/><g class="yaxislayer-below"/><g class="overaxes-below"/><g class="plot" transform="translate(80,100)" clip-path="url(#clipa63f77xyplot)"><g class="scatterlayer mlayer"><g class="trace scatter trace7412a0" style="stroke-miterlimit: 2;"><g class="fills"><g><path class="js-fill" d="M540,259.86L0,259.86L0,265.66L1.27,275.59L2.55,263.5L3.82,260.1L5.09,230.75L6.37,236.65L7.64,238.02L8.92,236.26L10.19,224.71L16.56,210.47L17.83,217.01L19.1,198.51L20.38,201.02L21.65,202L22.92,138.23L24.2,141.15L25.47,141.16L26.75,135.91L28.02,141.28L29.29,129.84L30.57,131.59L34.39,130.89L35.66,140.53L36.93,140.24L38.21,141.45L39.48,140.42L40.75,93.75L42.03,109.44L43.3,109.95L44.58,105.49L45.85,94.87L47.12,105.1L48.4,107.76L49.67,108.17L50.94,107.2L52.22,102.08L53.49,102.92L54.76,99.13L56.04,103.34L59.86,56.82L61.13,55.57L62.41,53.4L63.68,34.61L64.95,38.14L66.23,24.98L67.5,26.1L68.77,23.32L70.05,25.81L71.32,34.85L72.59,29.56L73.87,32.2L75.14,32.49L76.42,30.28L77.69,24.17L78.96,29.24L80.24,27.09L81.51,16.95L82.78,18.55L84.06,16.88L85.33,23L86.6,16L89.15,26.61L90.42,44.55L92.97,158.65L94.25,165.49L96.79,165.62L98.07,162.63L100.61,118.45L101.89,113.76L103.16,112.01L104.43,106.33L105.71,108.92L106.98,120.59L109.53,114.93L110.8,115.86L112.08,115.55L113.35,120.13L114.62,122.16L115.9,160.6L118.44,163.62L119.72,167.05L122.26,171.66L123.54,156.98L124.81,169.67L126.08,166.12L127.36,149.08L128.63,152.08L129.91,162.14L131.18,162.54L132.45,160.74L133.73,149.26L137.55,126.93L138.82,144.69L140.09,137.07L141.37,142.52L142.64,138.43L143.92,144.71L145.19,139.42L146.46,141.11L147.74,131.13L149.01,128.94L150.28,141.99L151.56,142.92L152.83,152.15L154.1,151.02L156.65,154.98L157.92,147.33L159.2,146.36L160.47,140.22L161.75,142.32L163.02,140.76L164.29,138.91L165.57,144.37L168.11,141.26L169.39,143.17L171.93,139.45L173.21,143.65L174.48,143.86L175.75,147.22L177.03,148.39L178.3,157.13L179.58,152.91L180.85,155.81L182.12,165.39L183.4,165.58L184.67,168.59L185.94,168.36L187.22,162.95L188.49,162.72L189.76,156.19L191.04,157.04L192.31,156.4L193.58,158.57L194.86,161.15L196.13,160.78L197.41,149.69L198.68,165.21L199.95,160.11L201.23,164.49L202.5,161.48L203.77,163.12L205.05,194.32L206.32,192.49L207.59,156.97L208.87,158.47L210.14,158.92L211.42,163.98L212.69,169.39L213.96,160.25L215.24,160.15L216.51,162.52L217.78,154.31L219.06,156.93L220.33,160.44L221.6,152.68L222.88,148.4L224.15,157.37L225.42,158.91L226.7,154.6L227.97,156.93L229.25,154.2L234.34,153.24L235.61,143.76L236.89,132.14L238.16,131.8L240.71,119.17L241.98,130.05L243.25,123.62L244.53,123.6L245.8,114.08L247.08,118.4L248.35,117.43L249.62,121.46L250.9,125.7L252.17,143.85L253.44,147.98L254.72,147.57L257.26,146.96L258.54,142.77L259.81,129.09L261.08,143.69L262.36,139.43L263.63,139.92L266.18,139.42L267.45,134.54L268.73,142L270,76.24L271.27,74.77L272.55,74.87L275.09,71.89L276.37,70.06L277.64,72.7L278.92,81.61L280.19,86.6L281.46,84.66L282.74,86.7L284.01,83.06L285.28,82.11L286.56,75.58L287.83,63.68L289.1,70.94L291.65,70.77L292.92,72.05L294.2,71.84L295.47,53.09L296.75,56.11L298.02,55.84L299.29,57.97L300.57,50.36L301.84,55.7L303.11,54.56L304.39,56.41L305.66,80.89L306.93,99.02L308.21,88.75L309.48,117.05L310.75,109.28L312.03,121.98L313.3,125.18L314.58,145.22L315.85,134.74L317.12,136.23L318.4,133.78L319.67,133.15L320.94,134.4L322.22,135.67L323.49,139.36L324.76,138.28L326.04,139.42L327.31,141.53L328.58,147.43L329.86,151.24L331.13,145.82L332.41,148.8L333.68,144.86L334.95,143.02L336.23,143.35L337.5,139.89L338.77,141.74L340.05,139.64L341.32,121.07L342.59,120.26L343.87,132.5L345.14,160.77L346.42,160.94L347.69,154.78L348.96,164.05L350.24,168.94L351.51,167.78L354.06,165.86L355.33,167.17L357.88,166.46L359.15,165.56L361.7,167.14L362.97,173.22L364.25,177.51L365.52,174L366.79,175.66L368.07,174.43L370.61,174.04L371.89,174.78L373.16,172.16L374.43,172.69L376.98,174.65L378.25,173.68L379.53,173.2L380.8,174.24L382.08,176.05L383.35,173.11L384.62,174.87L385.9,171.81L388.44,170.38L389.72,166.38L390.99,170.61L392.26,172.14L393.54,171.52L394.81,173.3L396.08,173.18L397.36,172.22L398.63,175.96L399.91,175.76L401.18,176.39L402.45,175.17L403.73,178.95L405,177.23L407.55,177.53L408.82,173.58L410.09,179.58L411.37,179.38L412.64,254.64L413.92,253.82L416.46,251.74L417.74,248.45L419.01,250.56L420.28,249.95L421.56,249.35L422.83,249.74L425.38,248.87L426.65,248.62L427.92,249.64L429.2,255.86L431.75,256.19L433.02,255.85L435.57,256.18L436.84,256.23L438.11,255.85L439.39,251.13L444.48,251.82L445.75,252.76L447.03,250.03L448.3,220.77L449.58,222.39L450.85,221.25L452.12,222.79L453.4,223.04L454.67,226.83L455.94,222.48L457.22,221.08L458.49,221.52L459.76,221.99L461.04,221.51L462.31,223.17L463.58,223.43L464.86,223.8L466.13,263.55L467.41,265.6L468.68,263.47L469.95,258.67L471.23,258.02L472.5,257.02L473.77,255L475.05,251.16L476.32,254.42L478.87,253.95L480.14,256.4L481.42,258.72L482.69,257.55L483.96,254.54L485.24,256.42L486.51,255.97L487.78,259.61L489.06,257.1L490.33,304L540,304" style="fill: rgb(99, 110, 250); fill-opacity: 0.5; stroke-width: 0;"/></g></g><g class="errorbars"/><g class="lines"><path class="js-line" d="M0,265.66L1.27,275.59L2.55,263.5L3.82,260.1L5.09,230.75L6.37,236.65L7.64,238.02L8.92,236.26L10.19,224.71L16.56,210.47L17.83,217.01L19.1,198.51L20.38,201.02L21.65,202L22.92,138.23L24.2,141.15L25.47,141.16L26.75,135.91L28.02,141.28L29.29,129.84L30.57,131.59L34.39,130.89L35.66,140.53L36.93,140.24L38.21,141.45L39.48,140.42L40.75,93.75L42.03,109.44L43.3,109.95L44.58,105.49L45.85,94.87L47.12,105.1L48.4,107.76L49.67,108.17L50.94,107.2L52.22,102.08L53.49,102.92L54.76,99.13L56.04,103.34L59.86,56.82L61.13,55.57L62.41,53.4L63.68,34.61L64.95,38.14L66.23,24.98L67.5,26.1L68.77,23.32L70.05,25.81L71.32,34.85L72.59,29.56L73.87,32.2L75.14,32.49L76.42,30.28L77.69,24.17L78.96,29.24L80.24,27.09L81.51,16.95L82.78,18.55L84.06,16.88L85.33,23L86.6,16L89.15,26.61L90.42,44.55L92.97,158.65L94.25,165.49L96.79,165.62L98.07,162.63L100.61,118.45L101.89,113.76L103.16,112.01L104.43,106.33L105.71,108.92L106.98,120.59L109.53,114.93L110.8,115.86L112.08,115.55L113.35,120.13L114.62,122.16L115.9,160.6L118.44,163.62L119.72,167.05L122.26,171.66L123.54,156.98L124.81,169.67L126.08,166.12L127.36,149.08L128.63,152.08L129.91,162.14L131.18,162.54L132.45,160.74L133.73,149.26L137.55,126.93L138.82,144.69L140.09,137.07L141.37,142.52L142.64,138.43L143.92,144.71L145.19,139.42L146.46,141.11L147.74,131.13L149.01,128.94L150.28,141.99L151.56,142.92L152.83,152.15L154.1,151.02L156.65,154.98L157.92,147.33L159.2,146.36L160.47,140.22L161.75,142.32L163.02,140.76L164.29,138.91L165.57,144.37L168.11,141.26L169.39,143.17L171.93,139.45L173.21,143.65L174.48,143.86L175.75,147.22L177.03,148.39L178.3,157.13L179.58,152.91L180.85,155.81L182.12,165.39L183.4,165.58L184.67,168.59L185.94,168.36L187.22,162.95L188.49,162.72L189.76,156.19L191.04,157.04L192.31,156.4L193.58,158.57L194.86,161.15L196.13,160.78L197.41,149.69L198.68,165.21L199.95,160.11L201.23,164.49L202.5,161.48L203.77,163.12L205.05,194.32L206.32,192.49L207.59,156.97L208.87,158.47L210.14,158.92L211.42,163.98L212.69,169.39L213.96,160.25L215.24,160.15L216.51,162.52L217.78,154.31L219.06,156.93L220.33,160.44L221.6,152.68L222.88,148.4L224.15,157.37L225.42,158.91L226.7,154.6L227.97,156.93L229.25,154.2L234.34,153.24L235.61,143.76L236.89,132.14L238.16,131.8L240.71,119.17L241.98,130.05L243.25,123.62L244.53,123.6L245.8,114.08L247.08,118.4L248.35,117.43L249.62,121.46L250.9,125.7L252.17,143.85L253.44,147.98L254.72,147.57L257.26,146.96L258.54,142.77L259.81,129.09L261.08,143.69L262.36,139.43L263.63,139.92L266.18,139.42L267.45,134.54L268.73,142L270,76.24L271.27,74.77L272.55,74.87L275.09,71.89L276.37,70.06L277.64,72.7L278.92,81.61L280.19,86.6L281.46,84.66L282.74,86.7L284.01,83.06L285.28,82.11L286.56,75.58L287.83,63.68L289.1,70.94L291.65,70.77L292.92,72.05L294.2,71.84L295.47,53.09L296.75,56.11L298.02,55.84L299.29,57.97L300.57,50.36L301.84,55.7L303.11,54.56L304.39,56.41L305.66,80.89L306.93,99.02L308.21,88.75L309.48,117.05L310.75,109.28L312.03,121.98L313.3,125.18L314.58,145.22L315.85,134.74L317.12,136.23L318.4,133.78L319.67,133.15L320.94,134.4L322.22,135.67L323.49,139.36L324.76,138.28L326.04,139.42L327.31,141.53L328.58,147.43L329.86,151.24L331.13,145.82L332.41,148.8L333.68,144.86L334.95,143.02L336.23,143.35L337.5,139.89L338.77,141.74L340.05,139.64L341.32,121.07L342.59,120.26L343.87,132.5L345.14,160.77L346.42,160.94L347.69,154.78L348.96,164.05L350.24,168.94L351.51,167.78L354.06,165.86L355.33,167.17L357.88,166.46L359.15,165.56L361.7,167.14L362.97,173.22L364.25,177.51L365.52,174L366.79,175.66L368.07,174.43L370.61,174.04L371.89,174.78L373.16,172.16L374.43,172.69L376.98,174.65L378.25,173.68L379.53,173.2L380.8,174.24L382.08,176.05L383.35,173.11L384.62,174.87L385.9,171.81L388.44,170.38L389.72,166.38L390.99,170.61L392.26,172.14L393.54,171.52L394.81,173.3L396.08,173.18L397.36,172.22L398.63,175.96L399.91,175.76L401.18,176.39L402.45,175.17L403.73,178.95L405,177.23L407.55,177.53L408.82,173.58L410.09,179.58L411.37,179.38L412.64,254.64L413.92,253.82L416.46,251.74L417.74,248.45L419.01,250.56L420.28,249.95L421.56,249.35L422.83,249.74L425.38,248.87L426.65,248.62L427.92,249.64L429.2,255.86L431.75,256.19L433.02,255.85L435.57,256.18L436.84,256.23L438.11,255.85L439.39,251.13L444.48,251.82L445.75,252.76L447.03,250.03L448.3,220.77L449.58,222.39L450.85,221.25L452.12,222.79L453.4,223.04L454.67,226.83L455.94,222.48L457.22,221.08L458.49,221.52L459.76,221.99L461.04,221.51L462.31,223.17L463.58,223.43L464.86,223.8L466.13,263.55L467.41,265.6L468.68,263.47L469.95,258.67L471.23,258.02L472.5,257.02L473.77,255L475.05,251.16L476.32,254.42L478.87,253.95L480.14,256.4L481.42,258.72L482.69,257.55L483.96,254.54L485.24,256.42L486.51,255.97L487.78,259.61L489.06,257.1L490.33,304L540,304" style="vector-effect: none; fill: none; stroke: rgb(99, 110, 250); stroke-opacity: 1; stroke-width: 2px; opacity: 1;"/></g><g class="points"/><g class="text"/></g></g></g><g class="overplot"/><path class="xlines-above crisp" d="M0,0" style="fill: none;"/><path class="ylines-above crisp" d="M0,0" style="fill: none;"/><g class="overlines-above"/><g class="xaxislayer-above"><g class="xtick"><text text-anchor="middle" x="0" y="433" transform="translate(120.75,0)" style="font-family: 'Open Sans', verdana, arial, sans-serif; font-size: 12px; fill: rgb(42, 63, 95); fill-opacity: 1; white-space: pre; opacity: 1;">Jan 2023</text></g><g class="xtick"><text text-anchor="middle" x="0" y="433" style="font-family: 'Open Sans', verdana, arial, sans-serif; font-size: 12px; fill: rgb(42, 63, 95); fill-opacity: 1; white-space: pre; opacity: 1;" transform="translate(195.9,0)">Mar 2023</text></g><g class="xtick"><text text-anchor="middle" x="0" y="433" style="font-family: 'Open Sans', verdana, arial, sans-serif; font-size: 12px; fill: rgb(42, 63, 95); fill-opacity: 1; white-space: pre; opacity: 1;" transform="translate(273.58000000000004,0)">May 2023</text></g><g class="xtick"><text text-anchor="middle" x="0" y="433" style="font-family: 'Open Sans', verdana, arial, sans-serif; font-size: 12px; fill: rgb(42, 63, 95); fill-opacity: 1; white-space: pre; opacity: 1;" transform="translate(351.27,0)">Jul 2023</text></g><g class="xtick"><text text-anchor="middle" x="0" y="433" style="font-family: 'Open Sans', verdana, arial, sans-serif; font-size: 12px; fill: rgb(42, 63, 95); fill-opacity: 1; white-space: pre; opacity: 1;" transform="translate(430.24,0)">Sep 2023</text></g><g class="xtick"><text text-anchor="middle" x="0" y="433" style="font-family: 'Open Sans', verdana, arial, sans-serif; font-size: 12px; fill: rgb(42, 63, 95); fill-opacity: 1; white-space: pre; opacity: 1;" transform="translate(507.92,0)">Nov 2023</text></g><g class="xtick"><text text-anchor="middle" x="0" y="433" style="font-family: 'Open Sans', verdana, arial, sans-serif; font-size: 12px; fill: rgb(42, 63, 95); fill-opacity: 1; white-space: pre; opacity: 1;" transform="translate(585.61,0)">Jan 2024</text></g></g><g class="yaxislayer-above"><g class="ytick"><text text-anchor="end" x="79" y="4.199999999999999" transform="translate(0,402.05)" style="font-family: 'Open Sans', verdana, arial, sans-serif; font-size: 12px; fill: rgb(42, 63, 95); fill-opacity: 1; white-space: pre; opacity: 1;">$−2M</text></g><g class="ytick"><text text-anchor="end" x="79" y="4.199999999999999" style="font-family: 'Open Sans', verdana, arial, sans-serif; font-size: 12px; fill: rgb(42, 63, 95); fill-opacity: 1; white-space: pre; opacity: 1;" transform="translate(0,359.86)">$0</text></g><g class="ytick"><text text-anchor="end" x="79" y="4.199999999999999" style="font-family: 'Open Sans', verdana, arial, sans-serif; font-size: 12px; fill: rgb(42, 63, 95); fill-opacity: 1; white-space: pre; opacity: 1;" transform="translate(0,317.66999999999996)">$2M</text></g><g class="ytick"><text text-anchor="end" x="79" y="4.199999999999999" style="font-family: 'Open Sans', verdana, arial, sans-serif; font-size: 12px; fill: rgb(42, 63, 95); fill-opacity: 1; white-space: pre; opacity: 1;" transform="translate(0,275.48)">$4M</text></g><g class="ytick"><text text-anchor="end" x="79" y="4.199999999999999" style="font-family: 'Open Sans', verdana, arial, sans-serif; font-size: 12px; fill: rgb(42, 63, 95); fill-opacity: 1; white-space: pre; opacity: 1;" transform="translate(0,233.28)">$6M</text></g><g class="ytick"><text text-anchor="end" x="79" y="4.199999999999999" style="font-family: 'Open Sans', verdana, arial, sans-serif; font-size: 12px; fill: rgb(42, 63, 95); fill-opacity: 1; white-space: pre; opacity: 1;" transform="translate(0,191.09)">$8M</text></g><g class="ytick"><text text-anchor="end" x="79" y="4.199999999999999" style="font-family: 'Open Sans', verdana, arial, sans-serif; font-size: 12px; fill: rgb(42, 63, 95); fill-opacity: 1; white-space: pre; opacity: 1;" transform="translate(0,148.9)">$10M</text></g><g class="ytick"><text text-anchor="end" x="79" y="4.199999999999999" style="font-family: 'Open Sans', verdana, arial, sans-serif; font-size: 12px; fill: rgb(42, 63, 95); fill-opacity: 1; white-space: pre; opacity: 1;" transform="translate(0,106.71)">$12M</text></g></g><g class="overaxes-above"/></g></g><g class="polarlayer"/><g class="smithlayer"/><g class="ternarylayer"/><g class="geolayer"/><g class="funnelarealayer"/><g class="pielayer"/><g class="iciclelayer"/><g class="treemaplayer"/><g class="sunburstlayer"/><g class="glimages"/><defs id="topdefs-a63f77"><g class="clips"/></defs><g class="layer-above"><g class="imagelayer"/><g class="shapelayer"/></g><g class="infolayer"><g class="g-gtitle"><text class="gtitle" x="35" y="50" text-anchor="start" dy="0em" style="font-family: 'Open Sans', verdana, arial, sans-serif; font-size: 17px; fill: rgb(42, 63, 95); opacity: 1; font-weight: normal; white-space: pre;"><tspan class="line" dy="0em" x="35" y="50">Dforce</tspan><tspan class="line" dy="1.3em" x="35" y="50">​<tspan style="font-size:70%" dy="-0.6em">Cumulative Net Flows since Program Announcement, Until Program End + 30 Days</tspan><tspan dy="0.42em">​</tspan></tspan></text></g><g class="g-xtitle"><text class="xtitle" x="350" y="460.3" text-anchor="middle" style="font-family: 'Open Sans', verdana, arial, sans-serif; font-size: 14px; fill: rgb(42, 63, 95); opacity: 1; font-weight: normal; white-space: pre;">Day</text></g><g class="g-ytitle"><text class="ytitle" transform="rotate(-90,24.340625000000003,260)" x="24.340625000000003" y="260" text-anchor="middle" style="font-family: 'Open Sans', verdana, arial, sans-serif; font-size: 14px; fill: rgb(42, 63, 95); opacity: 1; font-weight: normal; white-space: pre;">Cumulative Net Flows (USD)</text></g></g></svg>