<svg class="main-svg" xmlns="http://www.w3.org/2000/svg" xmlns:xlink="http://www.w3.org/1999/xlink" width="700" height="500" style="" viewBox="0 0 700 500"><rect x="0" y="0" width="700" height="500" style="fill: rgb(255, 255, 255); fill-opacity: 1;"/><defs id="defs-01a639"><g class="clips"><clipPath id="clip01a639xyplot" class="plotclip"><rect width="540" height="320"/></clipPath><clipPath class="axesclip" id="clip01a639x"><rect x="80" y="0" width="540" height="500"/></clipPath><clipPath class="axesclip" id="clip01a639y"><rect x="0" y="100" width="700" height="320"/></clipPath><clipPath class="axesclip" id="clip01a639xy"><rect x="80" y="100" width="540" height="320"/></clipPath></g><g class="gradients"/><g class="patterns"/></defs><g class="bglayer"><rect class="bg" x="80" y="100" width="540" height="320" style="fill: rgb(229, 236, 246); fill-opacity: 1; stroke-width: 0;"/></g><g class="layer-below"><g class="imagelayer"/><g class="shapelayer"/></g><g class="cartesianlayer"><g class="subplot xy"><g class="layer-subplot"><g class="shapelayer"/><g class="imagelayer"/></g><g class="minor-gridlayer"><g class="x"/><g class="y"/></g><g class="gridlayer"><g class="x"><path class="xgrid crisp" transform="translate(117.59,0)" d="M0,100v320" style="stroke: rgb(255, 255, 255); stroke-opacity: 1; stroke-width: 1px;"/><path class="xgrid crisp" transform="translate(222.41,0)" d="M0,100v320" style="stroke: rgb(255, 255, 255); stroke-opacity: 1; stroke-width: 1px;"/><path class="xgrid crisp" transform="translate(324.94,0)" d="M0,100v320" style="stroke: rgb(255, 255, 255); stroke-opacity: 1; stroke-width: 1px;"/><path class="xgrid crisp" transform="translate(428.61,0)" d="M0,100v320" style="stroke: rgb(255, 255, 255); stroke-opacity: 1; stroke-width: 1px;"/><path class="xgrid crisp" transform="translate(533.4200000000001,0)" d="M0,100v320" style="stroke: rgb(255, 255, 255); stroke-opacity: 1; stroke-width: 1px;"/></g><g class="y"><path class="ygrid crisp" transform="translate(0,377.8)" d="M80,0h540" style="stroke: rgb(255, 255, 255); stroke-opacity: 1; stroke-width: 1px;"/><path class="ygrid crisp" transform="translate(0,335.6)" d="M80,0h540" style="stroke: rgb(255, 255, 255); stroke-opacity: 1; stroke-width: 1px;"/><path class="ygrid crisp" transform="translate(0,293.4)" d="M80,0h540" style="stroke: rgb(255, 255, 255); stroke-opacity: 1; stroke-width: 1px;"/><path class="ygrid crisp" transform="translate(0,251.2)" d="M80,0h540" style="stroke: rgb(255, 255, 255); stroke-opacity: 1; stroke-width: 1px;"/><path class="ygrid crisp" transform="translate(0,208.99)" d="M80,0h540" style="stroke: rgb(255, 255, 255); stroke-opacity: 1; stroke-width: 1px;"/><path class="ygrid crisp" transform="translate(0,166.79000000000002)" d="M80,0h540" style="stroke: rgb(255, 255, 255); stroke-opacity: 1; stroke-width: 1px;"/><path class="ygrid crisp" transform="translate(0,124.59)" d="M80,0h540" style="stroke: rgb(255, 255, 255); stroke-opacity: 1; stroke-width: 1px;"/></g></g><g class="zerolinelayer"><path class="yzl zl crisp" transform="translate(0,420)" d="M80,0h540" style="stroke: rgb(255, 255, 255); stroke-opacity: 1; stroke-width: 2px;"/></g><path class="xlines-below"/><path class="ylines-below"/><g class="overlines-below"/><g class="xaxislayer-below"/><g class="yaxislayer-below"/><g class="overaxes-below"/><g class="plot" transform="translate(80,100)" clip-path="url(#clip01a639xyplot)"><g class="scatterlayer mlayer"><g class="trace scatter trace053909" style="stroke-miterlimit: 2;"><g class="fills"><g><path class="js-fill" d="M540,320L0,320L0,319.92L4.56,317.46L5.7,315.49L7.97,314.13L9.11,293.5L12.53,240.54L13.67,237.13L14.81,234.63L15.95,229.86L17.09,214.27L18.23,209.57L20.51,208.66L21.65,188.54L22.78,190.75L23.92,179.48L25.06,180.53L26.2,164.57L28.48,153.12L29.62,136.32L31.9,131.52L33.04,143.4L34.18,151.91L35.32,149.66L36.46,149.37L37.59,146.17L39.87,144.86L41.01,135.72L42.15,140.32L43.29,135.9L44.43,132.64L45.57,133.19L47.85,135.19L48.99,133.14L50.13,131.76L51.27,134.68L52.41,136.17L53.54,135.27L54.68,132.51L55.82,133L56.96,134.67L58.1,134.94L59.24,133.97L60.38,135.71L63.8,136.22L64.94,142.1L67.22,142.53L68.35,136.72L72.91,132.62L74.05,128.75L75.19,127.65L76.33,130.45L77.47,132.49L78.61,131.09L82.03,126.4L83.16,134.55L84.3,144.05L85.44,142.96L86.58,141.16L87.72,147.21L88.86,154.09L90,152.91L91.14,154.29L92.28,157.57L93.42,158.39L94.56,157.7L96.84,156.55L97.97,154.65L99.11,159.73L100.25,159.12L101.39,159.34L102.53,158.41L103.67,157.07L104.81,162.17L110.51,160.72L111.65,160.69L112.78,158.83L113.92,162.45L115.06,162.8L116.2,159.98L117.34,161.66L118.48,167.55L119.62,167.54L120.76,164.24L121.9,164.26L123.04,162.73L124.18,159.44L125.32,164.57L126.46,162.64L127.59,163.29L131.01,162.71L132.15,161.22L133.29,184.56L134.43,183.66L136.71,183.96L137.85,185.54L138.99,185.16L140.13,182.45L142.41,180.13L143.54,183.35L145.82,182.43L146.96,175.24L149.24,169.35L150.38,167.76L151.52,168.64L152.66,164.73L153.8,159.43L154.94,158.77L156.08,158.21L157.22,148.34L158.35,143.69L159.49,145.01L160.63,144.58L161.77,144.97L162.91,144.57L164.05,136.63L165.19,136.73L166.33,130.4L167.47,125.93L168.61,126.31L169.75,126.16L170.89,128.05L173.16,123.85L174.3,123.65L175.44,124.44L176.58,120.99L177.72,126.49L178.86,119.54L182.28,104.28L183.42,106.54L184.56,106.08L185.7,67.59L187.97,64.96L189.11,67.82L190.25,72.71L191.39,73.65L192.53,71.13L193.67,72.26L194.81,70.3L195.95,72.07L197.09,71.97L198.23,74.6L199.37,71.74L200.51,88.87L202.78,90.04L203.92,83.1L206.2,71.57L207.34,66.75L209.62,54.39L210.76,64.18L211.9,63.67L213.04,64.49L215.32,62.75L216.46,62.76L217.59,65.31L218.73,56.66L219.87,58.75L221.01,64.14L222.15,96.14L223.29,90.34L224.43,81.48L225.57,43.4L226.71,41.49L227.85,33.98L228.99,33.23L230.13,35.33L231.27,60.98L232.41,59.94L233.54,64.32L234.68,64.95L236.96,68.49L238.1,68.44L239.24,72.59L240.38,73.48L241.52,71.53L242.66,72.52L243.8,72.24L244.94,84.21L247.22,83.2L248.35,80.17L250.63,80.21L251.77,87.93L252.91,90.22L254.05,90.35L255.19,86.93L256.33,90.51L259.75,88.67L260.89,84.3L262.03,84.33L263.16,83.1L264.3,80.85L265.44,84.3L267.72,83.91L268.86,82.43L270,35L271.14,34.25L273.42,27.69L274.56,30.4L275.7,29.42L276.84,31.16L279.11,31.37L280.25,29.97L281.39,27.43L282.53,90.07L284.81,87.24L285.95,79.98L287.09,87.89L288.23,88.67L289.37,88.06L290.51,88.6L291.65,81.29L292.78,80.68L293.92,65.86L295.06,64.54L296.2,67.99L297.34,60.7L298.48,62.06L299.62,61.61L300.76,62.48L301.9,60.61L303.04,60.28L304.18,63.03L305.32,65.19L306.46,65.49L307.59,63.89L308.73,70.81L309.87,66.98L311.01,68.96L312.15,70.57L313.29,73.73L314.43,66.83L315.57,16.31L318.99,16L320.13,16.41L322.41,20.34L323.54,19.4L324.68,22.53L325.82,21.44L328.1,20.37L329.24,21.46L332.66,25.09L333.8,24.65L338.35,29.9L339.49,30.94L340.63,31.43L341.77,30.51L346.33,36.06L347.47,41.8L348.61,40.64L349.75,42.77L350.89,41.73L352.03,44.61L353.16,45.35L354.3,66.72L355.44,84.53L356.58,82.93L357.72,81.8L358.86,231.44L360,231.74L361.14,238.7L362.28,190.91L363.42,193.47L365.7,197.28L366.84,211.95L367.97,211.42L369.11,213.65L371.39,214.37L372.53,211.68L373.67,211.34L374.81,209.29L375.95,211.59L377.09,212.1L378.23,216.74L379.37,216.66L380.51,220.47L381.65,220.08L382.78,221.77L383.92,228.58L386.2,213.87L387.34,213.11L390.76,212.13L391.9,203.97L393.04,204.02L394.18,201.41L398.73,201.83L399.87,201.25L402.15,201.68L403.29,204.3L404.43,201.78L405.57,201.79L407.85,200.49L408.99,201.18L410.13,202.45L411.27,200.52L414.68,201.57L415.82,201.84L418.1,201.06L419.24,202.87L421.52,203.03L422.66,202.9L423.8,203.06L424.94,204.13L427.22,202.56L428.35,203.04L431.77,200.31L432.91,201.29L434.05,209.98L435.19,209.58L444.3,209.43L445.44,209.36L446.58,209.01L447.72,210.25L451.14,209.93L452.28,211.53L455.7,211.79L456.84,210.11L457.97,211.28L459.11,211.13L460.25,209.51L461.39,209.63L462.53,209.29L463.67,209.75L465.95,209.62L467.09,211.74L470.51,211.21L471.65,214.08L472.78,214.4L473.92,212.75L475.06,214.76L476.2,214.18L478.48,212.92L479.62,213.6L480.76,216.91L481.9,215.74L485.32,216.23L486.46,218.01L487.59,216.92L488.73,217.98L489.87,218.47L491.01,216.98L495.57,217.3L496.71,215.87L497.85,218.51L498.99,223.87L501.27,230.73L502.41,233.97L503.54,228.32L504.68,228.65L505.82,229.03L506.96,230.46L508.1,228.95L509.24,229.07L511.52,229.2L512.66,232.48L513.8,232.58L514.94,233.62L516.08,233.3L517.22,234.71L518.35,236.19L519.49,235.99L525.19,239.06L526.33,239.06L527.47,240.21L528.61,240.29L529.75,243.05L530.89,243.5L532.03,244.34L533.16,252.68L534.3,253.11L535.44,255.96L536.58,292.87L537.72,293.79L538.86,299.49L540,300.47" style="fill: rgb(99, 110, 250); fill-opacity: 0.5; stroke-width: 0;"/></g></g><g class="errorbars"/><g class="lines"><path class="js-line" d="M0,319.92L4.56,317.46L5.7,315.49L7.97,314.13L9.11,293.5L12.53,240.54L13.67,237.13L14.81,234.63L15.95,229.86L17.09,214.27L18.23,209.57L20.51,208.66L21.65,188.54L22.78,190.75L23.92,179.48L25.06,180.53L26.2,164.57L28.48,153.12L29.62,136.32L31.9,131.52L33.04,143.4L34.18,151.91L35.32,149.66L36.46,149.37L37.59,146.17L39.87,144.86L41.01,135.72L42.15,140.32L43.29,135.9L44.43,132.64L45.57,133.19L47.85,135.19L48.99,133.14L50.13,131.76L51.27,134.68L52.41,136.17L53.54,135.27L54.68,132.51L55.82,133L56.96,134.67L58.1,134.94L59.24,133.97L60.38,135.71L63.8,136.22L64.94,142.1L67.22,142.53L68.35,136.72L72.91,132.62L74.05,128.75L75.19,127.65L76.33,130.45L77.47,132.49L78.61,131.09L82.03,126.4L83.16,134.55L84.3,144.05L85.44,142.96L86.58,141.16L87.72,147.21L88.86,154.09L90,152.91L91.14,154.29L92.28,157.57L93.42,158.39L94.56,157.7L96.84,156.55L97.97,154.65L99.11,159.73L100.25,159.12L101.39,159.34L102.53,158.41L103.67,157.07L104.81,162.17L110.51,160.72L111.65,160.69L112.78,158.83L113.92,162.45L115.06,162.8L116.2,159.98L117.34,161.66L118.48,167.55L119.62,167.54L120.76,164.24L121.9,164.26L123.04,162.73L124.18,159.44L125.32,164.57L126.46,162.64L127.59,163.29L131.01,162.71L132.15,161.22L133.29,184.56L134.43,183.66L136.71,183.96L137.85,185.54L138.99,185.16L140.13,182.45L142.41,180.13L143.54,183.35L145.82,182.43L146.96,175.24L149.24,169.35L150.38,167.76L151.52,168.64L152.66,164.73L153.8,159.43L154.94,158.77L156.08,158.21L157.22,148.34L158.35,143.69L159.49,145.01L160.63,144.58L161.77,144.97L162.91,144.57L164.05,136.63L165.19,136.73L166.33,130.4L167.47,125.93L168.61,126.31L169.75,126.16L170.89,128.05L173.16,123.85L174.3,123.65L175.44,124.44L176.58,120.99L177.72,126.49L178.86,119.54L182.28,104.28L183.42,106.54L184.56,106.08L185.7,67.59L187.97,64.96L189.11,67.82L190.25,72.71L191.39,73.65L192.53,71.13L193.67,72.26L194.81,70.3L195.95,72.07L197.09,71.97L198.23,74.6L199.37,71.74L200.51,88.87L202.78,90.04L203.92,83.1L206.2,71.57L207.34,66.75L209.62,54.39L210.76,64.18L211.9,63.67L213.04,64.49L215.32,62.75L216.46,62.76L217.59,65.31L218.73,56.66L219.87,58.75L221.01,64.14L222.15,96.14L223.29,90.34L224.43,81.48L225.57,43.4L226.71,41.49L227.85,33.98L228.99,33.23L230.13,35.33L231.27,60.98L232.41,59.94L233.54,64.32L234.68,64.95L236.96,68.49L238.1,68.44L239.24,72.59L240.38,73.48L241.52,71.53L242.66,72.52L243.8,72.24L244.94,84.21L247.22,83.2L248.35,80.17L250.63,80.21L251.77,87.93L252.91,90.22L254.05,90.35L255.19,86.93L256.33,90.51L259.75,88.67L260.89,84.3L262.03,84.33L263.16,83.1L264.3,80.85L265.44,84.3L267.72,83.91L268.86,82.43L270,35L271.14,34.25L273.42,27.69L274.56,30.4L275.7,29.42L276.84,31.16L279.11,31.37L280.25,29.97L281.39,27.43L282.53,90.07L284.81,87.24L285.95,79.98L287.09,87.89L288.23,88.67L289.37,88.06L290.51,88.6L291.65,81.29L292.78,80.68L293.92,65.86L295.06,64.54L296.2,67.99L297.34,60.7L298.48,62.06L299.62,61.61L300.76,62.48L301.9,60.61L303.04,60.28L304.18,63.03L305.32,65.19L306.46,65.49L307.59,63.89L308.73,70.81L309.87,66.98L311.01,68.96L312.15,70.57L313.29,73.73L314.43,66.83L315.57,16.31L318.99,16L320.13,16.41L322.41,20.34L323.54,19.4L324.68,22.53L325.82,21.44L328.1,20.37L329.24,21.46L332.66,25.09L333.8,24.65L338.35,29.9L339.49,30.94L340.63,31.43L341.77,30.51L346.33,36.06L347.47,41.8L348.61,40.64L349.75,42.77L350.89,41.73L352.03,44.61L353.16,45.35L354.3,66.72L355.44,84.53L356.58,82.93L357.72,81.8L358.86,231.44L360,231.74L361.14,238.7L362.28,190.91L363.42,193.47L365.7,197.28L366.84,211.95L367.97,211.42L369.11,213.65L371.39,214.37L372.53,211.68L373.67,211.34L374.81,209.29L375.95,211.59L377.09,212.1L378.23,216.74L379.37,216.66L380.51,220.47L381.65,220.08L382.78,221.77L383.92,228.58L386.2,213.87L387.34,213.11L390.76,212.13L391.9,203.97L393.04,204.02L394.18,201.41L398.73,201.83L399.87,201.25L402.15,201.68L403.29,204.3L404.43,201.78L405.57,201.79L407.85,200.49L408.99,201.18L410.13,202.45L411.27,200.52L414.68,201.57L415.82,201.84L418.1,201.06L419.24,202.87L421.52,203.03L422.66,202.9L423.8,203.06L424.94,204.13L427.22,202.56L428.35,203.04L431.77,200.31L432.91,201.29L434.05,209.98L435.19,209.58L444.3,209.43L445.44,209.36L446.58,209.01L447.72,210.25L451.14,209.93L452.28,211.53L455.7,211.79L456.84,210.11L457.97,211.28L459.11,211.13L460.25,209.51L461.39,209.63L462.53,209.29L463.67,209.75L465.95,209.62L467.09,211.74L470.51,211.21L471.65,214.08L472.78,214.4L473.92,212.75L475.06,214.76L476.2,214.18L478.48,212.92L479.62,213.6L480.76,216.91L481.9,215.74L485.32,216.23L486.46,218.01L487.59,216.92L488.73,217.98L489.87,218.47L491.01,216.98L495.57,217.3L496.71,215.87L497.85,218.51L498.99,223.87L501.27,230.73L502.41,233.97L503.54,228.32L504.68,228.65L505.82,229.03L506.96,230.46L508.1,228.95L509.24,229.07L511.52,229.2L512.66,232.48L513.8,232.58L514.94,233.62L516.08,233.3L517.22,234.71L518.35,236.19L519.49,235.99L525.19,239.06L526.33,239.06L527.47,240.21L528.61,240.29L529.75,243.05L530.89,243.5L532.03,244.34L533.16,252.68L534.3,253.11L535.44,255.96L536.58,292.87L537.72,293.79L538.86,299.49L540,300.47" style="vector-effect: none; fill: none; stroke: rgb(99, 110, 250); stroke-opacity: 1; stroke-width: 2px; opacity: 1;"/></g><g class="points"/><g class="text"/></g></g></g><g class="overplot"/><path class="xlines-above crisp" d="M0,0" style="fill: none;"/><path class="ylines-above crisp" d="M0,0" style="fill: none;"/><g class="overlines-above"/><g class="xaxislayer-above"><g class="xtick"><text text-anchor="middle" x="0" y="433" transform="translate(117.59,0)" style="font-family: 'Open Sans', verdana, arial, sans-serif; font-size: 12px; fill: rgb(42, 63, 95); fill-opacity: 1; white-space: pre; opacity: 1;">Oct 2022</text></g><g class="xtick"><text text-anchor="middle" x="0" y="433" style="font-family: 'Open Sans', verdana, arial, sans-serif; font-size: 12px; fill: rgb(42, 63, 95); fill-opacity: 1; white-space: pre; opacity: 1;" transform="translate(222.41,0)">Jan 2023</text></g><g class="xtick"><text text-anchor="middle" x="0" y="433" style="font-family: 'Open Sans', verdana, arial, sans-serif; font-size: 12px; fill: rgb(42, 63, 95); fill-opacity: 1; white-space: pre; opacity: 1;" transform="translate(324.94,0)">Apr 2023</text></g><g class="xtick"><text text-anchor="middle" x="0" y="433" style="font-family: 'Open Sans', verdana, arial, sans-serif; font-size: 12px; fill: rgb(42, 63, 95); fill-opacity: 1; white-space: pre; opacity: 1;" transform="translate(428.61,0)">Jul 2023</text></g><g class="xtick"><text text-anchor="middle" x="0" y="433" style="font-family: 'Open Sans', verdana, arial, sans-serif; font-size: 12px; fill: rgb(42, 63, 95); fill-opacity: 1; white-space: pre; opacity: 1;" transform="translate(533.4200000000001,0)">Oct 2023</text></g></g><g class="yaxislayer-above"><g class="ytick"><text text-anchor="end" x="79" y="4.199999999999999" transform="translate(0,420)" style="font-family: 'Open Sans', verdana, arial, sans-serif; font-size: 12px; fill: rgb(42, 63, 95); fill-opacity: 1; white-space: pre; opacity: 1;">$0</text></g><g class="ytick"><text text-anchor="end" x="79" y="4.199999999999999" style="font-family: 'Open Sans', verdana, arial, sans-serif; font-size: 12px; fill: rgb(42, 63, 95); fill-opacity: 1; white-space: pre; opacity: 1;" transform="translate(0,377.8)">$2M</text></g><g class="ytick"><text text-anchor="end" x="79" y="4.199999999999999" style="font-family: 'Open Sans', verdana, arial, sans-serif; font-size: 12px; fill: rgb(42, 63, 95); fill-opacity: 1; white-space: pre; opacity: 1;" transform="translate(0,335.6)">$4M</text></g><g class="ytick"><text text-anchor="end" x="79" y="4.199999999999999" style="font-family: 'Open Sans', verdana, arial, sans-serif; font-size: 12px; fill: rgb(42, 63, 95); fill-opacity: 1; white-space: pre; opacity: 1;" transform="translate(0,293.4)">$6M</text></g><g class="ytick"><text text-anchor="end" x="79" y="4.199999999999999" style="font-family: 'Open Sans', verdana, arial, sans-serif; font-size: 12px; fill: rgb(42, 63, 95); fill-opacity: 1; white-space: pre; opacity: 1;" transform="translate(0,251.2)">$8M</text></g><g class="ytick"><text text-anchor="end" x="79" y="4.199999999999999" style="font-family: 'Open Sans', verdana, arial, sans-serif; font-size: 12px; fill: rgb(42, 63, 95); fill-opacity: 1; white-space: pre; opacity: 1;" transform="translate(0,208.99)">$10M</text></g><g class="ytick"><text text-anchor="end" x="79" y="4.199999999999999" style="font-family: 'Open Sans', verdana, arial, sans-serif; font-size: 12px; fill: rgb(42, 63, 95); fill-opacity: 1; white-space: pre; opacity: 1;" transform="translate(0,166.79000000000002)">$12M</text></g><g class="ytick"><text text-anchor="end" x="79" y="4.199999999999999" style="font-family: 'Open Sans', verdana, arial, sans-serif; font-size: 12px; fill: rgb(42, 63, 95); fill-opacity: 1; white-space: pre; opacity: 1;" transform="translate(0,124.59)">$14M</text></g></g><g class="overaxes-above"/></g></g><g class="polarlayer"/><g class="smithlayer"/><g class="ternarylayer"/><g class="geolayer"/><g class="funnelarealayer"/><g class="pielayer"/><g class="iciclelayer"/><g class="treemaplayer"/><g class="sunburstlayer"/><g class="glimages"/><defs id="topdefs-01a639"><g class="clips"/></defs><g class="layer-above"><g class="imagelayer"/><g class="shapelayer"/></g><g class="infolayer"><g class="g-gtitle"><text class="gtitle" x="35" y="50" text-anchor="start" dy="0em" style="font-family: 'Open Sans', verdana, arial, sans-serif; font-size: 17px; fill: rgb(42, 63, 95); opacity: 1; font-weight: normal; white-space: pre;"><tspan class="line" dy="0em" x="35" y="50">Pika Protocol*</tspan><tspan class="line" dy="1.3em" x="35" y="50">​<tspan style="font-size:70%" dy="-0.6em">Cumulative Net Flows since Program Announcement, Until Program End + 30 Days</tspan><tspan dy="0.42em">​</tspan></tspan></text></g><g class="g-xtitle"><text class="xtitle" x="350" y="460.3" text-anchor="middle" style="font-family: 'Open Sans', verdana, arial, sans-serif; font-size: 14px; fill: rgb(42, 63, 95); opacity: 1; font-weight: normal; white-space: pre;">Day</text></g><g class="g-ytitle"><text class="ytitle" transform="rotate(-90,24.668750000000003,260)" x="24.668750000000003" y="260" text-anchor="middle" style="font-family: 'Open Sans', verdana, arial, sans-serif; font-size: 14px; fill: rgb(42, 63, 95); opacity: 1; font-weight: normal; white-space: pre;">Cumulative Net Flows (USD)</text></g></g></svg>