<svg class="main-svg" xmlns="http://www.w3.org/2000/svg" xmlns:xlink="http://www.w3.org/1999/xlink" width="700" height="500" style="" viewBox="0 0 700 500"><rect x="0" y="0" width="700" height="500" style="fill: rgb(255, 255, 255); fill-opacity: 1;"/><defs id="defs-10fe41"><g class="clips"><clipPath id="clip10fe41xyplot" class="plotclip"><rect width="540" height="320"/></clipPath><clipPath class="axesclip" id="clip10fe41x"><rect x="80" y="0" width="540" height="500"/></clipPath><clipPath class="axesclip" id="clip10fe41y"><rect x="0" y="100" width="700" height="320"/></clipPath><clipPath class="axesclip" id="clip10fe41xy"><rect x="80" y="100" width="540" height="320"/></clipPath></g><g class="gradients"/><g class="patterns"/></defs><g class="bglayer"><rect class="bg" x="80" y="100" width="540" height="320" style="fill: rgb(229, 236, 246); fill-opacity: 1; stroke-width: 0;"/></g><g class="layer-below"><g class="imagelayer"/><g class="shapelayer"/></g><g class="cartesianlayer"><g class="subplot xy"><g class="layer-subplot"><g class="shapelayer"/><g class="imagelayer"/></g><g class="minor-gridlayer"><g class="x"/><g class="y"/></g><g class="gridlayer"><g class="x"><path class="xgrid crisp" transform="translate(143.82,0)" d="M0,100v320" style="stroke: rgb(255, 255, 255); stroke-opacity: 1; stroke-width: 1px;"/><path class="xgrid crisp" transform="translate(212.55,0)" d="M0,100v320" style="stroke: rgb(255, 255, 255); stroke-opacity: 1; stroke-width: 1px;"/><path class="xgrid crisp" transform="translate(281.27,0)" d="M0,100v320" style="stroke: rgb(255, 255, 255); stroke-opacity: 1; stroke-width: 1px;"/><path class="xgrid crisp" transform="translate(350,0)" d="M0,100v320" style="stroke: rgb(255, 255, 255); stroke-opacity: 1; stroke-width: 1px;"/><path class="xgrid crisp" transform="translate(418.73,0)" d="M0,100v320" style="stroke: rgb(255, 255, 255); stroke-opacity: 1; stroke-width: 1px;"/><path class="xgrid crisp" transform="translate(487.45,0)" d="M0,100v320" style="stroke: rgb(255, 255, 255); stroke-opacity: 1; stroke-width: 1px;"/><path class="xgrid crisp" transform="translate(556.1800000000001,0)" d="M0,100v320" style="stroke: rgb(255, 255, 255); stroke-opacity: 1; stroke-width: 1px;"/></g><g class="y"><path class="ygrid crisp" transform="translate(0,370.7)" d="M80,0h540" style="stroke: rgb(255, 255, 255); stroke-opacity: 1; stroke-width: 1px;"/><path class="ygrid crisp" transform="translate(0,321.40999999999997)" d="M80,0h540" style="stroke: rgb(255, 255, 255); stroke-opacity: 1; stroke-width: 1px;"/><path class="ygrid crisp" transform="translate(0,272.11)" d="M80,0h540" style="stroke: rgb(255, 255, 255); stroke-opacity: 1; stroke-width: 1px;"/><path class="ygrid crisp" transform="translate(0,222.82)" d="M80,0h540" style="stroke: rgb(255, 255, 255); stroke-opacity: 1; stroke-width: 1px;"/><path class="ygrid crisp" transform="translate(0,173.51999999999998)" d="M80,0h540" style="stroke: rgb(255, 255, 255); stroke-opacity: 1; stroke-width: 1px;"/><path class="ygrid crisp" transform="translate(0,124.22)" d="M80,0h540" style="stroke: rgb(255, 255, 255); stroke-opacity: 1; stroke-width: 1px;"/></g></g><g class="zerolinelayer"><path class="yzl zl crisp" transform="translate(0,420)" d="M80,0h540" style="stroke: rgb(255, 255, 255); stroke-opacity: 1; stroke-width: 2px;"/></g><path class="xlines-below"/><path class="ylines-below"/><g class="overlines-below"/><g class="xaxislayer-below"/><g class="yaxislayer-below"/><g class="overaxes-below"/><g class="plot" transform="translate(80,100)" clip-path="url(#clip10fe41xyplot)"><g class="scatterlayer mlayer"><g class="trace scatter traced62c2c" style="stroke-miterlimit: 2;"><g class="fills"><g><path class="js-fill" d="M540,320L0,320L0,319.9L4.91,320L9.82,317.21L14.73,249.31L19.64,227.7L24.55,204.72L29.45,204.98L39.27,163.27L44.18,155.94L49.09,170.47L54,167.14L58.91,168.62L63.82,161.57L68.73,162.32L73.64,161.1L78.55,149.78L83.45,149.02L88.36,133.96L93.27,114.55L98.18,82.56L103.09,65.74L108,65.15L112.91,77.53L117.82,57.38L122.73,28.82L127.64,37.75L132.55,38.07L137.45,38.26L142.36,16L147.27,16.28L152.18,20.22L157.09,28.66L162,41.48L166.91,47.2L171.82,49.47L181.64,45.12L186.55,75.47L191.45,124.67L196.36,228.08L201.27,215.28L206.18,187.61L211.09,160.96L216,89.44L220.91,108.27L225.82,90.74L230.73,71.35L235.64,76.49L240.55,79.91L245.45,86.23L250.36,79.56L255.27,85.26L260.18,90.94L265.09,92L270,93.63L274.91,99.04L279.82,98.59L284.73,105.65L289.64,106.28L294.55,115.81L299.45,108.35L304.36,111.66L309.27,97.53L314.18,96.85L319.09,98.21L324,109.1L328.91,107.8L333.82,121.97L338.73,100.39L343.64,97.65L353.45,95.98L358.36,97.83L363.27,99.13L368.18,90.9L373.09,89.34L378,82.87L382.91,63.48L387.82,63.39L392.73,55.46L397.64,62.83L402.55,63.38L407.45,62.45L412.36,40.92L417.27,41.46L422.18,41.69L427.09,50.02L432,68.27L436.91,68.19L441.82,73.74L446.73,74.22L451.64,78.58L456.55,79.17L461.45,79.09L466.36,75.01L471.27,74.26L476.18,74.32L481.09,82.63L486,86.28L490.91,94.1L495.82,85.71L500.73,86.54L505.64,86.12L510.55,87.72L515.45,101.73L520.36,103.86L525.27,101.01L530.18,66.69L535.09,73.43L540,72.74" style="fill: rgb(99, 110, 250); fill-opacity: 0.5; stroke-width: 0;"/></g></g><g class="errorbars"/><g class="lines"><path class="js-line" d="M0,319.9L4.91,320L9.82,317.21L14.73,249.31L19.64,227.7L24.55,204.72L29.45,204.98L39.27,163.27L44.18,155.94L49.09,170.47L54,167.14L58.91,168.62L63.82,161.57L68.73,162.32L73.64,161.1L78.55,149.78L83.45,149.02L88.36,133.96L93.27,114.55L98.18,82.56L103.09,65.74L108,65.15L112.91,77.53L117.82,57.38L122.73,28.82L127.64,37.75L132.55,38.07L137.45,38.26L142.36,16L147.27,16.28L152.18,20.22L157.09,28.66L162,41.48L166.91,47.2L171.82,49.47L181.64,45.12L186.55,75.47L191.45,124.67L196.36,228.08L201.27,215.28L206.18,187.61L211.09,160.96L216,89.44L220.91,108.27L225.82,90.74L230.73,71.35L235.64,76.49L240.55,79.91L245.45,86.23L250.36,79.56L255.27,85.26L260.18,90.94L265.09,92L270,93.63L274.91,99.04L279.82,98.59L284.73,105.65L289.64,106.28L294.55,115.81L299.45,108.35L304.36,111.66L309.27,97.53L314.18,96.85L319.09,98.21L324,109.1L328.91,107.8L333.82,121.97L338.73,100.39L343.64,97.65L353.45,95.98L358.36,97.83L363.27,99.13L368.18,90.9L373.09,89.34L378,82.87L382.91,63.48L387.82,63.39L392.73,55.46L397.64,62.83L402.55,63.38L407.45,62.45L412.36,40.92L417.27,41.46L422.18,41.69L427.09,50.02L432,68.27L436.91,68.19L441.82,73.74L446.73,74.22L451.64,78.58L456.55,79.17L461.45,79.09L466.36,75.01L471.27,74.26L476.18,74.32L481.09,82.63L486,86.28L490.91,94.1L495.82,85.71L500.73,86.54L505.64,86.12L510.55,87.72L515.45,101.73L520.36,103.86L525.27,101.01L530.18,66.69L535.09,73.43L540,72.74" style="vector-effect: none; fill: none; stroke: rgb(99, 110, 250); stroke-opacity: 1; stroke-width: 2px; opacity: 1;"/></g><g class="points"/><g class="text"/></g></g></g><g class="overplot"/><path class="xlines-above crisp" d="M0,0" style="fill: none;"/><path class="ylines-above crisp" d="M0,0" style="fill: none;"/><g class="overlines-above"/><g class="xaxislayer-above"><g class="xtick"><text text-anchor="middle" x="0" y="433" transform="translate(143.82,0)" style="font-family: 'Open Sans', verdana, arial, sans-serif; font-size: 12px; fill: rgb(42, 63, 95); fill-opacity: 1; white-space: pre; opacity: 1;"><tspan class="line" dy="0em" x="0" y="433">Feb 12</tspan><tspan class="line" dy="1.3em" x="0" y="433">2023</tspan></text></g><g class="xtick"><text text-anchor="middle" x="0" y="433" style="font-family: 'Open Sans', verdana, arial, sans-serif; font-size: 12px; fill: rgb(42, 63, 95); fill-opacity: 1; white-space: pre; opacity: 1;" transform="translate(212.55,0)">Feb 26</text></g><g class="xtick"><text text-anchor="middle" x="0" y="433" style="font-family: 'Open Sans', verdana, arial, sans-serif; font-size: 12px; fill: rgb(42, 63, 95); fill-opacity: 1; white-space: pre; opacity: 1;" transform="translate(281.27,0)">Mar 12</text></g><g class="xtick"><text text-anchor="middle" x="0" y="433" style="font-family: 'Open Sans', verdana, arial, sans-serif; font-size: 12px; fill: rgb(42, 63, 95); fill-opacity: 1; white-space: pre; opacity: 1;" transform="translate(350,0)">Mar 26</text></g><g class="xtick"><text text-anchor="middle" x="0" y="433" style="font-family: 'Open Sans', verdana, arial, sans-serif; font-size: 12px; fill: rgb(42, 63, 95); fill-opacity: 1; white-space: pre; opacity: 1;" transform="translate(418.73,0)">Apr 9</text></g><g class="xtick"><text text-anchor="middle" x="0" y="433" style="font-family: 'Open Sans', verdana, arial, sans-serif; font-size: 12px; fill: rgb(42, 63, 95); fill-opacity: 1; white-space: pre; opacity: 1;" transform="translate(487.45,0)">Apr 23</text></g><g class="xtick"><text text-anchor="middle" x="0" y="433" style="font-family: 'Open Sans', verdana, arial, sans-serif; font-size: 12px; fill: rgb(42, 63, 95); fill-opacity: 1; white-space: pre; opacity: 1;" transform="translate(556.1800000000001,0)">May 7</text></g></g><g class="yaxislayer-above"><g class="ytick"><text text-anchor="end" x="79" y="4.199999999999999" transform="translate(0,420)" style="font-family: 'Open Sans', verdana, arial, sans-serif; font-size: 12px; fill: rgb(42, 63, 95); fill-opacity: 1; white-space: pre; opacity: 1;">$0</text></g><g class="ytick"><text text-anchor="end" x="79" y="4.199999999999999" style="font-family: 'Open Sans', verdana, arial, sans-serif; font-size: 12px; fill: rgb(42, 63, 95); fill-opacity: 1; white-space: pre; opacity: 1;" transform="translate(0,370.7)">$1M</text></g><g class="ytick"><text text-anchor="end" x="79" y="4.199999999999999" style="font-family: 'Open Sans', verdana, arial, sans-serif; font-size: 12px; fill: rgb(42, 63, 95); fill-opacity: 1; white-space: pre; opacity: 1;" transform="translate(0,321.40999999999997)">$2M</text></g><g class="ytick"><text text-anchor="end" x="79" y="4.199999999999999" style="font-family: 'Open Sans', verdana, arial, sans-serif; font-size: 12px; fill: rgb(42, 63, 95); fill-opacity: 1; white-space: pre; opacity: 1;" transform="translate(0,272.11)">$3M</text></g><g class="ytick"><text text-anchor="end" x="79" y="4.199999999999999" style="font-family: 'Open Sans', verdana, arial, sans-serif; font-size: 12px; fill: rgb(42, 63, 95); fill-opacity: 1; white-space: pre; opacity: 1;" transform="translate(0,222.82)">$4M</text></g><g class="ytick"><text text-anchor="end" x="79" y="4.199999999999999" style="font-family: 'Open Sans', verdana, arial, sans-serif; font-size: 12px; fill: rgb(42, 63, 95); fill-opacity: 1; white-space: pre; opacity: 1;" transform="translate(0,173.51999999999998)">$5M</text></g><g class="ytick"><text text-anchor="end" x="79" y="4.199999999999999" style="font-family: 'Open Sans', verdana, arial, sans-serif; font-size: 12px; fill: rgb(42, 63, 95); fill-opacity: 1; white-space: pre; opacity: 1;" transform="translate(0,124.22)">$6M</text></g></g><g class="overaxes-above"/></g></g><g class="polarlayer"/><g class="smithlayer"/><g class="ternarylayer"/><g class="geolayer"/><g class="funnelarealayer"/><g class="pielayer"/><g class="iciclelayer"/><g class="treemaplayer"/><g class="sunburstlayer"/><g class="glimages"/><defs id="topdefs-10fe41"><g class="clips"/></defs><g class="layer-above"><g class="imagelayer"/><g class="shapelayer"/></g><g class="infolayer"><g class="g-gtitle"><text class="gtitle" x="35" y="50" text-anchor="start" dy="0em" style="font-family: 'Open Sans', verdana, arial, sans-serif; font-size: 17px; fill: rgb(42, 63, 95); opacity: 1; font-weight: normal; white-space: pre;"><tspan class="line" dy="0em" x="35" y="50">Overnight - USD+/DOLA: Velodrome</tspan><tspan class="line" dy="1.3em" x="35" y="50">​<tspan style="font-size:70%" dy="-0.6em">Cumulative Net Flows since Program Announcement, Until Program End + 30 Days</tspan><tspan dy="0.42em">​</tspan></tspan></text></g><g class="g-xtitle"><text class="xtitle" x="350" y="475.909375" text-anchor="middle" style="font-family: 'Open Sans', verdana, arial, sans-serif; font-size: 14px; fill: rgb(42, 63, 95); opacity: 1; font-weight: normal; white-space: pre;">Day</text></g><g class="g-ytitle"><text class="ytitle" transform="rotate(-90,31.356250000000003,260)" x="31.356250000000003" y="260" text-anchor="middle" style="font-family: 'Open Sans', verdana, arial, sans-serif; font-size: 14px; fill: rgb(42, 63, 95); opacity: 1; font-weight: normal; white-space: pre;">Cumulative Net Flows (USD)</text></g></g></svg>