<svg class="main-svg" xmlns="http://www.w3.org/2000/svg" xmlns:xlink="http://www.w3.org/1999/xlink" width="700" height="500" style="" viewBox="0 0 700 500"><rect x="0" y="0" width="700" height="500" style="fill: rgb(255, 255, 255); fill-opacity: 1;"/><defs id="defs-dd7f9c"><g class="clips"><clipPath id="clipdd7f9cxyplot" class="plotclip"><rect width="540" height="320"/></clipPath><clipPath class="axesclip" id="clipdd7f9cx"><rect x="80" y="0" width="540" height="500"/></clipPath><clipPath class="axesclip" id="clipdd7f9cy"><rect x="0" y="100" width="700" height="320"/></clipPath><clipPath class="axesclip" id="clipdd7f9cxy"><rect x="80" y="100" width="540" height="320"/></clipPath></g><g class="gradients"/><g class="patterns"/></defs><g class="bglayer"><rect class="bg" x="80" y="100" width="540" height="320" style="fill: rgb(229, 236, 246); fill-opacity: 1; stroke-width: 0;"/></g><g class="layer-below"><g class="imagelayer"/><g class="shapelayer"/></g><g class="cartesianlayer"><g class="subplot xy"><g class="layer-subplot"><g class="shapelayer"/><g class="imagelayer"/></g><g class="minor-gridlayer"><g class="x"/><g class="y"/></g><g class="gridlayer"><g class="x"><path class="xgrid crisp" transform="translate(85.09,0)" d="M0,100v320" style="stroke: rgb(255, 255, 255); stroke-opacity: 1; stroke-width: 1px;"/><path class="xgrid crisp" transform="translate(156.42000000000002,0)" d="M0,100v320" style="stroke: rgb(255, 255, 255); stroke-opacity: 1; stroke-width: 1px;"/><path class="xgrid crisp" transform="translate(235.38,0)" d="M0,100v320" style="stroke: rgb(255, 255, 255); stroke-opacity: 1; stroke-width: 1px;"/><path class="xgrid crisp" transform="translate(311.78999999999996,0)" d="M0,100v320" style="stroke: rgb(255, 255, 255); stroke-opacity: 1; stroke-width: 1px;"/><path class="xgrid crisp" transform="translate(390.75,0)" d="M0,100v320" style="stroke: rgb(255, 255, 255); stroke-opacity: 1; stroke-width: 1px;"/><path class="xgrid crisp" transform="translate(467.17,0)" d="M0,100v320" style="stroke: rgb(255, 255, 255); stroke-opacity: 1; stroke-width: 1px;"/><path class="xgrid crisp" transform="translate(546.13,0)" d="M0,100v320" style="stroke: rgb(255, 255, 255); stroke-opacity: 1; stroke-width: 1px;"/></g><g class="y"><path class="ygrid crisp" transform="translate(0,371.03)" d="M80,0h540" style="stroke: rgb(255, 255, 255); stroke-opacity: 1; stroke-width: 1px;"/><path class="ygrid crisp" transform="translate(0,322.06)" d="M80,0h540" style="stroke: rgb(255, 255, 255); stroke-opacity: 1; stroke-width: 1px;"/><path class="ygrid crisp" transform="translate(0,273.09000000000003)" d="M80,0h540" style="stroke: rgb(255, 255, 255); stroke-opacity: 1; stroke-width: 1px;"/><path class="ygrid crisp" transform="translate(0,224.12)" d="M80,0h540" style="stroke: rgb(255, 255, 255); stroke-opacity: 1; stroke-width: 1px;"/><path class="ygrid crisp" transform="translate(0,175.15)" d="M80,0h540" style="stroke: rgb(255, 255, 255); stroke-opacity: 1; stroke-width: 1px;"/><path class="ygrid crisp" transform="translate(0,126.18)" d="M80,0h540" style="stroke: rgb(255, 255, 255); stroke-opacity: 1; stroke-width: 1px;"/></g></g><g class="zerolinelayer"><path class="yzl zl crisp" transform="translate(0,420)" d="M80,0h540" style="stroke: rgb(255, 255, 255); stroke-opacity: 1; stroke-width: 2px;"/></g><path class="xlines-below"/><path class="ylines-below"/><g class="overlines-below"/><g class="xaxislayer-below"/><g class="yaxislayer-below"/><g class="overaxes-below"/><g class="plot" transform="translate(80,100)" clip-path="url(#clipdd7f9cxyplot)"><g class="scatterlayer mlayer"><g class="trace scatter trace44ae6b" style="stroke-miterlimit: 2;"><g class="fills"><g><path class="js-fill" d="M540,320L0,320L0,319.9L2.55,320L5.09,317.15L7.64,249.71L10.19,228.25L12.74,205.5L15.28,205.64L20.38,163.79L22.92,156.63L25.47,170.86L28.02,167.77L30.57,169.34L33.11,162.34L35.66,162.8L38.21,161.59L40.75,150.3L43.3,149.7L48.4,115.06L50.94,83.29L53.49,66.82L56.04,65.99L58.58,78.39L61.13,58.09L63.68,29.11L66.23,37.76L71.32,38.32L73.87,16L76.42,16.17L78.96,18.53L81.51,26.72L84.06,39.54L86.6,45.31L89.15,47.84L94.25,43.02L96.79,73.25L99.34,118.46L101.89,216.17L104.43,205.02L106.98,178.26L109.53,152.25L112.08,81.13L114.62,101.07L117.17,82.9L119.72,65.37L122.26,70.08L124.81,73.46L127.36,79.49L129.91,72.85L132.45,78.45L135,85.04L137.55,85.98L140.09,87.6L142.64,92.97L145.19,92.55L147.74,99.56L150.28,100.17L152.83,109.66L155.38,102.23L157.92,105.73L160.47,91.74L163.02,91.07L165.57,92.6L168.11,103.15L170.66,101.85L173.21,116.24L175.75,94.76L178.3,92.2L180.85,90.62L183.4,90.12L188.49,93.14L191.04,85.02L193.58,83.5L196.13,77.07L198.68,58.31L201.23,58.17L203.77,49.98L206.32,57.19L208.87,57.73L211.42,56.78L213.96,35.37L216.51,35.91L219.06,36.16L221.6,44.56L224.15,62.68L226.7,62.61L229.25,68.11L231.79,68.2L234.34,72.5L236.89,73.11L239.43,71.61L241.98,67.4L244.53,66.5L247.08,66.53L249.62,75L252.17,78.77L254.72,86.54L257.26,78.12L259.81,78.93L262.36,78.36L264.91,79.81L267.45,92.84L270,95.03L272.55,92.21L275.09,59.16L277.64,66.18L280.19,65.42L282.74,63.17L287.83,62.82L290.38,68.59L292.92,65.64L295.47,65.38L298.02,51.04L300.57,49.9L303.11,48.42L305.66,46.04L308.21,24.4L310.75,44.06L313.3,46.28L315.85,46.04L318.4,46.02L320.94,37.96L323.49,25.85L326.04,24.21L331.13,24.39L333.68,25.63L336.23,25.71L338.77,27.56L341.32,27L343.87,30.09L346.42,57L348.96,58.65L359.15,59.29L361.7,60.24L364.25,61.4L366.79,92.81L371.89,85.85L374.43,89.71L376.98,94.63L379.53,154.28L382.08,245.55L384.62,252.24L387.17,297.72L389.72,298.45L392.26,301.43L394.81,301.43L397.36,301.43L399.91,306.71L405,307.51L407.55,307.51L412.64,307.79L415.19,308.85L417.74,308.85L420.28,315.28L425.38,315.83L427.92,315.83L445.75,316.36L448.3,316.68L466.13,316.79L468.68,316.79L540,317.14" style="fill: rgb(99, 110, 250); fill-opacity: 0.5; stroke-width: 0;"/></g></g><g class="errorbars"/><g class="lines"><path class="js-line" d="M0,319.9L2.55,320L5.09,317.15L7.64,249.71L10.19,228.25L12.74,205.5L15.28,205.64L20.38,163.79L22.92,156.63L25.47,170.86L28.02,167.77L30.57,169.34L33.11,162.34L35.66,162.8L38.21,161.59L40.75,150.3L43.3,149.7L48.4,115.06L50.94,83.29L53.49,66.82L56.04,65.99L58.58,78.39L61.13,58.09L63.68,29.11L66.23,37.76L71.32,38.32L73.87,16L76.42,16.17L78.96,18.53L81.51,26.72L84.06,39.54L86.6,45.31L89.15,47.84L94.25,43.02L96.79,73.25L99.34,118.46L101.89,216.17L104.43,205.02L106.98,178.26L109.53,152.25L112.08,81.13L114.62,101.07L117.17,82.9L119.72,65.37L122.26,70.08L124.81,73.46L127.36,79.49L129.91,72.85L132.45,78.45L135,85.04L137.55,85.98L140.09,87.6L142.64,92.97L145.19,92.55L147.74,99.56L150.28,100.17L152.83,109.66L155.38,102.23L157.92,105.73L160.47,91.74L163.02,91.07L165.57,92.6L168.11,103.15L170.66,101.85L173.21,116.24L175.75,94.76L178.3,92.2L180.85,90.62L183.4,90.12L188.49,93.14L191.04,85.02L193.58,83.5L196.13,77.07L198.68,58.31L201.23,58.17L203.77,49.98L206.32,57.19L208.87,57.73L211.42,56.78L213.96,35.37L216.51,35.91L219.06,36.16L221.6,44.56L224.15,62.68L226.7,62.61L229.25,68.11L231.79,68.2L234.34,72.5L236.89,73.11L239.43,71.61L241.98,67.4L244.53,66.5L247.08,66.53L249.62,75L252.17,78.77L254.72,86.54L257.26,78.12L259.81,78.93L262.36,78.36L264.91,79.81L267.45,92.84L270,95.03L272.55,92.21L275.09,59.16L277.64,66.18L280.19,65.42L282.74,63.17L287.83,62.82L290.38,68.59L292.92,65.64L295.47,65.38L298.02,51.04L300.57,49.9L303.11,48.42L305.66,46.04L308.21,24.4L310.75,44.06L313.3,46.28L315.85,46.04L318.4,46.02L320.94,37.96L323.49,25.85L326.04,24.21L331.13,24.39L333.68,25.63L336.23,25.71L338.77,27.56L341.32,27L343.87,30.09L346.42,57L348.96,58.65L359.15,59.29L361.7,60.24L364.25,61.4L366.79,92.81L371.89,85.85L374.43,89.71L376.98,94.63L379.53,154.28L382.08,245.55L384.62,252.24L387.17,297.72L389.72,298.45L392.26,301.43L394.81,301.43L397.36,301.43L399.91,306.71L405,307.51L407.55,307.51L412.64,307.79L415.19,308.85L417.74,308.85L420.28,315.28L425.38,315.83L427.92,315.83L445.75,316.36L448.3,316.68L466.13,316.79L468.68,316.79L540,317.14" style="vector-effect: none; fill: none; stroke: rgb(99, 110, 250); stroke-opacity: 1; stroke-width: 2px; opacity: 1;"/></g><g class="points"/><g class="text"/></g></g></g><g class="overplot"/><path class="xlines-above crisp" d="M0,0" style="fill: none;"/><path class="ylines-above crisp" d="M0,0" style="fill: none;"/><g class="overlines-above"/><g class="xaxislayer-above"><g class="xtick"><text text-anchor="middle" x="0" y="433" transform="translate(85.09,0)" style="font-family: 'Open Sans', verdana, arial, sans-serif; font-size: 12px; fill: rgb(42, 63, 95); fill-opacity: 1; white-space: pre; opacity: 1;">Feb 2023</text></g><g class="xtick"><text text-anchor="middle" x="0" y="433" style="font-family: 'Open Sans', verdana, arial, sans-serif; font-size: 12px; fill: rgb(42, 63, 95); fill-opacity: 1; white-space: pre; opacity: 1;" transform="translate(156.42000000000002,0)">Mar 2023</text></g><g class="xtick"><text text-anchor="middle" x="0" y="433" style="font-family: 'Open Sans', verdana, arial, sans-serif; font-size: 12px; fill: rgb(42, 63, 95); fill-opacity: 1; white-space: pre; opacity: 1;" transform="translate(235.38,0)">Apr 2023</text></g><g class="xtick"><text text-anchor="middle" x="0" y="433" style="font-family: 'Open Sans', verdana, arial, sans-serif; font-size: 12px; fill: rgb(42, 63, 95); fill-opacity: 1; white-space: pre; opacity: 1;" transform="translate(311.78999999999996,0)">May 2023</text></g><g class="xtick"><text text-anchor="middle" x="0" y="433" style="font-family: 'Open Sans', verdana, arial, sans-serif; font-size: 12px; fill: rgb(42, 63, 95); fill-opacity: 1; white-space: pre; opacity: 1;" transform="translate(390.75,0)">Jun 2023</text></g><g class="xtick"><text text-anchor="middle" x="0" y="433" style="font-family: 'Open Sans', verdana, arial, sans-serif; font-size: 12px; fill: rgb(42, 63, 95); fill-opacity: 1; white-space: pre; opacity: 1;" transform="translate(467.17,0)">Jul 2023</text></g><g class="xtick"><text text-anchor="middle" x="0" y="433" style="font-family: 'Open Sans', verdana, arial, sans-serif; font-size: 12px; fill: rgb(42, 63, 95); fill-opacity: 1; white-space: pre; opacity: 1;" transform="translate(546.13,0)">Aug 2023</text></g></g><g class="yaxislayer-above"><g class="ytick"><text text-anchor="end" x="79" y="4.199999999999999" transform="translate(0,420)" style="font-family: 'Open Sans', verdana, arial, sans-serif; font-size: 12px; fill: rgb(42, 63, 95); fill-opacity: 1; white-space: pre; opacity: 1;">$0</text></g><g class="ytick"><text text-anchor="end" x="79" y="4.199999999999999" style="font-family: 'Open Sans', verdana, arial, sans-serif; font-size: 12px; fill: rgb(42, 63, 95); fill-opacity: 1; white-space: pre; opacity: 1;" transform="translate(0,371.03)">$1M</text></g><g class="ytick"><text text-anchor="end" x="79" y="4.199999999999999" style="font-family: 'Open Sans', verdana, arial, sans-serif; font-size: 12px; fill: rgb(42, 63, 95); fill-opacity: 1; white-space: pre; opacity: 1;" transform="translate(0,322.06)">$2M</text></g><g class="ytick"><text text-anchor="end" x="79" y="4.199999999999999" style="font-family: 'Open Sans', verdana, arial, sans-serif; font-size: 12px; fill: rgb(42, 63, 95); fill-opacity: 1; white-space: pre; opacity: 1;" transform="translate(0,273.09000000000003)">$3M</text></g><g class="ytick"><text text-anchor="end" x="79" y="4.199999999999999" style="font-family: 'Open Sans', verdana, arial, sans-serif; font-size: 12px; fill: rgb(42, 63, 95); fill-opacity: 1; white-space: pre; opacity: 1;" transform="translate(0,224.12)">$4M</text></g><g class="ytick"><text text-anchor="end" x="79" y="4.199999999999999" style="font-family: 'Open Sans', verdana, arial, sans-serif; font-size: 12px; fill: rgb(42, 63, 95); fill-opacity: 1; white-space: pre; opacity: 1;" transform="translate(0,175.15)">$5M</text></g><g class="ytick"><text text-anchor="end" x="79" y="4.199999999999999" style="font-family: 'Open Sans', verdana, arial, sans-serif; font-size: 12px; fill: rgb(42, 63, 95); fill-opacity: 1; white-space: pre; opacity: 1;" transform="translate(0,126.18)">$6M</text></g></g><g class="overaxes-above"/></g></g><g class="polarlayer"/><g class="smithlayer"/><g class="ternarylayer"/><g class="geolayer"/><g class="funnelarealayer"/><g class="pielayer"/><g class="iciclelayer"/><g class="treemaplayer"/><g class="sunburstlayer"/><g class="glimages"/><defs id="topdefs-dd7f9c"><g class="clips"/></defs><g class="layer-above"><g class="imagelayer"/><g class="shapelayer"/></g><g class="infolayer"><g class="g-gtitle"><text class="gtitle" x="35" y="50" text-anchor="start" dy="0em" style="font-family: 'Open Sans', verdana, arial, sans-serif; font-size: 17px; fill: rgb(42, 63, 95); opacity: 1; font-weight: normal; white-space: pre;"><tspan class="line" dy="0em" x="35" y="50">Overnight - USD+/DOLA: Velodrome</tspan><tspan class="line" dy="1.3em" x="35" y="50">​<tspan style="font-size:70%" dy="-0.6em">Cumulative Net Flows since Program Announcement, Until Program End + 30 Days</tspan><tspan dy="0.42em">​</tspan></tspan></text></g><g class="g-xtitle"><text class="xtitle" x="350" y="460.3" text-anchor="middle" style="font-family: 'Open Sans', verdana, arial, sans-serif; font-size: 14px; fill: rgb(42, 63, 95); opacity: 1; font-weight: normal; white-space: pre;">Day</text></g><g class="g-ytitle"><text class="ytitle" transform="rotate(-90,31.356250000000003,260)" x="31.356250000000003" y="260" text-anchor="middle" style="font-family: 'Open Sans', verdana, arial, sans-serif; font-size: 14px; fill: rgb(42, 63, 95); opacity: 1; font-weight: normal; white-space: pre;">Cumulative Net Flows (USD)</text></g></g></svg>