<svg class="main-svg" xmlns="http://www.w3.org/2000/svg" xmlns:xlink="http://www.w3.org/1999/xlink" width="700" height="500" style="" viewBox="0 0 700 500"><rect x="0" y="0" width="700" height="500" style="fill: rgb(255, 255, 255); fill-opacity: 1;"/><defs id="defs-3c6f9c"><g class="clips"><clipPath id="clip3c6f9cxyplot" class="plotclip"><rect width="540" height="320"/></clipPath><clipPath class="axesclip" id="clip3c6f9cx"><rect x="80" y="0" width="540" height="500"/></clipPath><clipPath class="axesclip" id="clip3c6f9cy"><rect x="0" y="100" width="700" height="320"/></clipPath><clipPath class="axesclip" id="clip3c6f9cxy"><rect x="80" y="100" width="540" height="320"/></clipPath></g><g class="gradients"/><g class="patterns"/></defs><g class="bglayer"><rect class="bg" x="80" y="100" width="540" height="320" style="fill: rgb(229, 236, 246); fill-opacity: 1; stroke-width: 0;"/></g><g class="layer-below"><g class="imagelayer"/><g class="shapelayer"/></g><g class="cartesianlayer"><g class="subplot xy"><g class="layer-subplot"><g class="shapelayer"/><g class="imagelayer"/></g><g class="minor-gridlayer"><g class="x"/><g class="y"/></g><g class="gridlayer"><g class="x"><path class="xgrid crisp" transform="translate(159.01999999999998,0)" d="M0,100v320" style="stroke: rgb(255, 255, 255); stroke-opacity: 1; stroke-width: 1px;"/><path class="xgrid crisp" transform="translate(251.05,0)" d="M0,100v320" style="stroke: rgb(255, 255, 255); stroke-opacity: 1; stroke-width: 1px;"/><path class="xgrid crisp" transform="translate(341.08,0)" d="M0,100v320" style="stroke: rgb(255, 255, 255); stroke-opacity: 1; stroke-width: 1px;"/><path class="xgrid crisp" transform="translate(432.1,0)" d="M0,100v320" style="stroke: rgb(255, 255, 255); stroke-opacity: 1; stroke-width: 1px;"/><path class="xgrid crisp" transform="translate(524.13,0)" d="M0,100v320" style="stroke: rgb(255, 255, 255); stroke-opacity: 1; stroke-width: 1px;"/><path class="xgrid crisp" transform="translate(616.16,0)" d="M0,100v320" style="stroke: rgb(255, 255, 255); stroke-opacity: 1; stroke-width: 1px;"/></g><g class="y"><path class="ygrid crisp" transform="translate(0,372.17)" d="M80,0h540" style="stroke: rgb(255, 255, 255); stroke-opacity: 1; stroke-width: 1px;"/><path class="ygrid crisp" transform="translate(0,321.03)" d="M80,0h540" style="stroke: rgb(255, 255, 255); stroke-opacity: 1; stroke-width: 1px;"/><path class="ygrid crisp" transform="translate(0,269.89)" d="M80,0h540" style="stroke: rgb(255, 255, 255); stroke-opacity: 1; stroke-width: 1px;"/><path class="ygrid crisp" transform="translate(0,218.76)" d="M80,0h540" style="stroke: rgb(255, 255, 255); stroke-opacity: 1; stroke-width: 1px;"/><path class="ygrid crisp" transform="translate(0,167.62)" d="M80,0h540" style="stroke: rgb(255, 255, 255); stroke-opacity: 1; stroke-width: 1px;"/></g></g><g class="zerolinelayer"><path class="yzl zl crisp" transform="translate(0,116.48)" d="M80,0h540" style="stroke: rgb(255, 255, 255); stroke-opacity: 1; stroke-width: 2px;"/></g><path class="xlines-below"/><path class="ylines-below"/><g class="overlines-below"/><g class="xaxislayer-below"/><g class="yaxislayer-below"/><g class="overaxes-below"/><g class="plot" transform="translate(80,100)" clip-path="url(#clip3c6f9cxyplot)"><g class="scatterlayer mlayer"><g class="trace scatter traceb9728b" style="stroke-miterlimit: 2;"><g class="fills"><g><path class="js-fill" d="M540,16.48L0,16.48L0,17.69L2,16.71L3,16.07L4,16L5,82.81L6,77.9L7,76.75L9,80.59L10,77.23L12,77.2L13,80.67L15,80.1L16,79.92L17,80.02L18.01,81.04L19.01,81.1L20.01,83.26L22.01,73.48L23.01,71.64L25.01,76.47L26.01,74.24L27.01,75.79L28.01,75.15L29.01,73.22L30.01,68.95L31.01,69.27L32.01,68.47L34.01,67.89L35.01,65.65L37.01,64.67L38.01,65.65L40.01,66.09L41.01,70.05L42.01,70.23L43.01,73.43L44.01,74.41L45.01,72.53L46.01,72.38L47.01,78.31L48.01,78.64L49.01,80.14L51.01,81.56L52.02,81.51L55.02,81.19L56.02,80.79L57.02,75.66L58.02,75.86L60.02,76.02L61.02,73.69L62.02,73.77L63.02,78.93L66.02,77.37L67.02,77.73L69.02,76.73L70.02,76.3L71.02,71.93L72.02,72.51L78.02,71.69L79.02,69.84L81.02,69.71L82.02,69.05L87.03,69.02L88.03,69.02L92.03,68.13L93.03,67.31L96.03,67.38L97.03,65.01L98.03,64.98L99.03,65.97L101.03,66.27L102.03,66.88L104.03,69.43L105.03,69.98L107.03,72.34L108.03,72.88L109.03,72.91L110.03,74.9L111.03,74.07L112.03,74.54L113.03,79.06L114.03,78.8L116.03,78.75L117.03,77.95L118.03,80.63L119.03,80.72L120.04,90.77L121.04,92.21L125.04,101.93L126.04,101.75L127.04,121.79L128.04,125.68L130.04,124.7L131.04,125.3L132.04,124.24L133.04,127.02L136.04,126.73L137.04,125.07L138.04,128.74L139.04,128.74L140.04,131.32L141.04,131.75L142.04,134.52L143.04,128.38L144.04,128.17L145.04,130.39L146.04,129.73L147.04,128.08L148.04,127.91L149.04,130.58L152.04,130.29L153.04,129.8L154.04,131.81L155.05,131.64L157.05,128.37L158.05,128.32L161.05,127.3L162.05,127.98L164.05,127.31L165.05,127.35L170.05,125.69L171.05,126.03L175.05,124.98L176.05,127.35L178.05,126.4L179.05,126.27L181.05,123.69L182.05,123.82L183.05,124.58L184.05,122.84L185.05,129.17L186.05,129.68L187.05,130.04L188.05,131.58L189.06,131.74L190.06,130.84L192.06,133.23L193.06,132.5L195.06,131.03L196.06,132.52L198.06,131.65L199.06,132.12L200.06,132.22L201.06,131.39L202.06,131.88L203.06,131.53L205.06,132.51L206.06,131.78L207.06,132.07L208.06,131.13L209.06,130.74L210.06,131.35L213.06,128.82L214.06,129.27L216.06,128.46L217.06,128.24L218.06,128.83L219.06,128.46L220.06,129.95L221.06,129.34L222.06,129.69L223.07,126.4L226.07,125.31L227.07,125.36L230.07,123.37L231.07,123.96L232.07,123.38L233.07,124.06L235.07,124.18L236.07,123.79L239.07,124L240.07,121.89L241.07,127.6L242.07,126.23L243.07,123.65L244.07,125.94L245.07,127.47L246.07,127.36L247.07,127.69L248.07,129.12L250.07,129.83L251.07,127.48L252.07,126.99L253.07,127.61L255.07,126.94L256.07,127.6L257.07,124.26L258.08,125.23L259.08,125.62L260.08,124.21L262.08,122.47L263.08,122.98L264.08,123.14L265.08,124.19L266.08,125.13L267.08,124.23L268.08,123.03L269.08,123.22L270.08,122.55L271.08,123.13L273.08,122.64L274.08,122.82L276.08,121.7L277.08,122.22L278.08,119.44L279.08,120.76L280.08,120.14L281.08,120.88L283.08,119.21L284.08,119.7L285.08,121.3L286.08,121.41L288.08,121.35L289.08,120.45L291.08,119.72L292.09,121L293.09,120.84L294.09,119.75L297.09,113.84L298.09,114.36L299.09,100.22L300.09,101L302.09,99.1L303.09,99.91L304.09,97.25L305.09,98.15L307.09,94.16L308.09,95.85L309.09,91.29L310.09,92.39L312.09,93.75L313.09,93.29L314.09,95.75L315.09,96L316.09,95.14L317.09,91.96L319.09,94.84L320.09,94.35L321.09,91.88L322.09,92.92L323.09,91.14L324.09,91.99L325.09,91.55L326.1,92.27L327.1,93.42L328.1,101.61L330.1,91.06L331.1,90.73L334.1,89.78L335.1,93.77L336.1,92.37L337.1,95.47L338.1,97.13L339.1,96.56L340.1,96.84L341.1,98.14L342.1,98.56L343.1,109.29L345.1,108.13L346.1,105.94L347.1,107.07L348.1,105.17L349.1,104.54L350.1,109.73L351.1,110.79L352.1,110.31L353.1,108.73L354.1,110.02L355.1,111.38L356.1,109.66L358.1,110.43L359.1,110.22L364.11,109.38L365.11,111.36L367.11,111.57L368.11,110.79L370.11,109.57L371.11,110.48L372.11,111.34L373.11,110.99L374.11,110.04L375.11,112.14L378.11,116.48L379.11,115.12L381.11,117.77L382.11,117.62L383.11,173.1L384.11,174.33L386.11,171.82L387.11,172.11L388.11,171.07L389.11,173.22L392.11,170.87L393.11,172.54L396.12,172L397.12,172.11L398.12,170.83L399.12,174.96L402.12,171.71L403.12,172.4L405.12,174.84L406.12,173.66L407.12,174.73L408.12,173.57L409.12,173.05L410.12,173.49L411.12,172.79L412.12,173.38L414.12,174.12L415.12,179.4L418.12,177.69L419.12,177.55L421.12,170.81L422.12,172.72L423.12,172.4L424.12,167.55L426.12,167.95L427.12,166.84L428.12,166.09L429.13,164.37L430.13,162.78L431.13,163.13L432.13,163.21L433.13,164.73L436.13,167.61L437.13,167.84L438.13,167.68L439.13,166.52L440.13,167.87L441.13,167.1L442.13,167.21L443.13,164.75L446.13,161.38L447.13,163.58L449.13,165.51L450.13,165.31L451.13,165.94L452.13,165.56L454.13,171.48L455.13,169.75L456.13,171.48L457.13,171.4L459.13,172.34L460.13,171.09L462.13,169.12L463.14,169.75L464.14,170.21L465.14,166.22L466.14,166.12L467.14,167.74L468.14,166.98L469.14,167.62L470.14,172.4L471.14,171.45L473.14,171.61L474.14,179.29L475.14,171.01L476.14,179.28L479.14,179.88L480.14,181.53L481.14,191.31L482.14,192.39L485.14,200.72L486.14,199.19L487.14,198.24L488.14,199.07L490.14,200.67L491.14,199.78L492.14,203.13L493.14,203.25L496.14,203.55L497.15,204.53L498.15,208.23L499.15,207.38L503.15,211.27L504.15,211.68L506.15,211L507.15,212.63L509.15,213.19L510.15,212.76L511.15,212.64L512.15,213.75L514.15,214.88L515.15,214.7L520.15,215.46L521.15,215.07L522.15,216.21L523.15,216.16L528.15,216.19L529.15,215.67L530.15,215.4L531.15,217.35L532.16,216.08L533.16,216.15L534.16,216.26L535.16,217.75L537.16,217.33L538.16,215.21L539,216.13L539.16,304L540,304" style="fill: rgb(99, 110, 250); fill-opacity: 0.5; stroke-width: 0;"/></g></g><g class="errorbars"/><g class="lines"><path class="js-line" d="M0,17.69L2,16.71L3,16.07L4,16L5,82.81L6,77.9L7,76.75L9,80.59L10,77.23L12,77.2L13,80.67L15,80.1L16,79.92L17,80.02L18.01,81.04L19.01,81.1L20.01,83.26L22.01,73.48L23.01,71.64L25.01,76.47L26.01,74.24L27.01,75.79L28.01,75.15L29.01,73.22L30.01,68.95L31.01,69.27L32.01,68.47L34.01,67.89L35.01,65.65L37.01,64.67L38.01,65.65L40.01,66.09L41.01,70.05L42.01,70.23L43.01,73.43L44.01,74.41L45.01,72.53L46.01,72.38L47.01,78.31L48.01,78.64L49.01,80.14L51.01,81.56L52.02,81.51L55.02,81.19L56.02,80.79L57.02,75.66L58.02,75.86L60.02,76.02L61.02,73.69L62.02,73.77L63.02,78.93L66.02,77.37L67.02,77.73L69.02,76.73L70.02,76.3L71.02,71.93L72.02,72.51L78.02,71.69L79.02,69.84L81.02,69.71L82.02,69.05L87.03,69.02L88.03,69.02L92.03,68.13L93.03,67.31L96.03,67.38L97.03,65.01L98.03,64.98L99.03,65.97L101.03,66.27L102.03,66.88L104.03,69.43L105.03,69.98L107.03,72.34L108.03,72.88L109.03,72.91L110.03,74.9L111.03,74.07L112.03,74.54L113.03,79.06L114.03,78.8L116.03,78.75L117.03,77.95L118.03,80.63L119.03,80.72L120.04,90.77L121.04,92.21L125.04,101.93L126.04,101.75L127.04,121.79L128.04,125.68L130.04,124.7L131.04,125.3L132.04,124.24L133.04,127.02L136.04,126.73L137.04,125.07L138.04,128.74L139.04,128.74L140.04,131.32L141.04,131.75L142.04,134.52L143.04,128.38L144.04,128.17L145.04,130.39L146.04,129.73L147.04,128.08L148.04,127.91L149.04,130.58L152.04,130.29L153.04,129.8L154.04,131.81L155.05,131.64L157.05,128.37L158.05,128.32L161.05,127.3L162.05,127.98L164.05,127.31L165.05,127.35L170.05,125.69L171.05,126.03L175.05,124.98L176.05,127.35L178.05,126.4L179.05,126.27L181.05,123.69L182.05,123.82L183.05,124.58L184.05,122.84L185.05,129.17L186.05,129.68L187.05,130.04L188.05,131.58L189.06,131.74L190.06,130.84L192.06,133.23L193.06,132.5L195.06,131.03L196.06,132.52L198.06,131.65L199.06,132.12L200.06,132.22L201.06,131.39L202.06,131.88L203.06,131.53L205.06,132.51L206.06,131.78L207.06,132.07L208.06,131.13L209.06,130.74L210.06,131.35L213.06,128.82L214.06,129.27L216.06,128.46L217.06,128.24L218.06,128.83L219.06,128.46L220.06,129.95L221.06,129.34L222.06,129.69L223.07,126.4L226.07,125.31L227.07,125.36L230.07,123.37L231.07,123.96L232.07,123.38L233.07,124.06L235.07,124.18L236.07,123.79L239.07,124L240.07,121.89L241.07,127.6L242.07,126.23L243.07,123.65L244.07,125.94L245.07,127.47L246.07,127.36L247.07,127.69L248.07,129.12L250.07,129.83L251.07,127.48L252.07,126.99L253.07,127.61L255.07,126.94L256.07,127.6L257.07,124.26L258.08,125.23L259.08,125.62L260.08,124.21L262.08,122.47L263.08,122.98L264.08,123.14L265.08,124.19L266.08,125.13L267.08,124.23L268.08,123.03L269.08,123.22L270.08,122.55L271.08,123.13L273.08,122.64L274.08,122.82L276.08,121.7L277.08,122.22L278.08,119.44L279.08,120.76L280.08,120.14L281.08,120.88L283.08,119.21L284.08,119.7L285.08,121.3L286.08,121.41L288.08,121.35L289.08,120.45L291.08,119.72L292.09,121L293.09,120.84L294.09,119.75L297.09,113.84L298.09,114.36L299.09,100.22L300.09,101L302.09,99.1L303.09,99.91L304.09,97.25L305.09,98.15L307.09,94.16L308.09,95.85L309.09,91.29L310.09,92.39L312.09,93.75L313.09,93.29L314.09,95.75L315.09,96L316.09,95.14L317.09,91.96L319.09,94.84L320.09,94.35L321.09,91.88L322.09,92.92L323.09,91.14L324.09,91.99L325.09,91.55L326.1,92.27L327.1,93.42L328.1,101.61L330.1,91.06L331.1,90.73L334.1,89.78L335.1,93.77L336.1,92.37L337.1,95.47L338.1,97.13L339.1,96.56L340.1,96.84L341.1,98.14L342.1,98.56L343.1,109.29L345.1,108.13L346.1,105.94L347.1,107.07L348.1,105.17L349.1,104.54L350.1,109.73L351.1,110.79L352.1,110.31L353.1,108.73L354.1,110.02L355.1,111.38L356.1,109.66L358.1,110.43L359.1,110.22L364.11,109.38L365.11,111.36L367.11,111.57L368.11,110.79L370.11,109.57L371.11,110.48L372.11,111.34L373.11,110.99L374.11,110.04L375.11,112.14L378.11,116.48L379.11,115.12L381.11,117.77L382.11,117.62L383.11,173.1L384.11,174.33L386.11,171.82L387.11,172.11L388.11,171.07L389.11,173.22L392.11,170.87L393.11,172.54L396.12,172L397.12,172.11L398.12,170.83L399.12,174.96L402.12,171.71L403.12,172.4L405.12,174.84L406.12,173.66L407.12,174.73L408.12,173.57L409.12,173.05L410.12,173.49L411.12,172.79L412.12,173.38L414.12,174.12L415.12,179.4L418.12,177.69L419.12,177.55L421.12,170.81L422.12,172.72L423.12,172.4L424.12,167.55L426.12,167.95L427.12,166.84L428.12,166.09L429.13,164.37L430.13,162.78L431.13,163.13L432.13,163.21L433.13,164.73L436.13,167.61L437.13,167.84L438.13,167.68L439.13,166.52L440.13,167.87L441.13,167.1L442.13,167.21L443.13,164.75L446.13,161.38L447.13,163.58L449.13,165.51L450.13,165.31L451.13,165.94L452.13,165.56L454.13,171.48L455.13,169.75L456.13,171.48L457.13,171.4L459.13,172.34L460.13,171.09L462.13,169.12L463.14,169.75L464.14,170.21L465.14,166.22L466.14,166.12L467.14,167.74L468.14,166.98L469.14,167.62L470.14,172.4L471.14,171.45L473.14,171.61L474.14,179.29L475.14,171.01L476.14,179.28L479.14,179.88L480.14,181.53L481.14,191.31L482.14,192.39L485.14,200.72L486.14,199.19L487.14,198.24L488.14,199.07L490.14,200.67L491.14,199.78L492.14,203.13L493.14,203.25L496.14,203.55L497.15,204.53L498.15,208.23L499.15,207.38L503.15,211.27L504.15,211.68L506.15,211L507.15,212.63L509.15,213.19L510.15,212.76L511.15,212.64L512.15,213.75L514.15,214.88L515.15,214.7L520.15,215.46L521.15,215.07L522.15,216.21L523.15,216.16L528.15,216.19L529.15,215.67L530.15,215.4L531.15,217.35L532.16,216.08L533.16,216.15L534.16,216.26L535.16,217.75L537.16,217.33L538.16,215.21L539,216.13L539.16,304L540,304" style="vector-effect: none; fill: none; stroke: rgb(99, 110, 250); stroke-opacity: 1; stroke-width: 2px; opacity: 1;"/></g><g class="points"/><g class="text"/></g></g></g><g class="overplot"/><path class="xlines-above crisp" d="M0,0" style="fill: none;"/><path class="ylines-above crisp" d="M0,0" style="fill: none;"/><g class="overlines-above"/><g class="xaxislayer-above"><g class="xtick"><text text-anchor="middle" x="0" y="433" transform="translate(159.01999999999998,0)" style="font-family: 'Open Sans', verdana, arial, sans-serif; font-size: 12px; fill: rgb(42, 63, 95); fill-opacity: 1; white-space: pre; opacity: 1;">Oct 2022</text></g><g class="xtick"><text text-anchor="middle" x="0" y="433" style="font-family: 'Open Sans', verdana, arial, sans-serif; font-size: 12px; fill: rgb(42, 63, 95); fill-opacity: 1; white-space: pre; opacity: 1;" transform="translate(251.05,0)">Jan 2023</text></g><g class="xtick"><text text-anchor="middle" x="0" y="433" style="font-family: 'Open Sans', verdana, arial, sans-serif; font-size: 12px; fill: rgb(42, 63, 95); fill-opacity: 1; white-space: pre; opacity: 1;" transform="translate(341.08,0)">Apr 2023</text></g><g class="xtick"><text text-anchor="middle" x="0" y="433" style="font-family: 'Open Sans', verdana, arial, sans-serif; font-size: 12px; fill: rgb(42, 63, 95); fill-opacity: 1; white-space: pre; opacity: 1;" transform="translate(432.1,0)">Jul 2023</text></g><g class="xtick"><text text-anchor="middle" x="0" y="433" style="font-family: 'Open Sans', verdana, arial, sans-serif; font-size: 12px; fill: rgb(42, 63, 95); fill-opacity: 1; white-space: pre; opacity: 1;" transform="translate(524.13,0)">Oct 2023</text></g><g class="xtick"><text text-anchor="middle" x="0" y="433" style="font-family: 'Open Sans', verdana, arial, sans-serif; font-size: 12px; fill: rgb(42, 63, 95); fill-opacity: 1; white-space: pre; opacity: 1;" transform="translate(616.16,0)">Jan 2024</text></g></g><g class="yaxislayer-above"><g class="ytick"><text text-anchor="end" x="79" y="4.199999999999999" transform="translate(0,372.17)" style="font-family: 'Open Sans', verdana, arial, sans-serif; font-size: 12px; fill: rgb(42, 63, 95); fill-opacity: 1; white-space: pre; opacity: 1;">$−25M</text></g><g class="ytick"><text text-anchor="end" x="79" y="4.199999999999999" style="font-family: 'Open Sans', verdana, arial, sans-serif; font-size: 12px; fill: rgb(42, 63, 95); fill-opacity: 1; white-space: pre; opacity: 1;" transform="translate(0,321.03)">$−20M</text></g><g class="ytick"><text text-anchor="end" x="79" y="4.199999999999999" style="font-family: 'Open Sans', verdana, arial, sans-serif; font-size: 12px; fill: rgb(42, 63, 95); fill-opacity: 1; white-space: pre; opacity: 1;" transform="translate(0,269.89)">$−15M</text></g><g class="ytick"><text text-anchor="end" x="79" y="4.199999999999999" style="font-family: 'Open Sans', verdana, arial, sans-serif; font-size: 12px; fill: rgb(42, 63, 95); fill-opacity: 1; white-space: pre; opacity: 1;" transform="translate(0,218.76)">$−10M</text></g><g class="ytick"><text text-anchor="end" x="79" y="4.199999999999999" style="font-family: 'Open Sans', verdana, arial, sans-serif; font-size: 12px; fill: rgb(42, 63, 95); fill-opacity: 1; white-space: pre; opacity: 1;" transform="translate(0,167.62)">$−5M</text></g><g class="ytick"><text text-anchor="end" x="79" y="4.199999999999999" style="font-family: 'Open Sans', verdana, arial, sans-serif; font-size: 12px; fill: rgb(42, 63, 95); fill-opacity: 1; white-space: pre; opacity: 1;" transform="translate(0,116.48)">$0</text></g></g><g class="overaxes-above"/></g></g><g class="polarlayer"/><g class="smithlayer"/><g class="ternarylayer"/><g class="geolayer"/><g class="funnelarealayer"/><g class="pielayer"/><g class="iciclelayer"/><g class="treemaplayer"/><g class="sunburstlayer"/><g class="glimages"/><defs id="topdefs-3c6f9c"><g class="clips"/></defs><g class="layer-above"><g class="imagelayer"/><g class="shapelayer"/></g><g class="infolayer"><g class="g-gtitle"><text class="gtitle" x="35" y="50" text-anchor="start" dy="0em" style="font-family: 'Open Sans', verdana, arial, sans-serif; font-size: 17px; fill: rgb(42, 63, 95); opacity: 1; font-weight: normal; white-space: pre;"><tspan class="line" dy="0em" x="35" y="50">Perpetual Protocol</tspan><tspan class="line" dy="1.3em" x="35" y="50">​<tspan style="font-size:70%" dy="-0.6em">Cumulative Net Flows since Program Announcement, Until Program End + 30 Days</tspan><tspan dy="0.42em">​</tspan></tspan></text></g><g class="g-xtitle"><text class="xtitle" x="350" y="460.3" text-anchor="middle" style="font-family: 'Open Sans', verdana, arial, sans-serif; font-size: 14px; fill: rgb(42, 63, 95); opacity: 1; font-weight: normal; white-space: pre;">Day</text></g><g class="g-ytitle"><text class="ytitle" transform="rotate(-90,17.668750000000003,260)" x="17.668750000000003" y="260" text-anchor="middle" style="font-family: 'Open Sans', verdana, arial, sans-serif; font-size: 14px; fill: rgb(42, 63, 95); opacity: 1; font-weight: normal; white-space: pre;">Cumulative Net Flows (USD)</text></g></g></svg>