<svg class="main-svg" xmlns="http://www.w3.org/2000/svg" xmlns:xlink="http://www.w3.org/1999/xlink" width="700" height="500" style="" viewBox="0 0 700 500"><rect x="0" y="0" width="700" height="500" style="fill: rgb(255, 255, 255); fill-opacity: 1;"/><defs id="defs-a268b5"><g class="clips"><clipPath id="clipa268b5xyplot" class="plotclip"><rect width="540" height="320"/></clipPath><clipPath class="axesclip" id="clipa268b5x"><rect x="80" y="0" width="540" height="500"/></clipPath><clipPath class="axesclip" id="clipa268b5y"><rect x="0" y="100" width="700" height="320"/></clipPath><clipPath class="axesclip" id="clipa268b5xy"><rect x="80" y="100" width="540" height="320"/></clipPath></g><g class="gradients"/><g class="patterns"/></defs><g class="bglayer"><rect class="bg" x="80" y="100" width="540" height="320" style="fill: rgb(229, 236, 246); fill-opacity: 1; stroke-width: 0;"/></g><g class="layer-below"><g class="imagelayer"/><g class="shapelayer"/></g><g class="cartesianlayer"><g class="subplot xy"><g class="layer-subplot"><g class="shapelayer"/><g class="imagelayer"/></g><g class="minor-gridlayer"><g class="x"/><g class="y"/></g><g class="gridlayer"><g class="x"><path class="xgrid crisp" transform="translate(94.34,0)" d="M0,100v320" style="stroke: rgb(255, 255, 255); stroke-opacity: 1; stroke-width: 1px;"/><path class="xgrid crisp" transform="translate(166.01999999999998,0)" d="M0,100v320" style="stroke: rgb(255, 255, 255); stroke-opacity: 1; stroke-width: 1px;"/><path class="xgrid crisp" transform="translate(240.09,0)" d="M0,100v320" style="stroke: rgb(255, 255, 255); stroke-opacity: 1; stroke-width: 1px;"/><path class="xgrid crisp" transform="translate(311.77,0)" d="M0,100v320" style="stroke: rgb(255, 255, 255); stroke-opacity: 1; stroke-width: 1px;"/><path class="xgrid crisp" transform="translate(385.84,0)" d="M0,100v320" style="stroke: rgb(255, 255, 255); stroke-opacity: 1; stroke-width: 1px;"/><path class="xgrid crisp" transform="translate(459.91,0)" d="M0,100v320" style="stroke: rgb(255, 255, 255); stroke-opacity: 1; stroke-width: 1px;"/><path class="xgrid crisp" transform="translate(526.81,0)" d="M0,100v320" style="stroke: rgb(255, 255, 255); stroke-opacity: 1; stroke-width: 1px;"/><path class="xgrid crisp" transform="translate(600.88,0)" d="M0,100v320" style="stroke: rgb(255, 255, 255); stroke-opacity: 1; stroke-width: 1px;"/></g><g class="y"><path class="ygrid crisp" transform="translate(0,386.8)" d="M80,0h540" style="stroke: rgb(255, 255, 255); stroke-opacity: 1; stroke-width: 1px;"/><path class="ygrid crisp" transform="translate(0,295.89)" d="M80,0h540" style="stroke: rgb(255, 255, 255); stroke-opacity: 1; stroke-width: 1px;"/><path class="ygrid crisp" transform="translate(0,250.43)" d="M80,0h540" style="stroke: rgb(255, 255, 255); stroke-opacity: 1; stroke-width: 1px;"/><path class="ygrid crisp" transform="translate(0,204.98000000000002)" d="M80,0h540" style="stroke: rgb(255, 255, 255); stroke-opacity: 1; stroke-width: 1px;"/><path class="ygrid crisp" transform="translate(0,159.52)" d="M80,0h540" style="stroke: rgb(255, 255, 255); stroke-opacity: 1; stroke-width: 1px;"/><path class="ygrid crisp" transform="translate(0,114.06)" d="M80,0h540" style="stroke: rgb(255, 255, 255); stroke-opacity: 1; stroke-width: 1px;"/></g></g><g class="zerolinelayer"><path class="yzl zl crisp" transform="translate(0,341.35)" d="M80,0h540" style="stroke: rgb(255, 255, 255); stroke-opacity: 1; stroke-width: 2px;"/></g><path class="xlines-below"/><path class="ylines-below"/><g class="overlines-below"/><g class="xaxislayer-below"/><g class="yaxislayer-below"/><g class="overaxes-below"/><g class="plot" transform="translate(80,100)" clip-path="url(#clipa268b5xyplot)"><g class="scatterlayer mlayer"><g class="trace scatter tracea729b9" style="stroke-miterlimit: 2;"><g class="fills"><g><path class="js-fill" d="M540,241.35L0,241.35L0,276.92L2.39,278.1L4.78,278.11L7.17,292.49L9.56,292.25L11.95,304L14.34,219.85L19.12,206.66L21.5,188.47L23.89,185.54L26.28,178.88L28.67,174.04L31.06,174.56L33.45,169.99L35.84,176.01L40.62,163.3L43.01,157.25L45.4,161.03L47.79,150.3L50.18,137.36L52.57,136.92L54.96,132.68L57.35,133.06L62.12,131.68L64.51,109.31L66.9,93.89L69.29,94.13L71.68,99.43L74.07,98.98L76.46,102.16L78.85,93.97L81.24,103.08L83.63,121.68L88.41,133.68L90.8,147L93.19,146.86L95.58,127.79L100.35,136.85L102.74,92.99L105.13,98.32L107.52,92.82L109.91,96.83L112.3,88.95L114.69,95.56L117.08,109.28L121.86,108.22L124.25,110.14L126.64,97.86L129.03,94.68L131.42,78.27L133.81,52.1L136.19,65.86L138.58,73.41L143.36,81.57L145.75,70.81L148.14,73.15L150.53,72.7L152.92,71.25L155.31,71.51L157.7,61.71L160.09,62.09L164.87,62.88L167.26,64.38L169.65,61.17L172.04,61.22L174.42,110.25L176.81,132.86L181.59,149.66L183.98,148.72L188.76,151.84L191.15,153.1L193.54,158.47L195.93,158.35L198.32,157.96L200.71,144.87L203.1,140.4L205.49,139.3L207.88,142.01L210.27,137.77L212.65,118.44L215.04,122.72L217.43,114.22L219.82,116.69L222.21,119.51L224.6,119.71L229.38,128.05L231.77,118.74L234.16,83.36L236.55,79.7L238.94,78.94L241.33,78.97L243.72,82.68L246.11,76.84L248.5,69.75L250.88,74.66L253.27,74.6L255.66,77.27L258.05,78.32L260.44,95.67L262.83,102.45L265.22,102.43L267.61,102.82L270,98.86L272.39,102.45L274.78,102.59L277.17,105.95L279.56,102.99L286.73,98.25L289.12,98.45L291.5,96.91L293.89,85.22L298.67,87.83L301.06,88.15L303.45,86.58L305.84,91.67L308.23,94.87L310.62,95.4L313.01,96.36L315.4,98.53L317.79,97.32L320.18,81.85L322.57,81.41L324.96,74.88L327.35,82.23L329.73,82.22L332.12,102.53L334.51,105.04L339.29,108.46L341.68,108.81L344.07,108.45L346.46,101.59L348.85,98.55L351.24,99.59L353.63,97.4L356.02,97.37L358.41,123.83L360.8,119.72L363.19,111.5L365.58,130.83L367.96,130.82L370.35,125.39L372.74,125.83L375.13,119.56L377.52,116.42L379.91,120.9L382.3,118.28L384.69,124.87L387.08,128.61L389.47,128.91L391.86,128.22L394.25,125.77L396.64,125.68L399.03,130.75L401.42,136.36L403.81,150.7L408.58,151.48L410.97,152.06L413.36,173.19L415.75,140.97L418.14,123.44L420.53,122.49L422.92,121.97L425.31,118.31L427.7,116.69L430.09,90.35L432.48,28.69L434.87,16L437.26,18.81L439.65,18.48L442.04,19.92L444.42,20.11L446.81,30.24L449.2,29.93L451.59,59.35L453.98,63.08L456.37,59.63L458.76,61.85L461.15,52.5L463.54,49.57L465.93,60.76L468.32,119.66L470.71,208.21L473.1,206.34L475.49,201.07L477.88,186.47L480.27,187.07L482.65,141.73L485.04,140.7L487.43,142.75L489.82,146.05L492.21,144.28L494.6,146.77L496.99,144.74L499.38,130.24L501.77,166.95L508.94,184.04L511.33,186.06L513.72,186.99L516.11,203.08L518.5,203.56L520.88,195.02L523.27,194.11L525.66,194.78L528.05,150.86L530.44,151.01L532.83,156.86L535.22,143.3L537.61,141.86L540,141.87" style="fill: rgb(99, 110, 250); fill-opacity: 0.5; stroke-width: 0;"/></g></g><g class="errorbars"/><g class="lines"><path class="js-line" d="M0,276.92L2.39,278.1L4.78,278.11L7.17,292.49L9.56,292.25L11.95,304L14.34,219.85L19.12,206.66L21.5,188.47L23.89,185.54L26.28,178.88L28.67,174.04L31.06,174.56L33.45,169.99L35.84,176.01L40.62,163.3L43.01,157.25L45.4,161.03L47.79,150.3L50.18,137.36L52.57,136.92L54.96,132.68L57.35,133.06L62.12,131.68L64.51,109.31L66.9,93.89L69.29,94.13L71.68,99.43L74.07,98.98L76.46,102.16L78.85,93.97L81.24,103.08L83.63,121.68L88.41,133.68L90.8,147L93.19,146.86L95.58,127.79L100.35,136.85L102.74,92.99L105.13,98.32L107.52,92.82L109.91,96.83L112.3,88.95L114.69,95.56L117.08,109.28L121.86,108.22L124.25,110.14L126.64,97.86L129.03,94.68L131.42,78.27L133.81,52.1L136.19,65.86L138.58,73.41L143.36,81.57L145.75,70.81L148.14,73.15L150.53,72.7L152.92,71.25L155.31,71.51L157.7,61.71L160.09,62.09L164.87,62.88L167.26,64.38L169.65,61.17L172.04,61.22L174.42,110.25L176.81,132.86L181.59,149.66L183.98,148.72L188.76,151.84L191.15,153.1L193.54,158.47L195.93,158.35L198.32,157.96L200.71,144.87L203.1,140.4L205.49,139.3L207.88,142.01L210.27,137.77L212.65,118.44L215.04,122.72L217.43,114.22L219.82,116.69L222.21,119.51L224.6,119.71L229.38,128.05L231.77,118.74L234.16,83.36L236.55,79.7L238.94,78.94L241.33,78.97L243.72,82.68L246.11,76.84L248.5,69.75L250.88,74.66L253.27,74.6L255.66,77.27L258.05,78.32L260.44,95.67L262.83,102.45L265.22,102.43L267.61,102.82L270,98.86L272.39,102.45L274.78,102.59L277.17,105.95L279.56,102.99L286.73,98.25L289.12,98.45L291.5,96.91L293.89,85.22L298.67,87.83L301.06,88.15L303.45,86.58L305.84,91.67L308.23,94.87L310.62,95.4L313.01,96.36L315.4,98.53L317.79,97.32L320.18,81.85L322.57,81.41L324.96,74.88L327.35,82.23L329.73,82.22L332.12,102.53L334.51,105.04L339.29,108.46L341.68,108.81L344.07,108.45L346.46,101.59L348.85,98.55L351.24,99.59L353.63,97.4L356.02,97.37L358.41,123.83L360.8,119.72L363.19,111.5L365.58,130.83L367.96,130.82L370.35,125.39L372.74,125.83L375.13,119.56L377.52,116.42L379.91,120.9L382.3,118.28L384.69,124.87L387.08,128.61L389.47,128.91L391.86,128.22L394.25,125.77L396.64,125.68L399.03,130.75L401.42,136.36L403.81,150.7L408.58,151.48L410.97,152.06L413.36,173.19L415.75,140.97L418.14,123.44L420.53,122.49L422.92,121.97L425.31,118.31L427.7,116.69L430.09,90.35L432.48,28.69L434.87,16L437.26,18.81L439.65,18.48L442.04,19.92L444.42,20.11L446.81,30.24L449.2,29.93L451.59,59.35L453.98,63.08L456.37,59.63L458.76,61.85L461.15,52.5L463.54,49.57L465.93,60.76L468.32,119.66L470.71,208.21L473.1,206.34L475.49,201.07L477.88,186.47L480.27,187.07L482.65,141.73L485.04,140.7L487.43,142.75L489.82,146.05L492.21,144.28L494.6,146.77L496.99,144.74L499.38,130.24L501.77,166.95L508.94,184.04L511.33,186.06L513.72,186.99L516.11,203.08L518.5,203.56L520.88,195.02L523.27,194.11L525.66,194.78L528.05,150.86L530.44,151.01L532.83,156.86L535.22,143.3L537.61,141.86L540,141.87" style="vector-effect: none; fill: none; stroke: rgb(99, 110, 250); stroke-opacity: 1; stroke-width: 2px; opacity: 1;"/></g><g class="points"/><g class="text"/></g></g></g><g class="overplot"/><path class="xlines-above crisp" d="M0,0" style="fill: none;"/><path class="ylines-above crisp" d="M0,0" style="fill: none;"/><g class="overlines-above"/><g class="xaxislayer-above"><g class="xtick"><text text-anchor="middle" x="0" y="433" transform="translate(94.34,0)" style="font-family: 'Open Sans', verdana, arial, sans-serif; font-size: 12px; fill: rgb(42, 63, 95); fill-opacity: 1; white-space: pre; opacity: 1;">Sep 2022</text></g><g class="xtick"><text text-anchor="middle" x="0" y="433" style="font-family: 'Open Sans', verdana, arial, sans-serif; font-size: 12px; fill: rgb(42, 63, 95); fill-opacity: 1; white-space: pre; opacity: 1;" transform="translate(166.01999999999998,0)">Oct 2022</text></g><g class="xtick"><text text-anchor="middle" x="0" y="433" style="font-family: 'Open Sans', verdana, arial, sans-serif; font-size: 12px; fill: rgb(42, 63, 95); fill-opacity: 1; white-space: pre; opacity: 1;" transform="translate(240.09,0)">Nov 2022</text></g><g class="xtick"><text text-anchor="middle" x="0" y="433" style="font-family: 'Open Sans', verdana, arial, sans-serif; font-size: 12px; fill: rgb(42, 63, 95); fill-opacity: 1; white-space: pre; opacity: 1;" transform="translate(311.77,0)">Dec 2022</text></g><g class="xtick"><text text-anchor="middle" x="0" y="433" style="font-family: 'Open Sans', verdana, arial, sans-serif; font-size: 12px; fill: rgb(42, 63, 95); fill-opacity: 1; white-space: pre; opacity: 1;" transform="translate(385.84,0)">Jan 2023</text></g><g class="xtick"><text text-anchor="middle" x="0" y="433" style="font-family: 'Open Sans', verdana, arial, sans-serif; font-size: 12px; fill: rgb(42, 63, 95); fill-opacity: 1; white-space: pre; opacity: 1;" transform="translate(459.91,0)">Feb 2023</text></g><g class="xtick"><text text-anchor="middle" x="0" y="433" style="font-family: 'Open Sans', verdana, arial, sans-serif; font-size: 12px; fill: rgb(42, 63, 95); fill-opacity: 1; white-space: pre; opacity: 1;" transform="translate(526.81,0)">Mar 2023</text></g><g class="xtick"><text text-anchor="middle" x="0" y="433" style="font-family: 'Open Sans', verdana, arial, sans-serif; font-size: 12px; fill: rgb(42, 63, 95); fill-opacity: 1; white-space: pre; opacity: 1;" transform="translate(600.88,0)">Apr 2023</text></g></g><g class="yaxislayer-above"><g class="ytick"><text text-anchor="end" x="79" y="4.199999999999999" transform="translate(0,386.8)" style="font-family: 'Open Sans', verdana, arial, sans-serif; font-size: 12px; fill: rgb(42, 63, 95); fill-opacity: 1; white-space: pre; opacity: 1;">$−1M</text></g><g class="ytick"><text text-anchor="end" x="79" y="4.199999999999999" style="font-family: 'Open Sans', verdana, arial, sans-serif; font-size: 12px; fill: rgb(42, 63, 95); fill-opacity: 1; white-space: pre; opacity: 1;" transform="translate(0,341.35)">$0</text></g><g class="ytick"><text text-anchor="end" x="79" y="4.199999999999999" style="font-family: 'Open Sans', verdana, arial, sans-serif; font-size: 12px; fill: rgb(42, 63, 95); fill-opacity: 1; white-space: pre; opacity: 1;" transform="translate(0,295.89)">$1M</text></g><g class="ytick"><text text-anchor="end" x="79" y="4.199999999999999" style="font-family: 'Open Sans', verdana, arial, sans-serif; font-size: 12px; fill: rgb(42, 63, 95); fill-opacity: 1; white-space: pre; opacity: 1;" transform="translate(0,250.43)">$2M</text></g><g class="ytick"><text text-anchor="end" x="79" y="4.199999999999999" style="font-family: 'Open Sans', verdana, arial, sans-serif; font-size: 12px; fill: rgb(42, 63, 95); fill-opacity: 1; white-space: pre; opacity: 1;" transform="translate(0,204.98000000000002)">$3M</text></g><g class="ytick"><text text-anchor="end" x="79" y="4.199999999999999" style="font-family: 'Open Sans', verdana, arial, sans-serif; font-size: 12px; fill: rgb(42, 63, 95); fill-opacity: 1; white-space: pre; opacity: 1;" transform="translate(0,159.52)">$4M</text></g><g class="ytick"><text text-anchor="end" x="79" y="4.199999999999999" style="font-family: 'Open Sans', verdana, arial, sans-serif; font-size: 12px; fill: rgb(42, 63, 95); fill-opacity: 1; white-space: pre; opacity: 1;" transform="translate(0,114.06)">$5M</text></g></g><g class="overaxes-above"/></g></g><g class="polarlayer"/><g class="smithlayer"/><g class="ternarylayer"/><g class="geolayer"/><g class="funnelarealayer"/><g class="pielayer"/><g class="iciclelayer"/><g class="treemaplayer"/><g class="sunburstlayer"/><g class="glimages"/><defs id="topdefs-a268b5"><g class="clips"/></defs><g class="layer-above"><g class="imagelayer"/><g class="shapelayer"/></g><g class="infolayer"><g class="g-gtitle"><text class="gtitle" x="35" y="50" text-anchor="start" dy="0em" style="font-family: 'Open Sans', verdana, arial, sans-serif; font-size: 17px; fill: rgb(42, 63, 95); opacity: 1; font-weight: normal; white-space: pre;"><tspan class="line" dy="0em" x="35" y="50">Qidao - sUSDC/MAI: Velodrome</tspan><tspan class="line" dy="1.3em" x="35" y="50">​<tspan style="font-size:70%" dy="-0.6em">Cumulative Net Flows since Program Announcement, Until Program End + 30 Days</tspan><tspan dy="0.42em">​</tspan></tspan></text></g><g class="g-xtitle"><text class="xtitle" x="350" y="460.3" text-anchor="middle" style="font-family: 'Open Sans', verdana, arial, sans-serif; font-size: 14px; fill: rgb(42, 63, 95); opacity: 1; font-weight: normal; white-space: pre;">Day</text></g><g class="g-ytitle"><text class="ytitle" transform="rotate(-90,24.340625000000003,260)" x="24.340625000000003" y="260" text-anchor="middle" style="font-family: 'Open Sans', verdana, arial, sans-serif; font-size: 14px; fill: rgb(42, 63, 95); opacity: 1; font-weight: normal; white-space: pre;">Cumulative Net Flows (USD)</text></g></g></svg>