<svg class="main-svg" xmlns="http://www.w3.org/2000/svg" xmlns:xlink="http://www.w3.org/1999/xlink" width="700" height="500" style="" viewBox="0 0 700 500"><rect x="0" y="0" width="700" height="500" style="fill: rgb(255, 255, 255); fill-opacity: 1;"/><defs id="defs-f5fad1"><g class="clips"><clipPath id="clipf5fad1xyplot" class="plotclip"><rect width="540" height="320"/></clipPath><clipPath class="axesclip" id="clipf5fad1x"><rect x="80" y="0" width="540" height="500"/></clipPath><clipPath class="axesclip" id="clipf5fad1y"><rect x="0" y="100" width="700" height="320"/></clipPath><clipPath class="axesclip" id="clipf5fad1xy"><rect x="80" y="100" width="540" height="320"/></clipPath></g><g class="gradients"/><g class="patterns"/></defs><g class="bglayer"><rect class="bg" x="80" y="100" width="540" height="320" style="fill: rgb(229, 236, 246); fill-opacity: 1; stroke-width: 0;"/></g><g class="layer-below"><g class="imagelayer"/><g class="shapelayer"/></g><g class="cartesianlayer"><g class="subplot xy"><g class="layer-subplot"><g class="shapelayer"/><g class="imagelayer"/></g><g class="minor-gridlayer"><g class="x"/><g class="y"/></g><g class="gridlayer"><g class="x"><path class="xgrid crisp" transform="translate(144.29000000000002,0)" d="M0,100v320" style="stroke: rgb(255, 255, 255); stroke-opacity: 1; stroke-width: 1px;"/><path class="xgrid crisp" transform="translate(275,0)" d="M0,100v320" style="stroke: rgb(255, 255, 255); stroke-opacity: 1; stroke-width: 1px;"/><path class="xgrid crisp" transform="translate(405.71,0)" d="M0,100v320" style="stroke: rgb(255, 255, 255); stroke-opacity: 1; stroke-width: 1px;"/><path class="xgrid crisp" transform="translate(532.14,0)" d="M0,100v320" style="stroke: rgb(255, 255, 255); stroke-opacity: 1; stroke-width: 1px;"/></g><g class="y"><path class="ygrid crisp" transform="translate(0,379.12)" d="M80,0h540" style="stroke: rgb(255, 255, 255); stroke-opacity: 1; stroke-width: 1px;"/><path class="ygrid crisp" transform="translate(0,253.22)" d="M80,0h540" style="stroke: rgb(255, 255, 255); stroke-opacity: 1; stroke-width: 1px;"/><path class="ygrid crisp" transform="translate(0,190.26999999999998)" d="M80,0h540" style="stroke: rgb(255, 255, 255); stroke-opacity: 1; stroke-width: 1px;"/><path class="ygrid crisp" transform="translate(0,127.32)" d="M80,0h540" style="stroke: rgb(255, 255, 255); stroke-opacity: 1; stroke-width: 1px;"/></g></g><g class="zerolinelayer"><path class="yzl zl crisp" transform="translate(0,316.16999999999996)" d="M80,0h540" style="stroke: rgb(255, 255, 255); stroke-opacity: 1; stroke-width: 2px;"/></g><path class="xlines-below"/><path class="ylines-below"/><g class="overlines-below"/><g class="xaxislayer-below"/><g class="yaxislayer-below"/><g class="overaxes-below"/><g class="plot" transform="translate(80,100)" clip-path="url(#clipf5fad1xyplot)"><g class="scatterlayer mlayer"><g class="trace scatter trace00615f" style="stroke-miterlimit: 2;"><g class="fills"><g><path class="js-fill" d="M540,216.17L0,216.17L0,215.92L2.14,193.02L4.29,138.08L6.43,114.76L8.57,109.32L10.71,100.54L12.86,85.93L15,78.32L17.14,42.39L21.43,39L23.57,27.8L25.71,23.85L27.86,22.76L30,17.35L32.14,32.39L34.29,16L36.43,16.41L38.57,17.93L40.71,25.58L47.14,30.57L49.29,35.86L51.43,36.74L53.57,31.55L55.71,31.31L57.86,32.44L60,35.12L62.14,35.8L64.29,34.1L66.43,34.22L68.57,43.24L70.71,43.33L72.86,43.19L75,44.46L77.14,46.09L79.29,49.84L81.43,50.45L83.57,58.07L85.71,63.83L87.86,67.34L90,72.35L92.14,79.62L94.29,82.7L96.43,76.88L98.57,46.71L100.71,45.67L102.86,37.77L105,39.9L107.14,38.57L109.29,38.65L111.43,44.73L113.57,30.4L115.71,28.28L117.86,22.62L120,21.85L122.14,23.26L124.29,26.23L126.43,25.48L130.71,21.4L132.86,21.48L135,21.07L137.14,24.82L141.43,28.58L143.57,25.5L145.71,24.12L147.86,30.1L150,33.67L152.14,32.61L154.29,31.8L156.43,33.65L158.57,32.71L160.71,29.7L162.86,50.53L165,55.75L169.29,57.7L171.43,58.34L173.57,81.82L175.71,80.13L180,88.25L182.14,105.75L184.29,122.49L186.43,117.92L188.57,101.2L190.71,101.88L192.86,105.32L195,104.68L199.29,107.29L201.43,102.72L203.57,105.22L205.71,101.97L207.86,101.95L210,98.79L212.14,101.05L214.29,108.09L216.43,108.27L218.57,101.44L220.71,104.77L222.86,104.26L225,122.71L227.14,123.48L231.43,123.32L233.57,116.31L240,108.86L242.14,107.6L244.29,115.73L246.43,119.73L248.57,120.1L250.71,121.72L252.86,122.16L255,117.8L259.29,128.93L261.43,128.49L263.57,122.17L265.71,120.88L267.86,123.17L270,120.88L272.14,120.36L274.29,118.75L276.43,120.63L278.57,126.88L280.71,126.4L282.86,127.1L285,128.28L287.14,131.08L291.43,125.45L293.57,125.84L295.71,123.94L297.86,123.69L300,122.07L302.14,130.76L304.29,132.89L306.43,133.56L310.71,134.55L312.86,133.7L315,132.53L317.14,134.25L321.43,133.9L323.57,139.94L325.71,140.11L327.86,138.31L332.14,139.49L334.29,142.32L336.43,143.15L338.57,141.31L345,144.62L347.14,146.82L349.29,147.64L351.43,131L353.57,131.75L355.71,133.43L357.86,131.67L360,130.96L366.43,124.51L368.57,129.7L370.71,127.46L372.86,126.85L375,121.3L377.14,119.58L379.29,121.65L381.43,113.5L383.57,118.22L385.71,114.7L387.86,117.39L390,114.23L392.14,116.19L394.29,114.34L396.43,113.76L398.57,114.84L400.71,120.65L402.86,122.06L407.14,121.19L409.29,118.79L411.43,117.65L413.57,120.77L415.71,118.64L417.86,119.62L420,122.89L422.14,123.2L424.29,124.96L426.43,129.11L430.71,128.47L432.86,129.87L437.14,129.22L439.29,127.22L441.43,126.44L443.57,121.26L445.71,120.78L447.86,123.11L450,121.66L452.14,122.88L456.43,124.99L458.57,124.05L460.71,123.27L462.86,126.5L467.14,128.44L469.29,127.64L471.43,127.6L473.57,135.95L475.71,138.67L477.86,139.47L480,144.51L482.14,143.07L484.29,151.57L486.43,151.82L488.57,149.93L490.71,150.68L492.86,153.14L495,154.29L497.14,154.93L499.29,156.42L501.43,159.34L503.57,150.79L505.71,149.82L507.86,150.67L510,150.15L512.14,151.4L514.29,154.38L516.43,161.73L518.57,159.48L520.71,159.32L525,156.94L527.14,159.29L529.29,159.86L531.43,159.2L533.57,160.02L535.71,158.32L540,159.24L540,304" style="fill: rgb(99, 110, 250); fill-opacity: 0.5; stroke-width: 0;"/></g></g><g class="errorbars"/><g class="lines"><path class="js-line" d="M0,215.92L2.14,193.02L4.29,138.08L6.43,114.76L8.57,109.32L10.71,100.54L12.86,85.93L15,78.32L17.14,42.39L21.43,39L23.57,27.8L25.71,23.85L27.86,22.76L30,17.35L32.14,32.39L34.29,16L36.43,16.41L38.57,17.93L40.71,25.58L47.14,30.57L49.29,35.86L51.43,36.74L53.57,31.55L55.71,31.31L57.86,32.44L60,35.12L62.14,35.8L64.29,34.1L66.43,34.22L68.57,43.24L70.71,43.33L72.86,43.19L75,44.46L77.14,46.09L79.29,49.84L81.43,50.45L83.57,58.07L85.71,63.83L87.86,67.34L90,72.35L92.14,79.62L94.29,82.7L96.43,76.88L98.57,46.71L100.71,45.67L102.86,37.77L105,39.9L107.14,38.57L109.29,38.65L111.43,44.73L113.57,30.4L115.71,28.28L117.86,22.62L120,21.85L122.14,23.26L124.29,26.23L126.43,25.48L130.71,21.4L132.86,21.48L135,21.07L137.14,24.82L141.43,28.58L143.57,25.5L145.71,24.12L147.86,30.1L150,33.67L152.14,32.61L154.29,31.8L156.43,33.65L158.57,32.71L160.71,29.7L162.86,50.53L165,55.75L169.29,57.7L171.43,58.34L173.57,81.82L175.71,80.13L180,88.25L182.14,105.75L184.29,122.49L186.43,117.92L188.57,101.2L190.71,101.88L192.86,105.32L195,104.68L199.29,107.29L201.43,102.72L203.57,105.22L205.71,101.97L207.86,101.95L210,98.79L212.14,101.05L214.29,108.09L216.43,108.27L218.57,101.44L220.71,104.77L222.86,104.26L225,122.71L227.14,123.48L231.43,123.32L233.57,116.31L240,108.86L242.14,107.6L244.29,115.73L246.43,119.73L248.57,120.1L250.71,121.72L252.86,122.16L255,117.8L259.29,128.93L261.43,128.49L263.57,122.17L265.71,120.88L267.86,123.17L270,120.88L272.14,120.36L274.29,118.75L276.43,120.63L278.57,126.88L280.71,126.4L282.86,127.1L285,128.28L287.14,131.08L291.43,125.45L293.57,125.84L295.71,123.94L297.86,123.69L300,122.07L302.14,130.76L304.29,132.89L306.43,133.56L310.71,134.55L312.86,133.7L315,132.53L317.14,134.25L321.43,133.9L323.57,139.94L325.71,140.11L327.86,138.31L332.14,139.49L334.29,142.32L336.43,143.15L338.57,141.31L345,144.62L347.14,146.82L349.29,147.64L351.43,131L353.57,131.75L355.71,133.43L357.86,131.67L360,130.96L366.43,124.51L368.57,129.7L370.71,127.46L372.86,126.85L375,121.3L377.14,119.58L379.29,121.65L381.43,113.5L383.57,118.22L385.71,114.7L387.86,117.39L390,114.23L392.14,116.19L394.29,114.34L396.43,113.76L398.57,114.84L400.71,120.65L402.86,122.06L407.14,121.19L409.29,118.79L411.43,117.65L413.57,120.77L415.71,118.64L417.86,119.62L420,122.89L422.14,123.2L424.29,124.96L426.43,129.11L430.71,128.47L432.86,129.87L437.14,129.22L439.29,127.22L441.43,126.44L443.57,121.26L445.71,120.78L447.86,123.11L450,121.66L452.14,122.88L456.43,124.99L458.57,124.05L460.71,123.27L462.86,126.5L467.14,128.44L469.29,127.64L471.43,127.6L473.57,135.95L475.71,138.67L477.86,139.47L480,144.51L482.14,143.07L484.29,151.57L486.43,151.82L488.57,149.93L490.71,150.68L492.86,153.14L495,154.29L497.14,154.93L499.29,156.42L501.43,159.34L503.57,150.79L505.71,149.82L507.86,150.67L510,150.15L512.14,151.4L514.29,154.38L516.43,161.73L518.57,159.48L520.71,159.32L525,156.94L527.14,159.29L529.29,159.86L531.43,159.2L533.57,160.02L535.71,158.32L540,159.24L540,304" style="vector-effect: none; fill: none; stroke: rgb(99, 110, 250); stroke-opacity: 1; stroke-width: 2px; opacity: 1;"/></g><g class="points"/><g class="text"/></g></g></g><g class="overplot"/><path class="xlines-above crisp" d="M0,0" style="fill: none;"/><path class="ylines-above crisp" d="M0,0" style="fill: none;"/><g class="overlines-above"/><g class="xaxislayer-above"><g class="xtick"><text text-anchor="middle" x="0" y="433" transform="translate(144.29000000000002,0)" style="font-family: 'Open Sans', verdana, arial, sans-serif; font-size: 12px; fill: rgb(42, 63, 95); fill-opacity: 1; white-space: pre; opacity: 1;">Sep 2022</text></g><g class="xtick"><text text-anchor="middle" x="0" y="433" style="font-family: 'Open Sans', verdana, arial, sans-serif; font-size: 12px; fill: rgb(42, 63, 95); fill-opacity: 1; white-space: pre; opacity: 1;" transform="translate(275,0)">Nov 2022</text></g><g class="xtick"><text text-anchor="middle" x="0" y="433" style="font-family: 'Open Sans', verdana, arial, sans-serif; font-size: 12px; fill: rgb(42, 63, 95); fill-opacity: 1; white-space: pre; opacity: 1;" transform="translate(405.71,0)">Jan 2023</text></g><g class="xtick"><text text-anchor="middle" x="0" y="433" style="font-family: 'Open Sans', verdana, arial, sans-serif; font-size: 12px; fill: rgb(42, 63, 95); fill-opacity: 1; white-space: pre; opacity: 1;" transform="translate(532.14,0)">Mar 2023</text></g></g><g class="yaxislayer-above"><g class="ytick"><text text-anchor="end" x="79" y="4.199999999999999" transform="translate(0,379.12)" style="font-family: 'Open Sans', verdana, arial, sans-serif; font-size: 12px; fill: rgb(42, 63, 95); fill-opacity: 1; white-space: pre; opacity: 1;">$−5M</text></g><g class="ytick"><text text-anchor="end" x="79" y="4.199999999999999" style="font-family: 'Open Sans', verdana, arial, sans-serif; font-size: 12px; fill: rgb(42, 63, 95); fill-opacity: 1; white-space: pre; opacity: 1;" transform="translate(0,316.16999999999996)">$0</text></g><g class="ytick"><text text-anchor="end" x="79" y="4.199999999999999" style="font-family: 'Open Sans', verdana, arial, sans-serif; font-size: 12px; fill: rgb(42, 63, 95); fill-opacity: 1; white-space: pre; opacity: 1;" transform="translate(0,253.22)">$5M</text></g><g class="ytick"><text text-anchor="end" x="79" y="4.199999999999999" style="font-family: 'Open Sans', verdana, arial, sans-serif; font-size: 12px; fill: rgb(42, 63, 95); fill-opacity: 1; white-space: pre; opacity: 1;" transform="translate(0,190.26999999999998)">$10M</text></g><g class="ytick"><text text-anchor="end" x="79" y="4.199999999999999" style="font-family: 'Open Sans', verdana, arial, sans-serif; font-size: 12px; fill: rgb(42, 63, 95); fill-opacity: 1; white-space: pre; opacity: 1;" transform="translate(0,127.32)">$15M</text></g></g><g class="overaxes-above"/></g></g><g class="polarlayer"/><g class="smithlayer"/><g class="ternarylayer"/><g class="geolayer"/><g class="funnelarealayer"/><g class="pielayer"/><g class="iciclelayer"/><g class="treemaplayer"/><g class="sunburstlayer"/><g class="glimages"/><defs id="topdefs-f5fad1"><g class="clips"/></defs><g class="layer-above"><g class="imagelayer"/><g class="shapelayer"/></g><g class="infolayer"><g class="g-gtitle"><text class="gtitle" x="35" y="50" text-anchor="start" dy="0em" style="font-family: 'Open Sans', verdana, arial, sans-serif; font-size: 17px; fill: rgb(42, 63, 95); opacity: 1; font-weight: normal; white-space: pre;"><tspan class="line" dy="0em" x="35" y="50">Lyra</tspan><tspan class="line" dy="1.3em" x="35" y="50">​<tspan style="font-size:70%" dy="-0.6em">Cumulative Net Flows since Program Announcement, Until Program End + 30 Days</tspan><tspan dy="0.42em">​</tspan></tspan></text></g><g class="g-xtitle"><text class="xtitle" x="350" y="460.3" text-anchor="middle" style="font-family: 'Open Sans', verdana, arial, sans-serif; font-size: 14px; fill: rgb(42, 63, 95); opacity: 1; font-weight: normal; white-space: pre;">Day</text></g><g class="g-ytitle"><text class="ytitle" transform="rotate(-90,24.340625000000003,260)" x="24.340625000000003" y="260" text-anchor="middle" style="font-family: 'Open Sans', verdana, arial, sans-serif; font-size: 14px; fill: rgb(42, 63, 95); opacity: 1; font-weight: normal; white-space: pre;">Cumulative Net Flows (USD)</text></g></g></svg>