<svg class="main-svg" xmlns="http://www.w3.org/2000/svg" xmlns:xlink="http://www.w3.org/1999/xlink" width="700" height="500" style="" viewBox="0 0 700 500"><rect x="0" y="0" width="700" height="500" style="fill: rgb(255, 255, 255); fill-opacity: 1;"/><defs id="defs-fe8ac0"><g class="clips"><clipPath id="clipfe8ac0xyplot" class="plotclip"><rect width="540" height="320"/></clipPath><clipPath class="axesclip" id="clipfe8ac0x"><rect x="80" y="0" width="540" height="500"/></clipPath><clipPath class="axesclip" id="clipfe8ac0y"><rect x="0" y="100" width="700" height="320"/></clipPath><clipPath class="axesclip" id="clipfe8ac0xy"><rect x="80" y="100" width="540" height="320"/></clipPath></g><g class="gradients"/><g class="patterns"/></defs><g class="bglayer"><rect class="bg" x="80" y="100" width="540" height="320" style="fill: rgb(229, 236, 246); fill-opacity: 1; stroke-width: 0;"/></g><g class="layer-below"><g class="imagelayer"/><g class="shapelayer"/></g><g class="cartesianlayer"><g class="subplot xy"><g class="layer-subplot"><g class="shapelayer"/><g class="imagelayer"/></g><g class="minor-gridlayer"><g class="x"/><g class="y"/></g><g class="gridlayer"><g class="x"><path class="xgrid crisp" transform="translate(138.78,0)" d="M0,100v320" style="stroke: rgb(255, 255, 255); stroke-opacity: 1; stroke-width: 1px;"/><path class="xgrid crisp" transform="translate(252.65,0)" d="M0,100v320" style="stroke: rgb(255, 255, 255); stroke-opacity: 1; stroke-width: 1px;"/><path class="xgrid crisp" transform="translate(366.53,0)" d="M0,100v320" style="stroke: rgb(255, 255, 255); stroke-opacity: 1; stroke-width: 1px;"/><path class="xgrid crisp" transform="translate(469.39,0)" d="M0,100v320" style="stroke: rgb(255, 255, 255); stroke-opacity: 1; stroke-width: 1px;"/><path class="xgrid crisp" transform="translate(583.27,0)" d="M0,100v320" style="stroke: rgb(255, 255, 255); stroke-opacity: 1; stroke-width: 1px;"/></g><g class="y"><path class="ygrid crisp" transform="translate(0,415.5)" d="M80,0h540" style="stroke: rgb(255, 255, 255); stroke-opacity: 1; stroke-width: 1px;"/><path class="ygrid crisp" transform="translate(0,379.89)" d="M80,0h540" style="stroke: rgb(255, 255, 255); stroke-opacity: 1; stroke-width: 1px;"/><path class="ygrid crisp" transform="translate(0,344.28)" d="M80,0h540" style="stroke: rgb(255, 255, 255); stroke-opacity: 1; stroke-width: 1px;"/><path class="ygrid crisp" transform="translate(0,308.66999999999996)" d="M80,0h540" style="stroke: rgb(255, 255, 255); stroke-opacity: 1; stroke-width: 1px;"/><path class="ygrid crisp" transform="translate(0,273.06)" d="M80,0h540" style="stroke: rgb(255, 255, 255); stroke-opacity: 1; stroke-width: 1px;"/><path class="ygrid crisp" transform="translate(0,237.44)" d="M80,0h540" style="stroke: rgb(255, 255, 255); stroke-opacity: 1; stroke-width: 1px;"/><path class="ygrid crisp" transform="translate(0,201.82999999999998)" d="M80,0h540" style="stroke: rgb(255, 255, 255); stroke-opacity: 1; stroke-width: 1px;"/><path class="ygrid crisp" transform="translate(0,130.61)" d="M80,0h540" style="stroke: rgb(255, 255, 255); stroke-opacity: 1; stroke-width: 1px;"/></g></g><g class="zerolinelayer"><path class="yzl zl crisp" transform="translate(0,166.22)" d="M80,0h540" style="stroke: rgb(255, 255, 255); stroke-opacity: 1; stroke-width: 2px;"/></g><path class="xlines-below"/><path class="ylines-below"/><g class="overlines-below"/><g class="xaxislayer-below"/><g class="yaxislayer-below"/><g class="overaxes-below"/><g class="plot" transform="translate(80,100)" clip-path="url(#clipfe8ac0xyplot)"><g class="scatterlayer mlayer"><g class="trace scatter tracef387e9" style="stroke-miterlimit: 2;"><g class="fills"><g><path class="js-fill" d="M540,66.22L0,66.22L0,65.05L3.67,57.73L7.35,79.87L11.02,80.92L14.69,80.33L22.04,82.28L25.71,83.57L29.39,92.4L33.06,93.64L36.73,94.1L40.41,95.85L47.76,95.13L51.43,96.48L55.1,109.6L58.78,107.49L62.45,96.33L66.12,96.49L69.8,95.74L73.47,95.78L77.14,96.21L80.82,80.3L84.49,67.62L88.16,67.22L95.51,66.76L99.18,93.85L102.86,94.27L106.53,91.84L117.55,89.66L121.22,77.61L124.9,80.52L128.57,79.61L132.24,54.3L135.92,54.41L139.59,54.77L143.27,49.44L146.94,54.05L150.61,53.02L154.29,47.76L157.96,47.42L165.31,49.44L168.98,63.17L172.65,74.79L176.33,74.71L183.67,77.3L187.35,79.41L191.02,81.9L194.69,81.59L198.37,77.62L202.04,76.99L205.71,77.44L209.39,75.55L213.06,70.93L216.73,69.49L220.41,69.02L224.08,71.09L227.76,73.93L231.43,72.31L235.1,74.19L238.78,73.56L242.45,71.55L246.12,63.25L249.8,57.66L253.47,59.29L257.14,59.83L260.82,59.4L264.49,57.72L268.16,57.38L271.84,58.99L275.51,55.71L279.18,54.85L282.86,56.25L286.53,49.82L290.2,52.64L293.88,41.74L297.55,38.51L301.22,37.74L304.9,33.83L312.24,33.96L315.92,16.31L319.59,20.61L323.27,18.21L326.94,16.07L330.61,16L334.29,19.48L337.96,19.39L341.63,20.11L345.31,18.7L352.65,19.76L356.33,18.68L360,19.52L363.67,19.48L367.35,19.55L371.02,26.6L374.69,26.66L378.37,24.11L385.71,19.85L389.39,19.87L393.06,23.04L396.73,22.73L400.41,19.87L404.08,20.08L415.1,20.31L418.78,20.97L422.45,24.25L426.12,54.77L429.8,83.4L433.47,81.66L437.14,81.35L440.82,75.12L444.49,58.7L448.16,59.18L451.84,56.96L455.51,59.21L459.18,69.41L462.86,69.56L466.53,70.2L470.2,75.28L473.88,73.25L477.55,77.61L481.22,75.35L484.9,74.98L488.57,75.7L492.24,70.87L495.92,104.66L499.59,108.62L503.27,126.75L506.94,129.39L510.61,130.72L514.29,140.23L517.96,162.39L521.63,162.92L525.31,164.5L528.98,164.95L532.65,165.39L536.33,171.3L540,173.11L540,304" style="fill: rgb(99, 110, 250); fill-opacity: 0.5; stroke-width: 0;"/></g></g><g class="errorbars"/><g class="lines"><path class="js-line" d="M0,65.05L3.67,57.73L7.35,79.87L11.02,80.92L14.69,80.33L22.04,82.28L25.71,83.57L29.39,92.4L33.06,93.64L36.73,94.1L40.41,95.85L47.76,95.13L51.43,96.48L55.1,109.6L58.78,107.49L62.45,96.33L66.12,96.49L69.8,95.74L73.47,95.78L77.14,96.21L80.82,80.3L84.49,67.62L88.16,67.22L95.51,66.76L99.18,93.85L102.86,94.27L106.53,91.84L117.55,89.66L121.22,77.61L124.9,80.52L128.57,79.61L132.24,54.3L135.92,54.41L139.59,54.77L143.27,49.44L146.94,54.05L150.61,53.02L154.29,47.76L157.96,47.42L165.31,49.44L168.98,63.17L172.65,74.79L176.33,74.71L183.67,77.3L187.35,79.41L191.02,81.9L194.69,81.59L198.37,77.62L202.04,76.99L205.71,77.44L209.39,75.55L213.06,70.93L216.73,69.49L220.41,69.02L224.08,71.09L227.76,73.93L231.43,72.31L235.1,74.19L238.78,73.56L242.45,71.55L246.12,63.25L249.8,57.66L253.47,59.29L257.14,59.83L260.82,59.4L264.49,57.72L268.16,57.38L271.84,58.99L275.51,55.71L279.18,54.85L282.86,56.25L286.53,49.82L290.2,52.64L293.88,41.74L297.55,38.51L301.22,37.74L304.9,33.83L312.24,33.96L315.92,16.31L319.59,20.61L323.27,18.21L326.94,16.07L330.61,16L334.29,19.48L337.96,19.39L341.63,20.11L345.31,18.7L352.65,19.76L356.33,18.68L360,19.52L363.67,19.48L367.35,19.55L371.02,26.6L374.69,26.66L378.37,24.11L385.71,19.85L389.39,19.87L393.06,23.04L396.73,22.73L400.41,19.87L404.08,20.08L415.1,20.31L418.78,20.97L422.45,24.25L426.12,54.77L429.8,83.4L433.47,81.66L437.14,81.35L440.82,75.12L444.49,58.7L448.16,59.18L451.84,56.96L455.51,59.21L459.18,69.41L462.86,69.56L466.53,70.2L470.2,75.28L473.88,73.25L477.55,77.61L481.22,75.35L484.9,74.98L488.57,75.7L492.24,70.87L495.92,104.66L499.59,108.62L503.27,126.75L506.94,129.39L510.61,130.72L514.29,140.23L517.96,162.39L521.63,162.92L525.31,164.5L528.98,164.95L532.65,165.39L536.33,171.3L540,173.11L540,304" style="vector-effect: none; fill: none; stroke: rgb(99, 110, 250); stroke-opacity: 1; stroke-width: 2px; opacity: 1;"/></g><g class="points"/><g class="text"/></g></g></g><g class="overplot"/><path class="xlines-above crisp" d="M0,0" style="fill: none;"/><path class="ylines-above crisp" d="M0,0" style="fill: none;"/><g class="overlines-above"/><g class="xaxislayer-above"><g class="xtick"><text text-anchor="middle" x="0" y="433" transform="translate(138.78,0)" style="font-family: 'Open Sans', verdana, arial, sans-serif; font-size: 12px; fill: rgb(42, 63, 95); fill-opacity: 1; white-space: pre; opacity: 1;">Dec 2022</text></g><g class="xtick"><text text-anchor="middle" x="0" y="433" style="font-family: 'Open Sans', verdana, arial, sans-serif; font-size: 12px; fill: rgb(42, 63, 95); fill-opacity: 1; white-space: pre; opacity: 1;" transform="translate(252.65,0)">Jan 2023</text></g><g class="xtick"><text text-anchor="middle" x="0" y="433" style="font-family: 'Open Sans', verdana, arial, sans-serif; font-size: 12px; fill: rgb(42, 63, 95); fill-opacity: 1; white-space: pre; opacity: 1;" transform="translate(366.53,0)">Feb 2023</text></g><g class="xtick"><text text-anchor="middle" x="0" y="433" style="font-family: 'Open Sans', verdana, arial, sans-serif; font-size: 12px; fill: rgb(42, 63, 95); fill-opacity: 1; white-space: pre; opacity: 1;" transform="translate(469.39,0)">Mar 2023</text></g><g class="xtick"><text text-anchor="middle" x="0" y="433" style="font-family: 'Open Sans', verdana, arial, sans-serif; font-size: 12px; fill: rgb(42, 63, 95); fill-opacity: 1; white-space: pre; opacity: 1;" transform="translate(583.27,0)">Apr 2023</text></g></g><g class="yaxislayer-above"><g class="ytick"><text text-anchor="end" x="79" y="4.199999999999999" transform="translate(0,415.5)" style="font-family: 'Open Sans', verdana, arial, sans-serif; font-size: 12px; fill: rgb(42, 63, 95); fill-opacity: 1; white-space: pre; opacity: 1;">$−35M</text></g><g class="ytick"><text text-anchor="end" x="79" y="4.199999999999999" style="font-family: 'Open Sans', verdana, arial, sans-serif; font-size: 12px; fill: rgb(42, 63, 95); fill-opacity: 1; white-space: pre; opacity: 1;" transform="translate(0,379.89)">$−30M</text></g><g class="ytick"><text text-anchor="end" x="79" y="4.199999999999999" style="font-family: 'Open Sans', verdana, arial, sans-serif; font-size: 12px; fill: rgb(42, 63, 95); fill-opacity: 1; white-space: pre; opacity: 1;" transform="translate(0,344.28)">$−25M</text></g><g class="ytick"><text text-anchor="end" x="79" y="4.199999999999999" style="font-family: 'Open Sans', verdana, arial, sans-serif; font-size: 12px; fill: rgb(42, 63, 95); fill-opacity: 1; white-space: pre; opacity: 1;" transform="translate(0,308.66999999999996)">$−20M</text></g><g class="ytick"><text text-anchor="end" x="79" y="4.199999999999999" style="font-family: 'Open Sans', verdana, arial, sans-serif; font-size: 12px; fill: rgb(42, 63, 95); fill-opacity: 1; white-space: pre; opacity: 1;" transform="translate(0,273.06)">$−15M</text></g><g class="ytick"><text text-anchor="end" x="79" y="4.199999999999999" style="font-family: 'Open Sans', verdana, arial, sans-serif; font-size: 12px; fill: rgb(42, 63, 95); fill-opacity: 1; white-space: pre; opacity: 1;" transform="translate(0,237.44)">$−10M</text></g><g class="ytick"><text text-anchor="end" x="79" y="4.199999999999999" style="font-family: 'Open Sans', verdana, arial, sans-serif; font-size: 12px; fill: rgb(42, 63, 95); fill-opacity: 1; white-space: pre; opacity: 1;" transform="translate(0,201.82999999999998)">$−5M</text></g><g class="ytick"><text text-anchor="end" x="79" y="4.199999999999999" style="font-family: 'Open Sans', verdana, arial, sans-serif; font-size: 12px; fill: rgb(42, 63, 95); fill-opacity: 1; white-space: pre; opacity: 1;" transform="translate(0,166.22)">$0</text></g><g class="ytick"><text text-anchor="end" x="79" y="4.199999999999999" style="font-family: 'Open Sans', verdana, arial, sans-serif; font-size: 12px; fill: rgb(42, 63, 95); fill-opacity: 1; white-space: pre; opacity: 1;" transform="translate(0,130.61)">$5M</text></g></g><g class="overaxes-above"/></g></g><g class="polarlayer"/><g class="smithlayer"/><g class="ternarylayer"/><g class="geolayer"/><g class="funnelarealayer"/><g class="pielayer"/><g class="iciclelayer"/><g class="treemaplayer"/><g class="sunburstlayer"/><g class="glimages"/><defs id="topdefs-fe8ac0"><g class="clips"/></defs><g class="layer-above"><g class="imagelayer"/><g class="shapelayer"/></g><g class="infolayer"><g class="g-gtitle"><text class="gtitle" x="35" y="50" text-anchor="start" dy="0em" style="font-family: 'Open Sans', verdana, arial, sans-serif; font-size: 17px; fill: rgb(42, 63, 95); opacity: 1; font-weight: normal; white-space: pre;"><tspan class="line" dy="0em" x="35" y="50">Pooltogether - PoolTogether #2</tspan><tspan class="line" dy="1.3em" x="35" y="50">​<tspan style="font-size:70%" dy="-0.6em">Cumulative Net Flows since Program Announcement, Until Program End + 30 Days</tspan><tspan dy="0.42em">​</tspan></tspan></text></g><g class="g-xtitle"><text class="xtitle" x="350" y="460.3" text-anchor="middle" style="font-family: 'Open Sans', verdana, arial, sans-serif; font-size: 14px; fill: rgb(42, 63, 95); opacity: 1; font-weight: normal; white-space: pre;">Day</text></g><g class="g-ytitle"><text class="ytitle" transform="rotate(-90,17.668750000000003,260)" x="17.668750000000003" y="260" text-anchor="middle" style="font-family: 'Open Sans', verdana, arial, sans-serif; font-size: 14px; fill: rgb(42, 63, 95); opacity: 1; font-weight: normal; white-space: pre;">Cumulative Net Flows (USD)</text></g></g></svg>