<svg class="main-svg" xmlns="http://www.w3.org/2000/svg" xmlns:xlink="http://www.w3.org/1999/xlink" width="700" height="500" style="" viewBox="0 0 700 500"><rect x="0" y="0" width="700" height="500" style="fill: rgb(255, 255, 255); fill-opacity: 1;"/><defs id="defs-ec9237"><g class="clips"><clipPath id="clipec9237xyplot" class="plotclip"><rect width="540" height="320"/></clipPath><clipPath class="axesclip" id="clipec9237x"><rect x="80" y="0" width="540" height="500"/></clipPath><clipPath class="axesclip" id="clipec9237y"><rect x="0" y="100" width="700" height="320"/></clipPath><clipPath class="axesclip" id="clipec9237xy"><rect x="80" y="100" width="540" height="320"/></clipPath></g><g class="gradients"/><g class="patterns"/></defs><g class="bglayer"><rect class="bg" x="80" y="100" width="540" height="320" style="fill: rgb(229, 236, 246); fill-opacity: 1; stroke-width: 0;"/></g><g class="layer-below"><g class="imagelayer"/><g class="shapelayer"/></g><g class="cartesianlayer"><g class="subplot xy"><g class="layer-subplot"><g class="shapelayer"/><g class="imagelayer"/></g><g class="minor-gridlayer"><g class="x"/><g class="y"/></g><g class="gridlayer"><g class="x"><path class="xgrid crisp" transform="translate(104.8,0)" d="M0,100v320" style="stroke: rgb(255, 255, 255); stroke-opacity: 1; stroke-width: 1px;"/><path class="xgrid crisp" transform="translate(190.2,0)" d="M0,100v320" style="stroke: rgb(255, 255, 255); stroke-opacity: 1; stroke-width: 1px;"/><path class="xgrid crisp" transform="translate(272.86,0)" d="M0,100v320" style="stroke: rgb(255, 255, 255); stroke-opacity: 1; stroke-width: 1px;"/><path class="xgrid crisp" transform="translate(358.27,0)" d="M0,100v320" style="stroke: rgb(255, 255, 255); stroke-opacity: 1; stroke-width: 1px;"/><path class="xgrid crisp" transform="translate(443.67,0)" d="M0,100v320" style="stroke: rgb(255, 255, 255); stroke-opacity: 1; stroke-width: 1px;"/><path class="xgrid crisp" transform="translate(520.8199999999999,0)" d="M0,100v320" style="stroke: rgb(255, 255, 255); stroke-opacity: 1; stroke-width: 1px;"/><path class="xgrid crisp" transform="translate(606.22,0)" d="M0,100v320" style="stroke: rgb(255, 255, 255); stroke-opacity: 1; stroke-width: 1px;"/></g><g class="y"><path class="ygrid crisp" transform="translate(0,394.6)" d="M80,0h540" style="stroke: rgb(255, 255, 255); stroke-opacity: 1; stroke-width: 1px;"/><path class="ygrid crisp" transform="translate(0,357.77)" d="M80,0h540" style="stroke: rgb(255, 255, 255); stroke-opacity: 1; stroke-width: 1px;"/><path class="ygrid crisp" transform="translate(0,284.11)" d="M80,0h540" style="stroke: rgb(255, 255, 255); stroke-opacity: 1; stroke-width: 1px;"/><path class="ygrid crisp" transform="translate(0,247.28)" d="M80,0h540" style="stroke: rgb(255, 255, 255); stroke-opacity: 1; stroke-width: 1px;"/><path class="ygrid crisp" transform="translate(0,210.45)" d="M80,0h540" style="stroke: rgb(255, 255, 255); stroke-opacity: 1; stroke-width: 1px;"/><path class="ygrid crisp" transform="translate(0,173.62)" d="M80,0h540" style="stroke: rgb(255, 255, 255); stroke-opacity: 1; stroke-width: 1px;"/><path class="ygrid crisp" transform="translate(0,136.79)" d="M80,0h540" style="stroke: rgb(255, 255, 255); stroke-opacity: 1; stroke-width: 1px;"/></g></g><g class="zerolinelayer"><path class="yzl zl crisp" transform="translate(0,320.94)" d="M80,0h540" style="stroke: rgb(255, 255, 255); stroke-opacity: 1; stroke-width: 2px;"/></g><path class="xlines-below"/><path class="ylines-below"/><g class="overlines-below"/><g class="xaxislayer-below"/><g class="yaxislayer-below"/><g class="overaxes-below"/><g class="plot" transform="translate(80,100)" clip-path="url(#clipec9237xyplot)"><g class="scatterlayer mlayer"><g class="trace scatter trace3e6b11" style="stroke-miterlimit: 2;"><g class="fills"><g><path class="js-fill" d="M540,220.94L0,220.94L0,217.71L2.76,212.98L5.51,213.93L8.27,212.76L11.02,218.66L13.78,214.3L16.53,213.14L19.29,213.21L22.04,209.33L24.8,217.41L27.55,210.79L30.31,206.41L33.06,207.33L35.82,209.88L38.57,205.94L41.33,206.17L44.08,203.23L46.84,203.31L49.59,205.74L52.35,204.32L55.1,204.59L57.86,207.9L60.61,206.07L63.37,205.81L66.12,207.41L68.88,207.4L71.63,205.69L74.39,203.38L77.14,202.76L79.9,199.51L82.65,200.04L85.41,199.13L88.16,200.53L90.92,201.26L93.67,194.77L96.43,164.84L99.18,113.51L101.94,101.62L104.69,100.73L110.2,88.88L112.96,90.55L115.71,76.47L118.47,77.93L121.22,78.9L123.98,83.06L126.73,84.69L129.49,80.39L135,106.67L137.76,101.42L140.51,104.1L143.27,105.26L146.02,107.78L148.78,107.7L151.53,104.69L154.29,103.58L157.04,104.72L159.8,104.58L162.55,109.31L165.31,103.74L168.06,101.82L170.82,101.93L173.57,103.4L176.33,102.18L179.08,101.88L181.84,106.01L184.59,112.27L187.35,107.66L190.1,88.95L192.86,87.51L195.61,89.37L198.37,94.85L201.12,95.73L203.88,97.71L206.63,95.01L209.39,95.14L214.9,95.93L217.65,101L220.41,100.45L223.16,100.72L225.92,100.91L228.67,94.82L231.43,96.55L234.18,91.01L236.94,91.52L239.69,80.27L242.45,84.8L245.2,83.52L247.96,92.61L250.71,89.3L253.47,95.32L256.22,94.08L261.73,96.16L264.49,95.07L267.24,99.91L270,101.38L278.27,102.53L281.02,100.43L283.78,99.2L286.53,93.59L289.29,102.21L292.04,106.6L294.8,109.42L297.55,110.08L300.31,107.94L303.06,106.79L305.82,114.25L308.57,117.01L311.33,115.53L314.08,120.19L316.84,120.25L319.59,130.84L322.35,139.24L325.1,154.79L327.86,156.44L330.61,154.29L333.37,156.09L336.12,150.58L338.88,153.01L341.63,150.16L344.39,154L347.14,149.06L349.9,147.38L352.65,148.33L355.41,146.69L358.16,143.84L360.92,139.94L363.67,138.68L366.43,142.44L369.18,140.01L377.45,134.34L380.2,132.09L382.96,137L385.71,137.03L393.98,127.87L396.73,128.15L399.49,126.18L402.24,128L405,135.85L407.76,134.99L410.51,132.63L413.27,140.54L416.02,133.18L418.78,133.81L421.53,130.46L424.29,135.72L432.55,107.38L435.31,111.1L438.06,101.33L440.82,98.23L443.57,99.51L446.33,93.04L449.08,94.87L451.84,87.71L457.35,75.02L460.1,73.11L462.86,78.55L465.61,66.14L468.37,71.48L471.12,83.59L473.88,89.18L476.63,75.6L479.39,89.28L482.14,84.99L490.41,83.56L493.16,67.78L498.67,61.91L501.43,43.81L504.18,56.54L506.94,54.51L509.69,49.86L512.45,43.38L515.2,44.33L517.96,37.21L520.71,44.6L523.47,43.12L526.22,29.67L528.98,28.5L531.73,27.11L534.49,16L537.24,22.18L540,25.66L540,304" style="fill: rgb(99, 110, 250); fill-opacity: 0.5; stroke-width: 0;"/></g></g><g class="errorbars"/><g class="lines"><path class="js-line" d="M0,217.71L2.76,212.98L5.51,213.93L8.27,212.76L11.02,218.66L13.78,214.3L16.53,213.14L19.29,213.21L22.04,209.33L24.8,217.41L27.55,210.79L30.31,206.41L33.06,207.33L35.82,209.88L38.57,205.94L41.33,206.17L44.08,203.23L46.84,203.31L49.59,205.74L52.35,204.32L55.1,204.59L57.86,207.9L60.61,206.07L63.37,205.81L66.12,207.41L68.88,207.4L71.63,205.69L74.39,203.38L77.14,202.76L79.9,199.51L82.65,200.04L85.41,199.13L88.16,200.53L90.92,201.26L93.67,194.77L96.43,164.84L99.18,113.51L101.94,101.62L104.69,100.73L110.2,88.88L112.96,90.55L115.71,76.47L118.47,77.93L121.22,78.9L123.98,83.06L126.73,84.69L129.49,80.39L135,106.67L137.76,101.42L140.51,104.1L143.27,105.26L146.02,107.78L148.78,107.7L151.53,104.69L154.29,103.58L157.04,104.72L159.8,104.58L162.55,109.31L165.31,103.74L168.06,101.82L170.82,101.93L173.57,103.4L176.33,102.18L179.08,101.88L181.84,106.01L184.59,112.27L187.35,107.66L190.1,88.95L192.86,87.51L195.61,89.37L198.37,94.85L201.12,95.73L203.88,97.71L206.63,95.01L209.39,95.14L214.9,95.93L217.65,101L220.41,100.45L223.16,100.72L225.92,100.91L228.67,94.82L231.43,96.55L234.18,91.01L236.94,91.52L239.69,80.27L242.45,84.8L245.2,83.52L247.96,92.61L250.71,89.3L253.47,95.32L256.22,94.08L261.73,96.16L264.49,95.07L267.24,99.91L270,101.38L278.27,102.53L281.02,100.43L283.78,99.2L286.53,93.59L289.29,102.21L292.04,106.6L294.8,109.42L297.55,110.08L300.31,107.94L303.06,106.79L305.82,114.25L308.57,117.01L311.33,115.53L314.08,120.19L316.84,120.25L319.59,130.84L322.35,139.24L325.1,154.79L327.86,156.44L330.61,154.29L333.37,156.09L336.12,150.58L338.88,153.01L341.63,150.16L344.39,154L347.14,149.06L349.9,147.38L352.65,148.33L355.41,146.69L358.16,143.84L360.92,139.94L363.67,138.68L366.43,142.44L369.18,140.01L377.45,134.34L380.2,132.09L382.96,137L385.71,137.03L393.98,127.87L396.73,128.15L399.49,126.18L402.24,128L405,135.85L407.76,134.99L410.51,132.63L413.27,140.54L416.02,133.18L418.78,133.81L421.53,130.46L424.29,135.72L432.55,107.38L435.31,111.1L438.06,101.33L440.82,98.23L443.57,99.51L446.33,93.04L449.08,94.87L451.84,87.71L457.35,75.02L460.1,73.11L462.86,78.55L465.61,66.14L468.37,71.48L471.12,83.59L473.88,89.18L476.63,75.6L479.39,89.28L482.14,84.99L490.41,83.56L493.16,67.78L498.67,61.91L501.43,43.81L504.18,56.54L506.94,54.51L509.69,49.86L512.45,43.38L515.2,44.33L517.96,37.21L520.71,44.6L523.47,43.12L526.22,29.67L528.98,28.5L531.73,27.11L534.49,16L537.24,22.18L540,25.66L540,304" style="vector-effect: none; fill: none; stroke: rgb(99, 110, 250); stroke-opacity: 1; stroke-width: 2px; opacity: 1;"/></g><g class="points"/><g class="text"/></g></g></g><g class="overplot"/><path class="xlines-above crisp" d="M0,0" style="fill: none;"/><path class="ylines-above crisp" d="M0,0" style="fill: none;"/><g class="overlines-above"/><g class="xaxislayer-above"><g class="xtick"><text text-anchor="middle" x="0" y="433" transform="translate(104.8,0)" style="font-family: 'Open Sans', verdana, arial, sans-serif; font-size: 12px; fill: rgb(42, 63, 95); fill-opacity: 1; white-space: pre; opacity: 1;">Oct 2022</text></g><g class="xtick"><text text-anchor="middle" x="0" y="433" style="font-family: 'Open Sans', verdana, arial, sans-serif; font-size: 12px; fill: rgb(42, 63, 95); fill-opacity: 1; white-space: pre; opacity: 1;" transform="translate(190.2,0)">Nov 2022</text></g><g class="xtick"><text text-anchor="middle" x="0" y="433" style="font-family: 'Open Sans', verdana, arial, sans-serif; font-size: 12px; fill: rgb(42, 63, 95); fill-opacity: 1; white-space: pre; opacity: 1;" transform="translate(272.86,0)">Dec 2022</text></g><g class="xtick"><text text-anchor="middle" x="0" y="433" style="font-family: 'Open Sans', verdana, arial, sans-serif; font-size: 12px; fill: rgb(42, 63, 95); fill-opacity: 1; white-space: pre; opacity: 1;" transform="translate(358.27,0)">Jan 2023</text></g><g class="xtick"><text text-anchor="middle" x="0" y="433" style="font-family: 'Open Sans', verdana, arial, sans-serif; font-size: 12px; fill: rgb(42, 63, 95); fill-opacity: 1; white-space: pre; opacity: 1;" transform="translate(443.67,0)">Feb 2023</text></g><g class="xtick"><text text-anchor="middle" x="0" y="433" style="font-family: 'Open Sans', verdana, arial, sans-serif; font-size: 12px; fill: rgb(42, 63, 95); fill-opacity: 1; white-space: pre; opacity: 1;" transform="translate(520.8199999999999,0)">Mar 2023</text></g><g class="xtick"><text text-anchor="middle" x="0" y="433" style="font-family: 'Open Sans', verdana, arial, sans-serif; font-size: 12px; fill: rgb(42, 63, 95); fill-opacity: 1; white-space: pre; opacity: 1;" transform="translate(606.22,0)">Apr 2023</text></g></g><g class="yaxislayer-above"><g class="ytick"><text text-anchor="end" x="79" y="4.199999999999999" transform="translate(0,394.6)" style="font-family: 'Open Sans', verdana, arial, sans-serif; font-size: 12px; fill: rgb(42, 63, 95); fill-opacity: 1; white-space: pre; opacity: 1;">$−4M</text></g><g class="ytick"><text text-anchor="end" x="79" y="4.199999999999999" style="font-family: 'Open Sans', verdana, arial, sans-serif; font-size: 12px; fill: rgb(42, 63, 95); fill-opacity: 1; white-space: pre; opacity: 1;" transform="translate(0,357.77)">$−2M</text></g><g class="ytick"><text text-anchor="end" x="79" y="4.199999999999999" style="font-family: 'Open Sans', verdana, arial, sans-serif; font-size: 12px; fill: rgb(42, 63, 95); fill-opacity: 1; white-space: pre; opacity: 1;" transform="translate(0,320.94)">$0</text></g><g class="ytick"><text text-anchor="end" x="79" y="4.199999999999999" style="font-family: 'Open Sans', verdana, arial, sans-serif; font-size: 12px; fill: rgb(42, 63, 95); fill-opacity: 1; white-space: pre; opacity: 1;" transform="translate(0,284.11)">$2M</text></g><g class="ytick"><text text-anchor="end" x="79" y="4.199999999999999" style="font-family: 'Open Sans', verdana, arial, sans-serif; font-size: 12px; fill: rgb(42, 63, 95); fill-opacity: 1; white-space: pre; opacity: 1;" transform="translate(0,247.28)">$4M</text></g><g class="ytick"><text text-anchor="end" x="79" y="4.199999999999999" style="font-family: 'Open Sans', verdana, arial, sans-serif; font-size: 12px; fill: rgb(42, 63, 95); fill-opacity: 1; white-space: pre; opacity: 1;" transform="translate(0,210.45)">$6M</text></g><g class="ytick"><text text-anchor="end" x="79" y="4.199999999999999" style="font-family: 'Open Sans', verdana, arial, sans-serif; font-size: 12px; fill: rgb(42, 63, 95); fill-opacity: 1; white-space: pre; opacity: 1;" transform="translate(0,173.62)">$8M</text></g><g class="ytick"><text text-anchor="end" x="79" y="4.199999999999999" style="font-family: 'Open Sans', verdana, arial, sans-serif; font-size: 12px; fill: rgb(42, 63, 95); fill-opacity: 1; white-space: pre; opacity: 1;" transform="translate(0,136.79)">$10M</text></g></g><g class="overaxes-above"/></g></g><g class="polarlayer"/><g class="smithlayer"/><g class="ternarylayer"/><g class="geolayer"/><g class="funnelarealayer"/><g class="pielayer"/><g class="iciclelayer"/><g class="treemaplayer"/><g class="sunburstlayer"/><g class="glimages"/><defs id="topdefs-ec9237"><g class="clips"/></defs><g class="layer-above"><g class="imagelayer"/><g class="shapelayer"/></g><g class="infolayer"><g class="g-gtitle"><text class="gtitle" x="35" y="50" text-anchor="start" dy="0em" style="font-family: 'Open Sans', verdana, arial, sans-serif; font-size: 17px; fill: rgb(42, 63, 95); opacity: 1; font-weight: normal; white-space: pre;"><tspan class="line" dy="0em" x="35" y="50">Hop Protocol</tspan><tspan class="line" dy="1.3em" x="35" y="50">​<tspan style="font-size:70%" dy="-0.6em">Cumulative Net Flows since Program Announcement, Until Program End + 30 Days</tspan><tspan dy="0.42em">​</tspan></tspan></text></g><g class="g-xtitle"><text class="xtitle" x="350" y="460.3" text-anchor="middle" style="font-family: 'Open Sans', verdana, arial, sans-serif; font-size: 14px; fill: rgb(42, 63, 95); opacity: 1; font-weight: normal; white-space: pre;">Day</text></g><g class="g-ytitle"><text class="ytitle" transform="rotate(-90,24.340625000000003,260)" x="24.340625000000003" y="260" text-anchor="middle" style="font-family: 'Open Sans', verdana, arial, sans-serif; font-size: 14px; fill: rgb(42, 63, 95); opacity: 1; font-weight: normal; white-space: pre;">Cumulative Net Flows (USD)</text></g></g></svg>