<svg class="main-svg" xmlns="http://www.w3.org/2000/svg" xmlns:xlink="http://www.w3.org/1999/xlink" width="700" height="500" style="" viewBox="0 0 700 500"><rect x="0" y="0" width="700" height="500" style="fill: rgb(255, 255, 255); fill-opacity: 1;"/><defs id="defs-2b6679"><g class="clips"><clipPath id="clip2b6679xyplot" class="plotclip"><rect width="540" height="320"/></clipPath><clipPath class="axesclip" id="clip2b6679x"><rect x="80" y="0" width="540" height="500"/></clipPath><clipPath class="axesclip" id="clip2b6679y"><rect x="0" y="100" width="700" height="320"/></clipPath><clipPath class="axesclip" id="clip2b6679xy"><rect x="80" y="100" width="540" height="320"/></clipPath></g><g class="gradients"/><g class="patterns"/></defs><g class="bglayer"><rect class="bg" x="80" y="100" width="540" height="320" style="fill: rgb(229, 236, 246); fill-opacity: 1; stroke-width: 0;"/></g><g class="layer-below"><g class="imagelayer"/><g class="shapelayer"/></g><g class="cartesianlayer"><g class="subplot xy"><g class="layer-subplot"><g class="shapelayer"/><g class="imagelayer"/></g><g class="minor-gridlayer"><g class="x"/><g class="y"/></g><g class="gridlayer"><g class="x"><path class="xgrid crisp" transform="translate(91.31,0)" d="M0,100v320" style="stroke: rgb(255, 255, 255); stroke-opacity: 1; stroke-width: 1px;"/><path class="xgrid crisp" transform="translate(178.95,0)" d="M0,100v320" style="stroke: rgb(255, 255, 255); stroke-opacity: 1; stroke-width: 1px;"/><path class="xgrid crisp" transform="translate(263.77,0)" d="M0,100v320" style="stroke: rgb(255, 255, 255); stroke-opacity: 1; stroke-width: 1px;"/><path class="xgrid crisp" transform="translate(351.41,0)" d="M0,100v320" style="stroke: rgb(255, 255, 255); stroke-opacity: 1; stroke-width: 1px;"/><path class="xgrid crisp" transform="translate(439.06,0)" d="M0,100v320" style="stroke: rgb(255, 255, 255); stroke-opacity: 1; stroke-width: 1px;"/><path class="xgrid crisp" transform="translate(518.22,0)" d="M0,100v320" style="stroke: rgb(255, 255, 255); stroke-opacity: 1; stroke-width: 1px;"/><path class="xgrid crisp" transform="translate(605.86,0)" d="M0,100v320" style="stroke: rgb(255, 255, 255); stroke-opacity: 1; stroke-width: 1px;"/></g><g class="y"><path class="ygrid crisp" transform="translate(0,330.19)" d="M80,0h540" style="stroke: rgb(255, 255, 255); stroke-opacity: 1; stroke-width: 1px;"/><path class="ygrid crisp" transform="translate(0,260.98)" d="M80,0h540" style="stroke: rgb(255, 255, 255); stroke-opacity: 1; stroke-width: 1px;"/><path class="ygrid crisp" transform="translate(0,191.76999999999998)" d="M80,0h540" style="stroke: rgb(255, 255, 255); stroke-opacity: 1; stroke-width: 1px;"/><path class="ygrid crisp" transform="translate(0,122.55)" d="M80,0h540" style="stroke: rgb(255, 255, 255); stroke-opacity: 1; stroke-width: 1px;"/></g></g><g class="zerolinelayer"><path class="yzl zl crisp" transform="translate(0,399.41)" d="M80,0h540" style="stroke: rgb(255, 255, 255); stroke-opacity: 1; stroke-width: 2px;"/></g><path class="xlines-below"/><path class="ylines-below"/><g class="overlines-below"/><g class="xaxislayer-below"/><g class="yaxislayer-below"/><g class="overaxes-below"/><g class="plot" transform="translate(80,100)" clip-path="url(#clip2b6679xyplot)"><g class="scatterlayer mlayer"><g class="trace scatter trace544ce8" style="stroke-miterlimit: 2;"><g class="fills"><g><path class="js-fill" d="M540,299.41L0,299.41L0,298.06L2.83,298.45L5.65,299.81L8.48,300.86L11.31,300.84L22.62,298.83L25.45,299.33L31.1,296.33L33.93,292.32L36.75,291.31L39.58,291.27L42.41,291.29L45.24,290.06L48.06,274.68L50.89,278.55L53.72,272.25L56.54,273.21L62.2,274.91L65.03,275.28L70.68,275.24L73.51,274.31L76.34,274.42L79.16,275.94L84.82,290.61L87.64,289.64L96.13,288.6L98.95,289.37L101.78,289.48L104.61,280.29L113.09,280.6L115.92,281.75L118.74,301.16L121.57,304L127.23,301.95L130.05,303.07L135.71,302.69L138.53,301.08L141.36,303.24L144.19,299.48L147.02,295.34L149.84,294.96L152.67,295.82L155.5,295.48L158.32,296.55L161.15,295.78L163.98,279.16L166.81,279.23L175.29,279.16L178.12,278.16L180.94,279.04L183.77,278.81L189.42,278.35L192.25,275.18L195.08,275.26L197.91,284.25L200.73,284.47L203.56,299.23L206.39,291.15L209.21,290.67L212.04,290.51L214.87,287.96L217.7,283.51L220.52,283.14L223.35,282.78L226.18,283.94L231.83,283.91L234.66,285.14L237.49,284.62L240.31,281.9L243.14,276.56L245.97,276.35L251.62,276.23L254.45,279L257.28,284.3L260.1,284.02L262.93,284L265.76,285.32L268.59,290.85L271.41,290.72L274.24,286.87L277.07,287.29L279.9,285.49L282.72,286.59L285.55,287.63L288.38,287.05L291.2,288.22L294.03,287.49L299.69,287.03L302.51,286.4L305.34,286.31L308.17,287.37L316.65,286.74L319.48,285.47L322.3,280.88L325.13,285.2L327.96,276.35L330.79,275.85L333.61,276.21L336.44,267.63L339.27,232.82L342.09,227.28L344.92,223.61L347.75,223.8L350.58,223.82L353.4,221.12L359.06,221.03L361.88,214.86L364.71,211.99L367.54,201.07L370.37,198.66L373.19,189.83L376.02,189.66L378.85,185.65L381.68,184.6L384.5,193.05L387.33,190.03L390.16,189.91L392.98,189.1L395.81,195.74L398.64,183.67L401.47,164.81L404.29,172.84L407.12,173.55L409.95,138.1L412.77,140.66L415.6,139.77L418.43,142.34L421.26,141.85L424.08,133.11L426.91,128.95L429.74,99.09L432.57,88.42L435.39,90.92L438.22,91.77L441.05,40.76L443.87,35.79L446.7,44.19L449.53,54.75L452.36,47.41L455.18,16L458.01,22.74L463.66,95.45L466.49,201.92L469.32,201.05L472.15,170.15L474.97,174.43L477.8,146.59L480.63,133.58L483.46,84.81L486.28,80.99L489.11,81.21L491.94,71.01L494.76,85.1L500.42,39.38L503.25,38.07L506.07,45.41L508.9,44.94L511.73,45.72L514.55,47.79L517.38,47.89L520.21,96.85L523.04,188.15L525.86,184.52L528.69,183.57L531.52,184.62L534.35,184.52L537.17,188.65L540,192.03" style="fill: rgb(99, 110, 250); fill-opacity: 0.5; stroke-width: 0;"/></g></g><g class="errorbars"/><g class="lines"><path class="js-line" d="M0,298.06L2.83,298.45L5.65,299.81L8.48,300.86L11.31,300.84L22.62,298.83L25.45,299.33L31.1,296.33L33.93,292.32L36.75,291.31L39.58,291.27L42.41,291.29L45.24,290.06L48.06,274.68L50.89,278.55L53.72,272.25L56.54,273.21L62.2,274.91L65.03,275.28L70.68,275.24L73.51,274.31L76.34,274.42L79.16,275.94L84.82,290.61L87.64,289.64L96.13,288.6L98.95,289.37L101.78,289.48L104.61,280.29L113.09,280.6L115.92,281.75L118.74,301.16L121.57,304L127.23,301.95L130.05,303.07L135.71,302.69L138.53,301.08L141.36,303.24L144.19,299.48L147.02,295.34L149.84,294.96L152.67,295.82L155.5,295.48L158.32,296.55L161.15,295.78L163.98,279.16L166.81,279.23L175.29,279.16L178.12,278.16L180.94,279.04L183.77,278.81L189.42,278.35L192.25,275.18L195.08,275.26L197.91,284.25L200.73,284.47L203.56,299.23L206.39,291.15L209.21,290.67L212.04,290.51L214.87,287.96L217.7,283.51L220.52,283.14L223.35,282.78L226.18,283.94L231.83,283.91L234.66,285.14L237.49,284.62L240.31,281.9L243.14,276.56L245.97,276.35L251.62,276.23L254.45,279L257.28,284.3L260.1,284.02L262.93,284L265.76,285.32L268.59,290.85L271.41,290.72L274.24,286.87L277.07,287.29L279.9,285.49L282.72,286.59L285.55,287.63L288.38,287.05L291.2,288.22L294.03,287.49L299.69,287.03L302.51,286.4L305.34,286.31L308.17,287.37L316.65,286.74L319.48,285.47L322.3,280.88L325.13,285.2L327.96,276.35L330.79,275.85L333.61,276.21L336.44,267.63L339.27,232.82L342.09,227.28L344.92,223.61L347.75,223.8L350.58,223.82L353.4,221.12L359.06,221.03L361.88,214.86L364.71,211.99L367.54,201.07L370.37,198.66L373.19,189.83L376.02,189.66L378.85,185.65L381.68,184.6L384.5,193.05L387.33,190.03L390.16,189.91L392.98,189.1L395.81,195.74L398.64,183.67L401.47,164.81L404.29,172.84L407.12,173.55L409.95,138.1L412.77,140.66L415.6,139.77L418.43,142.34L421.26,141.85L424.08,133.11L426.91,128.95L429.74,99.09L432.57,88.42L435.39,90.92L438.22,91.77L441.05,40.76L443.87,35.79L446.7,44.19L449.53,54.75L452.36,47.41L455.18,16L458.01,22.74L463.66,95.45L466.49,201.92L469.32,201.05L472.15,170.15L474.97,174.43L477.8,146.59L480.63,133.58L483.46,84.81L486.28,80.99L489.11,81.21L491.94,71.01L494.76,85.1L500.42,39.38L503.25,38.07L506.07,45.41L508.9,44.94L511.73,45.72L514.55,47.79L517.38,47.89L520.21,96.85L523.04,188.15L525.86,184.52L528.69,183.57L531.52,184.62L534.35,184.52L537.17,188.65L540,192.03" style="vector-effect: none; fill: none; stroke: rgb(99, 110, 250); stroke-opacity: 1; stroke-width: 2px; opacity: 1;"/></g><g class="points"/><g class="text"/></g></g></g><g class="overplot"/><path class="xlines-above crisp" d="M0,0" style="fill: none;"/><path class="ylines-above crisp" d="M0,0" style="fill: none;"/><g class="overlines-above"/><g class="xaxislayer-above"><g class="xtick"><text text-anchor="middle" x="0" y="433" transform="translate(91.31,0)" style="font-family: 'Open Sans', verdana, arial, sans-serif; font-size: 12px; fill: rgb(42, 63, 95); fill-opacity: 1; white-space: pre; opacity: 1;">Oct 2022</text></g><g class="xtick"><text text-anchor="middle" x="0" y="433" style="font-family: 'Open Sans', verdana, arial, sans-serif; font-size: 12px; fill: rgb(42, 63, 95); fill-opacity: 1; white-space: pre; opacity: 1;" transform="translate(178.95,0)">Nov 2022</text></g><g class="xtick"><text text-anchor="middle" x="0" y="433" style="font-family: 'Open Sans', verdana, arial, sans-serif; font-size: 12px; fill: rgb(42, 63, 95); fill-opacity: 1; white-space: pre; opacity: 1;" transform="translate(263.77,0)">Dec 2022</text></g><g class="xtick"><text text-anchor="middle" x="0" y="433" style="font-family: 'Open Sans', verdana, arial, sans-serif; font-size: 12px; fill: rgb(42, 63, 95); fill-opacity: 1; white-space: pre; opacity: 1;" transform="translate(351.41,0)">Jan 2023</text></g><g class="xtick"><text text-anchor="middle" x="0" y="433" style="font-family: 'Open Sans', verdana, arial, sans-serif; font-size: 12px; fill: rgb(42, 63, 95); fill-opacity: 1; white-space: pre; opacity: 1;" transform="translate(439.06,0)">Feb 2023</text></g><g class="xtick"><text text-anchor="middle" x="0" y="433" style="font-family: 'Open Sans', verdana, arial, sans-serif; font-size: 12px; fill: rgb(42, 63, 95); fill-opacity: 1; white-space: pre; opacity: 1;" transform="translate(518.22,0)">Mar 2023</text></g><g class="xtick"><text text-anchor="middle" x="0" y="433" style="font-family: 'Open Sans', verdana, arial, sans-serif; font-size: 12px; fill: rgb(42, 63, 95); fill-opacity: 1; white-space: pre; opacity: 1;" transform="translate(605.86,0)">Apr 2023</text></g></g><g class="yaxislayer-above"><g class="ytick"><text text-anchor="end" x="79" y="4.199999999999999" transform="translate(0,399.41)" style="font-family: 'Open Sans', verdana, arial, sans-serif; font-size: 12px; fill: rgb(42, 63, 95); fill-opacity: 1; white-space: pre; opacity: 1;">$0</text></g><g class="ytick"><text text-anchor="end" x="79" y="4.199999999999999" style="font-family: 'Open Sans', verdana, arial, sans-serif; font-size: 12px; fill: rgb(42, 63, 95); fill-opacity: 1; white-space: pre; opacity: 1;" transform="translate(0,330.19)">$2M</text></g><g class="ytick"><text text-anchor="end" x="79" y="4.199999999999999" style="font-family: 'Open Sans', verdana, arial, sans-serif; font-size: 12px; fill: rgb(42, 63, 95); fill-opacity: 1; white-space: pre; opacity: 1;" transform="translate(0,260.98)">$4M</text></g><g class="ytick"><text text-anchor="end" x="79" y="4.199999999999999" style="font-family: 'Open Sans', verdana, arial, sans-serif; font-size: 12px; fill: rgb(42, 63, 95); fill-opacity: 1; white-space: pre; opacity: 1;" transform="translate(0,191.76999999999998)">$6M</text></g><g class="ytick"><text text-anchor="end" x="79" y="4.199999999999999" style="font-family: 'Open Sans', verdana, arial, sans-serif; font-size: 12px; fill: rgb(42, 63, 95); fill-opacity: 1; white-space: pre; opacity: 1;" transform="translate(0,122.55)">$8M</text></g></g><g class="overaxes-above"/></g></g><g class="polarlayer"/><g class="smithlayer"/><g class="ternarylayer"/><g class="geolayer"/><g class="funnelarealayer"/><g class="pielayer"/><g class="iciclelayer"/><g class="treemaplayer"/><g class="sunburstlayer"/><g class="glimages"/><defs id="topdefs-2b6679"><g class="clips"/></defs><g class="layer-above"><g class="imagelayer"/><g class="shapelayer"/></g><g class="infolayer"><g class="g-gtitle"><text class="gtitle" x="35" y="50" text-anchor="start" dy="0em" style="font-family: 'Open Sans', verdana, arial, sans-serif; font-size: 17px; fill: rgb(42, 63, 95); opacity: 1; font-weight: normal; white-space: pre;"><tspan class="line" dy="0em" x="35" y="50">Synthetix - USDC/SNX: Velodrome</tspan><tspan class="line" dy="1.3em" x="35" y="50">​<tspan style="font-size:70%" dy="-0.6em">Cumulative Net Flows since Program Announcement, Until Program End + 30 Days</tspan><tspan dy="0.42em">​</tspan></tspan></text></g><g class="g-xtitle"><text class="xtitle" x="350" y="460.3" text-anchor="middle" style="font-family: 'Open Sans', verdana, arial, sans-serif; font-size: 14px; fill: rgb(42, 63, 95); opacity: 1; font-weight: normal; white-space: pre;">Day</text></g><g class="g-ytitle"><text class="ytitle" transform="rotate(-90,31.356250000000003,260)" x="31.356250000000003" y="260" text-anchor="middle" style="font-family: 'Open Sans', verdana, arial, sans-serif; font-size: 14px; fill: rgb(42, 63, 95); opacity: 1; font-weight: normal; white-space: pre;">Cumulative Net Flows (USD)</text></g></g></svg>