<svg class="main-svg" xmlns="http://www.w3.org/2000/svg" xmlns:xlink="http://www.w3.org/1999/xlink" width="700" height="500" style="" viewBox="0 0 700 500"><rect x="0" y="0" width="700" height="500" style="fill: rgb(255, 255, 255); fill-opacity: 1;"/><defs id="defs-934bab"><g class="clips"><clipPath id="clip934babxyplot" class="plotclip"><rect width="540" height="320"/></clipPath><clipPath class="axesclip" id="clip934babx"><rect x="80" y="0" width="540" height="500"/></clipPath><clipPath class="axesclip" id="clip934baby"><rect x="0" y="100" width="700" height="320"/></clipPath><clipPath class="axesclip" id="clip934babxy"><rect x="80" y="100" width="540" height="320"/></clipPath></g><g class="gradients"/><g class="patterns"/></defs><g class="bglayer"><rect class="bg" x="80" y="100" width="540" height="320" style="fill: rgb(229, 236, 246); fill-opacity: 1; stroke-width: 0;"/></g><g class="layer-below"><g class="imagelayer"/><g class="shapelayer"/></g><g class="cartesianlayer"><g class="subplot xy"><g class="layer-subplot"><g class="shapelayer"/><g class="imagelayer"/></g><g class="minor-gridlayer"><g class="x"/><g class="y"/></g><g class="gridlayer"><g class="x"><path class="xgrid crisp" transform="translate(140.85,0)" d="M0,100v320" style="stroke: rgb(255, 255, 255); stroke-opacity: 1; stroke-width: 1px;"/><path class="xgrid crisp" transform="translate(258.73,0)" d="M0,100v320" style="stroke: rgb(255, 255, 255); stroke-opacity: 1; stroke-width: 1px;"/><path class="xgrid crisp" transform="translate(376.62,0)" d="M0,100v320" style="stroke: rgb(255, 255, 255); stroke-opacity: 1; stroke-width: 1px;"/><path class="xgrid crisp" transform="translate(483.1,0)" d="M0,100v320" style="stroke: rgb(255, 255, 255); stroke-opacity: 1; stroke-width: 1px;"/><path class="xgrid crisp" transform="translate(600.99,0)" d="M0,100v320" style="stroke: rgb(255, 255, 255); stroke-opacity: 1; stroke-width: 1px;"/></g><g class="y"><path class="ygrid crisp" transform="translate(0,415.7)" d="M80,0h540" style="stroke: rgb(255, 255, 255); stroke-opacity: 1; stroke-width: 1px;"/><path class="ygrid crisp" transform="translate(0,380.06)" d="M80,0h540" style="stroke: rgb(255, 255, 255); stroke-opacity: 1; stroke-width: 1px;"/><path class="ygrid crisp" transform="translate(0,344.43)" d="M80,0h540" style="stroke: rgb(255, 255, 255); stroke-opacity: 1; stroke-width: 1px;"/><path class="ygrid crisp" transform="translate(0,308.78999999999996)" d="M80,0h540" style="stroke: rgb(255, 255, 255); stroke-opacity: 1; stroke-width: 1px;"/><path class="ygrid crisp" transform="translate(0,273.15999999999997)" d="M80,0h540" style="stroke: rgb(255, 255, 255); stroke-opacity: 1; stroke-width: 1px;"/><path class="ygrid crisp" transform="translate(0,237.52)" d="M80,0h540" style="stroke: rgb(255, 255, 255); stroke-opacity: 1; stroke-width: 1px;"/><path class="ygrid crisp" transform="translate(0,201.89)" d="M80,0h540" style="stroke: rgb(255, 255, 255); stroke-opacity: 1; stroke-width: 1px;"/><path class="ygrid crisp" transform="translate(0,130.62)" d="M80,0h540" style="stroke: rgb(255, 255, 255); stroke-opacity: 1; stroke-width: 1px;"/></g></g><g class="zerolinelayer"><path class="yzl zl crisp" transform="translate(0,166.26)" d="M80,0h540" style="stroke: rgb(255, 255, 255); stroke-opacity: 1; stroke-width: 2px;"/></g><path class="xlines-below"/><path class="ylines-below"/><g class="overlines-below"/><g class="xaxislayer-below"/><g class="yaxislayer-below"/><g class="overaxes-below"/><g class="plot" transform="translate(80,100)" clip-path="url(#clip934babxyplot)"><g class="scatterlayer mlayer"><g class="trace scatter trace229a6f" style="stroke-miterlimit: 2;"><g class="fills"><g><path class="js-fill" d="M540,66.26L0,66.26L0,65.08L3.8,57.75L7.61,79.91L11.41,80.97L15.21,80.37L22.82,82.32L26.62,83.62L30.42,92.45L34.23,93.69L38.03,94.15L41.83,95.91L49.44,95.18L53.24,96.53L57.04,109.67L60.85,107.55L64.65,96.38L68.45,96.54L72.25,95.79L76.06,95.84L79.86,96.26L83.66,80.35L87.46,67.65L91.27,67.25L98.87,66.79L102.68,93.9L106.48,94.32L110.28,91.89L121.69,89.71L125.49,77.65L129.3,80.56L133.1,79.65L136.9,54.32L140.7,54.44L144.51,54.8L148.31,49.46L152.11,54.07L155.92,53.04L159.72,47.78L163.52,47.44L171.13,49.46L174.93,63.2L178.73,74.83L182.54,74.75L190.14,77.34L193.94,79.45L197.75,81.94L201.55,81.63L205.35,77.66L209.15,77.03L212.96,77.48L216.76,75.59L220.56,70.97L224.37,69.52L228.17,69.05L231.97,71.12L235.77,73.97L239.58,72.35L243.38,74.23L247.18,73.6L250.99,71.59L254.79,63.28L258.59,57.69L262.39,59.32L266.2,59.85L270,59.43L273.8,57.75L277.61,57.4L281.41,59.02L285.21,55.74L289.01,54.87L292.82,56.27L296.62,49.84L300.42,52.67L304.23,41.76L308.03,38.53L311.83,37.76L315.63,33.84L323.24,33.98L327.04,16.31L330.85,20.61L334.65,18.21L338.45,16.07L342.25,16L346.06,19.48L349.86,19.39L353.66,20.12L357.46,18.7L365.07,19.77L368.87,18.68L372.68,19.52L376.48,19.48L380.28,19.56L384.08,26.61L387.89,26.67L391.69,24.12L399.3,19.86L403.1,19.88L406.9,23.04L410.7,22.74L414.51,19.87L418.31,20.08L429.72,20.31L433.52,20.98L437.32,24.26L441.13,54.8L444.93,83.44L448.73,81.7L452.54,81.39L456.34,75.16L460.14,58.73L463.94,59.21L467.75,56.99L471.55,59.24L475.35,69.45L479.15,69.6L482.96,70.23L486.76,75.31L490.56,73.29L494.37,77.65L498.17,75.39L501.97,75.02L505.77,75.74L509.58,70.91L513.38,104.72L517.18,108.68L520.99,126.82L524.79,129.47L528.59,130.8L532.39,140.31L536.2,162.48L540,163.02L540,304" style="fill: rgb(99, 110, 250); fill-opacity: 0.5; stroke-width: 0;"/></g></g><g class="errorbars"/><g class="lines"><path class="js-line" d="M0,65.08L3.8,57.75L7.61,79.91L11.41,80.97L15.21,80.37L22.82,82.32L26.62,83.62L30.42,92.45L34.23,93.69L38.03,94.15L41.83,95.91L49.44,95.18L53.24,96.53L57.04,109.67L60.85,107.55L64.65,96.38L68.45,96.54L72.25,95.79L76.06,95.84L79.86,96.26L83.66,80.35L87.46,67.65L91.27,67.25L98.87,66.79L102.68,93.9L106.48,94.32L110.28,91.89L121.69,89.71L125.49,77.65L129.3,80.56L133.1,79.65L136.9,54.32L140.7,54.44L144.51,54.8L148.31,49.46L152.11,54.07L155.92,53.04L159.72,47.78L163.52,47.44L171.13,49.46L174.93,63.2L178.73,74.83L182.54,74.75L190.14,77.34L193.94,79.45L197.75,81.94L201.55,81.63L205.35,77.66L209.15,77.03L212.96,77.48L216.76,75.59L220.56,70.97L224.37,69.52L228.17,69.05L231.97,71.12L235.77,73.97L239.58,72.35L243.38,74.23L247.18,73.6L250.99,71.59L254.79,63.28L258.59,57.69L262.39,59.32L266.2,59.85L270,59.43L273.8,57.75L277.61,57.4L281.41,59.02L285.21,55.74L289.01,54.87L292.82,56.27L296.62,49.84L300.42,52.67L304.23,41.76L308.03,38.53L311.83,37.76L315.63,33.84L323.24,33.98L327.04,16.31L330.85,20.61L334.65,18.21L338.45,16.07L342.25,16L346.06,19.48L349.86,19.39L353.66,20.12L357.46,18.7L365.07,19.77L368.87,18.68L372.68,19.52L376.48,19.48L380.28,19.56L384.08,26.61L387.89,26.67L391.69,24.12L399.3,19.86L403.1,19.88L406.9,23.04L410.7,22.74L414.51,19.87L418.31,20.08L429.72,20.31L433.52,20.98L437.32,24.26L441.13,54.8L444.93,83.44L448.73,81.7L452.54,81.39L456.34,75.16L460.14,58.73L463.94,59.21L467.75,56.99L471.55,59.24L475.35,69.45L479.15,69.6L482.96,70.23L486.76,75.31L490.56,73.29L494.37,77.65L498.17,75.39L501.97,75.02L505.77,75.74L509.58,70.91L513.38,104.72L517.18,108.68L520.99,126.82L524.79,129.47L528.59,130.8L532.39,140.31L536.2,162.48L540,163.02L540,304" style="vector-effect: none; fill: none; stroke: rgb(99, 110, 250); stroke-opacity: 1; stroke-width: 2px; opacity: 1;"/></g><g class="points"/><g class="text"/></g></g></g><g class="overplot"/><path class="xlines-above crisp" d="M0,0" style="fill: none;"/><path class="ylines-above crisp" d="M0,0" style="fill: none;"/><g class="overlines-above"/><g class="xaxislayer-above"><g class="xtick"><text text-anchor="middle" x="0" y="433" transform="translate(140.85,0)" style="font-family: 'Open Sans', verdana, arial, sans-serif; font-size: 12px; fill: rgb(42, 63, 95); fill-opacity: 1; white-space: pre; opacity: 1;">Dec 2022</text></g><g class="xtick"><text text-anchor="middle" x="0" y="433" style="font-family: 'Open Sans', verdana, arial, sans-serif; font-size: 12px; fill: rgb(42, 63, 95); fill-opacity: 1; white-space: pre; opacity: 1;" transform="translate(258.73,0)">Jan 2023</text></g><g class="xtick"><text text-anchor="middle" x="0" y="433" style="font-family: 'Open Sans', verdana, arial, sans-serif; font-size: 12px; fill: rgb(42, 63, 95); fill-opacity: 1; white-space: pre; opacity: 1;" transform="translate(376.62,0)">Feb 2023</text></g><g class="xtick"><text text-anchor="middle" x="0" y="433" style="font-family: 'Open Sans', verdana, arial, sans-serif; font-size: 12px; fill: rgb(42, 63, 95); fill-opacity: 1; white-space: pre; opacity: 1;" transform="translate(483.1,0)">Mar 2023</text></g><g class="xtick"><text text-anchor="middle" x="0" y="433" style="font-family: 'Open Sans', verdana, arial, sans-serif; font-size: 12px; fill: rgb(42, 63, 95); fill-opacity: 1; white-space: pre; opacity: 1;" transform="translate(600.99,0)">Apr 2023</text></g></g><g class="yaxislayer-above"><g class="ytick"><text text-anchor="end" x="79" y="4.199999999999999" transform="translate(0,415.7)" style="font-family: 'Open Sans', verdana, arial, sans-serif; font-size: 12px; fill: rgb(42, 63, 95); fill-opacity: 1; white-space: pre; opacity: 1;">$−35M</text></g><g class="ytick"><text text-anchor="end" x="79" y="4.199999999999999" style="font-family: 'Open Sans', verdana, arial, sans-serif; font-size: 12px; fill: rgb(42, 63, 95); fill-opacity: 1; white-space: pre; opacity: 1;" transform="translate(0,380.06)">$−30M</text></g><g class="ytick"><text text-anchor="end" x="79" y="4.199999999999999" style="font-family: 'Open Sans', verdana, arial, sans-serif; font-size: 12px; fill: rgb(42, 63, 95); fill-opacity: 1; white-space: pre; opacity: 1;" transform="translate(0,344.43)">$−25M</text></g><g class="ytick"><text text-anchor="end" x="79" y="4.199999999999999" style="font-family: 'Open Sans', verdana, arial, sans-serif; font-size: 12px; fill: rgb(42, 63, 95); fill-opacity: 1; white-space: pre; opacity: 1;" transform="translate(0,308.78999999999996)">$−20M</text></g><g class="ytick"><text text-anchor="end" x="79" y="4.199999999999999" style="font-family: 'Open Sans', verdana, arial, sans-serif; font-size: 12px; fill: rgb(42, 63, 95); fill-opacity: 1; white-space: pre; opacity: 1;" transform="translate(0,273.15999999999997)">$−15M</text></g><g class="ytick"><text text-anchor="end" x="79" y="4.199999999999999" style="font-family: 'Open Sans', verdana, arial, sans-serif; font-size: 12px; fill: rgb(42, 63, 95); fill-opacity: 1; white-space: pre; opacity: 1;" transform="translate(0,237.52)">$−10M</text></g><g class="ytick"><text text-anchor="end" x="79" y="4.199999999999999" style="font-family: 'Open Sans', verdana, arial, sans-serif; font-size: 12px; fill: rgb(42, 63, 95); fill-opacity: 1; white-space: pre; opacity: 1;" transform="translate(0,201.89)">$−5M</text></g><g class="ytick"><text text-anchor="end" x="79" y="4.199999999999999" style="font-family: 'Open Sans', verdana, arial, sans-serif; font-size: 12px; fill: rgb(42, 63, 95); fill-opacity: 1; white-space: pre; opacity: 1;" transform="translate(0,166.26)">$0</text></g><g class="ytick"><text text-anchor="end" x="79" y="4.199999999999999" style="font-family: 'Open Sans', verdana, arial, sans-serif; font-size: 12px; fill: rgb(42, 63, 95); fill-opacity: 1; white-space: pre; opacity: 1;" transform="translate(0,130.62)">$5M</text></g></g><g class="overaxes-above"/></g></g><g class="polarlayer"/><g class="smithlayer"/><g class="ternarylayer"/><g class="geolayer"/><g class="funnelarealayer"/><g class="pielayer"/><g class="iciclelayer"/><g class="treemaplayer"/><g class="sunburstlayer"/><g class="glimages"/><defs id="topdefs-934bab"><g class="clips"/></defs><g class="layer-above"><g class="imagelayer"/><g class="shapelayer"/></g><g class="infolayer"><g class="g-gtitle"><text class="gtitle" x="35" y="50" text-anchor="start" dy="0em" style="font-family: 'Open Sans', verdana, arial, sans-serif; font-size: 17px; fill: rgb(42, 63, 95); opacity: 1; font-weight: normal; white-space: pre;"><tspan class="line" dy="0em" x="35" y="50">Pooltogether - PoolTogether #2</tspan><tspan class="line" dy="1.3em" x="35" y="50">​<tspan style="font-size:70%" dy="-0.6em">Cumulative Net Flows since Program Announcement, Until Program End + 30 Days</tspan><tspan dy="0.42em">​</tspan></tspan></text></g><g class="g-xtitle"><text class="xtitle" x="350" y="460.3" text-anchor="middle" style="font-family: 'Open Sans', verdana, arial, sans-serif; font-size: 14px; fill: rgb(42, 63, 95); opacity: 1; font-weight: normal; white-space: pre;">Day</text></g><g class="g-ytitle"><text class="ytitle" transform="rotate(-90,17.668750000000003,260)" x="17.668750000000003" y="260" text-anchor="middle" style="font-family: 'Open Sans', verdana, arial, sans-serif; font-size: 14px; fill: rgb(42, 63, 95); opacity: 1; font-weight: normal; white-space: pre;">Cumulative Net Flows (USD)</text></g></g></svg>