<svg class="main-svg" xmlns="http://www.w3.org/2000/svg" xmlns:xlink="http://www.w3.org/1999/xlink" width="700" height="500" style="" viewBox="0 0 700 500"><rect x="0" y="0" width="700" height="500" style="fill: rgb(255, 255, 255); fill-opacity: 1;"/><defs id="defs-c2de6d"><g class="clips"><clipPath id="clipc2de6dxyplot" class="plotclip"><rect width="540" height="320"/></clipPath><clipPath class="axesclip" id="clipc2de6dx"><rect x="80" y="0" width="540" height="500"/></clipPath><clipPath class="axesclip" id="clipc2de6dy"><rect x="0" y="100" width="700" height="320"/></clipPath><clipPath class="axesclip" id="clipc2de6dxy"><rect x="80" y="100" width="540" height="320"/></clipPath></g><g class="gradients"/><g class="patterns"/></defs><g class="bglayer"><rect class="bg" x="80" y="100" width="540" height="320" style="fill: rgb(229, 236, 246); fill-opacity: 1; stroke-width: 0;"/></g><g class="layer-below"><g class="imagelayer"/><g class="shapelayer"/></g><g class="cartesianlayer"><g class="subplot xy"><g class="layer-subplot"><g class="shapelayer"/><g class="imagelayer"/></g><g class="minor-gridlayer"><g class="x"/><g class="y"/></g><g class="gridlayer"><g class="x"><path class="xgrid crisp" transform="translate(140.56,0)" d="M0,100v320" style="stroke: rgb(255, 255, 255); stroke-opacity: 1; stroke-width: 1px;"/><path class="xgrid crisp" transform="translate(217.52,0)" d="M0,100v320" style="stroke: rgb(255, 255, 255); stroke-opacity: 1; stroke-width: 1px;"/><path class="xgrid crisp" transform="translate(291.96000000000004,0)" d="M0,100v320" style="stroke: rgb(255, 255, 255); stroke-opacity: 1; stroke-width: 1px;"/><path class="xgrid crisp" transform="translate(368.93,0)" d="M0,100v320" style="stroke: rgb(255, 255, 255); stroke-opacity: 1; stroke-width: 1px;"/><path class="xgrid crisp" transform="translate(445.89,0)" d="M0,100v320" style="stroke: rgb(255, 255, 255); stroke-opacity: 1; stroke-width: 1px;"/><path class="xgrid crisp" transform="translate(524.11,0)" d="M0,100v320" style="stroke: rgb(255, 255, 255); stroke-opacity: 1; stroke-width: 1px;"/><path class="xgrid crisp" transform="translate(601.07,0)" d="M0,100v320" style="stroke: rgb(255, 255, 255); stroke-opacity: 1; stroke-width: 1px;"/></g><g class="y"><path class="ygrid crisp" transform="translate(0,322.85)" d="M80,0h540" style="stroke: rgb(255, 255, 255); stroke-opacity: 1; stroke-width: 1px;"/><path class="ygrid crisp" transform="translate(0,252)" d="M80,0h540" style="stroke: rgb(255, 255, 255); stroke-opacity: 1; stroke-width: 1px;"/><path class="ygrid crisp" transform="translate(0,181.15)" d="M80,0h540" style="stroke: rgb(255, 255, 255); stroke-opacity: 1; stroke-width: 1px;"/><path class="ygrid crisp" transform="translate(0,110.3)" d="M80,0h540" style="stroke: rgb(255, 255, 255); stroke-opacity: 1; stroke-width: 1px;"/></g></g><g class="zerolinelayer"><path class="yzl zl crisp" transform="translate(0,393.7)" d="M80,0h540" style="stroke: rgb(255, 255, 255); stroke-opacity: 1; stroke-width: 2px;"/></g><path class="xlines-below"/><path class="ylines-below"/><g class="overlines-below"/><g class="xaxislayer-below"/><g class="yaxislayer-below"/><g class="overaxes-below"/><g class="plot" transform="translate(80,100)" clip-path="url(#clipc2de6dxyplot)"><g class="scatterlayer mlayer"><g class="trace scatter tracee2612a" style="stroke-miterlimit: 2;"><g class="fills"><g><path class="js-fill" d="M540,293.7L0,293.7L0,296.11L1.26,295.51L2.52,297.11L3.79,301.05L5.05,300.59L6.31,302.11L7.57,301.38L10.09,304L11.36,302.43L13.88,301.77L15.14,302.27L17.66,300.6L18.93,299.74L20.19,299.75L21.45,298.69L27.76,295.72L29.02,292.27L35.33,292.03L36.59,291.53L40.37,290.14L41.64,288.98L42.9,287.9L44.16,288.45L45.42,287.56L46.68,283.45L49.21,279.49L50.47,279.96L51.73,279.46L52.99,267.32L56.78,272.07L58.04,271.63L59.3,272.25L60.56,270.73L61.82,270.4L63.08,271.26L64.35,267.03L65.61,267.47L66.87,263.59L68.13,262.92L69.39,262.62L70.65,266.54L71.92,274.47L73.18,273.81L74.44,277.38L75.7,277.63L76.96,285.73L78.22,285.1L79.49,283.51L80.75,284.62L82.01,283.21L83.27,283.34L84.53,281.3L85.79,283.01L87.06,283.38L88.32,282.9L90.84,280.31L92.1,279.09L93.36,277.79L94.63,278.55L95.89,278.46L97.15,276.45L98.41,276.19L99.67,274.85L103.46,273.3L104.72,273.61L105.98,272.07L107.24,272.33L108.5,268.78L109.77,268.6L111.03,267.36L112.29,267.24L113.55,269.22L114.81,266.71L116.07,265.84L117.34,266.38L118.6,266.19L119.86,266.87L121.12,266.28L122.38,267.2L123.64,266.22L124.91,264.22L126.17,264.04L127.43,264.84L133.74,264.3L135,265.19L136.26,267.02L137.52,267.1L138.79,267.39L140.05,265.23L141.31,263.17L142.57,258.18L143.83,257.11L145.09,258.89L147.62,250.79L148.88,245.57L150.14,241.41L151.4,240.09L152.66,242.66L153.93,243.35L156.45,246.46L157.71,251.44L160.23,257.52L161.5,257.67L162.76,267.14L164.02,270.75L165.28,273.5L166.54,274.26L167.8,275.67L169.07,275.34L172.85,277.93L174.11,277.66L176.64,278.55L177.9,277.19L181.68,279.13L182.94,279.53L186.73,278.54L187.99,280.45L189.25,282.05L190.51,282.08L193.04,282.85L194.3,282.32L195.56,281L196.82,281.81L201.87,282.88L203.13,283.13L208.18,285.77L209.44,285.17L214.49,285.3L215.75,286.81L218.27,288.24L219.53,288.63L222.06,289.13L223.32,290.17L225.84,293.48L227.1,291.52L229.63,291.12L230.89,291.45L232.15,291.29L233.41,294.45L235.93,296.18L237.2,296.39L238.46,295.96L239.72,296.42L240.98,295.52L242.24,296.24L247.29,295.81L248.55,294.48L249.81,293.58L251.07,124.16L254.86,123.88L256.12,122.22L257.38,123.04L258.64,122.82L261.17,124.24L262.43,123.07L266.21,123.2L267.48,121.28L268.74,123.08L270,122.99L271.26,122.9L272.52,121.78L273.79,132.99L275.05,132.01L276.31,130.67L277.57,136.13L278.83,133.34L280.09,133.94L281.36,133.97L282.62,132.39L283.88,127.88L285.14,130.37L286.4,130.37L287.66,129.11L288.93,128.48L290.19,131.67L291.45,131.15L292.71,67.05L293.97,66.93L295.23,130.76L296.5,123.73L297.76,126L299.02,125.78L300.28,124.52L301.54,120.56L302.8,124.88L304.07,124.59L305.33,120.93L306.59,119.56L307.85,116.82L309.11,119.18L310.37,115.99L312.9,122.3L314.16,121.01L315.42,123.38L316.68,123.87L317.94,123.33L319.21,124.86L320.47,129.66L321.73,128.34L322.99,129.04L324.25,128.47L326.78,130.51L328.04,135.59L329.3,138.76L330.56,135.62L331.82,135.63L333.08,137.32L334.35,142.09L335.61,138.37L338.13,138.53L339.39,141.3L343.18,145.36L344.44,144.15L346.96,148.89L348.22,148.48L349.49,146.07L350.75,148.56L352.01,150.62L353.27,143.65L354.53,141.34L355.79,146.55L357.06,148.16L358.32,147.64L360.84,146.06L362.1,143.7L363.36,148.45L364.63,147.25L365.89,142.43L367.15,141.84L368.41,141.96L369.67,139.79L370.93,139.21L372.2,126.81L374.72,117.91L375.98,116.73L377.24,120.39L378.5,115.99L381.03,113.39L382.29,103.37L383.55,93.61L384.81,96.61L386.07,105.28L387.34,94.67L388.6,94.04L389.86,102.96L391.12,97.95L392.38,97.15L393.64,99.37L394.91,99.6L396.17,94.98L397.43,94.21L398.69,103.92L399.95,91.21L402.48,75.64L403.74,70.49L407.52,54.2L408.79,57.8L410.05,90.59L411.31,93.91L412.57,81.93L413.83,80.5L416.36,64.66L417.62,63.44L418.88,71.08L420.14,67.35L421.4,60.55L422.66,66.1L425.19,54.54L426.45,77.96L427.71,87.75L428.97,90.28L430.23,87.93L431.5,77.8L434.02,87.36L435.28,29.42L436.54,21.76L437.8,22.06L439.07,16L440.33,30.83L441.59,34.81L442.85,42.16L444.11,24.77L445.37,34.16L446.64,30.42L447.9,31.36L449.16,22.79L450.42,47.79L451.68,51.8L452.94,62.46L454.21,69.32L455.47,31.62L456.73,37.01L457.99,87.25L459.25,74.3L460.51,76.83L461.78,71.84L463.04,72.67L464.3,71.48L465.56,74.48L466.82,63.41L468.08,62.76L469.35,66.08L470.61,62.93L471.87,66.14L473.13,65.82L474.39,70.56L475.65,70.96L476.92,67.69L478.18,67.65L480.7,63.91L481.96,78.09L483.22,107.64L484.49,99.79L485.75,97.09L487.01,98.48L488.27,102.77L489.53,103.78L492.06,103.64L493.32,107.6L494.58,109.52L495.84,116.42L497.1,118.03L498.36,116.8L500.89,119.18L502.15,116.66L503.41,119.2L504.67,118.22L505.93,116.92L507.2,112.35L508.46,113.68L509.72,111.6L510.98,106.37L512.24,84.92L516.03,67.42L517.29,68.21L518.55,68.49L519.81,83.85L521.07,72.8L522.34,84.94L523.6,89.83L524.86,85.04L526.12,88.53L527.38,85.05L531.17,96.4L532.43,93.29L533.69,99.59L534.95,91.52L538.74,49L540,59.66" style="fill: rgb(99, 110, 250); fill-opacity: 0.5; stroke-width: 0;"/></g></g><g class="errorbars"/><g class="lines"><path class="js-line" d="M0,296.11L1.26,295.51L2.52,297.11L3.79,301.05L5.05,300.59L6.31,302.11L7.57,301.38L10.09,304L11.36,302.43L13.88,301.77L15.14,302.27L17.66,300.6L18.93,299.74L20.19,299.75L21.45,298.69L27.76,295.72L29.02,292.27L35.33,292.03L36.59,291.53L40.37,290.14L41.64,288.98L42.9,287.9L44.16,288.45L45.42,287.56L46.68,283.45L49.21,279.49L50.47,279.96L51.73,279.46L52.99,267.32L56.78,272.07L58.04,271.63L59.3,272.25L60.56,270.73L61.82,270.4L63.08,271.26L64.35,267.03L65.61,267.47L66.87,263.59L68.13,262.92L69.39,262.62L70.65,266.54L71.92,274.47L73.18,273.81L74.44,277.38L75.7,277.63L76.96,285.73L78.22,285.1L79.49,283.51L80.75,284.62L82.01,283.21L83.27,283.34L84.53,281.3L85.79,283.01L87.06,283.38L88.32,282.9L90.84,280.31L92.1,279.09L93.36,277.79L94.63,278.55L95.89,278.46L97.15,276.45L98.41,276.19L99.67,274.85L103.46,273.3L104.72,273.61L105.98,272.07L107.24,272.33L108.5,268.78L109.77,268.6L111.03,267.36L112.29,267.24L113.55,269.22L114.81,266.71L116.07,265.84L117.34,266.38L118.6,266.19L119.86,266.87L121.12,266.28L122.38,267.2L123.64,266.22L124.91,264.22L126.17,264.04L127.43,264.84L133.74,264.3L135,265.19L136.26,267.02L137.52,267.1L138.79,267.39L140.05,265.23L141.31,263.17L142.57,258.18L143.83,257.11L145.09,258.89L147.62,250.79L148.88,245.57L150.14,241.41L151.4,240.09L152.66,242.66L153.93,243.35L156.45,246.46L157.71,251.44L160.23,257.52L161.5,257.67L162.76,267.14L164.02,270.75L165.28,273.5L166.54,274.26L167.8,275.67L169.07,275.34L172.85,277.93L174.11,277.66L176.64,278.55L177.9,277.19L181.68,279.13L182.94,279.53L186.73,278.54L187.99,280.45L189.25,282.05L190.51,282.08L193.04,282.85L194.3,282.32L195.56,281L196.82,281.81L201.87,282.88L203.13,283.13L208.18,285.77L209.44,285.17L214.49,285.3L215.75,286.81L218.27,288.24L219.53,288.63L222.06,289.13L223.32,290.17L225.84,293.48L227.1,291.52L229.63,291.12L230.89,291.45L232.15,291.29L233.41,294.45L235.93,296.18L237.2,296.39L238.46,295.96L239.72,296.42L240.98,295.52L242.24,296.24L247.29,295.81L248.55,294.48L249.81,293.58L251.07,124.16L254.86,123.88L256.12,122.22L257.38,123.04L258.64,122.82L261.17,124.24L262.43,123.07L266.21,123.2L267.48,121.28L268.74,123.08L270,122.99L271.26,122.9L272.52,121.78L273.79,132.99L275.05,132.01L276.31,130.67L277.57,136.13L278.83,133.34L280.09,133.94L281.36,133.97L282.62,132.39L283.88,127.88L285.14,130.37L286.4,130.37L287.66,129.11L288.93,128.48L290.19,131.67L291.45,131.15L292.71,67.05L293.97,66.93L295.23,130.76L296.5,123.73L297.76,126L299.02,125.78L300.28,124.52L301.54,120.56L302.8,124.88L304.07,124.59L305.33,120.93L306.59,119.56L307.85,116.82L309.11,119.18L310.37,115.99L312.9,122.3L314.16,121.01L315.42,123.38L316.68,123.87L317.94,123.33L319.21,124.86L320.47,129.66L321.73,128.34L322.99,129.04L324.25,128.47L326.78,130.51L328.04,135.59L329.3,138.76L330.56,135.62L331.82,135.63L333.08,137.32L334.35,142.09L335.61,138.37L338.13,138.53L339.39,141.3L343.18,145.36L344.44,144.15L346.96,148.89L348.22,148.48L349.49,146.07L350.75,148.56L352.01,150.62L353.27,143.65L354.53,141.34L355.79,146.55L357.06,148.16L358.32,147.64L360.84,146.06L362.1,143.7L363.36,148.45L364.63,147.25L365.89,142.43L367.15,141.84L368.41,141.96L369.67,139.79L370.93,139.21L372.2,126.81L374.72,117.91L375.98,116.73L377.24,120.39L378.5,115.99L381.03,113.39L382.29,103.37L383.55,93.61L384.81,96.61L386.07,105.28L387.34,94.67L388.6,94.04L389.86,102.96L391.12,97.95L392.38,97.15L393.64,99.37L394.91,99.6L396.17,94.98L397.43,94.21L398.69,103.92L399.95,91.21L402.48,75.64L403.74,70.49L407.52,54.2L408.79,57.8L410.05,90.59L411.31,93.91L412.57,81.93L413.83,80.5L416.36,64.66L417.62,63.44L418.88,71.08L420.14,67.35L421.4,60.55L422.66,66.1L425.19,54.54L426.45,77.96L427.71,87.75L428.97,90.28L430.23,87.93L431.5,77.8L434.02,87.36L435.28,29.42L436.54,21.76L437.8,22.06L439.07,16L440.33,30.83L441.59,34.81L442.85,42.16L444.11,24.77L445.37,34.16L446.64,30.42L447.9,31.36L449.16,22.79L450.42,47.79L451.68,51.8L452.94,62.46L454.21,69.32L455.47,31.62L456.73,37.01L457.99,87.25L459.25,74.3L460.51,76.83L461.78,71.84L463.04,72.67L464.3,71.48L465.56,74.48L466.82,63.41L468.08,62.76L469.35,66.08L470.61,62.93L471.87,66.14L473.13,65.82L474.39,70.56L475.65,70.96L476.92,67.69L478.18,67.65L480.7,63.91L481.96,78.09L483.22,107.64L484.49,99.79L485.75,97.09L487.01,98.48L488.27,102.77L489.53,103.78L492.06,103.64L493.32,107.6L494.58,109.52L495.84,116.42L497.1,118.03L498.36,116.8L500.89,119.18L502.15,116.66L503.41,119.2L504.67,118.22L505.93,116.92L507.2,112.35L508.46,113.68L509.72,111.6L510.98,106.37L512.24,84.92L516.03,67.42L517.29,68.21L518.55,68.49L519.81,83.85L521.07,72.8L522.34,84.94L523.6,89.83L524.86,85.04L526.12,88.53L527.38,85.05L531.17,96.4L532.43,93.29L533.69,99.59L534.95,91.52L538.74,49L540,59.66" style="vector-effect: none; fill: none; stroke: rgb(99, 110, 250); stroke-opacity: 1; stroke-width: 2px; opacity: 1;"/></g><g class="points"/><g class="text"/></g></g></g><g class="overplot"/><path class="xlines-above crisp" d="M0,0" style="fill: none;"/><path class="ylines-above crisp" d="M0,0" style="fill: none;"/><g class="overlines-above"/><g class="xaxislayer-above"><g class="xtick"><text text-anchor="middle" x="0" y="433" transform="translate(140.56,0)" style="font-family: 'Open Sans', verdana, arial, sans-serif; font-size: 12px; fill: rgb(42, 63, 95); fill-opacity: 1; white-space: pre; opacity: 1;">Nov 2022</text></g><g class="xtick"><text text-anchor="middle" x="0" y="433" style="font-family: 'Open Sans', verdana, arial, sans-serif; font-size: 12px; fill: rgb(42, 63, 95); fill-opacity: 1; white-space: pre; opacity: 1;" transform="translate(217.52,0)">Jan 2023</text></g><g class="xtick"><text text-anchor="middle" x="0" y="433" style="font-family: 'Open Sans', verdana, arial, sans-serif; font-size: 12px; fill: rgb(42, 63, 95); fill-opacity: 1; white-space: pre; opacity: 1;" transform="translate(291.96000000000004,0)">Mar 2023</text></g><g class="xtick"><text text-anchor="middle" x="0" y="433" style="font-family: 'Open Sans', verdana, arial, sans-serif; font-size: 12px; fill: rgb(42, 63, 95); fill-opacity: 1; white-space: pre; opacity: 1;" transform="translate(368.93,0)">May 2023</text></g><g class="xtick"><text text-anchor="middle" x="0" y="433" style="font-family: 'Open Sans', verdana, arial, sans-serif; font-size: 12px; fill: rgb(42, 63, 95); fill-opacity: 1; white-space: pre; opacity: 1;" transform="translate(445.89,0)">Jul 2023</text></g><g class="xtick"><text text-anchor="middle" x="0" y="433" style="font-family: 'Open Sans', verdana, arial, sans-serif; font-size: 12px; fill: rgb(42, 63, 95); fill-opacity: 1; white-space: pre; opacity: 1;" transform="translate(524.11,0)">Sep 2023</text></g><g class="xtick"><text text-anchor="middle" x="0" y="433" style="font-family: 'Open Sans', verdana, arial, sans-serif; font-size: 12px; fill: rgb(42, 63, 95); fill-opacity: 1; white-space: pre; opacity: 1;" transform="translate(601.07,0)">Nov 2023</text></g></g><g class="yaxislayer-above"><g class="ytick"><text text-anchor="end" x="79" y="4.199999999999999" transform="translate(0,393.7)" style="font-family: 'Open Sans', verdana, arial, sans-serif; font-size: 12px; fill: rgb(42, 63, 95); fill-opacity: 1; white-space: pre; opacity: 1;">$0</text></g><g class="ytick"><text text-anchor="end" x="79" y="4.199999999999999" style="font-family: 'Open Sans', verdana, arial, sans-serif; font-size: 12px; fill: rgb(42, 63, 95); fill-opacity: 1; white-space: pre; opacity: 1;" transform="translate(0,322.85)">$1M</text></g><g class="ytick"><text text-anchor="end" x="79" y="4.199999999999999" style="font-family: 'Open Sans', verdana, arial, sans-serif; font-size: 12px; fill: rgb(42, 63, 95); fill-opacity: 1; white-space: pre; opacity: 1;" transform="translate(0,252)">$2M</text></g><g class="ytick"><text text-anchor="end" x="79" y="4.199999999999999" style="font-family: 'Open Sans', verdana, arial, sans-serif; font-size: 12px; fill: rgb(42, 63, 95); fill-opacity: 1; white-space: pre; opacity: 1;" transform="translate(0,181.15)">$3M</text></g><g class="ytick"><text text-anchor="end" x="79" y="4.199999999999999" style="font-family: 'Open Sans', verdana, arial, sans-serif; font-size: 12px; fill: rgb(42, 63, 95); fill-opacity: 1; white-space: pre; opacity: 1;" transform="translate(0,110.3)">$4M</text></g></g><g class="overaxes-above"/></g></g><g class="polarlayer"/><g class="smithlayer"/><g class="ternarylayer"/><g class="geolayer"/><g class="funnelarealayer"/><g class="pielayer"/><g class="iciclelayer"/><g class="treemaplayer"/><g class="sunburstlayer"/><g class="glimages"/><defs id="topdefs-c2de6d"><g class="clips"/></defs><g class="layer-above"><g class="imagelayer"/><g class="shapelayer"/></g><g class="infolayer"><g class="g-gtitle"><text class="gtitle" x="35" y="50" text-anchor="start" dy="0em" style="font-family: 'Open Sans', verdana, arial, sans-serif; font-size: 17px; fill: rgb(42, 63, 95); opacity: 1; font-weight: normal; white-space: pre;"><tspan class="line" dy="0em" x="35" y="50">Polynomial Protocol*</tspan><tspan class="line" dy="1.3em" x="35" y="50">​<tspan style="font-size:70%" dy="-0.6em">Cumulative Net Flows since Program Announcement, Until Program End + 30 Days - At Last Price</tspan><tspan dy="0.42em">​</tspan></tspan></text></g><g class="g-xtitle"><text class="xtitle" x="350" y="460.3" text-anchor="middle" style="font-family: 'Open Sans', verdana, arial, sans-serif; font-size: 14px; fill: rgb(42, 63, 95); opacity: 1; font-weight: normal; white-space: pre;">Day</text></g><g class="g-ytitle"><text class="ytitle" transform="rotate(-90,31.356250000000003,260)" x="31.356250000000003" y="260" text-anchor="middle" style="font-family: 'Open Sans', verdana, arial, sans-serif; font-size: 14px; fill: rgb(42, 63, 95); opacity: 1; font-weight: normal; white-space: pre;">Cumulative Net Flows (USD)</text></g></g></svg>