<svg class="main-svg" xmlns="http://www.w3.org/2000/svg" xmlns:xlink="http://www.w3.org/1999/xlink" width="700" height="500" style="" viewBox="0 0 700 500"><rect x="0" y="0" width="700" height="500" style="fill: rgb(255, 255, 255); fill-opacity: 1;"/><defs id="defs-4ecd1f"><g class="clips"><clipPath id="clip4ecd1fxyplot" class="plotclip"><rect width="540" height="320"/></clipPath><clipPath class="axesclip" id="clip4ecd1fx"><rect x="80" y="0" width="540" height="500"/></clipPath><clipPath class="axesclip" id="clip4ecd1fy"><rect x="0" y="100" width="700" height="320"/></clipPath><clipPath class="axesclip" id="clip4ecd1fxy"><rect x="80" y="100" width="540" height="320"/></clipPath></g><g class="gradients"/><g class="patterns"/></defs><g class="bglayer"><rect class="bg" x="80" y="100" width="540" height="320" style="fill: rgb(229, 236, 246); fill-opacity: 1; stroke-width: 0;"/></g><g class="layer-below"><g class="imagelayer"/><g class="shapelayer"/></g><g class="cartesianlayer"><g class="subplot xy"><g class="layer-subplot"><g class="shapelayer"/><g class="imagelayer"/></g><g class="minor-gridlayer"><g class="x"/><g class="y"/></g><g class="gridlayer"><g class="x"><path class="xgrid crisp" transform="translate(108.76,0)" d="M0,100v320" style="stroke: rgb(255, 255, 255); stroke-opacity: 1; stroke-width: 1px;"/><path class="xgrid crisp" transform="translate(207.81,0)" d="M0,100v320" style="stroke: rgb(255, 255, 255); stroke-opacity: 1; stroke-width: 1px;"/><path class="xgrid crisp" transform="translate(303.66999999999996,0)" d="M0,100v320" style="stroke: rgb(255, 255, 255); stroke-opacity: 1; stroke-width: 1px;"/><path class="xgrid crisp" transform="translate(402.72,0)" d="M0,100v320" style="stroke: rgb(255, 255, 255); stroke-opacity: 1; stroke-width: 1px;"/><path class="xgrid crisp" transform="translate(501.78,0)" d="M0,100v320" style="stroke: rgb(255, 255, 255); stroke-opacity: 1; stroke-width: 1px;"/><path class="xgrid crisp" transform="translate(591.24,0)" d="M0,100v320" style="stroke: rgb(255, 255, 255); stroke-opacity: 1; stroke-width: 1px;"/></g><g class="y"><path class="ygrid crisp" transform="translate(0,383.41)" d="M80,0h540" style="stroke: rgb(255, 255, 255); stroke-opacity: 1; stroke-width: 1px;"/><path class="ygrid crisp" transform="translate(0,346.82)" d="M80,0h540" style="stroke: rgb(255, 255, 255); stroke-opacity: 1; stroke-width: 1px;"/><path class="ygrid crisp" transform="translate(0,310.23)" d="M80,0h540" style="stroke: rgb(255, 255, 255); stroke-opacity: 1; stroke-width: 1px;"/><path class="ygrid crisp" transform="translate(0,273.64)" d="M80,0h540" style="stroke: rgb(255, 255, 255); stroke-opacity: 1; stroke-width: 1px;"/><path class="ygrid crisp" transform="translate(0,237.04)" d="M80,0h540" style="stroke: rgb(255, 255, 255); stroke-opacity: 1; stroke-width: 1px;"/><path class="ygrid crisp" transform="translate(0,200.45)" d="M80,0h540" style="stroke: rgb(255, 255, 255); stroke-opacity: 1; stroke-width: 1px;"/><path class="ygrid crisp" transform="translate(0,163.86)" d="M80,0h540" style="stroke: rgb(255, 255, 255); stroke-opacity: 1; stroke-width: 1px;"/><path class="ygrid crisp" transform="translate(0,127.27)" d="M80,0h540" style="stroke: rgb(255, 255, 255); stroke-opacity: 1; stroke-width: 1px;"/></g></g><g class="zerolinelayer"><path class="yzl zl crisp" transform="translate(0,420)" d="M80,0h540" style="stroke: rgb(255, 255, 255); stroke-opacity: 1; stroke-width: 2px;"/></g><path class="xlines-below"/><path class="ylines-below"/><g class="overlines-below"/><g class="xaxislayer-below"/><g class="yaxislayer-below"/><g class="overaxes-below"/><g class="plot" transform="translate(80,100)" clip-path="url(#clip4ecd1fxyplot)"><g class="scatterlayer mlayer"><g class="trace scatter trace031f09" style="stroke-miterlimit: 2;"><g class="fills"><g><path class="js-fill" d="M540,320L0,320L0,313.33L3.2,304.19L6.39,306.09L9.59,303.76L12.78,315.67L15.98,307.27L19.17,304.97L22.37,305.1L25.56,297.38L28.76,313.43L31.95,300.27L35.15,291.45L38.34,293.26L41.54,298.27L44.73,290.48L47.93,290.95L51.12,285.08L54.32,285.23L57.51,290.01L60.71,287L63.91,287.55L67.1,294.01L70.3,290.36L73.49,289.88L76.69,293.06L79.88,292.95L83.08,289.59L86.27,284.95L89.47,283.67L92.66,277.22L95.86,278.29L99.05,276.49L102.25,279.24L105.44,280.75L108.64,268.17L111.83,210.85L115.03,107.43L118.22,83.8L121.42,82.14L127.81,58.3L131.01,61.67L134.2,33.85L137.4,36.62L140.59,38.56L143.79,46.74L146.98,50L150.18,41.44L153.37,65.32L156.57,96.4L159.76,86.92L162.96,92.2L166.15,94.48L169.35,99.16L172.54,98.88L175.74,92.94L178.93,90.85L182.13,93.18L185.33,92.9L188.52,102.32L191.72,91.47L194.91,87.56L198.11,87.79L201.3,90.7L204.5,88.26L207.69,87.67L210.89,95.83L214.08,108.27L217.28,99.17L220.47,63.93L223.67,60.91L226.86,64.56L230.06,75.55L233.25,77.44L236.45,81.07L239.64,75.64L246.04,76.71L249.23,77.3L252.43,87.46L255.62,86.36L262.01,87.26L265.21,75.55L268.4,79.03L271.6,67.91L274.79,68.69L277.99,46.35L281.18,55.34L284.38,52.77L287.57,70.83L290.77,64.28L293.96,76.25L297.16,73.77L300.36,75.34L303.55,77.9L306.75,75.74L309.94,85.5L313.14,88.48L316.33,89.6L319.53,89.58L322.72,90.74L325.92,86.58L329.11,84.22L332.31,73.07L335.5,89.74L338.7,98.45L341.89,104.01L345.09,105.32L348.28,101.07L351.48,98.87L354.67,113.71L357.87,119.17L361.07,116.2L364.26,125.29L367.46,125.42L373.85,163.2L377.04,194.12L380.24,197.34L383.43,192.7L386.63,195.96L389.82,184.98L393.02,189.82L396.21,184.14L399.41,191.56L402.6,181.61L405.8,178.34L408.99,180.24L412.19,176.95L415.38,171.34L418.58,163.61L421.78,161.13L424.97,168.89L428.17,164.14L437.75,152.84L440.95,148.76L444.14,158.18L447.34,158.22L456.92,140.05L460.12,140.63L463.31,136.73L466.51,140.28L469.7,155.23L472.9,153.57L476.09,149L479.29,164.71L482.49,149.89L485.68,151.11L488.88,144.44L492.07,154.85L498.46,113.31L501.66,98.8L504.85,106.26L508.05,87.02L511.24,80.83L514.44,83.15L517.63,70.14L520.83,73.69L530.41,34.4L533.61,30.75L536.8,41.43L540,16" style="fill: rgb(99, 110, 250); fill-opacity: 0.5; stroke-width: 0;"/></g></g><g class="errorbars"/><g class="lines"><path class="js-line" d="M0,313.33L3.2,304.19L6.39,306.09L9.59,303.76L12.78,315.67L15.98,307.27L19.17,304.97L22.37,305.1L25.56,297.38L28.76,313.43L31.95,300.27L35.15,291.45L38.34,293.26L41.54,298.27L44.73,290.48L47.93,290.95L51.12,285.08L54.32,285.23L57.51,290.01L60.71,287L63.91,287.55L67.1,294.01L70.3,290.36L73.49,289.88L76.69,293.06L79.88,292.95L83.08,289.59L86.27,284.95L89.47,283.67L92.66,277.22L95.86,278.29L99.05,276.49L102.25,279.24L105.44,280.75L108.64,268.17L111.83,210.85L115.03,107.43L118.22,83.8L121.42,82.14L127.81,58.3L131.01,61.67L134.2,33.85L137.4,36.62L140.59,38.56L143.79,46.74L146.98,50L150.18,41.44L153.37,65.32L156.57,96.4L159.76,86.92L162.96,92.2L166.15,94.48L169.35,99.16L172.54,98.88L175.74,92.94L178.93,90.85L182.13,93.18L185.33,92.9L188.52,102.32L191.72,91.47L194.91,87.56L198.11,87.79L201.3,90.7L204.5,88.26L207.69,87.67L210.89,95.83L214.08,108.27L217.28,99.17L220.47,63.93L223.67,60.91L226.86,64.56L230.06,75.55L233.25,77.44L236.45,81.07L239.64,75.64L246.04,76.71L249.23,77.3L252.43,87.46L255.62,86.36L262.01,87.26L265.21,75.55L268.4,79.03L271.6,67.91L274.79,68.69L277.99,46.35L281.18,55.34L284.38,52.77L287.57,70.83L290.77,64.28L293.96,76.25L297.16,73.77L300.36,75.34L303.55,77.9L306.75,75.74L309.94,85.5L313.14,88.48L316.33,89.6L319.53,89.58L322.72,90.74L325.92,86.58L329.11,84.22L332.31,73.07L335.5,89.74L338.7,98.45L341.89,104.01L345.09,105.32L348.28,101.07L351.48,98.87L354.67,113.71L357.87,119.17L361.07,116.2L364.26,125.29L367.46,125.42L373.85,163.2L377.04,194.12L380.24,197.34L383.43,192.7L386.63,195.96L389.82,184.98L393.02,189.82L396.21,184.14L399.41,191.56L402.6,181.61L405.8,178.34L408.99,180.24L412.19,176.95L415.38,171.34L418.58,163.61L421.78,161.13L424.97,168.89L428.17,164.14L437.75,152.84L440.95,148.76L444.14,158.18L447.34,158.22L456.92,140.05L460.12,140.63L463.31,136.73L466.51,140.28L469.7,155.23L472.9,153.57L476.09,149L479.29,164.71L482.49,149.89L485.68,151.11L488.88,144.44L492.07,154.85L498.46,113.31L501.66,98.8L504.85,106.26L508.05,87.02L511.24,80.83L514.44,83.15L517.63,70.14L520.83,73.69L530.41,34.4L533.61,30.75L536.8,41.43L540,16" style="vector-effect: non-scaling-stroke; fill: none; stroke: rgb(99, 110, 250); stroke-opacity: 1; stroke-width: 2px; opacity: 1;"/></g><g class="points"/><g class="text"/></g></g></g><g class="overplot"/><path class="xlines-above crisp" d="M0,0" style="fill: none;"/><path class="ylines-above crisp" d="M0,0" style="fill: none;"/><g class="overlines-above"/><g class="xaxislayer-above"><g class="xtick"><text text-anchor="middle" x="0" y="433" transform="translate(108.76,0)" style="font-family: 'Open Sans', verdana, arial, sans-serif; font-size: 12px; fill: rgb(42, 63, 95); fill-opacity: 1; white-space: pre; opacity: 1;">Oct 2022</text></g><g class="xtick"><text text-anchor="middle" x="0" y="433" style="font-family: 'Open Sans', verdana, arial, sans-serif; font-size: 12px; fill: rgb(42, 63, 95); fill-opacity: 1; white-space: pre; opacity: 1;" transform="translate(207.81,0)">Nov 2022</text></g><g class="xtick"><text text-anchor="middle" x="0" y="433" style="font-family: 'Open Sans', verdana, arial, sans-serif; font-size: 12px; fill: rgb(42, 63, 95); fill-opacity: 1; white-space: pre; opacity: 1;" transform="translate(303.66999999999996,0)">Dec 2022</text></g><g class="xtick"><text text-anchor="middle" x="0" y="433" style="font-family: 'Open Sans', verdana, arial, sans-serif; font-size: 12px; fill: rgb(42, 63, 95); fill-opacity: 1; white-space: pre; opacity: 1;" transform="translate(402.72,0)">Jan 2023</text></g><g class="xtick"><text text-anchor="middle" x="0" y="433" style="font-family: 'Open Sans', verdana, arial, sans-serif; font-size: 12px; fill: rgb(42, 63, 95); fill-opacity: 1; white-space: pre; opacity: 1;" transform="translate(501.78,0)">Feb 2023</text></g><g class="xtick"><text text-anchor="middle" x="0" y="433" style="font-family: 'Open Sans', verdana, arial, sans-serif; font-size: 12px; fill: rgb(42, 63, 95); fill-opacity: 1; white-space: pre; opacity: 1;" transform="translate(591.24,0)">Mar 2023</text></g></g><g class="yaxislayer-above"><g class="ytick"><text text-anchor="end" x="79" y="4.199999999999999" transform="translate(0,420)" style="font-family: 'Open Sans', verdana, arial, sans-serif; font-size: 12px; fill: rgb(42, 63, 95); fill-opacity: 1; white-space: pre; opacity: 1;">$0</text></g><g class="ytick"><text text-anchor="end" x="79" y="4.199999999999999" style="font-family: 'Open Sans', verdana, arial, sans-serif; font-size: 12px; fill: rgb(42, 63, 95); fill-opacity: 1; white-space: pre; opacity: 1;" transform="translate(0,383.41)">$1M</text></g><g class="ytick"><text text-anchor="end" x="79" y="4.199999999999999" style="font-family: 'Open Sans', verdana, arial, sans-serif; font-size: 12px; fill: rgb(42, 63, 95); fill-opacity: 1; white-space: pre; opacity: 1;" transform="translate(0,346.82)">$2M</text></g><g class="ytick"><text text-anchor="end" x="79" y="4.199999999999999" style="font-family: 'Open Sans', verdana, arial, sans-serif; font-size: 12px; fill: rgb(42, 63, 95); fill-opacity: 1; white-space: pre; opacity: 1;" transform="translate(0,310.23)">$3M</text></g><g class="ytick"><text text-anchor="end" x="79" y="4.199999999999999" style="font-family: 'Open Sans', verdana, arial, sans-serif; font-size: 12px; fill: rgb(42, 63, 95); fill-opacity: 1; white-space: pre; opacity: 1;" transform="translate(0,273.64)">$4M</text></g><g class="ytick"><text text-anchor="end" x="79" y="4.199999999999999" style="font-family: 'Open Sans', verdana, arial, sans-serif; font-size: 12px; fill: rgb(42, 63, 95); fill-opacity: 1; white-space: pre; opacity: 1;" transform="translate(0,237.04)">$5M</text></g><g class="ytick"><text text-anchor="end" x="79" y="4.199999999999999" style="font-family: 'Open Sans', verdana, arial, sans-serif; font-size: 12px; fill: rgb(42, 63, 95); fill-opacity: 1; white-space: pre; opacity: 1;" transform="translate(0,200.45)">$6M</text></g><g class="ytick"><text text-anchor="end" x="79" y="4.199999999999999" style="font-family: 'Open Sans', verdana, arial, sans-serif; font-size: 12px; fill: rgb(42, 63, 95); fill-opacity: 1; white-space: pre; opacity: 1;" transform="translate(0,163.86)">$7M</text></g><g class="ytick"><text text-anchor="end" x="79" y="4.199999999999999" style="font-family: 'Open Sans', verdana, arial, sans-serif; font-size: 12px; fill: rgb(42, 63, 95); fill-opacity: 1; white-space: pre; opacity: 1;" transform="translate(0,127.27)">$8M</text></g></g><g class="overaxes-above"/></g></g><g class="polarlayer"/><g class="smithlayer"/><g class="ternarylayer"/><g class="geolayer"/><g class="funnelarealayer"/><g class="pielayer"/><g class="iciclelayer"/><g class="treemaplayer"/><g class="sunburstlayer"/><g class="glimages"/><defs id="topdefs-4ecd1f"><g class="clips"/></defs><g class="layer-above"><g class="imagelayer"/><g class="shapelayer"/></g><g class="infolayer"><g class="g-gtitle"><text class="gtitle" x="35" y="50" text-anchor="start" dy="0em" style="font-family: 'Open Sans', verdana, arial, sans-serif; font-size: 17px; fill: rgb(42, 63, 95); opacity: 1; font-weight: normal; white-space: pre;"><tspan class="line" dy="0em" x="35" y="50">Hop Protocol</tspan><tspan class="line" dy="1.3em" x="35" y="50">​<tspan style="font-size:70%" dy="-0.6em">Cumulative Net Flows since Program Announcement, Until Program End + 30 Days - At Last Price</tspan><tspan dy="0.42em">​</tspan></tspan></text></g><g class="g-xtitle"><text class="xtitle" x="350" y="459.8" text-anchor="middle" style="font-family: 'Open Sans', verdana, arial, sans-serif; font-size: 14px; fill: rgb(42, 63, 95); opacity: 1; font-weight: normal; white-space: pre;">Day</text></g><g class="g-ytitle"><text class="ytitle" transform="rotate(-90,29.325000000000003,260)" x="29.325000000000003" y="260" text-anchor="middle" style="font-family: 'Open Sans', verdana, arial, sans-serif; font-size: 14px; fill: rgb(42, 63, 95); opacity: 1; font-weight: normal; white-space: pre;">Cumulative Net Flows (USD)</text></g></g></svg>