<svg class="main-svg" xmlns="http://www.w3.org/2000/svg" xmlns:xlink="http://www.w3.org/1999/xlink" width="700" height="500" style="" viewBox="0 0 700 500"><rect x="0" y="0" width="700" height="500" style="fill: rgb(255, 255, 255); fill-opacity: 1;"/><defs id="defs-c04c6c"><g class="clips"><clipPath id="clipc04c6cxyplot" class="plotclip"><rect width="540" height="320"/></clipPath><clipPath class="axesclip" id="clipc04c6cx"><rect x="80" y="0" width="540" height="500"/></clipPath><clipPath class="axesclip" id="clipc04c6cy"><rect x="0" y="100" width="700" height="320"/></clipPath><clipPath class="axesclip" id="clipc04c6cxy"><rect x="80" y="100" width="540" height="320"/></clipPath></g><g class="gradients"/><g class="patterns"/></defs><g class="bglayer"><rect class="bg" x="80" y="100" width="540" height="320" style="fill: rgb(229, 236, 246); fill-opacity: 1; stroke-width: 0;"/></g><g class="layer-below"><g class="imagelayer"/><g class="shapelayer"/></g><g class="cartesianlayer"><g class="subplot xy"><g class="layer-subplot"><g class="shapelayer"/><g class="imagelayer"/></g><g class="minor-gridlayer"><g class="x"/><g class="y"/></g><g class="gridlayer"><g class="x"><path class="xgrid crisp" transform="translate(85.09,0)" d="M0,100v320" style="stroke: rgb(255, 255, 255); stroke-opacity: 1; stroke-width: 1px;"/><path class="xgrid crisp" transform="translate(164.06,0)" d="M0,100v320" style="stroke: rgb(255, 255, 255); stroke-opacity: 1; stroke-width: 1px;"/><path class="xgrid crisp" transform="translate(240.47,0)" d="M0,100v320" style="stroke: rgb(255, 255, 255); stroke-opacity: 1; stroke-width: 1px;"/><path class="xgrid crisp" transform="translate(319.43,0)" d="M0,100v320" style="stroke: rgb(255, 255, 255); stroke-opacity: 1; stroke-width: 1px;"/><path class="xgrid crisp" transform="translate(398.4,0)" d="M0,100v320" style="stroke: rgb(255, 255, 255); stroke-opacity: 1; stroke-width: 1px;"/><path class="xgrid crisp" transform="translate(469.72,0)" d="M0,100v320" style="stroke: rgb(255, 255, 255); stroke-opacity: 1; stroke-width: 1px;"/><path class="xgrid crisp" transform="translate(548.6800000000001,0)" d="M0,100v320" style="stroke: rgb(255, 255, 255); stroke-opacity: 1; stroke-width: 1px;"/></g><g class="y"><path class="ygrid crisp" transform="translate(0,382.97)" d="M80,0h540" style="stroke: rgb(255, 255, 255); stroke-opacity: 1; stroke-width: 1px;"/><path class="ygrid crisp" transform="translate(0,345.94)" d="M80,0h540" style="stroke: rgb(255, 255, 255); stroke-opacity: 1; stroke-width: 1px;"/><path class="ygrid crisp" transform="translate(0,308.9)" d="M80,0h540" style="stroke: rgb(255, 255, 255); stroke-opacity: 1; stroke-width: 1px;"/><path class="ygrid crisp" transform="translate(0,271.87)" d="M80,0h540" style="stroke: rgb(255, 255, 255); stroke-opacity: 1; stroke-width: 1px;"/><path class="ygrid crisp" transform="translate(0,234.84)" d="M80,0h540" style="stroke: rgb(255, 255, 255); stroke-opacity: 1; stroke-width: 1px;"/><path class="ygrid crisp" transform="translate(0,197.81)" d="M80,0h540" style="stroke: rgb(255, 255, 255); stroke-opacity: 1; stroke-width: 1px;"/><path class="ygrid crisp" transform="translate(0,160.78)" d="M80,0h540" style="stroke: rgb(255, 255, 255); stroke-opacity: 1; stroke-width: 1px;"/><path class="ygrid crisp" transform="translate(0,123.74)" d="M80,0h540" style="stroke: rgb(255, 255, 255); stroke-opacity: 1; stroke-width: 1px;"/></g></g><g class="zerolinelayer"><path class="yzl zl crisp" transform="translate(0,420)" d="M80,0h540" style="stroke: rgb(255, 255, 255); stroke-opacity: 1; stroke-width: 2px;"/></g><path class="xlines-below"/><path class="ylines-below"/><g class="overlines-below"/><g class="xaxislayer-below"/><g class="yaxislayer-below"/><g class="overaxes-below"/><g class="plot" transform="translate(80,100)" clip-path="url(#clipc04c6cxyplot)"><g class="scatterlayer mlayer"><g class="trace scatter trace6f9f15" style="stroke-miterlimit: 2;"><g class="fills"><g><path class="js-fill" d="M540,320L0,320L0,319.8L2.55,295.63L5.09,286.06L7.64,279.75L10.19,286.61L12.74,272.79L15.28,270.98L17.83,273.75L20.38,268.91L25.47,249.7L28.02,224.78L30.57,225.61L33.11,220.91L35.66,220.21L38.21,225.07L40.75,229.04L43.3,228.9L45.85,226.52L48.4,225.57L53.49,224.58L56.04,228.4L58.58,228.35L61.13,227.45L63.68,226.12L66.23,231.48L68.77,219.13L71.32,213.92L73.87,212.56L76.42,208.35L81.51,196.13L84.06,192.48L86.6,196.97L89.15,197.79L96.79,181.4L99.34,186.44L101.89,186.43L104.43,206.19L106.98,226.61L109.53,221.56L114.62,220.97L117.17,222.5L119.72,220.62L122.26,219.71L124.81,220.34L127.36,223.15L129.91,220.98L132.45,220.8L135,225.21L137.55,224.37L145.19,213.87L147.74,214.07L150.28,212.58L152.83,213.25L155.38,216.84L157.92,215.07L160.47,210.31L163.02,207.98L168.11,217.38L170.66,216.86L173.21,219.4L175.75,227.83L178.3,232.56L180.85,230.97L183.4,229.7L185.94,223.58L188.49,224.61L191.04,222.57L193.58,217.19L196.13,218.59L201.23,225.48L203.77,224.56L206.32,224.24L208.87,224.98L211.42,221.75L213.96,222.39L216.51,209.46L219.06,209.74L221.6,210.85L224.15,210.3L226.7,209.37L229.25,207.56L231.79,209.44L234.34,208.08L241.98,204.79L244.53,201.06L252.17,198.27L254.72,212.58L257.26,213.42L259.81,208.02L262.36,205.38L264.91,205.41L267.45,199.63L270,198.63L272.55,180.37L275.09,170.63L277.64,164.68L280.19,161.74L282.74,163.53L285.28,170.36L287.83,185.52L290.38,178.73L295.47,201.33L298.02,182.34L300.57,191.4L303.11,189.83L305.66,186.57L308.21,185.86L313.3,177.91L315.85,209.87L318.4,210.71L320.94,203.54L323.49,195.42L326.04,196.65L331.13,191.23L333.68,193.79L336.23,147.72L338.77,150.44L341.32,152.05L343.87,159.04L346.42,149.28L348.96,154.87L351.51,136.57L354.06,128.89L356.6,112.46L359.15,119.25L361.7,102.86L364.25,101.58L366.79,105.55L369.34,86.69L371.89,91.02L374.43,93.74L376.98,90.72L379.53,109.56L382.08,96.56L384.62,88.97L389.72,90.48L392.26,83.41L394.81,84.61L397.36,84.25L402.45,83.69L405,78.39L407.55,123.68L410.09,123.64L412.64,113.32L415.19,121.26L417.74,127.13L420.28,125.58L422.83,119.96L425.38,110.44L427.92,105.01L430.47,102.85L433.02,63.9L435.57,77.53L438.11,78.09L440.66,70.27L443.21,58.04L445.75,59.51L448.3,60.66L450.85,60L453.4,58.89L455.94,60.16L458.49,59.26L461.04,60.77L463.58,37.15L466.13,31.92L468.68,30.6L471.23,39.6L473.77,42.29L476.32,42.86L481.42,40.3L483.96,28.44L486.51,23.15L489.06,32.85L491.6,33.71L494.15,19.62L496.7,17.26L499.25,17.14L501.79,16L504.34,24.85L506.89,27.3L509.43,28.46L511.98,36.87L514.53,34.93L517.08,35.24L519.62,45.78L524.72,46.14L527.26,46.32L529.81,45.09L532.36,34.6L537.45,31.91L540,32.52" style="fill: rgb(99, 110, 250); fill-opacity: 0.5; stroke-width: 0;"/></g></g><g class="errorbars"/><g class="lines"><path class="js-line" d="M0,319.8L2.55,295.63L5.09,286.06L7.64,279.75L10.19,286.61L12.74,272.79L15.28,270.98L17.83,273.75L20.38,268.91L25.47,249.7L28.02,224.78L30.57,225.61L33.11,220.91L35.66,220.21L38.21,225.07L40.75,229.04L43.3,228.9L45.85,226.52L48.4,225.57L53.49,224.58L56.04,228.4L58.58,228.35L61.13,227.45L63.68,226.12L66.23,231.48L68.77,219.13L71.32,213.92L73.87,212.56L76.42,208.35L81.51,196.13L84.06,192.48L86.6,196.97L89.15,197.79L96.79,181.4L99.34,186.44L101.89,186.43L104.43,206.19L106.98,226.61L109.53,221.56L114.62,220.97L117.17,222.5L119.72,220.62L122.26,219.71L124.81,220.34L127.36,223.15L129.91,220.98L132.45,220.8L135,225.21L137.55,224.37L145.19,213.87L147.74,214.07L150.28,212.58L152.83,213.25L155.38,216.84L157.92,215.07L160.47,210.31L163.02,207.98L168.11,217.38L170.66,216.86L173.21,219.4L175.75,227.83L178.3,232.56L180.85,230.97L183.4,229.7L185.94,223.58L188.49,224.61L191.04,222.57L193.58,217.19L196.13,218.59L201.23,225.48L203.77,224.56L206.32,224.24L208.87,224.98L211.42,221.75L213.96,222.39L216.51,209.46L219.06,209.74L221.6,210.85L224.15,210.3L226.7,209.37L229.25,207.56L231.79,209.44L234.34,208.08L241.98,204.79L244.53,201.06L252.17,198.27L254.72,212.58L257.26,213.42L259.81,208.02L262.36,205.38L264.91,205.41L267.45,199.63L270,198.63L272.55,180.37L275.09,170.63L277.64,164.68L280.19,161.74L282.74,163.53L285.28,170.36L287.83,185.52L290.38,178.73L295.47,201.33L298.02,182.34L300.57,191.4L303.11,189.83L305.66,186.57L308.21,185.86L313.3,177.91L315.85,209.87L318.4,210.71L320.94,203.54L323.49,195.42L326.04,196.65L331.13,191.23L333.68,193.79L336.23,147.72L338.77,150.44L341.32,152.05L343.87,159.04L346.42,149.28L348.96,154.87L351.51,136.57L354.06,128.89L356.6,112.46L359.15,119.25L361.7,102.86L364.25,101.58L366.79,105.55L369.34,86.69L371.89,91.02L374.43,93.74L376.98,90.72L379.53,109.56L382.08,96.56L384.62,88.97L389.72,90.48L392.26,83.41L394.81,84.61L397.36,84.25L402.45,83.69L405,78.39L407.55,123.68L410.09,123.64L412.64,113.32L415.19,121.26L417.74,127.13L420.28,125.58L422.83,119.96L425.38,110.44L427.92,105.01L430.47,102.85L433.02,63.9L435.57,77.53L438.11,78.09L440.66,70.27L443.21,58.04L445.75,59.51L448.3,60.66L450.85,60L453.4,58.89L455.94,60.16L458.49,59.26L461.04,60.77L463.58,37.15L466.13,31.92L468.68,30.6L471.23,39.6L473.77,42.29L476.32,42.86L481.42,40.3L483.96,28.44L486.51,23.15L489.06,32.85L491.6,33.71L494.15,19.62L496.7,17.26L499.25,17.14L501.79,16L504.34,24.85L506.89,27.3L509.43,28.46L511.98,36.87L514.53,34.93L517.08,35.24L519.62,45.78L524.72,46.14L527.26,46.32L529.81,45.09L532.36,34.6L537.45,31.91L540,32.52" style="vector-effect: non-scaling-stroke; fill: none; stroke: rgb(99, 110, 250); stroke-opacity: 1; stroke-width: 2px; opacity: 1;"/></g><g class="points"/><g class="text"/></g></g></g><g class="overplot"/><path class="xlines-above crisp" d="M0,0" style="fill: none;"/><path class="ylines-above crisp" d="M0,0" style="fill: none;"/><g class="overlines-above"/><g class="xaxislayer-above"><g class="xtick"><text text-anchor="middle" x="0" y="433" transform="translate(85.09,0)" style="font-family: 'Open Sans', verdana, arial, sans-serif; font-size: 12px; fill: rgb(42, 63, 95); fill-opacity: 1; white-space: pre; opacity: 1;">Oct 2022</text></g><g class="xtick"><text text-anchor="middle" x="0" y="433" style="font-family: 'Open Sans', verdana, arial, sans-serif; font-size: 12px; fill: rgb(42, 63, 95); fill-opacity: 1; white-space: pre; opacity: 1;" transform="translate(164.06,0)">Nov 2022</text></g><g class="xtick"><text text-anchor="middle" x="0" y="433" style="font-family: 'Open Sans', verdana, arial, sans-serif; font-size: 12px; fill: rgb(42, 63, 95); fill-opacity: 1; white-space: pre; opacity: 1;" transform="translate(240.47,0)">Dec 2022</text></g><g class="xtick"><text text-anchor="middle" x="0" y="433" style="font-family: 'Open Sans', verdana, arial, sans-serif; font-size: 12px; fill: rgb(42, 63, 95); fill-opacity: 1; white-space: pre; opacity: 1;" transform="translate(319.43,0)">Jan 2023</text></g><g class="xtick"><text text-anchor="middle" x="0" y="433" style="font-family: 'Open Sans', verdana, arial, sans-serif; font-size: 12px; fill: rgb(42, 63, 95); fill-opacity: 1; white-space: pre; opacity: 1;" transform="translate(398.4,0)">Feb 2023</text></g><g class="xtick"><text text-anchor="middle" x="0" y="433" style="font-family: 'Open Sans', verdana, arial, sans-serif; font-size: 12px; fill: rgb(42, 63, 95); fill-opacity: 1; white-space: pre; opacity: 1;" transform="translate(469.72,0)">Mar 2023</text></g><g class="xtick"><text text-anchor="middle" x="0" y="433" style="font-family: 'Open Sans', verdana, arial, sans-serif; font-size: 12px; fill: rgb(42, 63, 95); fill-opacity: 1; white-space: pre; opacity: 1;" transform="translate(548.6800000000001,0)">Apr 2023</text></g></g><g class="yaxislayer-above"><g class="ytick"><text text-anchor="end" x="79" y="4.199999999999999" transform="translate(0,420)" style="font-family: 'Open Sans', verdana, arial, sans-serif; font-size: 12px; fill: rgb(42, 63, 95); fill-opacity: 1; white-space: pre; opacity: 1;">$0</text></g><g class="ytick"><text text-anchor="end" x="79" y="4.199999999999999" style="font-family: 'Open Sans', verdana, arial, sans-serif; font-size: 12px; fill: rgb(42, 63, 95); fill-opacity: 1; white-space: pre; opacity: 1;" transform="translate(0,382.97)">$5M</text></g><g class="ytick"><text text-anchor="end" x="79" y="4.199999999999999" style="font-family: 'Open Sans', verdana, arial, sans-serif; font-size: 12px; fill: rgb(42, 63, 95); fill-opacity: 1; white-space: pre; opacity: 1;" transform="translate(0,345.94)">$10M</text></g><g class="ytick"><text text-anchor="end" x="79" y="4.199999999999999" style="font-family: 'Open Sans', verdana, arial, sans-serif; font-size: 12px; fill: rgb(42, 63, 95); fill-opacity: 1; white-space: pre; opacity: 1;" transform="translate(0,308.9)">$15M</text></g><g class="ytick"><text text-anchor="end" x="79" y="4.199999999999999" style="font-family: 'Open Sans', verdana, arial, sans-serif; font-size: 12px; fill: rgb(42, 63, 95); fill-opacity: 1; white-space: pre; opacity: 1;" transform="translate(0,271.87)">$20M</text></g><g class="ytick"><text text-anchor="end" x="79" y="4.199999999999999" style="font-family: 'Open Sans', verdana, arial, sans-serif; font-size: 12px; fill: rgb(42, 63, 95); fill-opacity: 1; white-space: pre; opacity: 1;" transform="translate(0,234.84)">$25M</text></g><g class="ytick"><text text-anchor="end" x="79" y="4.199999999999999" style="font-family: 'Open Sans', verdana, arial, sans-serif; font-size: 12px; fill: rgb(42, 63, 95); fill-opacity: 1; white-space: pre; opacity: 1;" transform="translate(0,197.81)">$30M</text></g><g class="ytick"><text text-anchor="end" x="79" y="4.199999999999999" style="font-family: 'Open Sans', verdana, arial, sans-serif; font-size: 12px; fill: rgb(42, 63, 95); fill-opacity: 1; white-space: pre; opacity: 1;" transform="translate(0,160.78)">$35M</text></g><g class="ytick"><text text-anchor="end" x="79" y="4.199999999999999" style="font-family: 'Open Sans', verdana, arial, sans-serif; font-size: 12px; fill: rgb(42, 63, 95); fill-opacity: 1; white-space: pre; opacity: 1;" transform="translate(0,123.74)">$40M</text></g></g><g class="overaxes-above"/></g></g><g class="polarlayer"/><g class="smithlayer"/><g class="ternarylayer"/><g class="geolayer"/><g class="funnelarealayer"/><g class="pielayer"/><g class="iciclelayer"/><g class="treemaplayer"/><g class="sunburstlayer"/><g class="glimages"/><defs id="topdefs-c04c6c"><g class="clips"/></defs><g class="layer-above"><g class="imagelayer"/><g class="shapelayer"/></g><g class="infolayer"><g class="g-gtitle"><text class="gtitle" x="35" y="50" text-anchor="start" dy="0em" style="font-family: 'Open Sans', verdana, arial, sans-serif; font-size: 17px; fill: rgb(42, 63, 95); opacity: 1; font-weight: normal; white-space: pre;"><tspan class="line" dy="0em" x="35" y="50">Beethoven X</tspan><tspan class="line" dy="1.3em" x="35" y="50">​<tspan style="font-size:70%" dy="-0.6em">Cumulative Net Flows since Program Announcement, Until Program End + 30 Days - At Last Price</tspan><tspan dy="0.42em">​</tspan></tspan></text></g><g class="g-xtitle"><text class="xtitle" x="350" y="460.3" text-anchor="middle" style="font-family: 'Open Sans', verdana, arial, sans-serif; font-size: 14px; fill: rgb(42, 63, 95); opacity: 1; font-weight: normal; white-space: pre;">Day</text></g><g class="g-ytitle"><text class="ytitle" transform="rotate(-90,21.200000000000003,260)" x="21.200000000000003" y="260" text-anchor="middle" style="font-family: 'Open Sans', verdana, arial, sans-serif; font-size: 14px; fill: rgb(42, 63, 95); opacity: 1; font-weight: normal; white-space: pre;">Cumulative Net Flows (USD)</text></g></g></svg>