<svg class="main-svg" xmlns="http://www.w3.org/2000/svg" xmlns:xlink="http://www.w3.org/1999/xlink" width="700" height="500" style="" viewBox="0 0 700 500"><rect x="0" y="0" width="700" height="500" style="fill: rgb(255, 255, 255); fill-opacity: 1;"/><defs id="defs-256f17"><g class="clips"><clipPath id="clip256f17xyplot" class="plotclip"><rect width="540" height="320"/></clipPath><clipPath class="axesclip" id="clip256f17x"><rect x="80" y="0" width="540" height="500"/></clipPath><clipPath class="axesclip" id="clip256f17y"><rect x="0" y="100" width="700" height="320"/></clipPath><clipPath class="axesclip" id="clip256f17xy"><rect x="80" y="100" width="540" height="320"/></clipPath></g><g class="gradients"/><g class="patterns"/></defs><g class="bglayer"><rect class="bg" x="80" y="100" width="540" height="320" style="fill: rgb(229, 236, 246); fill-opacity: 1; stroke-width: 0;"/></g><g class="layer-below"><g class="imagelayer"/><g class="shapelayer"/></g><g class="cartesianlayer"><g class="subplot xy"><g class="layer-subplot"><g class="shapelayer"/><g class="imagelayer"/></g><g class="minor-gridlayer"><g class="x"/><g class="y"/></g><g class="gridlayer"><g class="x"><path class="xgrid crisp" transform="translate(117.41,0)" d="M0,100v320" style="stroke: rgb(255, 255, 255); stroke-opacity: 1; stroke-width: 1px;"/><path class="xgrid crisp" transform="translate(193.49,0)" d="M0,100v320" style="stroke: rgb(255, 255, 255); stroke-opacity: 1; stroke-width: 1px;"/><path class="xgrid crisp" transform="translate(269.56,0)" d="M0,100v320" style="stroke: rgb(255, 255, 255); stroke-opacity: 1; stroke-width: 1px;"/><path class="xgrid crisp" transform="translate(343.14,0)" d="M0,100v320" style="stroke: rgb(255, 255, 255); stroke-opacity: 1; stroke-width: 1px;"/><path class="xgrid crisp" transform="translate(419.21,0)" d="M0,100v320" style="stroke: rgb(255, 255, 255); stroke-opacity: 1; stroke-width: 1px;"/><path class="xgrid crisp" transform="translate(495.29,0)" d="M0,100v320" style="stroke: rgb(255, 255, 255); stroke-opacity: 1; stroke-width: 1px;"/><path class="xgrid crisp" transform="translate(572.61,0)" d="M0,100v320" style="stroke: rgb(255, 255, 255); stroke-opacity: 1; stroke-width: 1px;"/></g><g class="y"><path class="ygrid crisp" transform="translate(0,303.46000000000004)" d="M80,0h540" style="stroke: rgb(255, 255, 255); stroke-opacity: 1; stroke-width: 1px;"/><path class="ygrid crisp" transform="translate(0,217.53)" d="M80,0h540" style="stroke: rgb(255, 255, 255); stroke-opacity: 1; stroke-width: 1px;"/><path class="ygrid crisp" transform="translate(0,131.61)" d="M80,0h540" style="stroke: rgb(255, 255, 255); stroke-opacity: 1; stroke-width: 1px;"/></g></g><g class="zerolinelayer"><path class="yzl zl crisp" transform="translate(0,389.38)" d="M80,0h540" style="stroke: rgb(255, 255, 255); stroke-opacity: 1; stroke-width: 2px;"/></g><path class="xlines-below"/><path class="ylines-below"/><g class="overlines-below"/><g class="xaxislayer-below"/><g class="yaxislayer-below"/><g class="overaxes-below"/><g class="plot" transform="translate(80,100)" clip-path="url(#clip256f17xyplot)"><g class="scatterlayer mlayer"><g class="trace scatter tracec6b16e" style="stroke-miterlimit: 2;"><g class="fills"><g><path class="js-fill" d="M540,289.38L0,289.38L0,289.04L1.25,257.67L2.49,182.86L3.74,151L4.99,143.24L6.24,131.08L7.48,111.17L8.73,100.91L9.98,51.9L12.47,47.28L13.72,32.29L14.97,26.9L16.21,25.42L17.46,17.93L18.71,38.42L19.95,16L21.2,16.5L22.45,17.2L23.7,28.26L27.44,35.28L28.68,43.33L29.93,44.53L31.18,38.88L32.42,38.45L33.67,39.86L34.92,43.89L36.17,44.79L37.41,42.42L38.66,42.65L39.91,54.96L41.15,55.05L42.4,54.87L43.65,56.67L44.9,58.46L46.14,63.9L47.39,64.77L48.64,75.08L53.63,103.87L54.87,108.25L56.12,99.99L57.37,60.21L58.61,58.8L59.86,47.66L61.11,50.69L62.36,48.79L63.6,48.38L64.85,57.26L66.1,37.94L67.34,35.03L68.59,27.24L69.84,26.28L71.09,28.2L72.33,32.27L73.58,31.24L74.83,28.94L76.07,25.77L77.32,25.91L78.57,25.43L79.82,30.75L82.31,35.87L83.56,32.15L84.8,30.24L86.05,38.43L87.3,43.27L88.55,41.82L89.79,40.73L91.04,43.33L92.29,42.15L93.53,38.08L94.78,66.52L96.03,73.76L98.52,76.34L99.77,77.2L101.02,109.18L102.26,106.87L104.76,117.97L106,141.96L107.25,164.81L108.5,158.49L109.75,135.2L110.99,136L112.24,140.72L113.49,139.83L115.98,143.82L117.23,137.55L118.48,140.05L119.72,136.15L120.97,135.95L122.22,131.45L123.46,133.65L124.71,142.19L125.96,142.03L127.21,133.06L128.45,137.61L129.7,136.48L130.95,161.63L132.19,163.12L133.44,163.42L134.69,162.83L135.94,153.47L137.18,150.06L140.92,141.02L142.17,151.96L143.42,157.45L144.67,157.71L145.91,159.91L147.16,160.51L148.41,154.46L149.65,161.39L150.9,169.95L152.15,169.32L153.39,160.34L154.64,158.53L155.89,161.82L157.14,158.67L158.38,157.97L159.63,155.74L160.88,158.34L162.12,167.01L163.37,166.35L164.62,167.27L165.87,168.91L167.11,173L169.61,165.24L170.85,166.72L172.1,164.17L173.35,163.89L174.6,161.55L175.84,173.47L177.09,176.38L178.34,177.3L180.83,178.79L182.08,177.65L183.33,176.01L184.57,178.36L187.07,177.87L188.31,186.12L189.56,186.34L190.81,183.89L193.3,185.48L194.55,189.34L195.8,190.47L197.04,187.89L200.79,192.53L202.03,195.76L203.28,197.08L204.53,173.84L205.77,173.97L207.02,176.37L212.01,167.55L213.26,164.32L214.5,169.75L215.75,166.67L217,165.83L218.24,158.25L219.49,155.88L220.74,158.78L221.99,147.62L223.23,153.95L224.48,149.14L225.73,153.06L226.97,148.55L228.22,151.29L229.47,148.58L230.72,147.81L231.96,149.05L233.21,156.98L234.46,158.9L235.7,158.42L236.95,157.85L238.2,154.62L239.45,152.91L240.69,157.4L241.94,154.5L243.19,155.79L244.43,160.2L245.68,160.59L246.93,162.89L248.18,168.53L250.67,167.22L251.92,169.14L254.41,168.25L255.66,165.51L256.91,164.46L258.15,157.34L259.4,156.66L260.65,159.89L261.89,157.91L263.14,159.53L265.64,162.47L266.88,161.6L268.13,160.51L269.38,164.92L271.87,167.58L273.12,166.46L274.36,166.3L275.61,177.53L278.11,183.04L279.35,189.85L280.6,187.86L281.85,199.29L283.09,199.69L284.34,196.76L285.59,197.78L286.84,201.19L290.58,205.49L291.82,209.45L293.07,198.53L294.32,197.2L295.57,198.38L296.81,197.63L298.06,199.33L299.31,203.4L300.55,213.39L301.8,209.92L303.05,209.71L304.3,208.1L305.54,206.47L306.79,209.78L308.04,210.54L309.28,209.63L310.53,210.82L311.78,208.51L314.27,209.77L315.52,210.2L316.77,210.16L318.01,211.23L319.26,210.96L320.51,209.89L321.76,211.78L323,211.39L324.25,210.43L325.5,208.38L326.74,206.14L327.99,215.21L331.73,217.92L332.98,218.18L334.23,219.78L335.47,219.79L336.72,217.32L337.97,217.05L340.46,217.57L341.71,219.16L344.2,221.26L345.45,220.84L347.94,224.21L349.19,224.92L350.44,226.11L351.69,225.27L352.93,224.35L354.18,233.93L355.43,231.35L356.67,233.15L357.92,232.42L359.17,234.14L361.66,235.27L362.91,238.77L364.16,239.11L365.4,243.85L369.15,304L370.39,204.55L371.64,204.04L372.89,204.45L374.13,204.04L375.38,202.65L376.63,204.14L377.88,203.98L379.12,202.76L380.37,203.2L382.86,205.01L384.11,205.14L385.36,243.32L386.61,247.49L387.85,246.15L389.1,247.98L391.59,251.3L392.84,251.28L394.09,251.4L395.33,255.03L396.58,255.77L397.83,255.43L399.08,255.63L400.32,254.91L401.57,253.83L402.82,249.42L405.31,249.05L406.56,252.22L409.05,248.74L410.3,246.07L411.55,243.84L412.79,251.5L414.04,248.11L415.29,254.33L417.78,254.63L419.03,254.42L420.28,254.96L421.52,258.33L422.77,257.82L424.02,260.95L426.51,259.85L427.76,259.93L430.25,259.53L431.5,260.23L432.75,254.64L434,255.87L435.24,262.32L436.49,262.48L437.74,264.98L438.98,263.17L441.48,262.21L442.73,261.06L443.97,260.1L445.22,263.12L446.47,264.03L447.71,259.17L448.96,257.86L450.21,258.67L451.45,258.05L452.7,258.45L453.95,258.07L455.2,254.84L456.44,254.84L457.69,260.29L458.94,261L460.18,260.29L461.43,263.98L462.68,262.6L465.17,255.94L466.42,255.58L468.91,263.02L470.16,263.72L473.9,264.01L475.15,269.27L476.4,272.8L477.64,271L478.89,271.55L480.14,270.75L481.39,268.62L482.63,269.04L483.88,270.21L485.13,259.55L486.37,258.07L487.62,265.86L488.87,266.29L490.12,265.23L491.36,263.26L492.61,272.79L495.1,270.6L496.35,271.22L498.85,271.15L500.09,271.65L501.34,271.23L502.59,269.64L505.08,267.6L506.33,268.08L508.82,266.04L510.07,262.67L511.32,263.73L512.56,262.52L515.06,261.41L516.3,263.83L518.8,262.9L520.05,268.38L523.79,267.33L525.03,266.86L526.28,266.12L527.53,267.3L528.78,272.91L530.02,271.92L531.27,272.42L532.52,260.11L535.01,255.09L536.26,257.12L537.51,257.48L538.75,256.85L540,257.42" style="fill: rgb(99, 110, 250); fill-opacity: 0.5; stroke-width: 0;"/></g></g><g class="errorbars"/><g class="lines"><path class="js-line" d="M0,289.04L1.25,257.67L2.49,182.86L3.74,151L4.99,143.24L6.24,131.08L7.48,111.17L8.73,100.91L9.98,51.9L12.47,47.28L13.72,32.29L14.97,26.9L16.21,25.42L17.46,17.93L18.71,38.42L19.95,16L21.2,16.5L22.45,17.2L23.7,28.26L27.44,35.28L28.68,43.33L29.93,44.53L31.18,38.88L32.42,38.45L33.67,39.86L34.92,43.89L36.17,44.79L37.41,42.42L38.66,42.65L39.91,54.96L41.15,55.05L42.4,54.87L43.65,56.67L44.9,58.46L46.14,63.9L47.39,64.77L48.64,75.08L53.63,103.87L54.87,108.25L56.12,99.99L57.37,60.21L58.61,58.8L59.86,47.66L61.11,50.69L62.36,48.79L63.6,48.38L64.85,57.26L66.1,37.94L67.34,35.03L68.59,27.24L69.84,26.28L71.09,28.2L72.33,32.27L73.58,31.24L74.83,28.94L76.07,25.77L77.32,25.91L78.57,25.43L79.82,30.75L82.31,35.87L83.56,32.15L84.8,30.24L86.05,38.43L87.3,43.27L88.55,41.82L89.79,40.73L91.04,43.33L92.29,42.15L93.53,38.08L94.78,66.52L96.03,73.76L98.52,76.34L99.77,77.2L101.02,109.18L102.26,106.87L104.76,117.97L106,141.96L107.25,164.81L108.5,158.49L109.75,135.2L110.99,136L112.24,140.72L113.49,139.83L115.98,143.82L117.23,137.55L118.48,140.05L119.72,136.15L120.97,135.95L122.22,131.45L123.46,133.65L124.71,142.19L125.96,142.03L127.21,133.06L128.45,137.61L129.7,136.48L130.95,161.63L132.19,163.12L133.44,163.42L134.69,162.83L135.94,153.47L137.18,150.06L140.92,141.02L142.17,151.96L143.42,157.45L144.67,157.71L145.91,159.91L147.16,160.51L148.41,154.46L149.65,161.39L150.9,169.95L152.15,169.32L153.39,160.34L154.64,158.53L155.89,161.82L157.14,158.67L158.38,157.97L159.63,155.74L160.88,158.34L162.12,167.01L163.37,166.35L164.62,167.27L165.87,168.91L167.11,173L169.61,165.24L170.85,166.72L172.1,164.17L173.35,163.89L174.6,161.55L175.84,173.47L177.09,176.38L178.34,177.3L180.83,178.79L182.08,177.65L183.33,176.01L184.57,178.36L187.07,177.87L188.31,186.12L189.56,186.34L190.81,183.89L193.3,185.48L194.55,189.34L195.8,190.47L197.04,187.89L200.79,192.53L202.03,195.76L203.28,197.08L204.53,173.84L205.77,173.97L207.02,176.37L212.01,167.55L213.26,164.32L214.5,169.75L215.75,166.67L217,165.83L218.24,158.25L219.49,155.88L220.74,158.78L221.99,147.62L223.23,153.95L224.48,149.14L225.73,153.06L226.97,148.55L228.22,151.29L229.47,148.58L230.72,147.81L231.96,149.05L233.21,156.98L234.46,158.9L235.7,158.42L236.95,157.85L238.2,154.62L239.45,152.91L240.69,157.4L241.94,154.5L243.19,155.79L244.43,160.2L245.68,160.59L246.93,162.89L248.18,168.53L250.67,167.22L251.92,169.14L254.41,168.25L255.66,165.51L256.91,164.46L258.15,157.34L259.4,156.66L260.65,159.89L261.89,157.91L263.14,159.53L265.64,162.47L266.88,161.6L268.13,160.51L269.38,164.92L271.87,167.58L273.12,166.46L274.36,166.3L275.61,177.53L278.11,183.04L279.35,189.85L280.6,187.86L281.85,199.29L283.09,199.69L284.34,196.76L285.59,197.78L286.84,201.19L290.58,205.49L291.82,209.45L293.07,198.53L294.32,197.2L295.57,198.38L296.81,197.63L298.06,199.33L299.31,203.4L300.55,213.39L301.8,209.92L303.05,209.71L304.3,208.1L305.54,206.47L306.79,209.78L308.04,210.54L309.28,209.63L310.53,210.82L311.78,208.51L314.27,209.77L315.52,210.2L316.77,210.16L318.01,211.23L319.26,210.96L320.51,209.89L321.76,211.78L323,211.39L324.25,210.43L325.5,208.38L326.74,206.14L327.99,215.21L331.73,217.92L332.98,218.18L334.23,219.78L335.47,219.79L336.72,217.32L337.97,217.05L340.46,217.57L341.71,219.16L344.2,221.26L345.45,220.84L347.94,224.21L349.19,224.92L350.44,226.11L351.69,225.27L352.93,224.35L354.18,233.93L355.43,231.35L356.67,233.15L357.92,232.42L359.17,234.14L361.66,235.27L362.91,238.77L364.16,239.11L365.4,243.85L369.15,304L370.39,204.55L371.64,204.04L372.89,204.45L374.13,204.04L375.38,202.65L376.63,204.14L377.88,203.98L379.12,202.76L380.37,203.2L382.86,205.01L384.11,205.14L385.36,243.32L386.61,247.49L387.85,246.15L389.1,247.98L391.59,251.3L392.84,251.28L394.09,251.4L395.33,255.03L396.58,255.77L397.83,255.43L399.08,255.63L400.32,254.91L401.57,253.83L402.82,249.42L405.31,249.05L406.56,252.22L409.05,248.74L410.3,246.07L411.55,243.84L412.79,251.5L414.04,248.11L415.29,254.33L417.78,254.63L419.03,254.42L420.28,254.96L421.52,258.33L422.77,257.82L424.02,260.95L426.51,259.85L427.76,259.93L430.25,259.53L431.5,260.23L432.75,254.64L434,255.87L435.24,262.32L436.49,262.48L437.74,264.98L438.98,263.17L441.48,262.21L442.73,261.06L443.97,260.1L445.22,263.12L446.47,264.03L447.71,259.17L448.96,257.86L450.21,258.67L451.45,258.05L452.7,258.45L453.95,258.07L455.2,254.84L456.44,254.84L457.69,260.29L458.94,261L460.18,260.29L461.43,263.98L462.68,262.6L465.17,255.94L466.42,255.58L468.91,263.02L470.16,263.72L473.9,264.01L475.15,269.27L476.4,272.8L477.64,271L478.89,271.55L480.14,270.75L481.39,268.62L482.63,269.04L483.88,270.21L485.13,259.55L486.37,258.07L487.62,265.86L488.87,266.29L490.12,265.23L491.36,263.26L492.61,272.79L495.1,270.6L496.35,271.22L498.85,271.15L500.09,271.65L501.34,271.23L502.59,269.64L505.08,267.6L506.33,268.08L508.82,266.04L510.07,262.67L511.32,263.73L512.56,262.52L515.06,261.41L516.3,263.83L518.8,262.9L520.05,268.38L523.79,267.33L525.03,266.86L526.28,266.12L527.53,267.3L528.78,272.91L530.02,271.92L531.27,272.42L532.52,260.11L535.01,255.09L536.26,257.12L537.51,257.48L538.75,256.85L540,257.42" style="vector-effect: none; fill: none; stroke: rgb(99, 110, 250); stroke-opacity: 1; stroke-width: 2px; opacity: 1;"/></g><g class="points"/><g class="text"/></g></g></g><g class="overplot"/><path class="xlines-above crisp" d="M0,0" style="fill: none;"/><path class="ylines-above crisp" d="M0,0" style="fill: none;"/><g class="overlines-above"/><g class="xaxislayer-above"><g class="xtick"><text text-anchor="middle" x="0" y="433" transform="translate(117.41,0)" style="font-family: 'Open Sans', verdana, arial, sans-serif; font-size: 12px; fill: rgb(42, 63, 95); fill-opacity: 1; white-space: pre; opacity: 1;">Sep 2022</text></g><g class="xtick"><text text-anchor="middle" x="0" y="433" style="font-family: 'Open Sans', verdana, arial, sans-serif; font-size: 12px; fill: rgb(42, 63, 95); fill-opacity: 1; white-space: pre; opacity: 1;" transform="translate(193.49,0)">Nov 2022</text></g><g class="xtick"><text text-anchor="middle" x="0" y="433" style="font-family: 'Open Sans', verdana, arial, sans-serif; font-size: 12px; fill: rgb(42, 63, 95); fill-opacity: 1; white-space: pre; opacity: 1;" transform="translate(269.56,0)">Jan 2023</text></g><g class="xtick"><text text-anchor="middle" x="0" y="433" style="font-family: 'Open Sans', verdana, arial, sans-serif; font-size: 12px; fill: rgb(42, 63, 95); fill-opacity: 1; white-space: pre; opacity: 1;" transform="translate(343.14,0)">Mar 2023</text></g><g class="xtick"><text text-anchor="middle" x="0" y="433" style="font-family: 'Open Sans', verdana, arial, sans-serif; font-size: 12px; fill: rgb(42, 63, 95); fill-opacity: 1; white-space: pre; opacity: 1;" transform="translate(419.21,0)">May 2023</text></g><g class="xtick"><text text-anchor="middle" x="0" y="433" style="font-family: 'Open Sans', verdana, arial, sans-serif; font-size: 12px; fill: rgb(42, 63, 95); fill-opacity: 1; white-space: pre; opacity: 1;" transform="translate(495.29,0)">Jul 2023</text></g><g class="xtick"><text text-anchor="middle" x="0" y="433" style="font-family: 'Open Sans', verdana, arial, sans-serif; font-size: 12px; fill: rgb(42, 63, 95); fill-opacity: 1; white-space: pre; opacity: 1;" transform="translate(572.61,0)">Sep 2023</text></g></g><g class="yaxislayer-above"><g class="ytick"><text text-anchor="end" x="79" y="4.199999999999999" transform="translate(0,389.38)" style="font-family: 'Open Sans', verdana, arial, sans-serif; font-size: 12px; fill: rgb(42, 63, 95); fill-opacity: 1; white-space: pre; opacity: 1;">$0</text></g><g class="ytick"><text text-anchor="end" x="79" y="4.199999999999999" style="font-family: 'Open Sans', verdana, arial, sans-serif; font-size: 12px; fill: rgb(42, 63, 95); fill-opacity: 1; white-space: pre; opacity: 1;" transform="translate(0,303.46000000000004)">$5M</text></g><g class="ytick"><text text-anchor="end" x="79" y="4.199999999999999" style="font-family: 'Open Sans', verdana, arial, sans-serif; font-size: 12px; fill: rgb(42, 63, 95); fill-opacity: 1; white-space: pre; opacity: 1;" transform="translate(0,217.53)">$10M</text></g><g class="ytick"><text text-anchor="end" x="79" y="4.199999999999999" style="font-family: 'Open Sans', verdana, arial, sans-serif; font-size: 12px; fill: rgb(42, 63, 95); fill-opacity: 1; white-space: pre; opacity: 1;" transform="translate(0,131.61)">$15M</text></g></g><g class="overaxes-above"/></g></g><g class="polarlayer"/><g class="smithlayer"/><g class="ternarylayer"/><g class="geolayer"/><g class="funnelarealayer"/><g class="pielayer"/><g class="iciclelayer"/><g class="treemaplayer"/><g class="sunburstlayer"/><g class="glimages"/><defs id="topdefs-256f17"><g class="clips"/></defs><g class="layer-above"><g class="imagelayer"/><g class="shapelayer"/></g><g class="infolayer"><g class="g-gtitle"><text class="gtitle" x="35" y="50" text-anchor="start" dy="0em" style="font-family: 'Open Sans', verdana, arial, sans-serif; font-size: 17px; fill: rgb(42, 63, 95); opacity: 1; font-weight: normal; white-space: pre;"><tspan class="line" dy="0em" x="35" y="50">Lyra</tspan><tspan class="line" dy="1.3em" x="35" y="50">​<tspan style="font-size:70%" dy="-0.6em">Cumulative Net Flows since Program Announcement, Until Program End + 30 Days - At Last Price</tspan><tspan dy="0.42em">​</tspan></tspan></text></g><g class="g-xtitle"><text class="xtitle" x="350" y="460.3" text-anchor="middle" style="font-family: 'Open Sans', verdana, arial, sans-serif; font-size: 14px; fill: rgb(42, 63, 95); opacity: 1; font-weight: normal; white-space: pre;">Day</text></g><g class="g-ytitle"><text class="ytitle" transform="rotate(-90,24.668750000000003,260)" x="24.668750000000003" y="260" text-anchor="middle" style="font-family: 'Open Sans', verdana, arial, sans-serif; font-size: 14px; fill: rgb(42, 63, 95); opacity: 1; font-weight: normal; white-space: pre;">Cumulative Net Flows (USD)</text></g></g></svg>