<svg class="main-svg" xmlns="http://www.w3.org/2000/svg" xmlns:xlink="http://www.w3.org/1999/xlink" width="700" height="500" style="" viewBox="0 0 700 500"><rect x="0" y="0" width="700" height="500" style="fill: rgb(255, 255, 255); fill-opacity: 1;"/><defs id="defs-f447ab"><g class="clips"><clipPath id="clipf447abxyplot" class="plotclip"><rect width="540" height="320"/></clipPath><clipPath class="axesclip" id="clipf447abx"><rect x="80" y="0" width="540" height="500"/></clipPath><clipPath class="axesclip" id="clipf447aby"><rect x="0" y="100" width="700" height="320"/></clipPath><clipPath class="axesclip" id="clipf447abxy"><rect x="80" y="100" width="540" height="320"/></clipPath></g><g class="gradients"/><g class="patterns"/></defs><g class="bglayer"><rect class="bg" x="80" y="100" width="540" height="320" style="fill: rgb(229, 236, 246); fill-opacity: 1; stroke-width: 0;"/></g><g class="layer-below"><g class="imagelayer"/><g class="shapelayer"/></g><g class="cartesianlayer"><g class="subplot xy"><g class="layer-subplot"><g class="shapelayer"/><g class="imagelayer"/></g><g class="minor-gridlayer"><g class="x"/><g class="y"/></g><g class="gridlayer"><g class="x"><path class="xgrid crisp" transform="translate(89.5,0)" d="M0,100v320" style="stroke: rgb(255, 255, 255); stroke-opacity: 1; stroke-width: 1px;"/><path class="xgrid crisp" transform="translate(172.26,0)" d="M0,100v320" style="stroke: rgb(255, 255, 255); stroke-opacity: 1; stroke-width: 1px;"/><path class="xgrid crisp" transform="translate(252.31,0)" d="M0,100v320" style="stroke: rgb(255, 255, 255); stroke-opacity: 1; stroke-width: 1px;"/><path class="xgrid crisp" transform="translate(335.08000000000004,0)" d="M0,100v320" style="stroke: rgb(255, 255, 255); stroke-opacity: 1; stroke-width: 1px;"/><path class="xgrid crisp" transform="translate(417.84,0)" d="M0,100v320" style="stroke: rgb(255, 255, 255); stroke-opacity: 1; stroke-width: 1px;"/><path class="xgrid crisp" transform="translate(501.96,0)" d="M0,100v320" style="stroke: rgb(255, 255, 255); stroke-opacity: 1; stroke-width: 1px;"/><path class="xgrid crisp" transform="translate(584.72,0)" d="M0,100v320" style="stroke: rgb(255, 255, 255); stroke-opacity: 1; stroke-width: 1px;"/></g><g class="y"><path class="ygrid crisp" transform="translate(0,308.65999999999997)" d="M80,0h540" style="stroke: rgb(255, 255, 255); stroke-opacity: 1; stroke-width: 1px;"/><path class="ygrid crisp" transform="translate(0,225.57999999999998)" d="M80,0h540" style="stroke: rgb(255, 255, 255); stroke-opacity: 1; stroke-width: 1px;"/><path class="ygrid crisp" transform="translate(0,142.49)" d="M80,0h540" style="stroke: rgb(255, 255, 255); stroke-opacity: 1; stroke-width: 1px;"/></g></g><g class="zerolinelayer"><path class="yzl zl crisp" transform="translate(0,391.75)" d="M80,0h540" style="stroke: rgb(255, 255, 255); stroke-opacity: 1; stroke-width: 2px;"/></g><path class="xlines-below"/><path class="ylines-below"/><g class="overlines-below"/><g class="xaxislayer-below"/><g class="yaxislayer-below"/><g class="overaxes-below"/><g class="plot" transform="translate(80,100)" clip-path="url(#clipf447abxyplot)"><g class="scatterlayer mlayer"><g class="trace scatter trace208fa9" style="stroke-miterlimit: 2;"><g class="fills"><g><path class="js-fill" d="M540,291.75L0,291.75L0,291.75L1.36,291.75L2.71,237.87L4.07,159.92L5.43,171.31L6.78,174.53L8.14,159.06L9.5,162.52L10.85,150.45L12.21,146.03L13.57,174.22L14.92,173.45L16.28,171.55L17.64,171.26L18.99,174.39L21.71,209.6L23.07,209.15L24.42,200.63L25.78,199.33L27.14,162.91L28.49,163.4L29.85,161.21L31.21,168.21L33.92,183.7L35.28,180.06L36.63,178L37.99,179.02L39.35,178.9L40.7,177.33L42.06,177L43.42,172.31L44.77,161.83L46.13,144.09L47.49,154.59L48.84,157.98L50.2,185.07L51.56,168.8L54.27,148.36L55.63,172.04L56.98,173.25L58.34,196.08L59.7,179.82L61.06,179.34L62.41,180.26L63.77,190.86L65.13,189.81L66.48,190.04L69.2,189.93L70.55,183.62L71.91,173.67L73.27,173.03L74.62,173.03L75.98,174.08L77.34,171.11L78.69,171.38L80.05,171.46L81.41,169.37L82.76,169.84L84.12,168.98L85.48,165.12L86.83,164.77L88.19,169.32L89.55,167.72L90.9,170.59L92.26,170.34L93.62,169.34L94.97,166.27L96.33,162.31L97.69,164.03L101.76,163.73L103.12,161.58L104.47,163.22L105.83,166.6L108.54,152.88L109.9,151.68L111.26,149.03L112.61,140.5L113.97,178.63L115.33,172.59L116.68,177.38L118.04,203.03L119.4,207.98L120.75,204.2L123.47,196.36L124.82,194.08L126.18,179.44L127.54,182.46L128.89,181.42L130.25,179.35L131.61,154.97L132.96,167.89L134.32,161.91L135.68,146.19L137.04,157.23L138.39,156.69L139.75,150.72L141.11,151.05L142.46,128.72L143.82,151.47L145.18,153.84L146.53,152.87L147.89,143.45L149.25,142.1L150.6,143.02L151.96,113.21L154.67,120.94L156.03,126.52L157.39,117.09L158.74,124.26L160.1,123.8L161.46,127.8L164.17,106.89L165.53,78.3L166.88,69.55L168.24,77.21L169.6,76.83L170.95,61.41L172.31,60.69L173.67,79.11L175.03,63.43L176.38,68.24L177.74,72.31L179.1,58.1L181.81,78.07L183.17,67.38L184.52,45.54L185.88,71.6L187.24,26.89L188.59,53.3L191.31,148.99L192.66,243.88L194.02,222.38L195.38,214.46L196.73,216.34L198.09,215.51L200.8,178.83L202.16,44.15L204.87,68.91L206.23,42.19L207.59,16L208.94,58.05L210.3,57.31L211.66,76.73L214.37,74.14L215.73,59.5L217.09,58.74L218.44,54.32L219.8,59.98L221.16,70.17L222.51,74.51L223.87,105.6L225.23,176.12L226.58,167.12L229.3,165.93L230.65,176.74L232.01,195.6L233.37,194L234.72,196.68L236.08,196.24L237.44,199.6L238.79,158.99L240.15,255.21L241.51,234.42L244.22,201.64L245.58,195.86L246.93,198.2L248.29,197.88L249.65,197.82L251.01,198.69L252.36,198.84L253.72,207.15L255.08,255.98L256.43,250.3L257.79,247.27L259.15,248.72L260.5,162.22L261.86,153.85L263.22,153.92L264.57,155.86L265.93,160.42L267.29,123.36L268.64,127.31L270,92.33L271.36,161.29L272.71,149.19L274.07,132.36L275.43,134.65L276.78,138.55L278.14,128.53L279.5,103.28L280.85,113.38L282.21,150.57L283.57,151.02L284.92,145.67L286.28,169.54L287.64,124.88L288.99,125.19L291.71,115.12L293.07,92.85L294.42,97.38L295.78,199.99L297.14,254.78L298.49,247.64L299.85,248.88L301.21,218.22L302.56,215.11L303.92,222.59L305.28,222.67L306.63,219.31L307.99,192.14L309.35,193.83L312.06,206.22L313.42,206.39L314.77,200.46L316.13,202.27L317.49,195.2L318.84,200.72L320.2,200.62L321.56,201.63L322.91,202.03L324.27,203.29L325.63,197.71L326.98,203.19L329.7,205.33L331.06,204.9L333.77,208.51L335.13,204.08L336.48,216.58L337.84,216.78L339.2,217.35L340.55,216.92L341.91,215.71L343.27,207.67L344.62,209L345.98,226.3L348.69,226.62L350.05,229.12L351.41,228.41L352.76,221.85L354.12,215.39L355.48,217.12L356.83,203.52L358.19,210.47L359.55,219.44L360.9,210.11L362.26,229.7L363.62,227.48L364.97,241.94L366.33,228.78L367.69,232.53L369.05,225.41L370.4,207.74L371.76,207.93L373.12,208.09L374.47,211.93L375.83,216.65L377.19,224.26L378.54,225.9L379.9,230.87L381.26,234.93L382.61,235.62L383.97,228.51L385.33,228.1L388.04,237.51L389.4,207.52L392.11,210.88L393.47,219.79L394.82,220.78L396.18,220.79L397.54,220.8L398.89,219.62L400.25,219.98L401.61,221.68L402.96,221.42L404.32,224.75L405.68,227.58L407.04,228.42L409.75,228.19L411.11,238.66L412.46,239.46L413.82,214.35L416.53,214.72L417.89,212.79L419.25,218.05L420.6,211.61L421.96,213.94L423.32,221.18L426.03,220.73L427.39,221.22L428.74,224.03L430.1,268.28L432.81,268.38L434.17,265.57L435.53,265.56L436.88,266.69L438.24,267.27L439.6,265.92L440.95,266.41L442.31,264.36L443.67,267.93L445.03,267.98L447.74,268.16L449.1,264.9L450.45,271.58L451.81,271.77L453.17,271.93L454.52,273.29L455.88,273.6L457.24,255.88L458.59,257.48L459.95,269.52L462.66,279.78L464.02,280.54L465.38,284.58L466.73,298.49L468.09,298.76L469.45,291.16L473.52,292.01L474.87,293.94L476.23,296.49L477.59,289.67L478.94,286.35L480.3,286.8L485.73,288.27L487.09,274.26L488.44,274.71L489.8,277.7L491.16,275.88L492.51,281.16L493.87,284.19L495.23,283.13L496.58,285.42L497.94,285.46L500.65,285.86L502.01,286.6L503.37,289.21L504.72,288.55L507.44,289.17L508.79,289.17L511.51,289.66L512.86,303.18L514.22,303L515.58,304L516.93,276.52L518.29,276.57L519.65,287.35L521.01,289.25L525.08,289.73L526.43,291.81L534.57,292.76L535.93,296.3L540,296.31" style="fill: rgb(99, 110, 250); fill-opacity: 0.5; stroke-width: 0;"/></g></g><g class="errorbars"/><g class="lines"><path class="js-line" d="M0,291.75L1.36,291.75L2.71,237.87L4.07,159.92L5.43,171.31L6.78,174.53L8.14,159.06L9.5,162.52L10.85,150.45L12.21,146.03L13.57,174.22L14.92,173.45L16.28,171.55L17.64,171.26L18.99,174.39L21.71,209.6L23.07,209.15L24.42,200.63L25.78,199.33L27.14,162.91L28.49,163.4L29.85,161.21L31.21,168.21L33.92,183.7L35.28,180.06L36.63,178L37.99,179.02L39.35,178.9L40.7,177.33L42.06,177L43.42,172.31L44.77,161.83L46.13,144.09L47.49,154.59L48.84,157.98L50.2,185.07L51.56,168.8L54.27,148.36L55.63,172.04L56.98,173.25L58.34,196.08L59.7,179.82L61.06,179.34L62.41,180.26L63.77,190.86L65.13,189.81L66.48,190.04L69.2,189.93L70.55,183.62L71.91,173.67L73.27,173.03L74.62,173.03L75.98,174.08L77.34,171.11L78.69,171.38L80.05,171.46L81.41,169.37L82.76,169.84L84.12,168.98L85.48,165.12L86.83,164.77L88.19,169.32L89.55,167.72L90.9,170.59L92.26,170.34L93.62,169.34L94.97,166.27L96.33,162.31L97.69,164.03L101.76,163.73L103.12,161.58L104.47,163.22L105.83,166.6L108.54,152.88L109.9,151.68L111.26,149.03L112.61,140.5L113.97,178.63L115.33,172.59L116.68,177.38L118.04,203.03L119.4,207.98L120.75,204.2L123.47,196.36L124.82,194.08L126.18,179.44L127.54,182.46L128.89,181.42L130.25,179.35L131.61,154.97L132.96,167.89L134.32,161.91L135.68,146.19L137.04,157.23L138.39,156.69L139.75,150.72L141.11,151.05L142.46,128.72L143.82,151.47L145.18,153.84L146.53,152.87L147.89,143.45L149.25,142.1L150.6,143.02L151.96,113.21L154.67,120.94L156.03,126.52L157.39,117.09L158.74,124.26L160.1,123.8L161.46,127.8L164.17,106.89L165.53,78.3L166.88,69.55L168.24,77.21L169.6,76.83L170.95,61.41L172.31,60.69L173.67,79.11L175.03,63.43L176.38,68.24L177.74,72.31L179.1,58.1L181.81,78.07L183.17,67.38L184.52,45.54L185.88,71.6L187.24,26.89L188.59,53.3L191.31,148.99L192.66,243.88L194.02,222.38L195.38,214.46L196.73,216.34L198.09,215.51L200.8,178.83L202.16,44.15L204.87,68.91L206.23,42.19L207.59,16L208.94,58.05L210.3,57.31L211.66,76.73L214.37,74.14L215.73,59.5L217.09,58.74L218.44,54.32L219.8,59.98L221.16,70.17L222.51,74.51L223.87,105.6L225.23,176.12L226.58,167.12L229.3,165.93L230.65,176.74L232.01,195.6L233.37,194L234.72,196.68L236.08,196.24L237.44,199.6L238.79,158.99L240.15,255.21L241.51,234.42L244.22,201.64L245.58,195.86L246.93,198.2L248.29,197.88L249.65,197.82L251.01,198.69L252.36,198.84L253.72,207.15L255.08,255.98L256.43,250.3L257.79,247.27L259.15,248.72L260.5,162.22L261.86,153.85L263.22,153.92L264.57,155.86L265.93,160.42L267.29,123.36L268.64,127.31L270,92.33L271.36,161.29L272.71,149.19L274.07,132.36L275.43,134.65L276.78,138.55L278.14,128.53L279.5,103.28L280.85,113.38L282.21,150.57L283.57,151.02L284.92,145.67L286.28,169.54L287.64,124.88L288.99,125.19L291.71,115.12L293.07,92.85L294.42,97.38L295.78,199.99L297.14,254.78L298.49,247.64L299.85,248.88L301.21,218.22L302.56,215.11L303.92,222.59L305.28,222.67L306.63,219.31L307.99,192.14L309.35,193.83L312.06,206.22L313.42,206.39L314.77,200.46L316.13,202.27L317.49,195.2L318.84,200.72L320.2,200.62L321.56,201.63L322.91,202.03L324.27,203.29L325.63,197.71L326.98,203.19L329.7,205.33L331.06,204.9L333.77,208.51L335.13,204.08L336.48,216.58L337.84,216.78L339.2,217.35L340.55,216.92L341.91,215.71L343.27,207.67L344.62,209L345.98,226.3L348.69,226.62L350.05,229.12L351.41,228.41L352.76,221.85L354.12,215.39L355.48,217.12L356.83,203.52L358.19,210.47L359.55,219.44L360.9,210.11L362.26,229.7L363.62,227.48L364.97,241.94L366.33,228.78L367.69,232.53L369.05,225.41L370.4,207.74L371.76,207.93L373.12,208.09L374.47,211.93L375.83,216.65L377.19,224.26L378.54,225.9L379.9,230.87L381.26,234.93L382.61,235.62L383.97,228.51L385.33,228.1L388.04,237.51L389.4,207.52L392.11,210.88L393.47,219.79L394.82,220.78L396.18,220.79L397.54,220.8L398.89,219.62L400.25,219.98L401.61,221.68L402.96,221.42L404.32,224.75L405.68,227.58L407.04,228.42L409.75,228.19L411.11,238.66L412.46,239.46L413.82,214.35L416.53,214.72L417.89,212.79L419.25,218.05L420.6,211.61L421.96,213.94L423.32,221.18L426.03,220.73L427.39,221.22L428.74,224.03L430.1,268.28L432.81,268.38L434.17,265.57L435.53,265.56L436.88,266.69L438.24,267.27L439.6,265.92L440.95,266.41L442.31,264.36L443.67,267.93L445.03,267.98L447.74,268.16L449.1,264.9L450.45,271.58L451.81,271.77L453.17,271.93L454.52,273.29L455.88,273.6L457.24,255.88L458.59,257.48L459.95,269.52L462.66,279.78L464.02,280.54L465.38,284.58L466.73,298.49L468.09,298.76L469.45,291.16L473.52,292.01L474.87,293.94L476.23,296.49L477.59,289.67L478.94,286.35L480.3,286.8L485.73,288.27L487.09,274.26L488.44,274.71L489.8,277.7L491.16,275.88L492.51,281.16L493.87,284.19L495.23,283.13L496.58,285.42L497.94,285.46L500.65,285.86L502.01,286.6L503.37,289.21L504.72,288.55L507.44,289.17L508.79,289.17L511.51,289.66L512.86,303.18L514.22,303L515.58,304L516.93,276.52L518.29,276.57L519.65,287.35L521.01,289.25L525.08,289.73L526.43,291.81L534.57,292.76L535.93,296.3L540,296.31" style="vector-effect: none; fill: none; stroke: rgb(99, 110, 250); stroke-opacity: 1; stroke-width: 2px; opacity: 1;"/></g><g class="points"/><g class="text"/></g></g></g><g class="overplot"/><path class="xlines-above crisp" d="M0,0" style="fill: none;"/><path class="ylines-above crisp" d="M0,0" style="fill: none;"/><g class="overlines-above"/><g class="xaxislayer-above"><g class="xtick"><text text-anchor="middle" x="0" y="433" transform="translate(89.5,0)" style="font-family: 'Open Sans', verdana, arial, sans-serif; font-size: 12px; fill: rgb(42, 63, 95); fill-opacity: 1; white-space: pre; opacity: 1;">Nov 2022</text></g><g class="xtick"><text text-anchor="middle" x="0" y="433" style="font-family: 'Open Sans', verdana, arial, sans-serif; font-size: 12px; fill: rgb(42, 63, 95); fill-opacity: 1; white-space: pre; opacity: 1;" transform="translate(172.26,0)">Jan 2023</text></g><g class="xtick"><text text-anchor="middle" x="0" y="433" style="font-family: 'Open Sans', verdana, arial, sans-serif; font-size: 12px; fill: rgb(42, 63, 95); fill-opacity: 1; white-space: pre; opacity: 1;" transform="translate(252.31,0)">Mar 2023</text></g><g class="xtick"><text text-anchor="middle" x="0" y="433" style="font-family: 'Open Sans', verdana, arial, sans-serif; font-size: 12px; fill: rgb(42, 63, 95); fill-opacity: 1; white-space: pre; opacity: 1;" transform="translate(335.08000000000004,0)">May 2023</text></g><g class="xtick"><text text-anchor="middle" x="0" y="433" style="font-family: 'Open Sans', verdana, arial, sans-serif; font-size: 12px; fill: rgb(42, 63, 95); fill-opacity: 1; white-space: pre; opacity: 1;" transform="translate(417.84,0)">Jul 2023</text></g><g class="xtick"><text text-anchor="middle" x="0" y="433" style="font-family: 'Open Sans', verdana, arial, sans-serif; font-size: 12px; fill: rgb(42, 63, 95); fill-opacity: 1; white-space: pre; opacity: 1;" transform="translate(501.96,0)">Sep 2023</text></g><g class="xtick"><text text-anchor="middle" x="0" y="433" style="font-family: 'Open Sans', verdana, arial, sans-serif; font-size: 12px; fill: rgb(42, 63, 95); fill-opacity: 1; white-space: pre; opacity: 1;" transform="translate(584.72,0)">Nov 2023</text></g></g><g class="yaxislayer-above"><g class="ytick"><text text-anchor="end" x="79" y="4.199999999999999" transform="translate(0,391.75)" style="font-family: 'Open Sans', verdana, arial, sans-serif; font-size: 12px; fill: rgb(42, 63, 95); fill-opacity: 1; white-space: pre; opacity: 1;">$0</text></g><g class="ytick"><text text-anchor="end" x="79" y="4.199999999999999" style="font-family: 'Open Sans', verdana, arial, sans-serif; font-size: 12px; fill: rgb(42, 63, 95); fill-opacity: 1; white-space: pre; opacity: 1;" transform="translate(0,308.65999999999997)">$0.5M</text></g><g class="ytick"><text text-anchor="end" x="79" y="4.199999999999999" style="font-family: 'Open Sans', verdana, arial, sans-serif; font-size: 12px; fill: rgb(42, 63, 95); fill-opacity: 1; white-space: pre; opacity: 1;" transform="translate(0,225.57999999999998)">$1M</text></g><g class="ytick"><text text-anchor="end" x="79" y="4.199999999999999" style="font-family: 'Open Sans', verdana, arial, sans-serif; font-size: 12px; fill: rgb(42, 63, 95); fill-opacity: 1; white-space: pre; opacity: 1;" transform="translate(0,142.49)">$1.5M</text></g></g><g class="overaxes-above"/></g></g><g class="polarlayer"/><g class="smithlayer"/><g class="ternarylayer"/><g class="geolayer"/><g class="funnelarealayer"/><g class="pielayer"/><g class="iciclelayer"/><g class="treemaplayer"/><g class="sunburstlayer"/><g class="glimages"/><defs id="topdefs-f447ab"><g class="clips"/></defs><g class="layer-above"><g class="imagelayer"/><g class="shapelayer"/></g><g class="infolayer"><g class="g-gtitle"><text class="gtitle" x="35" y="50" text-anchor="start" dy="0em" style="font-family: 'Open Sans', verdana, arial, sans-serif; font-size: 17px; fill: rgb(42, 63, 95); opacity: 1; font-weight: normal; white-space: pre;"><tspan class="line" dy="0em" x="35" y="50">Synthetix - SNX Bridge: Hop</tspan><tspan class="line" dy="1.3em" x="35" y="50">​<tspan style="font-size:70%" dy="-0.6em">Cumulative Net Flows since Program Announcement, Until Program End + 30 Days - At Last Price</tspan><tspan dy="0.42em">​</tspan></tspan></text></g><g class="g-xtitle"><text class="xtitle" x="350" y="460.3" text-anchor="middle" style="font-family: 'Open Sans', verdana, arial, sans-serif; font-size: 14px; fill: rgb(42, 63, 95); opacity: 1; font-weight: normal; white-space: pre;">Day</text></g><g class="g-ytitle"><text class="ytitle" transform="rotate(-90,21.340625000000003,260)" x="21.340625000000003" y="260" text-anchor="middle" style="font-family: 'Open Sans', verdana, arial, sans-serif; font-size: 14px; fill: rgb(42, 63, 95); opacity: 1; font-weight: normal; white-space: pre;">Cumulative Net Flows (USD)</text></g></g></svg>