<svg class="main-svg" xmlns="http://www.w3.org/2000/svg" xmlns:xlink="http://www.w3.org/1999/xlink" width="700" height="500" style="" viewBox="0 0 700 500"><rect x="0" y="0" width="700" height="500" style="fill: rgb(255, 255, 255); fill-opacity: 1;"/><defs id="defs-66b8b8"><g class="clips"><clipPath id="clip66b8b8xyplot" class="plotclip"><rect width="540" height="320"/></clipPath><clipPath class="axesclip" id="clip66b8b8x"><rect x="80" y="0" width="540" height="500"/></clipPath><clipPath class="axesclip" id="clip66b8b8y"><rect x="0" y="100" width="700" height="320"/></clipPath><clipPath class="axesclip" id="clip66b8b8xy"><rect x="80" y="100" width="540" height="320"/></clipPath></g><g class="gradients"/><g class="patterns"/></defs><g class="bglayer"><rect class="bg" x="80" y="100" width="540" height="320" style="fill: rgb(229, 236, 246); fill-opacity: 1; stroke-width: 0;"/></g><g class="layer-below"><g class="imagelayer"/><g class="shapelayer"/></g><g class="cartesianlayer"><g class="subplot xy"><g class="layer-subplot"><g class="shapelayer"/><g class="imagelayer"/></g><g class="minor-gridlayer"><g class="x"/><g class="y"/></g><g class="gridlayer"><g class="x"><path class="xgrid crisp" transform="translate(132.26,0)" d="M0,100v320" style="stroke: rgb(255, 255, 255); stroke-opacity: 1; stroke-width: 1px;"/><path class="xgrid crisp" transform="translate(265.08000000000004,0)" d="M0,100v320" style="stroke: rgb(255, 255, 255); stroke-opacity: 1; stroke-width: 1px;"/><path class="xgrid crisp" transform="translate(400.08,0)" d="M0,100v320" style="stroke: rgb(255, 255, 255); stroke-opacity: 1; stroke-width: 1px;"/><path class="xgrid crisp" transform="translate(532.9,0)" d="M0,100v320" style="stroke: rgb(255, 255, 255); stroke-opacity: 1; stroke-width: 1px;"/></g><g class="y"><path class="ygrid crisp" transform="translate(0,317.19)" d="M80,0h540" style="stroke: rgb(255, 255, 255); stroke-opacity: 1; stroke-width: 1px;"/><path class="ygrid crisp" transform="translate(0,258.48)" d="M80,0h540" style="stroke: rgb(255, 255, 255); stroke-opacity: 1; stroke-width: 1px;"/><path class="ygrid crisp" transform="translate(0,199.78)" d="M80,0h540" style="stroke: rgb(255, 255, 255); stroke-opacity: 1; stroke-width: 1px;"/><path class="ygrid crisp" transform="translate(0,141.07)" d="M80,0h540" style="stroke: rgb(255, 255, 255); stroke-opacity: 1; stroke-width: 1px;"/></g></g><g class="zerolinelayer"><path class="yzl zl crisp" transform="translate(0,375.89)" d="M80,0h540" style="stroke: rgb(255, 255, 255); stroke-opacity: 1; stroke-width: 2px;"/></g><path class="xlines-below"/><path class="ylines-below"/><g class="overlines-below"/><g class="xaxislayer-below"/><g class="yaxislayer-below"/><g class="overaxes-below"/><g class="plot" transform="translate(80,100)" clip-path="url(#clip66b8b8xyplot)"><g class="scatterlayer mlayer"><g class="trace scatter tracebbb603" style="stroke-miterlimit: 2;"><g class="fills"><g><path class="js-fill" d="M540,275.89L0,275.89L0,276.99L2.18,277L4.35,287.83L8.71,290.01L10.89,293.7L13.06,221.5L15.24,217.08L17.42,215.43L19.6,186.61L21.77,171.77L23.95,174.68L26.13,176.8L28.31,91.34L30.48,88.85L32.66,127.57L34.84,99.59L37.02,90.32L39.19,92.52L41.37,70.62L43.55,69.87L45.73,89.16L47.9,82.86L50.08,61.91L52.26,55.91L54.44,57.8L56.61,58.35L58.79,69.66L60.97,81.66L63.15,150L67.5,149.33L69.68,146.74L71.85,146.74L74.03,143.49L76.21,132.28L78.39,91.05L80.56,102.81L82.74,100.52L84.92,100.31L87.1,95.33L89.27,75.43L91.45,75.29L93.63,77.24L95.81,75.89L97.98,82.44L100.16,80.36L102.34,80.07L104.52,77.91L106.69,76.67L108.87,76.46L111.05,85.99L113.23,54.2L115.4,72.55L117.58,74.12L124.11,73.82L126.29,68.25L128.47,75.67L130.65,46.26L132.82,44.89L135,37.67L139.35,42.54L141.53,41.48L145.89,41.52L148.06,40.14L152.42,40.16L154.6,26.69L156.77,26.73L158.95,17.49L161.13,18.77L163.31,21.28L165.48,16L167.66,17.44L169.84,21.64L172.02,30.53L176.37,29.96L178.55,114.47L180.73,222.52L182.9,224.5L189.44,245.54L191.61,245.68L195.97,246.37L198.15,249.09L200.32,249.15L202.5,294.77L206.85,295.61L209.03,296.18L232.98,296.87L235.16,297.11L250.4,297.12L252.58,300.21L307.02,300.48L309.19,302.08L387.58,302.58L389.76,303.76L540,303.98" style="fill: rgb(99, 110, 250); fill-opacity: 0.5; stroke-width: 0;"/></g></g><g class="errorbars"/><g class="lines"><path class="js-line" d="M0,276.99L2.18,277L4.35,287.83L8.71,290.01L10.89,293.7L13.06,221.5L15.24,217.08L17.42,215.43L19.6,186.61L21.77,171.77L23.95,174.68L26.13,176.8L28.31,91.34L30.48,88.85L32.66,127.57L34.84,99.59L37.02,90.32L39.19,92.52L41.37,70.62L43.55,69.87L45.73,89.16L47.9,82.86L50.08,61.91L52.26,55.91L54.44,57.8L56.61,58.35L58.79,69.66L60.97,81.66L63.15,150L67.5,149.33L69.68,146.74L71.85,146.74L74.03,143.49L76.21,132.28L78.39,91.05L80.56,102.81L82.74,100.52L84.92,100.31L87.1,95.33L89.27,75.43L91.45,75.29L93.63,77.24L95.81,75.89L97.98,82.44L100.16,80.36L102.34,80.07L104.52,77.91L106.69,76.67L108.87,76.46L111.05,85.99L113.23,54.2L115.4,72.55L117.58,74.12L124.11,73.82L126.29,68.25L128.47,75.67L130.65,46.26L132.82,44.89L135,37.67L139.35,42.54L141.53,41.48L145.89,41.52L148.06,40.14L152.42,40.16L154.6,26.69L156.77,26.73L158.95,17.49L161.13,18.77L163.31,21.28L165.48,16L167.66,17.44L169.84,21.64L172.02,30.53L176.37,29.96L178.55,114.47L180.73,222.52L182.9,224.5L189.44,245.54L191.61,245.68L195.97,246.37L198.15,249.09L200.32,249.15L202.5,294.77L206.85,295.61L209.03,296.18L232.98,296.87L235.16,297.11L250.4,297.12L252.58,300.21L307.02,300.48L309.19,302.08L387.58,302.58L389.76,303.76L540,303.98" style="vector-effect: none; fill: none; stroke: rgb(99, 110, 250); stroke-opacity: 1; stroke-width: 2px; opacity: 1;"/></g><g class="points"/><g class="text"/></g></g></g><g class="overplot"/><path class="xlines-above crisp" d="M0,0" style="fill: none;"/><path class="ylines-above crisp" d="M0,0" style="fill: none;"/><g class="overlines-above"/><g class="xaxislayer-above"><g class="xtick"><text text-anchor="middle" x="0" y="433" transform="translate(132.26,0)" style="font-family: 'Open Sans', verdana, arial, sans-serif; font-size: 12px; fill: rgb(42, 63, 95); fill-opacity: 1; white-space: pre; opacity: 1;">May 2023</text></g><g class="xtick"><text text-anchor="middle" x="0" y="433" style="font-family: 'Open Sans', verdana, arial, sans-serif; font-size: 12px; fill: rgb(42, 63, 95); fill-opacity: 1; white-space: pre; opacity: 1;" transform="translate(265.08000000000004,0)">Jul 2023</text></g><g class="xtick"><text text-anchor="middle" x="0" y="433" style="font-family: 'Open Sans', verdana, arial, sans-serif; font-size: 12px; fill: rgb(42, 63, 95); fill-opacity: 1; white-space: pre; opacity: 1;" transform="translate(400.08,0)">Sep 2023</text></g><g class="xtick"><text text-anchor="middle" x="0" y="433" style="font-family: 'Open Sans', verdana, arial, sans-serif; font-size: 12px; fill: rgb(42, 63, 95); fill-opacity: 1; white-space: pre; opacity: 1;" transform="translate(532.9,0)">Nov 2023</text></g></g><g class="yaxislayer-above"><g class="ytick"><text text-anchor="end" x="79" y="4.199999999999999" transform="translate(0,375.89)" style="font-family: 'Open Sans', verdana, arial, sans-serif; font-size: 12px; fill: rgb(42, 63, 95); fill-opacity: 1; white-space: pre; opacity: 1;">$0</text></g><g class="ytick"><text text-anchor="end" x="79" y="4.199999999999999" style="font-family: 'Open Sans', verdana, arial, sans-serif; font-size: 12px; fill: rgb(42, 63, 95); fill-opacity: 1; white-space: pre; opacity: 1;" transform="translate(0,317.19)">$0.5M</text></g><g class="ytick"><text text-anchor="end" x="79" y="4.199999999999999" style="font-family: 'Open Sans', verdana, arial, sans-serif; font-size: 12px; fill: rgb(42, 63, 95); fill-opacity: 1; white-space: pre; opacity: 1;" transform="translate(0,258.48)">$1M</text></g><g class="ytick"><text text-anchor="end" x="79" y="4.199999999999999" style="font-family: 'Open Sans', verdana, arial, sans-serif; font-size: 12px; fill: rgb(42, 63, 95); fill-opacity: 1; white-space: pre; opacity: 1;" transform="translate(0,199.78)">$1.5M</text></g><g class="ytick"><text text-anchor="end" x="79" y="4.199999999999999" style="font-family: 'Open Sans', verdana, arial, sans-serif; font-size: 12px; fill: rgb(42, 63, 95); fill-opacity: 1; white-space: pre; opacity: 1;" transform="translate(0,141.07)">$2M</text></g></g><g class="overaxes-above"/></g></g><g class="polarlayer"/><g class="smithlayer"/><g class="ternarylayer"/><g class="geolayer"/><g class="funnelarealayer"/><g class="pielayer"/><g class="iciclelayer"/><g class="treemaplayer"/><g class="sunburstlayer"/><g class="glimages"/><defs id="topdefs-66b8b8"><g class="clips"/></defs><g class="layer-above"><g class="imagelayer"/><g class="shapelayer"/></g><g class="infolayer"><g class="g-gtitle"><text class="gtitle" x="35" y="50" text-anchor="start" dy="0em" style="font-family: 'Open Sans', verdana, arial, sans-serif; font-size: 17px; fill: rgb(42, 63, 95); opacity: 1; font-weight: normal; white-space: pre;"><tspan class="line" dy="0em" x="35" y="50">Lido - wstETH/OP: Velodrome</tspan><tspan class="line" dy="1.3em" x="35" y="50">​<tspan style="font-size:70%" dy="-0.6em">Cumulative Net Flows since Program Announcement, Until Program End + 30 Days - At Last Price</tspan><tspan dy="0.42em">​</tspan></tspan></text></g><g class="g-xtitle"><text class="xtitle" x="350" y="460.3" text-anchor="middle" style="font-family: 'Open Sans', verdana, arial, sans-serif; font-size: 14px; fill: rgb(42, 63, 95); opacity: 1; font-weight: normal; white-space: pre;">Day</text></g><g class="g-ytitle"><text class="ytitle" transform="rotate(-90,21.340625000000003,260)" x="21.340625000000003" y="260" text-anchor="middle" style="font-family: 'Open Sans', verdana, arial, sans-serif; font-size: 14px; fill: rgb(42, 63, 95); opacity: 1; font-weight: normal; white-space: pre;">Cumulative Net Flows (USD)</text></g></g></svg>