<svg class="main-svg" xmlns="http://www.w3.org/2000/svg" xmlns:xlink="http://www.w3.org/1999/xlink" width="700" height="500" style="" viewBox="0 0 700 500"><rect x="0" y="0" width="700" height="500" style="fill: rgb(255, 255, 255); fill-opacity: 1;"/><defs id="defs-59de59"><g class="clips"><clipPath id="clip59de59xyplot" class="plotclip"><rect width="540" height="320"/></clipPath><clipPath class="axesclip" id="clip59de59x"><rect x="80" y="0" width="540" height="500"/></clipPath><clipPath class="axesclip" id="clip59de59y"><rect x="0" y="100" width="700" height="320"/></clipPath><clipPath class="axesclip" id="clip59de59xy"><rect x="80" y="100" width="540" height="320"/></clipPath></g><g class="gradients"/><g class="patterns"/></defs><g class="bglayer"><rect class="bg" x="80" y="100" width="540" height="320" style="fill: rgb(229, 236, 246); fill-opacity: 1; stroke-width: 0;"/></g><g class="layer-below"><g class="imagelayer"/><g class="shapelayer"/></g><g class="cartesianlayer"><g class="subplot xy"><g class="layer-subplot"><g class="shapelayer"/><g class="imagelayer"/></g><g class="minor-gridlayer"><g class="x"/><g class="y"/></g><g class="gridlayer"><g class="x"><path class="xgrid crisp" transform="translate(140.41,0)" d="M0,100v320" style="stroke: rgb(255, 255, 255); stroke-opacity: 1; stroke-width: 1px;"/><path class="xgrid crisp" transform="translate(252.07,0)" d="M0,100v320" style="stroke: rgb(255, 255, 255); stroke-opacity: 1; stroke-width: 1px;"/><path class="xgrid crisp" transform="translate(360.07,0)" d="M0,100v320" style="stroke: rgb(255, 255, 255); stroke-opacity: 1; stroke-width: 1px;"/><path class="xgrid crisp" transform="translate(471.73,0)" d="M0,100v320" style="stroke: rgb(255, 255, 255); stroke-opacity: 1; stroke-width: 1px;"/><path class="xgrid crisp" transform="translate(583.39,0)" d="M0,100v320" style="stroke: rgb(255, 255, 255); stroke-opacity: 1; stroke-width: 1px;"/></g><g class="y"><path class="ygrid crisp" transform="translate(0,382.97)" d="M80,0h540" style="stroke: rgb(255, 255, 255); stroke-opacity: 1; stroke-width: 1px;"/><path class="ygrid crisp" transform="translate(0,345.94)" d="M80,0h540" style="stroke: rgb(255, 255, 255); stroke-opacity: 1; stroke-width: 1px;"/><path class="ygrid crisp" transform="translate(0,308.9)" d="M80,0h540" style="stroke: rgb(255, 255, 255); stroke-opacity: 1; stroke-width: 1px;"/><path class="ygrid crisp" transform="translate(0,271.87)" d="M80,0h540" style="stroke: rgb(255, 255, 255); stroke-opacity: 1; stroke-width: 1px;"/><path class="ygrid crisp" transform="translate(0,234.84)" d="M80,0h540" style="stroke: rgb(255, 255, 255); stroke-opacity: 1; stroke-width: 1px;"/><path class="ygrid crisp" transform="translate(0,197.81)" d="M80,0h540" style="stroke: rgb(255, 255, 255); stroke-opacity: 1; stroke-width: 1px;"/><path class="ygrid crisp" transform="translate(0,160.78)" d="M80,0h540" style="stroke: rgb(255, 255, 255); stroke-opacity: 1; stroke-width: 1px;"/><path class="ygrid crisp" transform="translate(0,123.74)" d="M80,0h540" style="stroke: rgb(255, 255, 255); stroke-opacity: 1; stroke-width: 1px;"/></g></g><g class="zerolinelayer"><path class="yzl zl crisp" transform="translate(0,420)" d="M80,0h540" style="stroke: rgb(255, 255, 255); stroke-opacity: 1; stroke-width: 2px;"/></g><path class="xlines-below"/><path class="ylines-below"/><g class="overlines-below"/><g class="xaxislayer-below"/><g class="yaxislayer-below"/><g class="overaxes-below"/><g class="plot" transform="translate(80,100)" clip-path="url(#clip59de59xyplot)"><g class="scatterlayer mlayer"><g class="trace scatter traced914ea" style="stroke-miterlimit: 2;"><g class="fills"><g><path class="js-fill" d="M540,320L0,320L0,319.8L1.83,295.63L3.66,286.06L5.49,279.75L7.32,286.61L9.15,272.79L10.98,270.98L12.81,273.75L14.64,268.91L18.31,249.7L20.14,224.78L21.97,225.61L23.8,220.91L25.63,220.21L27.46,225.07L29.29,229.04L31.12,228.9L32.95,226.52L34.78,225.57L38.44,224.58L40.27,228.4L42.1,228.35L43.93,227.45L45.76,226.12L47.59,231.48L49.42,219.13L51.25,213.92L53.08,212.56L54.92,208.35L58.58,196.13L60.41,192.48L62.24,196.97L64.07,197.79L69.56,181.4L71.39,186.44L73.22,186.43L75.05,206.19L76.88,226.61L78.71,221.56L82.37,220.97L84.2,222.5L87.86,219.71L89.69,220.34L91.53,223.15L93.36,220.98L95.19,220.8L97.02,225.21L98.85,224.37L100.68,220.99L104.34,213.87L106.17,214.07L108,212.58L109.83,213.25L111.66,216.84L113.49,215.07L115.32,210.31L117.15,207.98L120.81,217.38L122.64,216.86L124.47,219.4L126.31,227.83L128.14,232.56L129.97,230.97L131.8,229.7L133.63,223.58L135.46,224.61L137.29,222.57L139.12,217.19L140.95,218.59L144.61,225.48L146.44,224.56L148.27,224.24L150.1,224.98L151.93,221.75L153.76,222.39L155.59,209.46L157.42,209.74L159.25,210.85L161.08,210.3L162.92,209.37L164.75,207.56L166.58,209.44L168.41,208.08L173.9,204.79L175.73,201.06L181.22,198.27L183.05,212.58L184.88,213.42L186.71,208.02L188.54,205.38L190.37,205.41L192.2,199.63L194.03,198.63L195.86,180.37L197.69,170.63L199.53,164.68L201.36,161.74L203.19,163.53L205.02,170.36L206.85,185.52L208.68,178.73L212.34,201.33L214.17,182.34L216,191.4L217.83,189.83L219.66,186.57L221.49,185.86L225.15,177.91L226.98,209.87L228.81,210.71L230.64,203.54L232.47,195.42L234.31,196.65L237.97,191.23L239.8,193.79L241.63,147.72L243.46,150.44L245.29,152.05L247.12,159.04L248.95,149.28L250.78,154.87L252.61,136.57L254.44,128.89L256.27,112.46L258.1,119.25L259.93,102.86L261.76,101.58L263.59,105.55L265.42,86.69L269.08,93.74L270.92,90.72L272.75,109.56L274.58,96.56L276.41,88.97L278.24,89.78L280.07,90.48L281.9,83.41L283.73,84.61L285.56,84.25L289.22,83.69L291.05,78.39L292.88,123.68L294.71,123.64L296.54,113.32L298.37,121.26L300.2,127.13L302.03,125.58L303.86,119.96L305.69,110.44L307.53,105.01L309.36,102.85L311.19,63.9L313.02,77.53L314.85,78.09L316.68,70.27L318.51,58.04L320.34,59.51L322.17,60.66L324,60L325.83,58.89L327.66,60.16L329.49,59.26L331.32,60.77L333.15,37.15L334.98,31.92L336.81,30.6L338.64,39.6L340.47,42.29L342.31,42.86L345.97,40.3L347.8,28.44L349.63,23.15L351.46,32.85L353.29,33.71L355.12,19.62L356.95,17.26L358.78,17.14L360.61,16L362.44,24.85L364.27,27.3L366.1,28.46L367.93,36.87L369.76,34.93L371.59,35.24L373.42,45.78L377.08,46.14L378.92,46.32L380.75,45.09L382.58,34.6L386.24,31.91L388.07,32.52L391.73,31.72L393.56,35.73L395.39,25.3L397.22,26.45L399.05,28.33L400.88,31.85L402.71,30.75L404.54,43.86L406.37,44.42L408.2,43.53L411.86,43.08L413.69,46.5L417.36,47.78L419.19,50.07L421.02,54.04L422.85,54.59L424.68,54.16L426.51,54.61L428.34,57.41L430.17,56.15L432,57.93L433.83,69.87L435.66,80.22L437.49,82.11L439.32,83.91L441.15,78.41L442.98,57.91L444.81,84.78L446.64,102.12L448.47,101.6L450.31,95.32L452.14,94.38L455.8,93.02L457.63,93.64L459.46,93.75L461.29,94.69L463.12,93.11L464.95,96.69L466.78,113.64L468.61,115.6L470.44,112.19L472.27,118.43L474.1,120.64L475.93,118.14L477.76,116.48L479.59,139.17L481.42,156.83L483.25,157.42L485.08,157.39L486.92,171.9L488.75,163.21L490.58,163.48L492.41,165.51L494.24,164.63L496.07,167.1L497.9,165.67L499.73,166.01L501.56,176.65L503.39,176.47L505.22,188.44L507.05,187.18L508.88,187.99L512.54,186.84L514.37,173.49L516.2,173.63L518.03,171.45L519.86,156.07L521.69,155.47L523.53,156.68L525.36,159.38L527.19,159.86L529.02,162.92L530.85,170.48L532.68,168.32L534.51,168.14L536.34,171.9L538.17,176.85L540,186.44" style="fill: rgb(99, 110, 250); fill-opacity: 0.5; stroke-width: 0;"/></g></g><g class="errorbars"/><g class="lines"><path class="js-line" d="M0,319.8L1.83,295.63L3.66,286.06L5.49,279.75L7.32,286.61L9.15,272.79L10.98,270.98L12.81,273.75L14.64,268.91L18.31,249.7L20.14,224.78L21.97,225.61L23.8,220.91L25.63,220.21L27.46,225.07L29.29,229.04L31.12,228.9L32.95,226.52L34.78,225.57L38.44,224.58L40.27,228.4L42.1,228.35L43.93,227.45L45.76,226.12L47.59,231.48L49.42,219.13L51.25,213.92L53.08,212.56L54.92,208.35L58.58,196.13L60.41,192.48L62.24,196.97L64.07,197.79L69.56,181.4L71.39,186.44L73.22,186.43L75.05,206.19L76.88,226.61L78.71,221.56L82.37,220.97L84.2,222.5L87.86,219.71L89.69,220.34L91.53,223.15L93.36,220.98L95.19,220.8L97.02,225.21L98.85,224.37L100.68,220.99L104.34,213.87L106.17,214.07L108,212.58L109.83,213.25L111.66,216.84L113.49,215.07L115.32,210.31L117.15,207.98L120.81,217.38L122.64,216.86L124.47,219.4L126.31,227.83L128.14,232.56L129.97,230.97L131.8,229.7L133.63,223.58L135.46,224.61L137.29,222.57L139.12,217.19L140.95,218.59L144.61,225.48L146.44,224.56L148.27,224.24L150.1,224.98L151.93,221.75L153.76,222.39L155.59,209.46L157.42,209.74L159.25,210.85L161.08,210.3L162.92,209.37L164.75,207.56L166.58,209.44L168.41,208.08L173.9,204.79L175.73,201.06L181.22,198.27L183.05,212.58L184.88,213.42L186.71,208.02L188.54,205.38L190.37,205.41L192.2,199.63L194.03,198.63L195.86,180.37L197.69,170.63L199.53,164.68L201.36,161.74L203.19,163.53L205.02,170.36L206.85,185.52L208.68,178.73L212.34,201.33L214.17,182.34L216,191.4L217.83,189.83L219.66,186.57L221.49,185.86L225.15,177.91L226.98,209.87L228.81,210.71L230.64,203.54L232.47,195.42L234.31,196.65L237.97,191.23L239.8,193.79L241.63,147.72L243.46,150.44L245.29,152.05L247.12,159.04L248.95,149.28L250.78,154.87L252.61,136.57L254.44,128.89L256.27,112.46L258.1,119.25L259.93,102.86L261.76,101.58L263.59,105.55L265.42,86.69L269.08,93.74L270.92,90.72L272.75,109.56L274.58,96.56L276.41,88.97L278.24,89.78L280.07,90.48L281.9,83.41L283.73,84.61L285.56,84.25L289.22,83.69L291.05,78.39L292.88,123.68L294.71,123.64L296.54,113.32L298.37,121.26L300.2,127.13L302.03,125.58L303.86,119.96L305.69,110.44L307.53,105.01L309.36,102.85L311.19,63.9L313.02,77.53L314.85,78.09L316.68,70.27L318.51,58.04L320.34,59.51L322.17,60.66L324,60L325.83,58.89L327.66,60.16L329.49,59.26L331.32,60.77L333.15,37.15L334.98,31.92L336.81,30.6L338.64,39.6L340.47,42.29L342.31,42.86L345.97,40.3L347.8,28.44L349.63,23.15L351.46,32.85L353.29,33.71L355.12,19.62L356.95,17.26L358.78,17.14L360.61,16L362.44,24.85L364.27,27.3L366.1,28.46L367.93,36.87L369.76,34.93L371.59,35.24L373.42,45.78L377.08,46.14L378.92,46.32L380.75,45.09L382.58,34.6L386.24,31.91L388.07,32.52L391.73,31.72L393.56,35.73L395.39,25.3L397.22,26.45L399.05,28.33L400.88,31.85L402.71,30.75L404.54,43.86L406.37,44.42L408.2,43.53L411.86,43.08L413.69,46.5L417.36,47.78L419.19,50.07L421.02,54.04L422.85,54.59L424.68,54.16L426.51,54.61L428.34,57.41L430.17,56.15L432,57.93L433.83,69.87L435.66,80.22L437.49,82.11L439.32,83.91L441.15,78.41L442.98,57.91L444.81,84.78L446.64,102.12L448.47,101.6L450.31,95.32L452.14,94.38L455.8,93.02L457.63,93.64L459.46,93.75L461.29,94.69L463.12,93.11L464.95,96.69L466.78,113.64L468.61,115.6L470.44,112.19L472.27,118.43L474.1,120.64L475.93,118.14L477.76,116.48L479.59,139.17L481.42,156.83L483.25,157.42L485.08,157.39L486.92,171.9L488.75,163.21L490.58,163.48L492.41,165.51L494.24,164.63L496.07,167.1L497.9,165.67L499.73,166.01L501.56,176.65L503.39,176.47L505.22,188.44L507.05,187.18L508.88,187.99L512.54,186.84L514.37,173.49L516.2,173.63L518.03,171.45L519.86,156.07L521.69,155.47L523.53,156.68L525.36,159.38L527.19,159.86L529.02,162.92L530.85,170.48L532.68,168.32L534.51,168.14L536.34,171.9L538.17,176.85L540,186.44" style="vector-effect: none; fill: none; stroke: rgb(99, 110, 250); stroke-opacity: 1; stroke-width: 2px; opacity: 1;"/></g><g class="points"/><g class="text"/></g></g></g><g class="overplot"/><path class="xlines-above crisp" d="M0,0" style="fill: none;"/><path class="ylines-above crisp" d="M0,0" style="fill: none;"/><g class="overlines-above"/><g class="xaxislayer-above"><g class="xtick"><text text-anchor="middle" x="0" y="433" transform="translate(140.41,0)" style="font-family: 'Open Sans', verdana, arial, sans-serif; font-size: 12px; fill: rgb(42, 63, 95); fill-opacity: 1; white-space: pre; opacity: 1;">Nov 2022</text></g><g class="xtick"><text text-anchor="middle" x="0" y="433" style="font-family: 'Open Sans', verdana, arial, sans-serif; font-size: 12px; fill: rgb(42, 63, 95); fill-opacity: 1; white-space: pre; opacity: 1;" transform="translate(252.07,0)">Jan 2023</text></g><g class="xtick"><text text-anchor="middle" x="0" y="433" style="font-family: 'Open Sans', verdana, arial, sans-serif; font-size: 12px; fill: rgb(42, 63, 95); fill-opacity: 1; white-space: pre; opacity: 1;" transform="translate(360.07,0)">Mar 2023</text></g><g class="xtick"><text text-anchor="middle" x="0" y="433" style="font-family: 'Open Sans', verdana, arial, sans-serif; font-size: 12px; fill: rgb(42, 63, 95); fill-opacity: 1; white-space: pre; opacity: 1;" transform="translate(471.73,0)">May 2023</text></g><g class="xtick"><text text-anchor="middle" x="0" y="433" style="font-family: 'Open Sans', verdana, arial, sans-serif; font-size: 12px; fill: rgb(42, 63, 95); fill-opacity: 1; white-space: pre; opacity: 1;" transform="translate(583.39,0)">Jul 2023</text></g></g><g class="yaxislayer-above"><g class="ytick"><text text-anchor="end" x="79" y="4.199999999999999" transform="translate(0,420)" style="font-family: 'Open Sans', verdana, arial, sans-serif; font-size: 12px; fill: rgb(42, 63, 95); fill-opacity: 1; white-space: pre; opacity: 1;">$0</text></g><g class="ytick"><text text-anchor="end" x="79" y="4.199999999999999" style="font-family: 'Open Sans', verdana, arial, sans-serif; font-size: 12px; fill: rgb(42, 63, 95); fill-opacity: 1; white-space: pre; opacity: 1;" transform="translate(0,382.97)">$5M</text></g><g class="ytick"><text text-anchor="end" x="79" y="4.199999999999999" style="font-family: 'Open Sans', verdana, arial, sans-serif; font-size: 12px; fill: rgb(42, 63, 95); fill-opacity: 1; white-space: pre; opacity: 1;" transform="translate(0,345.94)">$10M</text></g><g class="ytick"><text text-anchor="end" x="79" y="4.199999999999999" style="font-family: 'Open Sans', verdana, arial, sans-serif; font-size: 12px; fill: rgb(42, 63, 95); fill-opacity: 1; white-space: pre; opacity: 1;" transform="translate(0,308.9)">$15M</text></g><g class="ytick"><text text-anchor="end" x="79" y="4.199999999999999" style="font-family: 'Open Sans', verdana, arial, sans-serif; font-size: 12px; fill: rgb(42, 63, 95); fill-opacity: 1; white-space: pre; opacity: 1;" transform="translate(0,271.87)">$20M</text></g><g class="ytick"><text text-anchor="end" x="79" y="4.199999999999999" style="font-family: 'Open Sans', verdana, arial, sans-serif; font-size: 12px; fill: rgb(42, 63, 95); fill-opacity: 1; white-space: pre; opacity: 1;" transform="translate(0,234.84)">$25M</text></g><g class="ytick"><text text-anchor="end" x="79" y="4.199999999999999" style="font-family: 'Open Sans', verdana, arial, sans-serif; font-size: 12px; fill: rgb(42, 63, 95); fill-opacity: 1; white-space: pre; opacity: 1;" transform="translate(0,197.81)">$30M</text></g><g class="ytick"><text text-anchor="end" x="79" y="4.199999999999999" style="font-family: 'Open Sans', verdana, arial, sans-serif; font-size: 12px; fill: rgb(42, 63, 95); fill-opacity: 1; white-space: pre; opacity: 1;" transform="translate(0,160.78)">$35M</text></g><g class="ytick"><text text-anchor="end" x="79" y="4.199999999999999" style="font-family: 'Open Sans', verdana, arial, sans-serif; font-size: 12px; fill: rgb(42, 63, 95); fill-opacity: 1; white-space: pre; opacity: 1;" transform="translate(0,123.74)">$40M</text></g></g><g class="overaxes-above"/></g></g><g class="polarlayer"/><g class="smithlayer"/><g class="ternarylayer"/><g class="geolayer"/><g class="funnelarealayer"/><g class="pielayer"/><g class="iciclelayer"/><g class="treemaplayer"/><g class="sunburstlayer"/><g class="glimages"/><defs id="topdefs-59de59"><g class="clips"/></defs><g class="layer-above"><g class="imagelayer"/><g class="shapelayer"/></g><g class="infolayer"><g class="g-gtitle"><text class="gtitle" x="35" y="50" text-anchor="start" dy="0em" style="font-family: 'Open Sans', verdana, arial, sans-serif; font-size: 17px; fill: rgb(42, 63, 95); opacity: 1; font-weight: normal; white-space: pre;"><tspan class="line" dy="0em" x="35" y="50">Beethoven X</tspan><tspan class="line" dy="1.3em" x="35" y="50">​<tspan style="font-size:70%" dy="-0.6em">Cumulative Net Flows since Program Announcement, Until Program End + 30 Days - At Last Price</tspan><tspan dy="0.42em">​</tspan></tspan></text></g><g class="g-xtitle"><text class="xtitle" x="350" y="460.3" text-anchor="middle" style="font-family: 'Open Sans', verdana, arial, sans-serif; font-size: 14px; fill: rgb(42, 63, 95); opacity: 1; font-weight: normal; white-space: pre;">Day</text></g><g class="g-ytitle"><text class="ytitle" transform="rotate(-90,24.668750000000003,260)" x="24.668750000000003" y="260" text-anchor="middle" style="font-family: 'Open Sans', verdana, arial, sans-serif; font-size: 14px; fill: rgb(42, 63, 95); opacity: 1; font-weight: normal; white-space: pre;">Cumulative Net Flows (USD)</text></g></g></svg>