<svg class="main-svg" xmlns="http://www.w3.org/2000/svg" xmlns:xlink="http://www.w3.org/1999/xlink" width="700" height="500" style="" viewBox="0 0 700 500"><rect x="0" y="0" width="700" height="500" style="fill: rgb(255, 255, 255); fill-opacity: 1;"/><defs id="defs-f05234"><g class="clips"><clipPath id="clipf05234xyplot" class="plotclip"><rect width="540" height="320"/></clipPath><clipPath class="axesclip" id="clipf05234x"><rect x="80" y="0" width="540" height="500"/></clipPath><clipPath class="axesclip" id="clipf05234y"><rect x="0" y="100" width="700" height="320"/></clipPath><clipPath class="axesclip" id="clipf05234xy"><rect x="80" y="100" width="540" height="320"/></clipPath></g><g class="gradients"/><g class="patterns"/></defs><g class="bglayer"><rect class="bg" x="80" y="100" width="540" height="320" style="fill: rgb(229, 236, 246); fill-opacity: 1; stroke-width: 0;"/></g><g class="layer-below"><g class="imagelayer"/><g class="shapelayer"/></g><g class="cartesianlayer"><g class="subplot xy"><g class="layer-subplot"><g class="shapelayer"/><g class="imagelayer"/></g><g class="minor-gridlayer"><g class="x"/><g class="y"/></g><g class="gridlayer"><g class="x"><path class="xgrid crisp" transform="translate(177.43,0)" d="M0,100v320" style="stroke: rgb(255, 255, 255); stroke-opacity: 1; stroke-width: 1px;"/><path class="xgrid crisp" transform="translate(278.16999999999996,0)" d="M0,100v320" style="stroke: rgb(255, 255, 255); stroke-opacity: 1; stroke-width: 1px;"/><path class="xgrid crisp" transform="translate(380.55,0)" d="M0,100v320" style="stroke: rgb(255, 255, 255); stroke-opacity: 1; stroke-width: 1px;"/><path class="xgrid crisp" transform="translate(481.28,0)" d="M0,100v320" style="stroke: rgb(255, 255, 255); stroke-opacity: 1; stroke-width: 1px;"/><path class="xgrid crisp" transform="translate(582.02,0)" d="M0,100v320" style="stroke: rgb(255, 255, 255); stroke-opacity: 1; stroke-width: 1px;"/></g><g class="y"><path class="ygrid crisp" transform="translate(0,404.67)" d="M80,0h540" style="stroke: rgb(255, 255, 255); stroke-opacity: 1; stroke-width: 1px;"/><path class="ygrid crisp" transform="translate(0,336.66999999999996)" d="M80,0h540" style="stroke: rgb(255, 255, 255); stroke-opacity: 1; stroke-width: 1px;"/><path class="ygrid crisp" transform="translate(0,200.67000000000002)" d="M80,0h540" style="stroke: rgb(255, 255, 255); stroke-opacity: 1; stroke-width: 1px;"/><path class="ygrid crisp" transform="translate(0,132.67000000000002)" d="M80,0h540" style="stroke: rgb(255, 255, 255); stroke-opacity: 1; stroke-width: 1px;"/></g></g><g class="zerolinelayer"><path class="yzl zl crisp" transform="translate(0,268.66999999999996)" d="M80,0h540" style="stroke: rgb(255, 255, 255); stroke-opacity: 1; stroke-width: 2px;"/></g><path class="xlines-below"/><path class="ylines-below"/><g class="overlines-below"/><g class="xaxislayer-below"/><g class="yaxislayer-below"/><g class="overaxes-below"/><g class="plot" transform="translate(80,100)" clip-path="url(#clipf05234xyplot)"><g class="scatterlayer mlayer"><g class="trace scatter trace28d4a6" style="stroke-miterlimit: 2;"><g class="fills"><g><path class="js-fill" d="M540,168.67L0,168.67L0,149.45L1.65,90.48L3.3,106.29L4.95,108.02L6.61,48.87L8.26,46.06L9.91,101.14L11.56,103.54L13.21,137.27L14.86,242.39L16.51,231.91L18.17,168.12L19.82,153.24L21.47,148.71L23.12,148.33L24.77,145.88L26.42,141.28L28.07,127.71L29.72,123.5L31.38,123.5L33.03,88.56L34.68,88.89L36.33,96.98L37.98,131.4L39.63,114.09L41.28,118.55L42.94,114.12L44.59,114.34L46.24,131.93L47.89,85.42L49.54,85.6L51.19,81.55L52.84,80.47L54.5,64.88L56.15,81.86L59.45,76.66L61.1,16L62.75,54.27L64.4,33.94L66.06,69.68L67.71,68.43L69.36,77.19L71.01,74.09L72.66,69.5L74.31,58.6L75.96,51.28L77.61,35.54L79.27,43.57L80.92,47.54L82.57,26.76L84.22,38.62L85.87,27.98L87.52,33.4L89.17,304L123.85,84.85L125.5,84.84L127.16,89.85L128.81,90.92L130.46,95.23L135.41,94.1L137.06,99.01L140.37,81.94L142.02,81.83L143.67,118.71L145.32,124.06L146.97,124.99L148.62,134.15L150.28,149.88L151.93,150.77L153.58,170L155.23,174.08L156.88,174.62L158.53,178.08L160.18,172.03L161.83,178.52L165.14,178.46L166.79,178.45L170.09,180.14L171.74,181.3L173.39,215.23L175.05,216.94L176.7,230.65L178.35,232.1L180,236.49L181.65,235.83L183.3,235.13L184.95,235.72L186.61,233.65L188.26,232.91L189.91,232.25L191.56,233.41L193.21,233.4L194.86,245.58L199.82,246.16L201.47,246.19L203.12,246.17L204.77,247.01L206.42,246.99L208.07,249.4L209.72,269.76L211.38,265.24L214.68,267.84L216.33,267.87L217.98,269.2L219.63,271.97L221.28,274.17L222.94,274.31L224.59,276.75L226.24,276.74L231.19,276.72L232.84,280.73L252.66,280.41L254.31,280.27L257.61,279.75L259.27,279.74L260.92,279.76L262.57,281.25L265.87,281.19L267.52,284.53L269.17,299.93L272.48,284.73L275.78,284.71L277.43,287.81L279.08,288.08L280.73,290.69L300.55,291.39L302.2,291.54L303.85,291.54L305.5,277.88L318.72,277.98L320.37,291.86L333.58,292.04L335.23,291.99L355.05,292.6L356.7,291.74L391.38,292.02L393.03,292.97L411.19,293.56L412.84,294.25L416.15,294.8L417.8,294.8L431.01,295.03L432.66,299.54L434.31,295.01L435.96,295.01L516.88,295.82L518.53,294.6L520.18,294.44L521.83,295.96L525.14,296.39L526.79,296.37L540,296.69" style="fill: rgb(99, 110, 250); fill-opacity: 0.5; stroke-width: 0;"/></g></g><g class="errorbars"/><g class="lines"><path class="js-line" d="M0,149.45L1.65,90.48L3.3,106.29L4.95,108.02L6.61,48.87L8.26,46.06L9.91,101.14L11.56,103.54L13.21,137.27L14.86,242.39L16.51,231.91L18.17,168.12L19.82,153.24L21.47,148.71L23.12,148.33L24.77,145.88L26.42,141.28L28.07,127.71L29.72,123.5L31.38,123.5L33.03,88.56L34.68,88.89L36.33,96.98L37.98,131.4L39.63,114.09L41.28,118.55L42.94,114.12L44.59,114.34L46.24,131.93L47.89,85.42L49.54,85.6L51.19,81.55L52.84,80.47L54.5,64.88L56.15,81.86L59.45,76.66L61.1,16L62.75,54.27L64.4,33.94L66.06,69.68L67.71,68.43L69.36,77.19L71.01,74.09L72.66,69.5L74.31,58.6L75.96,51.28L77.61,35.54L79.27,43.57L80.92,47.54L82.57,26.76L84.22,38.62L85.87,27.98L87.52,33.4L89.17,304L123.85,84.85L125.5,84.84L127.16,89.85L128.81,90.92L130.46,95.23L135.41,94.1L137.06,99.01L140.37,81.94L142.02,81.83L143.67,118.71L145.32,124.06L146.97,124.99L148.62,134.15L150.28,149.88L151.93,150.77L153.58,170L155.23,174.08L156.88,174.62L158.53,178.08L160.18,172.03L161.83,178.52L165.14,178.46L166.79,178.45L170.09,180.14L171.74,181.3L173.39,215.23L175.05,216.94L176.7,230.65L178.35,232.1L180,236.49L181.65,235.83L183.3,235.13L184.95,235.72L186.61,233.65L188.26,232.91L189.91,232.25L191.56,233.41L193.21,233.4L194.86,245.58L199.82,246.16L201.47,246.19L203.12,246.17L204.77,247.01L206.42,246.99L208.07,249.4L209.72,269.76L211.38,265.24L214.68,267.84L216.33,267.87L217.98,269.2L219.63,271.97L221.28,274.17L222.94,274.31L224.59,276.75L226.24,276.74L231.19,276.72L232.84,280.73L252.66,280.41L254.31,280.27L257.61,279.75L259.27,279.74L260.92,279.76L262.57,281.25L265.87,281.19L267.52,284.53L269.17,299.93L272.48,284.73L275.78,284.71L277.43,287.81L279.08,288.08L280.73,290.69L300.55,291.39L302.2,291.54L303.85,291.54L305.5,277.88L318.72,277.98L320.37,291.86L333.58,292.04L335.23,291.99L355.05,292.6L356.7,291.74L391.38,292.02L393.03,292.97L411.19,293.56L412.84,294.25L416.15,294.8L417.8,294.8L431.01,295.03L432.66,299.54L434.31,295.01L435.96,295.01L516.88,295.82L518.53,294.6L520.18,294.44L521.83,295.96L525.14,296.39L526.79,296.37L540,296.69" style="vector-effect: none; fill: none; stroke: rgb(99, 110, 250); stroke-opacity: 1; stroke-width: 2px; opacity: 1;"/></g><g class="points"/><g class="text"/></g></g></g><g class="overplot"/><path class="xlines-above crisp" d="M0,0" style="fill: none;"/><path class="ylines-above crisp" d="M0,0" style="fill: none;"/><g class="overlines-above"/><g class="xaxislayer-above"><g class="xtick"><text text-anchor="middle" x="0" y="433" transform="translate(177.43,0)" style="font-family: 'Open Sans', verdana, arial, sans-serif; font-size: 12px; fill: rgb(42, 63, 95); fill-opacity: 1; white-space: pre; opacity: 1;">May 2023</text></g><g class="xtick"><text text-anchor="middle" x="0" y="433" style="font-family: 'Open Sans', verdana, arial, sans-serif; font-size: 12px; fill: rgb(42, 63, 95); fill-opacity: 1; white-space: pre; opacity: 1;" transform="translate(278.16999999999996,0)">Jul 2023</text></g><g class="xtick"><text text-anchor="middle" x="0" y="433" style="font-family: 'Open Sans', verdana, arial, sans-serif; font-size: 12px; fill: rgb(42, 63, 95); fill-opacity: 1; white-space: pre; opacity: 1;" transform="translate(380.55,0)">Sep 2023</text></g><g class="xtick"><text text-anchor="middle" x="0" y="433" style="font-family: 'Open Sans', verdana, arial, sans-serif; font-size: 12px; fill: rgb(42, 63, 95); fill-opacity: 1; white-space: pre; opacity: 1;" transform="translate(481.28,0)">Nov 2023</text></g><g class="xtick"><text text-anchor="middle" x="0" y="433" style="font-family: 'Open Sans', verdana, arial, sans-serif; font-size: 12px; fill: rgb(42, 63, 95); fill-opacity: 1; white-space: pre; opacity: 1;" transform="translate(582.02,0)">Jan 2024</text></g></g><g class="yaxislayer-above"><g class="ytick"><text text-anchor="end" x="79" y="4.199999999999999" transform="translate(0,404.67)" style="font-family: 'Open Sans', verdana, arial, sans-serif; font-size: 12px; fill: rgb(42, 63, 95); fill-opacity: 1; white-space: pre; opacity: 1;">$−2M</text></g><g class="ytick"><text text-anchor="end" x="79" y="4.199999999999999" style="font-family: 'Open Sans', verdana, arial, sans-serif; font-size: 12px; fill: rgb(42, 63, 95); fill-opacity: 1; white-space: pre; opacity: 1;" transform="translate(0,336.66999999999996)">$−1M</text></g><g class="ytick"><text text-anchor="end" x="79" y="4.199999999999999" style="font-family: 'Open Sans', verdana, arial, sans-serif; font-size: 12px; fill: rgb(42, 63, 95); fill-opacity: 1; white-space: pre; opacity: 1;" transform="translate(0,268.66999999999996)">$0</text></g><g class="ytick"><text text-anchor="end" x="79" y="4.199999999999999" style="font-family: 'Open Sans', verdana, arial, sans-serif; font-size: 12px; fill: rgb(42, 63, 95); fill-opacity: 1; white-space: pre; opacity: 1;" transform="translate(0,200.67000000000002)">$1M</text></g><g class="ytick"><text text-anchor="end" x="79" y="4.199999999999999" style="font-family: 'Open Sans', verdana, arial, sans-serif; font-size: 12px; fill: rgb(42, 63, 95); fill-opacity: 1; white-space: pre; opacity: 1;" transform="translate(0,132.67000000000002)">$2M</text></g></g><g class="overaxes-above"/></g></g><g class="polarlayer"/><g class="smithlayer"/><g class="ternarylayer"/><g class="geolayer"/><g class="funnelarealayer"/><g class="pielayer"/><g class="iciclelayer"/><g class="treemaplayer"/><g class="sunburstlayer"/><g class="glimages"/><defs id="topdefs-f05234"><g class="clips"/></defs><g class="layer-above"><g class="imagelayer"/><g class="shapelayer"/></g><g class="infolayer"><g class="g-gtitle"><text class="gtitle" x="35" y="50" text-anchor="start" dy="0em" style="font-family: 'Open Sans', verdana, arial, sans-serif; font-size: 17px; fill: rgb(42, 63, 95); opacity: 1; font-weight: normal; white-space: pre;"><tspan class="line" dy="0em" x="35" y="50">Sushi Trident</tspan><tspan class="line" dy="1.3em" x="35" y="50">​<tspan style="font-size:70%" dy="-0.6em">Cumulative Net Flows since Program Announcement, Until Program End + 30 Days - At Last Price</tspan><tspan dy="0.42em">​</tspan></tspan></text></g><g class="g-xtitle"><text class="xtitle" x="350" y="460.3" text-anchor="middle" style="font-family: 'Open Sans', verdana, arial, sans-serif; font-size: 14px; fill: rgb(42, 63, 95); opacity: 1; font-weight: normal; white-space: pre;">Day</text></g><g class="g-ytitle"><text class="ytitle" transform="rotate(-90,24.340625000000003,260)" x="24.340625000000003" y="260" text-anchor="middle" style="font-family: 'Open Sans', verdana, arial, sans-serif; font-size: 14px; fill: rgb(42, 63, 95); opacity: 1; font-weight: normal; white-space: pre;">Cumulative Net Flows (USD)</text></g></g></svg>