<svg class="main-svg" xmlns="http://www.w3.org/2000/svg" xmlns:xlink="http://www.w3.org/1999/xlink" width="700" height="500" style="" viewBox="0 0 700 500"><rect x="0" y="0" width="700" height="500" style="fill: rgb(255, 255, 255); fill-opacity: 1;"/><defs id="defs-dfdccb"><g class="clips"><clipPath id="clipdfdccbxyplot" class="plotclip"><rect width="540" height="320"/></clipPath><clipPath class="axesclip" id="clipdfdccbx"><rect x="80" y="0" width="540" height="500"/></clipPath><clipPath class="axesclip" id="clipdfdccby"><rect x="0" y="100" width="700" height="320"/></clipPath><clipPath class="axesclip" id="clipdfdccbxy"><rect x="80" y="100" width="540" height="320"/></clipPath></g><g class="gradients"/><g class="patterns"/></defs><g class="bglayer"><rect class="bg" x="80" y="100" width="540" height="320" style="fill: rgb(229, 236, 246); fill-opacity: 1; stroke-width: 0;"/></g><g class="layer-below"><g class="imagelayer"/><g class="shapelayer"/></g><g class="cartesianlayer"><g class="subplot xy"><g class="layer-subplot"><g class="shapelayer"/><g class="imagelayer"/></g><g class="minor-gridlayer"><g class="x"/><g class="y"/></g><g class="gridlayer"><g class="x"><path class="xgrid crisp" transform="translate(100.25,0)" d="M0,100v320" style="stroke: rgb(255, 255, 255); stroke-opacity: 1; stroke-width: 1px;"/><path class="xgrid crisp" transform="translate(237.5,0)" d="M0,100v320" style="stroke: rgb(255, 255, 255); stroke-opacity: 1; stroke-width: 1px;"/><path class="xgrid crisp" transform="translate(374.75,0)" d="M0,100v320" style="stroke: rgb(255, 255, 255); stroke-opacity: 1; stroke-width: 1px;"/><path class="xgrid crisp" transform="translate(514.25,0)" d="M0,100v320" style="stroke: rgb(255, 255, 255); stroke-opacity: 1; stroke-width: 1px;"/></g><g class="y"><path class="ygrid crisp" transform="translate(0,383.9)" d="M80,0h540" style="stroke: rgb(255, 255, 255); stroke-opacity: 1; stroke-width: 1px;"/><path class="ygrid crisp" transform="translate(0,327.39)" d="M80,0h540" style="stroke: rgb(255, 255, 255); stroke-opacity: 1; stroke-width: 1px;"/><path class="ygrid crisp" transform="translate(0,214.38)" d="M80,0h540" style="stroke: rgb(255, 255, 255); stroke-opacity: 1; stroke-width: 1px;"/><path class="ygrid crisp" transform="translate(0,157.88)" d="M80,0h540" style="stroke: rgb(255, 255, 255); stroke-opacity: 1; stroke-width: 1px;"/><path class="ygrid crisp" transform="translate(0,101.37)" d="M80,0h540" style="stroke: rgb(255, 255, 255); stroke-opacity: 1; stroke-width: 1px;"/></g></g><g class="zerolinelayer"><path class="yzl zl crisp" transform="translate(0,270.89)" d="M80,0h540" style="stroke: rgb(255, 255, 255); stroke-opacity: 1; stroke-width: 2px;"/></g><path class="xlines-below"/><path class="ylines-below"/><g class="overlines-below"/><g class="xaxislayer-below"/><g class="yaxislayer-below"/><g class="overaxes-below"/><g class="plot" transform="translate(80,100)" clip-path="url(#clipdfdccbxyplot)"><g class="scatterlayer mlayer"><g class="trace scatter trace6a609c" style="stroke-miterlimit: 2;"><g class="fills"><g><path class="js-fill" d="M540,170.89L0,170.89L0,169.69L2.25,168.01L4.5,163.59L9,87.72L11.25,67L13.5,72.25L15.75,61.51L18,62.7L20.25,62.41L22.5,47.69L24.75,45.66L27,38.34L29.25,39.59L31.5,33.09L33.75,18.95L36,16L38.25,52.79L40.5,53.1L42.75,112.74L45,117.07L47.25,237.12L49.5,265.21L51.75,265.17L63,265.38L65.25,272.16L90,271.59L92.25,270.72L94.5,270.3L96.75,269.1L99,264.69L101.25,264.33L108,264.29L110.25,262.04L114.75,262.03L117,261.17L121.5,259.24L123.75,254.98L126,248.63L128.25,249.51L130.5,253.18L132.75,252.97L135,255.32L137.25,255.1L139.5,250.58L141.75,250.58L144,250.58L146.25,249.28L148.5,238.41L150.75,238.41L153,242.82L155.25,263.02L157.5,259.6L159.75,259.6L162,258.11L164.25,255.17L168.75,255.61L171,255.31L173.25,255.28L175.5,251.5L177.75,255.22L180,265.26L189,265.24L191.25,260.53L193.5,260.53L195.75,265.24L200.25,265.4L202.5,266.79L204.75,267.95L207,267.94L209.25,274.85L211.5,274.84L234,274.24L236.25,275.17L238.5,275.17L240.75,273.06L243,275.55L245.25,276.32L247.5,278.51L249.75,279.4L261,280.35L263.25,284.9L265.5,289.66L267.75,289.7L270,291.56L272.25,291.56L285.75,292.29L288,294.03L292.5,294.28L294.75,299.79L297,301.26L299.25,301.26L326.25,301.59L328.5,301.59L418.5,301.7L420.75,304L423,301.7L425.25,301.7L468,302.43L470.25,303.91L472.5,302.44L474.75,302.44L477,303.32L479.25,303.32L540,303.32" style="fill: rgb(99, 110, 250); fill-opacity: 0.5; stroke-width: 0;"/></g></g><g class="errorbars"/><g class="lines"><path class="js-line" d="M0,169.69L2.25,168.01L4.5,163.59L9,87.72L11.25,67L13.5,72.25L15.75,61.51L18,62.7L20.25,62.41L22.5,47.69L24.75,45.66L27,38.34L29.25,39.59L31.5,33.09L33.75,18.95L36,16L38.25,52.79L40.5,53.1L42.75,112.74L45,117.07L47.25,237.12L49.5,265.21L51.75,265.17L63,265.38L65.25,272.16L90,271.59L92.25,270.72L94.5,270.3L96.75,269.1L99,264.69L101.25,264.33L108,264.29L110.25,262.04L114.75,262.03L117,261.17L121.5,259.24L123.75,254.98L126,248.63L128.25,249.51L130.5,253.18L132.75,252.97L135,255.32L137.25,255.1L139.5,250.58L141.75,250.58L144,250.58L146.25,249.28L148.5,238.41L150.75,238.41L153,242.82L155.25,263.02L157.5,259.6L159.75,259.6L162,258.11L164.25,255.17L168.75,255.61L171,255.31L173.25,255.28L175.5,251.5L177.75,255.22L180,265.26L189,265.24L191.25,260.53L193.5,260.53L195.75,265.24L200.25,265.4L202.5,266.79L204.75,267.95L207,267.94L209.25,274.85L211.5,274.84L234,274.24L236.25,275.17L238.5,275.17L240.75,273.06L243,275.55L245.25,276.32L247.5,278.51L249.75,279.4L261,280.35L263.25,284.9L265.5,289.66L267.75,289.7L270,291.56L272.25,291.56L285.75,292.29L288,294.03L292.5,294.28L294.75,299.79L297,301.26L299.25,301.26L326.25,301.59L328.5,301.59L418.5,301.7L420.75,304L423,301.7L425.25,301.7L468,302.43L470.25,303.91L472.5,302.44L474.75,302.44L477,303.32L479.25,303.32L540,303.32" style="vector-effect: none; fill: none; stroke: rgb(99, 110, 250); stroke-opacity: 1; stroke-width: 2px; opacity: 1;"/></g><g class="points"/><g class="text"/></g></g></g><g class="overplot"/><path class="xlines-above crisp" d="M0,0" style="fill: none;"/><path class="ylines-above crisp" d="M0,0" style="fill: none;"/><g class="overlines-above"/><g class="xaxislayer-above"><g class="xtick"><text text-anchor="middle" x="0" y="433" transform="translate(100.25,0)" style="font-family: 'Open Sans', verdana, arial, sans-serif; font-size: 12px; fill: rgb(42, 63, 95); fill-opacity: 1; white-space: pre; opacity: 1;">Mar 2023</text></g><g class="xtick"><text text-anchor="middle" x="0" y="433" style="font-family: 'Open Sans', verdana, arial, sans-serif; font-size: 12px; fill: rgb(42, 63, 95); fill-opacity: 1; white-space: pre; opacity: 1;" transform="translate(237.5,0)">May 2023</text></g><g class="xtick"><text text-anchor="middle" x="0" y="433" style="font-family: 'Open Sans', verdana, arial, sans-serif; font-size: 12px; fill: rgb(42, 63, 95); fill-opacity: 1; white-space: pre; opacity: 1;" transform="translate(374.75,0)">Jul 2023</text></g><g class="xtick"><text text-anchor="middle" x="0" y="433" style="font-family: 'Open Sans', verdana, arial, sans-serif; font-size: 12px; fill: rgb(42, 63, 95); fill-opacity: 1; white-space: pre; opacity: 1;" transform="translate(514.25,0)">Sep 2023</text></g></g><g class="yaxislayer-above"><g class="ytick"><text text-anchor="end" x="79" y="4.199999999999999" transform="translate(0,383.9)" style="font-family: 'Open Sans', verdana, arial, sans-serif; font-size: 12px; fill: rgb(42, 63, 95); fill-opacity: 1; white-space: pre; opacity: 1;">$−1M</text></g><g class="ytick"><text text-anchor="end" x="79" y="4.199999999999999" style="font-family: 'Open Sans', verdana, arial, sans-serif; font-size: 12px; fill: rgb(42, 63, 95); fill-opacity: 1; white-space: pre; opacity: 1;" transform="translate(0,327.39)">$−0.5M</text></g><g class="ytick"><text text-anchor="end" x="79" y="4.199999999999999" style="font-family: 'Open Sans', verdana, arial, sans-serif; font-size: 12px; fill: rgb(42, 63, 95); fill-opacity: 1; white-space: pre; opacity: 1;" transform="translate(0,270.89)">$0</text></g><g class="ytick"><text text-anchor="end" x="79" y="4.199999999999999" style="font-family: 'Open Sans', verdana, arial, sans-serif; font-size: 12px; fill: rgb(42, 63, 95); fill-opacity: 1; white-space: pre; opacity: 1;" transform="translate(0,214.38)">$0.5M</text></g><g class="ytick"><text text-anchor="end" x="79" y="4.199999999999999" style="font-family: 'Open Sans', verdana, arial, sans-serif; font-size: 12px; fill: rgb(42, 63, 95); fill-opacity: 1; white-space: pre; opacity: 1;" transform="translate(0,157.88)">$1M</text></g><g class="ytick"><text text-anchor="end" x="79" y="4.199999999999999" style="font-family: 'Open Sans', verdana, arial, sans-serif; font-size: 12px; fill: rgb(42, 63, 95); fill-opacity: 1; white-space: pre; opacity: 1;" transform="translate(0,101.37)">$1.5M</text></g></g><g class="overaxes-above"/></g></g><g class="polarlayer"/><g class="smithlayer"/><g class="ternarylayer"/><g class="geolayer"/><g class="funnelarealayer"/><g class="pielayer"/><g class="iciclelayer"/><g class="treemaplayer"/><g class="sunburstlayer"/><g class="glimages"/><defs id="topdefs-dfdccb"><g class="clips"/></defs><g class="layer-above"><g class="imagelayer"/><g class="shapelayer"/></g><g class="infolayer"><g class="g-gtitle"><text class="gtitle" x="35" y="50" text-anchor="start" dy="0em" style="font-family: 'Open Sans', verdana, arial, sans-serif; font-size: 17px; fill: rgb(42, 63, 95); opacity: 1; font-weight: normal; white-space: pre;"><tspan class="line" dy="0em" x="35" y="50">Angle - agEUR/MAI: Velodrome</tspan><tspan class="line" dy="1.3em" x="35" y="50">​<tspan style="font-size:70%" dy="-0.6em">Cumulative Net Flows since Program Announcement, Until Program End + 30 Days - At Last Price</tspan><tspan dy="0.42em">​</tspan></tspan></text></g><g class="g-xtitle"><text class="xtitle" x="350" y="460.3" text-anchor="middle" style="font-family: 'Open Sans', verdana, arial, sans-serif; font-size: 14px; fill: rgb(42, 63, 95); opacity: 1; font-weight: normal; white-space: pre;">Day</text></g><g class="g-ytitle"><text class="ytitle" transform="rotate(-90,14.340625000000003,260)" x="14.340625000000003" y="260" text-anchor="middle" style="font-family: 'Open Sans', verdana, arial, sans-serif; font-size: 14px; fill: rgb(42, 63, 95); opacity: 1; font-weight: normal; white-space: pre;">Cumulative Net Flows (USD)</text></g></g></svg>