<svg class="main-svg" xmlns="http://www.w3.org/2000/svg" xmlns:xlink="http://www.w3.org/1999/xlink" width="700" height="500" style="" viewBox="0 0 700 500"><rect x="0" y="0" width="700" height="500" style="fill: rgb(255, 255, 255); fill-opacity: 1;"/><defs id="defs-18afff"><g class="clips"><clipPath id="clip18afffxyplot" class="plotclip"><rect width="540" height="320"/></clipPath><clipPath class="axesclip" id="clip18afffx"><rect x="80" y="0" width="540" height="500"/></clipPath><clipPath class="axesclip" id="clip18afffy"><rect x="0" y="100" width="700" height="320"/></clipPath><clipPath class="axesclip" id="clip18afffxy"><rect x="80" y="100" width="540" height="320"/></clipPath></g><g class="gradients"/><g class="patterns"/></defs><g class="bglayer"><rect class="bg" x="80" y="100" width="540" height="320" style="fill: rgb(229, 236, 246); fill-opacity: 1; stroke-width: 0;"/></g><g class="layer-below"><g class="imagelayer"/><g class="shapelayer"/></g><g class="cartesianlayer"><g class="subplot xy"><g class="layer-subplot"><g class="shapelayer"/><g class="imagelayer"/></g><g class="minor-gridlayer"><g class="x"/><g class="y"/></g><g class="gridlayer"><g class="x"><path class="xgrid crisp" transform="translate(126.82,0)" d="M0,100v320" style="stroke: rgb(255, 255, 255); stroke-opacity: 1; stroke-width: 1px;"/><path class="xgrid crisp" transform="translate(222.02,0)" d="M0,100v320" style="stroke: rgb(255, 255, 255); stroke-opacity: 1; stroke-width: 1px;"/><path class="xgrid crisp" transform="translate(317.23,0)" d="M0,100v320" style="stroke: rgb(255, 255, 255); stroke-opacity: 1; stroke-width: 1px;"/><path class="xgrid crisp" transform="translate(409.31,0)" d="M0,100v320" style="stroke: rgb(255, 255, 255); stroke-opacity: 1; stroke-width: 1px;"/><path class="xgrid crisp" transform="translate(504.51,0)" d="M0,100v320" style="stroke: rgb(255, 255, 255); stroke-opacity: 1; stroke-width: 1px;"/><path class="xgrid crisp" transform="translate(599.71,0)" d="M0,100v320" style="stroke: rgb(255, 255, 255); stroke-opacity: 1; stroke-width: 1px;"/></g><g class="y"><path class="ygrid crisp" transform="translate(0,303.46000000000004)" d="M80,0h540" style="stroke: rgb(255, 255, 255); stroke-opacity: 1; stroke-width: 1px;"/><path class="ygrid crisp" transform="translate(0,217.53)" d="M80,0h540" style="stroke: rgb(255, 255, 255); stroke-opacity: 1; stroke-width: 1px;"/><path class="ygrid crisp" transform="translate(0,131.61)" d="M80,0h540" style="stroke: rgb(255, 255, 255); stroke-opacity: 1; stroke-width: 1px;"/></g></g><g class="zerolinelayer"><path class="yzl zl crisp" transform="translate(0,389.38)" d="M80,0h540" style="stroke: rgb(255, 255, 255); stroke-opacity: 1; stroke-width: 2px;"/></g><path class="xlines-below"/><path class="ylines-below"/><g class="overlines-below"/><g class="xaxislayer-below"/><g class="yaxislayer-below"/><g class="overaxes-below"/><g class="plot" transform="translate(80,100)" clip-path="url(#clip18afffxyplot)"><g class="scatterlayer mlayer"><g class="trace scatter traceebd51e" style="stroke-miterlimit: 2;"><g class="fills"><g><path class="js-fill" d="M540,289.38L0,289.38L0,289.04L1.56,257.67L3.12,182.86L4.68,151L6.24,143.24L7.8,131.08L9.36,111.17L10.92,100.91L12.49,51.9L15.61,47.28L17.17,32.29L18.73,26.9L20.29,25.42L21.85,17.93L23.41,38.42L24.97,16L26.53,16.5L28.09,17.2L29.65,28.26L34.34,35.28L35.9,43.33L37.46,44.53L39.02,38.88L40.58,38.45L42.14,39.86L43.7,43.89L45.26,44.79L46.82,42.42L48.38,42.65L49.94,54.96L51.5,55.05L53.06,54.87L54.62,56.67L56.18,58.46L57.75,63.9L59.31,64.77L60.87,75.08L63.99,87.75L65.55,94.49L67.11,103.87L68.67,108.25L70.23,99.99L71.79,60.21L73.35,58.8L74.91,47.66L76.47,50.69L78.03,48.79L79.6,48.38L81.16,57.26L82.72,37.94L84.28,35.03L85.84,27.24L87.4,26.28L88.96,28.2L90.52,32.27L92.08,31.24L93.64,28.94L95.2,25.77L96.76,25.91L98.32,25.43L99.88,30.75L103.01,35.87L104.57,32.15L106.13,30.24L107.69,38.43L109.25,43.27L110.81,41.82L112.37,40.73L113.93,43.33L115.49,42.15L117.05,38.08L118.61,66.52L120.17,73.76L123.29,76.34L124.86,77.2L126.42,109.18L127.98,106.87L131.1,117.97L132.66,141.96L134.22,164.81L135.78,158.49L137.34,135.2L138.9,136L140.46,140.72L142.02,139.83L145.14,143.82L146.71,137.55L148.27,140.05L149.83,136.15L151.39,135.95L152.95,131.45L154.51,133.65L156.07,142.19L157.63,142.03L159.19,133.06L160.75,137.61L162.31,136.48L163.87,161.63L165.43,163.12L166.99,163.42L168.55,162.83L170.12,153.47L171.68,150.06L176.36,141.02L177.92,151.96L179.48,157.45L181.04,157.71L182.6,159.91L184.16,160.51L185.72,154.46L187.28,161.39L188.84,169.95L190.4,169.32L191.97,160.34L193.53,158.53L195.09,161.82L196.65,158.67L198.21,157.97L199.77,155.74L201.33,158.34L202.89,167.01L204.45,166.35L206.01,167.27L207.57,168.91L209.13,173L212.25,165.24L213.82,166.72L215.38,164.17L216.94,163.89L218.5,161.55L220.06,173.47L221.62,176.38L223.18,177.3L226.3,178.79L227.86,177.65L229.42,176.01L230.98,178.36L234.1,177.87L235.66,186.12L237.23,186.34L238.79,183.89L241.91,185.48L243.47,189.34L245.03,190.47L246.59,187.89L251.27,192.53L252.83,195.76L254.39,197.08L255.95,173.84L257.51,173.97L259.08,176.37L260.64,174.02L262.2,173.19L266.88,164.32L268.44,169.75L270,166.67L271.56,165.83L273.12,158.25L274.68,155.88L276.24,158.78L277.8,147.62L279.36,153.95L280.92,149.14L282.49,153.06L284.05,148.55L285.61,151.29L287.17,148.58L288.73,147.81L290.29,149.05L291.85,156.98L293.41,158.9L296.53,157.85L298.09,154.62L299.65,152.91L301.21,157.4L302.77,154.5L304.34,155.79L305.9,160.2L307.46,160.59L309.02,162.89L310.58,168.53L313.7,167.22L315.26,169.14L318.38,168.25L319.94,165.51L321.5,164.46L323.06,157.34L324.62,156.66L326.18,159.89L327.75,157.91L329.31,159.53L332.43,162.47L333.99,161.6L335.55,160.51L337.11,164.92L340.23,167.58L341.79,166.46L343.35,166.3L344.91,177.53L346.47,181.37L348.03,183.04L349.6,189.85L351.16,187.86L352.72,199.29L354.28,199.69L355.84,196.76L357.4,197.78L358.96,201.19L360.52,202.67L362.08,203.59L363.64,205.49L365.2,209.45L366.76,198.53L368.32,197.2L369.88,198.38L371.45,197.63L373.01,199.33L374.57,203.4L376.13,213.39L377.69,209.92L379.25,209.71L382.37,206.47L383.93,209.78L385.49,210.54L387.05,209.63L388.61,210.82L390.17,208.51L393.29,209.77L394.86,210.2L396.42,210.16L397.98,211.23L399.54,210.96L401.1,209.89L402.66,211.78L404.22,211.39L405.78,210.43L407.34,208.38L408.9,206.14L410.46,215.21L413.58,216.82L415.14,217.92L416.71,218.18L418.27,219.78L419.83,219.79L421.39,217.32L424.51,217.39L426.07,217.57L429.19,219.86L430.75,221.26L432.31,220.84L433.87,223.32L438.55,226.11L440.12,225.27L441.68,224.35L443.24,233.93L444.8,231.35L446.36,233.15L447.92,232.42L449.48,234.14L452.6,235.27L454.16,238.77L455.72,239.11L457.28,243.85L461.97,304L463.53,204.55L465.09,204.04L466.65,204.45L468.21,204.04L469.77,202.65L471.33,204.14L472.89,203.98L474.45,202.76L476.01,203.2L479.13,205.01L480.69,205.14L482.25,243.32L483.82,247.49L485.38,246.15L486.94,247.98L490.06,251.3L491.62,251.28L493.18,251.4L494.74,255.03L496.3,255.77L497.86,255.43L499.42,255.63L500.98,254.91L502.54,253.83L504.1,249.42L507.23,249.05L508.79,252.22L511.91,248.74L513.47,246.07L515.03,243.84L516.59,251.5L518.15,248.11L519.71,254.33L522.83,254.63L524.39,254.42L525.95,254.96L527.51,258.33L529.08,257.82L530.64,260.95L533.76,259.85L535.32,259.93L538.44,259.53L540,260.23" style="fill: rgb(99, 110, 250); fill-opacity: 0.5; stroke-width: 0;"/></g></g><g class="errorbars"/><g class="lines"><path class="js-line" d="M0,289.04L1.56,257.67L3.12,182.86L4.68,151L6.24,143.24L7.8,131.08L9.36,111.17L10.92,100.91L12.49,51.9L15.61,47.28L17.17,32.29L18.73,26.9L20.29,25.42L21.85,17.93L23.41,38.42L24.97,16L26.53,16.5L28.09,17.2L29.65,28.26L34.34,35.28L35.9,43.33L37.46,44.53L39.02,38.88L40.58,38.45L42.14,39.86L43.7,43.89L45.26,44.79L46.82,42.42L48.38,42.65L49.94,54.96L51.5,55.05L53.06,54.87L54.62,56.67L56.18,58.46L57.75,63.9L59.31,64.77L60.87,75.08L63.99,87.75L65.55,94.49L67.11,103.87L68.67,108.25L70.23,99.99L71.79,60.21L73.35,58.8L74.91,47.66L76.47,50.69L78.03,48.79L79.6,48.38L81.16,57.26L82.72,37.94L84.28,35.03L85.84,27.24L87.4,26.28L88.96,28.2L90.52,32.27L92.08,31.24L93.64,28.94L95.2,25.77L96.76,25.91L98.32,25.43L99.88,30.75L103.01,35.87L104.57,32.15L106.13,30.24L107.69,38.43L109.25,43.27L110.81,41.82L112.37,40.73L113.93,43.33L115.49,42.15L117.05,38.08L118.61,66.52L120.17,73.76L123.29,76.34L124.86,77.2L126.42,109.18L127.98,106.87L131.1,117.97L132.66,141.96L134.22,164.81L135.78,158.49L137.34,135.2L138.9,136L140.46,140.72L142.02,139.83L145.14,143.82L146.71,137.55L148.27,140.05L149.83,136.15L151.39,135.95L152.95,131.45L154.51,133.65L156.07,142.19L157.63,142.03L159.19,133.06L160.75,137.61L162.31,136.48L163.87,161.63L165.43,163.12L166.99,163.42L168.55,162.83L170.12,153.47L171.68,150.06L176.36,141.02L177.92,151.96L179.48,157.45L181.04,157.71L182.6,159.91L184.16,160.51L185.72,154.46L187.28,161.39L188.84,169.95L190.4,169.32L191.97,160.34L193.53,158.53L195.09,161.82L196.65,158.67L198.21,157.97L199.77,155.74L201.33,158.34L202.89,167.01L204.45,166.35L206.01,167.27L207.57,168.91L209.13,173L212.25,165.24L213.82,166.72L215.38,164.17L216.94,163.89L218.5,161.55L220.06,173.47L221.62,176.38L223.18,177.3L226.3,178.79L227.86,177.65L229.42,176.01L230.98,178.36L234.1,177.87L235.66,186.12L237.23,186.34L238.79,183.89L241.91,185.48L243.47,189.34L245.03,190.47L246.59,187.89L251.27,192.53L252.83,195.76L254.39,197.08L255.95,173.84L257.51,173.97L259.08,176.37L260.64,174.02L262.2,173.19L266.88,164.32L268.44,169.75L270,166.67L271.56,165.83L273.12,158.25L274.68,155.88L276.24,158.78L277.8,147.62L279.36,153.95L280.92,149.14L282.49,153.06L284.05,148.55L285.61,151.29L287.17,148.58L288.73,147.81L290.29,149.05L291.85,156.98L293.41,158.9L296.53,157.85L298.09,154.62L299.65,152.91L301.21,157.4L302.77,154.5L304.34,155.79L305.9,160.2L307.46,160.59L309.02,162.89L310.58,168.53L313.7,167.22L315.26,169.14L318.38,168.25L319.94,165.51L321.5,164.46L323.06,157.34L324.62,156.66L326.18,159.89L327.75,157.91L329.31,159.53L332.43,162.47L333.99,161.6L335.55,160.51L337.11,164.92L340.23,167.58L341.79,166.46L343.35,166.3L344.91,177.53L346.47,181.37L348.03,183.04L349.6,189.85L351.16,187.86L352.72,199.29L354.28,199.69L355.84,196.76L357.4,197.78L358.96,201.19L360.52,202.67L362.08,203.59L363.64,205.49L365.2,209.45L366.76,198.53L368.32,197.2L369.88,198.38L371.45,197.63L373.01,199.33L374.57,203.4L376.13,213.39L377.69,209.92L379.25,209.71L382.37,206.47L383.93,209.78L385.49,210.54L387.05,209.63L388.61,210.82L390.17,208.51L393.29,209.77L394.86,210.2L396.42,210.16L397.98,211.23L399.54,210.96L401.1,209.89L402.66,211.78L404.22,211.39L405.78,210.43L407.34,208.38L408.9,206.14L410.46,215.21L413.58,216.82L415.14,217.92L416.71,218.18L418.27,219.78L419.83,219.79L421.39,217.32L424.51,217.39L426.07,217.57L429.19,219.86L430.75,221.26L432.31,220.84L433.87,223.32L438.55,226.11L440.12,225.27L441.68,224.35L443.24,233.93L444.8,231.35L446.36,233.15L447.92,232.42L449.48,234.14L452.6,235.27L454.16,238.77L455.72,239.11L457.28,243.85L461.97,304L463.53,204.55L465.09,204.04L466.65,204.45L468.21,204.04L469.77,202.65L471.33,204.14L472.89,203.98L474.45,202.76L476.01,203.2L479.13,205.01L480.69,205.14L482.25,243.32L483.82,247.49L485.38,246.15L486.94,247.98L490.06,251.3L491.62,251.28L493.18,251.4L494.74,255.03L496.3,255.77L497.86,255.43L499.42,255.63L500.98,254.91L502.54,253.83L504.1,249.42L507.23,249.05L508.79,252.22L511.91,248.74L513.47,246.07L515.03,243.84L516.59,251.5L518.15,248.11L519.71,254.33L522.83,254.63L524.39,254.42L525.95,254.96L527.51,258.33L529.08,257.82L530.64,260.95L533.76,259.85L535.32,259.93L538.44,259.53L540,260.23" style="vector-effect: none; fill: none; stroke: rgb(99, 110, 250); stroke-opacity: 1; stroke-width: 2px; opacity: 1;"/></g><g class="points"/><g class="text"/></g></g></g><g class="overplot"/><path class="xlines-above crisp" d="M0,0" style="fill: none;"/><path class="ylines-above crisp" d="M0,0" style="fill: none;"/><g class="overlines-above"/><g class="xaxislayer-above"><g class="xtick"><text text-anchor="middle" x="0" y="433" transform="translate(126.82,0)" style="font-family: 'Open Sans', verdana, arial, sans-serif; font-size: 12px; fill: rgb(42, 63, 95); fill-opacity: 1; white-space: pre; opacity: 1;">Sep 2022</text></g><g class="xtick"><text text-anchor="middle" x="0" y="433" style="font-family: 'Open Sans', verdana, arial, sans-serif; font-size: 12px; fill: rgb(42, 63, 95); fill-opacity: 1; white-space: pre; opacity: 1;" transform="translate(222.02,0)">Nov 2022</text></g><g class="xtick"><text text-anchor="middle" x="0" y="433" style="font-family: 'Open Sans', verdana, arial, sans-serif; font-size: 12px; fill: rgb(42, 63, 95); fill-opacity: 1; white-space: pre; opacity: 1;" transform="translate(317.23,0)">Jan 2023</text></g><g class="xtick"><text text-anchor="middle" x="0" y="433" style="font-family: 'Open Sans', verdana, arial, sans-serif; font-size: 12px; fill: rgb(42, 63, 95); fill-opacity: 1; white-space: pre; opacity: 1;" transform="translate(409.31,0)">Mar 2023</text></g><g class="xtick"><text text-anchor="middle" x="0" y="433" style="font-family: 'Open Sans', verdana, arial, sans-serif; font-size: 12px; fill: rgb(42, 63, 95); fill-opacity: 1; white-space: pre; opacity: 1;" transform="translate(504.51,0)">May 2023</text></g><g class="xtick"><text text-anchor="middle" x="0" y="433" style="font-family: 'Open Sans', verdana, arial, sans-serif; font-size: 12px; fill: rgb(42, 63, 95); fill-opacity: 1; white-space: pre; opacity: 1;" transform="translate(599.71,0)">Jul 2023</text></g></g><g class="yaxislayer-above"><g class="ytick"><text text-anchor="end" x="79" y="4.199999999999999" transform="translate(0,389.38)" style="font-family: 'Open Sans', verdana, arial, sans-serif; font-size: 12px; fill: rgb(42, 63, 95); fill-opacity: 1; white-space: pre; opacity: 1;">$0</text></g><g class="ytick"><text text-anchor="end" x="79" y="4.199999999999999" style="font-family: 'Open Sans', verdana, arial, sans-serif; font-size: 12px; fill: rgb(42, 63, 95); fill-opacity: 1; white-space: pre; opacity: 1;" transform="translate(0,303.46000000000004)">$5M</text></g><g class="ytick"><text text-anchor="end" x="79" y="4.199999999999999" style="font-family: 'Open Sans', verdana, arial, sans-serif; font-size: 12px; fill: rgb(42, 63, 95); fill-opacity: 1; white-space: pre; opacity: 1;" transform="translate(0,217.53)">$10M</text></g><g class="ytick"><text text-anchor="end" x="79" y="4.199999999999999" style="font-family: 'Open Sans', verdana, arial, sans-serif; font-size: 12px; fill: rgb(42, 63, 95); fill-opacity: 1; white-space: pre; opacity: 1;" transform="translate(0,131.61)">$15M</text></g></g><g class="overaxes-above"/></g></g><g class="polarlayer"/><g class="smithlayer"/><g class="ternarylayer"/><g class="geolayer"/><g class="funnelarealayer"/><g class="pielayer"/><g class="iciclelayer"/><g class="treemaplayer"/><g class="sunburstlayer"/><g class="glimages"/><defs id="topdefs-18afff"><g class="clips"/></defs><g class="layer-above"><g class="imagelayer"/><g class="shapelayer"/></g><g class="infolayer"><g class="g-gtitle"><text class="gtitle" x="35" y="50" text-anchor="start" dy="0em" style="font-family: 'Open Sans', verdana, arial, sans-serif; font-size: 17px; fill: rgb(42, 63, 95); opacity: 1; font-weight: normal; white-space: pre;"><tspan class="line" dy="0em" x="35" y="50">Lyra</tspan><tspan class="line" dy="1.3em" x="35" y="50">​<tspan style="font-size:70%" dy="-0.6em">Cumulative Net Flows since Program Announcement, Until Program End + 30 Days - At Last Price</tspan><tspan dy="0.42em">​</tspan></tspan></text></g><g class="g-xtitle"><text class="xtitle" x="350" y="460.3" text-anchor="middle" style="font-family: 'Open Sans', verdana, arial, sans-serif; font-size: 14px; fill: rgb(42, 63, 95); opacity: 1; font-weight: normal; white-space: pre;">Day</text></g><g class="g-ytitle"><text class="ytitle" transform="rotate(-90,24.668750000000003,260)" x="24.668750000000003" y="260" text-anchor="middle" style="font-family: 'Open Sans', verdana, arial, sans-serif; font-size: 14px; fill: rgb(42, 63, 95); opacity: 1; font-weight: normal; white-space: pre;">Cumulative Net Flows (USD)</text></g></g></svg>