<svg class="main-svg" xmlns="http://www.w3.org/2000/svg" xmlns:xlink="http://www.w3.org/1999/xlink" width="700" height="500" style="" viewBox="0 0 700 500"><rect x="0" y="0" width="700" height="500" style="fill: rgb(255, 255, 255); fill-opacity: 1;"/><defs id="defs-131556"><g class="clips"><clipPath id="clip131556xyplot" class="plotclip"><rect width="540" height="320"/></clipPath><clipPath class="axesclip" id="clip131556x"><rect x="80" y="0" width="540" height="500"/></clipPath><clipPath class="axesclip" id="clip131556y"><rect x="0" y="100" width="700" height="320"/></clipPath><clipPath class="axesclip" id="clip131556xy"><rect x="80" y="100" width="540" height="320"/></clipPath></g><g class="gradients"/><g class="patterns"/></defs><g class="bglayer"><rect class="bg" x="80" y="100" width="540" height="320" style="fill: rgb(229, 236, 246); fill-opacity: 1; stroke-width: 0;"/></g><g class="layer-below"><g class="imagelayer"/><g class="shapelayer"/></g><g class="cartesianlayer"><g class="subplot xy"><g class="layer-subplot"><g class="shapelayer"/><g class="imagelayer"/></g><g class="minor-gridlayer"><g class="x"/><g class="y"/></g><g class="gridlayer"><g class="x"><path class="xgrid crisp" transform="translate(90.56,0)" d="M0,100v320" style="stroke: rgb(255, 255, 255); stroke-opacity: 1; stroke-width: 1px;"/><path class="xgrid crisp" transform="translate(182.57,0)" d="M0,100v320" style="stroke: rgb(255, 255, 255); stroke-opacity: 1; stroke-width: 1px;"/><path class="xgrid crisp" transform="translate(271.56,0)" d="M0,100v320" style="stroke: rgb(255, 255, 255); stroke-opacity: 1; stroke-width: 1px;"/><path class="xgrid crisp" transform="translate(363.58,0)" d="M0,100v320" style="stroke: rgb(255, 255, 255); stroke-opacity: 1; stroke-width: 1px;"/><path class="xgrid crisp" transform="translate(455.59,0)" d="M0,100v320" style="stroke: rgb(255, 255, 255); stroke-opacity: 1; stroke-width: 1px;"/><path class="xgrid crisp" transform="translate(549.11,0)" d="M0,100v320" style="stroke: rgb(255, 255, 255); stroke-opacity: 1; stroke-width: 1px;"/></g><g class="y"><path class="ygrid crisp" transform="translate(0,369.43)" d="M80,0h540" style="stroke: rgb(255, 255, 255); stroke-opacity: 1; stroke-width: 1px;"/><path class="ygrid crisp" transform="translate(0,318.85)" d="M80,0h540" style="stroke: rgb(255, 255, 255); stroke-opacity: 1; stroke-width: 1px;"/><path class="ygrid crisp" transform="translate(0,268.28)" d="M80,0h540" style="stroke: rgb(255, 255, 255); stroke-opacity: 1; stroke-width: 1px;"/><path class="ygrid crisp" transform="translate(0,217.7)" d="M80,0h540" style="stroke: rgb(255, 255, 255); stroke-opacity: 1; stroke-width: 1px;"/><path class="ygrid crisp" transform="translate(0,167.13)" d="M80,0h540" style="stroke: rgb(255, 255, 255); stroke-opacity: 1; stroke-width: 1px;"/><path class="ygrid crisp" transform="translate(0,116.55)" d="M80,0h540" style="stroke: rgb(255, 255, 255); stroke-opacity: 1; stroke-width: 1px;"/></g></g><g class="zerolinelayer"><path class="yzl zl crisp" transform="translate(0,420)" d="M80,0h540" style="stroke: rgb(255, 255, 255); stroke-opacity: 1; stroke-width: 2px;"/></g><path class="xlines-below"/><path class="ylines-below"/><g class="overlines-below"/><g class="xaxislayer-below"/><g class="yaxislayer-below"/><g class="overaxes-below"/><g class="plot" transform="translate(80,100)" clip-path="url(#clip131556xyplot)"><g class="scatterlayer mlayer"><g class="trace scatter trace18593a" style="stroke-miterlimit: 2;"><g class="fills"><g><path class="js-fill" d="M540,320L0,320L0,320L1.51,320L3.02,287.2L4.53,239.76L6.03,246.69L7.54,248.65L9.05,239.23L10.56,241.34L12.07,233.99L13.58,231.3L15.08,248.46L19.61,246.66L21.12,248.57L24.13,269.99L25.64,269.72L27.15,264.54L28.66,263.74L30.17,241.57L31.68,241.87L33.18,240.54L34.69,244.8L37.71,254.23L39.22,252.01L40.73,250.76L42.23,251.38L43.74,251.31L45.25,250.35L46.76,250.15L48.27,247.29L49.78,240.92L51.28,230.12L52.79,236.51L54.3,238.57L55.81,255.07L57.32,245.16L60.34,232.72L61.84,247.13L63.35,247.87L64.86,261.77L66.37,251.87L67.88,251.58L69.39,252.13L70.89,258.59L73.91,258.09L75.42,257.9L76.93,258.03L78.44,254.18L79.94,248.13L81.45,247.74L84.47,248.37L85.98,246.57L88.99,246.78L90.5,245.5L92.01,245.79L93.52,245.27L95.03,242.92L96.54,242.71L98.04,245.48L99.55,244.5L101.06,246.25L102.57,246.09L104.08,245.49L105.59,243.62L107.09,241.21L108.6,242.26L113.13,242.07L114.64,240.77L116.15,241.76L117.65,243.82L120.67,235.47L122.18,234.74L123.69,233.13L125.2,227.94L126.7,251.15L128.21,247.47L129.72,250.38L131.23,265.99L132.74,269.01L134.25,266.71L137.26,261.93L138.77,260.55L140.28,251.64L141.79,253.48L144.8,251.58L146.31,236.74L147.82,244.61L149.33,240.97L150.84,231.4L152.35,238.12L153.85,237.79L155.36,234.15L156.87,234.35L158.38,220.77L159.89,234.61L161.4,236.06L162.91,235.46L164.41,229.73L165.92,228.91L167.43,229.47L168.94,211.32L170.45,213.28L173.46,219.42L174.97,213.69L176.48,218.05L177.99,217.77L179.5,220.2L181.01,213.41L182.51,207.48L184.02,190.08L185.53,184.75L187.04,189.41L188.55,189.18L190.06,179.79L191.56,179.35L193.07,190.57L194.58,181.02L196.09,183.95L197.6,186.43L199.11,177.78L202.12,189.93L203.63,183.43L205.14,170.13L206.65,185.99L208.16,158.78L209.66,174.85L212.68,233.1L214.19,290.86L215.7,277.78L217.21,272.95L218.72,274.1L220.22,273.59L223.24,251.27L224.75,169.29L226.26,179.57L227.77,184.36L230.78,152.15L232.29,177.75L233.8,177.29L235.31,189.12L238.32,187.54L239.83,178.63L241.34,178.17L242.85,175.48L244.36,178.92L245.87,185.12L247.37,187.77L248.88,206.69L250.39,249.61L251.9,244.14L253.41,244L254.92,238.36L257.93,172.26L259.44,168.28L260.95,147.93L262.46,159.44L263.97,150.97L265.47,118.97L266.98,151.93L268.49,140.86L270,136.02L271.51,124.65L273.02,85.43L274.53,87.04L276.03,88.21L277.54,94.14L279.05,91.54L280.56,93.74L282.07,96.15L283.58,125.45L285.08,122.83L286.59,118.19L288.1,127.02L289.61,86.82L291.12,41.63L292.63,42.34L294.13,42.81L295.64,54.32L297.15,31.81L298.66,33.85L300.17,16L301.68,65.08L304.69,51.79L306.2,56.2L307.71,61.72L309.22,70.77L310.73,54.75L312.23,60.62L313.74,87.21L315.25,91.35L316.76,99.02L318.27,92.02L319.78,65.36L321.28,68.25L322.79,56.07L324.3,52.64L325.81,37.96L327.32,41.38L330.34,162.21L331.84,158.37L333.35,159.02L334.86,141.62L336.37,139.73L337.88,144.87L339.39,144.92L340.89,194.77L343.91,162.94L345.42,185.07L346.93,189L348.44,188.65L349.94,190.05L351.45,197.85L352.96,194.39L354.47,197.8L355.98,213.95L357.49,202.38L358.99,202.81L360.5,205.17L362.01,192.74L363.52,197.06L365.03,196.61L366.54,197.13L368.04,196.94L369.55,188.72L371.06,194.17L372.57,195.88L374.08,232.74L375.59,216.66L377.09,208.24L378.6,205.02L380.11,200.91L381.62,200.58L383.13,205.45L384.64,214.65L386.15,222.8L387.65,222.9L389.16,222.94L390.67,220.76L393.69,214.08L395.2,216.21L398.21,196.39L399.72,205.69L402.74,228.55L404.25,216.76L407.26,194.98L408.77,189.47L410.28,188.5L411.79,177.83L413.3,177.96L414.8,174.16L417.82,180.09L419.33,186.19L420.84,176.82L422.35,189.94L425.36,195.78L426.87,193.46L428.38,194.23L429.89,207.01L431.4,209.12L432.91,190.83L434.41,191.47L435.92,197.49L437.43,202.83L438.94,194.97L440.45,194.84L441.96,198.09L444.97,182.51L446.48,184.11L447.99,174.18L449.5,176.81L451.01,177.56L452.51,186L455.53,189.99L457.04,208.91L458.55,210.64L460.06,195.02L461.56,196.38L463.07,193.03L464.58,180.97L466.09,180.26L467.6,175.74L469.11,180.4L470.61,184.92L472.12,175.42L473.63,175.27L475.14,178.11L476.65,179.78L478.16,206.82L481.17,207.89L482.68,205.46L485.7,206.72L487.21,217.28L488.72,216.45L490.22,219.77L491.73,219.39L493.24,221.17L496.26,221.26L497.77,220.1L499.27,220.96L500.78,225.02L502.29,224.15L503.8,224.18L505.31,228.16L506.82,227.61L508.32,217.7L509.83,218.64L511.34,225.72L512.85,228.44L517.37,262.68L518.88,295.66L520.39,300.89L521.9,300.68L524.92,298.36L526.42,299.75L529.44,303.24L530.95,299.16L535.47,298.04L536.98,298.45L538.49,299.08L540,300.63" style="fill: rgb(99, 110, 250); fill-opacity: 0.5; stroke-width: 0;"/></g></g><g class="errorbars"/><g class="lines"><path class="js-line" d="M0,320L1.51,320L3.02,287.2L4.53,239.76L6.03,246.69L7.54,248.65L9.05,239.23L10.56,241.34L12.07,233.99L13.58,231.3L15.08,248.46L19.61,246.66L21.12,248.57L24.13,269.99L25.64,269.72L27.15,264.54L28.66,263.74L30.17,241.57L31.68,241.87L33.18,240.54L34.69,244.8L37.71,254.23L39.22,252.01L40.73,250.76L42.23,251.38L43.74,251.31L45.25,250.35L46.76,250.15L48.27,247.29L49.78,240.92L51.28,230.12L52.79,236.51L54.3,238.57L55.81,255.07L57.32,245.16L60.34,232.72L61.84,247.13L63.35,247.87L64.86,261.77L66.37,251.87L67.88,251.58L69.39,252.13L70.89,258.59L73.91,258.09L75.42,257.9L76.93,258.03L78.44,254.18L79.94,248.13L81.45,247.74L84.47,248.37L85.98,246.57L88.99,246.78L90.5,245.5L92.01,245.79L93.52,245.27L95.03,242.92L96.54,242.71L98.04,245.48L99.55,244.5L101.06,246.25L102.57,246.09L104.08,245.49L105.59,243.62L107.09,241.21L108.6,242.26L113.13,242.07L114.64,240.77L116.15,241.76L117.65,243.82L120.67,235.47L122.18,234.74L123.69,233.13L125.2,227.94L126.7,251.15L128.21,247.47L129.72,250.38L131.23,265.99L132.74,269.01L134.25,266.71L137.26,261.93L138.77,260.55L140.28,251.64L141.79,253.48L144.8,251.58L146.31,236.74L147.82,244.61L149.33,240.97L150.84,231.4L152.35,238.12L153.85,237.79L155.36,234.15L156.87,234.35L158.38,220.77L159.89,234.61L161.4,236.06L162.91,235.46L164.41,229.73L165.92,228.91L167.43,229.47L168.94,211.32L170.45,213.28L173.46,219.42L174.97,213.69L176.48,218.05L177.99,217.77L179.5,220.2L181.01,213.41L182.51,207.48L184.02,190.08L185.53,184.75L187.04,189.41L188.55,189.18L190.06,179.79L191.56,179.35L193.07,190.57L194.58,181.02L196.09,183.95L197.6,186.43L199.11,177.78L202.12,189.93L203.63,183.43L205.14,170.13L206.65,185.99L208.16,158.78L209.66,174.85L212.68,233.1L214.19,290.86L215.7,277.78L217.21,272.95L218.72,274.1L220.22,273.59L223.24,251.27L224.75,169.29L226.26,179.57L227.77,184.36L230.78,152.15L232.29,177.75L233.8,177.29L235.31,189.12L238.32,187.54L239.83,178.63L241.34,178.17L242.85,175.48L244.36,178.92L245.87,185.12L247.37,187.77L248.88,206.69L250.39,249.61L251.9,244.14L253.41,244L254.92,238.36L257.93,172.26L259.44,168.28L260.95,147.93L262.46,159.44L263.97,150.97L265.47,118.97L266.98,151.93L268.49,140.86L270,136.02L271.51,124.65L273.02,85.43L274.53,87.04L276.03,88.21L277.54,94.14L279.05,91.54L280.56,93.74L282.07,96.15L283.58,125.45L285.08,122.83L286.59,118.19L288.1,127.02L289.61,86.82L291.12,41.63L292.63,42.34L294.13,42.81L295.64,54.32L297.15,31.81L298.66,33.85L300.17,16L301.68,65.08L304.69,51.79L306.2,56.2L307.71,61.72L309.22,70.77L310.73,54.75L312.23,60.62L313.74,87.21L315.25,91.35L316.76,99.02L318.27,92.02L319.78,65.36L321.28,68.25L322.79,56.07L324.3,52.64L325.81,37.96L327.32,41.38L330.34,162.21L331.84,158.37L333.35,159.02L334.86,141.62L336.37,139.73L337.88,144.87L339.39,144.92L340.89,194.77L343.91,162.94L345.42,185.07L346.93,189L348.44,188.65L349.94,190.05L351.45,197.85L352.96,194.39L354.47,197.8L355.98,213.95L357.49,202.38L358.99,202.81L360.5,205.17L362.01,192.74L363.52,197.06L365.03,196.61L366.54,197.13L368.04,196.94L369.55,188.72L371.06,194.17L372.57,195.88L374.08,232.74L375.59,216.66L377.09,208.24L378.6,205.02L380.11,200.91L381.62,200.58L383.13,205.45L384.64,214.65L386.15,222.8L387.65,222.9L389.16,222.94L390.67,220.76L393.69,214.08L395.2,216.21L398.21,196.39L399.72,205.69L402.74,228.55L404.25,216.76L407.26,194.98L408.77,189.47L410.28,188.5L411.79,177.83L413.3,177.96L414.8,174.16L417.82,180.09L419.33,186.19L420.84,176.82L422.35,189.94L425.36,195.78L426.87,193.46L428.38,194.23L429.89,207.01L431.4,209.12L432.91,190.83L434.41,191.47L435.92,197.49L437.43,202.83L438.94,194.97L440.45,194.84L441.96,198.09L444.97,182.51L446.48,184.11L447.99,174.18L449.5,176.81L451.01,177.56L452.51,186L455.53,189.99L457.04,208.91L458.55,210.64L460.06,195.02L461.56,196.38L463.07,193.03L464.58,180.97L466.09,180.26L467.6,175.74L469.11,180.4L470.61,184.92L472.12,175.42L473.63,175.27L475.14,178.11L476.65,179.78L478.16,206.82L481.17,207.89L482.68,205.46L485.7,206.72L487.21,217.28L488.72,216.45L490.22,219.77L491.73,219.39L493.24,221.17L496.26,221.26L497.77,220.1L499.27,220.96L500.78,225.02L502.29,224.15L503.8,224.18L505.31,228.16L506.82,227.61L508.32,217.7L509.83,218.64L511.34,225.72L512.85,228.44L517.37,262.68L518.88,295.66L520.39,300.89L521.9,300.68L524.92,298.36L526.42,299.75L529.44,303.24L530.95,299.16L535.47,298.04L536.98,298.45L538.49,299.08L540,300.63" style="vector-effect: none; fill: none; stroke: rgb(99, 110, 250); stroke-opacity: 1; stroke-width: 2px; opacity: 1;"/></g><g class="points"/><g class="text"/></g></g></g><g class="overplot"/><path class="xlines-above crisp" d="M0,0" style="fill: none;"/><path class="ylines-above crisp" d="M0,0" style="fill: none;"/><g class="overlines-above"/><g class="xaxislayer-above"><g class="xtick"><text text-anchor="middle" x="0" y="433" transform="translate(90.56,0)" style="font-family: 'Open Sans', verdana, arial, sans-serif; font-size: 12px; fill: rgb(42, 63, 95); fill-opacity: 1; white-space: pre; opacity: 1;">Nov 2022</text></g><g class="xtick"><text text-anchor="middle" x="0" y="433" style="font-family: 'Open Sans', verdana, arial, sans-serif; font-size: 12px; fill: rgb(42, 63, 95); fill-opacity: 1; white-space: pre; opacity: 1;" transform="translate(182.57,0)">Jan 2023</text></g><g class="xtick"><text text-anchor="middle" x="0" y="433" style="font-family: 'Open Sans', verdana, arial, sans-serif; font-size: 12px; fill: rgb(42, 63, 95); fill-opacity: 1; white-space: pre; opacity: 1;" transform="translate(271.56,0)">Mar 2023</text></g><g class="xtick"><text text-anchor="middle" x="0" y="433" style="font-family: 'Open Sans', verdana, arial, sans-serif; font-size: 12px; fill: rgb(42, 63, 95); fill-opacity: 1; white-space: pre; opacity: 1;" transform="translate(363.58,0)">May 2023</text></g><g class="xtick"><text text-anchor="middle" x="0" y="433" style="font-family: 'Open Sans', verdana, arial, sans-serif; font-size: 12px; fill: rgb(42, 63, 95); fill-opacity: 1; white-space: pre; opacity: 1;" transform="translate(455.59,0)">Jul 2023</text></g><g class="xtick"><text text-anchor="middle" x="0" y="433" style="font-family: 'Open Sans', verdana, arial, sans-serif; font-size: 12px; fill: rgb(42, 63, 95); fill-opacity: 1; white-space: pre; opacity: 1;" transform="translate(549.11,0)">Sep 2023</text></g></g><g class="yaxislayer-above"><g class="ytick"><text text-anchor="end" x="79" y="4.199999999999999" transform="translate(0,420)" style="font-family: 'Open Sans', verdana, arial, sans-serif; font-size: 12px; fill: rgb(42, 63, 95); fill-opacity: 1; white-space: pre; opacity: 1;">$0</text></g><g class="ytick"><text text-anchor="end" x="79" y="4.199999999999999" style="font-family: 'Open Sans', verdana, arial, sans-serif; font-size: 12px; fill: rgb(42, 63, 95); fill-opacity: 1; white-space: pre; opacity: 1;" transform="translate(0,369.43)">$0.5M</text></g><g class="ytick"><text text-anchor="end" x="79" y="4.199999999999999" style="font-family: 'Open Sans', verdana, arial, sans-serif; font-size: 12px; fill: rgb(42, 63, 95); fill-opacity: 1; white-space: pre; opacity: 1;" transform="translate(0,318.85)">$1M</text></g><g class="ytick"><text text-anchor="end" x="79" y="4.199999999999999" style="font-family: 'Open Sans', verdana, arial, sans-serif; font-size: 12px; fill: rgb(42, 63, 95); fill-opacity: 1; white-space: pre; opacity: 1;" transform="translate(0,268.28)">$1.5M</text></g><g class="ytick"><text text-anchor="end" x="79" y="4.199999999999999" style="font-family: 'Open Sans', verdana, arial, sans-serif; font-size: 12px; fill: rgb(42, 63, 95); fill-opacity: 1; white-space: pre; opacity: 1;" transform="translate(0,217.7)">$2M</text></g><g class="ytick"><text text-anchor="end" x="79" y="4.199999999999999" style="font-family: 'Open Sans', verdana, arial, sans-serif; font-size: 12px; fill: rgb(42, 63, 95); fill-opacity: 1; white-space: pre; opacity: 1;" transform="translate(0,167.13)">$2.5M</text></g><g class="ytick"><text text-anchor="end" x="79" y="4.199999999999999" style="font-family: 'Open Sans', verdana, arial, sans-serif; font-size: 12px; fill: rgb(42, 63, 95); fill-opacity: 1; white-space: pre; opacity: 1;" transform="translate(0,116.55)">$3M</text></g></g><g class="overaxes-above"/></g></g><g class="polarlayer"/><g class="smithlayer"/><g class="ternarylayer"/><g class="geolayer"/><g class="funnelarealayer"/><g class="pielayer"/><g class="iciclelayer"/><g class="treemaplayer"/><g class="sunburstlayer"/><g class="glimages"/><defs id="topdefs-131556"><g class="clips"/></defs><g class="layer-above"><g class="imagelayer"/><g class="shapelayer"/></g><g class="infolayer"><g class="g-gtitle"><text class="gtitle" x="35" y="50" text-anchor="start" dy="0em" style="font-family: 'Open Sans', verdana, arial, sans-serif; font-size: 17px; fill: rgb(42, 63, 95); opacity: 1; font-weight: normal; white-space: pre;"><tspan class="line" dy="0em" x="35" y="50">Synthetix - All Synthetix Hop Pools</tspan><tspan class="line" dy="1.3em" x="35" y="50">​<tspan style="font-size:70%" dy="-0.6em">Cumulative Net Flows since Program Announcement, Until Program End + 30 Days - At Last Price</tspan><tspan dy="0.42em">​</tspan></tspan></text></g><g class="g-xtitle"><text class="xtitle" x="350" y="460.3" text-anchor="middle" style="font-family: 'Open Sans', verdana, arial, sans-serif; font-size: 14px; fill: rgb(42, 63, 95); opacity: 1; font-weight: normal; white-space: pre;">Day</text></g><g class="g-ytitle"><text class="ytitle" transform="rotate(-90,21.340625000000003,260)" x="21.340625000000003" y="260" text-anchor="middle" style="font-family: 'Open Sans', verdana, arial, sans-serif; font-size: 14px; fill: rgb(42, 63, 95); opacity: 1; font-weight: normal; white-space: pre;">Cumulative Net Flows (USD)</text></g></g></svg>