<svg class="main-svg" xmlns="http://www.w3.org/2000/svg" xmlns:xlink="http://www.w3.org/1999/xlink" width="700" height="500" style="" viewBox="0 0 700 500"><rect x="0" y="0" width="700" height="500" style="fill: rgb(255, 255, 255); fill-opacity: 1;"/><defs id="defs-88bdb0"><g class="clips"><clipPath id="clip88bdb0xyplot" class="plotclip"><rect width="540" height="320"/></clipPath><clipPath class="axesclip" id="clip88bdb0x"><rect x="80" y="0" width="540" height="500"/></clipPath><clipPath class="axesclip" id="clip88bdb0y"><rect x="0" y="100" width="700" height="320"/></clipPath><clipPath class="axesclip" id="clip88bdb0xy"><rect x="80" y="100" width="540" height="320"/></clipPath></g><g class="gradients"/><g class="patterns"/></defs><g class="bglayer"><rect class="bg" x="80" y="100" width="540" height="320" style="fill: rgb(229, 236, 246); fill-opacity: 1; stroke-width: 0;"/></g><g class="layer-below"><g class="imagelayer"/><g class="shapelayer"/></g><g class="cartesianlayer"><g class="subplot xy"><g class="layer-subplot"><g class="shapelayer"/><g class="imagelayer"/></g><g class="minor-gridlayer"><g class="x"/><g class="y"/></g><g class="gridlayer"><g class="x"><path class="xgrid crisp" transform="translate(176.72,0)" d="M0,100v320" style="stroke: rgb(255, 255, 255); stroke-opacity: 1; stroke-width: 1px;"/><path class="xgrid crisp" transform="translate(289.55,0)" d="M0,100v320" style="stroke: rgb(255, 255, 255); stroke-opacity: 1; stroke-width: 1px;"/><path class="xgrid crisp" transform="translate(414.48,0)" d="M0,100v320" style="stroke: rgb(255, 255, 255); stroke-opacity: 1; stroke-width: 1px;"/><path class="xgrid crisp" transform="translate(535.37,0)" d="M0,100v320" style="stroke: rgb(255, 255, 255); stroke-opacity: 1; stroke-width: 1px;"/></g><g class="y"><path class="ygrid crisp" transform="translate(0,353.74)" d="M80,0h540" style="stroke: rgb(255, 255, 255); stroke-opacity: 1; stroke-width: 1px;"/><path class="ygrid crisp" transform="translate(0,287.48)" d="M80,0h540" style="stroke: rgb(255, 255, 255); stroke-opacity: 1; stroke-width: 1px;"/><path class="ygrid crisp" transform="translate(0,221.22)" d="M80,0h540" style="stroke: rgb(255, 255, 255); stroke-opacity: 1; stroke-width: 1px;"/><path class="ygrid crisp" transform="translate(0,154.96)" d="M80,0h540" style="stroke: rgb(255, 255, 255); stroke-opacity: 1; stroke-width: 1px;"/></g></g><g class="zerolinelayer"><path class="yzl zl crisp" transform="translate(0,420)" d="M80,0h540" style="stroke: rgb(255, 255, 255); stroke-opacity: 1; stroke-width: 2px;"/></g><path class="xlines-below"/><path class="ylines-below"/><g class="overlines-below"/><g class="xaxislayer-below"/><g class="yaxislayer-below"/><g class="overaxes-below"/><g class="plot" transform="translate(80,100)" clip-path="url(#clip88bdb0xyplot)"><g class="scatterlayer mlayer"><g class="trace scatter trace97a350" style="stroke-miterlimit: 2;"><g class="fills"><g><path class="js-fill" d="M540,320L0,320L0,237.42L4.03,241.1L8.06,241.1L12.09,241.69L16.12,241.44L28.21,241.44L32.24,239.97L40.3,239.96L44.33,240.87L52.39,239.75L56.42,239.81L72.54,239.59L76.57,236.81L80.6,225.57L84.63,225.73L88.66,225.62L92.69,222.33L96.72,219.83L100.75,219.36L108.81,219.78L112.84,219.06L116.87,220.34L120.9,218.27L128.96,217.71L132.99,216.54L137.01,213.77L141.04,206.55L145.07,217.26L149.1,214.7L153.13,213.84L157.16,193.19L161.19,192.85L165.22,194.41L169.25,194.29L173.28,107.4L177.31,107.48L181.34,105.68L185.37,97.16L189.4,96.79L193.43,91.39L197.46,90.54L201.49,90.63L205.52,85.33L209.55,85.14L213.58,76.35L217.61,72.37L221.64,71.38L225.67,77.82L229.7,77.09L237.76,76.43L241.79,76.41L245.82,85.86L249.85,97.45L253.88,87.52L257.91,50.46L261.94,40.59L265.97,40.67L270,38.5L274.03,37.52L278.06,48.12L282.09,52.12L290.15,51.69L294.18,54.01L298.21,61.61L302.24,61.2L318.36,61.65L322.39,49.57L326.42,50.1L330.45,36.39L338.51,37.05L342.54,36.17L346.57,36.18L350.6,33.09L354.63,33.38L358.66,32.29L362.69,32.04L366.72,29.31L370.75,31.17L374.78,33.87L378.81,16.1L382.84,16L386.87,19.67L390.9,73.97L394.93,72.71L398.96,73.3L402.99,72.35L407.01,68.16L411.04,65.7L415.07,64.81L419.1,65.36L423.13,65.01L427.16,65.03L431.19,58.82L447.31,58.97L451.34,57.55L455.37,56.44L459.4,52.13L463.43,53.32L467.46,53.43L479.55,53.1L483.58,56.5L491.64,53.07L495.67,53.09L499.7,65.64L503.73,64.51L507.76,64.5L511.79,62.89L515.82,61.25L519.85,61.68L527.91,61.64L531.94,65.29L535.97,65.22L540,70.22" style="fill: rgb(99, 110, 250); fill-opacity: 0.5; stroke-width: 0;"/></g></g><g class="errorbars"/><g class="lines"><path class="js-line" d="M0,237.42L4.03,241.1L8.06,241.1L12.09,241.69L16.12,241.44L28.21,241.44L32.24,239.97L40.3,239.96L44.33,240.87L52.39,239.75L56.42,239.81L72.54,239.59L76.57,236.81L80.6,225.57L84.63,225.73L88.66,225.62L92.69,222.33L96.72,219.83L100.75,219.36L108.81,219.78L112.84,219.06L116.87,220.34L120.9,218.27L128.96,217.71L132.99,216.54L137.01,213.77L141.04,206.55L145.07,217.26L149.1,214.7L153.13,213.84L157.16,193.19L161.19,192.85L165.22,194.41L169.25,194.29L173.28,107.4L177.31,107.48L181.34,105.68L185.37,97.16L189.4,96.79L193.43,91.39L197.46,90.54L201.49,90.63L205.52,85.33L209.55,85.14L213.58,76.35L217.61,72.37L221.64,71.38L225.67,77.82L229.7,77.09L237.76,76.43L241.79,76.41L245.82,85.86L249.85,97.45L253.88,87.52L257.91,50.46L261.94,40.59L265.97,40.67L270,38.5L274.03,37.52L278.06,48.12L282.09,52.12L290.15,51.69L294.18,54.01L298.21,61.61L302.24,61.2L318.36,61.65L322.39,49.57L326.42,50.1L330.45,36.39L338.51,37.05L342.54,36.17L346.57,36.18L350.6,33.09L354.63,33.38L358.66,32.29L362.69,32.04L366.72,29.31L370.75,31.17L374.78,33.87L378.81,16.1L382.84,16L386.87,19.67L390.9,73.97L394.93,72.71L398.96,73.3L402.99,72.35L407.01,68.16L411.04,65.7L415.07,64.81L419.1,65.36L423.13,65.01L427.16,65.03L431.19,58.82L447.31,58.97L451.34,57.55L455.37,56.44L459.4,52.13L463.43,53.32L467.46,53.43L479.55,53.1L483.58,56.5L491.64,53.07L495.67,53.09L499.7,65.64L503.73,64.51L507.76,64.5L511.79,62.89L515.82,61.25L519.85,61.68L527.91,61.64L531.94,65.29L535.97,65.22L540,70.22" style="vector-effect: none; fill: none; stroke: rgb(99, 110, 250); stroke-opacity: 1; stroke-width: 2px; opacity: 1;"/></g><g class="points"/><g class="text"/></g></g></g><g class="overplot"/><path class="xlines-above crisp" d="M0,0" style="fill: none;"/><path class="ylines-above crisp" d="M0,0" style="fill: none;"/><g class="overlines-above"/><g class="xaxislayer-above"><g class="xtick"><text text-anchor="middle" x="0" y="433" transform="translate(176.72,0)" style="font-family: 'Open Sans', verdana, arial, sans-serif; font-size: 12px; fill: rgb(42, 63, 95); fill-opacity: 1; white-space: pre; opacity: 1;">Feb 2023</text></g><g class="xtick"><text text-anchor="middle" x="0" y="433" style="font-family: 'Open Sans', verdana, arial, sans-serif; font-size: 12px; fill: rgb(42, 63, 95); fill-opacity: 1; white-space: pre; opacity: 1;" transform="translate(289.55,0)">Mar 2023</text></g><g class="xtick"><text text-anchor="middle" x="0" y="433" style="font-family: 'Open Sans', verdana, arial, sans-serif; font-size: 12px; fill: rgb(42, 63, 95); fill-opacity: 1; white-space: pre; opacity: 1;" transform="translate(414.48,0)">Apr 2023</text></g><g class="xtick"><text text-anchor="middle" x="0" y="433" style="font-family: 'Open Sans', verdana, arial, sans-serif; font-size: 12px; fill: rgb(42, 63, 95); fill-opacity: 1; white-space: pre; opacity: 1;" transform="translate(535.37,0)">May 2023</text></g></g><g class="yaxislayer-above"><g class="ytick"><text text-anchor="end" x="79" y="4.199999999999999" transform="translate(0,420)" style="font-family: 'Open Sans', verdana, arial, sans-serif; font-size: 12px; fill: rgb(42, 63, 95); fill-opacity: 1; white-space: pre; opacity: 1;">$0</text></g><g class="ytick"><text text-anchor="end" x="79" y="4.199999999999999" style="font-family: 'Open Sans', verdana, arial, sans-serif; font-size: 12px; fill: rgb(42, 63, 95); fill-opacity: 1; white-space: pre; opacity: 1;" transform="translate(0,353.74)">$1M</text></g><g class="ytick"><text text-anchor="end" x="79" y="4.199999999999999" style="font-family: 'Open Sans', verdana, arial, sans-serif; font-size: 12px; fill: rgb(42, 63, 95); fill-opacity: 1; white-space: pre; opacity: 1;" transform="translate(0,287.48)">$2M</text></g><g class="ytick"><text text-anchor="end" x="79" y="4.199999999999999" style="font-family: 'Open Sans', verdana, arial, sans-serif; font-size: 12px; fill: rgb(42, 63, 95); fill-opacity: 1; white-space: pre; opacity: 1;" transform="translate(0,221.22)">$3M</text></g><g class="ytick"><text text-anchor="end" x="79" y="4.199999999999999" style="font-family: 'Open Sans', verdana, arial, sans-serif; font-size: 12px; fill: rgb(42, 63, 95); fill-opacity: 1; white-space: pre; opacity: 1;" transform="translate(0,154.96)">$4M</text></g></g><g class="overaxes-above"/></g></g><g class="polarlayer"/><g class="smithlayer"/><g class="ternarylayer"/><g class="geolayer"/><g class="funnelarealayer"/><g class="pielayer"/><g class="iciclelayer"/><g class="treemaplayer"/><g class="sunburstlayer"/><g class="glimages"/><defs id="topdefs-88bdb0"><g class="clips"/></defs><g class="layer-above"><g class="imagelayer"/><g class="shapelayer"/></g><g class="infolayer"><g class="g-gtitle"><text class="gtitle" x="35" y="50" text-anchor="start" dy="0em" style="font-family: 'Open Sans', verdana, arial, sans-serif; font-size: 17px; fill: rgb(42, 63, 95); opacity: 1; font-weight: normal; white-space: pre;"><tspan class="line" dy="0em" x="35" y="50">Alchemix - alETH/WETH: Velodrome</tspan><tspan class="line" dy="1.3em" x="35" y="50">​<tspan style="font-size:70%" dy="-0.6em">Cumulative Net Flows since Program Announcement, Until Program End + 30 Days - At Last Price</tspan><tspan dy="0.42em">​</tspan></tspan></text></g><g class="g-xtitle"><text class="xtitle" x="350" y="460.3" text-anchor="middle" style="font-family: 'Open Sans', verdana, arial, sans-serif; font-size: 14px; fill: rgb(42, 63, 95); opacity: 1; font-weight: normal; white-space: pre;">Day</text></g><g class="g-ytitle"><text class="ytitle" transform="rotate(-90,31.356250000000003,260)" x="31.356250000000003" y="260" text-anchor="middle" style="font-family: 'Open Sans', verdana, arial, sans-serif; font-size: 14px; fill: rgb(42, 63, 95); opacity: 1; font-weight: normal; white-space: pre;">Cumulative Net Flows (USD)</text></g></g></svg>