<svg class="main-svg" xmlns="http://www.w3.org/2000/svg" xmlns:xlink="http://www.w3.org/1999/xlink" width="700" height="500" style="" viewBox="0 0 700 500"><rect x="0" y="0" width="700" height="500" style="fill: rgb(255, 255, 255); fill-opacity: 1;"/><defs id="defs-38a3a7"><g class="clips"><clipPath id="clip38a3a7xyplot" class="plotclip"><rect width="540" height="320"/></clipPath><clipPath class="axesclip" id="clip38a3a7x"><rect x="80" y="0" width="540" height="500"/></clipPath><clipPath class="axesclip" id="clip38a3a7y"><rect x="0" y="100" width="700" height="320"/></clipPath><clipPath class="axesclip" id="clip38a3a7xy"><rect x="80" y="100" width="540" height="320"/></clipPath></g><g class="gradients"/><g class="patterns"/></defs><g class="bglayer"><rect class="bg" x="80" y="100" width="540" height="320" style="fill: rgb(229, 236, 246); fill-opacity: 1; stroke-width: 0;"/></g><g class="layer-below"><g class="imagelayer"/><g class="shapelayer"/></g><g class="cartesianlayer"><g class="subplot xy"><g class="layer-subplot"><g class="shapelayer"/><g class="imagelayer"/></g><g class="minor-gridlayer"><g class="x"/><g class="y"/></g><g class="gridlayer"><g class="x"><path class="xgrid crisp" transform="translate(94.65,0)" d="M0,100v320" style="stroke: rgb(255, 255, 255); stroke-opacity: 1; stroke-width: 1px;"/><path class="xgrid crisp" transform="translate(222.33,0)" d="M0,100v320" style="stroke: rgb(255, 255, 255); stroke-opacity: 1; stroke-width: 1px;"/><path class="xgrid crisp" transform="translate(345.81,0)" d="M0,100v320" style="stroke: rgb(255, 255, 255); stroke-opacity: 1; stroke-width: 1px;"/><path class="xgrid crisp" transform="translate(473.49,0)" d="M0,100v320" style="stroke: rgb(255, 255, 255); stroke-opacity: 1; stroke-width: 1px;"/><path class="xgrid crisp" transform="translate(601.16,0)" d="M0,100v320" style="stroke: rgb(255, 255, 255); stroke-opacity: 1; stroke-width: 1px;"/></g><g class="y"><path class="ygrid crisp" transform="translate(0,369.43)" d="M80,0h540" style="stroke: rgb(255, 255, 255); stroke-opacity: 1; stroke-width: 1px;"/><path class="ygrid crisp" transform="translate(0,318.85)" d="M80,0h540" style="stroke: rgb(255, 255, 255); stroke-opacity: 1; stroke-width: 1px;"/><path class="ygrid crisp" transform="translate(0,268.28)" d="M80,0h540" style="stroke: rgb(255, 255, 255); stroke-opacity: 1; stroke-width: 1px;"/><path class="ygrid crisp" transform="translate(0,217.7)" d="M80,0h540" style="stroke: rgb(255, 255, 255); stroke-opacity: 1; stroke-width: 1px;"/><path class="ygrid crisp" transform="translate(0,167.13)" d="M80,0h540" style="stroke: rgb(255, 255, 255); stroke-opacity: 1; stroke-width: 1px;"/><path class="ygrid crisp" transform="translate(0,116.55)" d="M80,0h540" style="stroke: rgb(255, 255, 255); stroke-opacity: 1; stroke-width: 1px;"/></g></g><g class="zerolinelayer"><path class="yzl zl crisp" transform="translate(0,420)" d="M80,0h540" style="stroke: rgb(255, 255, 255); stroke-opacity: 1; stroke-width: 2px;"/></g><path class="xlines-below"/><path class="ylines-below"/><g class="overlines-below"/><g class="xaxislayer-below"/><g class="yaxislayer-below"/><g class="overaxes-below"/><g class="plot" transform="translate(80,100)" clip-path="url(#clip38a3a7xyplot)"><g class="scatterlayer mlayer"><g class="trace scatter trace7ec6bc" style="stroke-miterlimit: 2;"><g class="fills"><g><path class="js-fill" d="M540,320L0,320L0,320L2.09,320L4.19,287.2L6.28,239.76L8.37,246.69L10.47,248.65L12.56,239.23L14.65,241.34L16.74,233.99L18.84,231.3L20.93,248.46L27.21,246.66L29.3,248.57L33.49,269.99L35.58,269.72L37.67,264.54L39.77,263.74L41.86,241.57L43.95,241.87L46.05,240.54L48.14,244.8L50.23,250.68L52.33,254.23L56.51,250.76L58.6,251.38L60.7,251.31L62.79,250.35L64.88,250.15L66.98,247.29L69.07,240.92L71.16,230.12L73.26,236.51L75.35,238.57L77.44,255.07L79.53,245.16L83.72,232.72L85.81,247.13L87.91,247.87L90,261.77L92.09,251.87L94.19,251.58L96.28,252.13L98.37,258.59L102.56,258.09L104.65,257.9L106.74,258.03L108.84,254.18L110.93,248.13L113.02,247.74L117.21,248.37L119.3,246.57L123.49,246.78L125.58,245.5L127.67,245.79L129.77,245.27L131.86,242.92L133.95,242.71L136.05,245.48L138.14,244.5L140.23,246.25L142.33,246.09L144.42,245.49L146.51,243.62L148.6,241.21L150.7,242.26L156.98,242.07L159.07,240.77L161.16,241.76L163.26,243.82L167.44,235.47L169.53,234.74L171.63,233.13L173.72,227.94L175.81,251.15L177.91,247.47L180,250.38L182.09,265.99L184.19,269.01L186.28,266.71L188.37,263.64L190.47,261.93L192.56,260.55L194.65,251.64L196.74,253.48L198.84,252.84L200.93,251.58L203.02,236.74L205.12,244.61L207.21,240.97L209.3,231.4L211.4,238.12L213.49,237.79L215.58,234.15L217.67,234.35L219.77,220.77L221.86,234.61L223.95,236.06L226.05,235.46L228.14,229.73L230.23,228.91L232.33,229.47L234.42,211.32L236.51,213.28L240.7,219.42L242.79,213.69L244.88,218.05L246.98,217.77L249.07,220.2L251.16,213.41L253.26,207.48L255.35,190.08L257.44,184.75L259.53,189.41L261.63,189.18L263.72,179.79L265.81,179.35L267.91,190.57L270,181.02L272.09,183.95L274.19,186.43L276.28,177.78L280.47,189.93L282.56,183.43L284.65,170.13L286.74,185.99L288.84,158.78L290.93,174.85L293.02,199.05L295.12,233.1L297.21,290.86L299.3,277.78L301.4,272.95L303.49,274.1L305.58,273.59L307.67,260.71L309.77,251.27L311.86,169.29L313.95,179.57L316.05,184.36L320.23,152.15L322.33,177.75L324.42,177.29L326.51,189.12L330.7,187.54L332.79,178.63L334.88,178.17L336.98,175.48L339.07,178.92L341.16,185.12L343.26,187.77L345.35,206.69L347.44,249.61L349.53,244.14L351.63,244L353.72,238.36L357.91,172.26L360,168.28L362.09,147.93L364.19,159.44L366.28,150.97L368.37,118.97L370.47,151.93L372.56,140.86L374.65,136.02L376.74,124.65L378.84,85.43L380.93,87.04L383.02,88.21L385.12,94.14L387.21,91.54L389.3,93.74L391.4,96.15L393.49,125.45L395.58,122.83L397.67,118.19L399.77,127.02L401.86,86.82L403.95,41.63L406.05,42.34L408.14,42.81L410.23,54.32L412.33,31.81L414.42,33.85L416.51,16L418.6,65.08L422.79,51.79L424.88,56.2L426.98,61.72L429.07,70.77L431.16,54.75L433.26,60.62L435.35,87.21L437.44,91.35L439.53,99.02L441.63,92.02L443.72,65.36L445.81,68.25L447.91,56.07L450,52.64L452.09,37.96L454.19,41.38L458.37,162.21L460.47,158.37L462.56,159.02L464.65,141.62L466.74,139.73L468.84,144.87L470.93,144.92L473.02,194.77L477.21,162.94L479.3,185.07L481.4,189L483.49,188.65L485.58,190.05L487.67,197.85L489.77,194.39L491.86,197.8L493.95,213.95L496.05,202.38L498.14,202.81L500.23,205.17L502.33,192.74L504.42,197.06L506.51,196.61L508.6,197.13L510.7,196.94L512.79,188.72L514.88,194.17L516.98,195.88L519.07,232.74L521.16,216.66L523.26,208.24L525.35,205.02L527.44,200.91L529.53,200.58L531.63,205.45L533.72,214.65L535.81,222.8L537.91,222.9L540,222.94" style="fill: rgb(99, 110, 250); fill-opacity: 0.5; stroke-width: 0;"/></g></g><g class="errorbars"/><g class="lines"><path class="js-line" d="M0,320L2.09,320L4.19,287.2L6.28,239.76L8.37,246.69L10.47,248.65L12.56,239.23L14.65,241.34L16.74,233.99L18.84,231.3L20.93,248.46L27.21,246.66L29.3,248.57L33.49,269.99L35.58,269.72L37.67,264.54L39.77,263.74L41.86,241.57L43.95,241.87L46.05,240.54L48.14,244.8L50.23,250.68L52.33,254.23L56.51,250.76L58.6,251.38L60.7,251.31L62.79,250.35L64.88,250.15L66.98,247.29L69.07,240.92L71.16,230.12L73.26,236.51L75.35,238.57L77.44,255.07L79.53,245.16L83.72,232.72L85.81,247.13L87.91,247.87L90,261.77L92.09,251.87L94.19,251.58L96.28,252.13L98.37,258.59L102.56,258.09L104.65,257.9L106.74,258.03L108.84,254.18L110.93,248.13L113.02,247.74L117.21,248.37L119.3,246.57L123.49,246.78L125.58,245.5L127.67,245.79L129.77,245.27L131.86,242.92L133.95,242.71L136.05,245.48L138.14,244.5L140.23,246.25L142.33,246.09L144.42,245.49L146.51,243.62L148.6,241.21L150.7,242.26L156.98,242.07L159.07,240.77L161.16,241.76L163.26,243.82L167.44,235.47L169.53,234.74L171.63,233.13L173.72,227.94L175.81,251.15L177.91,247.47L180,250.38L182.09,265.99L184.19,269.01L186.28,266.71L188.37,263.64L190.47,261.93L192.56,260.55L194.65,251.64L196.74,253.48L198.84,252.84L200.93,251.58L203.02,236.74L205.12,244.61L207.21,240.97L209.3,231.4L211.4,238.12L213.49,237.79L215.58,234.15L217.67,234.35L219.77,220.77L221.86,234.61L223.95,236.06L226.05,235.46L228.14,229.73L230.23,228.91L232.33,229.47L234.42,211.32L236.51,213.28L240.7,219.42L242.79,213.69L244.88,218.05L246.98,217.77L249.07,220.2L251.16,213.41L253.26,207.48L255.35,190.08L257.44,184.75L259.53,189.41L261.63,189.18L263.72,179.79L265.81,179.35L267.91,190.57L270,181.02L272.09,183.95L274.19,186.43L276.28,177.78L280.47,189.93L282.56,183.43L284.65,170.13L286.74,185.99L288.84,158.78L290.93,174.85L293.02,199.05L295.12,233.1L297.21,290.86L299.3,277.78L301.4,272.95L303.49,274.1L305.58,273.59L307.67,260.71L309.77,251.27L311.86,169.29L313.95,179.57L316.05,184.36L320.23,152.15L322.33,177.75L324.42,177.29L326.51,189.12L330.7,187.54L332.79,178.63L334.88,178.17L336.98,175.48L339.07,178.92L341.16,185.12L343.26,187.77L345.35,206.69L347.44,249.61L349.53,244.14L351.63,244L353.72,238.36L357.91,172.26L360,168.28L362.09,147.93L364.19,159.44L366.28,150.97L368.37,118.97L370.47,151.93L372.56,140.86L374.65,136.02L376.74,124.65L378.84,85.43L380.93,87.04L383.02,88.21L385.12,94.14L387.21,91.54L389.3,93.74L391.4,96.15L393.49,125.45L395.58,122.83L397.67,118.19L399.77,127.02L401.86,86.82L403.95,41.63L406.05,42.34L408.14,42.81L410.23,54.32L412.33,31.81L414.42,33.85L416.51,16L418.6,65.08L422.79,51.79L424.88,56.2L426.98,61.72L429.07,70.77L431.16,54.75L433.26,60.62L435.35,87.21L437.44,91.35L439.53,99.02L441.63,92.02L443.72,65.36L445.81,68.25L447.91,56.07L450,52.64L452.09,37.96L454.19,41.38L458.37,162.21L460.47,158.37L462.56,159.02L464.65,141.62L466.74,139.73L468.84,144.87L470.93,144.92L473.02,194.77L477.21,162.94L479.3,185.07L481.4,189L483.49,188.65L485.58,190.05L487.67,197.85L489.77,194.39L491.86,197.8L493.95,213.95L496.05,202.38L498.14,202.81L500.23,205.17L502.33,192.74L504.42,197.06L506.51,196.61L508.6,197.13L510.7,196.94L512.79,188.72L514.88,194.17L516.98,195.88L519.07,232.74L521.16,216.66L523.26,208.24L525.35,205.02L527.44,200.91L529.53,200.58L531.63,205.45L533.72,214.65L535.81,222.8L537.91,222.9L540,222.94" style="vector-effect: none; fill: none; stroke: rgb(99, 110, 250); stroke-opacity: 1; stroke-width: 2px; opacity: 1;"/></g><g class="points"/><g class="text"/></g></g></g><g class="overplot"/><path class="xlines-above crisp" d="M0,0" style="fill: none;"/><path class="ylines-above crisp" d="M0,0" style="fill: none;"/><g class="overlines-above"/><g class="xaxislayer-above"><g class="xtick"><text text-anchor="middle" x="0" y="433" transform="translate(94.65,0)" style="font-family: 'Open Sans', verdana, arial, sans-serif; font-size: 12px; fill: rgb(42, 63, 95); fill-opacity: 1; white-space: pre; opacity: 1;">Nov 2022</text></g><g class="xtick"><text text-anchor="middle" x="0" y="433" style="font-family: 'Open Sans', verdana, arial, sans-serif; font-size: 12px; fill: rgb(42, 63, 95); fill-opacity: 1; white-space: pre; opacity: 1;" transform="translate(222.33,0)">Jan 2023</text></g><g class="xtick"><text text-anchor="middle" x="0" y="433" style="font-family: 'Open Sans', verdana, arial, sans-serif; font-size: 12px; fill: rgb(42, 63, 95); fill-opacity: 1; white-space: pre; opacity: 1;" transform="translate(345.81,0)">Mar 2023</text></g><g class="xtick"><text text-anchor="middle" x="0" y="433" style="font-family: 'Open Sans', verdana, arial, sans-serif; font-size: 12px; fill: rgb(42, 63, 95); fill-opacity: 1; white-space: pre; opacity: 1;" transform="translate(473.49,0)">May 2023</text></g><g class="xtick"><text text-anchor="middle" x="0" y="433" style="font-family: 'Open Sans', verdana, arial, sans-serif; font-size: 12px; fill: rgb(42, 63, 95); fill-opacity: 1; white-space: pre; opacity: 1;" transform="translate(601.16,0)">Jul 2023</text></g></g><g class="yaxislayer-above"><g class="ytick"><text text-anchor="end" x="79" y="4.199999999999999" transform="translate(0,420)" style="font-family: 'Open Sans', verdana, arial, sans-serif; font-size: 12px; fill: rgb(42, 63, 95); fill-opacity: 1; white-space: pre; opacity: 1;">$0</text></g><g class="ytick"><text text-anchor="end" x="79" y="4.199999999999999" style="font-family: 'Open Sans', verdana, arial, sans-serif; font-size: 12px; fill: rgb(42, 63, 95); fill-opacity: 1; white-space: pre; opacity: 1;" transform="translate(0,369.43)">$0.5M</text></g><g class="ytick"><text text-anchor="end" x="79" y="4.199999999999999" style="font-family: 'Open Sans', verdana, arial, sans-serif; font-size: 12px; fill: rgb(42, 63, 95); fill-opacity: 1; white-space: pre; opacity: 1;" transform="translate(0,318.85)">$1M</text></g><g class="ytick"><text text-anchor="end" x="79" y="4.199999999999999" style="font-family: 'Open Sans', verdana, arial, sans-serif; font-size: 12px; fill: rgb(42, 63, 95); fill-opacity: 1; white-space: pre; opacity: 1;" transform="translate(0,268.28)">$1.5M</text></g><g class="ytick"><text text-anchor="end" x="79" y="4.199999999999999" style="font-family: 'Open Sans', verdana, arial, sans-serif; font-size: 12px; fill: rgb(42, 63, 95); fill-opacity: 1; white-space: pre; opacity: 1;" transform="translate(0,217.7)">$2M</text></g><g class="ytick"><text text-anchor="end" x="79" y="4.199999999999999" style="font-family: 'Open Sans', verdana, arial, sans-serif; font-size: 12px; fill: rgb(42, 63, 95); fill-opacity: 1; white-space: pre; opacity: 1;" transform="translate(0,167.13)">$2.5M</text></g><g class="ytick"><text text-anchor="end" x="79" y="4.199999999999999" style="font-family: 'Open Sans', verdana, arial, sans-serif; font-size: 12px; fill: rgb(42, 63, 95); fill-opacity: 1; white-space: pre; opacity: 1;" transform="translate(0,116.55)">$3M</text></g></g><g class="overaxes-above"/></g></g><g class="polarlayer"/><g class="smithlayer"/><g class="ternarylayer"/><g class="geolayer"/><g class="funnelarealayer"/><g class="pielayer"/><g class="iciclelayer"/><g class="treemaplayer"/><g class="sunburstlayer"/><g class="glimages"/><defs id="topdefs-38a3a7"><g class="clips"/></defs><g class="layer-above"><g class="imagelayer"/><g class="shapelayer"/></g><g class="infolayer"><g class="g-gtitle"><text class="gtitle" x="35" y="50" text-anchor="start" dy="0em" style="font-family: 'Open Sans', verdana, arial, sans-serif; font-size: 17px; fill: rgb(42, 63, 95); opacity: 1; font-weight: normal; white-space: pre;"><tspan class="line" dy="0em" x="35" y="50">Synthetix - All Synthetix Hop Pools</tspan><tspan class="line" dy="1.3em" x="35" y="50">​<tspan style="font-size:70%" dy="-0.6em">Cumulative Net Flows since Program Announcement, Until Program End + 30 Days - At Last Price</tspan><tspan dy="0.42em">​</tspan></tspan></text></g><g class="g-xtitle"><text class="xtitle" x="350" y="460.3" text-anchor="middle" style="font-family: 'Open Sans', verdana, arial, sans-serif; font-size: 14px; fill: rgb(42, 63, 95); opacity: 1; font-weight: normal; white-space: pre;">Day</text></g><g class="g-ytitle"><text class="ytitle" transform="rotate(-90,21.340625000000003,260)" x="21.340625000000003" y="260" text-anchor="middle" style="font-family: 'Open Sans', verdana, arial, sans-serif; font-size: 14px; fill: rgb(42, 63, 95); opacity: 1; font-weight: normal; white-space: pre;">Cumulative Net Flows (USD)</text></g></g></svg>