<svg class="main-svg" xmlns="http://www.w3.org/2000/svg" xmlns:xlink="http://www.w3.org/1999/xlink" width="700" height="500" style="" viewBox="0 0 700 500"><rect x="0" y="0" width="700" height="500" style="fill: rgb(255, 255, 255); fill-opacity: 1;"/><defs id="defs-8cb3de"><g class="clips"><clipPath id="clip8cb3dexyplot" class="plotclip"><rect width="540" height="320"/></clipPath><clipPath class="axesclip" id="clip8cb3dex"><rect x="80" y="0" width="540" height="500"/></clipPath><clipPath class="axesclip" id="clip8cb3dey"><rect x="0" y="100" width="700" height="320"/></clipPath><clipPath class="axesclip" id="clip8cb3dexy"><rect x="80" y="100" width="540" height="320"/></clipPath></g><g class="gradients"/><g class="patterns"/></defs><g class="bglayer"><rect class="bg" x="80" y="100" width="540" height="320" style="fill: rgb(229, 236, 246); fill-opacity: 1; stroke-width: 0;"/></g><g class="layer-below"><g class="imagelayer"/><g class="shapelayer"/></g><g class="cartesianlayer"><g class="subplot xy"><g class="layer-subplot"><g class="shapelayer"/><g class="imagelayer"/></g><g class="minor-gridlayer"><g class="x"/><g class="y"/></g><g class="gridlayer"><g class="x"><path class="xgrid crisp" transform="translate(85.05,0)" d="M0,100v320" style="stroke: rgb(255, 255, 255); stroke-opacity: 1; stroke-width: 1px;"/><path class="xgrid crisp" transform="translate(163.26999999999998,0)" d="M0,100v320" style="stroke: rgb(255, 255, 255); stroke-opacity: 1; stroke-width: 1px;"/><path class="xgrid crisp" transform="translate(238.97,0)" d="M0,100v320" style="stroke: rgb(255, 255, 255); stroke-opacity: 1; stroke-width: 1px;"/><path class="xgrid crisp" transform="translate(317.2,0)" d="M0,100v320" style="stroke: rgb(255, 255, 255); stroke-opacity: 1; stroke-width: 1px;"/><path class="xgrid crisp" transform="translate(395.42,0)" d="M0,100v320" style="stroke: rgb(255, 255, 255); stroke-opacity: 1; stroke-width: 1px;"/><path class="xgrid crisp" transform="translate(466.07,0)" d="M0,100v320" style="stroke: rgb(255, 255, 255); stroke-opacity: 1; stroke-width: 1px;"/><path class="xgrid crisp" transform="translate(544.3,0)" d="M0,100v320" style="stroke: rgb(255, 255, 255); stroke-opacity: 1; stroke-width: 1px;"/></g><g class="y"><path class="ygrid crisp" transform="translate(0,410.29)" d="M80,0h540" style="stroke: rgb(255, 255, 255); stroke-opacity: 1; stroke-width: 1px;"/><path class="ygrid crisp" transform="translate(0,294.99)" d="M80,0h540" style="stroke: rgb(255, 255, 255); stroke-opacity: 1; stroke-width: 1px;"/><path class="ygrid crisp" transform="translate(0,237.33)" d="M80,0h540" style="stroke: rgb(255, 255, 255); stroke-opacity: 1; stroke-width: 1px;"/><path class="ygrid crisp" transform="translate(0,179.68)" d="M80,0h540" style="stroke: rgb(255, 255, 255); stroke-opacity: 1; stroke-width: 1px;"/><path class="ygrid crisp" transform="translate(0,122.03)" d="M80,0h540" style="stroke: rgb(255, 255, 255); stroke-opacity: 1; stroke-width: 1px;"/></g></g><g class="zerolinelayer"><path class="yzl zl crisp" transform="translate(0,352.64)" d="M80,0h540" style="stroke: rgb(255, 255, 255); stroke-opacity: 1; stroke-width: 2px;"/></g><path class="xlines-below"/><path class="ylines-below"/><g class="overlines-below"/><g class="xaxislayer-below"/><g class="yaxislayer-below"/><g class="overaxes-below"/><g class="plot" transform="translate(80,100)" clip-path="url(#clip8cb3dexyplot)"><g class="scatterlayer mlayer"><g class="trace scatter trace1fa5fb" style="stroke-miterlimit: 2;"><g class="fills"><g><path class="js-fill" d="M540,252.64L0,252.64L0,252.48L2.52,233.67L5.05,226.22L7.57,221.31L10.09,226.65L12.62,215.89L15.14,214.48L17.66,216.64L20.19,212.87L25.23,197.92L27.76,178.52L30.28,179.17L32.8,175.51L35.33,174.96L37.85,178.75L40.37,181.84L42.9,181.72L45.42,179.87L47.94,179.13L52.99,178.37L55.51,181.34L60.56,180.6L63.08,179.56L65.61,183.74L68.13,174.12L70.65,170.06L73.18,169L75.7,165.73L78.22,160.58L80.75,156.22L83.27,153.38L85.79,156.87L88.32,157.51L95.89,144.75L98.41,148.68L100.93,148.66L103.46,164.05L105.98,179.95L108.5,176.01L113.55,175.56L116.07,176.75L121.12,174.57L123.64,175.06L126.17,177.25L128.69,175.56L131.21,175.42L133.74,178.85L136.26,178.2L138.79,175.57L143.83,170.03L146.36,170.19L148.88,169.02L151.4,169.55L153.93,172.34L156.45,170.96L158.97,167.25L161.5,165.45L166.54,172.76L169.07,172.36L171.59,174.33L174.11,180.89L176.64,184.57L179.16,183.34L181.68,182.35L184.21,177.58L186.73,178.39L189.25,176.8L191.78,172.61L194.3,173.7L199.35,179.07L201.87,178.35L204.39,178.1L206.92,178.68L209.44,176.16L211.96,176.66L214.49,166.59L217.01,166.82L219.53,167.68L222.06,167.24L227.1,165.12L229.63,166.58L239.72,162.96L242.24,160.05L249.81,157.88L252.34,169.02L254.86,169.68L257.38,165.48L259.91,163.41L262.43,163.44L264.95,158.95L267.48,158.17L270,143.95L272.52,136.37L275.05,131.73L277.57,129.45L280.09,130.84L282.62,136.16L285.14,147.96L287.66,142.67L292.71,160.27L295.23,145.49L297.76,152.53L300.28,151.31L302.8,148.77L305.33,148.22L310.37,142.03L312.9,166.91L315.42,167.57L317.94,161.98L320.47,155.67L322.99,156.62L328.04,152.41L330.56,154.4L333.08,118.54L335.61,120.65L338.13,121.91L340.65,127.35L343.18,119.75L345.7,124.1L348.22,109.85L350.75,103.88L353.27,91.08L355.79,96.38L358.32,83.61L360.84,82.61L363.36,85.71L365.89,71.03L368.41,74.4L370.93,76.51L373.46,74.17L375.98,88.83L378.5,78.71L381.03,72.8L386.07,73.97L388.6,68.48L391.12,69.41L393.64,69.13L398.69,68.69L401.21,64.57L403.74,99.82L406.26,99.79L408.79,91.75L411.31,97.93L413.83,102.51L416.36,101.3L418.88,96.93L421.4,89.52L423.93,85.29L426.45,83.61L428.97,53.28L431.5,63.9L434.02,64.33L436.54,58.25L439.07,48.73L441.59,49.87L444.11,50.77L446.64,50.25L449.16,49.38L451.68,50.37L454.21,49.67L456.73,50.85L459.25,32.46L461.78,28.39L464.3,27.37L466.82,34.37L469.35,36.47L471.87,36.91L476.92,34.92L479.44,25.68L481.96,21.57L484.49,29.11L487.01,29.79L489.53,18.81L492.06,16.98L494.58,16.89L497.1,16L499.63,22.89L502.15,24.79L504.67,25.7L507.2,32.25L509.72,30.74L512.24,30.98L514.77,39.18L519.81,39.47L522.34,39.6L524.86,38.64L527.38,30.48L532.43,28.39L534.95,28.86L540,28.24L540,304" style="fill: rgb(99, 110, 250); fill-opacity: 0.5; stroke-width: 0;"/></g></g><g class="errorbars"/><g class="lines"><path class="js-line" d="M0,252.48L2.52,233.67L5.05,226.22L7.57,221.31L10.09,226.65L12.62,215.89L15.14,214.48L17.66,216.64L20.19,212.87L25.23,197.92L27.76,178.52L30.28,179.17L32.8,175.51L35.33,174.96L37.85,178.75L40.37,181.84L42.9,181.72L45.42,179.87L47.94,179.13L52.99,178.37L55.51,181.34L60.56,180.6L63.08,179.56L65.61,183.74L68.13,174.12L70.65,170.06L73.18,169L75.7,165.73L78.22,160.58L80.75,156.22L83.27,153.38L85.79,156.87L88.32,157.51L95.89,144.75L98.41,148.68L100.93,148.66L103.46,164.05L105.98,179.95L108.5,176.01L113.55,175.56L116.07,176.75L121.12,174.57L123.64,175.06L126.17,177.25L128.69,175.56L131.21,175.42L133.74,178.85L136.26,178.2L138.79,175.57L143.83,170.03L146.36,170.19L148.88,169.02L151.4,169.55L153.93,172.34L156.45,170.96L158.97,167.25L161.5,165.45L166.54,172.76L169.07,172.36L171.59,174.33L174.11,180.89L176.64,184.57L179.16,183.34L181.68,182.35L184.21,177.58L186.73,178.39L189.25,176.8L191.78,172.61L194.3,173.7L199.35,179.07L201.87,178.35L204.39,178.1L206.92,178.68L209.44,176.16L211.96,176.66L214.49,166.59L217.01,166.82L219.53,167.68L222.06,167.24L227.1,165.12L229.63,166.58L239.72,162.96L242.24,160.05L249.81,157.88L252.34,169.02L254.86,169.68L257.38,165.48L259.91,163.41L262.43,163.44L264.95,158.95L267.48,158.17L270,143.95L272.52,136.37L275.05,131.73L277.57,129.45L280.09,130.84L282.62,136.16L285.14,147.96L287.66,142.67L292.71,160.27L295.23,145.49L297.76,152.53L300.28,151.31L302.8,148.77L305.33,148.22L310.37,142.03L312.9,166.91L315.42,167.57L317.94,161.98L320.47,155.67L322.99,156.62L328.04,152.41L330.56,154.4L333.08,118.54L335.61,120.65L338.13,121.91L340.65,127.35L343.18,119.75L345.7,124.1L348.22,109.85L350.75,103.88L353.27,91.08L355.79,96.38L358.32,83.61L360.84,82.61L363.36,85.71L365.89,71.03L368.41,74.4L370.93,76.51L373.46,74.17L375.98,88.83L378.5,78.71L381.03,72.8L386.07,73.97L388.6,68.48L391.12,69.41L393.64,69.13L398.69,68.69L401.21,64.57L403.74,99.82L406.26,99.79L408.79,91.75L411.31,97.93L413.83,102.51L416.36,101.3L418.88,96.93L421.4,89.52L423.93,85.29L426.45,83.61L428.97,53.28L431.5,63.9L434.02,64.33L436.54,58.25L439.07,48.73L441.59,49.87L444.11,50.77L446.64,50.25L449.16,49.38L451.68,50.37L454.21,49.67L456.73,50.85L459.25,32.46L461.78,28.39L464.3,27.37L466.82,34.37L469.35,36.47L471.87,36.91L476.92,34.92L479.44,25.68L481.96,21.57L484.49,29.11L487.01,29.79L489.53,18.81L492.06,16.98L494.58,16.89L497.1,16L499.63,22.89L502.15,24.79L504.67,25.7L507.2,32.25L509.72,30.74L512.24,30.98L514.77,39.18L519.81,39.47L522.34,39.6L524.86,38.64L527.38,30.48L532.43,28.39L534.95,28.86L540,28.24L540,304" style="vector-effect: none; fill: none; stroke: rgb(99, 110, 250); stroke-opacity: 1; stroke-width: 2px; opacity: 1;"/></g><g class="points"/><g class="text"/></g></g></g><g class="overplot"/><path class="xlines-above crisp" d="M0,0" style="fill: none;"/><path class="ylines-above crisp" d="M0,0" style="fill: none;"/><g class="overlines-above"/><g class="xaxislayer-above"><g class="xtick"><text text-anchor="middle" x="0" y="433" transform="translate(85.05,0)" style="font-family: 'Open Sans', verdana, arial, sans-serif; font-size: 12px; fill: rgb(42, 63, 95); fill-opacity: 1; white-space: pre; opacity: 1;">Oct 2022</text></g><g class="xtick"><text text-anchor="middle" x="0" y="433" style="font-family: 'Open Sans', verdana, arial, sans-serif; font-size: 12px; fill: rgb(42, 63, 95); fill-opacity: 1; white-space: pre; opacity: 1;" transform="translate(163.26999999999998,0)">Nov 2022</text></g><g class="xtick"><text text-anchor="middle" x="0" y="433" style="font-family: 'Open Sans', verdana, arial, sans-serif; font-size: 12px; fill: rgb(42, 63, 95); fill-opacity: 1; white-space: pre; opacity: 1;" transform="translate(238.97,0)">Dec 2022</text></g><g class="xtick"><text text-anchor="middle" x="0" y="433" style="font-family: 'Open Sans', verdana, arial, sans-serif; font-size: 12px; fill: rgb(42, 63, 95); fill-opacity: 1; white-space: pre; opacity: 1;" transform="translate(317.2,0)">Jan 2023</text></g><g class="xtick"><text text-anchor="middle" x="0" y="433" style="font-family: 'Open Sans', verdana, arial, sans-serif; font-size: 12px; fill: rgb(42, 63, 95); fill-opacity: 1; white-space: pre; opacity: 1;" transform="translate(395.42,0)">Feb 2023</text></g><g class="xtick"><text text-anchor="middle" x="0" y="433" style="font-family: 'Open Sans', verdana, arial, sans-serif; font-size: 12px; fill: rgb(42, 63, 95); fill-opacity: 1; white-space: pre; opacity: 1;" transform="translate(466.07,0)">Mar 2023</text></g><g class="xtick"><text text-anchor="middle" x="0" y="433" style="font-family: 'Open Sans', verdana, arial, sans-serif; font-size: 12px; fill: rgb(42, 63, 95); fill-opacity: 1; white-space: pre; opacity: 1;" transform="translate(544.3,0)">Apr 2023</text></g><g class="xtick"><text text-anchor="middle" x="0" y="433" style="font-family: 'Open Sans', verdana, arial, sans-serif; font-size: 12px; fill: rgb(42, 63, 95); fill-opacity: 1; white-space: pre; opacity: 1;" transform="translate(620,0)">May 2023</text></g></g><g class="yaxislayer-above"><g class="ytick"><text text-anchor="end" x="79" y="4.199999999999999" transform="translate(0,410.29)" style="font-family: 'Open Sans', verdana, arial, sans-serif; font-size: 12px; fill: rgb(42, 63, 95); fill-opacity: 1; white-space: pre; opacity: 1;">$−10M</text></g><g class="ytick"><text text-anchor="end" x="79" y="4.199999999999999" style="font-family: 'Open Sans', verdana, arial, sans-serif; font-size: 12px; fill: rgb(42, 63, 95); fill-opacity: 1; white-space: pre; opacity: 1;" transform="translate(0,352.64)">$0</text></g><g class="ytick"><text text-anchor="end" x="79" y="4.199999999999999" style="font-family: 'Open Sans', verdana, arial, sans-serif; font-size: 12px; fill: rgb(42, 63, 95); fill-opacity: 1; white-space: pre; opacity: 1;" transform="translate(0,294.99)">$10M</text></g><g class="ytick"><text text-anchor="end" x="79" y="4.199999999999999" style="font-family: 'Open Sans', verdana, arial, sans-serif; font-size: 12px; fill: rgb(42, 63, 95); fill-opacity: 1; white-space: pre; opacity: 1;" transform="translate(0,237.33)">$20M</text></g><g class="ytick"><text text-anchor="end" x="79" y="4.199999999999999" style="font-family: 'Open Sans', verdana, arial, sans-serif; font-size: 12px; fill: rgb(42, 63, 95); fill-opacity: 1; white-space: pre; opacity: 1;" transform="translate(0,179.68)">$30M</text></g><g class="ytick"><text text-anchor="end" x="79" y="4.199999999999999" style="font-family: 'Open Sans', verdana, arial, sans-serif; font-size: 12px; fill: rgb(42, 63, 95); fill-opacity: 1; white-space: pre; opacity: 1;" transform="translate(0,122.03)">$40M</text></g></g><g class="overaxes-above"/></g></g><g class="polarlayer"/><g class="smithlayer"/><g class="ternarylayer"/><g class="geolayer"/><g class="funnelarealayer"/><g class="pielayer"/><g class="iciclelayer"/><g class="treemaplayer"/><g class="sunburstlayer"/><g class="glimages"/><defs id="topdefs-8cb3de"><g class="clips"/></defs><g class="layer-above"><g class="imagelayer"/><g class="shapelayer"/></g><g class="infolayer"><g class="g-gtitle"><text class="gtitle" x="35" y="50" text-anchor="start" dy="0em" style="font-family: 'Open Sans', verdana, arial, sans-serif; font-size: 17px; fill: rgb(42, 63, 95); opacity: 1; font-weight: normal; white-space: pre;"><tspan class="line" dy="0em" x="35" y="50">Beethoven X</tspan><tspan class="line" dy="1.3em" x="35" y="50">​<tspan style="font-size:70%" dy="-0.6em">Cumulative Net Flows since Program Announcement, Until Program End + 30 Days - At Last Price</tspan><tspan dy="0.42em">​</tspan></tspan></text></g><g class="g-xtitle"><text class="xtitle" x="350" y="460.3" text-anchor="middle" style="font-family: 'Open Sans', verdana, arial, sans-serif; font-size: 14px; fill: rgb(42, 63, 95); opacity: 1; font-weight: normal; white-space: pre;">Day</text></g><g class="g-ytitle"><text class="ytitle" transform="rotate(-90,17.668750000000003,260)" x="17.668750000000003" y="260" text-anchor="middle" style="font-family: 'Open Sans', verdana, arial, sans-serif; font-size: 14px; fill: rgb(42, 63, 95); opacity: 1; font-weight: normal; white-space: pre;">Cumulative Net Flows (USD)</text></g></g></svg>