<svg class="main-svg" xmlns="http://www.w3.org/2000/svg" xmlns:xlink="http://www.w3.org/1999/xlink" width="700" height="500" style="" viewBox="0 0 700 500"><rect x="0" y="0" width="700" height="500" style="fill: rgb(255, 255, 255); fill-opacity: 1;"/><defs id="defs-350892"><g class="clips"><clipPath id="clip350892xyplot" class="plotclip"><rect width="540" height="320"/></clipPath><clipPath class="axesclip" id="clip350892x"><rect x="80" y="0" width="540" height="500"/></clipPath><clipPath class="axesclip" id="clip350892y"><rect x="0" y="100" width="700" height="320"/></clipPath><clipPath class="axesclip" id="clip350892xy"><rect x="80" y="100" width="540" height="320"/></clipPath></g><g class="gradients"/><g class="patterns"/></defs><g class="bglayer"><rect class="bg" x="80" y="100" width="540" height="320" style="fill: rgb(229, 236, 246); fill-opacity: 1; stroke-width: 0;"/></g><g class="layer-below"><g class="imagelayer"/><g class="shapelayer"/></g><g class="cartesianlayer"><g class="subplot xy"><g class="layer-subplot"><g class="shapelayer"/><g class="imagelayer"/></g><g class="minor-gridlayer"><g class="x"/><g class="y"/></g><g class="gridlayer"><g class="x"><path class="xgrid crisp" transform="translate(88.18,0)" d="M0,100v320" style="stroke: rgb(255, 255, 255); stroke-opacity: 1; stroke-width: 1px;"/><path class="xgrid crisp" transform="translate(202.73000000000002,0)" d="M0,100v320" style="stroke: rgb(255, 255, 255); stroke-opacity: 1; stroke-width: 1px;"/><path class="xgrid crisp" transform="translate(329.55,0)" d="M0,100v320" style="stroke: rgb(255, 255, 255); stroke-opacity: 1; stroke-width: 1px;"/><path class="xgrid crisp" transform="translate(452.27,0)" d="M0,100v320" style="stroke: rgb(255, 255, 255); stroke-opacity: 1; stroke-width: 1px;"/><path class="xgrid crisp" transform="translate(579.0899999999999,0)" d="M0,100v320" style="stroke: rgb(255, 255, 255); stroke-opacity: 1; stroke-width: 1px;"/></g><g class="y"><path class="ygrid crisp" transform="translate(0,371.09)" d="M80,0h540" style="stroke: rgb(255, 255, 255); stroke-opacity: 1; stroke-width: 1px;"/><path class="ygrid crisp" transform="translate(0,322.19)" d="M80,0h540" style="stroke: rgb(255, 255, 255); stroke-opacity: 1; stroke-width: 1px;"/><path class="ygrid crisp" transform="translate(0,273.28)" d="M80,0h540" style="stroke: rgb(255, 255, 255); stroke-opacity: 1; stroke-width: 1px;"/><path class="ygrid crisp" transform="translate(0,224.37)" d="M80,0h540" style="stroke: rgb(255, 255, 255); stroke-opacity: 1; stroke-width: 1px;"/><path class="ygrid crisp" transform="translate(0,175.45999999999998)" d="M80,0h540" style="stroke: rgb(255, 255, 255); stroke-opacity: 1; stroke-width: 1px;"/><path class="ygrid crisp" transform="translate(0,126.56)" d="M80,0h540" style="stroke: rgb(255, 255, 255); stroke-opacity: 1; stroke-width: 1px;"/></g></g><g class="zerolinelayer"><path class="yzl zl crisp" transform="translate(0,420)" d="M80,0h540" style="stroke: rgb(255, 255, 255); stroke-opacity: 1; stroke-width: 2px;"/></g><path class="xlines-below"/><path class="ylines-below"/><g class="overlines-below"/><g class="xaxislayer-below"/><g class="yaxislayer-below"/><g class="overaxes-below"/><g class="plot" transform="translate(80,100)" clip-path="url(#clip350892xyplot)"><g class="scatterlayer mlayer"><g class="trace scatter trace56db26" style="stroke-miterlimit: 2;"><g class="fills"><g><path class="js-fill" d="M540,320L0,320L0,319.9L4.09,320L8.18,317.23L12.27,249.8L16.36,228.35L20.45,205.46L24.55,205.67L32.73,164.26L36.82,156.97L40.91,171.33L45,167.92L49.09,169.36L53.18,162.36L57.27,163L61.36,161.78L65.45,150.56L69.55,149.76L73.64,134.55L77.73,115.21L81.82,83.47L85.91,65.93L90,65.2L94.09,77.41L98.18,57.29L102.27,28.74L106.36,37.58L110.45,37.89L114.55,38.08L118.64,16L122.73,16.27L126.82,19.71L130.91,28.08L135,40.8L139.09,46.47L143.18,48.71L151.36,44.36L155.45,74.49L159.55,121.85L163.64,222.71L167.73,209.52L171.82,182.09L175.91,155.43L180,84.36L184.09,102.81L188.18,85.33L192.27,65.1L196.36,70.16L200.45,73.57L204.55,79.81L208.64,73.2L212.73,78.86L216.82,84.16L220.91,85.2L225,86.82L229.09,92.19L233.18,91.75L237.27,98.76L241.36,99.38L245.45,108.83L249.55,101.44L253.64,104.71L257.73,90.68L261.82,90.01L265.91,91.34L270,102.1L274.09,100.82L278.18,114.83L282.27,93.43L286.36,90.68L294.55,88.63L298.64,90.47L302.73,91.75L306.82,83.59L310.91,82.04L315,75.62L319.09,55.89L323.18,55.8L327.27,47.86L331.36,55.16L335.45,55.71L339.55,54.79L343.64,33.44L347.73,33.98L351.82,34.2L355.91,42.47L360,60.57L364.09,60.5L368.18,66L372.27,66.4L376.36,70.72L380.45,71.31L384.55,70.76L388.64,66.7L392.73,65.95L396.82,66.01L400.91,74.25L405,77.87L409.09,85.63L413.18,77.31L417.27,78.14L421.36,77.72L425.45,79.29L429.55,93.05L433.64,95.16L437.73,92.33L441.82,57.93L445.91,64.59L450,63.91L454.09,61.67L462.27,61.35L466.36,67.74L470.45,64.9L474.55,64.6L478.64,50.49L482.73,49.46L486.82,48.01L490.91,45.67L495,24.18L499.09,42.56L503.18,44.8L507.27,44.6L511.36,44.59L515.45,36.68L519.55,24.64L523.64,23.21L540,24.32" style="fill: rgb(99, 110, 250); fill-opacity: 0.5; stroke-width: 0;"/></g></g><g class="errorbars"/><g class="lines"><path class="js-line" d="M0,319.9L4.09,320L8.18,317.23L12.27,249.8L16.36,228.35L20.45,205.46L24.55,205.67L32.73,164.26L36.82,156.97L40.91,171.33L45,167.92L49.09,169.36L53.18,162.36L57.27,163L61.36,161.78L65.45,150.56L69.55,149.76L73.64,134.55L77.73,115.21L81.82,83.47L85.91,65.93L90,65.2L94.09,77.41L98.18,57.29L102.27,28.74L106.36,37.58L110.45,37.89L114.55,38.08L118.64,16L122.73,16.27L126.82,19.71L130.91,28.08L135,40.8L139.09,46.47L143.18,48.71L151.36,44.36L155.45,74.49L159.55,121.85L163.64,222.71L167.73,209.52L171.82,182.09L175.91,155.43L180,84.36L184.09,102.81L188.18,85.33L192.27,65.1L196.36,70.16L200.45,73.57L204.55,79.81L208.64,73.2L212.73,78.86L216.82,84.16L220.91,85.2L225,86.82L229.09,92.19L233.18,91.75L237.27,98.76L241.36,99.38L245.45,108.83L249.55,101.44L253.64,104.71L257.73,90.68L261.82,90.01L265.91,91.34L270,102.1L274.09,100.82L278.18,114.83L282.27,93.43L286.36,90.68L294.55,88.63L298.64,90.47L302.73,91.75L306.82,83.59L310.91,82.04L315,75.62L319.09,55.89L323.18,55.8L327.27,47.86L331.36,55.16L335.45,55.71L339.55,54.79L343.64,33.44L347.73,33.98L351.82,34.2L355.91,42.47L360,60.57L364.09,60.5L368.18,66L372.27,66.4L376.36,70.72L380.45,71.31L384.55,70.76L388.64,66.7L392.73,65.95L396.82,66.01L400.91,74.25L405,77.87L409.09,85.63L413.18,77.31L417.27,78.14L421.36,77.72L425.45,79.29L429.55,93.05L433.64,95.16L437.73,92.33L441.82,57.93L445.91,64.59L450,63.91L454.09,61.67L462.27,61.35L466.36,67.74L470.45,64.9L474.55,64.6L478.64,50.49L482.73,49.46L486.82,48.01L490.91,45.67L495,24.18L499.09,42.56L503.18,44.8L507.27,44.6L511.36,44.59L515.45,36.68L519.55,24.64L523.64,23.21L540,24.32" style="vector-effect: none; fill: none; stroke: rgb(99, 110, 250); stroke-opacity: 1; stroke-width: 2px; opacity: 1;"/></g><g class="points"/><g class="text"/></g></g></g><g class="overplot"/><path class="xlines-above crisp" d="M0,0" style="fill: none;"/><path class="ylines-above crisp" d="M0,0" style="fill: none;"/><g class="overlines-above"/><g class="xaxislayer-above"><g class="xtick"><text text-anchor="middle" x="0" y="433" transform="translate(88.18,0)" style="font-family: 'Open Sans', verdana, arial, sans-serif; font-size: 12px; fill: rgb(42, 63, 95); fill-opacity: 1; white-space: pre; opacity: 1;">Feb 2023</text></g><g class="xtick"><text text-anchor="middle" x="0" y="433" style="font-family: 'Open Sans', verdana, arial, sans-serif; font-size: 12px; fill: rgb(42, 63, 95); fill-opacity: 1; white-space: pre; opacity: 1;" transform="translate(202.73000000000002,0)">Mar 2023</text></g><g class="xtick"><text text-anchor="middle" x="0" y="433" style="font-family: 'Open Sans', verdana, arial, sans-serif; font-size: 12px; fill: rgb(42, 63, 95); fill-opacity: 1; white-space: pre; opacity: 1;" transform="translate(329.55,0)">Apr 2023</text></g><g class="xtick"><text text-anchor="middle" x="0" y="433" style="font-family: 'Open Sans', verdana, arial, sans-serif; font-size: 12px; fill: rgb(42, 63, 95); fill-opacity: 1; white-space: pre; opacity: 1;" transform="translate(452.27,0)">May 2023</text></g><g class="xtick"><text text-anchor="middle" x="0" y="433" style="font-family: 'Open Sans', verdana, arial, sans-serif; font-size: 12px; fill: rgb(42, 63, 95); fill-opacity: 1; white-space: pre; opacity: 1;" transform="translate(579.0899999999999,0)">Jun 2023</text></g></g><g class="yaxislayer-above"><g class="ytick"><text text-anchor="end" x="79" y="4.199999999999999" transform="translate(0,420)" style="font-family: 'Open Sans', verdana, arial, sans-serif; font-size: 12px; fill: rgb(42, 63, 95); fill-opacity: 1; white-space: pre; opacity: 1;">$0</text></g><g class="ytick"><text text-anchor="end" x="79" y="4.199999999999999" style="font-family: 'Open Sans', verdana, arial, sans-serif; font-size: 12px; fill: rgb(42, 63, 95); fill-opacity: 1; white-space: pre; opacity: 1;" transform="translate(0,371.09)">$1M</text></g><g class="ytick"><text text-anchor="end" x="79" y="4.199999999999999" style="font-family: 'Open Sans', verdana, arial, sans-serif; font-size: 12px; fill: rgb(42, 63, 95); fill-opacity: 1; white-space: pre; opacity: 1;" transform="translate(0,322.19)">$2M</text></g><g class="ytick"><text text-anchor="end" x="79" y="4.199999999999999" style="font-family: 'Open Sans', verdana, arial, sans-serif; font-size: 12px; fill: rgb(42, 63, 95); fill-opacity: 1; white-space: pre; opacity: 1;" transform="translate(0,273.28)">$3M</text></g><g class="ytick"><text text-anchor="end" x="79" y="4.199999999999999" style="font-family: 'Open Sans', verdana, arial, sans-serif; font-size: 12px; fill: rgb(42, 63, 95); fill-opacity: 1; white-space: pre; opacity: 1;" transform="translate(0,224.37)">$4M</text></g><g class="ytick"><text text-anchor="end" x="79" y="4.199999999999999" style="font-family: 'Open Sans', verdana, arial, sans-serif; font-size: 12px; fill: rgb(42, 63, 95); fill-opacity: 1; white-space: pre; opacity: 1;" transform="translate(0,175.45999999999998)">$5M</text></g><g class="ytick"><text text-anchor="end" x="79" y="4.199999999999999" style="font-family: 'Open Sans', verdana, arial, sans-serif; font-size: 12px; fill: rgb(42, 63, 95); fill-opacity: 1; white-space: pre; opacity: 1;" transform="translate(0,126.56)">$6M</text></g></g><g class="overaxes-above"/></g></g><g class="polarlayer"/><g class="smithlayer"/><g class="ternarylayer"/><g class="geolayer"/><g class="funnelarealayer"/><g class="pielayer"/><g class="iciclelayer"/><g class="treemaplayer"/><g class="sunburstlayer"/><g class="glimages"/><defs id="topdefs-350892"><g class="clips"/></defs><g class="layer-above"><g class="imagelayer"/><g class="shapelayer"/></g><g class="infolayer"><g class="g-gtitle"><text class="gtitle" x="35" y="50" text-anchor="start" dy="0em" style="font-family: 'Open Sans', verdana, arial, sans-serif; font-size: 17px; fill: rgb(42, 63, 95); opacity: 1; font-weight: normal; white-space: pre;"><tspan class="line" dy="0em" x="35" y="50">Overnight - USD+/DOLA: Velodrome</tspan><tspan class="line" dy="1.3em" x="35" y="50">​<tspan style="font-size:70%" dy="-0.6em">Cumulative Net Flows since Program Announcement, Until Program End + 30 Days - At Last Price</tspan><tspan dy="0.42em">​</tspan></tspan></text></g><g class="g-xtitle"><text class="xtitle" x="350" y="460.3" text-anchor="middle" style="font-family: 'Open Sans', verdana, arial, sans-serif; font-size: 14px; fill: rgb(42, 63, 95); opacity: 1; font-weight: normal; white-space: pre;">Day</text></g><g class="g-ytitle"><text class="ytitle" transform="rotate(-90,31.356250000000003,260)" x="31.356250000000003" y="260" text-anchor="middle" style="font-family: 'Open Sans', verdana, arial, sans-serif; font-size: 14px; fill: rgb(42, 63, 95); opacity: 1; font-weight: normal; white-space: pre;">Cumulative Net Flows (USD)</text></g></g></svg>