<svg class="main-svg" xmlns="http://www.w3.org/2000/svg" xmlns:xlink="http://www.w3.org/1999/xlink" width="700" height="500" style="" viewBox="0 0 700 500"><rect x="0" y="0" width="700" height="500" style="fill: rgb(255, 255, 255); fill-opacity: 1;"/><defs id="defs-4d20b8"><g class="clips"><clipPath id="clip4d20b8xyplot" class="plotclip"><rect width="540" height="320"/></clipPath><clipPath class="axesclip" id="clip4d20b8x"><rect x="80" y="0" width="540" height="500"/></clipPath><clipPath class="axesclip" id="clip4d20b8y"><rect x="0" y="100" width="700" height="320"/></clipPath><clipPath class="axesclip" id="clip4d20b8xy"><rect x="80" y="100" width="540" height="320"/></clipPath></g><g class="gradients"/><g class="patterns"/></defs><g class="bglayer"><rect class="bg" x="80" y="100" width="540" height="320" style="fill: rgb(229, 236, 246); fill-opacity: 1; stroke-width: 0;"/></g><g class="layer-below"><g class="imagelayer"/><g class="shapelayer"/></g><g class="cartesianlayer"><g class="subplot xy"><g class="layer-subplot"><g class="shapelayer"/><g class="imagelayer"/></g><g class="minor-gridlayer"><g class="x"/><g class="y"/></g><g class="gridlayer"><g class="x"><path class="xgrid crisp" transform="translate(84.51,0)" d="M0,100v320" style="stroke: rgb(255, 255, 255); stroke-opacity: 1; stroke-width: 1px;"/><path class="xgrid crisp" transform="translate(188.23000000000002,0)" d="M0,100v320" style="stroke: rgb(255, 255, 255); stroke-opacity: 1; stroke-width: 1px;"/><path class="xgrid crisp" transform="translate(289.69,0)" d="M0,100v320" style="stroke: rgb(255, 255, 255); stroke-opacity: 1; stroke-width: 1px;"/><path class="xgrid crisp" transform="translate(392.28,0)" d="M0,100v320" style="stroke: rgb(255, 255, 255); stroke-opacity: 1; stroke-width: 1px;"/><path class="xgrid crisp" transform="translate(495.99,0)" d="M0,100v320" style="stroke: rgb(255, 255, 255); stroke-opacity: 1; stroke-width: 1px;"/><path class="xgrid crisp" transform="translate(599.71,0)" d="M0,100v320" style="stroke: rgb(255, 255, 255); stroke-opacity: 1; stroke-width: 1px;"/></g><g class="y"><path class="ygrid crisp" transform="translate(0,381.45)" d="M80,0h540" style="stroke: rgb(255, 255, 255); stroke-opacity: 1; stroke-width: 1px;"/><path class="ygrid crisp" transform="translate(0,241.81)" d="M80,0h540" style="stroke: rgb(255, 255, 255); stroke-opacity: 1; stroke-width: 1px;"/><path class="ygrid crisp" transform="translate(0,171.98000000000002)" d="M80,0h540" style="stroke: rgb(255, 255, 255); stroke-opacity: 1; stroke-width: 1px;"/><path class="ygrid crisp" transform="translate(0,102.16)" d="M80,0h540" style="stroke: rgb(255, 255, 255); stroke-opacity: 1; stroke-width: 1px;"/></g></g><g class="zerolinelayer"><path class="yzl zl crisp" transform="translate(0,311.63)" d="M80,0h540" style="stroke: rgb(255, 255, 255); stroke-opacity: 1; stroke-width: 2px;"/></g><path class="xlines-below"/><path class="ylines-below"/><g class="overlines-below"/><g class="xaxislayer-below"/><g class="yaxislayer-below"/><g class="overaxes-below"/><g class="plot" transform="translate(80,100)" clip-path="url(#clip4d20b8xyplot)"><g class="scatterlayer mlayer"><g class="trace scatter trace08dc0b" style="stroke-miterlimit: 2;"><g class="fills"><g><path class="js-fill" d="M540,211.63L0,211.63L0,211.67L22.55,211.57L23.67,204.7L25.93,204.57L27.06,207.02L28.18,207.14L29.31,205.8L31.57,206.83L32.69,211.15L36.08,203.6L37.2,203.95L40.58,203.32L41.71,203.37L46.22,202.55L47.35,213.47L48.48,214.65L49.6,224.86L50.73,223.59L51.86,224.25L52.99,224.26L54.11,225.17L55.24,216.65L56.37,215.39L57.49,219.18L58.62,218.01L59.75,217.12L60.88,217.62L62,218.57L63.13,218.53L64.26,219.7L65.39,219.37L66.51,218.48L67.64,213.97L68.77,213.6L69.9,218.21L71.02,218.64L72.15,217.98L74.41,209.59L75.53,209.56L76.66,210.04L77.79,208.33L78.91,207.58L80.04,203.8L81.17,203.5L82.3,201.41L83.42,207.51L84.55,186.28L85.68,197.06L86.81,197.24L87.93,201.46L89.06,214.77L90.19,214.92L91.32,220.45L92.44,221.24L93.57,220.88L94.7,215.84L95.82,215.93L96.95,217.45L98.08,217.69L102.59,217.91L103.72,218.8L110.48,218.43L111.61,218.32L112.73,218.19L113.86,219.98L114.99,217.71L116.12,217.54L117.24,214.53L118.37,213.8L119.5,213.66L120.63,212.37L122.88,210.59L124.01,210.85L125.14,210.73L126.26,208.24L127.39,207.83L128.52,201.93L130.77,194.76L131.9,198.15L134.15,181.87L135.28,179.23L137.54,160.81L138.66,157.11L139.79,157.14L140.92,154.56L142.05,145.87L143.17,143.56L145.43,136.78L146.56,135.77L147.68,131.81L148.81,109.18L149.94,107.6L151.06,93.99L152.19,96.36L153.32,96.46L155.57,84.92L156.7,84.19L157.83,84.23L158.96,81.03L160.08,82.29L161.21,77.26L162.34,75.81L163.47,66.13L165.72,57.34L166.85,64.46L167.97,60.5L169.1,48.4L170.23,48.98L171.36,48.1L173.61,35L174.74,23.43L175.87,17.52L176.99,17.26L178.12,16L179.25,16.94L180.38,16.08L181.5,19.18L182.63,20.64L183.76,25.82L184.89,91.61L186.01,223.09L187.14,222.34L188.27,201.44L189.39,157.3L190.52,151.01L191.65,141.38L192.78,118.49L195.03,67.23L196.16,64.22L197.29,66.76L198.41,66.42L200.67,75.54L201.8,78.58L202.92,78.93L204.05,85.06L205.18,85.05L206.3,88.37L207.43,88.9L208.56,82.77L210.81,82.71L211.94,86.77L213.07,92.47L214.2,90.89L216.45,84.04L217.58,84.69L218.71,98.01L219.83,101.89L220.96,102.98L222.09,102.42L223.22,101.97L224.34,88.38L225.47,90.25L226.6,90.28L231.11,90.28L232.23,93.47L233.36,87.31L234.49,87.48L236.74,73.77L237.87,70.31L239,72.95L240.13,71.89L242.38,71.12L243.51,71.3L245.76,74.32L246.89,78.07L248.02,79.73L249.14,84.33L250.27,84.32L251.4,88.95L253.65,94.17L254.78,101.18L255.91,101.83L257.04,101.55L258.16,101.6L259.29,103.06L260.42,97.2L261.54,97.36L262.67,99.28L263.8,97.06L264.93,101.13L266.05,101.28L268.31,101.14L269.44,101.49L271.69,102.14L272.82,107.41L273.95,106.89L275.07,107.43L277.33,108.1L278.46,110.13L279.58,110.52L280.71,113.37L282.96,114.13L284.09,118.73L286.35,100.26L287.47,100.42L288.6,114.36L289.73,115.32L291.98,115.31L293.11,116.11L294.24,130.95L295.37,134.63L296.49,131.97L297.62,132.05L299.87,144.05L301,151.25L303.26,151.7L304.38,152.43L305.51,152.86L306.64,157.62L307.77,160.53L308.89,173.6L311.15,194.67L312.28,200.89L313.4,201.77L314.53,207.12L315.66,223.66L316.78,223.79L320.17,224.65L321.29,224.68L322.42,225.13L323.55,226.73L324.68,279.48L325.8,279.57L326.93,290.9L328.06,290.9L330.31,292L331.44,292.05L332.57,294.05L333.7,294.29L359.62,295.35L360.75,296.15L491.52,297.44L492.65,303.96L540,303.97" style="fill: rgb(99, 110, 250); fill-opacity: 0.5; stroke-width: 0;"/></g></g><g class="errorbars"/><g class="lines"><path class="js-line" d="M0,211.67L22.55,211.57L23.67,204.7L25.93,204.57L27.06,207.02L28.18,207.14L29.31,205.8L31.57,206.83L32.69,211.15L36.08,203.6L37.2,203.95L40.58,203.32L41.71,203.37L46.22,202.55L47.35,213.47L48.48,214.65L49.6,224.86L50.73,223.59L51.86,224.25L52.99,224.26L54.11,225.17L55.24,216.65L56.37,215.39L57.49,219.18L58.62,218.01L59.75,217.12L60.88,217.62L62,218.57L63.13,218.53L64.26,219.7L65.39,219.37L66.51,218.48L67.64,213.97L68.77,213.6L69.9,218.21L71.02,218.64L72.15,217.98L74.41,209.59L75.53,209.56L76.66,210.04L77.79,208.33L78.91,207.58L80.04,203.8L81.17,203.5L82.3,201.41L83.42,207.51L84.55,186.28L85.68,197.06L86.81,197.24L87.93,201.46L89.06,214.77L90.19,214.92L91.32,220.45L92.44,221.24L93.57,220.88L94.7,215.84L95.82,215.93L96.95,217.45L98.08,217.69L102.59,217.91L103.72,218.8L110.48,218.43L111.61,218.32L112.73,218.19L113.86,219.98L114.99,217.71L116.12,217.54L117.24,214.53L118.37,213.8L119.5,213.66L120.63,212.37L122.88,210.59L124.01,210.85L125.14,210.73L126.26,208.24L127.39,207.83L128.52,201.93L130.77,194.76L131.9,198.15L134.15,181.87L135.28,179.23L137.54,160.81L138.66,157.11L139.79,157.14L140.92,154.56L142.05,145.87L143.17,143.56L145.43,136.78L146.56,135.77L147.68,131.81L148.81,109.18L149.94,107.6L151.06,93.99L152.19,96.36L153.32,96.46L155.57,84.92L156.7,84.19L157.83,84.23L158.96,81.03L160.08,82.29L161.21,77.26L162.34,75.81L163.47,66.13L165.72,57.34L166.85,64.46L167.97,60.5L169.1,48.4L170.23,48.98L171.36,48.1L173.61,35L174.74,23.43L175.87,17.52L176.99,17.26L178.12,16L179.25,16.94L180.38,16.08L181.5,19.18L182.63,20.64L183.76,25.82L184.89,91.61L186.01,223.09L187.14,222.34L188.27,201.44L189.39,157.3L190.52,151.01L191.65,141.38L192.78,118.49L195.03,67.23L196.16,64.22L197.29,66.76L198.41,66.42L200.67,75.54L201.8,78.58L202.92,78.93L204.05,85.06L205.18,85.05L206.3,88.37L207.43,88.9L208.56,82.77L210.81,82.71L211.94,86.77L213.07,92.47L214.2,90.89L216.45,84.04L217.58,84.69L218.71,98.01L219.83,101.89L220.96,102.98L222.09,102.42L223.22,101.97L224.34,88.38L225.47,90.25L226.6,90.28L231.11,90.28L232.23,93.47L233.36,87.31L234.49,87.48L236.74,73.77L237.87,70.31L239,72.95L240.13,71.89L242.38,71.12L243.51,71.3L245.76,74.32L246.89,78.07L248.02,79.73L249.14,84.33L250.27,84.32L251.4,88.95L253.65,94.17L254.78,101.18L255.91,101.83L257.04,101.55L258.16,101.6L259.29,103.06L260.42,97.2L261.54,97.36L262.67,99.28L263.8,97.06L264.93,101.13L266.05,101.28L268.31,101.14L269.44,101.49L271.69,102.14L272.82,107.41L273.95,106.89L275.07,107.43L277.33,108.1L278.46,110.13L279.58,110.52L280.71,113.37L282.96,114.13L284.09,118.73L286.35,100.26L287.47,100.42L288.6,114.36L289.73,115.32L291.98,115.31L293.11,116.11L294.24,130.95L295.37,134.63L296.49,131.97L297.62,132.05L299.87,144.05L301,151.25L303.26,151.7L304.38,152.43L305.51,152.86L306.64,157.62L307.77,160.53L308.89,173.6L311.15,194.67L312.28,200.89L313.4,201.77L314.53,207.12L315.66,223.66L316.78,223.79L320.17,224.65L321.29,224.68L322.42,225.13L323.55,226.73L324.68,279.48L325.8,279.57L326.93,290.9L328.06,290.9L330.31,292L331.44,292.05L332.57,294.05L333.7,294.29L359.62,295.35L360.75,296.15L491.52,297.44L492.65,303.96L540,303.97" style="vector-effect: none; fill: none; stroke: rgb(99, 110, 250); stroke-opacity: 1; stroke-width: 2px; opacity: 1;"/></g><g class="points"/><g class="text"/></g></g></g><g class="overplot"/><path class="xlines-above crisp" d="M0,0" style="fill: none;"/><path class="ylines-above crisp" d="M0,0" style="fill: none;"/><g class="overlines-above"/><g class="xaxislayer-above"><g class="xtick"><text text-anchor="middle" x="0" y="433" transform="translate(84.51,0)" style="font-family: 'Open Sans', verdana, arial, sans-serif; font-size: 12px; fill: rgb(42, 63, 95); fill-opacity: 1; white-space: pre; opacity: 1;">Oct 2022</text></g><g class="xtick"><text text-anchor="middle" x="0" y="433" style="font-family: 'Open Sans', verdana, arial, sans-serif; font-size: 12px; fill: rgb(42, 63, 95); fill-opacity: 1; white-space: pre; opacity: 1;" transform="translate(188.23000000000002,0)">Jan 2023</text></g><g class="xtick"><text text-anchor="middle" x="0" y="433" style="font-family: 'Open Sans', verdana, arial, sans-serif; font-size: 12px; fill: rgb(42, 63, 95); fill-opacity: 1; white-space: pre; opacity: 1;" transform="translate(289.69,0)">Apr 2023</text></g><g class="xtick"><text text-anchor="middle" x="0" y="433" style="font-family: 'Open Sans', verdana, arial, sans-serif; font-size: 12px; fill: rgb(42, 63, 95); fill-opacity: 1; white-space: pre; opacity: 1;" transform="translate(392.28,0)">Jul 2023</text></g><g class="xtick"><text text-anchor="middle" x="0" y="433" style="font-family: 'Open Sans', verdana, arial, sans-serif; font-size: 12px; fill: rgb(42, 63, 95); fill-opacity: 1; white-space: pre; opacity: 1;" transform="translate(495.99,0)">Oct 2023</text></g><g class="xtick"><text text-anchor="middle" x="0" y="433" style="font-family: 'Open Sans', verdana, arial, sans-serif; font-size: 12px; fill: rgb(42, 63, 95); fill-opacity: 1; white-space: pre; opacity: 1;" transform="translate(599.71,0)">Jan 2024</text></g></g><g class="yaxislayer-above"><g class="ytick"><text text-anchor="end" x="79" y="4.199999999999999" transform="translate(0,381.45)" style="font-family: 'Open Sans', verdana, arial, sans-serif; font-size: 12px; fill: rgb(42, 63, 95); fill-opacity: 1; white-space: pre; opacity: 1;">$−10M</text></g><g class="ytick"><text text-anchor="end" x="79" y="4.199999999999999" style="font-family: 'Open Sans', verdana, arial, sans-serif; font-size: 12px; fill: rgb(42, 63, 95); fill-opacity: 1; white-space: pre; opacity: 1;" transform="translate(0,311.63)">$0</text></g><g class="ytick"><text text-anchor="end" x="79" y="4.199999999999999" style="font-family: 'Open Sans', verdana, arial, sans-serif; font-size: 12px; fill: rgb(42, 63, 95); fill-opacity: 1; white-space: pre; opacity: 1;" transform="translate(0,241.81)">$10M</text></g><g class="ytick"><text text-anchor="end" x="79" y="4.199999999999999" style="font-family: 'Open Sans', verdana, arial, sans-serif; font-size: 12px; fill: rgb(42, 63, 95); fill-opacity: 1; white-space: pre; opacity: 1;" transform="translate(0,171.98000000000002)">$20M</text></g><g class="ytick"><text text-anchor="end" x="79" y="4.199999999999999" style="font-family: 'Open Sans', verdana, arial, sans-serif; font-size: 12px; fill: rgb(42, 63, 95); fill-opacity: 1; white-space: pre; opacity: 1;" transform="translate(0,102.16)">$30M</text></g></g><g class="overaxes-above"/></g></g><g class="polarlayer"/><g class="smithlayer"/><g class="ternarylayer"/><g class="geolayer"/><g class="funnelarealayer"/><g class="pielayer"/><g class="iciclelayer"/><g class="treemaplayer"/><g class="sunburstlayer"/><g class="glimages"/><defs id="topdefs-4d20b8"><g class="clips"/></defs><g class="layer-above"><g class="imagelayer"/><g class="shapelayer"/></g><g class="infolayer"><g class="g-gtitle"><text class="gtitle" x="35" y="50" text-anchor="start" dy="0em" style="font-family: 'Open Sans', verdana, arial, sans-serif; font-size: 17px; fill: rgb(42, 63, 95); opacity: 1; font-weight: normal; white-space: pre;"><tspan class="line" dy="0em" x="35" y="50">Synthetix - USDC/sUSD: Velodrome</tspan><tspan class="line" dy="1.3em" x="35" y="50">​<tspan style="font-size:70%" dy="-0.6em">Cumulative Net Flows since Program Announcement, Until Program End + 30 Days - At Last Price</tspan><tspan dy="0.42em">​</tspan></tspan></text></g><g class="g-xtitle"><text class="xtitle" x="350" y="460.3" text-anchor="middle" style="font-family: 'Open Sans', verdana, arial, sans-serif; font-size: 14px; fill: rgb(42, 63, 95); opacity: 1; font-weight: normal; white-space: pre;">Day</text></g><g class="g-ytitle"><text class="ytitle" transform="rotate(-90,17.668750000000003,260)" x="17.668750000000003" y="260" text-anchor="middle" style="font-family: 'Open Sans', verdana, arial, sans-serif; font-size: 14px; fill: rgb(42, 63, 95); opacity: 1; font-weight: normal; white-space: pre;">Cumulative Net Flows (USD)</text></g></g></svg>