<svg class="main-svg" xmlns="http://www.w3.org/2000/svg" xmlns:xlink="http://www.w3.org/1999/xlink" width="700" height="500" style="" viewBox="0 0 700 500"><rect x="0" y="0" width="700" height="500" style="fill: rgb(255, 255, 255); fill-opacity: 1;"/><defs id="defs-c47e18"><g class="clips"><clipPath id="clipc47e18xyplot" class="plotclip"><rect width="540" height="320"/></clipPath><clipPath class="axesclip" id="clipc47e18x"><rect x="80" y="0" width="540" height="500"/></clipPath><clipPath class="axesclip" id="clipc47e18y"><rect x="0" y="100" width="700" height="320"/></clipPath><clipPath class="axesclip" id="clipc47e18xy"><rect x="80" y="100" width="540" height="320"/></clipPath></g><g class="gradients"/><g class="patterns"/></defs><g class="bglayer"><rect class="bg" x="80" y="100" width="540" height="320" style="fill: rgb(229, 236, 246); fill-opacity: 1; stroke-width: 0;"/></g><g class="layer-below"><g class="imagelayer"/><g class="shapelayer"/></g><g class="cartesianlayer"><g class="subplot xy"><g class="layer-subplot"><g class="shapelayer"/><g class="imagelayer"/></g><g class="minor-gridlayer"><g class="x"/><g class="y"/></g><g class="gridlayer"><g class="x"><path class="xgrid crisp" transform="translate(126.7,0)" d="M0,100v320" style="stroke: rgb(255, 255, 255); stroke-opacity: 1; stroke-width: 1px;"/><path class="xgrid crisp" transform="translate(212.81,0)" d="M0,100v320" style="stroke: rgb(255, 255, 255); stroke-opacity: 1; stroke-width: 1px;"/><path class="xgrid crisp" transform="translate(301.84000000000003,0)" d="M0,100v320" style="stroke: rgb(255, 255, 255); stroke-opacity: 1; stroke-width: 1px;"/><path class="xgrid crisp" transform="translate(390.86,0)" d="M0,100v320" style="stroke: rgb(255, 255, 255); stroke-opacity: 1; stroke-width: 1px;"/><path class="xgrid crisp" transform="translate(481.35,0)" d="M0,100v320" style="stroke: rgb(255, 255, 255); stroke-opacity: 1; stroke-width: 1px;"/><path class="xgrid crisp" transform="translate(570.38,0)" d="M0,100v320" style="stroke: rgb(255, 255, 255); stroke-opacity: 1; stroke-width: 1px;"/></g><g class="y"><path class="ygrid crisp" transform="translate(0,339.7)" d="M80,0h540" style="stroke: rgb(255, 255, 255); stroke-opacity: 1; stroke-width: 1px;"/><path class="ygrid crisp" transform="translate(0,292.87)" d="M80,0h540" style="stroke: rgb(255, 255, 255); stroke-opacity: 1; stroke-width: 1px;"/><path class="ygrid crisp" transform="translate(0,246.04)" d="M80,0h540" style="stroke: rgb(255, 255, 255); stroke-opacity: 1; stroke-width: 1px;"/><path class="ygrid crisp" transform="translate(0,199.20999999999998)" d="M80,0h540" style="stroke: rgb(255, 255, 255); stroke-opacity: 1; stroke-width: 1px;"/><path class="ygrid crisp" transform="translate(0,152.38)" d="M80,0h540" style="stroke: rgb(255, 255, 255); stroke-opacity: 1; stroke-width: 1px;"/><path class="ygrid crisp" transform="translate(0,105.55)" d="M80,0h540" style="stroke: rgb(255, 255, 255); stroke-opacity: 1; stroke-width: 1px;"/></g></g><g class="zerolinelayer"><path class="yzl zl crisp" transform="translate(0,386.53)" d="M80,0h540" style="stroke: rgb(255, 255, 255); stroke-opacity: 1; stroke-width: 2px;"/></g><path class="xlines-below"/><path class="ylines-below"/><g class="overlines-below"/><g class="xaxislayer-below"/><g class="yaxislayer-below"/><g class="overaxes-below"/><g class="plot" transform="translate(80,100)" clip-path="url(#clipc47e18xyplot)"><g class="scatterlayer mlayer"><g class="trace scatter traceb1b2fe" style="stroke-miterlimit: 2;"><g class="fills"><g><path class="js-fill" d="M540,286.53L0,286.53L0,292.96L1.46,304L2.92,290.61L4.38,286.83L5.84,254.22L7.3,260.76L8.76,262.27L10.22,260.32L11.68,247.5L18.97,231.7L20.43,238.96L21.89,218.41L23.35,221.2L24.81,222.28L26.27,151.5L27.73,154.74L29.19,154.76L30.65,148.92L32.11,154.88L33.57,142.18L35.03,144.12L39.41,143.34L40.86,154.05L42.32,153.72L43.78,155.07L45.24,153.92L46.7,102.17L48.16,119.61L49.62,120.18L51.08,115.23L52.54,103.44L54,114.81L55.46,117.76L56.92,118.23L58.38,117.14L59.84,111.47L61.3,112.4L62.76,108.2L64.22,112.89L68.59,61.3L70.05,59.91L71.51,57.5L72.97,36.64L74.43,40.57L75.89,25.97L77.35,27.22L78.81,24.13L80.27,26.89L81.73,36.93L83.19,31.05L84.65,33.97L86.11,34.29L87.57,31.85L89.03,25.05L90.49,30.67L91.95,28.28L93.41,17.04L94.86,18.82L96.32,16.96L97.78,23.76L99.24,16L102.16,27.78L103.62,47.68L105.08,135.07L106.54,174.25L108,181.86L109.46,181.98L110.92,182.01L112.38,178.68L115.3,129.63L116.76,124.42L118.22,122.48L119.68,116.17L121.14,119.04L122.59,131.95L124.05,127.53L125.51,125.67L126.97,126.69L128.43,126.35L129.89,131.43L131.35,133.69L132.81,176.26L134.27,177.68L135.73,179.62L137.19,183.43L138.65,185.3L140.11,188.55L141.57,172.28L143.03,186.35L144.49,182.4L145.95,163.49L147.41,166.81L148.86,177.97L150.32,178.42L151.78,176.41L154.7,154.68L156.16,147.47L157.62,138.9L159.08,158.61L160.54,150.17L162,156.2L163.46,151.66L164.92,158.61L166.38,152.72L167.84,154.59L169.3,143.54L170.76,141.1L172.22,155.59L173.68,156.62L175.14,166.88L176.59,165.63L179.51,170.01L180.97,161.53L182.43,160.45L183.89,153.62L185.35,155.96L186.81,154.22L188.27,152.18L189.73,158.22L192.65,154.78L194.11,156.89L197.03,152.76L198.49,157.43L199.95,157.67L201.41,161.41L202.86,162.69L204.32,172.4L205.78,167.72L207.24,170.94L208.7,181.56L210.16,181.78L211.62,185.11L213.08,184.85L214.54,178.85L216,178.59L217.46,171.34L218.92,172.28L220.38,171.58L221.84,173.97L223.3,176.85L224.76,176.45L226.22,164.14L227.68,181.38L229.14,175.73L230.59,180.59L232.05,177.24L233.51,179.07L234.97,213.7L236.43,211.67L237.89,172.21L239.35,173.86L240.81,174.36L242.27,179.99L243.73,186L245.19,175.85L246.65,175.74L248.11,178.36L249.57,169.25L251.03,172.15L252.49,176.05L253.95,167.44L255.41,162.7L256.86,172.68L258.32,174.39L259.78,169.6L261.24,172.19L262.7,169.17L268.54,168.1L270,157.59L271.46,144.69L272.92,144.31L275.84,130.3L277.3,142.38L278.76,135.23L280.22,135.21L281.68,124.65L283.14,129.45L284.59,128.38L286.05,132.85L287.51,137.55L288.97,157.72L290.43,162.29L291.89,161.84L294.81,161.17L296.27,156.52L297.73,141.34L299.19,157.53L300.65,152.8L302.11,153.35L305.03,152.79L306.49,147.37L307.95,155.64L309.41,82.65L310.86,81.02L312.32,81.13L313.78,78.69L315.24,77.82L316.7,75.79L318.16,78.72L321.08,94.17L322.54,92.01L324,94.27L325.46,90.21L326.92,89.16L328.38,81.91L329.84,68.69L331.3,76.75L332.76,76.23L334.22,76.55L335.68,77.98L337.14,77.75L338.59,56.93L340.05,60.28L341.51,59.98L342.97,62.34L344.43,53.88L345.89,59.82L347.35,58.55L348.81,60.6L351.73,107.89L353.19,96.5L354.65,127.91L356.11,119.29L357.57,133.39L359.03,136.94L360.49,159.18L361.95,147.54L363.41,149.19L364.86,146.47L366.32,145.77L367.78,147.16L369.24,148.57L370.7,152.66L372.16,151.46L373.62,152.72L375.08,155.07L376.54,161.62L378,165.85L379.46,159.82L380.92,163.12L382.38,158.75L383.84,156.71L385.3,157.08L386.76,153.24L388.22,155.29L389.68,152.95L391.14,132.34L392.59,131.44L394.05,145.04L395.51,176.41L396.97,176.6L398.43,169.77L399.89,180.05L401.35,185.48L402.81,184.2L405.73,182.07L407.19,183.52L410.11,182.74L411.57,181.73L414.49,183.49L415.95,190.23L417.41,195L418.86,191.1L420.32,192.95L421.78,191.58L424.7,191.15L426.16,191.97L427.62,189.07L429.08,189.66L432,191.83L433.46,190.76L434.92,190.22L436.38,191.38L437.84,193.39L439.3,190.13L440.76,192.08L442.22,188.69L445.14,187.1L446.59,182.66L448.05,187.35L449.51,189.05L450.97,188.36L452.43,190.34L453.89,190.21L455.35,189.14L456.81,193.29L458.27,193.07L459.73,193.77L461.19,192.42L462.65,196.61L464.11,194.7L467.03,195.03L468.49,190.66L469.95,197.32L471.41,197.1L472.86,280.55L474.32,279.64L477.24,277.33L478.7,273.69L480.16,276.04L481.62,275.37L483.08,274.7L484.54,275.13L486,275.03L487.46,274.16L488.92,273.89L490.38,275.02L491.84,281.94L493.3,282.44L499.14,282.29L500.59,282.34L502.05,281.92L503.51,276.68L509.35,277.45L510.81,278.49L512.27,275.47L513.73,242.95L515.19,244.74L516.65,243.47L518.11,245.19L519.57,245.46L521.03,249.7L522.49,244.89L523.95,243.34L525.41,243.82L526.86,244.34L528.32,243.81L529.78,245.65L531.24,245.94L532.7,246.35L534.16,290.52L535.62,292.78L537.08,290.42L538.54,285.1L540,284.37" style="fill: rgb(99, 110, 250); fill-opacity: 0.5; stroke-width: 0;"/></g></g><g class="errorbars"/><g class="lines"><path class="js-line" d="M0,292.96L1.46,304L2.92,290.61L4.38,286.83L5.84,254.22L7.3,260.76L8.76,262.27L10.22,260.32L11.68,247.5L18.97,231.7L20.43,238.96L21.89,218.41L23.35,221.2L24.81,222.28L26.27,151.5L27.73,154.74L29.19,154.76L30.65,148.92L32.11,154.88L33.57,142.18L35.03,144.12L39.41,143.34L40.86,154.05L42.32,153.72L43.78,155.07L45.24,153.92L46.7,102.17L48.16,119.61L49.62,120.18L51.08,115.23L52.54,103.44L54,114.81L55.46,117.76L56.92,118.23L58.38,117.14L59.84,111.47L61.3,112.4L62.76,108.2L64.22,112.89L68.59,61.3L70.05,59.91L71.51,57.5L72.97,36.64L74.43,40.57L75.89,25.97L77.35,27.22L78.81,24.13L80.27,26.89L81.73,36.93L83.19,31.05L84.65,33.97L86.11,34.29L87.57,31.85L89.03,25.05L90.49,30.67L91.95,28.28L93.41,17.04L94.86,18.82L96.32,16.96L97.78,23.76L99.24,16L102.16,27.78L103.62,47.68L105.08,135.07L106.54,174.25L108,181.86L109.46,181.98L110.92,182.01L112.38,178.68L115.3,129.63L116.76,124.42L118.22,122.48L119.68,116.17L121.14,119.04L122.59,131.95L124.05,127.53L125.51,125.67L126.97,126.69L128.43,126.35L129.89,131.43L131.35,133.69L132.81,176.26L134.27,177.68L135.73,179.62L137.19,183.43L138.65,185.3L140.11,188.55L141.57,172.28L143.03,186.35L144.49,182.4L145.95,163.49L147.41,166.81L148.86,177.97L150.32,178.42L151.78,176.41L154.7,154.68L156.16,147.47L157.62,138.9L159.08,158.61L160.54,150.17L162,156.2L163.46,151.66L164.92,158.61L166.38,152.72L167.84,154.59L169.3,143.54L170.76,141.1L172.22,155.59L173.68,156.62L175.14,166.88L176.59,165.63L179.51,170.01L180.97,161.53L182.43,160.45L183.89,153.62L185.35,155.96L186.81,154.22L188.27,152.18L189.73,158.22L192.65,154.78L194.11,156.89L197.03,152.76L198.49,157.43L199.95,157.67L201.41,161.41L202.86,162.69L204.32,172.4L205.78,167.72L207.24,170.94L208.7,181.56L210.16,181.78L211.62,185.11L213.08,184.85L214.54,178.85L216,178.59L217.46,171.34L218.92,172.28L220.38,171.58L221.84,173.97L223.3,176.85L224.76,176.45L226.22,164.14L227.68,181.38L229.14,175.73L230.59,180.59L232.05,177.24L233.51,179.07L234.97,213.7L236.43,211.67L237.89,172.21L239.35,173.86L240.81,174.36L242.27,179.99L243.73,186L245.19,175.85L246.65,175.74L248.11,178.36L249.57,169.25L251.03,172.15L252.49,176.05L253.95,167.44L255.41,162.7L256.86,172.68L258.32,174.39L259.78,169.6L261.24,172.19L262.7,169.17L268.54,168.1L270,157.59L271.46,144.69L272.92,144.31L275.84,130.3L277.3,142.38L278.76,135.23L280.22,135.21L281.68,124.65L283.14,129.45L284.59,128.38L286.05,132.85L287.51,137.55L288.97,157.72L290.43,162.29L291.89,161.84L294.81,161.17L296.27,156.52L297.73,141.34L299.19,157.53L300.65,152.8L302.11,153.35L305.03,152.79L306.49,147.37L307.95,155.64L309.41,82.65L310.86,81.02L312.32,81.13L313.78,78.69L315.24,77.82L316.7,75.79L318.16,78.72L321.08,94.17L322.54,92.01L324,94.27L325.46,90.21L326.92,89.16L328.38,81.91L329.84,68.69L331.3,76.75L332.76,76.23L334.22,76.55L335.68,77.98L337.14,77.75L338.59,56.93L340.05,60.28L341.51,59.98L342.97,62.34L344.43,53.88L345.89,59.82L347.35,58.55L348.81,60.6L351.73,107.89L353.19,96.5L354.65,127.91L356.11,119.29L357.57,133.39L359.03,136.94L360.49,159.18L361.95,147.54L363.41,149.19L364.86,146.47L366.32,145.77L367.78,147.16L369.24,148.57L370.7,152.66L372.16,151.46L373.62,152.72L375.08,155.07L376.54,161.62L378,165.85L379.46,159.82L380.92,163.12L382.38,158.75L383.84,156.71L385.3,157.08L386.76,153.24L388.22,155.29L389.68,152.95L391.14,132.34L392.59,131.44L394.05,145.04L395.51,176.41L396.97,176.6L398.43,169.77L399.89,180.05L401.35,185.48L402.81,184.2L405.73,182.07L407.19,183.52L410.11,182.74L411.57,181.73L414.49,183.49L415.95,190.23L417.41,195L418.86,191.1L420.32,192.95L421.78,191.58L424.7,191.15L426.16,191.97L427.62,189.07L429.08,189.66L432,191.83L433.46,190.76L434.92,190.22L436.38,191.38L437.84,193.39L439.3,190.13L440.76,192.08L442.22,188.69L445.14,187.1L446.59,182.66L448.05,187.35L449.51,189.05L450.97,188.36L452.43,190.34L453.89,190.21L455.35,189.14L456.81,193.29L458.27,193.07L459.73,193.77L461.19,192.42L462.65,196.61L464.11,194.7L467.03,195.03L468.49,190.66L469.95,197.32L471.41,197.1L472.86,280.55L474.32,279.64L477.24,277.33L478.7,273.69L480.16,276.04L481.62,275.37L483.08,274.7L484.54,275.13L486,275.03L487.46,274.16L488.92,273.89L490.38,275.02L491.84,281.94L493.3,282.44L499.14,282.29L500.59,282.34L502.05,281.92L503.51,276.68L509.35,277.45L510.81,278.49L512.27,275.47L513.73,242.95L515.19,244.74L516.65,243.47L518.11,245.19L519.57,245.46L521.03,249.7L522.49,244.89L523.95,243.34L525.41,243.82L526.86,244.34L528.32,243.81L529.78,245.65L531.24,245.94L532.7,246.35L534.16,290.52L535.62,292.78L537.08,290.42L538.54,285.1L540,284.37" style="vector-effect: none; fill: none; stroke: rgb(99, 110, 250); stroke-opacity: 1; stroke-width: 2px; opacity: 1;"/></g><g class="points"/><g class="text"/></g></g></g><g class="overplot"/><path class="xlines-above crisp" d="M0,0" style="fill: none;"/><path class="ylines-above crisp" d="M0,0" style="fill: none;"/><g class="overlines-above"/><g class="xaxislayer-above"><g class="xtick"><text text-anchor="middle" x="0" y="433" transform="translate(126.7,0)" style="font-family: 'Open Sans', verdana, arial, sans-serif; font-size: 12px; fill: rgb(42, 63, 95); fill-opacity: 1; white-space: pre; opacity: 1;">Jan 2023</text></g><g class="xtick"><text text-anchor="middle" x="0" y="433" style="font-family: 'Open Sans', verdana, arial, sans-serif; font-size: 12px; fill: rgb(42, 63, 95); fill-opacity: 1; white-space: pre; opacity: 1;" transform="translate(212.81,0)">Mar 2023</text></g><g class="xtick"><text text-anchor="middle" x="0" y="433" style="font-family: 'Open Sans', verdana, arial, sans-serif; font-size: 12px; fill: rgb(42, 63, 95); fill-opacity: 1; white-space: pre; opacity: 1;" transform="translate(301.84000000000003,0)">May 2023</text></g><g class="xtick"><text text-anchor="middle" x="0" y="433" style="font-family: 'Open Sans', verdana, arial, sans-serif; font-size: 12px; fill: rgb(42, 63, 95); fill-opacity: 1; white-space: pre; opacity: 1;" transform="translate(390.86,0)">Jul 2023</text></g><g class="xtick"><text text-anchor="middle" x="0" y="433" style="font-family: 'Open Sans', verdana, arial, sans-serif; font-size: 12px; fill: rgb(42, 63, 95); fill-opacity: 1; white-space: pre; opacity: 1;" transform="translate(481.35,0)">Sep 2023</text></g><g class="xtick"><text text-anchor="middle" x="0" y="433" style="font-family: 'Open Sans', verdana, arial, sans-serif; font-size: 12px; fill: rgb(42, 63, 95); fill-opacity: 1; white-space: pre; opacity: 1;" transform="translate(570.38,0)">Nov 2023</text></g></g><g class="yaxislayer-above"><g class="ytick"><text text-anchor="end" x="79" y="4.199999999999999" transform="translate(0,386.53)" style="font-family: 'Open Sans', verdana, arial, sans-serif; font-size: 12px; fill: rgb(42, 63, 95); fill-opacity: 1; white-space: pre; opacity: 1;">$0</text></g><g class="ytick"><text text-anchor="end" x="79" y="4.199999999999999" style="font-family: 'Open Sans', verdana, arial, sans-serif; font-size: 12px; fill: rgb(42, 63, 95); fill-opacity: 1; white-space: pre; opacity: 1;" transform="translate(0,339.7)">$2M</text></g><g class="ytick"><text text-anchor="end" x="79" y="4.199999999999999" style="font-family: 'Open Sans', verdana, arial, sans-serif; font-size: 12px; fill: rgb(42, 63, 95); fill-opacity: 1; white-space: pre; opacity: 1;" transform="translate(0,292.87)">$4M</text></g><g class="ytick"><text text-anchor="end" x="79" y="4.199999999999999" style="font-family: 'Open Sans', verdana, arial, sans-serif; font-size: 12px; fill: rgb(42, 63, 95); fill-opacity: 1; white-space: pre; opacity: 1;" transform="translate(0,246.04)">$6M</text></g><g class="ytick"><text text-anchor="end" x="79" y="4.199999999999999" style="font-family: 'Open Sans', verdana, arial, sans-serif; font-size: 12px; fill: rgb(42, 63, 95); fill-opacity: 1; white-space: pre; opacity: 1;" transform="translate(0,199.20999999999998)">$8M</text></g><g class="ytick"><text text-anchor="end" x="79" y="4.199999999999999" style="font-family: 'Open Sans', verdana, arial, sans-serif; font-size: 12px; fill: rgb(42, 63, 95); fill-opacity: 1; white-space: pre; opacity: 1;" transform="translate(0,152.38)">$10M</text></g><g class="ytick"><text text-anchor="end" x="79" y="4.199999999999999" style="font-family: 'Open Sans', verdana, arial, sans-serif; font-size: 12px; fill: rgb(42, 63, 95); fill-opacity: 1; white-space: pre; opacity: 1;" transform="translate(0,105.55)">$12M</text></g></g><g class="overaxes-above"/></g></g><g class="polarlayer"/><g class="smithlayer"/><g class="ternarylayer"/><g class="geolayer"/><g class="funnelarealayer"/><g class="pielayer"/><g class="iciclelayer"/><g class="treemaplayer"/><g class="sunburstlayer"/><g class="glimages"/><defs id="topdefs-c47e18"><g class="clips"/></defs><g class="layer-above"><g class="imagelayer"/><g class="shapelayer"/></g><g class="infolayer"><g class="g-gtitle"><text class="gtitle" x="35" y="50" text-anchor="start" dy="0em" style="font-family: 'Open Sans', verdana, arial, sans-serif; font-size: 17px; fill: rgb(42, 63, 95); opacity: 1; font-weight: normal; white-space: pre;"><tspan class="line" dy="0em" x="35" y="50">Dforce</tspan><tspan class="line" dy="1.3em" x="35" y="50">​<tspan style="font-size:70%" dy="-0.6em">Cumulative Net Flows since Program Announcement, Until Program End + 30 Days - At Last Price</tspan><tspan dy="0.42em">​</tspan></tspan></text></g><g class="g-xtitle"><text class="xtitle" x="350" y="460.3" text-anchor="middle" style="font-family: 'Open Sans', verdana, arial, sans-serif; font-size: 14px; fill: rgb(42, 63, 95); opacity: 1; font-weight: normal; white-space: pre;">Day</text></g><g class="g-ytitle"><text class="ytitle" transform="rotate(-90,24.668750000000003,260)" x="24.668750000000003" y="260" text-anchor="middle" style="font-family: 'Open Sans', verdana, arial, sans-serif; font-size: 14px; fill: rgb(42, 63, 95); opacity: 1; font-weight: normal; white-space: pre;">Cumulative Net Flows (USD)</text></g></g></svg>