<svg class="main-svg" xmlns="http://www.w3.org/2000/svg" xmlns:xlink="http://www.w3.org/1999/xlink" width="700" height="500" style="" viewBox="0 0 700 500"><rect x="0" y="0" width="700" height="500" style="fill: rgb(255, 255, 255); fill-opacity: 1;"/><defs id="defs-b73bbe"><g class="clips"><clipPath id="clipb73bbexyplot" class="plotclip"><rect width="540" height="320"/></clipPath><clipPath class="axesclip" id="clipb73bbex"><rect x="80" y="0" width="540" height="500"/></clipPath><clipPath class="axesclip" id="clipb73bbey"><rect x="0" y="100" width="700" height="320"/></clipPath><clipPath class="axesclip" id="clipb73bbexy"><rect x="80" y="100" width="540" height="320"/></clipPath></g><g class="gradients"/><g class="patterns"/></defs><g class="bglayer"><rect class="bg" x="80" y="100" width="540" height="320" style="fill: rgb(229, 236, 246); fill-opacity: 1; stroke-width: 0;"/></g><g class="layer-below"><g class="imagelayer"/><g class="shapelayer"/></g><g class="cartesianlayer"><g class="subplot xy"><g class="layer-subplot"><g class="shapelayer"/><g class="imagelayer"/></g><g class="minor-gridlayer"><g class="x"/><g class="y"/></g><g class="gridlayer"><g class="x"><path class="xgrid crisp" transform="translate(92,0)" d="M0,100v320" style="stroke: rgb(255, 255, 255); stroke-opacity: 1; stroke-width: 1px;"/><path class="xgrid crisp" transform="translate(196.57,0)" d="M0,100v320" style="stroke: rgb(255, 255, 255); stroke-opacity: 1; stroke-width: 1px;"/><path class="xgrid crisp" transform="translate(297.71000000000004,0)" d="M0,100v320" style="stroke: rgb(255, 255, 255); stroke-opacity: 1; stroke-width: 1px;"/><path class="xgrid crisp" transform="translate(402.29,0)" d="M0,100v320" style="stroke: rgb(255, 255, 255); stroke-opacity: 1; stroke-width: 1px;"/><path class="xgrid crisp" transform="translate(506.86,0)" d="M0,100v320" style="stroke: rgb(255, 255, 255); stroke-opacity: 1; stroke-width: 1px;"/><path class="xgrid crisp" transform="translate(613.14,0)" d="M0,100v320" style="stroke: rgb(255, 255, 255); stroke-opacity: 1; stroke-width: 1px;"/></g><g class="y"><path class="ygrid crisp" transform="translate(0,369.43)" d="M80,0h540" style="stroke: rgb(255, 255, 255); stroke-opacity: 1; stroke-width: 1px;"/><path class="ygrid crisp" transform="translate(0,318.85)" d="M80,0h540" style="stroke: rgb(255, 255, 255); stroke-opacity: 1; stroke-width: 1px;"/><path class="ygrid crisp" transform="translate(0,268.28)" d="M80,0h540" style="stroke: rgb(255, 255, 255); stroke-opacity: 1; stroke-width: 1px;"/><path class="ygrid crisp" transform="translate(0,217.7)" d="M80,0h540" style="stroke: rgb(255, 255, 255); stroke-opacity: 1; stroke-width: 1px;"/><path class="ygrid crisp" transform="translate(0,167.13)" d="M80,0h540" style="stroke: rgb(255, 255, 255); stroke-opacity: 1; stroke-width: 1px;"/><path class="ygrid crisp" transform="translate(0,116.55)" d="M80,0h540" style="stroke: rgb(255, 255, 255); stroke-opacity: 1; stroke-width: 1px;"/></g></g><g class="zerolinelayer"><path class="yzl zl crisp" transform="translate(0,420)" d="M80,0h540" style="stroke: rgb(255, 255, 255); stroke-opacity: 1; stroke-width: 2px;"/></g><path class="xlines-below"/><path class="ylines-below"/><g class="overlines-below"/><g class="xaxislayer-below"/><g class="yaxislayer-below"/><g class="overaxes-below"/><g class="plot" transform="translate(80,100)" clip-path="url(#clipb73bbexyplot)"><g class="scatterlayer mlayer"><g class="trace scatter traceeb9ff0" style="stroke-miterlimit: 2;"><g class="fills"><g><path class="js-fill" d="M540,320L0,320L0,320L1.71,320L3.43,287.2L5.14,239.76L6.86,246.69L8.57,248.65L10.29,239.23L12,241.34L13.71,233.99L15.43,231.3L17.14,248.46L22.29,246.66L24,248.57L27.43,269.99L29.14,269.72L30.86,264.54L32.57,263.74L34.29,241.57L36,241.87L37.71,240.54L39.43,244.8L42.86,254.23L44.57,252.01L46.29,250.76L48,251.38L49.71,251.31L51.43,250.35L53.14,250.15L54.86,247.29L56.57,240.92L58.29,230.12L60,236.51L61.71,238.57L63.43,255.07L65.14,245.16L68.57,232.72L70.29,247.13L72,247.87L73.71,261.77L75.43,251.87L77.14,251.58L78.86,252.13L80.57,258.59L84,258.09L85.71,257.9L87.43,258.03L89.14,254.18L90.86,248.13L92.57,247.74L96,248.37L97.71,246.57L101.14,246.78L102.86,245.5L104.57,245.79L106.29,245.27L108,242.92L109.71,242.71L111.43,245.48L113.14,244.5L114.86,246.25L116.57,246.09L118.29,245.49L120,243.62L121.71,241.21L123.43,242.26L128.57,242.07L130.29,240.77L132,241.76L133.71,243.82L137.14,235.47L138.86,234.74L140.57,233.13L142.29,227.94L144,251.15L145.71,247.47L147.43,250.38L149.14,265.99L150.86,269.01L152.57,266.71L156,261.93L157.71,260.55L159.43,251.64L161.14,253.48L164.57,251.58L166.29,236.74L168,244.61L169.71,240.97L171.43,231.4L173.14,238.12L174.86,237.79L176.57,234.15L178.29,234.35L180,220.77L181.71,234.61L183.43,236.06L185.14,235.46L186.86,229.73L188.57,228.91L190.29,229.47L192,211.32L193.71,213.28L197.14,219.42L198.86,213.69L200.57,218.05L202.29,217.77L204,220.2L205.71,213.41L207.43,207.48L209.14,190.08L210.86,184.75L212.57,189.41L214.29,189.18L216,179.79L217.71,179.35L219.43,190.57L221.14,181.02L222.86,183.95L224.57,186.43L226.29,177.78L229.71,189.93L231.43,183.43L233.14,170.13L234.86,185.99L236.57,158.78L238.29,174.85L241.71,233.1L243.43,290.86L245.14,277.78L246.86,272.95L248.57,274.1L250.29,273.59L253.71,251.27L255.43,169.29L257.14,179.57L258.86,184.36L262.29,152.15L264,177.75L265.71,177.29L267.43,189.12L270.86,187.54L272.57,178.63L274.29,178.17L276,175.48L277.71,178.92L279.43,185.12L281.14,187.77L282.86,206.69L284.57,249.61L286.29,244.14L288,244L289.71,238.36L293.14,172.26L294.86,168.28L296.57,147.93L298.29,159.44L300,150.97L301.71,118.97L303.43,151.93L305.14,140.86L306.86,136.02L308.57,124.65L310.29,85.43L312,87.04L313.71,88.21L315.43,94.14L317.14,91.54L318.86,93.74L320.57,96.15L322.29,125.45L324,122.83L325.71,118.19L327.43,127.02L329.14,86.82L330.86,41.63L332.57,42.34L334.29,42.81L336,54.32L337.71,31.81L339.43,33.85L341.14,16L342.86,65.08L346.29,51.79L348,56.2L349.71,61.72L351.43,70.77L353.14,54.75L354.86,60.62L356.57,87.21L358.29,91.35L360,99.02L361.71,92.02L363.43,65.36L365.14,68.25L366.86,56.07L368.57,52.64L370.29,37.96L372,41.38L375.43,162.21L377.14,158.37L378.86,159.02L380.57,141.62L382.29,139.73L384,144.87L385.71,144.92L387.43,194.77L390.86,162.94L392.57,185.07L394.29,189L396,188.65L397.71,190.05L399.43,197.85L401.14,194.39L402.86,197.8L404.57,213.95L406.29,202.38L408,202.81L409.71,205.17L411.43,192.74L413.14,197.06L414.86,196.61L416.57,197.13L418.29,196.94L420,188.72L421.71,194.17L423.43,195.88L425.14,232.74L426.86,216.66L428.57,208.24L430.29,205.02L432,200.91L433.71,200.58L435.43,205.45L437.14,214.65L438.86,222.8L440.57,222.9L442.29,222.94L444,220.76L447.43,214.08L449.14,216.21L452.57,196.39L454.29,205.69L457.71,228.55L459.43,216.76L462.86,194.98L464.57,189.47L466.29,188.5L468,177.83L469.71,177.96L471.43,174.16L474.86,180.09L476.57,186.19L478.29,176.82L480,189.94L483.43,195.78L485.14,193.46L486.86,194.23L488.57,207.01L490.29,209.12L492,190.83L493.71,191.47L495.43,197.49L497.14,202.83L498.86,194.97L500.57,194.84L502.29,198.09L504,187.73L505.71,182.51L507.43,184.11L509.14,174.18L510.86,176.81L512.57,177.56L514.29,186L516,188.55L517.71,189.99L519.43,208.91L521.14,210.64L522.86,195.02L524.57,196.38L526.29,193.03L528,180.97L529.71,180.26L531.43,175.74L533.14,180.4L534.86,184.92L536.57,175.42L538.29,175.27L540,178.11" style="fill: rgb(99, 110, 250); fill-opacity: 0.5; stroke-width: 0;"/></g></g><g class="errorbars"/><g class="lines"><path class="js-line" d="M0,320L1.71,320L3.43,287.2L5.14,239.76L6.86,246.69L8.57,248.65L10.29,239.23L12,241.34L13.71,233.99L15.43,231.3L17.14,248.46L22.29,246.66L24,248.57L27.43,269.99L29.14,269.72L30.86,264.54L32.57,263.74L34.29,241.57L36,241.87L37.71,240.54L39.43,244.8L42.86,254.23L44.57,252.01L46.29,250.76L48,251.38L49.71,251.31L51.43,250.35L53.14,250.15L54.86,247.29L56.57,240.92L58.29,230.12L60,236.51L61.71,238.57L63.43,255.07L65.14,245.16L68.57,232.72L70.29,247.13L72,247.87L73.71,261.77L75.43,251.87L77.14,251.58L78.86,252.13L80.57,258.59L84,258.09L85.71,257.9L87.43,258.03L89.14,254.18L90.86,248.13L92.57,247.74L96,248.37L97.71,246.57L101.14,246.78L102.86,245.5L104.57,245.79L106.29,245.27L108,242.92L109.71,242.71L111.43,245.48L113.14,244.5L114.86,246.25L116.57,246.09L118.29,245.49L120,243.62L121.71,241.21L123.43,242.26L128.57,242.07L130.29,240.77L132,241.76L133.71,243.82L137.14,235.47L138.86,234.74L140.57,233.13L142.29,227.94L144,251.15L145.71,247.47L147.43,250.38L149.14,265.99L150.86,269.01L152.57,266.71L156,261.93L157.71,260.55L159.43,251.64L161.14,253.48L164.57,251.58L166.29,236.74L168,244.61L169.71,240.97L171.43,231.4L173.14,238.12L174.86,237.79L176.57,234.15L178.29,234.35L180,220.77L181.71,234.61L183.43,236.06L185.14,235.46L186.86,229.73L188.57,228.91L190.29,229.47L192,211.32L193.71,213.28L197.14,219.42L198.86,213.69L200.57,218.05L202.29,217.77L204,220.2L205.71,213.41L207.43,207.48L209.14,190.08L210.86,184.75L212.57,189.41L214.29,189.18L216,179.79L217.71,179.35L219.43,190.57L221.14,181.02L222.86,183.95L224.57,186.43L226.29,177.78L229.71,189.93L231.43,183.43L233.14,170.13L234.86,185.99L236.57,158.78L238.29,174.85L241.71,233.1L243.43,290.86L245.14,277.78L246.86,272.95L248.57,274.1L250.29,273.59L253.71,251.27L255.43,169.29L257.14,179.57L258.86,184.36L262.29,152.15L264,177.75L265.71,177.29L267.43,189.12L270.86,187.54L272.57,178.63L274.29,178.17L276,175.48L277.71,178.92L279.43,185.12L281.14,187.77L282.86,206.69L284.57,249.61L286.29,244.14L288,244L289.71,238.36L293.14,172.26L294.86,168.28L296.57,147.93L298.29,159.44L300,150.97L301.71,118.97L303.43,151.93L305.14,140.86L306.86,136.02L308.57,124.65L310.29,85.43L312,87.04L313.71,88.21L315.43,94.14L317.14,91.54L318.86,93.74L320.57,96.15L322.29,125.45L324,122.83L325.71,118.19L327.43,127.02L329.14,86.82L330.86,41.63L332.57,42.34L334.29,42.81L336,54.32L337.71,31.81L339.43,33.85L341.14,16L342.86,65.08L346.29,51.79L348,56.2L349.71,61.72L351.43,70.77L353.14,54.75L354.86,60.62L356.57,87.21L358.29,91.35L360,99.02L361.71,92.02L363.43,65.36L365.14,68.25L366.86,56.07L368.57,52.64L370.29,37.96L372,41.38L375.43,162.21L377.14,158.37L378.86,159.02L380.57,141.62L382.29,139.73L384,144.87L385.71,144.92L387.43,194.77L390.86,162.94L392.57,185.07L394.29,189L396,188.65L397.71,190.05L399.43,197.85L401.14,194.39L402.86,197.8L404.57,213.95L406.29,202.38L408,202.81L409.71,205.17L411.43,192.74L413.14,197.06L414.86,196.61L416.57,197.13L418.29,196.94L420,188.72L421.71,194.17L423.43,195.88L425.14,232.74L426.86,216.66L428.57,208.24L430.29,205.02L432,200.91L433.71,200.58L435.43,205.45L437.14,214.65L438.86,222.8L440.57,222.9L442.29,222.94L444,220.76L447.43,214.08L449.14,216.21L452.57,196.39L454.29,205.69L457.71,228.55L459.43,216.76L462.86,194.98L464.57,189.47L466.29,188.5L468,177.83L469.71,177.96L471.43,174.16L474.86,180.09L476.57,186.19L478.29,176.82L480,189.94L483.43,195.78L485.14,193.46L486.86,194.23L488.57,207.01L490.29,209.12L492,190.83L493.71,191.47L495.43,197.49L497.14,202.83L498.86,194.97L500.57,194.84L502.29,198.09L504,187.73L505.71,182.51L507.43,184.11L509.14,174.18L510.86,176.81L512.57,177.56L514.29,186L516,188.55L517.71,189.99L519.43,208.91L521.14,210.64L522.86,195.02L524.57,196.38L526.29,193.03L528,180.97L529.71,180.26L531.43,175.74L533.14,180.4L534.86,184.92L536.57,175.42L538.29,175.27L540,178.11" style="vector-effect: none; fill: none; stroke: rgb(99, 110, 250); stroke-opacity: 1; stroke-width: 2px; opacity: 1;"/></g><g class="points"/><g class="text"/></g></g></g><g class="overplot"/><path class="xlines-above crisp" d="M0,0" style="fill: none;"/><path class="ylines-above crisp" d="M0,0" style="fill: none;"/><g class="overlines-above"/><g class="xaxislayer-above"><g class="xtick"><text text-anchor="middle" x="0" y="433" transform="translate(92,0)" style="font-family: 'Open Sans', verdana, arial, sans-serif; font-size: 12px; fill: rgb(42, 63, 95); fill-opacity: 1; white-space: pre; opacity: 1;">Nov 2022</text></g><g class="xtick"><text text-anchor="middle" x="0" y="433" style="font-family: 'Open Sans', verdana, arial, sans-serif; font-size: 12px; fill: rgb(42, 63, 95); fill-opacity: 1; white-space: pre; opacity: 1;" transform="translate(196.57,0)">Jan 2023</text></g><g class="xtick"><text text-anchor="middle" x="0" y="433" style="font-family: 'Open Sans', verdana, arial, sans-serif; font-size: 12px; fill: rgb(42, 63, 95); fill-opacity: 1; white-space: pre; opacity: 1;" transform="translate(297.71000000000004,0)">Mar 2023</text></g><g class="xtick"><text text-anchor="middle" x="0" y="433" style="font-family: 'Open Sans', verdana, arial, sans-serif; font-size: 12px; fill: rgb(42, 63, 95); fill-opacity: 1; white-space: pre; opacity: 1;" transform="translate(402.29,0)">May 2023</text></g><g class="xtick"><text text-anchor="middle" x="0" y="433" style="font-family: 'Open Sans', verdana, arial, sans-serif; font-size: 12px; fill: rgb(42, 63, 95); fill-opacity: 1; white-space: pre; opacity: 1;" transform="translate(506.86,0)">Jul 2023</text></g><g class="xtick"><text text-anchor="middle" x="0" y="433" style="font-family: 'Open Sans', verdana, arial, sans-serif; font-size: 12px; fill: rgb(42, 63, 95); fill-opacity: 1; white-space: pre; opacity: 1;" transform="translate(613.14,0)">Sep 2023</text></g></g><g class="yaxislayer-above"><g class="ytick"><text text-anchor="end" x="79" y="4.199999999999999" transform="translate(0,420)" style="font-family: 'Open Sans', verdana, arial, sans-serif; font-size: 12px; fill: rgb(42, 63, 95); fill-opacity: 1; white-space: pre; opacity: 1;">$0</text></g><g class="ytick"><text text-anchor="end" x="79" y="4.199999999999999" style="font-family: 'Open Sans', verdana, arial, sans-serif; font-size: 12px; fill: rgb(42, 63, 95); fill-opacity: 1; white-space: pre; opacity: 1;" transform="translate(0,369.43)">$0.5M</text></g><g class="ytick"><text text-anchor="end" x="79" y="4.199999999999999" style="font-family: 'Open Sans', verdana, arial, sans-serif; font-size: 12px; fill: rgb(42, 63, 95); fill-opacity: 1; white-space: pre; opacity: 1;" transform="translate(0,318.85)">$1M</text></g><g class="ytick"><text text-anchor="end" x="79" y="4.199999999999999" style="font-family: 'Open Sans', verdana, arial, sans-serif; font-size: 12px; fill: rgb(42, 63, 95); fill-opacity: 1; white-space: pre; opacity: 1;" transform="translate(0,268.28)">$1.5M</text></g><g class="ytick"><text text-anchor="end" x="79" y="4.199999999999999" style="font-family: 'Open Sans', verdana, arial, sans-serif; font-size: 12px; fill: rgb(42, 63, 95); fill-opacity: 1; white-space: pre; opacity: 1;" transform="translate(0,217.7)">$2M</text></g><g class="ytick"><text text-anchor="end" x="79" y="4.199999999999999" style="font-family: 'Open Sans', verdana, arial, sans-serif; font-size: 12px; fill: rgb(42, 63, 95); fill-opacity: 1; white-space: pre; opacity: 1;" transform="translate(0,167.13)">$2.5M</text></g><g class="ytick"><text text-anchor="end" x="79" y="4.199999999999999" style="font-family: 'Open Sans', verdana, arial, sans-serif; font-size: 12px; fill: rgb(42, 63, 95); fill-opacity: 1; white-space: pre; opacity: 1;" transform="translate(0,116.55)">$3M</text></g></g><g class="overaxes-above"/></g></g><g class="polarlayer"/><g class="smithlayer"/><g class="ternarylayer"/><g class="geolayer"/><g class="funnelarealayer"/><g class="pielayer"/><g class="iciclelayer"/><g class="treemaplayer"/><g class="sunburstlayer"/><g class="glimages"/><defs id="topdefs-b73bbe"><g class="clips"/></defs><g class="layer-above"><g class="imagelayer"/><g class="shapelayer"/></g><g class="infolayer"><g class="g-gtitle"><text class="gtitle" x="35" y="50" text-anchor="start" dy="0em" style="font-family: 'Open Sans', verdana, arial, sans-serif; font-size: 17px; fill: rgb(42, 63, 95); opacity: 1; font-weight: normal; white-space: pre;"><tspan class="line" dy="0em" x="35" y="50">Synthetix - All Synthetix Hop Pools</tspan><tspan class="line" dy="1.3em" x="35" y="50">​<tspan style="font-size:70%" dy="-0.6em">Cumulative Net Flows since Program Announcement, Until Program End + 30 Days - At Last Price</tspan><tspan dy="0.42em">​</tspan></tspan></text></g><g class="g-xtitle"><text class="xtitle" x="350" y="460.3" text-anchor="middle" style="font-family: 'Open Sans', verdana, arial, sans-serif; font-size: 14px; fill: rgb(42, 63, 95); opacity: 1; font-weight: normal; white-space: pre;">Day</text></g><g class="g-ytitle"><text class="ytitle" transform="rotate(-90,21.340625000000003,260)" x="21.340625000000003" y="260" text-anchor="middle" style="font-family: 'Open Sans', verdana, arial, sans-serif; font-size: 14px; fill: rgb(42, 63, 95); opacity: 1; font-weight: normal; white-space: pre;">Cumulative Net Flows (USD)</text></g></g></svg>