<svg class="main-svg" xmlns="http://www.w3.org/2000/svg" xmlns:xlink="http://www.w3.org/1999/xlink" width="700" height="500" style="" viewBox="0 0 700 500"><rect x="0" y="0" width="700" height="500" style="fill: rgb(255, 255, 255); fill-opacity: 1;"/><defs id="defs-fcc202"><g class="clips"><clipPath id="clipfcc202xyplot" class="plotclip"><rect width="540" height="320"/></clipPath><clipPath class="axesclip" id="clipfcc202x"><rect x="80" y="0" width="540" height="500"/></clipPath><clipPath class="axesclip" id="clipfcc202y"><rect x="0" y="100" width="700" height="320"/></clipPath><clipPath class="axesclip" id="clipfcc202xy"><rect x="80" y="100" width="540" height="320"/></clipPath></g><g class="gradients"/><g class="patterns"/></defs><g class="bglayer"><rect class="bg" x="80" y="100" width="540" height="320" style="fill: rgb(229, 236, 246); fill-opacity: 1; stroke-width: 0;"/></g><g class="layer-below"><g class="imagelayer"/><g class="shapelayer"/></g><g class="cartesianlayer"><g class="subplot xy"><g class="layer-subplot"><g class="shapelayer"/><g class="imagelayer"/></g><g class="minor-gridlayer"><g class="x"/><g class="y"/></g><g class="gridlayer"><g class="x"><path class="xgrid crisp" transform="translate(94.66,0)" d="M0,100v320" style="stroke: rgb(255, 255, 255); stroke-opacity: 1; stroke-width: 1px;"/><path class="xgrid crisp" transform="translate(167.95999999999998,0)" d="M0,100v320" style="stroke: rgb(255, 255, 255); stroke-opacity: 1; stroke-width: 1px;"/><path class="xgrid crisp" transform="translate(243.71,0)" d="M0,100v320" style="stroke: rgb(255, 255, 255); stroke-opacity: 1; stroke-width: 1px;"/><path class="xgrid crisp" transform="translate(317.01,0)" d="M0,100v320" style="stroke: rgb(255, 255, 255); stroke-opacity: 1; stroke-width: 1px;"/><path class="xgrid crisp" transform="translate(392.76,0)" d="M0,100v320" style="stroke: rgb(255, 255, 255); stroke-opacity: 1; stroke-width: 1px;"/><path class="xgrid crisp" transform="translate(468.51,0)" d="M0,100v320" style="stroke: rgb(255, 255, 255); stroke-opacity: 1; stroke-width: 1px;"/><path class="xgrid crisp" transform="translate(536.9200000000001,0)" d="M0,100v320" style="stroke: rgb(255, 255, 255); stroke-opacity: 1; stroke-width: 1px;"/><path class="xgrid crisp" transform="translate(612.67,0)" d="M0,100v320" style="stroke: rgb(255, 255, 255); stroke-opacity: 1; stroke-width: 1px;"/></g><g class="y"><path class="ygrid crisp" transform="translate(0,380.87)" d="M80,0h540" style="stroke: rgb(255, 255, 255); stroke-opacity: 1; stroke-width: 1px;"/><path class="ygrid crisp" transform="translate(0,341.73)" d="M80,0h540" style="stroke: rgb(255, 255, 255); stroke-opacity: 1; stroke-width: 1px;"/><path class="ygrid crisp" transform="translate(0,302.6)" d="M80,0h540" style="stroke: rgb(255, 255, 255); stroke-opacity: 1; stroke-width: 1px;"/><path class="ygrid crisp" transform="translate(0,263.46000000000004)" d="M80,0h540" style="stroke: rgb(255, 255, 255); stroke-opacity: 1; stroke-width: 1px;"/><path class="ygrid crisp" transform="translate(0,224.32999999999998)" d="M80,0h540" style="stroke: rgb(255, 255, 255); stroke-opacity: 1; stroke-width: 1px;"/><path class="ygrid crisp" transform="translate(0,185.19)" d="M80,0h540" style="stroke: rgb(255, 255, 255); stroke-opacity: 1; stroke-width: 1px;"/><path class="ygrid crisp" transform="translate(0,146.06)" d="M80,0h540" style="stroke: rgb(255, 255, 255); stroke-opacity: 1; stroke-width: 1px;"/><path class="ygrid crisp" transform="translate(0,106.93)" d="M80,0h540" style="stroke: rgb(255, 255, 255); stroke-opacity: 1; stroke-width: 1px;"/></g></g><g class="zerolinelayer"><path class="yzl zl crisp" transform="translate(0,420)" d="M80,0h540" style="stroke: rgb(255, 255, 255); stroke-opacity: 1; stroke-width: 2px;"/></g><path class="xlines-below"/><path class="ylines-below"/><g class="overlines-below"/><g class="xaxislayer-below"/><g class="yaxislayer-below"/><g class="overaxes-below"/><g class="plot" transform="translate(80,100)" clip-path="url(#clipfcc202xyplot)"><g class="scatterlayer mlayer"><g class="trace scatter trace1e60a3" style="stroke-miterlimit: 2;"><g class="fills"><g><path class="js-fill" d="M540,320L0,320L0,261.31L12.22,261.23L14.66,256.82L17.1,261.25L19.55,261.25L29.32,261.21L31.76,260.43L34.21,168.04L36.65,106.12L39.1,106.92L41.54,106.92L43.98,140.91L46.43,140.91L53.76,140.9L56.2,135.87L58.64,133.17L61.09,139.34L63.53,139.26L65.97,203.01L68.42,220.77L70.86,220.99L73.3,217.88L75.75,217.65L78.19,255.36L80.63,255.38L83.08,233.6L85.52,223.71L87.96,223.78L90.41,233.66L92.85,233.54L95.29,201.66L97.74,202.85L100.18,202.81L112.4,203.18L114.84,203.62L139.28,203.44L141.72,203.48L144.16,203.45L146.61,227.03L149.05,218.66L151.49,218.7L161.27,218.24L163.71,218.35L195.48,218.38L197.92,233.13L210.14,233.17L212.58,213.48L215.02,285.96L217.47,269.42L219.91,266.36L222.35,266.36L224.8,252.31L227.24,252.31L229.68,241.2L232.13,241.08L234.57,241.17L237.01,259.13L239.46,259.35L241.9,256.09L244.34,255.77L246.79,249.88L259,249.5L261.45,249.37L263.89,249.37L266.33,223.01L268.78,246.64L271.22,246.61L276.11,247.14L278.55,246.95L285.88,246.82L288.33,246.88L298.1,246.73L300.54,245.28L305.43,244.83L307.87,244.88L310.32,245.2L312.76,246.75L332.31,246.44L334.75,229.55L337.19,229.55L339.64,255.05L342.08,254.97L344.52,251.46L346.97,249.37L349.41,249.08L359.19,248.57L361.63,229.6L364.07,229.6L366.52,236.16L368.96,232.9L371.4,231.87L373.85,231.02L376.29,232.89L378.73,229.59L381.18,228.92L383.62,229.85L386.06,229.7L388.51,229.69L390.95,217.92L400.72,217.61L403.17,201.96L405.61,185.06L408.05,196.45L410.5,180.81L412.94,177.6L417.83,177.6L420.27,181.65L425.16,177.72L427.6,175.88L430.05,162.6L432.49,162.58L434.93,150.1L437.38,150.1L442.26,106.64L444.71,77.92L447.15,78.6L449.59,33.75L452.04,33.95L454.48,32.91L456.92,31.66L459.37,16L461.81,25.52L464.25,56.74L466.7,61.43L469.14,59.82L471.58,55.91L474.03,66.93L476.47,75.54L478.91,124.8L481.36,254.19L483.8,211.17L486.24,189.89L488.69,111.53L491.13,72.28L493.57,110.74L496.02,64.98L498.46,66.56L500.9,31.01L503.35,31.01L505.79,23.02L508.24,61.32L510.68,69.97L513.12,69.97L515.57,109.06L518.01,109.06L520.45,61.55L522.9,54.28L525.34,108.84L527.78,74.8L537.56,74.56L540,74.6" style="fill: rgb(99, 110, 250); fill-opacity: 0.5; stroke-width: 0;"/></g></g><g class="errorbars"/><g class="lines"><path class="js-line" d="M0,261.31L12.22,261.23L14.66,256.82L17.1,261.25L19.55,261.25L29.32,261.21L31.76,260.43L34.21,168.04L36.65,106.12L39.1,106.92L41.54,106.92L43.98,140.91L46.43,140.91L53.76,140.9L56.2,135.87L58.64,133.17L61.09,139.34L63.53,139.26L65.97,203.01L68.42,220.77L70.86,220.99L73.3,217.88L75.75,217.65L78.19,255.36L80.63,255.38L83.08,233.6L85.52,223.71L87.96,223.78L90.41,233.66L92.85,233.54L95.29,201.66L97.74,202.85L100.18,202.81L112.4,203.18L114.84,203.62L139.28,203.44L141.72,203.48L144.16,203.45L146.61,227.03L149.05,218.66L151.49,218.7L161.27,218.24L163.71,218.35L195.48,218.38L197.92,233.13L210.14,233.17L212.58,213.48L215.02,285.96L217.47,269.42L219.91,266.36L222.35,266.36L224.8,252.31L227.24,252.31L229.68,241.2L232.13,241.08L234.57,241.17L237.01,259.13L239.46,259.35L241.9,256.09L244.34,255.77L246.79,249.88L259,249.5L261.45,249.37L263.89,249.37L266.33,223.01L268.78,246.64L271.22,246.61L276.11,247.14L278.55,246.95L285.88,246.82L288.33,246.88L298.1,246.73L300.54,245.28L305.43,244.83L307.87,244.88L310.32,245.2L312.76,246.75L332.31,246.44L334.75,229.55L337.19,229.55L339.64,255.05L342.08,254.97L344.52,251.46L346.97,249.37L349.41,249.08L359.19,248.57L361.63,229.6L364.07,229.6L366.52,236.16L368.96,232.9L371.4,231.87L373.85,231.02L376.29,232.89L378.73,229.59L381.18,228.92L383.62,229.85L386.06,229.7L388.51,229.69L390.95,217.92L400.72,217.61L403.17,201.96L405.61,185.06L408.05,196.45L410.5,180.81L412.94,177.6L417.83,177.6L420.27,181.65L425.16,177.72L427.6,175.88L430.05,162.6L432.49,162.58L434.93,150.1L437.38,150.1L442.26,106.64L444.71,77.92L447.15,78.6L449.59,33.75L452.04,33.95L454.48,32.91L456.92,31.66L459.37,16L461.81,25.52L464.25,56.74L466.7,61.43L469.14,59.82L471.58,55.91L474.03,66.93L476.47,75.54L478.91,124.8L481.36,254.19L483.8,211.17L486.24,189.89L488.69,111.53L491.13,72.28L493.57,110.74L496.02,64.98L498.46,66.56L500.9,31.01L503.35,31.01L505.79,23.02L508.24,61.32L510.68,69.97L513.12,69.97L515.57,109.06L518.01,109.06L520.45,61.55L522.9,54.28L525.34,108.84L527.78,74.8L537.56,74.56L540,74.6" style="vector-effect: none; fill: none; stroke: rgb(99, 110, 250); stroke-opacity: 1; stroke-width: 2px; opacity: 1;"/></g><g class="points"/><g class="text"/></g></g></g><g class="overplot"/><path class="xlines-above crisp" d="M0,0" style="fill: none;"/><path class="ylines-above crisp" d="M0,0" style="fill: none;"/><g class="overlines-above"/><g class="xaxislayer-above"><g class="xtick"><text text-anchor="middle" x="0" y="433" transform="translate(94.66,0)" style="font-family: 'Open Sans', verdana, arial, sans-serif; font-size: 12px; fill: rgb(42, 63, 95); fill-opacity: 1; white-space: pre; opacity: 1;">Sep 2022</text></g><g class="xtick"><text text-anchor="middle" x="0" y="433" style="font-family: 'Open Sans', verdana, arial, sans-serif; font-size: 12px; fill: rgb(42, 63, 95); fill-opacity: 1; white-space: pre; opacity: 1;" transform="translate(167.95999999999998,0)">Oct 2022</text></g><g class="xtick"><text text-anchor="middle" x="0" y="433" style="font-family: 'Open Sans', verdana, arial, sans-serif; font-size: 12px; fill: rgb(42, 63, 95); fill-opacity: 1; white-space: pre; opacity: 1;" transform="translate(243.71,0)">Nov 2022</text></g><g class="xtick"><text text-anchor="middle" x="0" y="433" style="font-family: 'Open Sans', verdana, arial, sans-serif; font-size: 12px; fill: rgb(42, 63, 95); fill-opacity: 1; white-space: pre; opacity: 1;" transform="translate(317.01,0)">Dec 2022</text></g><g class="xtick"><text text-anchor="middle" x="0" y="433" style="font-family: 'Open Sans', verdana, arial, sans-serif; font-size: 12px; fill: rgb(42, 63, 95); fill-opacity: 1; white-space: pre; opacity: 1;" transform="translate(392.76,0)">Jan 2023</text></g><g class="xtick"><text text-anchor="middle" x="0" y="433" style="font-family: 'Open Sans', verdana, arial, sans-serif; font-size: 12px; fill: rgb(42, 63, 95); fill-opacity: 1; white-space: pre; opacity: 1;" transform="translate(468.51,0)">Feb 2023</text></g><g class="xtick"><text text-anchor="middle" x="0" y="433" style="font-family: 'Open Sans', verdana, arial, sans-serif; font-size: 12px; fill: rgb(42, 63, 95); fill-opacity: 1; white-space: pre; opacity: 1;" transform="translate(536.9200000000001,0)">Mar 2023</text></g><g class="xtick"><text text-anchor="middle" x="0" y="433" style="font-family: 'Open Sans', verdana, arial, sans-serif; font-size: 12px; fill: rgb(42, 63, 95); fill-opacity: 1; white-space: pre; opacity: 1;" transform="translate(612.67,0)">Apr 2023</text></g></g><g class="yaxislayer-above"><g class="ytick"><text text-anchor="end" x="79" y="4.199999999999999" transform="translate(0,420)" style="font-family: 'Open Sans', verdana, arial, sans-serif; font-size: 12px; fill: rgb(42, 63, 95); fill-opacity: 1; white-space: pre; opacity: 1;">$0</text></g><g class="ytick"><text text-anchor="end" x="79" y="4.199999999999999" style="font-family: 'Open Sans', verdana, arial, sans-serif; font-size: 12px; fill: rgb(42, 63, 95); fill-opacity: 1; white-space: pre; opacity: 1;" transform="translate(0,380.87)">$50k</text></g><g class="ytick"><text text-anchor="end" x="79" y="4.199999999999999" style="font-family: 'Open Sans', verdana, arial, sans-serif; font-size: 12px; fill: rgb(42, 63, 95); fill-opacity: 1; white-space: pre; opacity: 1;" transform="translate(0,341.73)">$100k</text></g><g class="ytick"><text text-anchor="end" x="79" y="4.199999999999999" style="font-family: 'Open Sans', verdana, arial, sans-serif; font-size: 12px; fill: rgb(42, 63, 95); fill-opacity: 1; white-space: pre; opacity: 1;" transform="translate(0,302.6)">$150k</text></g><g class="ytick"><text text-anchor="end" x="79" y="4.199999999999999" style="font-family: 'Open Sans', verdana, arial, sans-serif; font-size: 12px; fill: rgb(42, 63, 95); fill-opacity: 1; white-space: pre; opacity: 1;" transform="translate(0,263.46000000000004)">$200k</text></g><g class="ytick"><text text-anchor="end" x="79" y="4.199999999999999" style="font-family: 'Open Sans', verdana, arial, sans-serif; font-size: 12px; fill: rgb(42, 63, 95); fill-opacity: 1; white-space: pre; opacity: 1;" transform="translate(0,224.32999999999998)">$250k</text></g><g class="ytick"><text text-anchor="end" x="79" y="4.199999999999999" style="font-family: 'Open Sans', verdana, arial, sans-serif; font-size: 12px; fill: rgb(42, 63, 95); fill-opacity: 1; white-space: pre; opacity: 1;" transform="translate(0,185.19)">$300k</text></g><g class="ytick"><text text-anchor="end" x="79" y="4.199999999999999" style="font-family: 'Open Sans', verdana, arial, sans-serif; font-size: 12px; fill: rgb(42, 63, 95); fill-opacity: 1; white-space: pre; opacity: 1;" transform="translate(0,146.06)">$350k</text></g><g class="ytick"><text text-anchor="end" x="79" y="4.199999999999999" style="font-family: 'Open Sans', verdana, arial, sans-serif; font-size: 12px; fill: rgb(42, 63, 95); fill-opacity: 1; white-space: pre; opacity: 1;" transform="translate(0,106.93)">$400k</text></g></g><g class="overaxes-above"/></g></g><g class="polarlayer"/><g class="smithlayer"/><g class="ternarylayer"/><g class="geolayer"/><g class="funnelarealayer"/><g class="pielayer"/><g class="iciclelayer"/><g class="treemaplayer"/><g class="sunburstlayer"/><g class="glimages"/><defs id="topdefs-fcc202"><g class="clips"/></defs><g class="layer-above"><g class="imagelayer"/><g class="shapelayer"/></g><g class="infolayer"><g class="g-gtitle"><text class="gtitle" x="35" y="50" text-anchor="start" dy="0em" style="font-family: 'Open Sans', verdana, arial, sans-serif; font-size: 17px; fill: rgb(42, 63, 95); opacity: 1; font-weight: normal; white-space: pre;"><tspan class="line" dy="0em" x="35" y="50">Qidao - vUSDC/MAI: Velodrome</tspan><tspan class="line" dy="1.3em" x="35" y="50">​<tspan style="font-size:70%" dy="-0.6em">Cumulative Net Flows since Program Announcement, Until Program End + 30 Days - At Last Price</tspan><tspan dy="0.42em">​</tspan></tspan></text></g><g class="g-xtitle"><text class="xtitle" x="350" y="459.8" text-anchor="middle" style="font-family: 'Open Sans', verdana, arial, sans-serif; font-size: 14px; fill: rgb(42, 63, 95); opacity: 1; font-weight: normal; white-space: pre;">Day</text></g><g class="g-ytitle"><text class="ytitle" transform="rotate(-90,17.075000000000003,260)" x="17.075000000000003" y="260" text-anchor="middle" style="font-family: 'Open Sans', verdana, arial, sans-serif; font-size: 14px; fill: rgb(42, 63, 95); opacity: 1; font-weight: normal; white-space: pre;">Cumulative Net Flows (USD)</text></g></g></svg>
