<svg class="main-svg" xmlns="http://www.w3.org/2000/svg" xmlns:xlink="http://www.w3.org/1999/xlink" width="700" height="500" style="" viewBox="0 0 700 500"><rect x="0" y="0" width="700" height="500" style="fill: rgb(255, 255, 255); fill-opacity: 1;"/><defs id="defs-a84f18"><g class="clips"><clipPath id="clipa84f18xyplot" class="plotclip"><rect width="540" height="320"/></clipPath><clipPath class="axesclip" id="clipa84f18x"><rect x="80" y="0" width="540" height="500"/></clipPath><clipPath class="axesclip" id="clipa84f18y"><rect x="0" y="100" width="700" height="320"/></clipPath><clipPath class="axesclip" id="clipa84f18xy"><rect x="80" y="100" width="540" height="320"/></clipPath></g><g class="gradients"/><g class="patterns"/></defs><g class="bglayer"><rect class="bg" x="80" y="100" width="540" height="320" style="fill: rgb(229, 236, 246); fill-opacity: 1; stroke-width: 0;"/></g><g class="layer-below"><g class="imagelayer"/><g class="shapelayer"/></g><g class="cartesianlayer"><g class="subplot xy"><g class="layer-subplot"><g class="shapelayer"/><g class="imagelayer"/></g><g class="minor-gridlayer"><g class="x"/><g class="y"/></g><g class="gridlayer"><g class="x"><path class="xgrid crisp" transform="translate(99.89,0)" d="M0,100v320" style="stroke: rgb(255, 255, 255); stroke-opacity: 1; stroke-width: 1px;"/><path class="xgrid crisp" transform="translate(185.16,0)" d="M0,100v320" style="stroke: rgb(255, 255, 255); stroke-opacity: 1; stroke-width: 1px;"/><path class="xgrid crisp" transform="translate(273.26,0)" d="M0,100v320" style="stroke: rgb(255, 255, 255); stroke-opacity: 1; stroke-width: 1px;"/><path class="xgrid crisp" transform="translate(361.37,0)" d="M0,100v320" style="stroke: rgb(255, 255, 255); stroke-opacity: 1; stroke-width: 1px;"/><path class="xgrid crisp" transform="translate(440.95,0)" d="M0,100v320" style="stroke: rgb(255, 255, 255); stroke-opacity: 1; stroke-width: 1px;"/><path class="xgrid crisp" transform="translate(529.05,0)" d="M0,100v320" style="stroke: rgb(255, 255, 255); stroke-opacity: 1; stroke-width: 1px;"/><path class="xgrid crisp" transform="translate(614.32,0)" d="M0,100v320" style="stroke: rgb(255, 255, 255); stroke-opacity: 1; stroke-width: 1px;"/></g><g class="y"><path class="ygrid crisp" transform="translate(0,416.27)" d="M80,0h540" style="stroke: rgb(255, 255, 255); stroke-opacity: 1; stroke-width: 1px;"/><path class="ygrid crisp" transform="translate(0,309.76)" d="M80,0h540" style="stroke: rgb(255, 255, 255); stroke-opacity: 1; stroke-width: 1px;"/><path class="ygrid crisp" transform="translate(0,256.5)" d="M80,0h540" style="stroke: rgb(255, 255, 255); stroke-opacity: 1; stroke-width: 1px;"/><path class="ygrid crisp" transform="translate(0,203.24)" d="M80,0h540" style="stroke: rgb(255, 255, 255); stroke-opacity: 1; stroke-width: 1px;"/><path class="ygrid crisp" transform="translate(0,149.99)" d="M80,0h540" style="stroke: rgb(255, 255, 255); stroke-opacity: 1; stroke-width: 1px;"/></g></g><g class="zerolinelayer"><path class="yzl zl crisp" transform="translate(0,363.01)" d="M80,0h540" style="stroke: rgb(255, 255, 255); stroke-opacity: 1; stroke-width: 2px;"/></g><path class="xlines-below"/><path class="ylines-below"/><g class="overlines-below"/><g class="xaxislayer-below"/><g class="yaxislayer-below"/><g class="overaxes-below"/><g class="plot" transform="translate(80,100)" clip-path="url(#clipa84f18xyplot)"><g class="scatterlayer mlayer"><g class="trace scatter traceb65c4a" style="stroke-miterlimit: 2;"><g class="fills"><g><path class="js-fill" d="M540,263.01L0,263.01L0,263.01L2.84,263.01L5.68,228.48L8.53,178.51L11.37,185.82L14.21,187.88L17.05,177.96L19.89,180.18L22.74,172.44L25.58,169.61L28.42,187.68L36.95,185.78L39.79,187.79L42.63,201.48L45.47,210.36L48.32,210.07L51.16,204.61L54,203.77L56.84,180.43L59.68,180.74L62.53,179.34L65.37,183.83L68.21,190.01L71.05,193.75L73.89,191.42L76.74,190.1L79.58,190.76L82.42,190.68L85.26,189.67L88.11,189.46L90.95,186.45L93.79,179.73L96.63,168.37L99.47,175.1L102.32,177.27L105.16,194.64L108,184.2L113.68,171.1L116.53,186.28L119.37,187.05L122.21,201.69L125.05,191.27L127.89,190.96L130.74,191.55L133.58,198.34L136.42,197.67L139.26,197.82L144.95,197.75L147.79,193.7L150.63,187.33L153.47,186.92L159.16,187.59L162,185.69L167.68,185.91L170.53,184.57L173.37,184.87L176.21,184.32L179.05,181.85L181.89,181.62L184.74,184.54L187.58,183.51L190.42,185.35L193.26,185.19L196.11,184.55L198.95,182.59L201.79,180.04L204.63,181.15L213.16,180.95L216,179.58L218.84,180.63L221.68,182.79L227.37,174L230.21,173.23L233.05,171.53L235.89,166.07L238.74,190.51L241.58,186.64L244.42,189.7L247.26,206.14L250.11,209.32L252.95,206.9L255.79,203.66L258.63,201.87L261.47,200.41L264.32,191.03L267.16,192.96L270,192.29L272.84,190.97L275.68,175.34L278.53,183.62L281.37,179.79L284.21,169.71L287.05,176.79L289.89,176.44L292.74,172.61L295.58,172.83L298.42,158.52L301.26,173.1L304.11,174.62L306.95,173.99L309.79,167.96L312.63,167.09L315.47,167.68L318.32,148.57L321.16,150.63L326.84,157.1L329.68,151.06L332.53,155.65L335.37,155.36L338.21,157.92L341.05,150.77L343.89,144.52L346.74,126.2L349.58,120.59L352.42,125.5L355.26,125.26L358.11,115.37L360.95,114.91L363.79,126.71L366.63,116.66L369.47,119.75L372.32,122.36L375.16,113.25L378,120.86L380.84,126.05L383.68,119.2L386.53,105.2L389.37,121.9L392.21,93.24L395.05,110.17L397.89,135.65L400.74,171.51L403.58,232.33L406.42,218.55L409.26,213.47L412.11,214.68L414.95,214.15L420.63,190.63L423.47,104.31L426.32,115.14L429.16,120.18L434.84,86.26L437.68,113.22L440.53,112.74L443.37,125.19L449.05,123.53L451.89,114.14L454.74,113.66L457.58,110.82L460.42,114.45L463.26,120.98L466.11,123.77L468.95,143.69L471.79,188.9L474.63,183.13L477.47,182.98L480.32,177.04L486,107.44L488.84,103.25L491.68,81.82L494.53,93.94L497.37,85.02L500.21,51.32L503.05,86.03L505.89,74.38L508.74,69.28L511.58,57.3L514.42,16L517.26,17.7L520.11,18.93L522.95,25.17L525.79,22.43L528.63,24.75L531.47,27.29L534.32,58.15L537.16,55.38L540,50.5L540,304" style="fill: rgb(99, 110, 250); fill-opacity: 0.5; stroke-width: 0;"/></g></g><g class="errorbars"/><g class="lines"><path class="js-line" d="M0,263.01L2.84,263.01L5.68,228.48L8.53,178.51L11.37,185.82L14.21,187.88L17.05,177.96L19.89,180.18L22.74,172.44L25.58,169.61L28.42,187.68L36.95,185.78L39.79,187.79L42.63,201.48L45.47,210.36L48.32,210.07L51.16,204.61L54,203.77L56.84,180.43L59.68,180.74L62.53,179.34L65.37,183.83L68.21,190.01L71.05,193.75L73.89,191.42L76.74,190.1L79.58,190.76L82.42,190.68L85.26,189.67L88.11,189.46L90.95,186.45L93.79,179.73L96.63,168.37L99.47,175.1L102.32,177.27L105.16,194.64L108,184.2L113.68,171.1L116.53,186.28L119.37,187.05L122.21,201.69L125.05,191.27L127.89,190.96L130.74,191.55L133.58,198.34L136.42,197.67L139.26,197.82L144.95,197.75L147.79,193.7L150.63,187.33L153.47,186.92L159.16,187.59L162,185.69L167.68,185.91L170.53,184.57L173.37,184.87L176.21,184.32L179.05,181.85L181.89,181.62L184.74,184.54L187.58,183.51L190.42,185.35L193.26,185.19L196.11,184.55L198.95,182.59L201.79,180.04L204.63,181.15L213.16,180.95L216,179.58L218.84,180.63L221.68,182.79L227.37,174L230.21,173.23L233.05,171.53L235.89,166.07L238.74,190.51L241.58,186.64L244.42,189.7L247.26,206.14L250.11,209.32L252.95,206.9L255.79,203.66L258.63,201.87L261.47,200.41L264.32,191.03L267.16,192.96L270,192.29L272.84,190.97L275.68,175.34L278.53,183.62L281.37,179.79L284.21,169.71L287.05,176.79L289.89,176.44L292.74,172.61L295.58,172.83L298.42,158.52L301.26,173.1L304.11,174.62L306.95,173.99L309.79,167.96L312.63,167.09L315.47,167.68L318.32,148.57L321.16,150.63L326.84,157.1L329.68,151.06L332.53,155.65L335.37,155.36L338.21,157.92L341.05,150.77L343.89,144.52L346.74,126.2L349.58,120.59L352.42,125.5L355.26,125.26L358.11,115.37L360.95,114.91L363.79,126.71L366.63,116.66L369.47,119.75L372.32,122.36L375.16,113.25L378,120.86L380.84,126.05L383.68,119.2L386.53,105.2L389.37,121.9L392.21,93.24L395.05,110.17L397.89,135.65L400.74,171.51L403.58,232.33L406.42,218.55L409.26,213.47L412.11,214.68L414.95,214.15L420.63,190.63L423.47,104.31L426.32,115.14L429.16,120.18L434.84,86.26L437.68,113.22L440.53,112.74L443.37,125.19L449.05,123.53L451.89,114.14L454.74,113.66L457.58,110.82L460.42,114.45L463.26,120.98L466.11,123.77L468.95,143.69L471.79,188.9L474.63,183.13L477.47,182.98L480.32,177.04L486,107.44L488.84,103.25L491.68,81.82L494.53,93.94L497.37,85.02L500.21,51.32L503.05,86.03L505.89,74.38L508.74,69.28L511.58,57.3L514.42,16L517.26,17.7L520.11,18.93L522.95,25.17L525.79,22.43L528.63,24.75L531.47,27.29L534.32,58.15L537.16,55.38L540,50.5L540,304" style="vector-effect: none; fill: none; stroke: rgb(99, 110, 250); stroke-opacity: 1; stroke-width: 2px; opacity: 1;"/></g><g class="points"/><g class="text"/></g></g></g><g class="overplot"/><path class="xlines-above crisp" d="M0,0" style="fill: none;"/><path class="ylines-above crisp" d="M0,0" style="fill: none;"/><g class="overlines-above"/><g class="xaxislayer-above"><g class="xtick"><text text-anchor="middle" x="0" y="433" transform="translate(99.89,0)" style="font-family: 'Open Sans', verdana, arial, sans-serif; font-size: 12px; fill: rgb(42, 63, 95); fill-opacity: 1; white-space: pre; opacity: 1;">Nov 2022</text></g><g class="xtick"><text text-anchor="middle" x="0" y="433" style="font-family: 'Open Sans', verdana, arial, sans-serif; font-size: 12px; fill: rgb(42, 63, 95); fill-opacity: 1; white-space: pre; opacity: 1;" transform="translate(185.16,0)">Dec 2022</text></g><g class="xtick"><text text-anchor="middle" x="0" y="433" style="font-family: 'Open Sans', verdana, arial, sans-serif; font-size: 12px; fill: rgb(42, 63, 95); fill-opacity: 1; white-space: pre; opacity: 1;" transform="translate(273.26,0)">Jan 2023</text></g><g class="xtick"><text text-anchor="middle" x="0" y="433" style="font-family: 'Open Sans', verdana, arial, sans-serif; font-size: 12px; fill: rgb(42, 63, 95); fill-opacity: 1; white-space: pre; opacity: 1;" transform="translate(361.37,0)">Feb 2023</text></g><g class="xtick"><text text-anchor="middle" x="0" y="433" style="font-family: 'Open Sans', verdana, arial, sans-serif; font-size: 12px; fill: rgb(42, 63, 95); fill-opacity: 1; white-space: pre; opacity: 1;" transform="translate(440.95,0)">Mar 2023</text></g><g class="xtick"><text text-anchor="middle" x="0" y="433" style="font-family: 'Open Sans', verdana, arial, sans-serif; font-size: 12px; fill: rgb(42, 63, 95); fill-opacity: 1; white-space: pre; opacity: 1;" transform="translate(529.05,0)">Apr 2023</text></g><g class="xtick"><text text-anchor="middle" x="0" y="433" style="font-family: 'Open Sans', verdana, arial, sans-serif; font-size: 12px; fill: rgb(42, 63, 95); fill-opacity: 1; white-space: pre; opacity: 1;" transform="translate(614.32,0)">May 2023</text></g></g><g class="yaxislayer-above"><g class="ytick"><text text-anchor="end" x="79" y="4.199999999999999" transform="translate(0,416.27)" style="font-family: 'Open Sans', verdana, arial, sans-serif; font-size: 12px; fill: rgb(42, 63, 95); fill-opacity: 1; white-space: pre; opacity: 1;">$−0.5M</text></g><g class="ytick"><text text-anchor="end" x="79" y="4.199999999999999" style="font-family: 'Open Sans', verdana, arial, sans-serif; font-size: 12px; fill: rgb(42, 63, 95); fill-opacity: 1; white-space: pre; opacity: 1;" transform="translate(0,363.01)">$0</text></g><g class="ytick"><text text-anchor="end" x="79" y="4.199999999999999" style="font-family: 'Open Sans', verdana, arial, sans-serif; font-size: 12px; fill: rgb(42, 63, 95); fill-opacity: 1; white-space: pre; opacity: 1;" transform="translate(0,309.76)">$0.5M</text></g><g class="ytick"><text text-anchor="end" x="79" y="4.199999999999999" style="font-family: 'Open Sans', verdana, arial, sans-serif; font-size: 12px; fill: rgb(42, 63, 95); fill-opacity: 1; white-space: pre; opacity: 1;" transform="translate(0,256.5)">$1M</text></g><g class="ytick"><text text-anchor="end" x="79" y="4.199999999999999" style="font-family: 'Open Sans', verdana, arial, sans-serif; font-size: 12px; fill: rgb(42, 63, 95); fill-opacity: 1; white-space: pre; opacity: 1;" transform="translate(0,203.24)">$1.5M</text></g><g class="ytick"><text text-anchor="end" x="79" y="4.199999999999999" style="font-family: 'Open Sans', verdana, arial, sans-serif; font-size: 12px; fill: rgb(42, 63, 95); fill-opacity: 1; white-space: pre; opacity: 1;" transform="translate(0,149.99)">$2M</text></g></g><g class="overaxes-above"/></g></g><g class="polarlayer"/><g class="smithlayer"/><g class="ternarylayer"/><g class="geolayer"/><g class="funnelarealayer"/><g class="pielayer"/><g class="iciclelayer"/><g class="treemaplayer"/><g class="sunburstlayer"/><g class="glimages"/><defs id="topdefs-a84f18"><g class="clips"/></defs><g class="layer-above"><g class="imagelayer"/><g class="shapelayer"/></g><g class="infolayer"><g class="g-gtitle"><text class="gtitle" x="35" y="50" text-anchor="start" dy="0em" style="font-family: 'Open Sans', verdana, arial, sans-serif; font-size: 17px; fill: rgb(42, 63, 95); opacity: 1; font-weight: normal; white-space: pre;"><tspan class="line" dy="0em" x="35" y="50">Synthetix - All Synthetix Hop Pools</tspan><tspan class="line" dy="1.3em" x="35" y="50">​<tspan style="font-size:70%" dy="-0.6em">Cumulative Net Flows since Program Announcement, Until Program End + 30 Days - At Last Price</tspan><tspan dy="0.42em">​</tspan></tspan></text></g><g class="g-xtitle"><text class="xtitle" x="350" y="460.3" text-anchor="middle" style="font-family: 'Open Sans', verdana, arial, sans-serif; font-size: 14px; fill: rgb(42, 63, 95); opacity: 1; font-weight: normal; white-space: pre;">Day</text></g><g class="g-ytitle"><text class="ytitle" transform="rotate(-90,14.340625000000003,260)" x="14.340625000000003" y="260" text-anchor="middle" style="font-family: 'Open Sans', verdana, arial, sans-serif; font-size: 14px; fill: rgb(42, 63, 95); opacity: 1; font-weight: normal; white-space: pre;">Cumulative Net Flows (USD)</text></g></g></svg>