<svg class="main-svg" xmlns="http://www.w3.org/2000/svg" xmlns:xlink="http://www.w3.org/1999/xlink" width="700" height="500" style="" viewBox="0 0 700 500"><rect x="0" y="0" width="700" height="500" style="fill: rgb(255, 255, 255); fill-opacity: 1;"/><defs id="defs-2de40d"><g class="clips"><clipPath id="clip2de40dxyplot" class="plotclip"><rect width="540" height="320"/></clipPath><clipPath class="axesclip" id="clip2de40dx"><rect x="80" y="0" width="540" height="500"/></clipPath><clipPath class="axesclip" id="clip2de40dy"><rect x="0" y="100" width="700" height="320"/></clipPath><clipPath class="axesclip" id="clip2de40dxy"><rect x="80" y="100" width="540" height="320"/></clipPath></g><g class="gradients"/><g class="patterns"/></defs><g class="bglayer"><rect class="bg" x="80" y="100" width="540" height="320" style="fill: rgb(229, 236, 246); fill-opacity: 1; stroke-width: 0;"/></g><g class="layer-below"><g class="imagelayer"/><g class="shapelayer"/></g><g class="cartesianlayer"><g class="subplot xy"><g class="layer-subplot"><g class="shapelayer"/><g class="imagelayer"/></g><g class="minor-gridlayer"><g class="x"/><g class="y"/></g><g class="gridlayer"><g class="x"><path class="xgrid crisp" transform="translate(114.71000000000001,0)" d="M0,100v320" style="stroke: rgb(255, 255, 255); stroke-opacity: 1; stroke-width: 1px;"/><path class="xgrid crisp" transform="translate(193.14,0)" d="M0,100v320" style="stroke: rgb(255, 255, 255); stroke-opacity: 1; stroke-width: 1px;"/><path class="xgrid crisp" transform="translate(271.57,0)" d="M0,100v320" style="stroke: rgb(255, 255, 255); stroke-opacity: 1; stroke-width: 1px;"/><path class="xgrid crisp" transform="translate(347.43,0)" d="M0,100v320" style="stroke: rgb(255, 255, 255); stroke-opacity: 1; stroke-width: 1px;"/><path class="xgrid crisp" transform="translate(425.86,0)" d="M0,100v320" style="stroke: rgb(255, 255, 255); stroke-opacity: 1; stroke-width: 1px;"/><path class="xgrid crisp" transform="translate(504.29,0)" d="M0,100v320" style="stroke: rgb(255, 255, 255); stroke-opacity: 1; stroke-width: 1px;"/><path class="xgrid crisp" transform="translate(584,0)" d="M0,100v320" style="stroke: rgb(255, 255, 255); stroke-opacity: 1; stroke-width: 1px;"/></g><g class="y"><path class="ygrid crisp" transform="translate(0,317.84000000000003)" d="M80,0h540" style="stroke: rgb(255, 255, 255); stroke-opacity: 1; stroke-width: 1px;"/><path class="ygrid crisp" transform="translate(0,262.09000000000003)" d="M80,0h540" style="stroke: rgb(255, 255, 255); stroke-opacity: 1; stroke-width: 1px;"/><path class="ygrid crisp" transform="translate(0,206.34)" d="M80,0h540" style="stroke: rgb(255, 255, 255); stroke-opacity: 1; stroke-width: 1px;"/><path class="ygrid crisp" transform="translate(0,150.59)" d="M80,0h540" style="stroke: rgb(255, 255, 255); stroke-opacity: 1; stroke-width: 1px;"/></g></g><g class="zerolinelayer"><path class="yzl zl crisp" transform="translate(0,373.58)" d="M80,0h540" style="stroke: rgb(255, 255, 255); stroke-opacity: 1; stroke-width: 2px;"/></g><path class="xlines-below"/><path class="ylines-below"/><g class="overlines-below"/><g class="xaxislayer-below"/><g class="yaxislayer-below"/><g class="overaxes-below"/><g class="plot" transform="translate(80,100)" clip-path="url(#clip2de40dxyplot)"><g class="scatterlayer mlayer"><g class="trace scatter traceb68980" style="stroke-miterlimit: 2;"><g class="fills"><g><path class="js-fill" d="M540,273.58L0,273.58L0,283.84L1.29,220.15L2.57,229.01L3.86,231.82L5.14,237.82L6.43,239.48L7.71,238.5L9,232.9L10.29,221.31L11.57,236.71L12.86,231.95L14.14,230.11L15.43,224.73L18,228.6L19.29,219.37L20.57,220.38L21.86,218.27L24.43,208.36L25.71,212.55L27,215.57L28.29,214.35L30.86,211.36L32.14,204.6L34.71,195.02L36,181.87L37.29,181.45L38.57,176.51L39.86,169.72L41.14,188.29L43.71,198.73L45,177.37L46.29,172.28L47.57,170.87L48.86,167.73L50.14,159.71L51.43,153.75L52.71,174.3L54,173.74L55.29,172.18L56.57,170L57.86,170.25L59.14,167.35L60.43,171.82L61.71,190.24L63,186.5L64.29,186.45L65.57,192.76L66.86,194.4L68.14,185.14L70.71,175.02L72,181.71L73.29,183.34L74.57,182.95L75.86,176.37L77.14,183.05L78.43,187.59L79.71,177.03L81,168.55L82.29,153.29L83.57,148.66L84.86,148.82L86.14,145.39L87.43,104.52L88.71,97.18L90,95.7L92.57,97.9L93.86,97.95L95.14,99.98L96.43,93.68L97.71,92.6L99,93.12L100.29,91.92L101.57,93.12L102.86,92.78L104.14,91.34L105.43,101.3L106.71,98.37L108,98.31L109.29,95.26L110.57,95.27L111.86,91.68L113.14,70.72L114.43,67.12L115.71,63.05L117,40.36L118.29,32.01L119.57,16L123.43,37.05L124.71,53.36L126,214.68L127.29,275.27L128.57,286.17L129.86,278.2L131.14,281.78L132.43,288.35L133.71,276.33L135,281.26L137.57,276.59L138.86,280.82L140.14,282.44L141.43,273.37L142.71,278.52L144,276.54L145.29,270.76L146.57,274.54L147.86,273.56L149.14,275.35L150.43,268.62L151.71,257.4L155.57,250.93L156.86,251.81L158.14,247.28L159.43,246.73L162,238.91L163.29,237.61L164.57,237.56L165.86,236.01L168.43,245.58L169.71,245.08L171,243.19L172.29,244.54L173.57,258.67L174.86,253.48L176.14,255.01L177.43,242.35L180,226.69L181.29,225.81L182.57,225.81L183.86,226.6L186.43,229.97L187.71,229.69L189,229.09L190.29,224.82L191.57,230.82L192.86,230L194.14,222.62L195.43,222.92L196.71,219.41L198,221.9L199.29,226.24L200.57,234.6L203.14,237.18L204.43,237.08L205.71,240.43L207,238.31L208.29,244.62L209.57,245.97L210.86,247.47L212.14,242.94L213.43,230.32L214.71,225.5L217.29,228.07L218.57,225.83L219.86,218.89L221.14,219.09L222.43,217.35L223.71,221.05L226.29,224.54L227.57,223.91L230.14,208.34L231.43,179.43L232.71,185.11L234,185.91L237.86,177.26L239.14,181.59L240.43,189.55L241.71,183.84L243,189.24L244.29,181.76L246.86,177.47L248.14,164.2L249.43,161.5L250.71,164.76L252,187.27L253.29,180.01L255.86,188.04L257.14,188.05L258.43,185.9L259.71,199.5L261,201.65L262.29,212.8L263.57,211.68L264.86,212.24L266.14,206.62L267.43,210.38L268.71,211.12L270,200.51L271.29,196.91L272.57,188.03L273.86,192.4L275.14,192.75L277.71,191.02L279,189.41L280.29,156.12L281.57,148.6L285.43,84.57L286.71,73L288,59.71L289.29,56.8L290.57,90.44L291.86,90.8L293.14,97.43L294.43,94.95L295.71,94.29L297,86.95L298.29,119.02L299.57,122.71L302.14,143.52L303.43,156.64L304.71,152.88L306,154.17L307.29,150.86L308.57,151.9L309.86,154.5L311.14,162.33L312.43,166.38L313.71,162.91L315,157.78L316.29,158.75L317.57,165.72L318.86,154.82L320.14,161.61L321.43,137.63L324,111.8L325.29,105.47L326.57,101.7L327.86,91.65L329.14,94.7L330.43,95.42L335.57,122.56L336.86,125.81L338.14,125.77L339.43,128.46L340.71,129.41L342,131.34L344.57,120.05L345.86,118.52L347.14,131.1L348.43,133.08L349.71,134.02L351,130.64L352.29,141.91L353.57,124.78L354.86,121.06L356.14,124.23L358.71,136.56L360,132.26L362.57,147.58L363.86,139.09L366.43,156L367.71,162.28L370.29,178.18L371.57,171.02L372.86,176.23L374.14,175.49L375.43,168.21L376.71,172.83L378,177.25L379.29,173.85L380.57,176.3L381.86,173.01L383.14,184.4L384.43,178.25L385.71,182.06L387,183.17L388.29,189.85L389.57,186.22L390.86,197.88L392.14,191.98L394.71,204.76L396,206.32L397.29,209.14L398.57,209.44L399.86,228.02L401.14,230.56L402.43,228.2L403.71,239.87L406.29,265.74L407.57,270.96L410.14,259.29L411.43,258.9L412.71,259.65L414,255.72L416.57,229.88L417.86,222.91L419.14,221.07L420.43,228.44L421.71,227.24L423,236.94L424.29,252.96L425.57,247.55L426.86,249.96L428.14,245.25L430.71,235.11L432,233.68L434.57,208.02L435.86,207.58L438.43,226.78L439.71,230.13L442.29,234.44L443.57,230.81L446.14,232.34L447.43,245.38L448.71,242.12L450,236.21L451.29,234.16L452.57,233.91L455.14,230.4L456.43,231.01L459,213.63L460.29,211.61L461.57,217.52L462.86,219.04L464.14,209.72L465.43,212.67L466.71,216.88L468,253.01L469.29,273.69L470.57,278.36L471.86,288.16L473.14,282.18L474.43,275.45L475.71,281.51L477,284.8L478.29,282.95L479.57,277.36L480.86,286.96L482.14,289.68L483.43,286.63L484.71,275.77L486,278.19L487.29,272.54L488.57,283.34L493.71,289.38L495,298.13L496.29,299.56L497.57,304L498.86,302.59L500.14,299.61L501.43,299.7L502.71,256.92L504,237.2L505.29,243.12L506.57,252.2L507.86,254.42L509.14,268.76L510.43,273.44L513,279.56L514.29,278.95L515.57,275.54L516.86,274.9L518.14,276.73L519.43,272.14L522,261.73L523.29,272.42L524.57,273.37L525.86,272.07L527.14,272.01L528.43,272.77L529.71,270.69L531,271.92L532.29,253.2L533.57,258.82L536.14,262.36L537.43,262.14L538.71,267.02L540,268.07" style="fill: rgb(99, 110, 250); fill-opacity: 0.5; stroke-width: 0;"/></g></g><g class="errorbars"/><g class="lines"><path class="js-line" d="M0,283.84L1.29,220.15L2.57,229.01L3.86,231.82L5.14,237.82L6.43,239.48L7.71,238.5L9,232.9L10.29,221.31L11.57,236.71L12.86,231.95L14.14,230.11L15.43,224.73L18,228.6L19.29,219.37L20.57,220.38L21.86,218.27L24.43,208.36L25.71,212.55L27,215.57L28.29,214.35L30.86,211.36L32.14,204.6L34.71,195.02L36,181.87L37.29,181.45L38.57,176.51L39.86,169.72L41.14,188.29L43.71,198.73L45,177.37L46.29,172.28L47.57,170.87L48.86,167.73L50.14,159.71L51.43,153.75L52.71,174.3L54,173.74L55.29,172.18L56.57,170L57.86,170.25L59.14,167.35L60.43,171.82L61.71,190.24L63,186.5L64.29,186.45L65.57,192.76L66.86,194.4L68.14,185.14L70.71,175.02L72,181.71L73.29,183.34L74.57,182.95L75.86,176.37L77.14,183.05L78.43,187.59L79.71,177.03L81,168.55L82.29,153.29L83.57,148.66L84.86,148.82L86.14,145.39L87.43,104.52L88.71,97.18L90,95.7L92.57,97.9L93.86,97.95L95.14,99.98L96.43,93.68L97.71,92.6L99,93.12L100.29,91.92L101.57,93.12L102.86,92.78L104.14,91.34L105.43,101.3L106.71,98.37L108,98.31L109.29,95.26L110.57,95.27L111.86,91.68L113.14,70.72L114.43,67.12L115.71,63.05L117,40.36L118.29,32.01L119.57,16L123.43,37.05L124.71,53.36L126,214.68L127.29,275.27L128.57,286.17L129.86,278.2L131.14,281.78L132.43,288.35L133.71,276.33L135,281.26L137.57,276.59L138.86,280.82L140.14,282.44L141.43,273.37L142.71,278.52L144,276.54L145.29,270.76L146.57,274.54L147.86,273.56L149.14,275.35L150.43,268.62L151.71,257.4L155.57,250.93L156.86,251.81L158.14,247.28L159.43,246.73L162,238.91L163.29,237.61L164.57,237.56L165.86,236.01L168.43,245.58L169.71,245.08L171,243.19L172.29,244.54L173.57,258.67L174.86,253.48L176.14,255.01L177.43,242.35L180,226.69L181.29,225.81L182.57,225.81L183.86,226.6L186.43,229.97L187.71,229.69L189,229.09L190.29,224.82L191.57,230.82L192.86,230L194.14,222.62L195.43,222.92L196.71,219.41L198,221.9L199.29,226.24L200.57,234.6L203.14,237.18L204.43,237.08L205.71,240.43L207,238.31L208.29,244.62L209.57,245.97L210.86,247.47L212.14,242.94L213.43,230.32L214.71,225.5L217.29,228.07L218.57,225.83L219.86,218.89L221.14,219.09L222.43,217.35L223.71,221.05L226.29,224.54L227.57,223.91L230.14,208.34L231.43,179.43L232.71,185.11L234,185.91L237.86,177.26L239.14,181.59L240.43,189.55L241.71,183.84L243,189.24L244.29,181.76L246.86,177.47L248.14,164.2L249.43,161.5L250.71,164.76L252,187.27L253.29,180.01L255.86,188.04L257.14,188.05L258.43,185.9L259.71,199.5L261,201.65L262.29,212.8L263.57,211.68L264.86,212.24L266.14,206.62L267.43,210.38L268.71,211.12L270,200.51L271.29,196.91L272.57,188.03L273.86,192.4L275.14,192.75L277.71,191.02L279,189.41L280.29,156.12L281.57,148.6L285.43,84.57L286.71,73L288,59.71L289.29,56.8L290.57,90.44L291.86,90.8L293.14,97.43L294.43,94.95L295.71,94.29L297,86.95L298.29,119.02L299.57,122.71L302.14,143.52L303.43,156.64L304.71,152.88L306,154.17L307.29,150.86L308.57,151.9L309.86,154.5L311.14,162.33L312.43,166.38L313.71,162.91L315,157.78L316.29,158.75L317.57,165.72L318.86,154.82L320.14,161.61L321.43,137.63L324,111.8L325.29,105.47L326.57,101.7L327.86,91.65L329.14,94.7L330.43,95.42L335.57,122.56L336.86,125.81L338.14,125.77L339.43,128.46L340.71,129.41L342,131.34L344.57,120.05L345.86,118.52L347.14,131.1L348.43,133.08L349.71,134.02L351,130.64L352.29,141.91L353.57,124.78L354.86,121.06L356.14,124.23L358.71,136.56L360,132.26L362.57,147.58L363.86,139.09L366.43,156L367.71,162.28L370.29,178.18L371.57,171.02L372.86,176.23L374.14,175.49L375.43,168.21L376.71,172.83L378,177.25L379.29,173.85L380.57,176.3L381.86,173.01L383.14,184.4L384.43,178.25L385.71,182.06L387,183.17L388.29,189.85L389.57,186.22L390.86,197.88L392.14,191.98L394.71,204.76L396,206.32L397.29,209.14L398.57,209.44L399.86,228.02L401.14,230.56L402.43,228.2L403.71,239.87L406.29,265.74L407.57,270.96L410.14,259.29L411.43,258.9L412.71,259.65L414,255.72L416.57,229.88L417.86,222.91L419.14,221.07L420.43,228.44L421.71,227.24L423,236.94L424.29,252.96L425.57,247.55L426.86,249.96L428.14,245.25L430.71,235.11L432,233.68L434.57,208.02L435.86,207.58L438.43,226.78L439.71,230.13L442.29,234.44L443.57,230.81L446.14,232.34L447.43,245.38L448.71,242.12L450,236.21L451.29,234.16L452.57,233.91L455.14,230.4L456.43,231.01L459,213.63L460.29,211.61L461.57,217.52L462.86,219.04L464.14,209.72L465.43,212.67L466.71,216.88L468,253.01L469.29,273.69L470.57,278.36L471.86,288.16L473.14,282.18L474.43,275.45L475.71,281.51L477,284.8L478.29,282.95L479.57,277.36L480.86,286.96L482.14,289.68L483.43,286.63L484.71,275.77L486,278.19L487.29,272.54L488.57,283.34L493.71,289.38L495,298.13L496.29,299.56L497.57,304L498.86,302.59L500.14,299.61L501.43,299.7L502.71,256.92L504,237.2L505.29,243.12L506.57,252.2L507.86,254.42L509.14,268.76L510.43,273.44L513,279.56L514.29,278.95L515.57,275.54L516.86,274.9L518.14,276.73L519.43,272.14L522,261.73L523.29,272.42L524.57,273.37L525.86,272.07L527.14,272.01L528.43,272.77L529.71,270.69L531,271.92L532.29,253.2L533.57,258.82L536.14,262.36L537.43,262.14L538.71,267.02L540,268.07" style="vector-effect: none; fill: none; stroke: rgb(99, 110, 250); stroke-opacity: 1; stroke-width: 2px; opacity: 1;"/></g><g class="points"/><g class="text"/></g></g></g><g class="overplot"/><path class="xlines-above crisp" d="M0,0" style="fill: none;"/><path class="ylines-above crisp" d="M0,0" style="fill: none;"/><g class="overlines-above"/><g class="xaxislayer-above"><g class="xtick"><text text-anchor="middle" x="0" y="433" transform="translate(114.71000000000001,0)" style="font-family: 'Open Sans', verdana, arial, sans-serif; font-size: 12px; fill: rgb(42, 63, 95); fill-opacity: 1; white-space: pre; opacity: 1;">Sep 2022</text></g><g class="xtick"><text text-anchor="middle" x="0" y="433" style="font-family: 'Open Sans', verdana, arial, sans-serif; font-size: 12px; fill: rgb(42, 63, 95); fill-opacity: 1; white-space: pre; opacity: 1;" transform="translate(193.14,0)">Nov 2022</text></g><g class="xtick"><text text-anchor="middle" x="0" y="433" style="font-family: 'Open Sans', verdana, arial, sans-serif; font-size: 12px; fill: rgb(42, 63, 95); fill-opacity: 1; white-space: pre; opacity: 1;" transform="translate(271.57,0)">Jan 2023</text></g><g class="xtick"><text text-anchor="middle" x="0" y="433" style="font-family: 'Open Sans', verdana, arial, sans-serif; font-size: 12px; fill: rgb(42, 63, 95); fill-opacity: 1; white-space: pre; opacity: 1;" transform="translate(347.43,0)">Mar 2023</text></g><g class="xtick"><text text-anchor="middle" x="0" y="433" style="font-family: 'Open Sans', verdana, arial, sans-serif; font-size: 12px; fill: rgb(42, 63, 95); fill-opacity: 1; white-space: pre; opacity: 1;" transform="translate(425.86,0)">May 2023</text></g><g class="xtick"><text text-anchor="middle" x="0" y="433" style="font-family: 'Open Sans', verdana, arial, sans-serif; font-size: 12px; fill: rgb(42, 63, 95); fill-opacity: 1; white-space: pre; opacity: 1;" transform="translate(504.29,0)">Jul 2023</text></g><g class="xtick"><text text-anchor="middle" x="0" y="433" style="font-family: 'Open Sans', verdana, arial, sans-serif; font-size: 12px; fill: rgb(42, 63, 95); fill-opacity: 1; white-space: pre; opacity: 1;" transform="translate(584,0)">Sep 2023</text></g></g><g class="yaxislayer-above"><g class="ytick"><text text-anchor="end" x="79" y="4.199999999999999" transform="translate(0,373.58)" style="font-family: 'Open Sans', verdana, arial, sans-serif; font-size: 12px; fill: rgb(42, 63, 95); fill-opacity: 1; white-space: pre; opacity: 1;">$0</text></g><g class="ytick"><text text-anchor="end" x="79" y="4.199999999999999" style="font-family: 'Open Sans', verdana, arial, sans-serif; font-size: 12px; fill: rgb(42, 63, 95); fill-opacity: 1; white-space: pre; opacity: 1;" transform="translate(0,317.84000000000003)">$10M</text></g><g class="ytick"><text text-anchor="end" x="79" y="4.199999999999999" style="font-family: 'Open Sans', verdana, arial, sans-serif; font-size: 12px; fill: rgb(42, 63, 95); fill-opacity: 1; white-space: pre; opacity: 1;" transform="translate(0,262.09000000000003)">$20M</text></g><g class="ytick"><text text-anchor="end" x="79" y="4.199999999999999" style="font-family: 'Open Sans', verdana, arial, sans-serif; font-size: 12px; fill: rgb(42, 63, 95); fill-opacity: 1; white-space: pre; opacity: 1;" transform="translate(0,206.34)">$30M</text></g><g class="ytick"><text text-anchor="end" x="79" y="4.199999999999999" style="font-family: 'Open Sans', verdana, arial, sans-serif; font-size: 12px; fill: rgb(42, 63, 95); fill-opacity: 1; white-space: pre; opacity: 1;" transform="translate(0,150.59)">$40M</text></g></g><g class="overaxes-above"/></g></g><g class="polarlayer"/><g class="smithlayer"/><g class="ternarylayer"/><g class="geolayer"/><g class="funnelarealayer"/><g class="pielayer"/><g class="iciclelayer"/><g class="treemaplayer"/><g class="sunburstlayer"/><g class="glimages"/><defs id="topdefs-2de40d"><g class="clips"/></defs><g class="layer-above"><g class="imagelayer"/><g class="shapelayer"/></g><g class="infolayer"><g class="g-gtitle"><text class="gtitle" x="35" y="50" text-anchor="start" dy="0em" style="font-family: 'Open Sans', verdana, arial, sans-serif; font-size: 17px; fill: rgb(42, 63, 95); opacity: 1; font-weight: normal; white-space: pre;"><tspan class="line" dy="0em" x="35" y="50">Stargate</tspan><tspan class="line" dy="1.3em" x="35" y="50">​<tspan style="font-size:70%" dy="-0.6em">Cumulative Net Flows since Program Announcement, Until Program End + 30 Days - At Last Price</tspan><tspan dy="0.42em">​</tspan></tspan></text></g><g class="g-xtitle"><text class="xtitle" x="350" y="460.3" text-anchor="middle" style="font-family: 'Open Sans', verdana, arial, sans-serif; font-size: 14px; fill: rgb(42, 63, 95); opacity: 1; font-weight: normal; white-space: pre;">Day</text></g><g class="g-ytitle"><text class="ytitle" transform="rotate(-90,24.668750000000003,260)" x="24.668750000000003" y="260" text-anchor="middle" style="font-family: 'Open Sans', verdana, arial, sans-serif; font-size: 14px; fill: rgb(42, 63, 95); opacity: 1; font-weight: normal; white-space: pre;">Cumulative Net Flows (USD)</text></g></g></svg>