<svg class="main-svg" xmlns="http://www.w3.org/2000/svg" xmlns:xlink="http://www.w3.org/1999/xlink" width="700" height="500" style="" viewBox="0 0 700 500"><rect x="0" y="0" width="700" height="500" style="fill: rgb(255, 255, 255); fill-opacity: 1;"/><defs id="defs-44c163"><g class="clips"><clipPath id="clip44c163xyplot" class="plotclip"><rect width="540" height="320"/></clipPath><clipPath class="axesclip" id="clip44c163x"><rect x="80" y="0" width="540" height="500"/></clipPath><clipPath class="axesclip" id="clip44c163y"><rect x="0" y="100" width="700" height="320"/></clipPath><clipPath class="axesclip" id="clip44c163xy"><rect x="80" y="100" width="540" height="320"/></clipPath></g><g class="gradients"/><g class="patterns"/></defs><g class="bglayer"><rect class="bg" x="80" y="100" width="540" height="320" style="fill: rgb(229, 236, 246); fill-opacity: 1; stroke-width: 0;"/></g><g class="layer-below"><g class="imagelayer"/><g class="shapelayer"/></g><g class="cartesianlayer"><g class="subplot xy"><g class="layer-subplot"><g class="shapelayer"/><g class="imagelayer"/></g><g class="minor-gridlayer"><g class="x"/><g class="y"/></g><g class="gridlayer"><g class="x"><path class="xgrid crisp" transform="translate(136.76,0)" d="M0,100v320" style="stroke: rgb(255, 255, 255); stroke-opacity: 1; stroke-width: 1px;"/><path class="xgrid crisp" transform="translate(230.34,0)" d="M0,100v320" style="stroke: rgb(255, 255, 255); stroke-opacity: 1; stroke-width: 1px;"/><path class="xgrid crisp" transform="translate(323.91999999999996,0)" d="M0,100v320" style="stroke: rgb(255, 255, 255); stroke-opacity: 1; stroke-width: 1px;"/><path class="xgrid crisp" transform="translate(419.03,0)" d="M0,100v320" style="stroke: rgb(255, 255, 255); stroke-opacity: 1; stroke-width: 1px;"/><path class="xgrid crisp" transform="translate(512.61,0)" d="M0,100v320" style="stroke: rgb(255, 255, 255); stroke-opacity: 1; stroke-width: 1px;"/><path class="xgrid crisp" transform="translate(606.19,0)" d="M0,100v320" style="stroke: rgb(255, 255, 255); stroke-opacity: 1; stroke-width: 1px;"/></g><g class="y"><path class="ygrid crisp" transform="translate(0,367.13)" d="M80,0h540" style="stroke: rgb(255, 255, 255); stroke-opacity: 1; stroke-width: 1px;"/><path class="ygrid crisp" transform="translate(0,313.7)" d="M80,0h540" style="stroke: rgb(255, 255, 255); stroke-opacity: 1; stroke-width: 1px;"/><path class="ygrid crisp" transform="translate(0,260.28)" d="M80,0h540" style="stroke: rgb(255, 255, 255); stroke-opacity: 1; stroke-width: 1px;"/><path class="ygrid crisp" transform="translate(0,206.85)" d="M80,0h540" style="stroke: rgb(255, 255, 255); stroke-opacity: 1; stroke-width: 1px;"/><path class="ygrid crisp" transform="translate(0,153.43)" d="M80,0h540" style="stroke: rgb(255, 255, 255); stroke-opacity: 1; stroke-width: 1px;"/></g></g><g class="zerolinelayer"><path class="yzl zl crisp" transform="translate(0,100)" d="M80,0h540" style="stroke: rgb(255, 255, 255); stroke-opacity: 1; stroke-width: 2px;"/></g><path class="xlines-below"/><path class="ylines-below"/><g class="overlines-below"/><g class="xaxislayer-below"/><g class="yaxislayer-below"/><g class="overaxes-below"/><g class="plot" transform="translate(80,100)" clip-path="url(#clip44c163xyplot)"><g class="scatterlayer mlayer"><g class="trace scatter trace4eb75a" style="stroke-miterlimit: 2;"><g class="fills"><g><path class="js-fill" d="M540,0L0,0L0,2.74L1.53,3.06L3.07,34.51L4.6,34.59L6.14,38.71L10.74,46.56L12.27,47.05L13.81,48.06L15.34,48.02L16.88,47.51L18.41,48.31L23.01,53.01L24.55,52.91L26.08,54.9L27.61,60.35L29.15,61.91L30.68,65.03L32.22,67.72L33.75,68.02L35.28,69.95L36.82,62.83L38.35,64.19L39.89,67.94L41.42,85.62L42.95,85.77L46.02,85.22L47.56,87.61L49.09,89.36L50.63,87.35L52.16,87.63L53.69,86.58L55.23,79.38L56.76,79.66L58.3,81.57L59.83,86.63L62.9,90.12L64.43,90.24L69.03,90.33L70.57,86.74L72.1,90.6L73.64,101.16L75.17,101.5L76.7,98.26L78.24,98.36L79.77,90.25L81.31,86.86L82.84,87.77L84.38,88.44L85.91,94.66L87.44,94.79L88.98,100.37L90.51,101.1L92.05,100.16L93.58,99.97L95.11,104.03L96.65,105.45L98.18,105.49L101.25,98.89L102.78,100.68L104.32,100.66L105.85,97.41L107.39,100.25L108.92,101.23L110.45,92.12L111.99,91.54L113.52,92.63L115.06,91.12L118.13,91.78L119.66,97.26L122.73,93.17L124.26,95.23L127.33,97.33L128.86,95.68L130.4,95.09L131.93,95.89L133.47,94.21L135,94.55L136.53,94.43L138.07,95.33L139.6,95.53L141.14,97.46L142.67,97.92L144.2,97.45L145.74,97.72L147.27,100.53L148.81,100.36L150.34,96.84L156.48,96.68L158.01,97.61L161.08,97.95L162.61,98L165.68,97.19L167.22,99.64L168.75,98.29L170.28,98.14L171.82,96.89L173.35,96.96L174.89,98.68L176.42,98.5L179.49,101.37L181.02,105.88L182.56,106.02L184.09,108.46L187.16,115.01L188.69,114.62L191.76,60.78L193.3,46.84L196.36,37.26L197.9,47.79L199.43,46.71L200.97,62.77L202.5,55.11L204.03,63.59L208.64,78.41L210.17,81.75L214.77,84.73L216.31,91.59L217.84,94.18L219.38,94.71L225.51,99.23L227.05,98.44L231.65,100.25L233.18,100.96L234.72,101.26L236.25,100.53L239.32,101.36L240.85,102.72L242.39,105.29L243.92,120.56L245.45,121.25L246.99,124.11L248.52,132.67L250.06,133.18L254.66,133.83L256.19,136.88L262.33,137.31L263.86,136.57L268.47,137.19L270,139.9L273.07,135.37L274.6,132.77L276.14,130.98L277.67,134.34L279.2,133.24L280.74,134.03L283.81,135.17L285.34,141.02L289.94,142.09L291.48,144.34L294.55,144.74L296.08,134L303.75,133.48L305.28,146.82L306.82,156.33L308.35,157.72L309.89,157.73L311.42,159.25L314.49,162.77L316.02,163.3L317.56,163L319.09,164.33L323.69,162.96L325.23,172.54L326.76,173.2L328.3,180.04L329.83,175.84L331.36,183.99L332.9,188.11L334.43,188.89L335.97,188.82L337.5,189.76L339.03,194.97L340.57,195.57L342.1,199.8L343.64,200.04L346.7,200.56L348.24,201.84L351.31,203.58L352.84,219.98L354.38,221.82L355.91,222.35L358.98,223.32L360.51,225.27L365.11,226.3L366.65,228.19L375.85,231.79L377.39,229.57L380.45,229.74L381.99,230.35L383.52,230.48L385.06,228.87L386.59,235.75L388.13,238.86L392.73,239.6L394.26,240.49L400.4,241.47L401.93,241.5L403.47,238.38L405,238.62L408.07,239.42L409.6,235.29L420.34,237.76L421.88,233.76L423.41,234.98L424.94,231.72L426.48,230.77L428.01,232.76L429.55,232.76L431.08,234.47L434.15,234.04L435.68,236.21L437.22,234.54L438.75,236.28L440.28,239.21L441.82,239.58L449.49,240.76L451.02,249.22L454.09,248.89L455.63,249.09L458.69,249.48L460.23,249.51L463.3,250.94L464.83,250.83L466.36,250.99L467.9,252.56L469.43,255.87L470.97,256.14L478.64,257.31L480.17,265.58L481.7,266.2L483.24,278.9L484.77,281.92L486.31,282.06L487.84,290.82L489.38,291.52L492.44,294.73L493.98,294.54L495.51,291.96L497.05,286.84L498.58,290.84L500.11,291.35L503.18,291.65L504.72,292.83L507.78,293.39L509.32,294.65L510.85,294.69L512.39,296.82L515.45,297.6L516.99,300.05L518.52,304L520.06,296.26L521.59,293.96L523.13,293L524.66,292.36L526.19,289.15L529.26,285.31L530.8,287.02L533.86,288.45L535.4,287.05L536.93,287.19L538.47,288.84L540,288.87" style="fill: rgb(99, 110, 250); fill-opacity: 0.5; stroke-width: 0;"/></g></g><g class="errorbars"/><g class="lines"><path class="js-line" d="M0,2.74L1.53,3.06L3.07,34.51L4.6,34.59L6.14,38.71L10.74,46.56L12.27,47.05L13.81,48.06L15.34,48.02L16.88,47.51L18.41,48.31L23.01,53.01L24.55,52.91L26.08,54.9L27.61,60.35L29.15,61.91L30.68,65.03L32.22,67.72L33.75,68.02L35.28,69.95L36.82,62.83L38.35,64.19L39.89,67.94L41.42,85.62L42.95,85.77L46.02,85.22L47.56,87.61L49.09,89.36L50.63,87.35L52.16,87.63L53.69,86.58L55.23,79.38L56.76,79.66L58.3,81.57L59.83,86.63L62.9,90.12L64.43,90.24L69.03,90.33L70.57,86.74L72.1,90.6L73.64,101.16L75.17,101.5L76.7,98.26L78.24,98.36L79.77,90.25L81.31,86.86L82.84,87.77L84.38,88.44L85.91,94.66L87.44,94.79L88.98,100.37L90.51,101.1L92.05,100.16L93.58,99.97L95.11,104.03L96.65,105.45L98.18,105.49L101.25,98.89L102.78,100.68L104.32,100.66L105.85,97.41L107.39,100.25L108.92,101.23L110.45,92.12L111.99,91.54L113.52,92.63L115.06,91.12L118.13,91.78L119.66,97.26L122.73,93.17L124.26,95.23L127.33,97.33L128.86,95.68L130.4,95.09L131.93,95.89L133.47,94.21L135,94.55L136.53,94.43L138.07,95.33L139.6,95.53L141.14,97.46L142.67,97.92L144.2,97.45L145.74,97.72L147.27,100.53L148.81,100.36L150.34,96.84L156.48,96.68L158.01,97.61L161.08,97.95L162.61,98L165.68,97.19L167.22,99.64L168.75,98.29L170.28,98.14L171.82,96.89L173.35,96.96L174.89,98.68L176.42,98.5L179.49,101.37L181.02,105.88L182.56,106.02L184.09,108.46L187.16,115.01L188.69,114.62L191.76,60.78L193.3,46.84L196.36,37.26L197.9,47.79L199.43,46.71L200.97,62.77L202.5,55.11L204.03,63.59L208.64,78.41L210.17,81.75L214.77,84.73L216.31,91.59L217.84,94.18L219.38,94.71L225.51,99.23L227.05,98.44L231.65,100.25L233.18,100.96L234.72,101.26L236.25,100.53L239.32,101.36L240.85,102.72L242.39,105.29L243.92,120.56L245.45,121.25L246.99,124.11L248.52,132.67L250.06,133.18L254.66,133.83L256.19,136.88L262.33,137.31L263.86,136.57L268.47,137.19L270,139.9L273.07,135.37L274.6,132.77L276.14,130.98L277.67,134.34L279.2,133.24L280.74,134.03L283.81,135.17L285.34,141.02L289.94,142.09L291.48,144.34L294.55,144.74L296.08,134L303.75,133.48L305.28,146.82L306.82,156.33L308.35,157.72L309.89,157.73L311.42,159.25L314.49,162.77L316.02,163.3L317.56,163L319.09,164.33L323.69,162.96L325.23,172.54L326.76,173.2L328.3,180.04L329.83,175.84L331.36,183.99L332.9,188.11L334.43,188.89L335.97,188.82L337.5,189.76L339.03,194.97L340.57,195.57L342.1,199.8L343.64,200.04L346.7,200.56L348.24,201.84L351.31,203.58L352.84,219.98L354.38,221.82L355.91,222.35L358.98,223.32L360.51,225.27L365.11,226.3L366.65,228.19L375.85,231.79L377.39,229.57L380.45,229.74L381.99,230.35L383.52,230.48L385.06,228.87L386.59,235.75L388.13,238.86L392.73,239.6L394.26,240.49L400.4,241.47L401.93,241.5L403.47,238.38L405,238.62L408.07,239.42L409.6,235.29L420.34,237.76L421.88,233.76L423.41,234.98L424.94,231.72L426.48,230.77L428.01,232.76L429.55,232.76L431.08,234.47L434.15,234.04L435.68,236.21L437.22,234.54L438.75,236.28L440.28,239.21L441.82,239.58L449.49,240.76L451.02,249.22L454.09,248.89L455.63,249.09L458.69,249.48L460.23,249.51L463.3,250.94L464.83,250.83L466.36,250.99L467.9,252.56L469.43,255.87L470.97,256.14L478.64,257.31L480.17,265.58L481.7,266.2L483.24,278.9L484.77,281.92L486.31,282.06L487.84,290.82L489.38,291.52L492.44,294.73L493.98,294.54L495.51,291.96L497.05,286.84L498.58,290.84L500.11,291.35L503.18,291.65L504.72,292.83L507.78,293.39L509.32,294.65L510.85,294.69L512.39,296.82L515.45,297.6L516.99,300.05L518.52,304L520.06,296.26L521.59,293.96L523.13,293L524.66,292.36L526.19,289.15L529.26,285.31L530.8,287.02L533.86,288.45L535.4,287.05L536.93,287.19L538.47,288.84L540,288.87" style="vector-effect: none; fill: none; stroke: rgb(99, 110, 250); stroke-opacity: 1; stroke-width: 2px; opacity: 1;"/></g><g class="points"/><g class="text"/></g></g></g><g class="overplot"/><path class="xlines-above crisp" d="M0,0" style="fill: none;"/><path class="ylines-above crisp" d="M0,0" style="fill: none;"/><g class="overlines-above"/><g class="xaxislayer-above"><g class="xtick"><text text-anchor="middle" x="0" y="433" transform="translate(136.76,0)" style="font-family: 'Open Sans', verdana, arial, sans-serif; font-size: 12px; fill: rgb(42, 63, 95); fill-opacity: 1; white-space: pre; opacity: 1;">Mar 2023</text></g><g class="xtick"><text text-anchor="middle" x="0" y="433" style="font-family: 'Open Sans', verdana, arial, sans-serif; font-size: 12px; fill: rgb(42, 63, 95); fill-opacity: 1; white-space: pre; opacity: 1;" transform="translate(230.34,0)">May 2023</text></g><g class="xtick"><text text-anchor="middle" x="0" y="433" style="font-family: 'Open Sans', verdana, arial, sans-serif; font-size: 12px; fill: rgb(42, 63, 95); fill-opacity: 1; white-space: pre; opacity: 1;" transform="translate(323.91999999999996,0)">Jul 2023</text></g><g class="xtick"><text text-anchor="middle" x="0" y="433" style="font-family: 'Open Sans', verdana, arial, sans-serif; font-size: 12px; fill: rgb(42, 63, 95); fill-opacity: 1; white-space: pre; opacity: 1;" transform="translate(419.03,0)">Sep 2023</text></g><g class="xtick"><text text-anchor="middle" x="0" y="433" style="font-family: 'Open Sans', verdana, arial, sans-serif; font-size: 12px; fill: rgb(42, 63, 95); fill-opacity: 1; white-space: pre; opacity: 1;" transform="translate(512.61,0)">Nov 2023</text></g><g class="xtick"><text text-anchor="middle" x="0" y="433" style="font-family: 'Open Sans', verdana, arial, sans-serif; font-size: 12px; fill: rgb(42, 63, 95); fill-opacity: 1; white-space: pre; opacity: 1;" transform="translate(606.19,0)">Jan 2024</text></g></g><g class="yaxislayer-above"><g class="ytick"><text text-anchor="end" x="79" y="4.199999999999999" transform="translate(0,367.13)" style="font-family: 'Open Sans', verdana, arial, sans-serif; font-size: 12px; fill: rgb(42, 63, 95); fill-opacity: 1; white-space: pre; opacity: 1;">$−500k</text></g><g class="ytick"><text text-anchor="end" x="79" y="4.199999999999999" style="font-family: 'Open Sans', verdana, arial, sans-serif; font-size: 12px; fill: rgb(42, 63, 95); fill-opacity: 1; white-space: pre; opacity: 1;" transform="translate(0,313.7)">$−400k</text></g><g class="ytick"><text text-anchor="end" x="79" y="4.199999999999999" style="font-family: 'Open Sans', verdana, arial, sans-serif; font-size: 12px; fill: rgb(42, 63, 95); fill-opacity: 1; white-space: pre; opacity: 1;" transform="translate(0,260.28)">$−300k</text></g><g class="ytick"><text text-anchor="end" x="79" y="4.199999999999999" style="font-family: 'Open Sans', verdana, arial, sans-serif; font-size: 12px; fill: rgb(42, 63, 95); fill-opacity: 1; white-space: pre; opacity: 1;" transform="translate(0,206.85)">$−200k</text></g><g class="ytick"><text text-anchor="end" x="79" y="4.199999999999999" style="font-family: 'Open Sans', verdana, arial, sans-serif; font-size: 12px; fill: rgb(42, 63, 95); fill-opacity: 1; white-space: pre; opacity: 1;" transform="translate(0,153.43)">$−100k</text></g><g class="ytick"><text text-anchor="end" x="79" y="4.199999999999999" style="font-family: 'Open Sans', verdana, arial, sans-serif; font-size: 12px; fill: rgb(42, 63, 95); fill-opacity: 1; white-space: pre; opacity: 1;" transform="translate(0,100)">$0</text></g></g><g class="overaxes-above"/></g></g><g class="polarlayer"/><g class="smithlayer"/><g class="ternarylayer"/><g class="geolayer"/><g class="funnelarealayer"/><g class="pielayer"/><g class="iciclelayer"/><g class="treemaplayer"/><g class="sunburstlayer"/><g class="glimages"/><defs id="topdefs-44c163"><g class="clips"/></defs><g class="layer-above"><g class="imagelayer"/><g class="shapelayer"/></g><g class="infolayer"><g class="g-gtitle"><text class="gtitle" x="35" y="50" text-anchor="start" dy="0em" style="font-family: 'Open Sans', verdana, arial, sans-serif; font-size: 17px; fill: rgb(42, 63, 95); opacity: 1; font-weight: normal; white-space: pre;"><tspan class="line" dy="0em" x="35" y="50">Clipper</tspan><tspan class="line" dy="1.3em" x="35" y="50">​<tspan style="font-size:70%" dy="-0.6em">Cumulative Net Flows since Program Announcement, Until Program End + 30 Days - At Last Price</tspan><tspan dy="0.42em">​</tspan></tspan></text></g><g class="g-xtitle"><text class="xtitle" x="350" y="460.3" text-anchor="middle" style="font-family: 'Open Sans', verdana, arial, sans-serif; font-size: 14px; fill: rgb(42, 63, 95); opacity: 1; font-weight: normal; white-space: pre;">Day</text></g><g class="g-ytitle"><text class="ytitle" transform="rotate(-90,14.996875000000003,260)" x="14.996875000000003" y="260" text-anchor="middle" style="font-family: 'Open Sans', verdana, arial, sans-serif; font-size: 14px; fill: rgb(42, 63, 95); opacity: 1; font-weight: normal; white-space: pre;">Cumulative Net Flows (USD)</text></g></g></svg>