<svg class="main-svg" xmlns="http://www.w3.org/2000/svg" xmlns:xlink="http://www.w3.org/1999/xlink" width="700" height="500" style="" viewBox="0 0 700 500"><rect x="0" y="0" width="700" height="500" style="fill: rgb(255, 255, 255); fill-opacity: 1;"/><defs id="defs-94f589"><g class="clips"><clipPath id="clip94f589xyplot" class="plotclip"><rect width="540" height="320"/></clipPath><clipPath class="axesclip" id="clip94f589x"><rect x="80" y="0" width="540" height="500"/></clipPath><clipPath class="axesclip" id="clip94f589y"><rect x="0" y="100" width="700" height="320"/></clipPath><clipPath class="axesclip" id="clip94f589xy"><rect x="80" y="100" width="540" height="320"/></clipPath></g><g class="gradients"/><g class="patterns"/></defs><g class="bglayer"><rect class="bg" x="80" y="100" width="540" height="320" style="fill: rgb(229, 236, 246); fill-opacity: 1; stroke-width: 0;"/></g><g class="layer-below"><g class="imagelayer"/><g class="shapelayer"/></g><g class="cartesianlayer"><g class="subplot xy"><g class="layer-subplot"><g class="shapelayer"/><g class="imagelayer"/></g><g class="minor-gridlayer"><g class="x"/><g class="y"/></g><g class="gridlayer"><g class="x"><path class="xgrid crisp" transform="translate(126.83,0)" d="M0,100v320" style="stroke: rgb(255, 255, 255); stroke-opacity: 1; stroke-width: 1px;"/><path class="xgrid crisp" transform="translate(213.17,0)" d="M0,100v320" style="stroke: rgb(255, 255, 255); stroke-opacity: 1; stroke-width: 1px;"/><path class="xgrid crisp" transform="translate(302.44,0)" d="M0,100v320" style="stroke: rgb(255, 255, 255); stroke-opacity: 1; stroke-width: 1px;"/><path class="xgrid crisp" transform="translate(391.71,0)" d="M0,100v320" style="stroke: rgb(255, 255, 255); stroke-opacity: 1; stroke-width: 1px;"/><path class="xgrid crisp" transform="translate(482.44,0)" d="M0,100v320" style="stroke: rgb(255, 255, 255); stroke-opacity: 1; stroke-width: 1px;"/><path class="xgrid crisp" transform="translate(571.71,0)" d="M0,100v320" style="stroke: rgb(255, 255, 255); stroke-opacity: 1; stroke-width: 1px;"/></g><g class="y"><path class="ygrid crisp" transform="translate(0,339.7)" d="M80,0h540" style="stroke: rgb(255, 255, 255); stroke-opacity: 1; stroke-width: 1px;"/><path class="ygrid crisp" transform="translate(0,292.87)" d="M80,0h540" style="stroke: rgb(255, 255, 255); stroke-opacity: 1; stroke-width: 1px;"/><path class="ygrid crisp" transform="translate(0,246.04)" d="M80,0h540" style="stroke: rgb(255, 255, 255); stroke-opacity: 1; stroke-width: 1px;"/><path class="ygrid crisp" transform="translate(0,199.20999999999998)" d="M80,0h540" style="stroke: rgb(255, 255, 255); stroke-opacity: 1; stroke-width: 1px;"/><path class="ygrid crisp" transform="translate(0,152.38)" d="M80,0h540" style="stroke: rgb(255, 255, 255); stroke-opacity: 1; stroke-width: 1px;"/><path class="ygrid crisp" transform="translate(0,105.55)" d="M80,0h540" style="stroke: rgb(255, 255, 255); stroke-opacity: 1; stroke-width: 1px;"/></g></g><g class="zerolinelayer"><path class="yzl zl crisp" transform="translate(0,386.53)" d="M80,0h540" style="stroke: rgb(255, 255, 255); stroke-opacity: 1; stroke-width: 2px;"/></g><path class="xlines-below"/><path class="ylines-below"/><g class="overlines-below"/><g class="xaxislayer-below"/><g class="yaxislayer-below"/><g class="overaxes-below"/><g class="plot" transform="translate(80,100)" clip-path="url(#clip94f589xyplot)"><g class="scatterlayer mlayer"><g class="trace scatter traced9c707" style="stroke-miterlimit: 2;"><g class="fills"><g><path class="js-fill" d="M540,286.53L0,286.53L0,292.96L1.46,304L2.93,290.61L4.39,286.83L5.85,254.22L7.32,260.76L8.78,262.27L10.24,260.32L11.71,247.5L19.02,231.7L20.49,238.96L21.95,218.41L23.41,221.2L24.88,222.28L26.34,151.5L27.8,154.74L29.27,154.76L30.73,148.92L32.2,154.88L33.66,142.18L35.12,144.12L39.51,143.34L40.98,154.05L42.44,153.72L43.9,155.07L45.37,153.92L46.83,102.17L48.29,119.61L49.76,120.18L51.22,115.23L52.68,103.44L54.15,114.81L55.61,117.76L57.07,118.23L58.54,117.14L60,111.47L61.46,112.4L62.93,108.2L64.39,112.89L68.78,61.3L70.24,59.91L71.71,57.5L73.17,36.64L74.63,40.57L76.1,25.97L77.56,27.22L79.02,24.13L80.49,26.89L81.95,36.93L83.41,31.05L84.88,33.97L86.34,34.29L87.8,31.85L89.27,25.05L90.73,30.67L92.2,28.28L93.66,17.04L95.12,18.82L96.59,16.96L98.05,23.76L99.51,16L102.44,27.78L103.9,47.68L105.37,135.07L106.83,174.25L108.29,181.86L109.76,181.98L111.22,182.01L112.68,178.68L115.61,129.63L117.07,124.42L118.54,122.48L120,116.17L121.46,119.04L122.93,131.95L124.39,127.53L125.85,125.67L127.32,126.69L128.78,126.35L130.24,131.43L131.71,133.69L133.17,176.26L134.63,177.68L136.1,179.62L137.56,183.43L139.02,185.3L140.49,188.55L141.95,172.28L143.41,186.35L144.88,182.4L146.34,163.49L147.8,166.81L149.27,177.97L150.73,178.42L152.2,176.41L155.12,154.68L156.59,147.47L158.05,138.9L159.51,158.61L160.98,150.17L162.44,156.2L163.9,151.66L165.37,158.61L166.83,152.72L168.29,154.59L169.76,143.54L171.22,141.1L172.68,155.59L174.15,156.62L175.61,166.88L177.07,165.63L180,170.01L181.46,161.53L182.93,160.45L184.39,153.62L185.85,155.96L187.32,154.22L188.78,152.18L190.24,158.22L193.17,154.78L194.63,156.89L197.56,152.76L199.02,157.43L200.49,157.67L201.95,161.41L203.41,162.69L204.88,172.4L206.34,167.72L207.8,170.94L209.27,181.56L210.73,181.78L212.2,185.11L213.66,184.85L215.12,178.85L216.59,178.59L218.05,171.34L219.51,172.28L220.98,171.58L222.44,173.97L223.9,176.85L225.37,176.45L226.83,164.14L228.29,181.38L229.76,175.73L231.22,180.59L232.68,177.24L234.15,179.07L235.61,213.7L237.07,211.67L238.54,172.21L240,173.86L241.46,174.36L242.93,179.99L244.39,186L245.85,175.85L247.32,175.74L248.78,178.36L250.24,169.25L251.71,172.15L253.17,176.05L254.63,167.44L256.1,162.7L257.56,172.68L259.02,174.39L260.49,169.6L261.95,172.19L263.41,169.17L269.27,168.1L270.73,157.59L272.2,144.69L273.66,144.31L276.59,130.3L278.05,142.38L279.51,135.23L280.98,135.21L282.44,124.65L283.9,129.45L285.37,128.38L286.83,132.85L288.29,137.55L289.76,157.72L291.22,162.29L292.68,161.84L295.61,161.17L297.07,156.52L298.54,141.34L300,157.53L301.46,152.8L302.93,153.35L305.85,152.79L307.32,147.37L308.78,155.64L310.24,82.65L311.71,81.02L313.17,81.13L314.63,78.69L316.1,77.82L317.56,75.79L319.02,78.72L321.95,94.17L323.41,92.01L324.88,94.27L326.34,90.21L327.8,89.16L329.27,81.91L330.73,68.69L332.2,76.75L333.66,76.23L335.12,76.55L336.59,77.98L338.05,77.75L339.51,56.93L340.98,60.28L342.44,59.98L343.9,62.34L345.37,53.88L346.83,59.82L348.29,58.55L349.76,60.6L352.68,107.89L354.15,96.5L355.61,127.91L357.07,119.29L358.54,133.39L360,136.94L361.46,159.18L362.93,147.54L364.39,149.19L365.85,146.47L367.32,145.77L368.78,147.16L370.24,148.57L371.71,152.66L373.17,151.46L374.63,152.72L376.1,155.07L377.56,161.62L379.02,165.85L380.49,159.82L381.95,163.12L383.41,158.75L384.88,156.71L386.34,157.08L387.8,153.24L389.27,155.29L390.73,152.95L392.2,132.34L393.66,131.44L395.12,145.04L396.59,176.41L398.05,176.6L399.51,169.77L400.98,180.05L402.44,185.48L403.9,184.2L406.83,182.07L408.29,183.52L411.22,182.74L412.68,181.73L415.61,183.49L417.07,190.23L418.54,195L420,191.1L421.46,192.95L422.93,191.58L425.85,191.15L427.32,191.97L428.78,189.07L430.24,189.66L433.17,191.83L434.63,190.76L436.1,190.22L437.56,191.38L439.02,193.39L440.49,190.13L441.95,192.08L443.41,188.69L446.34,187.1L447.8,182.66L449.27,187.35L450.73,189.05L452.2,188.36L453.66,190.34L455.12,190.21L456.59,189.14L458.05,193.29L459.51,193.07L460.98,193.77L462.44,192.42L463.9,196.61L465.37,194.7L468.29,195.03L469.76,190.66L471.22,197.32L472.68,197.1L474.15,280.55L475.61,279.64L478.54,277.33L480,273.69L481.46,276.04L482.93,275.37L484.39,274.7L485.85,275.13L487.32,275.03L488.78,274.16L490.24,273.89L491.71,275.02L493.17,281.94L494.63,282.44L500.49,282.29L501.95,282.34L503.41,281.92L504.88,276.68L510.73,277.45L512.2,278.49L513.66,275.47L515.12,242.95L516.59,244.74L518.05,243.47L519.51,245.19L520.98,245.46L522.44,249.7L523.9,244.89L525.37,243.34L526.83,243.82L528.29,244.34L529.76,243.81L531.22,245.65L532.68,245.94L534.15,246.35L535.61,290.52L537.07,292.78L538.54,290.42L540,285.1" style="fill: rgb(99, 110, 250); fill-opacity: 0.5; stroke-width: 0;"/></g></g><g class="errorbars"/><g class="lines"><path class="js-line" d="M0,292.96L1.46,304L2.93,290.61L4.39,286.83L5.85,254.22L7.32,260.76L8.78,262.27L10.24,260.32L11.71,247.5L19.02,231.7L20.49,238.96L21.95,218.41L23.41,221.2L24.88,222.28L26.34,151.5L27.8,154.74L29.27,154.76L30.73,148.92L32.2,154.88L33.66,142.18L35.12,144.12L39.51,143.34L40.98,154.05L42.44,153.72L43.9,155.07L45.37,153.92L46.83,102.17L48.29,119.61L49.76,120.18L51.22,115.23L52.68,103.44L54.15,114.81L55.61,117.76L57.07,118.23L58.54,117.14L60,111.47L61.46,112.4L62.93,108.2L64.39,112.89L68.78,61.3L70.24,59.91L71.71,57.5L73.17,36.64L74.63,40.57L76.1,25.97L77.56,27.22L79.02,24.13L80.49,26.89L81.95,36.93L83.41,31.05L84.88,33.97L86.34,34.29L87.8,31.85L89.27,25.05L90.73,30.67L92.2,28.28L93.66,17.04L95.12,18.82L96.59,16.96L98.05,23.76L99.51,16L102.44,27.78L103.9,47.68L105.37,135.07L106.83,174.25L108.29,181.86L109.76,181.98L111.22,182.01L112.68,178.68L115.61,129.63L117.07,124.42L118.54,122.48L120,116.17L121.46,119.04L122.93,131.95L124.39,127.53L125.85,125.67L127.32,126.69L128.78,126.35L130.24,131.43L131.71,133.69L133.17,176.26L134.63,177.68L136.1,179.62L137.56,183.43L139.02,185.3L140.49,188.55L141.95,172.28L143.41,186.35L144.88,182.4L146.34,163.49L147.8,166.81L149.27,177.97L150.73,178.42L152.2,176.41L155.12,154.68L156.59,147.47L158.05,138.9L159.51,158.61L160.98,150.17L162.44,156.2L163.9,151.66L165.37,158.61L166.83,152.72L168.29,154.59L169.76,143.54L171.22,141.1L172.68,155.59L174.15,156.62L175.61,166.88L177.07,165.63L180,170.01L181.46,161.53L182.93,160.45L184.39,153.62L185.85,155.96L187.32,154.22L188.78,152.18L190.24,158.22L193.17,154.78L194.63,156.89L197.56,152.76L199.02,157.43L200.49,157.67L201.95,161.41L203.41,162.69L204.88,172.4L206.34,167.72L207.8,170.94L209.27,181.56L210.73,181.78L212.2,185.11L213.66,184.85L215.12,178.85L216.59,178.59L218.05,171.34L219.51,172.28L220.98,171.58L222.44,173.97L223.9,176.85L225.37,176.45L226.83,164.14L228.29,181.38L229.76,175.73L231.22,180.59L232.68,177.24L234.15,179.07L235.61,213.7L237.07,211.67L238.54,172.21L240,173.86L241.46,174.36L242.93,179.99L244.39,186L245.85,175.85L247.32,175.74L248.78,178.36L250.24,169.25L251.71,172.15L253.17,176.05L254.63,167.44L256.1,162.7L257.56,172.68L259.02,174.39L260.49,169.6L261.95,172.19L263.41,169.17L269.27,168.1L270.73,157.59L272.2,144.69L273.66,144.31L276.59,130.3L278.05,142.38L279.51,135.23L280.98,135.21L282.44,124.65L283.9,129.45L285.37,128.38L286.83,132.85L288.29,137.55L289.76,157.72L291.22,162.29L292.68,161.84L295.61,161.17L297.07,156.52L298.54,141.34L300,157.53L301.46,152.8L302.93,153.35L305.85,152.79L307.32,147.37L308.78,155.64L310.24,82.65L311.71,81.02L313.17,81.13L314.63,78.69L316.1,77.82L317.56,75.79L319.02,78.72L321.95,94.17L323.41,92.01L324.88,94.27L326.34,90.21L327.8,89.16L329.27,81.91L330.73,68.69L332.2,76.75L333.66,76.23L335.12,76.55L336.59,77.98L338.05,77.75L339.51,56.93L340.98,60.28L342.44,59.98L343.9,62.34L345.37,53.88L346.83,59.82L348.29,58.55L349.76,60.6L352.68,107.89L354.15,96.5L355.61,127.91L357.07,119.29L358.54,133.39L360,136.94L361.46,159.18L362.93,147.54L364.39,149.19L365.85,146.47L367.32,145.77L368.78,147.16L370.24,148.57L371.71,152.66L373.17,151.46L374.63,152.72L376.1,155.07L377.56,161.62L379.02,165.85L380.49,159.82L381.95,163.12L383.41,158.75L384.88,156.71L386.34,157.08L387.8,153.24L389.27,155.29L390.73,152.95L392.2,132.34L393.66,131.44L395.12,145.04L396.59,176.41L398.05,176.6L399.51,169.77L400.98,180.05L402.44,185.48L403.9,184.2L406.83,182.07L408.29,183.52L411.22,182.74L412.68,181.73L415.61,183.49L417.07,190.23L418.54,195L420,191.1L421.46,192.95L422.93,191.58L425.85,191.15L427.32,191.97L428.78,189.07L430.24,189.66L433.17,191.83L434.63,190.76L436.1,190.22L437.56,191.38L439.02,193.39L440.49,190.13L441.95,192.08L443.41,188.69L446.34,187.1L447.8,182.66L449.27,187.35L450.73,189.05L452.2,188.36L453.66,190.34L455.12,190.21L456.59,189.14L458.05,193.29L459.51,193.07L460.98,193.77L462.44,192.42L463.9,196.61L465.37,194.7L468.29,195.03L469.76,190.66L471.22,197.32L472.68,197.1L474.15,280.55L475.61,279.64L478.54,277.33L480,273.69L481.46,276.04L482.93,275.37L484.39,274.7L485.85,275.13L487.32,275.03L488.78,274.16L490.24,273.89L491.71,275.02L493.17,281.94L494.63,282.44L500.49,282.29L501.95,282.34L503.41,281.92L504.88,276.68L510.73,277.45L512.2,278.49L513.66,275.47L515.12,242.95L516.59,244.74L518.05,243.47L519.51,245.19L520.98,245.46L522.44,249.7L523.9,244.89L525.37,243.34L526.83,243.82L528.29,244.34L529.76,243.81L531.22,245.65L532.68,245.94L534.15,246.35L535.61,290.52L537.07,292.78L538.54,290.42L540,285.1" style="vector-effect: none; fill: none; stroke: rgb(99, 110, 250); stroke-opacity: 1; stroke-width: 2px; opacity: 1;"/></g><g class="points"/><g class="text"/></g></g></g><g class="overplot"/><path class="xlines-above crisp" d="M0,0" style="fill: none;"/><path class="ylines-above crisp" d="M0,0" style="fill: none;"/><g class="overlines-above"/><g class="xaxislayer-above"><g class="xtick"><text text-anchor="middle" x="0" y="433" transform="translate(126.83,0)" style="font-family: 'Open Sans', verdana, arial, sans-serif; font-size: 12px; fill: rgb(42, 63, 95); fill-opacity: 1; white-space: pre; opacity: 1;">Jan 2023</text></g><g class="xtick"><text text-anchor="middle" x="0" y="433" style="font-family: 'Open Sans', verdana, arial, sans-serif; font-size: 12px; fill: rgb(42, 63, 95); fill-opacity: 1; white-space: pre; opacity: 1;" transform="translate(213.17,0)">Mar 2023</text></g><g class="xtick"><text text-anchor="middle" x="0" y="433" style="font-family: 'Open Sans', verdana, arial, sans-serif; font-size: 12px; fill: rgb(42, 63, 95); fill-opacity: 1; white-space: pre; opacity: 1;" transform="translate(302.44,0)">May 2023</text></g><g class="xtick"><text text-anchor="middle" x="0" y="433" style="font-family: 'Open Sans', verdana, arial, sans-serif; font-size: 12px; fill: rgb(42, 63, 95); fill-opacity: 1; white-space: pre; opacity: 1;" transform="translate(391.71,0)">Jul 2023</text></g><g class="xtick"><text text-anchor="middle" x="0" y="433" style="font-family: 'Open Sans', verdana, arial, sans-serif; font-size: 12px; fill: rgb(42, 63, 95); fill-opacity: 1; white-space: pre; opacity: 1;" transform="translate(482.44,0)">Sep 2023</text></g><g class="xtick"><text text-anchor="middle" x="0" y="433" style="font-family: 'Open Sans', verdana, arial, sans-serif; font-size: 12px; fill: rgb(42, 63, 95); fill-opacity: 1; white-space: pre; opacity: 1;" transform="translate(571.71,0)">Nov 2023</text></g></g><g class="yaxislayer-above"><g class="ytick"><text text-anchor="end" x="79" y="4.199999999999999" transform="translate(0,386.53)" style="font-family: 'Open Sans', verdana, arial, sans-serif; font-size: 12px; fill: rgb(42, 63, 95); fill-opacity: 1; white-space: pre; opacity: 1;">$0</text></g><g class="ytick"><text text-anchor="end" x="79" y="4.199999999999999" style="font-family: 'Open Sans', verdana, arial, sans-serif; font-size: 12px; fill: rgb(42, 63, 95); fill-opacity: 1; white-space: pre; opacity: 1;" transform="translate(0,339.7)">$2M</text></g><g class="ytick"><text text-anchor="end" x="79" y="4.199999999999999" style="font-family: 'Open Sans', verdana, arial, sans-serif; font-size: 12px; fill: rgb(42, 63, 95); fill-opacity: 1; white-space: pre; opacity: 1;" transform="translate(0,292.87)">$4M</text></g><g class="ytick"><text text-anchor="end" x="79" y="4.199999999999999" style="font-family: 'Open Sans', verdana, arial, sans-serif; font-size: 12px; fill: rgb(42, 63, 95); fill-opacity: 1; white-space: pre; opacity: 1;" transform="translate(0,246.04)">$6M</text></g><g class="ytick"><text text-anchor="end" x="79" y="4.199999999999999" style="font-family: 'Open Sans', verdana, arial, sans-serif; font-size: 12px; fill: rgb(42, 63, 95); fill-opacity: 1; white-space: pre; opacity: 1;" transform="translate(0,199.20999999999998)">$8M</text></g><g class="ytick"><text text-anchor="end" x="79" y="4.199999999999999" style="font-family: 'Open Sans', verdana, arial, sans-serif; font-size: 12px; fill: rgb(42, 63, 95); fill-opacity: 1; white-space: pre; opacity: 1;" transform="translate(0,152.38)">$10M</text></g><g class="ytick"><text text-anchor="end" x="79" y="4.199999999999999" style="font-family: 'Open Sans', verdana, arial, sans-serif; font-size: 12px; fill: rgb(42, 63, 95); fill-opacity: 1; white-space: pre; opacity: 1;" transform="translate(0,105.55)">$12M</text></g></g><g class="overaxes-above"/></g></g><g class="polarlayer"/><g class="smithlayer"/><g class="ternarylayer"/><g class="geolayer"/><g class="funnelarealayer"/><g class="pielayer"/><g class="iciclelayer"/><g class="treemaplayer"/><g class="sunburstlayer"/><g class="glimages"/><defs id="topdefs-94f589"><g class="clips"/></defs><g class="layer-above"><g class="imagelayer"/><g class="shapelayer"/></g><g class="infolayer"><g class="g-gtitle"><text class="gtitle" x="35" y="50" text-anchor="start" dy="0em" style="font-family: 'Open Sans', verdana, arial, sans-serif; font-size: 17px; fill: rgb(42, 63, 95); opacity: 1; font-weight: normal; white-space: pre;"><tspan class="line" dy="0em" x="35" y="50">Dforce</tspan><tspan class="line" dy="1.3em" x="35" y="50">​<tspan style="font-size:70%" dy="-0.6em">Cumulative Net Flows since Program Announcement, Until Program End + 30 Days - At Last Price</tspan><tspan dy="0.42em">​</tspan></tspan></text></g><g class="g-xtitle"><text class="xtitle" x="350" y="460.3" text-anchor="middle" style="font-family: 'Open Sans', verdana, arial, sans-serif; font-size: 14px; fill: rgb(42, 63, 95); opacity: 1; font-weight: normal; white-space: pre;">Day</text></g><g class="g-ytitle"><text class="ytitle" transform="rotate(-90,24.668750000000003,260)" x="24.668750000000003" y="260" text-anchor="middle" style="font-family: 'Open Sans', verdana, arial, sans-serif; font-size: 14px; fill: rgb(42, 63, 95); opacity: 1; font-weight: normal; white-space: pre;">Cumulative Net Flows (USD)</text></g></g></svg>