<svg class="main-svg" xmlns="http://www.w3.org/2000/svg" xmlns:xlink="http://www.w3.org/1999/xlink" width="700" height="500" style="" viewBox="0 0 700 500"><rect x="0" y="0" width="700" height="500" style="fill: rgb(255, 255, 255); fill-opacity: 1;"/><defs id="defs-8ade6e"><g class="clips"><clipPath id="clip8ade6exyplot" class="plotclip"><rect width="540" height="320"/></clipPath><clipPath class="axesclip" id="clip8ade6ex"><rect x="80" y="0" width="540" height="500"/></clipPath><clipPath class="axesclip" id="clip8ade6ey"><rect x="0" y="100" width="700" height="320"/></clipPath><clipPath class="axesclip" id="clip8ade6exy"><rect x="80" y="100" width="540" height="320"/></clipPath></g><g class="gradients"/><g class="patterns"/></defs><g class="bglayer"><rect class="bg" x="80" y="100" width="540" height="320" style="fill: rgb(229, 236, 246); fill-opacity: 1; stroke-width: 0;"/></g><g class="layer-below"><g class="imagelayer"/><g class="shapelayer"/></g><g class="cartesianlayer"><g class="subplot xy"><g class="layer-subplot"><g class="shapelayer"/><g class="imagelayer"/></g><g class="minor-gridlayer"><g class="x"/><g class="y"/></g><g class="gridlayer"><g class="x"><path class="xgrid crisp" transform="translate(129.09,0)" d="M0,100v320" style="stroke: rgb(255, 255, 255); stroke-opacity: 1; stroke-width: 1px;"/><path class="xgrid crisp" transform="translate(201.56,0)" d="M0,100v320" style="stroke: rgb(255, 255, 255); stroke-opacity: 1; stroke-width: 1px;"/><path class="xgrid crisp" transform="translate(271.69,0)" d="M0,100v320" style="stroke: rgb(255, 255, 255); stroke-opacity: 1; stroke-width: 1px;"/><path class="xgrid crisp" transform="translate(344.16,0)" d="M0,100v320" style="stroke: rgb(255, 255, 255); stroke-opacity: 1; stroke-width: 1px;"/><path class="xgrid crisp" transform="translate(414.29,0)" d="M0,100v320" style="stroke: rgb(255, 255, 255); stroke-opacity: 1; stroke-width: 1px;"/><path class="xgrid crisp" transform="translate(486.75,0)" d="M0,100v320" style="stroke: rgb(255, 255, 255); stroke-opacity: 1; stroke-width: 1px;"/><path class="xgrid crisp" transform="translate(559.22,0)" d="M0,100v320" style="stroke: rgb(255, 255, 255); stroke-opacity: 1; stroke-width: 1px;"/></g><g class="y"><path class="ygrid crisp" transform="translate(0,325.37)" d="M80,0h540" style="stroke: rgb(255, 255, 255); stroke-opacity: 1; stroke-width: 1px;"/><path class="ygrid crisp" transform="translate(0,271.02)" d="M80,0h540" style="stroke: rgb(255, 255, 255); stroke-opacity: 1; stroke-width: 1px;"/><path class="ygrid crisp" transform="translate(0,216.66)" d="M80,0h540" style="stroke: rgb(255, 255, 255); stroke-opacity: 1; stroke-width: 1px;"/><path class="ygrid crisp" transform="translate(0,162.31)" d="M80,0h540" style="stroke: rgb(255, 255, 255); stroke-opacity: 1; stroke-width: 1px;"/><path class="ygrid crisp" transform="translate(0,107.96)" d="M80,0h540" style="stroke: rgb(255, 255, 255); stroke-opacity: 1; stroke-width: 1px;"/></g></g><g class="zerolinelayer"><path class="yzl zl crisp" transform="translate(0,379.72)" d="M80,0h540" style="stroke: rgb(255, 255, 255); stroke-opacity: 1; stroke-width: 2px;"/></g><path class="xlines-below"/><path class="ylines-below"/><g class="overlines-below"/><g class="xaxislayer-below"/><g class="yaxislayer-below"/><g class="overaxes-below"/><g class="plot" transform="translate(80,100)" clip-path="url(#clip8ade6exyplot)"><g class="scatterlayer mlayer"><g class="trace scatter traceaf3e92" style="stroke-miterlimit: 2;"><g class="fills"><g><path class="js-fill" d="M540,279.72L0,279.72L0,274.34L2.34,243.94L4.68,234.16L7.01,224.59L9.35,220.7L11.69,218.29L14.03,217.05L16.36,217.28L18.7,208.78L21.04,195.21L23.38,192.24L25.71,183.44L28.05,154.15L32.73,145.96L35.06,133.66L37.4,111.12L39.74,107.56L42.08,105.09L44.42,98.56L49.09,96.27L51.43,92.62L63.12,75.84L65.45,74.59L70.13,80.94L72.47,82.2L74.81,82.55L77.14,82.02L79.48,63.77L81.82,61.6L84.16,59.38L86.49,59.08L88.83,59.28L91.17,56.79L93.51,54.97L95.84,69.44L100.52,70.03L102.86,66.54L105.19,67.68L107.53,67.15L109.87,62.56L112.21,63.79L114.55,59.32L116.88,60.41L119.22,58.05L121.56,47.95L123.9,47.12L126.23,49.16L128.57,47.02L130.91,46.15L133.25,42.31L135.58,40.3L137.92,40.26L140.26,46.92L147.27,76.06L149.61,75.52L154.29,54.09L156.62,58.19L158.96,31.44L161.3,30.25L163.64,27.6L165.97,21.79L168.31,23.21L170.65,21.88L172.99,25.17L175.32,24.88L177.66,22.41L180,21.64L182.34,16L184.68,16.54L189.35,16.89L191.69,18.62L194.03,33.42L196.36,33.73L203.38,52.8L205.71,61.69L208.05,69.95L210.39,73.15L215.06,74.48L217.4,89.09L229.09,90.2L231.43,94.51L236.1,94.5L238.44,95.57L240.78,94.8L243.12,79.54L245.45,81.24L247.79,84.29L250.13,85.25L252.47,89.24L254.81,113.8L257.14,114.15L259.48,114.57L261.82,119.29L264.16,120.98L266.49,132.6L268.83,132.93L271.17,134.19L285.19,134.58L287.53,134.97L294.55,136.34L296.88,142.41L303.9,140.82L306.23,141L308.57,141.34L310.91,126.15L313.25,153.14L315.58,158.03L317.92,159.76L320.26,164.08L322.6,176.02L324.94,179.93L329.61,196.62L331.95,200.74L336.62,206.15L338.96,214.95L343.64,215.62L345.97,216.26L350.65,217.21L352.99,264.53L362.34,265.37L364.68,270.66L374.03,271.02L376.36,291.33L383.38,291.95L385.71,292.25L413.77,292.89L416.1,295.44L437.14,295.76L439.48,299.67L514.29,300.22L516.62,304L518.96,300.11L521.3,300.11L532.99,300.31L535.32,303.77L537.66,300.28L540,303.77" style="fill: rgb(99, 110, 250); fill-opacity: 0.5; stroke-width: 0;"/></g></g><g class="errorbars"/><g class="lines"><path class="js-line" d="M0,274.34L2.34,243.94L4.68,234.16L7.01,224.59L9.35,220.7L11.69,218.29L14.03,217.05L16.36,217.28L18.7,208.78L21.04,195.21L23.38,192.24L25.71,183.44L28.05,154.15L32.73,145.96L35.06,133.66L37.4,111.12L39.74,107.56L42.08,105.09L44.42,98.56L49.09,96.27L51.43,92.62L63.12,75.84L65.45,74.59L70.13,80.94L72.47,82.2L74.81,82.55L77.14,82.02L79.48,63.77L81.82,61.6L84.16,59.38L86.49,59.08L88.83,59.28L91.17,56.79L93.51,54.97L95.84,69.44L100.52,70.03L102.86,66.54L105.19,67.68L107.53,67.15L109.87,62.56L112.21,63.79L114.55,59.32L116.88,60.41L119.22,58.05L121.56,47.95L123.9,47.12L126.23,49.16L128.57,47.02L130.91,46.15L133.25,42.31L135.58,40.3L137.92,40.26L140.26,46.92L147.27,76.06L149.61,75.52L154.29,54.09L156.62,58.19L158.96,31.44L161.3,30.25L163.64,27.6L165.97,21.79L168.31,23.21L170.65,21.88L172.99,25.17L175.32,24.88L177.66,22.41L180,21.64L182.34,16L184.68,16.54L189.35,16.89L191.69,18.62L194.03,33.42L196.36,33.73L203.38,52.8L205.71,61.69L208.05,69.95L210.39,73.15L215.06,74.48L217.4,89.09L229.09,90.2L231.43,94.51L236.1,94.5L238.44,95.57L240.78,94.8L243.12,79.54L245.45,81.24L247.79,84.29L250.13,85.25L252.47,89.24L254.81,113.8L257.14,114.15L259.48,114.57L261.82,119.29L264.16,120.98L266.49,132.6L268.83,132.93L271.17,134.19L285.19,134.58L287.53,134.97L294.55,136.34L296.88,142.41L303.9,140.82L306.23,141L308.57,141.34L310.91,126.15L313.25,153.14L315.58,158.03L317.92,159.76L320.26,164.08L322.6,176.02L324.94,179.93L329.61,196.62L331.95,200.74L336.62,206.15L338.96,214.95L343.64,215.62L345.97,216.26L350.65,217.21L352.99,264.53L362.34,265.37L364.68,270.66L374.03,271.02L376.36,291.33L383.38,291.95L385.71,292.25L413.77,292.89L416.1,295.44L437.14,295.76L439.48,299.67L514.29,300.22L516.62,304L518.96,300.11L521.3,300.11L532.99,300.31L535.32,303.77L537.66,300.28L540,303.77" style="vector-effect: none; fill: none; stroke: rgb(99, 110, 250); stroke-opacity: 1; stroke-width: 2px; opacity: 1;"/></g><g class="points"/><g class="text"/></g></g></g><g class="overplot"/><path class="xlines-above crisp" d="M0,0" style="fill: none;"/><path class="ylines-above crisp" d="M0,0" style="fill: none;"/><g class="overlines-above"/><g class="xaxislayer-above"><g class="xtick"><text text-anchor="middle" x="0" y="433" transform="translate(129.09,0)" style="font-family: 'Open Sans', verdana, arial, sans-serif; font-size: 12px; fill: rgb(42, 63, 95); fill-opacity: 1; white-space: pre; opacity: 1;">Mar 2023</text></g><g class="xtick"><text text-anchor="middle" x="0" y="433" style="font-family: 'Open Sans', verdana, arial, sans-serif; font-size: 12px; fill: rgb(42, 63, 95); fill-opacity: 1; white-space: pre; opacity: 1;" transform="translate(201.56,0)">Apr 2023</text></g><g class="xtick"><text text-anchor="middle" x="0" y="433" style="font-family: 'Open Sans', verdana, arial, sans-serif; font-size: 12px; fill: rgb(42, 63, 95); fill-opacity: 1; white-space: pre; opacity: 1;" transform="translate(271.69,0)">May 2023</text></g><g class="xtick"><text text-anchor="middle" x="0" y="433" style="font-family: 'Open Sans', verdana, arial, sans-serif; font-size: 12px; fill: rgb(42, 63, 95); fill-opacity: 1; white-space: pre; opacity: 1;" transform="translate(344.16,0)">Jun 2023</text></g><g class="xtick"><text text-anchor="middle" x="0" y="433" style="font-family: 'Open Sans', verdana, arial, sans-serif; font-size: 12px; fill: rgb(42, 63, 95); fill-opacity: 1; white-space: pre; opacity: 1;" transform="translate(414.29,0)">Jul 2023</text></g><g class="xtick"><text text-anchor="middle" x="0" y="433" style="font-family: 'Open Sans', verdana, arial, sans-serif; font-size: 12px; fill: rgb(42, 63, 95); fill-opacity: 1; white-space: pre; opacity: 1;" transform="translate(486.75,0)">Aug 2023</text></g><g class="xtick"><text text-anchor="middle" x="0" y="433" style="font-family: 'Open Sans', verdana, arial, sans-serif; font-size: 12px; fill: rgb(42, 63, 95); fill-opacity: 1; white-space: pre; opacity: 1;" transform="translate(559.22,0)">Sep 2023</text></g></g><g class="yaxislayer-above"><g class="ytick"><text text-anchor="end" x="79" y="4.199999999999999" transform="translate(0,379.72)" style="font-family: 'Open Sans', verdana, arial, sans-serif; font-size: 12px; fill: rgb(42, 63, 95); fill-opacity: 1; white-space: pre; opacity: 1;">$0</text></g><g class="ytick"><text text-anchor="end" x="79" y="4.199999999999999" style="font-family: 'Open Sans', verdana, arial, sans-serif; font-size: 12px; fill: rgb(42, 63, 95); fill-opacity: 1; white-space: pre; opacity: 1;" transform="translate(0,325.37)">$5M</text></g><g class="ytick"><text text-anchor="end" x="79" y="4.199999999999999" style="font-family: 'Open Sans', verdana, arial, sans-serif; font-size: 12px; fill: rgb(42, 63, 95); fill-opacity: 1; white-space: pre; opacity: 1;" transform="translate(0,271.02)">$10M</text></g><g class="ytick"><text text-anchor="end" x="79" y="4.199999999999999" style="font-family: 'Open Sans', verdana, arial, sans-serif; font-size: 12px; fill: rgb(42, 63, 95); fill-opacity: 1; white-space: pre; opacity: 1;" transform="translate(0,216.66)">$15M</text></g><g class="ytick"><text text-anchor="end" x="79" y="4.199999999999999" style="font-family: 'Open Sans', verdana, arial, sans-serif; font-size: 12px; fill: rgb(42, 63, 95); fill-opacity: 1; white-space: pre; opacity: 1;" transform="translate(0,162.31)">$20M</text></g><g class="ytick"><text text-anchor="end" x="79" y="4.199999999999999" style="font-family: 'Open Sans', verdana, arial, sans-serif; font-size: 12px; fill: rgb(42, 63, 95); fill-opacity: 1; white-space: pre; opacity: 1;" transform="translate(0,107.96)">$25M</text></g></g><g class="overaxes-above"/></g></g><g class="polarlayer"/><g class="smithlayer"/><g class="ternarylayer"/><g class="geolayer"/><g class="funnelarealayer"/><g class="pielayer"/><g class="iciclelayer"/><g class="treemaplayer"/><g class="sunburstlayer"/><g class="glimages"/><defs id="topdefs-8ade6e"><g class="clips"/></defs><g class="layer-above"><g class="imagelayer"/><g class="shapelayer"/></g><g class="infolayer"><g class="g-gtitle"><text class="gtitle" x="35" y="50" text-anchor="start" dy="0em" style="font-family: 'Open Sans', verdana, arial, sans-serif; font-size: 17px; fill: rgb(42, 63, 95); opacity: 1; font-weight: normal; white-space: pre;"><tspan class="line" dy="0em" x="35" y="50">Rocket Pool - vWETH/rETH: Velodrome</tspan><tspan class="line" dy="1.3em" x="35" y="50">​<tspan style="font-size:70%" dy="-0.6em">Cumulative Net Flows since Program Announcement, Until Program End + 30 Days - At Last Price</tspan><tspan dy="0.42em">​</tspan></tspan></text></g><g class="g-xtitle"><text class="xtitle" x="350" y="460.3" text-anchor="middle" style="font-family: 'Open Sans', verdana, arial, sans-serif; font-size: 14px; fill: rgb(42, 63, 95); opacity: 1; font-weight: normal; white-space: pre;">Day</text></g><g class="g-ytitle"><text class="ytitle" transform="rotate(-90,24.668750000000003,260)" x="24.668750000000003" y="260" text-anchor="middle" style="font-family: 'Open Sans', verdana, arial, sans-serif; font-size: 14px; fill: rgb(42, 63, 95); opacity: 1; font-weight: normal; white-space: pre;">Cumulative Net Flows (USD)</text></g></g></svg>