<svg class="main-svg" xmlns="http://www.w3.org/2000/svg" xmlns:xlink="http://www.w3.org/1999/xlink" width="700" height="500" style="" viewBox="0 0 700 500"><rect x="0" y="0" width="700" height="500" style="fill: rgb(255, 255, 255); fill-opacity: 1;"/><defs id="defs-4d4976"><g class="clips"><clipPath id="clip4d4976xyplot" class="plotclip"><rect width="540" height="320"/></clipPath><clipPath class="axesclip" id="clip4d4976x"><rect x="80" y="0" width="540" height="500"/></clipPath><clipPath class="axesclip" id="clip4d4976y"><rect x="0" y="100" width="700" height="320"/></clipPath><clipPath class="axesclip" id="clip4d4976xy"><rect x="80" y="100" width="540" height="320"/></clipPath></g><g class="gradients"/><g class="patterns"/></defs><g class="bglayer"><rect class="bg" x="80" y="100" width="540" height="320" style="fill: rgb(229, 236, 246); fill-opacity: 1; stroke-width: 0;"/></g><g class="layer-below"><g class="imagelayer"/><g class="shapelayer"/></g><g class="cartesianlayer"><g class="subplot xy"><g class="layer-subplot"><g class="shapelayer"/><g class="imagelayer"/></g><g class="minor-gridlayer"><g class="x"/><g class="y"/></g><g class="gridlayer"><g class="x"><path class="xgrid crisp" transform="translate(86.69,0)" d="M0,100v320" style="stroke: rgb(255, 255, 255); stroke-opacity: 1; stroke-width: 1px;"/><path class="xgrid crisp" transform="translate(222.81,0)" d="M0,100v320" style="stroke: rgb(255, 255, 255); stroke-opacity: 1; stroke-width: 1px;"/><path class="xgrid crisp" transform="translate(358.93,0)" d="M0,100v320" style="stroke: rgb(255, 255, 255); stroke-opacity: 1; stroke-width: 1px;"/><path class="xgrid crisp" transform="translate(490.58,0)" d="M0,100v320" style="stroke: rgb(255, 255, 255); stroke-opacity: 1; stroke-width: 1px;"/></g><g class="y"><path class="ygrid crisp" transform="translate(0,343.1)" d="M80,0h540" style="stroke: rgb(255, 255, 255); stroke-opacity: 1; stroke-width: 1px;"/><path class="ygrid crisp" transform="translate(0,304.82)" d="M80,0h540" style="stroke: rgb(255, 255, 255); stroke-opacity: 1; stroke-width: 1px;"/><path class="ygrid crisp" transform="translate(0,266.55)" d="M80,0h540" style="stroke: rgb(255, 255, 255); stroke-opacity: 1; stroke-width: 1px;"/><path class="ygrid crisp" transform="translate(0,228.28)" d="M80,0h540" style="stroke: rgb(255, 255, 255); stroke-opacity: 1; stroke-width: 1px;"/><path class="ygrid crisp" transform="translate(0,190.01)" d="M80,0h540" style="stroke: rgb(255, 255, 255); stroke-opacity: 1; stroke-width: 1px;"/><path class="ygrid crisp" transform="translate(0,151.74)" d="M80,0h540" style="stroke: rgb(255, 255, 255); stroke-opacity: 1; stroke-width: 1px;"/><path class="ygrid crisp" transform="translate(0,113.47)" d="M80,0h540" style="stroke: rgb(255, 255, 255); stroke-opacity: 1; stroke-width: 1px;"/></g></g><g class="zerolinelayer"><path class="yzl zl crisp" transform="translate(0,381.37)" d="M80,0h540" style="stroke: rgb(255, 255, 255); stroke-opacity: 1; stroke-width: 2px;"/></g><path class="xlines-below"/><path class="ylines-below"/><g class="overlines-below"/><g class="xaxislayer-below"/><g class="yaxislayer-below"/><g class="overaxes-below"/><g class="plot" transform="translate(80,100)" clip-path="url(#clip4d4976xyplot)"><g class="scatterlayer mlayer"><g class="trace scatter trace8d64de" style="stroke-miterlimit: 2;"><g class="fills"><g><path class="js-fill" d="M540,281.37L0,281.37L0,281.27L8.93,279.04L11.16,277.25L15.62,276.02L17.85,257.5L22.31,225.99L24.55,209.29L29.01,203.92L31.24,199.47L33.47,185.37L35.7,180.95L40.17,180.13L42.4,162.03L44.63,164.19L46.86,153.67L49.09,155.07L51.32,140.15L53.55,133.02L55.79,130.06L58.02,114.82L60.25,112.52L62.48,110.86L64.71,121.27L66.94,128.99L69.17,127.3L71.4,126.5L73.64,123.79L78.1,122.41L80.33,114.13L82.56,118.17L84.79,114.13L87.02,111.23L89.26,112.38L91.49,111.86L93.72,113.12L98.18,110.75L100.41,113.37L102.64,114.91L104.88,113.53L107.11,111.1L109.34,111.53L111.57,113.36L113.8,113.35L124.96,114.5L127.19,120.09L131.65,120.3L133.88,115.22L138.35,113.22L140.58,112.94L142.81,111.16L145.04,107.8L147.27,106.81L149.5,109.34L153.97,109.77L156.2,108.64L160.66,105.66L162.89,114L165.12,122.62L167.36,121.27L169.59,119L171.82,124.36L174.05,130.8L176.28,129.9L178.51,130.98L180.74,133.77L182.98,135.03L185.21,134.24L189.67,133.19L191.9,131.64L194.13,136.25L196.36,135.53L200.83,134.89L203.06,133.67L205.29,138.3L207.52,138.73L211.98,138.34L214.21,136.58L218.68,137.11L220.91,135.26L223.14,138.26L225.37,138.86L227.6,136.02L229.83,137.59L232.07,142.93L234.3,142.99L236.53,139.99L238.76,139.95L240.99,138.61L243.22,135.81L245.45,140.46L247.69,138.54L249.92,139.13L252.15,138.75L254.38,138.16L256.61,138.94L258.84,137.42L261.07,158.44L265.54,157.87L267.77,158.04L270,159.23L272.23,158.99L274.46,156.53L276.69,155.55L278.93,154.58L281.16,157.34L285.62,156.51L287.85,150.15L290.08,146.61L292.31,144.65L294.55,143.36L296.78,144.01L299.01,140.62L301.24,135.45L303.47,136.38L305.7,134.69L307.93,125.92L310.17,121.7L312.4,123.26L314.63,122.15L319.09,122.1L321.32,114.9L323.55,114.83L325.79,109.68L328.02,105.43L330.25,105.58L332.48,105.26L334.71,106.44L336.94,105.39L339.17,103.35L343.64,103.83L345.87,100.96L348.1,105.94L350.33,99.2L357.02,85.5L359.26,87.64L361.49,87.44L363.72,51.91L368.18,49.91L370.41,52.5L372.64,56.93L374.88,56.66L377.11,55.48L379.34,56.53L381.57,55.25L383.8,56.05L386.03,56.26L388.26,58.54L390.5,56L392.73,71.25L394.96,72.41L397.19,72.6L401.65,59.16L403.88,55.89L406.12,51.79L408.35,44.36L410.58,41.64L412.81,49.24L419.5,48.58L421.74,47.94L423.97,47.95L426.2,50.77L428.43,42.4L430.66,44.81L432.89,47.26L435.12,69.16L437.36,70.89L439.59,64.42L441.82,31.05L444.05,29.6L446.28,22.79L448.51,22.11L450.74,24.3L452.98,47.3L455.21,47.12L457.44,50.08L459.67,51.16L461.9,53.13L464.13,54.37L466.36,54.57L468.6,56.76L470.83,57.55L473.06,56.14L475.29,57.04L477.52,57.28L479.75,67.42L484.21,66.75L486.45,63.99L490.91,64.27L493.14,71.04L495.37,73.11L497.6,73L499.83,70.37L502.07,72.64L508.76,71.94L510.99,67.75L513.22,67.54L515.45,66.38L517.69,64.62L519.92,67.42L524.38,67.08L526.61,65.81L528.84,22.81L531.07,20.89L535.54,16L537.77,18.46L540,17.49L540,304" style="fill: rgb(99, 110, 250); fill-opacity: 0.5; stroke-width: 0;"/></g></g><g class="errorbars"/><g class="lines"><path class="js-line" d="M0,281.27L8.93,279.04L11.16,277.25L15.62,276.02L17.85,257.5L22.31,225.99L24.55,209.29L29.01,203.92L31.24,199.47L33.47,185.37L35.7,180.95L40.17,180.13L42.4,162.03L44.63,164.19L46.86,153.67L49.09,155.07L51.32,140.15L53.55,133.02L55.79,130.06L58.02,114.82L60.25,112.52L62.48,110.86L64.71,121.27L66.94,128.99L69.17,127.3L71.4,126.5L73.64,123.79L78.1,122.41L80.33,114.13L82.56,118.17L84.79,114.13L87.02,111.23L89.26,112.38L91.49,111.86L93.72,113.12L98.18,110.75L100.41,113.37L102.64,114.91L104.88,113.53L107.11,111.1L109.34,111.53L111.57,113.36L113.8,113.35L124.96,114.5L127.19,120.09L131.65,120.3L133.88,115.22L138.35,113.22L140.58,112.94L142.81,111.16L145.04,107.8L147.27,106.81L149.5,109.34L153.97,109.77L156.2,108.64L160.66,105.66L162.89,114L165.12,122.62L167.36,121.27L169.59,119L171.82,124.36L174.05,130.8L176.28,129.9L178.51,130.98L180.74,133.77L182.98,135.03L185.21,134.24L189.67,133.19L191.9,131.64L194.13,136.25L196.36,135.53L200.83,134.89L203.06,133.67L205.29,138.3L207.52,138.73L211.98,138.34L214.21,136.58L218.68,137.11L220.91,135.26L223.14,138.26L225.37,138.86L227.6,136.02L229.83,137.59L232.07,142.93L234.3,142.99L236.53,139.99L238.76,139.95L240.99,138.61L243.22,135.81L245.45,140.46L247.69,138.54L249.92,139.13L252.15,138.75L254.38,138.16L256.61,138.94L258.84,137.42L261.07,158.44L265.54,157.87L267.77,158.04L270,159.23L272.23,158.99L274.46,156.53L276.69,155.55L278.93,154.58L281.16,157.34L285.62,156.51L287.85,150.15L290.08,146.61L292.31,144.65L294.55,143.36L296.78,144.01L299.01,140.62L301.24,135.45L303.47,136.38L305.7,134.69L307.93,125.92L310.17,121.7L312.4,123.26L314.63,122.15L319.09,122.1L321.32,114.9L323.55,114.83L325.79,109.68L328.02,105.43L330.25,105.58L332.48,105.26L334.71,106.44L336.94,105.39L339.17,103.35L343.64,103.83L345.87,100.96L348.1,105.94L350.33,99.2L357.02,85.5L359.26,87.64L361.49,87.44L363.72,51.91L368.18,49.91L370.41,52.5L372.64,56.93L374.88,56.66L377.11,55.48L379.34,56.53L381.57,55.25L383.8,56.05L386.03,56.26L388.26,58.54L390.5,56L392.73,71.25L394.96,72.41L397.19,72.6L401.65,59.16L403.88,55.89L406.12,51.79L408.35,44.36L410.58,41.64L412.81,49.24L419.5,48.58L421.74,47.94L423.97,47.95L426.2,50.77L428.43,42.4L430.66,44.81L432.89,47.26L435.12,69.16L437.36,70.89L439.59,64.42L441.82,31.05L444.05,29.6L446.28,22.79L448.51,22.11L450.74,24.3L452.98,47.3L455.21,47.12L457.44,50.08L459.67,51.16L461.9,53.13L464.13,54.37L466.36,54.57L468.6,56.76L470.83,57.55L473.06,56.14L475.29,57.04L477.52,57.28L479.75,67.42L484.21,66.75L486.45,63.99L490.91,64.27L493.14,71.04L495.37,73.11L497.6,73L499.83,70.37L502.07,72.64L508.76,71.94L510.99,67.75L513.22,67.54L515.45,66.38L517.69,64.62L519.92,67.42L524.38,67.08L526.61,65.81L528.84,22.81L531.07,20.89L535.54,16L537.77,18.46L540,17.49L540,304" style="vector-effect: none; fill: none; stroke: rgb(99, 110, 250); stroke-opacity: 1; stroke-width: 2px; opacity: 1;"/></g><g class="points"/><g class="text"/></g></g></g><g class="overplot"/><path class="xlines-above crisp" d="M0,0" style="fill: none;"/><path class="ylines-above crisp" d="M0,0" style="fill: none;"/><g class="overlines-above"/><g class="xaxislayer-above"><g class="xtick"><text text-anchor="middle" x="0" y="433" transform="translate(86.69,0)" style="font-family: 'Open Sans', verdana, arial, sans-serif; font-size: 12px; fill: rgb(42, 63, 95); fill-opacity: 1; white-space: pre; opacity: 1;">Sep 2022</text></g><g class="xtick"><text text-anchor="middle" x="0" y="433" style="font-family: 'Open Sans', verdana, arial, sans-serif; font-size: 12px; fill: rgb(42, 63, 95); fill-opacity: 1; white-space: pre; opacity: 1;" transform="translate(222.81,0)">Nov 2022</text></g><g class="xtick"><text text-anchor="middle" x="0" y="433" style="font-family: 'Open Sans', verdana, arial, sans-serif; font-size: 12px; fill: rgb(42, 63, 95); fill-opacity: 1; white-space: pre; opacity: 1;" transform="translate(358.93,0)">Jan 2023</text></g><g class="xtick"><text text-anchor="middle" x="0" y="433" style="font-family: 'Open Sans', verdana, arial, sans-serif; font-size: 12px; fill: rgb(42, 63, 95); fill-opacity: 1; white-space: pre; opacity: 1;" transform="translate(490.58,0)">Mar 2023</text></g></g><g class="yaxislayer-above"><g class="ytick"><text text-anchor="end" x="79" y="4.199999999999999" transform="translate(0,419.64)" style="font-family: 'Open Sans', verdana, arial, sans-serif; font-size: 12px; fill: rgb(42, 63, 95); fill-opacity: 1; white-space: pre; opacity: 1;">$−2M</text></g><g class="ytick"><text text-anchor="end" x="79" y="4.199999999999999" style="font-family: 'Open Sans', verdana, arial, sans-serif; font-size: 12px; fill: rgb(42, 63, 95); fill-opacity: 1; white-space: pre; opacity: 1;" transform="translate(0,381.37)">$0</text></g><g class="ytick"><text text-anchor="end" x="79" y="4.199999999999999" style="font-family: 'Open Sans', verdana, arial, sans-serif; font-size: 12px; fill: rgb(42, 63, 95); fill-opacity: 1; white-space: pre; opacity: 1;" transform="translate(0,343.1)">$2M</text></g><g class="ytick"><text text-anchor="end" x="79" y="4.199999999999999" style="font-family: 'Open Sans', verdana, arial, sans-serif; font-size: 12px; fill: rgb(42, 63, 95); fill-opacity: 1; white-space: pre; opacity: 1;" transform="translate(0,304.82)">$4M</text></g><g class="ytick"><text text-anchor="end" x="79" y="4.199999999999999" style="font-family: 'Open Sans', verdana, arial, sans-serif; font-size: 12px; fill: rgb(42, 63, 95); fill-opacity: 1; white-space: pre; opacity: 1;" transform="translate(0,266.55)">$6M</text></g><g class="ytick"><text text-anchor="end" x="79" y="4.199999999999999" style="font-family: 'Open Sans', verdana, arial, sans-serif; font-size: 12px; fill: rgb(42, 63, 95); fill-opacity: 1; white-space: pre; opacity: 1;" transform="translate(0,228.28)">$8M</text></g><g class="ytick"><text text-anchor="end" x="79" y="4.199999999999999" style="font-family: 'Open Sans', verdana, arial, sans-serif; font-size: 12px; fill: rgb(42, 63, 95); fill-opacity: 1; white-space: pre; opacity: 1;" transform="translate(0,190.01)">$10M</text></g><g class="ytick"><text text-anchor="end" x="79" y="4.199999999999999" style="font-family: 'Open Sans', verdana, arial, sans-serif; font-size: 12px; fill: rgb(42, 63, 95); fill-opacity: 1; white-space: pre; opacity: 1;" transform="translate(0,151.74)">$12M</text></g><g class="ytick"><text text-anchor="end" x="79" y="4.199999999999999" style="font-family: 'Open Sans', verdana, arial, sans-serif; font-size: 12px; fill: rgb(42, 63, 95); fill-opacity: 1; white-space: pre; opacity: 1;" transform="translate(0,113.47)">$14M</text></g></g><g class="overaxes-above"/></g></g><g class="polarlayer"/><g class="smithlayer"/><g class="ternarylayer"/><g class="geolayer"/><g class="funnelarealayer"/><g class="pielayer"/><g class="iciclelayer"/><g class="treemaplayer"/><g class="sunburstlayer"/><g class="glimages"/><defs id="topdefs-4d4976"><g class="clips"/></defs><g class="layer-above"><g class="imagelayer"/><g class="shapelayer"/></g><g class="infolayer"><g class="g-gtitle"><text class="gtitle" x="35" y="50" text-anchor="start" dy="0em" style="font-family: 'Open Sans', verdana, arial, sans-serif; font-size: 17px; fill: rgb(42, 63, 95); opacity: 1; font-weight: normal; white-space: pre;"><tspan class="line" dy="0em" x="35" y="50">Pika Protocol</tspan><tspan class="line" dy="1.3em" x="35" y="50">​<tspan style="font-size:70%" dy="-0.6em">Cumulative Net Flows since Program Announcement, Until Program End + 30 Days - At Last Price</tspan><tspan dy="0.42em">​</tspan></tspan></text></g><g class="g-xtitle"><text class="xtitle" x="350" y="460.3" text-anchor="middle" style="font-family: 'Open Sans', verdana, arial, sans-serif; font-size: 14px; fill: rgb(42, 63, 95); opacity: 1; font-weight: normal; white-space: pre;">Day</text></g><g class="g-ytitle"><text class="ytitle" transform="rotate(-90,24.340625000000003,260)" x="24.340625000000003" y="260" text-anchor="middle" style="font-family: 'Open Sans', verdana, arial, sans-serif; font-size: 14px; fill: rgb(42, 63, 95); opacity: 1; font-weight: normal; white-space: pre;">Cumulative Net Flows (USD)</text></g></g></svg>