<svg class="main-svg" xmlns="http://www.w3.org/2000/svg" xmlns:xlink="http://www.w3.org/1999/xlink" width="700" height="500" style="" viewBox="0 0 700 500"><rect x="0" y="0" width="700" height="500" style="fill: rgb(255, 255, 255); fill-opacity: 1;"/><defs id="defs-7b1554"><g class="clips"><clipPath id="clip7b1554xyplot" class="plotclip"><rect width="540" height="320"/></clipPath><clipPath class="axesclip" id="clip7b1554x"><rect x="80" y="0" width="540" height="500"/></clipPath><clipPath class="axesclip" id="clip7b1554y"><rect x="0" y="100" width="700" height="320"/></clipPath><clipPath class="axesclip" id="clip7b1554xy"><rect x="80" y="100" width="540" height="320"/></clipPath></g><g class="gradients"/><g class="patterns"/></defs><g class="bglayer"><rect class="bg" x="80" y="100" width="540" height="320" style="fill: rgb(229, 236, 246); fill-opacity: 1; stroke-width: 0;"/></g><g class="layer-below"><g class="imagelayer"/><g class="shapelayer"/></g><g class="cartesianlayer"><g class="subplot xy"><g class="layer-subplot"><g class="shapelayer"/><g class="imagelayer"/></g><g class="minor-gridlayer"><g class="x"/><g class="y"/></g><g class="gridlayer"><g class="x"><path class="xgrid crisp" transform="translate(130.79,0)" d="M0,100v320" style="stroke: rgb(255, 255, 255); stroke-opacity: 1; stroke-width: 1px;"/><path class="xgrid crisp" transform="translate(226.14,0)" d="M0,100v320" style="stroke: rgb(255, 255, 255); stroke-opacity: 1; stroke-width: 1px;"/><path class="xgrid crisp" transform="translate(319.41999999999996,0)" d="M0,100v320" style="stroke: rgb(255, 255, 255); stroke-opacity: 1; stroke-width: 1px;"/><path class="xgrid crisp" transform="translate(413.74,0)" d="M0,100v320" style="stroke: rgb(255, 255, 255); stroke-opacity: 1; stroke-width: 1px;"/><path class="xgrid crisp" transform="translate(509.1,0)" d="M0,100v320" style="stroke: rgb(255, 255, 255); stroke-opacity: 1; stroke-width: 1px;"/><path class="xgrid crisp" transform="translate(604.45,0)" d="M0,100v320" style="stroke: rgb(255, 255, 255); stroke-opacity: 1; stroke-width: 1px;"/></g><g class="y"><path class="ygrid crisp" transform="translate(0,391.15)" d="M80,0h540" style="stroke: rgb(255, 255, 255); stroke-opacity: 1; stroke-width: 1px;"/><path class="ygrid crisp" transform="translate(0,353.88)" d="M80,0h540" style="stroke: rgb(255, 255, 255); stroke-opacity: 1; stroke-width: 1px;"/><path class="ygrid crisp" transform="translate(0,316.61)" d="M80,0h540" style="stroke: rgb(255, 255, 255); stroke-opacity: 1; stroke-width: 1px;"/><path class="ygrid crisp" transform="translate(0,279.35)" d="M80,0h540" style="stroke: rgb(255, 255, 255); stroke-opacity: 1; stroke-width: 1px;"/><path class="ygrid crisp" transform="translate(0,204.82)" d="M80,0h540" style="stroke: rgb(255, 255, 255); stroke-opacity: 1; stroke-width: 1px;"/><path class="ygrid crisp" transform="translate(0,167.55)" d="M80,0h540" style="stroke: rgb(255, 255, 255); stroke-opacity: 1; stroke-width: 1px;"/><path class="ygrid crisp" transform="translate(0,130.28)" d="M80,0h540" style="stroke: rgb(255, 255, 255); stroke-opacity: 1; stroke-width: 1px;"/></g></g><g class="zerolinelayer"><path class="yzl zl crisp" transform="translate(0,242.08)" d="M80,0h540" style="stroke: rgb(255, 255, 255); stroke-opacity: 1; stroke-width: 2px;"/></g><path class="xlines-below"/><path class="ylines-below"/><g class="overlines-below"/><g class="xaxislayer-below"/><g class="yaxislayer-below"/><g class="overaxes-below"/><g class="plot" transform="translate(80,100)" clip-path="url(#clip7b1554xyplot)"><g class="scatterlayer mlayer"><g class="trace scatter traceb8eed1" style="stroke-miterlimit: 2;"><g class="fills"><g><path class="js-fill" d="M540,142.08L0,142.08L0,166.96L1.04,179.76L2.07,178.76L3.11,180.34L4.15,186.21L5.18,186.39L6.22,104.71L7.26,200.17L8.29,191.88L9.33,197.82L10.36,196.99L12.44,202.1L13.47,192.48L14.51,193.12L15.55,195.69L16.58,195.96L17.62,181.59L19.69,174.7L20.73,186.64L21.77,184.8L22.8,180.83L23.84,179.62L24.88,184.54L26.95,175.62L27.98,170.29L29.02,156.85L30.06,153.44L31.09,151.41L32.13,172.94L33.17,160.93L34.2,159.72L35.24,172.87L36.28,175.62L37.31,176.33L38.35,175L41.46,179.4L42.5,192.65L44.57,193.7L45.6,191L46.64,197.82L47.68,197.9L48.71,202.27L49.75,203.29L50.79,206.32L51.82,206.86L53.9,219.25L54.93,215.52L55.97,219.43L57.01,218.57L58.04,213.91L59.08,223.56L60.12,221.05L61.15,223.7L62.19,219.61L63.22,220.13L64.26,231.24L65.3,229.4L66.33,230.32L67.37,232.86L68.41,233.34L69.44,232.12L70.48,227.89L71.52,228.49L73.59,228.51L74.63,229.41L75.66,229.57L76.7,225.6L78.77,219.59L79.81,217.19L81.88,217.44L82.92,214.84L83.95,217.59L84.99,191.6L87.06,211.38L88.1,209.81L89.14,208.31L90.17,196.94L91.21,205.98L92.25,245.03L93.28,215.5L94.32,209.84L95.36,209.62L96.39,214.2L97.43,221.75L98.46,202.59L99.5,167.49L100.54,192.25L102.61,166.55L103.65,174.01L104.68,181.38L105.72,198.81L106.76,209.1L107.79,234.9L108.83,239.16L109.87,216.59L110.9,222.83L111.94,222.32L112.98,221L114.01,212.47L115.05,217.56L116.08,251.4L117.12,237.83L118.16,211.93L119.19,220.63L120.23,214.09L121.27,222.65L122.3,215.92L123.34,225.97L124.38,214.65L125.41,243.84L126.45,228.5L127.49,247.99L128.52,235.64L129.56,227.92L130.6,210.38L131.63,220.25L132.67,213.41L133.7,226.61L134.74,194.67L135.78,158.58L136.81,202.58L137.85,170.98L138.89,173.3L139.92,178.22L140.96,175.67L142,202.67L143.03,197.62L144.07,115.32L145.11,147L146.14,124.95L147.18,140.49L150.29,136.98L151.32,143.32L152.36,145.67L153.4,144.11L154.43,152.82L155.47,153.66L156.51,152.14L157.54,164.49L158.58,171.42L159.62,150.72L160.65,142.73L161.69,142.19L162.73,155.35L163.76,154.95L164.8,149.15L165.83,165.57L166.87,176.39L167.91,158.94L168.94,151.56L169.98,151.63L171.02,158.02L172.05,154.76L173.09,165.99L174.13,145.31L175.16,134.48L176.2,153.42L177.24,156.42L178.27,139.44L179.31,144.57L180.35,180.45L181.38,182.58L182.42,197.04L183.45,180.36L184.49,181.46L185.53,155.85L186.56,110L187.6,134.02L188.64,82.78L189.67,103.9L190.71,107.56L191.75,109.89L192.78,99.24L193.82,86.64L194.86,100.55L196.93,45.73L197.97,40.03L199,30.06L200.04,53.03L201.07,53.62L202.11,43.1L203.15,20.93L204.18,42.03L205.22,32.46L206.26,32.39L207.29,51.9L208.33,54.22L209.37,50.64L210.4,70.72L211.44,75.59L212.48,70.55L214.55,81.13L215.59,65.87L216.62,39.98L217.66,79.91L218.69,110.77L219.73,82.47L220.77,87.84L221.8,78.95L222.84,71.51L223.88,74.76L224.91,80.66L225.95,62.36L226.99,57.63L228.02,33.87L229.06,22.88L230.1,29.24L231.13,16L232.17,29.08L233.21,66.32L234.24,42.71L235.28,81.69L236.31,65.14L238.39,44.66L239.42,40.64L240.46,56.36L241.5,40.74L242.53,63.71L243.57,45.15L244.61,60.4L245.64,62.33L247.72,93.5L248.75,91.6L249.79,95.38L250.83,113.22L251.86,133.03L252.9,138.09L253.93,135.73L254.97,150.24L256.01,137.84L257.04,137.13L258.08,145.41L259.12,138.45L261.19,148.72L262.23,143.38L264.3,167.16L265.34,159.31L267.41,138.55L268.45,148.26L270.52,118.03L271.55,117.93L272.59,109.53L273.63,112.53L274.66,83.48L275.7,89.68L276.74,93.68L277.77,106.62L278.81,112.65L279.85,136.48L280.88,143.42L281.92,113.01L282.96,122.75L283.99,124.63L285.03,125.63L286.07,128.06L287.1,129.22L288.14,132.88L289.17,140.91L290.21,140.03L291.25,143.42L292.28,135.8L293.32,129.41L294.36,142.36L295.39,138.22L296.43,130.22L297.47,123.11L298.5,128.09L300.58,137.99L301.61,129.2L302.65,150.51L303.69,147.87L305.76,165.23L306.79,163.64L308.87,167.82L309.9,165.96L311.98,155.17L313.01,160.01L315.09,167.63L316.12,163.09L317.16,159.64L318.2,165.7L319.23,170.08L320.27,166.63L321.31,167.15L322.34,172.66L323.38,158.45L324.41,158.78L325.45,155.53L326.49,159.2L327.52,160.18L328.56,158.99L329.6,162.18L330.63,162.47L331.67,166.71L332.71,201.67L333.74,197.51L334.78,210.5L335.82,213.04L336.85,208.22L337.89,208.63L338.93,210.7L341,219.06L342.03,217.19L343.07,218.54L344.11,216.28L345.14,215.82L346.18,213.77L348.25,233.36L349.29,230.65L350.33,230.88L351.36,232.5L354.47,246.84L355.51,247.83L356.55,249.34L357.58,247.24L358.62,247.29L359.65,248.37L360.69,248.03L361.73,250.98L362.76,250.74L363.8,245.2L364.84,257.17L365.87,249.42L366.91,250.13L367.95,252.66L368.98,257.67L370.02,248.71L371.06,248.06L372.09,248.48L373.13,246.44L374.17,239.95L375.2,241.07L376.24,240.82L378.31,241.35L379.35,241.57L381.42,240.66L382.46,238.67L383.49,238.25L384.53,240.99L385.57,240.99L386.6,242.04L387.64,241.02L388.68,241.24L390.75,241.68L391.79,235.95L392.82,235.92L393.86,237.59L394.89,238.26L395.93,237.18L396.97,243.88L398,242.55L399.04,242.8L400.08,241.25L402.15,240.51L403.19,240.56L404.22,240.71L405.26,242.71L407.33,243.65L408.37,243.73L410.44,243.44L411.48,245.01L413.55,245.16L414.59,245.89L416.66,246.1L417.7,245.91L418.73,239.93L419.77,239.15L420.81,239.55L421.84,238.22L424.95,237.29L425.99,239.9L428.06,240L429.1,240.11L434.28,239.22L435.32,238.75L437.39,238.65L438.43,238.73L439.46,232.92L440.5,234.19L441.54,233.74L442.57,235.36L446.72,235.92L447.75,236.62L448.79,235.03L449.83,236.29L450.86,235.2L451.9,236.15L453.97,236.02L455.01,237.03L456.05,231.34L457.08,231.02L459.16,231L460.19,237.94L462.26,231.95L463.3,233.59L464.34,237.82L465.37,238.2L467.45,239.87L468.48,238.79L469.52,238.91L470.56,239.86L471.59,241L472.63,241L474.7,240.89L475.74,238.36L476.78,304L484.03,224.72L486.1,223.81L487.14,224.33L491.29,225.36L492.32,226.53L495.43,226.86L496.47,227.34L497.5,228.88L498.54,228.2L499.58,230.02L500.61,228.31L501.65,229.1L502.69,221.16L503.72,216.9L504.76,217.12L505.8,218.07L506.83,215.4L507.87,214.8L508.91,216.32L510.98,204.36L512.02,204.51L513.05,208.31L514.09,208.08L515.12,203.82L516.16,205.89L517.2,205.14L518.23,205.94L519.27,205.43L520.31,212.69L521.34,215.11L522.38,215.34L523.42,218.76L524.45,212.05L525.49,214.3L526.53,213.87L527.56,209.79L528.6,196.06L529.64,198.97L530.67,197.91L531.71,197.73L532.74,172.25L533.78,211.57L534.82,218.77L535.85,213.54L536.89,203.61L537.93,206.16L538.96,203.66L540,204.93" style="fill: rgb(99, 110, 250); fill-opacity: 0.5; stroke-width: 0;"/></g></g><g class="errorbars"/><g class="lines"><path class="js-line" d="M0,166.96L1.04,179.76L2.07,178.76L3.11,180.34L4.15,186.21L5.18,186.39L6.22,104.71L7.26,200.17L8.29,191.88L9.33,197.82L10.36,196.99L12.44,202.1L13.47,192.48L14.51,193.12L15.55,195.69L16.58,195.96L17.62,181.59L19.69,174.7L20.73,186.64L21.77,184.8L22.8,180.83L23.84,179.62L24.88,184.54L26.95,175.62L27.98,170.29L29.02,156.85L30.06,153.44L31.09,151.41L32.13,172.94L33.17,160.93L34.2,159.72L35.24,172.87L36.28,175.62L37.31,176.33L38.35,175L41.46,179.4L42.5,192.65L44.57,193.7L45.6,191L46.64,197.82L47.68,197.9L48.71,202.27L49.75,203.29L50.79,206.32L51.82,206.86L53.9,219.25L54.93,215.52L55.97,219.43L57.01,218.57L58.04,213.91L59.08,223.56L60.12,221.05L61.15,223.7L62.19,219.61L63.22,220.13L64.26,231.24L65.3,229.4L66.33,230.32L67.37,232.86L68.41,233.34L69.44,232.12L70.48,227.89L71.52,228.49L73.59,228.51L74.63,229.41L75.66,229.57L76.7,225.6L78.77,219.59L79.81,217.19L81.88,217.44L82.92,214.84L83.95,217.59L84.99,191.6L87.06,211.38L88.1,209.81L89.14,208.31L90.17,196.94L91.21,205.98L92.25,245.03L93.28,215.5L94.32,209.84L95.36,209.62L96.39,214.2L97.43,221.75L98.46,202.59L99.5,167.49L100.54,192.25L102.61,166.55L103.65,174.01L104.68,181.38L105.72,198.81L106.76,209.1L107.79,234.9L108.83,239.16L109.87,216.59L110.9,222.83L111.94,222.32L112.98,221L114.01,212.47L115.05,217.56L116.08,251.4L117.12,237.83L118.16,211.93L119.19,220.63L120.23,214.09L121.27,222.65L122.3,215.92L123.34,225.97L124.38,214.65L125.41,243.84L126.45,228.5L127.49,247.99L128.52,235.64L129.56,227.92L130.6,210.38L131.63,220.25L132.67,213.41L133.7,226.61L134.74,194.67L135.78,158.58L136.81,202.58L137.85,170.98L138.89,173.3L139.92,178.22L140.96,175.67L142,202.67L143.03,197.62L144.07,115.32L145.11,147L146.14,124.95L147.18,140.49L150.29,136.98L151.32,143.32L152.36,145.67L153.4,144.11L154.43,152.82L155.47,153.66L156.51,152.14L157.54,164.49L158.58,171.42L159.62,150.72L160.65,142.73L161.69,142.19L162.73,155.35L163.76,154.95L164.8,149.15L165.83,165.57L166.87,176.39L167.91,158.94L168.94,151.56L169.98,151.63L171.02,158.02L172.05,154.76L173.09,165.99L174.13,145.31L175.16,134.48L176.2,153.42L177.24,156.42L178.27,139.44L179.31,144.57L180.35,180.45L181.38,182.58L182.42,197.04L183.45,180.36L184.49,181.46L185.53,155.85L186.56,110L187.6,134.02L188.64,82.78L189.67,103.9L190.71,107.56L191.75,109.89L192.78,99.24L193.82,86.64L194.86,100.55L196.93,45.73L197.97,40.03L199,30.06L200.04,53.03L201.07,53.62L202.11,43.1L203.15,20.93L204.18,42.03L205.22,32.46L206.26,32.39L207.29,51.9L208.33,54.22L209.37,50.64L210.4,70.72L211.44,75.59L212.48,70.55L214.55,81.13L215.59,65.87L216.62,39.98L217.66,79.91L218.69,110.77L219.73,82.47L220.77,87.84L221.8,78.95L222.84,71.51L223.88,74.76L224.91,80.66L225.95,62.36L226.99,57.63L228.02,33.87L229.06,22.88L230.1,29.24L231.13,16L232.17,29.08L233.21,66.32L234.24,42.71L235.28,81.69L236.31,65.14L238.39,44.66L239.42,40.64L240.46,56.36L241.5,40.74L242.53,63.71L243.57,45.15L244.61,60.4L245.64,62.33L247.72,93.5L248.75,91.6L249.79,95.38L250.83,113.22L251.86,133.03L252.9,138.09L253.93,135.73L254.97,150.24L256.01,137.84L257.04,137.13L258.08,145.41L259.12,138.45L261.19,148.72L262.23,143.38L264.3,167.16L265.34,159.31L267.41,138.55L268.45,148.26L270.52,118.03L271.55,117.93L272.59,109.53L273.63,112.53L274.66,83.48L275.7,89.68L276.74,93.68L277.77,106.62L278.81,112.65L279.85,136.48L280.88,143.42L281.92,113.01L282.96,122.75L283.99,124.63L285.03,125.63L286.07,128.06L287.1,129.22L288.14,132.88L289.17,140.91L290.21,140.03L291.25,143.42L292.28,135.8L293.32,129.41L294.36,142.36L295.39,138.22L296.43,130.22L297.47,123.11L298.5,128.09L300.58,137.99L301.61,129.2L302.65,150.51L303.69,147.87L305.76,165.23L306.79,163.64L308.87,167.82L309.9,165.96L311.98,155.17L313.01,160.01L315.09,167.63L316.12,163.09L317.16,159.64L318.2,165.7L319.23,170.08L320.27,166.63L321.31,167.15L322.34,172.66L323.38,158.45L324.41,158.78L325.45,155.53L326.49,159.2L327.52,160.18L328.56,158.99L329.6,162.18L330.63,162.47L331.67,166.71L332.71,201.67L333.74,197.51L334.78,210.5L335.82,213.04L336.85,208.22L337.89,208.63L338.93,210.7L341,219.06L342.03,217.19L343.07,218.54L344.11,216.28L345.14,215.82L346.18,213.77L348.25,233.36L349.29,230.65L350.33,230.88L351.36,232.5L354.47,246.84L355.51,247.83L356.55,249.34L357.58,247.24L358.62,247.29L359.65,248.37L360.69,248.03L361.73,250.98L362.76,250.74L363.8,245.2L364.84,257.17L365.87,249.42L366.91,250.13L367.95,252.66L368.98,257.67L370.02,248.71L371.06,248.06L372.09,248.48L373.13,246.44L374.17,239.95L375.2,241.07L376.24,240.82L378.31,241.35L379.35,241.57L381.42,240.66L382.46,238.67L383.49,238.25L384.53,240.99L385.57,240.99L386.6,242.04L387.64,241.02L388.68,241.24L390.75,241.68L391.79,235.95L392.82,235.92L393.86,237.59L394.89,238.26L395.93,237.18L396.97,243.88L398,242.55L399.04,242.8L400.08,241.25L402.15,240.51L403.19,240.56L404.22,240.71L405.26,242.71L407.33,243.65L408.37,243.73L410.44,243.44L411.48,245.01L413.55,245.16L414.59,245.89L416.66,246.1L417.7,245.91L418.73,239.93L419.77,239.15L420.81,239.55L421.84,238.22L424.95,237.29L425.99,239.9L428.06,240L429.1,240.11L434.28,239.22L435.32,238.75L437.39,238.65L438.43,238.73L439.46,232.92L440.5,234.19L441.54,233.74L442.57,235.36L446.72,235.92L447.75,236.62L448.79,235.03L449.83,236.29L450.86,235.2L451.9,236.15L453.97,236.02L455.01,237.03L456.05,231.34L457.08,231.02L459.16,231L460.19,237.94L462.26,231.95L463.3,233.59L464.34,237.82L465.37,238.2L467.45,239.87L468.48,238.79L469.52,238.91L470.56,239.86L471.59,241L472.63,241L474.7,240.89L475.74,238.36L476.78,304L484.03,224.72L486.1,223.81L487.14,224.33L491.29,225.36L492.32,226.53L495.43,226.86L496.47,227.34L497.5,228.88L498.54,228.2L499.58,230.02L500.61,228.31L501.65,229.1L502.69,221.16L503.72,216.9L504.76,217.12L505.8,218.07L506.83,215.4L507.87,214.8L508.91,216.32L510.98,204.36L512.02,204.51L513.05,208.31L514.09,208.08L515.12,203.82L516.16,205.89L517.2,205.14L518.23,205.94L519.27,205.43L520.31,212.69L521.34,215.11L522.38,215.34L523.42,218.76L524.45,212.05L525.49,214.3L526.53,213.87L527.56,209.79L528.6,196.06L529.64,198.97L530.67,197.91L531.71,197.73L532.74,172.25L533.78,211.57L534.82,218.77L535.85,213.54L536.89,203.61L537.93,206.16L538.96,203.66L540,204.93" style="vector-effect: none; fill: none; stroke: rgb(99, 110, 250); stroke-opacity: 1; stroke-width: 2px; opacity: 1;"/></g><g class="points"/><g class="text"/></g></g></g><g class="overplot"/><path class="xlines-above crisp" d="M0,0" style="fill: none;"/><path class="ylines-above crisp" d="M0,0" style="fill: none;"/><g class="overlines-above"/><g class="xaxislayer-above"><g class="xtick"><text text-anchor="middle" x="0" y="433" transform="translate(130.79,0)" style="font-family: 'Open Sans', verdana, arial, sans-serif; font-size: 12px; fill: rgb(42, 63, 95); fill-opacity: 1; white-space: pre; opacity: 1;">Oct 2022</text></g><g class="xtick"><text text-anchor="middle" x="0" y="433" style="font-family: 'Open Sans', verdana, arial, sans-serif; font-size: 12px; fill: rgb(42, 63, 95); fill-opacity: 1; white-space: pre; opacity: 1;" transform="translate(226.14,0)">Jan 2023</text></g><g class="xtick"><text text-anchor="middle" x="0" y="433" style="font-family: 'Open Sans', verdana, arial, sans-serif; font-size: 12px; fill: rgb(42, 63, 95); fill-opacity: 1; white-space: pre; opacity: 1;" transform="translate(319.41999999999996,0)">Apr 2023</text></g><g class="xtick"><text text-anchor="middle" x="0" y="433" style="font-family: 'Open Sans', verdana, arial, sans-serif; font-size: 12px; fill: rgb(42, 63, 95); fill-opacity: 1; white-space: pre; opacity: 1;" transform="translate(413.74,0)">Jul 2023</text></g><g class="xtick"><text text-anchor="middle" x="0" y="433" style="font-family: 'Open Sans', verdana, arial, sans-serif; font-size: 12px; fill: rgb(42, 63, 95); fill-opacity: 1; white-space: pre; opacity: 1;" transform="translate(509.1,0)">Oct 2023</text></g><g class="xtick"><text text-anchor="middle" x="0" y="433" style="font-family: 'Open Sans', verdana, arial, sans-serif; font-size: 12px; fill: rgb(42, 63, 95); fill-opacity: 1; white-space: pre; opacity: 1;" transform="translate(604.45,0)">Jan 2024</text></g></g><g class="yaxislayer-above"><g class="ytick"><text text-anchor="end" x="79" y="4.199999999999999" transform="translate(0,391.15)" style="font-family: 'Open Sans', verdana, arial, sans-serif; font-size: 12px; fill: rgb(42, 63, 95); fill-opacity: 1; white-space: pre; opacity: 1;">$−8M</text></g><g class="ytick"><text text-anchor="end" x="79" y="4.199999999999999" style="font-family: 'Open Sans', verdana, arial, sans-serif; font-size: 12px; fill: rgb(42, 63, 95); fill-opacity: 1; white-space: pre; opacity: 1;" transform="translate(0,353.88)">$−6M</text></g><g class="ytick"><text text-anchor="end" x="79" y="4.199999999999999" style="font-family: 'Open Sans', verdana, arial, sans-serif; font-size: 12px; fill: rgb(42, 63, 95); fill-opacity: 1; white-space: pre; opacity: 1;" transform="translate(0,316.61)">$−4M</text></g><g class="ytick"><text text-anchor="end" x="79" y="4.199999999999999" style="font-family: 'Open Sans', verdana, arial, sans-serif; font-size: 12px; fill: rgb(42, 63, 95); fill-opacity: 1; white-space: pre; opacity: 1;" transform="translate(0,279.35)">$−2M</text></g><g class="ytick"><text text-anchor="end" x="79" y="4.199999999999999" style="font-family: 'Open Sans', verdana, arial, sans-serif; font-size: 12px; fill: rgb(42, 63, 95); fill-opacity: 1; white-space: pre; opacity: 1;" transform="translate(0,242.08)">$0</text></g><g class="ytick"><text text-anchor="end" x="79" y="4.199999999999999" style="font-family: 'Open Sans', verdana, arial, sans-serif; font-size: 12px; fill: rgb(42, 63, 95); fill-opacity: 1; white-space: pre; opacity: 1;" transform="translate(0,204.82)">$2M</text></g><g class="ytick"><text text-anchor="end" x="79" y="4.199999999999999" style="font-family: 'Open Sans', verdana, arial, sans-serif; font-size: 12px; fill: rgb(42, 63, 95); fill-opacity: 1; white-space: pre; opacity: 1;" transform="translate(0,167.55)">$4M</text></g><g class="ytick"><text text-anchor="end" x="79" y="4.199999999999999" style="font-family: 'Open Sans', verdana, arial, sans-serif; font-size: 12px; fill: rgb(42, 63, 95); fill-opacity: 1; white-space: pre; opacity: 1;" transform="translate(0,130.28)">$6M</text></g></g><g class="overaxes-above"/></g></g><g class="polarlayer"/><g class="smithlayer"/><g class="ternarylayer"/><g class="geolayer"/><g class="funnelarealayer"/><g class="pielayer"/><g class="iciclelayer"/><g class="treemaplayer"/><g class="sunburstlayer"/><g class="glimages"/><defs id="topdefs-7b1554"><g class="clips"/></defs><g class="layer-above"><g class="imagelayer"/><g class="shapelayer"/></g><g class="infolayer"><g class="g-gtitle"><text class="gtitle" x="35" y="50" text-anchor="start" dy="0em" style="font-family: 'Open Sans', verdana, arial, sans-serif; font-size: 17px; fill: rgb(42, 63, 95); opacity: 1; font-weight: normal; white-space: pre;"><tspan class="line" dy="0em" x="35" y="50">Cbridge - Celer</tspan><tspan class="line" dy="1.3em" x="35" y="50">​<tspan style="font-size:70%" dy="-0.6em">Cumulative Net Flows since Program Announcement, Until Program End + 30 Days - At Last Price</tspan><tspan dy="0.42em">​</tspan></tspan></text></g><g class="g-xtitle"><text class="xtitle" x="350" y="460.3" text-anchor="middle" style="font-family: 'Open Sans', verdana, arial, sans-serif; font-size: 14px; fill: rgb(42, 63, 95); opacity: 1; font-weight: normal; white-space: pre;">Day</text></g><g class="g-ytitle"><text class="ytitle" transform="rotate(-90,24.340625000000003,260)" x="24.340625000000003" y="260" text-anchor="middle" style="font-family: 'Open Sans', verdana, arial, sans-serif; font-size: 14px; fill: rgb(42, 63, 95); opacity: 1; font-weight: normal; white-space: pre;">Cumulative Net Flows (USD)</text></g></g></svg>