<svg class="main-svg" xmlns="http://www.w3.org/2000/svg" xmlns:xlink="http://www.w3.org/1999/xlink" width="700" height="500" style="" viewBox="0 0 700 500"><rect x="0" y="0" width="700" height="500" style="fill: rgb(255, 255, 255); fill-opacity: 1;"/><defs id="defs-13ff12"><g class="clips"><clipPath id="clip13ff12xyplot" class="plotclip"><rect width="540" height="320"/></clipPath><clipPath class="axesclip" id="clip13ff12x"><rect x="80" y="0" width="540" height="500"/></clipPath><clipPath class="axesclip" id="clip13ff12y"><rect x="0" y="100" width="700" height="320"/></clipPath><clipPath class="axesclip" id="clip13ff12xy"><rect x="80" y="100" width="540" height="320"/></clipPath></g><g class="gradients"/><g class="patterns"/></defs><g class="bglayer"><rect class="bg" x="80" y="100" width="540" height="320" style="fill: rgb(229, 236, 246); fill-opacity: 1; stroke-width: 0;"/></g><g class="layer-below"><g class="imagelayer"/><g class="shapelayer"/></g><g class="cartesianlayer"><g class="subplot xy"><g class="layer-subplot"><g class="shapelayer"/><g class="imagelayer"/></g><g class="minor-gridlayer"><g class="x"/><g class="y"/></g><g class="gridlayer"><g class="x"><path class="xgrid crisp" transform="translate(148.76,0)" d="M0,100v320" style="stroke: rgb(255, 255, 255); stroke-opacity: 1; stroke-width: 1px;"/><path class="xgrid crisp" transform="translate(268.09000000000003,0)" d="M0,100v320" style="stroke: rgb(255, 255, 255); stroke-opacity: 1; stroke-width: 1px;"/><path class="xgrid crisp" transform="translate(391.46,0)" d="M0,100v320" style="stroke: rgb(255, 255, 255); stroke-opacity: 1; stroke-width: 1px;"/><path class="xgrid crisp" transform="translate(514.8299999999999,0)" d="M0,100v320" style="stroke: rgb(255, 255, 255); stroke-opacity: 1; stroke-width: 1px;"/></g><g class="y"><path class="ygrid crisp" transform="translate(0,298.55)" d="M80,0h540" style="stroke: rgb(255, 255, 255); stroke-opacity: 1; stroke-width: 1px;"/><path class="ygrid crisp" transform="translate(0,211.43)" d="M80,0h540" style="stroke: rgb(255, 255, 255); stroke-opacity: 1; stroke-width: 1px;"/><path class="ygrid crisp" transform="translate(0,124.31)" d="M80,0h540" style="stroke: rgb(255, 255, 255); stroke-opacity: 1; stroke-width: 1px;"/></g></g><g class="zerolinelayer"><path class="yzl zl crisp" transform="translate(0,385.67)" d="M80,0h540" style="stroke: rgb(255, 255, 255); stroke-opacity: 1; stroke-width: 2px;"/></g><path class="xlines-below"/><path class="ylines-below"/><g class="overlines-below"/><g class="xaxislayer-below"/><g class="yaxislayer-below"/><g class="overaxes-below"/><g class="plot" transform="translate(80,100)" clip-path="url(#clip13ff12xyplot)"><g class="scatterlayer mlayer"><g class="trace scatter trace2d751b" style="stroke-miterlimit: 2;"><g class="fills"><g><path class="js-fill" d="M540,285.67L0,285.67L0,285.67L2.02,259.36L4.04,248.89L8.09,240.33L10.11,241.38L14.16,235.38L16.18,233.93L24.27,233.98L26.29,231.62L28.31,231.26L30.34,231.91L32.36,146.31L34.38,100.32L36.4,36.68L38.43,21.79L40.45,16L42.47,16.99L44.49,20.82L46.52,137.17L48.54,175.04L50.56,186.18L54.61,189.58L56.63,188.87L58.65,186.77L60.67,204.64L62.7,207.02L64.72,207.92L70.79,211.02L72.81,212.56L74.83,212.96L76.85,208.14L80.9,206.56L82.92,207.4L88.99,201.44L91.01,202L93.03,202.5L95.06,201.32L99.1,199.23L101.12,199.55L103.15,198.83L105.17,200.41L109.21,209.07L111.24,208.15L115.28,203.77L117.3,204.97L119.33,244.76L121.35,208.61L123.37,202.02L125.39,201.96L127.42,198.43L129.44,198.48L131.46,202.53L133.48,201.8L135.51,195.55L137.53,195.1L141.57,193.99L143.6,193.62L145.62,193.31L147.64,193.81L149.66,194.67L151.69,179.29L155.73,177.03L157.75,173.58L159.78,173.5L161.8,175.04L163.82,172.39L165.84,173.1L167.87,181.67L169.89,181.56L171.91,186.85L173.93,187.6L175.96,190.27L177.98,191.2L180,185.62L182.02,185.87L184.04,180.73L186.07,180.01L188.09,180.05L190.11,181.4L192.13,181.68L194.16,294.15L198.2,185.52L200.22,186.39L202.25,185.87L204.27,182.44L206.29,185.58L208.31,190.29L210.34,198.05L212.36,201.43L214.38,192.11L216.4,191.81L218.43,190.02L220.45,189.66L222.47,184.7L224.49,184.01L226.52,184.45L228.54,186.52L230.56,184.14L232.58,187.24L234.61,215.18L236.63,217.95L238.65,219.25L240.67,225.44L244.72,224.65L246.74,227.41L248.76,213.6L250.79,206.22L252.81,203.86L254.83,202.8L258.88,203.81L260.9,200.92L262.92,194.87L264.94,197.18L266.97,197.47L268.99,194.1L271.01,191.8L275.06,191.59L277.08,191.88L279.1,187.46L281.12,303.96L283.15,303.96L540,304" style="fill: rgb(99, 110, 250); fill-opacity: 0.5; stroke-width: 0;"/></g></g><g class="errorbars"/><g class="lines"><path class="js-line" d="M0,285.67L2.02,259.36L4.04,248.89L8.09,240.33L10.11,241.38L14.16,235.38L16.18,233.93L24.27,233.98L26.29,231.62L28.31,231.26L30.34,231.91L32.36,146.31L34.38,100.32L36.4,36.68L38.43,21.79L40.45,16L42.47,16.99L44.49,20.82L46.52,137.17L48.54,175.04L50.56,186.18L54.61,189.58L56.63,188.87L58.65,186.77L60.67,204.64L62.7,207.02L64.72,207.92L70.79,211.02L72.81,212.56L74.83,212.96L76.85,208.14L80.9,206.56L82.92,207.4L88.99,201.44L91.01,202L93.03,202.5L95.06,201.32L99.1,199.23L101.12,199.55L103.15,198.83L105.17,200.41L109.21,209.07L111.24,208.15L115.28,203.77L117.3,204.97L119.33,244.76L121.35,208.61L123.37,202.02L125.39,201.96L127.42,198.43L129.44,198.48L131.46,202.53L133.48,201.8L135.51,195.55L137.53,195.1L141.57,193.99L143.6,193.62L145.62,193.31L147.64,193.81L149.66,194.67L151.69,179.29L155.73,177.03L157.75,173.58L159.78,173.5L161.8,175.04L163.82,172.39L165.84,173.1L167.87,181.67L169.89,181.56L171.91,186.85L173.93,187.6L175.96,190.27L177.98,191.2L180,185.62L182.02,185.87L184.04,180.73L186.07,180.01L188.09,180.05L190.11,181.4L192.13,181.68L194.16,294.15L198.2,185.52L200.22,186.39L202.25,185.87L204.27,182.44L206.29,185.58L208.31,190.29L210.34,198.05L212.36,201.43L214.38,192.11L216.4,191.81L218.43,190.02L220.45,189.66L222.47,184.7L224.49,184.01L226.52,184.45L228.54,186.52L230.56,184.14L232.58,187.24L234.61,215.18L236.63,217.95L238.65,219.25L240.67,225.44L244.72,224.65L246.74,227.41L248.76,213.6L250.79,206.22L252.81,203.86L254.83,202.8L258.88,203.81L260.9,200.92L262.92,194.87L264.94,197.18L266.97,197.47L268.99,194.1L271.01,191.8" style="vector-effect: none; fill: none; stroke: rgb(99, 110, 250); stroke-opacity: 1; stroke-width: 2px; opacity: 1;"/><path class="js-line" d="M275.06,191.59L277.08,191.88L279.1,187.46L281.12,303.96L283.15,303.96L540,304" style="vector-effect: none; fill: none; stroke: rgb(99, 110, 250); stroke-opacity: 1; stroke-width: 2px; opacity: 1;"/></g><g class="points"/><g class="text"/></g></g></g><g class="overplot"/><path class="xlines-above crisp" d="M0,0" style="fill: none;"/><path class="ylines-above crisp" d="M0,0" style="fill: none;"/><g class="overlines-above"/><g class="xaxislayer-above"><g class="xtick"><text text-anchor="middle" x="0" y="433" transform="translate(148.76,0)" style="font-family: 'Open Sans', verdana, arial, sans-serif; font-size: 12px; fill: rgb(42, 63, 95); fill-opacity: 1; white-space: pre; opacity: 1;">Jan 2023</text></g><g class="xtick"><text text-anchor="middle" x="0" y="433" style="font-family: 'Open Sans', verdana, arial, sans-serif; font-size: 12px; fill: rgb(42, 63, 95); fill-opacity: 1; white-space: pre; opacity: 1;" transform="translate(268.09000000000003,0)">Mar 2023</text></g><g class="xtick"><text text-anchor="middle" x="0" y="433" style="font-family: 'Open Sans', verdana, arial, sans-serif; font-size: 12px; fill: rgb(42, 63, 95); fill-opacity: 1; white-space: pre; opacity: 1;" transform="translate(391.46,0)">May 2023</text></g><g class="xtick"><text text-anchor="middle" x="0" y="433" style="font-family: 'Open Sans', verdana, arial, sans-serif; font-size: 12px; fill: rgb(42, 63, 95); fill-opacity: 1; white-space: pre; opacity: 1;" transform="translate(514.8299999999999,0)">Jul 2023</text></g></g><g class="yaxislayer-above"><g class="ytick"><text text-anchor="end" x="79" y="4.199999999999999" transform="translate(0,385.67)" style="font-family: 'Open Sans', verdana, arial, sans-serif; font-size: 12px; fill: rgb(42, 63, 95); fill-opacity: 1; white-space: pre; opacity: 1;">$0</text></g><g class="ytick"><text text-anchor="end" x="79" y="4.199999999999999" style="font-family: 'Open Sans', verdana, arial, sans-serif; font-size: 12px; fill: rgb(42, 63, 95); fill-opacity: 1; white-space: pre; opacity: 1;" transform="translate(0,298.55)">$5M</text></g><g class="ytick"><text text-anchor="end" x="79" y="4.199999999999999" style="font-family: 'Open Sans', verdana, arial, sans-serif; font-size: 12px; fill: rgb(42, 63, 95); fill-opacity: 1; white-space: pre; opacity: 1;" transform="translate(0,211.43)">$10M</text></g><g class="ytick"><text text-anchor="end" x="79" y="4.199999999999999" style="font-family: 'Open Sans', verdana, arial, sans-serif; font-size: 12px; fill: rgb(42, 63, 95); fill-opacity: 1; white-space: pre; opacity: 1;" transform="translate(0,124.31)">$15M</text></g></g><g class="overaxes-above"/></g></g><g class="polarlayer"/><g class="smithlayer"/><g class="ternarylayer"/><g class="geolayer"/><g class="funnelarealayer"/><g class="pielayer"/><g class="iciclelayer"/><g class="treemaplayer"/><g class="sunburstlayer"/><g class="glimages"/><defs id="topdefs-13ff12"><g class="clips"/></defs><g class="layer-above"><g class="imagelayer"/><g class="shapelayer"/></g><g class="infolayer"><g class="g-gtitle"><text class="gtitle" x="35" y="50" text-anchor="start" dy="0em" style="font-family: 'Open Sans', verdana, arial, sans-serif; font-size: 17px; fill: rgb(42, 63, 95); opacity: 1; font-weight: normal; white-space: pre;"><tspan class="line" dy="0em" x="35" y="50">Hundred Finance</tspan><tspan class="line" dy="1.3em" x="35" y="50">​<tspan style="font-size:70%" dy="-0.6em">Cumulative Net Flows since Program Announcement, Until Program End + 30 Days - At Last Price</tspan><tspan dy="0.42em">​</tspan></tspan></text></g><g class="g-xtitle"><text class="xtitle" x="350" y="460.3" text-anchor="middle" style="font-family: 'Open Sans', verdana, arial, sans-serif; font-size: 14px; fill: rgb(42, 63, 95); opacity: 1; font-weight: normal; white-space: pre;">Day</text></g><g class="g-ytitle"><text class="ytitle" transform="rotate(-90,24.668750000000003,260)" x="24.668750000000003" y="260" text-anchor="middle" style="font-family: 'Open Sans', verdana, arial, sans-serif; font-size: 14px; fill: rgb(42, 63, 95); opacity: 1; font-weight: normal; white-space: pre;">Cumulative Net Flows (USD)</text></g></g></svg>