<svg class="main-svg" xmlns="http://www.w3.org/2000/svg" xmlns:xlink="http://www.w3.org/1999/xlink" width="700" height="500" style="" viewBox="0 0 700 500"><rect x="0" y="0" width="700" height="500" style="fill: rgb(255, 255, 255); fill-opacity: 1;"/><defs id="defs-273c7b"><g class="clips"><clipPath id="clip273c7bxyplot" class="plotclip"><rect width="540" height="320"/></clipPath><clipPath class="axesclip" id="clip273c7bx"><rect x="80" y="0" width="540" height="500"/></clipPath><clipPath class="axesclip" id="clip273c7by"><rect x="0" y="100" width="700" height="320"/></clipPath><clipPath class="axesclip" id="clip273c7bxy"><rect x="80" y="100" width="540" height="320"/></clipPath></g><g class="gradients"/><g class="patterns"/></defs><g class="bglayer"><rect class="bg" x="80" y="100" width="540" height="320" style="fill: rgb(229, 236, 246); fill-opacity: 1; stroke-width: 0;"/></g><g class="layer-below"><g class="imagelayer"/><g class="shapelayer"/></g><g class="cartesianlayer"><g class="subplot xy"><g class="layer-subplot"><g class="shapelayer"/><g class="imagelayer"/></g><g class="minor-gridlayer"><g class="x"/><g class="y"/></g><g class="gridlayer"><g class="x"><path class="xgrid crisp" transform="translate(151.6,0)" d="M0,100v320" style="stroke: rgb(255, 255, 255); stroke-opacity: 1; stroke-width: 1px;"/><path class="xgrid crisp" transform="translate(242.6,0)" d="M0,100v320" style="stroke: rgb(255, 255, 255); stroke-opacity: 1; stroke-width: 1px;"/><path class="xgrid crisp" transform="translate(333.59000000000003,0)" d="M0,100v320" style="stroke: rgb(255, 255, 255); stroke-opacity: 1; stroke-width: 1px;"/><path class="xgrid crisp" transform="translate(421.6,0)" d="M0,100v320" style="stroke: rgb(255, 255, 255); stroke-opacity: 1; stroke-width: 1px;"/><path class="xgrid crisp" transform="translate(512.6,0)" d="M0,100v320" style="stroke: rgb(255, 255, 255); stroke-opacity: 1; stroke-width: 1px;"/><path class="xgrid crisp" transform="translate(603.59,0)" d="M0,100v320" style="stroke: rgb(255, 255, 255); stroke-opacity: 1; stroke-width: 1px;"/></g><g class="y"><path class="ygrid crisp" transform="translate(0,413.11)" d="M80,0h540" style="stroke: rgb(255, 255, 255); stroke-opacity: 1; stroke-width: 1px;"/><path class="ygrid crisp" transform="translate(0,339.87)" d="M80,0h540" style="stroke: rgb(255, 255, 255); stroke-opacity: 1; stroke-width: 1px;"/><path class="ygrid crisp" transform="translate(0,303.25)" d="M80,0h540" style="stroke: rgb(255, 255, 255); stroke-opacity: 1; stroke-width: 1px;"/><path class="ygrid crisp" transform="translate(0,266.63)" d="M80,0h540" style="stroke: rgb(255, 255, 255); stroke-opacity: 1; stroke-width: 1px;"/><path class="ygrid crisp" transform="translate(0,230.01)" d="M80,0h540" style="stroke: rgb(255, 255, 255); stroke-opacity: 1; stroke-width: 1px;"/><path class="ygrid crisp" transform="translate(0,193.4)" d="M80,0h540" style="stroke: rgb(255, 255, 255); stroke-opacity: 1; stroke-width: 1px;"/><path class="ygrid crisp" transform="translate(0,156.78)" d="M80,0h540" style="stroke: rgb(255, 255, 255); stroke-opacity: 1; stroke-width: 1px;"/><path class="ygrid crisp" transform="translate(0,120.16)" d="M80,0h540" style="stroke: rgb(255, 255, 255); stroke-opacity: 1; stroke-width: 1px;"/></g></g><g class="zerolinelayer"><path class="yzl zl crisp" transform="translate(0,376.49)" d="M80,0h540" style="stroke: rgb(255, 255, 255); stroke-opacity: 1; stroke-width: 2px;"/></g><path class="xlines-below"/><path class="ylines-below"/><g class="overlines-below"/><g class="xaxislayer-below"/><g class="yaxislayer-below"/><g class="overaxes-below"/><g class="plot" transform="translate(80,100)" clip-path="url(#clip273c7bxyplot)"><g class="scatterlayer mlayer"><g class="trace scatter trace2e812c" style="stroke-miterlimit: 2;"><g class="fills"><g><path class="js-fill" d="M540,276.49L0,276.49L0,274.72L1.49,268.4L2.98,266.27L5.97,268.09L7.46,268.33L10.44,269.69L11.93,260.47L13.43,257.82L14.92,257.91L16.41,258.59L17.9,265.79L19.39,267.11L20.88,266.43L22.38,262.16L23.87,263.01L28.34,261.33L29.83,261.98L31.33,266.55L32.82,263.35L35.8,270.51L37.29,271.52L38.78,270.98L40.28,265.53L43.26,256.84L44.75,256.68L46.24,258.84L47.73,264.29L49.23,264.78L50.72,266.77L52.21,265.4L53.7,258.69L55.19,258.91L56.69,264.48L58.18,263.09L59.67,263.47L61.16,263.77L62.65,268.12L65.64,262.92L67.13,270.3L68.62,268.04L70.11,267.25L71.6,268.68L73.09,268.05L74.59,264.98L76.08,268.16L80.55,272.62L82.04,275.16L83.54,275.47L85.03,271.67L86.52,272.03L88.01,262.18L89.5,268.42L90.99,268.67L95.47,271.64L96.96,254.75L98.45,268.38L99.94,266.12L101.44,267.23L102.93,269.91L104.42,270.61L105.91,265.99L108.9,266.76L110.39,269.89L111.88,263.54L113.37,263.47L116.35,263.39L117.85,259.83L119.34,269.73L120.83,269.38L122.32,267.92L123.81,273.13L125.3,273.64L126.8,273.29L128.29,275.28L129.78,280.07L131.27,284.03L132.76,281.58L135.75,279.02L137.24,275.59L138.73,275.12L140.22,278.73L143.2,272.27L144.7,269.9L147.68,273.65L149.17,273.94L152.15,277.88L153.65,278.58L155.14,274.68L156.63,273.77L159.61,266.91L161.1,275.95L162.6,274.25L164.09,275.45L165.58,271.04L167.07,273.13L168.56,265.44L170.06,267.76L171.55,274.67L173.04,262.75L174.53,266.27L176.02,262.79L177.51,261.14L179.01,253.94L180.5,254.12L181.99,262.8L183.48,261.26L184.97,260.8L186.46,259.26L187.96,260.37L189.45,254.98L190.94,255.31L192.43,255.9L193.92,253.88L195.41,246.72L196.91,246.65L198.4,263.08L199.89,255.93L201.38,259.41L202.87,256.73L204.36,261.17L205.86,271.27L207.35,255.33L208.84,257.13L210.33,245.91L211.82,247.2L214.81,254.04L216.3,249.42L220.77,241.34L222.27,242.48L223.76,259.54L225.25,263.89L229.72,271.67L231.22,265.73L232.71,266.04L234.2,270.04L235.69,266.42L237.18,268.08L238.67,265.47L240.17,266.81L241.66,264.73L243.15,269.76L244.64,266.33L246.13,269.12L247.62,269.68L249.12,268.82L250.61,263.2L252.1,268.27L253.59,268.43L255.08,275.68L256.57,272.3L258.07,273.59L259.56,269.28L261.05,267.47L262.54,260.18L264.03,259.72L265.52,261.31L267.02,256.21L268.51,255.4L270,257.79L271.49,262.07L272.98,258.52L275.97,261.98L277.46,264.95L280.44,263.46L281.93,263.72L283.43,256.51L284.92,261.06L286.41,265.04L287.9,254.61L289.39,253.04L290.88,261.86L293.87,273.36L295.36,268.6L296.85,275.86L298.34,265.5L299.83,282.14L301.33,284.03L304.31,279.19L305.8,283.15L307.29,283.38L308.78,282.77L310.28,281.6L311.77,278.06L313.26,277.42L314.75,274.77L316.24,270.71L317.73,247.81L319.23,274.84L320.72,275.78L322.21,274.8L323.7,275.94L325.19,275.25L326.69,277.04L328.18,280.6L329.67,281.33L332.65,277.39L334.14,277.23L335.64,272.47L337.13,277.07L338.62,292.18L340.11,270.18L341.6,270.88L343.09,273.74L344.59,274.02L346.08,268.79L347.57,269.31L349.06,278.21L350.55,277.21L352.04,295.77L355.03,297.55L356.52,294.37L358.01,299L359.5,298.97L363.98,291.77L365.47,295.04L366.96,296.17L368.45,298.62L369.94,297.28L371.44,301.07L372.93,298.56L374.42,292.66L375.91,291.99L377.4,300.09L378.9,300.98L380.39,302.85L381.88,300.39L383.37,301.98L384.86,298.11L386.35,301.78L387.85,295.58L389.34,301.96L390.83,302.7L392.32,302.41L393.81,301.88L395.3,295.72L396.8,295.38L398.29,292.67L399.78,301.36L401.27,304L402.76,302.91L404.25,299.94L405.75,298.13L407.24,300.18L408.73,296.1L410.22,300.6L411.71,301.65L413.2,297.08L414.7,297.68L416.19,295.55L417.68,294.06L419.17,286.98L422.15,297.71L423.65,288.63L425.14,288.68L426.63,291.26L428.12,301.45L429.61,300.42L432.6,303.74L434.09,301.42L435.58,301.76L437.07,300.97L438.56,302.44L440.06,301.81L441.55,301.22L443.04,111.46L444.53,106.89L446.02,120.17L450.5,116.35L451.99,116.7L453.48,121.99L454.97,120.22L456.46,107.35L457.96,110.18L459.45,107.82L460.94,97.64L463.92,90.65L465.41,95.68L466.91,88.95L468.4,89.17L469.89,87.24L471.38,78.54L472.87,68.7L474.36,65.39L475.86,57.76L477.35,58.55L478.84,57.18L480.33,50.58L483.31,41.43L484.81,27.35L487.79,25.18L489.28,20.01L490.77,23.79L492.27,16L495.25,24.85L496.74,18.03L498.23,26.88L499.72,30.13L501.22,27.52L502.71,27.62L505.69,27.92L507.18,30.64L508.67,55.29L510.17,50.72L511.66,54.79L513.15,47.05L514.64,52.87L516.13,62.21L519.12,54.99L520.61,66.71L522.1,72.94L523.59,71.82L525.08,71.31L526.57,74.61L528.07,84.3L529.56,85.67L531.05,86.89L532.54,85.43L535.52,79.21L537.02,84.21L540,85.62" style="fill: rgb(99, 110, 250); fill-opacity: 0.5; stroke-width: 0;"/></g></g><g class="errorbars"/><g class="lines"><path class="js-line" d="M0,274.72L1.49,268.4L2.98,266.27L5.97,268.09L7.46,268.33L10.44,269.69L11.93,260.47L13.43,257.82L14.92,257.91L16.41,258.59L17.9,265.79L19.39,267.11L20.88,266.43L22.38,262.16L23.87,263.01L28.34,261.33L29.83,261.98L31.33,266.55L32.82,263.35L35.8,270.51L37.29,271.52L38.78,270.98L40.28,265.53L43.26,256.84L44.75,256.68L46.24,258.84L47.73,264.29L49.23,264.78L50.72,266.77L52.21,265.4L53.7,258.69L55.19,258.91L56.69,264.48L58.18,263.09L59.67,263.47L61.16,263.77L62.65,268.12L65.64,262.92L67.13,270.3L68.62,268.04L70.11,267.25L71.6,268.68L73.09,268.05L74.59,264.98L76.08,268.16L80.55,272.62L82.04,275.16L83.54,275.47L85.03,271.67L86.52,272.03L88.01,262.18L89.5,268.42L90.99,268.67L95.47,271.64L96.96,254.75L98.45,268.38L99.94,266.12L101.44,267.23L102.93,269.91L104.42,270.61L105.91,265.99L108.9,266.76L110.39,269.89L111.88,263.54L113.37,263.47L116.35,263.39L117.85,259.83L119.34,269.73L120.83,269.38L122.32,267.92L123.81,273.13L125.3,273.64L126.8,273.29L128.29,275.28L129.78,280.07L131.27,284.03L132.76,281.58L135.75,279.02L137.24,275.59L138.73,275.12L140.22,278.73L143.2,272.27L144.7,269.9L147.68,273.65L149.17,273.94L152.15,277.88L153.65,278.58L155.14,274.68L156.63,273.77L159.61,266.91L161.1,275.95L162.6,274.25L164.09,275.45L165.58,271.04L167.07,273.13L168.56,265.44L170.06,267.76L171.55,274.67L173.04,262.75L174.53,266.27L176.02,262.79L177.51,261.14L179.01,253.94L180.5,254.12L181.99,262.8L183.48,261.26L184.97,260.8L186.46,259.26L187.96,260.37L189.45,254.98L190.94,255.31L192.43,255.9L193.92,253.88L195.41,246.72L196.91,246.65L198.4,263.08L199.89,255.93L201.38,259.41L202.87,256.73L204.36,261.17L205.86,271.27L207.35,255.33L208.84,257.13L210.33,245.91L211.82,247.2L214.81,254.04L216.3,249.42L220.77,241.34L222.27,242.48L223.76,259.54L225.25,263.89L229.72,271.67L231.22,265.73L232.71,266.04L234.2,270.04L235.69,266.42L237.18,268.08L238.67,265.47L240.17,266.81L241.66,264.73L243.15,269.76L244.64,266.33L246.13,269.12L247.62,269.68L249.12,268.82L250.61,263.2L252.1,268.27L253.59,268.43L255.08,275.68L256.57,272.3L258.07,273.59L259.56,269.28L261.05,267.47L262.54,260.18L264.03,259.72L265.52,261.31L267.02,256.21L268.51,255.4L270,257.79L271.49,262.07L272.98,258.52L275.97,261.98L277.46,264.95L280.44,263.46L281.93,263.72L283.43,256.51L284.92,261.06L286.41,265.04L287.9,254.61L289.39,253.04L290.88,261.86L293.87,273.36L295.36,268.6L296.85,275.86L298.34,265.5L299.83,282.14L301.33,284.03L304.31,279.19L305.8,283.15L307.29,283.38L308.78,282.77L310.28,281.6L311.77,278.06L313.26,277.42L314.75,274.77L316.24,270.71L317.73,247.81L319.23,274.84L320.72,275.78L322.21,274.8L323.7,275.94L325.19,275.25L326.69,277.04L328.18,280.6L329.67,281.33L332.65,277.39L334.14,277.23L335.64,272.47L337.13,277.07L338.62,292.18L340.11,270.18L341.6,270.88L343.09,273.74L344.59,274.02L346.08,268.79L347.57,269.31L349.06,278.21L350.55,277.21L352.04,295.77L355.03,297.55L356.52,294.37L358.01,299L359.5,298.97L363.98,291.77L365.47,295.04L366.96,296.17L368.45,298.62L369.94,297.28L371.44,301.07L372.93,298.56L374.42,292.66L375.91,291.99L377.4,300.09L378.9,300.98L380.39,302.85L381.88,300.39L383.37,301.98L384.86,298.11L386.35,301.78L387.85,295.58L389.34,301.96L390.83,302.7L392.32,302.41L393.81,301.88L395.3,295.72L396.8,295.38L398.29,292.67L399.78,301.36L401.27,304L402.76,302.91L404.25,299.94L405.75,298.13L407.24,300.18L408.73,296.1L410.22,300.6L411.71,301.65L413.2,297.08L414.7,297.68L416.19,295.55L417.68,294.06L419.17,286.98L422.15,297.71L423.65,288.63L425.14,288.68L426.63,291.26L428.12,301.45L429.61,300.42L432.6,303.74L434.09,301.42L435.58,301.76L437.07,300.97L438.56,302.44L440.06,301.81L441.55,301.22L443.04,111.46L444.53,106.89L446.02,120.17L450.5,116.35L451.99,116.7L453.48,121.99L454.97,120.22L456.46,107.35L457.96,110.18L459.45,107.82L460.94,97.64L463.92,90.65L465.41,95.68L466.91,88.95L468.4,89.17L469.89,87.24L471.38,78.54L472.87,68.7L474.36,65.39L475.86,57.76L477.35,58.55L478.84,57.18L480.33,50.58L483.31,41.43L484.81,27.35L487.79,25.18L489.28,20.01L490.77,23.79L492.27,16L495.25,24.85L496.74,18.03L498.23,26.88L499.72,30.13L501.22,27.52L502.71,27.62L505.69,27.92L507.18,30.64L508.67,55.29L510.17,50.72L511.66,54.79L513.15,47.05L514.64,52.87L516.13,62.21L519.12,54.99L520.61,66.71L522.1,72.94L523.59,71.82L525.08,71.31L526.57,74.61L528.07,84.3L529.56,85.67L531.05,86.89L532.54,85.43L535.52,79.21L537.02,84.21L540,85.62" style="vector-effect: none; fill: none; stroke: rgb(99, 110, 250); stroke-opacity: 1; stroke-width: 2px; opacity: 1;"/></g><g class="points"/><g class="text"/></g></g></g><g class="overplot"/><path class="xlines-above crisp" d="M0,0" style="fill: none;"/><path class="ylines-above crisp" d="M0,0" style="fill: none;"/><g class="overlines-above"/><g class="xaxislayer-above"><g class="xtick"><text text-anchor="middle" x="0" y="433" transform="translate(151.6,0)" style="font-family: 'Open Sans', verdana, arial, sans-serif; font-size: 12px; fill: rgb(42, 63, 95); fill-opacity: 1; white-space: pre; opacity: 1;">Sep 2022</text></g><g class="xtick"><text text-anchor="middle" x="0" y="433" style="font-family: 'Open Sans', verdana, arial, sans-serif; font-size: 12px; fill: rgb(42, 63, 95); fill-opacity: 1; white-space: pre; opacity: 1;" transform="translate(242.6,0)">Nov 2022</text></g><g class="xtick"><text text-anchor="middle" x="0" y="433" style="font-family: 'Open Sans', verdana, arial, sans-serif; font-size: 12px; fill: rgb(42, 63, 95); fill-opacity: 1; white-space: pre; opacity: 1;" transform="translate(333.59000000000003,0)">Jan 2023</text></g><g class="xtick"><text text-anchor="middle" x="0" y="433" style="font-family: 'Open Sans', verdana, arial, sans-serif; font-size: 12px; fill: rgb(42, 63, 95); fill-opacity: 1; white-space: pre; opacity: 1;" transform="translate(421.6,0)">Mar 2023</text></g><g class="xtick"><text text-anchor="middle" x="0" y="433" style="font-family: 'Open Sans', verdana, arial, sans-serif; font-size: 12px; fill: rgb(42, 63, 95); fill-opacity: 1; white-space: pre; opacity: 1;" transform="translate(512.6,0)">May 2023</text></g><g class="xtick"><text text-anchor="middle" x="0" y="433" style="font-family: 'Open Sans', verdana, arial, sans-serif; font-size: 12px; fill: rgb(42, 63, 95); fill-opacity: 1; white-space: pre; opacity: 1;" transform="translate(603.59,0)">Jul 2023</text></g></g><g class="yaxislayer-above"><g class="ytick"><text text-anchor="end" x="79" y="4.199999999999999" transform="translate(0,413.11)" style="font-family: 'Open Sans', verdana, arial, sans-serif; font-size: 12px; fill: rgb(42, 63, 95); fill-opacity: 1; white-space: pre; opacity: 1;">$−0.2M</text></g><g class="ytick"><text text-anchor="end" x="79" y="4.199999999999999" style="font-family: 'Open Sans', verdana, arial, sans-serif; font-size: 12px; fill: rgb(42, 63, 95); fill-opacity: 1; white-space: pre; opacity: 1;" transform="translate(0,376.49)">$0</text></g><g class="ytick"><text text-anchor="end" x="79" y="4.199999999999999" style="font-family: 'Open Sans', verdana, arial, sans-serif; font-size: 12px; fill: rgb(42, 63, 95); fill-opacity: 1; white-space: pre; opacity: 1;" transform="translate(0,339.87)">$0.2M</text></g><g class="ytick"><text text-anchor="end" x="79" y="4.199999999999999" style="font-family: 'Open Sans', verdana, arial, sans-serif; font-size: 12px; fill: rgb(42, 63, 95); fill-opacity: 1; white-space: pre; opacity: 1;" transform="translate(0,303.25)">$0.4M</text></g><g class="ytick"><text text-anchor="end" x="79" y="4.199999999999999" style="font-family: 'Open Sans', verdana, arial, sans-serif; font-size: 12px; fill: rgb(42, 63, 95); fill-opacity: 1; white-space: pre; opacity: 1;" transform="translate(0,266.63)">$0.6M</text></g><g class="ytick"><text text-anchor="end" x="79" y="4.199999999999999" style="font-family: 'Open Sans', verdana, arial, sans-serif; font-size: 12px; fill: rgb(42, 63, 95); fill-opacity: 1; white-space: pre; opacity: 1;" transform="translate(0,230.01)">$0.8M</text></g><g class="ytick"><text text-anchor="end" x="79" y="4.199999999999999" style="font-family: 'Open Sans', verdana, arial, sans-serif; font-size: 12px; fill: rgb(42, 63, 95); fill-opacity: 1; white-space: pre; opacity: 1;" transform="translate(0,193.4)">$1M</text></g><g class="ytick"><text text-anchor="end" x="79" y="4.199999999999999" style="font-family: 'Open Sans', verdana, arial, sans-serif; font-size: 12px; fill: rgb(42, 63, 95); fill-opacity: 1; white-space: pre; opacity: 1;" transform="translate(0,156.78)">$1.2M</text></g><g class="ytick"><text text-anchor="end" x="79" y="4.199999999999999" style="font-family: 'Open Sans', verdana, arial, sans-serif; font-size: 12px; fill: rgb(42, 63, 95); fill-opacity: 1; white-space: pre; opacity: 1;" transform="translate(0,120.16)">$1.4M</text></g></g><g class="overaxes-above"/></g></g><g class="polarlayer"/><g class="smithlayer"/><g class="ternarylayer"/><g class="geolayer"/><g class="funnelarealayer"/><g class="pielayer"/><g class="iciclelayer"/><g class="treemaplayer"/><g class="sunburstlayer"/><g class="glimages"/><defs id="topdefs-273c7b"><g class="clips"/></defs><g class="layer-above"><g class="imagelayer"/><g class="shapelayer"/></g><g class="infolayer"><g class="g-gtitle"><text class="gtitle" x="35" y="50" text-anchor="start" dy="0em" style="font-family: 'Open Sans', verdana, arial, sans-serif; font-size: 17px; fill: rgb(42, 63, 95); opacity: 1; font-weight: normal; white-space: pre;"><tspan class="line" dy="0em" x="35" y="50">Thales</tspan><tspan class="line" dy="1.3em" x="35" y="50">​<tspan style="font-size:70%" dy="-0.6em">Cumulative Net Flows since Program Announcement, Until Program End + 30 Days - At Last Price</tspan><tspan dy="0.42em">​</tspan></tspan></text></g><g class="g-xtitle"><text class="xtitle" x="350" y="460.3" text-anchor="middle" style="font-family: 'Open Sans', verdana, arial, sans-serif; font-size: 14px; fill: rgb(42, 63, 95); opacity: 1; font-weight: normal; white-space: pre;">Day</text></g><g class="g-ytitle"><text class="ytitle" transform="rotate(-90,14.340625000000003,260)" x="14.340625000000003" y="260" text-anchor="middle" style="font-family: 'Open Sans', verdana, arial, sans-serif; font-size: 14px; fill: rgb(42, 63, 95); opacity: 1; font-weight: normal; white-space: pre;">Cumulative Net Flows (USD)</text></g></g></svg>