<svg class="main-svg" xmlns="http://www.w3.org/2000/svg" xmlns:xlink="http://www.w3.org/1999/xlink" width="700" height="500" style="" viewBox="0 0 700 500"><rect x="0" y="0" width="700" height="500" style="fill: rgb(255, 255, 255); fill-opacity: 1;"/><defs id="defs-60a2e3"><g class="clips"><clipPath id="clip60a2e3xyplot" class="plotclip"><rect width="540" height="320"/></clipPath><clipPath class="axesclip" id="clip60a2e3x"><rect x="80" y="0" width="540" height="500"/></clipPath><clipPath class="axesclip" id="clip60a2e3y"><rect x="0" y="100" width="700" height="320"/></clipPath><clipPath class="axesclip" id="clip60a2e3xy"><rect x="80" y="100" width="540" height="320"/></clipPath></g><g class="gradients"/><g class="patterns"/></defs><g class="bglayer"><rect class="bg" x="80" y="100" width="540" height="320" style="fill: rgb(229, 236, 246); fill-opacity: 1; stroke-width: 0;"/></g><g class="layer-below"><g class="imagelayer"/><g class="shapelayer"/></g><g class="cartesianlayer"><g class="subplot xy"><g class="layer-subplot"><g class="shapelayer"/><g class="imagelayer"/></g><g class="minor-gridlayer"><g class="x"/><g class="y"/></g><g class="gridlayer"><g class="x"><path class="xgrid crisp" transform="translate(89.47,0)" d="M0,100v320" style="stroke: rgb(255, 255, 255); stroke-opacity: 1; stroke-width: 1px;"/><path class="xgrid crisp" transform="translate(172.03,0)" d="M0,100v320" style="stroke: rgb(255, 255, 255); stroke-opacity: 1; stroke-width: 1px;"/><path class="xgrid crisp" transform="translate(251.88,0)" d="M0,100v320" style="stroke: rgb(255, 255, 255); stroke-opacity: 1; stroke-width: 1px;"/><path class="xgrid crisp" transform="translate(334.44,0)" d="M0,100v320" style="stroke: rgb(255, 255, 255); stroke-opacity: 1; stroke-width: 1px;"/><path class="xgrid crisp" transform="translate(416.99,0)" d="M0,100v320" style="stroke: rgb(255, 255, 255); stroke-opacity: 1; stroke-width: 1px;"/><path class="xgrid crisp" transform="translate(500.9,0)" d="M0,100v320" style="stroke: rgb(255, 255, 255); stroke-opacity: 1; stroke-width: 1px;"/><path class="xgrid crisp" transform="translate(583.46,0)" d="M0,100v320" style="stroke: rgb(255, 255, 255); stroke-opacity: 1; stroke-width: 1px;"/></g><g class="y"><path class="ygrid crisp" transform="translate(0,308.65999999999997)" d="M80,0h540" style="stroke: rgb(255, 255, 255); stroke-opacity: 1; stroke-width: 1px;"/><path class="ygrid crisp" transform="translate(0,225.57999999999998)" d="M80,0h540" style="stroke: rgb(255, 255, 255); stroke-opacity: 1; stroke-width: 1px;"/><path class="ygrid crisp" transform="translate(0,142.49)" d="M80,0h540" style="stroke: rgb(255, 255, 255); stroke-opacity: 1; stroke-width: 1px;"/></g></g><g class="zerolinelayer"><path class="yzl zl crisp" transform="translate(0,391.75)" d="M80,0h540" style="stroke: rgb(255, 255, 255); stroke-opacity: 1; stroke-width: 2px;"/></g><path class="xlines-below"/><path class="ylines-below"/><g class="overlines-below"/><g class="xaxislayer-below"/><g class="yaxislayer-below"/><g class="overaxes-below"/><g class="plot" transform="translate(80,100)" clip-path="url(#clip60a2e3xyplot)"><g class="scatterlayer mlayer"><g class="trace scatter tracef4d5de" style="stroke-miterlimit: 2;"><g class="fills"><g><path class="js-fill" d="M540,291.75L0,291.75L0,291.75L1.35,291.75L2.71,237.87L4.06,159.92L5.41,171.31L6.77,174.53L8.12,159.06L9.47,162.52L10.83,150.45L12.18,146.03L13.53,174.22L14.89,173.45L16.24,171.55L17.59,171.26L18.95,174.39L21.65,209.6L23.01,209.15L24.36,200.63L25.71,199.33L27.07,162.91L28.42,163.4L29.77,161.21L31.13,168.21L33.83,183.7L35.19,180.06L36.54,178L37.89,179.02L39.25,178.9L40.6,177.33L41.95,177L43.31,172.31L44.66,161.83L46.02,144.09L47.37,154.59L48.72,157.98L50.08,185.07L51.43,168.8L54.14,148.36L55.49,172.04L56.84,173.25L58.2,196.08L59.55,179.82L60.9,179.34L62.26,180.26L63.61,190.86L64.96,189.81L66.32,190.04L69.02,189.93L70.38,183.62L71.73,173.67L73.08,173.03L74.44,173.03L75.79,174.08L77.14,171.11L78.5,171.38L79.85,171.46L81.2,169.37L82.56,169.84L83.91,168.98L85.26,165.12L86.62,164.77L87.97,169.32L89.32,167.72L90.68,170.59L92.03,170.34L93.38,169.34L94.74,166.27L96.09,162.31L97.44,164.03L101.5,163.73L102.86,161.58L104.21,163.22L105.56,166.6L108.27,152.88L109.62,151.68L110.98,149.03L112.33,140.5L113.68,178.63L115.04,172.59L116.39,177.38L117.74,203.03L119.1,207.98L120.45,204.2L123.16,196.36L124.51,194.08L125.86,179.44L127.22,182.46L128.57,181.42L129.92,179.35L131.28,154.97L132.63,167.89L133.98,161.91L135.34,146.19L136.69,157.23L138.05,156.69L139.4,150.72L140.75,151.05L142.11,128.72L143.46,151.47L144.81,153.84L146.17,152.87L147.52,143.45L148.87,142.1L150.23,143.02L151.58,113.21L154.29,120.94L155.64,126.52L156.99,117.09L158.35,124.26L159.7,123.8L161.05,127.8L163.76,106.89L165.11,78.3L166.47,69.55L167.82,77.21L169.17,76.83L170.53,61.41L171.88,60.69L173.23,79.11L174.59,63.43L175.94,68.24L177.29,72.31L178.65,58.1L181.35,78.07L182.71,67.38L184.06,45.54L185.41,71.6L186.77,26.89L188.12,53.3L190.83,148.99L192.18,243.88L193.53,222.38L194.89,214.46L196.24,216.34L197.59,215.51L200.3,178.83L201.65,44.15L204.36,68.91L205.71,42.19L207.07,16L208.42,58.05L209.77,57.31L211.13,76.73L213.83,74.14L215.19,59.5L216.54,58.74L217.89,54.32L219.25,59.98L220.6,70.17L221.95,74.51L223.31,105.6L224.66,176.12L226.02,167.12L228.72,165.93L230.08,176.74L231.43,195.6L232.78,194L234.14,196.68L235.49,196.24L236.84,199.6L238.2,158.99L239.55,255.21L240.9,234.42L243.61,201.64L244.96,195.86L246.32,198.2L247.67,197.88L249.02,197.82L250.38,198.69L251.73,198.84L253.08,207.15L254.44,255.98L255.79,250.3L257.14,247.27L258.5,248.72L259.85,162.22L261.2,153.85L262.56,153.92L263.91,155.86L265.26,160.42L266.62,123.36L267.97,127.31L269.32,92.33L270.68,161.29L272.03,149.19L273.38,132.36L274.74,134.65L276.09,138.55L277.44,128.53L278.8,103.28L280.15,113.38L281.5,150.57L282.86,151.02L284.21,145.67L285.56,169.54L286.92,124.88L288.27,125.19L290.98,115.12L292.33,92.85L293.68,97.38L295.04,199.99L296.39,254.78L297.74,247.64L299.1,248.88L300.45,218.22L301.8,215.11L303.16,222.59L304.51,222.67L305.86,219.31L307.22,192.14L308.57,193.83L311.28,206.22L312.63,206.39L313.98,200.46L315.34,202.27L316.69,195.2L318.05,200.72L319.4,200.62L320.75,201.63L322.11,202.03L323.46,203.29L324.81,197.71L326.17,203.19L328.87,205.33L330.23,204.9L332.93,208.51L334.29,204.08L335.64,216.58L336.99,216.78L338.35,217.35L339.7,216.92L341.05,215.71L342.41,207.67L343.76,209L345.11,226.3L347.82,226.62L349.17,229.12L350.53,228.41L351.88,221.85L353.23,215.39L354.59,217.12L355.94,203.52L357.29,210.47L358.65,219.44L360,210.11L361.35,229.7L362.71,227.48L364.06,241.94L365.41,228.78L366.77,232.53L368.12,225.41L369.47,207.74L370.83,207.93L372.18,208.09L373.53,211.93L374.89,216.65L376.24,224.26L377.59,225.9L378.95,230.87L380.3,234.93L381.65,235.62L383.01,228.51L384.36,228.1L387.07,237.51L388.42,207.52L391.13,210.88L392.48,219.79L393.83,220.78L395.19,220.79L396.54,220.8L397.89,219.62L399.25,219.98L400.6,221.68L401.95,221.42L403.31,224.75L404.66,227.58L406.02,228.42L408.72,228.19L410.08,238.66L411.43,239.46L412.78,214.35L415.49,214.72L416.84,212.79L418.2,218.05L419.55,211.61L420.9,213.94L422.26,221.18L424.96,220.73L426.32,221.22L427.67,224.03L429.02,268.28L431.73,268.38L433.08,265.57L434.44,265.56L435.79,266.69L437.14,267.27L438.5,265.92L439.85,266.41L441.2,264.36L442.56,267.93L443.91,267.98L446.62,268.16L447.97,264.9L449.32,271.58L450.68,271.77L452.03,271.93L453.38,273.29L454.74,273.6L456.09,255.88L457.44,257.48L458.8,269.52L461.5,279.78L462.86,280.54L464.21,284.58L465.56,298.49L466.92,298.76L468.27,291.16L472.33,292.01L473.68,293.94L475.04,296.49L476.39,289.67L477.74,286.35L479.1,286.8L484.51,288.27L485.86,274.26L487.22,274.71L488.57,277.7L489.92,275.88L491.28,281.16L492.63,284.19L493.98,283.13L495.34,285.42L496.69,285.46L499.4,285.86L500.75,286.6L502.11,289.21L503.46,288.55L506.17,289.17L507.52,289.17L510.23,289.66L511.58,303.18L512.93,303L514.29,304L515.64,276.52L516.99,276.57L518.35,287.35L519.7,289.25L523.76,289.73L525.11,291.81L533.23,292.76L534.59,296.3L540,296.31" style="fill: rgb(99, 110, 250); fill-opacity: 0.5; stroke-width: 0;"/></g></g><g class="errorbars"/><g class="lines"><path class="js-line" d="M0,291.75L1.35,291.75L2.71,237.87L4.06,159.92L5.41,171.31L6.77,174.53L8.12,159.06L9.47,162.52L10.83,150.45L12.18,146.03L13.53,174.22L14.89,173.45L16.24,171.55L17.59,171.26L18.95,174.39L21.65,209.6L23.01,209.15L24.36,200.63L25.71,199.33L27.07,162.91L28.42,163.4L29.77,161.21L31.13,168.21L33.83,183.7L35.19,180.06L36.54,178L37.89,179.02L39.25,178.9L40.6,177.33L41.95,177L43.31,172.31L44.66,161.83L46.02,144.09L47.37,154.59L48.72,157.98L50.08,185.07L51.43,168.8L54.14,148.36L55.49,172.04L56.84,173.25L58.2,196.08L59.55,179.82L60.9,179.34L62.26,180.26L63.61,190.86L64.96,189.81L66.32,190.04L69.02,189.93L70.38,183.62L71.73,173.67L73.08,173.03L74.44,173.03L75.79,174.08L77.14,171.11L78.5,171.38L79.85,171.46L81.2,169.37L82.56,169.84L83.91,168.98L85.26,165.12L86.62,164.77L87.97,169.32L89.32,167.72L90.68,170.59L92.03,170.34L93.38,169.34L94.74,166.27L96.09,162.31L97.44,164.03L101.5,163.73L102.86,161.58L104.21,163.22L105.56,166.6L108.27,152.88L109.62,151.68L110.98,149.03L112.33,140.5L113.68,178.63L115.04,172.59L116.39,177.38L117.74,203.03L119.1,207.98L120.45,204.2L123.16,196.36L124.51,194.08L125.86,179.44L127.22,182.46L128.57,181.42L129.92,179.35L131.28,154.97L132.63,167.89L133.98,161.91L135.34,146.19L136.69,157.23L138.05,156.69L139.4,150.72L140.75,151.05L142.11,128.72L143.46,151.47L144.81,153.84L146.17,152.87L147.52,143.45L148.87,142.1L150.23,143.02L151.58,113.21L154.29,120.94L155.64,126.52L156.99,117.09L158.35,124.26L159.7,123.8L161.05,127.8L163.76,106.89L165.11,78.3L166.47,69.55L167.82,77.21L169.17,76.83L170.53,61.41L171.88,60.69L173.23,79.11L174.59,63.43L175.94,68.24L177.29,72.31L178.65,58.1L181.35,78.07L182.71,67.38L184.06,45.54L185.41,71.6L186.77,26.89L188.12,53.3L190.83,148.99L192.18,243.88L193.53,222.38L194.89,214.46L196.24,216.34L197.59,215.51L200.3,178.83L201.65,44.15L204.36,68.91L205.71,42.19L207.07,16L208.42,58.05L209.77,57.31L211.13,76.73L213.83,74.14L215.19,59.5L216.54,58.74L217.89,54.32L219.25,59.98L220.6,70.17L221.95,74.51L223.31,105.6L224.66,176.12L226.02,167.12L228.72,165.93L230.08,176.74L231.43,195.6L232.78,194L234.14,196.68L235.49,196.24L236.84,199.6L238.2,158.99L239.55,255.21L240.9,234.42L243.61,201.64L244.96,195.86L246.32,198.2L247.67,197.88L249.02,197.82L250.38,198.69L251.73,198.84L253.08,207.15L254.44,255.98L255.79,250.3L257.14,247.27L258.5,248.72L259.85,162.22L261.2,153.85L262.56,153.92L263.91,155.86L265.26,160.42L266.62,123.36L267.97,127.31L269.32,92.33L270.68,161.29L272.03,149.19L273.38,132.36L274.74,134.65L276.09,138.55L277.44,128.53L278.8,103.28L280.15,113.38L281.5,150.57L282.86,151.02L284.21,145.67L285.56,169.54L286.92,124.88L288.27,125.19L290.98,115.12L292.33,92.85L293.68,97.38L295.04,199.99L296.39,254.78L297.74,247.64L299.1,248.88L300.45,218.22L301.8,215.11L303.16,222.59L304.51,222.67L305.86,219.31L307.22,192.14L308.57,193.83L311.28,206.22L312.63,206.39L313.98,200.46L315.34,202.27L316.69,195.2L318.05,200.72L319.4,200.62L320.75,201.63L322.11,202.03L323.46,203.29L324.81,197.71L326.17,203.19L328.87,205.33L330.23,204.9L332.93,208.51L334.29,204.08L335.64,216.58L336.99,216.78L338.35,217.35L339.7,216.92L341.05,215.71L342.41,207.67L343.76,209L345.11,226.3L347.82,226.62L349.17,229.12L350.53,228.41L351.88,221.85L353.23,215.39L354.59,217.12L355.94,203.52L357.29,210.47L358.65,219.44L360,210.11L361.35,229.7L362.71,227.48L364.06,241.94L365.41,228.78L366.77,232.53L368.12,225.41L369.47,207.74L370.83,207.93L372.18,208.09L373.53,211.93L374.89,216.65L376.24,224.26L377.59,225.9L378.95,230.87L380.3,234.93L381.65,235.62L383.01,228.51L384.36,228.1L387.07,237.51L388.42,207.52L391.13,210.88L392.48,219.79L393.83,220.78L395.19,220.79L396.54,220.8L397.89,219.62L399.25,219.98L400.6,221.68L401.95,221.42L403.31,224.75L404.66,227.58L406.02,228.42L408.72,228.19L410.08,238.66L411.43,239.46L412.78,214.35L415.49,214.72L416.84,212.79L418.2,218.05L419.55,211.61L420.9,213.94L422.26,221.18L424.96,220.73L426.32,221.22L427.67,224.03L429.02,268.28L431.73,268.38L433.08,265.57L434.44,265.56L435.79,266.69L437.14,267.27L438.5,265.92L439.85,266.41L441.2,264.36L442.56,267.93L443.91,267.98L446.62,268.16L447.97,264.9L449.32,271.58L450.68,271.77L452.03,271.93L453.38,273.29L454.74,273.6L456.09,255.88L457.44,257.48L458.8,269.52L461.5,279.78L462.86,280.54L464.21,284.58L465.56,298.49L466.92,298.76L468.27,291.16L472.33,292.01L473.68,293.94L475.04,296.49L476.39,289.67L477.74,286.35L479.1,286.8L484.51,288.27L485.86,274.26L487.22,274.71L488.57,277.7L489.92,275.88L491.28,281.16L492.63,284.19L493.98,283.13L495.34,285.42L496.69,285.46L499.4,285.86L500.75,286.6L502.11,289.21L503.46,288.55L506.17,289.17L507.52,289.17L510.23,289.66L511.58,303.18L512.93,303L514.29,304L515.64,276.52L516.99,276.57L518.35,287.35L519.7,289.25L523.76,289.73L525.11,291.81L533.23,292.76L534.59,296.3L540,296.31" style="vector-effect: none; fill: none; stroke: rgb(99, 110, 250); stroke-opacity: 1; stroke-width: 2px; opacity: 1;"/></g><g class="points"/><g class="text"/></g></g></g><g class="overplot"/><path class="xlines-above crisp" d="M0,0" style="fill: none;"/><path class="ylines-above crisp" d="M0,0" style="fill: none;"/><g class="overlines-above"/><g class="xaxislayer-above"><g class="xtick"><text text-anchor="middle" x="0" y="433" transform="translate(89.47,0)" style="font-family: 'Open Sans', verdana, arial, sans-serif; font-size: 12px; fill: rgb(42, 63, 95); fill-opacity: 1; white-space: pre; opacity: 1;">Nov 2022</text></g><g class="xtick"><text text-anchor="middle" x="0" y="433" style="font-family: 'Open Sans', verdana, arial, sans-serif; font-size: 12px; fill: rgb(42, 63, 95); fill-opacity: 1; white-space: pre; opacity: 1;" transform="translate(172.03,0)">Jan 2023</text></g><g class="xtick"><text text-anchor="middle" x="0" y="433" style="font-family: 'Open Sans', verdana, arial, sans-serif; font-size: 12px; fill: rgb(42, 63, 95); fill-opacity: 1; white-space: pre; opacity: 1;" transform="translate(251.88,0)">Mar 2023</text></g><g class="xtick"><text text-anchor="middle" x="0" y="433" style="font-family: 'Open Sans', verdana, arial, sans-serif; font-size: 12px; fill: rgb(42, 63, 95); fill-opacity: 1; white-space: pre; opacity: 1;" transform="translate(334.44,0)">May 2023</text></g><g class="xtick"><text text-anchor="middle" x="0" y="433" style="font-family: 'Open Sans', verdana, arial, sans-serif; font-size: 12px; fill: rgb(42, 63, 95); fill-opacity: 1; white-space: pre; opacity: 1;" transform="translate(416.99,0)">Jul 2023</text></g><g class="xtick"><text text-anchor="middle" x="0" y="433" style="font-family: 'Open Sans', verdana, arial, sans-serif; font-size: 12px; fill: rgb(42, 63, 95); fill-opacity: 1; white-space: pre; opacity: 1;" transform="translate(500.9,0)">Sep 2023</text></g><g class="xtick"><text text-anchor="middle" x="0" y="433" style="font-family: 'Open Sans', verdana, arial, sans-serif; font-size: 12px; fill: rgb(42, 63, 95); fill-opacity: 1; white-space: pre; opacity: 1;" transform="translate(583.46,0)">Nov 2023</text></g></g><g class="yaxislayer-above"><g class="ytick"><text text-anchor="end" x="79" y="4.199999999999999" transform="translate(0,391.75)" style="font-family: 'Open Sans', verdana, arial, sans-serif; font-size: 12px; fill: rgb(42, 63, 95); fill-opacity: 1; white-space: pre; opacity: 1;">$0</text></g><g class="ytick"><text text-anchor="end" x="79" y="4.199999999999999" style="font-family: 'Open Sans', verdana, arial, sans-serif; font-size: 12px; fill: rgb(42, 63, 95); fill-opacity: 1; white-space: pre; opacity: 1;" transform="translate(0,308.65999999999997)">$0.5M</text></g><g class="ytick"><text text-anchor="end" x="79" y="4.199999999999999" style="font-family: 'Open Sans', verdana, arial, sans-serif; font-size: 12px; fill: rgb(42, 63, 95); fill-opacity: 1; white-space: pre; opacity: 1;" transform="translate(0,225.57999999999998)">$1M</text></g><g class="ytick"><text text-anchor="end" x="79" y="4.199999999999999" style="font-family: 'Open Sans', verdana, arial, sans-serif; font-size: 12px; fill: rgb(42, 63, 95); fill-opacity: 1; white-space: pre; opacity: 1;" transform="translate(0,142.49)">$1.5M</text></g></g><g class="overaxes-above"/></g></g><g class="polarlayer"/><g class="smithlayer"/><g class="ternarylayer"/><g class="geolayer"/><g class="funnelarealayer"/><g class="pielayer"/><g class="iciclelayer"/><g class="treemaplayer"/><g class="sunburstlayer"/><g class="glimages"/><defs id="topdefs-60a2e3"><g class="clips"/></defs><g class="layer-above"><g class="imagelayer"/><g class="shapelayer"/></g><g class="infolayer"><g class="g-gtitle"><text class="gtitle" x="35" y="50" text-anchor="start" dy="0em" style="font-family: 'Open Sans', verdana, arial, sans-serif; font-size: 17px; fill: rgb(42, 63, 95); opacity: 1; font-weight: normal; white-space: pre;"><tspan class="line" dy="0em" x="35" y="50">Synthetix - SNX Bridge: Hop</tspan><tspan class="line" dy="1.3em" x="35" y="50">​<tspan style="font-size:70%" dy="-0.6em">Cumulative Net Flows since Program Announcement, Until Program End + 30 Days - At Last Price</tspan><tspan dy="0.42em">​</tspan></tspan></text></g><g class="g-xtitle"><text class="xtitle" x="350" y="460.3" text-anchor="middle" style="font-family: 'Open Sans', verdana, arial, sans-serif; font-size: 14px; fill: rgb(42, 63, 95); opacity: 1; font-weight: normal; white-space: pre;">Day</text></g><g class="g-ytitle"><text class="ytitle" transform="rotate(-90,21.340625000000003,260)" x="21.340625000000003" y="260" text-anchor="middle" style="font-family: 'Open Sans', verdana, arial, sans-serif; font-size: 14px; fill: rgb(42, 63, 95); opacity: 1; font-weight: normal; white-space: pre;">Cumulative Net Flows (USD)</text></g></g></svg>