<svg class="main-svg" xmlns="http://www.w3.org/2000/svg" xmlns:xlink="http://www.w3.org/1999/xlink" width="700" height="500" style="" viewBox="0 0 700 500"><rect x="0" y="0" width="700" height="500" style="fill: rgb(255, 255, 255); fill-opacity: 1;"/><defs id="defs-db6ebd"><g class="clips"><clipPath id="clipdb6ebdxyplot" class="plotclip"><rect width="540" height="320"/></clipPath><clipPath class="axesclip" id="clipdb6ebdx"><rect x="80" y="0" width="540" height="500"/></clipPath><clipPath class="axesclip" id="clipdb6ebdy"><rect x="0" y="100" width="700" height="320"/></clipPath><clipPath class="axesclip" id="clipdb6ebdxy"><rect x="80" y="100" width="540" height="320"/></clipPath></g><g class="gradients"/><g class="patterns"/></defs><g class="bglayer"><rect class="bg" x="80" y="100" width="540" height="320" style="fill: rgb(229, 236, 246); fill-opacity: 1; stroke-width: 0;"/></g><g class="layer-below"><g class="imagelayer"/><g class="shapelayer"/></g><g class="cartesianlayer"><g class="subplot xy"><g class="layer-subplot"><g class="shapelayer"/><g class="imagelayer"/></g><g class="minor-gridlayer"><g class="x"/><g class="y"/></g><g class="gridlayer"><g class="x"><path class="xgrid crisp" transform="translate(119.19,0)" d="M0,100v320" style="stroke: rgb(255, 255, 255); stroke-opacity: 1; stroke-width: 1px;"/><path class="xgrid crisp" transform="translate(241.13,0)" d="M0,100v320" style="stroke: rgb(255, 255, 255); stroke-opacity: 1; stroke-width: 1px;"/><path class="xgrid crisp" transform="translate(376.13,0)" d="M0,100v320" style="stroke: rgb(255, 255, 255); stroke-opacity: 1; stroke-width: 1px;"/><path class="xgrid crisp" transform="translate(506.78,0)" d="M0,100v320" style="stroke: rgb(255, 255, 255); stroke-opacity: 1; stroke-width: 1px;"/></g><g class="y"><path class="ygrid crisp" transform="translate(0,382.44)" d="M80,0h540" style="stroke: rgb(255, 255, 255); stroke-opacity: 1; stroke-width: 1px;"/><path class="ygrid crisp" transform="translate(0,311.83000000000004)" d="M80,0h540" style="stroke: rgb(255, 255, 255); stroke-opacity: 1; stroke-width: 1px;"/><path class="ygrid crisp" transform="translate(0,241.22)" d="M80,0h540" style="stroke: rgb(255, 255, 255); stroke-opacity: 1; stroke-width: 1px;"/><path class="ygrid crisp" transform="translate(0,170.61)" d="M80,0h540" style="stroke: rgb(255, 255, 255); stroke-opacity: 1; stroke-width: 1px;"/></g></g><g class="zerolinelayer"><path class="yzl zl crisp" transform="translate(0,100)" d="M80,0h540" style="stroke: rgb(255, 255, 255); stroke-opacity: 1; stroke-width: 2px;"/></g><path class="xlines-below"/><path class="ylines-below"/><g class="overlines-below"/><g class="xaxislayer-below"/><g class="yaxislayer-below"/><g class="overaxes-below"/><g class="plot" transform="translate(80,100)" clip-path="url(#clipdb6ebdxyplot)"><g class="scatterlayer mlayer"><g class="trace scatter trace51085b" style="stroke-miterlimit: 2;"><g class="fills"><g><path class="js-fill" d="M540,0L0,0L0,7.25L4.35,8.08L8.71,91.21L13.06,91.44L17.42,102.33L21.77,108.09L26.13,115.84L30.48,123.06L34.84,124.36L39.19,127.02L43.55,126.92L47.9,125.59L52.26,127.69L56.61,131.07L60.97,136.48L65.32,140.11L69.68,139.86L74.03,145.1L78.39,159.52L82.74,163.65L87.1,171.88L91.45,179.01L95.81,179.78L100.16,184.89L104.52,166.07L108.87,169.68L113.23,179.59L117.58,226.33L121.94,226.71L126.29,226.76L130.65,225.26L135,231.59L139.36,236.21L143.71,230.88L148.06,231.64L152.42,228.85L156.77,209.84L161.13,210.56L165.48,215.6L169.84,228.98L174.19,234.09L178.55,238.2L182.9,238.53L191.61,239.68L195.97,238.76L200.32,229.29L204.68,239.48L209.03,267.39L213.39,268.29L217.74,259.72L222.1,259.99L226.45,238.55L230.81,229.59L239.52,233.78L243.87,250.22L248.23,250.56L252.58,265.29L256.94,267.23L261.29,264.76L265.65,264.25L270,274.98L274.36,278.74L278.71,278.83L283.07,267.44L287.42,261.41L291.77,266.12L296.13,266.08L300.48,257.47L304.84,264.98L309.19,267.57L313.55,243.49L317.9,241.98L322.26,244.84L326.61,240.84L330.97,241.23L335.32,242.59L339.68,257.09L344.03,250.51L348.39,246.27L352.74,251.73L357.1,254.28L361.45,257.28L365.81,252.92L370.16,251.34L374.52,253.48L378.87,249.03L383.23,249.93L387.58,249.6L391.94,251.99L396.29,252.5L400.65,257.6L405,258.84L409.36,257.6L413.71,258.3L418.07,265.72L422.42,265.28L426.78,255.99L444.19,255.55L448.55,258.02L452.9,257.56L457.26,258.91L461.61,259.05L465.97,258.41L470.32,256.89L474.68,263.36L479.03,259.82L483.39,259.42L487.74,256.11L492.1,256.3L496.45,260.84L500.81,260.36L509.52,267.94L513.87,279.87L518.23,280.25L522.58,286.7L531.29,304L535.65,302.97L540,224.46" style="fill: rgb(99, 110, 250); fill-opacity: 0.5; stroke-width: 0;"/></g></g><g class="errorbars"/><g class="lines"><path class="js-line" d="M0,7.25L4.35,8.08L8.71,91.21L13.06,91.44L17.42,102.33L21.77,108.09L26.13,115.84L30.48,123.06L34.84,124.36L39.19,127.02L43.55,126.92L47.9,125.59L52.26,127.69L56.61,131.07L60.97,136.48L65.32,140.11L69.68,139.86L74.03,145.1L78.39,159.52L82.74,163.65L87.1,171.88L91.45,179.01L95.81,179.78L100.16,184.89L104.52,166.07L108.87,169.68L113.23,179.59L117.58,226.33L121.94,226.71L126.29,226.76L130.65,225.26L135,231.59L139.36,236.21L143.71,230.88L148.06,231.64L152.42,228.85L156.77,209.84L161.13,210.56L165.48,215.6L169.84,228.98L174.19,234.09L178.55,238.2L182.9,238.53L191.61,239.68L195.97,238.76L200.32,229.29L204.68,239.48L209.03,267.39L213.39,268.29L217.74,259.72L222.1,259.99L226.45,238.55L230.81,229.59L239.52,233.78L243.87,250.22L248.23,250.56L252.58,265.29L256.94,267.23L261.29,264.76L265.65,264.25L270,274.98L274.36,278.74L278.71,278.83L283.07,267.44L287.42,261.41L291.77,266.12L296.13,266.08L300.48,257.47L304.84,264.98L309.19,267.57L313.55,243.49L317.9,241.98L322.26,244.84L326.61,240.84L330.97,241.23L335.32,242.59L339.68,257.09L344.03,250.51L348.39,246.27L352.74,251.73L357.1,254.28L361.45,257.28L365.81,252.92L370.16,251.34L374.52,253.48L378.87,249.03L383.23,249.93L387.58,249.6L391.94,251.99L396.29,252.5L400.65,257.6L405,258.84L409.36,257.6L413.71,258.3L418.07,265.72L422.42,265.28L426.78,255.99L444.19,255.55L448.55,258.02L452.9,257.56L457.26,258.91L461.61,259.05L465.97,258.41L470.32,256.89L474.68,263.36L479.03,259.82L483.39,259.42L487.74,256.11L492.1,256.3L496.45,260.84L500.81,260.36L509.52,267.94L513.87,279.87L518.23,280.25L522.58,286.7L531.29,304L535.65,302.97L540,224.46" style="vector-effect: none; fill: none; stroke: rgb(99, 110, 250); stroke-opacity: 1; stroke-width: 2px; opacity: 1;"/></g><g class="points"/><g class="text"/></g></g></g><g class="overplot"/><path class="xlines-above crisp" d="M0,0" style="fill: none;"/><path class="ylines-above crisp" d="M0,0" style="fill: none;"/><g class="overlines-above"/><g class="xaxislayer-above"><g class="xtick"><text text-anchor="middle" x="0" y="433" transform="translate(119.19,0)" style="font-family: 'Open Sans', verdana, arial, sans-serif; font-size: 12px; fill: rgb(42, 63, 95); fill-opacity: 1; white-space: pre; opacity: 1;">Feb 2023</text></g><g class="xtick"><text text-anchor="middle" x="0" y="433" style="font-family: 'Open Sans', verdana, arial, sans-serif; font-size: 12px; fill: rgb(42, 63, 95); fill-opacity: 1; white-space: pre; opacity: 1;" transform="translate(241.13,0)">Mar 2023</text></g><g class="xtick"><text text-anchor="middle" x="0" y="433" style="font-family: 'Open Sans', verdana, arial, sans-serif; font-size: 12px; fill: rgb(42, 63, 95); fill-opacity: 1; white-space: pre; opacity: 1;" transform="translate(376.13,0)">Apr 2023</text></g><g class="xtick"><text text-anchor="middle" x="0" y="433" style="font-family: 'Open Sans', verdana, arial, sans-serif; font-size: 12px; fill: rgb(42, 63, 95); fill-opacity: 1; white-space: pre; opacity: 1;" transform="translate(506.78,0)">May 2023</text></g></g><g class="yaxislayer-above"><g class="ytick"><text text-anchor="end" x="79" y="4.199999999999999" transform="translate(0,382.44)" style="font-family: 'Open Sans', verdana, arial, sans-serif; font-size: 12px; fill: rgb(42, 63, 95); fill-opacity: 1; white-space: pre; opacity: 1;">$−200k</text></g><g class="ytick"><text text-anchor="end" x="79" y="4.199999999999999" style="font-family: 'Open Sans', verdana, arial, sans-serif; font-size: 12px; fill: rgb(42, 63, 95); fill-opacity: 1; white-space: pre; opacity: 1;" transform="translate(0,311.83000000000004)">$−150k</text></g><g class="ytick"><text text-anchor="end" x="79" y="4.199999999999999" style="font-family: 'Open Sans', verdana, arial, sans-serif; font-size: 12px; fill: rgb(42, 63, 95); fill-opacity: 1; white-space: pre; opacity: 1;" transform="translate(0,241.22)">$−100k</text></g><g class="ytick"><text text-anchor="end" x="79" y="4.199999999999999" style="font-family: 'Open Sans', verdana, arial, sans-serif; font-size: 12px; fill: rgb(42, 63, 95); fill-opacity: 1; white-space: pre; opacity: 1;" transform="translate(0,170.61)">$−50k</text></g><g class="ytick"><text text-anchor="end" x="79" y="4.199999999999999" style="font-family: 'Open Sans', verdana, arial, sans-serif; font-size: 12px; fill: rgb(42, 63, 95); fill-opacity: 1; white-space: pre; opacity: 1;" transform="translate(0,100)">$0</text></g></g><g class="overaxes-above"/></g></g><g class="polarlayer"/><g class="smithlayer"/><g class="ternarylayer"/><g class="geolayer"/><g class="funnelarealayer"/><g class="pielayer"/><g class="iciclelayer"/><g class="treemaplayer"/><g class="sunburstlayer"/><g class="glimages"/><defs id="topdefs-db6ebd"><g class="clips"/></defs><g class="layer-above"><g class="imagelayer"/><g class="shapelayer"/></g><g class="infolayer"><g class="g-gtitle"><text class="gtitle" x="35" y="50" text-anchor="start" dy="0em" style="font-family: 'Open Sans', verdana, arial, sans-serif; font-size: 17px; fill: rgb(42, 63, 95); opacity: 1; font-weight: normal; white-space: pre;"><tspan class="line" dy="0em" x="35" y="50">Clipper</tspan><tspan class="line" dy="1.3em" x="35" y="50">​<tspan style="font-size:70%" dy="-0.6em">Cumulative Net Flows since Program Announcement, Until Program End + 30 Days - At Last Price</tspan><tspan dy="0.42em">​</tspan></tspan></text></g><g class="g-xtitle"><text class="xtitle" x="350" y="460.3" text-anchor="middle" style="font-family: 'Open Sans', verdana, arial, sans-serif; font-size: 14px; fill: rgb(42, 63, 95); opacity: 1; font-weight: normal; white-space: pre;">Day</text></g><g class="g-ytitle"><text class="ytitle" transform="rotate(-90,14.996875000000003,260)" x="14.996875000000003" y="260" text-anchor="middle" style="font-family: 'Open Sans', verdana, arial, sans-serif; font-size: 14px; fill: rgb(42, 63, 95); opacity: 1; font-weight: normal; white-space: pre;">Cumulative Net Flows (USD)</text></g></g></svg>