<svg class="main-svg" xmlns="http://www.w3.org/2000/svg" xmlns:xlink="http://www.w3.org/1999/xlink" width="700" height="500" style="" viewBox="0 0 700 500"><rect x="0" y="0" width="700" height="500" style="fill: rgb(255, 255, 255); fill-opacity: 1;"/><defs id="defs-3027dd"><g class="clips"><clipPath id="clip3027ddxyplot" class="plotclip"><rect width="540" height="320"/></clipPath><clipPath class="axesclip" id="clip3027ddx"><rect x="80" y="0" width="540" height="500"/></clipPath><clipPath class="axesclip" id="clip3027ddy"><rect x="0" y="100" width="700" height="320"/></clipPath><clipPath class="axesclip" id="clip3027ddxy"><rect x="80" y="100" width="540" height="320"/></clipPath></g><g class="gradients"/><g class="patterns"/></defs><g class="bglayer"><rect class="bg" x="80" y="100" width="540" height="320" style="fill: rgb(229, 236, 246); fill-opacity: 1; stroke-width: 0;"/></g><g class="layer-below"><g class="imagelayer"/><g class="shapelayer"/></g><g class="cartesianlayer"><g class="subplot xy"><g class="layer-subplot"><g class="shapelayer"/><g class="imagelayer"/></g><g class="minor-gridlayer"><g class="x"/><g class="y"/></g><g class="gridlayer"><g class="x"><path class="xgrid crisp" transform="translate(88.63,0)" d="M0,100v320" style="stroke: rgb(255, 255, 255); stroke-opacity: 1; stroke-width: 1px;"/><path class="xgrid crisp" transform="translate(163.84,0)" d="M0,100v320" style="stroke: rgb(255, 255, 255); stroke-opacity: 1; stroke-width: 1px;"/><path class="xgrid crisp" transform="translate(239.04,0)" d="M0,100v320" style="stroke: rgb(255, 255, 255); stroke-opacity: 1; stroke-width: 1px;"/><path class="xgrid crisp" transform="translate(311.78,0)" d="M0,100v320" style="stroke: rgb(255, 255, 255); stroke-opacity: 1; stroke-width: 1px;"/><path class="xgrid crisp" transform="translate(386.99,0)" d="M0,100v320" style="stroke: rgb(255, 255, 255); stroke-opacity: 1; stroke-width: 1px;"/><path class="xgrid crisp" transform="translate(462.19,0)" d="M0,100v320" style="stroke: rgb(255, 255, 255); stroke-opacity: 1; stroke-width: 1px;"/><path class="xgrid crisp" transform="translate(538.63,0)" d="M0,100v320" style="stroke: rgb(255, 255, 255); stroke-opacity: 1; stroke-width: 1px;"/><path class="xgrid crisp" transform="translate(613.84,0)" d="M0,100v320" style="stroke: rgb(255, 255, 255); stroke-opacity: 1; stroke-width: 1px;"/></g><g class="y"><path class="ygrid crisp" transform="translate(0,354.68)" d="M80,0h540" style="stroke: rgb(255, 255, 255); stroke-opacity: 1; stroke-width: 1px;"/><path class="ygrid crisp" transform="translate(0,289.37)" d="M80,0h540" style="stroke: rgb(255, 255, 255); stroke-opacity: 1; stroke-width: 1px;"/><path class="ygrid crisp" transform="translate(0,224.05)" d="M80,0h540" style="stroke: rgb(255, 255, 255); stroke-opacity: 1; stroke-width: 1px;"/><path class="ygrid crisp" transform="translate(0,158.73)" d="M80,0h540" style="stroke: rgb(255, 255, 255); stroke-opacity: 1; stroke-width: 1px;"/></g></g><g class="zerolinelayer"><path class="yzl zl crisp" transform="translate(0,420)" d="M80,0h540" style="stroke: rgb(255, 255, 255); stroke-opacity: 1; stroke-width: 2px;"/></g><path class="xlines-below"/><path class="ylines-below"/><g class="overlines-below"/><g class="xaxislayer-below"/><g class="yaxislayer-below"/><g class="overaxes-below"/><g class="plot" transform="translate(80,100)" clip-path="url(#clip3027ddxyplot)"><g class="scatterlayer mlayer"><g class="trace scatter trace70d0fd" style="stroke-miterlimit: 2;"><g class="fills"><g><path class="js-fill" d="M540,320L0,320L0,181.14L1.23,182.02L2.47,180.39L6.16,175.57L7.4,158.5L8.63,155.47L9.86,158.65L12.33,152.69L13.56,153.62L16.03,144.91L17.26,128.66L20.96,117.32L22.19,113.21L23.42,112.64L24.66,113.57L27.12,121.73L28.36,116.52L30.82,126.09L32.05,127.08L33.29,128.33L34.52,132.16L35.75,138.39L36.99,139.88L38.22,139.56L39.45,140.21L40.68,143.5L41.92,143.83L43.15,146.67L44.38,160.93L46.85,162.27L48.08,162.31L49.32,162.95L50.55,166.92L51.78,167.44L53.01,165.44L54.25,166.29L55.48,168.54L56.71,170.02L57.95,170.28L60.41,171.98L61.64,172.83L62.88,161.41L64.11,161.35L65.34,161.41L66.58,164.49L69.04,164.34L70.27,164.43L72.74,163.48L73.97,163.03L75.21,160.22L76.44,161.02L77.67,160.33L78.9,163.04L82.6,163.6L83.84,156.78L86.3,149.2L87.53,121.86L88.77,119.34L90,119.33L92.47,119.44L93.7,124.52L94.93,131.35L96.16,144.21L97.4,142.8L98.63,145.06L102.33,146.09L103.56,150.8L104.79,153.36L106.03,152.74L107.26,153.54L108.49,156.19L109.73,159.3L110.96,158.52L112.19,155.75L113.42,156.17L118.36,157.01L119.59,155.37L120.82,159.22L122.05,159.38L123.29,155.27L124.52,155.74L128.22,155.6L129.45,151.65L130.68,152.82L131.92,152.37L133.15,153.21L134.38,153.12L135.62,146.53L136.85,147.32L138.08,134.03L139.32,151.17L140.55,152.06L141.78,151.92L144.25,152.86L145.48,151.33L146.71,149.74L147.95,150.23L152.88,149.8L154.11,151.8L157.81,152.18L159.04,163.51L163.97,162.12L165.21,160.8L167.67,153.12L168.9,148.05L170.14,147.61L171.37,139.77L172.6,138.57L173.84,139L175.07,137.59L176.3,128.33L183.7,120.2L184.93,117.82L187.4,115.1L188.63,116.01L189.86,114.1L191.1,98.62L192.33,98.06L193.56,80.38L194.79,79.71L196.03,73.12L197.26,71.63L198.49,64.41L199.73,27.25L200.96,24.27L202.19,27.37L203.42,26.84L205.89,16L207.12,50.97L208.36,48.67L209.59,48.55L210.82,46.33L212.05,46.5L213.29,46.2L214.52,46.92L216.99,42.43L218.22,43.42L219.45,42.87L220.68,43.7L221.92,51.91L223.15,52.41L226.85,52.14L228.08,51.84L230.55,52.59L231.78,41.95L233.01,41.97L234.25,43.5L235.48,23.24L236.71,22.37L240.41,22.52L241.64,28.34L242.88,32.85L244.11,42.59L245.34,169.76L246.58,169.86L249.04,119.63L250.27,117.38L251.51,99.23L252.74,102.28L253.97,114.93L255.21,114.16L256.44,113.87L257.67,111.36L260.14,58.38L261.37,58.12L263.84,90.41L265.07,94.5L266.3,133.54L267.53,140.1L272.47,161.15L273.7,162.87L276.16,163.87L277.4,165.24L278.63,170.44L279.86,172.17L286.03,174.6L287.26,176.39L288.49,178.47L289.73,178.22L290.96,178.54L292.19,179.98L298.36,181.04L299.59,184.34L300.82,184.45L302.05,188.33L308.22,188.85L309.45,189.85L311.92,190.59L313.15,191.67L314.38,222.78L315.62,223.78L318.08,224.47L319.32,225.18L320.55,225.22L321.78,194.28L327.95,194.34L329.18,197.91L335.34,198.53L336.58,199.31L341.51,199.54L342.74,200.4L353.84,200.91L355.07,208.31L360,209L361.23,210.26L366.16,210.94L367.4,211.12L369.86,210.93L371.1,216.61L372.33,216.83L373.56,218.28L376.03,218.65L377.26,219.64L384.66,220.37L385.89,221.16L387.12,223.1L388.36,223.04L395.75,223.38L396.99,224.47L399.45,224.8L400.68,225L401.92,226.31L403.15,245.85L417.95,246.1L419.18,283.6L420.41,283.67L421.64,246.51L424.11,246.55L425.34,283.59L427.81,283.01L429.04,251.98L430.27,252.07L431.51,246.32L432.74,268.99L433.97,269.01L441.37,269.03L442.6,275.48L507.95,276.31L509.18,276.77L523.97,276.44L525.21,283.53L532.6,283.67L533.84,283.69L540,283.94" style="fill: rgb(99, 110, 250); fill-opacity: 0.5; stroke-width: 0;"/></g></g><g class="errorbars"/><g class="lines"><path class="js-line" d="M0,181.14L1.23,182.02L2.47,180.39L6.16,175.57L7.4,158.5L8.63,155.47L9.86,158.65L12.33,152.69L13.56,153.62L16.03,144.91L17.26,128.66L20.96,117.32L22.19,113.21L23.42,112.64L24.66,113.57L27.12,121.73L28.36,116.52L30.82,126.09L32.05,127.08L33.29,128.33L34.52,132.16L35.75,138.39L36.99,139.88L38.22,139.56L39.45,140.21L40.68,143.5L41.92,143.83L43.15,146.67L44.38,160.93L46.85,162.27L48.08,162.31L49.32,162.95L50.55,166.92L51.78,167.44L53.01,165.44L54.25,166.29L55.48,168.54L56.71,170.02L57.95,170.28L60.41,171.98L61.64,172.83L62.88,161.41L64.11,161.35L65.34,161.41L66.58,164.49L69.04,164.34L70.27,164.43L72.74,163.48L73.97,163.03L75.21,160.22L76.44,161.02L77.67,160.33L78.9,163.04L82.6,163.6L83.84,156.78L86.3,149.2L87.53,121.86L88.77,119.34L90,119.33L92.47,119.44L93.7,124.52L94.93,131.35L96.16,144.21L97.4,142.8L98.63,145.06L102.33,146.09L103.56,150.8L104.79,153.36L106.03,152.74L107.26,153.54L108.49,156.19L109.73,159.3L110.96,158.52L112.19,155.75L113.42,156.17L118.36,157.01L119.59,155.37L120.82,159.22L122.05,159.38L123.29,155.27L124.52,155.74L128.22,155.6L129.45,151.65L130.68,152.82L131.92,152.37L133.15,153.21L134.38,153.12L135.62,146.53L136.85,147.32L138.08,134.03L139.32,151.17L140.55,152.06L141.78,151.92L144.25,152.86L145.48,151.33L146.71,149.74L147.95,150.23L152.88,149.8L154.11,151.8L157.81,152.18L159.04,163.51L163.97,162.12L165.21,160.8L167.67,153.12L168.9,148.05L170.14,147.61L171.37,139.77L172.6,138.57L173.84,139L175.07,137.59L176.3,128.33L183.7,120.2L184.93,117.82L187.4,115.1L188.63,116.01L189.86,114.1L191.1,98.62L192.33,98.06L193.56,80.38L194.79,79.71L196.03,73.12L197.26,71.63L198.49,64.41L199.73,27.25L200.96,24.27L202.19,27.37L203.42,26.84L205.89,16L207.12,50.97L208.36,48.67L209.59,48.55L210.82,46.33L212.05,46.5L213.29,46.2L214.52,46.92L216.99,42.43L218.22,43.42L219.45,42.87L220.68,43.7L221.92,51.91L223.15,52.41L226.85,52.14L228.08,51.84L230.55,52.59L231.78,41.95L233.01,41.97L234.25,43.5L235.48,23.24L236.71,22.37L240.41,22.52L241.64,28.34L242.88,32.85L244.11,42.59L245.34,169.76L246.58,169.86L249.04,119.63L250.27,117.38L251.51,99.23L252.74,102.28L253.97,114.93L255.21,114.16L256.44,113.87L257.67,111.36L260.14,58.38L261.37,58.12L263.84,90.41L265.07,94.5L266.3,133.54L267.53,140.1L272.47,161.15L273.7,162.87L276.16,163.87L277.4,165.24L278.63,170.44L279.86,172.17L286.03,174.6L287.26,176.39L288.49,178.47L289.73,178.22L290.96,178.54L292.19,179.98L298.36,181.04L299.59,184.34L300.82,184.45L302.05,188.33L308.22,188.85L309.45,189.85L311.92,190.59L313.15,191.67L314.38,222.78L315.62,223.78L318.08,224.47L319.32,225.18L320.55,225.22L321.78,194.28L327.95,194.34L329.18,197.91L335.34,198.53L336.58,199.31L341.51,199.54L342.74,200.4L353.84,200.91L355.07,208.31L360,209L361.23,210.26L366.16,210.94L367.4,211.12L369.86,210.93L371.1,216.61L372.33,216.83L373.56,218.28L376.03,218.65L377.26,219.64L384.66,220.37L385.89,221.16L387.12,223.1L388.36,223.04L395.75,223.38L396.99,224.47L399.45,224.8L400.68,225L401.92,226.31L403.15,245.85L417.95,246.1L419.18,283.6L420.41,283.67L421.64,246.51L424.11,246.55L425.34,283.59L427.81,283.01L429.04,251.98L430.27,252.07L431.51,246.32L432.74,268.99L433.97,269.01L441.37,269.03L442.6,275.48L507.95,276.31L509.18,276.77L523.97,276.44L525.21,283.53L532.6,283.67L533.84,283.69L540,283.94" style="vector-effect: none; fill: none; stroke: rgb(99, 110, 250); stroke-opacity: 1; stroke-width: 2px; opacity: 1;"/></g><g class="points"/><g class="text"/></g></g></g><g class="overplot"/><path class="xlines-above crisp" d="M0,0" style="fill: none;"/><path class="ylines-above crisp" d="M0,0" style="fill: none;"/><g class="overlines-above"/><g class="xaxislayer-above"><g class="xtick"><text text-anchor="middle" x="0" y="433" transform="translate(88.63,0)" style="font-family: 'Open Sans', verdana, arial, sans-serif; font-size: 12px; fill: rgb(42, 63, 95); fill-opacity: 1; white-space: pre; opacity: 1;">Sep 2022</text></g><g class="xtick"><text text-anchor="middle" x="0" y="433" style="font-family: 'Open Sans', verdana, arial, sans-serif; font-size: 12px; fill: rgb(42, 63, 95); fill-opacity: 1; white-space: pre; opacity: 1;" transform="translate(163.84,0)">Nov 2022</text></g><g class="xtick"><text text-anchor="middle" x="0" y="433" style="font-family: 'Open Sans', verdana, arial, sans-serif; font-size: 12px; fill: rgb(42, 63, 95); fill-opacity: 1; white-space: pre; opacity: 1;" transform="translate(239.04,0)">Jan 2023</text></g><g class="xtick"><text text-anchor="middle" x="0" y="433" style="font-family: 'Open Sans', verdana, arial, sans-serif; font-size: 12px; fill: rgb(42, 63, 95); fill-opacity: 1; white-space: pre; opacity: 1;" transform="translate(311.78,0)">Mar 2023</text></g><g class="xtick"><text text-anchor="middle" x="0" y="433" style="font-family: 'Open Sans', verdana, arial, sans-serif; font-size: 12px; fill: rgb(42, 63, 95); fill-opacity: 1; white-space: pre; opacity: 1;" transform="translate(386.99,0)">May 2023</text></g><g class="xtick"><text text-anchor="middle" x="0" y="433" style="font-family: 'Open Sans', verdana, arial, sans-serif; font-size: 12px; fill: rgb(42, 63, 95); fill-opacity: 1; white-space: pre; opacity: 1;" transform="translate(462.19,0)">Jul 2023</text></g><g class="xtick"><text text-anchor="middle" x="0" y="433" style="font-family: 'Open Sans', verdana, arial, sans-serif; font-size: 12px; fill: rgb(42, 63, 95); fill-opacity: 1; white-space: pre; opacity: 1;" transform="translate(538.63,0)">Sep 2023</text></g><g class="xtick"><text text-anchor="middle" x="0" y="433" style="font-family: 'Open Sans', verdana, arial, sans-serif; font-size: 12px; fill: rgb(42, 63, 95); fill-opacity: 1; white-space: pre; opacity: 1;" transform="translate(613.84,0)">Nov 2023</text></g></g><g class="yaxislayer-above"><g class="ytick"><text text-anchor="end" x="79" y="4.199999999999999" transform="translate(0,420)" style="font-family: 'Open Sans', verdana, arial, sans-serif; font-size: 12px; fill: rgb(42, 63, 95); fill-opacity: 1; white-space: pre; opacity: 1;">$0</text></g><g class="ytick"><text text-anchor="end" x="79" y="4.199999999999999" style="font-family: 'Open Sans', verdana, arial, sans-serif; font-size: 12px; fill: rgb(42, 63, 95); fill-opacity: 1; white-space: pre; opacity: 1;" transform="translate(0,354.68)">$10M</text></g><g class="ytick"><text text-anchor="end" x="79" y="4.199999999999999" style="font-family: 'Open Sans', verdana, arial, sans-serif; font-size: 12px; fill: rgb(42, 63, 95); fill-opacity: 1; white-space: pre; opacity: 1;" transform="translate(0,289.37)">$20M</text></g><g class="ytick"><text text-anchor="end" x="79" y="4.199999999999999" style="font-family: 'Open Sans', verdana, arial, sans-serif; font-size: 12px; fill: rgb(42, 63, 95); fill-opacity: 1; white-space: pre; opacity: 1;" transform="translate(0,224.05)">$30M</text></g><g class="ytick"><text text-anchor="end" x="79" y="4.199999999999999" style="font-family: 'Open Sans', verdana, arial, sans-serif; font-size: 12px; fill: rgb(42, 63, 95); fill-opacity: 1; white-space: pre; opacity: 1;" transform="translate(0,158.73)">$40M</text></g></g><g class="overaxes-above"/></g></g><g class="polarlayer"/><g class="smithlayer"/><g class="ternarylayer"/><g class="geolayer"/><g class="funnelarealayer"/><g class="pielayer"/><g class="iciclelayer"/><g class="treemaplayer"/><g class="sunburstlayer"/><g class="glimages"/><defs id="topdefs-3027dd"><g class="clips"/></defs><g class="layer-above"><g class="imagelayer"/><g class="shapelayer"/></g><g class="infolayer"><g class="g-gtitle"><text class="gtitle" x="35" y="50" text-anchor="start" dy="0em" style="font-family: 'Open Sans', verdana, arial, sans-serif; font-size: 17px; fill: rgb(42, 63, 95); opacity: 1; font-weight: normal; white-space: pre;"><tspan class="line" dy="0em" x="35" y="50">Synthetix - sUSD-3Crv: Curve</tspan><tspan class="line" dy="1.3em" x="35" y="50">​<tspan style="font-size:70%" dy="-0.6em">Cumulative Net Flows since Program Announcement, Until Program End + 30 Days - At Last Price</tspan><tspan dy="0.42em">​</tspan></tspan></text></g><g class="g-xtitle"><text class="xtitle" x="350" y="460.3" text-anchor="middle" style="font-family: 'Open Sans', verdana, arial, sans-serif; font-size: 14px; fill: rgb(42, 63, 95); opacity: 1; font-weight: normal; white-space: pre;">Day</text></g><g class="g-ytitle"><text class="ytitle" transform="rotate(-90,24.668750000000003,260)" x="24.668750000000003" y="260" text-anchor="middle" style="font-family: 'Open Sans', verdana, arial, sans-serif; font-size: 14px; fill: rgb(42, 63, 95); opacity: 1; font-weight: normal; white-space: pre;">Cumulative Net Flows (USD)</text></g></g></svg>