<svg class="main-svg" xmlns="http://www.w3.org/2000/svg" xmlns:xlink="http://www.w3.org/1999/xlink" width="700" height="500" style="" viewBox="0 0 700 500"><rect x="0" y="0" width="700" height="500" style="fill: rgb(255, 255, 255); fill-opacity: 1;"/><defs id="defs-f08eec"><g class="clips"><clipPath id="clipf08eecxyplot" class="plotclip"><rect width="540" height="320"/></clipPath><clipPath class="axesclip" id="clipf08eecx"><rect x="80" y="0" width="540" height="500"/></clipPath><clipPath class="axesclip" id="clipf08eecy"><rect x="0" y="100" width="700" height="320"/></clipPath><clipPath class="axesclip" id="clipf08eecxy"><rect x="80" y="100" width="540" height="320"/></clipPath></g><g class="gradients"/><g class="patterns"/></defs><g class="bglayer"><rect class="bg" x="80" y="100" width="540" height="320" style="fill: rgb(229, 236, 246); fill-opacity: 1; stroke-width: 0;"/></g><g class="layer-below"><g class="imagelayer"/><g class="shapelayer"/></g><g class="cartesianlayer"><g class="subplot xy"><g class="layer-subplot"><g class="shapelayer"/><g class="imagelayer"/></g><g class="minor-gridlayer"><g class="x"/><g class="y"/></g><g class="gridlayer"><g class="x"><path class="xgrid crisp" transform="translate(149.12,0)" d="M0,100v320" style="stroke: rgb(255, 255, 255); stroke-opacity: 1; stroke-width: 1px;"/><path class="xgrid crisp" transform="translate(236.96,0)" d="M0,100v320" style="stroke: rgb(255, 255, 255); stroke-opacity: 1; stroke-width: 1px;"/><path class="xgrid crisp" transform="translate(321.91999999999996,0)" d="M0,100v320" style="stroke: rgb(255, 255, 255); stroke-opacity: 1; stroke-width: 1px;"/><path class="xgrid crisp" transform="translate(409.76,0)" d="M0,100v320" style="stroke: rgb(255, 255, 255); stroke-opacity: 1; stroke-width: 1px;"/><path class="xgrid crisp" transform="translate(497.6,0)" d="M0,100v320" style="stroke: rgb(255, 255, 255); stroke-opacity: 1; stroke-width: 1px;"/><path class="xgrid crisp" transform="translate(586.88,0)" d="M0,100v320" style="stroke: rgb(255, 255, 255); stroke-opacity: 1; stroke-width: 1px;"/></g><g class="y"><path class="ygrid crisp" transform="translate(0,322.85)" d="M80,0h540" style="stroke: rgb(255, 255, 255); stroke-opacity: 1; stroke-width: 1px;"/><path class="ygrid crisp" transform="translate(0,252)" d="M80,0h540" style="stroke: rgb(255, 255, 255); stroke-opacity: 1; stroke-width: 1px;"/><path class="ygrid crisp" transform="translate(0,181.15)" d="M80,0h540" style="stroke: rgb(255, 255, 255); stroke-opacity: 1; stroke-width: 1px;"/><path class="ygrid crisp" transform="translate(0,110.3)" d="M80,0h540" style="stroke: rgb(255, 255, 255); stroke-opacity: 1; stroke-width: 1px;"/></g></g><g class="zerolinelayer"><path class="yzl zl crisp" transform="translate(0,393.7)" d="M80,0h540" style="stroke: rgb(255, 255, 255); stroke-opacity: 1; stroke-width: 2px;"/></g><path class="xlines-below"/><path class="ylines-below"/><g class="overlines-below"/><g class="xaxislayer-below"/><g class="yaxislayer-below"/><g class="overaxes-below"/><g class="plot" transform="translate(80,100)" clip-path="url(#clipf08eecxyplot)"><g class="scatterlayer mlayer"><g class="trace scatter tracefc4f1b" style="stroke-miterlimit: 2;"><g class="fills"><g><path class="js-fill" d="M540,293.7L0,293.7L0,296.11L1.44,295.51L2.88,297.11L4.32,301.05L5.76,300.59L7.2,302.11L8.64,301.38L11.52,304L12.96,302.43L15.84,301.77L17.28,302.27L18.72,300.92L20.16,300.6L24.48,298.69L25.92,298.12L30.24,295.96L31.68,295.72L33.12,292.27L34.56,292.28L37.44,291.88L38.88,292.47L46.08,290.14L47.52,288.98L48.96,287.9L50.4,288.45L51.84,287.56L53.28,283.45L56.16,279.49L57.6,279.96L59.04,279.46L60.48,267.32L64.8,272.07L66.24,271.63L67.68,272.25L69.12,270.73L70.56,270.4L72,271.26L73.44,267.03L74.88,267.47L76.32,263.59L77.76,262.92L79.2,262.62L80.64,266.54L82.08,274.47L83.52,273.81L84.96,277.38L86.4,277.63L87.84,285.73L89.28,285.1L90.72,283.51L92.16,284.62L93.6,283.21L95.04,283.34L96.48,281.3L97.92,283.01L99.36,283.38L100.8,282.9L103.68,280.31L105.12,279.09L106.56,277.79L108,278.55L109.44,278.46L110.88,276.45L112.32,276.19L113.76,274.85L118.08,273.3L119.52,273.61L120.96,272.07L122.4,272.33L123.84,268.78L125.28,268.6L126.72,267.36L128.16,267.24L129.6,269.22L131.04,266.71L132.48,265.84L133.92,266.38L135.36,266.19L136.8,266.87L138.24,266.28L139.68,267.2L141.12,266.22L142.56,264.22L144,264.04L145.44,264.84L152.64,264.3L154.08,265.19L155.52,267.02L156.96,267.1L158.4,267.39L159.84,265.23L161.28,263.17L162.72,258.18L164.16,257.11L165.6,258.89L168.48,250.79L169.92,245.57L171.36,241.41L172.8,240.09L174.24,242.66L175.68,243.35L178.56,246.46L180,251.44L182.88,257.52L184.32,257.67L185.76,267.14L187.2,270.75L188.64,273.5L190.08,274.26L191.52,275.67L192.96,275.34L197.28,277.93L198.72,277.66L201.6,278.55L203.04,277.19L207.36,279.13L208.8,279.53L213.12,278.54L214.56,280.45L216,282.05L217.44,282.08L220.32,282.85L221.76,282.32L223.2,281L224.64,281.81L230.4,282.88L231.84,283.13L237.6,285.77L239.04,285.17L244.8,285.3L246.24,286.81L249.12,288.24L250.56,288.63L253.44,289.13L254.88,290.17L257.76,293.48L259.2,291.52L262.08,291.12L263.52,291.45L264.96,291.29L266.4,294.45L269.28,296.18L270.72,296.39L272.16,295.96L273.6,296.42L275.04,295.52L276.48,296.24L282.24,295.81L283.68,294.48L285.12,293.58L286.56,124.16L290.88,123.88L292.32,122.22L293.76,123.04L295.2,122.82L298.08,124.24L299.52,123.07L303.84,123.2L305.28,121.28L306.72,123.08L308.16,122.99L309.6,122.9L311.04,121.78L312.48,132.99L313.92,132.01L315.36,130.67L316.8,136.13L318.24,133.34L319.68,133.94L321.12,133.97L322.56,132.39L324,127.88L325.44,130.37L326.88,130.37L328.32,129.11L329.76,128.48L331.2,131.67L332.64,131.15L334.08,67.05L335.52,66.93L336.96,130.76L338.4,123.73L339.84,126L341.28,125.78L342.72,124.52L344.16,120.56L345.6,124.88L347.04,124.59L348.48,120.93L349.92,119.56L351.36,116.82L352.8,119.18L354.24,115.99L357.12,122.3L358.56,121.01L360,123.38L361.44,123.87L362.88,123.33L364.32,124.86L365.76,129.66L367.2,128.34L368.64,129.04L370.08,128.47L372.96,130.51L374.4,135.59L375.84,138.76L377.28,135.62L378.72,135.63L380.16,137.32L381.6,142.09L383.04,138.37L385.92,138.53L387.36,141.3L391.68,145.36L393.12,144.15L396,148.89L397.44,148.48L398.88,146.07L400.32,148.56L401.76,150.62L403.2,143.65L404.64,141.34L406.08,146.55L407.52,148.16L408.96,147.64L411.84,146.06L413.28,143.7L414.72,148.45L416.16,147.25L417.6,142.43L419.04,141.84L420.48,141.96L421.92,139.79L423.36,139.21L424.8,126.81L427.68,117.91L429.12,116.73L430.56,120.39L432,115.99L434.88,113.39L436.32,103.37L437.76,93.61L439.2,96.61L440.64,105.28L442.08,94.67L443.52,94.04L444.96,102.96L446.4,97.95L447.84,97.15L449.28,99.37L450.72,99.6L452.16,94.98L453.6,94.21L455.04,103.92L456.48,91.21L459.36,75.64L460.8,70.49L462.24,65.54L463.68,57.58L465.12,54.2L466.56,57.8L468,90.59L469.44,93.91L470.88,81.93L472.32,80.5L475.2,64.66L476.64,63.44L478.08,71.08L479.52,67.35L480.96,60.55L482.4,66.1L485.28,54.54L486.72,77.96L488.16,87.75L489.6,90.28L491.04,87.93L492.48,77.8L495.36,87.36L496.8,29.42L498.24,21.76L499.68,22.06L501.12,16L502.56,30.83L504,34.81L505.44,42.16L506.88,24.77L508.32,34.16L509.76,30.42L511.2,31.36L512.64,22.79L514.08,47.79L515.52,51.8L516.96,62.46L518.4,69.32L519.84,31.62L521.28,37.01L522.72,87.25L524.16,74.3L525.6,76.83L527.04,71.84L528.48,72.67L529.92,71.48L531.36,74.48L532.8,63.41L534.24,62.76L535.68,66.08L537.12,62.93L538.56,66.14L540,65.82" style="fill: rgb(99, 110, 250); fill-opacity: 0.5; stroke-width: 0;"/></g></g><g class="errorbars"/><g class="lines"><path class="js-line" d="M0,296.11L1.44,295.51L2.88,297.11L4.32,301.05L5.76,300.59L7.2,302.11L8.64,301.38L11.52,304L12.96,302.43L15.84,301.77L17.28,302.27L18.72,300.92L20.16,300.6L24.48,298.69L25.92,298.12L30.24,295.96L31.68,295.72L33.12,292.27L34.56,292.28L37.44,291.88L38.88,292.47L46.08,290.14L47.52,288.98L48.96,287.9L50.4,288.45L51.84,287.56L53.28,283.45L56.16,279.49L57.6,279.96L59.04,279.46L60.48,267.32L64.8,272.07L66.24,271.63L67.68,272.25L69.12,270.73L70.56,270.4L72,271.26L73.44,267.03L74.88,267.47L76.32,263.59L77.76,262.92L79.2,262.62L80.64,266.54L82.08,274.47L83.52,273.81L84.96,277.38L86.4,277.63L87.84,285.73L89.28,285.1L90.72,283.51L92.16,284.62L93.6,283.21L95.04,283.34L96.48,281.3L97.92,283.01L99.36,283.38L100.8,282.9L103.68,280.31L105.12,279.09L106.56,277.79L108,278.55L109.44,278.46L110.88,276.45L112.32,276.19L113.76,274.85L118.08,273.3L119.52,273.61L120.96,272.07L122.4,272.33L123.84,268.78L125.28,268.6L126.72,267.36L128.16,267.24L129.6,269.22L131.04,266.71L132.48,265.84L133.92,266.38L135.36,266.19L136.8,266.87L138.24,266.28L139.68,267.2L141.12,266.22L142.56,264.22L144,264.04L145.44,264.84L152.64,264.3L154.08,265.19L155.52,267.02L156.96,267.1L158.4,267.39L159.84,265.23L161.28,263.17L162.72,258.18L164.16,257.11L165.6,258.89L168.48,250.79L169.92,245.57L171.36,241.41L172.8,240.09L174.24,242.66L175.68,243.35L178.56,246.46L180,251.44L182.88,257.52L184.32,257.67L185.76,267.14L187.2,270.75L188.64,273.5L190.08,274.26L191.52,275.67L192.96,275.34L197.28,277.93L198.72,277.66L201.6,278.55L203.04,277.19L207.36,279.13L208.8,279.53L213.12,278.54L214.56,280.45L216,282.05L217.44,282.08L220.32,282.85L221.76,282.32L223.2,281L224.64,281.81L230.4,282.88L231.84,283.13L237.6,285.77L239.04,285.17L244.8,285.3L246.24,286.81L249.12,288.24L250.56,288.63L253.44,289.13L254.88,290.17L257.76,293.48L259.2,291.52L262.08,291.12L263.52,291.45L264.96,291.29L266.4,294.45L269.28,296.18L270.72,296.39L272.16,295.96L273.6,296.42L275.04,295.52L276.48,296.24L282.24,295.81L283.68,294.48L285.12,293.58L286.56,124.16L290.88,123.88L292.32,122.22L293.76,123.04L295.2,122.82L298.08,124.24L299.52,123.07L303.84,123.2L305.28,121.28L306.72,123.08L308.16,122.99L309.6,122.9L311.04,121.78L312.48,132.99L313.92,132.01L315.36,130.67L316.8,136.13L318.24,133.34L319.68,133.94L321.12,133.97L322.56,132.39L324,127.88L325.44,130.37L326.88,130.37L328.32,129.11L329.76,128.48L331.2,131.67L332.64,131.15L334.08,67.05L335.52,66.93L336.96,130.76L338.4,123.73L339.84,126L341.28,125.78L342.72,124.52L344.16,120.56L345.6,124.88L347.04,124.59L348.48,120.93L349.92,119.56L351.36,116.82L352.8,119.18L354.24,115.99L357.12,122.3L358.56,121.01L360,123.38L361.44,123.87L362.88,123.33L364.32,124.86L365.76,129.66L367.2,128.34L368.64,129.04L370.08,128.47L372.96,130.51L374.4,135.59L375.84,138.76L377.28,135.62L378.72,135.63L380.16,137.32L381.6,142.09L383.04,138.37L385.92,138.53L387.36,141.3L391.68,145.36L393.12,144.15L396,148.89L397.44,148.48L398.88,146.07L400.32,148.56L401.76,150.62L403.2,143.65L404.64,141.34L406.08,146.55L407.52,148.16L408.96,147.64L411.84,146.06L413.28,143.7L414.72,148.45L416.16,147.25L417.6,142.43L419.04,141.84L420.48,141.96L421.92,139.79L423.36,139.21L424.8,126.81L427.68,117.91L429.12,116.73L430.56,120.39L432,115.99L434.88,113.39L436.32,103.37L437.76,93.61L439.2,96.61L440.64,105.28L442.08,94.67L443.52,94.04L444.96,102.96L446.4,97.95L447.84,97.15L449.28,99.37L450.72,99.6L452.16,94.98L453.6,94.21L455.04,103.92L456.48,91.21L459.36,75.64L460.8,70.49L462.24,65.54L463.68,57.58L465.12,54.2L466.56,57.8L468,90.59L469.44,93.91L470.88,81.93L472.32,80.5L475.2,64.66L476.64,63.44L478.08,71.08L479.52,67.35L480.96,60.55L482.4,66.1L485.28,54.54L486.72,77.96L488.16,87.75L489.6,90.28L491.04,87.93L492.48,77.8L495.36,87.36L496.8,29.42L498.24,21.76L499.68,22.06L501.12,16L502.56,30.83L504,34.81L505.44,42.16L506.88,24.77L508.32,34.16L509.76,30.42L511.2,31.36L512.64,22.79L514.08,47.79L515.52,51.8L516.96,62.46L518.4,69.32L519.84,31.62L521.28,37.01L522.72,87.25L524.16,74.3L525.6,76.83L527.04,71.84L528.48,72.67L529.92,71.48L531.36,74.48L532.8,63.41L534.24,62.76L535.68,66.08L537.12,62.93L538.56,66.14L540,65.82" style="vector-effect: none; fill: none; stroke: rgb(99, 110, 250); stroke-opacity: 1; stroke-width: 2px; opacity: 1;"/></g><g class="points"/><g class="text"/></g></g></g><g class="overplot"/><path class="xlines-above crisp" d="M0,0" style="fill: none;"/><path class="ylines-above crisp" d="M0,0" style="fill: none;"/><g class="overlines-above"/><g class="xaxislayer-above"><g class="xtick"><text text-anchor="middle" x="0" y="433" transform="translate(149.12,0)" style="font-family: 'Open Sans', verdana, arial, sans-serif; font-size: 12px; fill: rgb(42, 63, 95); fill-opacity: 1; white-space: pre; opacity: 1;">Nov 2022</text></g><g class="xtick"><text text-anchor="middle" x="0" y="433" style="font-family: 'Open Sans', verdana, arial, sans-serif; font-size: 12px; fill: rgb(42, 63, 95); fill-opacity: 1; white-space: pre; opacity: 1;" transform="translate(236.96,0)">Jan 2023</text></g><g class="xtick"><text text-anchor="middle" x="0" y="433" style="font-family: 'Open Sans', verdana, arial, sans-serif; font-size: 12px; fill: rgb(42, 63, 95); fill-opacity: 1; white-space: pre; opacity: 1;" transform="translate(321.91999999999996,0)">Mar 2023</text></g><g class="xtick"><text text-anchor="middle" x="0" y="433" style="font-family: 'Open Sans', verdana, arial, sans-serif; font-size: 12px; fill: rgb(42, 63, 95); fill-opacity: 1; white-space: pre; opacity: 1;" transform="translate(409.76,0)">May 2023</text></g><g class="xtick"><text text-anchor="middle" x="0" y="433" style="font-family: 'Open Sans', verdana, arial, sans-serif; font-size: 12px; fill: rgb(42, 63, 95); fill-opacity: 1; white-space: pre; opacity: 1;" transform="translate(497.6,0)">Jul 2023</text></g><g class="xtick"><text text-anchor="middle" x="0" y="433" style="font-family: 'Open Sans', verdana, arial, sans-serif; font-size: 12px; fill: rgb(42, 63, 95); fill-opacity: 1; white-space: pre; opacity: 1;" transform="translate(586.88,0)">Sep 2023</text></g></g><g class="yaxislayer-above"><g class="ytick"><text text-anchor="end" x="79" y="4.199999999999999" transform="translate(0,393.7)" style="font-family: 'Open Sans', verdana, arial, sans-serif; font-size: 12px; fill: rgb(42, 63, 95); fill-opacity: 1; white-space: pre; opacity: 1;">$0</text></g><g class="ytick"><text text-anchor="end" x="79" y="4.199999999999999" style="font-family: 'Open Sans', verdana, arial, sans-serif; font-size: 12px; fill: rgb(42, 63, 95); fill-opacity: 1; white-space: pre; opacity: 1;" transform="translate(0,322.85)">$1M</text></g><g class="ytick"><text text-anchor="end" x="79" y="4.199999999999999" style="font-family: 'Open Sans', verdana, arial, sans-serif; font-size: 12px; fill: rgb(42, 63, 95); fill-opacity: 1; white-space: pre; opacity: 1;" transform="translate(0,252)">$2M</text></g><g class="ytick"><text text-anchor="end" x="79" y="4.199999999999999" style="font-family: 'Open Sans', verdana, arial, sans-serif; font-size: 12px; fill: rgb(42, 63, 95); fill-opacity: 1; white-space: pre; opacity: 1;" transform="translate(0,181.15)">$3M</text></g><g class="ytick"><text text-anchor="end" x="79" y="4.199999999999999" style="font-family: 'Open Sans', verdana, arial, sans-serif; font-size: 12px; fill: rgb(42, 63, 95); fill-opacity: 1; white-space: pre; opacity: 1;" transform="translate(0,110.3)">$4M</text></g></g><g class="overaxes-above"/></g></g><g class="polarlayer"/><g class="smithlayer"/><g class="ternarylayer"/><g class="geolayer"/><g class="funnelarealayer"/><g class="pielayer"/><g class="iciclelayer"/><g class="treemaplayer"/><g class="sunburstlayer"/><g class="glimages"/><defs id="topdefs-f08eec"><g class="clips"/></defs><g class="layer-above"><g class="imagelayer"/><g class="shapelayer"/></g><g class="infolayer"><g class="g-gtitle"><text class="gtitle" x="35" y="50" text-anchor="start" dy="0em" style="font-family: 'Open Sans', verdana, arial, sans-serif; font-size: 17px; fill: rgb(42, 63, 95); opacity: 1; font-weight: normal; white-space: pre;"><tspan class="line" dy="0em" x="35" y="50">Polynomial Protocol*</tspan><tspan class="line" dy="1.3em" x="35" y="50">​<tspan style="font-size:70%" dy="-0.6em">Cumulative Net Flows since Program Announcement, Until Program End + 30 Days - At Last Price</tspan><tspan dy="0.42em">​</tspan></tspan></text></g><g class="g-xtitle"><text class="xtitle" x="350" y="460.3" text-anchor="middle" style="font-family: 'Open Sans', verdana, arial, sans-serif; font-size: 14px; fill: rgb(42, 63, 95); opacity: 1; font-weight: normal; white-space: pre;">Day</text></g><g class="g-ytitle"><text class="ytitle" transform="rotate(-90,31.356250000000003,260)" x="31.356250000000003" y="260" text-anchor="middle" style="font-family: 'Open Sans', verdana, arial, sans-serif; font-size: 14px; fill: rgb(42, 63, 95); opacity: 1; font-weight: normal; white-space: pre;">Cumulative Net Flows (USD)</text></g></g></svg>