<svg class="main-svg" xmlns="http://www.w3.org/2000/svg" xmlns:xlink="http://www.w3.org/1999/xlink" width="700" height="500" style="" viewBox="0 0 700 500"><rect x="0" y="0" width="700" height="500" style="fill: rgb(255, 255, 255); fill-opacity: 1;"/><defs id="defs-fe7b5c"><g class="clips"><clipPath id="clipfe7b5cxyplot" class="plotclip"><rect width="540" height="320"/></clipPath><clipPath class="axesclip" id="clipfe7b5cx"><rect x="80" y="0" width="540" height="500"/></clipPath><clipPath class="axesclip" id="clipfe7b5cy"><rect x="0" y="100" width="700" height="320"/></clipPath><clipPath class="axesclip" id="clipfe7b5cxy"><rect x="80" y="100" width="540" height="320"/></clipPath></g><g class="gradients"/><g class="patterns"/></defs><g class="bglayer"><rect class="bg" x="80" y="100" width="540" height="320" style="fill: rgb(229, 236, 246); fill-opacity: 1; stroke-width: 0;"/></g><g class="layer-below"><g class="imagelayer"/><g class="shapelayer"/></g><g class="cartesianlayer"><g class="subplot xy"><g class="layer-subplot"><g class="shapelayer"/><g class="imagelayer"/></g><g class="minor-gridlayer"><g class="x"/><g class="y"/></g><g class="gridlayer"><g class="x"><path class="xgrid crisp" transform="translate(128.11,0)" d="M0,100v320" style="stroke: rgb(255, 255, 255); stroke-opacity: 1; stroke-width: 1px;"/><path class="xgrid crisp" transform="translate(201.47,0)" d="M0,100v320" style="stroke: rgb(255, 255, 255); stroke-opacity: 1; stroke-width: 1px;"/><path class="xgrid crisp" transform="translate(272.43,0)" d="M0,100v320" style="stroke: rgb(255, 255, 255); stroke-opacity: 1; stroke-width: 1px;"/><path class="xgrid crisp" transform="translate(345.79,0)" d="M0,100v320" style="stroke: rgb(255, 255, 255); stroke-opacity: 1; stroke-width: 1px;"/><path class="xgrid crisp" transform="translate(419.15,0)" d="M0,100v320" style="stroke: rgb(255, 255, 255); stroke-opacity: 1; stroke-width: 1px;"/><path class="xgrid crisp" transform="translate(493.72,0)" d="M0,100v320" style="stroke: rgb(255, 255, 255); stroke-opacity: 1; stroke-width: 1px;"/><path class="xgrid crisp" transform="translate(567.0799999999999,0)" d="M0,100v320" style="stroke: rgb(255, 255, 255); stroke-opacity: 1; stroke-width: 1px;"/></g><g class="y"><path class="ygrid crisp" transform="translate(0,364.92)" d="M80,0h540" style="stroke: rgb(255, 255, 255); stroke-opacity: 1; stroke-width: 1px;"/><path class="ygrid crisp" transform="translate(0,309.85)" d="M80,0h540" style="stroke: rgb(255, 255, 255); stroke-opacity: 1; stroke-width: 1px;"/><path class="ygrid crisp" transform="translate(0,254.77)" d="M80,0h540" style="stroke: rgb(255, 255, 255); stroke-opacity: 1; stroke-width: 1px;"/><path class="ygrid crisp" transform="translate(0,199.69)" d="M80,0h540" style="stroke: rgb(255, 255, 255); stroke-opacity: 1; stroke-width: 1px;"/><path class="ygrid crisp" transform="translate(0,144.61)" d="M80,0h540" style="stroke: rgb(255, 255, 255); stroke-opacity: 1; stroke-width: 1px;"/></g></g><g class="zerolinelayer"><path class="yzl zl crisp" transform="translate(0,420)" d="M80,0h540" style="stroke: rgb(255, 255, 255); stroke-opacity: 1; stroke-width: 2px;"/></g><path class="xlines-below"/><path class="ylines-below"/><g class="overlines-below"/><g class="xaxislayer-below"/><g class="yaxislayer-below"/><g class="overaxes-below"/><g class="plot" transform="translate(80,100)" clip-path="url(#clipfe7b5cxyplot)"><g class="scatterlayer mlayer"><g class="trace scatter trace2a5fdc" style="stroke-miterlimit: 2;"><g class="fills"><g><path class="js-fill" d="M540,320L0,320L0,314.98L1.2,308.1L2.41,309.53L3.61,307.77L4.81,316.74L6.01,310.42L7.22,308.69L8.42,308.78L9.62,302.97L10.82,315.05L12.03,305.15L13.23,298.51L14.43,299.88L15.63,303.65L16.84,297.78L18.04,298.14L19.24,293.72L20.45,293.83L21.65,297.43L22.85,295.16L24.05,295.58L25.26,300.44L26.46,297.69L27.66,297.33L28.86,299.73L30.07,299.64L31.27,297.11L32.47,293.62L33.67,292.66L34.88,287.8L36.08,288.61L37.28,287.26L38.49,289.33L39.69,290.46L40.89,280.99L42.09,237.86L43.3,160.02L44.5,142.23L45.7,140.99L48.11,123.05L49.31,125.58L50.51,104.64L51.71,106.73L52.92,108.19L54.12,114.34L55.32,116.8L56.53,110.35L58.93,151.72L60.13,144.58L62.54,150.28L63.74,153.8L64.94,153.59L66.15,149.12L67.35,147.54L68.55,149.3L69.76,149.08L70.96,156.17L72.16,148.01L73.36,145.07L74.57,145.24L75.77,147.43L76.97,145.59L78.17,145.15L80.58,160.65L81.78,153.8L82.98,127.29L84.19,125.01L85.39,127.75L86.59,136.03L87.8,137.45L89,140.18L90.2,136.09L91.4,136.23L93.81,137.35L95.01,144.99L96.21,144.17L97.42,144.55L98.62,144.84L99.82,136.03L101.02,138.64L102.23,130.28L103.43,130.87L104.63,114.05L105.84,120.81L107.04,118.88L108.24,132.47L109.44,127.54L110.65,136.55L111.85,134.69L114.25,137.8L115.46,136.17L116.66,143.51L117.86,145.76L121.47,147.46L122.67,144.33L123.88,142.55L125.08,134.16L127.48,153.26L128.69,157.45L129.89,158.43L131.09,155.23L132.29,153.58L133.5,164.75L134.7,168.86L135.9,166.62L137.1,173.46L138.31,173.56L141.92,225.26L143.12,227.68L144.32,224.19L145.52,226.65L146.73,218.38L147.93,222.02L149.13,217.75L150.33,223.34L151.54,215.85L152.74,213.38L153.94,214.82L155.14,212.34L158.75,200.43L159.96,206.28L164.77,194.2L165.97,191.13L167.17,198.22L168.37,198.25L171.98,184.57L173.18,185.01L174.39,182.07L175.59,184.74L176.79,195.99L178,194.74L179.2,191.3L180.4,203.13L181.6,191.98L182.81,192.89L184.01,187.87L185.21,195.71L188.82,153.52L190.02,159.14L191.22,144.66L192.43,140L193.63,141.75L194.83,131.96L196.04,134.63L197.24,123.92L199.64,105.06L200.85,102.31L202.05,110.34L203.25,91.21L204.45,99.3L205.66,118.31L206.86,124.36L208.06,103.91L209.27,124.41L210.47,120.25L214.08,118.59L215.28,95L217.68,86.14L218.89,58.27L220.09,77.02L221.29,73.58L223.7,56.77L224.9,58.59L226.1,47.86L227.31,58.7L228.51,56.6L229.71,36.51L232.12,32.62L233.32,16L236.93,41.97L238.13,39.9L239.33,89.58L240.53,60.14L241.74,61.77L242.94,53L244.14,50.24L245.35,44.4L246.55,51.19L247.75,46.81L248.95,56.74L250.16,42.19L251.36,41.6L252.56,40.01L253.76,33.83L254.97,32.76L256.17,34.4L257.37,23.98L258.57,39.72L259.78,35.36L262.18,21.88L263.39,17.91L265.79,30.39L266.99,25.73L268.2,25.66L269.4,35.07L270.6,26.67L271.8,36.21L273.01,32.2L274.21,35.85L275.41,33.47L276.61,27.1L277.82,28.1L279.02,34.66L280.22,49.9L281.43,38.38L282.63,36.63L283.83,57.12L285.03,63.47L286.24,79.18L287.44,84.27L288.64,78.62L291.05,86.15L292.25,85.97L293.45,93.19L294.65,85.39L295.86,77.89L297.06,79.97L298.26,85.65L299.47,73.23L301.87,86.08L303.07,103.44L304.28,92.27L305.48,113.5L306.68,113.7L307.88,109.69L309.09,121.71L310.29,124.9L311.49,139.08L312.69,130.18L313.9,125.43L315.1,150.74L316.3,144.19L317.51,155.53L318.71,153.16L319.91,154.91L322.32,152.02L323.52,160.92L324.72,170.71L325.92,167.83L328.33,186.27L329.53,181.43L331.94,187.36L333.14,181.87L335.55,178.61L336.75,181.31L337.95,202.5L339.15,207.71L341.56,194.15L342.76,192.77L343.96,184.67L345.17,184.74L346.37,193.15L347.57,195.75L351.18,214.7L352.38,220.18L353.59,214.22L354.79,213.55L355.99,215.76L357.19,223.45L358.4,223.17L359.6,218.69L360.8,218.03L362,213.43L363.21,203.98L364.41,201.38L365.61,207.12L366.82,207.66L368.02,202.66L369.22,201.7L370.42,208.65L371.63,208.86L372.83,206.73L374.03,207.57L375.23,209.49L376.44,209.34L377.64,213.04L378.84,222.88L381.25,228.78L382.45,232.75L383.65,229.72L384.86,220.95L386.06,224.07L387.26,220.05L388.46,219.02L389.67,221.76L392.07,226.18L393.27,221.59L395.68,221.03L396.88,217.34L398.08,218.8L399.29,223.96L400.49,224.04L401.69,228.71L402.9,229.01L404.1,235.94L407.71,226.46L408.91,230.14L410.11,224.1L411.31,227.63L412.52,220.97L413.72,222.9L414.92,223.39L416.12,220.84L417.33,227.95L418.53,222.47L419.73,224.43L420.94,230.48L422.14,225.85L423.34,225.6L424.54,225.02L425.75,227.67L426.95,228.21L428.15,231.35L430.56,233.88L431.76,238.28L432.96,236.66L434.16,236.68L435.37,235.46L436.57,231.56L437.77,234.29L438.98,233.29L441.38,231.45L442.58,233.5L443.79,234.56L444.99,233.88L446.19,233.82L447.39,236.71L449.8,241.16L451,244.15L452.2,247.72L453.41,255.06L454.61,258.3L455.81,286.99L457.02,280.01L458.22,277.67L459.42,276.91L460.62,278.64L461.83,278.13L463.03,274.69L464.23,274.87L465.43,276.52L466.64,277.81L467.84,277.96L469.04,277.98L470.24,279.2L471.45,276.97L472.65,277.55L473.85,292.57L475.06,289.71L477.46,286.65L478.66,291.27L479.87,286.84L481.07,286.54L482.27,287.64L483.47,285.73L484.68,286.16L485.88,294.59L487.08,297L488.29,295.26L489.49,292.52L490.69,295.01L491.89,294.71L493.1,295.55L494.3,298.74L495.5,297.61L496.7,299.14L497.91,294.34L499.11,296.98L500.31,308.77L502.72,300.89L503.92,302.59L505.12,303.92L506.33,301.66L507.53,300.28L508.73,305.06L509.93,305.36L511.14,317.09L513.54,307.63L514.74,309.73L515.95,306.97L517.15,307.06L518.35,304.74L519.55,299.88L520.76,299.77L521.96,301.29L523.16,304.24L524.37,304.78L525.57,310.18L526.77,307.67L527.97,305.06L529.18,300.21L531.58,298.55L532.78,300.33L533.99,301.17L535.19,315.38L536.39,318.03L537.59,318.06L538.8,317.5L540,318.91" style="fill: rgb(99, 110, 250); fill-opacity: 0.5; stroke-width: 0;"/></g></g><g class="errorbars"/><g class="lines"><path class="js-line" d="M0,314.98L1.2,308.1L2.41,309.53L3.61,307.77L4.81,316.74L6.01,310.42L7.22,308.69L8.42,308.78L9.62,302.97L10.82,315.05L12.03,305.15L13.23,298.51L14.43,299.88L15.63,303.65L16.84,297.78L18.04,298.14L19.24,293.72L20.45,293.83L21.65,297.43L22.85,295.16L24.05,295.58L25.26,300.44L26.46,297.69L27.66,297.33L28.86,299.73L30.07,299.64L31.27,297.11L32.47,293.62L33.67,292.66L34.88,287.8L36.08,288.61L37.28,287.26L38.49,289.33L39.69,290.46L40.89,280.99L42.09,237.86L43.3,160.02L44.5,142.23L45.7,140.99L48.11,123.05L49.31,125.58L50.51,104.64L51.71,106.73L52.92,108.19L54.12,114.34L55.32,116.8L56.53,110.35L58.93,151.72L60.13,144.58L62.54,150.28L63.74,153.8L64.94,153.59L66.15,149.12L67.35,147.54L68.55,149.3L69.76,149.08L70.96,156.17L72.16,148.01L73.36,145.07L74.57,145.24L75.77,147.43L76.97,145.59L78.17,145.15L80.58,160.65L81.78,153.8L82.98,127.29L84.19,125.01L85.39,127.75L86.59,136.03L87.8,137.45L89,140.18L90.2,136.09L91.4,136.23L93.81,137.35L95.01,144.99L96.21,144.17L97.42,144.55L98.62,144.84L99.82,136.03L101.02,138.64L102.23,130.28L103.43,130.87L104.63,114.05L105.84,120.81L107.04,118.88L108.24,132.47L109.44,127.54L110.65,136.55L111.85,134.69L114.25,137.8L115.46,136.17L116.66,143.51L117.86,145.76L121.47,147.46L122.67,144.33L123.88,142.55L125.08,134.16L127.48,153.26L128.69,157.45L129.89,158.43L131.09,155.23L132.29,153.58L133.5,164.75L134.7,168.86L135.9,166.62L137.1,173.46L138.31,173.56L141.92,225.26L143.12,227.68L144.32,224.19L145.52,226.65L146.73,218.38L147.93,222.02L149.13,217.75L150.33,223.34L151.54,215.85L152.74,213.38L153.94,214.82L155.14,212.34L158.75,200.43L159.96,206.28L164.77,194.2L165.97,191.13L167.17,198.22L168.37,198.25L171.98,184.57L173.18,185.01L174.39,182.07L175.59,184.74L176.79,195.99L178,194.74L179.2,191.3L180.4,203.13L181.6,191.98L182.81,192.89L184.01,187.87L185.21,195.71L188.82,153.52L190.02,159.14L191.22,144.66L192.43,140L193.63,141.75L194.83,131.96L196.04,134.63L197.24,123.92L199.64,105.06L200.85,102.31L202.05,110.34L203.25,91.21L204.45,99.3L205.66,118.31L206.86,124.36L208.06,103.91L209.27,124.41L210.47,120.25L214.08,118.59L215.28,95L217.68,86.14L218.89,58.27L220.09,77.02L221.29,73.58L223.7,56.77L224.9,58.59L226.1,47.86L227.31,58.7L228.51,56.6L229.71,36.51L232.12,32.62L233.32,16L236.93,41.97L238.13,39.9L239.33,89.58L240.53,60.14L241.74,61.77L242.94,53L244.14,50.24L245.35,44.4L246.55,51.19L247.75,46.81L248.95,56.74L250.16,42.19L251.36,41.6L252.56,40.01L253.76,33.83L254.97,32.76L256.17,34.4L257.37,23.98L258.57,39.72L259.78,35.36L262.18,21.88L263.39,17.91L265.79,30.39L266.99,25.73L268.2,25.66L269.4,35.07L270.6,26.67L271.8,36.21L273.01,32.2L274.21,35.85L275.41,33.47L276.61,27.1L277.82,28.1L279.02,34.66L280.22,49.9L281.43,38.38L282.63,36.63L283.83,57.12L285.03,63.47L286.24,79.18L287.44,84.27L288.64,78.62L291.05,86.15L292.25,85.97L293.45,93.19L294.65,85.39L295.86,77.89L297.06,79.97L298.26,85.65L299.47,73.23L301.87,86.08L303.07,103.44L304.28,92.27L305.48,113.5L306.68,113.7L307.88,109.69L309.09,121.71L310.29,124.9L311.49,139.08L312.69,130.18L313.9,125.43L315.1,150.74L316.3,144.19L317.51,155.53L318.71,153.16L319.91,154.91L322.32,152.02L323.52,160.92L324.72,170.71L325.92,167.83L328.33,186.27L329.53,181.43L331.94,187.36L333.14,181.87L335.55,178.61L336.75,181.31L337.95,202.5L339.15,207.71L341.56,194.15L342.76,192.77L343.96,184.67L345.17,184.74L346.37,193.15L347.57,195.75L351.18,214.7L352.38,220.18L353.59,214.22L354.79,213.55L355.99,215.76L357.19,223.45L358.4,223.17L359.6,218.69L360.8,218.03L362,213.43L363.21,203.98L364.41,201.38L365.61,207.12L366.82,207.66L368.02,202.66L369.22,201.7L370.42,208.65L371.63,208.86L372.83,206.73L374.03,207.57L375.23,209.49L376.44,209.34L377.64,213.04L378.84,222.88L381.25,228.78L382.45,232.75L383.65,229.72L384.86,220.95L386.06,224.07L387.26,220.05L388.46,219.02L389.67,221.76L392.07,226.18L393.27,221.59L395.68,221.03L396.88,217.34L398.08,218.8L399.29,223.96L400.49,224.04L401.69,228.71L402.9,229.01L404.1,235.94L407.71,226.46L408.91,230.14L410.11,224.1L411.31,227.63L412.52,220.97L413.72,222.9L414.92,223.39L416.12,220.84L417.33,227.95L418.53,222.47L419.73,224.43L420.94,230.48L422.14,225.85L423.34,225.6L424.54,225.02L425.75,227.67L426.95,228.21L428.15,231.35L430.56,233.88L431.76,238.28L432.96,236.66L434.16,236.68L435.37,235.46L436.57,231.56L437.77,234.29L438.98,233.29L441.38,231.45L442.58,233.5L443.79,234.56L444.99,233.88L446.19,233.82L447.39,236.71L449.8,241.16L451,244.15L452.2,247.72L453.41,255.06L454.61,258.3L455.81,286.99L457.02,280.01L458.22,277.67L459.42,276.91L460.62,278.64L461.83,278.13L463.03,274.69L464.23,274.87L465.43,276.52L466.64,277.81L467.84,277.96L469.04,277.98L470.24,279.2L471.45,276.97L472.65,277.55L473.85,292.57L475.06,289.71L477.46,286.65L478.66,291.27L479.87,286.84L481.07,286.54L482.27,287.64L483.47,285.73L484.68,286.16L485.88,294.59L487.08,297L488.29,295.26L489.49,292.52L490.69,295.01L491.89,294.71L493.1,295.55L494.3,298.74L495.5,297.61L496.7,299.14L497.91,294.34L499.11,296.98L500.31,308.77L502.72,300.89L503.92,302.59L505.12,303.92L506.33,301.66L507.53,300.28L508.73,305.06L509.93,305.36L511.14,317.09L513.54,307.63L514.74,309.73L515.95,306.97L517.15,307.06L518.35,304.74L519.55,299.88L520.76,299.77L521.96,301.29L523.16,304.24L524.37,304.78L525.57,310.18L526.77,307.67L527.97,305.06L529.18,300.21L531.58,298.55L532.78,300.33L533.99,301.17L535.19,315.38L536.39,318.03L537.59,318.06L538.8,317.5L540,318.91" style="vector-effect: none; fill: none; stroke: rgb(99, 110, 250); stroke-opacity: 1; stroke-width: 2px; opacity: 1;"/></g><g class="points"/><g class="text"/></g></g></g><g class="overplot"/><path class="xlines-above crisp" d="M0,0" style="fill: none;"/><path class="ylines-above crisp" d="M0,0" style="fill: none;"/><g class="overlines-above"/><g class="xaxislayer-above"><g class="xtick"><text text-anchor="middle" x="0" y="433" transform="translate(128.11,0)" style="font-family: 'Open Sans', verdana, arial, sans-serif; font-size: 12px; fill: rgb(42, 63, 95); fill-opacity: 1; white-space: pre; opacity: 1;">Nov 2022</text></g><g class="xtick"><text text-anchor="middle" x="0" y="433" style="font-family: 'Open Sans', verdana, arial, sans-serif; font-size: 12px; fill: rgb(42, 63, 95); fill-opacity: 1; white-space: pre; opacity: 1;" transform="translate(201.47,0)">Jan 2023</text></g><g class="xtick"><text text-anchor="middle" x="0" y="433" style="font-family: 'Open Sans', verdana, arial, sans-serif; font-size: 12px; fill: rgb(42, 63, 95); fill-opacity: 1; white-space: pre; opacity: 1;" transform="translate(272.43,0)">Mar 2023</text></g><g class="xtick"><text text-anchor="middle" x="0" y="433" style="font-family: 'Open Sans', verdana, arial, sans-serif; font-size: 12px; fill: rgb(42, 63, 95); fill-opacity: 1; white-space: pre; opacity: 1;" transform="translate(345.79,0)">May 2023</text></g><g class="xtick"><text text-anchor="middle" x="0" y="433" style="font-family: 'Open Sans', verdana, arial, sans-serif; font-size: 12px; fill: rgb(42, 63, 95); fill-opacity: 1; white-space: pre; opacity: 1;" transform="translate(419.15,0)">Jul 2023</text></g><g class="xtick"><text text-anchor="middle" x="0" y="433" style="font-family: 'Open Sans', verdana, arial, sans-serif; font-size: 12px; fill: rgb(42, 63, 95); fill-opacity: 1; white-space: pre; opacity: 1;" transform="translate(493.72,0)">Sep 2023</text></g><g class="xtick"><text text-anchor="middle" x="0" y="433" style="font-family: 'Open Sans', verdana, arial, sans-serif; font-size: 12px; fill: rgb(42, 63, 95); fill-opacity: 1; white-space: pre; opacity: 1;" transform="translate(567.0799999999999,0)">Nov 2023</text></g></g><g class="yaxislayer-above"><g class="ytick"><text text-anchor="end" x="79" y="4.199999999999999" transform="translate(0,420)" style="font-family: 'Open Sans', verdana, arial, sans-serif; font-size: 12px; fill: rgb(42, 63, 95); fill-opacity: 1; white-space: pre; opacity: 1;">$0</text></g><g class="ytick"><text text-anchor="end" x="79" y="4.199999999999999" style="font-family: 'Open Sans', verdana, arial, sans-serif; font-size: 12px; fill: rgb(42, 63, 95); fill-opacity: 1; white-space: pre; opacity: 1;" transform="translate(0,364.92)">$2M</text></g><g class="ytick"><text text-anchor="end" x="79" y="4.199999999999999" style="font-family: 'Open Sans', verdana, arial, sans-serif; font-size: 12px; fill: rgb(42, 63, 95); fill-opacity: 1; white-space: pre; opacity: 1;" transform="translate(0,309.85)">$4M</text></g><g class="ytick"><text text-anchor="end" x="79" y="4.199999999999999" style="font-family: 'Open Sans', verdana, arial, sans-serif; font-size: 12px; fill: rgb(42, 63, 95); fill-opacity: 1; white-space: pre; opacity: 1;" transform="translate(0,254.77)">$6M</text></g><g class="ytick"><text text-anchor="end" x="79" y="4.199999999999999" style="font-family: 'Open Sans', verdana, arial, sans-serif; font-size: 12px; fill: rgb(42, 63, 95); fill-opacity: 1; white-space: pre; opacity: 1;" transform="translate(0,199.69)">$8M</text></g><g class="ytick"><text text-anchor="end" x="79" y="4.199999999999999" style="font-family: 'Open Sans', verdana, arial, sans-serif; font-size: 12px; fill: rgb(42, 63, 95); fill-opacity: 1; white-space: pre; opacity: 1;" transform="translate(0,144.61)">$10M</text></g></g><g class="overaxes-above"/></g></g><g class="polarlayer"/><g class="smithlayer"/><g class="ternarylayer"/><g class="geolayer"/><g class="funnelarealayer"/><g class="pielayer"/><g class="iciclelayer"/><g class="treemaplayer"/><g class="sunburstlayer"/><g class="glimages"/><defs id="topdefs-fe7b5c"><g class="clips"/></defs><g class="layer-above"><g class="imagelayer"/><g class="shapelayer"/></g><g class="infolayer"><g class="g-gtitle"><text class="gtitle" x="35" y="50" text-anchor="start" dy="0em" style="font-family: 'Open Sans', verdana, arial, sans-serif; font-size: 17px; fill: rgb(42, 63, 95); opacity: 1; font-weight: normal; white-space: pre;"><tspan class="line" dy="0em" x="35" y="50">Hop Protocol</tspan><tspan class="line" dy="1.3em" x="35" y="50">​<tspan style="font-size:70%" dy="-0.6em">Cumulative Net Flows since Program Announcement, Until Program End + 30 Days - At Last Price</tspan><tspan dy="0.42em">​</tspan></tspan></text></g><g class="g-xtitle"><text class="xtitle" x="350" y="460.3" text-anchor="middle" style="font-family: 'Open Sans', verdana, arial, sans-serif; font-size: 14px; fill: rgb(42, 63, 95); opacity: 1; font-weight: normal; white-space: pre;">Day</text></g><g class="g-ytitle"><text class="ytitle" transform="rotate(-90,24.668750000000003,260)" x="24.668750000000003" y="260" text-anchor="middle" style="font-family: 'Open Sans', verdana, arial, sans-serif; font-size: 14px; fill: rgb(42, 63, 95); opacity: 1; font-weight: normal; white-space: pre;">Cumulative Net Flows (USD)</text></g></g></svg>