<svg class="main-svg" xmlns="http://www.w3.org/2000/svg" xmlns:xlink="http://www.w3.org/1999/xlink" width="700" height="500" style="" viewBox="0 0 700 500"><rect x="0" y="0" width="700" height="500" style="fill: rgb(255, 255, 255); fill-opacity: 1;"/><defs id="defs-d309ef"><g class="clips"><clipPath id="clipd309efxyplot" class="plotclip"><rect width="540" height="320"/></clipPath><clipPath class="axesclip" id="clipd309efx"><rect x="80" y="0" width="540" height="500"/></clipPath><clipPath class="axesclip" id="clipd309efy"><rect x="0" y="100" width="700" height="320"/></clipPath><clipPath class="axesclip" id="clipd309efxy"><rect x="80" y="100" width="540" height="320"/></clipPath></g><g class="gradients"/><g class="patterns"/></defs><g class="bglayer"><rect class="bg" x="80" y="100" width="540" height="320" style="fill: rgb(229, 236, 246); fill-opacity: 1; stroke-width: 0;"/></g><g class="layer-below"><g class="imagelayer"/><g class="shapelayer"/></g><g class="cartesianlayer"><g class="subplot xy"><g class="layer-subplot"><g class="shapelayer"/><g class="imagelayer"/></g><g class="minor-gridlayer"><g class="x"/><g class="y"/></g><g class="gridlayer"><g class="x"><path class="xgrid crisp" transform="translate(91.7,0)" d="M0,100v320" style="stroke: rgb(255, 255, 255); stroke-opacity: 1; stroke-width: 1px;"/><path class="xgrid crisp" transform="translate(193.68,0)" d="M0,100v320" style="stroke: rgb(255, 255, 255); stroke-opacity: 1; stroke-width: 1px;"/><path class="xgrid crisp" transform="translate(295.66999999999996,0)" d="M0,100v320" style="stroke: rgb(255, 255, 255); stroke-opacity: 1; stroke-width: 1px;"/><path class="xgrid crisp" transform="translate(394.3,0)" d="M0,100v320" style="stroke: rgb(255, 255, 255); stroke-opacity: 1; stroke-width: 1px;"/><path class="xgrid crisp" transform="translate(496.28,0)" d="M0,100v320" style="stroke: rgb(255, 255, 255); stroke-opacity: 1; stroke-width: 1px;"/><path class="xgrid crisp" transform="translate(598.27,0)" d="M0,100v320" style="stroke: rgb(255, 255, 255); stroke-opacity: 1; stroke-width: 1px;"/></g><g class="y"><path class="ygrid crisp" transform="translate(0,354.68)" d="M80,0h540" style="stroke: rgb(255, 255, 255); stroke-opacity: 1; stroke-width: 1px;"/><path class="ygrid crisp" transform="translate(0,289.37)" d="M80,0h540" style="stroke: rgb(255, 255, 255); stroke-opacity: 1; stroke-width: 1px;"/><path class="ygrid crisp" transform="translate(0,224.05)" d="M80,0h540" style="stroke: rgb(255, 255, 255); stroke-opacity: 1; stroke-width: 1px;"/><path class="ygrid crisp" transform="translate(0,158.73)" d="M80,0h540" style="stroke: rgb(255, 255, 255); stroke-opacity: 1; stroke-width: 1px;"/></g></g><g class="zerolinelayer"><path class="yzl zl crisp" transform="translate(0,420)" d="M80,0h540" style="stroke: rgb(255, 255, 255); stroke-opacity: 1; stroke-width: 2px;"/></g><path class="xlines-below"/><path class="ylines-below"/><g class="overlines-below"/><g class="xaxislayer-below"/><g class="yaxislayer-below"/><g class="overaxes-below"/><g class="plot" transform="translate(80,100)" clip-path="url(#clipd309efxyplot)"><g class="scatterlayer mlayer"><g class="trace scatter trace754c00" style="stroke-miterlimit: 2;"><g class="fills"><g><path class="js-fill" d="M540,320L0,320L0,181.14L1.67,182.02L3.34,180.39L6.69,176.2L8.36,175.57L10.03,158.5L11.7,155.47L13.37,158.65L15.05,155.81L16.72,152.69L18.39,153.62L20.06,147.89L21.73,144.91L23.41,128.66L25.08,124.38L26.75,118.9L28.42,117.32L30.09,113.21L31.76,112.64L33.44,113.57L35.11,118.76L36.78,121.73L38.45,116.52L41.8,126.09L43.47,127.08L45.14,128.33L46.81,132.16L48.48,138.39L50.15,139.88L51.83,139.56L53.5,140.21L55.17,143.5L56.84,143.83L58.51,146.67L60.19,160.93L63.53,162.27L65.2,162.31L66.87,162.95L68.54,166.92L70.22,167.44L71.89,165.44L73.56,166.29L75.23,168.54L76.9,170.02L78.58,170.28L81.92,171.98L83.59,172.83L85.26,161.41L86.93,161.35L88.61,161.41L90.28,164.49L93.62,164.34L95.29,164.43L96.97,163.52L98.64,163.48L100.31,163.03L101.98,160.22L103.65,161.02L105.33,160.33L107,163.04L108.67,162.99L112.01,163.6L113.68,156.78L117.03,149.2L118.7,121.86L120.37,119.34L122.04,119.33L125.39,119.44L127.06,124.52L128.73,131.35L130.4,144.21L132.07,142.8L133.75,145.06L138.76,146.09L140.43,150.8L142.11,153.36L143.78,152.74L145.45,153.54L147.12,156.19L148.79,159.3L150.46,158.52L152.14,155.75L153.81,156.17L160.5,157.01L162.17,155.37L163.84,159.22L165.51,159.38L167.18,155.27L168.85,155.74L173.87,155.6L175.54,151.65L177.21,152.82L178.89,152.37L180.56,153.21L182.23,153.12L183.9,146.53L185.57,147.32L187.24,134.03L188.92,151.17L190.59,152.06L192.26,151.92L193.93,152.85L195.6,152.86L198.95,149.74L200.62,150.23L207.31,149.8L208.98,151.8L213.99,152.18L215.67,163.51L222.35,162.12L224.02,160.8L225.7,155.36L227.37,153.12L229.04,148.05L230.71,147.61L232.38,139.77L234.06,138.57L235.73,139L237.4,137.59L239.07,128.33L240.74,126.94L242.41,126.5L244.09,124.74L249.1,120.2L250.77,117.82L254.12,115.1L255.79,116.01L257.46,114.1L259.13,98.62L260.8,98.06L262.48,80.38L264.15,79.71L265.82,73.12L267.49,71.63L269.16,64.41L270.84,27.25L272.51,24.27L274.18,27.37L275.85,26.84L279.2,16L280.87,50.97L282.54,48.67L284.21,48.55L285.88,46.33L287.55,46.5L289.23,46.2L290.9,46.92L294.24,42.43L295.91,43.42L297.59,42.87L299.26,43.7L300.93,51.91L302.6,52.41L307.62,52.14L309.29,51.84L312.63,52.59L314.3,41.95L315.98,41.97L317.65,43.5L319.32,23.24L320.99,22.37L326.01,22.52L327.68,28.34L329.35,32.85L331.02,42.59L332.69,169.76L334.37,169.86L337.71,119.63L339.38,117.38L341.05,99.23L342.72,102.28L344.4,114.93L346.07,114.16L347.74,113.87L349.41,111.36L352.76,58.38L354.43,58.12L357.77,90.41L359.44,94.5L361.11,133.54L362.79,140.1L366.13,152.39L367.8,154.49L369.47,161.15L371.15,162.87L374.49,163.87L376.16,165.24L377.83,170.44L379.5,172.17L387.86,174.6L389.54,176.39L391.21,178.47L392.88,178.22L394.55,178.54L396.22,179.98L404.58,181.04L406.25,184.34L407.93,184.45L409.6,188.33L417.96,188.85L419.63,189.85L422.97,190.59L424.64,191.67L426.32,222.78L427.99,223.78L431.33,224.47L433,225.18L434.67,225.22L436.35,194.28L444.71,194.34L446.38,197.91L454.74,198.53L456.41,199.31L463.1,199.54L464.77,200.4L479.81,200.91L481.49,208.31L488.17,209L489.85,210.26L496.53,210.94L498.2,211.12L501.55,210.93L503.22,216.61L504.89,216.83L506.56,218.28L509.91,218.65L511.58,219.64L521.61,220.37L523.28,221.16L524.95,223.1L526.63,223.04L536.66,223.38L538.33,224.47L540,224.27" style="fill: rgb(99, 110, 250); fill-opacity: 0.5; stroke-width: 0;"/></g></g><g class="errorbars"/><g class="lines"><path class="js-line" d="M0,181.14L1.67,182.02L3.34,180.39L6.69,176.2L8.36,175.57L10.03,158.5L11.7,155.47L13.37,158.65L15.05,155.81L16.72,152.69L18.39,153.62L20.06,147.89L21.73,144.91L23.41,128.66L25.08,124.38L26.75,118.9L28.42,117.32L30.09,113.21L31.76,112.64L33.44,113.57L35.11,118.76L36.78,121.73L38.45,116.52L41.8,126.09L43.47,127.08L45.14,128.33L46.81,132.16L48.48,138.39L50.15,139.88L51.83,139.56L53.5,140.21L55.17,143.5L56.84,143.83L58.51,146.67L60.19,160.93L63.53,162.27L65.2,162.31L66.87,162.95L68.54,166.92L70.22,167.44L71.89,165.44L73.56,166.29L75.23,168.54L76.9,170.02L78.58,170.28L81.92,171.98L83.59,172.83L85.26,161.41L86.93,161.35L88.61,161.41L90.28,164.49L93.62,164.34L95.29,164.43L96.97,163.52L98.64,163.48L100.31,163.03L101.98,160.22L103.65,161.02L105.33,160.33L107,163.04L108.67,162.99L112.01,163.6L113.68,156.78L117.03,149.2L118.7,121.86L120.37,119.34L122.04,119.33L125.39,119.44L127.06,124.52L128.73,131.35L130.4,144.21L132.07,142.8L133.75,145.06L138.76,146.09L140.43,150.8L142.11,153.36L143.78,152.74L145.45,153.54L147.12,156.19L148.79,159.3L150.46,158.52L152.14,155.75L153.81,156.17L160.5,157.01L162.17,155.37L163.84,159.22L165.51,159.38L167.18,155.27L168.85,155.74L173.87,155.6L175.54,151.65L177.21,152.82L178.89,152.37L180.56,153.21L182.23,153.12L183.9,146.53L185.57,147.32L187.24,134.03L188.92,151.17L190.59,152.06L192.26,151.92L193.93,152.85L195.6,152.86L198.95,149.74L200.62,150.23L207.31,149.8L208.98,151.8L213.99,152.18L215.67,163.51L222.35,162.12L224.02,160.8L225.7,155.36L227.37,153.12L229.04,148.05L230.71,147.61L232.38,139.77L234.06,138.57L235.73,139L237.4,137.59L239.07,128.33L240.74,126.94L242.41,126.5L244.09,124.74L249.1,120.2L250.77,117.82L254.12,115.1L255.79,116.01L257.46,114.1L259.13,98.62L260.8,98.06L262.48,80.38L264.15,79.71L265.82,73.12L267.49,71.63L269.16,64.41L270.84,27.25L272.51,24.27L274.18,27.37L275.85,26.84L279.2,16L280.87,50.97L282.54,48.67L284.21,48.55L285.88,46.33L287.55,46.5L289.23,46.2L290.9,46.92L294.24,42.43L295.91,43.42L297.59,42.87L299.26,43.7L300.93,51.91L302.6,52.41L307.62,52.14L309.29,51.84L312.63,52.59L314.3,41.95L315.98,41.97L317.65,43.5L319.32,23.24L320.99,22.37L326.01,22.52L327.68,28.34L329.35,32.85L331.02,42.59L332.69,169.76L334.37,169.86L337.71,119.63L339.38,117.38L341.05,99.23L342.72,102.28L344.4,114.93L346.07,114.16L347.74,113.87L349.41,111.36L352.76,58.38L354.43,58.12L357.77,90.41L359.44,94.5L361.11,133.54L362.79,140.1L366.13,152.39L367.8,154.49L369.47,161.15L371.15,162.87L374.49,163.87L376.16,165.24L377.83,170.44L379.5,172.17L387.86,174.6L389.54,176.39L391.21,178.47L392.88,178.22L394.55,178.54L396.22,179.98L404.58,181.04L406.25,184.34L407.93,184.45L409.6,188.33L417.96,188.85L419.63,189.85L422.97,190.59L424.64,191.67L426.32,222.78L427.99,223.78L431.33,224.47L433,225.18L434.67,225.22L436.35,194.28L444.71,194.34L446.38,197.91L454.74,198.53L456.41,199.31L463.1,199.54L464.77,200.4L479.81,200.91L481.49,208.31L488.17,209L489.85,210.26L496.53,210.94L498.2,211.12L501.55,210.93L503.22,216.61L504.89,216.83L506.56,218.28L509.91,218.65L511.58,219.64L521.61,220.37L523.28,221.16L524.95,223.1L526.63,223.04L536.66,223.38L538.33,224.47L540,224.27" style="vector-effect: none; fill: none; stroke: rgb(99, 110, 250); stroke-opacity: 1; stroke-width: 2px; opacity: 1;"/></g><g class="points"/><g class="text"/></g></g></g><g class="overplot"/><path class="xlines-above crisp" d="M0,0" style="fill: none;"/><path class="ylines-above crisp" d="M0,0" style="fill: none;"/><g class="overlines-above"/><g class="xaxislayer-above"><g class="xtick"><text text-anchor="middle" x="0" y="433" transform="translate(91.7,0)" style="font-family: 'Open Sans', verdana, arial, sans-serif; font-size: 12px; fill: rgb(42, 63, 95); fill-opacity: 1; white-space: pre; opacity: 1;">Sep 2022</text></g><g class="xtick"><text text-anchor="middle" x="0" y="433" style="font-family: 'Open Sans', verdana, arial, sans-serif; font-size: 12px; fill: rgb(42, 63, 95); fill-opacity: 1; white-space: pre; opacity: 1;" transform="translate(193.68,0)">Nov 2022</text></g><g class="xtick"><text text-anchor="middle" x="0" y="433" style="font-family: 'Open Sans', verdana, arial, sans-serif; font-size: 12px; fill: rgb(42, 63, 95); fill-opacity: 1; white-space: pre; opacity: 1;" transform="translate(295.66999999999996,0)">Jan 2023</text></g><g class="xtick"><text text-anchor="middle" x="0" y="433" style="font-family: 'Open Sans', verdana, arial, sans-serif; font-size: 12px; fill: rgb(42, 63, 95); fill-opacity: 1; white-space: pre; opacity: 1;" transform="translate(394.3,0)">Mar 2023</text></g><g class="xtick"><text text-anchor="middle" x="0" y="433" style="font-family: 'Open Sans', verdana, arial, sans-serif; font-size: 12px; fill: rgb(42, 63, 95); fill-opacity: 1; white-space: pre; opacity: 1;" transform="translate(496.28,0)">May 2023</text></g><g class="xtick"><text text-anchor="middle" x="0" y="433" style="font-family: 'Open Sans', verdana, arial, sans-serif; font-size: 12px; fill: rgb(42, 63, 95); fill-opacity: 1; white-space: pre; opacity: 1;" transform="translate(598.27,0)">Jul 2023</text></g></g><g class="yaxislayer-above"><g class="ytick"><text text-anchor="end" x="79" y="4.199999999999999" transform="translate(0,420)" style="font-family: 'Open Sans', verdana, arial, sans-serif; font-size: 12px; fill: rgb(42, 63, 95); fill-opacity: 1; white-space: pre; opacity: 1;">$0</text></g><g class="ytick"><text text-anchor="end" x="79" y="4.199999999999999" style="font-family: 'Open Sans', verdana, arial, sans-serif; font-size: 12px; fill: rgb(42, 63, 95); fill-opacity: 1; white-space: pre; opacity: 1;" transform="translate(0,354.68)">$10M</text></g><g class="ytick"><text text-anchor="end" x="79" y="4.199999999999999" style="font-family: 'Open Sans', verdana, arial, sans-serif; font-size: 12px; fill: rgb(42, 63, 95); fill-opacity: 1; white-space: pre; opacity: 1;" transform="translate(0,289.37)">$20M</text></g><g class="ytick"><text text-anchor="end" x="79" y="4.199999999999999" style="font-family: 'Open Sans', verdana, arial, sans-serif; font-size: 12px; fill: rgb(42, 63, 95); fill-opacity: 1; white-space: pre; opacity: 1;" transform="translate(0,224.05)">$30M</text></g><g class="ytick"><text text-anchor="end" x="79" y="4.199999999999999" style="font-family: 'Open Sans', verdana, arial, sans-serif; font-size: 12px; fill: rgb(42, 63, 95); fill-opacity: 1; white-space: pre; opacity: 1;" transform="translate(0,158.73)">$40M</text></g></g><g class="overaxes-above"/></g></g><g class="polarlayer"/><g class="smithlayer"/><g class="ternarylayer"/><g class="geolayer"/><g class="funnelarealayer"/><g class="pielayer"/><g class="iciclelayer"/><g class="treemaplayer"/><g class="sunburstlayer"/><g class="glimages"/><defs id="topdefs-d309ef"><g class="clips"/></defs><g class="layer-above"><g class="imagelayer"/><g class="shapelayer"/></g><g class="infolayer"><g class="g-gtitle"><text class="gtitle" x="35" y="50" text-anchor="start" dy="0em" style="font-family: 'Open Sans', verdana, arial, sans-serif; font-size: 17px; fill: rgb(42, 63, 95); opacity: 1; font-weight: normal; white-space: pre;"><tspan class="line" dy="0em" x="35" y="50">Synthetix - sUSD-3Crv: Curve</tspan><tspan class="line" dy="1.3em" x="35" y="50">​<tspan style="font-size:70%" dy="-0.6em">Cumulative Net Flows since Program Announcement, Until Program End + 30 Days - At Last Price</tspan><tspan dy="0.42em">​</tspan></tspan></text></g><g class="g-xtitle"><text class="xtitle" x="350" y="460.3" text-anchor="middle" style="font-family: 'Open Sans', verdana, arial, sans-serif; font-size: 14px; fill: rgb(42, 63, 95); opacity: 1; font-weight: normal; white-space: pre;">Day</text></g><g class="g-ytitle"><text class="ytitle" transform="rotate(-90,24.668750000000003,260)" x="24.668750000000003" y="260" text-anchor="middle" style="font-family: 'Open Sans', verdana, arial, sans-serif; font-size: 14px; fill: rgb(42, 63, 95); opacity: 1; font-weight: normal; white-space: pre;">Cumulative Net Flows (USD)</text></g></g></svg>