<svg class="main-svg" xmlns="http://www.w3.org/2000/svg" xmlns:xlink="http://www.w3.org/1999/xlink" width="700" height="500" style="" viewBox="0 0 700 500"><rect x="0" y="0" width="700" height="500" style="fill: rgb(255, 255, 255); fill-opacity: 1;"/><defs id="defs-c7451b"><g class="clips"><clipPath id="clipc7451bxyplot" class="plotclip"><rect width="469" height="320"/></clipPath><clipPath class="axesclip" id="clipc7451bx"><rect x="80" y="0" width="469" height="500"/></clipPath><clipPath class="axesclip" id="clipc7451by"><rect x="0" y="100" width="700" height="320"/></clipPath><clipPath class="axesclip" id="clipc7451bxy"><rect x="80" y="100" width="469" height="320"/></clipPath></g><g class="gradients"/><g class="patterns"/></defs><g class="bglayer"><rect class="bg" x="80" y="100" width="469" height="320" style="fill: rgb(229, 236, 246); fill-opacity: 1; stroke-width: 0;"/></g><g class="layer-below"><g class="imagelayer"/><g class="shapelayer"/></g><g class="cartesianlayer"><g class="subplot xy"><g class="layer-subplot"><g class="shapelayer"/><g class="imagelayer"/></g><g class="minor-gridlayer"><g class="x"/><g class="y"/></g><g class="gridlayer"><g class="x"><path class="xgrid crisp" transform="translate(148.57999999999998,0)" d="M0,100v320" style="stroke: rgb(255, 255, 255); stroke-opacity: 1; stroke-width: 1px;"/><path class="xgrid crisp" transform="translate(285.74,0)" d="M0,100v320" style="stroke: rgb(255, 255, 255); stroke-opacity: 1; stroke-width: 1px;"/><path class="xgrid crisp" transform="translate(420.69,0)" d="M0,100v320" style="stroke: rgb(255, 255, 255); stroke-opacity: 1; stroke-width: 1px;"/></g><g class="y"><path class="ygrid crisp" transform="translate(0,365.42)" d="M80,0h469" style="stroke: rgb(255, 255, 255); stroke-opacity: 1; stroke-width: 1px;"/><path class="ygrid crisp" transform="translate(0,304.56)" d="M80,0h469" style="stroke: rgb(255, 255, 255); stroke-opacity: 1; stroke-width: 1px;"/><path class="ygrid crisp" transform="translate(0,243.71)" d="M80,0h469" style="stroke: rgb(255, 255, 255); stroke-opacity: 1; stroke-width: 1px;"/><path class="ygrid crisp" transform="translate(0,182.86)" d="M80,0h469" style="stroke: rgb(255, 255, 255); stroke-opacity: 1; stroke-width: 1px;"/></g></g><g class="zerolinelayer"><path class="yzl zl crisp" transform="translate(0,122.01)" d="M80,0h469" style="stroke: rgb(255, 255, 255); stroke-opacity: 1; stroke-width: 2px;"/></g><path class="xlines-below"/><path class="ylines-below"/><g class="overlines-below"/><g class="xaxislayer-below"/><g class="yaxislayer-below"/><g class="overaxes-below"/><g class="plot" transform="translate(80,100)" clip-path="url(#clipc7451bxyplot)"><g class="scatterlayer mlayer"><g class="trace scatter trace5be4a7" style="stroke-miterlimit: 2;"><g class="fills"><g><path class="js-fill" d="M404.84,22.01L0,22.01L0,16L4.42,70.08L6.64,133.17L8.85,139.57L11.06,140.45L13.27,150.99L15.49,143.59L17.7,143.29L19.91,151.46L22.12,151.24L24.33,155.59L26.55,157.27L28.76,157.07L30.97,147.17L33.18,146.59L35.4,147.04L37.61,149.09L39.82,149.03L42.03,150.49L44.25,150.74L46.46,151.89L48.67,152.58L50.88,165.48L53.09,165.14L55.31,168.3L57.52,169.74L59.73,168.65L61.94,168.38L64.16,169.63L66.37,181.77L68.58,180.7L70.79,177.17L73,179.8L75.22,182.34L77.43,182.26L81.85,179.38L84.07,177.9L90.7,180.82L92.92,180.25L95.13,180.6L97.34,184.26L99.55,197.18L101.76,195.22L103.98,194.39L106.19,196.15L108.4,197.39L110.61,196.94L112.83,197.38L115.04,195.41L117.25,190.58L119.46,189.61L121.67,187.91L123.89,189.58L126.1,194.25L128.31,203.39L130.52,222.2L132.74,228.94L134.95,228.93L137.16,231.17L141.58,229.54L143.8,231.12L146.01,228.91L148.22,233.64L150.43,234.3L152.65,136.73L154.86,133.27L157.07,133.52L159.28,137.47L161.5,136.65L163.71,137.47L165.92,140.76L168.13,147L170.34,148.93L172.56,158.51L174.77,154.84L176.98,164.45L179.19,162.71L181.41,157.81L183.62,148.66L185.83,156.05L188.04,151.93L192.47,147.17L194.68,148.04L196.89,147.36L199.1,148.63L201.32,146.1L203.53,147.37L205.74,148.89L207.95,146.62L210.17,148.29L212.38,148.17L214.59,128.19L216.8,127.55L219.01,125.88L221.23,126.01L225.65,126.19L227.86,126.21L230.08,126.66L232.29,124.73L234.5,122.8L236.71,122.49L241.14,121.38L243.35,121.19L245.56,120.58L247.77,114.55L249.99,114.96L252.2,111.5L254.41,110.23L256.62,110.21L258.83,109.31L261.05,109.78L263.26,116.48L265.47,116.64L269.9,114.66L272.11,112.1L274.32,110.43L276.53,110.99L278.75,106.53L280.96,106.53L283.17,105.7L285.38,106.62L289.81,107.9L292.02,105.98L294.23,102.15L296.44,100.74L298.66,100.51L300.87,102.31L303.08,100.34L305.29,99.62L307.5,101.11L309.72,101.39L314.14,101.74L316.35,104.37L325.2,102.2L327.42,102.44L329.63,107.39L331.84,108.42L338.48,106.71L340.69,102.12L342.9,102.05L345.11,100.51L347.33,99.07L349.54,304L356.17,88.68L358.39,88.19L360.6,87.43L362.81,85.31L365.02,87.39L367.24,85.93L369.45,79.91L371.66,77.57L373.87,77.36L376.08,76.36L378.3,73L380.51,67.62L382.72,69.81L384.93,66.42L387.15,302.72L389.36,60.96L391.57,56.74L393.78,56.67L400.42,53.43L402.63,53.33L404.84,66.87" style="fill: rgb(99, 110, 250); fill-opacity: 0.5; stroke-width: 0;"/></g></g><g class="errorbars"/><g class="lines"><path class="js-line" d="M0,16L4.42,70.08L6.64,133.17L8.85,139.57L11.06,140.45L13.27,150.99L15.49,143.59L17.7,143.29L19.91,151.46L22.12,151.24L24.33,155.59L26.55,157.27L28.76,157.07L30.97,147.17L33.18,146.59L35.4,147.04L37.61,149.09L39.82,149.03L42.03,150.49L44.25,150.74L46.46,151.89L48.67,152.58L50.88,165.48L53.09,165.14L55.31,168.3L57.52,169.74L59.73,168.65L61.94,168.38L64.16,169.63L66.37,181.77L68.58,180.7L70.79,177.17L73,179.8L75.22,182.34L77.43,182.26L81.85,179.38L84.07,177.9L90.7,180.82L92.92,180.25L95.13,180.6L97.34,184.26L99.55,197.18L101.76,195.22L103.98,194.39L106.19,196.15L108.4,197.39L110.61,196.94L112.83,197.38L115.04,195.41L117.25,190.58L119.46,189.61L121.67,187.91L123.89,189.58L126.1,194.25L128.31,203.39L130.52,222.2L132.74,228.94L134.95,228.93L137.16,231.17L141.58,229.54L143.8,231.12L146.01,228.91L148.22,233.64L150.43,234.3L152.65,136.73L154.86,133.27L157.07,133.52L159.28,137.47L161.5,136.65L163.71,137.47L165.92,140.76L168.13,147L170.34,148.93L172.56,158.51L174.77,154.84L176.98,164.45L179.19,162.71L181.41,157.81L183.62,148.66L185.83,156.05L188.04,151.93L192.47,147.17L194.68,148.04L196.89,147.36L199.1,148.63L201.32,146.1L203.53,147.37L205.74,148.89L207.95,146.62L210.17,148.29L212.38,148.17L214.59,128.19L216.8,127.55L219.01,125.88L221.23,126.01L225.65,126.19L227.86,126.21L230.08,126.66L232.29,124.73L234.5,122.8L236.71,122.49L241.14,121.38L243.35,121.19L245.56,120.58L247.77,114.55L249.99,114.96L252.2,111.5L254.41,110.23L256.62,110.21L258.83,109.31L261.05,109.78L263.26,116.48L265.47,116.64L269.9,114.66L272.11,112.1L274.32,110.43L276.53,110.99L278.75,106.53L280.96,106.53L283.17,105.7L285.38,106.62L289.81,107.9L292.02,105.98L294.23,102.15L296.44,100.74L298.66,100.51L300.87,102.31L303.08,100.34L305.29,99.62L307.5,101.11L309.72,101.39L314.14,101.74L316.35,104.37L325.2,102.2L327.42,102.44L329.63,107.39L331.84,108.42L338.48,106.71L340.69,102.12L342.9,102.05L345.11,100.51L347.33,99.07L349.54,304L356.17,88.68L358.39,88.19L360.6,87.43L362.81,85.31L365.02,87.39L367.24,85.93L369.45,79.91L371.66,77.57L373.87,77.36L376.08,76.36L378.3,73L380.51,67.62L382.72,69.81L384.93,66.42L387.15,302.72L389.36,60.96L391.57,56.74L393.78,56.67L400.42,53.43L402.63,53.33L404.84,66.87" style="vector-effect: none; fill: none; stroke: rgb(99, 110, 250); stroke-opacity: 1; stroke-width: 2px; opacity: 1;"/></g><g class="points"/><g class="text"/></g><g class="trace scatter trace895783" style="stroke-miterlimit: 2;"><g class="fills"><g><path class="js-fill" d="M469,22.01L407.06,22.01L407.06,90.69L409.27,115.56L411.48,117L413.69,119.18L415.91,117.12L418.12,124.08L420.33,301.76L422.54,122.74L424.75,121.2L426.97,120.58L429.18,133.51L431.39,132.64L433.6,135.59L435.82,139.52L438.03,137.78L440.24,135.19L442.45,134.4L444.67,135.35L446.88,141.86L449.09,143.48L451.3,137.65L453.51,135.93L455.73,138.41L457.94,129.76L460.15,129.33L462.36,129.06L464.58,132.69L466.79,136.15L469,134.16" style="fill: rgb(239, 85, 59); fill-opacity: 0.5; stroke-width: 0;"/></g></g><g class="errorbars"/><g class="lines"><path class="js-line" d="M407.06,90.69L409.27,115.56L411.48,117L413.69,119.18L415.91,117.12L418.12,124.08L420.33,301.76L422.54,122.74L424.75,121.2L426.97,120.58L429.18,133.51L431.39,132.64L433.6,135.59L435.82,139.52L438.03,137.78L440.24,135.19L442.45,134.4L444.67,135.35L446.88,141.86L449.09,143.48L451.3,137.65L453.51,135.93L455.73,138.41L457.94,129.76L460.15,129.33L462.36,129.06L464.58,132.69L466.79,136.15L469,134.16" style="vector-effect: none; fill: none; stroke: rgb(239, 85, 59); stroke-opacity: 1; stroke-width: 2px; opacity: 1;"/></g><g class="points"/><g class="text"/></g></g></g><g class="overplot"/><path class="xlines-above crisp" d="M0,0" style="fill: none;"/><path class="ylines-above crisp" d="M0,0" style="fill: none;"/><g class="overlines-above"/><g class="xaxislayer-above"><g class="xtick"><text text-anchor="middle" x="0" y="433" transform="translate(148.57999999999998,0)" style="font-family: 'Open Sans', verdana, arial, sans-serif; font-size: 12px; fill: rgb(42, 63, 95); fill-opacity: 1; white-space: pre; opacity: 1;">Jul 2023</text></g><g class="xtick"><text text-anchor="middle" x="0" y="433" style="font-family: 'Open Sans', verdana, arial, sans-serif; font-size: 12px; fill: rgb(42, 63, 95); fill-opacity: 1; white-space: pre; opacity: 1;" transform="translate(285.74,0)">Sep 2023</text></g><g class="xtick"><text text-anchor="middle" x="0" y="433" style="font-family: 'Open Sans', verdana, arial, sans-serif; font-size: 12px; fill: rgb(42, 63, 95); fill-opacity: 1; white-space: pre; opacity: 1;" transform="translate(420.69,0)">Nov 2023</text></g></g><g class="yaxislayer-above"><g class="ytick"><text text-anchor="end" x="79" y="4.199999999999999" transform="translate(0,365.42)" style="font-family: 'Open Sans', verdana, arial, sans-serif; font-size: 12px; fill: rgb(42, 63, 95); fill-opacity: 1; white-space: pre; opacity: 1;">$−8M</text></g><g class="ytick"><text text-anchor="end" x="79" y="4.199999999999999" style="font-family: 'Open Sans', verdana, arial, sans-serif; font-size: 12px; fill: rgb(42, 63, 95); fill-opacity: 1; white-space: pre; opacity: 1;" transform="translate(0,304.56)">$−6M</text></g><g class="ytick"><text text-anchor="end" x="79" y="4.199999999999999" style="font-family: 'Open Sans', verdana, arial, sans-serif; font-size: 12px; fill: rgb(42, 63, 95); fill-opacity: 1; white-space: pre; opacity: 1;" transform="translate(0,243.71)">$−4M</text></g><g class="ytick"><text text-anchor="end" x="79" y="4.199999999999999" style="font-family: 'Open Sans', verdana, arial, sans-serif; font-size: 12px; fill: rgb(42, 63, 95); fill-opacity: 1; white-space: pre; opacity: 1;" transform="translate(0,182.86)">$−2M</text></g><g class="ytick"><text text-anchor="end" x="79" y="4.199999999999999" style="font-family: 'Open Sans', verdana, arial, sans-serif; font-size: 12px; fill: rgb(42, 63, 95); fill-opacity: 1; white-space: pre; opacity: 1;" transform="translate(0,122.01)">$0</text></g></g><g class="overaxes-above"/></g></g><g class="polarlayer"/><g class="smithlayer"/><g class="ternarylayer"/><g class="geolayer"/><g class="funnelarealayer"/><g class="pielayer"/><g class="iciclelayer"/><g class="treemaplayer"/><g class="sunburstlayer"/><g class="glimages"/><defs id="topdefs-c7451b"><g class="clips"/><clipPath id="legendc7451b"><rect width="130" height="67" x="0" y="0"/></clipPath></defs><g class="layer-above"><g class="imagelayer"/><g class="shapelayer"/></g><g class="infolayer"><g class="legend" pointer-events="all" transform="translate(558.38,100)"><rect class="bg" shape-rendering="crispEdges" width="130" height="67" x="0" y="0" style="stroke: rgb(68, 68, 68); stroke-opacity: 1; fill: rgb(255, 255, 255); fill-opacity: 1; stroke-width: 0px;"/><g class="scrollbox" transform="" clip-path="url(#legendc7451b)"><text class="legendtitletext" text-anchor="start" x="2" y="18.2" style="font-family: 'Open Sans', verdana, arial, sans-serif; font-size: 14px; fill: rgb(42, 63, 95); fill-opacity: 1; white-space: pre;">Period</text><g class="groups"><g class="traces" transform="translate(0,32.7)" style="opacity: 1;"><text class="legendtext" text-anchor="start" x="40" y="4.680000000000001" style="font-family: 'Open Sans', verdana, arial, sans-serif; font-size: 12px; fill: rgb(42, 63, 95); fill-opacity: 1; white-space: pre;">During Program</text><g class="layers"><g class="legendfill"><path class="js-fill" d="M5,-2h30v6h-30z" style="stroke-width: 0; fill: rgb(99, 110, 250); fill-opacity: 0.5;"/></g><g class="legendlines"><path class="js-line" d="M5,-2h30" style="fill: none; stroke: rgb(99, 110, 250); stroke-opacity: 1; stroke-width: 2px;"/></g><g class="legendsymbols"><g class="legendpoints"/></g></g><rect class="legendtoggle" x="0" y="-9.5" width="124.703125" height="19" style="fill: rgb(0, 0, 0); fill-opacity: 0;"/></g><g class="traces" transform="translate(0,51.7)" style="opacity: 1;"><text class="legendtext" text-anchor="start" x="40" y="4.680000000000001" style="font-family: 'Open Sans', verdana, arial, sans-serif; font-size: 12px; fill: rgb(42, 63, 95); fill-opacity: 1; white-space: pre;">Post-Program</text><g class="layers"><g class="legendfill"><path class="js-fill" d="M5,-2h30v6h-30z" style="stroke-width: 0; fill: rgb(239, 85, 59); fill-opacity: 0.5;"/></g><g class="legendlines"><path class="js-line" d="M5,-2h30" style="fill: none; stroke: rgb(239, 85, 59); stroke-opacity: 1; stroke-width: 2px;"/></g><g class="legendsymbols"><g class="legendpoints"/></g></g><rect class="legendtoggle" x="0" y="-9.5" width="124.703125" height="19" style="fill: rgb(0, 0, 0); fill-opacity: 0;"/></g></g></g><rect class="scrollbar" rx="20" ry="3" width="0" height="0" x="0" y="0" style="fill: rgb(128, 139, 164); fill-opacity: 1;"/></g><g class="g-gtitle"><text class="gtitle" x="35" y="50" text-anchor="start" dy="0em" style="font-family: 'Open Sans', verdana, arial, sans-serif; font-size: 17px; fill: rgb(42, 63, 95); opacity: 1; font-weight: normal; white-space: pre;"><tspan class="line" dy="0em" x="35" y="50">Gamma</tspan><tspan class="line" dy="1.3em" x="35" y="50">​<tspan style="font-size:70%" dy="-0.6em">Cumulative Net Flows since Program Announcement, Until Program End + 30 Days - At Last Price</tspan><tspan dy="0.42em">​</tspan></tspan></text></g><g class="g-xtitle"><text class="xtitle" x="314.5" y="460.3" text-anchor="middle" style="font-family: 'Open Sans', verdana, arial, sans-serif; font-size: 14px; fill: rgb(42, 63, 95); opacity: 1; font-weight: normal; white-space: pre;">Day</text></g><g class="g-ytitle"><text class="ytitle" transform="rotate(-90,24.340625000000003,260)" x="24.340625000000003" y="260" text-anchor="middle" style="font-family: 'Open Sans', verdana, arial, sans-serif; font-size: 14px; fill: rgb(42, 63, 95); opacity: 1; font-weight: normal; white-space: pre;">Cumulative Net Flows (USD)</text></g></g></svg>