<svg class="main-svg" xmlns="http://www.w3.org/2000/svg" xmlns:xlink="http://www.w3.org/1999/xlink" width="700" height="500" style="" viewBox="0 0 700 500"><rect x="0" y="0" width="700" height="500" style="fill: rgb(255, 255, 255); fill-opacity: 1;"/><defs id="defs-46e457"><g class="clips"><clipPath id="clip46e457xyplot" class="plotclip"><rect width="540" height="320"/></clipPath><clipPath class="axesclip" id="clip46e457x"><rect x="80" y="0" width="540" height="500"/></clipPath><clipPath class="axesclip" id="clip46e457y"><rect x="0" y="100" width="700" height="320"/></clipPath><clipPath class="axesclip" id="clip46e457xy"><rect x="80" y="100" width="540" height="320"/></clipPath></g><g class="gradients"/><g class="patterns"/></defs><g class="bglayer"><rect class="bg" x="80" y="100" width="540" height="320" style="fill: rgb(229, 236, 246); fill-opacity: 1; stroke-width: 0;"/></g><g class="layer-below"><g class="imagelayer"/><g class="shapelayer"/></g><g class="cartesianlayer"><g class="subplot xy"><g class="layer-subplot"><g class="shapelayer"/><g class="imagelayer"/></g><g class="minor-gridlayer"><g class="x"/><g class="y"/></g><g class="gridlayer"><g class="x"><path class="xgrid crisp" transform="translate(157.14,0)" d="M0,100v320" style="stroke: rgb(255, 255, 255); stroke-opacity: 1; stroke-width: 1px;"/><path class="xgrid crisp" transform="translate(276.91999999999996,0)" d="M0,100v320" style="stroke: rgb(255, 255, 255); stroke-opacity: 1; stroke-width: 1px;"/><path class="xgrid crisp" transform="translate(400.75,0)" d="M0,100v320" style="stroke: rgb(255, 255, 255); stroke-opacity: 1; stroke-width: 1px;"/><path class="xgrid crisp" transform="translate(524.5899999999999,0)" d="M0,100v320" style="stroke: rgb(255, 255, 255); stroke-opacity: 1; stroke-width: 1px;"/></g><g class="y"><path class="ygrid crisp" transform="translate(0,361.29)" d="M80,0h540" style="stroke: rgb(255, 255, 255); stroke-opacity: 1; stroke-width: 1px;"/><path class="ygrid crisp" transform="translate(0,302.58000000000004)" d="M80,0h540" style="stroke: rgb(255, 255, 255); stroke-opacity: 1; stroke-width: 1px;"/><path class="ygrid crisp" transform="translate(0,243.86)" d="M80,0h540" style="stroke: rgb(255, 255, 255); stroke-opacity: 1; stroke-width: 1px;"/><path class="ygrid crisp" transform="translate(0,185.15)" d="M80,0h540" style="stroke: rgb(255, 255, 255); stroke-opacity: 1; stroke-width: 1px;"/><path class="ygrid crisp" transform="translate(0,126.44)" d="M80,0h540" style="stroke: rgb(255, 255, 255); stroke-opacity: 1; stroke-width: 1px;"/></g></g><g class="zerolinelayer"><path class="yzl zl crisp" transform="translate(0,420)" d="M80,0h540" style="stroke: rgb(255, 255, 255); stroke-opacity: 1; stroke-width: 2px;"/></g><path class="xlines-below"/><path class="ylines-below"/><g class="overlines-below"/><g class="xaxislayer-below"/><g class="yaxislayer-below"/><g class="overaxes-below"/><g class="plot" transform="translate(80,100)" clip-path="url(#clip46e457xyplot)"><g class="scatterlayer mlayer"><g class="trace scatter trace3c2b07" style="stroke-miterlimit: 2;"><g class="fills"><g><path class="js-fill" d="M540,320L0,320L0,317.53L4.06,316.07L6.09,315.02L10.15,317L12.18,314.76L18.27,311.27L20.3,311L22.33,309.55L24.36,310.12L26.39,307.89L28.42,308.07L30.45,306.43L32.48,306.6L34.51,307.94L36.54,304.75L38.57,305.34L40.6,304.26L42.63,305.37L44.66,308.6L46.69,312L48.72,312.91L52.78,312.23L54.81,308.59L62.93,307.09L64.96,307.48L69.02,307.32L71.05,308.34L73.08,306.97L75.11,307.34L77.14,308.35L79.17,308.5L83.23,308.45L85.26,306.94L87.29,307.06L89.32,305.72L93.38,303.51L95.41,301.28L97.44,299.64L99.47,293.13L101.5,293.67L103.53,287.15L105.56,287.66L107.59,285.62L109.62,284.12L111.65,280.9L113.68,281.81L115.71,277.96L117.74,273.08L119.77,271.21L121.8,268.01L123.83,267.83L125.86,264.68L127.89,252.98L131.95,243.03L133.98,240.97L136.02,238.2L138.05,239.64L140.08,234.7L142.11,227.71L144.14,224.51L146.17,219.73L148.2,213.23L150.23,211.42L154.29,185.77L156.32,180.89L158.35,180.84L160.38,181.93L162.41,174.08L164.44,171.27L166.47,169.39L168.5,164.02L170.53,154.84L172.56,153.89L174.59,137.15L176.62,133.56L178.65,123.2L180.68,105.02L182.71,81.55L184.74,77.78L186.77,66.52L188.8,50.42L190.83,48.6L192.86,30.13L194.89,27.75L196.92,23.55L198.95,16L200.98,17.86L203.01,30.78L205.04,34.24L209.1,27.81L211.13,27.04L213.16,32.98L215.19,50.5L217.22,86.48L219.25,158.11L225.34,97.09L227.37,96.43L231.43,43.4L233.46,45.17L235.49,42.99L237.52,43.4L239.55,43.73L241.58,47.06L243.61,46.74L245.64,62.2L247.67,63.8L249.7,62.83L251.73,66.95L253.76,66.76L255.79,65.45L257.82,65.05L259.85,83.76L261.88,77.37L263.91,78.89L265.94,81.53L267.97,73.35L270,69.2L272.03,77.72L274.06,82.8L276.09,82.61L278.12,85.69L280.15,85.01L282.18,89.7L284.21,91.21L286.24,81.55L292.33,72.38L294.36,67.04L296.39,59.42L298.42,64.97L300.45,65.58L302.48,72.87L306.54,65.93L308.57,58.79L312.63,51.73L314.66,48.42L316.69,49.1L318.72,48.33L322.78,53.55L324.81,55.01L326.84,57.29L328.87,67.02L330.9,59.06L332.93,72.99L334.96,76.46L336.99,83.58L339.02,86.38L341.05,91.05L343.08,102.78L345.11,105.13L347.14,107.75L349.17,108.83L351.2,106.4L353.23,106.56L357.29,110.92L359.32,110.8L361.35,110.53L363.38,113.21L365.41,112.53L367.44,108.05L369.47,118.48L371.5,117.8L373.53,116.24L375.56,116.62L377.59,115.85L379.62,119.57L381.65,121.03L383.68,127.59L385.71,130L387.74,128.19L391.8,124.95L393.83,132.77L395.86,130.45L397.89,123.07L399.92,121.04L401.95,122.68L403.98,138.45L406.02,138.7L408.05,139.16L410.08,136.61L412.11,147.29L414.14,151.15L416.17,158.28L418.2,156.72L420.23,158.72L422.26,158.1L424.29,155.33L426.32,151.23L430.38,168.35L432.41,171.77L434.44,175.53L436.47,177.53L438.5,180.72L440.53,195.83L442.56,163.95L444.59,146.23L448.65,130.79L450.68,128.82L452.71,124.18L454.74,124.1L458.8,138.24L460.83,135.42L462.86,135.67L464.89,137.27L466.92,139.37L468.95,139.84L470.98,129.74L473.01,132.67L479.1,123.79L481.13,118.06L485.19,109.79L487.22,109.53L491.28,101.22L493.31,104.81L495.34,101.94L497.37,94.97L499.4,93.24L501.43,86.32L503.46,83.49L505.49,96.08L507.52,90.29L509.55,104.27L511.58,102.8L513.61,96.73L515.64,91.59L517.67,92.78L519.7,96.36L521.73,97.56L523.76,99.34L525.79,112.3L527.82,128.29L529.85,133.9L531.88,132.4L533.91,135.02L535.94,136.04L537.97,139.44L540,146.04" style="fill: rgb(99, 110, 250); fill-opacity: 0.5; stroke-width: 0;"/></g></g><g class="errorbars"/><g class="lines"><path class="js-line" d="M0,317.53L4.06,316.07L6.09,315.02L10.15,317L12.18,314.76L18.27,311.27L20.3,311L22.33,309.55L24.36,310.12L26.39,307.89L28.42,308.07L30.45,306.43L32.48,306.6L34.51,307.94L36.54,304.75L38.57,305.34L40.6,304.26L42.63,305.37L44.66,308.6L46.69,312L48.72,312.91L52.78,312.23L54.81,308.59L62.93,307.09L64.96,307.48L69.02,307.32L71.05,308.34L73.08,306.97L75.11,307.34L77.14,308.35L79.17,308.5L83.23,308.45L85.26,306.94L87.29,307.06L89.32,305.72L93.38,303.51L95.41,301.28L97.44,299.64L99.47,293.13L101.5,293.67L103.53,287.15L105.56,287.66L107.59,285.62L109.62,284.12L111.65,280.9L113.68,281.81L115.71,277.96L117.74,273.08L119.77,271.21L121.8,268.01L123.83,267.83L125.86,264.68L127.89,252.98L131.95,243.03L133.98,240.97L136.02,238.2L138.05,239.64L140.08,234.7L142.11,227.71L144.14,224.51L146.17,219.73L148.2,213.23L150.23,211.42L154.29,185.77L156.32,180.89L158.35,180.84L160.38,181.93L162.41,174.08L164.44,171.27L166.47,169.39L168.5,164.02L170.53,154.84L172.56,153.89L174.59,137.15L176.62,133.56L178.65,123.2L180.68,105.02L182.71,81.55L184.74,77.78L186.77,66.52L188.8,50.42L190.83,48.6L192.86,30.13L194.89,27.75L196.92,23.55L198.95,16L200.98,17.86L203.01,30.78L205.04,34.24L209.1,27.81L211.13,27.04L213.16,32.98L215.19,50.5L217.22,86.48L219.25,158.11L225.34,97.09L227.37,96.43L231.43,43.4L233.46,45.17L235.49,42.99L237.52,43.4L239.55,43.73L241.58,47.06L243.61,46.74L245.64,62.2L247.67,63.8L249.7,62.83L251.73,66.95L253.76,66.76L255.79,65.45L257.82,65.05L259.85,83.76L261.88,77.37L263.91,78.89L265.94,81.53L267.97,73.35L270,69.2L272.03,77.72L274.06,82.8L276.09,82.61L278.12,85.69L280.15,85.01L282.18,89.7L284.21,91.21L286.24,81.55L292.33,72.38L294.36,67.04L296.39,59.42L298.42,64.97L300.45,65.58L302.48,72.87L306.54,65.93L308.57,58.79L312.63,51.73L314.66,48.42L316.69,49.1L318.72,48.33L322.78,53.55L324.81,55.01L326.84,57.29L328.87,67.02L330.9,59.06L332.93,72.99L334.96,76.46L336.99,83.58L339.02,86.38L341.05,91.05L343.08,102.78L345.11,105.13L347.14,107.75L349.17,108.83L351.2,106.4L353.23,106.56L357.29,110.92L359.32,110.8L361.35,110.53L363.38,113.21L365.41,112.53L367.44,108.05L369.47,118.48L371.5,117.8L373.53,116.24L375.56,116.62L377.59,115.85L379.62,119.57L381.65,121.03L383.68,127.59L385.71,130L387.74,128.19L391.8,124.95L393.83,132.77L395.86,130.45L397.89,123.07L399.92,121.04L401.95,122.68L403.98,138.45L406.02,138.7L408.05,139.16L410.08,136.61L412.11,147.29L414.14,151.15L416.17,158.28L418.2,156.72L420.23,158.72L422.26,158.1L424.29,155.33L426.32,151.23L430.38,168.35L432.41,171.77L434.44,175.53L436.47,177.53L438.5,180.72L440.53,195.83L442.56,163.95L444.59,146.23L448.65,130.79L450.68,128.82L452.71,124.18L454.74,124.1L458.8,138.24L460.83,135.42L462.86,135.67L464.89,137.27L466.92,139.37L468.95,139.84L470.98,129.74L473.01,132.67L479.1,123.79L481.13,118.06L485.19,109.79L487.22,109.53L491.28,101.22L493.31,104.81L495.34,101.94L497.37,94.97L499.4,93.24L501.43,86.32L503.46,83.49L505.49,96.08L507.52,90.29L509.55,104.27L511.58,102.8L513.61,96.73L515.64,91.59L517.67,92.78L519.7,96.36L521.73,97.56L523.76,99.34L525.79,112.3L527.82,128.29L529.85,133.9L531.88,132.4L533.91,135.02L535.94,136.04L537.97,139.44L540,146.04" style="vector-effect: none; fill: none; stroke: rgb(99, 110, 250); stroke-opacity: 1; stroke-width: 2px; opacity: 1;"/></g><g class="points"/><g class="text"/></g></g></g><g class="overplot"/><path class="xlines-above crisp" d="M0,0" style="fill: none;"/><path class="ylines-above crisp" d="M0,0" style="fill: none;"/><g class="overlines-above"/><g class="xaxislayer-above"><g class="xtick"><text text-anchor="middle" x="0" y="433" transform="translate(157.14,0)" style="font-family: 'Open Sans', verdana, arial, sans-serif; font-size: 12px; fill: rgb(42, 63, 95); fill-opacity: 1; white-space: pre; opacity: 1;">Jan 2023</text></g><g class="xtick"><text text-anchor="middle" x="0" y="433" style="font-family: 'Open Sans', verdana, arial, sans-serif; font-size: 12px; fill: rgb(42, 63, 95); fill-opacity: 1; white-space: pre; opacity: 1;" transform="translate(276.91999999999996,0)">Mar 2023</text></g><g class="xtick"><text text-anchor="middle" x="0" y="433" style="font-family: 'Open Sans', verdana, arial, sans-serif; font-size: 12px; fill: rgb(42, 63, 95); fill-opacity: 1; white-space: pre; opacity: 1;" transform="translate(400.75,0)">May 2023</text></g><g class="xtick"><text text-anchor="middle" x="0" y="433" style="font-family: 'Open Sans', verdana, arial, sans-serif; font-size: 12px; fill: rgb(42, 63, 95); fill-opacity: 1; white-space: pre; opacity: 1;" transform="translate(524.5899999999999,0)">Jul 2023</text></g></g><g class="yaxislayer-above"><g class="ytick"><text text-anchor="end" x="79" y="4.199999999999999" transform="translate(0,420)" style="font-family: 'Open Sans', verdana, arial, sans-serif; font-size: 12px; fill: rgb(42, 63, 95); fill-opacity: 1; white-space: pre; opacity: 1;">$0</text></g><g class="ytick"><text text-anchor="end" x="79" y="4.199999999999999" style="font-family: 'Open Sans', verdana, arial, sans-serif; font-size: 12px; fill: rgb(42, 63, 95); fill-opacity: 1; white-space: pre; opacity: 1;" transform="translate(0,361.29)">$50M</text></g><g class="ytick"><text text-anchor="end" x="79" y="4.199999999999999" style="font-family: 'Open Sans', verdana, arial, sans-serif; font-size: 12px; fill: rgb(42, 63, 95); fill-opacity: 1; white-space: pre; opacity: 1;" transform="translate(0,302.58000000000004)">$100M</text></g><g class="ytick"><text text-anchor="end" x="79" y="4.199999999999999" style="font-family: 'Open Sans', verdana, arial, sans-serif; font-size: 12px; fill: rgb(42, 63, 95); fill-opacity: 1; white-space: pre; opacity: 1;" transform="translate(0,243.86)">$150M</text></g><g class="ytick"><text text-anchor="end" x="79" y="4.199999999999999" style="font-family: 'Open Sans', verdana, arial, sans-serif; font-size: 12px; fill: rgb(42, 63, 95); fill-opacity: 1; white-space: pre; opacity: 1;" transform="translate(0,185.15)">$200M</text></g><g class="ytick"><text text-anchor="end" x="79" y="4.199999999999999" style="font-family: 'Open Sans', verdana, arial, sans-serif; font-size: 12px; fill: rgb(42, 63, 95); fill-opacity: 1; white-space: pre; opacity: 1;" transform="translate(0,126.44)">$250M</text></g></g><g class="overaxes-above"/></g></g><g class="polarlayer"/><g class="smithlayer"/><g class="ternarylayer"/><g class="geolayer"/><g class="funnelarealayer"/><g class="pielayer"/><g class="iciclelayer"/><g class="treemaplayer"/><g class="sunburstlayer"/><g class="glimages"/><defs id="topdefs-46e457"><g class="clips"/></defs><g class="layer-above"><g class="imagelayer"/><g class="shapelayer"/></g><g class="infolayer"><g class="g-gtitle"><text class="gtitle" x="35" y="50" text-anchor="start" dy="0em" style="font-family: 'Open Sans', verdana, arial, sans-serif; font-size: 17px; fill: rgb(42, 63, 95); opacity: 1; font-weight: normal; white-space: pre;"><tspan class="line" dy="0em" x="35" y="50">Velodrome - Velodrome #2 (Tour de OP)*</tspan><tspan class="line" dy="1.3em" x="35" y="50">​<tspan style="font-size:70%" dy="-0.6em">Cumulative Net Flows since Program Announcement, Until Program End + 30 Days - At Last Price</tspan><tspan dy="0.42em">​</tspan></tspan></text></g><g class="g-xtitle"><text class="xtitle" x="350" y="460.3" text-anchor="middle" style="font-family: 'Open Sans', verdana, arial, sans-serif; font-size: 14px; fill: rgb(42, 63, 95); opacity: 1; font-weight: normal; white-space: pre;">Day</text></g><g class="g-ytitle"><text class="ytitle" transform="rotate(-90,17.996875000000003,260)" x="17.996875000000003" y="260" text-anchor="middle" style="font-family: 'Open Sans', verdana, arial, sans-serif; font-size: 14px; fill: rgb(42, 63, 95); opacity: 1; font-weight: normal; white-space: pre;">Cumulative Net Flows (USD)</text></g></g></svg>