<svg class="main-svg" xmlns="http://www.w3.org/2000/svg" xmlns:xlink="http://www.w3.org/1999/xlink" width="700" height="500" style="" viewBox="0 0 700 500"><rect x="0" y="0" width="700" height="500" style="fill: rgb(255, 255, 255); fill-opacity: 1;"/><defs id="defs-82edc5"><g class="clips"><clipPath id="clip82edc5xyplot" class="plotclip"><rect width="540" height="320"/></clipPath><clipPath class="axesclip" id="clip82edc5x"><rect x="80" y="0" width="540" height="500"/></clipPath><clipPath class="axesclip" id="clip82edc5y"><rect x="0" y="100" width="700" height="320"/></clipPath><clipPath class="axesclip" id="clip82edc5xy"><rect x="80" y="100" width="540" height="320"/></clipPath></g><g class="gradients"/><g class="patterns"/></defs><g class="bglayer"><rect class="bg" x="80" y="100" width="540" height="320" style="fill: rgb(229, 236, 246); fill-opacity: 1; stroke-width: 0;"/></g><g class="layer-below"><g class="imagelayer"/><g class="shapelayer"/></g><g class="cartesianlayer"><g class="subplot xy"><g class="layer-subplot"><g class="shapelayer"/><g class="imagelayer"/></g><g class="minor-gridlayer"><g class="x"/><g class="y"/></g><g class="gridlayer"><g class="x"><path class="xgrid crisp" transform="translate(140.2,0)" d="M0,100v320" style="stroke: rgb(255, 255, 255); stroke-opacity: 1; stroke-width: 1px;"/><path class="xgrid crisp" transform="translate(244.66,0)" d="M0,100v320" style="stroke: rgb(255, 255, 255); stroke-opacity: 1; stroke-width: 1px;"/><path class="xgrid crisp" transform="translate(352.66,0)" d="M0,100v320" style="stroke: rgb(255, 255, 255); stroke-opacity: 1; stroke-width: 1px;"/><path class="xgrid crisp" transform="translate(460.66,0)" d="M0,100v320" style="stroke: rgb(255, 255, 255); stroke-opacity: 1; stroke-width: 1px;"/><path class="xgrid crisp" transform="translate(570.4300000000001,0)" d="M0,100v320" style="stroke: rgb(255, 255, 255); stroke-opacity: 1; stroke-width: 1px;"/></g><g class="y"><path class="ygrid crisp" transform="translate(0,298.55)" d="M80,0h540" style="stroke: rgb(255, 255, 255); stroke-opacity: 1; stroke-width: 1px;"/><path class="ygrid crisp" transform="translate(0,211.43)" d="M80,0h540" style="stroke: rgb(255, 255, 255); stroke-opacity: 1; stroke-width: 1px;"/><path class="ygrid crisp" transform="translate(0,124.31)" d="M80,0h540" style="stroke: rgb(255, 255, 255); stroke-opacity: 1; stroke-width: 1px;"/></g></g><g class="zerolinelayer"><path class="yzl zl crisp" transform="translate(0,385.67)" d="M80,0h540" style="stroke: rgb(255, 255, 255); stroke-opacity: 1; stroke-width: 2px;"/></g><path class="xlines-below"/><path class="ylines-below"/><g class="overlines-below"/><g class="xaxislayer-below"/><g class="yaxislayer-below"/><g class="overaxes-below"/><g class="plot" transform="translate(80,100)" clip-path="url(#clip82edc5xyplot)"><g class="scatterlayer mlayer"><g class="trace scatter trace4df3ca" style="stroke-miterlimit: 2;"><g class="fills"><g><path class="js-fill" d="M540,285.67L0,285.67L0,285.67L1.77,259.36L3.54,248.89L7.08,240.33L8.85,241.38L14.16,233.93L15.93,233.96L21.25,233.98L23.02,231.62L24.79,231.26L26.56,231.91L28.33,146.31L30.1,100.32L31.87,36.68L33.64,21.79L35.41,16L37.18,16.99L38.95,20.82L40.72,137.17L42.49,175.04L44.26,186.18L47.8,189.58L49.57,188.87L51.34,186.77L53.11,204.64L54.89,207.02L56.66,207.92L61.97,211.02L63.74,212.56L65.51,212.96L67.28,208.14L70.82,206.56L72.59,207.4L77.9,201.44L79.67,202L81.44,202.5L83.21,201.32L86.75,199.23L88.52,199.55L90.3,198.83L92.07,200.41L95.61,209.07L97.38,208.15L100.92,203.77L102.69,204.97L104.46,244.76L106.23,208.61L108,202.02L109.77,201.96L111.54,198.43L113.31,198.48L115.08,202.53L116.85,201.8L118.62,195.55L120.39,195.1L123.93,193.99L125.7,193.62L127.48,193.31L129.25,193.81L131.02,194.67L132.79,179.29L136.33,177.03L138.1,173.58L139.87,173.5L141.64,175.04L143.41,172.39L145.18,173.1L146.95,181.67L148.72,181.56L150.49,186.85L152.26,187.6L154.03,190.27L155.8,191.2L157.57,185.62L159.34,185.87L161.11,180.73L162.89,180.01L164.66,180.05L166.43,181.4L168.2,181.68L169.97,294.15L173.51,185.52L175.28,186.39L177.05,185.87L178.82,182.44L180.59,185.58L182.36,190.29L184.13,198.05L185.9,201.43L187.67,192.11L189.44,191.81L191.21,190.02L192.98,189.66L194.75,184.7L196.52,184.01L198.3,184.45L200.07,186.52L201.84,184.14L203.61,187.24L205.38,215.18L207.15,217.95L208.92,219.25L210.69,225.44L214.23,224.65L216,227.41L217.77,213.6L219.54,206.22L221.31,203.86L223.08,202.8L226.62,203.81L228.39,200.92L230.16,194.87L231.93,197.18L233.7,197.47L235.48,194.1L237.25,191.8L240.79,191.59L242.56,191.88L244.33,187.46L246.1,303.96L247.87,303.96L540,304" style="fill: rgb(99, 110, 250); fill-opacity: 0.5; stroke-width: 0;"/></g></g><g class="errorbars"/><g class="lines"><path class="js-line" d="M0,285.67L1.77,259.36L3.54,248.89L7.08,240.33L8.85,241.38L14.16,233.93L15.93,233.96L21.25,233.98L23.02,231.62L24.79,231.26L26.56,231.91L28.33,146.31L30.1,100.32L31.87,36.68L33.64,21.79L35.41,16L37.18,16.99L38.95,20.82L40.72,137.17L42.49,175.04L44.26,186.18L47.8,189.58L49.57,188.87L51.34,186.77L53.11,204.64L54.89,207.02L56.66,207.92L61.97,211.02L63.74,212.56L65.51,212.96L67.28,208.14L70.82,206.56L72.59,207.4L77.9,201.44L79.67,202L81.44,202.5L83.21,201.32L86.75,199.23L88.52,199.55L90.3,198.83L92.07,200.41L95.61,209.07L97.38,208.15L100.92,203.77L102.69,204.97L104.46,244.76L106.23,208.61L108,202.02L109.77,201.96L111.54,198.43L113.31,198.48L115.08,202.53L116.85,201.8L118.62,195.55L120.39,195.1L123.93,193.99L125.7,193.62L127.48,193.31L129.25,193.81L131.02,194.67L132.79,179.29L136.33,177.03L138.1,173.58L139.87,173.5L141.64,175.04L143.41,172.39L145.18,173.1L146.95,181.67L148.72,181.56L150.49,186.85L152.26,187.6L154.03,190.27L155.8,191.2L157.57,185.62L159.34,185.87L161.11,180.73L162.89,180.01L164.66,180.05L166.43,181.4L168.2,181.68L169.97,294.15L173.51,185.52L175.28,186.39L177.05,185.87L178.82,182.44L180.59,185.58L182.36,190.29L184.13,198.05L185.9,201.43L187.67,192.11L189.44,191.81L191.21,190.02L192.98,189.66L194.75,184.7L196.52,184.01L198.3,184.45L200.07,186.52L201.84,184.14L203.61,187.24L205.38,215.18L207.15,217.95L208.92,219.25L210.69,225.44L214.23,224.65L216,227.41L217.77,213.6L219.54,206.22L221.31,203.86L223.08,202.8L226.62,203.81L228.39,200.92L230.16,194.87L231.93,197.18L233.7,197.47L235.48,194.1L237.25,191.8" style="vector-effect: none; fill: none; stroke: rgb(99, 110, 250); stroke-opacity: 1; stroke-width: 2px; opacity: 1;"/><path class="js-line" d="M240.79,191.59L242.56,191.88L244.33,187.46L246.1,303.96L247.87,303.96L540,304" style="vector-effect: none; fill: none; stroke: rgb(99, 110, 250); stroke-opacity: 1; stroke-width: 2px; opacity: 1;"/></g><g class="points"/><g class="text"/></g></g></g><g class="overplot"/><path class="xlines-above crisp" d="M0,0" style="fill: none;"/><path class="ylines-above crisp" d="M0,0" style="fill: none;"/><g class="overlines-above"/><g class="xaxislayer-above"><g class="xtick"><text text-anchor="middle" x="0" y="433" transform="translate(140.2,0)" style="font-family: 'Open Sans', verdana, arial, sans-serif; font-size: 12px; fill: rgb(42, 63, 95); fill-opacity: 1; white-space: pre; opacity: 1;">Jan 2023</text></g><g class="xtick"><text text-anchor="middle" x="0" y="433" style="font-family: 'Open Sans', verdana, arial, sans-serif; font-size: 12px; fill: rgb(42, 63, 95); fill-opacity: 1; white-space: pre; opacity: 1;" transform="translate(244.66,0)">Mar 2023</text></g><g class="xtick"><text text-anchor="middle" x="0" y="433" style="font-family: 'Open Sans', verdana, arial, sans-serif; font-size: 12px; fill: rgb(42, 63, 95); fill-opacity: 1; white-space: pre; opacity: 1;" transform="translate(352.66,0)">May 2023</text></g><g class="xtick"><text text-anchor="middle" x="0" y="433" style="font-family: 'Open Sans', verdana, arial, sans-serif; font-size: 12px; fill: rgb(42, 63, 95); fill-opacity: 1; white-space: pre; opacity: 1;" transform="translate(460.66,0)">Jul 2023</text></g><g class="xtick"><text text-anchor="middle" x="0" y="433" style="font-family: 'Open Sans', verdana, arial, sans-serif; font-size: 12px; fill: rgb(42, 63, 95); fill-opacity: 1; white-space: pre; opacity: 1;" transform="translate(570.4300000000001,0)">Sep 2023</text></g></g><g class="yaxislayer-above"><g class="ytick"><text text-anchor="end" x="79" y="4.199999999999999" transform="translate(0,385.67)" style="font-family: 'Open Sans', verdana, arial, sans-serif; font-size: 12px; fill: rgb(42, 63, 95); fill-opacity: 1; white-space: pre; opacity: 1;">$0</text></g><g class="ytick"><text text-anchor="end" x="79" y="4.199999999999999" style="font-family: 'Open Sans', verdana, arial, sans-serif; font-size: 12px; fill: rgb(42, 63, 95); fill-opacity: 1; white-space: pre; opacity: 1;" transform="translate(0,298.55)">$5M</text></g><g class="ytick"><text text-anchor="end" x="79" y="4.199999999999999" style="font-family: 'Open Sans', verdana, arial, sans-serif; font-size: 12px; fill: rgb(42, 63, 95); fill-opacity: 1; white-space: pre; opacity: 1;" transform="translate(0,211.43)">$10M</text></g><g class="ytick"><text text-anchor="end" x="79" y="4.199999999999999" style="font-family: 'Open Sans', verdana, arial, sans-serif; font-size: 12px; fill: rgb(42, 63, 95); fill-opacity: 1; white-space: pre; opacity: 1;" transform="translate(0,124.31)">$15M</text></g></g><g class="overaxes-above"/></g></g><g class="polarlayer"/><g class="smithlayer"/><g class="ternarylayer"/><g class="geolayer"/><g class="funnelarealayer"/><g class="pielayer"/><g class="iciclelayer"/><g class="treemaplayer"/><g class="sunburstlayer"/><g class="glimages"/><defs id="topdefs-82edc5"><g class="clips"/></defs><g class="layer-above"><g class="imagelayer"/><g class="shapelayer"/></g><g class="infolayer"><g class="g-gtitle"><text class="gtitle" x="35" y="50" text-anchor="start" dy="0em" style="font-family: 'Open Sans', verdana, arial, sans-serif; font-size: 17px; fill: rgb(42, 63, 95); opacity: 1; font-weight: normal; white-space: pre;"><tspan class="line" dy="0em" x="35" y="50">Hundred Finance</tspan><tspan class="line" dy="1.3em" x="35" y="50">​<tspan style="font-size:70%" dy="-0.6em">Cumulative Net Flows since Program Announcement, Until Program End + 30 Days - At Last Price</tspan><tspan dy="0.42em">​</tspan></tspan></text></g><g class="g-xtitle"><text class="xtitle" x="350" y="460.3" text-anchor="middle" style="font-family: 'Open Sans', verdana, arial, sans-serif; font-size: 14px; fill: rgb(42, 63, 95); opacity: 1; font-weight: normal; white-space: pre;">Day</text></g><g class="g-ytitle"><text class="ytitle" transform="rotate(-90,24.668750000000003,260)" x="24.668750000000003" y="260" text-anchor="middle" style="font-family: 'Open Sans', verdana, arial, sans-serif; font-size: 14px; fill: rgb(42, 63, 95); opacity: 1; font-weight: normal; white-space: pre;">Cumulative Net Flows (USD)</text></g></g></svg>