<svg class="main-svg" xmlns="http://www.w3.org/2000/svg" xmlns:xlink="http://www.w3.org/1999/xlink" width="700" height="500" style="" viewBox="0 0 700 500"><rect x="0" y="0" width="700" height="500" style="fill: rgb(255, 255, 255); fill-opacity: 1;"/><defs id="defs-8b63e1"><g class="clips"><clipPath id="clip8b63e1xyplot" class="plotclip"><rect width="540" height="320"/></clipPath><clipPath class="axesclip" id="clip8b63e1x"><rect x="80" y="0" width="540" height="500"/></clipPath><clipPath class="axesclip" id="clip8b63e1y"><rect x="0" y="100" width="700" height="320"/></clipPath><clipPath class="axesclip" id="clip8b63e1xy"><rect x="80" y="100" width="540" height="320"/></clipPath></g><g class="gradients"/><g class="patterns"/></defs><g class="bglayer"><rect class="bg" x="80" y="100" width="540" height="320" style="fill: rgb(229, 236, 246); fill-opacity: 1; stroke-width: 0;"/></g><g class="layer-below"><g class="imagelayer"/><g class="shapelayer"/></g><g class="cartesianlayer"><g class="subplot xy"><g class="layer-subplot"><g class="shapelayer"/><g class="imagelayer"/></g><g class="minor-gridlayer"><g class="x"/><g class="y"/></g><g class="gridlayer"><g class="x"><path class="xgrid crisp" transform="translate(88.67,0)" d="M0,100v320" style="stroke: rgb(255, 255, 255); stroke-opacity: 1; stroke-width: 1px;"/><path class="xgrid crisp" transform="translate(164.26,0)" d="M0,100v320" style="stroke: rgb(255, 255, 255); stroke-opacity: 1; stroke-width: 1px;"/><path class="xgrid crisp" transform="translate(237.36,0)" d="M0,100v320" style="stroke: rgb(255, 255, 255); stroke-opacity: 1; stroke-width: 1px;"/><path class="xgrid crisp" transform="translate(312.94,0)" d="M0,100v320" style="stroke: rgb(255, 255, 255); stroke-opacity: 1; stroke-width: 1px;"/><path class="xgrid crisp" transform="translate(388.52,0)" d="M0,100v320" style="stroke: rgb(255, 255, 255); stroke-opacity: 1; stroke-width: 1px;"/><path class="xgrid crisp" transform="translate(465.34,0)" d="M0,100v320" style="stroke: rgb(255, 255, 255); stroke-opacity: 1; stroke-width: 1px;"/><path class="xgrid crisp" transform="translate(540.9300000000001,0)" d="M0,100v320" style="stroke: rgb(255, 255, 255); stroke-opacity: 1; stroke-width: 1px;"/><path class="xgrid crisp" transform="translate(616.51,0)" d="M0,100v320" style="stroke: rgb(255, 255, 255); stroke-opacity: 1; stroke-width: 1px;"/></g><g class="y"><path class="ygrid crisp" transform="translate(0,415.15)" d="M80,0h540" style="stroke: rgb(255, 255, 255); stroke-opacity: 1; stroke-width: 1px;"/><path class="ygrid crisp" transform="translate(0,329.81)" d="M80,0h540" style="stroke: rgb(255, 255, 255); stroke-opacity: 1; stroke-width: 1px;"/><path class="ygrid crisp" transform="translate(0,287.14)" d="M80,0h540" style="stroke: rgb(255, 255, 255); stroke-opacity: 1; stroke-width: 1px;"/><path class="ygrid crisp" transform="translate(0,244.48)" d="M80,0h540" style="stroke: rgb(255, 255, 255); stroke-opacity: 1; stroke-width: 1px;"/><path class="ygrid crisp" transform="translate(0,201.81)" d="M80,0h540" style="stroke: rgb(255, 255, 255); stroke-opacity: 1; stroke-width: 1px;"/><path class="ygrid crisp" transform="translate(0,159.14)" d="M80,0h540" style="stroke: rgb(255, 255, 255); stroke-opacity: 1; stroke-width: 1px;"/><path class="ygrid crisp" transform="translate(0,116.47)" d="M80,0h540" style="stroke: rgb(255, 255, 255); stroke-opacity: 1; stroke-width: 1px;"/></g></g><g class="zerolinelayer"><path class="yzl zl crisp" transform="translate(0,372.48)" d="M80,0h540" style="stroke: rgb(255, 255, 255); stroke-opacity: 1; stroke-width: 2px;"/></g><path class="xlines-below"/><path class="ylines-below"/><g class="overlines-below"/><g class="xaxislayer-below"/><g class="yaxislayer-below"/><g class="overaxes-below"/><g class="plot" transform="translate(80,100)" clip-path="url(#clip8b63e1xyplot)"><g class="scatterlayer mlayer"><g class="trace scatter trace5c8535" style="stroke-miterlimit: 2;"><g class="fills"><g><path class="js-fill" d="M540,272.48L0,272.48L0,272.48L1.24,272.48L2.48,244.81L3.72,204.78L4.96,210.63L6.2,212.28L7.43,204.34L8.67,206.12L9.91,199.92L11.15,197.65L12.39,212.13L16.11,210.6L17.35,212.21L19.82,230.29L21.06,230.07L22.3,225.69L23.54,225.02L24.78,206.32L26.02,206.57L27.26,205.44L28.5,209.04L30.98,216.99L32.22,215.12L33.45,214.07L34.69,214.59L37.17,213.72L38.41,213.55L39.65,211.14L40.89,205.76L42.13,196.65L43.37,202.05L44.61,203.78L45.84,217.7L48.32,204.13L49.56,198.84L50.8,211L52.04,211.62L53.28,223.35L54.52,215L57,215.23L58.24,220.67L60.71,220.25L61.95,220.09L63.19,220.2L64.43,216.95L65.67,211.84L66.91,211.52L69.39,212.05L70.63,210.53L73.1,210.71L74.34,209.63L76.82,209.43L78.06,207.45L79.3,207.27L80.54,209.61L81.78,208.79L83.02,210.26L85.49,209.62L86.73,208.04L87.97,206.01L89.21,206.89L92.93,206.74L94.17,205.63L96.65,208.21L97.88,204.14L99.12,201.16L100.36,200.55L101.6,199.19L102.84,194.81L104.08,214.39L105.32,211.29L106.56,213.75L107.8,226.92L109.04,229.46L110.28,227.52L112.75,223.49L113.99,222.33L115.23,214.81L116.47,216.36L118.95,214.76L120.19,202.24L121.43,208.87L122.67,205.8L123.9,197.73L125.14,203.4L126.38,203.12L127.62,200.06L128.86,200.22L130.1,188.76L131.34,200.44L132.58,201.66L133.82,201.16L135.06,196.32L136.3,195.63L137.53,196.1L138.77,180.79L140.01,182.44L142.49,187.63L143.73,182.79L144.97,186.47L146.21,186.23L147.45,188.29L148.69,182.55L149.92,177.55L151.16,162.87L152.4,158.37L153.64,162.3L154.88,162.11L156.12,154.19L157.36,153.82L158.6,163.28L159.84,155.23L161.08,157.7L162.32,159.79L163.55,152.49L166.03,162.75L167.27,157.26L168.51,146.04L169.75,159.42L170.99,136.46L172.23,150.02L174.71,199.17L175.94,247.9L177.18,236.86L178.42,232.79L179.66,233.76L180.9,233.33L183.38,214.49L184.62,145.33L187.1,158.04L188.34,144.32L189.57,130.87L190.81,152.47L192.05,152.08L193.29,162.06L195.77,160.73L197.01,153.21L198.25,152.82L199.49,150.55L200.73,153.46L201.96,158.69L203.2,160.92L204.44,176.88L205.68,213.1L206.92,208.48L208.16,208.36L209.4,203.6L211.88,147.84L213.12,144.48L214.36,127.31L215.59,137.02L216.83,129.87L218.07,102.87L219.31,130.68L220.55,121.35L221.79,117.26L223.03,107.67L224.27,74.58L225.51,75.94L226.75,76.92L227.98,81.93L229.22,79.73L230.46,81.58L231.7,83.62L232.94,108.35L234.18,106.13L235.42,102.22L236.66,109.66L237.9,75.75L239.14,37.63L240.38,38.22L241.61,38.62L242.85,48.33L244.09,29.34L245.33,31.06L246.57,16L247.81,57.41L250.29,46.2L251.53,49.92L252.77,54.57L254.01,62.21L255.24,48.69L256.48,53.64L257.72,76.08L258.96,79.58L260.2,86.04L261.44,80.13L262.68,57.65L263.92,60.08L265.16,49.81L266.4,46.91L267.63,34.53L268.87,37.41L271.35,139.36L272.59,136.11L273.83,136.66L275.07,121.98L276.31,120.39L277.55,124.73L278.79,124.77L280.03,166.83L282.5,139.97L283.74,158.64L284.98,161.96L286.22,161.67L287.46,162.84L288.7,169.43L289.94,166.51L291.18,169.38L292.42,183.01L293.65,173.25L294.89,173.61L296.13,175.6L297.37,165.11L298.61,168.76L299.85,168.38L301.09,168.82L302.33,168.66L303.57,161.73L304.81,166.32L306.05,167.76L307.28,198.86L308.52,185.3L309.76,178.19L311,175.48L312.24,172.01L313.48,171.73L314.72,175.84L315.96,183.6L317.2,190.48L318.44,190.56L319.67,190.59L320.91,188.76L323.39,183.12L324.63,184.92L327.11,168.19L328.35,176.04L330.83,195.33L332.07,185.38L334.54,167.01L335.78,162.36L337.02,161.54L338.26,152.54L339.5,152.64L340.74,149.44L343.22,154.44L344.46,159.59L345.69,151.69L346.93,162.75L349.41,167.68L350.65,165.72L351.89,166.37L353.13,177.15L354.37,178.93L355.61,163.51L356.85,164.05L358.09,169.13L359.32,173.62L360.56,166.99L361.8,166.89L363.04,169.62L365.52,156.48L366.76,157.83L368,149.46L369.24,151.68L370.48,152.31L371.71,159.43L374.19,162.79L375.43,178.76L376.67,180.22L377.91,167.04L379.15,168.19L380.39,165.36L381.63,155.18L382.87,154.58L384.11,150.77L385.34,154.71L386.58,158.51L387.82,150.5L389.06,150.38L390.3,152.77L391.54,154.18L392.78,176.99L395.26,177.9L396.5,175.84L398.97,176.91L400.21,185.82L401.45,185.12L402.69,187.92L403.93,187.6L405.17,189.1L407.65,189.17L408.89,188.2L410.13,188.93L411.36,192.35L413.84,191.64L415.08,195L416.32,194.54L417.56,186.17L418.8,186.96L420.04,192.94L421.28,195.24L422.52,205.04L424.99,224.12L426.23,251.94L427.47,256.36L428.71,256.18L431.19,254.23L432.43,255.4L434.91,258.34L436.15,254.9L439.86,253.96L441.1,254.3L443.58,256.14L444.82,249.03L446.06,248.97L447.3,250.92L448.54,249.99L449.77,255.83L451.01,258.33L452.25,258.71L453.49,259.88L454.73,253.14L458.45,253.78L459.69,254.39L462.17,254.37L463.4,254.3L465.88,254.27L467.12,264.6L468.36,271.54L469.6,271.45L470.84,271.74L472.08,259.58L473.32,259.61L474.56,265.23L475.79,266.24L477.03,266.27L479.51,264.7L480.75,265.76L488.19,266.34L489.42,268.01L493.14,267.93L494.38,268.73L503.05,268.97L504.29,268.97L505.53,266.33L506.77,266.36L509.25,265.97L510.49,304L511.73,301.73L512.97,301.39L514.21,300.58L515.44,300.86L517.92,300.6L519.16,301.16L535.27,300.82L536.51,299.97L540,300.05" style="fill: rgb(99, 110, 250); fill-opacity: 0.5; stroke-width: 0;"/></g></g><g class="errorbars"/><g class="lines"><path class="js-line" d="M0,272.48L1.24,272.48L2.48,244.81L3.72,204.78L4.96,210.63L6.2,212.28L7.43,204.34L8.67,206.12L9.91,199.92L11.15,197.65L12.39,212.13L16.11,210.6L17.35,212.21L19.82,230.29L21.06,230.07L22.3,225.69L23.54,225.02L24.78,206.32L26.02,206.57L27.26,205.44L28.5,209.04L30.98,216.99L32.22,215.12L33.45,214.07L34.69,214.59L37.17,213.72L38.41,213.55L39.65,211.14L40.89,205.76L42.13,196.65L43.37,202.05L44.61,203.78L45.84,217.7L48.32,204.13L49.56,198.84L50.8,211L52.04,211.62L53.28,223.35L54.52,215L57,215.23L58.24,220.67L60.71,220.25L61.95,220.09L63.19,220.2L64.43,216.95L65.67,211.84L66.91,211.52L69.39,212.05L70.63,210.53L73.1,210.71L74.34,209.63L76.82,209.43L78.06,207.45L79.3,207.27L80.54,209.61L81.78,208.79L83.02,210.26L85.49,209.62L86.73,208.04L87.97,206.01L89.21,206.89L92.93,206.74L94.17,205.63L96.65,208.21L97.88,204.14L99.12,201.16L100.36,200.55L101.6,199.19L102.84,194.81L104.08,214.39L105.32,211.29L106.56,213.75L107.8,226.92L109.04,229.46L110.28,227.52L112.75,223.49L113.99,222.33L115.23,214.81L116.47,216.36L118.95,214.76L120.19,202.24L121.43,208.87L122.67,205.8L123.9,197.73L125.14,203.4L126.38,203.12L127.62,200.06L128.86,200.22L130.1,188.76L131.34,200.44L132.58,201.66L133.82,201.16L135.06,196.32L136.3,195.63L137.53,196.1L138.77,180.79L140.01,182.44L142.49,187.63L143.73,182.79L144.97,186.47L146.21,186.23L147.45,188.29L148.69,182.55L149.92,177.55L151.16,162.87L152.4,158.37L153.64,162.3L154.88,162.11L156.12,154.19L157.36,153.82L158.6,163.28L159.84,155.23L161.08,157.7L162.32,159.79L163.55,152.49L166.03,162.75L167.27,157.26L168.51,146.04L169.75,159.42L170.99,136.46L172.23,150.02L174.71,199.17L175.94,247.9L177.18,236.86L178.42,232.79L179.66,233.76L180.9,233.33L183.38,214.49L184.62,145.33L187.1,158.04L188.34,144.32L189.57,130.87L190.81,152.47L192.05,152.08L193.29,162.06L195.77,160.73L197.01,153.21L198.25,152.82L199.49,150.55L200.73,153.46L201.96,158.69L203.2,160.92L204.44,176.88L205.68,213.1L206.92,208.48L208.16,208.36L209.4,203.6L211.88,147.84L213.12,144.48L214.36,127.31L215.59,137.02L216.83,129.87L218.07,102.87L219.31,130.68L220.55,121.35L221.79,117.26L223.03,107.67L224.27,74.58L225.51,75.94L226.75,76.92L227.98,81.93L229.22,79.73L230.46,81.58L231.7,83.62L232.94,108.35L234.18,106.13L235.42,102.22L236.66,109.66L237.9,75.75L239.14,37.63L240.38,38.22L241.61,38.62L242.85,48.33L244.09,29.34L245.33,31.06L246.57,16L247.81,57.41L250.29,46.2L251.53,49.92L252.77,54.57L254.01,62.21L255.24,48.69L256.48,53.64L257.72,76.08L258.96,79.58L260.2,86.04L261.44,80.13L262.68,57.65L263.92,60.08L265.16,49.81L266.4,46.91L267.63,34.53L268.87,37.41L271.35,139.36L272.59,136.11L273.83,136.66L275.07,121.98L276.31,120.39L277.55,124.73L278.79,124.77L280.03,166.83L282.5,139.97L283.74,158.64L284.98,161.96L286.22,161.67L287.46,162.84L288.7,169.43L289.94,166.51L291.18,169.38L292.42,183.01L293.65,173.25L294.89,173.61L296.13,175.6L297.37,165.11L298.61,168.76L299.85,168.38L301.09,168.82L302.33,168.66L303.57,161.73L304.81,166.32L306.05,167.76L307.28,198.86L308.52,185.3L309.76,178.19L311,175.48L312.24,172.01L313.48,171.73L314.72,175.84L315.96,183.6L317.2,190.48L318.44,190.56L319.67,190.59L320.91,188.76L323.39,183.12L324.63,184.92L327.11,168.19L328.35,176.04L330.83,195.33L332.07,185.38L334.54,167.01L335.78,162.36L337.02,161.54L338.26,152.54L339.5,152.64L340.74,149.44L343.22,154.44L344.46,159.59L345.69,151.69L346.93,162.75L349.41,167.68L350.65,165.72L351.89,166.37L353.13,177.15L354.37,178.93L355.61,163.51L356.85,164.05L358.09,169.13L359.32,173.62L360.56,166.99L361.8,166.89L363.04,169.62L365.52,156.48L366.76,157.83L368,149.46L369.24,151.68L370.48,152.31L371.71,159.43L374.19,162.79L375.43,178.76L376.67,180.22L377.91,167.04L379.15,168.19L380.39,165.36L381.63,155.18L382.87,154.58L384.11,150.77L385.34,154.71L386.58,158.51L387.82,150.5L389.06,150.38L390.3,152.77L391.54,154.18L392.78,176.99L395.26,177.9L396.5,175.84L398.97,176.91L400.21,185.82L401.45,185.12L402.69,187.92L403.93,187.6L405.17,189.1L407.65,189.17L408.89,188.2L410.13,188.93L411.36,192.35L413.84,191.64L415.08,195L416.32,194.54L417.56,186.17L418.8,186.96L420.04,192.94L421.28,195.24L422.52,205.04L424.99,224.12L426.23,251.94L427.47,256.36L428.71,256.18L431.19,254.23L432.43,255.4L434.91,258.34L436.15,254.9L439.86,253.96L441.1,254.3L443.58,256.14L444.82,249.03L446.06,248.97L447.3,250.92L448.54,249.99L449.77,255.83L451.01,258.33L452.25,258.71L453.49,259.88L454.73,253.14L458.45,253.78L459.69,254.39L462.17,254.37L463.4,254.3L465.88,254.27L467.12,264.6L468.36,271.54L469.6,271.45L470.84,271.74L472.08,259.58L473.32,259.61L474.56,265.23L475.79,266.24L477.03,266.27L479.51,264.7L480.75,265.76L488.19,266.34L489.42,268.01L493.14,267.93L494.38,268.73L503.05,268.97L504.29,268.97L505.53,266.33L506.77,266.36L509.25,265.97L510.49,304L511.73,301.73L512.97,301.39L514.21,300.58L515.44,300.86L517.92,300.6L519.16,301.16L535.27,300.82L536.51,299.97L540,300.05" style="vector-effect: none; fill: none; stroke: rgb(99, 110, 250); stroke-opacity: 1; stroke-width: 2px; opacity: 1;"/></g><g class="points"/><g class="text"/></g></g></g><g class="overplot"/><path class="xlines-above crisp" d="M0,0" style="fill: none;"/><path class="ylines-above crisp" d="M0,0" style="fill: none;"/><g class="overlines-above"/><g class="xaxislayer-above"><g class="xtick"><text text-anchor="middle" x="0" y="433" transform="translate(88.67,0)" style="font-family: 'Open Sans', verdana, arial, sans-serif; font-size: 12px; fill: rgb(42, 63, 95); fill-opacity: 1; white-space: pre; opacity: 1;">Nov 2022</text></g><g class="xtick"><text text-anchor="middle" x="0" y="433" style="font-family: 'Open Sans', verdana, arial, sans-serif; font-size: 12px; fill: rgb(42, 63, 95); fill-opacity: 1; white-space: pre; opacity: 1;" transform="translate(164.26,0)">Jan 2023</text></g><g class="xtick"><text text-anchor="middle" x="0" y="433" style="font-family: 'Open Sans', verdana, arial, sans-serif; font-size: 12px; fill: rgb(42, 63, 95); fill-opacity: 1; white-space: pre; opacity: 1;" transform="translate(237.36,0)">Mar 2023</text></g><g class="xtick"><text text-anchor="middle" x="0" y="433" style="font-family: 'Open Sans', verdana, arial, sans-serif; font-size: 12px; fill: rgb(42, 63, 95); fill-opacity: 1; white-space: pre; opacity: 1;" transform="translate(312.94,0)">May 2023</text></g><g class="xtick"><text text-anchor="middle" x="0" y="433" style="font-family: 'Open Sans', verdana, arial, sans-serif; font-size: 12px; fill: rgb(42, 63, 95); fill-opacity: 1; white-space: pre; opacity: 1;" transform="translate(388.52,0)">Jul 2023</text></g><g class="xtick"><text text-anchor="middle" x="0" y="433" style="font-family: 'Open Sans', verdana, arial, sans-serif; font-size: 12px; fill: rgb(42, 63, 95); fill-opacity: 1; white-space: pre; opacity: 1;" transform="translate(465.34,0)">Sep 2023</text></g><g class="xtick"><text text-anchor="middle" x="0" y="433" style="font-family: 'Open Sans', verdana, arial, sans-serif; font-size: 12px; fill: rgb(42, 63, 95); fill-opacity: 1; white-space: pre; opacity: 1;" transform="translate(540.9300000000001,0)">Nov 2023</text></g><g class="xtick"><text text-anchor="middle" x="0" y="433" style="font-family: 'Open Sans', verdana, arial, sans-serif; font-size: 12px; fill: rgb(42, 63, 95); fill-opacity: 1; white-space: pre; opacity: 1;" transform="translate(616.51,0)">Jan 2024</text></g></g><g class="yaxislayer-above"><g class="ytick"><text text-anchor="end" x="79" y="4.199999999999999" transform="translate(0,415.15)" style="font-family: 'Open Sans', verdana, arial, sans-serif; font-size: 12px; fill: rgb(42, 63, 95); fill-opacity: 1; white-space: pre; opacity: 1;">$−0.5M</text></g><g class="ytick"><text text-anchor="end" x="79" y="4.199999999999999" style="font-family: 'Open Sans', verdana, arial, sans-serif; font-size: 12px; fill: rgb(42, 63, 95); fill-opacity: 1; white-space: pre; opacity: 1;" transform="translate(0,372.48)">$0</text></g><g class="ytick"><text text-anchor="end" x="79" y="4.199999999999999" style="font-family: 'Open Sans', verdana, arial, sans-serif; font-size: 12px; fill: rgb(42, 63, 95); fill-opacity: 1; white-space: pre; opacity: 1;" transform="translate(0,329.81)">$0.5M</text></g><g class="ytick"><text text-anchor="end" x="79" y="4.199999999999999" style="font-family: 'Open Sans', verdana, arial, sans-serif; font-size: 12px; fill: rgb(42, 63, 95); fill-opacity: 1; white-space: pre; opacity: 1;" transform="translate(0,287.14)">$1M</text></g><g class="ytick"><text text-anchor="end" x="79" y="4.199999999999999" style="font-family: 'Open Sans', verdana, arial, sans-serif; font-size: 12px; fill: rgb(42, 63, 95); fill-opacity: 1; white-space: pre; opacity: 1;" transform="translate(0,244.48)">$1.5M</text></g><g class="ytick"><text text-anchor="end" x="79" y="4.199999999999999" style="font-family: 'Open Sans', verdana, arial, sans-serif; font-size: 12px; fill: rgb(42, 63, 95); fill-opacity: 1; white-space: pre; opacity: 1;" transform="translate(0,201.81)">$2M</text></g><g class="ytick"><text text-anchor="end" x="79" y="4.199999999999999" style="font-family: 'Open Sans', verdana, arial, sans-serif; font-size: 12px; fill: rgb(42, 63, 95); fill-opacity: 1; white-space: pre; opacity: 1;" transform="translate(0,159.14)">$2.5M</text></g><g class="ytick"><text text-anchor="end" x="79" y="4.199999999999999" style="font-family: 'Open Sans', verdana, arial, sans-serif; font-size: 12px; fill: rgb(42, 63, 95); fill-opacity: 1; white-space: pre; opacity: 1;" transform="translate(0,116.47)">$3M</text></g></g><g class="overaxes-above"/></g></g><g class="polarlayer"/><g class="smithlayer"/><g class="ternarylayer"/><g class="geolayer"/><g class="funnelarealayer"/><g class="pielayer"/><g class="iciclelayer"/><g class="treemaplayer"/><g class="sunburstlayer"/><g class="glimages"/><defs id="topdefs-8b63e1"><g class="clips"/></defs><g class="layer-above"><g class="imagelayer"/><g class="shapelayer"/></g><g class="infolayer"><g class="g-gtitle"><text class="gtitle" x="35" y="50" text-anchor="start" dy="0em" style="font-family: 'Open Sans', verdana, arial, sans-serif; font-size: 17px; fill: rgb(42, 63, 95); opacity: 1; font-weight: normal; white-space: pre;"><tspan class="line" dy="0em" x="35" y="50">Synthetix - All Synthetix Hop Pools</tspan><tspan class="line" dy="1.3em" x="35" y="50">​<tspan style="font-size:70%" dy="-0.6em">Cumulative Net Flows since Program Announcement, Until Program End + 30 Days - At Last Price</tspan><tspan dy="0.42em">​</tspan></tspan></text></g><g class="g-xtitle"><text class="xtitle" x="350" y="460.3" text-anchor="middle" style="font-family: 'Open Sans', verdana, arial, sans-serif; font-size: 14px; fill: rgb(42, 63, 95); opacity: 1; font-weight: normal; white-space: pre;">Day</text></g><g class="g-ytitle"><text class="ytitle" transform="rotate(-90,14.340625000000003,260)" x="14.340625000000003" y="260" text-anchor="middle" style="font-family: 'Open Sans', verdana, arial, sans-serif; font-size: 14px; fill: rgb(42, 63, 95); opacity: 1; font-weight: normal; white-space: pre;">Cumulative Net Flows (USD)</text></g></g></svg>