<svg class="main-svg" xmlns="http://www.w3.org/2000/svg" xmlns:xlink="http://www.w3.org/1999/xlink" width="700" height="500" style="" viewBox="0 0 700 500"><rect x="0" y="0" width="700" height="500" style="fill: rgb(255, 255, 255); fill-opacity: 1;"/><defs id="defs-b1a0ce"><g class="clips"><clipPath id="clipb1a0cexyplot" class="plotclip"><rect width="540" height="320"/></clipPath><clipPath class="axesclip" id="clipb1a0cex"><rect x="80" y="0" width="540" height="500"/></clipPath><clipPath class="axesclip" id="clipb1a0cey"><rect x="0" y="100" width="700" height="320"/></clipPath><clipPath class="axesclip" id="clipb1a0cexy"><rect x="80" y="100" width="540" height="320"/></clipPath></g><g class="gradients"/><g class="patterns"/></defs><g class="bglayer"><rect class="bg" x="80" y="100" width="540" height="320" style="fill: rgb(229, 236, 246); fill-opacity: 1; stroke-width: 0;"/></g><g class="layer-below"><g class="imagelayer"/><g class="shapelayer"/></g><g class="cartesianlayer"><g class="subplot xy"><g class="layer-subplot"><g class="shapelayer"/><g class="imagelayer"/></g><g class="minor-gridlayer"><g class="x"/><g class="y"/></g><g class="gridlayer"><g class="x"><path class="xgrid crisp" transform="translate(110,0)" d="M0,100v320" style="stroke: rgb(255, 255, 255); stroke-opacity: 1; stroke-width: 1px;"/><path class="xgrid crisp" transform="translate(203.32999999999998,0)" d="M0,100v320" style="stroke: rgb(255, 255, 255); stroke-opacity: 1; stroke-width: 1px;"/><path class="xgrid crisp" transform="translate(306.66999999999996,0)" d="M0,100v320" style="stroke: rgb(255, 255, 255); stroke-opacity: 1; stroke-width: 1px;"/><path class="xgrid crisp" transform="translate(406.67,0)" d="M0,100v320" style="stroke: rgb(255, 255, 255); stroke-opacity: 1; stroke-width: 1px;"/><path class="xgrid crisp" transform="translate(510,0)" d="M0,100v320" style="stroke: rgb(255, 255, 255); stroke-opacity: 1; stroke-width: 1px;"/><path class="xgrid crisp" transform="translate(610,0)" d="M0,100v320" style="stroke: rgb(255, 255, 255); stroke-opacity: 1; stroke-width: 1px;"/></g><g class="y"><path class="ygrid crisp" transform="translate(0,406.05)" d="M80,0h540" style="stroke: rgb(255, 255, 255); stroke-opacity: 1; stroke-width: 1px;"/><path class="ygrid crisp" transform="translate(0,344.84000000000003)" d="M80,0h540" style="stroke: rgb(255, 255, 255); stroke-opacity: 1; stroke-width: 1px;"/><path class="ygrid crisp" transform="translate(0,283.63)" d="M80,0h540" style="stroke: rgb(255, 255, 255); stroke-opacity: 1; stroke-width: 1px;"/><path class="ygrid crisp" transform="translate(0,222.42000000000002)" d="M80,0h540" style="stroke: rgb(255, 255, 255); stroke-opacity: 1; stroke-width: 1px;"/><path class="ygrid crisp" transform="translate(0,161.21)" d="M80,0h540" style="stroke: rgb(255, 255, 255); stroke-opacity: 1; stroke-width: 1px;"/></g></g><g class="zerolinelayer"><path class="yzl zl crisp" transform="translate(0,100)" d="M80,0h540" style="stroke: rgb(255, 255, 255); stroke-opacity: 1; stroke-width: 2px;"/></g><path class="xlines-below"/><path class="ylines-below"/><g class="overlines-below"/><g class="xaxislayer-below"/><g class="yaxislayer-below"/><g class="overaxes-below"/><g class="plot" transform="translate(80,100)" clip-path="url(#clipb1a0cexyplot)"><g class="scatterlayer mlayer"><g class="trace scatter trace86ea12" style="stroke-miterlimit: 2;"><g class="fills"><g><path class="js-fill" d="M540,0L0,0L0,6.29L3.33,7.01L6.67,79.07L10,79.27L13.33,88.71L16.67,93.7L20,100.42L23.33,106.68L26.67,107.81L30,110.12L33.33,110.03L36.67,108.87L40,110.69L43.33,113.62L46.67,118.31L50,121.46L53.33,121.24L56.67,125.79L60,138.28L63.33,141.86L66.67,149L70,155.18L73.33,155.85L76.67,160.28L80,143.97L83.33,147.09L86.67,155.68L90,196.2L93.33,196.53L96.67,196.57L100,195.28L103.33,200.76L106.67,204.77L110,200.15L113.33,200.8L116.67,198.38L120,181.9L123.33,182.53L126.67,186.9L130,198.5L133.33,202.93L136.67,206.49L140,206.78L146.67,207.78L150,206.98L153.33,198.76L156.67,207.6L160,231.79L163.33,232.58L166.67,225.15L170,225.38L173.33,206.79L176.67,199.03L183.33,202.66L186.67,216.91L190,217.21L193.33,229.98L196.67,231.66L200,229.52L203.33,229.08L206.67,238.38L210,241.63L213.33,241.72L216.67,231.84L220,226.61L223.33,230.7L226.67,230.66L230,223.2L233.33,229.71L236.67,231.95L240,211.08L243.33,209.77L246.67,212.24L250,208.78L253.33,209.12L256.67,210.3L260,222.86L263.33,217.16L266.67,213.49L270,218.22L273.33,220.43L276.67,223.03L280,219.25L283.33,217.89L286.67,219.73L290,215.88L293.33,216.66L296.67,216.38L300,218.45L303.33,218.89L306.67,223.31L310,224.38L313.33,223.31L316.67,223.92L320,230.35L323.33,229.96L326.67,221.91L340,221.53L343.33,223.68L346.67,223.27L350,224.44L356.67,224.01L360,222.7L363.33,228.31L366.67,225.23L370,224.89L373.33,222.01L376.67,222.19L380,226.12L383.33,225.71L386.67,228.69L390,232.27L393.33,242.62L396.67,242.94L400,248.53L406.67,263.53L410,262.64L416.67,139.27L420,107.33L426.67,85.37L430,109.51L433.33,107.04L436.67,143.83L440,126.28L443.33,145.71L450,170.92L453.33,179.66L456.67,187.31L460,189.72L466.67,194.16L470,209.86L473.33,215.81L476.67,217.01L483.33,222.02L486.67,224.25L490,227.38L493.33,225.56L496.67,226.51L500,228.89L503.33,229.72L506.67,231.34L510,232.02L513.33,230.35L520,232.25L523.33,235.37L526.67,241.26L530,276.26L533.33,277.83L536.67,284.4L540,304" style="fill: rgb(99, 110, 250); fill-opacity: 0.5; stroke-width: 0;"/></g></g><g class="errorbars"/><g class="lines"><path class="js-line" d="M0,6.29L3.33,7.01L6.67,79.07L10,79.27L13.33,88.71L16.67,93.7L20,100.42L23.33,106.68L26.67,107.81L30,110.12L33.33,110.03L36.67,108.87L40,110.69L43.33,113.62L46.67,118.31L50,121.46L53.33,121.24L56.67,125.79L60,138.28L63.33,141.86L66.67,149L70,155.18L73.33,155.85L76.67,160.28L80,143.97L83.33,147.09L86.67,155.68L90,196.2L93.33,196.53L96.67,196.57L100,195.28L103.33,200.76L106.67,204.77L110,200.15L113.33,200.8L116.67,198.38L120,181.9L123.33,182.53L126.67,186.9L130,198.5L133.33,202.93L136.67,206.49L140,206.78L146.67,207.78L150,206.98L153.33,198.76L156.67,207.6L160,231.79L163.33,232.58L166.67,225.15L170,225.38L173.33,206.79L176.67,199.03L183.33,202.66L186.67,216.91L190,217.21L193.33,229.98L196.67,231.66L200,229.52L203.33,229.08L206.67,238.38L210,241.63L213.33,241.72L216.67,231.84L220,226.61L223.33,230.7L226.67,230.66L230,223.2L233.33,229.71L236.67,231.95L240,211.08L243.33,209.77L246.67,212.24L250,208.78L253.33,209.12L256.67,210.3L260,222.86L263.33,217.16L266.67,213.49L270,218.22L273.33,220.43L276.67,223.03L280,219.25L283.33,217.89L286.67,219.73L290,215.88L293.33,216.66L296.67,216.38L300,218.45L303.33,218.89L306.67,223.31L310,224.38L313.33,223.31L316.67,223.92L320,230.35L323.33,229.96L326.67,221.91L340,221.53L343.33,223.68L346.67,223.27L350,224.44L356.67,224.01L360,222.7L363.33,228.31L366.67,225.23L370,224.89L373.33,222.01L376.67,222.19L380,226.12L383.33,225.71L386.67,228.69L390,232.27L393.33,242.62L396.67,242.94L400,248.53L406.67,263.53L410,262.64L416.67,139.27L420,107.33L426.67,85.37L430,109.51L433.33,107.04L436.67,143.83L440,126.28L443.33,145.71L450,170.92L453.33,179.66L456.67,187.31L460,189.72L466.67,194.16L470,209.86L473.33,215.81L476.67,217.01L483.33,222.02L486.67,224.25L490,227.38L493.33,225.56L496.67,226.51L500,228.89L503.33,229.72L506.67,231.34L510,232.02L513.33,230.35L520,232.25L523.33,235.37L526.67,241.26L530,276.26L533.33,277.83L536.67,284.4L540,304" style="vector-effect: none; fill: none; stroke: rgb(99, 110, 250); stroke-opacity: 1; stroke-width: 2px; opacity: 1;"/></g><g class="points"/><g class="text"/></g></g></g><g class="overplot"/><path class="xlines-above crisp" d="M0,0" style="fill: none;"/><path class="ylines-above crisp" d="M0,0" style="fill: none;"/><g class="overlines-above"/><g class="xaxislayer-above"><g class="xtick"><text text-anchor="middle" x="0" y="433" transform="translate(110,0)" style="font-family: 'Open Sans', verdana, arial, sans-serif; font-size: 12px; fill: rgb(42, 63, 95); fill-opacity: 1; white-space: pre; opacity: 1;">Feb 2023</text></g><g class="xtick"><text text-anchor="middle" x="0" y="433" style="font-family: 'Open Sans', verdana, arial, sans-serif; font-size: 12px; fill: rgb(42, 63, 95); fill-opacity: 1; white-space: pre; opacity: 1;" transform="translate(203.32999999999998,0)">Mar 2023</text></g><g class="xtick"><text text-anchor="middle" x="0" y="433" style="font-family: 'Open Sans', verdana, arial, sans-serif; font-size: 12px; fill: rgb(42, 63, 95); fill-opacity: 1; white-space: pre; opacity: 1;" transform="translate(306.66999999999996,0)">Apr 2023</text></g><g class="xtick"><text text-anchor="middle" x="0" y="433" style="font-family: 'Open Sans', verdana, arial, sans-serif; font-size: 12px; fill: rgb(42, 63, 95); fill-opacity: 1; white-space: pre; opacity: 1;" transform="translate(406.67,0)">May 2023</text></g><g class="xtick"><text text-anchor="middle" x="0" y="433" style="font-family: 'Open Sans', verdana, arial, sans-serif; font-size: 12px; fill: rgb(42, 63, 95); fill-opacity: 1; white-space: pre; opacity: 1;" transform="translate(510,0)">Jun 2023</text></g><g class="xtick"><text text-anchor="middle" x="0" y="433" style="font-family: 'Open Sans', verdana, arial, sans-serif; font-size: 12px; fill: rgb(42, 63, 95); fill-opacity: 1; white-space: pre; opacity: 1;" transform="translate(610,0)">Jul 2023</text></g></g><g class="yaxislayer-above"><g class="ytick"><text text-anchor="end" x="79" y="4.199999999999999" transform="translate(0,406.05)" style="font-family: 'Open Sans', verdana, arial, sans-serif; font-size: 12px; fill: rgb(42, 63, 95); fill-opacity: 1; white-space: pre; opacity: 1;">$−250k</text></g><g class="ytick"><text text-anchor="end" x="79" y="4.199999999999999" style="font-family: 'Open Sans', verdana, arial, sans-serif; font-size: 12px; fill: rgb(42, 63, 95); fill-opacity: 1; white-space: pre; opacity: 1;" transform="translate(0,344.84000000000003)">$−200k</text></g><g class="ytick"><text text-anchor="end" x="79" y="4.199999999999999" style="font-family: 'Open Sans', verdana, arial, sans-serif; font-size: 12px; fill: rgb(42, 63, 95); fill-opacity: 1; white-space: pre; opacity: 1;" transform="translate(0,283.63)">$−150k</text></g><g class="ytick"><text text-anchor="end" x="79" y="4.199999999999999" style="font-family: 'Open Sans', verdana, arial, sans-serif; font-size: 12px; fill: rgb(42, 63, 95); fill-opacity: 1; white-space: pre; opacity: 1;" transform="translate(0,222.42000000000002)">$−100k</text></g><g class="ytick"><text text-anchor="end" x="79" y="4.199999999999999" style="font-family: 'Open Sans', verdana, arial, sans-serif; font-size: 12px; fill: rgb(42, 63, 95); fill-opacity: 1; white-space: pre; opacity: 1;" transform="translate(0,161.21)">$−50k</text></g><g class="ytick"><text text-anchor="end" x="79" y="4.199999999999999" style="font-family: 'Open Sans', verdana, arial, sans-serif; font-size: 12px; fill: rgb(42, 63, 95); fill-opacity: 1; white-space: pre; opacity: 1;" transform="translate(0,100)">$0</text></g></g><g class="overaxes-above"/></g></g><g class="polarlayer"/><g class="smithlayer"/><g class="ternarylayer"/><g class="geolayer"/><g class="funnelarealayer"/><g class="pielayer"/><g class="iciclelayer"/><g class="treemaplayer"/><g class="sunburstlayer"/><g class="glimages"/><defs id="topdefs-b1a0ce"><g class="clips"/></defs><g class="layer-above"><g class="imagelayer"/><g class="shapelayer"/></g><g class="infolayer"><g class="g-gtitle"><text class="gtitle" x="35" y="50" text-anchor="start" dy="0em" style="font-family: 'Open Sans', verdana, arial, sans-serif; font-size: 17px; fill: rgb(42, 63, 95); opacity: 1; font-weight: normal; white-space: pre;"><tspan class="line" dy="0em" x="35" y="50">Clipper</tspan><tspan class="line" dy="1.3em" x="35" y="50">​<tspan style="font-size:70%" dy="-0.6em">Cumulative Net Flows since Program Announcement, Until Program End + 30 Days - At Last Price</tspan><tspan dy="0.42em">​</tspan></tspan></text></g><g class="g-xtitle"><text class="xtitle" x="350" y="460.3" text-anchor="middle" style="font-family: 'Open Sans', verdana, arial, sans-serif; font-size: 14px; fill: rgb(42, 63, 95); opacity: 1; font-weight: normal; white-space: pre;">Day</text></g><g class="g-ytitle"><text class="ytitle" transform="rotate(-90,14.996875000000003,260)" x="14.996875000000003" y="260" text-anchor="middle" style="font-family: 'Open Sans', verdana, arial, sans-serif; font-size: 14px; fill: rgb(42, 63, 95); opacity: 1; font-weight: normal; white-space: pre;">Cumulative Net Flows (USD)</text></g></g></svg>