<svg class="main-svg" xmlns="http://www.w3.org/2000/svg" xmlns:xlink="http://www.w3.org/1999/xlink" width="700" height="500" style="" viewBox="0 0 700 500"><rect x="0" y="0" width="700" height="500" style="fill: rgb(255, 255, 255); fill-opacity: 1;"/><defs id="defs-f5a883"><g class="clips"><clipPath id="clipf5a883xyplot" class="plotclip"><rect width="540" height="320"/></clipPath><clipPath class="axesclip" id="clipf5a883x"><rect x="80" y="0" width="540" height="500"/></clipPath><clipPath class="axesclip" id="clipf5a883y"><rect x="0" y="100" width="700" height="320"/></clipPath><clipPath class="axesclip" id="clipf5a883xy"><rect x="80" y="100" width="540" height="320"/></clipPath></g><g class="gradients"/><g class="patterns"/></defs><g class="bglayer"><rect class="bg" x="80" y="100" width="540" height="320" style="fill: rgb(229, 236, 246); fill-opacity: 1; stroke-width: 0;"/></g><g class="layer-below"><g class="imagelayer"/><g class="shapelayer"/></g><g class="cartesianlayer"><g class="subplot xy"><g class="layer-subplot"><g class="shapelayer"/><g class="imagelayer"/></g><g class="minor-gridlayer"><g class="x"/><g class="y"/></g><g class="gridlayer"><g class="x"><path class="xgrid crisp" transform="translate(87.61,0)" d="M0,100v320" style="stroke: rgb(255, 255, 255); stroke-opacity: 1; stroke-width: 1px;"/><path class="xgrid crisp" transform="translate(164.93,0)" d="M0,100v320" style="stroke: rgb(255, 255, 255); stroke-opacity: 1; stroke-width: 1px;"/><path class="xgrid crisp" transform="translate(242.25,0)" d="M0,100v320" style="stroke: rgb(255, 255, 255); stroke-opacity: 1; stroke-width: 1px;"/><path class="xgrid crisp" transform="translate(317.03999999999996,0)" d="M0,100v320" style="stroke: rgb(255, 255, 255); stroke-opacity: 1; stroke-width: 1px;"/><path class="xgrid crisp" transform="translate(394.37,0)" d="M0,100v320" style="stroke: rgb(255, 255, 255); stroke-opacity: 1; stroke-width: 1px;"/><path class="xgrid crisp" transform="translate(471.69,0)" d="M0,100v320" style="stroke: rgb(255, 255, 255); stroke-opacity: 1; stroke-width: 1px;"/><path class="xgrid crisp" transform="translate(550.28,0)" d="M0,100v320" style="stroke: rgb(255, 255, 255); stroke-opacity: 1; stroke-width: 1px;"/></g><g class="y"><path class="ygrid crisp" transform="translate(0,333.03999999999996)" d="M80,0h540" style="stroke: rgb(255, 255, 255); stroke-opacity: 1; stroke-width: 1px;"/><path class="ygrid crisp" transform="translate(0,287.07)" d="M80,0h540" style="stroke: rgb(255, 255, 255); stroke-opacity: 1; stroke-width: 1px;"/><path class="ygrid crisp" transform="translate(0,241.1)" d="M80,0h540" style="stroke: rgb(255, 255, 255); stroke-opacity: 1; stroke-width: 1px;"/><path class="ygrid crisp" transform="translate(0,195.13)" d="M80,0h540" style="stroke: rgb(255, 255, 255); stroke-opacity: 1; stroke-width: 1px;"/><path class="ygrid crisp" transform="translate(0,149.17000000000002)" d="M80,0h540" style="stroke: rgb(255, 255, 255); stroke-opacity: 1; stroke-width: 1px;"/><path class="ygrid crisp" transform="translate(0,103.2)" d="M80,0h540" style="stroke: rgb(255, 255, 255); stroke-opacity: 1; stroke-width: 1px;"/></g></g><g class="zerolinelayer"><path class="yzl zl crisp" transform="translate(0,379)" d="M80,0h540" style="stroke: rgb(255, 255, 255); stroke-opacity: 1; stroke-width: 2px;"/></g><path class="xlines-below"/><path class="ylines-below"/><g class="overlines-below"/><g class="xaxislayer-below"/><g class="yaxislayer-below"/><g class="overaxes-below"/><g class="plot" transform="translate(80,100)" clip-path="url(#clipf5a883xyplot)"><g class="scatterlayer mlayer"><g class="trace scatter traceef717b" style="stroke-miterlimit: 2;"><g class="fills"><g><path class="js-fill" d="M540,279L0,279L0,278.83L74.79,278.61L76.06,285.54L77.32,283.08L78.59,283.09L93.8,282.91L95.07,283.03L101.41,283L102.68,287.33L109.01,287.34L110.28,281.55L111.55,302.81L112.82,297.95L115.35,297.05L116.62,292.92L117.89,292.92L119.15,289.66L121.69,289.65L122.96,294.93L124.23,294.99L125.49,294.04L126.76,293.94L128.03,292.21L136.9,292.06L138.17,284.32L139.44,291.27L140.7,291.26L147.04,291.33L148.31,291.32L172.39,291.21L173.66,286.25L174.93,286.25L176.2,293.74L177.46,293.72L178.73,292.68L181.27,291.99L182.54,291.99L186.34,291.84L187.61,286.26L188.87,286.26L190.14,288.19L192.68,286.94L193.94,286.69L195.21,287.24L196.48,286.27L200.28,286.3L201.55,286.3L202.82,282.84L204.08,282.84L207.89,282.75L209.15,278.17L210.42,273.21L211.69,276.55L212.96,271.96L214.23,271.01L216.76,271.01L218.03,272.2L221.83,270.51L223.1,266.61L224.37,266.6L225.63,262.95L226.9,262.95L228.17,256.83L230.7,241.75L231.97,241.95L233.24,228.78L234.51,228.85L237.04,228.18L238.31,223.59L239.58,226.39L240.85,235.55L242.11,236.93L243.38,236.46L244.65,235.31L245.92,238.59L247.18,241.12L248.45,252.08L249.72,290.04L250.99,277.41L252.25,271.17L253.52,248.14L254.79,236.61L256.06,247.9L257.32,234.46L258.59,234.92L259.86,224.41L261.13,224.41L262.39,222.06L263.66,233.31L264.93,235.86L266.2,235.86L267.46,247.34L268.73,247.34L270,233.4L271.27,231.26L272.54,247.28L273.8,237.34L281.41,237.28L282.68,253.93L283.94,269.53L285.21,272.7L286.48,272.8L287.75,277.25L289.01,279.27L290.28,279.29L294.08,279.92L295.35,284.05L296.62,280.51L297.89,284.3L299.15,16L300.42,16L301.69,288.19L302.96,288.19L304.23,297.39L305.49,297.39L313.1,297.39L314.37,298.44L316.9,298.59L318.17,300.89L337.18,300.91L338.45,304L340.99,300.91L342.25,300.91L344.79,300.91L346.06,304L347.32,300.91L348.59,300.91L354.93,301.38L356.2,301.38L373.94,301.62L375.21,303.99L376.48,301.62L377.75,301.62L386.62,301.63L387.89,302.6L425.92,303.33L427.18,303.37L540,303.82" style="fill: rgb(99, 110, 250); fill-opacity: 0.5; stroke-width: 0;"/></g></g><g class="errorbars"/><g class="lines"><path class="js-line" d="M0,278.83L74.79,278.61L76.06,285.54L77.32,283.08L78.59,283.09L93.8,282.91L95.07,283.03L101.41,283L102.68,287.33L109.01,287.34L110.28,281.55L111.55,302.81L112.82,297.95L115.35,297.05L116.62,292.92L117.89,292.92L119.15,289.66L121.69,289.65L122.96,294.93L124.23,294.99L125.49,294.04L126.76,293.94L128.03,292.21L136.9,292.06L138.17,284.32L139.44,291.27L140.7,291.26L147.04,291.33L148.31,291.32L172.39,291.21L173.66,286.25L174.93,286.25L176.2,293.74L177.46,293.72L178.73,292.68L181.27,291.99L182.54,291.99L186.34,291.84L187.61,286.26L188.87,286.26L190.14,288.19L192.68,286.94L193.94,286.69L195.21,287.24L196.48,286.27L200.28,286.3L201.55,286.3L202.82,282.84L204.08,282.84L207.89,282.75L209.15,278.17L210.42,273.21L211.69,276.55L212.96,271.96L214.23,271.01L216.76,271.01L218.03,272.2L221.83,270.51L223.1,266.61L224.37,266.6L225.63,262.95L226.9,262.95L228.17,256.83L230.7,241.75L231.97,241.95L233.24,228.78L234.51,228.85L237.04,228.18L238.31,223.59L239.58,226.39L240.85,235.55L242.11,236.93L243.38,236.46L244.65,235.31L245.92,238.59L247.18,241.12L248.45,252.08L249.72,290.04L250.99,277.41L252.25,271.17L253.52,248.14L254.79,236.61L256.06,247.9L257.32,234.46L258.59,234.92L259.86,224.41L261.13,224.41L262.39,222.06L263.66,233.31L264.93,235.86L266.2,235.86L267.46,247.34L268.73,247.34L270,233.4L271.27,231.26L272.54,247.28L273.8,237.34L281.41,237.28L282.68,253.93L283.94,269.53L285.21,272.7L286.48,272.8L287.75,277.25L289.01,279.27L290.28,279.29L294.08,279.92L295.35,284.05L296.62,280.51L297.89,284.3L299.15,16L300.42,16L301.69,288.19L302.96,288.19L304.23,297.39L305.49,297.39L313.1,297.39L314.37,298.44L316.9,298.59L318.17,300.89L337.18,300.91L338.45,304L340.99,300.91L342.25,300.91L344.79,300.91L346.06,304L347.32,300.91L348.59,300.91L354.93,301.38L356.2,301.38L373.94,301.62L375.21,303.99L376.48,301.62L377.75,301.62L386.62,301.63L387.89,302.6L425.92,303.33L427.18,303.37L540,303.82" style="vector-effect: none; fill: none; stroke: rgb(99, 110, 250); stroke-opacity: 1; stroke-width: 2px; opacity: 1;"/></g><g class="points"/><g class="text"/></g></g></g><g class="overplot"/><path class="xlines-above crisp" d="M0,0" style="fill: none;"/><path class="ylines-above crisp" d="M0,0" style="fill: none;"/><g class="overlines-above"/><g class="xaxislayer-above"><g class="xtick"><text text-anchor="middle" x="0" y="433" transform="translate(87.61,0)" style="font-family: 'Open Sans', verdana, arial, sans-serif; font-size: 12px; fill: rgb(42, 63, 95); fill-opacity: 1; white-space: pre; opacity: 1;">Sep 2022</text></g><g class="xtick"><text text-anchor="middle" x="0" y="433" style="font-family: 'Open Sans', verdana, arial, sans-serif; font-size: 12px; fill: rgb(42, 63, 95); fill-opacity: 1; white-space: pre; opacity: 1;" transform="translate(164.93,0)">Nov 2022</text></g><g class="xtick"><text text-anchor="middle" x="0" y="433" style="font-family: 'Open Sans', verdana, arial, sans-serif; font-size: 12px; fill: rgb(42, 63, 95); fill-opacity: 1; white-space: pre; opacity: 1;" transform="translate(242.25,0)">Jan 2023</text></g><g class="xtick"><text text-anchor="middle" x="0" y="433" style="font-family: 'Open Sans', verdana, arial, sans-serif; font-size: 12px; fill: rgb(42, 63, 95); fill-opacity: 1; white-space: pre; opacity: 1;" transform="translate(317.03999999999996,0)">Mar 2023</text></g><g class="xtick"><text text-anchor="middle" x="0" y="433" style="font-family: 'Open Sans', verdana, arial, sans-serif; font-size: 12px; fill: rgb(42, 63, 95); fill-opacity: 1; white-space: pre; opacity: 1;" transform="translate(394.37,0)">May 2023</text></g><g class="xtick"><text text-anchor="middle" x="0" y="433" style="font-family: 'Open Sans', verdana, arial, sans-serif; font-size: 12px; fill: rgb(42, 63, 95); fill-opacity: 1; white-space: pre; opacity: 1;" transform="translate(471.69,0)">Jul 2023</text></g><g class="xtick"><text text-anchor="middle" x="0" y="433" style="font-family: 'Open Sans', verdana, arial, sans-serif; font-size: 12px; fill: rgb(42, 63, 95); fill-opacity: 1; white-space: pre; opacity: 1;" transform="translate(550.28,0)">Sep 2023</text></g></g><g class="yaxislayer-above"><g class="ytick"><text text-anchor="end" x="79" y="4.199999999999999" transform="translate(0,379)" style="font-family: 'Open Sans', verdana, arial, sans-serif; font-size: 12px; fill: rgb(42, 63, 95); fill-opacity: 1; white-space: pre; opacity: 1;">$0</text></g><g class="ytick"><text text-anchor="end" x="79" y="4.199999999999999" style="font-family: 'Open Sans', verdana, arial, sans-serif; font-size: 12px; fill: rgb(42, 63, 95); fill-opacity: 1; white-space: pre; opacity: 1;" transform="translate(0,333.03999999999996)">$0.2M</text></g><g class="ytick"><text text-anchor="end" x="79" y="4.199999999999999" style="font-family: 'Open Sans', verdana, arial, sans-serif; font-size: 12px; fill: rgb(42, 63, 95); fill-opacity: 1; white-space: pre; opacity: 1;" transform="translate(0,287.07)">$0.4M</text></g><g class="ytick"><text text-anchor="end" x="79" y="4.199999999999999" style="font-family: 'Open Sans', verdana, arial, sans-serif; font-size: 12px; fill: rgb(42, 63, 95); fill-opacity: 1; white-space: pre; opacity: 1;" transform="translate(0,241.1)">$0.6M</text></g><g class="ytick"><text text-anchor="end" x="79" y="4.199999999999999" style="font-family: 'Open Sans', verdana, arial, sans-serif; font-size: 12px; fill: rgb(42, 63, 95); fill-opacity: 1; white-space: pre; opacity: 1;" transform="translate(0,195.13)">$0.8M</text></g><g class="ytick"><text text-anchor="end" x="79" y="4.199999999999999" style="font-family: 'Open Sans', verdana, arial, sans-serif; font-size: 12px; fill: rgb(42, 63, 95); fill-opacity: 1; white-space: pre; opacity: 1;" transform="translate(0,149.17000000000002)">$1M</text></g><g class="ytick"><text text-anchor="end" x="79" y="4.199999999999999" style="font-family: 'Open Sans', verdana, arial, sans-serif; font-size: 12px; fill: rgb(42, 63, 95); fill-opacity: 1; white-space: pre; opacity: 1;" transform="translate(0,103.2)">$1.2M</text></g></g><g class="overaxes-above"/></g></g><g class="polarlayer"/><g class="smithlayer"/><g class="ternarylayer"/><g class="geolayer"/><g class="funnelarealayer"/><g class="pielayer"/><g class="iciclelayer"/><g class="treemaplayer"/><g class="sunburstlayer"/><g class="glimages"/><defs id="topdefs-f5a883"><g class="clips"/></defs><g class="layer-above"><g class="imagelayer"/><g class="shapelayer"/></g><g class="infolayer"><g class="g-gtitle"><text class="gtitle" x="35" y="50" text-anchor="start" dy="0em" style="font-family: 'Open Sans', verdana, arial, sans-serif; font-size: 17px; fill: rgb(42, 63, 95); opacity: 1; font-weight: normal; white-space: pre;"><tspan class="line" dy="0em" x="35" y="50">Qidao - vUSDC/MAI: Velodrome</tspan><tspan class="line" dy="1.3em" x="35" y="50">​<tspan style="font-size:70%" dy="-0.6em">Cumulative Net Flows since Program Announcement, Until Program End + 30 Days - At Last Price</tspan><tspan dy="0.42em">​</tspan></tspan></text></g><g class="g-xtitle"><text class="xtitle" x="350" y="460.3" text-anchor="middle" style="font-family: 'Open Sans', verdana, arial, sans-serif; font-size: 14px; fill: rgb(42, 63, 95); opacity: 1; font-weight: normal; white-space: pre;">Day</text></g><g class="g-ytitle"><text class="ytitle" transform="rotate(-90,21.340625000000003,260)" x="21.340625000000003" y="260" text-anchor="middle" style="font-family: 'Open Sans', verdana, arial, sans-serif; font-size: 14px; fill: rgb(42, 63, 95); opacity: 1; font-weight: normal; white-space: pre;">Cumulative Net Flows (USD)</text></g></g></svg>