<svg class="main-svg" xmlns="http://www.w3.org/2000/svg" xmlns:xlink="http://www.w3.org/1999/xlink" width="700" height="500" style="" viewBox="0 0 700 500"><rect x="0" y="0" width="700" height="500" style="fill: rgb(255, 255, 255); fill-opacity: 1;"/><defs id="defs-25fd94"><g class="clips"><clipPath id="clip25fd94xyplot" class="plotclip"><rect width="540" height="320"/></clipPath><clipPath class="axesclip" id="clip25fd94x"><rect x="80" y="0" width="540" height="500"/></clipPath><clipPath class="axesclip" id="clip25fd94y"><rect x="0" y="100" width="700" height="320"/></clipPath><clipPath class="axesclip" id="clip25fd94xy"><rect x="80" y="100" width="540" height="320"/></clipPath></g><g class="gradients"/><g class="patterns"/></defs><g class="bglayer"><rect class="bg" x="80" y="100" width="540" height="320" style="fill: rgb(229, 236, 246); fill-opacity: 1; stroke-width: 0;"/></g><g class="layer-below"><g class="imagelayer"/><g class="shapelayer"/></g><g class="cartesianlayer"><g class="subplot xy"><g class="layer-subplot"><g class="shapelayer"/><g class="imagelayer"/></g><g class="minor-gridlayer"><g class="x"/><g class="y"/></g><g class="gridlayer"><g class="x"><path class="xgrid crisp" transform="translate(140.82,0)" d="M0,100v320" style="stroke: rgb(255, 255, 255); stroke-opacity: 1; stroke-width: 1px;"/><path class="xgrid crisp" transform="translate(253.24,0)" d="M0,100v320" style="stroke: rgb(255, 255, 255); stroke-opacity: 1; stroke-width: 1px;"/><path class="xgrid crisp" transform="translate(361.98,0)" d="M0,100v320" style="stroke: rgb(255, 255, 255); stroke-opacity: 1; stroke-width: 1px;"/><path class="xgrid crisp" transform="translate(474.4,0)" d="M0,100v320" style="stroke: rgb(255, 255, 255); stroke-opacity: 1; stroke-width: 1px;"/><path class="xgrid crisp" transform="translate(586.8299999999999,0)" d="M0,100v320" style="stroke: rgb(255, 255, 255); stroke-opacity: 1; stroke-width: 1px;"/></g><g class="y"><path class="ygrid crisp" transform="translate(0,382.97)" d="M80,0h540" style="stroke: rgb(255, 255, 255); stroke-opacity: 1; stroke-width: 1px;"/><path class="ygrid crisp" transform="translate(0,345.94)" d="M80,0h540" style="stroke: rgb(255, 255, 255); stroke-opacity: 1; stroke-width: 1px;"/><path class="ygrid crisp" transform="translate(0,308.9)" d="M80,0h540" style="stroke: rgb(255, 255, 255); stroke-opacity: 1; stroke-width: 1px;"/><path class="ygrid crisp" transform="translate(0,271.87)" d="M80,0h540" style="stroke: rgb(255, 255, 255); stroke-opacity: 1; stroke-width: 1px;"/><path class="ygrid crisp" transform="translate(0,234.84)" d="M80,0h540" style="stroke: rgb(255, 255, 255); stroke-opacity: 1; stroke-width: 1px;"/><path class="ygrid crisp" transform="translate(0,197.81)" d="M80,0h540" style="stroke: rgb(255, 255, 255); stroke-opacity: 1; stroke-width: 1px;"/><path class="ygrid crisp" transform="translate(0,160.78)" d="M80,0h540" style="stroke: rgb(255, 255, 255); stroke-opacity: 1; stroke-width: 1px;"/><path class="ygrid crisp" transform="translate(0,123.74)" d="M80,0h540" style="stroke: rgb(255, 255, 255); stroke-opacity: 1; stroke-width: 1px;"/></g></g><g class="zerolinelayer"><path class="yzl zl crisp" transform="translate(0,420)" d="M80,0h540" style="stroke: rgb(255, 255, 255); stroke-opacity: 1; stroke-width: 2px;"/></g><path class="xlines-below"/><path class="ylines-below"/><g class="overlines-below"/><g class="xaxislayer-below"/><g class="yaxislayer-below"/><g class="overaxes-below"/><g class="plot" transform="translate(80,100)" clip-path="url(#clip25fd94xyplot)"><g class="scatterlayer mlayer"><g class="trace scatter tracefeb99e" style="stroke-miterlimit: 2;"><g class="fills"><g><path class="js-fill" d="M540,320L0,320L0,319.8L1.84,295.63L3.69,286.06L5.53,279.75L7.37,286.61L9.22,272.79L11.06,270.98L12.9,273.75L14.74,268.91L18.43,249.7L20.27,224.78L22.12,225.61L23.96,220.91L25.8,220.21L27.65,225.07L29.49,229.04L31.33,228.9L33.17,226.52L35.02,225.57L38.7,224.58L40.55,228.4L42.39,228.35L44.23,227.45L46.08,226.12L47.92,231.48L49.76,219.13L51.6,213.92L53.45,212.56L55.29,208.35L58.98,196.13L60.82,192.48L62.66,196.97L64.51,197.79L70.03,181.4L71.88,186.44L73.72,186.43L75.56,206.19L77.41,226.61L79.25,221.56L82.94,220.97L84.78,222.5L88.46,219.71L90.31,220.34L92.15,223.15L93.99,220.98L95.84,220.8L97.68,225.21L99.52,224.37L101.37,220.99L105.05,213.87L106.89,214.07L108.74,212.58L110.58,213.25L112.42,216.84L114.27,215.07L116.11,210.31L117.95,207.98L121.64,217.38L123.48,216.86L125.32,219.4L127.17,227.83L129.01,232.56L130.85,230.97L132.7,229.7L134.54,223.58L136.38,224.61L138.23,222.57L140.07,217.19L141.91,218.59L145.6,225.48L147.44,224.56L149.28,224.24L151.13,224.98L152.97,221.75L154.81,222.39L156.66,209.46L158.5,209.74L160.34,210.85L162.18,210.3L164.03,209.37L165.87,207.56L167.71,209.44L169.56,208.08L175.09,204.79L176.93,201.06L182.46,198.27L184.3,212.58L186.14,213.42L187.99,208.02L189.83,205.38L191.67,205.41L193.52,199.63L195.36,198.63L197.2,180.37L199.04,170.63L200.89,164.68L202.73,161.74L204.57,163.53L206.42,170.36L208.26,185.52L210.1,178.73L213.79,201.33L215.63,182.34L217.47,191.4L219.32,189.83L221.16,186.57L223,185.86L226.69,177.91L228.53,209.87L230.38,210.71L232.22,203.54L234.06,195.42L235.9,196.65L239.59,191.23L241.43,193.79L243.28,147.72L245.12,150.44L246.96,152.05L248.81,159.04L250.65,149.28L252.49,154.87L254.33,136.57L256.18,128.89L258.02,112.46L259.86,119.25L261.71,102.86L263.55,101.58L265.39,105.55L267.24,86.69L270.92,93.74L272.76,90.72L274.61,109.56L276.45,96.56L278.29,88.97L280.14,89.78L281.98,90.48L283.82,83.41L285.67,84.61L287.51,84.25L291.19,83.69L293.04,78.39L294.88,123.68L296.72,123.64L298.57,113.32L300.41,121.26L302.25,127.13L304.1,125.58L305.94,119.96L307.78,110.44L309.62,105.01L311.47,102.85L313.31,63.9L315.15,77.53L317,78.09L318.84,70.27L320.68,58.04L322.53,59.51L324.37,60.66L326.21,60L328.05,58.89L329.9,60.16L331.74,59.26L333.58,60.77L335.43,37.15L337.27,31.92L339.11,30.6L340.96,39.6L342.8,42.29L344.64,42.86L348.33,40.3L350.17,28.44L352.01,23.15L353.86,32.85L355.7,33.71L357.54,19.62L359.39,17.26L361.23,17.14L363.07,16L364.91,24.85L366.76,27.3L368.6,28.46L370.44,36.87L372.29,34.93L374.13,35.24L375.97,45.78L379.66,46.14L381.5,46.32L383.34,45.09L385.19,34.6L388.87,31.91L390.72,32.52L394.4,31.72L396.25,35.73L398.09,25.3L399.93,26.45L401.77,28.33L403.62,31.85L405.46,30.75L407.3,43.86L409.15,44.42L410.99,43.53L414.68,43.08L416.52,46.5L420.2,47.78L422.05,50.07L423.89,54.04L425.73,54.59L427.58,54.16L429.42,54.61L431.26,57.41L433.11,56.15L434.95,57.93L436.79,69.87L438.63,80.22L440.48,82.11L442.32,83.91L444.16,78.41L446.01,57.91L447.85,84.78L449.69,102.12L451.54,101.6L453.38,95.32L455.22,94.38L458.91,93.02L460.75,93.64L462.59,93.75L464.44,94.69L466.28,93.11L468.12,96.69L469.97,113.64L471.81,115.6L473.65,112.19L475.49,118.43L477.34,120.64L479.18,118.14L481.02,116.48L482.87,139.17L484.71,156.83L486.55,157.42L488.4,157.39L490.24,171.9L492.08,163.21L493.92,163.48L495.77,165.51L497.61,164.63L499.45,167.1L501.3,165.67L503.14,166.01L504.98,176.65L506.83,176.47L508.67,188.44L510.51,187.18L512.35,187.99L516.04,186.84L517.88,173.49L519.73,173.63L521.57,171.45L523.41,156.07L525.26,155.47L527.1,156.68L528.94,159.38L530.78,159.86L532.63,162.92L534.47,170.48L536.31,168.32L538.16,168.14L540,171.9" style="fill: rgb(99, 110, 250); fill-opacity: 0.5; stroke-width: 0;"/></g></g><g class="errorbars"/><g class="lines"><path class="js-line" d="M0,319.8L1.84,295.63L3.69,286.06L5.53,279.75L7.37,286.61L9.22,272.79L11.06,270.98L12.9,273.75L14.74,268.91L18.43,249.7L20.27,224.78L22.12,225.61L23.96,220.91L25.8,220.21L27.65,225.07L29.49,229.04L31.33,228.9L33.17,226.52L35.02,225.57L38.7,224.58L40.55,228.4L42.39,228.35L44.23,227.45L46.08,226.12L47.92,231.48L49.76,219.13L51.6,213.92L53.45,212.56L55.29,208.35L58.98,196.13L60.82,192.48L62.66,196.97L64.51,197.79L70.03,181.4L71.88,186.44L73.72,186.43L75.56,206.19L77.41,226.61L79.25,221.56L82.94,220.97L84.78,222.5L88.46,219.71L90.31,220.34L92.15,223.15L93.99,220.98L95.84,220.8L97.68,225.21L99.52,224.37L101.37,220.99L105.05,213.87L106.89,214.07L108.74,212.58L110.58,213.25L112.42,216.84L114.27,215.07L116.11,210.31L117.95,207.98L121.64,217.38L123.48,216.86L125.32,219.4L127.17,227.83L129.01,232.56L130.85,230.97L132.7,229.7L134.54,223.58L136.38,224.61L138.23,222.57L140.07,217.19L141.91,218.59L145.6,225.48L147.44,224.56L149.28,224.24L151.13,224.98L152.97,221.75L154.81,222.39L156.66,209.46L158.5,209.74L160.34,210.85L162.18,210.3L164.03,209.37L165.87,207.56L167.71,209.44L169.56,208.08L175.09,204.79L176.93,201.06L182.46,198.27L184.3,212.58L186.14,213.42L187.99,208.02L189.83,205.38L191.67,205.41L193.52,199.63L195.36,198.63L197.2,180.37L199.04,170.63L200.89,164.68L202.73,161.74L204.57,163.53L206.42,170.36L208.26,185.52L210.1,178.73L213.79,201.33L215.63,182.34L217.47,191.4L219.32,189.83L221.16,186.57L223,185.86L226.69,177.91L228.53,209.87L230.38,210.71L232.22,203.54L234.06,195.42L235.9,196.65L239.59,191.23L241.43,193.79L243.28,147.72L245.12,150.44L246.96,152.05L248.81,159.04L250.65,149.28L252.49,154.87L254.33,136.57L256.18,128.89L258.02,112.46L259.86,119.25L261.71,102.86L263.55,101.58L265.39,105.55L267.24,86.69L270.92,93.74L272.76,90.72L274.61,109.56L276.45,96.56L278.29,88.97L280.14,89.78L281.98,90.48L283.82,83.41L285.67,84.61L287.51,84.25L291.19,83.69L293.04,78.39L294.88,123.68L296.72,123.64L298.57,113.32L300.41,121.26L302.25,127.13L304.1,125.58L305.94,119.96L307.78,110.44L309.62,105.01L311.47,102.85L313.31,63.9L315.15,77.53L317,78.09L318.84,70.27L320.68,58.04L322.53,59.51L324.37,60.66L326.21,60L328.05,58.89L329.9,60.16L331.74,59.26L333.58,60.77L335.43,37.15L337.27,31.92L339.11,30.6L340.96,39.6L342.8,42.29L344.64,42.86L348.33,40.3L350.17,28.44L352.01,23.15L353.86,32.85L355.7,33.71L357.54,19.62L359.39,17.26L361.23,17.14L363.07,16L364.91,24.85L366.76,27.3L368.6,28.46L370.44,36.87L372.29,34.93L374.13,35.24L375.97,45.78L379.66,46.14L381.5,46.32L383.34,45.09L385.19,34.6L388.87,31.91L390.72,32.52L394.4,31.72L396.25,35.73L398.09,25.3L399.93,26.45L401.77,28.33L403.62,31.85L405.46,30.75L407.3,43.86L409.15,44.42L410.99,43.53L414.68,43.08L416.52,46.5L420.2,47.78L422.05,50.07L423.89,54.04L425.73,54.59L427.58,54.16L429.42,54.61L431.26,57.41L433.11,56.15L434.95,57.93L436.79,69.87L438.63,80.22L440.48,82.11L442.32,83.91L444.16,78.41L446.01,57.91L447.85,84.78L449.69,102.12L451.54,101.6L453.38,95.32L455.22,94.38L458.91,93.02L460.75,93.64L462.59,93.75L464.44,94.69L466.28,93.11L468.12,96.69L469.97,113.64L471.81,115.6L473.65,112.19L475.49,118.43L477.34,120.64L479.18,118.14L481.02,116.48L482.87,139.17L484.71,156.83L486.55,157.42L488.4,157.39L490.24,171.9L492.08,163.21L493.92,163.48L495.77,165.51L497.61,164.63L499.45,167.1L501.3,165.67L503.14,166.01L504.98,176.65L506.83,176.47L508.67,188.44L510.51,187.18L512.35,187.99L516.04,186.84L517.88,173.49L519.73,173.63L521.57,171.45L523.41,156.07L525.26,155.47L527.1,156.68L528.94,159.38L530.78,159.86L532.63,162.92L534.47,170.48L536.31,168.32L538.16,168.14L540,171.9" style="vector-effect: none; fill: none; stroke: rgb(99, 110, 250); stroke-opacity: 1; stroke-width: 2px; opacity: 1;"/></g><g class="points"/><g class="text"/></g></g></g><g class="overplot"/><path class="xlines-above crisp" d="M0,0" style="fill: none;"/><path class="ylines-above crisp" d="M0,0" style="fill: none;"/><g class="overlines-above"/><g class="xaxislayer-above"><g class="xtick"><text text-anchor="middle" x="0" y="433" transform="translate(140.82,0)" style="font-family: 'Open Sans', verdana, arial, sans-serif; font-size: 12px; fill: rgb(42, 63, 95); fill-opacity: 1; white-space: pre; opacity: 1;">Nov 2022</text></g><g class="xtick"><text text-anchor="middle" x="0" y="433" style="font-family: 'Open Sans', verdana, arial, sans-serif; font-size: 12px; fill: rgb(42, 63, 95); fill-opacity: 1; white-space: pre; opacity: 1;" transform="translate(253.24,0)">Jan 2023</text></g><g class="xtick"><text text-anchor="middle" x="0" y="433" style="font-family: 'Open Sans', verdana, arial, sans-serif; font-size: 12px; fill: rgb(42, 63, 95); fill-opacity: 1; white-space: pre; opacity: 1;" transform="translate(361.98,0)">Mar 2023</text></g><g class="xtick"><text text-anchor="middle" x="0" y="433" style="font-family: 'Open Sans', verdana, arial, sans-serif; font-size: 12px; fill: rgb(42, 63, 95); fill-opacity: 1; white-space: pre; opacity: 1;" transform="translate(474.4,0)">May 2023</text></g><g class="xtick"><text text-anchor="middle" x="0" y="433" style="font-family: 'Open Sans', verdana, arial, sans-serif; font-size: 12px; fill: rgb(42, 63, 95); fill-opacity: 1; white-space: pre; opacity: 1;" transform="translate(586.8299999999999,0)">Jul 2023</text></g></g><g class="yaxislayer-above"><g class="ytick"><text text-anchor="end" x="79" y="4.199999999999999" transform="translate(0,420)" style="font-family: 'Open Sans', verdana, arial, sans-serif; font-size: 12px; fill: rgb(42, 63, 95); fill-opacity: 1; white-space: pre; opacity: 1;">$0</text></g><g class="ytick"><text text-anchor="end" x="79" y="4.199999999999999" style="font-family: 'Open Sans', verdana, arial, sans-serif; font-size: 12px; fill: rgb(42, 63, 95); fill-opacity: 1; white-space: pre; opacity: 1;" transform="translate(0,382.97)">$5M</text></g><g class="ytick"><text text-anchor="end" x="79" y="4.199999999999999" style="font-family: 'Open Sans', verdana, arial, sans-serif; font-size: 12px; fill: rgb(42, 63, 95); fill-opacity: 1; white-space: pre; opacity: 1;" transform="translate(0,345.94)">$10M</text></g><g class="ytick"><text text-anchor="end" x="79" y="4.199999999999999" style="font-family: 'Open Sans', verdana, arial, sans-serif; font-size: 12px; fill: rgb(42, 63, 95); fill-opacity: 1; white-space: pre; opacity: 1;" transform="translate(0,308.9)">$15M</text></g><g class="ytick"><text text-anchor="end" x="79" y="4.199999999999999" style="font-family: 'Open Sans', verdana, arial, sans-serif; font-size: 12px; fill: rgb(42, 63, 95); fill-opacity: 1; white-space: pre; opacity: 1;" transform="translate(0,271.87)">$20M</text></g><g class="ytick"><text text-anchor="end" x="79" y="4.199999999999999" style="font-family: 'Open Sans', verdana, arial, sans-serif; font-size: 12px; fill: rgb(42, 63, 95); fill-opacity: 1; white-space: pre; opacity: 1;" transform="translate(0,234.84)">$25M</text></g><g class="ytick"><text text-anchor="end" x="79" y="4.199999999999999" style="font-family: 'Open Sans', verdana, arial, sans-serif; font-size: 12px; fill: rgb(42, 63, 95); fill-opacity: 1; white-space: pre; opacity: 1;" transform="translate(0,197.81)">$30M</text></g><g class="ytick"><text text-anchor="end" x="79" y="4.199999999999999" style="font-family: 'Open Sans', verdana, arial, sans-serif; font-size: 12px; fill: rgb(42, 63, 95); fill-opacity: 1; white-space: pre; opacity: 1;" transform="translate(0,160.78)">$35M</text></g><g class="ytick"><text text-anchor="end" x="79" y="4.199999999999999" style="font-family: 'Open Sans', verdana, arial, sans-serif; font-size: 12px; fill: rgb(42, 63, 95); fill-opacity: 1; white-space: pre; opacity: 1;" transform="translate(0,123.74)">$40M</text></g></g><g class="overaxes-above"/></g></g><g class="polarlayer"/><g class="smithlayer"/><g class="ternarylayer"/><g class="geolayer"/><g class="funnelarealayer"/><g class="pielayer"/><g class="iciclelayer"/><g class="treemaplayer"/><g class="sunburstlayer"/><g class="glimages"/><defs id="topdefs-25fd94"><g class="clips"/></defs><g class="layer-above"><g class="imagelayer"/><g class="shapelayer"/></g><g class="infolayer"><g class="g-gtitle"><text class="gtitle" x="35" y="50" text-anchor="start" dy="0em" style="font-family: 'Open Sans', verdana, arial, sans-serif; font-size: 17px; fill: rgb(42, 63, 95); opacity: 1; font-weight: normal; white-space: pre;"><tspan class="line" dy="0em" x="35" y="50">Beethoven X</tspan><tspan class="line" dy="1.3em" x="35" y="50">​<tspan style="font-size:70%" dy="-0.6em">Cumulative Net Flows since Program Announcement, Until Program End + 30 Days - At Last Price</tspan><tspan dy="0.42em">​</tspan></tspan></text></g><g class="g-xtitle"><text class="xtitle" x="350" y="460.3" text-anchor="middle" style="font-family: 'Open Sans', verdana, arial, sans-serif; font-size: 14px; fill: rgb(42, 63, 95); opacity: 1; font-weight: normal; white-space: pre;">Day</text></g><g class="g-ytitle"><text class="ytitle" transform="rotate(-90,24.668750000000003,260)" x="24.668750000000003" y="260" text-anchor="middle" style="font-family: 'Open Sans', verdana, arial, sans-serif; font-size: 14px; fill: rgb(42, 63, 95); opacity: 1; font-weight: normal; white-space: pre;">Cumulative Net Flows (USD)</text></g></g></svg>