<svg class="main-svg" xmlns="http://www.w3.org/2000/svg" xmlns:xlink="http://www.w3.org/1999/xlink" width="700" height="500" style="" viewBox="0 0 700 500"><rect x="0" y="0" width="700" height="500" style="fill: rgb(255, 255, 255); fill-opacity: 1;"/><defs id="defs-55090a"><g class="clips"><clipPath id="clip55090axyplot" class="plotclip"><rect width="540" height="320"/></clipPath><clipPath class="axesclip" id="clip55090ax"><rect x="80" y="0" width="540" height="500"/></clipPath><clipPath class="axesclip" id="clip55090ay"><rect x="0" y="100" width="700" height="320"/></clipPath><clipPath class="axesclip" id="clip55090axy"><rect x="80" y="100" width="540" height="320"/></clipPath></g><g class="gradients"/><g class="patterns"/></defs><g class="bglayer"><rect class="bg" x="80" y="100" width="540" height="320" style="fill: rgb(229, 236, 246); fill-opacity: 1; stroke-width: 0;"/></g><g class="layer-below"><g class="imagelayer"/><g class="shapelayer"/></g><g class="cartesianlayer"><g class="subplot xy"><g class="layer-subplot"><g class="shapelayer"/><g class="imagelayer"/></g><g class="minor-gridlayer"><g class="x"/><g class="y"/></g><g class="gridlayer"><g class="x"><path class="xgrid crisp" transform="translate(129.09,0)" d="M0,100v320" style="stroke: rgb(255, 255, 255); stroke-opacity: 1; stroke-width: 1px;"/><path class="xgrid crisp" transform="translate(214.65,0)" d="M0,100v320" style="stroke: rgb(255, 255, 255); stroke-opacity: 1; stroke-width: 1px;"/><path class="xgrid crisp" transform="translate(297.4,0)" d="M0,100v320" style="stroke: rgb(255, 255, 255); stroke-opacity: 1; stroke-width: 1px;"/><path class="xgrid crisp" transform="translate(382.96,0)" d="M0,100v320" style="stroke: rgb(255, 255, 255); stroke-opacity: 1; stroke-width: 1px;"/><path class="xgrid crisp" transform="translate(468.52,0)" d="M0,100v320" style="stroke: rgb(255, 255, 255); stroke-opacity: 1; stroke-width: 1px;"/><path class="xgrid crisp" transform="translate(555.48,0)" d="M0,100v320" style="stroke: rgb(255, 255, 255); stroke-opacity: 1; stroke-width: 1px;"/></g><g class="y"><path class="ygrid crisp" transform="translate(0,388.22)" d="M80,0h540" style="stroke: rgb(255, 255, 255); stroke-opacity: 1; stroke-width: 1px;"/><path class="ygrid crisp" transform="translate(0,352.41999999999996)" d="M80,0h540" style="stroke: rgb(255, 255, 255); stroke-opacity: 1; stroke-width: 1px;"/><path class="ygrid crisp" transform="translate(0,280.82)" d="M80,0h540" style="stroke: rgb(255, 255, 255); stroke-opacity: 1; stroke-width: 1px;"/><path class="ygrid crisp" transform="translate(0,245.01)" d="M80,0h540" style="stroke: rgb(255, 255, 255); stroke-opacity: 1; stroke-width: 1px;"/><path class="ygrid crisp" transform="translate(0,209.20999999999998)" d="M80,0h540" style="stroke: rgb(255, 255, 255); stroke-opacity: 1; stroke-width: 1px;"/><path class="ygrid crisp" transform="translate(0,173.41)" d="M80,0h540" style="stroke: rgb(255, 255, 255); stroke-opacity: 1; stroke-width: 1px;"/><path class="ygrid crisp" transform="translate(0,137.61)" d="M80,0h540" style="stroke: rgb(255, 255, 255); stroke-opacity: 1; stroke-width: 1px;"/><path class="ygrid crisp" transform="translate(0,101.81)" d="M80,0h540" style="stroke: rgb(255, 255, 255); stroke-opacity: 1; stroke-width: 1px;"/></g></g><g class="zerolinelayer"><path class="yzl zl crisp" transform="translate(0,316.62)" d="M80,0h540" style="stroke: rgb(255, 255, 255); stroke-opacity: 1; stroke-width: 2px;"/></g><path class="xlines-below"/><path class="ylines-below"/><g class="overlines-below"/><g class="xaxislayer-below"/><g class="yaxislayer-below"/><g class="overaxes-below"/><g class="plot" transform="translate(80,100)" clip-path="url(#clip55090axyplot)"><g class="scatterlayer mlayer"><g class="trace scatter tracedbabbc" style="stroke-miterlimit: 2;"><g class="fills"><g><path class="js-fill" d="M540,216.62L0,216.62L0,216.66L28.05,216.56L29.45,209.51L32.26,209.38L33.66,211.89L35.06,212.01L36.47,210.64L39.27,211.7L40.68,216.13L43.48,209.38L44.88,208.38L47.69,208.48L49.09,207.7L51.9,208.15L53.3,207.93L57.51,207.3L58.91,218.51L60.31,219.72L61.71,230.18L63.12,228.88L64.52,229.56L65.92,229.57L67.32,230.5L68.73,221.77L70.13,220.47L71.53,224.36L72.94,223.16L74.34,222.25L75.74,222.76L77.14,223.74L78.55,223.69L79.95,224.9L81.35,224.56L82.75,223.64L84.16,219.02L85.56,218.63L86.96,223.36L88.36,223.81L89.77,223.12L91.17,216.71L92.57,214.52L95.38,214.99L96.78,213.23L98.18,212.46L99.58,208.58L100.99,208.28L102.39,206.14L103.79,212.4L105.19,190.62L106.6,201.68L108,201.86L109.4,206.19L110.81,219.83L112.21,219.99L113.61,225.66L115.01,226.47L116.42,226.1L117.82,220.93L119.22,221.03L120.62,222.58L122.03,222.84L127.64,223.05L129.04,223.97L137.45,223.59L138.86,223.48L140.26,223.35L141.66,225.18L143.06,222.85L144.47,222.68L145.87,219.59L147.27,218.84L148.68,218.7L150.08,217.38L152.88,215.55L154.29,215.82L155.69,215.69L157.09,213.15L158.49,212.72L159.9,206.67L162.7,199.31L164.1,202.8L166.91,186.1L168.31,183.39L171.12,164.5L172.52,160.71L173.92,160.74L175.32,158.09L176.73,149.18L178.13,146.81L180.94,139.86L182.34,138.82L183.74,134.77L185.14,111.56L186.55,109.93L187.95,95.98L189.35,98.41L190.75,98.51L193.56,86.68L194.96,85.93L196.36,85.97L197.77,82.68L199.17,83.98L200.57,78.83L201.97,77.34L203.38,67.41L206.18,58.39L207.58,65.69L208.99,61.63L210.39,49.23L211.79,49.82L213.19,48.92L214.6,43.76L216,35.48L218.81,17.56L220.21,17.29L221.61,16L223.01,16.97L224.42,16.09L225.82,19.26L227.22,20.76L228.62,26.07L230.03,93.54L231.43,228.37L232.83,227.6L234.23,206.16L235.64,160.9L237.04,154.46L238.44,144.58L239.84,121.1L242.65,68.53L244.05,65.45L245.45,68.05L246.86,67.71L249.66,77.05L251.06,80.17L252.47,80.53L253.87,86.82L255.27,86.81L256.68,90.22L258.08,90.76L259.48,84.47L262.29,84.41L263.69,88.57L265.09,94.42L266.49,92.8L269.3,85.78L270.7,86.45L272.1,100.1L273.51,104.08L274.91,105.2L276.31,104.62L277.71,104.16L279.12,90.22L280.52,92.14L281.92,92.18L287.53,92.18L288.94,95.44L290.34,89.12L291.74,89.3L293.14,79.67L294.55,75.25L295.95,71.7L297.35,74.4L300.16,72.84L301.56,72.52L302.96,72.71L304.36,74.19L305.77,75.81L307.17,79.66L308.57,81.35L309.97,86.07L311.38,86.06L312.78,90.81L315.58,96.16L316.99,103.35L318.39,104.02L319.79,103.73L321.19,103.78L322.6,105.28L324,99.27L325.4,99.44L326.81,101.4L328.21,99.12L329.61,103.3L331.01,103.45L333.82,103.31L335.22,103.67L338.03,104.34L339.43,109.74L340.83,109.2L342.23,109.76L343.64,109.72L345.04,110.45L346.44,112.53L347.84,112.93L349.25,115.85L350.65,115.9L352.05,116.63L353.45,121.34L356.26,102.41L357.66,102.57L359.06,116.87L360.47,117.85L363.27,117.84L364.68,118.66L366.08,133.88L367.48,137.66L368.88,134.93L370.29,135L373.09,147.31L374.49,154.7L377.3,155.15L378.7,155.91L380.1,156.35L381.51,161.23L382.91,164.21L384.31,177.62L387.12,199.23L388.52,205.6L389.92,206.51L391.32,211.99L392.73,228.95L394.13,229.09L398.34,229.97L399.74,230L401.14,230.46L402.55,232.1L403.95,286.2L405.35,286.29L406.75,297.91L408.16,297.91L410.96,299.03L412.36,299.08L413.77,301.14L415.17,301.39L429.19,302.23L430.6,302.38L447.43,302.47L448.83,303.29L540,304" style="fill: rgb(99, 110, 250); fill-opacity: 0.5; stroke-width: 0;"/></g></g><g class="errorbars"/><g class="lines"><path class="js-line" d="M0,216.66L28.05,216.56L29.45,209.51L32.26,209.38L33.66,211.89L35.06,212.01L36.47,210.64L39.27,211.7L40.68,216.13L43.48,209.38L44.88,208.38L47.69,208.48L49.09,207.7L51.9,208.15L53.3,207.93L57.51,207.3L58.91,218.51L60.31,219.72L61.71,230.18L63.12,228.88L64.52,229.56L65.92,229.57L67.32,230.5L68.73,221.77L70.13,220.47L71.53,224.36L72.94,223.16L74.34,222.25L75.74,222.76L77.14,223.74L78.55,223.69L79.95,224.9L81.35,224.56L82.75,223.64L84.16,219.02L85.56,218.63L86.96,223.36L88.36,223.81L89.77,223.12L91.17,216.71L92.57,214.52L95.38,214.99L96.78,213.23L98.18,212.46L99.58,208.58L100.99,208.28L102.39,206.14L103.79,212.4L105.19,190.62L106.6,201.68L108,201.86L109.4,206.19L110.81,219.83L112.21,219.99L113.61,225.66L115.01,226.47L116.42,226.1L117.82,220.93L119.22,221.03L120.62,222.58L122.03,222.84L127.64,223.05L129.04,223.97L137.45,223.59L138.86,223.48L140.26,223.35L141.66,225.18L143.06,222.85L144.47,222.68L145.87,219.59L147.27,218.84L148.68,218.7L150.08,217.38L152.88,215.55L154.29,215.82L155.69,215.69L157.09,213.15L158.49,212.72L159.9,206.67L162.7,199.31L164.1,202.8L166.91,186.1L168.31,183.39L171.12,164.5L172.52,160.71L173.92,160.74L175.32,158.09L176.73,149.18L178.13,146.81L180.94,139.86L182.34,138.82L183.74,134.77L185.14,111.56L186.55,109.93L187.95,95.98L189.35,98.41L190.75,98.51L193.56,86.68L194.96,85.93L196.36,85.97L197.77,82.68L199.17,83.98L200.57,78.83L201.97,77.34L203.38,67.41L206.18,58.39L207.58,65.69L208.99,61.63L210.39,49.23L211.79,49.82L213.19,48.92L214.6,43.76L216,35.48L218.81,17.56L220.21,17.29L221.61,16L223.01,16.97L224.42,16.09L225.82,19.26L227.22,20.76L228.62,26.07L230.03,93.54L231.43,228.37L232.83,227.6L234.23,206.16L235.64,160.9L237.04,154.46L238.44,144.58L239.84,121.1L242.65,68.53L244.05,65.45L245.45,68.05L246.86,67.71L249.66,77.05L251.06,80.17L252.47,80.53L253.87,86.82L255.27,86.81L256.68,90.22L258.08,90.76L259.48,84.47L262.29,84.41L263.69,88.57L265.09,94.42L266.49,92.8L269.3,85.78L270.7,86.45L272.1,100.1L273.51,104.08L274.91,105.2L276.31,104.62L277.71,104.16L279.12,90.22L280.52,92.14L281.92,92.18L287.53,92.18L288.94,95.44L290.34,89.12L291.74,89.3L293.14,79.67L294.55,75.25L295.95,71.7L297.35,74.4L300.16,72.84L301.56,72.52L302.96,72.71L304.36,74.19L305.77,75.81L307.17,79.66L308.57,81.35L309.97,86.07L311.38,86.06L312.78,90.81L315.58,96.16L316.99,103.35L318.39,104.02L319.79,103.73L321.19,103.78L322.6,105.28L324,99.27L325.4,99.44L326.81,101.4L328.21,99.12L329.61,103.3L331.01,103.45L333.82,103.31L335.22,103.67L338.03,104.34L339.43,109.74L340.83,109.2L342.23,109.76L343.64,109.72L345.04,110.45L346.44,112.53L347.84,112.93L349.25,115.85L350.65,115.9L352.05,116.63L353.45,121.34L356.26,102.41L357.66,102.57L359.06,116.87L360.47,117.85L363.27,117.84L364.68,118.66L366.08,133.88L367.48,137.66L368.88,134.93L370.29,135L373.09,147.31L374.49,154.7L377.3,155.15L378.7,155.91L380.1,156.35L381.51,161.23L382.91,164.21L384.31,177.62L387.12,199.23L388.52,205.6L389.92,206.51L391.32,211.99L392.73,228.95L394.13,229.09L398.34,229.97L399.74,230L401.14,230.46L402.55,232.1L403.95,286.2L405.35,286.29L406.75,297.91L408.16,297.91L410.96,299.03L412.36,299.08L413.77,301.14L415.17,301.39L429.19,302.23L430.6,302.38L447.43,302.47L448.83,303.29L540,304" style="vector-effect: none; fill: none; stroke: rgb(99, 110, 250); stroke-opacity: 1; stroke-width: 2px; opacity: 1;"/></g><g class="points"/><g class="text"/></g></g></g><g class="overplot"/><path class="xlines-above crisp" d="M0,0" style="fill: none;"/><path class="ylines-above crisp" d="M0,0" style="fill: none;"/><g class="overlines-above"/><g class="xaxislayer-above"><g class="xtick"><text text-anchor="middle" x="0" y="433" transform="translate(129.09,0)" style="font-family: 'Open Sans', verdana, arial, sans-serif; font-size: 12px; fill: rgb(42, 63, 95); fill-opacity: 1; white-space: pre; opacity: 1;">Nov 2022</text></g><g class="xtick"><text text-anchor="middle" x="0" y="433" style="font-family: 'Open Sans', verdana, arial, sans-serif; font-size: 12px; fill: rgb(42, 63, 95); fill-opacity: 1; white-space: pre; opacity: 1;" transform="translate(214.65,0)">Jan 2023</text></g><g class="xtick"><text text-anchor="middle" x="0" y="433" style="font-family: 'Open Sans', verdana, arial, sans-serif; font-size: 12px; fill: rgb(42, 63, 95); fill-opacity: 1; white-space: pre; opacity: 1;" transform="translate(297.4,0)">Mar 2023</text></g><g class="xtick"><text text-anchor="middle" x="0" y="433" style="font-family: 'Open Sans', verdana, arial, sans-serif; font-size: 12px; fill: rgb(42, 63, 95); fill-opacity: 1; white-space: pre; opacity: 1;" transform="translate(382.96,0)">May 2023</text></g><g class="xtick"><text text-anchor="middle" x="0" y="433" style="font-family: 'Open Sans', verdana, arial, sans-serif; font-size: 12px; fill: rgb(42, 63, 95); fill-opacity: 1; white-space: pre; opacity: 1;" transform="translate(468.52,0)">Jul 2023</text></g><g class="xtick"><text text-anchor="middle" x="0" y="433" style="font-family: 'Open Sans', verdana, arial, sans-serif; font-size: 12px; fill: rgb(42, 63, 95); fill-opacity: 1; white-space: pre; opacity: 1;" transform="translate(555.48,0)">Sep 2023</text></g></g><g class="yaxislayer-above"><g class="ytick"><text text-anchor="end" x="79" y="4.199999999999999" transform="translate(0,388.22)" style="font-family: 'Open Sans', verdana, arial, sans-serif; font-size: 12px; fill: rgb(42, 63, 95); fill-opacity: 1; white-space: pre; opacity: 1;">$−10M</text></g><g class="ytick"><text text-anchor="end" x="79" y="4.199999999999999" style="font-family: 'Open Sans', verdana, arial, sans-serif; font-size: 12px; fill: rgb(42, 63, 95); fill-opacity: 1; white-space: pre; opacity: 1;" transform="translate(0,352.41999999999996)">$−5M</text></g><g class="ytick"><text text-anchor="end" x="79" y="4.199999999999999" style="font-family: 'Open Sans', verdana, arial, sans-serif; font-size: 12px; fill: rgb(42, 63, 95); fill-opacity: 1; white-space: pre; opacity: 1;" transform="translate(0,316.62)">$0</text></g><g class="ytick"><text text-anchor="end" x="79" y="4.199999999999999" style="font-family: 'Open Sans', verdana, arial, sans-serif; font-size: 12px; fill: rgb(42, 63, 95); fill-opacity: 1; white-space: pre; opacity: 1;" transform="translate(0,280.82)">$5M</text></g><g class="ytick"><text text-anchor="end" x="79" y="4.199999999999999" style="font-family: 'Open Sans', verdana, arial, sans-serif; font-size: 12px; fill: rgb(42, 63, 95); fill-opacity: 1; white-space: pre; opacity: 1;" transform="translate(0,245.01)">$10M</text></g><g class="ytick"><text text-anchor="end" x="79" y="4.199999999999999" style="font-family: 'Open Sans', verdana, arial, sans-serif; font-size: 12px; fill: rgb(42, 63, 95); fill-opacity: 1; white-space: pre; opacity: 1;" transform="translate(0,209.20999999999998)">$15M</text></g><g class="ytick"><text text-anchor="end" x="79" y="4.199999999999999" style="font-family: 'Open Sans', verdana, arial, sans-serif; font-size: 12px; fill: rgb(42, 63, 95); fill-opacity: 1; white-space: pre; opacity: 1;" transform="translate(0,173.41)">$20M</text></g><g class="ytick"><text text-anchor="end" x="79" y="4.199999999999999" style="font-family: 'Open Sans', verdana, arial, sans-serif; font-size: 12px; fill: rgb(42, 63, 95); fill-opacity: 1; white-space: pre; opacity: 1;" transform="translate(0,137.61)">$25M</text></g><g class="ytick"><text text-anchor="end" x="79" y="4.199999999999999" style="font-family: 'Open Sans', verdana, arial, sans-serif; font-size: 12px; fill: rgb(42, 63, 95); fill-opacity: 1; white-space: pre; opacity: 1;" transform="translate(0,101.81)">$30M</text></g></g><g class="overaxes-above"/></g></g><g class="polarlayer"/><g class="smithlayer"/><g class="ternarylayer"/><g class="geolayer"/><g class="funnelarealayer"/><g class="pielayer"/><g class="iciclelayer"/><g class="treemaplayer"/><g class="sunburstlayer"/><g class="glimages"/><defs id="topdefs-55090a"><g class="clips"/></defs><g class="layer-above"><g class="imagelayer"/><g class="shapelayer"/></g><g class="infolayer"><g class="g-gtitle"><text class="gtitle" x="35" y="50" text-anchor="start" dy="0em" style="font-family: 'Open Sans', verdana, arial, sans-serif; font-size: 17px; fill: rgb(42, 63, 95); opacity: 1; font-weight: normal; white-space: pre;"><tspan class="line" dy="0em" x="35" y="50">Synthetix - USDC/sUSD: Velodrome</tspan><tspan class="line" dy="1.3em" x="35" y="50">​<tspan style="font-size:70%" dy="-0.6em">Cumulative Net Flows since Program Announcement, Until Program End + 30 Days - At Last Price</tspan><tspan dy="0.42em">​</tspan></tspan></text></g><g class="g-xtitle"><text class="xtitle" x="350" y="460.3" text-anchor="middle" style="font-family: 'Open Sans', verdana, arial, sans-serif; font-size: 14px; fill: rgb(42, 63, 95); opacity: 1; font-weight: normal; white-space: pre;">Day</text></g><g class="g-ytitle"><text class="ytitle" transform="rotate(-90,17.668750000000003,260)" x="17.668750000000003" y="260" text-anchor="middle" style="font-family: 'Open Sans', verdana, arial, sans-serif; font-size: 14px; fill: rgb(42, 63, 95); opacity: 1; font-weight: normal; white-space: pre;">Cumulative Net Flows (USD)</text></g></g></svg>