<svg class="main-svg" xmlns="http://www.w3.org/2000/svg" xmlns:xlink="http://www.w3.org/1999/xlink" width="700" height="500" style="" viewBox="0 0 700 500"><rect x="0" y="0" width="700" height="500" style="fill: rgb(255, 255, 255); fill-opacity: 1;"/><defs id="defs-a2f37a"><g class="clips"><clipPath id="clipa2f37axyplot" class="plotclip"><rect width="540" height="320"/></clipPath><clipPath class="axesclip" id="clipa2f37ax"><rect x="80" y="0" width="540" height="500"/></clipPath><clipPath class="axesclip" id="clipa2f37ay"><rect x="0" y="100" width="700" height="320"/></clipPath><clipPath class="axesclip" id="clipa2f37axy"><rect x="80" y="100" width="540" height="320"/></clipPath></g><g class="gradients"/><g class="patterns"/></defs><g class="bglayer"><rect class="bg" x="80" y="100" width="540" height="320" style="fill: rgb(229, 236, 246); fill-opacity: 1; stroke-width: 0;"/></g><g class="layer-below"><g class="imagelayer"/><g class="shapelayer"/></g><g class="cartesianlayer"><g class="subplot xy"><g class="layer-subplot"><g class="shapelayer"/><g class="imagelayer"/></g><g class="minor-gridlayer"><g class="x"/><g class="y"/></g><g class="gridlayer"><g class="x"><path class="xgrid crisp" transform="translate(152,0)" d="M0,100v320" style="stroke: rgb(255, 255, 255); stroke-opacity: 1; stroke-width: 1px;"/><path class="xgrid crisp" transform="translate(243.5,0)" d="M0,100v320" style="stroke: rgb(255, 255, 255); stroke-opacity: 1; stroke-width: 1px;"/><path class="xgrid crisp" transform="translate(332,0)" d="M0,100v320" style="stroke: rgb(255, 255, 255); stroke-opacity: 1; stroke-width: 1px;"/><path class="xgrid crisp" transform="translate(423.5,0)" d="M0,100v320" style="stroke: rgb(255, 255, 255); stroke-opacity: 1; stroke-width: 1px;"/><path class="xgrid crisp" transform="translate(515,0)" d="M0,100v320" style="stroke: rgb(255, 255, 255); stroke-opacity: 1; stroke-width: 1px;"/><path class="xgrid crisp" transform="translate(608,0)" d="M0,100v320" style="stroke: rgb(255, 255, 255); stroke-opacity: 1; stroke-width: 1px;"/></g><g class="y"><path class="ygrid crisp" transform="translate(0,322.85)" d="M80,0h540" style="stroke: rgb(255, 255, 255); stroke-opacity: 1; stroke-width: 1px;"/><path class="ygrid crisp" transform="translate(0,252)" d="M80,0h540" style="stroke: rgb(255, 255, 255); stroke-opacity: 1; stroke-width: 1px;"/><path class="ygrid crisp" transform="translate(0,181.15)" d="M80,0h540" style="stroke: rgb(255, 255, 255); stroke-opacity: 1; stroke-width: 1px;"/><path class="ygrid crisp" transform="translate(0,110.3)" d="M80,0h540" style="stroke: rgb(255, 255, 255); stroke-opacity: 1; stroke-width: 1px;"/></g></g><g class="zerolinelayer"><path class="yzl zl crisp" transform="translate(0,393.7)" d="M80,0h540" style="stroke: rgb(255, 255, 255); stroke-opacity: 1; stroke-width: 2px;"/></g><path class="xlines-below"/><path class="ylines-below"/><g class="overlines-below"/><g class="xaxislayer-below"/><g class="yaxislayer-below"/><g class="overaxes-below"/><g class="plot" transform="translate(80,100)" clip-path="url(#clipa2f37axyplot)"><g class="scatterlayer mlayer"><g class="trace scatter tracedf11fb" style="stroke-miterlimit: 2;"><g class="fills"><g><path class="js-fill" d="M540,293.7L0,293.7L0,296.11L1.5,295.51L3,297.11L4.5,301.05L6,300.59L7.5,302.11L9,301.38L12,304L13.5,302.43L16.5,301.77L18,302.27L19.5,300.92L21,300.6L22.5,299.74L24,299.75L28.5,297.3L30,296.93L33,295.72L34.5,292.27L42,292.03L43.5,291.53L48,290.14L49.5,288.98L51,287.9L52.5,288.45L54,287.56L55.5,283.45L58.5,279.49L60,279.96L61.5,279.46L63,267.32L67.5,272.07L69,271.63L70.5,272.25L72,270.73L73.5,270.4L75,271.26L76.5,267.03L78,267.47L79.5,263.59L81,262.92L82.5,262.62L84,266.54L85.5,274.47L87,273.81L88.5,277.38L90,277.63L91.5,285.73L93,285.1L94.5,283.51L96,284.62L97.5,283.21L99,283.34L100.5,281.3L102,283.01L103.5,283.38L105,282.9L108,280.31L109.5,279.09L111,277.79L112.5,278.55L114,278.46L115.5,276.45L117,276.19L118.5,274.85L123,273.3L124.5,273.61L126,272.07L127.5,272.33L129,268.78L130.5,268.6L132,267.36L133.5,267.24L135,269.22L136.5,266.71L138,265.84L139.5,266.38L141,266.19L142.5,266.87L144,266.28L145.5,267.2L147,266.22L148.5,264.22L150,264.04L151.5,264.84L159,264.3L160.5,265.19L162,267.02L163.5,267.1L165,267.39L166.5,265.23L168,263.17L169.5,258.18L171,257.11L172.5,258.89L175.5,250.79L177,245.57L178.5,241.41L180,240.09L181.5,242.66L183,243.35L186,246.46L187.5,251.44L190.5,257.52L192,257.67L193.5,267.14L195,270.75L196.5,273.5L198,274.26L199.5,275.67L201,275.34L205.5,277.93L207,277.66L210,278.55L211.5,277.19L216,279.13L217.5,279.53L222,278.54L223.5,280.45L225,282.05L226.5,282.08L229.5,282.85L231,282.32L232.5,281L234,281.81L240,282.88L241.5,283.13L247.5,285.77L249,285.17L255,285.3L256.5,286.81L259.5,288.24L261,288.63L264,289.13L265.5,290.17L268.5,293.48L270,291.52L273,291.12L274.5,291.45L276,291.29L277.5,294.45L280.5,296.18L282,296.39L283.5,295.96L285,296.42L286.5,295.52L288,296.24L294,295.81L295.5,294.48L297,293.58L298.5,124.16L303,123.88L304.5,122.22L306,123.04L307.5,122.82L310.5,124.24L312,123.07L316.5,123.2L318,121.28L319.5,123.08L321,122.99L322.5,122.9L324,121.78L325.5,132.99L327,132.01L328.5,130.67L330,136.13L331.5,133.34L333,133.94L334.5,133.97L336,132.39L337.5,127.88L339,130.37L340.5,130.37L342,129.11L343.5,128.48L345,131.67L346.5,131.15L348,67.05L349.5,66.93L351,130.76L352.5,123.73L354,126L355.5,125.78L357,124.52L358.5,120.56L360,124.88L361.5,124.59L363,120.93L364.5,119.56L366,116.82L367.5,119.18L369,115.99L372,122.3L373.5,121.01L375,123.38L376.5,123.87L378,123.33L379.5,124.86L381,129.66L382.5,128.34L384,129.04L385.5,128.47L387,130.04L388.5,130.51L391.5,138.76L393,135.62L394.5,135.63L396,137.32L397.5,142.09L399,138.37L402,138.53L403.5,141.3L405,142.56L406.5,144.81L408,145.36L409.5,144.15L412.5,148.89L414,148.48L415.5,146.07L417,148.56L418.5,150.62L420,143.65L421.5,141.34L423,146.55L424.5,148.16L426,147.64L429,146.06L430.5,143.7L432,148.45L433.5,147.25L435,142.43L436.5,141.84L438,141.96L439.5,139.79L441,139.21L442.5,126.81L445.5,117.91L447,116.73L448.5,120.39L450,115.99L453,113.39L454.5,103.37L456,93.61L457.5,96.61L459,105.28L460.5,94.67L462,94.04L463.5,102.96L465,97.95L466.5,97.15L468,99.37L469.5,99.6L471,94.98L472.5,94.21L474,103.92L475.5,91.21L478.5,75.64L480,70.49L481.5,65.54L483,57.58L484.5,54.2L486,57.8L487.5,90.59L489,93.91L490.5,81.93L492,80.5L495,64.66L496.5,63.44L498,71.08L499.5,67.35L501,60.55L502.5,66.1L505.5,54.54L507,77.96L508.5,87.75L510,90.28L511.5,87.93L513,77.8L516,87.36L517.5,29.42L519,21.76L520.5,22.06L522,16L523.5,30.83L525,34.81L526.5,42.16L528,24.77L529.5,34.16L531,30.42L532.5,31.36L534,22.79L535.5,47.79L537,51.8L538.5,62.46L540,69.32" style="fill: rgb(99, 110, 250); fill-opacity: 0.5; stroke-width: 0;"/></g></g><g class="errorbars"/><g class="lines"><path class="js-line" d="M0,296.11L1.5,295.51L3,297.11L4.5,301.05L6,300.59L7.5,302.11L9,301.38L12,304L13.5,302.43L16.5,301.77L18,302.27L19.5,300.92L21,300.6L22.5,299.74L24,299.75L28.5,297.3L30,296.93L33,295.72L34.5,292.27L42,292.03L43.5,291.53L48,290.14L49.5,288.98L51,287.9L52.5,288.45L54,287.56L55.5,283.45L58.5,279.49L60,279.96L61.5,279.46L63,267.32L67.5,272.07L69,271.63L70.5,272.25L72,270.73L73.5,270.4L75,271.26L76.5,267.03L78,267.47L79.5,263.59L81,262.92L82.5,262.62L84,266.54L85.5,274.47L87,273.81L88.5,277.38L90,277.63L91.5,285.73L93,285.1L94.5,283.51L96,284.62L97.5,283.21L99,283.34L100.5,281.3L102,283.01L103.5,283.38L105,282.9L108,280.31L109.5,279.09L111,277.79L112.5,278.55L114,278.46L115.5,276.45L117,276.19L118.5,274.85L123,273.3L124.5,273.61L126,272.07L127.5,272.33L129,268.78L130.5,268.6L132,267.36L133.5,267.24L135,269.22L136.5,266.71L138,265.84L139.5,266.38L141,266.19L142.5,266.87L144,266.28L145.5,267.2L147,266.22L148.5,264.22L150,264.04L151.5,264.84L159,264.3L160.5,265.19L162,267.02L163.5,267.1L165,267.39L166.5,265.23L168,263.17L169.5,258.18L171,257.11L172.5,258.89L175.5,250.79L177,245.57L178.5,241.41L180,240.09L181.5,242.66L183,243.35L186,246.46L187.5,251.44L190.5,257.52L192,257.67L193.5,267.14L195,270.75L196.5,273.5L198,274.26L199.5,275.67L201,275.34L205.5,277.93L207,277.66L210,278.55L211.5,277.19L216,279.13L217.5,279.53L222,278.54L223.5,280.45L225,282.05L226.5,282.08L229.5,282.85L231,282.32L232.5,281L234,281.81L240,282.88L241.5,283.13L247.5,285.77L249,285.17L255,285.3L256.5,286.81L259.5,288.24L261,288.63L264,289.13L265.5,290.17L268.5,293.48L270,291.52L273,291.12L274.5,291.45L276,291.29L277.5,294.45L280.5,296.18L282,296.39L283.5,295.96L285,296.42L286.5,295.52L288,296.24L294,295.81L295.5,294.48L297,293.58L298.5,124.16L303,123.88L304.5,122.22L306,123.04L307.5,122.82L310.5,124.24L312,123.07L316.5,123.2L318,121.28L319.5,123.08L321,122.99L322.5,122.9L324,121.78L325.5,132.99L327,132.01L328.5,130.67L330,136.13L331.5,133.34L333,133.94L334.5,133.97L336,132.39L337.5,127.88L339,130.37L340.5,130.37L342,129.11L343.5,128.48L345,131.67L346.5,131.15L348,67.05L349.5,66.93L351,130.76L352.5,123.73L354,126L355.5,125.78L357,124.52L358.5,120.56L360,124.88L361.5,124.59L363,120.93L364.5,119.56L366,116.82L367.5,119.18L369,115.99L372,122.3L373.5,121.01L375,123.38L376.5,123.87L378,123.33L379.5,124.86L381,129.66L382.5,128.34L384,129.04L385.5,128.47L387,130.04L388.5,130.51L391.5,138.76L393,135.62L394.5,135.63L396,137.32L397.5,142.09L399,138.37L402,138.53L403.5,141.3L405,142.56L406.5,144.81L408,145.36L409.5,144.15L412.5,148.89L414,148.48L415.5,146.07L417,148.56L418.5,150.62L420,143.65L421.5,141.34L423,146.55L424.5,148.16L426,147.64L429,146.06L430.5,143.7L432,148.45L433.5,147.25L435,142.43L436.5,141.84L438,141.96L439.5,139.79L441,139.21L442.5,126.81L445.5,117.91L447,116.73L448.5,120.39L450,115.99L453,113.39L454.5,103.37L456,93.61L457.5,96.61L459,105.28L460.5,94.67L462,94.04L463.5,102.96L465,97.95L466.5,97.15L468,99.37L469.5,99.6L471,94.98L472.5,94.21L474,103.92L475.5,91.21L478.5,75.64L480,70.49L481.5,65.54L483,57.58L484.5,54.2L486,57.8L487.5,90.59L489,93.91L490.5,81.93L492,80.5L495,64.66L496.5,63.44L498,71.08L499.5,67.35L501,60.55L502.5,66.1L505.5,54.54L507,77.96L508.5,87.75L510,90.28L511.5,87.93L513,77.8L516,87.36L517.5,29.42L519,21.76L520.5,22.06L522,16L523.5,30.83L525,34.81L526.5,42.16L528,24.77L529.5,34.16L531,30.42L532.5,31.36L534,22.79L535.5,47.79L537,51.8L538.5,62.46L540,69.32" style="vector-effect: none; fill: none; stroke: rgb(99, 110, 250); stroke-opacity: 1; stroke-width: 2px; opacity: 1;"/></g><g class="points"/><g class="text"/></g></g></g><g class="overplot"/><path class="xlines-above crisp" d="M0,0" style="fill: none;"/><path class="ylines-above crisp" d="M0,0" style="fill: none;"/><g class="overlines-above"/><g class="xaxislayer-above"><g class="xtick"><text text-anchor="middle" x="0" y="433" transform="translate(152,0)" style="font-family: 'Open Sans', verdana, arial, sans-serif; font-size: 12px; fill: rgb(42, 63, 95); fill-opacity: 1; white-space: pre; opacity: 1;">Nov 2022</text></g><g class="xtick"><text text-anchor="middle" x="0" y="433" style="font-family: 'Open Sans', verdana, arial, sans-serif; font-size: 12px; fill: rgb(42, 63, 95); fill-opacity: 1; white-space: pre; opacity: 1;" transform="translate(243.5,0)">Jan 2023</text></g><g class="xtick"><text text-anchor="middle" x="0" y="433" style="font-family: 'Open Sans', verdana, arial, sans-serif; font-size: 12px; fill: rgb(42, 63, 95); fill-opacity: 1; white-space: pre; opacity: 1;" transform="translate(332,0)">Mar 2023</text></g><g class="xtick"><text text-anchor="middle" x="0" y="433" style="font-family: 'Open Sans', verdana, arial, sans-serif; font-size: 12px; fill: rgb(42, 63, 95); fill-opacity: 1; white-space: pre; opacity: 1;" transform="translate(423.5,0)">May 2023</text></g><g class="xtick"><text text-anchor="middle" x="0" y="433" style="font-family: 'Open Sans', verdana, arial, sans-serif; font-size: 12px; fill: rgb(42, 63, 95); fill-opacity: 1; white-space: pre; opacity: 1;" transform="translate(515,0)">Jul 2023</text></g><g class="xtick"><text text-anchor="middle" x="0" y="433" style="font-family: 'Open Sans', verdana, arial, sans-serif; font-size: 12px; fill: rgb(42, 63, 95); fill-opacity: 1; white-space: pre; opacity: 1;" transform="translate(608,0)">Sep 2023</text></g></g><g class="yaxislayer-above"><g class="ytick"><text text-anchor="end" x="79" y="4.199999999999999" transform="translate(0,393.7)" style="font-family: 'Open Sans', verdana, arial, sans-serif; font-size: 12px; fill: rgb(42, 63, 95); fill-opacity: 1; white-space: pre; opacity: 1;">$0</text></g><g class="ytick"><text text-anchor="end" x="79" y="4.199999999999999" style="font-family: 'Open Sans', verdana, arial, sans-serif; font-size: 12px; fill: rgb(42, 63, 95); fill-opacity: 1; white-space: pre; opacity: 1;" transform="translate(0,322.85)">$1M</text></g><g class="ytick"><text text-anchor="end" x="79" y="4.199999999999999" style="font-family: 'Open Sans', verdana, arial, sans-serif; font-size: 12px; fill: rgb(42, 63, 95); fill-opacity: 1; white-space: pre; opacity: 1;" transform="translate(0,252)">$2M</text></g><g class="ytick"><text text-anchor="end" x="79" y="4.199999999999999" style="font-family: 'Open Sans', verdana, arial, sans-serif; font-size: 12px; fill: rgb(42, 63, 95); fill-opacity: 1; white-space: pre; opacity: 1;" transform="translate(0,181.15)">$3M</text></g><g class="ytick"><text text-anchor="end" x="79" y="4.199999999999999" style="font-family: 'Open Sans', verdana, arial, sans-serif; font-size: 12px; fill: rgb(42, 63, 95); fill-opacity: 1; white-space: pre; opacity: 1;" transform="translate(0,110.3)">$4M</text></g></g><g class="overaxes-above"/></g></g><g class="polarlayer"/><g class="smithlayer"/><g class="ternarylayer"/><g class="geolayer"/><g class="funnelarealayer"/><g class="pielayer"/><g class="iciclelayer"/><g class="treemaplayer"/><g class="sunburstlayer"/><g class="glimages"/><defs id="topdefs-a2f37a"><g class="clips"/></defs><g class="layer-above"><g class="imagelayer"/><g class="shapelayer"/></g><g class="infolayer"><g class="g-gtitle"><text class="gtitle" x="35" y="50" text-anchor="start" dy="0em" style="font-family: 'Open Sans', verdana, arial, sans-serif; font-size: 17px; fill: rgb(42, 63, 95); opacity: 1; font-weight: normal; white-space: pre;"><tspan class="line" dy="0em" x="35" y="50">Polynomial Protocol*</tspan><tspan class="line" dy="1.3em" x="35" y="50">​<tspan style="font-size:70%" dy="-0.6em">Cumulative Net Flows since Program Announcement, Until Program End + 30 Days - At Last Price</tspan><tspan dy="0.42em">​</tspan></tspan></text></g><g class="g-xtitle"><text class="xtitle" x="350" y="460.3" text-anchor="middle" style="font-family: 'Open Sans', verdana, arial, sans-serif; font-size: 14px; fill: rgb(42, 63, 95); opacity: 1; font-weight: normal; white-space: pre;">Day</text></g><g class="g-ytitle"><text class="ytitle" transform="rotate(-90,31.356250000000003,260)" x="31.356250000000003" y="260" text-anchor="middle" style="font-family: 'Open Sans', verdana, arial, sans-serif; font-size: 14px; fill: rgb(42, 63, 95); opacity: 1; font-weight: normal; white-space: pre;">Cumulative Net Flows (USD)</text></g></g></svg>