<svg class="main-svg" xmlns="http://www.w3.org/2000/svg" xmlns:xlink="http://www.w3.org/1999/xlink" width="700" height="500" style="" viewBox="0 0 700 500"><rect x="0" y="0" width="700" height="500" style="fill: rgb(255, 255, 255); fill-opacity: 1;"/><defs id="defs-d70746"><g class="clips"><clipPath id="clipd70746xyplot" class="plotclip"><rect width="540" height="320"/></clipPath><clipPath class="axesclip" id="clipd70746x"><rect x="80" y="0" width="540" height="500"/></clipPath><clipPath class="axesclip" id="clipd70746y"><rect x="0" y="100" width="700" height="320"/></clipPath><clipPath class="axesclip" id="clipd70746xy"><rect x="80" y="100" width="540" height="320"/></clipPath></g><g class="gradients"/><g class="patterns"/></defs><g class="bglayer"><rect class="bg" x="80" y="100" width="540" height="320" style="fill: rgb(229, 236, 246); fill-opacity: 1; stroke-width: 0;"/></g><g class="layer-below"><g class="imagelayer"/><g class="shapelayer"/></g><g class="cartesianlayer"><g class="subplot xy"><g class="layer-subplot"><g class="shapelayer"/><g class="imagelayer"/></g><g class="minor-gridlayer"><g class="x"/><g class="y"/></g><g class="gridlayer"><g class="x"><path class="xgrid crisp" transform="translate(118.39,0)" d="M0,100v320" style="stroke: rgb(255, 255, 255); stroke-opacity: 1; stroke-width: 1px;"/><path class="xgrid crisp" transform="translate(196.45,0)" d="M0,100v320" style="stroke: rgb(255, 255, 255); stroke-opacity: 1; stroke-width: 1px;"/><path class="xgrid crisp" transform="translate(274.5,0)" d="M0,100v320" style="stroke: rgb(255, 255, 255); stroke-opacity: 1; stroke-width: 1px;"/><path class="xgrid crisp" transform="translate(350,0)" d="M0,100v320" style="stroke: rgb(255, 255, 255); stroke-opacity: 1; stroke-width: 1px;"/><path class="xgrid crisp" transform="translate(428.06,0)" d="M0,100v320" style="stroke: rgb(255, 255, 255); stroke-opacity: 1; stroke-width: 1px;"/><path class="xgrid crisp" transform="translate(506.11,0)" d="M0,100v320" style="stroke: rgb(255, 255, 255); stroke-opacity: 1; stroke-width: 1px;"/><path class="xgrid crisp" transform="translate(585.45,0)" d="M0,100v320" style="stroke: rgb(255, 255, 255); stroke-opacity: 1; stroke-width: 1px;"/></g><g class="y"><path class="ygrid crisp" transform="translate(0,303.46000000000004)" d="M80,0h540" style="stroke: rgb(255, 255, 255); stroke-opacity: 1; stroke-width: 1px;"/><path class="ygrid crisp" transform="translate(0,217.53)" d="M80,0h540" style="stroke: rgb(255, 255, 255); stroke-opacity: 1; stroke-width: 1px;"/><path class="ygrid crisp" transform="translate(0,131.61)" d="M80,0h540" style="stroke: rgb(255, 255, 255); stroke-opacity: 1; stroke-width: 1px;"/></g></g><g class="zerolinelayer"><path class="yzl zl crisp" transform="translate(0,389.38)" d="M80,0h540" style="stroke: rgb(255, 255, 255); stroke-opacity: 1; stroke-width: 2px;"/></g><path class="xlines-below"/><path class="ylines-below"/><g class="overlines-below"/><g class="xaxislayer-below"/><g class="yaxislayer-below"/><g class="overaxes-below"/><g class="plot" transform="translate(80,100)" clip-path="url(#clipd70746xyplot)"><g class="scatterlayer mlayer"><g class="trace scatter tracead42b3" style="stroke-miterlimit: 2;"><g class="fills"><g><path class="js-fill" d="M540,289.38L0,289.38L0,289.04L1.28,257.67L2.56,182.86L3.84,151L5.12,143.24L6.4,131.08L7.68,111.17L8.96,100.91L10.24,51.9L12.8,47.28L14.08,32.29L15.36,26.9L16.64,25.42L17.91,17.93L19.19,38.42L20.47,16L21.75,16.5L23.03,17.2L24.31,28.26L28.15,35.28L29.43,43.33L30.71,44.53L31.99,38.88L33.27,38.45L34.55,39.86L35.83,43.89L37.11,44.79L38.39,42.42L39.67,42.65L40.95,54.96L42.23,55.05L43.51,54.87L44.79,56.67L46.07,58.46L47.35,63.9L48.63,64.77L49.91,75.08L55.02,103.87L56.3,108.25L57.58,99.99L58.86,60.21L60.14,58.8L61.42,47.66L62.7,50.69L63.98,48.79L65.26,48.38L66.54,57.26L67.82,37.94L69.1,35.03L70.38,27.24L71.66,26.28L72.94,28.2L74.22,32.27L75.5,31.24L76.78,28.94L78.06,25.77L79.34,25.91L80.62,25.43L81.9,30.75L84.45,35.87L85.73,32.15L87.01,30.24L88.29,38.43L89.57,43.27L90.85,41.82L92.13,40.73L93.41,43.33L94.69,42.15L95.97,38.08L97.25,66.52L98.53,73.76L101.09,76.34L102.37,77.2L103.65,109.18L104.93,106.87L107.49,117.97L108.77,141.96L110.05,164.81L111.33,158.49L112.61,135.2L113.89,136L115.17,140.72L116.45,139.83L119,143.82L120.28,137.55L121.56,140.05L122.84,136.15L124.12,135.95L125.4,131.45L126.68,133.65L127.96,142.19L129.24,142.03L130.52,133.06L131.8,137.61L133.08,136.48L134.36,161.63L135.64,163.12L136.92,163.42L138.2,162.83L139.48,153.47L140.76,150.06L144.6,141.02L145.88,151.96L147.16,157.45L148.44,157.71L149.72,159.91L151,160.51L152.27,154.46L153.55,161.39L154.83,169.95L156.11,169.32L157.39,160.34L158.67,158.53L159.95,161.82L161.23,158.67L162.51,157.97L163.79,155.74L165.07,158.34L166.35,167.01L167.63,166.35L168.91,167.27L170.19,168.91L171.47,173L174.03,165.24L175.31,166.72L176.59,164.17L177.87,163.89L179.15,161.55L180.43,173.47L181.71,176.38L182.99,177.3L185.55,178.79L186.82,177.65L188.1,176.01L189.38,178.36L191.94,177.87L193.22,186.12L194.5,186.34L195.78,183.89L198.34,185.48L199.62,189.34L200.9,190.47L202.18,187.89L206.02,192.53L207.3,195.76L208.58,197.08L209.86,173.84L211.14,173.97L212.42,176.37L217.54,167.55L218.82,164.32L220.09,169.75L221.37,166.67L222.65,165.83L223.93,158.25L225.21,155.88L226.49,158.78L227.77,147.62L229.05,153.95L230.33,149.14L231.61,153.06L232.89,148.55L234.17,151.29L235.45,148.58L236.73,147.81L238.01,149.05L239.29,156.98L240.57,158.9L241.85,158.42L243.13,157.85L244.41,154.62L245.69,152.91L246.97,157.4L248.25,154.5L249.53,155.79L250.81,160.2L252.09,160.59L253.36,162.89L254.64,168.53L257.2,167.22L258.48,169.14L261.04,168.25L262.32,165.51L263.6,164.46L264.88,157.34L266.16,156.66L267.44,159.89L268.72,157.91L270,159.53L272.56,162.47L273.84,161.6L275.12,160.51L276.4,164.92L278.96,167.58L280.24,166.46L281.52,166.3L282.8,177.53L285.36,183.04L286.64,189.85L287.91,187.86L289.19,199.29L290.47,199.69L291.75,196.76L293.03,197.78L294.31,201.19L298.15,205.49L299.43,209.45L300.71,198.53L301.99,197.2L303.27,198.38L304.55,197.63L305.83,199.33L307.11,203.4L308.39,213.39L309.67,209.92L310.95,209.71L312.23,208.1L313.51,206.47L314.79,209.78L316.07,210.54L317.35,209.63L318.63,210.82L319.91,208.51L322.46,209.77L323.74,210.2L325.02,210.16L326.3,211.23L327.58,210.96L328.86,209.89L330.14,211.78L331.42,211.39L332.7,210.43L333.98,208.38L335.26,206.14L336.54,215.21L339.1,216.82L340.38,217.92L341.66,218.18L342.94,219.78L344.22,219.79L345.5,217.32L348.06,217.39L349.34,217.57L353.18,221.26L354.45,220.84L357.01,224.21L358.29,224.92L359.57,226.11L360.85,225.27L362.13,224.35L363.41,233.93L364.69,231.35L365.97,233.15L367.25,232.42L368.53,234.14L371.09,235.27L372.37,238.77L373.65,239.11L374.93,243.85L378.77,304L380.05,204.55L381.33,204.04L382.61,204.45L383.89,204.04L385.17,202.65L386.45,204.14L387.73,203.98L389,202.76L390.28,203.2L392.84,205.01L394.12,205.14L395.4,243.32L396.68,247.49L397.96,246.15L399.24,247.98L401.8,251.3L403.08,251.28L404.36,251.4L405.64,255.03L406.92,255.77L408.2,255.43L409.48,255.63L410.76,254.91L412.04,253.83L413.32,249.42L415.88,249.05L417.16,252.22L419.72,248.74L421,246.07L422.27,243.84L423.55,251.5L424.83,248.11L426.11,254.33L428.67,254.63L429.95,254.42L431.23,254.96L432.51,258.33L433.79,257.82L435.07,260.95L437.63,259.85L438.91,259.93L441.47,259.53L442.75,260.23L444.03,254.64L445.31,255.87L446.59,262.32L447.87,262.48L449.15,264.98L450.43,263.17L452.99,262.21L454.27,261.06L455.55,260.1L456.82,263.12L458.1,264.03L459.38,259.17L460.66,257.86L461.94,258.67L463.22,258.05L464.5,258.45L465.78,258.07L467.06,254.84L468.34,254.84L469.62,260.29L470.9,261L472.18,260.29L473.46,263.98L474.74,262.6L477.3,255.94L478.58,255.58L481.14,263.02L482.42,263.72L486.26,264.01L487.54,269.27L488.82,272.8L490.09,271L491.37,271.55L492.65,270.75L493.93,268.62L495.21,269.04L496.49,270.21L497.77,259.55L499.05,258.07L500.33,265.86L501.61,266.29L502.89,265.23L504.17,263.26L505.45,272.79L508.01,270.6L509.29,271.22L511.85,271.15L513.13,271.65L514.41,271.23L515.69,269.64L518.25,267.6L519.53,268.08L522.09,266.04L523.36,262.67L524.64,263.73L525.92,262.52L528.48,261.41L529.76,263.83L532.32,262.9L533.6,268.38L537.44,267.33L538.72,266.86L540,266.12" style="fill: rgb(99, 110, 250); fill-opacity: 0.5; stroke-width: 0;"/></g></g><g class="errorbars"/><g class="lines"><path class="js-line" d="M0,289.04L1.28,257.67L2.56,182.86L3.84,151L5.12,143.24L6.4,131.08L7.68,111.17L8.96,100.91L10.24,51.9L12.8,47.28L14.08,32.29L15.36,26.9L16.64,25.42L17.91,17.93L19.19,38.42L20.47,16L21.75,16.5L23.03,17.2L24.31,28.26L28.15,35.28L29.43,43.33L30.71,44.53L31.99,38.88L33.27,38.45L34.55,39.86L35.83,43.89L37.11,44.79L38.39,42.42L39.67,42.65L40.95,54.96L42.23,55.05L43.51,54.87L44.79,56.67L46.07,58.46L47.35,63.9L48.63,64.77L49.91,75.08L55.02,103.87L56.3,108.25L57.58,99.99L58.86,60.21L60.14,58.8L61.42,47.66L62.7,50.69L63.98,48.79L65.26,48.38L66.54,57.26L67.82,37.94L69.1,35.03L70.38,27.24L71.66,26.28L72.94,28.2L74.22,32.27L75.5,31.24L76.78,28.94L78.06,25.77L79.34,25.91L80.62,25.43L81.9,30.75L84.45,35.87L85.73,32.15L87.01,30.24L88.29,38.43L89.57,43.27L90.85,41.82L92.13,40.73L93.41,43.33L94.69,42.15L95.97,38.08L97.25,66.52L98.53,73.76L101.09,76.34L102.37,77.2L103.65,109.18L104.93,106.87L107.49,117.97L108.77,141.96L110.05,164.81L111.33,158.49L112.61,135.2L113.89,136L115.17,140.72L116.45,139.83L119,143.82L120.28,137.55L121.56,140.05L122.84,136.15L124.12,135.95L125.4,131.45L126.68,133.65L127.96,142.19L129.24,142.03L130.52,133.06L131.8,137.61L133.08,136.48L134.36,161.63L135.64,163.12L136.92,163.42L138.2,162.83L139.48,153.47L140.76,150.06L144.6,141.02L145.88,151.96L147.16,157.45L148.44,157.71L149.72,159.91L151,160.51L152.27,154.46L153.55,161.39L154.83,169.95L156.11,169.32L157.39,160.34L158.67,158.53L159.95,161.82L161.23,158.67L162.51,157.97L163.79,155.74L165.07,158.34L166.35,167.01L167.63,166.35L168.91,167.27L170.19,168.91L171.47,173L174.03,165.24L175.31,166.72L176.59,164.17L177.87,163.89L179.15,161.55L180.43,173.47L181.71,176.38L182.99,177.3L185.55,178.79L186.82,177.65L188.1,176.01L189.38,178.36L191.94,177.87L193.22,186.12L194.5,186.34L195.78,183.89L198.34,185.48L199.62,189.34L200.9,190.47L202.18,187.89L206.02,192.53L207.3,195.76L208.58,197.08L209.86,173.84L211.14,173.97L212.42,176.37L217.54,167.55L218.82,164.32L220.09,169.75L221.37,166.67L222.65,165.83L223.93,158.25L225.21,155.88L226.49,158.78L227.77,147.62L229.05,153.95L230.33,149.14L231.61,153.06L232.89,148.55L234.17,151.29L235.45,148.58L236.73,147.81L238.01,149.05L239.29,156.98L240.57,158.9L241.85,158.42L243.13,157.85L244.41,154.62L245.69,152.91L246.97,157.4L248.25,154.5L249.53,155.79L250.81,160.2L252.09,160.59L253.36,162.89L254.64,168.53L257.2,167.22L258.48,169.14L261.04,168.25L262.32,165.51L263.6,164.46L264.88,157.34L266.16,156.66L267.44,159.89L268.72,157.91L270,159.53L272.56,162.47L273.84,161.6L275.12,160.51L276.4,164.92L278.96,167.58L280.24,166.46L281.52,166.3L282.8,177.53L285.36,183.04L286.64,189.85L287.91,187.86L289.19,199.29L290.47,199.69L291.75,196.76L293.03,197.78L294.31,201.19L298.15,205.49L299.43,209.45L300.71,198.53L301.99,197.2L303.27,198.38L304.55,197.63L305.83,199.33L307.11,203.4L308.39,213.39L309.67,209.92L310.95,209.71L312.23,208.1L313.51,206.47L314.79,209.78L316.07,210.54L317.35,209.63L318.63,210.82L319.91,208.51L322.46,209.77L323.74,210.2L325.02,210.16L326.3,211.23L327.58,210.96L328.86,209.89L330.14,211.78L331.42,211.39L332.7,210.43L333.98,208.38L335.26,206.14L336.54,215.21L339.1,216.82L340.38,217.92L341.66,218.18L342.94,219.78L344.22,219.79L345.5,217.32L348.06,217.39L349.34,217.57L353.18,221.26L354.45,220.84L357.01,224.21L358.29,224.92L359.57,226.11L360.85,225.27L362.13,224.35L363.41,233.93L364.69,231.35L365.97,233.15L367.25,232.42L368.53,234.14L371.09,235.27L372.37,238.77L373.65,239.11L374.93,243.85L378.77,304L380.05,204.55L381.33,204.04L382.61,204.45L383.89,204.04L385.17,202.65L386.45,204.14L387.73,203.98L389,202.76L390.28,203.2L392.84,205.01L394.12,205.14L395.4,243.32L396.68,247.49L397.96,246.15L399.24,247.98L401.8,251.3L403.08,251.28L404.36,251.4L405.64,255.03L406.92,255.77L408.2,255.43L409.48,255.63L410.76,254.91L412.04,253.83L413.32,249.42L415.88,249.05L417.16,252.22L419.72,248.74L421,246.07L422.27,243.84L423.55,251.5L424.83,248.11L426.11,254.33L428.67,254.63L429.95,254.42L431.23,254.96L432.51,258.33L433.79,257.82L435.07,260.95L437.63,259.85L438.91,259.93L441.47,259.53L442.75,260.23L444.03,254.64L445.31,255.87L446.59,262.32L447.87,262.48L449.15,264.98L450.43,263.17L452.99,262.21L454.27,261.06L455.55,260.1L456.82,263.12L458.1,264.03L459.38,259.17L460.66,257.86L461.94,258.67L463.22,258.05L464.5,258.45L465.78,258.07L467.06,254.84L468.34,254.84L469.62,260.29L470.9,261L472.18,260.29L473.46,263.98L474.74,262.6L477.3,255.94L478.58,255.58L481.14,263.02L482.42,263.72L486.26,264.01L487.54,269.27L488.82,272.8L490.09,271L491.37,271.55L492.65,270.75L493.93,268.62L495.21,269.04L496.49,270.21L497.77,259.55L499.05,258.07L500.33,265.86L501.61,266.29L502.89,265.23L504.17,263.26L505.45,272.79L508.01,270.6L509.29,271.22L511.85,271.15L513.13,271.65L514.41,271.23L515.69,269.64L518.25,267.6L519.53,268.08L522.09,266.04L523.36,262.67L524.64,263.73L525.92,262.52L528.48,261.41L529.76,263.83L532.32,262.9L533.6,268.38L537.44,267.33L538.72,266.86L540,266.12" style="vector-effect: none; fill: none; stroke: rgb(99, 110, 250); stroke-opacity: 1; stroke-width: 2px; opacity: 1;"/></g><g class="points"/><g class="text"/></g></g></g><g class="overplot"/><path class="xlines-above crisp" d="M0,0" style="fill: none;"/><path class="ylines-above crisp" d="M0,0" style="fill: none;"/><g class="overlines-above"/><g class="xaxislayer-above"><g class="xtick"><text text-anchor="middle" x="0" y="433" transform="translate(118.39,0)" style="font-family: 'Open Sans', verdana, arial, sans-serif; font-size: 12px; fill: rgb(42, 63, 95); fill-opacity: 1; white-space: pre; opacity: 1;">Sep 2022</text></g><g class="xtick"><text text-anchor="middle" x="0" y="433" style="font-family: 'Open Sans', verdana, arial, sans-serif; font-size: 12px; fill: rgb(42, 63, 95); fill-opacity: 1; white-space: pre; opacity: 1;" transform="translate(196.45,0)">Nov 2022</text></g><g class="xtick"><text text-anchor="middle" x="0" y="433" style="font-family: 'Open Sans', verdana, arial, sans-serif; font-size: 12px; fill: rgb(42, 63, 95); fill-opacity: 1; white-space: pre; opacity: 1;" transform="translate(274.5,0)">Jan 2023</text></g><g class="xtick"><text text-anchor="middle" x="0" y="433" style="font-family: 'Open Sans', verdana, arial, sans-serif; font-size: 12px; fill: rgb(42, 63, 95); fill-opacity: 1; white-space: pre; opacity: 1;" transform="translate(350,0)">Mar 2023</text></g><g class="xtick"><text text-anchor="middle" x="0" y="433" style="font-family: 'Open Sans', verdana, arial, sans-serif; font-size: 12px; fill: rgb(42, 63, 95); fill-opacity: 1; white-space: pre; opacity: 1;" transform="translate(428.06,0)">May 2023</text></g><g class="xtick"><text text-anchor="middle" x="0" y="433" style="font-family: 'Open Sans', verdana, arial, sans-serif; font-size: 12px; fill: rgb(42, 63, 95); fill-opacity: 1; white-space: pre; opacity: 1;" transform="translate(506.11,0)">Jul 2023</text></g><g class="xtick"><text text-anchor="middle" x="0" y="433" style="font-family: 'Open Sans', verdana, arial, sans-serif; font-size: 12px; fill: rgb(42, 63, 95); fill-opacity: 1; white-space: pre; opacity: 1;" transform="translate(585.45,0)">Sep 2023</text></g></g><g class="yaxislayer-above"><g class="ytick"><text text-anchor="end" x="79" y="4.199999999999999" transform="translate(0,389.38)" style="font-family: 'Open Sans', verdana, arial, sans-serif; font-size: 12px; fill: rgb(42, 63, 95); fill-opacity: 1; white-space: pre; opacity: 1;">$0</text></g><g class="ytick"><text text-anchor="end" x="79" y="4.199999999999999" style="font-family: 'Open Sans', verdana, arial, sans-serif; font-size: 12px; fill: rgb(42, 63, 95); fill-opacity: 1; white-space: pre; opacity: 1;" transform="translate(0,303.46000000000004)">$5M</text></g><g class="ytick"><text text-anchor="end" x="79" y="4.199999999999999" style="font-family: 'Open Sans', verdana, arial, sans-serif; font-size: 12px; fill: rgb(42, 63, 95); fill-opacity: 1; white-space: pre; opacity: 1;" transform="translate(0,217.53)">$10M</text></g><g class="ytick"><text text-anchor="end" x="79" y="4.199999999999999" style="font-family: 'Open Sans', verdana, arial, sans-serif; font-size: 12px; fill: rgb(42, 63, 95); fill-opacity: 1; white-space: pre; opacity: 1;" transform="translate(0,131.61)">$15M</text></g></g><g class="overaxes-above"/></g></g><g class="polarlayer"/><g class="smithlayer"/><g class="ternarylayer"/><g class="geolayer"/><g class="funnelarealayer"/><g class="pielayer"/><g class="iciclelayer"/><g class="treemaplayer"/><g class="sunburstlayer"/><g class="glimages"/><defs id="topdefs-d70746"><g class="clips"/></defs><g class="layer-above"><g class="imagelayer"/><g class="shapelayer"/></g><g class="infolayer"><g class="g-gtitle"><text class="gtitle" x="35" y="50" text-anchor="start" dy="0em" style="font-family: 'Open Sans', verdana, arial, sans-serif; font-size: 17px; fill: rgb(42, 63, 95); opacity: 1; font-weight: normal; white-space: pre;"><tspan class="line" dy="0em" x="35" y="50">Lyra</tspan><tspan class="line" dy="1.3em" x="35" y="50">​<tspan style="font-size:70%" dy="-0.6em">Cumulative Net Flows since Program Announcement, Until Program End + 30 Days - At Last Price</tspan><tspan dy="0.42em">​</tspan></tspan></text></g><g class="g-xtitle"><text class="xtitle" x="350" y="460.3" text-anchor="middle" style="font-family: 'Open Sans', verdana, arial, sans-serif; font-size: 14px; fill: rgb(42, 63, 95); opacity: 1; font-weight: normal; white-space: pre;">Day</text></g><g class="g-ytitle"><text class="ytitle" transform="rotate(-90,24.668750000000003,260)" x="24.668750000000003" y="260" text-anchor="middle" style="font-family: 'Open Sans', verdana, arial, sans-serif; font-size: 14px; fill: rgb(42, 63, 95); opacity: 1; font-weight: normal; white-space: pre;">Cumulative Net Flows (USD)</text></g></g></svg>