<svg class="main-svg" xmlns="http://www.w3.org/2000/svg" xmlns:xlink="http://www.w3.org/1999/xlink" width="700" height="500" style="" viewBox="0 0 700 500"><rect x="0" y="0" width="700" height="500" style="fill: rgb(255, 255, 255); fill-opacity: 1;"/><defs id="defs-9ecbb6"><g class="clips"><clipPath id="clip9ecbb6xyplot" class="plotclip"><rect width="540" height="320"/></clipPath><clipPath class="axesclip" id="clip9ecbb6x"><rect x="80" y="0" width="540" height="500"/></clipPath><clipPath class="axesclip" id="clip9ecbb6y"><rect x="0" y="100" width="700" height="320"/></clipPath><clipPath class="axesclip" id="clip9ecbb6xy"><rect x="80" y="100" width="540" height="320"/></clipPath></g><g class="gradients"/><g class="patterns"/></defs><g class="bglayer"><rect class="bg" x="80" y="100" width="540" height="320" style="fill: rgb(229, 236, 246); fill-opacity: 1; stroke-width: 0;"/></g><g class="layer-below"><g class="imagelayer"/><g class="shapelayer"/></g><g class="cartesianlayer"><g class="subplot xy"><g class="layer-subplot"><g class="shapelayer"/><g class="imagelayer"/></g><g class="minor-gridlayer"><g class="x"/><g class="y"/></g><g class="gridlayer"><g class="x"><path class="xgrid crisp" transform="translate(130.69,0)" d="M0,100v320" style="stroke: rgb(255, 255, 255); stroke-opacity: 1; stroke-width: 1px;"/><path class="xgrid crisp" transform="translate(249.6,0)" d="M0,100v320" style="stroke: rgb(255, 255, 255); stroke-opacity: 1; stroke-width: 1px;"/><path class="xgrid crisp" transform="translate(368.52,0)" d="M0,100v320" style="stroke: rgb(255, 255, 255); stroke-opacity: 1; stroke-width: 1px;"/><path class="xgrid crisp" transform="translate(489.39,0)" d="M0,100v320" style="stroke: rgb(255, 255, 255); stroke-opacity: 1; stroke-width: 1px;"/><path class="xgrid crisp" transform="translate(608.3,0)" d="M0,100v320" style="stroke: rgb(255, 255, 255); stroke-opacity: 1; stroke-width: 1px;"/></g><g class="y"><path class="ygrid crisp" transform="translate(0,371.91)" d="M80,0h540" style="stroke: rgb(255, 255, 255); stroke-opacity: 1; stroke-width: 1px;"/><path class="ygrid crisp" transform="translate(0,323.82)" d="M80,0h540" style="stroke: rgb(255, 255, 255); stroke-opacity: 1; stroke-width: 1px;"/><path class="ygrid crisp" transform="translate(0,275.74)" d="M80,0h540" style="stroke: rgb(255, 255, 255); stroke-opacity: 1; stroke-width: 1px;"/><path class="ygrid crisp" transform="translate(0,227.65)" d="M80,0h540" style="stroke: rgb(255, 255, 255); stroke-opacity: 1; stroke-width: 1px;"/><path class="ygrid crisp" transform="translate(0,179.56)" d="M80,0h540" style="stroke: rgb(255, 255, 255); stroke-opacity: 1; stroke-width: 1px;"/><path class="ygrid crisp" transform="translate(0,131.47)" d="M80,0h540" style="stroke: rgb(255, 255, 255); stroke-opacity: 1; stroke-width: 1px;"/></g></g><g class="zerolinelayer"><path class="yzl zl crisp" transform="translate(0,420)" d="M80,0h540" style="stroke: rgb(255, 255, 255); stroke-opacity: 1; stroke-width: 2px;"/></g><path class="xlines-below"/><path class="ylines-below"/><g class="overlines-below"/><g class="xaxislayer-below"/><g class="yaxislayer-below"/><g class="overaxes-below"/><g class="plot" transform="translate(80,100)" clip-path="url(#clip9ecbb6xyplot)"><g class="scatterlayer mlayer"><g class="trace scatter tracedcc6bd" style="stroke-miterlimit: 2;"><g class="fills"><g><path class="js-fill" d="M540,320L0,320L0,286.89L7.8,286.21L9.75,282.06L11.7,246.25L13.65,240.16L17.55,224.62L19.49,215.5L21.44,203.73L23.39,199.02L25.34,197.1L27.29,190.71L29.24,188.55L31.19,178.35L33.14,170.34L35.09,168.67L37.04,159.01L38.99,166.92L40.94,169.35L42.89,179.97L44.84,166.16L46.79,87.67L48.74,87.29L50.69,75.45L52.64,75.12L54.58,76.73L56.53,89.34L58.48,91.1L60.43,89.19L62.38,91.8L64.33,90.33L66.28,90.2L68.23,87.64L70.18,82.92L72.13,84.72L74.08,89.26L76.03,88.86L77.98,86.62L79.93,89.29L81.88,87.35L83.83,93.12L85.78,93.06L89.68,90.95L91.62,87.18L93.57,84.97L95.52,84.89L99.42,85.34L101.37,82.61L103.32,82.39L105.27,80.13L107.22,80.69L109.17,79.99L111.12,68.37L113.07,67.65L115.02,63.36L116.97,63.07L120.87,56.66L122.82,57.65L126.71,57.39L128.66,55.8L130.61,59.85L132.56,58.63L134.51,41.74L136.46,51.55L142.31,50.92L144.26,46.81L146.21,45.7L148.16,46.03L150.11,59.91L152.06,58L157.91,56.81L159.86,55.81L161.81,52.57L163.75,52.41L167.65,47.69L169.6,47.71L173.5,47.75L175.45,48.72L179.35,48.33L181.3,52.56L183.25,50.1L185.2,50.12L187.15,47.57L189.1,47.75L191.05,46.5L193,52.21L194.95,52.22L196.9,53.28L198.84,51.81L200.79,51.78L202.74,51.81L204.69,50.81L208.59,42.2L210.54,42.16L214.44,38.5L216.39,38.63L220.29,38.28L222.24,36.94L228.09,37.1L230.04,35.32L233.94,34.85L235.88,34.81L237.83,33.44L239.78,28.94L241.73,26.62L243.68,25.85L245.63,25.34L247.58,23.44L251.48,22.86L253.43,22.86L259.28,20.8L261.23,17.18L267.08,17.31L269.03,16L270.97,27.76L272.92,33.64L274.87,33.68L276.82,31.4L278.77,31.36L280.72,41.21L282.67,76.96L284.62,84.27L286.57,86.15L288.52,93.99L296.32,94.56L298.27,162.7L302.17,162.78L304.12,196.11L306.06,164.32L308.01,164.34L309.96,164.34L311.91,168.55L313.86,191.26L315.81,191.26L321.66,191.5L323.61,194.44L333.36,194.44L335.31,194.44L341.16,194.61L343.1,199.01L345.05,194.2L347,194.3L356.75,194.32L358.7,195.65L360.65,195.65L362.6,196.64L366.5,196.64L368.45,198.92L370.4,196.68L372.35,198.92L374.3,196.64L376.25,196.64L403.54,196.64L405.49,198.95L407.44,196.82L409.39,196.82L413.29,196.82L415.23,198.86L417.18,196.8L419.13,196.8L426.93,196.8L428.88,198.66L430.83,196.8L432.78,196.8L434.73,196.8L436.68,198.83L438.63,196.76L440.58,198.83L444.48,196.81L446.43,197.07L452.27,197.06L454.22,198.69L460.07,197.1L462.02,197.1L479.57,197.1L481.52,198.77L483.47,197.19L485.42,198.77L487.36,197.18L489.31,197.18L491.26,197.18L493.21,198.73L495.16,197.16L497.11,198.73L499.06,197.18L501.01,198.73L502.96,197.21L504.91,197.21L506.86,198.83L508.81,196.82L540,196.79" style="fill: rgb(99, 110, 250); fill-opacity: 0.5; stroke-width: 0;"/></g></g><g class="errorbars"/><g class="lines"><path class="js-line" d="M0,286.89L7.8,286.21L9.75,282.06L11.7,246.25L13.65,240.16L17.55,224.62L19.49,215.5L21.44,203.73L23.39,199.02L25.34,197.1L27.29,190.71L29.24,188.55L31.19,178.35L33.14,170.34L35.09,168.67L37.04,159.01L38.99,166.92L40.94,169.35L42.89,179.97L44.84,166.16L46.79,87.67L48.74,87.29L50.69,75.45L52.64,75.12L54.58,76.73L56.53,89.34L58.48,91.1L60.43,89.19L62.38,91.8L64.33,90.33L66.28,90.2L68.23,87.64L70.18,82.92L72.13,84.72L74.08,89.26L76.03,88.86L77.98,86.62L79.93,89.29L81.88,87.35L83.83,93.12L85.78,93.06L89.68,90.95L91.62,87.18L93.57,84.97L95.52,84.89L99.42,85.34L101.37,82.61L103.32,82.39L105.27,80.13L107.22,80.69L109.17,79.99L111.12,68.37L113.07,67.65L115.02,63.36L116.97,63.07L120.87,56.66L122.82,57.65L126.71,57.39L128.66,55.8L130.61,59.85L132.56,58.63L134.51,41.74L136.46,51.55L142.31,50.92L144.26,46.81L146.21,45.7L148.16,46.03L150.11,59.91L152.06,58L157.91,56.81L159.86,55.81L161.81,52.57L163.75,52.41L167.65,47.69L169.6,47.71L173.5,47.75L175.45,48.72L179.35,48.33L181.3,52.56L183.25,50.1L185.2,50.12L187.15,47.57L189.1,47.75L191.05,46.5L193,52.21L194.95,52.22L196.9,53.28L198.84,51.81L200.79,51.78L202.74,51.81L204.69,50.81L208.59,42.2L210.54,42.16L214.44,38.5L216.39,38.63L220.29,38.28L222.24,36.94L228.09,37.1L230.04,35.32L233.94,34.85L235.88,34.81L237.83,33.44L239.78,28.94L241.73,26.62L243.68,25.85L245.63,25.34L247.58,23.44L251.48,22.86L253.43,22.86L259.28,20.8L261.23,17.18L267.08,17.31L269.03,16L270.97,27.76L272.92,33.64L274.87,33.68L276.82,31.4L278.77,31.36L280.72,41.21L282.67,76.96L284.62,84.27L286.57,86.15L288.52,93.99L296.32,94.56L298.27,162.7L302.17,162.78L304.12,196.11L306.06,164.32L308.01,164.34L309.96,164.34L311.91,168.55L313.86,191.26L315.81,191.26L321.66,191.5L323.61,194.44L333.36,194.44L335.31,194.44L341.16,194.61L343.1,199.01L345.05,194.2L347,194.3L356.75,194.32L358.7,195.65L360.65,195.65L362.6,196.64L366.5,196.64L368.45,198.92L370.4,196.68L372.35,198.92L374.3,196.64L376.25,196.64L403.54,196.64L405.49,198.95L407.44,196.82L409.39,196.82L413.29,196.82L415.23,198.86L417.18,196.8L419.13,196.8L426.93,196.8L428.88,198.66L430.83,196.8L432.78,196.8L434.73,196.8L436.68,198.83L438.63,196.76L440.58,198.83L444.48,196.81L446.43,197.07L452.27,197.06L454.22,198.69L460.07,197.1L462.02,197.1L479.57,197.1L481.52,198.77L483.47,197.19L485.42,198.77L487.36,197.18L489.31,197.18L491.26,197.18L493.21,198.73L495.16,197.16L497.11,198.73L499.06,197.18L501.01,198.73L502.96,197.21L504.91,197.21L506.86,198.83L508.81,196.82L540,196.79" style="vector-effect: none; fill: none; stroke: rgb(99, 110, 250); stroke-opacity: 1; stroke-width: 2px; opacity: 1;"/></g><g class="points"/><g class="text"/></g></g></g><g class="overplot"/><path class="xlines-above crisp" d="M0,0" style="fill: none;"/><path class="ylines-above crisp" d="M0,0" style="fill: none;"/><g class="overlines-above"/><g class="xaxislayer-above"><g class="xtick"><text text-anchor="middle" x="0" y="433" transform="translate(130.69,0)" style="font-family: 'Open Sans', verdana, arial, sans-serif; font-size: 12px; fill: rgb(42, 63, 95); fill-opacity: 1; white-space: pre; opacity: 1;">Mar 2023</text></g><g class="xtick"><text text-anchor="middle" x="0" y="433" style="font-family: 'Open Sans', verdana, arial, sans-serif; font-size: 12px; fill: rgb(42, 63, 95); fill-opacity: 1; white-space: pre; opacity: 1;" transform="translate(249.6,0)">May 2023</text></g><g class="xtick"><text text-anchor="middle" x="0" y="433" style="font-family: 'Open Sans', verdana, arial, sans-serif; font-size: 12px; fill: rgb(42, 63, 95); fill-opacity: 1; white-space: pre; opacity: 1;" transform="translate(368.52,0)">Jul 2023</text></g><g class="xtick"><text text-anchor="middle" x="0" y="433" style="font-family: 'Open Sans', verdana, arial, sans-serif; font-size: 12px; fill: rgb(42, 63, 95); fill-opacity: 1; white-space: pre; opacity: 1;" transform="translate(489.39,0)">Sep 2023</text></g><g class="xtick"><text text-anchor="middle" x="0" y="433" style="font-family: 'Open Sans', verdana, arial, sans-serif; font-size: 12px; fill: rgb(42, 63, 95); fill-opacity: 1; white-space: pre; opacity: 1;" transform="translate(608.3,0)">Nov 2023</text></g></g><g class="yaxislayer-above"><g class="ytick"><text text-anchor="end" x="79" y="4.199999999999999" transform="translate(0,420)" style="font-family: 'Open Sans', verdana, arial, sans-serif; font-size: 12px; fill: rgb(42, 63, 95); fill-opacity: 1; white-space: pre; opacity: 1;">$0</text></g><g class="ytick"><text text-anchor="end" x="79" y="4.199999999999999" style="font-family: 'Open Sans', verdana, arial, sans-serif; font-size: 12px; fill: rgb(42, 63, 95); fill-opacity: 1; white-space: pre; opacity: 1;" transform="translate(0,371.91)">$0.2M</text></g><g class="ytick"><text text-anchor="end" x="79" y="4.199999999999999" style="font-family: 'Open Sans', verdana, arial, sans-serif; font-size: 12px; fill: rgb(42, 63, 95); fill-opacity: 1; white-space: pre; opacity: 1;" transform="translate(0,323.82)">$0.4M</text></g><g class="ytick"><text text-anchor="end" x="79" y="4.199999999999999" style="font-family: 'Open Sans', verdana, arial, sans-serif; font-size: 12px; fill: rgb(42, 63, 95); fill-opacity: 1; white-space: pre; opacity: 1;" transform="translate(0,275.74)">$0.6M</text></g><g class="ytick"><text text-anchor="end" x="79" y="4.199999999999999" style="font-family: 'Open Sans', verdana, arial, sans-serif; font-size: 12px; fill: rgb(42, 63, 95); fill-opacity: 1; white-space: pre; opacity: 1;" transform="translate(0,227.65)">$0.8M</text></g><g class="ytick"><text text-anchor="end" x="79" y="4.199999999999999" style="font-family: 'Open Sans', verdana, arial, sans-serif; font-size: 12px; fill: rgb(42, 63, 95); fill-opacity: 1; white-space: pre; opacity: 1;" transform="translate(0,179.56)">$1M</text></g><g class="ytick"><text text-anchor="end" x="79" y="4.199999999999999" style="font-family: 'Open Sans', verdana, arial, sans-serif; font-size: 12px; fill: rgb(42, 63, 95); fill-opacity: 1; white-space: pre; opacity: 1;" transform="translate(0,131.47)">$1.2M</text></g></g><g class="overaxes-above"/></g></g><g class="polarlayer"/><g class="smithlayer"/><g class="ternarylayer"/><g class="geolayer"/><g class="funnelarealayer"/><g class="pielayer"/><g class="iciclelayer"/><g class="treemaplayer"/><g class="sunburstlayer"/><g class="glimages"/><defs id="topdefs-9ecbb6"><g class="clips"/></defs><g class="layer-above"><g class="imagelayer"/><g class="shapelayer"/></g><g class="infolayer"><g class="g-gtitle"><text class="gtitle" x="35" y="50" text-anchor="start" dy="0em" style="font-family: 'Open Sans', verdana, arial, sans-serif; font-size: 17px; fill: rgb(42, 63, 95); opacity: 1; font-weight: normal; white-space: pre;"><tspan class="line" dy="0em" x="35" y="50">Dhedge - DHT/OP: Velodrome</tspan><tspan class="line" dy="1.3em" x="35" y="50">​<tspan style="font-size:70%" dy="-0.6em">Cumulative Net Flows since Program Announcement, Until Program End + 30 Days - At Last Price</tspan><tspan dy="0.42em">​</tspan></tspan></text></g><g class="g-xtitle"><text class="xtitle" x="350" y="460.3" text-anchor="middle" style="font-family: 'Open Sans', verdana, arial, sans-serif; font-size: 14px; fill: rgb(42, 63, 95); opacity: 1; font-weight: normal; white-space: pre;">Day</text></g><g class="g-ytitle"><text class="ytitle" transform="rotate(-90,21.340625000000003,260)" x="21.340625000000003" y="260" text-anchor="middle" style="font-family: 'Open Sans', verdana, arial, sans-serif; font-size: 14px; fill: rgb(42, 63, 95); opacity: 1; font-weight: normal; white-space: pre;">Cumulative Net Flows (USD)</text></g></g></svg>