<svg class="main-svg" xmlns="http://www.w3.org/2000/svg" xmlns:xlink="http://www.w3.org/1999/xlink" width="700" height="500" style="" viewBox="0 0 700 500"><rect x="0" y="0" width="700" height="500" style="fill: rgb(255, 255, 255); fill-opacity: 1;"/><defs id="defs-7f2cff"><g class="clips"><clipPath id="clip7f2cffxyplot" class="plotclip"><rect width="540" height="320"/></clipPath><clipPath class="axesclip" id="clip7f2cffx"><rect x="80" y="0" width="540" height="500"/></clipPath><clipPath class="axesclip" id="clip7f2cffy"><rect x="0" y="100" width="700" height="320"/></clipPath><clipPath class="axesclip" id="clip7f2cffxy"><rect x="80" y="100" width="540" height="320"/></clipPath></g><g class="gradients"/><g class="patterns"/></defs><g class="bglayer"><rect class="bg" x="80" y="100" width="540" height="320" style="fill: rgb(229, 236, 246); fill-opacity: 1; stroke-width: 0;"/></g><g class="layer-below"><g class="imagelayer"/><g class="shapelayer"/></g><g class="cartesianlayer"><g class="subplot xy"><g class="layer-subplot"><g class="shapelayer"/><g class="imagelayer"/></g><g class="minor-gridlayer"><g class="x"/><g class="y"/></g><g class="gridlayer"><g class="x"><path class="xgrid crisp" transform="translate(122,0)" d="M0,100v320" style="stroke: rgb(255, 255, 255); stroke-opacity: 1; stroke-width: 1px;"/><path class="xgrid crisp" transform="translate(212,0)" d="M0,100v320" style="stroke: rgb(255, 255, 255); stroke-opacity: 1; stroke-width: 1px;"/><path class="xgrid crisp" transform="translate(305,0)" d="M0,100v320" style="stroke: rgb(255, 255, 255); stroke-opacity: 1; stroke-width: 1px;"/><path class="xgrid crisp" transform="translate(398,0)" d="M0,100v320" style="stroke: rgb(255, 255, 255); stroke-opacity: 1; stroke-width: 1px;"/><path class="xgrid crisp" transform="translate(488,0)" d="M0,100v320" style="stroke: rgb(255, 255, 255); stroke-opacity: 1; stroke-width: 1px;"/><path class="xgrid crisp" transform="translate(581,0)" d="M0,100v320" style="stroke: rgb(255, 255, 255); stroke-opacity: 1; stroke-width: 1px;"/></g><g class="y"><path class="ygrid crisp" transform="translate(0,371.57)" d="M80,0h540" style="stroke: rgb(255, 255, 255); stroke-opacity: 1; stroke-width: 1px;"/><path class="ygrid crisp" transform="translate(0,323.14)" d="M80,0h540" style="stroke: rgb(255, 255, 255); stroke-opacity: 1; stroke-width: 1px;"/><path class="ygrid crisp" transform="translate(0,274.71000000000004)" d="M80,0h540" style="stroke: rgb(255, 255, 255); stroke-opacity: 1; stroke-width: 1px;"/><path class="ygrid crisp" transform="translate(0,226.28)" d="M80,0h540" style="stroke: rgb(255, 255, 255); stroke-opacity: 1; stroke-width: 1px;"/><path class="ygrid crisp" transform="translate(0,177.85)" d="M80,0h540" style="stroke: rgb(255, 255, 255); stroke-opacity: 1; stroke-width: 1px;"/><path class="ygrid crisp" transform="translate(0,129.42000000000002)" d="M80,0h540" style="stroke: rgb(255, 255, 255); stroke-opacity: 1; stroke-width: 1px;"/></g></g><g class="zerolinelayer"><path class="yzl zl crisp" transform="translate(0,420)" d="M80,0h540" style="stroke: rgb(255, 255, 255); stroke-opacity: 1; stroke-width: 2px;"/></g><path class="xlines-below"/><path class="ylines-below"/><g class="overlines-below"/><g class="xaxislayer-below"/><g class="yaxislayer-below"/><g class="overaxes-below"/><g class="plot" transform="translate(80,100)" clip-path="url(#clip7f2cffxyplot)"><g class="scatterlayer mlayer"><g class="trace scatter trace342b87" style="stroke-miterlimit: 2;"><g class="fills"><g><path class="js-fill" d="M540,320L0,320L0,312.42L3,282.68L6,276.33L12,275.17L15,275.29L18,270.39L21,262.33L24,253.91L27,237.8L33,232.69L36,228.61L39,227.52L42,224.36L45,201.23L48,194.16L51,192.55L54,189.31L66,188.79L69,198.35L72,201.9L75,201.41L78,200.86L81,198.93L84,194L87,196.89L90,192.35L93,192.12L96,185.66L99,182L102,178.33L105,150.63L108,156.19L111,143.76L114,140.03L117,138.84L123,152.67L126,154.36L132,169.18L135,157.23L138,155.82L141,151.35L144,153.49L147,153.32L150,153.59L153,146.13L156,138.67L159,135.44L162,132.79L165,145.07L168,140.56L171,131.31L174,130.41L177,122.08L183,115.55L186,128.29L189,126.89L192,118.92L195,118.57L198,127.8L201,142.72L204,119.13L207,104.92L210,100.65L213,89.22L216,68.67L219,63.39L222,95.58L225,112.47L228,57.18L231,55.25L234,49.42L237,31.19L240,30.57L243,30.1L246,27.31L252,16L255,38.71L258,34.4L261,38.49L267,33.95L270,27.81L273,30.96L276,35.21L279,36.18L282,35.7L285,35.53L288,40.15L291,40.58L294,36.2L297,38.77L300,33L303,35.45L306,35.94L309,37.05L312,60.95L315,77.11L318,97.62L321,100.42L324,101.07L327,98.22L330,103.06L333,122.02L336,106.45L339,94.35L342,92.71L345,91.56L348,96.89L351,91.21L354,92.04L357,94.34L360,95.02L363,97.25L366,96.53L369,96.95L372,96.58L378,102.67L381,95.6L384,95.32L387,97.21L390,96.59L393,98.26L396,101.07L399,96.78L402,100.07L405,102.05L408,98.77L411,98.85L414,101.15L417,116.26L420,116.39L423,117.67L429,115.85L432,302.68L438,130.7L441,302.68L444,148.74L447,148.46L450,161.12L453,160.97L456,159.55L459,161.25L462,147.6L465,148.38L468,147.32L471,148.96L474,154.6L477,154.66L483,159.45L486,164.81L492,163.14L495,166.2L498,153.42L501,153.38L507,154.02L510,153.35L513,151.89L516,155.98L519,155.26L522,155.64L525,156.85L528,160.33L534,151.51L537,151L540,148.61" style="fill: rgb(99, 110, 250); fill-opacity: 0.5; stroke-width: 0;"/></g></g><g class="errorbars"/><g class="lines"><path class="js-line" d="M0,312.42L3,282.68L6,276.33L12,275.17L15,275.29L18,270.39L21,262.33L24,253.91L27,237.8L33,232.69L36,228.61L39,227.52L42,224.36L45,201.23L48,194.16L51,192.55L54,189.31L66,188.79L69,198.35L72,201.9L75,201.41L78,200.86L81,198.93L84,194L87,196.89L90,192.35L93,192.12L96,185.66L99,182L102,178.33L105,150.63L108,156.19L111,143.76L114,140.03L117,138.84L123,152.67L126,154.36L132,169.18L135,157.23L138,155.82L141,151.35L144,153.49L147,153.32L150,153.59L153,146.13L156,138.67L159,135.44L162,132.79L165,145.07L168,140.56L171,131.31L174,130.41L177,122.08L183,115.55L186,128.29L189,126.89L192,118.92L195,118.57L198,127.8L201,142.72L204,119.13L207,104.92L210,100.65L213,89.22L216,68.67L219,63.39L222,95.58L225,112.47L228,57.18L231,55.25L234,49.42L237,31.19L240,30.57L243,30.1L246,27.31L252,16L255,38.71L258,34.4L261,38.49L267,33.95L270,27.81L273,30.96L276,35.21L279,36.18L282,35.7L285,35.53L288,40.15L291,40.58L294,36.2L297,38.77L300,33L303,35.45L306,35.94L309,37.05L312,60.95L315,77.11L318,97.62L321,100.42L324,101.07L327,98.22L330,103.06L333,122.02L336,106.45L339,94.35L342,92.71L345,91.56L348,96.89L351,91.21L354,92.04L357,94.34L360,95.02L363,97.25L366,96.53L369,96.95L372,96.58L378,102.67L381,95.6L384,95.32L387,97.21L390,96.59L393,98.26L396,101.07L399,96.78L402,100.07L405,102.05L408,98.77L411,98.85L414,101.15L417,116.26L420,116.39L423,117.67L429,115.85L432,302.68L438,130.7L441,302.68L444,148.74L447,148.46L450,161.12L453,160.97L456,159.55L459,161.25L462,147.6L465,148.38L468,147.32L471,148.96L474,154.6L477,154.66L483,159.45L486,164.81L492,163.14L495,166.2L498,153.42L501,153.38L507,154.02L510,153.35L513,151.89L516,155.98L519,155.26L522,155.64L525,156.85L528,160.33L534,151.51L537,151L540,148.61" style="vector-effect: none; fill: none; stroke: rgb(99, 110, 250); stroke-opacity: 1; stroke-width: 2px; opacity: 1;"/></g><g class="points"/><g class="text"/></g></g></g><g class="overplot"/><path class="xlines-above crisp" d="M0,0" style="fill: none;"/><path class="ylines-above crisp" d="M0,0" style="fill: none;"/><g class="overlines-above"/><g class="xaxislayer-above"><g class="xtick"><text text-anchor="middle" x="0" y="433" transform="translate(122,0)" style="font-family: 'Open Sans', verdana, arial, sans-serif; font-size: 12px; fill: rgb(42, 63, 95); fill-opacity: 1; white-space: pre; opacity: 1;">Jun 2023</text></g><g class="xtick"><text text-anchor="middle" x="0" y="433" style="font-family: 'Open Sans', verdana, arial, sans-serif; font-size: 12px; fill: rgb(42, 63, 95); fill-opacity: 1; white-space: pre; opacity: 1;" transform="translate(212,0)">Jul 2023</text></g><g class="xtick"><text text-anchor="middle" x="0" y="433" style="font-family: 'Open Sans', verdana, arial, sans-serif; font-size: 12px; fill: rgb(42, 63, 95); fill-opacity: 1; white-space: pre; opacity: 1;" transform="translate(305,0)">Aug 2023</text></g><g class="xtick"><text text-anchor="middle" x="0" y="433" style="font-family: 'Open Sans', verdana, arial, sans-serif; font-size: 12px; fill: rgb(42, 63, 95); fill-opacity: 1; white-space: pre; opacity: 1;" transform="translate(398,0)">Sep 2023</text></g><g class="xtick"><text text-anchor="middle" x="0" y="433" style="font-family: 'Open Sans', verdana, arial, sans-serif; font-size: 12px; fill: rgb(42, 63, 95); fill-opacity: 1; white-space: pre; opacity: 1;" transform="translate(488,0)">Oct 2023</text></g><g class="xtick"><text text-anchor="middle" x="0" y="433" style="font-family: 'Open Sans', verdana, arial, sans-serif; font-size: 12px; fill: rgb(42, 63, 95); fill-opacity: 1; white-space: pre; opacity: 1;" transform="translate(581,0)">Nov 2023</text></g></g><g class="yaxislayer-above"><g class="ytick"><text text-anchor="end" x="79" y="4.199999999999999" transform="translate(0,420)" style="font-family: 'Open Sans', verdana, arial, sans-serif; font-size: 12px; fill: rgb(42, 63, 95); fill-opacity: 1; white-space: pre; opacity: 1;">$0</text></g><g class="ytick"><text text-anchor="end" x="79" y="4.199999999999999" style="font-family: 'Open Sans', verdana, arial, sans-serif; font-size: 12px; fill: rgb(42, 63, 95); fill-opacity: 1; white-space: pre; opacity: 1;" transform="translate(0,371.57)">$5M</text></g><g class="ytick"><text text-anchor="end" x="79" y="4.199999999999999" style="font-family: 'Open Sans', verdana, arial, sans-serif; font-size: 12px; fill: rgb(42, 63, 95); fill-opacity: 1; white-space: pre; opacity: 1;" transform="translate(0,323.14)">$10M</text></g><g class="ytick"><text text-anchor="end" x="79" y="4.199999999999999" style="font-family: 'Open Sans', verdana, arial, sans-serif; font-size: 12px; fill: rgb(42, 63, 95); fill-opacity: 1; white-space: pre; opacity: 1;" transform="translate(0,274.71000000000004)">$15M</text></g><g class="ytick"><text text-anchor="end" x="79" y="4.199999999999999" style="font-family: 'Open Sans', verdana, arial, sans-serif; font-size: 12px; fill: rgb(42, 63, 95); fill-opacity: 1; white-space: pre; opacity: 1;" transform="translate(0,226.28)">$20M</text></g><g class="ytick"><text text-anchor="end" x="79" y="4.199999999999999" style="font-family: 'Open Sans', verdana, arial, sans-serif; font-size: 12px; fill: rgb(42, 63, 95); fill-opacity: 1; white-space: pre; opacity: 1;" transform="translate(0,177.85)">$25M</text></g><g class="ytick"><text text-anchor="end" x="79" y="4.199999999999999" style="font-family: 'Open Sans', verdana, arial, sans-serif; font-size: 12px; fill: rgb(42, 63, 95); fill-opacity: 1; white-space: pre; opacity: 1;" transform="translate(0,129.42000000000002)">$30M</text></g></g><g class="overaxes-above"/></g></g><g class="polarlayer"/><g class="smithlayer"/><g class="ternarylayer"/><g class="geolayer"/><g class="funnelarealayer"/><g class="pielayer"/><g class="iciclelayer"/><g class="treemaplayer"/><g class="sunburstlayer"/><g class="glimages"/><defs id="topdefs-7f2cff"><g class="clips"/></defs><g class="layer-above"><g class="imagelayer"/><g class="shapelayer"/></g><g class="infolayer"><g class="g-gtitle"><text class="gtitle" x="35" y="50" text-anchor="start" dy="0em" style="font-family: 'Open Sans', verdana, arial, sans-serif; font-size: 17px; fill: rgb(42, 63, 95); opacity: 1; font-weight: normal; white-space: pre;"><tspan class="line" dy="0em" x="35" y="50">Yearn Finance</tspan><tspan class="line" dy="1.3em" x="35" y="50">​<tspan style="font-size:70%" dy="-0.6em">Cumulative Net Flows since Program Announcement, Until Program End + 30 Days - At Last Price</tspan><tspan dy="0.42em">​</tspan></tspan></text></g><g class="g-xtitle"><text class="xtitle" x="350" y="460.3" text-anchor="middle" style="font-family: 'Open Sans', verdana, arial, sans-serif; font-size: 14px; fill: rgb(42, 63, 95); opacity: 1; font-weight: normal; white-space: pre;">Day</text></g><g class="g-ytitle"><text class="ytitle" transform="rotate(-90,24.668750000000003,260)" x="24.668750000000003" y="260" text-anchor="middle" style="font-family: 'Open Sans', verdana, arial, sans-serif; font-size: 14px; fill: rgb(42, 63, 95); opacity: 1; font-weight: normal; white-space: pre;">Cumulative Net Flows (USD)</text></g></g></svg>