<svg class="main-svg" xmlns="http://www.w3.org/2000/svg" xmlns:xlink="http://www.w3.org/1999/xlink" width="700" height="500" style="" viewBox="0 0 700 500"><rect x="0" y="0" width="700" height="500" style="fill: rgb(255, 255, 255); fill-opacity: 1;"/><defs id="defs-3108e4"><g class="clips"><clipPath id="clip3108e4xyplot" class="plotclip"><rect width="540" height="320"/></clipPath><clipPath class="axesclip" id="clip3108e4x"><rect x="80" y="0" width="540" height="500"/></clipPath><clipPath class="axesclip" id="clip3108e4y"><rect x="0" y="100" width="700" height="320"/></clipPath><clipPath class="axesclip" id="clip3108e4xy"><rect x="80" y="100" width="540" height="320"/></clipPath></g><g class="gradients"/><g class="patterns"/></defs><g class="bglayer"><rect class="bg" x="80" y="100" width="540" height="320" style="fill: rgb(229, 236, 246); fill-opacity: 1; stroke-width: 0;"/></g><g class="layer-below"><g class="imagelayer"/><g class="shapelayer"/></g><g class="cartesianlayer"><g class="subplot xy"><g class="layer-subplot"><g class="shapelayer"/><g class="imagelayer"/></g><g class="minor-gridlayer"><g class="x"/><g class="y"/></g><g class="gridlayer"><g class="x"><path class="xgrid crisp" transform="translate(88.06,0)" d="M0,100v320" style="stroke: rgb(255, 255, 255); stroke-opacity: 1; stroke-width: 1px;"/><path class="xgrid crisp" transform="translate(170,0)" d="M0,100v320" style="stroke: rgb(255, 255, 255); stroke-opacity: 1; stroke-width: 1px;"/><path class="xgrid crisp" transform="translate(251.94,0)" d="M0,100v320" style="stroke: rgb(255, 255, 255); stroke-opacity: 1; stroke-width: 1px;"/><path class="xgrid crisp" transform="translate(331.19,0)" d="M0,100v320" style="stroke: rgb(255, 255, 255); stroke-opacity: 1; stroke-width: 1px;"/><path class="xgrid crisp" transform="translate(413.13,0)" d="M0,100v320" style="stroke: rgb(255, 255, 255); stroke-opacity: 1; stroke-width: 1px;"/><path class="xgrid crisp" transform="translate(495.07,0)" d="M0,100v320" style="stroke: rgb(255, 255, 255); stroke-opacity: 1; stroke-width: 1px;"/><path class="xgrid crisp" transform="translate(578.36,0)" d="M0,100v320" style="stroke: rgb(255, 255, 255); stroke-opacity: 1; stroke-width: 1px;"/></g><g class="y"><path class="ygrid crisp" transform="translate(0,333.03999999999996)" d="M80,0h540" style="stroke: rgb(255, 255, 255); stroke-opacity: 1; stroke-width: 1px;"/><path class="ygrid crisp" transform="translate(0,287.07)" d="M80,0h540" style="stroke: rgb(255, 255, 255); stroke-opacity: 1; stroke-width: 1px;"/><path class="ygrid crisp" transform="translate(0,241.1)" d="M80,0h540" style="stroke: rgb(255, 255, 255); stroke-opacity: 1; stroke-width: 1px;"/><path class="ygrid crisp" transform="translate(0,195.13)" d="M80,0h540" style="stroke: rgb(255, 255, 255); stroke-opacity: 1; stroke-width: 1px;"/><path class="ygrid crisp" transform="translate(0,149.17000000000002)" d="M80,0h540" style="stroke: rgb(255, 255, 255); stroke-opacity: 1; stroke-width: 1px;"/><path class="ygrid crisp" transform="translate(0,103.2)" d="M80,0h540" style="stroke: rgb(255, 255, 255); stroke-opacity: 1; stroke-width: 1px;"/></g></g><g class="zerolinelayer"><path class="yzl zl crisp" transform="translate(0,379)" d="M80,0h540" style="stroke: rgb(255, 255, 255); stroke-opacity: 1; stroke-width: 2px;"/></g><path class="xlines-below"/><path class="ylines-below"/><g class="overlines-below"/><g class="xaxislayer-below"/><g class="yaxislayer-below"/><g class="overaxes-below"/><g class="plot" transform="translate(80,100)" clip-path="url(#clip3108e4xyplot)"><g class="scatterlayer mlayer"><g class="trace scatter traceea3557" style="stroke-miterlimit: 2;"><g class="fills"><g><path class="js-fill" d="M540,279L0,279L0,278.83L79.25,278.61L80.6,285.54L81.94,283.08L83.28,283.09L99.4,282.91L100.75,283.03L107.46,283L108.81,287.33L115.52,287.34L116.87,281.55L118.21,302.81L119.55,297.95L122.24,297.05L123.58,292.92L124.93,292.92L126.27,289.66L128.96,289.65L130.3,294.93L131.64,294.99L132.99,294.04L134.33,293.94L135.67,292.21L145.07,292.06L146.42,284.32L147.76,291.27L149.1,291.26L155.82,291.33L157.16,291.32L182.69,291.21L184.03,286.25L185.37,286.25L186.72,293.74L188.06,293.72L189.4,292.68L192.09,291.99L193.43,291.99L197.46,291.84L198.81,286.26L200.15,286.26L201.49,288.19L204.18,286.94L205.52,286.69L206.87,287.24L208.21,286.27L212.24,286.3L213.58,286.3L214.93,282.84L216.27,282.84L220.3,282.75L221.64,278.17L222.99,273.21L224.33,276.55L225.67,271.96L227.01,271.01L229.7,271.01L231.04,272.2L235.07,270.51L236.42,266.61L237.76,266.6L239.1,262.95L240.45,262.95L241.79,256.83L244.48,241.75L245.82,241.95L247.16,228.78L248.51,228.85L251.19,228.18L252.54,223.59L253.88,226.39L255.22,235.55L256.57,236.93L257.91,236.46L259.25,235.31L260.6,238.59L261.94,241.12L263.28,252.08L264.63,290.04L265.97,277.41L267.31,271.17L268.66,248.14L270,236.61L271.34,247.9L272.69,234.46L274.03,234.92L275.37,224.41L276.72,224.41L278.06,222.06L279.4,233.31L280.75,235.86L282.09,235.86L283.43,247.34L284.78,247.34L286.12,233.4L287.46,231.26L288.81,247.28L290.15,237.34L298.21,237.28L299.55,253.93L300.9,269.53L302.24,272.7L303.58,272.8L304.93,277.25L306.27,279.27L307.61,279.29L311.64,279.92L312.99,284.05L314.33,280.51L315.67,284.3L317.01,16L318.36,16L319.7,288.19L321.04,288.19L322.39,297.39L323.73,297.39L331.79,297.39L333.13,298.44L335.82,298.59L337.16,300.89L357.31,300.91L358.66,304L361.34,300.91L362.69,300.91L365.37,300.91L366.72,304L368.06,300.91L369.4,300.91L376.12,301.38L377.46,301.38L396.27,301.62L397.61,303.99L398.96,301.62L400.3,301.62L409.7,301.63L411.04,302.6L451.34,303.33L452.69,303.37L540,303.82" style="fill: rgb(99, 110, 250); fill-opacity: 0.5; stroke-width: 0;"/></g></g><g class="errorbars"/><g class="lines"><path class="js-line" d="M0,278.83L79.25,278.61L80.6,285.54L81.94,283.08L83.28,283.09L99.4,282.91L100.75,283.03L107.46,283L108.81,287.33L115.52,287.34L116.87,281.55L118.21,302.81L119.55,297.95L122.24,297.05L123.58,292.92L124.93,292.92L126.27,289.66L128.96,289.65L130.3,294.93L131.64,294.99L132.99,294.04L134.33,293.94L135.67,292.21L145.07,292.06L146.42,284.32L147.76,291.27L149.1,291.26L155.82,291.33L157.16,291.32L182.69,291.21L184.03,286.25L185.37,286.25L186.72,293.74L188.06,293.72L189.4,292.68L192.09,291.99L193.43,291.99L197.46,291.84L198.81,286.26L200.15,286.26L201.49,288.19L204.18,286.94L205.52,286.69L206.87,287.24L208.21,286.27L212.24,286.3L213.58,286.3L214.93,282.84L216.27,282.84L220.3,282.75L221.64,278.17L222.99,273.21L224.33,276.55L225.67,271.96L227.01,271.01L229.7,271.01L231.04,272.2L235.07,270.51L236.42,266.61L237.76,266.6L239.1,262.95L240.45,262.95L241.79,256.83L244.48,241.75L245.82,241.95L247.16,228.78L248.51,228.85L251.19,228.18L252.54,223.59L253.88,226.39L255.22,235.55L256.57,236.93L257.91,236.46L259.25,235.31L260.6,238.59L261.94,241.12L263.28,252.08L264.63,290.04L265.97,277.41L267.31,271.17L268.66,248.14L270,236.61L271.34,247.9L272.69,234.46L274.03,234.92L275.37,224.41L276.72,224.41L278.06,222.06L279.4,233.31L280.75,235.86L282.09,235.86L283.43,247.34L284.78,247.34L286.12,233.4L287.46,231.26L288.81,247.28L290.15,237.34L298.21,237.28L299.55,253.93L300.9,269.53L302.24,272.7L303.58,272.8L304.93,277.25L306.27,279.27L307.61,279.29L311.64,279.92L312.99,284.05L314.33,280.51L315.67,284.3L317.01,16L318.36,16L319.7,288.19L321.04,288.19L322.39,297.39L323.73,297.39L331.79,297.39L333.13,298.44L335.82,298.59L337.16,300.89L357.31,300.91L358.66,304L361.34,300.91L362.69,300.91L365.37,300.91L366.72,304L368.06,300.91L369.4,300.91L376.12,301.38L377.46,301.38L396.27,301.62L397.61,303.99L398.96,301.62L400.3,301.62L409.7,301.63L411.04,302.6L451.34,303.33L452.69,303.37L540,303.82" style="vector-effect: none; fill: none; stroke: rgb(99, 110, 250); stroke-opacity: 1; stroke-width: 2px; opacity: 1;"/></g><g class="points"/><g class="text"/></g></g></g><g class="overplot"/><path class="xlines-above crisp" d="M0,0" style="fill: none;"/><path class="ylines-above crisp" d="M0,0" style="fill: none;"/><g class="overlines-above"/><g class="xaxislayer-above"><g class="xtick"><text text-anchor="middle" x="0" y="433" transform="translate(88.06,0)" style="font-family: 'Open Sans', verdana, arial, sans-serif; font-size: 12px; fill: rgb(42, 63, 95); fill-opacity: 1; white-space: pre; opacity: 1;">Sep 2022</text></g><g class="xtick"><text text-anchor="middle" x="0" y="433" style="font-family: 'Open Sans', verdana, arial, sans-serif; font-size: 12px; fill: rgb(42, 63, 95); fill-opacity: 1; white-space: pre; opacity: 1;" transform="translate(170,0)">Nov 2022</text></g><g class="xtick"><text text-anchor="middle" x="0" y="433" style="font-family: 'Open Sans', verdana, arial, sans-serif; font-size: 12px; fill: rgb(42, 63, 95); fill-opacity: 1; white-space: pre; opacity: 1;" transform="translate(251.94,0)">Jan 2023</text></g><g class="xtick"><text text-anchor="middle" x="0" y="433" style="font-family: 'Open Sans', verdana, arial, sans-serif; font-size: 12px; fill: rgb(42, 63, 95); fill-opacity: 1; white-space: pre; opacity: 1;" transform="translate(331.19,0)">Mar 2023</text></g><g class="xtick"><text text-anchor="middle" x="0" y="433" style="font-family: 'Open Sans', verdana, arial, sans-serif; font-size: 12px; fill: rgb(42, 63, 95); fill-opacity: 1; white-space: pre; opacity: 1;" transform="translate(413.13,0)">May 2023</text></g><g class="xtick"><text text-anchor="middle" x="0" y="433" style="font-family: 'Open Sans', verdana, arial, sans-serif; font-size: 12px; fill: rgb(42, 63, 95); fill-opacity: 1; white-space: pre; opacity: 1;" transform="translate(495.07,0)">Jul 2023</text></g><g class="xtick"><text text-anchor="middle" x="0" y="433" style="font-family: 'Open Sans', verdana, arial, sans-serif; font-size: 12px; fill: rgb(42, 63, 95); fill-opacity: 1; white-space: pre; opacity: 1;" transform="translate(578.36,0)">Sep 2023</text></g></g><g class="yaxislayer-above"><g class="ytick"><text text-anchor="end" x="79" y="4.199999999999999" transform="translate(0,379)" style="font-family: 'Open Sans', verdana, arial, sans-serif; font-size: 12px; fill: rgb(42, 63, 95); fill-opacity: 1; white-space: pre; opacity: 1;">$0</text></g><g class="ytick"><text text-anchor="end" x="79" y="4.199999999999999" style="font-family: 'Open Sans', verdana, arial, sans-serif; font-size: 12px; fill: rgb(42, 63, 95); fill-opacity: 1; white-space: pre; opacity: 1;" transform="translate(0,333.03999999999996)">$0.2M</text></g><g class="ytick"><text text-anchor="end" x="79" y="4.199999999999999" style="font-family: 'Open Sans', verdana, arial, sans-serif; font-size: 12px; fill: rgb(42, 63, 95); fill-opacity: 1; white-space: pre; opacity: 1;" transform="translate(0,287.07)">$0.4M</text></g><g class="ytick"><text text-anchor="end" x="79" y="4.199999999999999" style="font-family: 'Open Sans', verdana, arial, sans-serif; font-size: 12px; fill: rgb(42, 63, 95); fill-opacity: 1; white-space: pre; opacity: 1;" transform="translate(0,241.1)">$0.6M</text></g><g class="ytick"><text text-anchor="end" x="79" y="4.199999999999999" style="font-family: 'Open Sans', verdana, arial, sans-serif; font-size: 12px; fill: rgb(42, 63, 95); fill-opacity: 1; white-space: pre; opacity: 1;" transform="translate(0,195.13)">$0.8M</text></g><g class="ytick"><text text-anchor="end" x="79" y="4.199999999999999" style="font-family: 'Open Sans', verdana, arial, sans-serif; font-size: 12px; fill: rgb(42, 63, 95); fill-opacity: 1; white-space: pre; opacity: 1;" transform="translate(0,149.17000000000002)">$1M</text></g><g class="ytick"><text text-anchor="end" x="79" y="4.199999999999999" style="font-family: 'Open Sans', verdana, arial, sans-serif; font-size: 12px; fill: rgb(42, 63, 95); fill-opacity: 1; white-space: pre; opacity: 1;" transform="translate(0,103.2)">$1.2M</text></g></g><g class="overaxes-above"/></g></g><g class="polarlayer"/><g class="smithlayer"/><g class="ternarylayer"/><g class="geolayer"/><g class="funnelarealayer"/><g class="pielayer"/><g class="iciclelayer"/><g class="treemaplayer"/><g class="sunburstlayer"/><g class="glimages"/><defs id="topdefs-3108e4"><g class="clips"/></defs><g class="layer-above"><g class="imagelayer"/><g class="shapelayer"/></g><g class="infolayer"><g class="g-gtitle"><text class="gtitle" x="35" y="50" text-anchor="start" dy="0em" style="font-family: 'Open Sans', verdana, arial, sans-serif; font-size: 17px; fill: rgb(42, 63, 95); opacity: 1; font-weight: normal; white-space: pre;"><tspan class="line" dy="0em" x="35" y="50">Qidao - vUSDC/MAI: Velodrome</tspan><tspan class="line" dy="1.3em" x="35" y="50">​<tspan style="font-size:70%" dy="-0.6em">Cumulative Net Flows since Program Announcement, Until Program End + 30 Days - At Last Price</tspan><tspan dy="0.42em">​</tspan></tspan></text></g><g class="g-xtitle"><text class="xtitle" x="350" y="460.3" text-anchor="middle" style="font-family: 'Open Sans', verdana, arial, sans-serif; font-size: 14px; fill: rgb(42, 63, 95); opacity: 1; font-weight: normal; white-space: pre;">Day</text></g><g class="g-ytitle"><text class="ytitle" transform="rotate(-90,21.340625000000003,260)" x="21.340625000000003" y="260" text-anchor="middle" style="font-family: 'Open Sans', verdana, arial, sans-serif; font-size: 14px; fill: rgb(42, 63, 95); opacity: 1; font-weight: normal; white-space: pre;">Cumulative Net Flows (USD)</text></g></g></svg>