<svg class="main-svg" xmlns="http://www.w3.org/2000/svg" xmlns:xlink="http://www.w3.org/1999/xlink" width="700" height="500" style="" viewBox="0 0 700 500"><rect x="0" y="0" width="700" height="500" style="fill: rgb(255, 255, 255); fill-opacity: 1;"/><defs id="defs-6b85f9"><g class="clips"><clipPath id="clip6b85f9xyplot" class="plotclip"><rect width="540" height="320"/></clipPath><clipPath class="axesclip" id="clip6b85f9x"><rect x="80" y="0" width="540" height="500"/></clipPath><clipPath class="axesclip" id="clip6b85f9y"><rect x="0" y="100" width="700" height="320"/></clipPath><clipPath class="axesclip" id="clip6b85f9xy"><rect x="80" y="100" width="540" height="320"/></clipPath></g><g class="gradients"/><g class="patterns"/></defs><g class="bglayer"><rect class="bg" x="80" y="100" width="540" height="320" style="fill: rgb(229, 236, 246); fill-opacity: 1; stroke-width: 0;"/></g><g class="layer-below"><g class="imagelayer"/><g class="shapelayer"/></g><g class="cartesianlayer"><g class="subplot xy"><g class="layer-subplot"><g class="shapelayer"/><g class="imagelayer"/></g><g class="minor-gridlayer"><g class="x"/><g class="y"/></g><g class="gridlayer"><g class="x"><path class="xgrid crisp" transform="translate(190.55,0)" d="M0,100v320" style="stroke: rgb(255, 255, 255); stroke-opacity: 1; stroke-width: 1px;"/><path class="xgrid crisp" transform="translate(320.24,0)" d="M0,100v320" style="stroke: rgb(255, 255, 255); stroke-opacity: 1; stroke-width: 1px;"/><path class="xgrid crisp" transform="translate(449.92,0)" d="M0,100v320" style="stroke: rgb(255, 255, 255); stroke-opacity: 1; stroke-width: 1px;"/><path class="xgrid crisp" transform="translate(581.73,0)" d="M0,100v320" style="stroke: rgb(255, 255, 255); stroke-opacity: 1; stroke-width: 1px;"/></g><g class="y"><path class="ygrid crisp" transform="translate(0,402.41)" d="M80,0h540" style="stroke: rgb(255, 255, 255); stroke-opacity: 1; stroke-width: 1px;"/><path class="ygrid crisp" transform="translate(0,298.19)" d="M80,0h540" style="stroke: rgb(255, 255, 255); stroke-opacity: 1; stroke-width: 1px;"/><path class="ygrid crisp" transform="translate(0,246.09)" d="M80,0h540" style="stroke: rgb(255, 255, 255); stroke-opacity: 1; stroke-width: 1px;"/><path class="ygrid crisp" transform="translate(0,193.98000000000002)" d="M80,0h540" style="stroke: rgb(255, 255, 255); stroke-opacity: 1; stroke-width: 1px;"/><path class="ygrid crisp" transform="translate(0,141.87)" d="M80,0h540" style="stroke: rgb(255, 255, 255); stroke-opacity: 1; stroke-width: 1px;"/></g></g><g class="zerolinelayer"><path class="yzl zl crisp" transform="translate(0,350.3)" d="M80,0h540" style="stroke: rgb(255, 255, 255); stroke-opacity: 1; stroke-width: 2px;"/></g><path class="xlines-below"/><path class="ylines-below"/><g class="overlines-below"/><g class="xaxislayer-below"/><g class="yaxislayer-below"/><g class="overaxes-below"/><g class="plot" transform="translate(80,100)" clip-path="url(#clip6b85f9xyplot)"><g class="scatterlayer mlayer"><g class="trace scatter trace86083e" style="stroke-miterlimit: 2;"><g class="fills"><g><path class="js-fill" d="M540,250.3L0,250.3L0,185.39L2.13,188.05L4.25,188.05L8.5,188.21L10.63,188.28L14.88,188.32L17.01,187.62L38.27,187.75L40.39,185.59L42.52,176.8L44.65,176.9L46.77,176.83L48.9,174.38L51.02,172.42L53.15,172.13L61.65,171.69L63.78,170.46L68.03,170.12L70.16,169.02L72.28,166.91L74.41,161.26L76.54,169.24L78.66,167.72L80.79,167.19L82.91,150.39L85.04,150.12L87.17,151.03L89.29,150.96L91.42,82.93L93.54,82.98L95.67,81.89L97.8,75.42L99.92,75.19L102.05,70.94L104.17,70.44L106.3,70.08L108.43,66.15L110.55,66.04L112.68,59.33L114.8,56.57L116.93,55.47L119.06,59.99L121.18,59.64L127.56,59.23L129.69,67.16L131.81,75.46L133.94,67.72L136.06,40.25L138.19,32.46L140.31,32.5L142.44,30.83L144.57,30.53L146.69,38.95L148.82,41.48L150.94,41.15L153.07,41.18L155.2,42.57L157.32,48.51L159.45,48.78L167.95,48.99L170.08,39.63L172.2,39.96L174.33,30.86L178.58,31.27L180.71,30.7L182.83,30.7L184.96,28.72L187.09,28.95L189.21,28.26L191.34,28.23L193.46,26.02L197.72,28.98L199.84,16L201.97,16.01L204.09,18.4L206.22,61.14L208.35,60.46L210.47,60.86L212.6,60.26L216.85,54.29L218.98,53.78L223.23,53.93L225.35,54.05L227.48,49.64L229.61,50.02L233.86,49.91L235.98,49.9L240.24,47.88L242.36,44.98L244.49,45.81L246.61,45.8L252.99,45.56L255.12,47.94L259.37,45.94L261.5,45.93L263.62,54.27L265.75,53.6L267.87,53.59L270,52.57L272.13,51.48L274.25,51.47L278.5,51.46L280.63,54.19L282.76,54.18L284.88,58.19L287.01,58.18L289.13,176.61L291.26,171.83L293.39,171.82L308.27,169.91L310.39,170.06L312.52,169.68L314.65,165.39L316.77,165.35L318.9,162.91L321.02,163.8L323.15,160.24L325.28,155.72L327.4,155.63L329.53,155.34L331.65,135.37L333.78,131.65L335.91,135.94L338.03,138.41L340.16,137.28L342.28,128.1L344.41,124.69L346.54,121.28L348.66,122.02L350.79,113.75L352.91,138.23L355.04,135.72L357.17,146.38L359.29,145.82L361.42,146.55L363.54,147.49L365.67,200.71L367.8,216.27L369.92,220.23L372.05,220.89L374.17,225.32L376.3,226.63L378.43,241.33L380.55,237.49L382.68,237.6L384.8,237.61L386.93,239.41L389.06,250.81L391.18,256.18L393.31,300.74L395.43,300.92L397.56,302.06L399.69,302.06L416.69,302.45L418.82,302.94L486.85,303.54L488.98,303.59L540,304" style="fill: rgb(99, 110, 250); fill-opacity: 0.5; stroke-width: 0;"/></g></g><g class="errorbars"/><g class="lines"><path class="js-line" d="M0,185.39L2.13,188.05L4.25,188.05L8.5,188.21L10.63,188.28L14.88,188.32L17.01,187.62L38.27,187.75L40.39,185.59L42.52,176.8L44.65,176.9L46.77,176.83L48.9,174.38L51.02,172.42L53.15,172.13L61.65,171.69L63.78,170.46L68.03,170.12L70.16,169.02L72.28,166.91L74.41,161.26L76.54,169.24L78.66,167.72L80.79,167.19L82.91,150.39L85.04,150.12L87.17,151.03L89.29,150.96L91.42,82.93L93.54,82.98L95.67,81.89L97.8,75.42L99.92,75.19L102.05,70.94L104.17,70.44L106.3,70.08L108.43,66.15L110.55,66.04L112.68,59.33L114.8,56.57L116.93,55.47L119.06,59.99L121.18,59.64L127.56,59.23L129.69,67.16L131.81,75.46L133.94,67.72L136.06,40.25L138.19,32.46L140.31,32.5L142.44,30.83L144.57,30.53L146.69,38.95L148.82,41.48L150.94,41.15L153.07,41.18L155.2,42.57L157.32,48.51L159.45,48.78L167.95,48.99L170.08,39.63L172.2,39.96L174.33,30.86L178.58,31.27L180.71,30.7L182.83,30.7L184.96,28.72L187.09,28.95L189.21,28.26L191.34,28.23L193.46,26.02L197.72,28.98L199.84,16L201.97,16.01L204.09,18.4L206.22,61.14L208.35,60.46L210.47,60.86L212.6,60.26L216.85,54.29L218.98,53.78L223.23,53.93L225.35,54.05L227.48,49.64L229.61,50.02L233.86,49.91L235.98,49.9L240.24,47.88L242.36,44.98L244.49,45.81L246.61,45.8L252.99,45.56L255.12,47.94L259.37,45.94L261.5,45.93L263.62,54.27L265.75,53.6L267.87,53.59L270,52.57L272.13,51.48L274.25,51.47L278.5,51.46L280.63,54.19L282.76,54.18L284.88,58.19L287.01,58.18L289.13,176.61L291.26,171.83L293.39,171.82L308.27,169.91L310.39,170.06L312.52,169.68L314.65,165.39L316.77,165.35L318.9,162.91L321.02,163.8L323.15,160.24L325.28,155.72L327.4,155.63L329.53,155.34L331.65,135.37L333.78,131.65L335.91,135.94L338.03,138.41L340.16,137.28L342.28,128.1L344.41,124.69L346.54,121.28L348.66,122.02L350.79,113.75L352.91,138.23L355.04,135.72L357.17,146.38L359.29,145.82L361.42,146.55L363.54,147.49L365.67,200.71L367.8,216.27L369.92,220.23L372.05,220.89L374.17,225.32L376.3,226.63L378.43,241.33L380.55,237.49L382.68,237.6L384.8,237.61L386.93,239.41L389.06,250.81L391.18,256.18L393.31,300.74L395.43,300.92L397.56,302.06L399.69,302.06L416.69,302.45L418.82,302.94L486.85,303.54L488.98,303.59L540,304" style="vector-effect: none; fill: none; stroke: rgb(99, 110, 250); stroke-opacity: 1; stroke-width: 2px; opacity: 1;"/></g><g class="points"/><g class="text"/></g></g></g><g class="overplot"/><path class="xlines-above crisp" d="M0,0" style="fill: none;"/><path class="ylines-above crisp" d="M0,0" style="fill: none;"/><g class="overlines-above"/><g class="xaxislayer-above"><g class="xtick"><text text-anchor="middle" x="0" y="433" transform="translate(190.55,0)" style="font-family: 'Open Sans', verdana, arial, sans-serif; font-size: 12px; fill: rgb(42, 63, 95); fill-opacity: 1; white-space: pre; opacity: 1;">Mar 2023</text></g><g class="xtick"><text text-anchor="middle" x="0" y="433" style="font-family: 'Open Sans', verdana, arial, sans-serif; font-size: 12px; fill: rgb(42, 63, 95); fill-opacity: 1; white-space: pre; opacity: 1;" transform="translate(320.24,0)">May 2023</text></g><g class="xtick"><text text-anchor="middle" x="0" y="433" style="font-family: 'Open Sans', verdana, arial, sans-serif; font-size: 12px; fill: rgb(42, 63, 95); fill-opacity: 1; white-space: pre; opacity: 1;" transform="translate(449.92,0)">Jul 2023</text></g><g class="xtick"><text text-anchor="middle" x="0" y="433" style="font-family: 'Open Sans', verdana, arial, sans-serif; font-size: 12px; fill: rgb(42, 63, 95); fill-opacity: 1; white-space: pre; opacity: 1;" transform="translate(581.73,0)">Sep 2023</text></g></g><g class="yaxislayer-above"><g class="ytick"><text text-anchor="end" x="79" y="4.199999999999999" transform="translate(0,402.41)" style="font-family: 'Open Sans', verdana, arial, sans-serif; font-size: 12px; fill: rgb(42, 63, 95); fill-opacity: 1; white-space: pre; opacity: 1;">$−1M</text></g><g class="ytick"><text text-anchor="end" x="79" y="4.199999999999999" style="font-family: 'Open Sans', verdana, arial, sans-serif; font-size: 12px; fill: rgb(42, 63, 95); fill-opacity: 1; white-space: pre; opacity: 1;" transform="translate(0,350.3)">$0</text></g><g class="ytick"><text text-anchor="end" x="79" y="4.199999999999999" style="font-family: 'Open Sans', verdana, arial, sans-serif; font-size: 12px; fill: rgb(42, 63, 95); fill-opacity: 1; white-space: pre; opacity: 1;" transform="translate(0,298.19)">$1M</text></g><g class="ytick"><text text-anchor="end" x="79" y="4.199999999999999" style="font-family: 'Open Sans', verdana, arial, sans-serif; font-size: 12px; fill: rgb(42, 63, 95); fill-opacity: 1; white-space: pre; opacity: 1;" transform="translate(0,246.09)">$2M</text></g><g class="ytick"><text text-anchor="end" x="79" y="4.199999999999999" style="font-family: 'Open Sans', verdana, arial, sans-serif; font-size: 12px; fill: rgb(42, 63, 95); fill-opacity: 1; white-space: pre; opacity: 1;" transform="translate(0,193.98000000000002)">$3M</text></g><g class="ytick"><text text-anchor="end" x="79" y="4.199999999999999" style="font-family: 'Open Sans', verdana, arial, sans-serif; font-size: 12px; fill: rgb(42, 63, 95); fill-opacity: 1; white-space: pre; opacity: 1;" transform="translate(0,141.87)">$4M</text></g></g><g class="overaxes-above"/></g></g><g class="polarlayer"/><g class="smithlayer"/><g class="ternarylayer"/><g class="geolayer"/><g class="funnelarealayer"/><g class="pielayer"/><g class="iciclelayer"/><g class="treemaplayer"/><g class="sunburstlayer"/><g class="glimages"/><defs id="topdefs-6b85f9"><g class="clips"/></defs><g class="layer-above"><g class="imagelayer"/><g class="shapelayer"/></g><g class="infolayer"><g class="g-gtitle"><text class="gtitle" x="35" y="50" text-anchor="start" dy="0em" style="font-family: 'Open Sans', verdana, arial, sans-serif; font-size: 17px; fill: rgb(42, 63, 95); opacity: 1; font-weight: normal; white-space: pre;"><tspan class="line" dy="0em" x="35" y="50">Alchemix - alETH/WETH: Velodrome</tspan><tspan class="line" dy="1.3em" x="35" y="50">​<tspan style="font-size:70%" dy="-0.6em">Cumulative Net Flows since Program Announcement, Until Program End + 30 Days - At Last Price</tspan><tspan dy="0.42em">​</tspan></tspan></text></g><g class="g-xtitle"><text class="xtitle" x="350" y="460.3" text-anchor="middle" style="font-family: 'Open Sans', verdana, arial, sans-serif; font-size: 14px; fill: rgb(42, 63, 95); opacity: 1; font-weight: normal; white-space: pre;">Day</text></g><g class="g-ytitle"><text class="ytitle" transform="rotate(-90,24.340625000000003,260)" x="24.340625000000003" y="260" text-anchor="middle" style="font-family: 'Open Sans', verdana, arial, sans-serif; font-size: 14px; fill: rgb(42, 63, 95); opacity: 1; font-weight: normal; white-space: pre;">Cumulative Net Flows (USD)</text></g></g></svg>