<svg class="main-svg" xmlns="http://www.w3.org/2000/svg" xmlns:xlink="http://www.w3.org/1999/xlink" width="700" height="500" style="" viewBox="0 0 700 500"><rect x="0" y="0" width="700" height="500" style="fill: rgb(255, 255, 255); fill-opacity: 1;"/><defs id="defs-703ee5"><g class="clips"><clipPath id="clip703ee5xyplot" class="plotclip"><rect width="540" height="320"/></clipPath><clipPath class="axesclip" id="clip703ee5x"><rect x="80" y="0" width="540" height="500"/></clipPath><clipPath class="axesclip" id="clip703ee5y"><rect x="0" y="100" width="700" height="320"/></clipPath><clipPath class="axesclip" id="clip703ee5xy"><rect x="80" y="100" width="540" height="320"/></clipPath></g><g class="gradients"/><g class="patterns"/></defs><g class="bglayer"><rect class="bg" x="80" y="100" width="540" height="320" style="fill: rgb(229, 236, 246); fill-opacity: 1; stroke-width: 0;"/></g><g class="layer-below"><g class="imagelayer"/><g class="shapelayer"/></g><g class="cartesianlayer"><g class="subplot xy"><g class="layer-subplot"><g class="shapelayer"/><g class="imagelayer"/></g><g class="minor-gridlayer"><g class="x"/><g class="y"/></g><g class="gridlayer"><g class="x"><path class="xgrid crisp" transform="translate(123.49000000000001,0)" d="M0,100v320" style="stroke: rgb(255, 255, 255); stroke-opacity: 1; stroke-width: 1px;"/><path class="xgrid crisp" transform="translate(234.03,0)" d="M0,100v320" style="stroke: rgb(255, 255, 255); stroke-opacity: 1; stroke-width: 1px;"/><path class="xgrid crisp" transform="translate(346.38,0)" d="M0,100v320" style="stroke: rgb(255, 255, 255); stroke-opacity: 1; stroke-width: 1px;"/><path class="xgrid crisp" transform="translate(456.91,0)" d="M0,100v320" style="stroke: rgb(255, 255, 255); stroke-opacity: 1; stroke-width: 1px;"/><path class="xgrid crisp" transform="translate(567.45,0)" d="M0,100v320" style="stroke: rgb(255, 255, 255); stroke-opacity: 1; stroke-width: 1px;"/></g><g class="y"><path class="ygrid crisp" transform="translate(0,305.88)" d="M80,0h540" style="stroke: rgb(255, 255, 255); stroke-opacity: 1; stroke-width: 1px;"/><path class="ygrid crisp" transform="translate(0,229.24)" d="M80,0h540" style="stroke: rgb(255, 255, 255); stroke-opacity: 1; stroke-width: 1px;"/><path class="ygrid crisp" transform="translate(0,152.61)" d="M80,0h540" style="stroke: rgb(255, 255, 255); stroke-opacity: 1; stroke-width: 1px;"/></g></g><g class="zerolinelayer"><path class="yzl zl crisp" transform="translate(0,382.51)" d="M80,0h540" style="stroke: rgb(255, 255, 255); stroke-opacity: 1; stroke-width: 2px;"/></g><path class="xlines-below"/><path class="ylines-below"/><g class="overlines-below"/><g class="xaxislayer-below"/><g class="yaxislayer-below"/><g class="overaxes-below"/><g class="plot" transform="translate(80,100)" clip-path="url(#clip703ee5xyplot)"><g class="scatterlayer mlayer"><g class="trace scatter trace24ea29" style="stroke-miterlimit: 2;"><g class="fills"><g><path class="js-fill" d="M540,282.51L0,282.51L0,120.75L1.81,124.8L3.62,137.05L5.44,140.74L7.25,147.59L9.06,148.33L10.87,131.15L14.5,110.81L16.31,82.06L19.93,65.03L21.74,64.72L23.56,43.08L25.37,37.25L30.81,19.09L32.62,21.51L34.43,19.79L36.24,19.87L38.05,16L39.87,30.18L41.68,30.61L43.49,35.13L45.3,35.27L47.11,38.05L50.74,35.46L52.55,44.32L54.36,44.72L56.17,47.08L57.99,53.25L59.8,54.06L61.61,53.76L63.42,50.03L65.23,48.15L67.05,49.72L68.86,48.11L70.67,48.11L72.48,48.4L74.3,39.32L77.92,38.34L79.73,38.12L83.36,38.35L85.17,38.25L86.98,35.6L88.79,34.81L90.6,34.77L92.42,42.32L94.23,38.01L96.04,44.14L97.85,60.9L99.66,59.43L101.48,51.12L103.29,51.28L105.1,50.5L106.91,58.93L108.72,43.24L110.54,41.22L112.35,57.27L114.16,58.84L115.97,80.45L117.79,84.73L121.41,86.03L123.22,87.37L125.03,89.84L126.85,90.07L128.66,88.34L130.47,88.45L134.09,88.89L135.91,85.63L137.72,127.49L139.53,129.84L143.15,131.02L144.97,132.72L148.59,154.29L150.4,223.25L152.21,235.3L154.03,262.2L157.65,265.73L159.46,266.29L163.09,267.19L164.9,268.65L166.71,268.89L168.52,293.82L173.96,294.71L175.77,296.05L179.4,296.88L181.21,297.01L190.27,297.5L192.08,298.44L199.33,299.12L201.14,299.23L213.83,300.35L215.64,300.94L253.69,301.17L255.5,303.1L257.32,301.41L259.13,301.44L291.74,301.8L293.56,303.28L295.37,303.28L297.18,301.84L306.24,301.86L308.05,303.31L309.87,301.86L311.68,301.86L313.49,303.31L315.3,301.87L340.67,302.05L342.48,303.41L344.3,303.41L346.11,302.01L347.92,303.42L349.73,302L355.17,302.07L356.98,303.52L358.79,302.02L360.6,302.02L366.04,302.1L367.85,303.64L369.66,302.24L371.48,302.24L373.29,303.66L375.1,302.24L382.35,302.28L384.16,303.68L385.97,302.21L387.79,303.68L389.6,302.21L391.41,302.21L400.47,302.55L402.28,303.78L404.09,302.53L405.91,303.22L507.38,303.57L509.19,304L511.01,303.59L512.82,303.99L516.44,303.59L518.26,303.59L540,303.61" style="fill: rgb(99, 110, 250); fill-opacity: 0.5; stroke-width: 0;"/></g></g><g class="errorbars"/><g class="lines"><path class="js-line" d="M0,120.75L1.81,124.8L3.62,137.05L5.44,140.74L7.25,147.59L9.06,148.33L10.87,131.15L14.5,110.81L16.31,82.06L19.93,65.03L21.74,64.72L23.56,43.08L25.37,37.25L30.81,19.09L32.62,21.51L34.43,19.79L36.24,19.87L38.05,16L39.87,30.18L41.68,30.61L43.49,35.13L45.3,35.27L47.11,38.05L50.74,35.46L52.55,44.32L54.36,44.72L56.17,47.08L57.99,53.25L59.8,54.06L61.61,53.76L63.42,50.03L65.23,48.15L67.05,49.72L68.86,48.11L70.67,48.11L72.48,48.4L74.3,39.32L77.92,38.34L79.73,38.12L83.36,38.35L85.17,38.25L86.98,35.6L88.79,34.81L90.6,34.77L92.42,42.32L94.23,38.01L96.04,44.14L97.85,60.9L99.66,59.43L101.48,51.12L103.29,51.28L105.1,50.5L106.91,58.93L108.72,43.24L110.54,41.22L112.35,57.27L114.16,58.84L115.97,80.45L117.79,84.73L121.41,86.03L123.22,87.37L125.03,89.84L126.85,90.07L128.66,88.34L130.47,88.45L134.09,88.89L135.91,85.63L137.72,127.49L139.53,129.84L143.15,131.02L144.97,132.72L148.59,154.29L150.4,223.25L152.21,235.3L154.03,262.2L157.65,265.73L159.46,266.29L163.09,267.19L164.9,268.65L166.71,268.89L168.52,293.82L173.96,294.71L175.77,296.05L179.4,296.88L181.21,297.01L190.27,297.5L192.08,298.44L199.33,299.12L201.14,299.23L213.83,300.35L215.64,300.94L253.69,301.17L255.5,303.1L257.32,301.41L259.13,301.44L291.74,301.8L293.56,303.28L295.37,303.28L297.18,301.84L306.24,301.86L308.05,303.31L309.87,301.86L311.68,301.86L313.49,303.31L315.3,301.87L340.67,302.05L342.48,303.41L344.3,303.41L346.11,302.01L347.92,303.42L349.73,302L355.17,302.07L356.98,303.52L358.79,302.02L360.6,302.02L366.04,302.1L367.85,303.64L369.66,302.24L371.48,302.24L373.29,303.66L375.1,302.24L382.35,302.28L384.16,303.68L385.97,302.21L387.79,303.68L389.6,302.21L391.41,302.21L400.47,302.55L402.28,303.78L404.09,302.53L405.91,303.22L507.38,303.57L509.19,304L511.01,303.59L512.82,303.99L516.44,303.59L518.26,303.59L540,303.61" style="vector-effect: none; fill: none; stroke: rgb(99, 110, 250); stroke-opacity: 1; stroke-width: 2px; opacity: 1;"/></g><g class="points"/><g class="text"/></g></g></g><g class="overplot"/><path class="xlines-above crisp" d="M0,0" style="fill: none;"/><path class="ylines-above crisp" d="M0,0" style="fill: none;"/><g class="overlines-above"/><g class="xaxislayer-above"><g class="xtick"><text text-anchor="middle" x="0" y="433" transform="translate(123.49000000000001,0)" style="font-family: 'Open Sans', verdana, arial, sans-serif; font-size: 12px; fill: rgb(42, 63, 95); fill-opacity: 1; white-space: pre; opacity: 1;">May 2023</text></g><g class="xtick"><text text-anchor="middle" x="0" y="433" style="font-family: 'Open Sans', verdana, arial, sans-serif; font-size: 12px; fill: rgb(42, 63, 95); fill-opacity: 1; white-space: pre; opacity: 1;" transform="translate(234.03,0)">Jul 2023</text></g><g class="xtick"><text text-anchor="middle" x="0" y="433" style="font-family: 'Open Sans', verdana, arial, sans-serif; font-size: 12px; fill: rgb(42, 63, 95); fill-opacity: 1; white-space: pre; opacity: 1;" transform="translate(346.38,0)">Sep 2023</text></g><g class="xtick"><text text-anchor="middle" x="0" y="433" style="font-family: 'Open Sans', verdana, arial, sans-serif; font-size: 12px; fill: rgb(42, 63, 95); fill-opacity: 1; white-space: pre; opacity: 1;" transform="translate(456.91,0)">Nov 2023</text></g><g class="xtick"><text text-anchor="middle" x="0" y="433" style="font-family: 'Open Sans', verdana, arial, sans-serif; font-size: 12px; fill: rgb(42, 63, 95); fill-opacity: 1; white-space: pre; opacity: 1;" transform="translate(567.45,0)">Jan 2024</text></g></g><g class="yaxislayer-above"><g class="ytick"><text text-anchor="end" x="79" y="4.199999999999999" transform="translate(0,382.51)" style="font-family: 'Open Sans', verdana, arial, sans-serif; font-size: 12px; fill: rgb(42, 63, 95); fill-opacity: 1; white-space: pre; opacity: 1;">$0</text></g><g class="ytick"><text text-anchor="end" x="79" y="4.199999999999999" style="font-family: 'Open Sans', verdana, arial, sans-serif; font-size: 12px; fill: rgb(42, 63, 95); fill-opacity: 1; white-space: pre; opacity: 1;" transform="translate(0,305.88)">$5M</text></g><g class="ytick"><text text-anchor="end" x="79" y="4.199999999999999" style="font-family: 'Open Sans', verdana, arial, sans-serif; font-size: 12px; fill: rgb(42, 63, 95); fill-opacity: 1; white-space: pre; opacity: 1;" transform="translate(0,229.24)">$10M</text></g><g class="ytick"><text text-anchor="end" x="79" y="4.199999999999999" style="font-family: 'Open Sans', verdana, arial, sans-serif; font-size: 12px; fill: rgb(42, 63, 95); fill-opacity: 1; white-space: pre; opacity: 1;" transform="translate(0,152.61)">$15M</text></g></g><g class="overaxes-above"/></g></g><g class="polarlayer"/><g class="smithlayer"/><g class="ternarylayer"/><g class="geolayer"/><g class="funnelarealayer"/><g class="pielayer"/><g class="iciclelayer"/><g class="treemaplayer"/><g class="sunburstlayer"/><g class="glimages"/><defs id="topdefs-703ee5"><g class="clips"/></defs><g class="layer-above"><g class="imagelayer"/><g class="shapelayer"/></g><g class="infolayer"><g class="g-gtitle"><text class="gtitle" x="35" y="50" text-anchor="start" dy="0em" style="font-family: 'Open Sans', verdana, arial, sans-serif; font-size: 17px; fill: rgb(42, 63, 95); opacity: 1; font-weight: normal; white-space: pre;"><tspan class="line" dy="0em" x="35" y="50">Lido - All Lido Velo Pools</tspan><tspan class="line" dy="1.3em" x="35" y="50">​<tspan style="font-size:70%" dy="-0.6em">Cumulative Net Flows since Program Announcement, Until Program End + 30 Days - At Last Price</tspan><tspan dy="0.42em">​</tspan></tspan></text></g><g class="g-xtitle"><text class="xtitle" x="350" y="460.3" text-anchor="middle" style="font-family: 'Open Sans', verdana, arial, sans-serif; font-size: 14px; fill: rgb(42, 63, 95); opacity: 1; font-weight: normal; white-space: pre;">Day</text></g><g class="g-ytitle"><text class="ytitle" transform="rotate(-90,24.668750000000003,260)" x="24.668750000000003" y="260" text-anchor="middle" style="font-family: 'Open Sans', verdana, arial, sans-serif; font-size: 14px; fill: rgb(42, 63, 95); opacity: 1; font-weight: normal; white-space: pre;">Cumulative Net Flows (USD)</text></g></g></svg>