<svg class="main-svg" xmlns="http://www.w3.org/2000/svg" xmlns:xlink="http://www.w3.org/1999/xlink" width="700" height="500" style="" viewBox="0 0 700 500"><rect x="0" y="0" width="700" height="500" style="fill: rgb(255, 255, 255); fill-opacity: 1;"/><defs id="defs-34ae84"><g class="clips"><clipPath id="clip34ae84xyplot" class="plotclip"><rect width="540" height="320"/></clipPath><clipPath class="axesclip" id="clip34ae84x"><rect x="80" y="0" width="540" height="500"/></clipPath><clipPath class="axesclip" id="clip34ae84y"><rect x="0" y="100" width="700" height="320"/></clipPath><clipPath class="axesclip" id="clip34ae84xy"><rect x="80" y="100" width="540" height="320"/></clipPath></g><g class="gradients"/><g class="patterns"/></defs><g class="bglayer"><rect class="bg" x="80" y="100" width="540" height="320" style="fill: rgb(229, 236, 246); fill-opacity: 1; stroke-width: 0;"/></g><g class="layer-below"><g class="imagelayer"/><g class="shapelayer"/></g><g class="cartesianlayer"><g class="subplot xy"><g class="layer-subplot"><g class="shapelayer"/><g class="imagelayer"/></g><g class="minor-gridlayer"><g class="x"/><g class="y"/></g><g class="gridlayer"><g class="x"><path class="xgrid crisp" transform="translate(136.06,0)" d="M0,100v320" style="stroke: rgb(255, 255, 255); stroke-opacity: 1; stroke-width: 1px;"/><path class="xgrid crisp" transform="translate(250.03,0)" d="M0,100v320" style="stroke: rgb(255, 255, 255); stroke-opacity: 1; stroke-width: 1px;"/><path class="xgrid crisp" transform="translate(364.01,0)" d="M0,100v320" style="stroke: rgb(255, 255, 255); stroke-opacity: 1; stroke-width: 1px;"/><path class="xgrid crisp" transform="translate(479.86,0)" d="M0,100v320" style="stroke: rgb(255, 255, 255); stroke-opacity: 1; stroke-width: 1px;"/><path class="xgrid crisp" transform="translate(593.84,0)" d="M0,100v320" style="stroke: rgb(255, 255, 255); stroke-opacity: 1; stroke-width: 1px;"/></g><g class="y"><path class="ygrid crisp" transform="translate(0,367.99)" d="M80,0h540" style="stroke: rgb(255, 255, 255); stroke-opacity: 1; stroke-width: 1px;"/><path class="ygrid crisp" transform="translate(0,315.97)" d="M80,0h540" style="stroke: rgb(255, 255, 255); stroke-opacity: 1; stroke-width: 1px;"/><path class="ygrid crisp" transform="translate(0,263.96000000000004)" d="M80,0h540" style="stroke: rgb(255, 255, 255); stroke-opacity: 1; stroke-width: 1px;"/><path class="ygrid crisp" transform="translate(0,211.95)" d="M80,0h540" style="stroke: rgb(255, 255, 255); stroke-opacity: 1; stroke-width: 1px;"/><path class="ygrid crisp" transform="translate(0,159.93)" d="M80,0h540" style="stroke: rgb(255, 255, 255); stroke-opacity: 1; stroke-width: 1px;"/><path class="ygrid crisp" transform="translate(0,107.92)" d="M80,0h540" style="stroke: rgb(255, 255, 255); stroke-opacity: 1; stroke-width: 1px;"/></g></g><g class="zerolinelayer"><path class="yzl zl crisp" transform="translate(0,420)" d="M80,0h540" style="stroke: rgb(255, 255, 255); stroke-opacity: 1; stroke-width: 2px;"/></g><path class="xlines-below"/><path class="ylines-below"/><g class="overlines-below"/><g class="xaxislayer-below"/><g class="yaxislayer-below"/><g class="overaxes-below"/><g class="plot" transform="translate(80,100)" clip-path="url(#clip34ae84xyplot)"><g class="scatterlayer mlayer"><g class="trace scatter trace1a6982" style="stroke-miterlimit: 2;"><g class="fills"><g><path class="js-fill" d="M540,320L0,320L0,145.89L1.87,145.85L3.74,159.46L5.61,215.53L7.47,204.6L9.34,205.65L11.21,216.07L13.08,200.26L14.95,201.28L16.82,206.31L18.69,158.63L20.55,149.68L22.42,147.74L24.29,147.73L26.16,89.42L28.03,89.38L29.9,90.14L31.76,109.64L33.63,115.67L35.5,115.52L37.37,122.22L44.84,122.87L46.71,166.64L52.32,173L54.19,172.97L56.06,173.45L57.92,57.35L59.79,57.17L61.66,63.82L63.53,61.13L65.4,66.98L67.27,66.37L69.13,16L71,77.82L72.87,94.38L74.74,187.14L76.61,187.49L78.48,184.85L80.35,179.49L82.21,181.86L84.08,187.94L85.95,189.22L87.82,174.8L89.69,171.6L91.56,171.2L93.43,171.53L95.29,168.07L97.16,194.17L99.03,199.95L100.9,204.76L102.77,204.22L104.64,203.5L106.51,204.11L108.37,204.04L110.24,205.14L112.11,205.12L113.98,199.32L117.72,199.06L119.58,195.01L127.06,194.69L128.93,192.58L130.8,193.48L132.66,193.19L134.53,193.01L136.4,185.27L138.27,194.7L140.14,194.68L142.01,194.93L143.88,200.11L145.74,199.26L147.61,203.42L153.22,203.47L155.09,204.77L158.82,205.33L160.69,213.77L164.43,213.8L166.3,220.18L168.17,217.1L170.03,217.09L173.77,217.07L175.64,274.63L186.85,274.74L188.72,234.32L190.59,234L192.46,225.84L196.19,224.93L198.06,222.93L201.8,222.89L203.67,228.08L224.22,227.78L226.09,226.4L229.83,226.31L231.7,232.59L239.17,232.54L241.04,231.75L252.25,231.64L254.12,253.96L255.99,253.96L257.85,255.28L259.72,232.11L261.59,232.23L263.46,232.21L265.33,231.31L267.2,257.25L269.07,271.51L270.93,275.08L272.8,275.13L274.67,288.78L276.54,289.42L278.41,295.96L280.28,298.43L282.15,302.91L284.01,304.45L289.62,304.94L291.49,305.58L298.96,305.61L300.83,306.77L313.91,306.88L315.78,307.96L317.65,307.96L319.52,309.32L334.46,309.33L336.33,312.02L338.2,312.02L340.07,312.84L349.41,312.84L351.28,313.63L366.23,313.67L368.1,314.55L497.02,314.6L498.89,316.55L510.1,316.61L511.97,319.23L540,319.23" style="fill: rgb(99, 110, 250); fill-opacity: 0.5; stroke-width: 0;"/></g></g><g class="errorbars"/><g class="lines"><path class="js-line" d="M0,145.89L1.87,145.85L3.74,159.46L5.61,215.53L7.47,204.6L9.34,205.65L11.21,216.07L13.08,200.26L14.95,201.28L16.82,206.31L18.69,158.63L20.55,149.68L22.42,147.74L24.29,147.73L26.16,89.42L28.03,89.38L29.9,90.14L31.76,109.64L33.63,115.67L35.5,115.52L37.37,122.22L44.84,122.87L46.71,166.64L52.32,173L54.19,172.97L56.06,173.45L57.92,57.35L59.79,57.17L61.66,63.82L63.53,61.13L65.4,66.98L67.27,66.37L69.13,16L71,77.82L72.87,94.38L74.74,187.14L76.61,187.49L78.48,184.85L80.35,179.49L82.21,181.86L84.08,187.94L85.95,189.22L87.82,174.8L89.69,171.6L91.56,171.2L93.43,171.53L95.29,168.07L97.16,194.17L99.03,199.95L100.9,204.76L102.77,204.22L104.64,203.5L106.51,204.11L108.37,204.04L110.24,205.14L112.11,205.12L113.98,199.32L117.72,199.06L119.58,195.01L127.06,194.69L128.93,192.58L130.8,193.48L132.66,193.19L134.53,193.01L136.4,185.27L138.27,194.7L140.14,194.68L142.01,194.93L143.88,200.11L145.74,199.26L147.61,203.42L153.22,203.47L155.09,204.77L158.82,205.33L160.69,213.77L164.43,213.8L166.3,220.18L168.17,217.1L170.03,217.09L173.77,217.07L175.64,274.63L186.85,274.74L188.72,234.32L190.59,234L192.46,225.84L196.19,224.93L198.06,222.93L201.8,222.89L203.67,228.08L224.22,227.78L226.09,226.4L229.83,226.31L231.7,232.59L239.17,232.54L241.04,231.75L252.25,231.64L254.12,253.96L255.99,253.96L257.85,255.28L259.72,232.11L261.59,232.23L263.46,232.21L265.33,231.31L267.2,257.25L269.07,271.51L270.93,275.08L272.8,275.13L274.67,288.78L276.54,289.42L278.41,295.96L280.28,298.43L282.15,302.91L284.01,304.45L289.62,304.94L291.49,305.58L298.96,305.61L300.83,306.77L313.91,306.88L315.78,307.96L317.65,307.96L319.52,309.32L334.46,309.33L336.33,312.02L338.2,312.02L340.07,312.84L349.41,312.84L351.28,313.63L366.23,313.67L368.1,314.55L497.02,314.6L498.89,316.55L510.1,316.61L511.97,319.23L540,319.23" style="vector-effect: none; fill: none; stroke: rgb(99, 110, 250); stroke-opacity: 1; stroke-width: 2px; opacity: 1;"/></g><g class="points"/><g class="text"/></g></g></g><g class="overplot"/><path class="xlines-above crisp" d="M0,0" style="fill: none;"/><path class="ylines-above crisp" d="M0,0" style="fill: none;"/><g class="overlines-above"/><g class="xaxislayer-above"><g class="xtick"><text text-anchor="middle" x="0" y="433" transform="translate(136.06,0)" style="font-family: 'Open Sans', verdana, arial, sans-serif; font-size: 12px; fill: rgb(42, 63, 95); fill-opacity: 1; white-space: pre; opacity: 1;">Mar 2023</text></g><g class="xtick"><text text-anchor="middle" x="0" y="433" style="font-family: 'Open Sans', verdana, arial, sans-serif; font-size: 12px; fill: rgb(42, 63, 95); fill-opacity: 1; white-space: pre; opacity: 1;" transform="translate(250.03,0)">May 2023</text></g><g class="xtick"><text text-anchor="middle" x="0" y="433" style="font-family: 'Open Sans', verdana, arial, sans-serif; font-size: 12px; fill: rgb(42, 63, 95); fill-opacity: 1; white-space: pre; opacity: 1;" transform="translate(364.01,0)">Jul 2023</text></g><g class="xtick"><text text-anchor="middle" x="0" y="433" style="font-family: 'Open Sans', verdana, arial, sans-serif; font-size: 12px; fill: rgb(42, 63, 95); fill-opacity: 1; white-space: pre; opacity: 1;" transform="translate(479.86,0)">Sep 2023</text></g><g class="xtick"><text text-anchor="middle" x="0" y="433" style="font-family: 'Open Sans', verdana, arial, sans-serif; font-size: 12px; fill: rgb(42, 63, 95); fill-opacity: 1; white-space: pre; opacity: 1;" transform="translate(593.84,0)">Nov 2023</text></g></g><g class="yaxislayer-above"><g class="ytick"><text text-anchor="end" x="79" y="4.199999999999999" transform="translate(0,420)" style="font-family: 'Open Sans', verdana, arial, sans-serif; font-size: 12px; fill: rgb(42, 63, 95); fill-opacity: 1; white-space: pre; opacity: 1;">$0</text></g><g class="ytick"><text text-anchor="end" x="79" y="4.199999999999999" style="font-family: 'Open Sans', verdana, arial, sans-serif; font-size: 12px; fill: rgb(42, 63, 95); fill-opacity: 1; white-space: pre; opacity: 1;" transform="translate(0,367.99)">$0.2M</text></g><g class="ytick"><text text-anchor="end" x="79" y="4.199999999999999" style="font-family: 'Open Sans', verdana, arial, sans-serif; font-size: 12px; fill: rgb(42, 63, 95); fill-opacity: 1; white-space: pre; opacity: 1;" transform="translate(0,315.97)">$0.4M</text></g><g class="ytick"><text text-anchor="end" x="79" y="4.199999999999999" style="font-family: 'Open Sans', verdana, arial, sans-serif; font-size: 12px; fill: rgb(42, 63, 95); fill-opacity: 1; white-space: pre; opacity: 1;" transform="translate(0,263.96000000000004)">$0.6M</text></g><g class="ytick"><text text-anchor="end" x="79" y="4.199999999999999" style="font-family: 'Open Sans', verdana, arial, sans-serif; font-size: 12px; fill: rgb(42, 63, 95); fill-opacity: 1; white-space: pre; opacity: 1;" transform="translate(0,211.95)">$0.8M</text></g><g class="ytick"><text text-anchor="end" x="79" y="4.199999999999999" style="font-family: 'Open Sans', verdana, arial, sans-serif; font-size: 12px; fill: rgb(42, 63, 95); fill-opacity: 1; white-space: pre; opacity: 1;" transform="translate(0,159.93)">$1M</text></g><g class="ytick"><text text-anchor="end" x="79" y="4.199999999999999" style="font-family: 'Open Sans', verdana, arial, sans-serif; font-size: 12px; fill: rgb(42, 63, 95); fill-opacity: 1; white-space: pre; opacity: 1;" transform="translate(0,107.92)">$1.2M</text></g></g><g class="overaxes-above"/></g></g><g class="polarlayer"/><g class="smithlayer"/><g class="ternarylayer"/><g class="geolayer"/><g class="funnelarealayer"/><g class="pielayer"/><g class="iciclelayer"/><g class="treemaplayer"/><g class="sunburstlayer"/><g class="glimages"/><defs id="topdefs-34ae84"><g class="clips"/></defs><g class="layer-above"><g class="imagelayer"/><g class="shapelayer"/></g><g class="infolayer"><g class="g-gtitle"><text class="gtitle" x="35" y="50" text-anchor="start" dy="0em" style="font-family: 'Open Sans', verdana, arial, sans-serif; font-size: 17px; fill: rgb(42, 63, 95); opacity: 1; font-weight: normal; white-space: pre;"><tspan class="line" dy="0em" x="35" y="50">Overnight - USD+/LUSD: Velodrome</tspan><tspan class="line" dy="1.3em" x="35" y="50">​<tspan style="font-size:70%" dy="-0.6em">Cumulative Net Flows since Program Announcement, Until Program End + 30 Days - At Last Price</tspan><tspan dy="0.42em">​</tspan></tspan></text></g><g class="g-xtitle"><text class="xtitle" x="350" y="460.3" text-anchor="middle" style="font-family: 'Open Sans', verdana, arial, sans-serif; font-size: 14px; fill: rgb(42, 63, 95); opacity: 1; font-weight: normal; white-space: pre;">Day</text></g><g class="g-ytitle"><text class="ytitle" transform="rotate(-90,21.340625000000003,260)" x="21.340625000000003" y="260" text-anchor="middle" style="font-family: 'Open Sans', verdana, arial, sans-serif; font-size: 14px; fill: rgb(42, 63, 95); opacity: 1; font-weight: normal; white-space: pre;">Cumulative Net Flows (USD)</text></g></g></svg>