<svg class="main-svg" xmlns="http://www.w3.org/2000/svg" xmlns:xlink="http://www.w3.org/1999/xlink" width="700" height="500" style="" viewBox="0 0 700 500"><rect x="0" y="0" width="700" height="500" style="fill: rgb(255, 255, 255); fill-opacity: 1;"/><defs id="defs-bea4d3"><g class="clips"><clipPath id="clipbea4d3xyplot" class="plotclip"><rect width="540" height="320"/></clipPath><clipPath class="axesclip" id="clipbea4d3x"><rect x="80" y="0" width="540" height="500"/></clipPath><clipPath class="axesclip" id="clipbea4d3y"><rect x="0" y="100" width="700" height="320"/></clipPath><clipPath class="axesclip" id="clipbea4d3xy"><rect x="80" y="100" width="540" height="320"/></clipPath></g><g class="gradients"/><g class="patterns"/></defs><g class="bglayer"><rect class="bg" x="80" y="100" width="540" height="320" style="fill: rgb(229, 236, 246); fill-opacity: 1; stroke-width: 0;"/></g><g class="layer-below"><g class="imagelayer"/><g class="shapelayer"/></g><g class="cartesianlayer"><g class="subplot xy"><g class="layer-subplot"><g class="shapelayer"/><g class="imagelayer"/></g><g class="minor-gridlayer"><g class="x"/><g class="y"/></g><g class="gridlayer"><g class="x"><path class="xgrid crisp" transform="translate(84.44,0)" d="M0,100v320" style="stroke: rgb(255, 255, 255); stroke-opacity: 1; stroke-width: 1px;"/><path class="xgrid crisp" transform="translate(186.45,0)" d="M0,100v320" style="stroke: rgb(255, 255, 255); stroke-opacity: 1; stroke-width: 1px;"/><path class="xgrid crisp" transform="translate(286.24,0)" d="M0,100v320" style="stroke: rgb(255, 255, 255); stroke-opacity: 1; stroke-width: 1px;"/><path class="xgrid crisp" transform="translate(387.15,0)" d="M0,100v320" style="stroke: rgb(255, 255, 255); stroke-opacity: 1; stroke-width: 1px;"/><path class="xgrid crisp" transform="translate(489.16,0)" d="M0,100v320" style="stroke: rgb(255, 255, 255); stroke-opacity: 1; stroke-width: 1px;"/><path class="xgrid crisp" transform="translate(591.1700000000001,0)" d="M0,100v320" style="stroke: rgb(255, 255, 255); stroke-opacity: 1; stroke-width: 1px;"/></g><g class="y"><path class="ygrid crisp" transform="translate(0,381.45)" d="M80,0h540" style="stroke: rgb(255, 255, 255); stroke-opacity: 1; stroke-width: 1px;"/><path class="ygrid crisp" transform="translate(0,241.81)" d="M80,0h540" style="stroke: rgb(255, 255, 255); stroke-opacity: 1; stroke-width: 1px;"/><path class="ygrid crisp" transform="translate(0,171.98000000000002)" d="M80,0h540" style="stroke: rgb(255, 255, 255); stroke-opacity: 1; stroke-width: 1px;"/><path class="ygrid crisp" transform="translate(0,102.16)" d="M80,0h540" style="stroke: rgb(255, 255, 255); stroke-opacity: 1; stroke-width: 1px;"/></g></g><g class="zerolinelayer"><path class="yzl zl crisp" transform="translate(0,311.63)" d="M80,0h540" style="stroke: rgb(255, 255, 255); stroke-opacity: 1; stroke-width: 2px;"/></g><path class="xlines-below"/><path class="ylines-below"/><g class="overlines-below"/><g class="xaxislayer-below"/><g class="yaxislayer-below"/><g class="overaxes-below"/><g class="plot" transform="translate(80,100)" clip-path="url(#clipbea4d3xyplot)"><g class="scatterlayer mlayer"><g class="trace scatter trace05f3a5" style="stroke-miterlimit: 2;"><g class="fills"><g><path class="js-fill" d="M540,211.63L0,211.63L0,211.67L22.18,211.57L23.29,204.7L25.5,204.57L26.61,207.02L27.72,207.14L28.83,205.8L31.05,206.83L32.16,211.15L35.48,203.6L36.59,203.95L39.92,203.32L41.03,203.37L45.46,202.55L46.57,213.47L47.68,214.65L48.79,224.86L49.9,223.59L51.01,224.25L52.11,224.26L53.22,225.17L54.33,216.65L55.44,215.39L56.55,219.18L57.66,218.01L58.77,217.12L59.88,217.62L63.2,219.7L64.31,219.37L65.42,218.48L66.53,213.97L67.64,213.6L68.75,218.21L69.86,218.64L70.97,217.98L73.18,209.59L74.29,209.56L75.4,210.04L76.51,208.33L77.62,207.58L78.73,203.8L79.84,203.5L80.94,201.41L82.05,207.51L83.16,186.28L84.27,197.06L85.38,197.24L86.49,201.46L87.6,214.77L88.71,214.92L89.82,220.45L90.92,221.24L92.03,220.88L93.14,215.84L94.25,215.93L95.36,217.45L96.47,217.69L100.9,217.91L102.01,218.8L108.67,218.43L109.77,218.32L110.88,218.19L111.99,219.98L113.1,217.71L114.21,217.54L115.32,214.53L116.43,213.8L117.54,213.66L118.64,212.37L120.86,210.59L121.97,210.85L123.08,210.73L124.19,208.24L125.3,207.83L126.41,201.93L128.62,194.76L129.73,198.15L135.28,160.81L136.39,157.11L137.49,157.14L138.6,154.56L139.71,145.87L140.82,143.56L143.04,136.78L144.15,135.77L145.26,131.81L146.37,109.18L147.47,107.6L148.58,93.99L149.69,96.36L150.8,96.46L153.02,84.92L154.13,84.19L155.24,84.23L156.34,81.03L157.45,82.29L158.56,77.26L159.67,75.81L160.78,66.13L163,57.34L164.11,64.46L165.22,60.5L166.32,48.4L167.43,48.98L168.54,48.1L170.76,35L171.87,23.43L172.98,17.52L174.09,17.26L175.2,16L176.3,16.94L177.41,16.08L178.52,19.18L179.63,20.64L180.74,25.82L181.85,91.61L182.96,223.09L184.07,222.34L185.17,201.44L186.28,157.3L187.39,151.01L188.5,141.38L189.61,118.49L191.83,67.23L192.94,64.22L194.05,66.76L195.15,66.42L197.37,75.54L198.48,78.58L199.59,78.93L200.7,85.06L201.81,85.05L202.92,88.37L204.02,88.9L205.13,82.77L207.35,82.71L208.46,86.77L209.57,92.47L210.68,90.89L212.9,84.04L214,84.69L215.11,98.01L216.22,101.89L217.33,102.98L218.44,102.42L219.55,101.97L220.66,88.38L221.77,90.25L222.87,90.28L227.31,90.28L228.42,93.47L229.53,87.31L230.64,87.48L232.85,73.77L233.96,70.31L235.07,72.95L236.18,71.89L238.4,71.12L239.51,71.3L241.72,74.32L242.83,78.07L243.94,79.73L245.05,84.33L246.16,84.32L247.27,88.95L249.49,94.17L250.6,101.18L251.7,101.83L252.81,101.55L253.92,101.6L255.03,103.06L256.14,97.2L257.25,97.36L258.36,99.28L259.47,97.06L260.57,101.13L261.68,101.28L263.9,101.14L265.01,101.49L267.23,102.14L268.34,107.41L269.45,106.89L270.55,107.43L272.77,108.1L273.88,110.13L274.99,110.52L276.1,113.37L278.32,114.13L279.43,118.73L281.64,100.26L282.75,100.42L283.86,114.36L284.97,115.32L287.19,115.31L288.3,116.11L289.4,130.95L290.51,134.63L291.62,131.97L292.73,132.05L294.95,144.05L296.06,151.25L298.28,151.7L299.38,152.43L300.49,152.86L301.6,157.62L302.71,160.53L303.82,173.6L306.04,194.67L307.15,200.89L308.25,201.77L309.36,207.12L310.47,223.66L311.58,223.79L314.91,224.65L316.02,224.68L317.13,225.13L318.23,226.73L319.34,279.48L320.45,279.57L321.56,290.9L322.67,290.9L324.89,292L326,292.05L327.1,294.05L328.21,294.29L339.3,295.12L340.41,295.26L353.72,295.35L354.83,296.15L483.45,297.44L484.56,303.96L540,303.97" style="fill: rgb(99, 110, 250); fill-opacity: 0.5; stroke-width: 0;"/></g></g><g class="errorbars"/><g class="lines"><path class="js-line" d="M0,211.67L22.18,211.57L23.29,204.7L25.5,204.57L26.61,207.02L27.72,207.14L28.83,205.8L31.05,206.83L32.16,211.15L35.48,203.6L36.59,203.95L39.92,203.32L41.03,203.37L45.46,202.55L46.57,213.47L47.68,214.65L48.79,224.86L49.9,223.59L51.01,224.25L52.11,224.26L53.22,225.17L54.33,216.65L55.44,215.39L56.55,219.18L57.66,218.01L58.77,217.12L59.88,217.62L63.2,219.7L64.31,219.37L65.42,218.48L66.53,213.97L67.64,213.6L68.75,218.21L69.86,218.64L70.97,217.98L73.18,209.59L74.29,209.56L75.4,210.04L76.51,208.33L77.62,207.58L78.73,203.8L79.84,203.5L80.94,201.41L82.05,207.51L83.16,186.28L84.27,197.06L85.38,197.24L86.49,201.46L87.6,214.77L88.71,214.92L89.82,220.45L90.92,221.24L92.03,220.88L93.14,215.84L94.25,215.93L95.36,217.45L96.47,217.69L100.9,217.91L102.01,218.8L108.67,218.43L109.77,218.32L110.88,218.19L111.99,219.98L113.1,217.71L114.21,217.54L115.32,214.53L116.43,213.8L117.54,213.66L118.64,212.37L120.86,210.59L121.97,210.85L123.08,210.73L124.19,208.24L125.3,207.83L126.41,201.93L128.62,194.76L129.73,198.15L135.28,160.81L136.39,157.11L137.49,157.14L138.6,154.56L139.71,145.87L140.82,143.56L143.04,136.78L144.15,135.77L145.26,131.81L146.37,109.18L147.47,107.6L148.58,93.99L149.69,96.36L150.8,96.46L153.02,84.92L154.13,84.19L155.24,84.23L156.34,81.03L157.45,82.29L158.56,77.26L159.67,75.81L160.78,66.13L163,57.34L164.11,64.46L165.22,60.5L166.32,48.4L167.43,48.98L168.54,48.1L170.76,35L171.87,23.43L172.98,17.52L174.09,17.26L175.2,16L176.3,16.94L177.41,16.08L178.52,19.18L179.63,20.64L180.74,25.82L181.85,91.61L182.96,223.09L184.07,222.34L185.17,201.44L186.28,157.3L187.39,151.01L188.5,141.38L189.61,118.49L191.83,67.23L192.94,64.22L194.05,66.76L195.15,66.42L197.37,75.54L198.48,78.58L199.59,78.93L200.7,85.06L201.81,85.05L202.92,88.37L204.02,88.9L205.13,82.77L207.35,82.71L208.46,86.77L209.57,92.47L210.68,90.89L212.9,84.04L214,84.69L215.11,98.01L216.22,101.89L217.33,102.98L218.44,102.42L219.55,101.97L220.66,88.38L221.77,90.25L222.87,90.28L227.31,90.28L228.42,93.47L229.53,87.31L230.64,87.48L232.85,73.77L233.96,70.31L235.07,72.95L236.18,71.89L238.4,71.12L239.51,71.3L241.72,74.32L242.83,78.07L243.94,79.73L245.05,84.33L246.16,84.32L247.27,88.95L249.49,94.17L250.6,101.18L251.7,101.83L252.81,101.55L253.92,101.6L255.03,103.06L256.14,97.2L257.25,97.36L258.36,99.28L259.47,97.06L260.57,101.13L261.68,101.28L263.9,101.14L265.01,101.49L267.23,102.14L268.34,107.41L269.45,106.89L270.55,107.43L272.77,108.1L273.88,110.13L274.99,110.52L276.1,113.37L278.32,114.13L279.43,118.73L281.64,100.26L282.75,100.42L283.86,114.36L284.97,115.32L287.19,115.31L288.3,116.11L289.4,130.95L290.51,134.63L291.62,131.97L292.73,132.05L294.95,144.05L296.06,151.25L298.28,151.7L299.38,152.43L300.49,152.86L301.6,157.62L302.71,160.53L303.82,173.6L306.04,194.67L307.15,200.89L308.25,201.77L309.36,207.12L310.47,223.66L311.58,223.79L314.91,224.65L316.02,224.68L317.13,225.13L318.23,226.73L319.34,279.48L320.45,279.57L321.56,290.9L322.67,290.9L324.89,292L326,292.05L327.1,294.05L328.21,294.29L339.3,295.12L340.41,295.26L353.72,295.35L354.83,296.15L483.45,297.44L484.56,303.96L540,303.97" style="vector-effect: none; fill: none; stroke: rgb(99, 110, 250); stroke-opacity: 1; stroke-width: 2px; opacity: 1;"/></g><g class="points"/><g class="text"/></g></g></g><g class="overplot"/><path class="xlines-above crisp" d="M0,0" style="fill: none;"/><path class="ylines-above crisp" d="M0,0" style="fill: none;"/><g class="overlines-above"/><g class="xaxislayer-above"><g class="xtick"><text text-anchor="middle" x="0" y="433" transform="translate(84.44,0)" style="font-family: 'Open Sans', verdana, arial, sans-serif; font-size: 12px; fill: rgb(42, 63, 95); fill-opacity: 1; white-space: pre; opacity: 1;">Oct 2022</text></g><g class="xtick"><text text-anchor="middle" x="0" y="433" style="font-family: 'Open Sans', verdana, arial, sans-serif; font-size: 12px; fill: rgb(42, 63, 95); fill-opacity: 1; white-space: pre; opacity: 1;" transform="translate(186.45,0)">Jan 2023</text></g><g class="xtick"><text text-anchor="middle" x="0" y="433" style="font-family: 'Open Sans', verdana, arial, sans-serif; font-size: 12px; fill: rgb(42, 63, 95); fill-opacity: 1; white-space: pre; opacity: 1;" transform="translate(286.24,0)">Apr 2023</text></g><g class="xtick"><text text-anchor="middle" x="0" y="433" style="font-family: 'Open Sans', verdana, arial, sans-serif; font-size: 12px; fill: rgb(42, 63, 95); fill-opacity: 1; white-space: pre; opacity: 1;" transform="translate(387.15,0)">Jul 2023</text></g><g class="xtick"><text text-anchor="middle" x="0" y="433" style="font-family: 'Open Sans', verdana, arial, sans-serif; font-size: 12px; fill: rgb(42, 63, 95); fill-opacity: 1; white-space: pre; opacity: 1;" transform="translate(489.16,0)">Oct 2023</text></g><g class="xtick"><text text-anchor="middle" x="0" y="433" style="font-family: 'Open Sans', verdana, arial, sans-serif; font-size: 12px; fill: rgb(42, 63, 95); fill-opacity: 1; white-space: pre; opacity: 1;" transform="translate(591.1700000000001,0)">Jan 2024</text></g></g><g class="yaxislayer-above"><g class="ytick"><text text-anchor="end" x="79" y="4.199999999999999" transform="translate(0,381.45)" style="font-family: 'Open Sans', verdana, arial, sans-serif; font-size: 12px; fill: rgb(42, 63, 95); fill-opacity: 1; white-space: pre; opacity: 1;">$−10M</text></g><g class="ytick"><text text-anchor="end" x="79" y="4.199999999999999" style="font-family: 'Open Sans', verdana, arial, sans-serif; font-size: 12px; fill: rgb(42, 63, 95); fill-opacity: 1; white-space: pre; opacity: 1;" transform="translate(0,311.63)">$0</text></g><g class="ytick"><text text-anchor="end" x="79" y="4.199999999999999" style="font-family: 'Open Sans', verdana, arial, sans-serif; font-size: 12px; fill: rgb(42, 63, 95); fill-opacity: 1; white-space: pre; opacity: 1;" transform="translate(0,241.81)">$10M</text></g><g class="ytick"><text text-anchor="end" x="79" y="4.199999999999999" style="font-family: 'Open Sans', verdana, arial, sans-serif; font-size: 12px; fill: rgb(42, 63, 95); fill-opacity: 1; white-space: pre; opacity: 1;" transform="translate(0,171.98000000000002)">$20M</text></g><g class="ytick"><text text-anchor="end" x="79" y="4.199999999999999" style="font-family: 'Open Sans', verdana, arial, sans-serif; font-size: 12px; fill: rgb(42, 63, 95); fill-opacity: 1; white-space: pre; opacity: 1;" transform="translate(0,102.16)">$30M</text></g></g><g class="overaxes-above"/></g></g><g class="polarlayer"/><g class="smithlayer"/><g class="ternarylayer"/><g class="geolayer"/><g class="funnelarealayer"/><g class="pielayer"/><g class="iciclelayer"/><g class="treemaplayer"/><g class="sunburstlayer"/><g class="glimages"/><defs id="topdefs-bea4d3"><g class="clips"/></defs><g class="layer-above"><g class="imagelayer"/><g class="shapelayer"/></g><g class="infolayer"><g class="g-gtitle"><text class="gtitle" x="35" y="50" text-anchor="start" dy="0em" style="font-family: 'Open Sans', verdana, arial, sans-serif; font-size: 17px; fill: rgb(42, 63, 95); opacity: 1; font-weight: normal; white-space: pre;"><tspan class="line" dy="0em" x="35" y="50">Synthetix - USDC/sUSD: Velodrome</tspan><tspan class="line" dy="1.3em" x="35" y="50">​<tspan style="font-size:70%" dy="-0.6em">Cumulative Net Flows since Program Announcement, Until Program End + 30 Days - At Last Price</tspan><tspan dy="0.42em">​</tspan></tspan></text></g><g class="g-xtitle"><text class="xtitle" x="350" y="460.3" text-anchor="middle" style="font-family: 'Open Sans', verdana, arial, sans-serif; font-size: 14px; fill: rgb(42, 63, 95); opacity: 1; font-weight: normal; white-space: pre;">Day</text></g><g class="g-ytitle"><text class="ytitle" transform="rotate(-90,17.668750000000003,260)" x="17.668750000000003" y="260" text-anchor="middle" style="font-family: 'Open Sans', verdana, arial, sans-serif; font-size: 14px; fill: rgb(42, 63, 95); opacity: 1; font-weight: normal; white-space: pre;">Cumulative Net Flows (USD)</text></g></g></svg>