<svg class="main-svg" xmlns="http://www.w3.org/2000/svg" xmlns:xlink="http://www.w3.org/1999/xlink" width="700" height="500" style="" viewBox="0 0 700 500"><rect x="0" y="0" width="700" height="500" style="fill: rgb(255, 255, 255); fill-opacity: 1;"/><defs id="defs-3c4ee3"><g class="clips"><clipPath id="clip3c4ee3xyplot" class="plotclip"><rect width="540" height="320"/></clipPath><clipPath class="axesclip" id="clip3c4ee3x"><rect x="80" y="0" width="540" height="500"/></clipPath><clipPath class="axesclip" id="clip3c4ee3y"><rect x="0" y="100" width="700" height="320"/></clipPath><clipPath class="axesclip" id="clip3c4ee3xy"><rect x="80" y="100" width="540" height="320"/></clipPath></g><g class="gradients"/><g class="patterns"/></defs><g class="bglayer"><rect class="bg" x="80" y="100" width="540" height="320" style="fill: rgb(229, 236, 246); fill-opacity: 1; stroke-width: 0;"/></g><g class="layer-below"><g class="imagelayer"/><g class="shapelayer"/></g><g class="cartesianlayer"><g class="subplot xy"><g class="layer-subplot"><g class="shapelayer"/><g class="imagelayer"/></g><g class="minor-gridlayer"><g class="x"/><g class="y"/></g><g class="gridlayer"><g class="x"><path class="xgrid crisp" transform="translate(93.8,0)" d="M0,100v320" style="stroke: rgb(255, 255, 255); stroke-opacity: 1; stroke-width: 1px;"/><path class="xgrid crisp" transform="translate(214.01,0)" d="M0,100v320" style="stroke: rgb(255, 255, 255); stroke-opacity: 1; stroke-width: 1px;"/><path class="xgrid crisp" transform="translate(330.28999999999996,0)" d="M0,100v320" style="stroke: rgb(255, 255, 255); stroke-opacity: 1; stroke-width: 1px;"/><path class="xgrid crisp" transform="translate(450.51,0)" d="M0,100v320" style="stroke: rgb(255, 255, 255); stroke-opacity: 1; stroke-width: 1px;"/><path class="xgrid crisp" transform="translate(570.73,0)" d="M0,100v320" style="stroke: rgb(255, 255, 255); stroke-opacity: 1; stroke-width: 1px;"/></g><g class="y"><path class="ygrid crisp" transform="translate(0,383.36)" d="M80,0h540" style="stroke: rgb(255, 255, 255); stroke-opacity: 1; stroke-width: 1px;"/><path class="ygrid crisp" transform="translate(0,346.72)" d="M80,0h540" style="stroke: rgb(255, 255, 255); stroke-opacity: 1; stroke-width: 1px;"/><path class="ygrid crisp" transform="translate(0,310.08000000000004)" d="M80,0h540" style="stroke: rgb(255, 255, 255); stroke-opacity: 1; stroke-width: 1px;"/><path class="ygrid crisp" transform="translate(0,273.44)" d="M80,0h540" style="stroke: rgb(255, 255, 255); stroke-opacity: 1; stroke-width: 1px;"/><path class="ygrid crisp" transform="translate(0,236.81)" d="M80,0h540" style="stroke: rgb(255, 255, 255); stroke-opacity: 1; stroke-width: 1px;"/><path class="ygrid crisp" transform="translate(0,200.17000000000002)" d="M80,0h540" style="stroke: rgb(255, 255, 255); stroke-opacity: 1; stroke-width: 1px;"/><path class="ygrid crisp" transform="translate(0,163.53)" d="M80,0h540" style="stroke: rgb(255, 255, 255); stroke-opacity: 1; stroke-width: 1px;"/><path class="ygrid crisp" transform="translate(0,126.89)" d="M80,0h540" style="stroke: rgb(255, 255, 255); stroke-opacity: 1; stroke-width: 1px;"/></g></g><g class="zerolinelayer"><path class="yzl zl crisp" transform="translate(0,420)" d="M80,0h540" style="stroke: rgb(255, 255, 255); stroke-opacity: 1; stroke-width: 2px;"/></g><path class="xlines-below"/><path class="ylines-below"/><g class="overlines-below"/><g class="xaxislayer-below"/><g class="yaxislayer-below"/><g class="overaxes-below"/><g class="plot" transform="translate(80,100)" clip-path="url(#clip3c4ee3xyplot)"><g class="scatterlayer mlayer"><g class="trace scatter trace5286f3" style="stroke-miterlimit: 2;"><g class="fills"><g><path class="js-fill" d="M540,320L0,320L0,320L1.97,320L3.94,260.6L5.91,174.67L7.88,187.23L9.85,190.77L11.82,173.71L13.8,177.54L15.77,164.22L17.74,159.35L19.71,190.43L21.68,189.58L23.65,187.48L25.62,187.16L27.59,190.62L31.53,229.43L33.5,228.94L35.47,219.55L37.45,218.11L39.42,177.96L41.39,178.5L43.36,176.09L45.33,183.81L47.3,194.44L49.27,200.88L51.24,196.87L53.21,194.6L55.18,195.72L57.15,195.59L59.12,193.86L61.09,193.5L63.07,188.32L65.04,176.77L67.01,157.22L68.98,168.79L70.95,172.53L72.92,202.4L76.86,173.26L78.83,161.92L80.8,188.03L82.77,189.36L84.74,214.53L86.72,196.61L88.69,196.08L90.66,197.09L92.63,208.77L94.6,207.61L100.51,207.76L102.48,200.79L104.45,189.83L106.42,189.12L108.39,189.12L110.36,190.27L112.34,187L114.31,187.3L116.28,187.39L118.25,185.08L120.22,185.6L122.19,184.65L124.16,180.4L126.13,180.01L128.1,185.03L130.07,183.27L132.04,186.42L134.01,186.15L135.99,185.05L137.96,181.67L139.93,177.3L141.9,179.19L147.81,178.86L149.78,176.5L151.75,178.3L153.72,182.03L157.66,166.9L159.64,165.58L161.61,162.66L163.58,153.26L165.55,195.3L167.52,188.64L169.49,193.91L171.46,222.19L173.43,227.65L175.4,223.48L177.37,217.92L179.34,214.84L181.31,212.33L183.28,196.19L185.26,199.51L187.23,198.37L189.2,196.09L191.17,169.21L193.14,183.45L195.11,176.86L197.08,159.53L199.05,171.7L201.02,171.11L202.99,164.52L204.96,164.89L206.93,140.27L208.91,165.35L210.88,167.96L212.85,166.89L214.82,156.51L216.79,155.02L218.76,156.04L220.73,123.17L222.7,126.71L226.64,137.84L228.61,127.45L230.58,135.35L232.55,134.85L234.53,139.26L236.5,126.94L238.47,116.21L240.44,84.69L242.41,75.04L244.38,83.48L246.35,83.07L248.32,66.07L250.29,65.27L252.26,85.58L254.23,68.29L256.2,73.59L258.18,78.08L260.15,62.41L264.09,84.43L266.06,72.65L268.03,48.57L270,77.29L271.97,28L273.94,57.12L275.91,100.94L277.88,162.61L279.85,267.23L281.82,243.53L283.8,234.79L285.77,236.87L287.74,235.95L289.71,212.62L291.68,195.51L293.65,47.04L295.62,65.67L297.59,74.33L301.53,16L303.5,62.36L305.47,61.54L307.45,82.95L311.39,80.09L313.36,63.96L315.33,63.12L317.3,58.25L319.27,64.49L321.24,75.72L323.21,80.51L325.18,114.78L327.15,192.52L329.12,182.6L331.09,182.35L333.07,181.29L335.04,193.21L337.01,214L338.98,212.24L340.95,215.2L342.92,214.71L344.89,218.41L346.86,173.64L348.83,279.72L352.77,239.07L354.74,220.66L356.72,214.29L358.69,216.87L362.63,216.45L364.6,217.4L366.57,217.57L368.54,226.73L370.51,280.57L372.48,274.31L374.45,270.97L376.42,272.56L378.39,177.21L380.36,167.98L382.34,168.05L384.31,170.19L386.28,175.22L388.25,134.36L390.22,138.71L392.19,100.15L394.16,176.18L396.13,162.84L398.1,144.28L400.07,146.8L402.04,151.11L404.01,140.06L405.99,112.22L407.96,123.36L409.93,164.36L411.9,164.85L413.87,158.96L415.84,185.27L417.81,136.04L419.78,136.38L423.72,125.28L425.69,100.72L427.66,105.72L429.64,218.84L431.61,279.25L433.58,271.37L435.55,272.74L437.52,238.94L439.49,235.52L441.46,243.76L443.43,243.84L445.4,240.14L447.37,210.19L449.34,212.05L451.31,220.78L453.28,225.71L455.26,225.89L457.23,219.36L459.2,221.36L461.17,213.57L463.14,219.65L465.11,219.53L471.02,222.48L472.99,216.32L474.96,222.37L476.93,223.82L478.91,224.73L480.88,224.25L482.85,227.06L484.82,228.23L486.79,223.35L488.76,237.13L494.67,237.5L496.64,236.17L498.61,227.31L500.58,228.77L502.55,247.85L504.53,248.01L506.5,248.2L508.47,250.96L510.44,250.18L512.41,242.94L514.38,235.82L516.35,237.73L518.32,222.73L520.29,230.4L522.26,240.28L524.23,229.99L526.2,251.59L528.18,249.14L530.15,265.09L532.12,250.58L534.09,254.71L536.06,246.87L538.03,227.38L540,227.59" style="fill: rgb(99, 110, 250); fill-opacity: 0.5; stroke-width: 0;"/></g></g><g class="errorbars"/><g class="lines"><path class="js-line" d="M0,320L1.97,320L3.94,260.6L5.91,174.67L7.88,187.23L9.85,190.77L11.82,173.71L13.8,177.54L15.77,164.22L17.74,159.35L19.71,190.43L21.68,189.58L23.65,187.48L25.62,187.16L27.59,190.62L31.53,229.43L33.5,228.94L35.47,219.55L37.45,218.11L39.42,177.96L41.39,178.5L43.36,176.09L45.33,183.81L47.3,194.44L49.27,200.88L51.24,196.87L53.21,194.6L55.18,195.72L57.15,195.59L59.12,193.86L61.09,193.5L63.07,188.32L65.04,176.77L67.01,157.22L68.98,168.79L70.95,172.53L72.92,202.4L76.86,173.26L78.83,161.92L80.8,188.03L82.77,189.36L84.74,214.53L86.72,196.61L88.69,196.08L90.66,197.09L92.63,208.77L94.6,207.61L100.51,207.76L102.48,200.79L104.45,189.83L106.42,189.12L108.39,189.12L110.36,190.27L112.34,187L114.31,187.3L116.28,187.39L118.25,185.08L120.22,185.6L122.19,184.65L124.16,180.4L126.13,180.01L128.1,185.03L130.07,183.27L132.04,186.42L134.01,186.15L135.99,185.05L137.96,181.67L139.93,177.3L141.9,179.19L147.81,178.86L149.78,176.5L151.75,178.3L153.72,182.03L157.66,166.9L159.64,165.58L161.61,162.66L163.58,153.26L165.55,195.3L167.52,188.64L169.49,193.91L171.46,222.19L173.43,227.65L175.4,223.48L177.37,217.92L179.34,214.84L181.31,212.33L183.28,196.19L185.26,199.51L187.23,198.37L189.2,196.09L191.17,169.21L193.14,183.45L195.11,176.86L197.08,159.53L199.05,171.7L201.02,171.11L202.99,164.52L204.96,164.89L206.93,140.27L208.91,165.35L210.88,167.96L212.85,166.89L214.82,156.51L216.79,155.02L218.76,156.04L220.73,123.17L222.7,126.71L226.64,137.84L228.61,127.45L230.58,135.35L232.55,134.85L234.53,139.26L236.5,126.94L238.47,116.21L240.44,84.69L242.41,75.04L244.38,83.48L246.35,83.07L248.32,66.07L250.29,65.27L252.26,85.58L254.23,68.29L256.2,73.59L258.18,78.08L260.15,62.41L264.09,84.43L266.06,72.65L268.03,48.57L270,77.29L271.97,28L273.94,57.12L275.91,100.94L277.88,162.61L279.85,267.23L281.82,243.53L283.8,234.79L285.77,236.87L287.74,235.95L289.71,212.62L291.68,195.51L293.65,47.04L295.62,65.67L297.59,74.33L301.53,16L303.5,62.36L305.47,61.54L307.45,82.95L311.39,80.09L313.36,63.96L315.33,63.12L317.3,58.25L319.27,64.49L321.24,75.72L323.21,80.51L325.18,114.78L327.15,192.52L329.12,182.6L331.09,182.35L333.07,181.29L335.04,193.21L337.01,214L338.98,212.24L340.95,215.2L342.92,214.71L344.89,218.41L346.86,173.64L348.83,279.72L352.77,239.07L354.74,220.66L356.72,214.29L358.69,216.87L362.63,216.45L364.6,217.4L366.57,217.57L368.54,226.73L370.51,280.57L372.48,274.31L374.45,270.97L376.42,272.56L378.39,177.21L380.36,167.98L382.34,168.05L384.31,170.19L386.28,175.22L388.25,134.36L390.22,138.71L392.19,100.15L394.16,176.18L396.13,162.84L398.1,144.28L400.07,146.8L402.04,151.11L404.01,140.06L405.99,112.22L407.96,123.36L409.93,164.36L411.9,164.85L413.87,158.96L415.84,185.27L417.81,136.04L419.78,136.38L423.72,125.28L425.69,100.72L427.66,105.72L429.64,218.84L431.61,279.25L433.58,271.37L435.55,272.74L437.52,238.94L439.49,235.52L441.46,243.76L443.43,243.84L445.4,240.14L447.37,210.19L449.34,212.05L451.31,220.78L453.28,225.71L455.26,225.89L457.23,219.36L459.2,221.36L461.17,213.57L463.14,219.65L465.11,219.53L471.02,222.48L472.99,216.32L474.96,222.37L476.93,223.82L478.91,224.73L480.88,224.25L482.85,227.06L484.82,228.23L486.79,223.35L488.76,237.13L494.67,237.5L496.64,236.17L498.61,227.31L500.58,228.77L502.55,247.85L504.53,248.01L506.5,248.2L508.47,250.96L510.44,250.18L512.41,242.94L514.38,235.82L516.35,237.73L518.32,222.73L520.29,230.4L522.26,240.28L524.23,229.99L526.2,251.59L528.18,249.14L530.15,265.09L532.12,250.58L534.09,254.71L536.06,246.87L538.03,227.38L540,227.59" style="vector-effect: none; fill: none; stroke: rgb(99, 110, 250); stroke-opacity: 1; stroke-width: 2px; opacity: 1;"/></g><g class="points"/><g class="text"/></g></g></g><g class="overplot"/><path class="xlines-above crisp" d="M0,0" style="fill: none;"/><path class="ylines-above crisp" d="M0,0" style="fill: none;"/><g class="overlines-above"/><g class="xaxislayer-above"><g class="xtick"><text text-anchor="middle" x="0" y="433" transform="translate(93.8,0)" style="font-family: 'Open Sans', verdana, arial, sans-serif; font-size: 12px; fill: rgb(42, 63, 95); fill-opacity: 1; white-space: pre; opacity: 1;">Nov 2022</text></g><g class="xtick"><text text-anchor="middle" x="0" y="433" style="font-family: 'Open Sans', verdana, arial, sans-serif; font-size: 12px; fill: rgb(42, 63, 95); fill-opacity: 1; white-space: pre; opacity: 1;" transform="translate(214.01,0)">Jan 2023</text></g><g class="xtick"><text text-anchor="middle" x="0" y="433" style="font-family: 'Open Sans', verdana, arial, sans-serif; font-size: 12px; fill: rgb(42, 63, 95); fill-opacity: 1; white-space: pre; opacity: 1;" transform="translate(330.28999999999996,0)">Mar 2023</text></g><g class="xtick"><text text-anchor="middle" x="0" y="433" style="font-family: 'Open Sans', verdana, arial, sans-serif; font-size: 12px; fill: rgb(42, 63, 95); fill-opacity: 1; white-space: pre; opacity: 1;" transform="translate(450.51,0)">May 2023</text></g><g class="xtick"><text text-anchor="middle" x="0" y="433" style="font-family: 'Open Sans', verdana, arial, sans-serif; font-size: 12px; fill: rgb(42, 63, 95); fill-opacity: 1; white-space: pre; opacity: 1;" transform="translate(570.73,0)">Jul 2023</text></g></g><g class="yaxislayer-above"><g class="ytick"><text text-anchor="end" x="79" y="4.199999999999999" transform="translate(0,420)" style="font-family: 'Open Sans', verdana, arial, sans-serif; font-size: 12px; fill: rgb(42, 63, 95); fill-opacity: 1; white-space: pre; opacity: 1;">$0</text></g><g class="ytick"><text text-anchor="end" x="79" y="4.199999999999999" style="font-family: 'Open Sans', verdana, arial, sans-serif; font-size: 12px; fill: rgb(42, 63, 95); fill-opacity: 1; white-space: pre; opacity: 1;" transform="translate(0,383.36)">$0.2M</text></g><g class="ytick"><text text-anchor="end" x="79" y="4.199999999999999" style="font-family: 'Open Sans', verdana, arial, sans-serif; font-size: 12px; fill: rgb(42, 63, 95); fill-opacity: 1; white-space: pre; opacity: 1;" transform="translate(0,346.72)">$0.4M</text></g><g class="ytick"><text text-anchor="end" x="79" y="4.199999999999999" style="font-family: 'Open Sans', verdana, arial, sans-serif; font-size: 12px; fill: rgb(42, 63, 95); fill-opacity: 1; white-space: pre; opacity: 1;" transform="translate(0,310.08000000000004)">$0.6M</text></g><g class="ytick"><text text-anchor="end" x="79" y="4.199999999999999" style="font-family: 'Open Sans', verdana, arial, sans-serif; font-size: 12px; fill: rgb(42, 63, 95); fill-opacity: 1; white-space: pre; opacity: 1;" transform="translate(0,273.44)">$0.8M</text></g><g class="ytick"><text text-anchor="end" x="79" y="4.199999999999999" style="font-family: 'Open Sans', verdana, arial, sans-serif; font-size: 12px; fill: rgb(42, 63, 95); fill-opacity: 1; white-space: pre; opacity: 1;" transform="translate(0,236.81)">$1M</text></g><g class="ytick"><text text-anchor="end" x="79" y="4.199999999999999" style="font-family: 'Open Sans', verdana, arial, sans-serif; font-size: 12px; fill: rgb(42, 63, 95); fill-opacity: 1; white-space: pre; opacity: 1;" transform="translate(0,200.17000000000002)">$1.2M</text></g><g class="ytick"><text text-anchor="end" x="79" y="4.199999999999999" style="font-family: 'Open Sans', verdana, arial, sans-serif; font-size: 12px; fill: rgb(42, 63, 95); fill-opacity: 1; white-space: pre; opacity: 1;" transform="translate(0,163.53)">$1.4M</text></g><g class="ytick"><text text-anchor="end" x="79" y="4.199999999999999" style="font-family: 'Open Sans', verdana, arial, sans-serif; font-size: 12px; fill: rgb(42, 63, 95); fill-opacity: 1; white-space: pre; opacity: 1;" transform="translate(0,126.89)">$1.6M</text></g></g><g class="overaxes-above"/></g></g><g class="polarlayer"/><g class="smithlayer"/><g class="ternarylayer"/><g class="geolayer"/><g class="funnelarealayer"/><g class="pielayer"/><g class="iciclelayer"/><g class="treemaplayer"/><g class="sunburstlayer"/><g class="glimages"/><defs id="topdefs-3c4ee3"><g class="clips"/></defs><g class="layer-above"><g class="imagelayer"/><g class="shapelayer"/></g><g class="infolayer"><g class="g-gtitle"><text class="gtitle" x="35" y="50" text-anchor="start" dy="0em" style="font-family: 'Open Sans', verdana, arial, sans-serif; font-size: 17px; fill: rgb(42, 63, 95); opacity: 1; font-weight: normal; white-space: pre;"><tspan class="line" dy="0em" x="35" y="50">Synthetix - SNX Bridge: Hop</tspan><tspan class="line" dy="1.3em" x="35" y="50">​<tspan style="font-size:70%" dy="-0.6em">Cumulative Net Flows since Program Announcement, Until Program End + 30 Days - At Last Price</tspan><tspan dy="0.42em">​</tspan></tspan></text></g><g class="g-xtitle"><text class="xtitle" x="350" y="460.3" text-anchor="middle" style="font-family: 'Open Sans', verdana, arial, sans-serif; font-size: 14px; fill: rgb(42, 63, 95); opacity: 1; font-weight: normal; white-space: pre;">Day</text></g><g class="g-ytitle"><text class="ytitle" transform="rotate(-90,21.340625000000003,260)" x="21.340625000000003" y="260" text-anchor="middle" style="font-family: 'Open Sans', verdana, arial, sans-serif; font-size: 14px; fill: rgb(42, 63, 95); opacity: 1; font-weight: normal; white-space: pre;">Cumulative Net Flows (USD)</text></g></g></svg>