<svg class="main-svg" xmlns="http://www.w3.org/2000/svg" xmlns:xlink="http://www.w3.org/1999/xlink" width="700" height="500" style="" viewBox="0 0 700 500"><rect x="0" y="0" width="700" height="500" style="fill: rgb(255, 255, 255); fill-opacity: 1;"/><defs id="defs-757ef3"><g class="clips"><clipPath id="clip757ef3xyplot" class="plotclip"><rect width="540" height="320"/></clipPath><clipPath class="axesclip" id="clip757ef3x"><rect x="80" y="0" width="540" height="500"/></clipPath><clipPath class="axesclip" id="clip757ef3y"><rect x="0" y="100" width="700" height="320"/></clipPath><clipPath class="axesclip" id="clip757ef3xy"><rect x="80" y="100" width="540" height="320"/></clipPath></g><g class="gradients"/><g class="patterns"/></defs><g class="bglayer"><rect class="bg" x="80" y="100" width="540" height="320" style="fill: rgb(229, 236, 246); fill-opacity: 1; stroke-width: 0;"/></g><g class="layer-below"><g class="imagelayer"/><g class="shapelayer"/></g><g class="cartesianlayer"><g class="subplot xy"><g class="layer-subplot"><g class="shapelayer"/><g class="imagelayer"/></g><g class="minor-gridlayer"><g class="x"/><g class="y"/></g><g class="gridlayer"><g class="x"><path class="xgrid crisp" transform="translate(160.79000000000002,0)" d="M0,100v320" style="stroke: rgb(255, 255, 255); stroke-opacity: 1; stroke-width: 1px;"/><path class="xgrid crisp" transform="translate(286.22,0)" d="M0,100v320" style="stroke: rgb(255, 255, 255); stroke-opacity: 1; stroke-width: 1px;"/><path class="xgrid crisp" transform="translate(415.91,0)" d="M0,100v320" style="stroke: rgb(255, 255, 255); stroke-opacity: 1; stroke-width: 1px;"/><path class="xgrid crisp" transform="translate(545.5899999999999,0)" d="M0,100v320" style="stroke: rgb(255, 255, 255); stroke-opacity: 1; stroke-width: 1px;"/></g><g class="y"><path class="ygrid crisp" transform="translate(0,361.29)" d="M80,0h540" style="stroke: rgb(255, 255, 255); stroke-opacity: 1; stroke-width: 1px;"/><path class="ygrid crisp" transform="translate(0,302.58000000000004)" d="M80,0h540" style="stroke: rgb(255, 255, 255); stroke-opacity: 1; stroke-width: 1px;"/><path class="ygrid crisp" transform="translate(0,243.86)" d="M80,0h540" style="stroke: rgb(255, 255, 255); stroke-opacity: 1; stroke-width: 1px;"/><path class="ygrid crisp" transform="translate(0,185.15)" d="M80,0h540" style="stroke: rgb(255, 255, 255); stroke-opacity: 1; stroke-width: 1px;"/><path class="ygrid crisp" transform="translate(0,126.44)" d="M80,0h540" style="stroke: rgb(255, 255, 255); stroke-opacity: 1; stroke-width: 1px;"/></g></g><g class="zerolinelayer"><path class="yzl zl crisp" transform="translate(0,420)" d="M80,0h540" style="stroke: rgb(255, 255, 255); stroke-opacity: 1; stroke-width: 2px;"/></g><path class="xlines-below"/><path class="ylines-below"/><g class="overlines-below"/><g class="xaxislayer-below"/><g class="yaxislayer-below"/><g class="overaxes-below"/><g class="plot" transform="translate(80,100)" clip-path="url(#clip757ef3xyplot)"><g class="scatterlayer mlayer"><g class="trace scatter trace6cb0cd" style="stroke-miterlimit: 2;"><g class="fills"><g><path class="js-fill" d="M540,320L0,320L0,317.53L4.25,316.07L6.38,315.02L10.63,317L12.76,314.76L19.13,311.27L21.26,311L23.39,309.55L25.51,310.12L27.64,307.89L29.76,308.07L31.89,306.43L34.02,306.6L36.14,307.94L38.27,304.75L40.39,305.34L42.52,304.26L44.65,305.37L46.77,308.6L48.9,312L51.02,312.91L55.28,312.23L57.4,308.59L65.91,307.09L68.03,307.48L72.28,307.32L74.41,308.34L76.54,306.97L78.66,307.34L80.79,308.35L82.91,308.5L87.17,308.45L89.29,306.94L91.42,307.06L93.54,305.72L97.8,303.51L99.92,301.28L102.05,299.64L104.17,293.13L106.3,293.67L108.43,287.15L110.55,287.66L112.68,285.62L114.8,284.12L116.93,280.9L119.06,281.81L121.18,277.96L123.31,273.08L125.43,271.21L127.56,268.01L129.69,267.83L131.81,264.68L133.94,252.98L138.19,243.03L140.31,240.97L142.44,238.2L144.57,239.64L146.69,234.7L148.82,227.71L150.94,224.51L153.07,219.73L155.2,213.23L157.32,211.42L161.57,185.77L163.7,180.89L165.83,180.84L167.95,181.93L170.08,174.08L172.2,171.27L174.33,169.39L176.46,164.02L178.58,154.84L180.71,153.89L182.83,137.15L184.96,133.56L187.09,123.2L189.21,105.02L191.34,81.55L193.46,77.78L195.59,66.52L197.72,50.42L199.84,48.6L201.97,30.13L204.09,27.75L206.22,23.55L208.35,16L210.47,17.86L212.6,30.78L214.72,34.24L218.98,27.81L221.1,27.04L223.23,32.98L225.35,50.5L227.48,86.48L229.61,158.11L235.98,97.09L238.11,96.43L242.36,43.4L244.49,45.17L246.61,42.99L248.74,43.4L250.87,43.73L252.99,47.06L255.12,46.74L257.24,62.2L259.37,63.8L261.5,62.83L263.62,66.95L265.75,66.76L267.87,65.45L270,65.05L272.13,83.76L274.25,77.37L276.38,78.89L278.5,81.53L280.63,73.35L282.76,69.2L284.88,77.72L287.01,82.8L289.13,82.61L291.26,85.69L293.39,85.01L295.51,89.7L297.64,91.21L299.76,81.55L306.14,72.38L308.27,67.04L310.39,59.42L312.52,64.97L314.65,65.58L316.77,72.87L321.02,65.93L323.15,58.79L327.4,51.73L329.53,48.42L331.65,49.1L333.78,48.33L338.03,53.55L340.16,55.01L342.28,57.29L344.41,67.02L346.54,59.06L348.66,72.99L350.79,76.46L352.91,83.58L355.04,86.38L357.17,91.05L359.29,102.78L361.42,105.13L363.54,107.75L365.67,108.83L367.8,106.4L369.92,106.56L374.17,110.92L376.3,110.8L378.43,110.53L380.55,113.21L382.68,112.53L384.8,108.05L386.93,118.48L389.06,117.8L391.18,116.24L393.31,116.62L395.43,115.85L397.56,119.57L399.69,121.03L401.81,127.59L403.94,130L406.06,128.19L410.31,124.95L412.44,132.77L414.57,130.45L416.69,123.07L418.82,121.04L420.94,122.68L423.07,138.45L425.2,138.7L427.32,139.16L429.45,136.61L431.57,147.29L433.7,151.15L435.83,158.28L437.95,156.72L440.08,158.72L442.2,158.1L444.33,155.33L446.46,151.23L450.71,168.35L452.83,171.77L454.96,175.53L457.09,177.53L459.21,180.72L461.34,195.83L463.46,163.95L465.59,146.23L469.84,130.79L471.97,128.82L474.09,124.18L476.22,124.1L480.47,138.24L482.6,135.42L484.72,135.67L486.85,137.27L488.98,139.37L491.1,139.84L493.23,129.74L495.35,132.67L501.73,123.79L503.86,118.06L508.11,109.79L510.24,109.53L512.36,104.36L514.49,101.22L516.61,104.81L518.74,101.94L520.87,94.97L522.99,93.24L525.12,86.32L527.24,83.49L529.37,96.08L531.5,90.29L533.62,104.27L535.75,102.8L540,91.59" style="fill: rgb(99, 110, 250); fill-opacity: 0.5; stroke-width: 0;"/></g></g><g class="errorbars"/><g class="lines"><path class="js-line" d="M0,317.53L4.25,316.07L6.38,315.02L10.63,317L12.76,314.76L19.13,311.27L21.26,311L23.39,309.55L25.51,310.12L27.64,307.89L29.76,308.07L31.89,306.43L34.02,306.6L36.14,307.94L38.27,304.75L40.39,305.34L42.52,304.26L44.65,305.37L46.77,308.6L48.9,312L51.02,312.91L55.28,312.23L57.4,308.59L65.91,307.09L68.03,307.48L72.28,307.32L74.41,308.34L76.54,306.97L78.66,307.34L80.79,308.35L82.91,308.5L87.17,308.45L89.29,306.94L91.42,307.06L93.54,305.72L97.8,303.51L99.92,301.28L102.05,299.64L104.17,293.13L106.3,293.67L108.43,287.15L110.55,287.66L112.68,285.62L114.8,284.12L116.93,280.9L119.06,281.81L121.18,277.96L123.31,273.08L125.43,271.21L127.56,268.01L129.69,267.83L131.81,264.68L133.94,252.98L138.19,243.03L140.31,240.97L142.44,238.2L144.57,239.64L146.69,234.7L148.82,227.71L150.94,224.51L153.07,219.73L155.2,213.23L157.32,211.42L161.57,185.77L163.7,180.89L165.83,180.84L167.95,181.93L170.08,174.08L172.2,171.27L174.33,169.39L176.46,164.02L178.58,154.84L180.71,153.89L182.83,137.15L184.96,133.56L187.09,123.2L189.21,105.02L191.34,81.55L193.46,77.78L195.59,66.52L197.72,50.42L199.84,48.6L201.97,30.13L204.09,27.75L206.22,23.55L208.35,16L210.47,17.86L212.6,30.78L214.72,34.24L218.98,27.81L221.1,27.04L223.23,32.98L225.35,50.5L227.48,86.48L229.61,158.11L235.98,97.09L238.11,96.43L242.36,43.4L244.49,45.17L246.61,42.99L248.74,43.4L250.87,43.73L252.99,47.06L255.12,46.74L257.24,62.2L259.37,63.8L261.5,62.83L263.62,66.95L265.75,66.76L267.87,65.45L270,65.05L272.13,83.76L274.25,77.37L276.38,78.89L278.5,81.53L280.63,73.35L282.76,69.2L284.88,77.72L287.01,82.8L289.13,82.61L291.26,85.69L293.39,85.01L295.51,89.7L297.64,91.21L299.76,81.55L306.14,72.38L308.27,67.04L310.39,59.42L312.52,64.97L314.65,65.58L316.77,72.87L321.02,65.93L323.15,58.79L327.4,51.73L329.53,48.42L331.65,49.1L333.78,48.33L338.03,53.55L340.16,55.01L342.28,57.29L344.41,67.02L346.54,59.06L348.66,72.99L350.79,76.46L352.91,83.58L355.04,86.38L357.17,91.05L359.29,102.78L361.42,105.13L363.54,107.75L365.67,108.83L367.8,106.4L369.92,106.56L374.17,110.92L376.3,110.8L378.43,110.53L380.55,113.21L382.68,112.53L384.8,108.05L386.93,118.48L389.06,117.8L391.18,116.24L393.31,116.62L395.43,115.85L397.56,119.57L399.69,121.03L401.81,127.59L403.94,130L406.06,128.19L410.31,124.95L412.44,132.77L414.57,130.45L416.69,123.07L418.82,121.04L420.94,122.68L423.07,138.45L425.2,138.7L427.32,139.16L429.45,136.61L431.57,147.29L433.7,151.15L435.83,158.28L437.95,156.72L440.08,158.72L442.2,158.1L444.33,155.33L446.46,151.23L450.71,168.35L452.83,171.77L454.96,175.53L457.09,177.53L459.21,180.72L461.34,195.83L463.46,163.95L465.59,146.23L469.84,130.79L471.97,128.82L474.09,124.18L476.22,124.1L480.47,138.24L482.6,135.42L484.72,135.67L486.85,137.27L488.98,139.37L491.1,139.84L493.23,129.74L495.35,132.67L501.73,123.79L503.86,118.06L508.11,109.79L510.24,109.53L512.36,104.36L514.49,101.22L516.61,104.81L518.74,101.94L520.87,94.97L522.99,93.24L525.12,86.32L527.24,83.49L529.37,96.08L531.5,90.29L533.62,104.27L535.75,102.8L540,91.59" style="vector-effect: none; fill: none; stroke: rgb(99, 110, 250); stroke-opacity: 1; stroke-width: 2px; opacity: 1;"/></g><g class="points"/><g class="text"/></g></g></g><g class="overplot"/><path class="xlines-above crisp" d="M0,0" style="fill: none;"/><path class="ylines-above crisp" d="M0,0" style="fill: none;"/><g class="overlines-above"/><g class="xaxislayer-above"><g class="xtick"><text text-anchor="middle" x="0" y="433" transform="translate(160.79000000000002,0)" style="font-family: 'Open Sans', verdana, arial, sans-serif; font-size: 12px; fill: rgb(42, 63, 95); fill-opacity: 1; white-space: pre; opacity: 1;">Jan 2023</text></g><g class="xtick"><text text-anchor="middle" x="0" y="433" style="font-family: 'Open Sans', verdana, arial, sans-serif; font-size: 12px; fill: rgb(42, 63, 95); fill-opacity: 1; white-space: pre; opacity: 1;" transform="translate(286.22,0)">Mar 2023</text></g><g class="xtick"><text text-anchor="middle" x="0" y="433" style="font-family: 'Open Sans', verdana, arial, sans-serif; font-size: 12px; fill: rgb(42, 63, 95); fill-opacity: 1; white-space: pre; opacity: 1;" transform="translate(415.91,0)">May 2023</text></g><g class="xtick"><text text-anchor="middle" x="0" y="433" style="font-family: 'Open Sans', verdana, arial, sans-serif; font-size: 12px; fill: rgb(42, 63, 95); fill-opacity: 1; white-space: pre; opacity: 1;" transform="translate(545.5899999999999,0)">Jul 2023</text></g></g><g class="yaxislayer-above"><g class="ytick"><text text-anchor="end" x="79" y="4.199999999999999" transform="translate(0,420)" style="font-family: 'Open Sans', verdana, arial, sans-serif; font-size: 12px; fill: rgb(42, 63, 95); fill-opacity: 1; white-space: pre; opacity: 1;">$0</text></g><g class="ytick"><text text-anchor="end" x="79" y="4.199999999999999" style="font-family: 'Open Sans', verdana, arial, sans-serif; font-size: 12px; fill: rgb(42, 63, 95); fill-opacity: 1; white-space: pre; opacity: 1;" transform="translate(0,361.29)">$50M</text></g><g class="ytick"><text text-anchor="end" x="79" y="4.199999999999999" style="font-family: 'Open Sans', verdana, arial, sans-serif; font-size: 12px; fill: rgb(42, 63, 95); fill-opacity: 1; white-space: pre; opacity: 1;" transform="translate(0,302.58000000000004)">$100M</text></g><g class="ytick"><text text-anchor="end" x="79" y="4.199999999999999" style="font-family: 'Open Sans', verdana, arial, sans-serif; font-size: 12px; fill: rgb(42, 63, 95); fill-opacity: 1; white-space: pre; opacity: 1;" transform="translate(0,243.86)">$150M</text></g><g class="ytick"><text text-anchor="end" x="79" y="4.199999999999999" style="font-family: 'Open Sans', verdana, arial, sans-serif; font-size: 12px; fill: rgb(42, 63, 95); fill-opacity: 1; white-space: pre; opacity: 1;" transform="translate(0,185.15)">$200M</text></g><g class="ytick"><text text-anchor="end" x="79" y="4.199999999999999" style="font-family: 'Open Sans', verdana, arial, sans-serif; font-size: 12px; fill: rgb(42, 63, 95); fill-opacity: 1; white-space: pre; opacity: 1;" transform="translate(0,126.44)">$250M</text></g></g><g class="overaxes-above"/></g></g><g class="polarlayer"/><g class="smithlayer"/><g class="ternarylayer"/><g class="geolayer"/><g class="funnelarealayer"/><g class="pielayer"/><g class="iciclelayer"/><g class="treemaplayer"/><g class="sunburstlayer"/><g class="glimages"/><defs id="topdefs-757ef3"><g class="clips"/></defs><g class="layer-above"><g class="imagelayer"/><g class="shapelayer"/></g><g class="infolayer"><g class="g-gtitle"><text class="gtitle" x="35" y="50" text-anchor="start" dy="0em" style="font-family: 'Open Sans', verdana, arial, sans-serif; font-size: 17px; fill: rgb(42, 63, 95); opacity: 1; font-weight: normal; white-space: pre;"><tspan class="line" dy="0em" x="35" y="50">Velodrome - Velodrome #2 (Tour de OP)*</tspan><tspan class="line" dy="1.3em" x="35" y="50">​<tspan style="font-size:70%" dy="-0.6em">Cumulative Net Flows since Program Announcement, Until Program End + 30 Days - At Last Price</tspan><tspan dy="0.42em">​</tspan></tspan></text></g><g class="g-xtitle"><text class="xtitle" x="350" y="460.3" text-anchor="middle" style="font-family: 'Open Sans', verdana, arial, sans-serif; font-size: 14px; fill: rgb(42, 63, 95); opacity: 1; font-weight: normal; white-space: pre;">Day</text></g><g class="g-ytitle"><text class="ytitle" transform="rotate(-90,17.996875000000003,260)" x="17.996875000000003" y="260" text-anchor="middle" style="font-family: 'Open Sans', verdana, arial, sans-serif; font-size: 14px; fill: rgb(42, 63, 95); opacity: 1; font-weight: normal; white-space: pre;">Cumulative Net Flows (USD)</text></g></g></svg>