<svg class="main-svg" xmlns="http://www.w3.org/2000/svg" xmlns:xlink="http://www.w3.org/1999/xlink" width="700" height="500" style="" viewBox="0 0 700 500"><rect x="0" y="0" width="700" height="500" style="fill: rgb(255, 255, 255); fill-opacity: 1;"/><defs id="defs-8fc6d2"><g class="clips"><clipPath id="clip8fc6d2xyplot" class="plotclip"><rect width="540" height="320"/></clipPath><clipPath class="axesclip" id="clip8fc6d2x"><rect x="80" y="0" width="540" height="500"/></clipPath><clipPath class="axesclip" id="clip8fc6d2y"><rect x="0" y="100" width="700" height="320"/></clipPath><clipPath class="axesclip" id="clip8fc6d2xy"><rect x="80" y="100" width="540" height="320"/></clipPath></g><g class="gradients"/><g class="patterns"/></defs><g class="bglayer"><rect class="bg" x="80" y="100" width="540" height="320" style="fill: rgb(229, 236, 246); fill-opacity: 1; stroke-width: 0;"/></g><g class="layer-below"><g class="imagelayer"/><g class="shapelayer"/></g><g class="cartesianlayer"><g class="subplot xy"><g class="layer-subplot"><g class="shapelayer"/><g class="imagelayer"/></g><g class="minor-gridlayer"><g class="x"/><g class="y"/></g><g class="gridlayer"><g class="x"><path class="xgrid crisp" transform="translate(97.63,0)" d="M0,100v320" style="stroke: rgb(255, 255, 255); stroke-opacity: 1; stroke-width: 1px;"/><path class="xgrid crisp" transform="translate(192.17000000000002,0)" d="M0,100v320" style="stroke: rgb(255, 255, 255); stroke-opacity: 1; stroke-width: 1px;"/><path class="xgrid crisp" transform="translate(289.90999999999997,0)" d="M0,100v320" style="stroke: rgb(255, 255, 255); stroke-opacity: 1; stroke-width: 1px;"/><path class="xgrid crisp" transform="translate(387.66,0)" d="M0,100v320" style="stroke: rgb(255, 255, 255); stroke-opacity: 1; stroke-width: 1px;"/><path class="xgrid crisp" transform="translate(487,0)" d="M0,100v320" style="stroke: rgb(255, 255, 255); stroke-opacity: 1; stroke-width: 1px;"/><path class="xgrid crisp" transform="translate(584.75,0)" d="M0,100v320" style="stroke: rgb(255, 255, 255); stroke-opacity: 1; stroke-width: 1px;"/></g><g class="y"><path class="ygrid crisp" transform="translate(0,365.31)" d="M80,0h540" style="stroke: rgb(255, 255, 255); stroke-opacity: 1; stroke-width: 1px;"/><path class="ygrid crisp" transform="translate(0,310.62)" d="M80,0h540" style="stroke: rgb(255, 255, 255); stroke-opacity: 1; stroke-width: 1px;"/><path class="ygrid crisp" transform="translate(0,255.92)" d="M80,0h540" style="stroke: rgb(255, 255, 255); stroke-opacity: 1; stroke-width: 1px;"/><path class="ygrid crisp" transform="translate(0,201.23000000000002)" d="M80,0h540" style="stroke: rgb(255, 255, 255); stroke-opacity: 1; stroke-width: 1px;"/><path class="ygrid crisp" transform="translate(0,146.54)" d="M80,0h540" style="stroke: rgb(255, 255, 255); stroke-opacity: 1; stroke-width: 1px;"/></g></g><g class="zerolinelayer"><path class="yzl zl crisp" transform="translate(0,420)" d="M80,0h540" style="stroke: rgb(255, 255, 255); stroke-opacity: 1; stroke-width: 2px;"/></g><path class="xlines-below"/><path class="ylines-below"/><g class="overlines-below"/><g class="xaxislayer-below"/><g class="yaxislayer-below"/><g class="overaxes-below"/><g class="plot" transform="translate(80,100)" clip-path="url(#clip8fc6d2xyplot)"><g class="scatterlayer mlayer"><g class="trace scatter trace2a02b5" style="stroke-miterlimit: 2;"><g class="fills"><g><path class="js-fill" d="M540,320L0,320L0,320L272.4,320L274.01,16L275.61,19.03L277.21,24.05L280.42,24.5L282.02,27.8L285.22,28.34L286.82,27.82L291.63,24.67L293.23,28.68L296.44,30.5L298.04,31.06L301.25,30.01L302.85,31.67L304.45,32.06L306.05,31.17L307.66,34.5L309.26,35.82L310.86,35.36L312.46,38.37L314.07,49.17L315.67,50.66L317.27,54.93L318.87,54.79L320.47,54.32L322.08,55.88L323.68,60.59L325.28,61.37L326.88,63.15L328.49,60.97L331.69,55.66L333.29,55.53L334.9,52.75L336.5,54.06L339.7,51.83L341.31,52.47L342.91,96.45L344.51,97L347.72,97.83L349.32,104.58L360.53,105.33L362.14,107.11L363.74,105.3L365.34,105.41L368.55,105.49L370.15,108.13L371.75,110.7L373.35,110.42L376.56,111.07L378.16,111.23L381.36,111.73L382.97,113.33L384.57,115.99L386.17,116.07L392.58,117.53L394.18,119.13L395.79,118.86L397.39,119.9L402.2,120.74L403.8,119.52L407,122.35L408.61,122.04L413.41,122.36L415.01,123.57L416.62,122.81L418.22,123.17L421.42,123.9L423.03,124.11L426.23,125.78L427.83,125.65L431.04,127.33L432.64,127.54L434.24,128.35L435.85,130.51L439.05,131.46L440.65,132.22L442.26,135.84L443.86,135.94L447.06,136.74L448.66,133.69L450.27,133.93L451.87,133.35L458.28,133.14L459.88,134.02L461.48,134.14L463.09,135.36L467.89,135.27L469.5,135.78L471.1,135.25L472.7,137L474.3,137.5L475.91,131.77L479.11,132.16L480.71,129.54L485.52,131.28L487.12,126.5L488.72,125.89L490.33,123.71L491.93,121.73L493.53,122.2L495.13,122.18L496.74,124.08L503.15,124.13L504.75,123.38L506.35,123.61L507.95,124.71L512.76,122.92L514.36,125.34L519.17,118.74L520.77,118.09L523.98,116.75L525.58,117.52L527.18,118.18L528.78,116.24L530.39,115.82L531.99,114.24L535.19,106.47L536.8,100.11L540,92.24" style="fill: rgb(99, 110, 250); fill-opacity: 0.5; stroke-width: 0;"/></g></g><g class="errorbars"/><g class="lines"><path class="js-line" d="M0,320L272.4,320L274.01,16L275.61,19.03L277.21,24.05L280.42,24.5L282.02,27.8L285.22,28.34L286.82,27.82L291.63,24.67L293.23,28.68L296.44,30.5L298.04,31.06L301.25,30.01L302.85,31.67L304.45,32.06L306.05,31.17L307.66,34.5L309.26,35.82L310.86,35.36L312.46,38.37L314.07,49.17L315.67,50.66L317.27,54.93L318.87,54.79L320.47,54.32L322.08,55.88L323.68,60.59L325.28,61.37L326.88,63.15L328.49,60.97L331.69,55.66L333.29,55.53L334.9,52.75L336.5,54.06L339.7,51.83L341.31,52.47L342.91,96.45L344.51,97L347.72,97.83L349.32,104.58L360.53,105.33L362.14,107.11L363.74,105.3L365.34,105.41L368.55,105.49L370.15,108.13L371.75,110.7L373.35,110.42L376.56,111.07L378.16,111.23L381.36,111.73L382.97,113.33L384.57,115.99L386.17,116.07L392.58,117.53L394.18,119.13L395.79,118.86L397.39,119.9L402.2,120.74L403.8,119.52L407,122.35L408.61,122.04L413.41,122.36L415.01,123.57L416.62,122.81L418.22,123.17L421.42,123.9L423.03,124.11L426.23,125.78L427.83,125.65L431.04,127.33L432.64,127.54L434.24,128.35L435.85,130.51L439.05,131.46L440.65,132.22L442.26,135.84L443.86,135.94L447.06,136.74L448.66,133.69L450.27,133.93L451.87,133.35L458.28,133.14L459.88,134.02L461.48,134.14L463.09,135.36L467.89,135.27L469.5,135.78L471.1,135.25L472.7,137L474.3,137.5L475.91,131.77L479.11,132.16L480.71,129.54L485.52,131.28L487.12,126.5L488.72,125.89L490.33,123.71L491.93,121.73L493.53,122.2L495.13,122.18L496.74,124.08L503.15,124.13L504.75,123.38L506.35,123.61L507.95,124.71L512.76,122.92L514.36,125.34L519.17,118.74L520.77,118.09L523.98,116.75L525.58,117.52L527.18,118.18L528.78,116.24L530.39,115.82L531.99,114.24L535.19,106.47L536.8,100.11L540,92.24" style="vector-effect: none; fill: none; stroke: rgb(99, 110, 250); stroke-opacity: 1; stroke-width: 2px; opacity: 1;"/></g><g class="points"/><g class="text"/></g></g></g><g class="overplot"/><path class="xlines-above crisp" d="M0,0" style="fill: none;"/><path class="ylines-above crisp" d="M0,0" style="fill: none;"/><g class="overlines-above"/><g class="xaxislayer-above"><g class="xtick"><text text-anchor="middle" x="0" y="433" transform="translate(97.63,0)" style="font-family: 'Open Sans', verdana, arial, sans-serif; font-size: 12px; fill: rgb(42, 63, 95); fill-opacity: 1; white-space: pre; opacity: 1;">Jan 2023</text></g><g class="xtick"><text text-anchor="middle" x="0" y="433" style="font-family: 'Open Sans', verdana, arial, sans-serif; font-size: 12px; fill: rgb(42, 63, 95); fill-opacity: 1; white-space: pre; opacity: 1;" transform="translate(192.17000000000002,0)">Mar 2023</text></g><g class="xtick"><text text-anchor="middle" x="0" y="433" style="font-family: 'Open Sans', verdana, arial, sans-serif; font-size: 12px; fill: rgb(42, 63, 95); fill-opacity: 1; white-space: pre; opacity: 1;" transform="translate(289.90999999999997,0)">May 2023</text></g><g class="xtick"><text text-anchor="middle" x="0" y="433" style="font-family: 'Open Sans', verdana, arial, sans-serif; font-size: 12px; fill: rgb(42, 63, 95); fill-opacity: 1; white-space: pre; opacity: 1;" transform="translate(387.66,0)">Jul 2023</text></g><g class="xtick"><text text-anchor="middle" x="0" y="433" style="font-family: 'Open Sans', verdana, arial, sans-serif; font-size: 12px; fill: rgb(42, 63, 95); fill-opacity: 1; white-space: pre; opacity: 1;" transform="translate(487,0)">Sep 2023</text></g><g class="xtick"><text text-anchor="middle" x="0" y="433" style="font-family: 'Open Sans', verdana, arial, sans-serif; font-size: 12px; fill: rgb(42, 63, 95); fill-opacity: 1; white-space: pre; opacity: 1;" transform="translate(584.75,0)">Nov 2023</text></g></g><g class="yaxislayer-above"><g class="ytick"><text text-anchor="end" x="79" y="4.199999999999999" transform="translate(0,420)" style="font-family: 'Open Sans', verdana, arial, sans-serif; font-size: 12px; fill: rgb(42, 63, 95); fill-opacity: 1; white-space: pre; opacity: 1;">$0</text></g><g class="ytick"><text text-anchor="end" x="79" y="4.199999999999999" style="font-family: 'Open Sans', verdana, arial, sans-serif; font-size: 12px; fill: rgb(42, 63, 95); fill-opacity: 1; white-space: pre; opacity: 1;" transform="translate(0,365.31)">$5M</text></g><g class="ytick"><text text-anchor="end" x="79" y="4.199999999999999" style="font-family: 'Open Sans', verdana, arial, sans-serif; font-size: 12px; fill: rgb(42, 63, 95); fill-opacity: 1; white-space: pre; opacity: 1;" transform="translate(0,310.62)">$10M</text></g><g class="ytick"><text text-anchor="end" x="79" y="4.199999999999999" style="font-family: 'Open Sans', verdana, arial, sans-serif; font-size: 12px; fill: rgb(42, 63, 95); fill-opacity: 1; white-space: pre; opacity: 1;" transform="translate(0,255.92)">$15M</text></g><g class="ytick"><text text-anchor="end" x="79" y="4.199999999999999" style="font-family: 'Open Sans', verdana, arial, sans-serif; font-size: 12px; fill: rgb(42, 63, 95); fill-opacity: 1; white-space: pre; opacity: 1;" transform="translate(0,201.23000000000002)">$20M</text></g><g class="ytick"><text text-anchor="end" x="79" y="4.199999999999999" style="font-family: 'Open Sans', verdana, arial, sans-serif; font-size: 12px; fill: rgb(42, 63, 95); fill-opacity: 1; white-space: pre; opacity: 1;" transform="translate(0,146.54)">$25M</text></g></g><g class="overaxes-above"/></g></g><g class="polarlayer"/><g class="smithlayer"/><g class="ternarylayer"/><g class="geolayer"/><g class="funnelarealayer"/><g class="pielayer"/><g class="iciclelayer"/><g class="treemaplayer"/><g class="sunburstlayer"/><g class="glimages"/><defs id="topdefs-8fc6d2"><g class="clips"/></defs><g class="layer-above"><g class="imagelayer"/><g class="shapelayer"/></g><g class="infolayer"><g class="g-gtitle"><text class="gtitle" x="35" y="50" text-anchor="start" dy="0em" style="font-family: 'Open Sans', verdana, arial, sans-serif; font-size: 17px; fill: rgb(42, 63, 95); opacity: 1; font-weight: normal; white-space: pre;"><tspan class="line" dy="0em" x="35" y="50">Dhedge</tspan><tspan class="line" dy="1.3em" x="35" y="50">​<tspan style="font-size:70%" dy="-0.6em">Cumulative Net Flows since Program Announcement, Until Program End + 30 Days - At Last Price</tspan><tspan dy="0.42em">​</tspan></tspan></text></g><g class="g-xtitle"><text class="xtitle" x="350" y="460.3" text-anchor="middle" style="font-family: 'Open Sans', verdana, arial, sans-serif; font-size: 14px; fill: rgb(42, 63, 95); opacity: 1; font-weight: normal; white-space: pre;">Day</text></g><g class="g-ytitle"><text class="ytitle" transform="rotate(-90,24.668750000000003,260)" x="24.668750000000003" y="260" text-anchor="middle" style="font-family: 'Open Sans', verdana, arial, sans-serif; font-size: 14px; fill: rgb(42, 63, 95); opacity: 1; font-weight: normal; white-space: pre;">Cumulative Net Flows (USD)</text></g></g></svg>