<svg class="main-svg" xmlns="http://www.w3.org/2000/svg" xmlns:xlink="http://www.w3.org/1999/xlink" width="700" height="500" style="" viewBox="0 0 700 500"><rect x="0" y="0" width="700" height="500" style="fill: rgb(255, 255, 255); fill-opacity: 1;"/><defs id="defs-c39267"><g class="clips"><clipPath id="clipc39267xyplot" class="plotclip"><rect width="540" height="320"/></clipPath><clipPath class="axesclip" id="clipc39267x"><rect x="80" y="0" width="540" height="500"/></clipPath><clipPath class="axesclip" id="clipc39267y"><rect x="0" y="100" width="700" height="320"/></clipPath><clipPath class="axesclip" id="clipc39267xy"><rect x="80" y="100" width="540" height="320"/></clipPath></g><g class="gradients"/><g class="patterns"/></defs><g class="bglayer"><rect class="bg" x="80" y="100" width="540" height="320" style="fill: rgb(229, 236, 246); fill-opacity: 1; stroke-width: 0;"/></g><g class="layer-below"><g class="imagelayer"/><g class="shapelayer"/></g><g class="cartesianlayer"><g class="subplot xy"><g class="layer-subplot"><g class="shapelayer"/><g class="imagelayer"/></g><g class="minor-gridlayer"><g class="x"/><g class="y"/></g><g class="gridlayer"><g class="x"><path class="xgrid crisp" transform="translate(154.63,0)" d="M0,100v320" style="stroke: rgb(255, 255, 255); stroke-opacity: 1; stroke-width: 1px;"/><path class="xgrid crisp" transform="translate(284.15,0)" d="M0,100v320" style="stroke: rgb(255, 255, 255); stroke-opacity: 1; stroke-width: 1px;"/><path class="xgrid crisp" transform="translate(418.05,0)" d="M0,100v320" style="stroke: rgb(255, 255, 255); stroke-opacity: 1; stroke-width: 1px;"/><path class="xgrid crisp" transform="translate(551.95,0)" d="M0,100v320" style="stroke: rgb(255, 255, 255); stroke-opacity: 1; stroke-width: 1px;"/></g><g class="y"><path class="ygrid crisp" transform="translate(0,298.55)" d="M80,0h540" style="stroke: rgb(255, 255, 255); stroke-opacity: 1; stroke-width: 1px;"/><path class="ygrid crisp" transform="translate(0,211.43)" d="M80,0h540" style="stroke: rgb(255, 255, 255); stroke-opacity: 1; stroke-width: 1px;"/><path class="ygrid crisp" transform="translate(0,124.31)" d="M80,0h540" style="stroke: rgb(255, 255, 255); stroke-opacity: 1; stroke-width: 1px;"/></g></g><g class="zerolinelayer"><path class="yzl zl crisp" transform="translate(0,385.67)" d="M80,0h540" style="stroke: rgb(255, 255, 255); stroke-opacity: 1; stroke-width: 2px;"/></g><path class="xlines-below"/><path class="ylines-below"/><g class="overlines-below"/><g class="xaxislayer-below"/><g class="yaxislayer-below"/><g class="overaxes-below"/><g class="plot" transform="translate(80,100)" clip-path="url(#clipc39267xyplot)"><g class="scatterlayer mlayer"><g class="trace scatter tracef058b3" style="stroke-miterlimit: 2;"><g class="fills"><g><path class="js-fill" d="M540,285.67L0,285.67L0,285.67L2.2,259.36L4.39,248.89L8.78,240.33L10.98,241.38L15.37,235.38L17.56,233.93L26.34,233.98L28.54,231.62L30.73,231.26L32.93,231.91L35.12,146.31L37.32,100.32L39.51,36.68L41.71,21.79L43.9,16L46.1,16.99L48.29,20.82L50.49,137.17L52.68,175.04L54.88,186.18L59.27,189.58L61.46,188.87L63.66,186.77L65.85,204.64L68.05,207.02L70.24,207.92L76.83,211.02L79.02,212.56L81.22,212.96L83.41,208.14L87.8,206.56L90,207.4L96.59,201.44L98.78,202L100.98,202.5L103.17,201.32L107.56,199.23L109.76,199.55L111.95,198.83L114.15,200.41L118.54,209.07L120.73,208.15L125.12,203.77L127.32,204.97L129.51,244.76L131.71,208.61L133.9,202.02L136.1,201.96L138.29,198.43L140.49,198.48L142.68,202.53L144.88,201.8L147.07,195.55L149.27,195.1L153.66,193.99L155.85,193.62L158.05,193.31L160.24,193.81L162.44,194.67L164.63,179.29L169.02,177.03L171.22,173.58L173.41,173.5L175.61,175.04L177.8,172.39L180,173.1L182.2,181.67L184.39,181.56L186.59,186.85L188.78,187.6L190.98,190.27L193.17,191.2L195.37,185.62L197.56,185.87L199.76,180.73L201.95,180.01L204.15,180.05L206.34,181.4L208.54,181.68L210.73,294.15L215.12,185.52L217.32,186.39L219.51,185.87L221.71,182.44L223.9,185.58L226.1,190.29L228.29,198.05L230.49,201.43L232.68,192.11L234.88,191.81L237.07,190.02L239.27,189.66L241.46,184.7L243.66,184.01L245.85,184.45L248.05,186.52L250.24,184.14L252.44,187.24L254.63,215.18L256.83,217.95L259.02,219.25L261.22,225.44L265.61,224.65L267.8,227.41L270,213.6L272.2,206.22L274.39,203.86L276.59,202.8L280.98,203.81L283.17,200.92L285.37,194.87L287.56,197.18L289.76,197.47L291.95,194.1L294.15,191.8L298.54,191.59L300.73,191.88L302.93,187.46L305.12,303.96L307.32,303.96L540,304" style="fill: rgb(99, 110, 250); fill-opacity: 0.5; stroke-width: 0;"/></g></g><g class="errorbars"/><g class="lines"><path class="js-line" d="M0,285.67L2.2,259.36L4.39,248.89L8.78,240.33L10.98,241.38L15.37,235.38L17.56,233.93L26.34,233.98L28.54,231.62L30.73,231.26L32.93,231.91L35.12,146.31L37.32,100.32L39.51,36.68L41.71,21.79L43.9,16L46.1,16.99L48.29,20.82L50.49,137.17L52.68,175.04L54.88,186.18L59.27,189.58L61.46,188.87L63.66,186.77L65.85,204.64L68.05,207.02L70.24,207.92L76.83,211.02L79.02,212.56L81.22,212.96L83.41,208.14L87.8,206.56L90,207.4L96.59,201.44L98.78,202L100.98,202.5L103.17,201.32L107.56,199.23L109.76,199.55L111.95,198.83L114.15,200.41L118.54,209.07L120.73,208.15L125.12,203.77L127.32,204.97L129.51,244.76L131.71,208.61L133.9,202.02L136.1,201.96L138.29,198.43L140.49,198.48L142.68,202.53L144.88,201.8L147.07,195.55L149.27,195.1L153.66,193.99L155.85,193.62L158.05,193.31L160.24,193.81L162.44,194.67L164.63,179.29L169.02,177.03L171.22,173.58L173.41,173.5L175.61,175.04L177.8,172.39L180,173.1L182.2,181.67L184.39,181.56L186.59,186.85L188.78,187.6L190.98,190.27L193.17,191.2L195.37,185.62L197.56,185.87L199.76,180.73L201.95,180.01L204.15,180.05L206.34,181.4L208.54,181.68L210.73,294.15L215.12,185.52L217.32,186.39L219.51,185.87L221.71,182.44L223.9,185.58L226.1,190.29L228.29,198.05L230.49,201.43L232.68,192.11L234.88,191.81L237.07,190.02L239.27,189.66L241.46,184.7L243.66,184.01L245.85,184.45L248.05,186.52L250.24,184.14L252.44,187.24L254.63,215.18L256.83,217.95L259.02,219.25L261.22,225.44L265.61,224.65L267.8,227.41L270,213.6L272.2,206.22L274.39,203.86L276.59,202.8L280.98,203.81L283.17,200.92L285.37,194.87L287.56,197.18L289.76,197.47L291.95,194.1L294.15,191.8" style="vector-effect: none; fill: none; stroke: rgb(99, 110, 250); stroke-opacity: 1; stroke-width: 2px; opacity: 1;"/><path class="js-line" d="M298.54,191.59L300.73,191.88L302.93,187.46L305.12,303.96L307.32,303.96L540,304" style="vector-effect: none; fill: none; stroke: rgb(99, 110, 250); stroke-opacity: 1; stroke-width: 2px; opacity: 1;"/></g><g class="points"/><g class="text"/></g></g></g><g class="overplot"/><path class="xlines-above crisp" d="M0,0" style="fill: none;"/><path class="ylines-above crisp" d="M0,0" style="fill: none;"/><g class="overlines-above"/><g class="xaxislayer-above"><g class="xtick"><text text-anchor="middle" x="0" y="433" transform="translate(154.63,0)" style="font-family: 'Open Sans', verdana, arial, sans-serif; font-size: 12px; fill: rgb(42, 63, 95); fill-opacity: 1; white-space: pre; opacity: 1;">Jan 2023</text></g><g class="xtick"><text text-anchor="middle" x="0" y="433" style="font-family: 'Open Sans', verdana, arial, sans-serif; font-size: 12px; fill: rgb(42, 63, 95); fill-opacity: 1; white-space: pre; opacity: 1;" transform="translate(284.15,0)">Mar 2023</text></g><g class="xtick"><text text-anchor="middle" x="0" y="433" style="font-family: 'Open Sans', verdana, arial, sans-serif; font-size: 12px; fill: rgb(42, 63, 95); fill-opacity: 1; white-space: pre; opacity: 1;" transform="translate(418.05,0)">May 2023</text></g><g class="xtick"><text text-anchor="middle" x="0" y="433" style="font-family: 'Open Sans', verdana, arial, sans-serif; font-size: 12px; fill: rgb(42, 63, 95); fill-opacity: 1; white-space: pre; opacity: 1;" transform="translate(551.95,0)">Jul 2023</text></g></g><g class="yaxislayer-above"><g class="ytick"><text text-anchor="end" x="79" y="4.199999999999999" transform="translate(0,385.67)" style="font-family: 'Open Sans', verdana, arial, sans-serif; font-size: 12px; fill: rgb(42, 63, 95); fill-opacity: 1; white-space: pre; opacity: 1;">$0</text></g><g class="ytick"><text text-anchor="end" x="79" y="4.199999999999999" style="font-family: 'Open Sans', verdana, arial, sans-serif; font-size: 12px; fill: rgb(42, 63, 95); fill-opacity: 1; white-space: pre; opacity: 1;" transform="translate(0,298.55)">$5M</text></g><g class="ytick"><text text-anchor="end" x="79" y="4.199999999999999" style="font-family: 'Open Sans', verdana, arial, sans-serif; font-size: 12px; fill: rgb(42, 63, 95); fill-opacity: 1; white-space: pre; opacity: 1;" transform="translate(0,211.43)">$10M</text></g><g class="ytick"><text text-anchor="end" x="79" y="4.199999999999999" style="font-family: 'Open Sans', verdana, arial, sans-serif; font-size: 12px; fill: rgb(42, 63, 95); fill-opacity: 1; white-space: pre; opacity: 1;" transform="translate(0,124.31)">$15M</text></g></g><g class="overaxes-above"/></g></g><g class="polarlayer"/><g class="smithlayer"/><g class="ternarylayer"/><g class="geolayer"/><g class="funnelarealayer"/><g class="pielayer"/><g class="iciclelayer"/><g class="treemaplayer"/><g class="sunburstlayer"/><g class="glimages"/><defs id="topdefs-c39267"><g class="clips"/></defs><g class="layer-above"><g class="imagelayer"/><g class="shapelayer"/></g><g class="infolayer"><g class="g-gtitle"><text class="gtitle" x="35" y="50" text-anchor="start" dy="0em" style="font-family: 'Open Sans', verdana, arial, sans-serif; font-size: 17px; fill: rgb(42, 63, 95); opacity: 1; font-weight: normal; white-space: pre;"><tspan class="line" dy="0em" x="35" y="50">Hundred Finance</tspan><tspan class="line" dy="1.3em" x="35" y="50">​<tspan style="font-size:70%" dy="-0.6em">Cumulative Net Flows since Program Announcement, Until Program End + 30 Days - At Last Price</tspan><tspan dy="0.42em">​</tspan></tspan></text></g><g class="g-xtitle"><text class="xtitle" x="350" y="460.3" text-anchor="middle" style="font-family: 'Open Sans', verdana, arial, sans-serif; font-size: 14px; fill: rgb(42, 63, 95); opacity: 1; font-weight: normal; white-space: pre;">Day</text></g><g class="g-ytitle"><text class="ytitle" transform="rotate(-90,24.668750000000003,260)" x="24.668750000000003" y="260" text-anchor="middle" style="font-family: 'Open Sans', verdana, arial, sans-serif; font-size: 14px; fill: rgb(42, 63, 95); opacity: 1; font-weight: normal; white-space: pre;">Cumulative Net Flows (USD)</text></g></g></svg>