<svg class="main-svg" xmlns="http://www.w3.org/2000/svg" xmlns:xlink="http://www.w3.org/1999/xlink" width="700" height="500" style="" viewBox="0 0 700 500"><rect x="0" y="0" width="700" height="500" style="fill: rgb(255, 255, 255); fill-opacity: 1;"/><defs id="defs-ccbf9a"><g class="clips"><clipPath id="clipccbf9axyplot" class="plotclip"><rect width="540" height="320"/></clipPath><clipPath class="axesclip" id="clipccbf9ax"><rect x="80" y="0" width="540" height="500"/></clipPath><clipPath class="axesclip" id="clipccbf9ay"><rect x="0" y="100" width="700" height="320"/></clipPath><clipPath class="axesclip" id="clipccbf9axy"><rect x="80" y="100" width="540" height="320"/></clipPath></g><g class="gradients"/><g class="patterns"/></defs><g class="bglayer"><rect class="bg" x="80" y="100" width="540" height="320" style="fill: rgb(229, 236, 246); fill-opacity: 1; stroke-width: 0;"/></g><g class="layer-below"><g class="imagelayer"/><g class="shapelayer"/></g><g class="cartesianlayer"><g class="subplot xy"><g class="layer-subplot"><g class="shapelayer"/><g class="imagelayer"/></g><g class="minor-gridlayer"><g class="x"/><g class="y"/></g><g class="gridlayer"><g class="x"><path class="xgrid crisp" transform="translate(89.64,0)" d="M0,100v320" style="stroke: rgb(255, 255, 255); stroke-opacity: 1; stroke-width: 1px;"/><path class="xgrid crisp" transform="translate(173.67000000000002,0)" d="M0,100v320" style="stroke: rgb(255, 255, 255); stroke-opacity: 1; stroke-width: 1px;"/><path class="xgrid crisp" transform="translate(257.7,0)" d="M0,100v320" style="stroke: rgb(255, 255, 255); stroke-opacity: 1; stroke-width: 1px;"/><path class="xgrid crisp" transform="translate(338.98,0)" d="M0,100v320" style="stroke: rgb(255, 255, 255); stroke-opacity: 1; stroke-width: 1px;"/><path class="xgrid crisp" transform="translate(423.01,0)" d="M0,100v320" style="stroke: rgb(255, 255, 255); stroke-opacity: 1; stroke-width: 1px;"/><path class="xgrid crisp" transform="translate(507.04,0)" d="M0,100v320" style="stroke: rgb(255, 255, 255); stroke-opacity: 1; stroke-width: 1px;"/><path class="xgrid crisp" transform="translate(592.45,0)" d="M0,100v320" style="stroke: rgb(255, 255, 255); stroke-opacity: 1; stroke-width: 1px;"/></g><g class="y"><path class="ygrid crisp" transform="translate(0,354.68)" d="M80,0h540" style="stroke: rgb(255, 255, 255); stroke-opacity: 1; stroke-width: 1px;"/><path class="ygrid crisp" transform="translate(0,289.37)" d="M80,0h540" style="stroke: rgb(255, 255, 255); stroke-opacity: 1; stroke-width: 1px;"/><path class="ygrid crisp" transform="translate(0,224.05)" d="M80,0h540" style="stroke: rgb(255, 255, 255); stroke-opacity: 1; stroke-width: 1px;"/><path class="ygrid crisp" transform="translate(0,158.73)" d="M80,0h540" style="stroke: rgb(255, 255, 255); stroke-opacity: 1; stroke-width: 1px;"/></g></g><g class="zerolinelayer"><path class="yzl zl crisp" transform="translate(0,420)" d="M80,0h540" style="stroke: rgb(255, 255, 255); stroke-opacity: 1; stroke-width: 2px;"/></g><path class="xlines-below"/><path class="ylines-below"/><g class="overlines-below"/><g class="xaxislayer-below"/><g class="yaxislayer-below"/><g class="overaxes-below"/><g class="plot" transform="translate(80,100)" clip-path="url(#clipccbf9axyplot)"><g class="scatterlayer mlayer"><g class="trace scatter tracebcf7ef" style="stroke-miterlimit: 2;"><g class="fills"><g><path class="js-fill" d="M540,320L0,320L0,181.14L1.38,182.02L2.76,180.39L5.51,176.2L6.89,175.57L8.27,158.5L9.64,155.47L11.02,158.65L12.4,155.81L13.78,152.69L15.15,153.62L17.91,144.91L19.29,128.66L22.04,118.9L23.42,117.32L24.8,113.21L26.17,112.64L27.55,113.57L28.93,118.76L30.31,121.73L31.68,116.52L34.44,126.09L35.82,127.08L37.19,128.33L38.57,132.16L39.95,138.39L41.33,139.88L42.7,139.56L44.08,140.21L45.46,143.5L46.84,143.83L48.21,146.67L49.59,160.93L52.35,162.27L53.72,162.31L55.1,162.95L56.48,166.92L57.86,167.44L59.23,165.44L60.61,166.29L61.99,168.54L63.37,170.02L64.74,170.28L67.5,171.98L68.88,172.83L70.26,161.41L71.63,161.35L73.01,161.41L74.39,164.49L77.14,164.34L78.52,164.43L81.28,163.48L82.65,163.03L84.03,160.22L85.41,161.02L86.79,160.33L88.16,163.04L92.3,163.6L93.67,156.78L96.43,149.2L97.81,121.86L99.18,119.34L100.56,119.33L103.32,119.44L104.69,124.52L106.07,131.35L107.45,144.21L108.83,142.8L110.2,145.06L114.34,146.09L115.71,150.8L117.09,153.36L118.47,152.74L119.85,153.54L121.22,156.19L122.6,159.3L123.98,158.52L125.36,155.75L126.73,156.17L132.24,157.01L133.62,155.37L135,159.22L136.38,159.38L137.76,155.27L139.13,155.74L143.27,155.6L144.64,151.65L146.02,152.82L147.4,152.37L148.78,153.21L150.15,153.12L151.53,146.53L152.91,147.32L154.29,134.03L155.66,151.17L157.04,152.06L158.42,151.92L159.8,152.85L161.17,152.86L163.93,149.74L165.31,150.23L170.82,149.8L172.19,151.8L176.33,152.18L177.7,163.51L183.21,162.12L184.59,160.8L185.97,155.36L187.35,153.12L188.72,148.05L190.1,147.61L191.48,139.77L192.86,138.57L194.23,139L195.61,137.59L196.99,128.33L198.37,126.94L199.74,126.5L201.12,124.74L205.26,120.2L206.63,117.82L209.39,115.1L210.77,116.01L212.14,114.1L213.52,98.62L214.9,98.06L216.28,80.38L217.65,79.71L219.03,73.12L220.41,71.63L221.79,64.41L223.16,27.25L224.54,24.27L225.92,27.37L227.3,26.84L230.05,16L231.43,50.97L232.81,48.67L234.18,48.55L235.56,46.33L236.94,46.5L238.32,46.2L239.69,46.92L242.45,42.43L243.83,43.42L245.2,42.87L246.58,43.7L247.96,51.91L249.34,52.41L253.47,52.14L254.85,51.84L257.6,52.59L258.98,41.95L260.36,41.97L261.73,43.5L263.11,23.24L264.49,22.37L268.62,22.52L270,28.34L271.38,32.85L272.76,42.59L274.13,169.76L275.51,169.86L278.27,119.63L279.64,117.38L281.02,99.23L282.4,102.28L283.78,114.93L285.15,114.16L286.53,113.87L287.91,111.36L290.66,58.38L292.04,58.12L294.8,90.41L296.17,94.5L297.55,133.54L298.93,140.1L301.68,152.39L303.06,154.49L304.44,161.15L305.82,162.87L308.57,163.87L309.95,165.24L311.33,170.44L312.7,172.17L319.59,174.6L320.97,176.39L322.35,178.47L323.72,178.22L325.1,178.54L326.48,179.98L333.37,181.04L334.74,184.34L336.12,184.45L337.5,188.33L344.39,188.85L345.77,189.85L348.52,190.59L349.9,191.67L351.28,222.78L352.65,223.78L355.41,224.47L356.79,225.18L358.16,225.22L359.54,194.28L366.43,194.34L367.81,197.91L374.69,198.53L376.07,199.31L381.58,199.54L382.96,200.4L395.36,200.91L396.73,208.31L402.24,209L403.62,210.26L409.13,210.94L410.51,211.12L413.27,210.93L414.64,216.61L416.02,216.83L417.4,218.28L420.15,218.65L421.53,219.64L429.8,220.37L431.17,221.16L432.55,223.1L433.93,223.04L442.19,223.38L443.57,224.47L446.33,224.8L447.7,225L449.08,226.31L450.46,245.85L466.99,246.1L468.37,283.6L469.74,283.67L471.12,246.51L473.88,246.55L475.26,283.59L478.01,283.01L479.39,251.98L480.77,252.07L482.14,246.32L483.52,268.99L484.9,269.01L493.16,269.03L494.54,275.48L540,276.16" style="fill: rgb(99, 110, 250); fill-opacity: 0.5; stroke-width: 0;"/></g></g><g class="errorbars"/><g class="lines"><path class="js-line" d="M0,181.14L1.38,182.02L2.76,180.39L5.51,176.2L6.89,175.57L8.27,158.5L9.64,155.47L11.02,158.65L12.4,155.81L13.78,152.69L15.15,153.62L17.91,144.91L19.29,128.66L22.04,118.9L23.42,117.32L24.8,113.21L26.17,112.64L27.55,113.57L28.93,118.76L30.31,121.73L31.68,116.52L34.44,126.09L35.82,127.08L37.19,128.33L38.57,132.16L39.95,138.39L41.33,139.88L42.7,139.56L44.08,140.21L45.46,143.5L46.84,143.83L48.21,146.67L49.59,160.93L52.35,162.27L53.72,162.31L55.1,162.95L56.48,166.92L57.86,167.44L59.23,165.44L60.61,166.29L61.99,168.54L63.37,170.02L64.74,170.28L67.5,171.98L68.88,172.83L70.26,161.41L71.63,161.35L73.01,161.41L74.39,164.49L77.14,164.34L78.52,164.43L81.28,163.48L82.65,163.03L84.03,160.22L85.41,161.02L86.79,160.33L88.16,163.04L92.3,163.6L93.67,156.78L96.43,149.2L97.81,121.86L99.18,119.34L100.56,119.33L103.32,119.44L104.69,124.52L106.07,131.35L107.45,144.21L108.83,142.8L110.2,145.06L114.34,146.09L115.71,150.8L117.09,153.36L118.47,152.74L119.85,153.54L121.22,156.19L122.6,159.3L123.98,158.52L125.36,155.75L126.73,156.17L132.24,157.01L133.62,155.37L135,159.22L136.38,159.38L137.76,155.27L139.13,155.74L143.27,155.6L144.64,151.65L146.02,152.82L147.4,152.37L148.78,153.21L150.15,153.12L151.53,146.53L152.91,147.32L154.29,134.03L155.66,151.17L157.04,152.06L158.42,151.92L159.8,152.85L161.17,152.86L163.93,149.74L165.31,150.23L170.82,149.8L172.19,151.8L176.33,152.18L177.7,163.51L183.21,162.12L184.59,160.8L185.97,155.36L187.35,153.12L188.72,148.05L190.1,147.61L191.48,139.77L192.86,138.57L194.23,139L195.61,137.59L196.99,128.33L198.37,126.94L199.74,126.5L201.12,124.74L205.26,120.2L206.63,117.82L209.39,115.1L210.77,116.01L212.14,114.1L213.52,98.62L214.9,98.06L216.28,80.38L217.65,79.71L219.03,73.12L220.41,71.63L221.79,64.41L223.16,27.25L224.54,24.27L225.92,27.37L227.3,26.84L230.05,16L231.43,50.97L232.81,48.67L234.18,48.55L235.56,46.33L236.94,46.5L238.32,46.2L239.69,46.92L242.45,42.43L243.83,43.42L245.2,42.87L246.58,43.7L247.96,51.91L249.34,52.41L253.47,52.14L254.85,51.84L257.6,52.59L258.98,41.95L260.36,41.97L261.73,43.5L263.11,23.24L264.49,22.37L268.62,22.52L270,28.34L271.38,32.85L272.76,42.59L274.13,169.76L275.51,169.86L278.27,119.63L279.64,117.38L281.02,99.23L282.4,102.28L283.78,114.93L285.15,114.16L286.53,113.87L287.91,111.36L290.66,58.38L292.04,58.12L294.8,90.41L296.17,94.5L297.55,133.54L298.93,140.1L301.68,152.39L303.06,154.49L304.44,161.15L305.82,162.87L308.57,163.87L309.95,165.24L311.33,170.44L312.7,172.17L319.59,174.6L320.97,176.39L322.35,178.47L323.72,178.22L325.1,178.54L326.48,179.98L333.37,181.04L334.74,184.34L336.12,184.45L337.5,188.33L344.39,188.85L345.77,189.85L348.52,190.59L349.9,191.67L351.28,222.78L352.65,223.78L355.41,224.47L356.79,225.18L358.16,225.22L359.54,194.28L366.43,194.34L367.81,197.91L374.69,198.53L376.07,199.31L381.58,199.54L382.96,200.4L395.36,200.91L396.73,208.31L402.24,209L403.62,210.26L409.13,210.94L410.51,211.12L413.27,210.93L414.64,216.61L416.02,216.83L417.4,218.28L420.15,218.65L421.53,219.64L429.8,220.37L431.17,221.16L432.55,223.1L433.93,223.04L442.19,223.38L443.57,224.47L446.33,224.8L447.7,225L449.08,226.31L450.46,245.85L466.99,246.1L468.37,283.6L469.74,283.67L471.12,246.51L473.88,246.55L475.26,283.59L478.01,283.01L479.39,251.98L480.77,252.07L482.14,246.32L483.52,268.99L484.9,269.01L493.16,269.03L494.54,275.48L540,276.16" style="vector-effect: none; fill: none; stroke: rgb(99, 110, 250); stroke-opacity: 1; stroke-width: 2px; opacity: 1;"/></g><g class="points"/><g class="text"/></g></g></g><g class="overplot"/><path class="xlines-above crisp" d="M0,0" style="fill: none;"/><path class="ylines-above crisp" d="M0,0" style="fill: none;"/><g class="overlines-above"/><g class="xaxislayer-above"><g class="xtick"><text text-anchor="middle" x="0" y="433" transform="translate(89.64,0)" style="font-family: 'Open Sans', verdana, arial, sans-serif; font-size: 12px; fill: rgb(42, 63, 95); fill-opacity: 1; white-space: pre; opacity: 1;">Sep 2022</text></g><g class="xtick"><text text-anchor="middle" x="0" y="433" style="font-family: 'Open Sans', verdana, arial, sans-serif; font-size: 12px; fill: rgb(42, 63, 95); fill-opacity: 1; white-space: pre; opacity: 1;" transform="translate(173.67000000000002,0)">Nov 2022</text></g><g class="xtick"><text text-anchor="middle" x="0" y="433" style="font-family: 'Open Sans', verdana, arial, sans-serif; font-size: 12px; fill: rgb(42, 63, 95); fill-opacity: 1; white-space: pre; opacity: 1;" transform="translate(257.7,0)">Jan 2023</text></g><g class="xtick"><text text-anchor="middle" x="0" y="433" style="font-family: 'Open Sans', verdana, arial, sans-serif; font-size: 12px; fill: rgb(42, 63, 95); fill-opacity: 1; white-space: pre; opacity: 1;" transform="translate(338.98,0)">Mar 2023</text></g><g class="xtick"><text text-anchor="middle" x="0" y="433" style="font-family: 'Open Sans', verdana, arial, sans-serif; font-size: 12px; fill: rgb(42, 63, 95); fill-opacity: 1; white-space: pre; opacity: 1;" transform="translate(423.01,0)">May 2023</text></g><g class="xtick"><text text-anchor="middle" x="0" y="433" style="font-family: 'Open Sans', verdana, arial, sans-serif; font-size: 12px; fill: rgb(42, 63, 95); fill-opacity: 1; white-space: pre; opacity: 1;" transform="translate(507.04,0)">Jul 2023</text></g><g class="xtick"><text text-anchor="middle" x="0" y="433" style="font-family: 'Open Sans', verdana, arial, sans-serif; font-size: 12px; fill: rgb(42, 63, 95); fill-opacity: 1; white-space: pre; opacity: 1;" transform="translate(592.45,0)">Sep 2023</text></g></g><g class="yaxislayer-above"><g class="ytick"><text text-anchor="end" x="79" y="4.199999999999999" transform="translate(0,420)" style="font-family: 'Open Sans', verdana, arial, sans-serif; font-size: 12px; fill: rgb(42, 63, 95); fill-opacity: 1; white-space: pre; opacity: 1;">$0</text></g><g class="ytick"><text text-anchor="end" x="79" y="4.199999999999999" style="font-family: 'Open Sans', verdana, arial, sans-serif; font-size: 12px; fill: rgb(42, 63, 95); fill-opacity: 1; white-space: pre; opacity: 1;" transform="translate(0,354.68)">$10M</text></g><g class="ytick"><text text-anchor="end" x="79" y="4.199999999999999" style="font-family: 'Open Sans', verdana, arial, sans-serif; font-size: 12px; fill: rgb(42, 63, 95); fill-opacity: 1; white-space: pre; opacity: 1;" transform="translate(0,289.37)">$20M</text></g><g class="ytick"><text text-anchor="end" x="79" y="4.199999999999999" style="font-family: 'Open Sans', verdana, arial, sans-serif; font-size: 12px; fill: rgb(42, 63, 95); fill-opacity: 1; white-space: pre; opacity: 1;" transform="translate(0,224.05)">$30M</text></g><g class="ytick"><text text-anchor="end" x="79" y="4.199999999999999" style="font-family: 'Open Sans', verdana, arial, sans-serif; font-size: 12px; fill: rgb(42, 63, 95); fill-opacity: 1; white-space: pre; opacity: 1;" transform="translate(0,158.73)">$40M</text></g></g><g class="overaxes-above"/></g></g><g class="polarlayer"/><g class="smithlayer"/><g class="ternarylayer"/><g class="geolayer"/><g class="funnelarealayer"/><g class="pielayer"/><g class="iciclelayer"/><g class="treemaplayer"/><g class="sunburstlayer"/><g class="glimages"/><defs id="topdefs-ccbf9a"><g class="clips"/></defs><g class="layer-above"><g class="imagelayer"/><g class="shapelayer"/></g><g class="infolayer"><g class="g-gtitle"><text class="gtitle" x="35" y="50" text-anchor="start" dy="0em" style="font-family: 'Open Sans', verdana, arial, sans-serif; font-size: 17px; fill: rgb(42, 63, 95); opacity: 1; font-weight: normal; white-space: pre;"><tspan class="line" dy="0em" x="35" y="50">Synthetix - sUSD-3Crv: Curve</tspan><tspan class="line" dy="1.3em" x="35" y="50">​<tspan style="font-size:70%" dy="-0.6em">Cumulative Net Flows since Program Announcement, Until Program End + 30 Days - At Last Price</tspan><tspan dy="0.42em">​</tspan></tspan></text></g><g class="g-xtitle"><text class="xtitle" x="350" y="460.3" text-anchor="middle" style="font-family: 'Open Sans', verdana, arial, sans-serif; font-size: 14px; fill: rgb(42, 63, 95); opacity: 1; font-weight: normal; white-space: pre;">Day</text></g><g class="g-ytitle"><text class="ytitle" transform="rotate(-90,24.668750000000003,260)" x="24.668750000000003" y="260" text-anchor="middle" style="font-family: 'Open Sans', verdana, arial, sans-serif; font-size: 14px; fill: rgb(42, 63, 95); opacity: 1; font-weight: normal; white-space: pre;">Cumulative Net Flows (USD)</text></g></g></svg>