<svg class="main-svg" xmlns="http://www.w3.org/2000/svg" xmlns:xlink="http://www.w3.org/1999/xlink" width="700" height="500" style="" viewBox="0 0 700 500"><rect x="0" y="0" width="700" height="500" style="fill: rgb(255, 255, 255); fill-opacity: 1;"/><defs id="defs-f325eb"><g class="clips"><clipPath id="clipf325ebxyplot" class="plotclip"><rect width="540" height="320"/></clipPath><clipPath class="axesclip" id="clipf325ebx"><rect x="80" y="0" width="540" height="500"/></clipPath><clipPath class="axesclip" id="clipf325eby"><rect x="0" y="100" width="700" height="320"/></clipPath><clipPath class="axesclip" id="clipf325ebxy"><rect x="80" y="100" width="540" height="320"/></clipPath></g><g class="gradients"/><g class="patterns"/></defs><g class="bglayer"><rect class="bg" x="80" y="100" width="540" height="320" style="fill: rgb(229, 236, 246); fill-opacity: 1; stroke-width: 0;"/></g><g class="layer-below"><g class="imagelayer"/><g class="shapelayer"/></g><g class="cartesianlayer"><g class="subplot xy"><g class="layer-subplot"><g class="shapelayer"/><g class="imagelayer"/></g><g class="minor-gridlayer"><g class="x"/><g class="y"/></g><g class="gridlayer"><g class="x"><path class="xgrid crisp" transform="translate(94.65,0)" d="M0,100v320" style="stroke: rgb(255, 255, 255); stroke-opacity: 1; stroke-width: 1px;"/><path class="xgrid crisp" transform="translate(222.33,0)" d="M0,100v320" style="stroke: rgb(255, 255, 255); stroke-opacity: 1; stroke-width: 1px;"/><path class="xgrid crisp" transform="translate(345.81,0)" d="M0,100v320" style="stroke: rgb(255, 255, 255); stroke-opacity: 1; stroke-width: 1px;"/><path class="xgrid crisp" transform="translate(473.49,0)" d="M0,100v320" style="stroke: rgb(255, 255, 255); stroke-opacity: 1; stroke-width: 1px;"/><path class="xgrid crisp" transform="translate(601.16,0)" d="M0,100v320" style="stroke: rgb(255, 255, 255); stroke-opacity: 1; stroke-width: 1px;"/></g><g class="y"><path class="ygrid crisp" transform="translate(0,383.36)" d="M80,0h540" style="stroke: rgb(255, 255, 255); stroke-opacity: 1; stroke-width: 1px;"/><path class="ygrid crisp" transform="translate(0,346.72)" d="M80,0h540" style="stroke: rgb(255, 255, 255); stroke-opacity: 1; stroke-width: 1px;"/><path class="ygrid crisp" transform="translate(0,310.08000000000004)" d="M80,0h540" style="stroke: rgb(255, 255, 255); stroke-opacity: 1; stroke-width: 1px;"/><path class="ygrid crisp" transform="translate(0,273.44)" d="M80,0h540" style="stroke: rgb(255, 255, 255); stroke-opacity: 1; stroke-width: 1px;"/><path class="ygrid crisp" transform="translate(0,236.81)" d="M80,0h540" style="stroke: rgb(255, 255, 255); stroke-opacity: 1; stroke-width: 1px;"/><path class="ygrid crisp" transform="translate(0,200.17000000000002)" d="M80,0h540" style="stroke: rgb(255, 255, 255); stroke-opacity: 1; stroke-width: 1px;"/><path class="ygrid crisp" transform="translate(0,163.53)" d="M80,0h540" style="stroke: rgb(255, 255, 255); stroke-opacity: 1; stroke-width: 1px;"/><path class="ygrid crisp" transform="translate(0,126.89)" d="M80,0h540" style="stroke: rgb(255, 255, 255); stroke-opacity: 1; stroke-width: 1px;"/></g></g><g class="zerolinelayer"><path class="yzl zl crisp" transform="translate(0,420)" d="M80,0h540" style="stroke: rgb(255, 255, 255); stroke-opacity: 1; stroke-width: 2px;"/></g><path class="xlines-below"/><path class="ylines-below"/><g class="overlines-below"/><g class="xaxislayer-below"/><g class="yaxislayer-below"/><g class="overaxes-below"/><g class="plot" transform="translate(80,100)" clip-path="url(#clipf325ebxyplot)"><g class="scatterlayer mlayer"><g class="trace scatter trace35be93" style="stroke-miterlimit: 2;"><g class="fills"><g><path class="js-fill" d="M540,320L0,320L0,320L2.09,320L4.19,260.6L6.28,174.67L8.37,187.23L10.47,190.77L12.56,173.71L14.65,177.54L16.74,164.22L18.84,159.35L20.93,190.43L23.02,189.58L25.12,187.48L27.21,187.16L29.3,190.62L33.49,229.43L35.58,228.94L37.67,219.55L39.77,218.11L41.86,177.96L43.95,178.5L46.05,176.09L48.14,183.81L50.23,194.44L52.33,200.88L54.42,196.87L56.51,194.6L58.6,195.72L60.7,195.59L62.79,193.86L64.88,193.5L66.98,188.32L69.07,176.77L71.16,157.22L73.26,168.79L75.35,172.53L77.44,202.4L79.53,184.45L81.63,173.26L83.72,161.92L85.81,188.03L87.91,189.36L90,214.53L92.09,196.61L94.19,196.08L96.28,197.09L98.37,208.77L100.47,207.61L102.56,207.87L106.74,207.76L108.84,200.79L110.93,189.83L113.02,189.12L115.12,189.12L117.21,190.27L119.3,187L121.4,187.3L123.49,187.39L125.58,185.08L127.67,185.6L129.77,184.65L131.86,180.4L133.95,180.01L136.05,185.03L138.14,183.27L140.23,186.42L142.33,186.15L144.42,185.05L146.51,181.67L148.6,177.3L150.7,179.19L156.98,178.86L159.07,176.5L161.16,178.3L163.26,182.03L167.44,166.9L169.53,165.58L171.63,162.66L173.72,153.26L175.81,195.3L177.91,188.64L180,193.91L182.09,222.19L184.19,227.65L186.28,223.48L188.37,217.92L190.47,214.84L192.56,212.33L194.65,196.19L196.74,199.51L198.84,198.37L200.93,196.09L203.02,169.21L205.12,183.45L207.21,176.86L209.3,159.53L211.4,171.7L213.49,171.11L215.58,164.52L217.67,164.89L219.77,140.27L221.86,165.35L223.95,167.96L226.05,166.89L228.14,156.51L230.23,155.02L232.33,156.04L234.42,123.17L236.51,126.71L240.7,137.84L242.79,127.45L244.88,135.35L246.98,134.85L249.07,139.26L251.16,126.94L253.26,116.21L255.35,84.69L257.44,75.04L259.53,83.48L261.63,83.07L263.72,66.07L265.81,65.27L267.91,85.58L270,68.29L272.09,73.59L274.19,78.08L276.28,62.41L280.47,84.43L282.56,72.65L284.65,48.57L286.74,77.29L288.84,28L290.93,57.12L293.02,100.94L295.12,162.61L297.21,267.23L299.3,243.53L301.4,234.79L303.49,236.87L305.58,235.95L307.67,212.62L309.77,195.51L311.86,47.04L313.95,65.67L316.05,74.33L320.23,16L322.33,62.36L324.42,61.54L326.51,82.95L330.7,80.09L332.79,63.96L334.88,63.12L336.98,58.25L339.07,64.49L341.16,75.72L343.26,80.51L345.35,114.78L347.44,192.52L349.53,182.6L351.63,182.35L353.72,181.29L355.81,193.21L357.91,214L360,212.24L362.09,215.2L364.19,214.71L366.28,218.41L368.37,173.64L370.47,279.72L374.65,239.07L376.74,220.66L378.84,214.29L380.93,216.87L385.12,216.45L387.21,217.4L389.3,217.57L391.4,226.73L393.49,280.57L395.58,274.31L397.67,270.97L399.77,272.56L401.86,177.21L403.95,167.98L406.05,168.05L408.14,170.19L410.23,175.22L412.33,134.36L414.42,138.71L416.51,100.15L418.6,176.18L420.7,162.84L422.79,144.28L424.88,146.8L426.98,151.11L429.07,140.06L431.16,112.22L433.26,123.36L435.35,164.36L437.44,164.85L439.53,158.96L441.63,185.27L443.72,136.04L445.81,136.38L450,125.28L452.09,100.72L454.19,105.72L456.28,218.84L458.37,279.25L460.47,271.37L462.56,272.74L464.65,238.94L466.74,235.52L468.84,243.76L470.93,243.84L473.02,240.14L475.12,210.19L477.21,212.05L479.3,220.78L481.4,225.71L483.49,225.89L485.58,219.36L487.67,221.36L489.77,213.57L491.86,219.65L493.95,219.53L500.23,222.48L502.33,216.32L504.42,222.37L506.51,223.82L508.6,224.73L510.7,224.25L512.79,227.06L514.88,228.23L516.98,223.35L519.07,237.13L525.35,237.5L527.44,236.17L529.53,227.31L531.63,228.77L533.72,247.85L535.81,248.01L537.91,248.2L540,250.96" style="fill: rgb(99, 110, 250); fill-opacity: 0.5; stroke-width: 0;"/></g></g><g class="errorbars"/><g class="lines"><path class="js-line" d="M0,320L2.09,320L4.19,260.6L6.28,174.67L8.37,187.23L10.47,190.77L12.56,173.71L14.65,177.54L16.74,164.22L18.84,159.35L20.93,190.43L23.02,189.58L25.12,187.48L27.21,187.16L29.3,190.62L33.49,229.43L35.58,228.94L37.67,219.55L39.77,218.11L41.86,177.96L43.95,178.5L46.05,176.09L48.14,183.81L50.23,194.44L52.33,200.88L54.42,196.87L56.51,194.6L58.6,195.72L60.7,195.59L62.79,193.86L64.88,193.5L66.98,188.32L69.07,176.77L71.16,157.22L73.26,168.79L75.35,172.53L77.44,202.4L79.53,184.45L81.63,173.26L83.72,161.92L85.81,188.03L87.91,189.36L90,214.53L92.09,196.61L94.19,196.08L96.28,197.09L98.37,208.77L100.47,207.61L102.56,207.87L106.74,207.76L108.84,200.79L110.93,189.83L113.02,189.12L115.12,189.12L117.21,190.27L119.3,187L121.4,187.3L123.49,187.39L125.58,185.08L127.67,185.6L129.77,184.65L131.86,180.4L133.95,180.01L136.05,185.03L138.14,183.27L140.23,186.42L142.33,186.15L144.42,185.05L146.51,181.67L148.6,177.3L150.7,179.19L156.98,178.86L159.07,176.5L161.16,178.3L163.26,182.03L167.44,166.9L169.53,165.58L171.63,162.66L173.72,153.26L175.81,195.3L177.91,188.64L180,193.91L182.09,222.19L184.19,227.65L186.28,223.48L188.37,217.92L190.47,214.84L192.56,212.33L194.65,196.19L196.74,199.51L198.84,198.37L200.93,196.09L203.02,169.21L205.12,183.45L207.21,176.86L209.3,159.53L211.4,171.7L213.49,171.11L215.58,164.52L217.67,164.89L219.77,140.27L221.86,165.35L223.95,167.96L226.05,166.89L228.14,156.51L230.23,155.02L232.33,156.04L234.42,123.17L236.51,126.71L240.7,137.84L242.79,127.45L244.88,135.35L246.98,134.85L249.07,139.26L251.16,126.94L253.26,116.21L255.35,84.69L257.44,75.04L259.53,83.48L261.63,83.07L263.72,66.07L265.81,65.27L267.91,85.58L270,68.29L272.09,73.59L274.19,78.08L276.28,62.41L280.47,84.43L282.56,72.65L284.65,48.57L286.74,77.29L288.84,28L290.93,57.12L293.02,100.94L295.12,162.61L297.21,267.23L299.3,243.53L301.4,234.79L303.49,236.87L305.58,235.95L307.67,212.62L309.77,195.51L311.86,47.04L313.95,65.67L316.05,74.33L320.23,16L322.33,62.36L324.42,61.54L326.51,82.95L330.7,80.09L332.79,63.96L334.88,63.12L336.98,58.25L339.07,64.49L341.16,75.72L343.26,80.51L345.35,114.78L347.44,192.52L349.53,182.6L351.63,182.35L353.72,181.29L355.81,193.21L357.91,214L360,212.24L362.09,215.2L364.19,214.71L366.28,218.41L368.37,173.64L370.47,279.72L374.65,239.07L376.74,220.66L378.84,214.29L380.93,216.87L385.12,216.45L387.21,217.4L389.3,217.57L391.4,226.73L393.49,280.57L395.58,274.31L397.67,270.97L399.77,272.56L401.86,177.21L403.95,167.98L406.05,168.05L408.14,170.19L410.23,175.22L412.33,134.36L414.42,138.71L416.51,100.15L418.6,176.18L420.7,162.84L422.79,144.28L424.88,146.8L426.98,151.11L429.07,140.06L431.16,112.22L433.26,123.36L435.35,164.36L437.44,164.85L439.53,158.96L441.63,185.27L443.72,136.04L445.81,136.38L450,125.28L452.09,100.72L454.19,105.72L456.28,218.84L458.37,279.25L460.47,271.37L462.56,272.74L464.65,238.94L466.74,235.52L468.84,243.76L470.93,243.84L473.02,240.14L475.12,210.19L477.21,212.05L479.3,220.78L481.4,225.71L483.49,225.89L485.58,219.36L487.67,221.36L489.77,213.57L491.86,219.65L493.95,219.53L500.23,222.48L502.33,216.32L504.42,222.37L506.51,223.82L508.6,224.73L510.7,224.25L512.79,227.06L514.88,228.23L516.98,223.35L519.07,237.13L525.35,237.5L527.44,236.17L529.53,227.31L531.63,228.77L533.72,247.85L535.81,248.01L537.91,248.2L540,250.96" style="vector-effect: none; fill: none; stroke: rgb(99, 110, 250); stroke-opacity: 1; stroke-width: 2px; opacity: 1;"/></g><g class="points"/><g class="text"/></g></g></g><g class="overplot"/><path class="xlines-above crisp" d="M0,0" style="fill: none;"/><path class="ylines-above crisp" d="M0,0" style="fill: none;"/><g class="overlines-above"/><g class="xaxislayer-above"><g class="xtick"><text text-anchor="middle" x="0" y="433" transform="translate(94.65,0)" style="font-family: 'Open Sans', verdana, arial, sans-serif; font-size: 12px; fill: rgb(42, 63, 95); fill-opacity: 1; white-space: pre; opacity: 1;">Nov 2022</text></g><g class="xtick"><text text-anchor="middle" x="0" y="433" style="font-family: 'Open Sans', verdana, arial, sans-serif; font-size: 12px; fill: rgb(42, 63, 95); fill-opacity: 1; white-space: pre; opacity: 1;" transform="translate(222.33,0)">Jan 2023</text></g><g class="xtick"><text text-anchor="middle" x="0" y="433" style="font-family: 'Open Sans', verdana, arial, sans-serif; font-size: 12px; fill: rgb(42, 63, 95); fill-opacity: 1; white-space: pre; opacity: 1;" transform="translate(345.81,0)">Mar 2023</text></g><g class="xtick"><text text-anchor="middle" x="0" y="433" style="font-family: 'Open Sans', verdana, arial, sans-serif; font-size: 12px; fill: rgb(42, 63, 95); fill-opacity: 1; white-space: pre; opacity: 1;" transform="translate(473.49,0)">May 2023</text></g><g class="xtick"><text text-anchor="middle" x="0" y="433" style="font-family: 'Open Sans', verdana, arial, sans-serif; font-size: 12px; fill: rgb(42, 63, 95); fill-opacity: 1; white-space: pre; opacity: 1;" transform="translate(601.16,0)">Jul 2023</text></g></g><g class="yaxislayer-above"><g class="ytick"><text text-anchor="end" x="79" y="4.199999999999999" transform="translate(0,420)" style="font-family: 'Open Sans', verdana, arial, sans-serif; font-size: 12px; fill: rgb(42, 63, 95); fill-opacity: 1; white-space: pre; opacity: 1;">$0</text></g><g class="ytick"><text text-anchor="end" x="79" y="4.199999999999999" style="font-family: 'Open Sans', verdana, arial, sans-serif; font-size: 12px; fill: rgb(42, 63, 95); fill-opacity: 1; white-space: pre; opacity: 1;" transform="translate(0,383.36)">$0.2M</text></g><g class="ytick"><text text-anchor="end" x="79" y="4.199999999999999" style="font-family: 'Open Sans', verdana, arial, sans-serif; font-size: 12px; fill: rgb(42, 63, 95); fill-opacity: 1; white-space: pre; opacity: 1;" transform="translate(0,346.72)">$0.4M</text></g><g class="ytick"><text text-anchor="end" x="79" y="4.199999999999999" style="font-family: 'Open Sans', verdana, arial, sans-serif; font-size: 12px; fill: rgb(42, 63, 95); fill-opacity: 1; white-space: pre; opacity: 1;" transform="translate(0,310.08000000000004)">$0.6M</text></g><g class="ytick"><text text-anchor="end" x="79" y="4.199999999999999" style="font-family: 'Open Sans', verdana, arial, sans-serif; font-size: 12px; fill: rgb(42, 63, 95); fill-opacity: 1; white-space: pre; opacity: 1;" transform="translate(0,273.44)">$0.8M</text></g><g class="ytick"><text text-anchor="end" x="79" y="4.199999999999999" style="font-family: 'Open Sans', verdana, arial, sans-serif; font-size: 12px; fill: rgb(42, 63, 95); fill-opacity: 1; white-space: pre; opacity: 1;" transform="translate(0,236.81)">$1M</text></g><g class="ytick"><text text-anchor="end" x="79" y="4.199999999999999" style="font-family: 'Open Sans', verdana, arial, sans-serif; font-size: 12px; fill: rgb(42, 63, 95); fill-opacity: 1; white-space: pre; opacity: 1;" transform="translate(0,200.17000000000002)">$1.2M</text></g><g class="ytick"><text text-anchor="end" x="79" y="4.199999999999999" style="font-family: 'Open Sans', verdana, arial, sans-serif; font-size: 12px; fill: rgb(42, 63, 95); fill-opacity: 1; white-space: pre; opacity: 1;" transform="translate(0,163.53)">$1.4M</text></g><g class="ytick"><text text-anchor="end" x="79" y="4.199999999999999" style="font-family: 'Open Sans', verdana, arial, sans-serif; font-size: 12px; fill: rgb(42, 63, 95); fill-opacity: 1; white-space: pre; opacity: 1;" transform="translate(0,126.89)">$1.6M</text></g></g><g class="overaxes-above"/></g></g><g class="polarlayer"/><g class="smithlayer"/><g class="ternarylayer"/><g class="geolayer"/><g class="funnelarealayer"/><g class="pielayer"/><g class="iciclelayer"/><g class="treemaplayer"/><g class="sunburstlayer"/><g class="glimages"/><defs id="topdefs-f325eb"><g class="clips"/></defs><g class="layer-above"><g class="imagelayer"/><g class="shapelayer"/></g><g class="infolayer"><g class="g-gtitle"><text class="gtitle" x="35" y="50" text-anchor="start" dy="0em" style="font-family: 'Open Sans', verdana, arial, sans-serif; font-size: 17px; fill: rgb(42, 63, 95); opacity: 1; font-weight: normal; white-space: pre;"><tspan class="line" dy="0em" x="35" y="50">Synthetix - SNX Bridge: Hop</tspan><tspan class="line" dy="1.3em" x="35" y="50">​<tspan style="font-size:70%" dy="-0.6em">Cumulative Net Flows since Program Announcement, Until Program End + 30 Days - At Last Price</tspan><tspan dy="0.42em">​</tspan></tspan></text></g><g class="g-xtitle"><text class="xtitle" x="350" y="460.3" text-anchor="middle" style="font-family: 'Open Sans', verdana, arial, sans-serif; font-size: 14px; fill: rgb(42, 63, 95); opacity: 1; font-weight: normal; white-space: pre;">Day</text></g><g class="g-ytitle"><text class="ytitle" transform="rotate(-90,21.340625000000003,260)" x="21.340625000000003" y="260" text-anchor="middle" style="font-family: 'Open Sans', verdana, arial, sans-serif; font-size: 14px; fill: rgb(42, 63, 95); opacity: 1; font-weight: normal; white-space: pre;">Cumulative Net Flows (USD)</text></g></g></svg>