<svg class="main-svg" xmlns="http://www.w3.org/2000/svg" xmlns:xlink="http://www.w3.org/1999/xlink" width="700" height="500" style="" viewBox="0 0 700 500"><rect x="0" y="0" width="700" height="500" style="fill: rgb(255, 255, 255); fill-opacity: 1;"/><defs id="defs-246774"><g class="clips"><clipPath id="clip246774xyplot" class="plotclip"><rect width="540" height="320"/></clipPath><clipPath class="axesclip" id="clip246774x"><rect x="80" y="0" width="540" height="500"/></clipPath><clipPath class="axesclip" id="clip246774y"><rect x="0" y="100" width="700" height="320"/></clipPath><clipPath class="axesclip" id="clip246774xy"><rect x="80" y="100" width="540" height="320"/></clipPath></g><g class="gradients"/><g class="patterns"/></defs><g class="bglayer"><rect class="bg" x="80" y="100" width="540" height="320" style="fill: rgb(229, 236, 246); fill-opacity: 1; stroke-width: 0;"/></g><g class="layer-below"><g class="imagelayer"/><g class="shapelayer"/></g><g class="cartesianlayer"><g class="subplot xy"><g class="layer-subplot"><g class="shapelayer"/><g class="imagelayer"/></g><g class="minor-gridlayer"><g class="x"/><g class="y"/></g><g class="gridlayer"><g class="x"><path class="xgrid crisp" transform="translate(125.96000000000001,0)" d="M0,100v320" style="stroke: rgb(255, 255, 255); stroke-opacity: 1; stroke-width: 1px;"/><path class="xgrid crisp" transform="translate(242.77,0)" d="M0,100v320" style="stroke: rgb(255, 255, 255); stroke-opacity: 1; stroke-width: 1px;"/><path class="xgrid crisp" transform="translate(361.49,0)" d="M0,100v320" style="stroke: rgb(255, 255, 255); stroke-opacity: 1; stroke-width: 1px;"/><path class="xgrid crisp" transform="translate(478.3,0)" d="M0,100v320" style="stroke: rgb(255, 255, 255); stroke-opacity: 1; stroke-width: 1px;"/><path class="xgrid crisp" transform="translate(595.11,0)" d="M0,100v320" style="stroke: rgb(255, 255, 255); stroke-opacity: 1; stroke-width: 1px;"/></g><g class="y"><path class="ygrid crisp" transform="translate(0,305.88)" d="M80,0h540" style="stroke: rgb(255, 255, 255); stroke-opacity: 1; stroke-width: 1px;"/><path class="ygrid crisp" transform="translate(0,229.24)" d="M80,0h540" style="stroke: rgb(255, 255, 255); stroke-opacity: 1; stroke-width: 1px;"/><path class="ygrid crisp" transform="translate(0,152.61)" d="M80,0h540" style="stroke: rgb(255, 255, 255); stroke-opacity: 1; stroke-width: 1px;"/></g></g><g class="zerolinelayer"><path class="yzl zl crisp" transform="translate(0,382.51)" d="M80,0h540" style="stroke: rgb(255, 255, 255); stroke-opacity: 1; stroke-width: 2px;"/></g><path class="xlines-below"/><path class="ylines-below"/><g class="overlines-below"/><g class="xaxislayer-below"/><g class="yaxislayer-below"/><g class="overaxes-below"/><g class="plot" transform="translate(80,100)" clip-path="url(#clip246774xyplot)"><g class="scatterlayer mlayer"><g class="trace scatter trace42750f" style="stroke-miterlimit: 2;"><g class="fills"><g><path class="js-fill" d="M540,282.51L0,282.51L0,120.75L1.91,124.8L3.83,137.05L5.74,140.74L7.66,147.59L9.57,148.33L11.49,131.15L15.32,110.81L17.23,82.06L21.06,65.03L22.98,64.72L24.89,43.08L26.81,37.25L32.55,19.09L34.47,21.51L36.38,19.79L38.3,19.87L40.21,16L42.13,30.18L44.04,30.61L45.96,35.13L47.87,35.27L49.79,38.05L53.62,35.46L55.53,44.32L57.45,44.72L59.36,47.08L61.28,53.25L63.19,54.06L65.11,53.76L67.02,50.03L68.94,48.15L70.85,49.72L72.77,48.11L74.68,48.11L76.6,48.4L78.51,39.32L82.34,38.34L84.26,38.12L88.09,38.35L90,38.25L91.91,35.6L93.83,34.81L95.74,34.77L97.66,42.32L99.57,38.01L101.49,44.14L103.4,60.9L105.32,59.43L107.23,51.12L109.15,51.28L111.06,50.5L112.98,58.93L114.89,43.24L116.81,41.22L118.72,57.27L120.64,58.84L122.55,80.45L124.47,84.73L128.3,86.03L130.21,87.37L132.13,89.84L134.04,90.07L135.96,88.34L137.87,88.45L141.7,88.89L143.62,85.63L145.53,127.49L147.45,129.84L151.28,131.02L153.19,132.72L155.11,141.68L157.02,154.29L158.94,223.25L160.85,235.3L162.77,262.2L164.68,264L166.6,265.73L168.51,266.29L172.34,267.19L174.26,268.65L176.17,268.89L178.09,293.82L183.83,294.71L185.74,296.05L189.57,296.88L191.49,297.01L201.06,297.5L202.98,298.44L210.64,299.12L212.55,299.23L225.96,300.35L227.87,300.94L268.09,301.17L270,303.1L271.91,301.41L273.83,301.44L308.3,301.8L310.21,303.28L312.13,303.28L314.04,301.84L323.62,301.86L325.53,303.31L327.45,301.86L329.36,301.86L331.28,303.31L333.19,301.87L360,302.05L361.91,303.41L363.83,303.41L365.74,302.01L367.66,303.42L369.57,302L375.32,302.07L377.23,303.52L379.15,302.02L381.06,302.02L386.81,302.1L388.72,303.64L390.64,302.24L392.55,302.24L394.47,303.66L396.38,302.24L404.04,302.28L405.96,303.68L407.87,302.21L409.79,303.68L411.7,302.21L413.62,302.21L423.19,302.55L425.11,303.78L427.02,302.53L428.94,303.22L536.17,303.57L538.09,304L540,303.59" style="fill: rgb(99, 110, 250); fill-opacity: 0.5; stroke-width: 0;"/></g></g><g class="errorbars"/><g class="lines"><path class="js-line" d="M0,120.75L1.91,124.8L3.83,137.05L5.74,140.74L7.66,147.59L9.57,148.33L11.49,131.15L15.32,110.81L17.23,82.06L21.06,65.03L22.98,64.72L24.89,43.08L26.81,37.25L32.55,19.09L34.47,21.51L36.38,19.79L38.3,19.87L40.21,16L42.13,30.18L44.04,30.61L45.96,35.13L47.87,35.27L49.79,38.05L53.62,35.46L55.53,44.32L57.45,44.72L59.36,47.08L61.28,53.25L63.19,54.06L65.11,53.76L67.02,50.03L68.94,48.15L70.85,49.72L72.77,48.11L74.68,48.11L76.6,48.4L78.51,39.32L82.34,38.34L84.26,38.12L88.09,38.35L90,38.25L91.91,35.6L93.83,34.81L95.74,34.77L97.66,42.32L99.57,38.01L101.49,44.14L103.4,60.9L105.32,59.43L107.23,51.12L109.15,51.28L111.06,50.5L112.98,58.93L114.89,43.24L116.81,41.22L118.72,57.27L120.64,58.84L122.55,80.45L124.47,84.73L128.3,86.03L130.21,87.37L132.13,89.84L134.04,90.07L135.96,88.34L137.87,88.45L141.7,88.89L143.62,85.63L145.53,127.49L147.45,129.84L151.28,131.02L153.19,132.72L155.11,141.68L157.02,154.29L158.94,223.25L160.85,235.3L162.77,262.2L164.68,264L166.6,265.73L168.51,266.29L172.34,267.19L174.26,268.65L176.17,268.89L178.09,293.82L183.83,294.71L185.74,296.05L189.57,296.88L191.49,297.01L201.06,297.5L202.98,298.44L210.64,299.12L212.55,299.23L225.96,300.35L227.87,300.94L268.09,301.17L270,303.1L271.91,301.41L273.83,301.44L308.3,301.8L310.21,303.28L312.13,303.28L314.04,301.84L323.62,301.86L325.53,303.31L327.45,301.86L329.36,301.86L331.28,303.31L333.19,301.87L360,302.05L361.91,303.41L363.83,303.41L365.74,302.01L367.66,303.42L369.57,302L375.32,302.07L377.23,303.52L379.15,302.02L381.06,302.02L386.81,302.1L388.72,303.64L390.64,302.24L392.55,302.24L394.47,303.66L396.38,302.24L404.04,302.28L405.96,303.68L407.87,302.21L409.79,303.68L411.7,302.21L413.62,302.21L423.19,302.55L425.11,303.78L427.02,302.53L428.94,303.22L536.17,303.57L538.09,304L540,303.59" style="vector-effect: none; fill: none; stroke: rgb(99, 110, 250); stroke-opacity: 1; stroke-width: 2px; opacity: 1;"/></g><g class="points"/><g class="text"/></g></g></g><g class="overplot"/><path class="xlines-above crisp" d="M0,0" style="fill: none;"/><path class="ylines-above crisp" d="M0,0" style="fill: none;"/><g class="overlines-above"/><g class="xaxislayer-above"><g class="xtick"><text text-anchor="middle" x="0" y="433" transform="translate(125.96000000000001,0)" style="font-family: 'Open Sans', verdana, arial, sans-serif; font-size: 12px; fill: rgb(42, 63, 95); fill-opacity: 1; white-space: pre; opacity: 1;">May 2023</text></g><g class="xtick"><text text-anchor="middle" x="0" y="433" style="font-family: 'Open Sans', verdana, arial, sans-serif; font-size: 12px; fill: rgb(42, 63, 95); fill-opacity: 1; white-space: pre; opacity: 1;" transform="translate(242.77,0)">Jul 2023</text></g><g class="xtick"><text text-anchor="middle" x="0" y="433" style="font-family: 'Open Sans', verdana, arial, sans-serif; font-size: 12px; fill: rgb(42, 63, 95); fill-opacity: 1; white-space: pre; opacity: 1;" transform="translate(361.49,0)">Sep 2023</text></g><g class="xtick"><text text-anchor="middle" x="0" y="433" style="font-family: 'Open Sans', verdana, arial, sans-serif; font-size: 12px; fill: rgb(42, 63, 95); fill-opacity: 1; white-space: pre; opacity: 1;" transform="translate(478.3,0)">Nov 2023</text></g><g class="xtick"><text text-anchor="middle" x="0" y="433" style="font-family: 'Open Sans', verdana, arial, sans-serif; font-size: 12px; fill: rgb(42, 63, 95); fill-opacity: 1; white-space: pre; opacity: 1;" transform="translate(595.11,0)">Jan 2024</text></g></g><g class="yaxislayer-above"><g class="ytick"><text text-anchor="end" x="79" y="4.199999999999999" transform="translate(0,382.51)" style="font-family: 'Open Sans', verdana, arial, sans-serif; font-size: 12px; fill: rgb(42, 63, 95); fill-opacity: 1; white-space: pre; opacity: 1;">$0</text></g><g class="ytick"><text text-anchor="end" x="79" y="4.199999999999999" style="font-family: 'Open Sans', verdana, arial, sans-serif; font-size: 12px; fill: rgb(42, 63, 95); fill-opacity: 1; white-space: pre; opacity: 1;" transform="translate(0,305.88)">$5M</text></g><g class="ytick"><text text-anchor="end" x="79" y="4.199999999999999" style="font-family: 'Open Sans', verdana, arial, sans-serif; font-size: 12px; fill: rgb(42, 63, 95); fill-opacity: 1; white-space: pre; opacity: 1;" transform="translate(0,229.24)">$10M</text></g><g class="ytick"><text text-anchor="end" x="79" y="4.199999999999999" style="font-family: 'Open Sans', verdana, arial, sans-serif; font-size: 12px; fill: rgb(42, 63, 95); fill-opacity: 1; white-space: pre; opacity: 1;" transform="translate(0,152.61)">$15M</text></g></g><g class="overaxes-above"/></g></g><g class="polarlayer"/><g class="smithlayer"/><g class="ternarylayer"/><g class="geolayer"/><g class="funnelarealayer"/><g class="pielayer"/><g class="iciclelayer"/><g class="treemaplayer"/><g class="sunburstlayer"/><g class="glimages"/><defs id="topdefs-246774"><g class="clips"/></defs><g class="layer-above"><g class="imagelayer"/><g class="shapelayer"/></g><g class="infolayer"><g class="g-gtitle"><text class="gtitle" x="35" y="50" text-anchor="start" dy="0em" style="font-family: 'Open Sans', verdana, arial, sans-serif; font-size: 17px; fill: rgb(42, 63, 95); opacity: 1; font-weight: normal; white-space: pre;"><tspan class="line" dy="0em" x="35" y="50">Lido - All Lido Velo Pools</tspan><tspan class="line" dy="1.3em" x="35" y="50">​<tspan style="font-size:70%" dy="-0.6em">Cumulative Net Flows since Program Announcement, Until Program End + 30 Days - At Last Price</tspan><tspan dy="0.42em">​</tspan></tspan></text></g><g class="g-xtitle"><text class="xtitle" x="350" y="460.3" text-anchor="middle" style="font-family: 'Open Sans', verdana, arial, sans-serif; font-size: 14px; fill: rgb(42, 63, 95); opacity: 1; font-weight: normal; white-space: pre;">Day</text></g><g class="g-ytitle"><text class="ytitle" transform="rotate(-90,24.668750000000003,260)" x="24.668750000000003" y="260" text-anchor="middle" style="font-family: 'Open Sans', verdana, arial, sans-serif; font-size: 14px; fill: rgb(42, 63, 95); opacity: 1; font-weight: normal; white-space: pre;">Cumulative Net Flows (USD)</text></g></g></svg>