<svg class="main-svg" xmlns="http://www.w3.org/2000/svg" xmlns:xlink="http://www.w3.org/1999/xlink" width="700" height="500" style="" viewBox="0 0 700 500"><rect x="0" y="0" width="700" height="500" style="fill: rgb(255, 255, 255); fill-opacity: 1;"/><defs id="defs-d850de"><g class="clips"><clipPath id="clipd850dexyplot" class="plotclip"><rect width="540" height="320"/></clipPath><clipPath class="axesclip" id="clipd850dex"><rect x="80" y="0" width="540" height="500"/></clipPath><clipPath class="axesclip" id="clipd850dey"><rect x="0" y="100" width="700" height="320"/></clipPath><clipPath class="axesclip" id="clipd850dexy"><rect x="80" y="100" width="540" height="320"/></clipPath></g><g class="gradients"/><g class="patterns"/></defs><g class="bglayer"><rect class="bg" x="80" y="100" width="540" height="320" style="fill: rgb(229, 236, 246); fill-opacity: 1; stroke-width: 0;"/></g><g class="layer-below"><g class="imagelayer"/><g class="shapelayer"/></g><g class="cartesianlayer"><g class="subplot xy"><g class="layer-subplot"><g class="shapelayer"/><g class="imagelayer"/></g><g class="minor-gridlayer"><g class="x"/><g class="y"/></g><g class="gridlayer"><g class="x"><path class="xgrid crisp" transform="translate(126.41,0)" d="M0,100v320" style="stroke: rgb(255, 255, 255); stroke-opacity: 1; stroke-width: 1px;"/><path class="xgrid crisp" transform="translate(197.18,0)" d="M0,100v320" style="stroke: rgb(255, 255, 255); stroke-opacity: 1; stroke-width: 1px;"/><path class="xgrid crisp" transform="translate(265.64,0)" d="M0,100v320" style="stroke: rgb(255, 255, 255); stroke-opacity: 1; stroke-width: 1px;"/><path class="xgrid crisp" transform="translate(336.41,0)" d="M0,100v320" style="stroke: rgb(255, 255, 255); stroke-opacity: 1; stroke-width: 1px;"/><path class="xgrid crisp" transform="translate(407.18,0)" d="M0,100v320" style="stroke: rgb(255, 255, 255); stroke-opacity: 1; stroke-width: 1px;"/><path class="xgrid crisp" transform="translate(479.12,0)" d="M0,100v320" style="stroke: rgb(255, 255, 255); stroke-opacity: 1; stroke-width: 1px;"/><path class="xgrid crisp" transform="translate(549.89,0)" d="M0,100v320" style="stroke: rgb(255, 255, 255); stroke-opacity: 1; stroke-width: 1px;"/></g><g class="y"><path class="ygrid crisp" transform="translate(0,387.45)" d="M80,0h540" style="stroke: rgb(255, 255, 255); stroke-opacity: 1; stroke-width: 1px;"/><path class="ygrid crisp" transform="translate(0,351.35)" d="M80,0h540" style="stroke: rgb(255, 255, 255); stroke-opacity: 1; stroke-width: 1px;"/><path class="ygrid crisp" transform="translate(0,279.15)" d="M80,0h540" style="stroke: rgb(255, 255, 255); stroke-opacity: 1; stroke-width: 1px;"/><path class="ygrid crisp" transform="translate(0,243.05)" d="M80,0h540" style="stroke: rgb(255, 255, 255); stroke-opacity: 1; stroke-width: 1px;"/><path class="ygrid crisp" transform="translate(0,206.95)" d="M80,0h540" style="stroke: rgb(255, 255, 255); stroke-opacity: 1; stroke-width: 1px;"/><path class="ygrid crisp" transform="translate(0,170.85)" d="M80,0h540" style="stroke: rgb(255, 255, 255); stroke-opacity: 1; stroke-width: 1px;"/><path class="ygrid crisp" transform="translate(0,134.75)" d="M80,0h540" style="stroke: rgb(255, 255, 255); stroke-opacity: 1; stroke-width: 1px;"/></g></g><g class="zerolinelayer"><path class="yzl zl crisp" transform="translate(0,315.25)" d="M80,0h540" style="stroke: rgb(255, 255, 255); stroke-opacity: 1; stroke-width: 2px;"/></g><path class="xlines-below"/><path class="ylines-below"/><g class="overlines-below"/><g class="xaxislayer-below"/><g class="yaxislayer-below"/><g class="overaxes-below"/><g class="plot" transform="translate(80,100)" clip-path="url(#clipd850dexyplot)"><g class="scatterlayer mlayer"><g class="trace scatter trace637557" style="stroke-miterlimit: 2;"><g class="fills"><g><path class="js-fill" d="M540,215.25L0,215.25L0,211.96L1.16,207.45L2.32,208.39L3.48,207.24L4.64,213.11L5.8,208.97L6.96,207.84L8.12,207.9L9.28,204.09L10.44,212.01L11.6,205.52L12.76,201.16L13.92,202.06L15.08,204.53L16.24,200.69L17.4,200.92L18.56,198.02L19.72,198.1L20.88,200.46L22.04,198.97L23.2,199.24L24.36,202.43L25.53,200.63L26.69,200.39L27.85,201.96L29.01,201.91L30.17,200.25L31.33,197.96L32.49,197.33L33.65,194.15L34.81,194.67L35.97,193.79L37.13,195.15L38.29,195.89L39.45,189.68L40.61,161.41L41.77,110.4L42.93,98.74L44.09,97.92L46.41,86.16L47.57,87.82L48.73,74.1L49.89,75.47L51.05,76.42L52.21,80.46L53.37,82.06L54.53,77.84L56.85,104.96L58.01,100.28L61.49,106.32L62.65,106.18L64.97,102.21L66.13,103.37L67.29,103.23L68.45,107.87L70.77,100.59L71.93,100.71L73.09,102.14L74.25,100.94L75.41,100.65L76.58,104.67L77.74,110.81L78.9,106.32L80.06,88.94L81.22,87.44L82.38,89.25L83.54,94.67L85.86,97.39L87.02,94.71L90.5,95.53L91.66,100.54L93.98,100.26L95.14,100.45L96.3,94.67L97.46,96.38L98.62,90.9L99.78,91.29L100.94,80.26L102.1,84.7L103.26,83.43L104.42,92.34L105.58,89.11L106.74,95.01L107.9,93.79L109.06,94.57L110.22,95.83L111.38,94.76L112.54,99.58L113.7,101.05L117.18,102.16L118.34,100.11L119.5,98.95L120.66,93.44L122.98,105.96L124.14,108.71L125.3,109.36L126.46,107.26L127.63,106.17L128.79,113.49L129.95,116.19L131.11,114.72L132.27,119.2L133.43,119.27L136.91,153.15L138.07,154.74L139.23,152.46L140.39,154.07L141.55,148.65L142.71,151.03L143.87,148.23L145.03,151.89L146.19,146.99L147.35,145.37L148.51,146.31L149.67,144.69L153.15,136.88L154.31,140.71L158.95,132.8L160.11,130.78L161.27,135.43L162.43,135.45L165.91,126.49L167.07,126.77L168.23,124.85L169.39,126.6L170.55,133.97L171.71,133.15L172.87,130.9L174.03,138.65L175.19,131.34L176.35,131.94L177.51,128.65L178.68,133.79L182.16,106.14L183.32,109.82L184.48,100.33L185.64,97.27L186.8,98.42L187.96,92L189.12,93.75L190.28,86.74L192.6,74.37L193.76,72.57L194.92,77.84L196.08,65.29L197.24,70.59L198.4,83.06L199.56,87.02L200.72,73.62L201.88,87.05L203.04,84.33L206.52,83.24L207.68,67.78L210,61.97L211.16,43.7L212.32,55.99L213.48,53.74L215.8,42.72L216.96,43.92L218.12,36.88L219.28,43.99L220.44,42.61L221.6,29.44L223.92,26.89L225.08,16L228.56,33.02L229.73,31.67L230.89,64.23L232.05,44.93L233.21,46L234.37,40.25L235.53,38.44L236.69,34.62L237.85,39.07L239.01,36.19L240.17,42.7L241.33,33.16L243.65,31.73L244.81,27.69L245.97,26.98L247.13,28.06L248.29,21.23L249.45,31.54L250.61,28.69L251.77,22.62L254.09,17.25L255.25,21.79L256.41,25.43L257.57,22.38L258.73,22.33L259.89,28.5L261.05,22.99L262.21,29.24L263.37,26.62L264.53,29.01L265.69,27.45L266.85,23.28L268.01,23.93L269.17,28.23L270.33,38.22L271.49,30.67L272.65,29.52L273.81,42.95L274.97,47.11L276.13,57.41L277.29,60.74L278.45,57.04L280.78,61.98L281.94,61.86L283.1,66.59L284.26,61.48L285.42,56.57L286.58,57.93L287.74,61.65L288.9,53.51L291.22,61.93L292.38,73.31L293.54,65.99L294.7,79.91L295.86,80.04L297.02,77.41L298.18,85.28L299.34,87.37L300.5,96.67L301.66,90.83L302.82,87.72L303.98,104.31L305.14,100.02L306.3,107.45L307.46,105.9L308.62,107.04L310.94,105.15L312.1,110.99L313.26,117.4L314.42,115.51L316.74,127.6L317.9,124.43L320.22,128.31L321.38,124.72L323.7,122.58L324.86,124.35L326.02,138.24L327.18,141.65L329.5,132.76L330.66,131.86L331.83,126.55L332.99,126.6L334.15,132.11L335.31,133.81L339.95,149.82L341.11,145.92L342.27,145.48L343.43,146.93L344.59,151.97L345.75,151.78L346.91,148.85L348.07,148.41L349.23,145.4L350.39,139.21L351.55,137.51L352.71,141.26L353.87,141.62L355.03,138.34L356.19,137.71L357.35,142.27L358.51,142.41L359.67,141.01L363.15,142.72L364.31,145.15L365.47,151.59L366.63,153.13L368.95,158.06L370.11,156.08L371.27,150.33L372.43,152.38L373.59,149.74L374.75,149.06L378.23,153.76L379.39,150.75L381.71,150.38L382.88,147.97L384.04,148.92L385.2,152.3L386.36,152.36L387.52,155.42L388.68,155.61L389.84,160.15L393.32,153.94L394.48,156.35L395.64,152.39L396.8,154.71L397.96,150.34L399.12,151.61L400.28,151.93L401.44,150.26L402.6,154.92L403.76,151.33L404.92,152.61L406.08,156.58L407.24,153.54L408.4,153.38L409.56,153L410.72,154.73L411.88,155.09L413.04,157.14L415.36,158.81L416.52,161.69L417.68,160.62L418.84,160.64L420,159.84L421.16,157.28L422.32,159.07L423.48,158.42L425.8,157.21L426.96,158.55L428.12,159.25L429.28,158.81L430.44,158.77L431.6,160.66L433.93,163.57L435.09,165.54L436.25,167.87L437.41,172.68L438.57,174.81L439.73,193.62L442.05,187.5L443.21,187.01L444.37,188.14L445.53,187.81L446.69,185.55L447.85,185.67L450.17,187.59L451.33,187.69L452.49,187.71L453.65,188.51L454.81,187.05L455.97,187.43L457.13,197.27L458.29,195.4L460.61,193.39L461.77,196.42L462.93,193.52L464.09,193.32L465.25,194.04L466.41,192.79L467.57,193.07L468.73,198.6L469.89,200.18L471.05,199.04L472.21,197.24L473.37,198.87L475.69,199.23L476.85,201.32L478.01,200.57L479.17,201.58L480.33,198.43L481.49,200.16L482.65,207.89L483.82,205.57L484.98,202.73L486.14,203.84L487.3,204.71L488.46,203.23L489.62,202.32L490.78,205.46L491.94,205.66L493.1,213.34L495.42,207.14L496.58,208.52L497.74,206.71L498.9,206.77L500.06,205.24L501.22,202.06L502.38,201.99L503.54,202.98L504.7,204.92L505.86,205.28L507.02,208.81L508.18,207.17L509.34,205.46L510.5,202.28L512.82,201.19L513.98,202.36L515.14,202.9L516.3,212.22L517.46,213.96L518.62,213.98L519.78,213.61L520.94,214.53L523.26,213.81L524.42,216.99L525.58,216.92L526.74,218.91L529.06,214.21L530.22,213.93L533.7,218.64L534.87,218.52L536.03,217.19L537.19,217.95L538.35,304L538.84,219L540,304" style="fill: rgb(99, 110, 250); fill-opacity: 0.5; stroke-width: 0;"/></g></g><g class="errorbars"/><g class="lines"><path class="js-line" d="M0,211.96L1.16,207.45L2.32,208.39L3.48,207.24L4.64,213.11L5.8,208.97L6.96,207.84L8.12,207.9L9.28,204.09L10.44,212.01L11.6,205.52L12.76,201.16L13.92,202.06L15.08,204.53L16.24,200.69L17.4,200.92L18.56,198.02L19.72,198.1L20.88,200.46L22.04,198.97L23.2,199.24L24.36,202.43L25.53,200.63L26.69,200.39L27.85,201.96L29.01,201.91L30.17,200.25L31.33,197.96L32.49,197.33L33.65,194.15L34.81,194.67L35.97,193.79L37.13,195.15L38.29,195.89L39.45,189.68L40.61,161.41L41.77,110.4L42.93,98.74L44.09,97.92L46.41,86.16L47.57,87.82L48.73,74.1L49.89,75.47L51.05,76.42L52.21,80.46L53.37,82.06L54.53,77.84L56.85,104.96L58.01,100.28L61.49,106.32L62.65,106.18L64.97,102.21L66.13,103.37L67.29,103.23L68.45,107.87L70.77,100.59L71.93,100.71L73.09,102.14L74.25,100.94L75.41,100.65L76.58,104.67L77.74,110.81L78.9,106.32L80.06,88.94L81.22,87.44L82.38,89.25L83.54,94.67L85.86,97.39L87.02,94.71L90.5,95.53L91.66,100.54L93.98,100.26L95.14,100.45L96.3,94.67L97.46,96.38L98.62,90.9L99.78,91.29L100.94,80.26L102.1,84.7L103.26,83.43L104.42,92.34L105.58,89.11L106.74,95.01L107.9,93.79L109.06,94.57L110.22,95.83L111.38,94.76L112.54,99.58L113.7,101.05L117.18,102.16L118.34,100.11L119.5,98.95L120.66,93.44L122.98,105.96L124.14,108.71L125.3,109.36L126.46,107.26L127.63,106.17L128.79,113.49L129.95,116.19L131.11,114.72L132.27,119.2L133.43,119.27L136.91,153.15L138.07,154.74L139.23,152.46L140.39,154.07L141.55,148.65L142.71,151.03L143.87,148.23L145.03,151.89L146.19,146.99L147.35,145.37L148.51,146.31L149.67,144.69L153.15,136.88L154.31,140.71L158.95,132.8L160.11,130.78L161.27,135.43L162.43,135.45L165.91,126.49L167.07,126.77L168.23,124.85L169.39,126.6L170.55,133.97L171.71,133.15L172.87,130.9L174.03,138.65L175.19,131.34L176.35,131.94L177.51,128.65L178.68,133.79L182.16,106.14L183.32,109.82L184.48,100.33L185.64,97.27L186.8,98.42L187.96,92L189.12,93.75L190.28,86.74L192.6,74.37L193.76,72.57L194.92,77.84L196.08,65.29L197.24,70.59L198.4,83.06L199.56,87.02L200.72,73.62L201.88,87.05L203.04,84.33L206.52,83.24L207.68,67.78L210,61.97L211.16,43.7L212.32,55.99L213.48,53.74L215.8,42.72L216.96,43.92L218.12,36.88L219.28,43.99L220.44,42.61L221.6,29.44L223.92,26.89L225.08,16L228.56,33.02L229.73,31.67L230.89,64.23L232.05,44.93L233.21,46L234.37,40.25L235.53,38.44L236.69,34.62L237.85,39.07L239.01,36.19L240.17,42.7L241.33,33.16L243.65,31.73L244.81,27.69L245.97,26.98L247.13,28.06L248.29,21.23L249.45,31.54L250.61,28.69L251.77,22.62L254.09,17.25L255.25,21.79L256.41,25.43L257.57,22.38L258.73,22.33L259.89,28.5L261.05,22.99L262.21,29.24L263.37,26.62L264.53,29.01L265.69,27.45L266.85,23.28L268.01,23.93L269.17,28.23L270.33,38.22L271.49,30.67L272.65,29.52L273.81,42.95L274.97,47.11L276.13,57.41L277.29,60.74L278.45,57.04L280.78,61.98L281.94,61.86L283.1,66.59L284.26,61.48L285.42,56.57L286.58,57.93L287.74,61.65L288.9,53.51L291.22,61.93L292.38,73.31L293.54,65.99L294.7,79.91L295.86,80.04L297.02,77.41L298.18,85.28L299.34,87.37L300.5,96.67L301.66,90.83L302.82,87.72L303.98,104.31L305.14,100.02L306.3,107.45L307.46,105.9L308.62,107.04L310.94,105.15L312.1,110.99L313.26,117.4L314.42,115.51L316.74,127.6L317.9,124.43L320.22,128.31L321.38,124.72L323.7,122.58L324.86,124.35L326.02,138.24L327.18,141.65L329.5,132.76L330.66,131.86L331.83,126.55L332.99,126.6L334.15,132.11L335.31,133.81L339.95,149.82L341.11,145.92L342.27,145.48L343.43,146.93L344.59,151.97L345.75,151.78L346.91,148.85L348.07,148.41L349.23,145.4L350.39,139.21L351.55,137.51L352.71,141.26L353.87,141.62L355.03,138.34L356.19,137.71L357.35,142.27L358.51,142.41L359.67,141.01L363.15,142.72L364.31,145.15L365.47,151.59L366.63,153.13L368.95,158.06L370.11,156.08L371.27,150.33L372.43,152.38L373.59,149.74L374.75,149.06L378.23,153.76L379.39,150.75L381.71,150.38L382.88,147.97L384.04,148.92L385.2,152.3L386.36,152.36L387.52,155.42L388.68,155.61L389.84,160.15L393.32,153.94L394.48,156.35L395.64,152.39L396.8,154.71L397.96,150.34L399.12,151.61L400.28,151.93L401.44,150.26L402.6,154.92L403.76,151.33L404.92,152.61L406.08,156.58L407.24,153.54L408.4,153.38L409.56,153L410.72,154.73L411.88,155.09L413.04,157.14L415.36,158.81L416.52,161.69L417.68,160.62L418.84,160.64L420,159.84L421.16,157.28L422.32,159.07L423.48,158.42L425.8,157.21L426.96,158.55L428.12,159.25L429.28,158.81L430.44,158.77L431.6,160.66L433.93,163.57L435.09,165.54L436.25,167.87L437.41,172.68L438.57,174.81L439.73,193.62L442.05,187.5L443.21,187.01L444.37,188.14L445.53,187.81L446.69,185.55L447.85,185.67L450.17,187.59L451.33,187.69L452.49,187.71L453.65,188.51L454.81,187.05L455.97,187.43L457.13,197.27L458.29,195.4L460.61,193.39L461.77,196.42L462.93,193.52L464.09,193.32L465.25,194.04L466.41,192.79L467.57,193.07L468.73,198.6L469.89,200.18L471.05,199.04L472.21,197.24L473.37,198.87L475.69,199.23L476.85,201.32L478.01,200.57L479.17,201.58L480.33,198.43L481.49,200.16L482.65,207.89L483.82,205.57L484.98,202.73L486.14,203.84L487.3,204.71L488.46,203.23L489.62,202.32L490.78,205.46L491.94,205.66L493.1,213.34L495.42,207.14L496.58,208.52L497.74,206.71L498.9,206.77L500.06,205.24L501.22,202.06L502.38,201.99L503.54,202.98L504.7,204.92L505.86,205.28L507.02,208.81L508.18,207.17L509.34,205.46L510.5,202.28L512.82,201.19L513.98,202.36L515.14,202.9L516.3,212.22L517.46,213.96L518.62,213.98L519.78,213.61L520.94,214.53L523.26,213.81L524.42,216.99L525.58,216.92L526.74,218.91L529.06,214.21L530.22,213.93L533.7,218.64L534.87,218.52L536.03,217.19L537.19,217.95L538.35,304L538.84,219L540,304" style="vector-effect: none; fill: none; stroke: rgb(99, 110, 250); stroke-opacity: 1; stroke-width: 2px; opacity: 1;"/></g><g class="points"/><g class="text"/></g></g></g><g class="overplot"/><path class="xlines-above crisp" d="M0,0" style="fill: none;"/><path class="ylines-above crisp" d="M0,0" style="fill: none;"/><g class="overlines-above"/><g class="xaxislayer-above"><g class="xtick"><text text-anchor="middle" x="0" y="433" transform="translate(126.41,0)" style="font-family: 'Open Sans', verdana, arial, sans-serif; font-size: 12px; fill: rgb(42, 63, 95); fill-opacity: 1; white-space: pre; opacity: 1;">Nov 2022</text></g><g class="xtick"><text text-anchor="middle" x="0" y="433" style="font-family: 'Open Sans', verdana, arial, sans-serif; font-size: 12px; fill: rgb(42, 63, 95); fill-opacity: 1; white-space: pre; opacity: 1;" transform="translate(197.18,0)">Jan 2023</text></g><g class="xtick"><text text-anchor="middle" x="0" y="433" style="font-family: 'Open Sans', verdana, arial, sans-serif; font-size: 12px; fill: rgb(42, 63, 95); fill-opacity: 1; white-space: pre; opacity: 1;" transform="translate(265.64,0)">Mar 2023</text></g><g class="xtick"><text text-anchor="middle" x="0" y="433" style="font-family: 'Open Sans', verdana, arial, sans-serif; font-size: 12px; fill: rgb(42, 63, 95); fill-opacity: 1; white-space: pre; opacity: 1;" transform="translate(336.41,0)">May 2023</text></g><g class="xtick"><text text-anchor="middle" x="0" y="433" style="font-family: 'Open Sans', verdana, arial, sans-serif; font-size: 12px; fill: rgb(42, 63, 95); fill-opacity: 1; white-space: pre; opacity: 1;" transform="translate(407.18,0)">Jul 2023</text></g><g class="xtick"><text text-anchor="middle" x="0" y="433" style="font-family: 'Open Sans', verdana, arial, sans-serif; font-size: 12px; fill: rgb(42, 63, 95); fill-opacity: 1; white-space: pre; opacity: 1;" transform="translate(479.12,0)">Sep 2023</text></g><g class="xtick"><text text-anchor="middle" x="0" y="433" style="font-family: 'Open Sans', verdana, arial, sans-serif; font-size: 12px; fill: rgb(42, 63, 95); fill-opacity: 1; white-space: pre; opacity: 1;" transform="translate(549.89,0)">Nov 2023</text></g></g><g class="yaxislayer-above"><g class="ytick"><text text-anchor="end" x="79" y="4.199999999999999" transform="translate(0,387.45)" style="font-family: 'Open Sans', verdana, arial, sans-serif; font-size: 12px; fill: rgb(42, 63, 95); fill-opacity: 1; white-space: pre; opacity: 1;">$−4M</text></g><g class="ytick"><text text-anchor="end" x="79" y="4.199999999999999" style="font-family: 'Open Sans', verdana, arial, sans-serif; font-size: 12px; fill: rgb(42, 63, 95); fill-opacity: 1; white-space: pre; opacity: 1;" transform="translate(0,351.35)">$−2M</text></g><g class="ytick"><text text-anchor="end" x="79" y="4.199999999999999" style="font-family: 'Open Sans', verdana, arial, sans-serif; font-size: 12px; fill: rgb(42, 63, 95); fill-opacity: 1; white-space: pre; opacity: 1;" transform="translate(0,315.25)">$0</text></g><g class="ytick"><text text-anchor="end" x="79" y="4.199999999999999" style="font-family: 'Open Sans', verdana, arial, sans-serif; font-size: 12px; fill: rgb(42, 63, 95); fill-opacity: 1; white-space: pre; opacity: 1;" transform="translate(0,279.15)">$2M</text></g><g class="ytick"><text text-anchor="end" x="79" y="4.199999999999999" style="font-family: 'Open Sans', verdana, arial, sans-serif; font-size: 12px; fill: rgb(42, 63, 95); fill-opacity: 1; white-space: pre; opacity: 1;" transform="translate(0,243.05)">$4M</text></g><g class="ytick"><text text-anchor="end" x="79" y="4.199999999999999" style="font-family: 'Open Sans', verdana, arial, sans-serif; font-size: 12px; fill: rgb(42, 63, 95); fill-opacity: 1; white-space: pre; opacity: 1;" transform="translate(0,206.95)">$6M</text></g><g class="ytick"><text text-anchor="end" x="79" y="4.199999999999999" style="font-family: 'Open Sans', verdana, arial, sans-serif; font-size: 12px; fill: rgb(42, 63, 95); fill-opacity: 1; white-space: pre; opacity: 1;" transform="translate(0,170.85)">$8M</text></g><g class="ytick"><text text-anchor="end" x="79" y="4.199999999999999" style="font-family: 'Open Sans', verdana, arial, sans-serif; font-size: 12px; fill: rgb(42, 63, 95); fill-opacity: 1; white-space: pre; opacity: 1;" transform="translate(0,134.75)">$10M</text></g></g><g class="overaxes-above"/></g></g><g class="polarlayer"/><g class="smithlayer"/><g class="ternarylayer"/><g class="geolayer"/><g class="funnelarealayer"/><g class="pielayer"/><g class="iciclelayer"/><g class="treemaplayer"/><g class="sunburstlayer"/><g class="glimages"/><defs id="topdefs-d850de"><g class="clips"/></defs><g class="layer-above"><g class="imagelayer"/><g class="shapelayer"/></g><g class="infolayer"><g class="g-gtitle"><text class="gtitle" x="35" y="50" text-anchor="start" dy="0em" style="font-family: 'Open Sans', verdana, arial, sans-serif; font-size: 17px; fill: rgb(42, 63, 95); opacity: 1; font-weight: normal; white-space: pre;"><tspan class="line" dy="0em" x="35" y="50">Hop Protocol</tspan><tspan class="line" dy="1.3em" x="35" y="50">​<tspan style="font-size:70%" dy="-0.6em">Cumulative Net Flows since Program Announcement, Until Program End + 30 Days - At Last Price</tspan><tspan dy="0.42em">​</tspan></tspan></text></g><g class="g-xtitle"><text class="xtitle" x="350" y="460.3" text-anchor="middle" style="font-family: 'Open Sans', verdana, arial, sans-serif; font-size: 14px; fill: rgb(42, 63, 95); opacity: 1; font-weight: normal; white-space: pre;">Day</text></g><g class="g-ytitle"><text class="ytitle" transform="rotate(-90,24.340625000000003,260)" x="24.340625000000003" y="260" text-anchor="middle" style="font-family: 'Open Sans', verdana, arial, sans-serif; font-size: 14px; fill: rgb(42, 63, 95); opacity: 1; font-weight: normal; white-space: pre;">Cumulative Net Flows (USD)</text></g></g></svg>