<svg class="main-svg" xmlns="http://www.w3.org/2000/svg" xmlns:xlink="http://www.w3.org/1999/xlink" width="700" height="500" style="" viewBox="0 0 700 500"><rect x="0" y="0" width="700" height="500" style="fill: rgb(255, 255, 255); fill-opacity: 1;"/><defs id="defs-4576ef"><g class="clips"><clipPath id="clip4576efxyplot" class="plotclip"><rect width="540" height="320"/></clipPath><clipPath class="axesclip" id="clip4576efx"><rect x="80" y="0" width="540" height="500"/></clipPath><clipPath class="axesclip" id="clip4576efy"><rect x="0" y="100" width="700" height="320"/></clipPath><clipPath class="axesclip" id="clip4576efxy"><rect x="80" y="100" width="540" height="320"/></clipPath></g><g class="gradients"/><g class="patterns"/></defs><g class="bglayer"><rect class="bg" x="80" y="100" width="540" height="320" style="fill: rgb(229, 236, 246); fill-opacity: 1; stroke-width: 0;"/></g><g class="layer-below"><g class="imagelayer"/><g class="shapelayer"/></g><g class="cartesianlayer"><g class="subplot xy"><g class="layer-subplot"><g class="shapelayer"/><g class="imagelayer"/></g><g class="minor-gridlayer"><g class="x"/><g class="y"/></g><g class="gridlayer"><g class="x"><path class="xgrid crisp" transform="translate(124.16,0)" d="M0,100v320" style="stroke: rgb(255, 255, 255); stroke-opacity: 1; stroke-width: 1px;"/><path class="xgrid crisp" transform="translate(201.12,0)" d="M0,100v320" style="stroke: rgb(255, 255, 255); stroke-opacity: 1; stroke-width: 1px;"/><path class="xgrid crisp" transform="translate(275.56,0)" d="M0,100v320" style="stroke: rgb(255, 255, 255); stroke-opacity: 1; stroke-width: 1px;"/><path class="xgrid crisp" transform="translate(352.52,0)" d="M0,100v320" style="stroke: rgb(255, 255, 255); stroke-opacity: 1; stroke-width: 1px;"/><path class="xgrid crisp" transform="translate(429.49,0)" d="M0,100v320" style="stroke: rgb(255, 255, 255); stroke-opacity: 1; stroke-width: 1px;"/><path class="xgrid crisp" transform="translate(507.71,0)" d="M0,100v320" style="stroke: rgb(255, 255, 255); stroke-opacity: 1; stroke-width: 1px;"/><path class="xgrid crisp" transform="translate(584.6700000000001,0)" d="M0,100v320" style="stroke: rgb(255, 255, 255); stroke-opacity: 1; stroke-width: 1px;"/></g><g class="y"><path class="ygrid crisp" transform="translate(0,386.02)" d="M80,0h540" style="stroke: rgb(255, 255, 255); stroke-opacity: 1; stroke-width: 1px;"/><path class="ygrid crisp" transform="translate(0,252.15)" d="M80,0h540" style="stroke: rgb(255, 255, 255); stroke-opacity: 1; stroke-width: 1px;"/><path class="ygrid crisp" transform="translate(0,185.20999999999998)" d="M80,0h540" style="stroke: rgb(255, 255, 255); stroke-opacity: 1; stroke-width: 1px;"/><path class="ygrid crisp" transform="translate(0,118.27)" d="M80,0h540" style="stroke: rgb(255, 255, 255); stroke-opacity: 1; stroke-width: 1px;"/></g></g><g class="zerolinelayer"><path class="yzl zl crisp" transform="translate(0,319.08000000000004)" d="M80,0h540" style="stroke: rgb(255, 255, 255); stroke-opacity: 1; stroke-width: 2px;"/></g><path class="xlines-below"/><path class="ylines-below"/><g class="overlines-below"/><g class="xaxislayer-below"/><g class="yaxislayer-below"/><g class="overaxes-below"/><g class="plot" transform="translate(80,100)" clip-path="url(#clip4576efxyplot)"><g class="scatterlayer mlayer"><g class="trace scatter tracea490b4" style="stroke-miterlimit: 2;"><g class="fills"><g><path class="js-fill" d="M540,219.08L0,219.08L0,218.94L25.23,218.8L26.5,215.55L29.02,215.7L30.28,216.78L31.54,216.95L32.8,216.19L35.33,217.2L36.59,219.73L37.85,218.86L39.11,216.56L41.64,215.93L42.9,215.63L45.42,214.95L46.68,212.74L50.47,211.65L51.73,209.81L52.99,217.4L54.25,218.34L55.51,223.98L56.78,224.13L59.3,227.01L60.56,227.34L61.82,223.11L63.08,222.94L66.87,221.57L68.13,221.46L69.39,221.74L70.65,221.19L71.92,221.84L73.18,220.05L74.44,219.25L75.7,217.04L76.96,216.68L78.22,218.71L79.49,218.98L80.75,218.39L83.27,214.27L84.53,214.19L87.06,213.23L88.32,215.33L89.58,213.84L90.84,214.98L92.1,212.85L93.36,215.4L94.63,205.12L95.89,208.36L97.15,206.77L98.41,208.58L99.67,217.92L100.93,218.03L102.2,220.71L103.46,221.07L104.72,220.68L105.98,217.86L111.03,217.54L112.29,217.53L121.12,219.51L122.38,219.17L126.17,219.04L127.43,220.08L128.69,218.94L129.95,218.94L131.21,217.27L132.48,216.86L135,215.13L136.26,213.75L140.05,212.86L141.31,210.42L142.57,209.05L143.83,205.03L145.09,202.75L146.36,197.71L147.62,198.18L148.88,193.97L152.66,170.83L153.93,166.21L155.19,163.49L156.45,162.64L157.71,160.9L158.97,156.9L160.23,155.16L161.5,152.08L165.28,146.97L166.54,134.33L169.07,116.64L170.33,117.52L171.59,118.37L172.85,114.93L174.11,112.15L175.37,111.8L176.64,110.57L177.9,106.66L180.42,98.47L181.68,98.93L185.47,71.27L186.73,73.87L187.99,72.04L189.25,58.12L190.51,56.1L191.78,44.24L196.82,20.16L198.08,20.44L199.35,20.92L200.61,23.08L201.87,23.8L203.13,18.56L204.39,16L205.65,22.6L206.92,59.74L208.18,144.1L209.44,146.3L210.7,130.1L211.96,107.06L213.22,101.92L214.49,98.26L215.75,82.71L218.27,57.17L219.53,53.47L220.79,57.2L222.06,54.05L224.58,59.96L225.84,63.25L227.1,64.86L228.36,69.21L229.63,68.37L230.89,69.8L232.15,80.73L233.41,119.53L234.67,119.94L235.93,125.15L238.46,135.13L239.72,137.18L240.98,141.82L242.24,143.39L243.5,144.43L244.77,151.89L249.81,167.02L251.07,165.59L253.6,167.95L254.86,167.64L257.38,169.79L258.64,173.72L259.91,176.03L261.17,173.98L262.43,174.36L263.69,169.9L266.21,167.92L267.48,170.21L271.26,169.91L272.52,170.13L275.05,171.96L276.31,173.91L277.57,174.78L278.83,177.16L280.09,177.19L281.36,179.53L283.88,182.46L285.14,186.58L286.4,187.45L287.66,187.39L288.93,187.82L290.19,189.28L291.45,187.06L292.71,194.48L293.97,195.55L295.23,194.53L296.5,196.98L297.76,197.17L300.28,197.48L301.54,197.86L304.07,198.21L305.33,200.79L310.37,201.47L311.64,202.78L312.9,203L314.16,204.42L316.68,205.06L317.94,207.27L320.47,198.61L321.73,198.86L322.99,205.53L324.25,205.99L328.04,206.37L329.3,213.71L330.56,215.47L331.82,214.21L333.08,214.49L334.35,216.86L336.87,223.69L338.13,224.18L341.92,225.5L343.18,227.96L344.44,229.55L345.7,236.74L348.22,249.15L349.49,252.46L350.75,252.95L352.01,255.52L353.27,264.12L354.53,264.19L362.1,266.5L363.36,292.08L364.63,292.79L365.89,298.22L370.93,298.86L372.2,299.83L383.55,300.28L384.81,300.28L387.34,300.86L388.6,300.85L418.88,301.76L420.14,302.08L463.04,302.59L464.3,304L465.56,302.59L466.82,302.59L533.69,303.34L534.95,303.96L540,303.97" style="fill: rgb(99, 110, 250); fill-opacity: 0.5; stroke-width: 0;"/></g></g><g class="errorbars"/><g class="lines"><path class="js-line" d="M0,218.94L25.23,218.8L26.5,215.55L29.02,215.7L30.28,216.78L31.54,216.95L32.8,216.19L35.33,217.2L36.59,219.73L37.85,218.86L39.11,216.56L41.64,215.93L42.9,215.63L45.42,214.95L46.68,212.74L50.47,211.65L51.73,209.81L52.99,217.4L54.25,218.34L55.51,223.98L56.78,224.13L59.3,227.01L60.56,227.34L61.82,223.11L63.08,222.94L66.87,221.57L68.13,221.46L69.39,221.74L70.65,221.19L71.92,221.84L73.18,220.05L74.44,219.25L75.7,217.04L76.96,216.68L78.22,218.71L79.49,218.98L80.75,218.39L83.27,214.27L84.53,214.19L87.06,213.23L88.32,215.33L89.58,213.84L90.84,214.98L92.1,212.85L93.36,215.4L94.63,205.12L95.89,208.36L97.15,206.77L98.41,208.58L99.67,217.92L100.93,218.03L102.2,220.71L103.46,221.07L104.72,220.68L105.98,217.86L111.03,217.54L112.29,217.53L121.12,219.51L122.38,219.17L126.17,219.04L127.43,220.08L128.69,218.94L129.95,218.94L131.21,217.27L132.48,216.86L135,215.13L136.26,213.75L140.05,212.86L141.31,210.42L142.57,209.05L143.83,205.03L145.09,202.75L146.36,197.71L147.62,198.18L148.88,193.97L152.66,170.83L153.93,166.21L155.19,163.49L156.45,162.64L157.71,160.9L158.97,156.9L160.23,155.16L161.5,152.08L165.28,146.97L166.54,134.33L169.07,116.64L170.33,117.52L171.59,118.37L172.85,114.93L174.11,112.15L175.37,111.8L176.64,110.57L177.9,106.66L180.42,98.47L181.68,98.93L185.47,71.27L186.73,73.87L187.99,72.04L189.25,58.12L190.51,56.1L191.78,44.24L196.82,20.16L198.08,20.44L199.35,20.92L200.61,23.08L201.87,23.8L203.13,18.56L204.39,16L205.65,22.6L206.92,59.74L208.18,144.1L209.44,146.3L210.7,130.1L211.96,107.06L213.22,101.92L214.49,98.26L215.75,82.71L218.27,57.17L219.53,53.47L220.79,57.2L222.06,54.05L224.58,59.96L225.84,63.25L227.1,64.86L228.36,69.21L229.63,68.37L230.89,69.8L232.15,80.73L233.41,119.53L234.67,119.94L235.93,125.15L238.46,135.13L239.72,137.18L240.98,141.82L242.24,143.39L243.5,144.43L244.77,151.89L249.81,167.02L251.07,165.59L253.6,167.95L254.86,167.64L257.38,169.79L258.64,173.72L259.91,176.03L261.17,173.98L262.43,174.36L263.69,169.9L266.21,167.92L267.48,170.21L271.26,169.91L272.52,170.13L275.05,171.96L276.31,173.91L277.57,174.78L278.83,177.16L280.09,177.19L281.36,179.53L283.88,182.46L285.14,186.58L286.4,187.45L287.66,187.39L288.93,187.82L290.19,189.28L291.45,187.06L292.71,194.48L293.97,195.55L295.23,194.53L296.5,196.98L297.76,197.17L300.28,197.48L301.54,197.86L304.07,198.21L305.33,200.79L310.37,201.47L311.64,202.78L312.9,203L314.16,204.42L316.68,205.06L317.94,207.27L320.47,198.61L321.73,198.86L322.99,205.53L324.25,205.99L328.04,206.37L329.3,213.71L330.56,215.47L331.82,214.21L333.08,214.49L334.35,216.86L336.87,223.69L338.13,224.18L341.92,225.5L343.18,227.96L344.44,229.55L345.7,236.74L348.22,249.15L349.49,252.46L350.75,252.95L352.01,255.52L353.27,264.12L354.53,264.19L362.1,266.5L363.36,292.08L364.63,292.79L365.89,298.22L370.93,298.86L372.2,299.83L383.55,300.28L384.81,300.28L387.34,300.86L388.6,300.85L418.88,301.76L420.14,302.08L463.04,302.59L464.3,304L465.56,302.59L466.82,302.59L533.69,303.34L534.95,303.96L540,303.97" style="vector-effect: none; fill: none; stroke: rgb(99, 110, 250); stroke-opacity: 1; stroke-width: 2px; opacity: 1;"/></g><g class="points"/><g class="text"/></g></g></g><g class="overplot"/><path class="xlines-above crisp" d="M0,0" style="fill: none;"/><path class="ylines-above crisp" d="M0,0" style="fill: none;"/><g class="overlines-above"/><g class="xaxislayer-above"><g class="xtick"><text text-anchor="middle" x="0" y="433" transform="translate(124.16,0)" style="font-family: 'Open Sans', verdana, arial, sans-serif; font-size: 12px; fill: rgb(42, 63, 95); fill-opacity: 1; white-space: pre; opacity: 1;">Nov 2022</text></g><g class="xtick"><text text-anchor="middle" x="0" y="433" style="font-family: 'Open Sans', verdana, arial, sans-serif; font-size: 12px; fill: rgb(42, 63, 95); fill-opacity: 1; white-space: pre; opacity: 1;" transform="translate(201.12,0)">Jan 2023</text></g><g class="xtick"><text text-anchor="middle" x="0" y="433" style="font-family: 'Open Sans', verdana, arial, sans-serif; font-size: 12px; fill: rgb(42, 63, 95); fill-opacity: 1; white-space: pre; opacity: 1;" transform="translate(275.56,0)">Mar 2023</text></g><g class="xtick"><text text-anchor="middle" x="0" y="433" style="font-family: 'Open Sans', verdana, arial, sans-serif; font-size: 12px; fill: rgb(42, 63, 95); fill-opacity: 1; white-space: pre; opacity: 1;" transform="translate(352.52,0)">May 2023</text></g><g class="xtick"><text text-anchor="middle" x="0" y="433" style="font-family: 'Open Sans', verdana, arial, sans-serif; font-size: 12px; fill: rgb(42, 63, 95); fill-opacity: 1; white-space: pre; opacity: 1;" transform="translate(429.49,0)">Jul 2023</text></g><g class="xtick"><text text-anchor="middle" x="0" y="433" style="font-family: 'Open Sans', verdana, arial, sans-serif; font-size: 12px; fill: rgb(42, 63, 95); fill-opacity: 1; white-space: pre; opacity: 1;" transform="translate(507.71,0)">Sep 2023</text></g><g class="xtick"><text text-anchor="middle" x="0" y="433" style="font-family: 'Open Sans', verdana, arial, sans-serif; font-size: 12px; fill: rgb(42, 63, 95); fill-opacity: 1; white-space: pre; opacity: 1;" transform="translate(584.6700000000001,0)">Nov 2023</text></g></g><g class="yaxislayer-above"><g class="ytick"><text text-anchor="end" x="79" y="4.199999999999999" transform="translate(0,386.02)" style="font-family: 'Open Sans', verdana, arial, sans-serif; font-size: 12px; fill: rgb(42, 63, 95); fill-opacity: 1; white-space: pre; opacity: 1;">$−20M</text></g><g class="ytick"><text text-anchor="end" x="79" y="4.199999999999999" style="font-family: 'Open Sans', verdana, arial, sans-serif; font-size: 12px; fill: rgb(42, 63, 95); fill-opacity: 1; white-space: pre; opacity: 1;" transform="translate(0,319.08000000000004)">$0</text></g><g class="ytick"><text text-anchor="end" x="79" y="4.199999999999999" style="font-family: 'Open Sans', verdana, arial, sans-serif; font-size: 12px; fill: rgb(42, 63, 95); fill-opacity: 1; white-space: pre; opacity: 1;" transform="translate(0,252.15)">$20M</text></g><g class="ytick"><text text-anchor="end" x="79" y="4.199999999999999" style="font-family: 'Open Sans', verdana, arial, sans-serif; font-size: 12px; fill: rgb(42, 63, 95); fill-opacity: 1; white-space: pre; opacity: 1;" transform="translate(0,185.20999999999998)">$40M</text></g><g class="ytick"><text text-anchor="end" x="79" y="4.199999999999999" style="font-family: 'Open Sans', verdana, arial, sans-serif; font-size: 12px; fill: rgb(42, 63, 95); fill-opacity: 1; white-space: pre; opacity: 1;" transform="translate(0,118.27)">$60M</text></g></g><g class="overaxes-above"/></g></g><g class="polarlayer"/><g class="smithlayer"/><g class="ternarylayer"/><g class="geolayer"/><g class="funnelarealayer"/><g class="pielayer"/><g class="iciclelayer"/><g class="treemaplayer"/><g class="sunburstlayer"/><g class="glimages"/><defs id="topdefs-4576ef"><g class="clips"/></defs><g class="layer-above"><g class="imagelayer"/><g class="shapelayer"/></g><g class="infolayer"><g class="g-gtitle"><text class="gtitle" x="35" y="50" text-anchor="start" dy="0em" style="font-family: 'Open Sans', verdana, arial, sans-serif; font-size: 17px; fill: rgb(42, 63, 95); opacity: 1; font-weight: normal; white-space: pre;"><tspan class="line" dy="0em" x="35" y="50">Synthetix - All Synthetix Velo Pools</tspan><tspan class="line" dy="1.3em" x="35" y="50">​<tspan style="font-size:70%" dy="-0.6em">Cumulative Net Flows since Program Announcement, Until Program End + 30 Days - At Last Price</tspan><tspan dy="0.42em">​</tspan></tspan></text></g><g class="g-xtitle"><text class="xtitle" x="350" y="460.3" text-anchor="middle" style="font-family: 'Open Sans', verdana, arial, sans-serif; font-size: 14px; fill: rgb(42, 63, 95); opacity: 1; font-weight: normal; white-space: pre;">Day</text></g><g class="g-ytitle"><text class="ytitle" transform="rotate(-90,17.668750000000003,260)" x="17.668750000000003" y="260" text-anchor="middle" style="font-family: 'Open Sans', verdana, arial, sans-serif; font-size: 14px; fill: rgb(42, 63, 95); opacity: 1; font-weight: normal; white-space: pre;">Cumulative Net Flows (USD)</text></g></g></svg>