<svg class="main-svg" xmlns="http://www.w3.org/2000/svg" xmlns:xlink="http://www.w3.org/1999/xlink" width="700" height="500" style="" viewBox="0 0 700 500"><rect x="0" y="0" width="700" height="500" style="fill: rgb(255, 255, 255); fill-opacity: 1;"/><defs id="defs-847230"><g class="clips"><clipPath id="clip847230xyplot" class="plotclip"><rect width="540" height="320"/></clipPath><clipPath class="axesclip" id="clip847230x"><rect x="80" y="0" width="540" height="500"/></clipPath><clipPath class="axesclip" id="clip847230y"><rect x="0" y="100" width="700" height="320"/></clipPath><clipPath class="axesclip" id="clip847230xy"><rect x="80" y="100" width="540" height="320"/></clipPath></g><g class="gradients"/><g class="patterns"/></defs><g class="bglayer"><rect class="bg" x="80" y="100" width="540" height="320" style="fill: rgb(229, 236, 246); fill-opacity: 1; stroke-width: 0;"/></g><g class="layer-below"><g class="imagelayer"/><g class="shapelayer"/></g><g class="cartesianlayer"><g class="subplot xy"><g class="layer-subplot"><g class="shapelayer"/><g class="imagelayer"/></g><g class="minor-gridlayer"><g class="x"/><g class="y"/></g><g class="gridlayer"><g class="x"><path class="xgrid crisp" transform="translate(163.3,0)" d="M0,100v320" style="stroke: rgb(255, 255, 255); stroke-opacity: 1; stroke-width: 1px;"/><path class="xgrid crisp" transform="translate(249.47,0)" d="M0,100v320" style="stroke: rgb(255, 255, 255); stroke-opacity: 1; stroke-width: 1px;"/><path class="xgrid crisp" transform="translate(338.51,0)" d="M0,100v320" style="stroke: rgb(255, 255, 255); stroke-opacity: 1; stroke-width: 1px;"/><path class="xgrid crisp" transform="translate(427.55,0)" d="M0,100v320" style="stroke: rgb(255, 255, 255); stroke-opacity: 1; stroke-width: 1px;"/><path class="xgrid crisp" transform="translate(507.98,0)" d="M0,100v320" style="stroke: rgb(255, 255, 255); stroke-opacity: 1; stroke-width: 1px;"/><path class="xgrid crisp" transform="translate(597.02,0)" d="M0,100v320" style="stroke: rgb(255, 255, 255); stroke-opacity: 1; stroke-width: 1px;"/></g><g class="y"><path class="ygrid crisp" transform="translate(0,349.52)" d="M80,0h540" style="stroke: rgb(255, 255, 255); stroke-opacity: 1; stroke-width: 1px;"/><path class="ygrid crisp" transform="translate(0,279.03999999999996)" d="M80,0h540" style="stroke: rgb(255, 255, 255); stroke-opacity: 1; stroke-width: 1px;"/><path class="ygrid crisp" transform="translate(0,208.55)" d="M80,0h540" style="stroke: rgb(255, 255, 255); stroke-opacity: 1; stroke-width: 1px;"/><path class="ygrid crisp" transform="translate(0,138.07)" d="M80,0h540" style="stroke: rgb(255, 255, 255); stroke-opacity: 1; stroke-width: 1px;"/></g></g><g class="zerolinelayer"><path class="yzl zl crisp" transform="translate(0,420)" d="M80,0h540" style="stroke: rgb(255, 255, 255); stroke-opacity: 1; stroke-width: 2px;"/></g><path class="xlines-below"/><path class="ylines-below"/><g class="overlines-below"/><g class="xaxislayer-below"/><g class="yaxislayer-below"/><g class="overaxes-below"/><g class="plot" transform="translate(80,100)" clip-path="url(#clip847230xyplot)"><g class="scatterlayer mlayer"><g class="trace scatter trace98e774" style="stroke-miterlimit: 2;"><g class="fills"><g><path class="js-fill" d="M540,320L0,320L0,317.56L2.87,317.56L5.74,307.27L11.49,301.29L14.36,294.43L20.11,294.07L22.98,293.64L25.85,293.16L28.72,276.66L31.6,256.61L34.47,256.43L37.34,256.17L40.21,253.34L43.09,250.48L45.96,250.45L54.57,249.4L57.45,246.53L60.32,237.48L63.19,224.75L68.94,209.43L71.81,207.76L74.68,207.25L77.55,204.4L80.43,199.81L83.3,197.65L86.17,175.73L89.04,182.34L94.79,181.08L97.66,186.83L103.4,198.84L106.28,199.2L109.15,201.81L112.02,201.61L117.77,201.71L120.64,204.26L123.51,204.93L126.38,204.79L129.26,205.73L132.13,208.67L146.49,208.38L149.36,209.2L157.98,206.89L160.85,204.84L175.21,203.79L178.09,202.49L180.96,206.59L183.83,224.02L186.7,223.95L189.57,225.3L192.45,253.12L195.32,253.1L198.19,251.97L201.06,251.91L203.94,253.03L206.81,251.52L212.55,251.9L215.43,251.55L229.79,249.6L232.66,248.88L241.28,248.44L244.15,244.93L247.02,245.49L249.89,213.43L252.77,212.98L255.64,209.29L258.51,211.6L261.38,209.89L264.26,207L267.13,208.32L270,211.34L272.87,210.5L275.74,210.37L278.62,226.76L281.49,222.97L284.36,222.71L290.11,221.26L292.98,219.05L295.85,199.27L298.72,199.6L310.21,198.53L313.09,199.13L315.96,192.79L318.83,192.64L321.7,192.14L324.57,189.91L327.45,189.07L330.32,180.64L333.19,176.3L336.06,175.39L338.94,197.88L341.81,186.74L344.68,177.62L347.55,178.17L350.43,145.07L353.3,127.17L356.17,123.74L359.04,123.12L361.91,123.05L364.79,121.18L367.66,118.39L370.53,109.05L376.28,105.84L379.15,90.46L382.02,85.07L384.89,83.91L387.77,71.25L390.64,99.9L393.51,106.63L396.38,106.82L402.13,107.57L405,107.45L407.87,107.94L410.74,82.21L413.62,75.45L416.49,78.45L419.36,63.42L422.23,55.72L425.11,48.41L427.98,45.38L430.85,35.9L433.72,33.69L436.6,36.85L439.47,36.82L442.34,22.21L445.21,16L448.09,17.42L450.96,37.6L456.7,46.11L459.57,48.6L462.45,49.54L465.32,56.51L468.19,55.93L471.06,43.94L473.94,56.46L476.81,76.88L482.55,71.24L485.43,121.96L488.3,121.52L491.17,119.7L494.04,120.03L496.91,112.92L502.66,112.4L505.53,136.73L511.28,154.66L514.15,152.57L517.02,137.44L519.89,117.61L522.77,116.56L525.64,114.68L528.51,113.81L531.38,126.53L534.26,126.24L537.13,124.68L540,124.68" style="fill: rgb(99, 110, 250); fill-opacity: 0.5; stroke-width: 0;"/></g></g><g class="errorbars"/><g class="lines"><path class="js-line" d="M0,317.56L2.87,317.56L5.74,307.27L11.49,301.29L14.36,294.43L20.11,294.07L22.98,293.64L25.85,293.16L28.72,276.66L31.6,256.61L34.47,256.43L37.34,256.17L40.21,253.34L43.09,250.48L45.96,250.45L54.57,249.4L57.45,246.53L60.32,237.48L63.19,224.75L68.94,209.43L71.81,207.76L74.68,207.25L77.55,204.4L80.43,199.81L83.3,197.65L86.17,175.73L89.04,182.34L94.79,181.08L97.66,186.83L103.4,198.84L106.28,199.2L109.15,201.81L112.02,201.61L117.77,201.71L120.64,204.26L123.51,204.93L126.38,204.79L129.26,205.73L132.13,208.67L146.49,208.38L149.36,209.2L157.98,206.89L160.85,204.84L175.21,203.79L178.09,202.49L180.96,206.59L183.83,224.02L186.7,223.95L189.57,225.3L192.45,253.12L195.32,253.1L198.19,251.97L201.06,251.91L203.94,253.03L206.81,251.52L212.55,251.9L215.43,251.55L229.79,249.6L232.66,248.88L241.28,248.44L244.15,244.93L247.02,245.49L249.89,213.43L252.77,212.98L255.64,209.29L258.51,211.6L261.38,209.89L264.26,207L267.13,208.32L270,211.34L272.87,210.5L275.74,210.37L278.62,226.76L281.49,222.97L284.36,222.71L290.11,221.26L292.98,219.05L295.85,199.27L298.72,199.6L310.21,198.53L313.09,199.13L315.96,192.79L318.83,192.64L321.7,192.14L324.57,189.91L327.45,189.07L330.32,180.64L333.19,176.3L336.06,175.39L338.94,197.88L341.81,186.74L344.68,177.62L347.55,178.17L350.43,145.07L353.3,127.17L356.17,123.74L359.04,123.12L361.91,123.05L364.79,121.18L367.66,118.39L370.53,109.05L376.28,105.84L379.15,90.46L382.02,85.07L384.89,83.91L387.77,71.25L390.64,99.9L393.51,106.63L396.38,106.82L402.13,107.57L405,107.45L407.87,107.94L410.74,82.21L413.62,75.45L416.49,78.45L419.36,63.42L422.23,55.72L425.11,48.41L427.98,45.38L430.85,35.9L433.72,33.69L436.6,36.85L439.47,36.82L442.34,22.21L445.21,16L448.09,17.42L450.96,37.6L456.7,46.11L459.57,48.6L462.45,49.54L465.32,56.51L468.19,55.93L471.06,43.94L473.94,56.46L476.81,76.88L482.55,71.24L485.43,121.96L488.3,121.52L491.17,119.7L494.04,120.03L496.91,112.92L502.66,112.4L505.53,136.73L511.28,154.66L514.15,152.57L517.02,137.44L519.89,117.61L522.77,116.56L525.64,114.68L528.51,113.81L531.38,126.53L534.26,126.24L537.13,124.68L540,124.68" style="vector-effect: none; fill: none; stroke: rgb(99, 110, 250); stroke-opacity: 1; stroke-width: 2px; opacity: 1;"/></g><g class="points"/><g class="text"/></g></g></g><g class="overplot"/><path class="xlines-above crisp" d="M0,0" style="fill: none;"/><path class="ylines-above crisp" d="M0,0" style="fill: none;"/><g class="overlines-above"/><g class="xaxislayer-above"><g class="xtick"><text text-anchor="middle" x="0" y="433" transform="translate(163.3,0)" style="font-family: 'Open Sans', verdana, arial, sans-serif; font-size: 12px; fill: rgb(42, 63, 95); fill-opacity: 1; white-space: pre; opacity: 1;">Nov 2022</text></g><g class="xtick"><text text-anchor="middle" x="0" y="433" style="font-family: 'Open Sans', verdana, arial, sans-serif; font-size: 12px; fill: rgb(42, 63, 95); fill-opacity: 1; white-space: pre; opacity: 1;" transform="translate(249.47,0)">Dec 2022</text></g><g class="xtick"><text text-anchor="middle" x="0" y="433" style="font-family: 'Open Sans', verdana, arial, sans-serif; font-size: 12px; fill: rgb(42, 63, 95); fill-opacity: 1; white-space: pre; opacity: 1;" transform="translate(338.51,0)">Jan 2023</text></g><g class="xtick"><text text-anchor="middle" x="0" y="433" style="font-family: 'Open Sans', verdana, arial, sans-serif; font-size: 12px; fill: rgb(42, 63, 95); fill-opacity: 1; white-space: pre; opacity: 1;" transform="translate(427.55,0)">Feb 2023</text></g><g class="xtick"><text text-anchor="middle" x="0" y="433" style="font-family: 'Open Sans', verdana, arial, sans-serif; font-size: 12px; fill: rgb(42, 63, 95); fill-opacity: 1; white-space: pre; opacity: 1;" transform="translate(507.98,0)">Mar 2023</text></g><g class="xtick"><text text-anchor="middle" x="0" y="433" style="font-family: 'Open Sans', verdana, arial, sans-serif; font-size: 12px; fill: rgb(42, 63, 95); fill-opacity: 1; white-space: pre; opacity: 1;" transform="translate(597.02,0)">Apr 2023</text></g></g><g class="yaxislayer-above"><g class="ytick"><text text-anchor="end" x="79" y="4.199999999999999" transform="translate(0,420)" style="font-family: 'Open Sans', verdana, arial, sans-serif; font-size: 12px; fill: rgb(42, 63, 95); fill-opacity: 1; white-space: pre; opacity: 1;">$0</text></g><g class="ytick"><text text-anchor="end" x="79" y="4.199999999999999" style="font-family: 'Open Sans', verdana, arial, sans-serif; font-size: 12px; fill: rgb(42, 63, 95); fill-opacity: 1; white-space: pre; opacity: 1;" transform="translate(0,349.52)">$0.5M</text></g><g class="ytick"><text text-anchor="end" x="79" y="4.199999999999999" style="font-family: 'Open Sans', verdana, arial, sans-serif; font-size: 12px; fill: rgb(42, 63, 95); fill-opacity: 1; white-space: pre; opacity: 1;" transform="translate(0,279.03999999999996)">$1M</text></g><g class="ytick"><text text-anchor="end" x="79" y="4.199999999999999" style="font-family: 'Open Sans', verdana, arial, sans-serif; font-size: 12px; fill: rgb(42, 63, 95); fill-opacity: 1; white-space: pre; opacity: 1;" transform="translate(0,208.55)">$1.5M</text></g><g class="ytick"><text text-anchor="end" x="79" y="4.199999999999999" style="font-family: 'Open Sans', verdana, arial, sans-serif; font-size: 12px; fill: rgb(42, 63, 95); fill-opacity: 1; white-space: pre; opacity: 1;" transform="translate(0,138.07)">$2M</text></g></g><g class="overaxes-above"/></g></g><g class="polarlayer"/><g class="smithlayer"/><g class="ternarylayer"/><g class="geolayer"/><g class="funnelarealayer"/><g class="pielayer"/><g class="iciclelayer"/><g class="treemaplayer"/><g class="sunburstlayer"/><g class="glimages"/><defs id="topdefs-847230"><g class="clips"/></defs><g class="layer-above"><g class="imagelayer"/><g class="shapelayer"/></g><g class="infolayer"><g class="g-gtitle"><text class="gtitle" x="35" y="50" text-anchor="start" dy="0em" style="font-family: 'Open Sans', verdana, arial, sans-serif; font-size: 17px; fill: rgb(42, 63, 95); opacity: 1; font-weight: normal; white-space: pre;"><tspan class="line" dy="0em" x="35" y="50">Beefy - BIFI/WETH: Velodrome</tspan><tspan class="line" dy="1.3em" x="35" y="50">​<tspan style="font-size:70%" dy="-0.6em">Cumulative Net Flows since Program Announcement, Until Program End + 30 Days - At Last Price</tspan><tspan dy="0.42em">​</tspan></tspan></text></g><g class="g-xtitle"><text class="xtitle" x="350" y="460.3" text-anchor="middle" style="font-family: 'Open Sans', verdana, arial, sans-serif; font-size: 14px; fill: rgb(42, 63, 95); opacity: 1; font-weight: normal; white-space: pre;">Day</text></g><g class="g-ytitle"><text class="ytitle" transform="rotate(-90,21.340625000000003,260)" x="21.340625000000003" y="260" text-anchor="middle" style="font-family: 'Open Sans', verdana, arial, sans-serif; font-size: 14px; fill: rgb(42, 63, 95); opacity: 1; font-weight: normal; white-space: pre;">Cumulative Net Flows (USD)</text></g></g></svg>