<svg class="main-svg" xmlns="http://www.w3.org/2000/svg" xmlns:xlink="http://www.w3.org/1999/xlink" width="700" height="500" style="" viewBox="0 0 700 500"><rect x="0" y="0" width="700" height="500" style="fill: rgb(255, 255, 255); fill-opacity: 1;"/><defs id="defs-d95fea"><g class="clips"><clipPath id="clipd95feaxyplot" class="plotclip"><rect width="540" height="320"/></clipPath><clipPath class="axesclip" id="clipd95feax"><rect x="80" y="0" width="540" height="500"/></clipPath><clipPath class="axesclip" id="clipd95feay"><rect x="0" y="100" width="700" height="320"/></clipPath><clipPath class="axesclip" id="clipd95feaxy"><rect x="80" y="100" width="540" height="320"/></clipPath></g><g class="gradients"/><g class="patterns"/></defs><g class="bglayer"><rect class="bg" x="80" y="100" width="540" height="320" style="fill: rgb(229, 236, 246); fill-opacity: 1; stroke-width: 0;"/></g><g class="layer-below"><g class="imagelayer"/><g class="shapelayer"/></g><g class="cartesianlayer"><g class="subplot xy"><g class="layer-subplot"><g class="shapelayer"/><g class="imagelayer"/></g><g class="minor-gridlayer"><g class="x"/><g class="y"/></g><g class="gridlayer"><g class="x"><path class="xgrid crisp" transform="translate(120.28,0)" d="M0,100v320" style="stroke: rgb(255, 255, 255); stroke-opacity: 1; stroke-width: 1px;"/><path class="xgrid crisp" transform="translate(194.55,0)" d="M0,100v320" style="stroke: rgb(255, 255, 255); stroke-opacity: 1; stroke-width: 1px;"/><path class="xgrid crisp" transform="translate(271.33000000000004,0)" d="M0,100v320" style="stroke: rgb(255, 255, 255); stroke-opacity: 1; stroke-width: 1px;"/><path class="xgrid crisp" transform="translate(348.11,0)" d="M0,100v320" style="stroke: rgb(255, 255, 255); stroke-opacity: 1; stroke-width: 1px;"/><path class="xgrid crisp" transform="translate(426.15,0)" d="M0,100v320" style="stroke: rgb(255, 255, 255); stroke-opacity: 1; stroke-width: 1px;"/><path class="xgrid crisp" transform="translate(502.94,0)" d="M0,100v320" style="stroke: rgb(255, 255, 255); stroke-opacity: 1; stroke-width: 1px;"/><path class="xgrid crisp" transform="translate(579.72,0)" d="M0,100v320" style="stroke: rgb(255, 255, 255); stroke-opacity: 1; stroke-width: 1px;"/></g><g class="y"><path class="ygrid crisp" transform="translate(0,402.24)" d="M80,0h540" style="stroke: rgb(255, 255, 255); stroke-opacity: 1; stroke-width: 1px;"/><path class="ygrid crisp" transform="translate(0,317.76)" d="M80,0h540" style="stroke: rgb(255, 255, 255); stroke-opacity: 1; stroke-width: 1px;"/><path class="ygrid crisp" transform="translate(0,275.53)" d="M80,0h540" style="stroke: rgb(255, 255, 255); stroke-opacity: 1; stroke-width: 1px;"/><path class="ygrid crisp" transform="translate(0,233.29)" d="M80,0h540" style="stroke: rgb(255, 255, 255); stroke-opacity: 1; stroke-width: 1px;"/><path class="ygrid crisp" transform="translate(0,191.05)" d="M80,0h540" style="stroke: rgb(255, 255, 255); stroke-opacity: 1; stroke-width: 1px;"/><path class="ygrid crisp" transform="translate(0,148.81)" d="M80,0h540" style="stroke: rgb(255, 255, 255); stroke-opacity: 1; stroke-width: 1px;"/><path class="ygrid crisp" transform="translate(0,106.57)" d="M80,0h540" style="stroke: rgb(255, 255, 255); stroke-opacity: 1; stroke-width: 1px;"/></g></g><g class="zerolinelayer"><path class="yzl zl crisp" transform="translate(0,360)" d="M80,0h540" style="stroke: rgb(255, 255, 255); stroke-opacity: 1; stroke-width: 2px;"/></g><path class="xlines-below"/><path class="ylines-below"/><g class="overlines-below"/><g class="xaxislayer-below"/><g class="yaxislayer-below"/><g class="overaxes-below"/><g class="plot" transform="translate(80,100)" clip-path="url(#clipd95feaxyplot)"><g class="scatterlayer mlayer"><g class="trace scatter tracedf2e1b" style="stroke-miterlimit: 2;"><g class="fills"><g><path class="js-fill" d="M540,260L0,260L0,265.8L1.26,275.76L2.52,263.68L3.78,260.27L5.03,230.85L6.29,236.75L7.55,238.12L8.81,236.36L10.07,224.79L16.36,210.54L17.62,217.09L18.88,198.56L20.14,201.08L21.4,202.05L22.66,138.21L23.92,141.14L25.17,141.15L26.43,135.89L27.69,141.26L28.95,129.81L30.21,131.56L33.99,130.85L35.24,140.51L36.5,140.22L37.76,141.43L39.02,140.4L40.28,93.72L41.54,109.45L42.8,109.96L44.06,105.49L45.31,94.87L46.57,105.12L47.83,107.78L49.09,108.2L50.35,107.22L51.61,102.11L52.87,102.94L54.13,99.16L55.38,103.39L59.16,56.86L60.42,55.61L61.68,53.43L62.94,34.62L64.2,38.16L65.45,24.99L66.71,26.12L67.97,23.33L69.23,25.82L70.49,34.88L71.75,29.57L73.01,32.21L74.27,32.5L75.52,30.3L76.78,24.16L78.04,29.23L79.3,27.08L80.56,16.94L81.82,18.54L83.08,16.86L84.34,23L85.59,16L88.11,26.63L89.37,44.58L91.89,158.73L93.15,165.59L95.66,165.73L96.92,162.73L99.44,118.49L100.7,113.79L101.96,112.04L103.22,106.35L104.48,108.94L105.73,120.58L108.25,114.91L109.51,115.84L110.77,115.53L112.03,120.11L113.29,122.15L114.55,160.55L117.06,163.58L118.32,167.01L120.84,171.63L122.1,156.95L123.36,169.65L124.62,166.08L125.87,149.03L127.13,152.02L128.39,162.09L129.65,162.49L130.91,160.68L132.17,149.18L135.94,126.85L137.2,144.62L138.46,137.01L139.72,142.45L140.98,138.36L142.24,144.62L143.5,139.31L144.76,141L146.01,131.03L147.27,128.83L148.53,141.9L149.79,142.83L151.05,152.09L152.31,150.95L154.83,154.91L156.08,147.26L157.34,146.28L158.6,140.13L159.86,142.23L161.12,140.66L162.38,138.82L163.64,144.28L166.15,141.17L167.41,143.08L169.93,139.35L171.19,143.56L172.45,143.78L173.71,147.15L174.97,148.31L176.22,157.06L177.48,152.84L178.74,155.74L180,165.32L181.26,165.52L182.52,168.52L183.78,168.29L185.03,162.88L186.29,162.65L187.55,156.11L188.81,156.95L190.07,156.32L191.33,158.48L192.59,161.08L193.85,160.71L195.1,149.61L196.36,165.16L197.62,160.07L198.88,164.45L200.14,161.43L201.4,163.08L202.66,194.31L203.92,192.48L205.17,156.89L206.43,158.38L207.69,158.83L208.95,163.91L210.21,169.33L211.47,160.17L212.73,160.07L213.99,162.44L215.24,154.22L216.5,156.84L217.76,160.36L219.02,152.59L220.28,148.31L221.54,157.31L222.8,158.85L224.06,154.54L225.31,156.88L226.57,154.14L231.61,153.18L232.87,143.71L234.13,132.07L235.38,131.73L237.9,119.09L239.16,129.98L240.42,123.54L241.68,123.52L242.94,114L244.2,118.33L245.45,117.36L246.71,121.39L247.97,125.63L249.23,143.82L250.49,147.95L251.75,147.54L254.27,146.93L255.52,142.74L256.78,129.05L258.04,143.65L259.3,139.38L260.56,139.88L263.08,139.38L264.34,134.49L265.59,141.95L266.85,76.11L268.11,74.64L269.37,74.74L271.89,71.76L273.15,69.93L274.41,72.57L275.66,81.52L276.92,86.5L278.18,84.56L279.44,86.59L280.7,82.93L281.96,81.98L283.22,75.45L284.48,63.52L285.73,70.79L288.25,70.62L289.51,71.9L290.77,71.69L292.03,52.91L293.29,55.94L294.55,55.67L295.8,57.8L297.06,50.17L298.32,55.52L299.58,54.37L300.84,56.23L302.1,80.74L303.36,98.88L304.62,88.6L305.87,116.94L307.13,109.16L308.39,121.88L309.65,125.08L310.91,145.14L312.17,134.64L313.43,136.13L314.69,133.68L315.94,133.04L317.2,134.3L318.46,135.57L319.72,139.26L320.98,138.18L322.24,139.32L323.5,141.44L324.76,147.34L326.01,151.16L327.27,145.71L328.53,148.69L329.79,144.75L331.05,142.91L332.31,143.24L333.57,139.78L334.83,141.63L336.08,139.52L337.34,120.93L338.6,120.12L339.86,132.38L341.12,160.68L342.38,160.85L343.64,154.69L344.9,163.96L346.15,168.86L347.41,167.7L349.93,165.78L351.19,167.09L353.71,166.39L354.97,165.48L357.48,167.06L358.74,173.15L360,177.44L361.26,173.93L362.52,175.59L363.78,174.36L366.29,173.97L367.55,174.71L368.81,172.1L370.07,172.63L372.59,174.59L373.85,173.62L375.1,173.13L376.36,174.18L377.62,175.99L378.88,173.05L380.14,174.81L381.4,171.75L383.92,170.32L385.17,166.32L386.43,170.55L387.69,172.08L388.95,171.46L390.21,173.25L391.47,173.12L392.73,172.16L393.99,175.9L395.24,175.71L396.5,176.34L397.76,175.12L399.02,178.9L400.28,177.18L402.8,177.47L404.06,173.53L405.31,179.54L406.57,179.34L407.83,254.6L409.09,253.79L411.61,251.7L412.87,248.42L414.13,250.54L415.38,249.93L416.64,249.33L417.9,249.72L420.42,248.84L421.68,248.6L422.94,249.62L424.2,255.86L426.71,256.18L427.97,255.84L430.49,256.17L431.75,256.22L433.01,255.84L434.27,251.12L439.3,251.81L440.56,252.75L441.82,250.02L443.08,220.69L444.34,222.31L445.59,221.17L446.85,222.71L448.11,222.96L449.37,226.78L450.63,222.44L451.89,221.04L453.15,221.48L454.41,221.95L455.66,221.47L456.92,223.13L458.18,223.39L459.44,223.76L460.7,263.6L461.96,265.64L463.22,263.51L464.48,258.71L465.73,258.06L466.99,257.06L468.25,255.03L469.51,251.2L470.77,254.46L473.29,253.99L474.55,256.44L475.8,258.77L477.06,257.6L478.32,254.59L479.58,256.47L480.84,256.02L482.1,259.68L483.36,257.04L484.62,304L540,304" style="fill: rgb(99, 110, 250); fill-opacity: 0.5; stroke-width: 0;"/></g></g><g class="errorbars"/><g class="lines"><path class="js-line" d="M0,265.8L1.26,275.76L2.52,263.68L3.78,260.27L5.03,230.85L6.29,236.75L7.55,238.12L8.81,236.36L10.07,224.79L16.36,210.54L17.62,217.09L18.88,198.56L20.14,201.08L21.4,202.05L22.66,138.21L23.92,141.14L25.17,141.15L26.43,135.89L27.69,141.26L28.95,129.81L30.21,131.56L33.99,130.85L35.24,140.51L36.5,140.22L37.76,141.43L39.02,140.4L40.28,93.72L41.54,109.45L42.8,109.96L44.06,105.49L45.31,94.87L46.57,105.12L47.83,107.78L49.09,108.2L50.35,107.22L51.61,102.11L52.87,102.94L54.13,99.16L55.38,103.39L59.16,56.86L60.42,55.61L61.68,53.43L62.94,34.62L64.2,38.16L65.45,24.99L66.71,26.12L67.97,23.33L69.23,25.82L70.49,34.88L71.75,29.57L73.01,32.21L74.27,32.5L75.52,30.3L76.78,24.16L78.04,29.23L79.3,27.08L80.56,16.94L81.82,18.54L83.08,16.86L84.34,23L85.59,16L88.11,26.63L89.37,44.58L91.89,158.73L93.15,165.59L95.66,165.73L96.92,162.73L99.44,118.49L100.7,113.79L101.96,112.04L103.22,106.35L104.48,108.94L105.73,120.58L108.25,114.91L109.51,115.84L110.77,115.53L112.03,120.11L113.29,122.15L114.55,160.55L117.06,163.58L118.32,167.01L120.84,171.63L122.1,156.95L123.36,169.65L124.62,166.08L125.87,149.03L127.13,152.02L128.39,162.09L129.65,162.49L130.91,160.68L132.17,149.18L135.94,126.85L137.2,144.62L138.46,137.01L139.72,142.45L140.98,138.36L142.24,144.62L143.5,139.31L144.76,141L146.01,131.03L147.27,128.83L148.53,141.9L149.79,142.83L151.05,152.09L152.31,150.95L154.83,154.91L156.08,147.26L157.34,146.28L158.6,140.13L159.86,142.23L161.12,140.66L162.38,138.82L163.64,144.28L166.15,141.17L167.41,143.08L169.93,139.35L171.19,143.56L172.45,143.78L173.71,147.15L174.97,148.31L176.22,157.06L177.48,152.84L178.74,155.74L180,165.32L181.26,165.52L182.52,168.52L183.78,168.29L185.03,162.88L186.29,162.65L187.55,156.11L188.81,156.95L190.07,156.32L191.33,158.48L192.59,161.08L193.85,160.71L195.1,149.61L196.36,165.16L197.62,160.07L198.88,164.45L200.14,161.43L201.4,163.08L202.66,194.31L203.92,192.48L205.17,156.89L206.43,158.38L207.69,158.83L208.95,163.91L210.21,169.33L211.47,160.17L212.73,160.07L213.99,162.44L215.24,154.22L216.5,156.84L217.76,160.36L219.02,152.59L220.28,148.31L221.54,157.31L222.8,158.85L224.06,154.54L225.31,156.88L226.57,154.14L231.61,153.18L232.87,143.71L234.13,132.07L235.38,131.73L237.9,119.09L239.16,129.98L240.42,123.54L241.68,123.52L242.94,114L244.2,118.33L245.45,117.36L246.71,121.39L247.97,125.63L249.23,143.82L250.49,147.95L251.75,147.54L254.27,146.93L255.52,142.74L256.78,129.05L258.04,143.65L259.3,139.38L260.56,139.88L263.08,139.38L264.34,134.49L265.59,141.95L266.85,76.11L268.11,74.64L269.37,74.74L271.89,71.76L273.15,69.93L274.41,72.57L275.66,81.52L276.92,86.5L278.18,84.56L279.44,86.59L280.7,82.93L281.96,81.98L283.22,75.45L284.48,63.52L285.73,70.79L288.25,70.62L289.51,71.9L290.77,71.69L292.03,52.91L293.29,55.94L294.55,55.67L295.8,57.8L297.06,50.17L298.32,55.52L299.58,54.37L300.84,56.23L302.1,80.74L303.36,98.88L304.62,88.6L305.87,116.94L307.13,109.16L308.39,121.88L309.65,125.08L310.91,145.14L312.17,134.64L313.43,136.13L314.69,133.68L315.94,133.04L317.2,134.3L318.46,135.57L319.72,139.26L320.98,138.18L322.24,139.32L323.5,141.44L324.76,147.34L326.01,151.16L327.27,145.71L328.53,148.69L329.79,144.75L331.05,142.91L332.31,143.24L333.57,139.78L334.83,141.63L336.08,139.52L337.34,120.93L338.6,120.12L339.86,132.38L341.12,160.68L342.38,160.85L343.64,154.69L344.9,163.96L346.15,168.86L347.41,167.7L349.93,165.78L351.19,167.09L353.71,166.39L354.97,165.48L357.48,167.06L358.74,173.15L360,177.44L361.26,173.93L362.52,175.59L363.78,174.36L366.29,173.97L367.55,174.71L368.81,172.1L370.07,172.63L372.59,174.59L373.85,173.62L375.1,173.13L376.36,174.18L377.62,175.99L378.88,173.05L380.14,174.81L381.4,171.75L383.92,170.32L385.17,166.32L386.43,170.55L387.69,172.08L388.95,171.46L390.21,173.25L391.47,173.12L392.73,172.16L393.99,175.9L395.24,175.71L396.5,176.34L397.76,175.12L399.02,178.9L400.28,177.18L402.8,177.47L404.06,173.53L405.31,179.54L406.57,179.34L407.83,254.6L409.09,253.79L411.61,251.7L412.87,248.42L414.13,250.54L415.38,249.93L416.64,249.33L417.9,249.72L420.42,248.84L421.68,248.6L422.94,249.62L424.2,255.86L426.71,256.18L427.97,255.84L430.49,256.17L431.75,256.22L433.01,255.84L434.27,251.12L439.3,251.81L440.56,252.75L441.82,250.02L443.08,220.69L444.34,222.31L445.59,221.17L446.85,222.71L448.11,222.96L449.37,226.78L450.63,222.44L451.89,221.04L453.15,221.48L454.41,221.95L455.66,221.47L456.92,223.13L458.18,223.39L459.44,223.76L460.7,263.6L461.96,265.64L463.22,263.51L464.48,258.71L465.73,258.06L466.99,257.06L468.25,255.03L469.51,251.2L470.77,254.46L473.29,253.99L474.55,256.44L475.8,258.77L477.06,257.6L478.32,254.59L479.58,256.47L480.84,256.02L482.1,259.68L483.36,257.04L484.62,304L540,304" style="vector-effect: none; fill: none; stroke: rgb(99, 110, 250); stroke-opacity: 1; stroke-width: 2px; opacity: 1;"/></g><g class="points"/><g class="text"/></g></g></g><g class="overplot"/><path class="xlines-above crisp" d="M0,0" style="fill: none;"/><path class="ylines-above crisp" d="M0,0" style="fill: none;"/><g class="overlines-above"/><g class="xaxislayer-above"><g class="xtick"><text text-anchor="middle" x="0" y="433" transform="translate(120.28,0)" style="font-family: 'Open Sans', verdana, arial, sans-serif; font-size: 12px; fill: rgb(42, 63, 95); fill-opacity: 1; white-space: pre; opacity: 1;">Jan 2023</text></g><g class="xtick"><text text-anchor="middle" x="0" y="433" style="font-family: 'Open Sans', verdana, arial, sans-serif; font-size: 12px; fill: rgb(42, 63, 95); fill-opacity: 1; white-space: pre; opacity: 1;" transform="translate(194.55,0)">Mar 2023</text></g><g class="xtick"><text text-anchor="middle" x="0" y="433" style="font-family: 'Open Sans', verdana, arial, sans-serif; font-size: 12px; fill: rgb(42, 63, 95); fill-opacity: 1; white-space: pre; opacity: 1;" transform="translate(271.33000000000004,0)">May 2023</text></g><g class="xtick"><text text-anchor="middle" x="0" y="433" style="font-family: 'Open Sans', verdana, arial, sans-serif; font-size: 12px; fill: rgb(42, 63, 95); fill-opacity: 1; white-space: pre; opacity: 1;" transform="translate(348.11,0)">Jul 2023</text></g><g class="xtick"><text text-anchor="middle" x="0" y="433" style="font-family: 'Open Sans', verdana, arial, sans-serif; font-size: 12px; fill: rgb(42, 63, 95); fill-opacity: 1; white-space: pre; opacity: 1;" transform="translate(426.15,0)">Sep 2023</text></g><g class="xtick"><text text-anchor="middle" x="0" y="433" style="font-family: 'Open Sans', verdana, arial, sans-serif; font-size: 12px; fill: rgb(42, 63, 95); fill-opacity: 1; white-space: pre; opacity: 1;" transform="translate(502.94,0)">Nov 2023</text></g><g class="xtick"><text text-anchor="middle" x="0" y="433" style="font-family: 'Open Sans', verdana, arial, sans-serif; font-size: 12px; fill: rgb(42, 63, 95); fill-opacity: 1; white-space: pre; opacity: 1;" transform="translate(579.72,0)">Jan 2024</text></g></g><g class="yaxislayer-above"><g class="ytick"><text text-anchor="end" x="79" y="4.199999999999999" transform="translate(0,402.24)" style="font-family: 'Open Sans', verdana, arial, sans-serif; font-size: 12px; fill: rgb(42, 63, 95); fill-opacity: 1; white-space: pre; opacity: 1;">$−2M</text></g><g class="ytick"><text text-anchor="end" x="79" y="4.199999999999999" style="font-family: 'Open Sans', verdana, arial, sans-serif; font-size: 12px; fill: rgb(42, 63, 95); fill-opacity: 1; white-space: pre; opacity: 1;" transform="translate(0,360)">$0</text></g><g class="ytick"><text text-anchor="end" x="79" y="4.199999999999999" style="font-family: 'Open Sans', verdana, arial, sans-serif; font-size: 12px; fill: rgb(42, 63, 95); fill-opacity: 1; white-space: pre; opacity: 1;" transform="translate(0,317.76)">$2M</text></g><g class="ytick"><text text-anchor="end" x="79" y="4.199999999999999" style="font-family: 'Open Sans', verdana, arial, sans-serif; font-size: 12px; fill: rgb(42, 63, 95); fill-opacity: 1; white-space: pre; opacity: 1;" transform="translate(0,275.53)">$4M</text></g><g class="ytick"><text text-anchor="end" x="79" y="4.199999999999999" style="font-family: 'Open Sans', verdana, arial, sans-serif; font-size: 12px; fill: rgb(42, 63, 95); fill-opacity: 1; white-space: pre; opacity: 1;" transform="translate(0,233.29)">$6M</text></g><g class="ytick"><text text-anchor="end" x="79" y="4.199999999999999" style="font-family: 'Open Sans', verdana, arial, sans-serif; font-size: 12px; fill: rgb(42, 63, 95); fill-opacity: 1; white-space: pre; opacity: 1;" transform="translate(0,191.05)">$8M</text></g><g class="ytick"><text text-anchor="end" x="79" y="4.199999999999999" style="font-family: 'Open Sans', verdana, arial, sans-serif; font-size: 12px; fill: rgb(42, 63, 95); fill-opacity: 1; white-space: pre; opacity: 1;" transform="translate(0,148.81)">$10M</text></g><g class="ytick"><text text-anchor="end" x="79" y="4.199999999999999" style="font-family: 'Open Sans', verdana, arial, sans-serif; font-size: 12px; fill: rgb(42, 63, 95); fill-opacity: 1; white-space: pre; opacity: 1;" transform="translate(0,106.57)">$12M</text></g></g><g class="overaxes-above"/></g></g><g class="polarlayer"/><g class="smithlayer"/><g class="ternarylayer"/><g class="geolayer"/><g class="funnelarealayer"/><g class="pielayer"/><g class="iciclelayer"/><g class="treemaplayer"/><g class="sunburstlayer"/><g class="glimages"/><defs id="topdefs-d95fea"><g class="clips"/></defs><g class="layer-above"><g class="imagelayer"/><g class="shapelayer"/></g><g class="infolayer"><g class="g-gtitle"><text class="gtitle" x="35" y="50" text-anchor="start" dy="0em" style="font-family: 'Open Sans', verdana, arial, sans-serif; font-size: 17px; fill: rgb(42, 63, 95); opacity: 1; font-weight: normal; white-space: pre;"><tspan class="line" dy="0em" x="35" y="50">Dforce</tspan><tspan class="line" dy="1.3em" x="35" y="50">​<tspan style="font-size:70%" dy="-0.6em">Cumulative Net Flows since Program Announcement, Until Program End + 30 Days - At Last Price</tspan><tspan dy="0.42em">​</tspan></tspan></text></g><g class="g-xtitle"><text class="xtitle" x="350" y="460.3" text-anchor="middle" style="font-family: 'Open Sans', verdana, arial, sans-serif; font-size: 14px; fill: rgb(42, 63, 95); opacity: 1; font-weight: normal; white-space: pre;">Day</text></g><g class="g-ytitle"><text class="ytitle" transform="rotate(-90,24.340625000000003,260)" x="24.340625000000003" y="260" text-anchor="middle" style="font-family: 'Open Sans', verdana, arial, sans-serif; font-size: 14px; fill: rgb(42, 63, 95); opacity: 1; font-weight: normal; white-space: pre;">Cumulative Net Flows (USD)</text></g></g></svg>