<svg class="main-svg" xmlns="http://www.w3.org/2000/svg" xmlns:xlink="http://www.w3.org/1999/xlink" width="700" height="500" style="" viewBox="0 0 700 500"><rect x="0" y="0" width="700" height="500" style="fill: rgb(255, 255, 255); fill-opacity: 1;"/><defs id="defs-482bf8"><g class="clips"><clipPath id="clip482bf8xyplot" class="plotclip"><rect width="540" height="320"/></clipPath><clipPath class="axesclip" id="clip482bf8x"><rect x="80" y="0" width="540" height="500"/></clipPath><clipPath class="axesclip" id="clip482bf8y"><rect x="0" y="100" width="700" height="320"/></clipPath><clipPath class="axesclip" id="clip482bf8xy"><rect x="80" y="100" width="540" height="320"/></clipPath></g><g class="gradients"/><g class="patterns"/></defs><g class="bglayer"><rect class="bg" x="80" y="100" width="540" height="320" style="fill: rgb(229, 236, 246); fill-opacity: 1; stroke-width: 0;"/></g><g class="layer-below"><g class="imagelayer"/><g class="shapelayer"/></g><g class="cartesianlayer"><g class="subplot xy"><g class="layer-subplot"><g class="shapelayer"/><g class="imagelayer"/></g><g class="minor-gridlayer"><g class="x"/><g class="y"/></g><g class="gridlayer"><g class="x"><path class="xgrid crisp" transform="translate(139.67000000000002,0)" d="M0,100v320" style="stroke: rgb(255, 255, 255); stroke-opacity: 1; stroke-width: 1px;"/><path class="xgrid crisp" transform="translate(231.16,0)" d="M0,100v320" style="stroke: rgb(255, 255, 255); stroke-opacity: 1; stroke-width: 1px;"/><path class="xgrid crisp" transform="translate(320.65999999999997,0)" d="M0,100v320" style="stroke: rgb(255, 255, 255); stroke-opacity: 1; stroke-width: 1px;"/><path class="xgrid crisp" transform="translate(411.16,0)" d="M0,100v320" style="stroke: rgb(255, 255, 255); stroke-opacity: 1; stroke-width: 1px;"/><path class="xgrid crisp" transform="translate(502.65,0)" d="M0,100v320" style="stroke: rgb(255, 255, 255); stroke-opacity: 1; stroke-width: 1px;"/><path class="xgrid crisp" transform="translate(594.14,0)" d="M0,100v320" style="stroke: rgb(255, 255, 255); stroke-opacity: 1; stroke-width: 1px;"/></g><g class="y"><path class="ygrid crisp" transform="translate(0,396.65)" d="M80,0h540" style="stroke: rgb(255, 255, 255); stroke-opacity: 1; stroke-width: 1px;"/><path class="ygrid crisp" transform="translate(0,263.28999999999996)" d="M80,0h540" style="stroke: rgb(255, 255, 255); stroke-opacity: 1; stroke-width: 1px;"/><path class="ygrid crisp" transform="translate(0,196.6)" d="M80,0h540" style="stroke: rgb(255, 255, 255); stroke-opacity: 1; stroke-width: 1px;"/><path class="ygrid crisp" transform="translate(0,129.92000000000002)" d="M80,0h540" style="stroke: rgb(255, 255, 255); stroke-opacity: 1; stroke-width: 1px;"/></g></g><g class="zerolinelayer"><path class="yzl zl crisp" transform="translate(0,329.97)" d="M80,0h540" style="stroke: rgb(255, 255, 255); stroke-opacity: 1; stroke-width: 2px;"/></g><path class="xlines-below"/><path class="ylines-below"/><g class="overlines-below"/><g class="xaxislayer-below"/><g class="yaxislayer-below"/><g class="overaxes-below"/><g class="plot" transform="translate(80,100)" clip-path="url(#clip482bf8xyplot)"><g class="scatterlayer mlayer"><g class="trace scatter trace576971" style="stroke-miterlimit: 2;"><g class="fills"><g><path class="js-fill" d="M540,229.97L0,229.97L0,230.01L0.99,206.31L1.99,147.56L3.98,115.93L4.97,107.48L6.96,81.89L7.96,45.59L8.95,40.27L9.94,44.44L10.94,27.2L11.93,23.21L12.93,22.51L13.92,16.86L14.92,32.67L15.91,16L17.9,22.63L18.9,32.35L22.87,37.25L23.87,37.57L25.86,38.97L26.85,41.32L27.85,40.65L28.84,42.74L30.83,39.98L31.82,49.56L32.82,50.29L33.81,49.59L34.81,48.58L35.8,54.13L37.79,54.77L38.78,59.41L40.77,67.91L41.77,75.28L42.76,89.06L43.76,89.37L44.75,88.67L45.75,60.43L46.74,59L47.73,54.94L49.72,56.42L50.72,60.61L51.71,62.66L52.71,48.2L53.7,45.96L54.7,40.53L55.69,37.74L56.69,39.65L57.68,42.94L58.67,42.11L60.66,38.74L61.66,40.13L62.65,38.05L63.65,40.34L65.64,44.29L66.63,42.29L67.62,41.34L68.62,47.49L69.61,52.78L70.61,51.58L71.6,50.56L72.6,52.02L73.59,51.47L74.59,45.42L75.58,67.18L76.57,70.9L78.56,75.27L79.56,76.08L80.55,101.17L81.55,98.91L82.54,100.51L83.54,106.9L85.52,134.3L86.52,131.7L87.51,112.84L88.51,112.13L89.5,118.42L90.5,114.88L92.49,119.21L93.48,114.93L94.48,119.02L95.47,109.66L96.46,111.04L97.46,107.92L99.45,135.69L100.44,129.11L101.44,121.94L102.43,125.95L103.43,130.22L104.42,148.81L105.41,145.6L106.41,147L107.4,147.36L108.4,138.87L109.39,136.38L110.39,137.26L112.38,132.12L113.37,138.62L114.36,142.84L115.36,142.71L117.35,144.89L118.34,140.8L119.34,143.01L120.33,149.85L121.33,149.84L122.32,142.78L123.31,141.88L124.31,143.42L126.3,141.08L127.29,140.12L128.29,141.2L129.28,147.93L131.27,147.95L132.27,148.92L133.26,150.25L134.25,147.93L135.25,145.06L136.24,147.02L137.24,145.3L138.23,146.78L139.23,144.47L140.22,153.58L142.21,157L143.2,157.9L144.2,157.99L145.19,156.89L146.19,155.99L147.18,157.7L149.17,157.67L150.17,164.84L151.16,165.11L152.15,163.74L153.15,163.33L154.14,163.87L156.13,166.96L157.13,164.72L161.1,169.25L162.1,167.6L163.09,150.27L164.09,146.62L165.08,150.79L166.08,147.8L167.07,147.18L168.07,145.25L169.06,144.14L170.06,141.12L171.05,143.45L172.04,141.28L173.04,140.73L174.03,134.99L175.03,134.76L176.02,135.76L177.02,127.49L178.01,131.98L179.01,128.27L180,130.99L180.99,128.17L181.99,130.25L182.98,125.11L183.98,126.01L184.97,127.23L185.97,133.55L186.96,134.92L187.96,134.68L188.95,134.02L189.94,131.85L190.94,131.37L191.93,134.68L192.93,132.88L193.92,134.27L194.92,137.57L195.91,137.19L196.91,137.48L197.9,142.06L199.89,140.78L200.88,142.56L202.87,142.08L203.87,140.33L204.86,139.35L205.86,134.28L206.85,133.57L207.85,135.65L208.84,134.01L209.83,134.73L211.82,137.05L212.82,137.06L213.81,135.74L214.81,139.5L216.8,141.55L217.79,141.4L218.78,142.34L219.78,151.97L220.77,156.65L221.77,153.44L222.76,158.15L223.76,155.86L224.75,164.43L225.75,165.18L226.74,161.41L227.73,162.23L229.72,166.17L230.72,166.37L232.71,171.32L233.7,162.48L234.7,161.18L235.69,163.07L237.68,164.03L238.67,167.18L239.67,174.12L240.66,172L242.65,170.65L243.65,169.13L244.64,171.77L245.64,171.57L246.63,171.28L247.62,172.72L249.61,170.49L250.61,171.66L252.6,171.72L253.59,171.92L255.58,171.03L256.57,172.38L259.56,170.43L260.55,168.45L261.55,175.66L262.54,176.48L267.51,179.2L268.51,177.37L269.5,176.93L270.5,177.41L274.48,180.42L275.47,179.71L277.46,182.91L278.45,183.74L279.45,184.65L280.44,183.51L281.44,183.25L282.43,190.41L283.43,189.13L284.42,190.43L285.41,189.48L286.41,191.05L288.4,191.73L289.39,194.76L290.39,194.83L291.38,198.26L294.36,245.3L295.36,168L297.35,167.64L298.34,167.57L299.34,166.55L300.33,167.65L301.33,167.71L302.32,166.58L306.3,168.33L307.29,197.95L308.29,201.28L309.28,200.24L312.27,204.45L313.26,204.39L314.25,204.4L315.25,207.16L316.24,207.79L317.24,207.48L318.23,207.61L319.23,206.97L320.22,206.21L321.22,202.77L323.2,202.48L324.2,204.84L326.19,202.24L327.18,199.89L328.18,198.54L329.17,204.48L330.17,201.77L331.16,206.61L335.14,207.14L336.13,209.71L337.13,209.31L338.12,211.72L340.11,210.61L341.1,210.95L343.09,210.65L344.09,211.24L345.08,206.81L346.08,207.74L347.07,212.81L348.07,212.87L349.06,214.72L350.06,213.45L352.04,212.69L353.04,211.85L354.03,211.09L355.03,213.38L356.02,214.08L357.02,210.3L358.01,209.3L359.01,209.91L360.99,209.74L361.99,209.45L362.98,207.05L363.98,207.04L364.97,211.06L365.97,211.74L366.96,211.21L367.96,214.04L368.95,212.87L369.94,209.94L371.93,207.54L372.93,211.53L374.92,213.88L375.91,214.04L377.9,214.29L378.9,218.34L379.89,220.87L380.88,219.53L381.88,219.99L382.87,219.34L383.87,217.63L384.86,218.01L385.86,218.91L386.85,210.65L387.85,209.52L388.84,215.56L389.83,215.91L390.83,214.87L391.82,213.48L392.82,220.87L394.81,219.3L395.8,219.82L397.79,219.66L398.78,220.05L399.78,219.72L400.77,218.53L402.76,216.95L403.76,217.29L405.75,215.7L406.74,212.98L407.73,213.91L408.73,212.95L410.72,211.99L411.71,214.04L413.7,213.19L414.7,217.41L416.69,216.91L417.68,216.71L419.67,215.88L420.66,216.57L421.66,221.08L422.65,220.24L423.65,220.7L424.64,210.99L426.63,207.23L427.62,208.71L428.62,209.12L429.61,208.71L431.6,209.36L432.6,210.62L434.59,209.86L435.58,212.41L438.56,210.82L439.56,209.9L441.55,209L442.54,217.3L444.53,216.61L445.52,217.13L446.52,220.65L447.51,220.27L449.5,224.65L450.5,224.51L451.49,224.5L452.49,222.75L453.48,221.2L454.48,221.33L455.47,221.33L456.46,222.52L461.44,220.77L462.43,225.08L463.43,227.76L464.42,236.58L465.41,239.4L466.41,239.62L468.4,239.63L469.39,242.74L474.36,239.53L475.36,239.87L476.35,239.61L477.35,232.22L478.34,230.61L479.34,239.35L483.31,239.24L484.31,243.23L485.3,241.84L486.3,243.95L488.29,243.79L489.28,243.79L492.27,246.22L493.26,245.83L494.25,247.43L495.25,253.98L496.24,253.68L497.24,256.84L498.23,261.7L499.23,261.68L500.22,265.58L501.22,265.61L504.2,266.28L505.19,268.91L506.19,269.2L507.18,271.61L508.18,263.56L509.17,263.63L511.16,263.94L512.15,272.84L513.15,302.45L514.14,302.68L516.13,302.68L517.13,303.43L518.12,303.44L519.12,302.04L521.1,302.48L522.1,297.1L523.09,297.06L524.09,298.41L525.08,303.2L526.08,303.13L540,304" style="fill: rgb(99, 110, 250); fill-opacity: 0.5; stroke-width: 0;"/></g></g><g class="errorbars"/><g class="lines"><path class="js-line" d="M0,230.01L0.99,206.31L1.99,147.56L3.98,115.93L4.97,107.48L6.96,81.89L7.96,45.59L8.95,40.27L9.94,44.44L10.94,27.2L11.93,23.21L12.93,22.51L13.92,16.86L14.92,32.67L15.91,16L17.9,22.63L18.9,32.35L22.87,37.25L23.87,37.57L25.86,38.97L26.85,41.32L27.85,40.65L28.84,42.74L30.83,39.98L31.82,49.56L32.82,50.29L33.81,49.59L34.81,48.58L35.8,54.13L37.79,54.77L38.78,59.41L40.77,67.91L41.77,75.28L42.76,89.06L43.76,89.37L44.75,88.67L45.75,60.43L46.74,59L47.73,54.94L49.72,56.42L50.72,60.61L51.71,62.66L52.71,48.2L53.7,45.96L54.7,40.53L55.69,37.74L56.69,39.65L57.68,42.94L58.67,42.11L60.66,38.74L61.66,40.13L62.65,38.05L63.65,40.34L65.64,44.29L66.63,42.29L67.62,41.34L68.62,47.49L69.61,52.78L70.61,51.58L71.6,50.56L72.6,52.02L73.59,51.47L74.59,45.42L75.58,67.18L76.57,70.9L78.56,75.27L79.56,76.08L80.55,101.17L81.55,98.91L82.54,100.51L83.54,106.9L85.52,134.3L86.52,131.7L87.51,112.84L88.51,112.13L89.5,118.42L90.5,114.88L92.49,119.21L93.48,114.93L94.48,119.02L95.47,109.66L96.46,111.04L97.46,107.92L99.45,135.69L100.44,129.11L101.44,121.94L102.43,125.95L103.43,130.22L104.42,148.81L105.41,145.6L106.41,147L107.4,147.36L108.4,138.87L109.39,136.38L110.39,137.26L112.38,132.12L113.37,138.62L114.36,142.84L115.36,142.71L117.35,144.89L118.34,140.8L119.34,143.01L120.33,149.85L121.33,149.84L122.32,142.78L123.31,141.88L124.31,143.42L126.3,141.08L127.29,140.12L128.29,141.2L129.28,147.93L131.27,147.95L132.27,148.92L133.26,150.25L134.25,147.93L135.25,145.06L136.24,147.02L137.24,145.3L138.23,146.78L139.23,144.47L140.22,153.58L142.21,157L143.2,157.9L144.2,157.99L145.19,156.89L146.19,155.99L147.18,157.7L149.17,157.67L150.17,164.84L151.16,165.11L152.15,163.74L153.15,163.33L154.14,163.87L156.13,166.96L157.13,164.72L161.1,169.25L162.1,167.6L163.09,150.27L164.09,146.62L165.08,150.79L166.08,147.8L167.07,147.18L168.07,145.25L169.06,144.14L170.06,141.12L171.05,143.45L172.04,141.28L173.04,140.73L174.03,134.99L175.03,134.76L176.02,135.76L177.02,127.49L178.01,131.98L179.01,128.27L180,130.99L180.99,128.17L181.99,130.25L182.98,125.11L183.98,126.01L184.97,127.23L185.97,133.55L186.96,134.92L187.96,134.68L188.95,134.02L189.94,131.85L190.94,131.37L191.93,134.68L192.93,132.88L193.92,134.27L194.92,137.57L195.91,137.19L196.91,137.48L197.9,142.06L199.89,140.78L200.88,142.56L202.87,142.08L203.87,140.33L204.86,139.35L205.86,134.28L206.85,133.57L207.85,135.65L208.84,134.01L209.83,134.73L211.82,137.05L212.82,137.06L213.81,135.74L214.81,139.5L216.8,141.55L217.79,141.4L218.78,142.34L219.78,151.97L220.77,156.65L221.77,153.44L222.76,158.15L223.76,155.86L224.75,164.43L225.75,165.18L226.74,161.41L227.73,162.23L229.72,166.17L230.72,166.37L232.71,171.32L233.7,162.48L234.7,161.18L235.69,163.07L237.68,164.03L238.67,167.18L239.67,174.12L240.66,172L242.65,170.65L243.65,169.13L244.64,171.77L245.64,171.57L246.63,171.28L247.62,172.72L249.61,170.49L250.61,171.66L252.6,171.72L253.59,171.92L255.58,171.03L256.57,172.38L259.56,170.43L260.55,168.45L261.55,175.66L262.54,176.48L267.51,179.2L268.51,177.37L269.5,176.93L270.5,177.41L274.48,180.42L275.47,179.71L277.46,182.91L278.45,183.74L279.45,184.65L280.44,183.51L281.44,183.25L282.43,190.41L283.43,189.13L284.42,190.43L285.41,189.48L286.41,191.05L288.4,191.73L289.39,194.76L290.39,194.83L291.38,198.26L294.36,245.3L295.36,168L297.35,167.64L298.34,167.57L299.34,166.55L300.33,167.65L301.33,167.71L302.32,166.58L306.3,168.33L307.29,197.95L308.29,201.28L309.28,200.24L312.27,204.45L313.26,204.39L314.25,204.4L315.25,207.16L316.24,207.79L317.24,207.48L318.23,207.61L319.23,206.97L320.22,206.21L321.22,202.77L323.2,202.48L324.2,204.84L326.19,202.24L327.18,199.89L328.18,198.54L329.17,204.48L330.17,201.77L331.16,206.61L335.14,207.14L336.13,209.71L337.13,209.31L338.12,211.72L340.11,210.61L341.1,210.95L343.09,210.65L344.09,211.24L345.08,206.81L346.08,207.74L347.07,212.81L348.07,212.87L349.06,214.72L350.06,213.45L352.04,212.69L353.04,211.85L354.03,211.09L355.03,213.38L356.02,214.08L357.02,210.3L358.01,209.3L359.01,209.91L360.99,209.74L361.99,209.45L362.98,207.05L363.98,207.04L364.97,211.06L365.97,211.74L366.96,211.21L367.96,214.04L368.95,212.87L369.94,209.94L371.93,207.54L372.93,211.53L374.92,213.88L375.91,214.04L377.9,214.29L378.9,218.34L379.89,220.87L380.88,219.53L381.88,219.99L382.87,219.34L383.87,217.63L384.86,218.01L385.86,218.91L386.85,210.65L387.85,209.52L388.84,215.56L389.83,215.91L390.83,214.87L391.82,213.48L392.82,220.87L394.81,219.3L395.8,219.82L397.79,219.66L398.78,220.05L399.78,219.72L400.77,218.53L402.76,216.95L403.76,217.29L405.75,215.7L406.74,212.98L407.73,213.91L408.73,212.95L410.72,211.99L411.71,214.04L413.7,213.19L414.7,217.41L416.69,216.91L417.68,216.71L419.67,215.88L420.66,216.57L421.66,221.08L422.65,220.24L423.65,220.7L424.64,210.99L426.63,207.23L427.62,208.71L428.62,209.12L429.61,208.71L431.6,209.36L432.6,210.62L434.59,209.86L435.58,212.41L438.56,210.82L439.56,209.9L441.55,209L442.54,217.3L444.53,216.61L445.52,217.13L446.52,220.65L447.51,220.27L449.5,224.65L450.5,224.51L451.49,224.5L452.49,222.75L453.48,221.2L454.48,221.33L455.47,221.33L456.46,222.52L461.44,220.77L462.43,225.08L463.43,227.76L464.42,236.58L465.41,239.4L466.41,239.62L468.4,239.63L469.39,242.74L474.36,239.53L475.36,239.87L476.35,239.61L477.35,232.22L478.34,230.61L479.34,239.35L483.31,239.24L484.31,243.23L485.3,241.84L486.3,243.95L488.29,243.79L489.28,243.79L492.27,246.22L493.26,245.83L494.25,247.43L495.25,253.98L496.24,253.68L497.24,256.84L498.23,261.7L499.23,261.68L500.22,265.58L501.22,265.61L504.2,266.28L505.19,268.91L506.19,269.2L507.18,271.61L508.18,263.56L509.17,263.63L511.16,263.94L512.15,272.84L513.15,302.45L514.14,302.68L516.13,302.68L517.13,303.43L518.12,303.44L519.12,302.04L521.1,302.48L522.1,297.1L523.09,297.06L524.09,298.41L525.08,303.2L526.08,303.13L540,304" style="vector-effect: none; fill: none; stroke: rgb(99, 110, 250); stroke-opacity: 1; stroke-width: 2px; opacity: 1;"/></g><g class="points"/><g class="text"/></g></g></g><g class="overplot"/><path class="xlines-above crisp" d="M0,0" style="fill: none;"/><path class="ylines-above crisp" d="M0,0" style="fill: none;"/><g class="overlines-above"/><g class="xaxislayer-above"><g class="xtick"><text text-anchor="middle" x="0" y="433" transform="translate(139.67000000000002,0)" style="font-family: 'Open Sans', verdana, arial, sans-serif; font-size: 12px; fill: rgb(42, 63, 95); fill-opacity: 1; white-space: pre; opacity: 1;">Oct 2022</text></g><g class="xtick"><text text-anchor="middle" x="0" y="433" style="font-family: 'Open Sans', verdana, arial, sans-serif; font-size: 12px; fill: rgb(42, 63, 95); fill-opacity: 1; white-space: pre; opacity: 1;" transform="translate(231.16,0)">Jan 2023</text></g><g class="xtick"><text text-anchor="middle" x="0" y="433" style="font-family: 'Open Sans', verdana, arial, sans-serif; font-size: 12px; fill: rgb(42, 63, 95); fill-opacity: 1; white-space: pre; opacity: 1;" transform="translate(320.65999999999997,0)">Apr 2023</text></g><g class="xtick"><text text-anchor="middle" x="0" y="433" style="font-family: 'Open Sans', verdana, arial, sans-serif; font-size: 12px; fill: rgb(42, 63, 95); fill-opacity: 1; white-space: pre; opacity: 1;" transform="translate(411.16,0)">Jul 2023</text></g><g class="xtick"><text text-anchor="middle" x="0" y="433" style="font-family: 'Open Sans', verdana, arial, sans-serif; font-size: 12px; fill: rgb(42, 63, 95); fill-opacity: 1; white-space: pre; opacity: 1;" transform="translate(502.65,0)">Oct 2023</text></g><g class="xtick"><text text-anchor="middle" x="0" y="433" style="font-family: 'Open Sans', verdana, arial, sans-serif; font-size: 12px; fill: rgb(42, 63, 95); fill-opacity: 1; white-space: pre; opacity: 1;" transform="translate(594.14,0)">Jan 2024</text></g></g><g class="yaxislayer-above"><g class="ytick"><text text-anchor="end" x="79" y="4.199999999999999" transform="translate(0,396.65)" style="font-family: 'Open Sans', verdana, arial, sans-serif; font-size: 12px; fill: rgb(42, 63, 95); fill-opacity: 1; white-space: pre; opacity: 1;">$−5M</text></g><g class="ytick"><text text-anchor="end" x="79" y="4.199999999999999" style="font-family: 'Open Sans', verdana, arial, sans-serif; font-size: 12px; fill: rgb(42, 63, 95); fill-opacity: 1; white-space: pre; opacity: 1;" transform="translate(0,329.97)">$0</text></g><g class="ytick"><text text-anchor="end" x="79" y="4.199999999999999" style="font-family: 'Open Sans', verdana, arial, sans-serif; font-size: 12px; fill: rgb(42, 63, 95); fill-opacity: 1; white-space: pre; opacity: 1;" transform="translate(0,263.28999999999996)">$5M</text></g><g class="ytick"><text text-anchor="end" x="79" y="4.199999999999999" style="font-family: 'Open Sans', verdana, arial, sans-serif; font-size: 12px; fill: rgb(42, 63, 95); fill-opacity: 1; white-space: pre; opacity: 1;" transform="translate(0,196.6)">$10M</text></g><g class="ytick"><text text-anchor="end" x="79" y="4.199999999999999" style="font-family: 'Open Sans', verdana, arial, sans-serif; font-size: 12px; fill: rgb(42, 63, 95); fill-opacity: 1; white-space: pre; opacity: 1;" transform="translate(0,129.92000000000002)">$15M</text></g></g><g class="overaxes-above"/></g></g><g class="polarlayer"/><g class="smithlayer"/><g class="ternarylayer"/><g class="geolayer"/><g class="funnelarealayer"/><g class="pielayer"/><g class="iciclelayer"/><g class="treemaplayer"/><g class="sunburstlayer"/><g class="glimages"/><defs id="topdefs-482bf8"><g class="clips"/></defs><g class="layer-above"><g class="imagelayer"/><g class="shapelayer"/></g><g class="infolayer"><g class="g-gtitle"><text class="gtitle" x="35" y="50" text-anchor="start" dy="0em" style="font-family: 'Open Sans', verdana, arial, sans-serif; font-size: 17px; fill: rgb(42, 63, 95); opacity: 1; font-weight: normal; white-space: pre;"><tspan class="line" dy="0em" x="35" y="50">Lyra*</tspan><tspan class="line" dy="1.3em" x="35" y="50">​<tspan style="font-size:70%" dy="-0.6em">Cumulative Net Flows since Program Announcement, Until Program End + 30 Days - At Last Price</tspan><tspan dy="0.42em">​</tspan></tspan></text></g><g class="g-xtitle"><text class="xtitle" x="350" y="460.3" text-anchor="middle" style="font-family: 'Open Sans', verdana, arial, sans-serif; font-size: 14px; fill: rgb(42, 63, 95); opacity: 1; font-weight: normal; white-space: pre;">Day</text></g><g class="g-ytitle"><text class="ytitle" transform="rotate(-90,24.340625000000003,260)" x="24.340625000000003" y="260" text-anchor="middle" style="font-family: 'Open Sans', verdana, arial, sans-serif; font-size: 14px; fill: rgb(42, 63, 95); opacity: 1; font-weight: normal; white-space: pre;">Cumulative Net Flows (USD)</text></g></g></svg>