<svg class="main-svg" xmlns="http://www.w3.org/2000/svg" xmlns:xlink="http://www.w3.org/1999/xlink" width="700" height="500" style="" viewBox="0 0 700 500"><rect x="0" y="0" width="700" height="500" style="fill: rgb(255, 255, 255); fill-opacity: 1;"/><defs id="defs-eb5f87"><g class="clips"><clipPath id="clipeb5f87xyplot" class="plotclip"><rect width="540" height="320"/></clipPath><clipPath class="axesclip" id="clipeb5f87x"><rect x="80" y="0" width="540" height="500"/></clipPath><clipPath class="axesclip" id="clipeb5f87y"><rect x="0" y="100" width="700" height="320"/></clipPath><clipPath class="axesclip" id="clipeb5f87xy"><rect x="80" y="100" width="540" height="320"/></clipPath></g><g class="gradients"/><g class="patterns"/></defs><g class="bglayer"><rect class="bg" x="80" y="100" width="540" height="320" style="fill: rgb(229, 236, 246); fill-opacity: 1; stroke-width: 0;"/></g><g class="layer-below"><g class="imagelayer"/><g class="shapelayer"/></g><g class="cartesianlayer"><g class="subplot xy"><g class="layer-subplot"><g class="shapelayer"/><g class="imagelayer"/></g><g class="minor-gridlayer"><g class="x"/><g class="y"/></g><g class="gridlayer"><g class="x"><path class="xgrid crisp" transform="translate(174.26,0)" d="M0,100v320" style="stroke: rgb(255, 255, 255); stroke-opacity: 1; stroke-width: 1px;"/><path class="xgrid crisp" transform="translate(271.72,0)" d="M0,100v320" style="stroke: rgb(255, 255, 255); stroke-opacity: 1; stroke-width: 1px;"/><path class="xgrid crisp" transform="translate(370.77,0)" d="M0,100v320" style="stroke: rgb(255, 255, 255); stroke-opacity: 1; stroke-width: 1px;"/><path class="xgrid crisp" transform="translate(468.22,0)" d="M0,100v320" style="stroke: rgb(255, 255, 255); stroke-opacity: 1; stroke-width: 1px;"/><path class="xgrid crisp" transform="translate(565.6800000000001,0)" d="M0,100v320" style="stroke: rgb(255, 255, 255); stroke-opacity: 1; stroke-width: 1px;"/></g><g class="y"><path class="ygrid crisp" transform="translate(0,404.67)" d="M80,0h540" style="stroke: rgb(255, 255, 255); stroke-opacity: 1; stroke-width: 1px;"/><path class="ygrid crisp" transform="translate(0,336.66999999999996)" d="M80,0h540" style="stroke: rgb(255, 255, 255); stroke-opacity: 1; stroke-width: 1px;"/><path class="ygrid crisp" transform="translate(0,200.67000000000002)" d="M80,0h540" style="stroke: rgb(255, 255, 255); stroke-opacity: 1; stroke-width: 1px;"/><path class="ygrid crisp" transform="translate(0,132.67000000000002)" d="M80,0h540" style="stroke: rgb(255, 255, 255); stroke-opacity: 1; stroke-width: 1px;"/></g></g><g class="zerolinelayer"><path class="yzl zl crisp" transform="translate(0,268.66999999999996)" d="M80,0h540" style="stroke: rgb(255, 255, 255); stroke-opacity: 1; stroke-width: 2px;"/></g><path class="xlines-below"/><path class="ylines-below"/><g class="overlines-below"/><g class="xaxislayer-below"/><g class="yaxislayer-below"/><g class="overaxes-below"/><g class="plot" transform="translate(80,100)" clip-path="url(#clipeb5f87xyplot)"><g class="scatterlayer mlayer"><g class="trace scatter tracea8db96" style="stroke-miterlimit: 2;"><g class="fills"><g><path class="js-fill" d="M540,168.67L0,168.67L0,149.45L1.6,90.48L3.2,106.29L4.79,108.02L6.39,48.87L7.99,46.06L9.59,101.14L11.18,103.54L12.78,137.27L14.38,242.39L15.98,231.91L17.57,168.12L19.17,153.24L20.77,148.71L22.37,148.33L23.96,145.88L25.56,141.28L27.16,127.71L28.76,123.5L30.36,123.5L31.95,88.56L33.55,88.89L35.15,96.98L36.75,131.4L38.34,114.09L39.94,118.55L41.54,114.12L43.14,114.34L44.73,131.93L46.33,85.42L47.93,85.6L49.53,81.55L51.12,80.47L52.72,64.88L54.32,81.86L57.51,76.66L59.11,16L60.71,54.27L62.31,33.94L63.91,69.68L65.5,68.43L67.1,77.19L68.7,74.09L70.3,69.5L71.89,58.6L73.49,51.28L75.09,35.54L76.69,43.57L78.28,47.54L79.88,26.76L81.48,38.62L83.08,27.98L84.67,33.4L86.27,304L119.82,84.85L121.42,84.84L123.02,89.85L124.62,90.92L126.21,95.23L131.01,94.1L132.6,99.01L135.8,81.94L137.4,81.83L138.99,118.71L140.59,124.06L142.19,124.99L143.79,134.15L145.38,149.88L146.98,150.77L148.58,170L150.18,174.08L151.78,174.62L153.37,178.08L154.97,172.03L156.57,178.52L159.76,178.46L161.36,178.45L164.56,180.14L166.15,181.3L167.75,215.23L169.35,216.94L170.95,230.65L172.54,232.1L174.14,236.49L175.74,235.83L177.34,235.13L178.93,235.72L180.53,233.65L182.13,232.91L183.73,232.25L185.33,233.41L186.92,233.4L188.52,245.58L193.31,246.16L194.91,246.19L196.51,246.17L198.11,247.01L199.7,246.99L201.3,249.4L202.9,269.76L204.5,265.24L207.69,267.84L209.29,267.87L210.89,269.2L212.49,271.97L214.08,274.17L215.68,274.31L217.28,276.75L218.88,276.74L223.67,276.72L225.27,280.73L244.44,280.41L246.04,280.27L249.23,279.75L250.83,279.74L252.43,279.76L254.02,281.25L257.22,281.19L258.82,284.53L260.41,299.93L263.61,284.73L266.8,284.71L268.4,287.81L270,288.08L271.6,290.69L290.77,291.39L292.37,291.54L293.96,291.54L295.56,277.88L308.34,277.98L309.94,291.86L322.72,292.04L324.32,291.99L343.49,292.6L345.09,291.74L378.64,292.02L380.24,292.97L397.81,293.56L399.41,294.25L402.6,294.8L404.2,294.8L416.98,295.03L418.58,299.54L420.18,295.01L421.78,295.01L500.06,295.82L501.66,294.6L503.25,294.44L504.85,295.96L508.05,296.39L509.64,296.37L540,296.75" style="fill: rgb(99, 110, 250); fill-opacity: 0.5; stroke-width: 0;"/></g></g><g class="errorbars"/><g class="lines"><path class="js-line" d="M0,149.45L1.6,90.48L3.2,106.29L4.79,108.02L6.39,48.87L7.99,46.06L9.59,101.14L11.18,103.54L12.78,137.27L14.38,242.39L15.98,231.91L17.57,168.12L19.17,153.24L20.77,148.71L22.37,148.33L23.96,145.88L25.56,141.28L27.16,127.71L28.76,123.5L30.36,123.5L31.95,88.56L33.55,88.89L35.15,96.98L36.75,131.4L38.34,114.09L39.94,118.55L41.54,114.12L43.14,114.34L44.73,131.93L46.33,85.42L47.93,85.6L49.53,81.55L51.12,80.47L52.72,64.88L54.32,81.86L57.51,76.66L59.11,16L60.71,54.27L62.31,33.94L63.91,69.68L65.5,68.43L67.1,77.19L68.7,74.09L70.3,69.5L71.89,58.6L73.49,51.28L75.09,35.54L76.69,43.57L78.28,47.54L79.88,26.76L81.48,38.62L83.08,27.98L84.67,33.4L86.27,304L119.82,84.85L121.42,84.84L123.02,89.85L124.62,90.92L126.21,95.23L131.01,94.1L132.6,99.01L135.8,81.94L137.4,81.83L138.99,118.71L140.59,124.06L142.19,124.99L143.79,134.15L145.38,149.88L146.98,150.77L148.58,170L150.18,174.08L151.78,174.62L153.37,178.08L154.97,172.03L156.57,178.52L159.76,178.46L161.36,178.45L164.56,180.14L166.15,181.3L167.75,215.23L169.35,216.94L170.95,230.65L172.54,232.1L174.14,236.49L175.74,235.83L177.34,235.13L178.93,235.72L180.53,233.65L182.13,232.91L183.73,232.25L185.33,233.41L186.92,233.4L188.52,245.58L193.31,246.16L194.91,246.19L196.51,246.17L198.11,247.01L199.7,246.99L201.3,249.4L202.9,269.76L204.5,265.24L207.69,267.84L209.29,267.87L210.89,269.2L212.49,271.97L214.08,274.17L215.68,274.31L217.28,276.75L218.88,276.74L223.67,276.72L225.27,280.73L244.44,280.41L246.04,280.27L249.23,279.75L250.83,279.74L252.43,279.76L254.02,281.25L257.22,281.19L258.82,284.53L260.41,299.93L263.61,284.73L266.8,284.71L268.4,287.81L270,288.08L271.6,290.69L290.77,291.39L292.37,291.54L293.96,291.54L295.56,277.88L308.34,277.98L309.94,291.86L322.72,292.04L324.32,291.99L343.49,292.6L345.09,291.74L378.64,292.02L380.24,292.97L397.81,293.56L399.41,294.25L402.6,294.8L404.2,294.8L416.98,295.03L418.58,299.54L420.18,295.01L421.78,295.01L500.06,295.82L501.66,294.6L503.25,294.44L504.85,295.96L508.05,296.39L509.64,296.37L540,296.75" style="vector-effect: none; fill: none; stroke: rgb(99, 110, 250); stroke-opacity: 1; stroke-width: 2px; opacity: 1;"/></g><g class="points"/><g class="text"/></g></g></g><g class="overplot"/><path class="xlines-above crisp" d="M0,0" style="fill: none;"/><path class="ylines-above crisp" d="M0,0" style="fill: none;"/><g class="overlines-above"/><g class="xaxislayer-above"><g class="xtick"><text text-anchor="middle" x="0" y="433" transform="translate(174.26,0)" style="font-family: 'Open Sans', verdana, arial, sans-serif; font-size: 12px; fill: rgb(42, 63, 95); fill-opacity: 1; white-space: pre; opacity: 1;">May 2023</text></g><g class="xtick"><text text-anchor="middle" x="0" y="433" style="font-family: 'Open Sans', verdana, arial, sans-serif; font-size: 12px; fill: rgb(42, 63, 95); fill-opacity: 1; white-space: pre; opacity: 1;" transform="translate(271.72,0)">Jul 2023</text></g><g class="xtick"><text text-anchor="middle" x="0" y="433" style="font-family: 'Open Sans', verdana, arial, sans-serif; font-size: 12px; fill: rgb(42, 63, 95); fill-opacity: 1; white-space: pre; opacity: 1;" transform="translate(370.77,0)">Sep 2023</text></g><g class="xtick"><text text-anchor="middle" x="0" y="433" style="font-family: 'Open Sans', verdana, arial, sans-serif; font-size: 12px; fill: rgb(42, 63, 95); fill-opacity: 1; white-space: pre; opacity: 1;" transform="translate(468.22,0)">Nov 2023</text></g><g class="xtick"><text text-anchor="middle" x="0" y="433" style="font-family: 'Open Sans', verdana, arial, sans-serif; font-size: 12px; fill: rgb(42, 63, 95); fill-opacity: 1; white-space: pre; opacity: 1;" transform="translate(565.6800000000001,0)">Jan 2024</text></g></g><g class="yaxislayer-above"><g class="ytick"><text text-anchor="end" x="79" y="4.199999999999999" transform="translate(0,404.67)" style="font-family: 'Open Sans', verdana, arial, sans-serif; font-size: 12px; fill: rgb(42, 63, 95); fill-opacity: 1; white-space: pre; opacity: 1;">$−2M</text></g><g class="ytick"><text text-anchor="end" x="79" y="4.199999999999999" style="font-family: 'Open Sans', verdana, arial, sans-serif; font-size: 12px; fill: rgb(42, 63, 95); fill-opacity: 1; white-space: pre; opacity: 1;" transform="translate(0,336.66999999999996)">$−1M</text></g><g class="ytick"><text text-anchor="end" x="79" y="4.199999999999999" style="font-family: 'Open Sans', verdana, arial, sans-serif; font-size: 12px; fill: rgb(42, 63, 95); fill-opacity: 1; white-space: pre; opacity: 1;" transform="translate(0,268.66999999999996)">$0</text></g><g class="ytick"><text text-anchor="end" x="79" y="4.199999999999999" style="font-family: 'Open Sans', verdana, arial, sans-serif; font-size: 12px; fill: rgb(42, 63, 95); fill-opacity: 1; white-space: pre; opacity: 1;" transform="translate(0,200.67000000000002)">$1M</text></g><g class="ytick"><text text-anchor="end" x="79" y="4.199999999999999" style="font-family: 'Open Sans', verdana, arial, sans-serif; font-size: 12px; fill: rgb(42, 63, 95); fill-opacity: 1; white-space: pre; opacity: 1;" transform="translate(0,132.67000000000002)">$2M</text></g></g><g class="overaxes-above"/></g></g><g class="polarlayer"/><g class="smithlayer"/><g class="ternarylayer"/><g class="geolayer"/><g class="funnelarealayer"/><g class="pielayer"/><g class="iciclelayer"/><g class="treemaplayer"/><g class="sunburstlayer"/><g class="glimages"/><defs id="topdefs-eb5f87"><g class="clips"/></defs><g class="layer-above"><g class="imagelayer"/><g class="shapelayer"/></g><g class="infolayer"><g class="g-gtitle"><text class="gtitle" x="35" y="50" text-anchor="start" dy="0em" style="font-family: 'Open Sans', verdana, arial, sans-serif; font-size: 17px; fill: rgb(42, 63, 95); opacity: 1; font-weight: normal; white-space: pre;"><tspan class="line" dy="0em" x="35" y="50">Sushi Trident</tspan><tspan class="line" dy="1.3em" x="35" y="50">​<tspan style="font-size:70%" dy="-0.6em">Cumulative Net Flows since Program Announcement, Until Program End + 30 Days - At Last Price</tspan><tspan dy="0.42em">​</tspan></tspan></text></g><g class="g-xtitle"><text class="xtitle" x="350" y="460.3" text-anchor="middle" style="font-family: 'Open Sans', verdana, arial, sans-serif; font-size: 14px; fill: rgb(42, 63, 95); opacity: 1; font-weight: normal; white-space: pre;">Day</text></g><g class="g-ytitle"><text class="ytitle" transform="rotate(-90,24.340625000000003,260)" x="24.340625000000003" y="260" text-anchor="middle" style="font-family: 'Open Sans', verdana, arial, sans-serif; font-size: 14px; fill: rgb(42, 63, 95); opacity: 1; font-weight: normal; white-space: pre;">Cumulative Net Flows (USD)</text></g></g></svg>