<svg class="main-svg" xmlns="http://www.w3.org/2000/svg" xmlns:xlink="http://www.w3.org/1999/xlink" width="700" height="500" style="" viewBox="0 0 700 500"><rect x="0" y="0" width="700" height="500" style="fill: rgb(255, 255, 255); fill-opacity: 1;"/><defs id="defs-ffe932"><g class="clips"><clipPath id="clipffe932xyplot" class="plotclip"><rect width="540" height="320"/></clipPath><clipPath class="axesclip" id="clipffe932x"><rect x="80" y="0" width="540" height="500"/></clipPath><clipPath class="axesclip" id="clipffe932y"><rect x="0" y="100" width="700" height="320"/></clipPath><clipPath class="axesclip" id="clipffe932xy"><rect x="80" y="100" width="540" height="320"/></clipPath></g><g class="gradients"/><g class="patterns"/></defs><g class="bglayer"><rect class="bg" x="80" y="100" width="540" height="320" style="fill: rgb(229, 236, 246); fill-opacity: 1; stroke-width: 0;"/></g><g class="layer-below"><g class="imagelayer"/><g class="shapelayer"/></g><g class="cartesianlayer"><g class="subplot xy"><g class="layer-subplot"><g class="shapelayer"/><g class="imagelayer"/></g><g class="minor-gridlayer"><g class="x"/><g class="y"/></g><g class="gridlayer"><g class="x"><path class="xgrid crisp" transform="translate(98.87,0)" d="M0,100v320" style="stroke: rgb(255, 255, 255); stroke-opacity: 1; stroke-width: 1px;"/><path class="xgrid crisp" transform="translate(195.34,0)" d="M0,100v320" style="stroke: rgb(255, 255, 255); stroke-opacity: 1; stroke-width: 1px;"/><path class="xgrid crisp" transform="translate(289.71000000000004,0)" d="M0,100v320" style="stroke: rgb(255, 255, 255); stroke-opacity: 1; stroke-width: 1px;"/><path class="xgrid crisp" transform="translate(385.13,0)" d="M0,100v320" style="stroke: rgb(255, 255, 255); stroke-opacity: 1; stroke-width: 1px;"/><path class="xgrid crisp" transform="translate(481.59,0)" d="M0,100v320" style="stroke: rgb(255, 255, 255); stroke-opacity: 1; stroke-width: 1px;"/><path class="xgrid crisp" transform="translate(578.06,0)" d="M0,100v320" style="stroke: rgb(255, 255, 255); stroke-opacity: 1; stroke-width: 1px;"/></g><g class="y"><path class="ygrid crisp" transform="translate(0,410.44)" d="M80,0h540" style="stroke: rgb(255, 255, 255); stroke-opacity: 1; stroke-width: 1px;"/><path class="ygrid crisp" transform="translate(0,345.58000000000004)" d="M80,0h540" style="stroke: rgb(255, 255, 255); stroke-opacity: 1; stroke-width: 1px;"/><path class="ygrid crisp" transform="translate(0,280.72)" d="M80,0h540" style="stroke: rgb(255, 255, 255); stroke-opacity: 1; stroke-width: 1px;"/><path class="ygrid crisp" transform="translate(0,151.01)" d="M80,0h540" style="stroke: rgb(255, 255, 255); stroke-opacity: 1; stroke-width: 1px;"/></g></g><g class="zerolinelayer"><path class="yzl zl crisp" transform="translate(0,215.87)" d="M80,0h540" style="stroke: rgb(255, 255, 255); stroke-opacity: 1; stroke-width: 2px;"/></g><path class="xlines-below"/><path class="ylines-below"/><g class="overlines-below"/><g class="xaxislayer-below"/><g class="yaxislayer-below"/><g class="overaxes-below"/><g class="plot" transform="translate(80,100)" clip-path="url(#clipffe932xyplot)"><g class="scatterlayer mlayer"><g class="trace scatter trace4294ae" style="stroke-miterlimit: 2;"><g class="fills"><g><path class="js-fill" d="M540,115.87L0,115.87L0,114.92L2.1,114.68L3.15,114.11L8.39,113.63L9.44,113.56L25.17,113.28L26.21,112.97L30.41,112.72L31.46,113.16L35.65,113.09L36.7,111.28L37.75,109.81L38.8,109.68L40.89,110.22L41.94,104.77L42.99,106.3L44.04,105.11L45.09,104.64L46.14,135.5L47.18,137.89L48.23,137.44L49.28,137.22L50.33,135.72L51.38,134.52L52.43,140.03L53.48,139.78L54.52,143.69L55.57,136.92L56.62,146.65L58.72,145.04L59.77,173.63L60.82,161.3L61.86,160.87L63.96,158.51L65.01,158.35L67.11,157.49L68.16,146.13L70.25,145.17L71.3,143.22L73.4,140.68L74.45,140.05L75.5,139.84L76.54,158.96L77.59,157.73L78.64,157.68L82.83,157.04L83.88,156.89L85.98,155.22L87.03,157.17L88.08,166.82L89.13,154.74L90.17,157.19L91.22,157.05L96.47,155.39L97.51,155.09L99.61,155.61L100.66,154.54L102.76,153.37L103.81,153.21L105.9,152.89L106.95,163.25L110.1,162.12L111.15,161.54L116.39,160.33L117.44,161.07L118.49,162.73L119.53,162.62L120.58,162.54L121.63,165.62L123.73,166.03L124.78,165.4L125.83,165.3L126.87,165.96L127.92,165.7L128.97,167.47L130.02,174.03L131.07,173.75L133.17,172.91L134.21,163.15L135.26,161.55L136.31,161.66L137.36,161.16L138.41,157.79L142.6,150.09L143.65,149.37L144.7,149.52L145.75,148.47L146.8,147.93L147.84,146.38L148.89,146.49L149.94,155.62L150.99,155.35L152.04,152.89L153.09,151.74L154.14,148.29L155.18,130.16L156.23,137.53L158.33,136.62L159.38,127.28L160.43,126.19L161.48,121.02L162.52,132.11L163.57,128.65L164.62,113.66L165.67,112.77L166.72,77.42L167.77,77.27L168.82,78.48L169.86,77.99L170.91,113.06L171.96,113.11L173.01,52.19L174.06,47.84L175.11,45.96L176.16,36.86L178.25,24.22L179.3,21.53L180.35,19.52L181.4,19.39L182.45,18.59L183.5,16L184.54,18.75L185.59,25.91L186.64,25.43L187.69,38.35L188.74,36.86L189.79,37.95L191.88,36.5L192.93,47.66L193.98,48.83L195.03,48.35L196.08,47.31L197.13,49.09L199.22,48.58L200.27,52.36L201.32,57.21L202.37,56.83L203.42,54.21L204.47,53.76L206.56,54.41L207.61,107.5L208.66,107.32L209.71,108.01L210.76,108.01L211.81,108.78L213.9,108.86L214.95,110.58L225.44,109.45L226.49,108.39L230.68,107.82L231.73,107.93L234.87,107.08L235.92,108.36L249.55,106.03L250.6,112.03L251.65,118.37L252.7,119.02L254.8,118.86L255.84,119.65L266.33,118.58L267.38,124.57L268.43,124.55L269.48,125.36L276.82,124.69L277.86,124.58L284.16,123.16L285.2,126.9L300.93,125.85L301.98,126.66L304.08,136.56L305.13,137.28L307.22,139.88L308.27,276.86L310.37,277.59L311.42,277.84L312.47,279.64L313.51,279.63L314.56,279.72L315.61,280.91L317.71,281.89L318.76,289.02L319.81,290.38L320.85,290.42L322.95,291.32L324,291.27L330.29,291.92L331.34,291.91L336.58,292.55L337.63,292.69L347.07,292.59L348.12,294.25L352.31,294.24L353.36,295.53L357.55,296.2L358.6,296.46L393.2,296.04L394.25,296.88L400.54,296.83L401.59,304L417.32,303.38L418.37,47.92L444.58,47.86L445.63,48.64L534.76,48.47L535.81,48.46L540,48.48" style="fill: rgb(99, 110, 250); fill-opacity: 0.5; stroke-width: 0;"/></g></g><g class="errorbars"/><g class="lines"><path class="js-line" d="M0,114.92L2.1,114.68L3.15,114.11L8.39,113.63L9.44,113.56L25.17,113.28L26.21,112.97L30.41,112.72L31.46,113.16L35.65,113.09L36.7,111.28L37.75,109.81L38.8,109.68L40.89,110.22L41.94,104.77L42.99,106.3L44.04,105.11L45.09,104.64L46.14,135.5L47.18,137.89L48.23,137.44L49.28,137.22L50.33,135.72L51.38,134.52L52.43,140.03L53.48,139.78L54.52,143.69L55.57,136.92L56.62,146.65L58.72,145.04L59.77,173.63L60.82,161.3L61.86,160.87L63.96,158.51L65.01,158.35L67.11,157.49L68.16,146.13L70.25,145.17L71.3,143.22L73.4,140.68L74.45,140.05L75.5,139.84L76.54,158.96L77.59,157.73L78.64,157.68L82.83,157.04L83.88,156.89L85.98,155.22L87.03,157.17L88.08,166.82L89.13,154.74L90.17,157.19L91.22,157.05L96.47,155.39L97.51,155.09L99.61,155.61L100.66,154.54L102.76,153.37L103.81,153.21L105.9,152.89L106.95,163.25L110.1,162.12L111.15,161.54L116.39,160.33L117.44,161.07L118.49,162.73L119.53,162.62L120.58,162.54L121.63,165.62L123.73,166.03L124.78,165.4L125.83,165.3L126.87,165.96L127.92,165.7L128.97,167.47L130.02,174.03L131.07,173.75L133.17,172.91L134.21,163.15L135.26,161.55L136.31,161.66L137.36,161.16L138.41,157.79L142.6,150.09L143.65,149.37L144.7,149.52L145.75,148.47L146.8,147.93L147.84,146.38L148.89,146.49L149.94,155.62L150.99,155.35L152.04,152.89L153.09,151.74L154.14,148.29L155.18,130.16L156.23,137.53L158.33,136.62L159.38,127.28L160.43,126.19L161.48,121.02L162.52,132.11L163.57,128.65L164.62,113.66L165.67,112.77L166.72,77.42L167.77,77.27L168.82,78.48L169.86,77.99L170.91,113.06L171.96,113.11L173.01,52.19L174.06,47.84L175.11,45.96L176.16,36.86L178.25,24.22L179.3,21.53L180.35,19.52L181.4,19.39L182.45,18.59L183.5,16L184.54,18.75L185.59,25.91L186.64,25.43L187.69,38.35L188.74,36.86L189.79,37.95L191.88,36.5L192.93,47.66L193.98,48.83L195.03,48.35L196.08,47.31L197.13,49.09L199.22,48.58L200.27,52.36L201.32,57.21L202.37,56.83L203.42,54.21L204.47,53.76L206.56,54.41L207.61,107.5L208.66,107.32L209.71,108.01L210.76,108.01L211.81,108.78L213.9,108.86L214.95,110.58L225.44,109.45L226.49,108.39L230.68,107.82L231.73,107.93L234.87,107.08L235.92,108.36L249.55,106.03L250.6,112.03L251.65,118.37L252.7,119.02L254.8,118.86L255.84,119.65L266.33,118.58L267.38,124.57L268.43,124.55L269.48,125.36L276.82,124.69L277.86,124.58L284.16,123.16L285.2,126.9L300.93,125.85L301.98,126.66L304.08,136.56L305.13,137.28L307.22,139.88L308.27,276.86L310.37,277.59L311.42,277.84L312.47,279.64L313.51,279.63L314.56,279.72L315.61,280.91L317.71,281.89L318.76,289.02L319.81,290.38L320.85,290.42L322.95,291.32L324,291.27L330.29,291.92L331.34,291.91L336.58,292.55L337.63,292.69L347.07,292.59L348.12,294.25L352.31,294.24L353.36,295.53L357.55,296.2L358.6,296.46L393.2,296.04L394.25,296.88L400.54,296.83L401.59,304L417.32,303.38L418.37,47.92L444.58,47.86L445.63,48.64L534.76,48.47L535.81,48.46L540,48.48" style="vector-effect: none; fill: none; stroke: rgb(99, 110, 250); stroke-opacity: 1; stroke-width: 2px; opacity: 1;"/></g><g class="points"/><g class="text"/></g></g></g><g class="overplot"/><path class="xlines-above crisp" d="M0,0" style="fill: none;"/><path class="ylines-above crisp" d="M0,0" style="fill: none;"/><g class="overlines-above"/><g class="xaxislayer-above"><g class="xtick"><text text-anchor="middle" x="0" y="433" transform="translate(98.87,0)" style="font-family: 'Open Sans', verdana, arial, sans-serif; font-size: 12px; fill: rgb(42, 63, 95); fill-opacity: 1; white-space: pre; opacity: 1;">Oct 2022</text></g><g class="xtick"><text text-anchor="middle" x="0" y="433" style="font-family: 'Open Sans', verdana, arial, sans-serif; font-size: 12px; fill: rgb(42, 63, 95); fill-opacity: 1; white-space: pre; opacity: 1;" transform="translate(195.34,0)">Jan 2023</text></g><g class="xtick"><text text-anchor="middle" x="0" y="433" style="font-family: 'Open Sans', verdana, arial, sans-serif; font-size: 12px; fill: rgb(42, 63, 95); fill-opacity: 1; white-space: pre; opacity: 1;" transform="translate(289.71000000000004,0)">Apr 2023</text></g><g class="xtick"><text text-anchor="middle" x="0" y="433" style="font-family: 'Open Sans', verdana, arial, sans-serif; font-size: 12px; fill: rgb(42, 63, 95); fill-opacity: 1; white-space: pre; opacity: 1;" transform="translate(385.13,0)">Jul 2023</text></g><g class="xtick"><text text-anchor="middle" x="0" y="433" style="font-family: 'Open Sans', verdana, arial, sans-serif; font-size: 12px; fill: rgb(42, 63, 95); fill-opacity: 1; white-space: pre; opacity: 1;" transform="translate(481.59,0)">Oct 2023</text></g><g class="xtick"><text text-anchor="middle" x="0" y="433" style="font-family: 'Open Sans', verdana, arial, sans-serif; font-size: 12px; fill: rgb(42, 63, 95); fill-opacity: 1; white-space: pre; opacity: 1;" transform="translate(578.06,0)">Jan 2024</text></g></g><g class="yaxislayer-above"><g class="ytick"><text text-anchor="end" x="79" y="4.199999999999999" transform="translate(0,410.44)" style="font-family: 'Open Sans', verdana, arial, sans-serif; font-size: 12px; fill: rgb(42, 63, 95); fill-opacity: 1; white-space: pre; opacity: 1;">$−300k</text></g><g class="ytick"><text text-anchor="end" x="79" y="4.199999999999999" style="font-family: 'Open Sans', verdana, arial, sans-serif; font-size: 12px; fill: rgb(42, 63, 95); fill-opacity: 1; white-space: pre; opacity: 1;" transform="translate(0,345.58000000000004)">$−200k</text></g><g class="ytick"><text text-anchor="end" x="79" y="4.199999999999999" style="font-family: 'Open Sans', verdana, arial, sans-serif; font-size: 12px; fill: rgb(42, 63, 95); fill-opacity: 1; white-space: pre; opacity: 1;" transform="translate(0,280.72)">$−100k</text></g><g class="ytick"><text text-anchor="end" x="79" y="4.199999999999999" style="font-family: 'Open Sans', verdana, arial, sans-serif; font-size: 12px; fill: rgb(42, 63, 95); fill-opacity: 1; white-space: pre; opacity: 1;" transform="translate(0,215.87)">$0</text></g><g class="ytick"><text text-anchor="end" x="79" y="4.199999999999999" style="font-family: 'Open Sans', verdana, arial, sans-serif; font-size: 12px; fill: rgb(42, 63, 95); fill-opacity: 1; white-space: pre; opacity: 1;" transform="translate(0,151.01)">$100k</text></g></g><g class="overaxes-above"/></g></g><g class="polarlayer"/><g class="smithlayer"/><g class="ternarylayer"/><g class="geolayer"/><g class="funnelarealayer"/><g class="pielayer"/><g class="iciclelayer"/><g class="treemaplayer"/><g class="sunburstlayer"/><g class="glimages"/><defs id="topdefs-ffe932"><g class="clips"/></defs><g class="layer-above"><g class="imagelayer"/><g class="shapelayer"/></g><g class="infolayer"><g class="g-gtitle"><text class="gtitle" x="35" y="50" text-anchor="start" dy="0em" style="font-family: 'Open Sans', verdana, arial, sans-serif; font-size: 17px; fill: rgb(42, 63, 95); opacity: 1; font-weight: normal; white-space: pre;"><tspan class="line" dy="0em" x="35" y="50">Beefy - BIFI/OP: Velodrome</tspan><tspan class="line" dy="1.3em" x="35" y="50">​<tspan style="font-size:70%" dy="-0.6em">Cumulative Net Flows since Program Announcement, Until Program End + 30 Days - At Last Price</tspan><tspan dy="0.42em">​</tspan></tspan></text></g><g class="g-xtitle"><text class="xtitle" x="350" y="460.3" text-anchor="middle" style="font-family: 'Open Sans', verdana, arial, sans-serif; font-size: 14px; fill: rgb(42, 63, 95); opacity: 1; font-weight: normal; white-space: pre;">Day</text></g><g class="g-ytitle"><text class="ytitle" transform="rotate(-90,14.996875000000003,260)" x="14.996875000000003" y="260" text-anchor="middle" style="font-family: 'Open Sans', verdana, arial, sans-serif; font-size: 14px; fill: rgb(42, 63, 95); opacity: 1; font-weight: normal; white-space: pre;">Cumulative Net Flows (USD)</text></g></g></svg>