<svg class="main-svg" xmlns="http://www.w3.org/2000/svg" xmlns:xlink="http://www.w3.org/1999/xlink" width="700" height="500" style="" viewBox="0 0 700 500"><rect x="0" y="0" width="700" height="500" style="fill: rgb(255, 255, 255); fill-opacity: 1;"/><defs id="defs-4d2d92"><g class="clips"><clipPath id="clip4d2d92xyplot" class="plotclip"><rect width="540" height="320"/></clipPath><clipPath class="axesclip" id="clip4d2d92x"><rect x="80" y="0" width="540" height="500"/></clipPath><clipPath class="axesclip" id="clip4d2d92y"><rect x="0" y="100" width="700" height="320"/></clipPath><clipPath class="axesclip" id="clip4d2d92xy"><rect x="80" y="100" width="540" height="320"/></clipPath></g><g class="gradients"/><g class="patterns"/></defs><g class="bglayer"><rect class="bg" x="80" y="100" width="540" height="320" style="fill: rgb(229, 236, 246); fill-opacity: 1; stroke-width: 0;"/></g><g class="layer-below"><g class="imagelayer"/><g class="shapelayer"/></g><g class="cartesianlayer"><g class="subplot xy"><g class="layer-subplot"><g class="shapelayer"/><g class="imagelayer"/></g><g class="minor-gridlayer"><g class="x"/><g class="y"/></g><g class="gridlayer"><g class="x"><path class="xgrid crisp" transform="translate(140.85,0)" d="M0,100v320" style="stroke: rgb(255, 255, 255); stroke-opacity: 1; stroke-width: 1px;"/><path class="xgrid crisp" transform="translate(253.03,0)" d="M0,100v320" style="stroke: rgb(255, 255, 255); stroke-opacity: 1; stroke-width: 1px;"/><path class="xgrid crisp" transform="translate(369.01,0)" d="M0,100v320" style="stroke: rgb(255, 255, 255); stroke-opacity: 1; stroke-width: 1px;"/><path class="xgrid crisp" transform="translate(485,0)" d="M0,100v320" style="stroke: rgb(255, 255, 255); stroke-opacity: 1; stroke-width: 1px;"/><path class="xgrid crisp" transform="translate(602.89,0)" d="M0,100v320" style="stroke: rgb(255, 255, 255); stroke-opacity: 1; stroke-width: 1px;"/></g><g class="y"><path class="ygrid crisp" transform="translate(0,339.7)" d="M80,0h540" style="stroke: rgb(255, 255, 255); stroke-opacity: 1; stroke-width: 1px;"/><path class="ygrid crisp" transform="translate(0,292.87)" d="M80,0h540" style="stroke: rgb(255, 255, 255); stroke-opacity: 1; stroke-width: 1px;"/><path class="ygrid crisp" transform="translate(0,246.04)" d="M80,0h540" style="stroke: rgb(255, 255, 255); stroke-opacity: 1; stroke-width: 1px;"/><path class="ygrid crisp" transform="translate(0,199.20999999999998)" d="M80,0h540" style="stroke: rgb(255, 255, 255); stroke-opacity: 1; stroke-width: 1px;"/><path class="ygrid crisp" transform="translate(0,152.38)" d="M80,0h540" style="stroke: rgb(255, 255, 255); stroke-opacity: 1; stroke-width: 1px;"/><path class="ygrid crisp" transform="translate(0,105.55)" d="M80,0h540" style="stroke: rgb(255, 255, 255); stroke-opacity: 1; stroke-width: 1px;"/></g></g><g class="zerolinelayer"><path class="yzl zl crisp" transform="translate(0,386.53)" d="M80,0h540" style="stroke: rgb(255, 255, 255); stroke-opacity: 1; stroke-width: 2px;"/></g><path class="xlines-below"/><path class="ylines-below"/><g class="overlines-below"/><g class="xaxislayer-below"/><g class="yaxislayer-below"/><g class="overaxes-below"/><g class="plot" transform="translate(80,100)" clip-path="url(#clip4d2d92xyplot)"><g class="scatterlayer mlayer"><g class="trace scatter trace67ddd5" style="stroke-miterlimit: 2;"><g class="fills"><g><path class="js-fill" d="M540,286.53L0,286.53L0,292.96L1.9,304L3.8,290.61L5.7,286.83L7.61,254.22L9.51,260.76L11.41,262.27L13.31,260.32L15.21,247.5L17.11,244.07L19.01,242.28L22.82,233.65L24.72,231.7L26.62,238.96L28.52,218.41L30.42,221.2L32.32,222.28L34.23,151.5L36.13,154.74L38.03,154.76L39.93,148.92L41.83,154.88L43.73,142.18L45.63,144.12L47.54,143.78L51.34,143.34L53.24,154.05L55.14,153.72L57.04,155.07L58.94,153.92L60.85,102.17L62.75,119.61L64.65,120.18L66.55,115.23L68.45,103.44L70.35,114.81L72.25,117.76L74.15,118.23L76.06,117.14L77.96,111.47L79.86,112.4L81.76,108.2L83.66,112.89L89.37,61.3L91.27,59.91L93.17,57.5L95.07,36.64L96.97,40.57L98.87,25.97L100.77,27.22L102.68,24.13L104.58,26.89L106.48,36.93L108.38,31.05L110.28,33.97L112.18,34.29L114.08,31.85L115.99,25.05L117.89,30.67L119.79,28.28L121.69,17.04L123.59,18.82L125.49,16.96L127.39,23.76L129.3,16L133.1,27.78L135,47.68L136.9,135.07L138.8,174.25L140.7,181.86L142.61,181.98L144.51,182.01L146.41,178.68L150.21,129.63L152.11,124.42L154.01,122.48L155.92,116.17L157.82,119.04L159.72,131.95L161.62,127.53L163.52,125.67L165.42,126.69L167.32,126.35L169.23,131.43L171.13,133.69L173.03,176.26L174.93,177.68L176.83,179.62L178.73,183.43L180.63,185.3L182.54,188.55L184.44,172.28L186.34,186.35L188.24,182.4L190.14,163.49L192.04,166.81L193.94,177.97L195.85,178.42L197.75,176.41L201.55,154.68L203.45,147.47L205.35,138.9L207.25,158.61L209.15,150.17L211.06,156.2L212.96,151.66L214.86,158.61L216.76,152.72L218.66,154.59L220.56,143.54L222.46,141.1L224.37,155.59L226.27,156.62L228.17,166.88L230.07,165.63L233.87,170.01L235.77,161.53L237.68,160.45L239.58,153.62L241.48,155.96L243.38,154.22L245.28,152.18L247.18,158.22L250.99,154.78L252.89,156.89L256.69,152.76L258.59,157.43L260.49,157.67L262.39,161.41L264.3,162.69L266.2,172.4L268.1,167.72L270,170.94L271.9,181.56L273.8,181.78L275.7,185.11L277.61,184.85L279.51,178.85L281.41,178.59L283.31,171.34L285.21,172.28L287.11,171.58L289.01,173.97L290.92,176.85L292.82,176.45L294.72,164.14L296.62,181.38L298.52,175.73L300.42,180.59L302.32,177.24L304.23,179.07L306.13,213.7L308.03,211.67L309.93,172.21L311.83,173.86L313.73,174.36L315.63,179.99L317.54,186L319.44,175.85L321.34,175.74L323.24,178.36L325.14,169.25L327.04,172.15L328.94,176.05L330.85,167.44L332.75,162.7L334.65,172.68L336.55,174.39L338.45,169.6L340.35,172.19L342.25,169.17L349.86,168.1L351.76,157.59L353.66,144.69L355.56,144.31L359.37,130.3L361.27,142.38L363.17,135.23L365.07,135.21L366.97,124.65L368.87,129.45L370.77,128.38L372.68,132.85L374.58,137.55L376.48,157.72L378.38,162.29L380.28,161.84L384.08,161.17L385.99,156.52L387.89,141.34L389.79,157.53L391.69,152.8L393.59,153.35L397.39,152.79L399.3,147.37L401.2,155.64L403.1,82.65L405,81.02L406.9,81.13L408.8,78.69L410.7,77.82L412.61,75.79L414.51,78.72L416.41,88.64L418.31,94.17L420.21,92.01L422.11,94.27L424.01,90.21L425.92,89.16L427.82,81.91L429.72,68.69L431.62,76.75L433.52,76.23L435.42,76.55L437.32,77.98L439.23,77.75L441.13,56.93L443.03,60.28L444.93,59.98L446.83,62.34L448.73,53.88L450.63,59.82L452.54,58.55L454.44,60.6L456.34,87.78L458.24,107.89L460.14,96.5L462.04,127.91L463.94,119.29L465.85,133.39L467.75,136.94L469.65,159.18L471.55,147.54L473.45,149.19L475.35,146.47L477.25,145.77L479.15,147.16L481.06,148.57L482.96,152.66L484.86,151.46L486.76,152.72L488.66,155.07L490.56,161.62L492.46,165.85L494.37,159.82L496.27,163.12L498.17,158.75L500.07,156.71L501.97,157.08L503.87,153.24L505.77,155.29L507.68,152.95L509.58,132.34L511.48,131.44L513.38,145.04L515.28,176.41L517.18,176.6L519.08,169.77L520.99,180.05L522.89,185.48L524.79,184.2L528.59,182.07L530.49,183.52L534.3,182.74L536.2,181.73L540,183.49" style="fill: rgb(99, 110, 250); fill-opacity: 0.5; stroke-width: 0;"/></g></g><g class="errorbars"/><g class="lines"><path class="js-line" d="M0,292.96L1.9,304L3.8,290.61L5.7,286.83L7.61,254.22L9.51,260.76L11.41,262.27L13.31,260.32L15.21,247.5L17.11,244.07L19.01,242.28L22.82,233.65L24.72,231.7L26.62,238.96L28.52,218.41L30.42,221.2L32.32,222.28L34.23,151.5L36.13,154.74L38.03,154.76L39.93,148.92L41.83,154.88L43.73,142.18L45.63,144.12L47.54,143.78L51.34,143.34L53.24,154.05L55.14,153.72L57.04,155.07L58.94,153.92L60.85,102.17L62.75,119.61L64.65,120.18L66.55,115.23L68.45,103.44L70.35,114.81L72.25,117.76L74.15,118.23L76.06,117.14L77.96,111.47L79.86,112.4L81.76,108.2L83.66,112.89L89.37,61.3L91.27,59.91L93.17,57.5L95.07,36.64L96.97,40.57L98.87,25.97L100.77,27.22L102.68,24.13L104.58,26.89L106.48,36.93L108.38,31.05L110.28,33.97L112.18,34.29L114.08,31.85L115.99,25.05L117.89,30.67L119.79,28.28L121.69,17.04L123.59,18.82L125.49,16.96L127.39,23.76L129.3,16L133.1,27.78L135,47.68L136.9,135.07L138.8,174.25L140.7,181.86L142.61,181.98L144.51,182.01L146.41,178.68L150.21,129.63L152.11,124.42L154.01,122.48L155.92,116.17L157.82,119.04L159.72,131.95L161.62,127.53L163.52,125.67L165.42,126.69L167.32,126.35L169.23,131.43L171.13,133.69L173.03,176.26L174.93,177.68L176.83,179.62L178.73,183.43L180.63,185.3L182.54,188.55L184.44,172.28L186.34,186.35L188.24,182.4L190.14,163.49L192.04,166.81L193.94,177.97L195.85,178.42L197.75,176.41L201.55,154.68L203.45,147.47L205.35,138.9L207.25,158.61L209.15,150.17L211.06,156.2L212.96,151.66L214.86,158.61L216.76,152.72L218.66,154.59L220.56,143.54L222.46,141.1L224.37,155.59L226.27,156.62L228.17,166.88L230.07,165.63L233.87,170.01L235.77,161.53L237.68,160.45L239.58,153.62L241.48,155.96L243.38,154.22L245.28,152.18L247.18,158.22L250.99,154.78L252.89,156.89L256.69,152.76L258.59,157.43L260.49,157.67L262.39,161.41L264.3,162.69L266.2,172.4L268.1,167.72L270,170.94L271.9,181.56L273.8,181.78L275.7,185.11L277.61,184.85L279.51,178.85L281.41,178.59L283.31,171.34L285.21,172.28L287.11,171.58L289.01,173.97L290.92,176.85L292.82,176.45L294.72,164.14L296.62,181.38L298.52,175.73L300.42,180.59L302.32,177.24L304.23,179.07L306.13,213.7L308.03,211.67L309.93,172.21L311.83,173.86L313.73,174.36L315.63,179.99L317.54,186L319.44,175.85L321.34,175.74L323.24,178.36L325.14,169.25L327.04,172.15L328.94,176.05L330.85,167.44L332.75,162.7L334.65,172.68L336.55,174.39L338.45,169.6L340.35,172.19L342.25,169.17L349.86,168.1L351.76,157.59L353.66,144.69L355.56,144.31L359.37,130.3L361.27,142.38L363.17,135.23L365.07,135.21L366.97,124.65L368.87,129.45L370.77,128.38L372.68,132.85L374.58,137.55L376.48,157.72L378.38,162.29L380.28,161.84L384.08,161.17L385.99,156.52L387.89,141.34L389.79,157.53L391.69,152.8L393.59,153.35L397.39,152.79L399.3,147.37L401.2,155.64L403.1,82.65L405,81.02L406.9,81.13L408.8,78.69L410.7,77.82L412.61,75.79L414.51,78.72L416.41,88.64L418.31,94.17L420.21,92.01L422.11,94.27L424.01,90.21L425.92,89.16L427.82,81.91L429.72,68.69L431.62,76.75L433.52,76.23L435.42,76.55L437.32,77.98L439.23,77.75L441.13,56.93L443.03,60.28L444.93,59.98L446.83,62.34L448.73,53.88L450.63,59.82L452.54,58.55L454.44,60.6L456.34,87.78L458.24,107.89L460.14,96.5L462.04,127.91L463.94,119.29L465.85,133.39L467.75,136.94L469.65,159.18L471.55,147.54L473.45,149.19L475.35,146.47L477.25,145.77L479.15,147.16L481.06,148.57L482.96,152.66L484.86,151.46L486.76,152.72L488.66,155.07L490.56,161.62L492.46,165.85L494.37,159.82L496.27,163.12L498.17,158.75L500.07,156.71L501.97,157.08L503.87,153.24L505.77,155.29L507.68,152.95L509.58,132.34L511.48,131.44L513.38,145.04L515.28,176.41L517.18,176.6L519.08,169.77L520.99,180.05L522.89,185.48L524.79,184.2L528.59,182.07L530.49,183.52L534.3,182.74L536.2,181.73L540,183.49" style="vector-effect: none; fill: none; stroke: rgb(99, 110, 250); stroke-opacity: 1; stroke-width: 2px; opacity: 1;"/></g><g class="points"/><g class="text"/></g></g></g><g class="overplot"/><path class="xlines-above crisp" d="M0,0" style="fill: none;"/><path class="ylines-above crisp" d="M0,0" style="fill: none;"/><g class="overlines-above"/><g class="xaxislayer-above"><g class="xtick"><text text-anchor="middle" x="0" y="433" transform="translate(140.85,0)" style="font-family: 'Open Sans', verdana, arial, sans-serif; font-size: 12px; fill: rgb(42, 63, 95); fill-opacity: 1; white-space: pre; opacity: 1;">Jan 2023</text></g><g class="xtick"><text text-anchor="middle" x="0" y="433" style="font-family: 'Open Sans', verdana, arial, sans-serif; font-size: 12px; fill: rgb(42, 63, 95); fill-opacity: 1; white-space: pre; opacity: 1;" transform="translate(253.03,0)">Mar 2023</text></g><g class="xtick"><text text-anchor="middle" x="0" y="433" style="font-family: 'Open Sans', verdana, arial, sans-serif; font-size: 12px; fill: rgb(42, 63, 95); fill-opacity: 1; white-space: pre; opacity: 1;" transform="translate(369.01,0)">May 2023</text></g><g class="xtick"><text text-anchor="middle" x="0" y="433" style="font-family: 'Open Sans', verdana, arial, sans-serif; font-size: 12px; fill: rgb(42, 63, 95); fill-opacity: 1; white-space: pre; opacity: 1;" transform="translate(485,0)">Jul 2023</text></g><g class="xtick"><text text-anchor="middle" x="0" y="433" style="font-family: 'Open Sans', verdana, arial, sans-serif; font-size: 12px; fill: rgb(42, 63, 95); fill-opacity: 1; white-space: pre; opacity: 1;" transform="translate(602.89,0)">Sep 2023</text></g></g><g class="yaxislayer-above"><g class="ytick"><text text-anchor="end" x="79" y="4.199999999999999" transform="translate(0,386.53)" style="font-family: 'Open Sans', verdana, arial, sans-serif; font-size: 12px; fill: rgb(42, 63, 95); fill-opacity: 1; white-space: pre; opacity: 1;">$0</text></g><g class="ytick"><text text-anchor="end" x="79" y="4.199999999999999" style="font-family: 'Open Sans', verdana, arial, sans-serif; font-size: 12px; fill: rgb(42, 63, 95); fill-opacity: 1; white-space: pre; opacity: 1;" transform="translate(0,339.7)">$2M</text></g><g class="ytick"><text text-anchor="end" x="79" y="4.199999999999999" style="font-family: 'Open Sans', verdana, arial, sans-serif; font-size: 12px; fill: rgb(42, 63, 95); fill-opacity: 1; white-space: pre; opacity: 1;" transform="translate(0,292.87)">$4M</text></g><g class="ytick"><text text-anchor="end" x="79" y="4.199999999999999" style="font-family: 'Open Sans', verdana, arial, sans-serif; font-size: 12px; fill: rgb(42, 63, 95); fill-opacity: 1; white-space: pre; opacity: 1;" transform="translate(0,246.04)">$6M</text></g><g class="ytick"><text text-anchor="end" x="79" y="4.199999999999999" style="font-family: 'Open Sans', verdana, arial, sans-serif; font-size: 12px; fill: rgb(42, 63, 95); fill-opacity: 1; white-space: pre; opacity: 1;" transform="translate(0,199.20999999999998)">$8M</text></g><g class="ytick"><text text-anchor="end" x="79" y="4.199999999999999" style="font-family: 'Open Sans', verdana, arial, sans-serif; font-size: 12px; fill: rgb(42, 63, 95); fill-opacity: 1; white-space: pre; opacity: 1;" transform="translate(0,152.38)">$10M</text></g><g class="ytick"><text text-anchor="end" x="79" y="4.199999999999999" style="font-family: 'Open Sans', verdana, arial, sans-serif; font-size: 12px; fill: rgb(42, 63, 95); fill-opacity: 1; white-space: pre; opacity: 1;" transform="translate(0,105.55)">$12M</text></g></g><g class="overaxes-above"/></g></g><g class="polarlayer"/><g class="smithlayer"/><g class="ternarylayer"/><g class="geolayer"/><g class="funnelarealayer"/><g class="pielayer"/><g class="iciclelayer"/><g class="treemaplayer"/><g class="sunburstlayer"/><g class="glimages"/><defs id="topdefs-4d2d92"><g class="clips"/></defs><g class="layer-above"><g class="imagelayer"/><g class="shapelayer"/></g><g class="infolayer"><g class="g-gtitle"><text class="gtitle" x="35" y="50" text-anchor="start" dy="0em" style="font-family: 'Open Sans', verdana, arial, sans-serif; font-size: 17px; fill: rgb(42, 63, 95); opacity: 1; font-weight: normal; white-space: pre;"><tspan class="line" dy="0em" x="35" y="50">Dforce</tspan><tspan class="line" dy="1.3em" x="35" y="50">​<tspan style="font-size:70%" dy="-0.6em">Cumulative Net Flows since Program Announcement, Until Program End + 30 Days - At Last Price</tspan><tspan dy="0.42em">​</tspan></tspan></text></g><g class="g-xtitle"><text class="xtitle" x="350" y="460.3" text-anchor="middle" style="font-family: 'Open Sans', verdana, arial, sans-serif; font-size: 14px; fill: rgb(42, 63, 95); opacity: 1; font-weight: normal; white-space: pre;">Day</text></g><g class="g-ytitle"><text class="ytitle" transform="rotate(-90,24.668750000000003,260)" x="24.668750000000003" y="260" text-anchor="middle" style="font-family: 'Open Sans', verdana, arial, sans-serif; font-size: 14px; fill: rgb(42, 63, 95); opacity: 1; font-weight: normal; white-space: pre;">Cumulative Net Flows (USD)</text></g></g></svg>