<svg class="main-svg" xmlns="http://www.w3.org/2000/svg" xmlns:xlink="http://www.w3.org/1999/xlink" width="700" height="500" style="" viewBox="0 0 700 500"><rect x="0" y="0" width="700" height="500" style="fill: rgb(255, 255, 255); fill-opacity: 1;"/><defs id="defs-ae9418"><g class="clips"><clipPath id="clipae9418xyplot" class="plotclip"><rect width="540" height="320"/></clipPath><clipPath class="axesclip" id="clipae9418x"><rect x="80" y="0" width="540" height="500"/></clipPath><clipPath class="axesclip" id="clipae9418y"><rect x="0" y="100" width="700" height="320"/></clipPath><clipPath class="axesclip" id="clipae9418xy"><rect x="80" y="100" width="540" height="320"/></clipPath></g><g class="gradients"/><g class="patterns"/></defs><g class="bglayer"><rect class="bg" x="80" y="100" width="540" height="320" style="fill: rgb(229, 236, 246); fill-opacity: 1; stroke-width: 0;"/></g><g class="layer-below"><g class="imagelayer"/><g class="shapelayer"/></g><g class="cartesianlayer"><g class="subplot xy"><g class="layer-subplot"><g class="shapelayer"/><g class="imagelayer"/></g><g class="minor-gridlayer"><g class="x"/><g class="y"/></g><g class="gridlayer"><g class="x"><path class="xgrid crisp" transform="translate(120.78,0)" d="M0,100v320" style="stroke: rgb(255, 255, 255); stroke-opacity: 1; stroke-width: 1px;"/><path class="xgrid crisp" transform="translate(222.16,0)" d="M0,100v320" style="stroke: rgb(255, 255, 255); stroke-opacity: 1; stroke-width: 1px;"/><path class="xgrid crisp" transform="translate(321.35,0)" d="M0,100v320" style="stroke: rgb(255, 255, 255); stroke-opacity: 1; stroke-width: 1px;"/><path class="xgrid crisp" transform="translate(421.63,0)" d="M0,100v320" style="stroke: rgb(255, 255, 255); stroke-opacity: 1; stroke-width: 1px;"/><path class="xgrid crisp" transform="translate(523.02,0)" d="M0,100v320" style="stroke: rgb(255, 255, 255); stroke-opacity: 1; stroke-width: 1px;"/></g><g class="y"><path class="ygrid crisp" transform="translate(0,363.83)" d="M80,0h540" style="stroke: rgb(255, 255, 255); stroke-opacity: 1; stroke-width: 1px;"/><path class="ygrid crisp" transform="translate(0,323.99)" d="M80,0h540" style="stroke: rgb(255, 255, 255); stroke-opacity: 1; stroke-width: 1px;"/><path class="ygrid crisp" transform="translate(0,284.15999999999997)" d="M80,0h540" style="stroke: rgb(255, 255, 255); stroke-opacity: 1; stroke-width: 1px;"/><path class="ygrid crisp" transform="translate(0,244.32)" d="M80,0h540" style="stroke: rgb(255, 255, 255); stroke-opacity: 1; stroke-width: 1px;"/><path class="ygrid crisp" transform="translate(0,204.48000000000002)" d="M80,0h540" style="stroke: rgb(255, 255, 255); stroke-opacity: 1; stroke-width: 1px;"/><path class="ygrid crisp" transform="translate(0,164.64)" d="M80,0h540" style="stroke: rgb(255, 255, 255); stroke-opacity: 1; stroke-width: 1px;"/><path class="ygrid crisp" transform="translate(0,124.8)" d="M80,0h540" style="stroke: rgb(255, 255, 255); stroke-opacity: 1; stroke-width: 1px;"/></g></g><g class="zerolinelayer"><path class="yzl zl crisp" transform="translate(0,403.67)" d="M80,0h540" style="stroke: rgb(255, 255, 255); stroke-opacity: 1; stroke-width: 2px;"/></g><path class="xlines-below"/><path class="ylines-below"/><g class="overlines-below"/><g class="xaxislayer-below"/><g class="yaxislayer-below"/><g class="overaxes-below"/><g class="plot" transform="translate(80,100)" clip-path="url(#clipae9418xyplot)"><g class="scatterlayer mlayer"><g class="trace scatter tracee53ab3" style="stroke-miterlimit: 2;"><g class="fills"><g><path class="js-fill" d="M540,303.67L0,303.67L0,218.56L1.1,201.78L2.2,197.33L5.51,190.49L6.61,178.94L7.71,176.49L8.82,179.16L11.02,171.94L12.12,171.1L13.22,171.36L14.33,168.45L17.63,147.67L18.73,145.6L19.84,142.74L20.94,143.54L23.14,149.49L24.24,145.48L25.35,138.74L26.45,140.58L29.76,146.42L30.86,147.53L31.96,151.21L33.06,152.22L35.27,152.07L36.37,153.82L37.47,141.91L38.57,144.5L39.67,155.75L40.78,155.69L42.98,156.59L44.08,157.56L46.29,163.72L47.39,160.96L49.59,166.45L50.69,167.85L51.8,169.55L52.9,168.72L55.1,169.64L56.2,161.68L58.41,161.51L59.51,162.66L60.61,163.43L61.71,163.1L65.02,162.68L66.12,162.4L67.22,160.7L68.33,160.56L69.43,160.43L70.53,167.42L71.63,166.47L72.73,161.53L73.84,161.92L74.94,157.75L77.14,153.08L78.24,136.53L79.35,135.13L80.45,135.51L82.65,134.7L83.76,154.38L85.96,164L87.06,160.6L88.16,164.63L89.27,160.56L91.47,159.99L92.57,163.68L93.67,167.06L94.78,166.25L95.88,166.33L96.98,168.74L98.08,170.85L99.18,170.23L100.29,166.15L101.39,166.59L104.69,166.37L105.8,166.69L106.9,165.61L108,167.88L109.1,166.9L110.2,164.42L113.51,160.41L114.61,154.95L115.71,150.03L116.82,150.92L117.92,149.86L119.02,150.33L120.12,149.65L121.22,144.08L122.33,144.27L123.43,134.21L124.53,143.35L125.63,145.62L127.84,146.13L128.94,147.5L130.04,151.94L131.14,151.15L132.24,151.64L133.35,151.16L135.55,151.32L136.65,151.04L137.76,154.64L138.86,154.78L139.96,153.38L141.06,147.7L142.16,153.42L143.27,155.14L144.37,155.06L145.47,156.95L146.57,156.94L147.67,154.89L148.78,151.59L149.88,151.69L152.08,141.95L153.18,132.93L154.29,131.58L155.39,134.04L156.49,131.53L157.59,125.37L159.8,124.85L160.9,123.66L162,124.24L163.1,121.6L165.31,113.54L166.41,112.47L167.51,110.7L168.61,100.84L170.82,68.77L171.92,69.51L173.02,54.28L174.12,53.53L175.22,42.9L176.33,41.82L177.43,36.7L178.53,16L180.73,22.63L181.84,22.29L182.94,23.14L184.04,26.26L185.14,48.6L186.24,47.38L187.35,47.18L188.45,36.76L189.55,37.81L190.65,36.6L191.76,37.16L192.86,34.98L193.96,35.84L195.06,40.53L196.16,40.3L197.27,41.24L198.37,52.43L199.47,53.06L201.67,53.05L202.78,51.88L203.88,49.73L204.98,49.75L206.08,49.69L207.18,43.23L208.29,42.99L209.39,44.55L210.49,32.07L211.59,31.51L212.69,30.05L213.8,30.44L214.9,29.79L216,31.39L217.1,34.35L218.2,39.47L219.31,122.66L220.41,121.56L222.61,86.59L223.71,84.25L224.82,74.4L225.92,78.24L227.02,86.96L228.12,87.72L229.22,87.64L230.33,85.48L232.53,53.59L233.63,53.99L236.94,107.62L238.04,152.88L239.14,167.69L240.24,171.84L242.45,182.66L243.55,187.99L246.86,194.84L247.96,196.34L250.16,201.18L251.27,201.75L253.47,204.41L254.57,204.51L255.67,225.67L256.78,226.93L258.98,228.96L260.08,229.42L262.29,231.06L263.39,231.06L264.49,230.09L265.59,230.49L266.69,230.75L267.8,232.84L268.9,234.48L270,237.67L278.82,239.41L279.92,240.1L281.02,259.13L282.12,259.8L285.43,260.71L286.53,261.94L287.63,243.07L288.73,243.07L292.04,243.58L293.14,243.51L294.24,245.79L295.35,245.87L299.76,246.36L300.86,248.65L316.29,250.05L317.39,254.56L324,255.93L325.1,256.53L330.61,256.54L331.71,260.22L336.12,261.52L337.22,262.12L343.84,262.61L344.94,263.17L346.04,264.45L347.14,264.44L353.76,264.65L354.86,265.46L358.16,265.78L359.27,266.74L360.37,278.68L361.47,278.71L373.59,278.84L374.69,301.99L375.8,302.07L376.9,279.41L379.1,279.44L380.2,302.03L382.41,301.67L383.51,282.75L384.61,282.81L385.71,279.3L386.82,293.13L387.92,293.15L394.53,293.17L395.63,297.11L468.37,297.73L469.47,302.14L476.08,302.45L477.18,303.09L502.53,303.11L503.63,303.86L512.45,303.85L513.55,303.71L515.76,303.67L516.86,303.63L521.27,303.17L522.37,301.17L526.78,301.14L527.88,301.91L540,302.3" style="fill: rgb(99, 110, 250); fill-opacity: 0.5; stroke-width: 0;"/></g></g><g class="errorbars"/><g class="lines"><path class="js-line" d="M0,218.56L1.1,201.78L2.2,197.33L5.51,190.49L6.61,178.94L7.71,176.49L8.82,179.16L11.02,171.94L12.12,171.1L13.22,171.36L14.33,168.45L17.63,147.67L18.73,145.6L19.84,142.74L20.94,143.54L23.14,149.49L24.24,145.48L25.35,138.74L26.45,140.58L29.76,146.42L30.86,147.53L31.96,151.21L33.06,152.22L35.27,152.07L36.37,153.82L37.47,141.91L38.57,144.5L39.67,155.75L40.78,155.69L42.98,156.59L44.08,157.56L46.29,163.72L47.39,160.96L49.59,166.45L50.69,167.85L51.8,169.55L52.9,168.72L55.1,169.64L56.2,161.68L58.41,161.51L59.51,162.66L60.61,163.43L61.71,163.1L65.02,162.68L66.12,162.4L67.22,160.7L68.33,160.56L69.43,160.43L70.53,167.42L71.63,166.47L72.73,161.53L73.84,161.92L74.94,157.75L77.14,153.08L78.24,136.53L79.35,135.13L80.45,135.51L82.65,134.7L83.76,154.38L85.96,164L87.06,160.6L88.16,164.63L89.27,160.56L91.47,159.99L92.57,163.68L93.67,167.06L94.78,166.25L95.88,166.33L96.98,168.74L98.08,170.85L99.18,170.23L100.29,166.15L101.39,166.59L104.69,166.37L105.8,166.69L106.9,165.61L108,167.88L109.1,166.9L110.2,164.42L113.51,160.41L114.61,154.95L115.71,150.03L116.82,150.92L117.92,149.86L119.02,150.33L120.12,149.65L121.22,144.08L122.33,144.27L123.43,134.21L124.53,143.35L125.63,145.62L127.84,146.13L128.94,147.5L130.04,151.94L131.14,151.15L132.24,151.64L133.35,151.16L135.55,151.32L136.65,151.04L137.76,154.64L138.86,154.78L139.96,153.38L141.06,147.7L142.16,153.42L143.27,155.14L144.37,155.06L145.47,156.95L146.57,156.94L147.67,154.89L148.78,151.59L149.88,151.69L152.08,141.95L153.18,132.93L154.29,131.58L155.39,134.04L156.49,131.53L157.59,125.37L159.8,124.85L160.9,123.66L162,124.24L163.1,121.6L165.31,113.54L166.41,112.47L167.51,110.7L168.61,100.84L170.82,68.77L171.92,69.51L173.02,54.28L174.12,53.53L175.22,42.9L176.33,41.82L177.43,36.7L178.53,16L180.73,22.63L181.84,22.29L182.94,23.14L184.04,26.26L185.14,48.6L186.24,47.38L187.35,47.18L188.45,36.76L189.55,37.81L190.65,36.6L191.76,37.16L192.86,34.98L193.96,35.84L195.06,40.53L196.16,40.3L197.27,41.24L198.37,52.43L199.47,53.06L201.67,53.05L202.78,51.88L203.88,49.73L204.98,49.75L206.08,49.69L207.18,43.23L208.29,42.99L209.39,44.55L210.49,32.07L211.59,31.51L212.69,30.05L213.8,30.44L214.9,29.79L216,31.39L217.1,34.35L218.2,39.47L219.31,122.66L220.41,121.56L222.61,86.59L223.71,84.25L224.82,74.4L225.92,78.24L227.02,86.96L228.12,87.72L229.22,87.64L230.33,85.48L232.53,53.59L233.63,53.99L236.94,107.62L238.04,152.88L239.14,167.69L240.24,171.84L242.45,182.66L243.55,187.99L246.86,194.84L247.96,196.34L250.16,201.18L251.27,201.75L253.47,204.41L254.57,204.51L255.67,225.67L256.78,226.93L258.98,228.96L260.08,229.42L262.29,231.06L263.39,231.06L264.49,230.09L265.59,230.49L266.69,230.75L267.8,232.84L268.9,234.48L270,237.67L278.82,239.41L279.92,240.1L281.02,259.13L282.12,259.8L285.43,260.71L286.53,261.94L287.63,243.07L288.73,243.07L292.04,243.58L293.14,243.51L294.24,245.79L295.35,245.87L299.76,246.36L300.86,248.65L316.29,250.05L317.39,254.56L324,255.93L325.1,256.53L330.61,256.54L331.71,260.22L336.12,261.52L337.22,262.12L343.84,262.61L344.94,263.17L346.04,264.45L347.14,264.44L353.76,264.65L354.86,265.46L358.16,265.78L359.27,266.74L360.37,278.68L361.47,278.71L373.59,278.84L374.69,301.99L375.8,302.07L376.9,279.41L379.1,279.44L380.2,302.03L382.41,301.67L383.51,282.75L384.61,282.81L385.71,279.3L386.82,293.13L387.92,293.15L394.53,293.17L395.63,297.11L468.37,297.73L469.47,302.14L476.08,302.45L477.18,303.09L502.53,303.11L503.63,303.86L512.45,303.85L513.55,303.71L515.76,303.67L516.86,303.63L521.27,303.17L522.37,301.17L526.78,301.14L527.88,301.91L540,302.3" style="vector-effect: none; fill: none; stroke: rgb(99, 110, 250); stroke-opacity: 1; stroke-width: 2px; opacity: 1;"/></g><g class="points"/><g class="text"/></g></g></g><g class="overplot"/><path class="xlines-above crisp" d="M0,0" style="fill: none;"/><path class="ylines-above crisp" d="M0,0" style="fill: none;"/><g class="overlines-above"/><g class="xaxislayer-above"><g class="xtick"><text text-anchor="middle" x="0" y="433" transform="translate(120.78,0)" style="font-family: 'Open Sans', verdana, arial, sans-serif; font-size: 12px; fill: rgb(42, 63, 95); fill-opacity: 1; white-space: pre; opacity: 1;">Oct 2022</text></g><g class="xtick"><text text-anchor="middle" x="0" y="433" style="font-family: 'Open Sans', verdana, arial, sans-serif; font-size: 12px; fill: rgb(42, 63, 95); fill-opacity: 1; white-space: pre; opacity: 1;" transform="translate(222.16,0)">Jan 2023</text></g><g class="xtick"><text text-anchor="middle" x="0" y="433" style="font-family: 'Open Sans', verdana, arial, sans-serif; font-size: 12px; fill: rgb(42, 63, 95); fill-opacity: 1; white-space: pre; opacity: 1;" transform="translate(321.35,0)">Apr 2023</text></g><g class="xtick"><text text-anchor="middle" x="0" y="433" style="font-family: 'Open Sans', verdana, arial, sans-serif; font-size: 12px; fill: rgb(42, 63, 95); fill-opacity: 1; white-space: pre; opacity: 1;" transform="translate(421.63,0)">Jul 2023</text></g><g class="xtick"><text text-anchor="middle" x="0" y="433" style="font-family: 'Open Sans', verdana, arial, sans-serif; font-size: 12px; fill: rgb(42, 63, 95); fill-opacity: 1; white-space: pre; opacity: 1;" transform="translate(523.02,0)">Oct 2023</text></g></g><g class="yaxislayer-above"><g class="ytick"><text text-anchor="end" x="79" y="4.199999999999999" transform="translate(0,403.67)" style="font-family: 'Open Sans', verdana, arial, sans-serif; font-size: 12px; fill: rgb(42, 63, 95); fill-opacity: 1; white-space: pre; opacity: 1;">$0</text></g><g class="ytick"><text text-anchor="end" x="79" y="4.199999999999999" style="font-family: 'Open Sans', verdana, arial, sans-serif; font-size: 12px; fill: rgb(42, 63, 95); fill-opacity: 1; white-space: pre; opacity: 1;" transform="translate(0,363.83)">$10M</text></g><g class="ytick"><text text-anchor="end" x="79" y="4.199999999999999" style="font-family: 'Open Sans', verdana, arial, sans-serif; font-size: 12px; fill: rgb(42, 63, 95); fill-opacity: 1; white-space: pre; opacity: 1;" transform="translate(0,323.99)">$20M</text></g><g class="ytick"><text text-anchor="end" x="79" y="4.199999999999999" style="font-family: 'Open Sans', verdana, arial, sans-serif; font-size: 12px; fill: rgb(42, 63, 95); fill-opacity: 1; white-space: pre; opacity: 1;" transform="translate(0,284.15999999999997)">$30M</text></g><g class="ytick"><text text-anchor="end" x="79" y="4.199999999999999" style="font-family: 'Open Sans', verdana, arial, sans-serif; font-size: 12px; fill: rgb(42, 63, 95); fill-opacity: 1; white-space: pre; opacity: 1;" transform="translate(0,244.32)">$40M</text></g><g class="ytick"><text text-anchor="end" x="79" y="4.199999999999999" style="font-family: 'Open Sans', verdana, arial, sans-serif; font-size: 12px; fill: rgb(42, 63, 95); fill-opacity: 1; white-space: pre; opacity: 1;" transform="translate(0,204.48000000000002)">$50M</text></g><g class="ytick"><text text-anchor="end" x="79" y="4.199999999999999" style="font-family: 'Open Sans', verdana, arial, sans-serif; font-size: 12px; fill: rgb(42, 63, 95); fill-opacity: 1; white-space: pre; opacity: 1;" transform="translate(0,164.64)">$60M</text></g><g class="ytick"><text text-anchor="end" x="79" y="4.199999999999999" style="font-family: 'Open Sans', verdana, arial, sans-serif; font-size: 12px; fill: rgb(42, 63, 95); fill-opacity: 1; white-space: pre; opacity: 1;" transform="translate(0,124.8)">$70M</text></g></g><g class="overaxes-above"/></g></g><g class="polarlayer"/><g class="smithlayer"/><g class="ternarylayer"/><g class="geolayer"/><g class="funnelarealayer"/><g class="pielayer"/><g class="iciclelayer"/><g class="treemaplayer"/><g class="sunburstlayer"/><g class="glimages"/><defs id="topdefs-ae9418"><g class="clips"/></defs><g class="layer-above"><g class="imagelayer"/><g class="shapelayer"/></g><g class="infolayer"><g class="g-gtitle"><text class="gtitle" x="35" y="50" text-anchor="start" dy="0em" style="font-family: 'Open Sans', verdana, arial, sans-serif; font-size: 17px; fill: rgb(42, 63, 95); opacity: 1; font-weight: normal; white-space: pre;"><tspan class="line" dy="0em" x="35" y="50">Synthetix - All Synthetix Curve Pools</tspan><tspan class="line" dy="1.3em" x="35" y="50">​<tspan style="font-size:70%" dy="-0.6em">Cumulative Net Flows since Program Announcement, Until Program End + 30 Days - At Last Price</tspan><tspan dy="0.42em">​</tspan></tspan></text></g><g class="g-xtitle"><text class="xtitle" x="350" y="460.3" text-anchor="middle" style="font-family: 'Open Sans', verdana, arial, sans-serif; font-size: 14px; fill: rgb(42, 63, 95); opacity: 1; font-weight: normal; white-space: pre;">Day</text></g><g class="g-ytitle"><text class="ytitle" transform="rotate(-90,24.668750000000003,260)" x="24.668750000000003" y="260" text-anchor="middle" style="font-family: 'Open Sans', verdana, arial, sans-serif; font-size: 14px; fill: rgb(42, 63, 95); opacity: 1; font-weight: normal; white-space: pre;">Cumulative Net Flows (USD)</text></g></g></svg>