<svg class="main-svg" xmlns="http://www.w3.org/2000/svg" xmlns:xlink="http://www.w3.org/1999/xlink" width="700" height="500" style="" viewBox="0 0 700 500"><rect x="0" y="0" width="700" height="500" style="fill: rgb(255, 255, 255); fill-opacity: 1;"/><defs id="defs-dc84d7"><g class="clips"><clipPath id="clipdc84d7xyplot" class="plotclip"><rect width="540" height="320"/></clipPath><clipPath class="axesclip" id="clipdc84d7x"><rect x="80" y="0" width="540" height="500"/></clipPath><clipPath class="axesclip" id="clipdc84d7y"><rect x="0" y="100" width="700" height="320"/></clipPath><clipPath class="axesclip" id="clipdc84d7xy"><rect x="80" y="100" width="540" height="320"/></clipPath></g><g class="gradients"/><g class="patterns"/></defs><g class="bglayer"><rect class="bg" x="80" y="100" width="540" height="320" style="fill: rgb(229, 236, 246); fill-opacity: 1; stroke-width: 0;"/></g><g class="layer-below"><g class="imagelayer"/><g class="shapelayer"/></g><g class="cartesianlayer"><g class="subplot xy"><g class="layer-subplot"><g class="shapelayer"/><g class="imagelayer"/></g><g class="minor-gridlayer"><g class="x"/><g class="y"/></g><g class="gridlayer"><g class="x"><path class="xgrid crisp" transform="translate(116,0)" d="M0,100v320" style="stroke: rgb(255, 255, 255); stroke-opacity: 1; stroke-width: 1px;"/><path class="xgrid crisp" transform="translate(193.14,0)" d="M0,100v320" style="stroke: rgb(255, 255, 255); stroke-opacity: 1; stroke-width: 1px;"/><path class="xgrid crisp" transform="translate(272.86,0)" d="M0,100v320" style="stroke: rgb(255, 255, 255); stroke-opacity: 1; stroke-width: 1px;"/><path class="xgrid crisp" transform="translate(352.57,0)" d="M0,100v320" style="stroke: rgb(255, 255, 255); stroke-opacity: 1; stroke-width: 1px;"/><path class="xgrid crisp" transform="translate(429.71,0)" d="M0,100v320" style="stroke: rgb(255, 255, 255); stroke-opacity: 1; stroke-width: 1px;"/><path class="xgrid crisp" transform="translate(509.43,0)" d="M0,100v320" style="stroke: rgb(255, 255, 255); stroke-opacity: 1; stroke-width: 1px;"/><path class="xgrid crisp" transform="translate(586.5699999999999,0)" d="M0,100v320" style="stroke: rgb(255, 255, 255); stroke-opacity: 1; stroke-width: 1px;"/></g><g class="y"><path class="ygrid crisp" transform="translate(0,371.57)" d="M80,0h540" style="stroke: rgb(255, 255, 255); stroke-opacity: 1; stroke-width: 1px;"/><path class="ygrid crisp" transform="translate(0,323.14)" d="M80,0h540" style="stroke: rgb(255, 255, 255); stroke-opacity: 1; stroke-width: 1px;"/><path class="ygrid crisp" transform="translate(0,274.71000000000004)" d="M80,0h540" style="stroke: rgb(255, 255, 255); stroke-opacity: 1; stroke-width: 1px;"/><path class="ygrid crisp" transform="translate(0,226.28)" d="M80,0h540" style="stroke: rgb(255, 255, 255); stroke-opacity: 1; stroke-width: 1px;"/><path class="ygrid crisp" transform="translate(0,177.85)" d="M80,0h540" style="stroke: rgb(255, 255, 255); stroke-opacity: 1; stroke-width: 1px;"/><path class="ygrid crisp" transform="translate(0,129.42000000000002)" d="M80,0h540" style="stroke: rgb(255, 255, 255); stroke-opacity: 1; stroke-width: 1px;"/></g></g><g class="zerolinelayer"><path class="yzl zl crisp" transform="translate(0,420)" d="M80,0h540" style="stroke: rgb(255, 255, 255); stroke-opacity: 1; stroke-width: 2px;"/></g><path class="xlines-below"/><path class="ylines-below"/><g class="overlines-below"/><g class="xaxislayer-below"/><g class="yaxislayer-below"/><g class="overaxes-below"/><g class="plot" transform="translate(80,100)" clip-path="url(#clipdc84d7xyplot)"><g class="scatterlayer mlayer"><g class="trace scatter tracec6c090" style="stroke-miterlimit: 2;"><g class="fills"><g><path class="js-fill" d="M540,320L0,320L0,312.42L2.57,282.68L5.14,276.33L10.29,275.17L12.86,275.29L15.43,270.39L18,262.33L20.57,253.91L23.14,237.8L28.29,232.69L30.86,228.61L33.43,227.52L36,224.36L38.57,201.23L41.14,194.16L43.71,192.55L46.29,189.31L56.57,188.79L59.14,198.35L61.71,201.9L64.29,201.41L66.86,200.86L69.43,198.93L72,194L74.57,196.89L77.14,192.35L79.71,192.12L82.29,185.66L84.86,182L87.43,178.33L90,150.63L92.57,156.19L95.14,143.76L97.71,140.03L100.29,138.84L105.43,152.67L108,154.36L113.14,169.18L115.71,157.23L118.29,155.82L120.86,151.35L123.43,153.49L126,153.32L128.57,153.59L131.14,146.13L133.71,138.67L136.29,135.44L138.86,132.79L141.43,145.07L144,140.56L146.57,131.31L149.14,130.41L151.71,122.08L156.86,115.55L159.43,128.29L162,126.89L164.57,118.92L167.14,118.57L169.71,127.8L172.29,142.72L174.86,119.13L177.43,104.92L180,100.65L182.57,89.22L185.14,68.67L187.71,63.39L190.29,95.58L192.86,112.47L195.43,57.18L198,55.25L200.57,49.42L203.14,31.19L205.71,30.57L208.29,30.1L210.86,27.31L216,16L218.57,38.71L221.14,34.4L223.71,38.49L228.86,33.95L231.43,27.81L236.57,35.21L239.14,36.18L244.29,35.53L246.86,40.15L249.43,40.58L252,36.2L254.57,38.77L257.14,33L259.71,35.45L262.29,35.94L264.86,37.05L267.43,60.95L272.57,97.62L275.14,100.42L277.71,101.07L280.29,98.22L282.86,103.06L285.43,122.02L290.57,94.35L293.14,92.71L295.71,91.56L298.29,96.89L300.86,91.21L303.43,92.04L306,94.34L308.57,95.02L311.14,97.25L313.71,96.53L316.29,96.95L318.86,96.58L324,102.67L326.57,95.6L329.14,95.32L331.71,97.21L334.29,96.59L336.86,98.26L339.43,101.07L342,96.78L344.57,100.07L347.14,102.05L349.71,98.77L352.29,98.85L354.86,101.15L357.43,116.26L360,116.39L362.57,117.67L367.71,115.85L370.29,302.68L375.43,130.7L378,302.68L380.57,148.74L383.14,148.46L385.71,161.12L388.29,160.97L390.86,159.55L393.43,161.25L396,147.6L398.57,148.38L401.14,147.32L403.71,148.96L406.29,154.6L408.86,154.66L414,159.45L416.57,164.81L421.71,163.14L424.29,166.2L426.86,153.42L429.43,153.38L434.57,154.02L437.14,153.35L439.71,151.89L442.29,155.98L444.86,155.26L447.43,155.64L450,156.85L452.57,160.33L457.71,151.51L460.29,151L462.86,148.61L465.43,148.71L473.14,146.86L475.71,153.68L478.29,155.97L480.86,154.33L483.43,154.43L486,152.56L491.14,148.85L493.71,149.57L496.29,149.91L498.86,153.07L501.43,152.75L504,155.13L509.14,155.68L511.71,158.22L514.29,158.96L516.86,165.37L519.43,168.08L522,168.88L524.57,137.13L527.14,134.89L529.71,136.87L532.29,140.84L534.86,141.12L537.43,139.12L540,141.53" style="fill: rgb(99, 110, 250); fill-opacity: 0.5; stroke-width: 0;"/></g></g><g class="errorbars"/><g class="lines"><path class="js-line" d="M0,312.42L2.57,282.68L5.14,276.33L10.29,275.17L12.86,275.29L15.43,270.39L18,262.33L20.57,253.91L23.14,237.8L28.29,232.69L30.86,228.61L33.43,227.52L36,224.36L38.57,201.23L41.14,194.16L43.71,192.55L46.29,189.31L56.57,188.79L59.14,198.35L61.71,201.9L64.29,201.41L66.86,200.86L69.43,198.93L72,194L74.57,196.89L77.14,192.35L79.71,192.12L82.29,185.66L84.86,182L87.43,178.33L90,150.63L92.57,156.19L95.14,143.76L97.71,140.03L100.29,138.84L105.43,152.67L108,154.36L113.14,169.18L115.71,157.23L118.29,155.82L120.86,151.35L123.43,153.49L126,153.32L128.57,153.59L131.14,146.13L133.71,138.67L136.29,135.44L138.86,132.79L141.43,145.07L144,140.56L146.57,131.31L149.14,130.41L151.71,122.08L156.86,115.55L159.43,128.29L162,126.89L164.57,118.92L167.14,118.57L169.71,127.8L172.29,142.72L174.86,119.13L177.43,104.92L180,100.65L182.57,89.22L185.14,68.67L187.71,63.39L190.29,95.58L192.86,112.47L195.43,57.18L198,55.25L200.57,49.42L203.14,31.19L205.71,30.57L208.29,30.1L210.86,27.31L216,16L218.57,38.71L221.14,34.4L223.71,38.49L228.86,33.95L231.43,27.81L236.57,35.21L239.14,36.18L244.29,35.53L246.86,40.15L249.43,40.58L252,36.2L254.57,38.77L257.14,33L259.71,35.45L262.29,35.94L264.86,37.05L267.43,60.95L272.57,97.62L275.14,100.42L277.71,101.07L280.29,98.22L282.86,103.06L285.43,122.02L290.57,94.35L293.14,92.71L295.71,91.56L298.29,96.89L300.86,91.21L303.43,92.04L306,94.34L308.57,95.02L311.14,97.25L313.71,96.53L316.29,96.95L318.86,96.58L324,102.67L326.57,95.6L329.14,95.32L331.71,97.21L334.29,96.59L336.86,98.26L339.43,101.07L342,96.78L344.57,100.07L347.14,102.05L349.71,98.77L352.29,98.85L354.86,101.15L357.43,116.26L360,116.39L362.57,117.67L367.71,115.85L370.29,302.68L375.43,130.7L378,302.68L380.57,148.74L383.14,148.46L385.71,161.12L388.29,160.97L390.86,159.55L393.43,161.25L396,147.6L398.57,148.38L401.14,147.32L403.71,148.96L406.29,154.6L408.86,154.66L414,159.45L416.57,164.81L421.71,163.14L424.29,166.2L426.86,153.42L429.43,153.38L434.57,154.02L437.14,153.35L439.71,151.89L442.29,155.98L444.86,155.26L447.43,155.64L450,156.85L452.57,160.33L457.71,151.51L460.29,151L462.86,148.61L465.43,148.71L473.14,146.86L475.71,153.68L478.29,155.97L480.86,154.33L483.43,154.43L486,152.56L491.14,148.85L493.71,149.57L496.29,149.91L498.86,153.07L501.43,152.75L504,155.13L509.14,155.68L511.71,158.22L514.29,158.96L516.86,165.37L519.43,168.08L522,168.88L524.57,137.13L527.14,134.89L529.71,136.87L532.29,140.84L534.86,141.12L537.43,139.12L540,141.53" style="vector-effect: none; fill: none; stroke: rgb(99, 110, 250); stroke-opacity: 1; stroke-width: 2px; opacity: 1;"/></g><g class="points"/><g class="text"/></g></g></g><g class="overplot"/><path class="xlines-above crisp" d="M0,0" style="fill: none;"/><path class="ylines-above crisp" d="M0,0" style="fill: none;"/><g class="overlines-above"/><g class="xaxislayer-above"><g class="xtick"><text text-anchor="middle" x="0" y="433" transform="translate(116,0)" style="font-family: 'Open Sans', verdana, arial, sans-serif; font-size: 12px; fill: rgb(42, 63, 95); fill-opacity: 1; white-space: pre; opacity: 1;">Jun 2023</text></g><g class="xtick"><text text-anchor="middle" x="0" y="433" style="font-family: 'Open Sans', verdana, arial, sans-serif; font-size: 12px; fill: rgb(42, 63, 95); fill-opacity: 1; white-space: pre; opacity: 1;" transform="translate(193.14,0)">Jul 2023</text></g><g class="xtick"><text text-anchor="middle" x="0" y="433" style="font-family: 'Open Sans', verdana, arial, sans-serif; font-size: 12px; fill: rgb(42, 63, 95); fill-opacity: 1; white-space: pre; opacity: 1;" transform="translate(272.86,0)">Aug 2023</text></g><g class="xtick"><text text-anchor="middle" x="0" y="433" style="font-family: 'Open Sans', verdana, arial, sans-serif; font-size: 12px; fill: rgb(42, 63, 95); fill-opacity: 1; white-space: pre; opacity: 1;" transform="translate(352.57,0)">Sep 2023</text></g><g class="xtick"><text text-anchor="middle" x="0" y="433" style="font-family: 'Open Sans', verdana, arial, sans-serif; font-size: 12px; fill: rgb(42, 63, 95); fill-opacity: 1; white-space: pre; opacity: 1;" transform="translate(429.71,0)">Oct 2023</text></g><g class="xtick"><text text-anchor="middle" x="0" y="433" style="font-family: 'Open Sans', verdana, arial, sans-serif; font-size: 12px; fill: rgb(42, 63, 95); fill-opacity: 1; white-space: pre; opacity: 1;" transform="translate(509.43,0)">Nov 2023</text></g><g class="xtick"><text text-anchor="middle" x="0" y="433" style="font-family: 'Open Sans', verdana, arial, sans-serif; font-size: 12px; fill: rgb(42, 63, 95); fill-opacity: 1; white-space: pre; opacity: 1;" transform="translate(586.5699999999999,0)">Dec 2023</text></g></g><g class="yaxislayer-above"><g class="ytick"><text text-anchor="end" x="79" y="4.199999999999999" transform="translate(0,420)" style="font-family: 'Open Sans', verdana, arial, sans-serif; font-size: 12px; fill: rgb(42, 63, 95); fill-opacity: 1; white-space: pre; opacity: 1;">$0</text></g><g class="ytick"><text text-anchor="end" x="79" y="4.199999999999999" style="font-family: 'Open Sans', verdana, arial, sans-serif; font-size: 12px; fill: rgb(42, 63, 95); fill-opacity: 1; white-space: pre; opacity: 1;" transform="translate(0,371.57)">$5M</text></g><g class="ytick"><text text-anchor="end" x="79" y="4.199999999999999" style="font-family: 'Open Sans', verdana, arial, sans-serif; font-size: 12px; fill: rgb(42, 63, 95); fill-opacity: 1; white-space: pre; opacity: 1;" transform="translate(0,323.14)">$10M</text></g><g class="ytick"><text text-anchor="end" x="79" y="4.199999999999999" style="font-family: 'Open Sans', verdana, arial, sans-serif; font-size: 12px; fill: rgb(42, 63, 95); fill-opacity: 1; white-space: pre; opacity: 1;" transform="translate(0,274.71000000000004)">$15M</text></g><g class="ytick"><text text-anchor="end" x="79" y="4.199999999999999" style="font-family: 'Open Sans', verdana, arial, sans-serif; font-size: 12px; fill: rgb(42, 63, 95); fill-opacity: 1; white-space: pre; opacity: 1;" transform="translate(0,226.28)">$20M</text></g><g class="ytick"><text text-anchor="end" x="79" y="4.199999999999999" style="font-family: 'Open Sans', verdana, arial, sans-serif; font-size: 12px; fill: rgb(42, 63, 95); fill-opacity: 1; white-space: pre; opacity: 1;" transform="translate(0,177.85)">$25M</text></g><g class="ytick"><text text-anchor="end" x="79" y="4.199999999999999" style="font-family: 'Open Sans', verdana, arial, sans-serif; font-size: 12px; fill: rgb(42, 63, 95); fill-opacity: 1; white-space: pre; opacity: 1;" transform="translate(0,129.42000000000002)">$30M</text></g></g><g class="overaxes-above"/></g></g><g class="polarlayer"/><g class="smithlayer"/><g class="ternarylayer"/><g class="geolayer"/><g class="funnelarealayer"/><g class="pielayer"/><g class="iciclelayer"/><g class="treemaplayer"/><g class="sunburstlayer"/><g class="glimages"/><defs id="topdefs-dc84d7"><g class="clips"/></defs><g class="layer-above"><g class="imagelayer"/><g class="shapelayer"/></g><g class="infolayer"><g class="g-gtitle"><text class="gtitle" x="35" y="50" text-anchor="start" dy="0em" style="font-family: 'Open Sans', verdana, arial, sans-serif; font-size: 17px; fill: rgb(42, 63, 95); opacity: 1; font-weight: normal; white-space: pre;"><tspan class="line" dy="0em" x="35" y="50">Yearn Finance</tspan><tspan class="line" dy="1.3em" x="35" y="50">​<tspan style="font-size:70%" dy="-0.6em">Cumulative Net Flows since Program Announcement, Until Program End + 30 Days - At Last Price</tspan><tspan dy="0.42em">​</tspan></tspan></text></g><g class="g-xtitle"><text class="xtitle" x="350" y="460.3" text-anchor="middle" style="font-family: 'Open Sans', verdana, arial, sans-serif; font-size: 14px; fill: rgb(42, 63, 95); opacity: 1; font-weight: normal; white-space: pre;">Day</text></g><g class="g-ytitle"><text class="ytitle" transform="rotate(-90,24.668750000000003,260)" x="24.668750000000003" y="260" text-anchor="middle" style="font-family: 'Open Sans', verdana, arial, sans-serif; font-size: 14px; fill: rgb(42, 63, 95); opacity: 1; font-weight: normal; white-space: pre;">Cumulative Net Flows (USD)</text></g></g></svg>