<svg class="main-svg" xmlns="http://www.w3.org/2000/svg" xmlns:xlink="http://www.w3.org/1999/xlink" width="700" height="500" style="" viewBox="0 0 700 500"><rect x="0" y="0" width="700" height="500" style="fill: rgb(255, 255, 255); fill-opacity: 1;"/><defs id="defs-222bbd"><g class="clips"><clipPath id="clip222bbdxyplot" class="plotclip"><rect width="540" height="320"/></clipPath><clipPath class="axesclip" id="clip222bbdx"><rect x="80" y="0" width="540" height="500"/></clipPath><clipPath class="axesclip" id="clip222bbdy"><rect x="0" y="100" width="700" height="320"/></clipPath><clipPath class="axesclip" id="clip222bbdxy"><rect x="80" y="100" width="540" height="320"/></clipPath></g><g class="gradients"/><g class="patterns"/></defs><g class="bglayer"><rect class="bg" x="80" y="100" width="540" height="320" style="fill: rgb(229, 236, 246); fill-opacity: 1; stroke-width: 0;"/></g><g class="layer-below"><g class="imagelayer"/><g class="shapelayer"/></g><g class="cartesianlayer"><g class="subplot xy"><g class="layer-subplot"><g class="shapelayer"/><g class="imagelayer"/></g><g class="minor-gridlayer"><g class="x"/><g class="y"/></g><g class="gridlayer"><g class="x"><path class="xgrid crisp" transform="translate(115.74000000000001,0)" d="M0,100v320" style="stroke: rgb(255, 255, 255); stroke-opacity: 1; stroke-width: 1px;"/><path class="xgrid crisp" transform="translate(238.82,0)" d="M0,100v320" style="stroke: rgb(255, 255, 255); stroke-opacity: 1; stroke-width: 1px;"/><path class="xgrid crisp" transform="translate(357.94,0)" d="M0,100v320" style="stroke: rgb(255, 255, 255); stroke-opacity: 1; stroke-width: 1px;"/><path class="xgrid crisp" transform="translate(481.03,0)" d="M0,100v320" style="stroke: rgb(255, 255, 255); stroke-opacity: 1; stroke-width: 1px;"/><path class="xgrid crisp" transform="translate(600.15,0)" d="M0,100v320" style="stroke: rgb(255, 255, 255); stroke-opacity: 1; stroke-width: 1px;"/></g><g class="y"><path class="ygrid crisp" transform="translate(0,362.49)" d="M80,0h540" style="stroke: rgb(255, 255, 255); stroke-opacity: 1; stroke-width: 1px;"/><path class="ygrid crisp" transform="translate(0,304.99)" d="M80,0h540" style="stroke: rgb(255, 255, 255); stroke-opacity: 1; stroke-width: 1px;"/><path class="ygrid crisp" transform="translate(0,247.48)" d="M80,0h540" style="stroke: rgb(255, 255, 255); stroke-opacity: 1; stroke-width: 1px;"/><path class="ygrid crisp" transform="translate(0,189.97)" d="M80,0h540" style="stroke: rgb(255, 255, 255); stroke-opacity: 1; stroke-width: 1px;"/><path class="ygrid crisp" transform="translate(0,132.46)" d="M80,0h540" style="stroke: rgb(255, 255, 255); stroke-opacity: 1; stroke-width: 1px;"/></g></g><g class="zerolinelayer"><path class="yzl zl crisp" transform="translate(0,420)" d="M80,0h540" style="stroke: rgb(255, 255, 255); stroke-opacity: 1; stroke-width: 2px;"/></g><path class="xlines-below"/><path class="ylines-below"/><g class="overlines-below"/><g class="xaxislayer-below"/><g class="yaxislayer-below"/><g class="overaxes-below"/><g class="plot" transform="translate(80,100)" clip-path="url(#clip222bbdxyplot)"><g class="scatterlayer mlayer"><g class="trace scatter traceb10e79" style="stroke-miterlimit: 2;"><g class="fills"><g><path class="js-fill" d="M540,320L0,320L0,260.79L7.94,260.96L11.91,174.37L15.88,231.97L19.85,238.95L23.82,240.83L27.79,193.33L31.76,188.32L35.74,190.3L39.71,191.29L43.68,168.83L47.65,151.45L51.62,81.06L55.59,66.18L59.56,69.85L63.53,70.88L67.5,103.9L71.47,89.9L75.44,16L79.41,34.56L83.38,317.43L166.76,317.5L170.74,277.12L174.71,265.84L178.68,258.3L182.65,247.96L186.62,220.83L190.59,220.65L194.56,223.38L198.53,223.07L202.5,220.64L230.29,220.62L234.26,317.39L238.24,215.25L242.21,214.68L246.18,218.55L250.15,220.59L254.12,220.59L258.09,159.62L270,159.87L273.97,256.66L309.71,256.9L313.68,252.59L317.65,242.57L321.62,253.45L329.56,229.28L333.53,228.49L337.5,216.68L341.47,230.69L345.44,231.46L349.41,242.12L353.38,215.26L357.35,214.88L361.32,206.6L365.29,222.81L369.26,244.35L373.24,230.8L377.21,241.16L381.18,198.12L385.15,192.37L389.12,199.63L393.09,229.44L397.06,237.75L401.03,225.25L405,221.71L408.97,218.56L412.94,226.19L416.91,229.99L420.88,228.28L424.85,234.02L428.82,215.85L432.79,220.04L436.76,225.73L440.74,227.21L444.71,217.57L448.68,196.49L452.65,183.82L456.62,163.62L460.59,168.21L468.53,166.75L472.5,174.44L476.47,185.71L480.44,173.44L484.41,179.62L488.38,193.01L492.35,187.21L496.32,184.67L500.29,208.02L504.26,202.49L512.21,208.37L516.18,211.01L520.15,205.54L524.12,206.53L528.09,205.8L532.06,207.09L536.03,213.65L540,215.97" style="fill: rgb(99, 110, 250); fill-opacity: 0.5; stroke-width: 0;"/></g></g><g class="errorbars"/><g class="lines"><path class="js-line" d="M0,260.79L7.94,260.96L11.91,174.37L15.88,231.97L19.85,238.95L23.82,240.83L27.79,193.33L31.76,188.32L35.74,190.3L39.71,191.29L43.68,168.83L47.65,151.45L51.62,81.06L55.59,66.18L59.56,69.85L63.53,70.88L67.5,103.9L71.47,89.9L75.44,16L79.41,34.56L83.38,317.43L166.76,317.5L170.74,277.12L174.71,265.84L178.68,258.3L182.65,247.96L186.62,220.83L190.59,220.65L194.56,223.38L198.53,223.07L202.5,220.64L230.29,220.62L234.26,317.39L238.24,215.25L242.21,214.68L246.18,218.55L250.15,220.59L254.12,220.59L258.09,159.62L270,159.87L273.97,256.66L309.71,256.9L313.68,252.59L317.65,242.57L321.62,253.45L329.56,229.28L333.53,228.49L337.5,216.68L341.47,230.69L345.44,231.46L349.41,242.12L353.38,215.26L357.35,214.88L361.32,206.6L365.29,222.81L369.26,244.35L373.24,230.8L377.21,241.16L381.18,198.12L385.15,192.37L389.12,199.63L393.09,229.44L397.06,237.75L401.03,225.25L405,221.71L408.97,218.56L412.94,226.19L416.91,229.99L420.88,228.28L424.85,234.02L428.82,215.85L432.79,220.04L436.76,225.73L440.74,227.21L444.71,217.57L448.68,196.49L452.65,183.82L456.62,163.62L460.59,168.21L468.53,166.75L472.5,174.44L476.47,185.71L480.44,173.44L484.41,179.62L488.38,193.01L492.35,187.21L496.32,184.67L500.29,208.02L504.26,202.49L512.21,208.37L516.18,211.01L520.15,205.54L524.12,206.53L528.09,205.8L532.06,207.09L536.03,213.65L540,215.97" style="vector-effect: none; fill: none; stroke: rgb(99, 110, 250); stroke-opacity: 1; stroke-width: 2px; opacity: 1;"/></g><g class="points"/><g class="text"/></g></g></g><g class="overplot"/><path class="xlines-above crisp" d="M0,0" style="fill: none;"/><path class="ylines-above crisp" d="M0,0" style="fill: none;"/><g class="overlines-above"/><g class="xaxislayer-above"><g class="xtick"><text text-anchor="middle" x="0" y="433" transform="translate(115.74000000000001,0)" style="font-family: 'Open Sans', verdana, arial, sans-serif; font-size: 12px; fill: rgb(42, 63, 95); fill-opacity: 1; white-space: pre; opacity: 1;">Mar 2023</text></g><g class="xtick"><text text-anchor="middle" x="0" y="433" style="font-family: 'Open Sans', verdana, arial, sans-serif; font-size: 12px; fill: rgb(42, 63, 95); fill-opacity: 1; white-space: pre; opacity: 1;" transform="translate(238.82,0)">Apr 2023</text></g><g class="xtick"><text text-anchor="middle" x="0" y="433" style="font-family: 'Open Sans', verdana, arial, sans-serif; font-size: 12px; fill: rgb(42, 63, 95); fill-opacity: 1; white-space: pre; opacity: 1;" transform="translate(357.94,0)">May 2023</text></g><g class="xtick"><text text-anchor="middle" x="0" y="433" style="font-family: 'Open Sans', verdana, arial, sans-serif; font-size: 12px; fill: rgb(42, 63, 95); fill-opacity: 1; white-space: pre; opacity: 1;" transform="translate(481.03,0)">Jun 2023</text></g><g class="xtick"><text text-anchor="middle" x="0" y="433" style="font-family: 'Open Sans', verdana, arial, sans-serif; font-size: 12px; fill: rgb(42, 63, 95); fill-opacity: 1; white-space: pre; opacity: 1;" transform="translate(600.15,0)">Jul 2023</text></g></g><g class="yaxislayer-above"><g class="ytick"><text text-anchor="end" x="79" y="4.199999999999999" transform="translate(0,420)" style="font-family: 'Open Sans', verdana, arial, sans-serif; font-size: 12px; fill: rgb(42, 63, 95); fill-opacity: 1; white-space: pre; opacity: 1;">$0</text></g><g class="ytick"><text text-anchor="end" x="79" y="4.199999999999999" style="font-family: 'Open Sans', verdana, arial, sans-serif; font-size: 12px; fill: rgb(42, 63, 95); fill-opacity: 1; white-space: pre; opacity: 1;" transform="translate(0,362.49)">$0.2M</text></g><g class="ytick"><text text-anchor="end" x="79" y="4.199999999999999" style="font-family: 'Open Sans', verdana, arial, sans-serif; font-size: 12px; fill: rgb(42, 63, 95); fill-opacity: 1; white-space: pre; opacity: 1;" transform="translate(0,304.99)">$0.4M</text></g><g class="ytick"><text text-anchor="end" x="79" y="4.199999999999999" style="font-family: 'Open Sans', verdana, arial, sans-serif; font-size: 12px; fill: rgb(42, 63, 95); fill-opacity: 1; white-space: pre; opacity: 1;" transform="translate(0,247.48)">$0.6M</text></g><g class="ytick"><text text-anchor="end" x="79" y="4.199999999999999" style="font-family: 'Open Sans', verdana, arial, sans-serif; font-size: 12px; fill: rgb(42, 63, 95); fill-opacity: 1; white-space: pre; opacity: 1;" transform="translate(0,189.97)">$0.8M</text></g><g class="ytick"><text text-anchor="end" x="79" y="4.199999999999999" style="font-family: 'Open Sans', verdana, arial, sans-serif; font-size: 12px; fill: rgb(42, 63, 95); fill-opacity: 1; white-space: pre; opacity: 1;" transform="translate(0,132.46)">$1M</text></g></g><g class="overaxes-above"/></g></g><g class="polarlayer"/><g class="smithlayer"/><g class="ternarylayer"/><g class="geolayer"/><g class="funnelarealayer"/><g class="pielayer"/><g class="iciclelayer"/><g class="treemaplayer"/><g class="sunburstlayer"/><g class="glimages"/><defs id="topdefs-222bbd"><g class="clips"/></defs><g class="layer-above"><g class="imagelayer"/><g class="shapelayer"/></g><g class="infolayer"><g class="g-gtitle"><text class="gtitle" x="35" y="50" text-anchor="start" dy="0em" style="font-family: 'Open Sans', verdana, arial, sans-serif; font-size: 17px; fill: rgb(42, 63, 95); opacity: 1; font-weight: normal; white-space: pre;"><tspan class="line" dy="0em" x="35" y="50">Angle - USDC/agEUR: Uniswap</tspan><tspan class="line" dy="1.3em" x="35" y="50">​<tspan style="font-size:70%" dy="-0.6em">Cumulative Net Flows since Program Announcement, Until Program End + 30 Days - At Last Price</tspan><tspan dy="0.42em">​</tspan></tspan></text></g><g class="g-xtitle"><text class="xtitle" x="350" y="460.3" text-anchor="middle" style="font-family: 'Open Sans', verdana, arial, sans-serif; font-size: 14px; fill: rgb(42, 63, 95); opacity: 1; font-weight: normal; white-space: pre;">Day</text></g><g class="g-ytitle"><text class="ytitle" transform="rotate(-90,21.340625000000003,260)" x="21.340625000000003" y="260" text-anchor="middle" style="font-family: 'Open Sans', verdana, arial, sans-serif; font-size: 14px; fill: rgb(42, 63, 95); opacity: 1; font-weight: normal; white-space: pre;">Cumulative Net Flows (USD)</text></g></g></svg>