<svg class="main-svg" xmlns="http://www.w3.org/2000/svg" xmlns:xlink="http://www.w3.org/1999/xlink" width="700" height="500" style="" viewBox="0 0 700 500"><rect x="0" y="0" width="700" height="500" style="fill: rgb(255, 255, 255); fill-opacity: 1;"/><defs id="defs-c2e387"><g class="clips"><clipPath id="clipc2e387xyplot" class="plotclip"><rect width="540" height="320"/></clipPath><clipPath class="axesclip" id="clipc2e387x"><rect x="80" y="0" width="540" height="500"/></clipPath><clipPath class="axesclip" id="clipc2e387y"><rect x="0" y="100" width="700" height="320"/></clipPath><clipPath class="axesclip" id="clipc2e387xy"><rect x="80" y="100" width="540" height="320"/></clipPath></g><g class="gradients"/><g class="patterns"/></defs><g class="bglayer"><rect class="bg" x="80" y="100" width="540" height="320" style="fill: rgb(229, 236, 246); fill-opacity: 1; stroke-width: 0;"/></g><g class="layer-below"><g class="imagelayer"/><g class="shapelayer"/></g><g class="cartesianlayer"><g class="subplot xy"><g class="layer-subplot"><g class="shapelayer"/><g class="imagelayer"/></g><g class="minor-gridlayer"><g class="x"/><g class="y"/></g><g class="gridlayer"><g class="x"><path class="xgrid crisp" transform="translate(139.7,0)" d="M0,100v320" style="stroke: rgb(255, 255, 255); stroke-opacity: 1; stroke-width: 1px;"/><path class="xgrid crisp" transform="translate(223.82,0)" d="M0,100v320" style="stroke: rgb(255, 255, 255); stroke-opacity: 1; stroke-width: 1px;"/><path class="xgrid crisp" transform="translate(307.94,0)" d="M0,100v320" style="stroke: rgb(255, 255, 255); stroke-opacity: 1; stroke-width: 1px;"/><path class="xgrid crisp" transform="translate(383.92,0)" d="M0,100v320" style="stroke: rgb(255, 255, 255); stroke-opacity: 1; stroke-width: 1px;"/><path class="xgrid crisp" transform="translate(468.04,0)" d="M0,100v320" style="stroke: rgb(255, 255, 255); stroke-opacity: 1; stroke-width: 1px;"/><path class="xgrid crisp" transform="translate(549.45,0)" d="M0,100v320" style="stroke: rgb(255, 255, 255); stroke-opacity: 1; stroke-width: 1px;"/></g><g class="y"><path class="ygrid crisp" transform="translate(0,355.94)" d="M80,0h540" style="stroke: rgb(255, 255, 255); stroke-opacity: 1; stroke-width: 1px;"/><path class="ygrid crisp" transform="translate(0,307.97)" d="M80,0h540" style="stroke: rgb(255, 255, 255); stroke-opacity: 1; stroke-width: 1px;"/><path class="ygrid crisp" transform="translate(0,259.99)" d="M80,0h540" style="stroke: rgb(255, 255, 255); stroke-opacity: 1; stroke-width: 1px;"/><path class="ygrid crisp" transform="translate(0,212.01999999999998)" d="M80,0h540" style="stroke: rgb(255, 255, 255); stroke-opacity: 1; stroke-width: 1px;"/><path class="ygrid crisp" transform="translate(0,164.04000000000002)" d="M80,0h540" style="stroke: rgb(255, 255, 255); stroke-opacity: 1; stroke-width: 1px;"/><path class="ygrid crisp" transform="translate(0,116.06)" d="M80,0h540" style="stroke: rgb(255, 255, 255); stroke-opacity: 1; stroke-width: 1px;"/></g></g><g class="zerolinelayer"><path class="yzl zl crisp" transform="translate(0,403.92)" d="M80,0h540" style="stroke: rgb(255, 255, 255); stroke-opacity: 1; stroke-width: 2px;"/></g><path class="xlines-below"/><path class="ylines-below"/><g class="overlines-below"/><g class="xaxislayer-below"/><g class="yaxislayer-below"/><g class="overaxes-below"/><g class="plot" transform="translate(80,100)" clip-path="url(#clipc2e387xyplot)"><g class="scatterlayer mlayer"><g class="trace scatter trace77d3ed" style="stroke-miterlimit: 2;"><g class="fills"><g><path class="js-fill" d="M540,303.92L0,303.92L0,304L2.71,302.08L5.43,299.22L8.14,298.02L10.85,297.71L29.85,296.87L32.56,296.65L37.99,295.18L40.7,294.29L43.42,295.27L46.13,295.39L65.13,296.03L67.84,295.86L70.55,295.79L73.27,294.92L75.98,296.92L78.69,296.61L89.55,296.2L92.26,297.72L94.97,298.75L97.69,298.56L100.4,297.39L103.12,297.24L113.97,296.79L116.68,294.74L119.4,295.28L122.11,294.73L124.82,293.59L127.54,293.51L135.68,292.95L138.39,290.63L143.82,290.67L146.53,287.94L149.25,287.53L151.96,290.54L154.67,288.4L157.39,288.79L162.81,288.31L165.53,288.83L168.24,288.83L170.95,286.76L173.67,285.32L176.38,285.81L179.1,283.48L181.81,283.24L187.24,280.14L189.95,279.96L195.38,281.15L198.09,279.17L200.8,277.92L203.52,261.91L206.23,263.47L208.94,263.23L211.66,258.26L214.37,257.95L217.09,258.35L219.8,252.46L222.51,289.4L225.23,291.26L227.94,288.49L230.65,275.69L233.37,275.74L236.08,274.93L238.79,268.86L241.51,268.24L244.22,238.97L246.93,237.87L249.65,228.97L252.36,229.67L255.08,220.88L257.79,221.2L260.5,193.86L263.22,194.26L268.64,192.89L271.36,182.14L274.07,182.12L276.78,183.23L279.5,167.37L282.21,167.43L287.64,165.2L290.35,158.21L293.07,146.24L295.78,144.8L301.21,144.09L303.92,141.08L306.63,141.04L309.35,131.68L314.77,132.21L317.49,125.99L320.2,123.99L322.91,123.28L325.63,119.43L328.34,125.16L331.06,125.34L333.77,128.51L336.48,125.71L339.2,107.05L341.91,99.01L344.62,99.31L347.34,92.98L350.05,66.79L352.76,68.12L355.48,57.08L358.19,41.51L360.9,39.65L369.05,38.5L371.76,39.95L374.47,40.06L377.19,43.5L379.9,19.24L382.61,16.01L385.33,16L388.04,28.02L393.47,28.56L396.18,27.61L404.32,27.28L407.04,45.51L409.75,59.75L412.46,55.46L417.89,55.58L420.6,53.54L426.03,55.04L428.74,54.8L431.46,62.33L434.17,61.39L436.88,60.49L439.6,229.13L442.31,72.39L445.03,70.91L461.31,69.25L464.02,60.35L466.73,58.58L469.45,63.66L472.16,50.94L474.87,52.17L477.59,52.51L480.3,56.16L485.73,55.72L488.44,57.53L491.16,55.22L493.87,54.87L504.72,54.87L507.44,56.03L515.58,56.3L518.29,55.47L521.01,55.59L523.72,53.33L526.43,55.16L529.15,70.82L531.86,85.16L534.57,87.87L537.29,88.65L540,81.61" style="fill: rgb(99, 110, 250); fill-opacity: 0.5; stroke-width: 0;"/></g></g><g class="errorbars"/><g class="lines"><path class="js-line" d="M0,304L2.71,302.08L5.43,299.22L8.14,298.02L10.85,297.71L29.85,296.87L32.56,296.65L37.99,295.18L40.7,294.29L43.42,295.27L46.13,295.39L65.13,296.03L67.84,295.86L70.55,295.79L73.27,294.92L75.98,296.92L78.69,296.61L89.55,296.2L92.26,297.72L94.97,298.75L97.69,298.56L100.4,297.39L103.12,297.24L113.97,296.79L116.68,294.74L119.4,295.28L122.11,294.73L124.82,293.59L127.54,293.51L135.68,292.95L138.39,290.63L143.82,290.67L146.53,287.94L149.25,287.53L151.96,290.54L154.67,288.4L157.39,288.79L162.81,288.31L165.53,288.83L168.24,288.83L170.95,286.76L173.67,285.32L176.38,285.81L179.1,283.48L181.81,283.24L187.24,280.14L189.95,279.96L195.38,281.15L198.09,279.17L200.8,277.92L203.52,261.91L206.23,263.47L208.94,263.23L211.66,258.26L214.37,257.95L217.09,258.35L219.8,252.46L222.51,289.4L225.23,291.26L227.94,288.49L230.65,275.69L233.37,275.74L236.08,274.93L238.79,268.86L241.51,268.24L244.22,238.97L246.93,237.87L249.65,228.97L252.36,229.67L255.08,220.88L257.79,221.2L260.5,193.86L263.22,194.26L268.64,192.89L271.36,182.14L274.07,182.12L276.78,183.23L279.5,167.37L282.21,167.43L287.64,165.2L290.35,158.21L293.07,146.24L295.78,144.8L301.21,144.09L303.92,141.08L306.63,141.04L309.35,131.68L314.77,132.21L317.49,125.99L320.2,123.99L322.91,123.28L325.63,119.43L328.34,125.16L331.06,125.34L333.77,128.51L336.48,125.71L339.2,107.05L341.91,99.01L344.62,99.31L347.34,92.98L350.05,66.79L352.76,68.12L355.48,57.08L358.19,41.51L360.9,39.65L369.05,38.5L371.76,39.95L374.47,40.06L377.19,43.5L379.9,19.24L382.61,16.01L385.33,16L388.04,28.02L393.47,28.56L396.18,27.61L404.32,27.28L407.04,45.51L409.75,59.75L412.46,55.46L417.89,55.58L420.6,53.54L426.03,55.04L428.74,54.8L431.46,62.33L434.17,61.39L436.88,60.49L439.6,229.13L442.31,72.39L445.03,70.91L461.31,69.25L464.02,60.35L466.73,58.58L469.45,63.66L472.16,50.94L474.87,52.17L477.59,52.51L480.3,56.16L485.73,55.72L488.44,57.53L491.16,55.22L493.87,54.87L504.72,54.87L507.44,56.03L515.58,56.3L518.29,55.47L521.01,55.59L523.72,53.33L526.43,55.16L529.15,70.82L531.86,85.16L534.57,87.87L537.29,88.65L540,81.61" style="vector-effect: none; fill: none; stroke: rgb(99, 110, 250); stroke-opacity: 1; stroke-width: 2px; opacity: 1;"/></g><g class="points"/><g class="text"/></g></g></g><g class="overplot"/><path class="xlines-above crisp" d="M0,0" style="fill: none;"/><path class="ylines-above crisp" d="M0,0" style="fill: none;"/><g class="overlines-above"/><g class="xaxislayer-above"><g class="xtick"><text text-anchor="middle" x="0" y="433" transform="translate(139.7,0)" style="font-family: 'Open Sans', verdana, arial, sans-serif; font-size: 12px; fill: rgb(42, 63, 95); fill-opacity: 1; white-space: pre; opacity: 1;">Dec 2022</text></g><g class="xtick"><text text-anchor="middle" x="0" y="433" style="font-family: 'Open Sans', verdana, arial, sans-serif; font-size: 12px; fill: rgb(42, 63, 95); fill-opacity: 1; white-space: pre; opacity: 1;" transform="translate(223.82,0)">Jan 2023</text></g><g class="xtick"><text text-anchor="middle" x="0" y="433" style="font-family: 'Open Sans', verdana, arial, sans-serif; font-size: 12px; fill: rgb(42, 63, 95); fill-opacity: 1; white-space: pre; opacity: 1;" transform="translate(307.94,0)">Feb 2023</text></g><g class="xtick"><text text-anchor="middle" x="0" y="433" style="font-family: 'Open Sans', verdana, arial, sans-serif; font-size: 12px; fill: rgb(42, 63, 95); fill-opacity: 1; white-space: pre; opacity: 1;" transform="translate(383.92,0)">Mar 2023</text></g><g class="xtick"><text text-anchor="middle" x="0" y="433" style="font-family: 'Open Sans', verdana, arial, sans-serif; font-size: 12px; fill: rgb(42, 63, 95); fill-opacity: 1; white-space: pre; opacity: 1;" transform="translate(468.04,0)">Apr 2023</text></g><g class="xtick"><text text-anchor="middle" x="0" y="433" style="font-family: 'Open Sans', verdana, arial, sans-serif; font-size: 12px; fill: rgb(42, 63, 95); fill-opacity: 1; white-space: pre; opacity: 1;" transform="translate(549.45,0)">May 2023</text></g></g><g class="yaxislayer-above"><g class="ytick"><text text-anchor="end" x="79" y="4.199999999999999" transform="translate(0,403.92)" style="font-family: 'Open Sans', verdana, arial, sans-serif; font-size: 12px; fill: rgb(42, 63, 95); fill-opacity: 1; white-space: pre; opacity: 1;">$0</text></g><g class="ytick"><text text-anchor="end" x="79" y="4.199999999999999" style="font-family: 'Open Sans', verdana, arial, sans-serif; font-size: 12px; fill: rgb(42, 63, 95); fill-opacity: 1; white-space: pre; opacity: 1;" transform="translate(0,355.94)">$5M</text></g><g class="ytick"><text text-anchor="end" x="79" y="4.199999999999999" style="font-family: 'Open Sans', verdana, arial, sans-serif; font-size: 12px; fill: rgb(42, 63, 95); fill-opacity: 1; white-space: pre; opacity: 1;" transform="translate(0,307.97)">$10M</text></g><g class="ytick"><text text-anchor="end" x="79" y="4.199999999999999" style="font-family: 'Open Sans', verdana, arial, sans-serif; font-size: 12px; fill: rgb(42, 63, 95); fill-opacity: 1; white-space: pre; opacity: 1;" transform="translate(0,259.99)">$15M</text></g><g class="ytick"><text text-anchor="end" x="79" y="4.199999999999999" style="font-family: 'Open Sans', verdana, arial, sans-serif; font-size: 12px; fill: rgb(42, 63, 95); fill-opacity: 1; white-space: pre; opacity: 1;" transform="translate(0,212.01999999999998)">$20M</text></g><g class="ytick"><text text-anchor="end" x="79" y="4.199999999999999" style="font-family: 'Open Sans', verdana, arial, sans-serif; font-size: 12px; fill: rgb(42, 63, 95); fill-opacity: 1; white-space: pre; opacity: 1;" transform="translate(0,164.04000000000002)">$25M</text></g><g class="ytick"><text text-anchor="end" x="79" y="4.199999999999999" style="font-family: 'Open Sans', verdana, arial, sans-serif; font-size: 12px; fill: rgb(42, 63, 95); fill-opacity: 1; white-space: pre; opacity: 1;" transform="translate(0,116.06)">$30M</text></g></g><g class="overaxes-above"/></g></g><g class="polarlayer"/><g class="smithlayer"/><g class="ternarylayer"/><g class="geolayer"/><g class="funnelarealayer"/><g class="pielayer"/><g class="iciclelayer"/><g class="treemaplayer"/><g class="sunburstlayer"/><g class="glimages"/><defs id="topdefs-c2e387"><g class="clips"/></defs><g class="layer-above"><g class="imagelayer"/><g class="shapelayer"/></g><g class="infolayer"><g class="g-gtitle"><text class="gtitle" x="35" y="50" text-anchor="start" dy="0em" style="font-family: 'Open Sans', verdana, arial, sans-serif; font-size: 17px; fill: rgb(42, 63, 95); opacity: 1; font-weight: normal; white-space: pre;"><tspan class="line" dy="0em" x="35" y="50">Rocket Pool - WETH/rETH: Beethoven X</tspan><tspan class="line" dy="1.3em" x="35" y="50">​<tspan style="font-size:70%" dy="-0.6em">Cumulative Net Flows since Program Announcement, Until Program End + 30 Days - At Last Price</tspan><tspan dy="0.42em">​</tspan></tspan></text></g><g class="g-xtitle"><text class="xtitle" x="350" y="460.3" text-anchor="middle" style="font-family: 'Open Sans', verdana, arial, sans-serif; font-size: 14px; fill: rgb(42, 63, 95); opacity: 1; font-weight: normal; white-space: pre;">Day</text></g><g class="g-ytitle"><text class="ytitle" transform="rotate(-90,24.668750000000003,260)" x="24.668750000000003" y="260" text-anchor="middle" style="font-family: 'Open Sans', verdana, arial, sans-serif; font-size: 14px; fill: rgb(42, 63, 95); opacity: 1; font-weight: normal; white-space: pre;">Cumulative Net Flows (USD)</text></g></g></svg>