<svg class="main-svg" xmlns="http://www.w3.org/2000/svg" xmlns:xlink="http://www.w3.org/1999/xlink" width="700" height="500" style="" viewBox="0 0 700 500"><rect x="0" y="0" width="700" height="500" style="fill: rgb(255, 255, 255); fill-opacity: 1;"/><defs id="defs-1a8051"><g class="clips"><clipPath id="clip1a8051xyplot" class="plotclip"><rect width="540" height="320"/></clipPath><clipPath class="axesclip" id="clip1a8051x"><rect x="80" y="0" width="540" height="500"/></clipPath><clipPath class="axesclip" id="clip1a8051y"><rect x="0" y="100" width="700" height="320"/></clipPath><clipPath class="axesclip" id="clip1a8051xy"><rect x="80" y="100" width="540" height="320"/></clipPath></g><g class="gradients"/><g class="patterns"/></defs><g class="bglayer"><rect class="bg" x="80" y="100" width="540" height="320" style="fill: rgb(229, 236, 246); fill-opacity: 1; stroke-width: 0;"/></g><g class="layer-below"><g class="imagelayer"/><g class="shapelayer"/></g><g class="cartesianlayer"><g class="subplot xy"><g class="layer-subplot"><g class="shapelayer"/><g class="imagelayer"/></g><g class="minor-gridlayer"><g class="x"/><g class="y"/></g><g class="gridlayer"><g class="x"><path class="xgrid crisp" transform="translate(96.22,0)" d="M0,100v320" style="stroke: rgb(255, 255, 255); stroke-opacity: 1; stroke-width: 1px;"/><path class="xgrid crisp" transform="translate(165.75,0)" d="M0,100v320" style="stroke: rgb(255, 255, 255); stroke-opacity: 1; stroke-width: 1px;"/><path class="xgrid crisp" transform="translate(237.6,0)" d="M0,100v320" style="stroke: rgb(255, 255, 255); stroke-opacity: 1; stroke-width: 1px;"/><path class="xgrid crisp" transform="translate(307.12,0)" d="M0,100v320" style="stroke: rgb(255, 255, 255); stroke-opacity: 1; stroke-width: 1px;"/><path class="xgrid crisp" transform="translate(378.97,0)" d="M0,100v320" style="stroke: rgb(255, 255, 255); stroke-opacity: 1; stroke-width: 1px;"/><path class="xgrid crisp" transform="translate(450.82,0)" d="M0,100v320" style="stroke: rgb(255, 255, 255); stroke-opacity: 1; stroke-width: 1px;"/><path class="xgrid crisp" transform="translate(515.71,0)" d="M0,100v320" style="stroke: rgb(255, 255, 255); stroke-opacity: 1; stroke-width: 1px;"/><path class="xgrid crisp" transform="translate(587.55,0)" d="M0,100v320" style="stroke: rgb(255, 255, 255); stroke-opacity: 1; stroke-width: 1px;"/></g><g class="y"><path class="ygrid crisp" transform="translate(0,331.33000000000004)" d="M80,0h540" style="stroke: rgb(255, 255, 255); stroke-opacity: 1; stroke-width: 1px;"/><path class="ygrid crisp" transform="translate(0,284.28)" d="M80,0h540" style="stroke: rgb(255, 255, 255); stroke-opacity: 1; stroke-width: 1px;"/><path class="ygrid crisp" transform="translate(0,237.23)" d="M80,0h540" style="stroke: rgb(255, 255, 255); stroke-opacity: 1; stroke-width: 1px;"/><path class="ygrid crisp" transform="translate(0,190.18)" d="M80,0h540" style="stroke: rgb(255, 255, 255); stroke-opacity: 1; stroke-width: 1px;"/><path class="ygrid crisp" transform="translate(0,143.13)" d="M80,0h540" style="stroke: rgb(255, 255, 255); stroke-opacity: 1; stroke-width: 1px;"/></g></g><g class="zerolinelayer"><path class="yzl zl crisp" transform="translate(0,378.38)" d="M80,0h540" style="stroke: rgb(255, 255, 255); stroke-opacity: 1; stroke-width: 2px;"/></g><path class="xlines-below"/><path class="ylines-below"/><g class="overlines-below"/><g class="xaxislayer-below"/><g class="yaxislayer-below"/><g class="overaxes-below"/><g class="plot" transform="translate(80,100)" clip-path="url(#clip1a8051xyplot)"><g class="scatterlayer mlayer"><g class="trace scatter trace08c96c" style="stroke-miterlimit: 2;"><g class="fills"><g><path class="js-fill" d="M540,278.38L0,278.38L0,277.4L2.32,236.49L4.64,228.32L6.95,225.15L9.27,225.08L11.59,219.13L13.91,216.43L16.22,215.01L18.54,216.73L20.86,210.68L23.18,208.28L25.49,204.94L27.81,213.82L30.13,211.24L32.45,213.63L34.76,203.88L37.08,199.62L39.4,197L41.72,196.16L44.03,198.9L46.35,202.88L48.67,204.12L50.99,190.38L53.3,181.96L55.62,180.62L57.94,178L60.26,183.25L62.58,183.07L64.89,180.18L69.53,180.13L71.85,180.97L74.16,179.3L76.48,178.7L78.8,150.1L81.12,152.12L83.43,158.15L85.75,156.9L88.07,156.8L90.39,158.16L95.02,160.34L97.34,167.6L99.66,163.96L101.97,172.5L104.29,172.48L106.61,173.65L108.93,177.28L111.24,174.52L115.88,173.81L118.2,171.47L122.83,171.07L125.15,169.35L127.47,170.83L129.79,170.6L141.37,170.88L143.69,169.37L146.01,170.08L148.33,182.68L150.64,180.51L152.96,168.89L166.87,169.37L169.18,170.28L171.5,168.37L173.82,168.19L176.14,207.37L178.45,212.44L180.77,201.72L183.09,195.73L185.41,202L187.73,191.77L192.36,189.56L194.68,191.48L197,195.77L199.31,194.76L201.63,193.8L203.95,195.66L206.27,196.19L208.58,195.82L210.9,190.19L213.22,190.62L215.54,189.59L217.85,189.45L227.12,189.26L229.44,186.72L231.76,186.8L234.08,182.65L236.39,182.15L238.71,176.8L241.03,163.94L243.35,158L245.67,158.43L247.98,156.57L250.3,156.47L252.62,155.01L254.94,151.34L257.25,150.63L261.89,142.93L264.21,147L268.84,147.06L271.16,150.28L273.48,162.99L275.79,163.4L278.11,163.86L280.43,163.02L287.38,163.07L289.7,168.68L292.02,168.57L294.33,165.3L296.65,151.73L298.97,148.94L301.29,153.34L303.61,153.26L305.92,158.73L308.24,159.24L310.56,156.31L312.88,156.34L315.19,159.82L317.51,157.8L322.15,134.74L324.46,133.28L326.78,138.46L329.1,134.58L331.42,133.37L333.73,135.36L338.37,134.49L340.69,137.82L343,133.34L345.32,123.8L347.64,120.56L349.96,119.72L352.27,117.77L354.59,93.16L356.91,46.27L359.23,42.46L361.55,45.03L363.86,34.52L366.18,33.72L368.5,18.11L370.82,17.69L373.13,16L375.45,20.65L377.77,31.6L380.09,36.13L382.4,36.11L384.72,45.21L387.04,61.08L389.36,63.49L391.67,63.9L393.99,63.62L396.31,42.19L398.63,44.43L400.94,42.01L403.26,42.29L405.58,40.1L407.9,45.63L410.21,55.3L412.53,55.55L414.85,56.57L417.17,71.17L419.48,71.93L421.8,72.73L424.12,71.84L426.44,69.54L428.76,64.89L431.07,63.81L433.39,63.7L438.03,63.2L440.34,64.68L444.98,64.31L447.3,60.91L449.61,62.29L451.93,60.04L454.25,55.43L456.57,55.94L458.88,53.97L461.2,67.27L463.52,64.53L465.84,63.01L468.15,54.3L470.47,52L472.79,54.9L475.11,59.55L479.74,64.84L482.06,65.06L484.38,63.59L486.7,64.14L489.01,64.59L491.33,65.91L493.65,82.96L495.97,93.93L500.6,190.83L502.92,216.37L505.24,218.86L507.55,226.61L512.19,233.99L514.51,237.04L516.82,244.66L519.14,246.26L523.78,248.75L526.09,249.26L528.41,250.03L530.73,253.19L533.05,254.68L535.36,254.91L537.68,303.6L540,304" style="fill: rgb(99, 110, 250); fill-opacity: 0.5; stroke-width: 0;"/></g></g><g class="errorbars"/><g class="lines"><path class="js-line" d="M0,277.4L2.32,236.49L4.64,228.32L6.95,225.15L9.27,225.08L11.59,219.13L13.91,216.43L16.22,215.01L18.54,216.73L20.86,210.68L23.18,208.28L25.49,204.94L27.81,213.82L30.13,211.24L32.45,213.63L34.76,203.88L37.08,199.62L39.4,197L41.72,196.16L44.03,198.9L46.35,202.88L48.67,204.12L50.99,190.38L53.3,181.96L55.62,180.62L57.94,178L60.26,183.25L62.58,183.07L64.89,180.18L69.53,180.13L71.85,180.97L74.16,179.3L76.48,178.7L78.8,150.1L81.12,152.12L83.43,158.15L85.75,156.9L88.07,156.8L90.39,158.16L95.02,160.34L97.34,167.6L99.66,163.96L101.97,172.5L104.29,172.48L106.61,173.65L108.93,177.28L111.24,174.52L115.88,173.81L118.2,171.47L122.83,171.07L125.15,169.35L127.47,170.83L129.79,170.6L141.37,170.88L143.69,169.37L146.01,170.08L148.33,182.68L150.64,180.51L152.96,168.89L166.87,169.37L169.18,170.28L171.5,168.37L173.82,168.19L176.14,207.37L178.45,212.44L180.77,201.72L183.09,195.73L185.41,202L187.73,191.77L192.36,189.56L194.68,191.48L197,195.77L199.31,194.76L201.63,193.8L203.95,195.66L206.27,196.19L208.58,195.82L210.9,190.19L213.22,190.62L215.54,189.59L217.85,189.45L227.12,189.26L229.44,186.72L231.76,186.8L234.08,182.65L236.39,182.15L238.71,176.8L241.03,163.94L243.35,158L245.67,158.43L247.98,156.57L250.3,156.47L252.62,155.01L254.94,151.34L257.25,150.63L261.89,142.93L264.21,147L268.84,147.06L271.16,150.28L273.48,162.99L275.79,163.4L278.11,163.86L280.43,163.02L287.38,163.07L289.7,168.68L292.02,168.57L294.33,165.3L296.65,151.73L298.97,148.94L301.29,153.34L303.61,153.26L305.92,158.73L308.24,159.24L310.56,156.31L312.88,156.34L315.19,159.82L317.51,157.8L322.15,134.74L324.46,133.28L326.78,138.46L329.1,134.58L331.42,133.37L333.73,135.36L338.37,134.49L340.69,137.82L343,133.34L345.32,123.8L347.64,120.56L349.96,119.72L352.27,117.77L354.59,93.16L356.91,46.27L359.23,42.46L361.55,45.03L363.86,34.52L366.18,33.72L368.5,18.11L370.82,17.69L373.13,16L375.45,20.65L377.77,31.6L380.09,36.13L382.4,36.11L384.72,45.21L387.04,61.08L389.36,63.49L391.67,63.9L393.99,63.62L396.31,42.19L398.63,44.43L400.94,42.01L403.26,42.29L405.58,40.1L407.9,45.63L410.21,55.3L412.53,55.55L414.85,56.57L417.17,71.17L419.48,71.93L421.8,72.73L424.12,71.84L426.44,69.54L428.76,64.89L431.07,63.81L433.39,63.7L438.03,63.2L440.34,64.68L444.98,64.31L447.3,60.91L449.61,62.29L451.93,60.04L454.25,55.43L456.57,55.94L458.88,53.97L461.2,67.27L463.52,64.53L465.84,63.01L468.15,54.3L470.47,52L472.79,54.9L475.11,59.55L479.74,64.84L482.06,65.06L484.38,63.59L486.7,64.14L489.01,64.59L491.33,65.91L493.65,82.96L495.97,93.93L500.6,190.83L502.92,216.37L505.24,218.86L507.55,226.61L512.19,233.99L514.51,237.04L516.82,244.66L519.14,246.26L523.78,248.75L526.09,249.26L528.41,250.03L530.73,253.19L533.05,254.68L535.36,254.91L537.68,303.6L540,304" style="vector-effect: none; fill: none; stroke: rgb(99, 110, 250); stroke-opacity: 1; stroke-width: 2px; opacity: 1;"/></g><g class="points"/><g class="text"/></g></g></g><g class="overplot"/><path class="xlines-above crisp" d="M0,0" style="fill: none;"/><path class="ylines-above crisp" d="M0,0" style="fill: none;"/><g class="overlines-above"/><g class="xaxislayer-above"><g class="xtick"><text text-anchor="middle" x="0" y="433" transform="translate(96.22,0)" style="font-family: 'Open Sans', verdana, arial, sans-serif; font-size: 12px; fill: rgb(42, 63, 95); fill-opacity: 1; white-space: pre; opacity: 1;">Sep 2022</text></g><g class="xtick"><text text-anchor="middle" x="0" y="433" style="font-family: 'Open Sans', verdana, arial, sans-serif; font-size: 12px; fill: rgb(42, 63, 95); fill-opacity: 1; white-space: pre; opacity: 1;" transform="translate(165.75,0)">Oct 2022</text></g><g class="xtick"><text text-anchor="middle" x="0" y="433" style="font-family: 'Open Sans', verdana, arial, sans-serif; font-size: 12px; fill: rgb(42, 63, 95); fill-opacity: 1; white-space: pre; opacity: 1;" transform="translate(237.6,0)">Nov 2022</text></g><g class="xtick"><text text-anchor="middle" x="0" y="433" style="font-family: 'Open Sans', verdana, arial, sans-serif; font-size: 12px; fill: rgb(42, 63, 95); fill-opacity: 1; white-space: pre; opacity: 1;" transform="translate(307.12,0)">Dec 2022</text></g><g class="xtick"><text text-anchor="middle" x="0" y="433" style="font-family: 'Open Sans', verdana, arial, sans-serif; font-size: 12px; fill: rgb(42, 63, 95); fill-opacity: 1; white-space: pre; opacity: 1;" transform="translate(378.97,0)">Jan 2023</text></g><g class="xtick"><text text-anchor="middle" x="0" y="433" style="font-family: 'Open Sans', verdana, arial, sans-serif; font-size: 12px; fill: rgb(42, 63, 95); fill-opacity: 1; white-space: pre; opacity: 1;" transform="translate(450.82,0)">Feb 2023</text></g><g class="xtick"><text text-anchor="middle" x="0" y="433" style="font-family: 'Open Sans', verdana, arial, sans-serif; font-size: 12px; fill: rgb(42, 63, 95); fill-opacity: 1; white-space: pre; opacity: 1;" transform="translate(515.71,0)">Mar 2023</text></g><g class="xtick"><text text-anchor="middle" x="0" y="433" style="font-family: 'Open Sans', verdana, arial, sans-serif; font-size: 12px; fill: rgb(42, 63, 95); fill-opacity: 1; white-space: pre; opacity: 1;" transform="translate(587.55,0)">Apr 2023</text></g></g><g class="yaxislayer-above"><g class="ytick"><text text-anchor="end" x="79" y="4.199999999999999" transform="translate(0,378.38)" style="font-family: 'Open Sans', verdana, arial, sans-serif; font-size: 12px; fill: rgb(42, 63, 95); fill-opacity: 1; white-space: pre; opacity: 1;">$0</text></g><g class="ytick"><text text-anchor="end" x="79" y="4.199999999999999" style="font-family: 'Open Sans', verdana, arial, sans-serif; font-size: 12px; fill: rgb(42, 63, 95); fill-opacity: 1; white-space: pre; opacity: 1;" transform="translate(0,331.33000000000004)">$5M</text></g><g class="ytick"><text text-anchor="end" x="79" y="4.199999999999999" style="font-family: 'Open Sans', verdana, arial, sans-serif; font-size: 12px; fill: rgb(42, 63, 95); fill-opacity: 1; white-space: pre; opacity: 1;" transform="translate(0,284.28)">$10M</text></g><g class="ytick"><text text-anchor="end" x="79" y="4.199999999999999" style="font-family: 'Open Sans', verdana, arial, sans-serif; font-size: 12px; fill: rgb(42, 63, 95); fill-opacity: 1; white-space: pre; opacity: 1;" transform="translate(0,237.23)">$15M</text></g><g class="ytick"><text text-anchor="end" x="79" y="4.199999999999999" style="font-family: 'Open Sans', verdana, arial, sans-serif; font-size: 12px; fill: rgb(42, 63, 95); fill-opacity: 1; white-space: pre; opacity: 1;" transform="translate(0,190.18)">$20M</text></g><g class="ytick"><text text-anchor="end" x="79" y="4.199999999999999" style="font-family: 'Open Sans', verdana, arial, sans-serif; font-size: 12px; fill: rgb(42, 63, 95); fill-opacity: 1; white-space: pre; opacity: 1;" transform="translate(0,143.13)">$25M</text></g></g><g class="overaxes-above"/></g></g><g class="polarlayer"/><g class="smithlayer"/><g class="ternarylayer"/><g class="geolayer"/><g class="funnelarealayer"/><g class="pielayer"/><g class="iciclelayer"/><g class="treemaplayer"/><g class="sunburstlayer"/><g class="glimages"/><defs id="topdefs-1a8051"><g class="clips"/></defs><g class="layer-above"><g class="imagelayer"/><g class="shapelayer"/></g><g class="infolayer"><g class="g-gtitle"><text class="gtitle" x="35" y="50" text-anchor="start" dy="0em" style="font-family: 'Open Sans', verdana, arial, sans-serif; font-size: 17px; fill: rgb(42, 63, 95); opacity: 1; font-weight: normal; white-space: pre;"><tspan class="line" dy="0em" x="35" y="50">Synthetix - sETH-ETH: Curve</tspan><tspan class="line" dy="1.3em" x="35" y="50">​<tspan style="font-size:70%" dy="-0.6em">Cumulative Net Flows since Program Announcement, Until Program End + 30 Days - At Last Price</tspan><tspan dy="0.42em">​</tspan></tspan></text></g><g class="g-xtitle"><text class="xtitle" x="350" y="460.3" text-anchor="middle" style="font-family: 'Open Sans', verdana, arial, sans-serif; font-size: 14px; fill: rgb(42, 63, 95); opacity: 1; font-weight: normal; white-space: pre;">Day</text></g><g class="g-ytitle"><text class="ytitle" transform="rotate(-90,24.668750000000003,260)" x="24.668750000000003" y="260" text-anchor="middle" style="font-family: 'Open Sans', verdana, arial, sans-serif; font-size: 14px; fill: rgb(42, 63, 95); opacity: 1; font-weight: normal; white-space: pre;">Cumulative Net Flows (USD)</text></g></g></svg>