<svg class="main-svg" xmlns="http://www.w3.org/2000/svg" xmlns:xlink="http://www.w3.org/1999/xlink" width="700" height="500" style="" viewBox="0 0 700 500"><rect x="0" y="0" width="700" height="500" style="fill: rgb(255, 255, 255); fill-opacity: 1;"/><defs id="defs-fb8aae"><g class="clips"><clipPath id="clipfb8aaexyplot" class="plotclip"><rect width="540" height="320"/></clipPath><clipPath class="axesclip" id="clipfb8aaex"><rect x="80" y="0" width="540" height="500"/></clipPath><clipPath class="axesclip" id="clipfb8aaey"><rect x="0" y="100" width="700" height="320"/></clipPath><clipPath class="axesclip" id="clipfb8aaexy"><rect x="80" y="100" width="540" height="320"/></clipPath></g><g class="gradients"/><g class="patterns"/></defs><g class="bglayer"><rect class="bg" x="80" y="100" width="540" height="320" style="fill: rgb(229, 236, 246); fill-opacity: 1; stroke-width: 0;"/></g><g class="layer-below"><g class="imagelayer"/><g class="shapelayer"/></g><g class="cartesianlayer"><g class="subplot xy"><g class="layer-subplot"><g class="shapelayer"/><g class="imagelayer"/></g><g class="minor-gridlayer"><g class="x"/><g class="y"/></g><g class="gridlayer"><g class="x"><path class="xgrid crisp" transform="translate(182.16,0)" d="M0,100v320" style="stroke: rgb(255, 255, 255); stroke-opacity: 1; stroke-width: 1px;"/><path class="xgrid crisp" transform="translate(309.34000000000003,0)" d="M0,100v320" style="stroke: rgb(255, 255, 255); stroke-opacity: 1; stroke-width: 1px;"/><path class="xgrid crisp" transform="translate(432.36,0)" d="M0,100v320" style="stroke: rgb(255, 255, 255); stroke-opacity: 1; stroke-width: 1px;"/><path class="xgrid crisp" transform="translate(559.54,0)" d="M0,100v320" style="stroke: rgb(255, 255, 255); stroke-opacity: 1; stroke-width: 1px;"/></g><g class="y"><path class="ygrid crisp" transform="translate(0,362.31)" d="M80,0h540" style="stroke: rgb(255, 255, 255); stroke-opacity: 1; stroke-width: 1px;"/><path class="ygrid crisp" transform="translate(0,304.62)" d="M80,0h540" style="stroke: rgb(255, 255, 255); stroke-opacity: 1; stroke-width: 1px;"/><path class="ygrid crisp" transform="translate(0,246.93)" d="M80,0h540" style="stroke: rgb(255, 255, 255); stroke-opacity: 1; stroke-width: 1px;"/><path class="ygrid crisp" transform="translate(0,189.24)" d="M80,0h540" style="stroke: rgb(255, 255, 255); stroke-opacity: 1; stroke-width: 1px;"/><path class="ygrid crisp" transform="translate(0,131.55)" d="M80,0h540" style="stroke: rgb(255, 255, 255); stroke-opacity: 1; stroke-width: 1px;"/></g></g><g class="zerolinelayer"><path class="yzl zl crisp" transform="translate(0,420)" d="M80,0h540" style="stroke: rgb(255, 255, 255); stroke-opacity: 1; stroke-width: 2px;"/></g><path class="xlines-below"/><path class="ylines-below"/><g class="overlines-below"/><g class="xaxislayer-below"/><g class="yaxislayer-below"/><g class="overaxes-below"/><g class="plot" transform="translate(80,100)" clip-path="url(#clipfb8aaexyplot)"><g class="scatterlayer mlayer"><g class="trace scatter trace0a236e" style="stroke-miterlimit: 2;"><g class="fills"><g><path class="js-fill" d="M540,320L0,320L0,235.73L2.08,235.33L4.17,214.73L6.25,168.89L8.34,149.61L10.42,142.32L12.51,138.57L14.59,139.06L16.68,137.97L18.76,131.61L20.85,131.38L27.1,129.62L29.19,132.8L37.53,132.12L39.61,130.99L43.78,130.92L45.87,129.68L47.95,127.85L50.04,110.27L54.21,67.91L56.29,67.19L60.46,67.49L62.55,104.45L70.89,102.41L72.97,100.8L75.06,99.49L77.14,99.38L81.31,99.84L83.4,94.91L85.48,96.27L87.57,95.21L89.65,94.79L91.74,122.24L93.82,124.37L95.91,123.96L97.99,123.77L100.08,122.44L102.16,121.37L104.25,126.27L106.33,126.06L108.42,129.53L110.5,123.56L112.59,132.2L114.67,130.97L116.76,130.75L118.84,156.18L120.93,145.2L123.01,144.83L125.1,143.67L129.27,142.59L131.35,142.26L133.44,141.83L135.52,131.72L139.69,130.87L141.78,129.14L145.95,126.87L148.03,126.32L150.12,126.13L152.2,143.14L154.29,142.05L156.37,142L166.8,141.29L168.88,139.98L170.97,139.8L173.05,141.54L175.14,150.12L177.22,139.34L179.31,141.52L181.39,141.39L191.81,139.92L193.9,139.65L198.07,140.11L200.15,139.16L204.32,138.12L206.41,137.98L210.58,137.7L212.66,146.92L218.92,145.91L221,145.4L231.43,144.32L233.51,144.98L235.6,146.46L237.68,146.36L239.77,146.28L241.85,149.02L248.11,148.83L250.19,148.74L252.28,149.33L254.36,149.1L256.45,150.67L258.53,156.53L264.79,155.53L266.87,146.85L268.96,145.41L271.04,145.5L273.13,145.06L275.21,142.05L281.47,135.61L283.55,135.19L291.89,133.28L293.98,131.9L296.06,132L298.15,140.1L300.23,139.86L302.32,137.67L304.4,136.65L306.49,133.58L308.57,117.42L310.66,123.99L314.83,123.17L316.91,114.87L319,113.9L321.08,109.31L323.17,119.16L325.25,116.09L327.34,102.75L329.42,101.96L331.51,70.51L333.59,70.37L335.68,71.45L337.76,71.01L339.85,102.19L341.93,102.24L344.02,48.19L346.1,44.32L348.19,42.65L350.27,34.55L354.44,23.3L356.53,20.91L358.61,19.12L360.69,19L362.78,18.3L364.86,16L366.95,18.45L369.03,24.82L371.12,24.41L373.2,35.88L375.29,34.54L377.37,35.51L381.54,34.22L383.63,44.1L385.71,45.16L387.8,44.73L389.88,43.79L391.97,45.4L396.14,44.95L398.22,48.3L400.31,52.61L402.39,52.27L404.48,49.94L406.56,49.54L410.73,50.12L412.82,97.34L414.9,97.18L416.99,97.79L421.16,98.48L423.24,98.59L425.33,98.55L427.41,100.08L448.26,99.08L450.35,98.14L462.86,97.57L464.94,97.42L467.03,96.99L469.11,98.13L496.22,96.06L498.3,101.4L500.39,107.04L502.47,107.64L506.64,107.5L508.73,108.2L529.58,107.25L531.66,112.6L540,112.95" style="fill: rgb(99, 110, 250); fill-opacity: 0.5; stroke-width: 0;"/></g></g><g class="errorbars"/><g class="lines"><path class="js-line" d="M0,235.73L2.08,235.33L4.17,214.73L6.25,168.89L8.34,149.61L10.42,142.32L12.51,138.57L14.59,139.06L16.68,137.97L18.76,131.61L20.85,131.38L27.1,129.62L29.19,132.8L37.53,132.12L39.61,130.99L43.78,130.92L45.87,129.68L47.95,127.85L50.04,110.27L54.21,67.91L56.29,67.19L60.46,67.49L62.55,104.45L70.89,102.41L72.97,100.8L75.06,99.49L77.14,99.38L81.31,99.84L83.4,94.91L85.48,96.27L87.57,95.21L89.65,94.79L91.74,122.24L93.82,124.37L95.91,123.96L97.99,123.77L100.08,122.44L102.16,121.37L104.25,126.27L106.33,126.06L108.42,129.53L110.5,123.56L112.59,132.2L114.67,130.97L116.76,130.75L118.84,156.18L120.93,145.2L123.01,144.83L125.1,143.67L129.27,142.59L131.35,142.26L133.44,141.83L135.52,131.72L139.69,130.87L141.78,129.14L145.95,126.87L148.03,126.32L150.12,126.13L152.2,143.14L154.29,142.05L156.37,142L166.8,141.29L168.88,139.98L170.97,139.8L173.05,141.54L175.14,150.12L177.22,139.34L179.31,141.52L181.39,141.39L191.81,139.92L193.9,139.65L198.07,140.11L200.15,139.16L204.32,138.12L206.41,137.98L210.58,137.7L212.66,146.92L218.92,145.91L221,145.4L231.43,144.32L233.51,144.98L235.6,146.46L237.68,146.36L239.77,146.28L241.85,149.02L248.11,148.83L250.19,148.74L252.28,149.33L254.36,149.1L256.45,150.67L258.53,156.53L264.79,155.53L266.87,146.85L268.96,145.41L271.04,145.5L273.13,145.06L275.21,142.05L281.47,135.61L283.55,135.19L291.89,133.28L293.98,131.9L296.06,132L298.15,140.1L300.23,139.86L302.32,137.67L304.4,136.65L306.49,133.58L308.57,117.42L310.66,123.99L314.83,123.17L316.91,114.87L319,113.9L321.08,109.31L323.17,119.16L325.25,116.09L327.34,102.75L329.42,101.96L331.51,70.51L333.59,70.37L335.68,71.45L337.76,71.01L339.85,102.19L341.93,102.24L344.02,48.19L346.1,44.32L348.19,42.65L350.27,34.55L354.44,23.3L356.53,20.91L358.61,19.12L360.69,19L362.78,18.3L364.86,16L366.95,18.45L369.03,24.82L371.12,24.41L373.2,35.88L375.29,34.54L377.37,35.51L381.54,34.22L383.63,44.1L385.71,45.16L387.8,44.73L389.88,43.79L391.97,45.4L396.14,44.95L398.22,48.3L400.31,52.61L402.39,52.27L404.48,49.94L406.56,49.54L410.73,50.12L412.82,97.34L414.9,97.18L416.99,97.79L421.16,98.48L423.24,98.59L425.33,98.55L427.41,100.08L448.26,99.08L450.35,98.14L462.86,97.57L464.94,97.42L467.03,96.99L469.11,98.13L496.22,96.06L498.3,101.4L500.39,107.04L502.47,107.64L506.64,107.5L508.73,108.2L529.58,107.25L531.66,112.6L540,112.95" style="vector-effect: none; fill: none; stroke: rgb(99, 110, 250); stroke-opacity: 1; stroke-width: 2px; opacity: 1;"/></g><g class="points"/><g class="text"/></g></g></g><g class="overplot"/><path class="xlines-above crisp" d="M0,0" style="fill: none;"/><path class="ylines-above crisp" d="M0,0" style="fill: none;"/><g class="overlines-above"/><g class="xaxislayer-above"><g class="xtick"><text text-anchor="middle" x="0" y="433" transform="translate(182.16,0)" style="font-family: 'Open Sans', verdana, arial, sans-serif; font-size: 12px; fill: rgb(42, 63, 95); fill-opacity: 1; white-space: pre; opacity: 1;">Nov 2022</text></g><g class="xtick"><text text-anchor="middle" x="0" y="433" style="font-family: 'Open Sans', verdana, arial, sans-serif; font-size: 12px; fill: rgb(42, 63, 95); fill-opacity: 1; white-space: pre; opacity: 1;" transform="translate(309.34000000000003,0)">Jan 2023</text></g><g class="xtick"><text text-anchor="middle" x="0" y="433" style="font-family: 'Open Sans', verdana, arial, sans-serif; font-size: 12px; fill: rgb(42, 63, 95); fill-opacity: 1; white-space: pre; opacity: 1;" transform="translate(432.36,0)">Mar 2023</text></g><g class="xtick"><text text-anchor="middle" x="0" y="433" style="font-family: 'Open Sans', verdana, arial, sans-serif; font-size: 12px; fill: rgb(42, 63, 95); fill-opacity: 1; white-space: pre; opacity: 1;" transform="translate(559.54,0)">May 2023</text></g></g><g class="yaxislayer-above"><g class="ytick"><text text-anchor="end" x="79" y="4.199999999999999" transform="translate(0,420)" style="font-family: 'Open Sans', verdana, arial, sans-serif; font-size: 12px; fill: rgb(42, 63, 95); fill-opacity: 1; white-space: pre; opacity: 1;">$0</text></g><g class="ytick"><text text-anchor="end" x="79" y="4.199999999999999" style="font-family: 'Open Sans', verdana, arial, sans-serif; font-size: 12px; fill: rgb(42, 63, 95); fill-opacity: 1; white-space: pre; opacity: 1;" transform="translate(0,362.31)">$100k</text></g><g class="ytick"><text text-anchor="end" x="79" y="4.199999999999999" style="font-family: 'Open Sans', verdana, arial, sans-serif; font-size: 12px; fill: rgb(42, 63, 95); fill-opacity: 1; white-space: pre; opacity: 1;" transform="translate(0,304.62)">$200k</text></g><g class="ytick"><text text-anchor="end" x="79" y="4.199999999999999" style="font-family: 'Open Sans', verdana, arial, sans-serif; font-size: 12px; fill: rgb(42, 63, 95); fill-opacity: 1; white-space: pre; opacity: 1;" transform="translate(0,246.93)">$300k</text></g><g class="ytick"><text text-anchor="end" x="79" y="4.199999999999999" style="font-family: 'Open Sans', verdana, arial, sans-serif; font-size: 12px; fill: rgb(42, 63, 95); fill-opacity: 1; white-space: pre; opacity: 1;" transform="translate(0,189.24)">$400k</text></g><g class="ytick"><text text-anchor="end" x="79" y="4.199999999999999" style="font-family: 'Open Sans', verdana, arial, sans-serif; font-size: 12px; fill: rgb(42, 63, 95); fill-opacity: 1; white-space: pre; opacity: 1;" transform="translate(0,131.55)">$500k</text></g></g><g class="overaxes-above"/></g></g><g class="polarlayer"/><g class="smithlayer"/><g class="ternarylayer"/><g class="geolayer"/><g class="funnelarealayer"/><g class="pielayer"/><g class="iciclelayer"/><g class="treemaplayer"/><g class="sunburstlayer"/><g class="glimages"/><defs id="topdefs-fb8aae"><g class="clips"/></defs><g class="layer-above"><g class="imagelayer"/><g class="shapelayer"/></g><g class="infolayer"><g class="g-gtitle"><text class="gtitle" x="35" y="50" text-anchor="start" dy="0em" style="font-family: 'Open Sans', verdana, arial, sans-serif; font-size: 17px; fill: rgb(42, 63, 95); opacity: 1; font-weight: normal; white-space: pre;"><tspan class="line" dy="0em" x="35" y="50">Beefy - BIFI/OP: Velodrome</tspan><tspan class="line" dy="1.3em" x="35" y="50">​<tspan style="font-size:70%" dy="-0.6em">Cumulative Net Flows since Program Announcement, Until Program End + 30 Days - At Last Price</tspan><tspan dy="0.42em">​</tspan></tspan></text></g><g class="g-xtitle"><text class="xtitle" x="350" y="460.3" text-anchor="middle" style="font-family: 'Open Sans', verdana, arial, sans-serif; font-size: 14px; fill: rgb(42, 63, 95); opacity: 1; font-weight: normal; white-space: pre;">Day</text></g><g class="g-ytitle"><text class="ytitle" transform="rotate(-90,21.996875000000003,260)" x="21.996875000000003" y="260" text-anchor="middle" style="font-family: 'Open Sans', verdana, arial, sans-serif; font-size: 14px; fill: rgb(42, 63, 95); opacity: 1; font-weight: normal; white-space: pre;">Cumulative Net Flows (USD)</text></g></g></svg>