<svg class="main-svg" xmlns="http://www.w3.org/2000/svg" xmlns:xlink="http://www.w3.org/1999/xlink" width="700" height="500" style="" viewBox="0 0 700 500"><rect x="0" y="0" width="700" height="500" style="fill: rgb(255, 255, 255); fill-opacity: 1;"/><defs id="defs-dbc39c"><g class="clips"><clipPath id="clipdbc39cxyplot" class="plotclip"><rect width="540" height="320"/></clipPath><clipPath class="axesclip" id="clipdbc39cx"><rect x="80" y="0" width="540" height="500"/></clipPath><clipPath class="axesclip" id="clipdbc39cy"><rect x="0" y="100" width="700" height="320"/></clipPath><clipPath class="axesclip" id="clipdbc39cxy"><rect x="80" y="100" width="540" height="320"/></clipPath></g><g class="gradients"/><g class="patterns"/></defs><g class="bglayer"><rect class="bg" x="80" y="100" width="540" height="320" style="fill: rgb(229, 236, 246); fill-opacity: 1; stroke-width: 0;"/></g><g class="layer-below"><g class="imagelayer"/><g class="shapelayer"/></g><g class="cartesianlayer"><g class="subplot xy"><g class="layer-subplot"><g class="shapelayer"/><g class="imagelayer"/></g><g class="minor-gridlayer"><g class="x"/><g class="y"/></g><g class="gridlayer"><g class="x"><path class="xgrid crisp" transform="translate(120.91,0)" d="M0,100v320" style="stroke: rgb(255, 255, 255); stroke-opacity: 1; stroke-width: 1px;"/><path class="xgrid crisp" transform="translate(204.09,0)" d="M0,100v320" style="stroke: rgb(255, 255, 255); stroke-opacity: 1; stroke-width: 1px;"/><path class="xgrid crisp" transform="translate(287.27,0)" d="M0,100v320" style="stroke: rgb(255, 255, 255); stroke-opacity: 1; stroke-width: 1px;"/><path class="xgrid crisp" transform="translate(367.73,0)" d="M0,100v320" style="stroke: rgb(255, 255, 255); stroke-opacity: 1; stroke-width: 1px;"/><path class="xgrid crisp" transform="translate(450.91,0)" d="M0,100v320" style="stroke: rgb(255, 255, 255); stroke-opacity: 1; stroke-width: 1px;"/><path class="xgrid crisp" transform="translate(534.0899999999999,0)" d="M0,100v320" style="stroke: rgb(255, 255, 255); stroke-opacity: 1; stroke-width: 1px;"/><path class="xgrid crisp" transform="translate(618.64,0)" d="M0,100v320" style="stroke: rgb(255, 255, 255); stroke-opacity: 1; stroke-width: 1px;"/></g><g class="y"><path class="ygrid crisp" transform="translate(0,303.46000000000004)" d="M80,0h540" style="stroke: rgb(255, 255, 255); stroke-opacity: 1; stroke-width: 1px;"/><path class="ygrid crisp" transform="translate(0,217.53)" d="M80,0h540" style="stroke: rgb(255, 255, 255); stroke-opacity: 1; stroke-width: 1px;"/><path class="ygrid crisp" transform="translate(0,131.61)" d="M80,0h540" style="stroke: rgb(255, 255, 255); stroke-opacity: 1; stroke-width: 1px;"/></g></g><g class="zerolinelayer"><path class="yzl zl crisp" transform="translate(0,389.38)" d="M80,0h540" style="stroke: rgb(255, 255, 255); stroke-opacity: 1; stroke-width: 2px;"/></g><path class="xlines-below"/><path class="ylines-below"/><g class="overlines-below"/><g class="xaxislayer-below"/><g class="yaxislayer-below"/><g class="overaxes-below"/><g class="plot" transform="translate(80,100)" clip-path="url(#clipdbc39cxyplot)"><g class="scatterlayer mlayer"><g class="trace scatter trace937e28" style="stroke-miterlimit: 2;"><g class="fills"><g><path class="js-fill" d="M540,289.38L0,289.38L0,289.04L1.36,257.67L2.73,182.86L4.09,151L5.45,143.24L6.82,131.08L8.18,111.17L9.55,100.91L10.91,51.9L13.64,47.28L15,32.29L16.36,26.9L17.73,25.42L19.09,17.93L20.45,38.42L21.82,16L23.18,16.5L24.55,17.2L25.91,28.26L30,35.28L31.36,43.33L32.73,44.53L34.09,38.88L35.45,38.45L36.82,39.86L38.18,43.89L39.55,44.79L40.91,42.42L42.27,42.65L43.64,54.96L45,55.05L46.36,54.87L47.73,56.67L49.09,58.46L50.45,63.9L51.82,64.77L53.18,75.08L58.64,103.87L60,108.25L61.36,99.99L62.73,60.21L64.09,58.8L65.45,47.66L66.82,50.69L68.18,48.79L69.55,48.38L70.91,57.26L72.27,37.94L73.64,35.03L75,27.24L76.36,26.28L77.73,28.2L79.09,32.27L80.45,31.24L81.82,28.94L83.18,25.77L84.55,25.91L85.91,25.43L87.27,30.75L90,35.87L91.36,32.15L92.73,30.24L94.09,38.43L95.45,43.27L96.82,41.82L98.18,40.73L99.55,43.33L100.91,42.15L102.27,38.08L103.64,66.52L105,73.76L107.73,76.34L109.09,77.2L110.45,109.18L111.82,106.87L114.55,117.97L115.91,141.96L117.27,164.81L118.64,158.49L120,135.2L121.36,136L122.73,140.72L124.09,139.83L126.82,143.82L128.18,137.55L129.55,140.05L130.91,136.15L132.27,135.95L133.64,131.45L135,133.65L136.36,142.19L137.73,142.03L139.09,133.06L140.45,137.61L141.82,136.48L143.18,161.63L144.55,163.12L145.91,163.42L147.27,162.83L148.64,153.47L150,150.06L154.09,141.02L155.45,151.96L156.82,157.45L158.18,157.71L159.55,159.91L160.91,160.51L162.27,154.46L163.64,161.39L165,169.95L166.36,169.32L167.73,160.34L169.09,158.53L170.45,161.82L171.82,158.67L173.18,157.97L174.55,155.74L175.91,158.34L177.27,167.01L178.64,166.35L180,167.27L181.36,168.91L182.73,173L185.45,165.24L186.82,166.72L188.18,164.17L189.55,163.89L190.91,161.55L192.27,173.47L193.64,176.38L195,177.3L197.73,178.79L199.09,177.65L200.45,176.01L201.82,178.36L204.55,177.87L205.91,186.12L207.27,186.34L208.64,183.89L211.36,185.48L212.73,189.34L214.09,190.47L215.45,187.89L219.55,192.53L220.91,195.76L222.27,197.08L223.64,173.84L225,173.97L226.36,176.37L227.73,174.02L229.09,173.19L233.18,164.32L234.55,169.75L235.91,166.67L237.27,165.83L238.64,158.25L240,155.88L241.36,158.78L242.73,147.62L244.09,153.95L245.45,149.14L246.82,153.06L248.18,148.55L249.55,151.29L250.91,148.58L252.27,147.81L253.64,149.05L255,156.98L256.36,158.9L259.09,157.85L260.45,154.62L261.82,152.91L263.18,157.4L264.55,154.5L265.91,155.79L267.27,160.2L268.64,160.59L270,162.89L271.36,168.53L274.09,167.22L275.45,169.14L278.18,168.25L279.55,165.51L280.91,164.46L282.27,157.34L283.64,156.66L285,159.89L286.36,157.91L287.73,159.53L290.45,162.47L291.82,161.6L293.18,160.51L294.55,164.92L297.27,167.58L298.64,166.46L300,166.3L301.36,177.53L304.09,183.04L305.45,189.85L306.82,187.86L308.18,199.29L309.55,199.69L310.91,196.76L312.27,197.78L313.64,201.19L317.73,205.49L319.09,209.45L320.45,198.53L321.82,197.2L323.18,198.38L324.55,197.63L325.91,199.33L327.27,203.4L328.64,213.39L330,209.92L331.36,209.71L332.73,208.1L334.09,206.47L335.45,209.78L336.82,210.54L338.18,209.63L339.55,210.82L340.91,208.51L343.64,209.77L345,210.2L346.36,210.16L347.73,211.23L349.09,210.96L350.45,209.89L351.82,211.78L353.18,211.39L354.55,210.43L355.91,208.38L357.27,206.14L358.64,215.21L361.36,216.82L362.73,217.92L364.09,218.18L365.45,219.78L366.82,219.79L368.18,217.32L370.91,217.39L372.27,217.57L376.36,221.26L377.73,220.84L379.09,223.32L380.45,224.21L383.18,226.11L384.55,225.27L385.91,224.35L387.27,233.93L388.64,231.35L390,233.15L391.36,232.42L392.73,234.14L395.45,235.27L396.82,238.77L398.18,239.11L399.55,243.85L403.64,304L405,204.55L406.36,204.04L407.73,204.45L409.09,204.04L410.45,202.65L411.82,204.14L413.18,203.98L414.55,202.76L415.91,203.2L418.64,205.01L420,205.14L421.36,243.32L422.73,247.49L424.09,246.15L425.45,247.98L428.18,251.3L429.55,251.28L430.91,251.4L432.27,255.03L433.64,255.77L435,255.43L436.36,255.63L437.73,254.91L439.09,253.83L440.45,249.42L443.18,249.05L444.55,252.22L447.27,248.74L448.64,246.07L450,243.84L451.36,251.5L452.73,248.11L454.09,254.33L456.82,254.63L458.18,254.42L459.55,254.96L460.91,258.33L462.27,257.82L463.64,260.95L466.36,259.85L467.73,259.93L470.45,259.53L471.82,260.23L473.18,254.64L474.55,255.87L475.91,262.32L477.27,262.48L478.64,264.98L480,263.17L482.73,262.21L484.09,261.06L485.45,260.1L486.82,263.12L488.18,264.03L489.55,259.17L490.91,257.86L492.27,258.67L493.64,258.05L495,258.45L496.36,258.07L497.73,254.84L499.09,254.84L500.45,260.29L501.82,261L503.18,260.29L504.55,263.98L505.91,262.6L508.64,255.94L510,255.58L512.73,263.02L514.09,263.72L518.18,264.01L519.55,269.27L520.91,272.8L522.27,271L523.64,271.55L525,270.75L526.36,268.62L527.73,269.04L529.09,270.21L530.45,259.55L531.82,258.07L533.18,265.86L534.55,266.29L535.91,265.23L537.27,263.26L538.64,272.79L540,272.04" style="fill: rgb(99, 110, 250); fill-opacity: 0.5; stroke-width: 0;"/></g></g><g class="errorbars"/><g class="lines"><path class="js-line" d="M0,289.04L1.36,257.67L2.73,182.86L4.09,151L5.45,143.24L6.82,131.08L8.18,111.17L9.55,100.91L10.91,51.9L13.64,47.28L15,32.29L16.36,26.9L17.73,25.42L19.09,17.93L20.45,38.42L21.82,16L23.18,16.5L24.55,17.2L25.91,28.26L30,35.28L31.36,43.33L32.73,44.53L34.09,38.88L35.45,38.45L36.82,39.86L38.18,43.89L39.55,44.79L40.91,42.42L42.27,42.65L43.64,54.96L45,55.05L46.36,54.87L47.73,56.67L49.09,58.46L50.45,63.9L51.82,64.77L53.18,75.08L58.64,103.87L60,108.25L61.36,99.99L62.73,60.21L64.09,58.8L65.45,47.66L66.82,50.69L68.18,48.79L69.55,48.38L70.91,57.26L72.27,37.94L73.64,35.03L75,27.24L76.36,26.28L77.73,28.2L79.09,32.27L80.45,31.24L81.82,28.94L83.18,25.77L84.55,25.91L85.91,25.43L87.27,30.75L90,35.87L91.36,32.15L92.73,30.24L94.09,38.43L95.45,43.27L96.82,41.82L98.18,40.73L99.55,43.33L100.91,42.15L102.27,38.08L103.64,66.52L105,73.76L107.73,76.34L109.09,77.2L110.45,109.18L111.82,106.87L114.55,117.97L115.91,141.96L117.27,164.81L118.64,158.49L120,135.2L121.36,136L122.73,140.72L124.09,139.83L126.82,143.82L128.18,137.55L129.55,140.05L130.91,136.15L132.27,135.95L133.64,131.45L135,133.65L136.36,142.19L137.73,142.03L139.09,133.06L140.45,137.61L141.82,136.48L143.18,161.63L144.55,163.12L145.91,163.42L147.27,162.83L148.64,153.47L150,150.06L154.09,141.02L155.45,151.96L156.82,157.45L158.18,157.71L159.55,159.91L160.91,160.51L162.27,154.46L163.64,161.39L165,169.95L166.36,169.32L167.73,160.34L169.09,158.53L170.45,161.82L171.82,158.67L173.18,157.97L174.55,155.74L175.91,158.34L177.27,167.01L178.64,166.35L180,167.27L181.36,168.91L182.73,173L185.45,165.24L186.82,166.72L188.18,164.17L189.55,163.89L190.91,161.55L192.27,173.47L193.64,176.38L195,177.3L197.73,178.79L199.09,177.65L200.45,176.01L201.82,178.36L204.55,177.87L205.91,186.12L207.27,186.34L208.64,183.89L211.36,185.48L212.73,189.34L214.09,190.47L215.45,187.89L219.55,192.53L220.91,195.76L222.27,197.08L223.64,173.84L225,173.97L226.36,176.37L227.73,174.02L229.09,173.19L233.18,164.32L234.55,169.75L235.91,166.67L237.27,165.83L238.64,158.25L240,155.88L241.36,158.78L242.73,147.62L244.09,153.95L245.45,149.14L246.82,153.06L248.18,148.55L249.55,151.29L250.91,148.58L252.27,147.81L253.64,149.05L255,156.98L256.36,158.9L259.09,157.85L260.45,154.62L261.82,152.91L263.18,157.4L264.55,154.5L265.91,155.79L267.27,160.2L268.64,160.59L270,162.89L271.36,168.53L274.09,167.22L275.45,169.14L278.18,168.25L279.55,165.51L280.91,164.46L282.27,157.34L283.64,156.66L285,159.89L286.36,157.91L287.73,159.53L290.45,162.47L291.82,161.6L293.18,160.51L294.55,164.92L297.27,167.58L298.64,166.46L300,166.3L301.36,177.53L304.09,183.04L305.45,189.85L306.82,187.86L308.18,199.29L309.55,199.69L310.91,196.76L312.27,197.78L313.64,201.19L317.73,205.49L319.09,209.45L320.45,198.53L321.82,197.2L323.18,198.38L324.55,197.63L325.91,199.33L327.27,203.4L328.64,213.39L330,209.92L331.36,209.71L332.73,208.1L334.09,206.47L335.45,209.78L336.82,210.54L338.18,209.63L339.55,210.82L340.91,208.51L343.64,209.77L345,210.2L346.36,210.16L347.73,211.23L349.09,210.96L350.45,209.89L351.82,211.78L353.18,211.39L354.55,210.43L355.91,208.38L357.27,206.14L358.64,215.21L361.36,216.82L362.73,217.92L364.09,218.18L365.45,219.78L366.82,219.79L368.18,217.32L370.91,217.39L372.27,217.57L376.36,221.26L377.73,220.84L379.09,223.32L380.45,224.21L383.18,226.11L384.55,225.27L385.91,224.35L387.27,233.93L388.64,231.35L390,233.15L391.36,232.42L392.73,234.14L395.45,235.27L396.82,238.77L398.18,239.11L399.55,243.85L403.64,304L405,204.55L406.36,204.04L407.73,204.45L409.09,204.04L410.45,202.65L411.82,204.14L413.18,203.98L414.55,202.76L415.91,203.2L418.64,205.01L420,205.14L421.36,243.32L422.73,247.49L424.09,246.15L425.45,247.98L428.18,251.3L429.55,251.28L430.91,251.4L432.27,255.03L433.64,255.77L435,255.43L436.36,255.63L437.73,254.91L439.09,253.83L440.45,249.42L443.18,249.05L444.55,252.22L447.27,248.74L448.64,246.07L450,243.84L451.36,251.5L452.73,248.11L454.09,254.33L456.82,254.63L458.18,254.42L459.55,254.96L460.91,258.33L462.27,257.82L463.64,260.95L466.36,259.85L467.73,259.93L470.45,259.53L471.82,260.23L473.18,254.64L474.55,255.87L475.91,262.32L477.27,262.48L478.64,264.98L480,263.17L482.73,262.21L484.09,261.06L485.45,260.1L486.82,263.12L488.18,264.03L489.55,259.17L490.91,257.86L492.27,258.67L493.64,258.05L495,258.45L496.36,258.07L497.73,254.84L499.09,254.84L500.45,260.29L501.82,261L503.18,260.29L504.55,263.98L505.91,262.6L508.64,255.94L510,255.58L512.73,263.02L514.09,263.72L518.18,264.01L519.55,269.27L520.91,272.8L522.27,271L523.64,271.55L525,270.75L526.36,268.62L527.73,269.04L529.09,270.21L530.45,259.55L531.82,258.07L533.18,265.86L534.55,266.29L535.91,265.23L537.27,263.26L538.64,272.79L540,272.04" style="vector-effect: none; fill: none; stroke: rgb(99, 110, 250); stroke-opacity: 1; stroke-width: 2px; opacity: 1;"/></g><g class="points"/><g class="text"/></g></g></g><g class="overplot"/><path class="xlines-above crisp" d="M0,0" style="fill: none;"/><path class="ylines-above crisp" d="M0,0" style="fill: none;"/><g class="overlines-above"/><g class="xaxislayer-above"><g class="xtick"><text text-anchor="middle" x="0" y="433" transform="translate(120.91,0)" style="font-family: 'Open Sans', verdana, arial, sans-serif; font-size: 12px; fill: rgb(42, 63, 95); fill-opacity: 1; white-space: pre; opacity: 1;">Sep 2022</text></g><g class="xtick"><text text-anchor="middle" x="0" y="433" style="font-family: 'Open Sans', verdana, arial, sans-serif; font-size: 12px; fill: rgb(42, 63, 95); fill-opacity: 1; white-space: pre; opacity: 1;" transform="translate(204.09,0)">Nov 2022</text></g><g class="xtick"><text text-anchor="middle" x="0" y="433" style="font-family: 'Open Sans', verdana, arial, sans-serif; font-size: 12px; fill: rgb(42, 63, 95); fill-opacity: 1; white-space: pre; opacity: 1;" transform="translate(287.27,0)">Jan 2023</text></g><g class="xtick"><text text-anchor="middle" x="0" y="433" style="font-family: 'Open Sans', verdana, arial, sans-serif; font-size: 12px; fill: rgb(42, 63, 95); fill-opacity: 1; white-space: pre; opacity: 1;" transform="translate(367.73,0)">Mar 2023</text></g><g class="xtick"><text text-anchor="middle" x="0" y="433" style="font-family: 'Open Sans', verdana, arial, sans-serif; font-size: 12px; fill: rgb(42, 63, 95); fill-opacity: 1; white-space: pre; opacity: 1;" transform="translate(450.91,0)">May 2023</text></g><g class="xtick"><text text-anchor="middle" x="0" y="433" style="font-family: 'Open Sans', verdana, arial, sans-serif; font-size: 12px; fill: rgb(42, 63, 95); fill-opacity: 1; white-space: pre; opacity: 1;" transform="translate(534.0899999999999,0)">Jul 2023</text></g><g class="xtick"><text text-anchor="middle" x="0" y="433" style="font-family: 'Open Sans', verdana, arial, sans-serif; font-size: 12px; fill: rgb(42, 63, 95); fill-opacity: 1; white-space: pre; opacity: 1;" transform="translate(618.64,0)">Sep 2023</text></g></g><g class="yaxislayer-above"><g class="ytick"><text text-anchor="end" x="79" y="4.199999999999999" transform="translate(0,389.38)" style="font-family: 'Open Sans', verdana, arial, sans-serif; font-size: 12px; fill: rgb(42, 63, 95); fill-opacity: 1; white-space: pre; opacity: 1;">$0</text></g><g class="ytick"><text text-anchor="end" x="79" y="4.199999999999999" style="font-family: 'Open Sans', verdana, arial, sans-serif; font-size: 12px; fill: rgb(42, 63, 95); fill-opacity: 1; white-space: pre; opacity: 1;" transform="translate(0,303.46000000000004)">$5M</text></g><g class="ytick"><text text-anchor="end" x="79" y="4.199999999999999" style="font-family: 'Open Sans', verdana, arial, sans-serif; font-size: 12px; fill: rgb(42, 63, 95); fill-opacity: 1; white-space: pre; opacity: 1;" transform="translate(0,217.53)">$10M</text></g><g class="ytick"><text text-anchor="end" x="79" y="4.199999999999999" style="font-family: 'Open Sans', verdana, arial, sans-serif; font-size: 12px; fill: rgb(42, 63, 95); fill-opacity: 1; white-space: pre; opacity: 1;" transform="translate(0,131.61)">$15M</text></g></g><g class="overaxes-above"/></g></g><g class="polarlayer"/><g class="smithlayer"/><g class="ternarylayer"/><g class="geolayer"/><g class="funnelarealayer"/><g class="pielayer"/><g class="iciclelayer"/><g class="treemaplayer"/><g class="sunburstlayer"/><g class="glimages"/><defs id="topdefs-dbc39c"><g class="clips"/></defs><g class="layer-above"><g class="imagelayer"/><g class="shapelayer"/></g><g class="infolayer"><g class="g-gtitle"><text class="gtitle" x="35" y="50" text-anchor="start" dy="0em" style="font-family: 'Open Sans', verdana, arial, sans-serif; font-size: 17px; fill: rgb(42, 63, 95); opacity: 1; font-weight: normal; white-space: pre;"><tspan class="line" dy="0em" x="35" y="50">Lyra</tspan><tspan class="line" dy="1.3em" x="35" y="50">​<tspan style="font-size:70%" dy="-0.6em">Cumulative Net Flows since Program Announcement, Until Program End + 30 Days - At Last Price</tspan><tspan dy="0.42em">​</tspan></tspan></text></g><g class="g-xtitle"><text class="xtitle" x="350" y="460.3" text-anchor="middle" style="font-family: 'Open Sans', verdana, arial, sans-serif; font-size: 14px; fill: rgb(42, 63, 95); opacity: 1; font-weight: normal; white-space: pre;">Day</text></g><g class="g-ytitle"><text class="ytitle" transform="rotate(-90,24.668750000000003,260)" x="24.668750000000003" y="260" text-anchor="middle" style="font-family: 'Open Sans', verdana, arial, sans-serif; font-size: 14px; fill: rgb(42, 63, 95); opacity: 1; font-weight: normal; white-space: pre;">Cumulative Net Flows (USD)</text></g></g></svg>