<svg class="main-svg" xmlns="http://www.w3.org/2000/svg" xmlns:xlink="http://www.w3.org/1999/xlink" width="700" height="500" style="" viewBox="0 0 700 500"><rect x="0" y="0" width="700" height="500" style="fill: rgb(255, 255, 255); fill-opacity: 1;"/><defs id="defs-d65666"><g class="clips"><clipPath id="clipd65666xyplot" class="plotclip"><rect width="540" height="320"/></clipPath><clipPath class="axesclip" id="clipd65666x"><rect x="80" y="0" width="540" height="500"/></clipPath><clipPath class="axesclip" id="clipd65666y"><rect x="0" y="100" width="700" height="320"/></clipPath><clipPath class="axesclip" id="clipd65666xy"><rect x="80" y="100" width="540" height="320"/></clipPath></g><g class="gradients"/><g class="patterns"/></defs><g class="bglayer"><rect class="bg" x="80" y="100" width="540" height="320" style="fill: rgb(229, 236, 246); fill-opacity: 1; stroke-width: 0;"/></g><g class="layer-below"><g class="imagelayer"/><g class="shapelayer"/></g><g class="cartesianlayer"><g class="subplot xy"><g class="layer-subplot"><g class="shapelayer"/><g class="imagelayer"/></g><g class="minor-gridlayer"><g class="x"/><g class="y"/></g><g class="gridlayer"><g class="x"><path class="xgrid crisp" transform="translate(84.23,0)" d="M0,100v320" style="stroke: rgb(255, 255, 255); stroke-opacity: 1; stroke-width: 1px;"/><path class="xgrid crisp" transform="translate(170.23000000000002,0)" d="M0,100v320" style="stroke: rgb(255, 255, 255); stroke-opacity: 1; stroke-width: 1px;"/><path class="xgrid crisp" transform="translate(256.24,0)" d="M0,100v320" style="stroke: rgb(255, 255, 255); stroke-opacity: 1; stroke-width: 1px;"/><path class="xgrid crisp" transform="translate(339.43,0)" d="M0,100v320" style="stroke: rgb(255, 255, 255); stroke-opacity: 1; stroke-width: 1px;"/><path class="xgrid crisp" transform="translate(425.43,0)" d="M0,100v320" style="stroke: rgb(255, 255, 255); stroke-opacity: 1; stroke-width: 1px;"/><path class="xgrid crisp" transform="translate(511.44,0)" d="M0,100v320" style="stroke: rgb(255, 255, 255); stroke-opacity: 1; stroke-width: 1px;"/><path class="xgrid crisp" transform="translate(598.85,0)" d="M0,100v320" style="stroke: rgb(255, 255, 255); stroke-opacity: 1; stroke-width: 1px;"/></g><g class="y"><path class="ygrid crisp" transform="translate(0,377.8)" d="M80,0h540" style="stroke: rgb(255, 255, 255); stroke-opacity: 1; stroke-width: 1px;"/><path class="ygrid crisp" transform="translate(0,335.6)" d="M80,0h540" style="stroke: rgb(255, 255, 255); stroke-opacity: 1; stroke-width: 1px;"/><path class="ygrid crisp" transform="translate(0,293.4)" d="M80,0h540" style="stroke: rgb(255, 255, 255); stroke-opacity: 1; stroke-width: 1px;"/><path class="ygrid crisp" transform="translate(0,251.2)" d="M80,0h540" style="stroke: rgb(255, 255, 255); stroke-opacity: 1; stroke-width: 1px;"/><path class="ygrid crisp" transform="translate(0,208.99)" d="M80,0h540" style="stroke: rgb(255, 255, 255); stroke-opacity: 1; stroke-width: 1px;"/><path class="ygrid crisp" transform="translate(0,166.79000000000002)" d="M80,0h540" style="stroke: rgb(255, 255, 255); stroke-opacity: 1; stroke-width: 1px;"/><path class="ygrid crisp" transform="translate(0,124.59)" d="M80,0h540" style="stroke: rgb(255, 255, 255); stroke-opacity: 1; stroke-width: 1px;"/></g></g><g class="zerolinelayer"><path class="yzl zl crisp" transform="translate(0,420)" d="M80,0h540" style="stroke: rgb(255, 255, 255); stroke-opacity: 1; stroke-width: 2px;"/></g><path class="xlines-below"/><path class="ylines-below"/><g class="overlines-below"/><g class="xaxislayer-below"/><g class="yaxislayer-below"/><g class="overaxes-below"/><g class="plot" transform="translate(80,100)" clip-path="url(#clipd65666xyplot)"><g class="scatterlayer mlayer"><g class="trace scatter trace32b36b" style="stroke-miterlimit: 2;"><g class="fills"><g><path class="js-fill" d="M540,320L0,320L0,319.92L5.64,317.46L7.05,315.49L9.87,314.13L11.28,293.5L15.51,240.54L16.92,237.13L18.33,234.63L19.74,229.86L21.15,214.27L22.56,209.57L25.38,208.66L26.79,188.54L28.2,190.75L29.61,179.48L31.02,180.53L32.43,164.57L33.84,156.38L35.25,153.12L36.66,136.32L38.07,134.04L39.48,131.52L40.89,143.4L42.3,151.91L43.71,149.66L45.12,149.37L46.53,146.17L49.35,144.86L50.76,135.72L52.17,140.32L53.58,135.9L54.99,132.64L56.4,133.19L59.22,135.19L60.63,133.14L62.04,131.76L63.45,134.68L64.86,136.17L66.27,135.27L67.68,132.51L69.09,133L70.5,134.67L71.91,134.94L73.32,133.97L74.73,135.71L78.96,136.22L80.37,142.1L83.19,142.53L84.6,136.72L90.23,132.62L91.64,128.75L93.05,127.65L94.46,130.45L95.87,132.49L97.28,131.09L101.51,126.4L102.92,134.55L104.33,144.05L105.74,142.96L107.15,141.16L108.56,147.21L109.97,154.09L111.38,152.91L112.79,154.29L114.2,157.57L115.61,158.39L117.02,157.7L119.84,156.55L121.25,154.65L122.66,159.73L124.07,159.12L125.48,159.34L126.89,158.41L128.3,157.07L129.71,162.17L132.53,161.73L133.94,161.67L135.35,160.53L136.76,160.72L138.17,160.69L139.58,158.83L140.99,162.45L142.4,162.8L143.81,159.98L145.22,161.66L146.63,167.55L148.04,167.54L149.45,164.24L150.86,164.26L152.27,162.73L153.68,159.44L155.09,164.57L156.5,162.64L157.91,163.29L159.32,162.87L160.73,162.37L162.14,162.71L163.55,161.22L164.96,184.56L167.78,183.61L169.19,183.96L170.6,185.54L172.01,185.16L173.42,182.45L174.83,181.37L176.24,180.13L177.65,183.35L180.47,182.43L181.88,175.24L184.7,169.35L186.11,167.76L187.52,168.64L188.93,164.73L190.34,159.43L191.75,158.77L193.16,158.21L194.57,148.34L195.98,143.69L197.39,145.01L198.8,144.58L200.21,144.97L201.62,144.57L203.03,136.63L204.44,136.73L205.85,130.4L207.26,125.93L208.67,126.31L210.08,126.16L211.49,128.05L214.31,123.85L215.72,123.65L217.13,124.44L218.54,120.99L219.95,126.49L221.36,119.54L225.59,104.28L227,106.54L228.41,106.08L229.82,67.59L232.64,64.96L234.05,67.82L235.46,72.71L236.87,73.65L238.28,71.13L239.69,72.26L241.1,70.3L242.51,72.07L243.92,71.97L245.33,74.6L246.74,71.74L248.15,88.87L250.97,90.04L252.38,83.1L255.2,71.57L256.61,66.75L259.43,54.39L260.84,64.18L262.25,63.67L263.66,64.49L266.48,62.75L267.89,62.76L269.3,65.31L270.7,56.66L272.11,58.75L273.52,64.14L274.93,96.14L276.34,90.34L277.75,81.48L279.16,43.4L280.57,41.49L281.98,33.98L283.39,33.23L284.8,35.33L286.21,60.98L287.62,59.94L289.03,64.32L290.44,64.95L291.85,67.68L293.26,68.49L294.67,68.44L296.08,72.59L297.49,73.48L298.9,71.53L300.31,72.52L301.72,72.24L303.13,84.21L304.54,83.8L305.95,83.2L307.36,80.17L310.18,80.21L311.59,87.93L313,90.22L314.41,90.35L315.82,86.93L317.23,90.51L321.46,88.67L322.87,84.3L324.28,84.33L325.69,83.1L327.1,80.85L328.51,84.3L331.33,83.91L332.74,82.43L334.15,35L335.56,34.25L338.38,27.69L339.79,30.4L341.2,29.42L342.61,31.16L345.43,31.37L346.84,29.97L348.25,27.43L349.66,90.07L352.48,87.24L353.89,79.98L355.3,87.89L356.71,88.67L358.12,88.06L359.53,88.6L360.94,81.29L362.35,80.68L363.76,65.86L365.17,64.54L366.58,67.99L367.99,60.7L369.4,62.06L370.81,61.61L372.22,62.48L373.63,60.61L375.04,60.28L376.45,63.03L377.86,65.19L379.27,65.49L380.68,63.89L382.09,70.81L383.5,66.98L384.91,68.96L386.32,70.57L387.73,73.73L389.14,66.83L390.55,16.31L394.78,16L396.19,16.41L399.01,20.34L400.42,19.4L401.83,22.53L403.24,21.44L406.06,20.37L407.47,21.46L411.7,25.09L413.11,24.65L417.34,28.68L418.75,29.9L421.57,31.43L422.98,30.51L424.39,31.93L425.8,32.26L428.62,36.06L430.03,41.8L431.44,40.64L432.85,42.77L434.26,41.73L435.67,44.61L437.08,45.35L438.49,66.72L439.9,84.53L441.31,82.93L442.72,81.8L444.13,231.44L445.54,231.74L446.95,238.7L448.36,190.91L449.77,193.47L452.58,197.28L453.99,211.95L455.4,211.42L456.81,213.65L459.63,214.37L461.04,211.68L462.45,211.34L463.86,209.29L465.27,211.59L466.68,212.1L468.09,216.74L469.5,216.66L470.91,220.47L472.32,220.08L473.73,221.77L475.14,228.58L477.96,213.87L479.37,213.11L483.6,212.13L485.01,203.97L486.42,204.02L487.83,201.41L493.47,201.83L494.88,201.25L497.7,201.68L499.11,204.3L500.52,201.78L501.93,201.79L504.75,200.49L506.16,201.18L507.57,202.45L508.98,200.52L513.21,201.57L514.62,201.84L517.44,201.06L518.85,202.87L521.67,203.03L523.08,202.9L524.49,203.06L525.9,204.13L528.72,202.56L530.13,203.04L534.36,200.31L535.77,201.29L537.18,209.98L538.59,209.58L540,209.61" style="fill: rgb(99, 110, 250); fill-opacity: 0.5; stroke-width: 0;"/></g></g><g class="errorbars"/><g class="lines"><path class="js-line" d="M0,319.92L5.64,317.46L7.05,315.49L9.87,314.13L11.28,293.5L15.51,240.54L16.92,237.13L18.33,234.63L19.74,229.86L21.15,214.27L22.56,209.57L25.38,208.66L26.79,188.54L28.2,190.75L29.61,179.48L31.02,180.53L32.43,164.57L33.84,156.38L35.25,153.12L36.66,136.32L38.07,134.04L39.48,131.52L40.89,143.4L42.3,151.91L43.71,149.66L45.12,149.37L46.53,146.17L49.35,144.86L50.76,135.72L52.17,140.32L53.58,135.9L54.99,132.64L56.4,133.19L59.22,135.19L60.63,133.14L62.04,131.76L63.45,134.68L64.86,136.17L66.27,135.27L67.68,132.51L69.09,133L70.5,134.67L71.91,134.94L73.32,133.97L74.73,135.71L78.96,136.22L80.37,142.1L83.19,142.53L84.6,136.72L90.23,132.62L91.64,128.75L93.05,127.65L94.46,130.45L95.87,132.49L97.28,131.09L101.51,126.4L102.92,134.55L104.33,144.05L105.74,142.96L107.15,141.16L108.56,147.21L109.97,154.09L111.38,152.91L112.79,154.29L114.2,157.57L115.61,158.39L117.02,157.7L119.84,156.55L121.25,154.65L122.66,159.73L124.07,159.12L125.48,159.34L126.89,158.41L128.3,157.07L129.71,162.17L132.53,161.73L133.94,161.67L135.35,160.53L136.76,160.72L138.17,160.69L139.58,158.83L140.99,162.45L142.4,162.8L143.81,159.98L145.22,161.66L146.63,167.55L148.04,167.54L149.45,164.24L150.86,164.26L152.27,162.73L153.68,159.44L155.09,164.57L156.5,162.64L157.91,163.29L159.32,162.87L160.73,162.37L162.14,162.71L163.55,161.22L164.96,184.56L167.78,183.61L169.19,183.96L170.6,185.54L172.01,185.16L173.42,182.45L174.83,181.37L176.24,180.13L177.65,183.35L180.47,182.43L181.88,175.24L184.7,169.35L186.11,167.76L187.52,168.64L188.93,164.73L190.34,159.43L191.75,158.77L193.16,158.21L194.57,148.34L195.98,143.69L197.39,145.01L198.8,144.58L200.21,144.97L201.62,144.57L203.03,136.63L204.44,136.73L205.85,130.4L207.26,125.93L208.67,126.31L210.08,126.16L211.49,128.05L214.31,123.85L215.72,123.65L217.13,124.44L218.54,120.99L219.95,126.49L221.36,119.54L225.59,104.28L227,106.54L228.41,106.08L229.82,67.59L232.64,64.96L234.05,67.82L235.46,72.71L236.87,73.65L238.28,71.13L239.69,72.26L241.1,70.3L242.51,72.07L243.92,71.97L245.33,74.6L246.74,71.74L248.15,88.87L250.97,90.04L252.38,83.1L255.2,71.57L256.61,66.75L259.43,54.39L260.84,64.18L262.25,63.67L263.66,64.49L266.48,62.75L267.89,62.76L269.3,65.31L270.7,56.66L272.11,58.75L273.52,64.14L274.93,96.14L276.34,90.34L277.75,81.48L279.16,43.4L280.57,41.49L281.98,33.98L283.39,33.23L284.8,35.33L286.21,60.98L287.62,59.94L289.03,64.32L290.44,64.95L291.85,67.68L293.26,68.49L294.67,68.44L296.08,72.59L297.49,73.48L298.9,71.53L300.31,72.52L301.72,72.24L303.13,84.21L304.54,83.8L305.95,83.2L307.36,80.17L310.18,80.21L311.59,87.93L313,90.22L314.41,90.35L315.82,86.93L317.23,90.51L321.46,88.67L322.87,84.3L324.28,84.33L325.69,83.1L327.1,80.85L328.51,84.3L331.33,83.91L332.74,82.43L334.15,35L335.56,34.25L338.38,27.69L339.79,30.4L341.2,29.42L342.61,31.16L345.43,31.37L346.84,29.97L348.25,27.43L349.66,90.07L352.48,87.24L353.89,79.98L355.3,87.89L356.71,88.67L358.12,88.06L359.53,88.6L360.94,81.29L362.35,80.68L363.76,65.86L365.17,64.54L366.58,67.99L367.99,60.7L369.4,62.06L370.81,61.61L372.22,62.48L373.63,60.61L375.04,60.28L376.45,63.03L377.86,65.19L379.27,65.49L380.68,63.89L382.09,70.81L383.5,66.98L384.91,68.96L386.32,70.57L387.73,73.73L389.14,66.83L390.55,16.31L394.78,16L396.19,16.41L399.01,20.34L400.42,19.4L401.83,22.53L403.24,21.44L406.06,20.37L407.47,21.46L411.7,25.09L413.11,24.65L417.34,28.68L418.75,29.9L421.57,31.43L422.98,30.51L424.39,31.93L425.8,32.26L428.62,36.06L430.03,41.8L431.44,40.64L432.85,42.77L434.26,41.73L435.67,44.61L437.08,45.35L438.49,66.72L439.9,84.53L441.31,82.93L442.72,81.8L444.13,231.44L445.54,231.74L446.95,238.7L448.36,190.91L449.77,193.47L452.58,197.28L453.99,211.95L455.4,211.42L456.81,213.65L459.63,214.37L461.04,211.68L462.45,211.34L463.86,209.29L465.27,211.59L466.68,212.1L468.09,216.74L469.5,216.66L470.91,220.47L472.32,220.08L473.73,221.77L475.14,228.58L477.96,213.87L479.37,213.11L483.6,212.13L485.01,203.97L486.42,204.02L487.83,201.41L493.47,201.83L494.88,201.25L497.7,201.68L499.11,204.3L500.52,201.78L501.93,201.79L504.75,200.49L506.16,201.18L507.57,202.45L508.98,200.52L513.21,201.57L514.62,201.84L517.44,201.06L518.85,202.87L521.67,203.03L523.08,202.9L524.49,203.06L525.9,204.13L528.72,202.56L530.13,203.04L534.36,200.31L535.77,201.29L537.18,209.98L538.59,209.58L540,209.61" style="vector-effect: none; fill: none; stroke: rgb(99, 110, 250); stroke-opacity: 1; stroke-width: 2px; opacity: 1;"/></g><g class="points"/><g class="text"/></g></g></g><g class="overplot"/><path class="xlines-above crisp" d="M0,0" style="fill: none;"/><path class="ylines-above crisp" d="M0,0" style="fill: none;"/><g class="overlines-above"/><g class="xaxislayer-above"><g class="xtick"><text text-anchor="middle" x="0" y="433" transform="translate(84.23,0)" style="font-family: 'Open Sans', verdana, arial, sans-serif; font-size: 12px; fill: rgb(42, 63, 95); fill-opacity: 1; white-space: pre; opacity: 1;">Sep 2022</text></g><g class="xtick"><text text-anchor="middle" x="0" y="433" style="font-family: 'Open Sans', verdana, arial, sans-serif; font-size: 12px; fill: rgb(42, 63, 95); fill-opacity: 1; white-space: pre; opacity: 1;" transform="translate(170.23000000000002,0)">Nov 2022</text></g><g class="xtick"><text text-anchor="middle" x="0" y="433" style="font-family: 'Open Sans', verdana, arial, sans-serif; font-size: 12px; fill: rgb(42, 63, 95); fill-opacity: 1; white-space: pre; opacity: 1;" transform="translate(256.24,0)">Jan 2023</text></g><g class="xtick"><text text-anchor="middle" x="0" y="433" style="font-family: 'Open Sans', verdana, arial, sans-serif; font-size: 12px; fill: rgb(42, 63, 95); fill-opacity: 1; white-space: pre; opacity: 1;" transform="translate(339.43,0)">Mar 2023</text></g><g class="xtick"><text text-anchor="middle" x="0" y="433" style="font-family: 'Open Sans', verdana, arial, sans-serif; font-size: 12px; fill: rgb(42, 63, 95); fill-opacity: 1; white-space: pre; opacity: 1;" transform="translate(425.43,0)">May 2023</text></g><g class="xtick"><text text-anchor="middle" x="0" y="433" style="font-family: 'Open Sans', verdana, arial, sans-serif; font-size: 12px; fill: rgb(42, 63, 95); fill-opacity: 1; white-space: pre; opacity: 1;" transform="translate(511.44,0)">Jul 2023</text></g><g class="xtick"><text text-anchor="middle" x="0" y="433" style="font-family: 'Open Sans', verdana, arial, sans-serif; font-size: 12px; fill: rgb(42, 63, 95); fill-opacity: 1; white-space: pre; opacity: 1;" transform="translate(598.85,0)">Sep 2023</text></g></g><g class="yaxislayer-above"><g class="ytick"><text text-anchor="end" x="79" y="4.199999999999999" transform="translate(0,420)" style="font-family: 'Open Sans', verdana, arial, sans-serif; font-size: 12px; fill: rgb(42, 63, 95); fill-opacity: 1; white-space: pre; opacity: 1;">$0</text></g><g class="ytick"><text text-anchor="end" x="79" y="4.199999999999999" style="font-family: 'Open Sans', verdana, arial, sans-serif; font-size: 12px; fill: rgb(42, 63, 95); fill-opacity: 1; white-space: pre; opacity: 1;" transform="translate(0,377.8)">$2M</text></g><g class="ytick"><text text-anchor="end" x="79" y="4.199999999999999" style="font-family: 'Open Sans', verdana, arial, sans-serif; font-size: 12px; fill: rgb(42, 63, 95); fill-opacity: 1; white-space: pre; opacity: 1;" transform="translate(0,335.6)">$4M</text></g><g class="ytick"><text text-anchor="end" x="79" y="4.199999999999999" style="font-family: 'Open Sans', verdana, arial, sans-serif; font-size: 12px; fill: rgb(42, 63, 95); fill-opacity: 1; white-space: pre; opacity: 1;" transform="translate(0,293.4)">$6M</text></g><g class="ytick"><text text-anchor="end" x="79" y="4.199999999999999" style="font-family: 'Open Sans', verdana, arial, sans-serif; font-size: 12px; fill: rgb(42, 63, 95); fill-opacity: 1; white-space: pre; opacity: 1;" transform="translate(0,251.2)">$8M</text></g><g class="ytick"><text text-anchor="end" x="79" y="4.199999999999999" style="font-family: 'Open Sans', verdana, arial, sans-serif; font-size: 12px; fill: rgb(42, 63, 95); fill-opacity: 1; white-space: pre; opacity: 1;" transform="translate(0,208.99)">$10M</text></g><g class="ytick"><text text-anchor="end" x="79" y="4.199999999999999" style="font-family: 'Open Sans', verdana, arial, sans-serif; font-size: 12px; fill: rgb(42, 63, 95); fill-opacity: 1; white-space: pre; opacity: 1;" transform="translate(0,166.79000000000002)">$12M</text></g><g class="ytick"><text text-anchor="end" x="79" y="4.199999999999999" style="font-family: 'Open Sans', verdana, arial, sans-serif; font-size: 12px; fill: rgb(42, 63, 95); fill-opacity: 1; white-space: pre; opacity: 1;" transform="translate(0,124.59)">$14M</text></g></g><g class="overaxes-above"/></g></g><g class="polarlayer"/><g class="smithlayer"/><g class="ternarylayer"/><g class="geolayer"/><g class="funnelarealayer"/><g class="pielayer"/><g class="iciclelayer"/><g class="treemaplayer"/><g class="sunburstlayer"/><g class="glimages"/><defs id="topdefs-d65666"><g class="clips"/></defs><g class="layer-above"><g class="imagelayer"/><g class="shapelayer"/></g><g class="infolayer"><g class="g-gtitle"><text class="gtitle" x="35" y="50" text-anchor="start" dy="0em" style="font-family: 'Open Sans', verdana, arial, sans-serif; font-size: 17px; fill: rgb(42, 63, 95); opacity: 1; font-weight: normal; white-space: pre;"><tspan class="line" dy="0em" x="35" y="50">Pika Protocol*</tspan><tspan class="line" dy="1.3em" x="35" y="50">​<tspan style="font-size:70%" dy="-0.6em">Cumulative Net Flows since Program Announcement, Until Program End + 30 Days - At Last Price</tspan><tspan dy="0.42em">​</tspan></tspan></text></g><g class="g-xtitle"><text class="xtitle" x="350" y="460.3" text-anchor="middle" style="font-family: 'Open Sans', verdana, arial, sans-serif; font-size: 14px; fill: rgb(42, 63, 95); opacity: 1; font-weight: normal; white-space: pre;">Day</text></g><g class="g-ytitle"><text class="ytitle" transform="rotate(-90,24.668750000000003,260)" x="24.668750000000003" y="260" text-anchor="middle" style="font-family: 'Open Sans', verdana, arial, sans-serif; font-size: 14px; fill: rgb(42, 63, 95); opacity: 1; font-weight: normal; white-space: pre;">Cumulative Net Flows (USD)</text></g></g></svg>