<svg class="main-svg" xmlns="http://www.w3.org/2000/svg" xmlns:xlink="http://www.w3.org/1999/xlink" width="700" height="500" style="" viewBox="0 0 700 500"><rect x="0" y="0" width="700" height="500" style="fill: rgb(255, 255, 255); fill-opacity: 1;"/><defs id="defs-6c5b31"><g class="clips"><clipPath id="clip6c5b31xyplot" class="plotclip"><rect width="540" height="320"/></clipPath><clipPath class="axesclip" id="clip6c5b31x"><rect x="80" y="0" width="540" height="500"/></clipPath><clipPath class="axesclip" id="clip6c5b31y"><rect x="0" y="100" width="700" height="320"/></clipPath><clipPath class="axesclip" id="clip6c5b31xy"><rect x="80" y="100" width="540" height="320"/></clipPath></g><g class="gradients"/><g class="patterns"/></defs><g class="bglayer"><rect class="bg" x="80" y="100" width="540" height="320" style="fill: rgb(229, 236, 246); fill-opacity: 1; stroke-width: 0;"/></g><g class="layer-below"><g class="imagelayer"/><g class="shapelayer"/></g><g class="cartesianlayer"><g class="subplot xy"><g class="layer-subplot"><g class="shapelayer"/><g class="imagelayer"/></g><g class="minor-gridlayer"><g class="x"/><g class="y"/></g><g class="gridlayer"><g class="x"><path class="xgrid crisp" transform="translate(88.31,0)" d="M0,100v320" style="stroke: rgb(255, 255, 255); stroke-opacity: 1; stroke-width: 1px;"/><path class="xgrid crisp" transform="translate(171.38,0)" d="M0,100v320" style="stroke: rgb(255, 255, 255); stroke-opacity: 1; stroke-width: 1px;"/><path class="xgrid crisp" transform="translate(257.23,0)" d="M0,100v320" style="stroke: rgb(255, 255, 255); stroke-opacity: 1; stroke-width: 1px;"/><path class="xgrid crisp" transform="translate(340.31,0)" d="M0,100v320" style="stroke: rgb(255, 255, 255); stroke-opacity: 1; stroke-width: 1px;"/><path class="xgrid crisp" transform="translate(426.15,0)" d="M0,100v320" style="stroke: rgb(255, 255, 255); stroke-opacity: 1; stroke-width: 1px;"/><path class="xgrid crisp" transform="translate(512,0)" d="M0,100v320" style="stroke: rgb(255, 255, 255); stroke-opacity: 1; stroke-width: 1px;"/><path class="xgrid crisp" transform="translate(589.54,0)" d="M0,100v320" style="stroke: rgb(255, 255, 255); stroke-opacity: 1; stroke-width: 1px;"/></g><g class="y"><path class="ygrid crisp" transform="translate(0,371.47)" d="M80,0h540" style="stroke: rgb(255, 255, 255); stroke-opacity: 1; stroke-width: 1px;"/><path class="ygrid crisp" transform="translate(0,322.94)" d="M80,0h540" style="stroke: rgb(255, 255, 255); stroke-opacity: 1; stroke-width: 1px;"/><path class="ygrid crisp" transform="translate(0,274.40999999999997)" d="M80,0h540" style="stroke: rgb(255, 255, 255); stroke-opacity: 1; stroke-width: 1px;"/><path class="ygrid crisp" transform="translate(0,225.87)" d="M80,0h540" style="stroke: rgb(255, 255, 255); stroke-opacity: 1; stroke-width: 1px;"/><path class="ygrid crisp" transform="translate(0,177.34)" d="M80,0h540" style="stroke: rgb(255, 255, 255); stroke-opacity: 1; stroke-width: 1px;"/><path class="ygrid crisp" transform="translate(0,128.81)" d="M80,0h540" style="stroke: rgb(255, 255, 255); stroke-opacity: 1; stroke-width: 1px;"/></g></g><g class="zerolinelayer"><path class="yzl zl crisp" transform="translate(0,420)" d="M80,0h540" style="stroke: rgb(255, 255, 255); stroke-opacity: 1; stroke-width: 2px;"/></g><path class="xlines-below"/><path class="ylines-below"/><g class="overlines-below"/><g class="xaxislayer-below"/><g class="yaxislayer-below"/><g class="overaxes-below"/><g class="plot" transform="translate(80,100)" clip-path="url(#clip6c5b31xyplot)"><g class="scatterlayer mlayer"><g class="trace scatter trace2e9e8b" style="stroke-miterlimit: 2;"><g class="fills"><g><path class="js-fill" d="M540,320L0,320L0,319.87L11.08,317.05L13.85,314.78L19.38,313.22L22.15,289.73L24.92,265.74L27.69,249.77L30.46,228.6L33.23,224.67L36,221.8L38.77,216.14L41.54,198.26L44.31,192.67L49.85,191.63L52.62,168.67L55.38,171.41L58.15,158.07L60.92,159.84L63.69,140.93L66.46,131.88L69.23,128.13L72,108.81L74.77,105.89L77.54,103.78L80.31,116.98L83.08,126.77L85.85,124.63L88.62,123.62L91.38,120.18L96.92,118.43L99.69,107.93L102.46,113.05L105.23,107.93L108,104.26L110.77,105.71L113.54,105.06L116.31,106.65L121.85,103.64L124.62,106.97L127.38,108.92L130.15,107.16L132.92,104.09L135.69,104.63L138.46,106.96L141.23,106.94L146.77,107.91L149.54,108.24L155.08,108.4L157.85,115.49L163.38,115.75L166.15,109.31L171.69,106.78L174.46,106.42L177.23,104.17L180,99.9L182.77,98.64L185.54,101.86L191.08,102.39L193.85,100.97L199.38,97.19L202.15,107.77L204.92,118.7L207.69,116.99L210.46,114.11L213.23,120.9L216,129.07L218.77,127.93L221.54,129.29L224.31,132.83L227.08,134.43L229.85,133.43L235.38,132.1L238.15,130.14L240.92,135.99L243.69,135.07L246.46,135.09L249.23,134.26L252,132.71L254.77,138.57L257.54,139.13L260.31,138.49L263.08,138.63L265.85,136.39L271.38,137.07L274.15,134.72L276.92,138.53L279.69,139.28L282.46,135.68L285.23,137.68L288,144.45L290.77,144.52L293.54,140.73L296.31,140.68L299.08,138.98L301.85,135.42L304.62,141.32L307.38,138.89L310.15,139.63L312.92,139.15L315.69,138.4L318.46,139.39L321.23,137.46L324,164.12L326.77,163.27L329.54,163.4L332.31,163.61L335.08,165.12L337.85,164.81L340.62,161.69L346.15,159.22L348.92,162.72L354.46,161.68L357.23,153.6L360,149.11L362.77,146.63L365.54,145L368.31,145.82L371.08,141.53L373.85,134.96L376.62,136.15L379.38,134.01L382.15,122.88L384.92,117.53L387.69,119.51L390.46,118.1L396,118.04L398.77,108.91L401.54,108.82L404.31,102.29L407.08,96.9L409.85,97.09L412.62,96.68L415.38,98.18L418.15,96.85L420.92,94.26L426.46,94.87L429.23,91.23L432,97.55L434.77,88.99L443.08,71.63L445.85,74.34L448.62,74.09L451.38,29.02L456.92,26.49L459.69,29.77L462.46,35.39L465.23,35.05L468,33.55L470.77,34.89L473.54,33.26L476.31,34.28L479.08,34.55L481.85,37.43L484.62,34.21L487.38,53.56L490.15,55.02L492.92,55.26L498.46,38.22L501.23,34.07L504,28.88L506.77,19.45L509.54,16L512.31,25.64L515.08,25.38L517.85,25.89L523.38,23.99L526.15,24L528.92,27.58L531.69,16.97L537.23,23.14L540,50.91" style="fill: rgb(99, 110, 250); fill-opacity: 0.5; stroke-width: 0;"/></g></g><g class="errorbars"/><g class="lines"><path class="js-line" d="M0,319.87L11.08,317.05L13.85,314.78L19.38,313.22L22.15,289.73L24.92,265.74L27.69,249.77L30.46,228.6L33.23,224.67L36,221.8L38.77,216.14L41.54,198.26L44.31,192.67L49.85,191.63L52.62,168.67L55.38,171.41L58.15,158.07L60.92,159.84L63.69,140.93L66.46,131.88L69.23,128.13L72,108.81L74.77,105.89L77.54,103.78L80.31,116.98L83.08,126.77L85.85,124.63L88.62,123.62L91.38,120.18L96.92,118.43L99.69,107.93L102.46,113.05L105.23,107.93L108,104.26L110.77,105.71L113.54,105.06L116.31,106.65L121.85,103.64L124.62,106.97L127.38,108.92L130.15,107.16L132.92,104.09L135.69,104.63L138.46,106.96L141.23,106.94L146.77,107.91L149.54,108.24L155.08,108.4L157.85,115.49L163.38,115.75L166.15,109.31L171.69,106.78L174.46,106.42L177.23,104.17L180,99.9L182.77,98.64L185.54,101.86L191.08,102.39L193.85,100.97L199.38,97.19L202.15,107.77L204.92,118.7L207.69,116.99L210.46,114.11L213.23,120.9L216,129.07L218.77,127.93L221.54,129.29L224.31,132.83L227.08,134.43L229.85,133.43L235.38,132.1L238.15,130.14L240.92,135.99L243.69,135.07L246.46,135.09L249.23,134.26L252,132.71L254.77,138.57L257.54,139.13L260.31,138.49L263.08,138.63L265.85,136.39L271.38,137.07L274.15,134.72L276.92,138.53L279.69,139.28L282.46,135.68L285.23,137.68L288,144.45L290.77,144.52L293.54,140.73L296.31,140.68L299.08,138.98L301.85,135.42L304.62,141.32L307.38,138.89L310.15,139.63L312.92,139.15L315.69,138.4L318.46,139.39L321.23,137.46L324,164.12L326.77,163.27L329.54,163.4L332.31,163.61L335.08,165.12L337.85,164.81L340.62,161.69L346.15,159.22L348.92,162.72L354.46,161.68L357.23,153.6L360,149.11L362.77,146.63L365.54,145L368.31,145.82L371.08,141.53L373.85,134.96L376.62,136.15L379.38,134.01L382.15,122.88L384.92,117.53L387.69,119.51L390.46,118.1L396,118.04L398.77,108.91L401.54,108.82L404.31,102.29L407.08,96.9L409.85,97.09L412.62,96.68L415.38,98.18L418.15,96.85L420.92,94.26L426.46,94.87L429.23,91.23L432,97.55L434.77,88.99L443.08,71.63L445.85,74.34L448.62,74.09L451.38,29.02L456.92,26.49L459.69,29.77L462.46,35.39L465.23,35.05L468,33.55L470.77,34.89L473.54,33.26L476.31,34.28L479.08,34.55L481.85,37.43L484.62,34.21L487.38,53.56L490.15,55.02L492.92,55.26L498.46,38.22L501.23,34.07L504,28.88L506.77,19.45L509.54,16L512.31,25.64L515.08,25.38L517.85,25.89L523.38,23.99L526.15,24L528.92,27.58L531.69,16.97L537.23,23.14L540,50.91" style="vector-effect: non-scaling-stroke; fill: none; stroke: rgb(99, 110, 250); stroke-opacity: 1; stroke-width: 2px; opacity: 1;"/></g><g class="points"/><g class="text"/></g></g></g><g class="overplot"/><path class="xlines-above crisp" d="M0,0" style="fill: none;"/><path class="ylines-above crisp" d="M0,0" style="fill: none;"/><g class="overlines-above"/><g class="xaxislayer-above"><g class="xtick"><text text-anchor="middle" x="0" y="433" transform="translate(88.31,0)" style="font-family: 'Open Sans', verdana, arial, sans-serif; font-size: 12px; fill: rgb(42, 63, 95); fill-opacity: 1; white-space: pre; opacity: 1;">Sep 2022</text></g><g class="xtick"><text text-anchor="middle" x="0" y="433" style="font-family: 'Open Sans', verdana, arial, sans-serif; font-size: 12px; fill: rgb(42, 63, 95); fill-opacity: 1; white-space: pre; opacity: 1;" transform="translate(171.38,0)">Oct 2022</text></g><g class="xtick"><text text-anchor="middle" x="0" y="433" style="font-family: 'Open Sans', verdana, arial, sans-serif; font-size: 12px; fill: rgb(42, 63, 95); fill-opacity: 1; white-space: pre; opacity: 1;" transform="translate(257.23,0)">Nov 2022</text></g><g class="xtick"><text text-anchor="middle" x="0" y="433" style="font-family: 'Open Sans', verdana, arial, sans-serif; font-size: 12px; fill: rgb(42, 63, 95); fill-opacity: 1; white-space: pre; opacity: 1;" transform="translate(340.31,0)">Dec 2022</text></g><g class="xtick"><text text-anchor="middle" x="0" y="433" style="font-family: 'Open Sans', verdana, arial, sans-serif; font-size: 12px; fill: rgb(42, 63, 95); fill-opacity: 1; white-space: pre; opacity: 1;" transform="translate(426.15,0)">Jan 2023</text></g><g class="xtick"><text text-anchor="middle" x="0" y="433" style="font-family: 'Open Sans', verdana, arial, sans-serif; font-size: 12px; fill: rgb(42, 63, 95); fill-opacity: 1; white-space: pre; opacity: 1;" transform="translate(512,0)">Feb 2023</text></g><g class="xtick"><text text-anchor="middle" x="0" y="433" style="font-family: 'Open Sans', verdana, arial, sans-serif; font-size: 12px; fill: rgb(42, 63, 95); fill-opacity: 1; white-space: pre; opacity: 1;" transform="translate(589.54,0)">Mar 2023</text></g></g><g class="yaxislayer-above"><g class="ytick"><text text-anchor="end" x="79" y="4.199999999999999" transform="translate(0,420)" style="font-family: 'Open Sans', verdana, arial, sans-serif; font-size: 12px; fill: rgb(42, 63, 95); fill-opacity: 1; white-space: pre; opacity: 1;">$0</text></g><g class="ytick"><text text-anchor="end" x="79" y="4.199999999999999" style="font-family: 'Open Sans', verdana, arial, sans-serif; font-size: 12px; fill: rgb(42, 63, 95); fill-opacity: 1; white-space: pre; opacity: 1;" transform="translate(0,371.47)">$2M</text></g><g class="ytick"><text text-anchor="end" x="79" y="4.199999999999999" style="font-family: 'Open Sans', verdana, arial, sans-serif; font-size: 12px; fill: rgb(42, 63, 95); fill-opacity: 1; white-space: pre; opacity: 1;" transform="translate(0,322.94)">$4M</text></g><g class="ytick"><text text-anchor="end" x="79" y="4.199999999999999" style="font-family: 'Open Sans', verdana, arial, sans-serif; font-size: 12px; fill: rgb(42, 63, 95); fill-opacity: 1; white-space: pre; opacity: 1;" transform="translate(0,274.40999999999997)">$6M</text></g><g class="ytick"><text text-anchor="end" x="79" y="4.199999999999999" style="font-family: 'Open Sans', verdana, arial, sans-serif; font-size: 12px; fill: rgb(42, 63, 95); fill-opacity: 1; white-space: pre; opacity: 1;" transform="translate(0,225.87)">$8M</text></g><g class="ytick"><text text-anchor="end" x="79" y="4.199999999999999" style="font-family: 'Open Sans', verdana, arial, sans-serif; font-size: 12px; fill: rgb(42, 63, 95); fill-opacity: 1; white-space: pre; opacity: 1;" transform="translate(0,177.34)">$10M</text></g><g class="ytick"><text text-anchor="end" x="79" y="4.199999999999999" style="font-family: 'Open Sans', verdana, arial, sans-serif; font-size: 12px; fill: rgb(42, 63, 95); fill-opacity: 1; white-space: pre; opacity: 1;" transform="translate(0,128.81)">$12M</text></g></g><g class="overaxes-above"/></g></g><g class="polarlayer"/><g class="smithlayer"/><g class="ternarylayer"/><g class="geolayer"/><g class="funnelarealayer"/><g class="pielayer"/><g class="iciclelayer"/><g class="treemaplayer"/><g class="sunburstlayer"/><g class="glimages"/><defs id="topdefs-6c5b31"><g class="clips"/></defs><g class="layer-above"><g class="imagelayer"/><g class="shapelayer"/></g><g class="infolayer"><g class="g-gtitle"><text class="gtitle" x="35" y="50" text-anchor="start" dy="0em" style="font-family: 'Open Sans', verdana, arial, sans-serif; font-size: 17px; fill: rgb(42, 63, 95); opacity: 1; font-weight: normal; white-space: pre;"><tspan class="line" dy="0em" x="35" y="50">Pika Protocol</tspan><tspan class="line" dy="1.3em" x="35" y="50">​<tspan style="font-size:70%" dy="-0.6em">Cumulative Net Flows since Program Announcement, Until Program End + 30 Days - At Last Price</tspan><tspan dy="0.42em">​</tspan></tspan></text></g><g class="g-xtitle"><text class="xtitle" x="350" y="460.3" text-anchor="middle" style="font-family: 'Open Sans', verdana, arial, sans-serif; font-size: 14px; fill: rgb(42, 63, 95); opacity: 1; font-weight: normal; white-space: pre;">Day</text></g><g class="g-ytitle"><text class="ytitle" transform="rotate(-90,21.200000000000003,260)" x="21.200000000000003" y="260" text-anchor="middle" style="font-family: 'Open Sans', verdana, arial, sans-serif; font-size: 14px; fill: rgb(42, 63, 95); opacity: 1; font-weight: normal; white-space: pre;">Cumulative Net Flows (USD)</text></g></g></svg>