<svg class="main-svg" xmlns="http://www.w3.org/2000/svg" xmlns:xlink="http://www.w3.org/1999/xlink" width="700" height="500" style="" viewBox="0 0 700 500"><rect x="0" y="0" width="700" height="500" style="fill: rgb(255, 255, 255); fill-opacity: 1;"/><defs id="defs-a31b0b"><g class="clips"><clipPath id="clipa31b0bxyplot" class="plotclip"><rect width="540" height="320"/></clipPath><clipPath class="axesclip" id="clipa31b0bx"><rect x="80" y="0" width="540" height="500"/></clipPath><clipPath class="axesclip" id="clipa31b0by"><rect x="0" y="100" width="700" height="320"/></clipPath><clipPath class="axesclip" id="clipa31b0bxy"><rect x="80" y="100" width="540" height="320"/></clipPath></g><g class="gradients"/><g class="patterns"/></defs><g class="bglayer"><rect class="bg" x="80" y="100" width="540" height="320" style="fill: rgb(229, 236, 246); fill-opacity: 1; stroke-width: 0;"/></g><g class="layer-below"><g class="imagelayer"/><g class="shapelayer"/></g><g class="cartesianlayer"><g class="subplot xy"><g class="layer-subplot"><g class="shapelayer"/><g class="imagelayer"/></g><g class="minor-gridlayer"><g class="x"/><g class="y"/></g><g class="gridlayer"><g class="x"><path class="xgrid crisp" transform="translate(84.24,0)" d="M0,100v320" style="stroke: rgb(255, 255, 255); stroke-opacity: 1; stroke-width: 1px;"/><path class="xgrid crisp" transform="translate(181.85,0)" d="M0,100v320" style="stroke: rgb(255, 255, 255); stroke-opacity: 1; stroke-width: 1px;"/><path class="xgrid crisp" transform="translate(277.33000000000004,0)" d="M0,100v320" style="stroke: rgb(255, 255, 255); stroke-opacity: 1; stroke-width: 1px;"/><path class="xgrid crisp" transform="translate(373.87,0)" d="M0,100v320" style="stroke: rgb(255, 255, 255); stroke-opacity: 1; stroke-width: 1px;"/><path class="xgrid crisp" transform="translate(471.47,0)" d="M0,100v320" style="stroke: rgb(255, 255, 255); stroke-opacity: 1; stroke-width: 1px;"/><path class="xgrid crisp" transform="translate(569.0799999999999,0)" d="M0,100v320" style="stroke: rgb(255, 255, 255); stroke-opacity: 1; stroke-width: 1px;"/></g><g class="y"><path class="ygrid crisp" transform="translate(0,389.57)" d="M80,0h540" style="stroke: rgb(255, 255, 255); stroke-opacity: 1; stroke-width: 1px;"/><path class="ygrid crisp" transform="translate(0,351.28)" d="M80,0h540" style="stroke: rgb(255, 255, 255); stroke-opacity: 1; stroke-width: 1px;"/><path class="ygrid crisp" transform="translate(0,274.71000000000004)" d="M80,0h540" style="stroke: rgb(255, 255, 255); stroke-opacity: 1; stroke-width: 1px;"/><path class="ygrid crisp" transform="translate(0,236.43)" d="M80,0h540" style="stroke: rgb(255, 255, 255); stroke-opacity: 1; stroke-width: 1px;"/><path class="ygrid crisp" transform="translate(0,198.14)" d="M80,0h540" style="stroke: rgb(255, 255, 255); stroke-opacity: 1; stroke-width: 1px;"/><path class="ygrid crisp" transform="translate(0,159.85)" d="M80,0h540" style="stroke: rgb(255, 255, 255); stroke-opacity: 1; stroke-width: 1px;"/><path class="ygrid crisp" transform="translate(0,121.57)" d="M80,0h540" style="stroke: rgb(255, 255, 255); stroke-opacity: 1; stroke-width: 1px;"/></g></g><g class="zerolinelayer"><path class="yzl zl crisp" transform="translate(0,313)" d="M80,0h540" style="stroke: rgb(255, 255, 255); stroke-opacity: 1; stroke-width: 2px;"/></g><path class="xlines-below"/><path class="ylines-below"/><g class="overlines-below"/><g class="xaxislayer-below"/><g class="yaxislayer-below"/><g class="overaxes-below"/><g class="plot" transform="translate(80,100)" clip-path="url(#clipa31b0bxyplot)"><g class="scatterlayer mlayer"><g class="trace scatter trace440ec4" style="stroke-miterlimit: 2;"><g class="fills"><g><path class="js-fill" d="M540,213L0,213L0,212.62L28.64,212.61L29.71,213.42L36.07,210.54L37.13,210.18L38.19,209.22L39.25,206.1L41.38,205.41L42.44,203.75L43.5,200.05L44.56,200.83L45.62,201.12L46.68,203.15L48.8,208.04L49.86,210.66L53.05,211.12L54.11,206.26L55.17,207.85L56.23,207.93L59.41,205.17L60.47,205.54L61.53,205.52L62.59,204.63L66.84,204.07L67.9,203.29L73.2,202.93L74.26,206.57L75.32,207.26L76.39,206.91L79.57,205.19L80.63,201.34L81.69,198.5L82.75,198.08L83.81,204.95L84.87,204.85L86.99,204.88L88.06,204.11L91.24,202.56L92.3,202.4L96.54,202.04L97.6,203.07L111.39,202.65L112.46,201.35L117.76,197.17L118.82,194.26L120.94,190.17L122,189.54L124.13,179.92L125.19,179.08L128.37,159.45L129.43,159.23L131.55,155.05L132.61,154.59L133.67,154.97L134.73,153.7L136.86,152.29L137.92,153.24L138.98,152.86L140.04,150.72L142.16,127.96L143.22,127.77L145.34,127.18L146.4,126.88L147.47,127.05L148.53,122.76L149.59,119.97L150.65,110.09L151.71,108.22L152.77,110.72L154.89,103.28L155.95,75.24L157.01,72.83L158.07,73.12L159.14,56.46L160.2,52.22L162.32,26.09L163.38,26.06L165.5,24.26L166.56,26.28L167.62,26.9L168.68,28.7L169.74,32.9L170.81,24.78L171.87,16L172.93,17.92L173.99,21.77L175.05,47.11L176.11,53.5L177.17,45.94L178.23,40.68L179.29,42.88L180.35,47.92L181.41,47.91L182.48,44.96L183.54,46.56L184.6,43.63L185.66,46.23L186.72,44.62L187.78,52.1L189.9,56.18L190.96,59.58L192.02,62.68L193.08,60.33L194.15,60.02L195.21,73.35L196.27,149.19L197.33,150.99L199.45,171.39L200.51,175.08L201.57,180.59L202.63,190.58L204.75,196.28L205.82,198.48L207.94,210.63L209,215.82L211.12,237.57L212.18,238.76L213.24,241.2L214.3,240.62L216.42,245.28L217.49,252.48L218.55,253.76L219.61,253.86L221.73,254.6L222.79,256.77L223.85,256.86L224.91,258.13L233.4,260.73L234.46,260.93L238.7,261.61L239.76,261.82L240.83,263.08L241.89,263.1L245.07,265.73L246.13,282.57L248.25,282.62L249.31,283.74L260.98,284.85L262.04,285.56L265.23,285.68L266.29,286.33L275.83,286.73L276.9,287.25L283.26,287.82L284.32,289.04L286.44,290.12L287.5,290.17L289.63,291.04L290.69,292.99L292.81,293.56L293.87,294.32L295.99,294.29L297.05,295.83L299.17,295.89L300.24,297.37L323.58,297.8L324.64,298.55L352.22,299.29L353.28,300L389.35,300.79L390.41,304L391.47,300.78L392.53,300.78L445.58,301.39L446.64,301.72L448.76,301.72L449.82,303.14L540,303.54" style="fill: rgb(99, 110, 250); fill-opacity: 0.5; stroke-width: 0;"/></g></g><g class="errorbars"/><g class="lines"><path class="js-line" d="M0,212.62L28.64,212.61L29.71,213.42L36.07,210.54L37.13,210.18L38.19,209.22L39.25,206.1L41.38,205.41L42.44,203.75L43.5,200.05L44.56,200.83L45.62,201.12L46.68,203.15L48.8,208.04L49.86,210.66L53.05,211.12L54.11,206.26L55.17,207.85L56.23,207.93L59.41,205.17L60.47,205.54L61.53,205.52L62.59,204.63L66.84,204.07L67.9,203.29L73.2,202.93L74.26,206.57L75.32,207.26L76.39,206.91L79.57,205.19L80.63,201.34L81.69,198.5L82.75,198.08L83.81,204.95L84.87,204.85L86.99,204.88L88.06,204.11L91.24,202.56L92.3,202.4L96.54,202.04L97.6,203.07L111.39,202.65L112.46,201.35L117.76,197.17L118.82,194.26L120.94,190.17L122,189.54L124.13,179.92L125.19,179.08L128.37,159.45L129.43,159.23L131.55,155.05L132.61,154.59L133.67,154.97L134.73,153.7L136.86,152.29L137.92,153.24L138.98,152.86L140.04,150.72L142.16,127.96L143.22,127.77L145.34,127.18L146.4,126.88L147.47,127.05L148.53,122.76L149.59,119.97L150.65,110.09L151.71,108.22L152.77,110.72L154.89,103.28L155.95,75.24L157.01,72.83L158.07,73.12L159.14,56.46L160.2,52.22L162.32,26.09L163.38,26.06L165.5,24.26L166.56,26.28L167.62,26.9L168.68,28.7L169.74,32.9L170.81,24.78L171.87,16L172.93,17.92L173.99,21.77L175.05,47.11L176.11,53.5L177.17,45.94L178.23,40.68L179.29,42.88L180.35,47.92L181.41,47.91L182.48,44.96L183.54,46.56L184.6,43.63L185.66,46.23L186.72,44.62L187.78,52.1L189.9,56.18L190.96,59.58L192.02,62.68L193.08,60.33L194.15,60.02L195.21,73.35L196.27,149.19L197.33,150.99L199.45,171.39L200.51,175.08L201.57,180.59L202.63,190.58L204.75,196.28L205.82,198.48L207.94,210.63L209,215.82L211.12,237.57L212.18,238.76L213.24,241.2L214.3,240.62L216.42,245.28L217.49,252.48L218.55,253.76L219.61,253.86L221.73,254.6L222.79,256.77L223.85,256.86L224.91,258.13L233.4,260.73L234.46,260.93L238.7,261.61L239.76,261.82L240.83,263.08L241.89,263.1L245.07,265.73L246.13,282.57L248.25,282.62L249.31,283.74L260.98,284.85L262.04,285.56L265.23,285.68L266.29,286.33L275.83,286.73L276.9,287.25L283.26,287.82L284.32,289.04L286.44,290.12L287.5,290.17L289.63,291.04L290.69,292.99L292.81,293.56L293.87,294.32L295.99,294.29L297.05,295.83L299.17,295.89L300.24,297.37L323.58,297.8L324.64,298.55L352.22,299.29L353.28,300L389.35,300.79L390.41,304L391.47,300.78L392.53,300.78L445.58,301.39L446.64,301.72L448.76,301.72L449.82,303.14L540,303.54" style="vector-effect: none; fill: none; stroke: rgb(99, 110, 250); stroke-opacity: 1; stroke-width: 2px; opacity: 1;"/></g><g class="points"/><g class="text"/></g></g></g><g class="overplot"/><path class="xlines-above crisp" d="M0,0" style="fill: none;"/><path class="ylines-above crisp" d="M0,0" style="fill: none;"/><g class="overlines-above"/><g class="xaxislayer-above"><g class="xtick"><text text-anchor="middle" x="0" y="433" transform="translate(84.24,0)" style="font-family: 'Open Sans', verdana, arial, sans-serif; font-size: 12px; fill: rgb(42, 63, 95); fill-opacity: 1; white-space: pre; opacity: 1;">Oct 2022</text></g><g class="xtick"><text text-anchor="middle" x="0" y="433" style="font-family: 'Open Sans', verdana, arial, sans-serif; font-size: 12px; fill: rgb(42, 63, 95); fill-opacity: 1; white-space: pre; opacity: 1;" transform="translate(181.85,0)">Jan 2023</text></g><g class="xtick"><text text-anchor="middle" x="0" y="433" style="font-family: 'Open Sans', verdana, arial, sans-serif; font-size: 12px; fill: rgb(42, 63, 95); fill-opacity: 1; white-space: pre; opacity: 1;" transform="translate(277.33000000000004,0)">Apr 2023</text></g><g class="xtick"><text text-anchor="middle" x="0" y="433" style="font-family: 'Open Sans', verdana, arial, sans-serif; font-size: 12px; fill: rgb(42, 63, 95); fill-opacity: 1; white-space: pre; opacity: 1;" transform="translate(373.87,0)">Jul 2023</text></g><g class="xtick"><text text-anchor="middle" x="0" y="433" style="font-family: 'Open Sans', verdana, arial, sans-serif; font-size: 12px; fill: rgb(42, 63, 95); fill-opacity: 1; white-space: pre; opacity: 1;" transform="translate(471.47,0)">Oct 2023</text></g><g class="xtick"><text text-anchor="middle" x="0" y="433" style="font-family: 'Open Sans', verdana, arial, sans-serif; font-size: 12px; fill: rgb(42, 63, 95); fill-opacity: 1; white-space: pre; opacity: 1;" transform="translate(569.0799999999999,0)">Jan 2024</text></g></g><g class="yaxislayer-above"><g class="ytick"><text text-anchor="end" x="79" y="4.199999999999999" transform="translate(0,389.57)" style="font-family: 'Open Sans', verdana, arial, sans-serif; font-size: 12px; fill: rgb(42, 63, 95); fill-opacity: 1; white-space: pre; opacity: 1;">$−10M</text></g><g class="ytick"><text text-anchor="end" x="79" y="4.199999999999999" style="font-family: 'Open Sans', verdana, arial, sans-serif; font-size: 12px; fill: rgb(42, 63, 95); fill-opacity: 1; white-space: pre; opacity: 1;" transform="translate(0,351.28)">$−5M</text></g><g class="ytick"><text text-anchor="end" x="79" y="4.199999999999999" style="font-family: 'Open Sans', verdana, arial, sans-serif; font-size: 12px; fill: rgb(42, 63, 95); fill-opacity: 1; white-space: pre; opacity: 1;" transform="translate(0,313)">$0</text></g><g class="ytick"><text text-anchor="end" x="79" y="4.199999999999999" style="font-family: 'Open Sans', verdana, arial, sans-serif; font-size: 12px; fill: rgb(42, 63, 95); fill-opacity: 1; white-space: pre; opacity: 1;" transform="translate(0,274.71000000000004)">$5M</text></g><g class="ytick"><text text-anchor="end" x="79" y="4.199999999999999" style="font-family: 'Open Sans', verdana, arial, sans-serif; font-size: 12px; fill: rgb(42, 63, 95); fill-opacity: 1; white-space: pre; opacity: 1;" transform="translate(0,236.43)">$10M</text></g><g class="ytick"><text text-anchor="end" x="79" y="4.199999999999999" style="font-family: 'Open Sans', verdana, arial, sans-serif; font-size: 12px; fill: rgb(42, 63, 95); fill-opacity: 1; white-space: pre; opacity: 1;" transform="translate(0,198.14)">$15M</text></g><g class="ytick"><text text-anchor="end" x="79" y="4.199999999999999" style="font-family: 'Open Sans', verdana, arial, sans-serif; font-size: 12px; fill: rgb(42, 63, 95); fill-opacity: 1; white-space: pre; opacity: 1;" transform="translate(0,159.85)">$20M</text></g><g class="ytick"><text text-anchor="end" x="79" y="4.199999999999999" style="font-family: 'Open Sans', verdana, arial, sans-serif; font-size: 12px; fill: rgb(42, 63, 95); fill-opacity: 1; white-space: pre; opacity: 1;" transform="translate(0,121.57)">$25M</text></g></g><g class="overaxes-above"/></g></g><g class="polarlayer"/><g class="smithlayer"/><g class="ternarylayer"/><g class="geolayer"/><g class="funnelarealayer"/><g class="pielayer"/><g class="iciclelayer"/><g class="treemaplayer"/><g class="sunburstlayer"/><g class="glimages"/><defs id="topdefs-a31b0b"><g class="clips"/></defs><g class="layer-above"><g class="imagelayer"/><g class="shapelayer"/></g><g class="infolayer"><g class="g-gtitle"><text class="gtitle" x="35" y="50" text-anchor="start" dy="0em" style="font-family: 'Open Sans', verdana, arial, sans-serif; font-size: 17px; fill: rgb(42, 63, 95); opacity: 1; font-weight: normal; white-space: pre;"><tspan class="line" dy="0em" x="35" y="50">Synthetix - ETH/sETH: Velodrome</tspan><tspan class="line" dy="1.3em" x="35" y="50">​<tspan style="font-size:70%" dy="-0.6em">Cumulative Net Flows since Program Announcement, Until Program End + 30 Days - At Last Price</tspan><tspan dy="0.42em">​</tspan></tspan></text></g><g class="g-xtitle"><text class="xtitle" x="350" y="460.3" text-anchor="middle" style="font-family: 'Open Sans', verdana, arial, sans-serif; font-size: 14px; fill: rgb(42, 63, 95); opacity: 1; font-weight: normal; white-space: pre;">Day</text></g><g class="g-ytitle"><text class="ytitle" transform="rotate(-90,17.668750000000003,260)" x="17.668750000000003" y="260" text-anchor="middle" style="font-family: 'Open Sans', verdana, arial, sans-serif; font-size: 14px; fill: rgb(42, 63, 95); opacity: 1; font-weight: normal; white-space: pre;">Cumulative Net Flows (USD)</text></g></g></svg>