<svg class="main-svg" xmlns="http://www.w3.org/2000/svg" xmlns:xlink="http://www.w3.org/1999/xlink" width="700" height="500" style="" viewBox="0 0 700 500"><rect x="0" y="0" width="700" height="500" style="fill: rgb(255, 255, 255); fill-opacity: 1;"/><defs id="defs-cda9e3"><g class="clips"><clipPath id="clipcda9e3xyplot" class="plotclip"><rect width="540" height="320"/></clipPath><clipPath class="axesclip" id="clipcda9e3x"><rect x="80" y="0" width="540" height="500"/></clipPath><clipPath class="axesclip" id="clipcda9e3y"><rect x="0" y="100" width="700" height="320"/></clipPath><clipPath class="axesclip" id="clipcda9e3xy"><rect x="80" y="100" width="540" height="320"/></clipPath></g><g class="gradients"/><g class="patterns"/></defs><g class="bglayer"><rect class="bg" x="80" y="100" width="540" height="320" style="fill: rgb(229, 236, 246); fill-opacity: 1; stroke-width: 0;"/></g><g class="layer-below"><g class="imagelayer"/><g class="shapelayer"/></g><g class="cartesianlayer"><g class="subplot xy"><g class="layer-subplot"><g class="shapelayer"/><g class="imagelayer"/></g><g class="minor-gridlayer"><g class="x"/><g class="y"/></g><g class="gridlayer"><g class="x"><path class="xgrid crisp" transform="translate(123.25999999999999,0)" d="M0,100v320" style="stroke: rgb(255, 255, 255); stroke-opacity: 1; stroke-width: 1px;"/><path class="xgrid crisp" transform="translate(203.03,0)" d="M0,100v320" style="stroke: rgb(255, 255, 255); stroke-opacity: 1; stroke-width: 1px;"/><path class="xgrid crisp" transform="translate(285.49,0)" d="M0,100v320" style="stroke: rgb(255, 255, 255); stroke-opacity: 1; stroke-width: 1px;"/><path class="xgrid crisp" transform="translate(367.96,0)" d="M0,100v320" style="stroke: rgb(255, 255, 255); stroke-opacity: 1; stroke-width: 1px;"/><path class="xgrid crisp" transform="translate(451.78,0)" d="M0,100v320" style="stroke: rgb(255, 255, 255); stroke-opacity: 1; stroke-width: 1px;"/><path class="xgrid crisp" transform="translate(534.25,0)" d="M0,100v320" style="stroke: rgb(255, 255, 255); stroke-opacity: 1; stroke-width: 1px;"/><path class="xgrid crisp" transform="translate(616.72,0)" d="M0,100v320" style="stroke: rgb(255, 255, 255); stroke-opacity: 1; stroke-width: 1px;"/></g><g class="y"><path class="ygrid crisp" transform="translate(0,402.24)" d="M80,0h540" style="stroke: rgb(255, 255, 255); stroke-opacity: 1; stroke-width: 1px;"/><path class="ygrid crisp" transform="translate(0,317.76)" d="M80,0h540" style="stroke: rgb(255, 255, 255); stroke-opacity: 1; stroke-width: 1px;"/><path class="ygrid crisp" transform="translate(0,275.53)" d="M80,0h540" style="stroke: rgb(255, 255, 255); stroke-opacity: 1; stroke-width: 1px;"/><path class="ygrid crisp" transform="translate(0,233.29)" d="M80,0h540" style="stroke: rgb(255, 255, 255); stroke-opacity: 1; stroke-width: 1px;"/><path class="ygrid crisp" transform="translate(0,191.05)" d="M80,0h540" style="stroke: rgb(255, 255, 255); stroke-opacity: 1; stroke-width: 1px;"/><path class="ygrid crisp" transform="translate(0,148.81)" d="M80,0h540" style="stroke: rgb(255, 255, 255); stroke-opacity: 1; stroke-width: 1px;"/><path class="ygrid crisp" transform="translate(0,106.57)" d="M80,0h540" style="stroke: rgb(255, 255, 255); stroke-opacity: 1; stroke-width: 1px;"/></g></g><g class="zerolinelayer"><path class="yzl zl crisp" transform="translate(0,360)" d="M80,0h540" style="stroke: rgb(255, 255, 255); stroke-opacity: 1; stroke-width: 2px;"/></g><path class="xlines-below"/><path class="ylines-below"/><g class="overlines-below"/><g class="xaxislayer-below"/><g class="yaxislayer-below"/><g class="overaxes-below"/><g class="plot" transform="translate(80,100)" clip-path="url(#clipcda9e3xyplot)"><g class="scatterlayer mlayer"><g class="trace scatter traceeecd93" style="stroke-miterlimit: 2;"><g class="fills"><g><path class="js-fill" d="M540,260L0,260L0,265.8L1.35,275.76L2.7,263.68L4.06,260.27L5.41,230.85L6.76,236.75L8.11,238.12L9.46,236.36L10.82,224.79L17.58,210.54L18.93,217.09L20.28,198.56L21.63,201.08L22.98,202.05L24.33,138.21L25.69,141.14L27.04,141.15L28.39,135.89L29.74,141.26L31.09,129.81L32.45,131.56L36.5,130.85L37.85,140.51L39.21,140.22L40.56,141.43L41.91,140.4L43.26,93.72L44.61,109.45L45.97,109.96L47.32,105.49L48.67,94.87L50.02,105.12L51.37,107.78L52.73,108.2L54.08,107.22L55.43,102.11L56.78,102.94L58.13,99.16L59.48,103.39L63.54,56.86L64.89,55.61L66.24,53.43L67.6,34.62L68.95,38.16L70.3,24.99L71.65,26.12L73,23.33L74.36,25.82L75.71,34.88L77.06,29.57L78.41,32.21L79.76,32.5L81.12,30.3L82.47,24.16L83.82,29.23L85.17,27.08L86.52,16.94L87.88,18.54L89.23,16.86L90.58,23L91.93,16L94.63,26.63L95.99,44.58L98.69,158.73L100.04,165.59L102.75,165.73L104.1,162.73L106.8,118.49L108.15,113.79L109.51,112.04L110.86,106.35L112.21,108.94L113.56,120.58L116.27,114.91L117.62,115.84L118.97,115.53L120.32,120.11L121.67,122.15L123.03,160.55L125.73,163.58L127.08,167.01L128.43,168.7L129.79,171.63L131.14,156.95L132.49,169.65L133.84,166.08L135.19,149.03L136.54,152.02L137.9,162.09L139.25,162.49L140.6,160.68L143.3,141.08L144.66,134.57L146.01,126.85L147.36,144.62L148.71,137.01L150.06,142.45L151.42,138.36L152.77,144.62L154.12,139.31L155.47,141L156.82,131.03L158.18,128.83L159.53,141.9L160.88,142.83L162.23,152.09L163.58,150.95L166.29,154.91L167.64,147.26L168.99,146.28L170.34,140.13L171.69,142.23L173.05,140.66L174.4,138.82L175.75,144.28L178.45,141.17L179.81,143.08L182.51,139.35L183.86,143.56L185.21,143.78L186.57,147.15L187.92,148.31L189.27,157.06L190.62,152.84L191.97,155.74L193.33,165.32L194.68,165.52L196.03,168.52L197.38,168.29L198.73,162.88L200.09,162.65L201.44,156.11L202.79,156.95L204.14,156.32L205.49,158.48L206.85,161.08L208.2,160.71L209.55,149.61L210.9,165.16L212.25,160.07L213.6,164.45L214.96,161.43L216.31,163.08L217.66,194.31L219.01,192.48L220.36,156.89L221.72,158.38L223.07,158.83L224.42,163.91L225.77,169.33L227.12,160.17L228.48,160.07L229.83,162.44L231.18,154.22L232.53,156.84L233.88,160.36L235.24,152.59L236.59,148.31L237.94,157.31L239.29,158.85L240.64,154.54L242,156.88L243.35,154.14L248.75,153.18L250.11,143.71L251.46,132.07L252.81,131.73L255.51,119.09L256.87,129.98L258.22,123.54L259.57,123.52L260.92,114L262.27,118.33L263.63,117.36L264.98,121.39L266.33,125.63L267.68,143.82L269.03,147.95L270.39,147.54L273.09,146.93L274.44,142.74L275.79,129.05L277.15,143.65L278.5,139.38L279.85,139.88L282.55,139.38L283.9,134.49L285.26,141.95L286.61,76.11L287.96,74.64L289.31,74.74L290.66,72.54L292.02,71.76L293.37,69.93L294.72,72.57L297.42,86.5L298.78,84.56L300.13,86.59L301.48,82.93L302.83,81.98L304.18,75.45L305.54,63.52L306.89,70.79L309.59,70.62L310.94,71.9L312.3,71.69L313.65,52.91L315,55.94L316.35,55.67L317.7,57.8L319.06,50.17L320.41,55.52L321.76,54.37L323.11,56.23L324.46,80.74L325.81,98.88L327.17,88.6L328.52,116.94L329.87,109.16L331.22,121.88L332.57,125.08L333.93,145.14L335.28,134.64L336.63,136.13L337.98,133.68L339.33,133.04L340.69,134.3L342.04,135.57L343.39,139.26L344.74,138.18L346.09,139.32L347.45,141.44L348.8,147.34L350.15,151.16L351.5,145.71L352.85,148.69L354.21,144.75L355.56,142.91L356.91,143.24L358.26,139.78L359.61,141.63L360.96,139.52L362.32,120.93L363.67,120.12L365.02,132.38L366.37,160.68L367.72,160.85L369.08,154.69L370.43,163.96L371.78,168.86L373.13,167.7L375.84,165.78L377.19,167.09L379.89,166.39L381.24,165.48L383.95,167.06L385.3,173.15L386.65,177.44L388,173.93L389.36,175.59L390.71,174.36L393.41,173.97L394.76,174.71L396.12,172.1L397.47,172.63L400.17,174.59L401.52,173.62L402.87,173.13L404.23,174.18L405.58,175.99L406.93,173.05L408.28,174.81L409.63,171.75L412.34,170.32L413.69,166.32L415.04,170.55L416.39,172.08L417.75,171.46L419.1,173.25L420.45,173.12L421.8,172.16L423.15,175.9L424.51,175.71L425.86,176.34L427.21,175.12L428.56,178.9L429.91,177.18L432.62,177.47L433.97,173.53L435.32,179.54L436.67,179.34L438.02,254.6L439.38,253.79L442.08,251.7L443.43,248.42L444.78,250.54L446.14,249.93L447.49,249.33L448.84,249.72L451.54,248.84L452.9,248.6L454.25,249.62L455.6,255.86L458.3,256.18L459.66,255.84L462.36,256.17L463.71,256.22L465.06,255.84L466.42,251.12L471.82,251.81L473.17,252.75L474.53,250.02L475.88,220.69L477.23,222.31L478.58,221.17L479.93,222.71L481.29,222.96L482.64,226.78L483.99,222.44L485.34,221.04L486.69,221.48L488.05,221.95L489.4,221.47L490.75,223.13L492.1,223.39L493.45,223.76L494.81,263.6L496.16,265.64L497.51,263.51L498.86,258.71L500.21,258.06L501.57,257.06L502.92,255.03L504.27,251.2L505.62,254.46L508.33,253.99L509.68,256.44L511.03,258.77L512.38,257.6L513.73,254.59L515.08,256.47L516.44,256.02L517.79,259.68L519.14,257.04L520.49,304L540,304" style="fill: rgb(99, 110, 250); fill-opacity: 0.5; stroke-width: 0;"/></g></g><g class="errorbars"/><g class="lines"><path class="js-line" d="M0,265.8L1.35,275.76L2.7,263.68L4.06,260.27L5.41,230.85L6.76,236.75L8.11,238.12L9.46,236.36L10.82,224.79L17.58,210.54L18.93,217.09L20.28,198.56L21.63,201.08L22.98,202.05L24.33,138.21L25.69,141.14L27.04,141.15L28.39,135.89L29.74,141.26L31.09,129.81L32.45,131.56L36.5,130.85L37.85,140.51L39.21,140.22L40.56,141.43L41.91,140.4L43.26,93.72L44.61,109.45L45.97,109.96L47.32,105.49L48.67,94.87L50.02,105.12L51.37,107.78L52.73,108.2L54.08,107.22L55.43,102.11L56.78,102.94L58.13,99.16L59.48,103.39L63.54,56.86L64.89,55.61L66.24,53.43L67.6,34.62L68.95,38.16L70.3,24.99L71.65,26.12L73,23.33L74.36,25.82L75.71,34.88L77.06,29.57L78.41,32.21L79.76,32.5L81.12,30.3L82.47,24.16L83.82,29.23L85.17,27.08L86.52,16.94L87.88,18.54L89.23,16.86L90.58,23L91.93,16L94.63,26.63L95.99,44.58L98.69,158.73L100.04,165.59L102.75,165.73L104.1,162.73L106.8,118.49L108.15,113.79L109.51,112.04L110.86,106.35L112.21,108.94L113.56,120.58L116.27,114.91L117.62,115.84L118.97,115.53L120.32,120.11L121.67,122.15L123.03,160.55L125.73,163.58L127.08,167.01L128.43,168.7L129.79,171.63L131.14,156.95L132.49,169.65L133.84,166.08L135.19,149.03L136.54,152.02L137.9,162.09L139.25,162.49L140.6,160.68L143.3,141.08L144.66,134.57L146.01,126.85L147.36,144.62L148.71,137.01L150.06,142.45L151.42,138.36L152.77,144.62L154.12,139.31L155.47,141L156.82,131.03L158.18,128.83L159.53,141.9L160.88,142.83L162.23,152.09L163.58,150.95L166.29,154.91L167.64,147.26L168.99,146.28L170.34,140.13L171.69,142.23L173.05,140.66L174.4,138.82L175.75,144.28L178.45,141.17L179.81,143.08L182.51,139.35L183.86,143.56L185.21,143.78L186.57,147.15L187.92,148.31L189.27,157.06L190.62,152.84L191.97,155.74L193.33,165.32L194.68,165.52L196.03,168.52L197.38,168.29L198.73,162.88L200.09,162.65L201.44,156.11L202.79,156.95L204.14,156.32L205.49,158.48L206.85,161.08L208.2,160.71L209.55,149.61L210.9,165.16L212.25,160.07L213.6,164.45L214.96,161.43L216.31,163.08L217.66,194.31L219.01,192.48L220.36,156.89L221.72,158.38L223.07,158.83L224.42,163.91L225.77,169.33L227.12,160.17L228.48,160.07L229.83,162.44L231.18,154.22L232.53,156.84L233.88,160.36L235.24,152.59L236.59,148.31L237.94,157.31L239.29,158.85L240.64,154.54L242,156.88L243.35,154.14L248.75,153.18L250.11,143.71L251.46,132.07L252.81,131.73L255.51,119.09L256.87,129.98L258.22,123.54L259.57,123.52L260.92,114L262.27,118.33L263.63,117.36L264.98,121.39L266.33,125.63L267.68,143.82L269.03,147.95L270.39,147.54L273.09,146.93L274.44,142.74L275.79,129.05L277.15,143.65L278.5,139.38L279.85,139.88L282.55,139.38L283.9,134.49L285.26,141.95L286.61,76.11L287.96,74.64L289.31,74.74L290.66,72.54L292.02,71.76L293.37,69.93L294.72,72.57L297.42,86.5L298.78,84.56L300.13,86.59L301.48,82.93L302.83,81.98L304.18,75.45L305.54,63.52L306.89,70.79L309.59,70.62L310.94,71.9L312.3,71.69L313.65,52.91L315,55.94L316.35,55.67L317.7,57.8L319.06,50.17L320.41,55.52L321.76,54.37L323.11,56.23L324.46,80.74L325.81,98.88L327.17,88.6L328.52,116.94L329.87,109.16L331.22,121.88L332.57,125.08L333.93,145.14L335.28,134.64L336.63,136.13L337.98,133.68L339.33,133.04L340.69,134.3L342.04,135.57L343.39,139.26L344.74,138.18L346.09,139.32L347.45,141.44L348.8,147.34L350.15,151.16L351.5,145.71L352.85,148.69L354.21,144.75L355.56,142.91L356.91,143.24L358.26,139.78L359.61,141.63L360.96,139.52L362.32,120.93L363.67,120.12L365.02,132.38L366.37,160.68L367.72,160.85L369.08,154.69L370.43,163.96L371.78,168.86L373.13,167.7L375.84,165.78L377.19,167.09L379.89,166.39L381.24,165.48L383.95,167.06L385.3,173.15L386.65,177.44L388,173.93L389.36,175.59L390.71,174.36L393.41,173.97L394.76,174.71L396.12,172.1L397.47,172.63L400.17,174.59L401.52,173.62L402.87,173.13L404.23,174.18L405.58,175.99L406.93,173.05L408.28,174.81L409.63,171.75L412.34,170.32L413.69,166.32L415.04,170.55L416.39,172.08L417.75,171.46L419.1,173.25L420.45,173.12L421.8,172.16L423.15,175.9L424.51,175.71L425.86,176.34L427.21,175.12L428.56,178.9L429.91,177.18L432.62,177.47L433.97,173.53L435.32,179.54L436.67,179.34L438.02,254.6L439.38,253.79L442.08,251.7L443.43,248.42L444.78,250.54L446.14,249.93L447.49,249.33L448.84,249.72L451.54,248.84L452.9,248.6L454.25,249.62L455.6,255.86L458.3,256.18L459.66,255.84L462.36,256.17L463.71,256.22L465.06,255.84L466.42,251.12L471.82,251.81L473.17,252.75L474.53,250.02L475.88,220.69L477.23,222.31L478.58,221.17L479.93,222.71L481.29,222.96L482.64,226.78L483.99,222.44L485.34,221.04L486.69,221.48L488.05,221.95L489.4,221.47L490.75,223.13L492.1,223.39L493.45,223.76L494.81,263.6L496.16,265.64L497.51,263.51L498.86,258.71L500.21,258.06L501.57,257.06L502.92,255.03L504.27,251.2L505.62,254.46L508.33,253.99L509.68,256.44L511.03,258.77L512.38,257.6L513.73,254.59L515.08,256.47L516.44,256.02L517.79,259.68L519.14,257.04L520.49,304L540,304" style="vector-effect: none; fill: none; stroke: rgb(99, 110, 250); stroke-opacity: 1; stroke-width: 2px; opacity: 1;"/></g><g class="points"/><g class="text"/></g></g></g><g class="overplot"/><path class="xlines-above crisp" d="M0,0" style="fill: none;"/><path class="ylines-above crisp" d="M0,0" style="fill: none;"/><g class="overlines-above"/><g class="xaxislayer-above"><g class="xtick"><text text-anchor="middle" x="0" y="433" transform="translate(123.25999999999999,0)" style="font-family: 'Open Sans', verdana, arial, sans-serif; font-size: 12px; fill: rgb(42, 63, 95); fill-opacity: 1; white-space: pre; opacity: 1;">Jan 2023</text></g><g class="xtick"><text text-anchor="middle" x="0" y="433" style="font-family: 'Open Sans', verdana, arial, sans-serif; font-size: 12px; fill: rgb(42, 63, 95); fill-opacity: 1; white-space: pre; opacity: 1;" transform="translate(203.03,0)">Mar 2023</text></g><g class="xtick"><text text-anchor="middle" x="0" y="433" style="font-family: 'Open Sans', verdana, arial, sans-serif; font-size: 12px; fill: rgb(42, 63, 95); fill-opacity: 1; white-space: pre; opacity: 1;" transform="translate(285.49,0)">May 2023</text></g><g class="xtick"><text text-anchor="middle" x="0" y="433" style="font-family: 'Open Sans', verdana, arial, sans-serif; font-size: 12px; fill: rgb(42, 63, 95); fill-opacity: 1; white-space: pre; opacity: 1;" transform="translate(367.96,0)">Jul 2023</text></g><g class="xtick"><text text-anchor="middle" x="0" y="433" style="font-family: 'Open Sans', verdana, arial, sans-serif; font-size: 12px; fill: rgb(42, 63, 95); fill-opacity: 1; white-space: pre; opacity: 1;" transform="translate(451.78,0)">Sep 2023</text></g><g class="xtick"><text text-anchor="middle" x="0" y="433" style="font-family: 'Open Sans', verdana, arial, sans-serif; font-size: 12px; fill: rgb(42, 63, 95); fill-opacity: 1; white-space: pre; opacity: 1;" transform="translate(534.25,0)">Nov 2023</text></g><g class="xtick"><text text-anchor="middle" x="0" y="433" style="font-family: 'Open Sans', verdana, arial, sans-serif; font-size: 12px; fill: rgb(42, 63, 95); fill-opacity: 1; white-space: pre; opacity: 1;" transform="translate(616.72,0)">Jan 2024</text></g></g><g class="yaxislayer-above"><g class="ytick"><text text-anchor="end" x="79" y="4.199999999999999" transform="translate(0,402.24)" style="font-family: 'Open Sans', verdana, arial, sans-serif; font-size: 12px; fill: rgb(42, 63, 95); fill-opacity: 1; white-space: pre; opacity: 1;">$−2M</text></g><g class="ytick"><text text-anchor="end" x="79" y="4.199999999999999" style="font-family: 'Open Sans', verdana, arial, sans-serif; font-size: 12px; fill: rgb(42, 63, 95); fill-opacity: 1; white-space: pre; opacity: 1;" transform="translate(0,360)">$0</text></g><g class="ytick"><text text-anchor="end" x="79" y="4.199999999999999" style="font-family: 'Open Sans', verdana, arial, sans-serif; font-size: 12px; fill: rgb(42, 63, 95); fill-opacity: 1; white-space: pre; opacity: 1;" transform="translate(0,317.76)">$2M</text></g><g class="ytick"><text text-anchor="end" x="79" y="4.199999999999999" style="font-family: 'Open Sans', verdana, arial, sans-serif; font-size: 12px; fill: rgb(42, 63, 95); fill-opacity: 1; white-space: pre; opacity: 1;" transform="translate(0,275.53)">$4M</text></g><g class="ytick"><text text-anchor="end" x="79" y="4.199999999999999" style="font-family: 'Open Sans', verdana, arial, sans-serif; font-size: 12px; fill: rgb(42, 63, 95); fill-opacity: 1; white-space: pre; opacity: 1;" transform="translate(0,233.29)">$6M</text></g><g class="ytick"><text text-anchor="end" x="79" y="4.199999999999999" style="font-family: 'Open Sans', verdana, arial, sans-serif; font-size: 12px; fill: rgb(42, 63, 95); fill-opacity: 1; white-space: pre; opacity: 1;" transform="translate(0,191.05)">$8M</text></g><g class="ytick"><text text-anchor="end" x="79" y="4.199999999999999" style="font-family: 'Open Sans', verdana, arial, sans-serif; font-size: 12px; fill: rgb(42, 63, 95); fill-opacity: 1; white-space: pre; opacity: 1;" transform="translate(0,148.81)">$10M</text></g><g class="ytick"><text text-anchor="end" x="79" y="4.199999999999999" style="font-family: 'Open Sans', verdana, arial, sans-serif; font-size: 12px; fill: rgb(42, 63, 95); fill-opacity: 1; white-space: pre; opacity: 1;" transform="translate(0,106.57)">$12M</text></g></g><g class="overaxes-above"/></g></g><g class="polarlayer"/><g class="smithlayer"/><g class="ternarylayer"/><g class="geolayer"/><g class="funnelarealayer"/><g class="pielayer"/><g class="iciclelayer"/><g class="treemaplayer"/><g class="sunburstlayer"/><g class="glimages"/><defs id="topdefs-cda9e3"><g class="clips"/></defs><g class="layer-above"><g class="imagelayer"/><g class="shapelayer"/></g><g class="infolayer"><g class="g-gtitle"><text class="gtitle" x="35" y="50" text-anchor="start" dy="0em" style="font-family: 'Open Sans', verdana, arial, sans-serif; font-size: 17px; fill: rgb(42, 63, 95); opacity: 1; font-weight: normal; white-space: pre;"><tspan class="line" dy="0em" x="35" y="50">Dforce</tspan><tspan class="line" dy="1.3em" x="35" y="50">​<tspan style="font-size:70%" dy="-0.6em">Cumulative Net Flows since Program Announcement, Until Program End + 30 Days - At Last Price</tspan><tspan dy="0.42em">​</tspan></tspan></text></g><g class="g-xtitle"><text class="xtitle" x="350" y="460.3" text-anchor="middle" style="font-family: 'Open Sans', verdana, arial, sans-serif; font-size: 14px; fill: rgb(42, 63, 95); opacity: 1; font-weight: normal; white-space: pre;">Day</text></g><g class="g-ytitle"><text class="ytitle" transform="rotate(-90,24.340625000000003,260)" x="24.340625000000003" y="260" text-anchor="middle" style="font-family: 'Open Sans', verdana, arial, sans-serif; font-size: 14px; fill: rgb(42, 63, 95); opacity: 1; font-weight: normal; white-space: pre;">Cumulative Net Flows (USD)</text></g></g></svg>