<svg class="main-svg" xmlns="http://www.w3.org/2000/svg" xmlns:xlink="http://www.w3.org/1999/xlink" width="700" height="500" style="" viewBox="0 0 700 500"><rect x="0" y="0" width="700" height="500" style="fill: rgb(255, 255, 255); fill-opacity: 1;"/><defs id="defs-d42638"><g class="clips"><clipPath id="clipd42638xyplot" class="plotclip"><rect width="540" height="320"/></clipPath><clipPath class="axesclip" id="clipd42638x"><rect x="80" y="0" width="540" height="500"/></clipPath><clipPath class="axesclip" id="clipd42638y"><rect x="0" y="100" width="700" height="320"/></clipPath><clipPath class="axesclip" id="clipd42638xy"><rect x="80" y="100" width="540" height="320"/></clipPath></g><g class="gradients"/><g class="patterns"/></defs><g class="bglayer"><rect class="bg" x="80" y="100" width="540" height="320" style="fill: rgb(229, 236, 246); fill-opacity: 1; stroke-width: 0;"/></g><g class="layer-below"><g class="imagelayer"/><g class="shapelayer"/></g><g class="cartesianlayer"><g class="subplot xy"><g class="layer-subplot"><g class="shapelayer"/><g class="imagelayer"/></g><g class="minor-gridlayer"><g class="x"/><g class="y"/></g><g class="gridlayer"><g class="x"><path class="xgrid crisp" transform="translate(132.43,0)" d="M0,100v320" style="stroke: rgb(255, 255, 255); stroke-opacity: 1; stroke-width: 1px;"/><path class="xgrid crisp" transform="translate(239.03,0)" d="M0,100v320" style="stroke: rgb(255, 255, 255); stroke-opacity: 1; stroke-width: 1px;"/><path class="xgrid crisp" transform="translate(345.63,0)" d="M0,100v320" style="stroke: rgb(255, 255, 255); stroke-opacity: 1; stroke-width: 1px;"/><path class="xgrid crisp" transform="translate(453.98,0)" d="M0,100v320" style="stroke: rgb(255, 255, 255); stroke-opacity: 1; stroke-width: 1px;"/><path class="xgrid crisp" transform="translate(560.5799999999999,0)" d="M0,100v320" style="stroke: rgb(255, 255, 255); stroke-opacity: 1; stroke-width: 1px;"/></g><g class="y"><path class="ygrid crisp" transform="translate(0,354.15999999999997)" d="M80,0h540" style="stroke: rgb(255, 255, 255); stroke-opacity: 1; stroke-width: 1px;"/><path class="ygrid crisp" transform="translate(0,305)" d="M80,0h540" style="stroke: rgb(255, 255, 255); stroke-opacity: 1; stroke-width: 1px;"/><path class="ygrid crisp" transform="translate(0,255.84)" d="M80,0h540" style="stroke: rgb(255, 255, 255); stroke-opacity: 1; stroke-width: 1px;"/><path class="ygrid crisp" transform="translate(0,206.68)" d="M80,0h540" style="stroke: rgb(255, 255, 255); stroke-opacity: 1; stroke-width: 1px;"/><path class="ygrid crisp" transform="translate(0,157.52)" d="M80,0h540" style="stroke: rgb(255, 255, 255); stroke-opacity: 1; stroke-width: 1px;"/><path class="ygrid crisp" transform="translate(0,108.36)" d="M80,0h540" style="stroke: rgb(255, 255, 255); stroke-opacity: 1; stroke-width: 1px;"/></g></g><g class="zerolinelayer"><path class="yzl zl crisp" transform="translate(0,403.32)" d="M80,0h540" style="stroke: rgb(255, 255, 255); stroke-opacity: 1; stroke-width: 2px;"/></g><path class="xlines-below"/><path class="ylines-below"/><g class="overlines-below"/><g class="xaxislayer-below"/><g class="yaxislayer-below"/><g class="overaxes-below"/><g class="plot" transform="translate(80,100)" clip-path="url(#clipd42638xyplot)"><g class="scatterlayer mlayer"><g class="trace scatter trace0d2174" style="stroke-miterlimit: 2;"><g class="fills"><g><path class="js-fill" d="M540,303.32L0,303.32L0,138.76L1.75,138.73L3.5,151.58L5.24,204.58L6.99,194.24L8.74,195.24L10.49,205.09L12.23,190.15L13.98,191.11L15.73,195.86L17.48,150.81L19.22,142.34L20.97,140.51L22.72,140.5L24.47,85.39L26.21,85.35L27.96,86.07L29.71,104.5L31.46,110.2L33.2,110.06L34.95,116.39L41.94,117L43.69,158.37L48.93,164.39L50.68,164.35L52.43,164.81L54.17,55.08L55.92,54.91L57.67,61.2L59.42,58.66L61.17,64.18L62.91,63.6L64.66,16L66.41,74.43L68.16,90.08L69.9,177.74L71.65,178.07L73.4,175.58L75.15,170.52L76.89,172.76L78.64,178.5L80.39,179.72L82.14,166.09L83.88,163.06L85.63,162.68L87.38,163L89.13,159.73L90.87,184.39L92.62,189.85L94.37,194.4L96.12,193.89L97.86,193.21L99.61,193.78L101.36,193.72L103.11,194.76L104.85,194.74L106.6,189.26L110.1,189.01L111.84,185.19L118.83,184.88L120.58,182.89L122.33,183.74L124.08,183.47L125.83,183.3L127.57,175.98L129.32,184.89L131.07,184.88L132.82,185.11L134.56,190.01L136.31,189.21L138.06,193.14L143.3,193.19L145.05,194.41L148.54,194.94L150.29,202.91L153.79,202.94L155.53,208.98L157.28,206.06L159.03,206.05L162.52,206.03L164.27,260.44L174.76,260.54L176.5,222.34L178.25,222.04L180,214.32L183.5,213.46L185.24,211.57L188.74,211.54L190.49,216.44L209.71,216.16L211.46,214.85L214.95,214.76L216.7,220.7L235.92,219.8L237.67,240.9L239.42,240.9L241.17,242.15L242.91,220.25L244.66,220.36L246.41,220.35L248.16,219.5L249.9,244.01L251.65,257.49L253.4,260.86L255.15,260.91L256.89,273.81L258.64,274.42L260.39,280.59L262.14,282.93L263.88,287.16L265.63,288.62L270.87,289.08L272.62,289.69L279.61,289.72L281.36,290.82L293.59,290.92L295.34,291.94L297.09,291.94L298.83,293.22L312.82,293.23L314.56,295.78L316.31,295.78L318.06,296.55L328.54,297.29L330.29,297.31L342.52,297.33L344.27,298.16L464.85,298.21L466.6,300.06L477.09,300.11L478.83,302.59L529.51,302.59L531.26,304L540,304" style="fill: rgb(99, 110, 250); fill-opacity: 0.5; stroke-width: 0;"/></g></g><g class="errorbars"/><g class="lines"><path class="js-line" d="M0,138.76L1.75,138.73L3.5,151.58L5.24,204.58L6.99,194.24L8.74,195.24L10.49,205.09L12.23,190.15L13.98,191.11L15.73,195.86L17.48,150.81L19.22,142.34L20.97,140.51L22.72,140.5L24.47,85.39L26.21,85.35L27.96,86.07L29.71,104.5L31.46,110.2L33.2,110.06L34.95,116.39L41.94,117L43.69,158.37L48.93,164.39L50.68,164.35L52.43,164.81L54.17,55.08L55.92,54.91L57.67,61.2L59.42,58.66L61.17,64.18L62.91,63.6L64.66,16L66.41,74.43L68.16,90.08L69.9,177.74L71.65,178.07L73.4,175.58L75.15,170.52L76.89,172.76L78.64,178.5L80.39,179.72L82.14,166.09L83.88,163.06L85.63,162.68L87.38,163L89.13,159.73L90.87,184.39L92.62,189.85L94.37,194.4L96.12,193.89L97.86,193.21L99.61,193.78L101.36,193.72L103.11,194.76L104.85,194.74L106.6,189.26L110.1,189.01L111.84,185.19L118.83,184.88L120.58,182.89L122.33,183.74L124.08,183.47L125.83,183.3L127.57,175.98L129.32,184.89L131.07,184.88L132.82,185.11L134.56,190.01L136.31,189.21L138.06,193.14L143.3,193.19L145.05,194.41L148.54,194.94L150.29,202.91L153.79,202.94L155.53,208.98L157.28,206.06L159.03,206.05L162.52,206.03L164.27,260.44L174.76,260.54L176.5,222.34L178.25,222.04L180,214.32L183.5,213.46L185.24,211.57L188.74,211.54L190.49,216.44L209.71,216.16L211.46,214.85L214.95,214.76L216.7,220.7L235.92,219.8L237.67,240.9L239.42,240.9L241.17,242.15L242.91,220.25L244.66,220.36L246.41,220.35L248.16,219.5L249.9,244.01L251.65,257.49L253.4,260.86L255.15,260.91L256.89,273.81L258.64,274.42L260.39,280.59L262.14,282.93L263.88,287.16L265.63,288.62L270.87,289.08L272.62,289.69L279.61,289.72L281.36,290.82L293.59,290.92L295.34,291.94L297.09,291.94L298.83,293.22L312.82,293.23L314.56,295.78L316.31,295.78L318.06,296.55L328.54,297.29L330.29,297.31L342.52,297.33L344.27,298.16L464.85,298.21L466.6,300.06L477.09,300.11L478.83,302.59L529.51,302.59L531.26,304L540,304" style="vector-effect: none; fill: none; stroke: rgb(99, 110, 250); stroke-opacity: 1; stroke-width: 2px; opacity: 1;"/></g><g class="points"/><g class="text"/></g></g></g><g class="overplot"/><path class="xlines-above crisp" d="M0,0" style="fill: none;"/><path class="ylines-above crisp" d="M0,0" style="fill: none;"/><g class="overlines-above"/><g class="xaxislayer-above"><g class="xtick"><text text-anchor="middle" x="0" y="433" transform="translate(132.43,0)" style="font-family: 'Open Sans', verdana, arial, sans-serif; font-size: 12px; fill: rgb(42, 63, 95); fill-opacity: 1; white-space: pre; opacity: 1;">Mar 2023</text></g><g class="xtick"><text text-anchor="middle" x="0" y="433" style="font-family: 'Open Sans', verdana, arial, sans-serif; font-size: 12px; fill: rgb(42, 63, 95); fill-opacity: 1; white-space: pre; opacity: 1;" transform="translate(239.03,0)">May 2023</text></g><g class="xtick"><text text-anchor="middle" x="0" y="433" style="font-family: 'Open Sans', verdana, arial, sans-serif; font-size: 12px; fill: rgb(42, 63, 95); fill-opacity: 1; white-space: pre; opacity: 1;" transform="translate(345.63,0)">Jul 2023</text></g><g class="xtick"><text text-anchor="middle" x="0" y="433" style="font-family: 'Open Sans', verdana, arial, sans-serif; font-size: 12px; fill: rgb(42, 63, 95); fill-opacity: 1; white-space: pre; opacity: 1;" transform="translate(453.98,0)">Sep 2023</text></g><g class="xtick"><text text-anchor="middle" x="0" y="433" style="font-family: 'Open Sans', verdana, arial, sans-serif; font-size: 12px; fill: rgb(42, 63, 95); fill-opacity: 1; white-space: pre; opacity: 1;" transform="translate(560.5799999999999,0)">Nov 2023</text></g></g><g class="yaxislayer-above"><g class="ytick"><text text-anchor="end" x="79" y="4.199999999999999" transform="translate(0,403.32)" style="font-family: 'Open Sans', verdana, arial, sans-serif; font-size: 12px; fill: rgb(42, 63, 95); fill-opacity: 1; white-space: pre; opacity: 1;">$0</text></g><g class="ytick"><text text-anchor="end" x="79" y="4.199999999999999" style="font-family: 'Open Sans', verdana, arial, sans-serif; font-size: 12px; fill: rgb(42, 63, 95); fill-opacity: 1; white-space: pre; opacity: 1;" transform="translate(0,354.15999999999997)">$0.2M</text></g><g class="ytick"><text text-anchor="end" x="79" y="4.199999999999999" style="font-family: 'Open Sans', verdana, arial, sans-serif; font-size: 12px; fill: rgb(42, 63, 95); fill-opacity: 1; white-space: pre; opacity: 1;" transform="translate(0,305)">$0.4M</text></g><g class="ytick"><text text-anchor="end" x="79" y="4.199999999999999" style="font-family: 'Open Sans', verdana, arial, sans-serif; font-size: 12px; fill: rgb(42, 63, 95); fill-opacity: 1; white-space: pre; opacity: 1;" transform="translate(0,255.84)">$0.6M</text></g><g class="ytick"><text text-anchor="end" x="79" y="4.199999999999999" style="font-family: 'Open Sans', verdana, arial, sans-serif; font-size: 12px; fill: rgb(42, 63, 95); fill-opacity: 1; white-space: pre; opacity: 1;" transform="translate(0,206.68)">$0.8M</text></g><g class="ytick"><text text-anchor="end" x="79" y="4.199999999999999" style="font-family: 'Open Sans', verdana, arial, sans-serif; font-size: 12px; fill: rgb(42, 63, 95); fill-opacity: 1; white-space: pre; opacity: 1;" transform="translate(0,157.52)">$1M</text></g><g class="ytick"><text text-anchor="end" x="79" y="4.199999999999999" style="font-family: 'Open Sans', verdana, arial, sans-serif; font-size: 12px; fill: rgb(42, 63, 95); fill-opacity: 1; white-space: pre; opacity: 1;" transform="translate(0,108.36)">$1.2M</text></g></g><g class="overaxes-above"/></g></g><g class="polarlayer"/><g class="smithlayer"/><g class="ternarylayer"/><g class="geolayer"/><g class="funnelarealayer"/><g class="pielayer"/><g class="iciclelayer"/><g class="treemaplayer"/><g class="sunburstlayer"/><g class="glimages"/><defs id="topdefs-d42638"><g class="clips"/></defs><g class="layer-above"><g class="imagelayer"/><g class="shapelayer"/></g><g class="infolayer"><g class="g-gtitle"><text class="gtitle" x="35" y="50" text-anchor="start" dy="0em" style="font-family: 'Open Sans', verdana, arial, sans-serif; font-size: 17px; fill: rgb(42, 63, 95); opacity: 1; font-weight: normal; white-space: pre;"><tspan class="line" dy="0em" x="35" y="50">Overnight - USD+/LUSD: Velodrome</tspan><tspan class="line" dy="1.3em" x="35" y="50">​<tspan style="font-size:70%" dy="-0.6em">Cumulative Net Flows since Program Announcement, Until Program End + 30 Days - At Last Price</tspan><tspan dy="0.42em">​</tspan></tspan></text></g><g class="g-xtitle"><text class="xtitle" x="350" y="460.3" text-anchor="middle" style="font-family: 'Open Sans', verdana, arial, sans-serif; font-size: 14px; fill: rgb(42, 63, 95); opacity: 1; font-weight: normal; white-space: pre;">Day</text></g><g class="g-ytitle"><text class="ytitle" transform="rotate(-90,21.340625000000003,260)" x="21.340625000000003" y="260" text-anchor="middle" style="font-family: 'Open Sans', verdana, arial, sans-serif; font-size: 14px; fill: rgb(42, 63, 95); opacity: 1; font-weight: normal; white-space: pre;">Cumulative Net Flows (USD)</text></g></g></svg>