<svg class="main-svg" xmlns="http://www.w3.org/2000/svg" xmlns:xlink="http://www.w3.org/1999/xlink" width="700" height="500" style="" viewBox="0 0 700 500"><rect x="0" y="0" width="700" height="500" style="fill: rgb(255, 255, 255); fill-opacity: 1;"/><defs id="defs-c4cf99"><g class="clips"><clipPath id="clipc4cf99xyplot" class="plotclip"><rect width="540" height="320"/></clipPath><clipPath class="axesclip" id="clipc4cf99x"><rect x="80" y="0" width="540" height="500"/></clipPath><clipPath class="axesclip" id="clipc4cf99y"><rect x="0" y="100" width="700" height="320"/></clipPath><clipPath class="axesclip" id="clipc4cf99xy"><rect x="80" y="100" width="540" height="320"/></clipPath></g><g class="gradients"/><g class="patterns"/></defs><g class="bglayer"><rect class="bg" x="80" y="100" width="540" height="320" style="fill: rgb(229, 236, 246); fill-opacity: 1; stroke-width: 0;"/></g><g class="layer-below"><g class="imagelayer"/><g class="shapelayer"/></g><g class="cartesianlayer"><g class="subplot xy"><g class="layer-subplot"><g class="shapelayer"/><g class="imagelayer"/></g><g class="minor-gridlayer"><g class="x"/><g class="y"/></g><g class="gridlayer"><g class="x"><path class="xgrid crisp" transform="translate(90.03,0)" d="M0,100v320" style="stroke: rgb(255, 255, 255); stroke-opacity: 1; stroke-width: 1px;"/><path class="xgrid crisp" transform="translate(177.4,0)" d="M0,100v320" style="stroke: rgb(255, 255, 255); stroke-opacity: 1; stroke-width: 1px;"/><path class="xgrid crisp" transform="translate(264.77,0)" d="M0,100v320" style="stroke: rgb(255, 255, 255); stroke-opacity: 1; stroke-width: 1px;"/><path class="xgrid crisp" transform="translate(349.28,0)" d="M0,100v320" style="stroke: rgb(255, 255, 255); stroke-opacity: 1; stroke-width: 1px;"/><path class="xgrid crisp" transform="translate(436.66,0)" d="M0,100v320" style="stroke: rgb(255, 255, 255); stroke-opacity: 1; stroke-width: 1px;"/><path class="xgrid crisp" transform="translate(524.03,0)" d="M0,100v320" style="stroke: rgb(255, 255, 255); stroke-opacity: 1; stroke-width: 1px;"/><path class="xgrid crisp" transform="translate(612.84,0)" d="M0,100v320" style="stroke: rgb(255, 255, 255); stroke-opacity: 1; stroke-width: 1px;"/></g><g class="y"><path class="ygrid crisp" transform="translate(0,377.9)" d="M80,0h540" style="stroke: rgb(255, 255, 255); stroke-opacity: 1; stroke-width: 1px;"/><path class="ygrid crisp" transform="translate(0,335.8)" d="M80,0h540" style="stroke: rgb(255, 255, 255); stroke-opacity: 1; stroke-width: 1px;"/><path class="ygrid crisp" transform="translate(0,293.7)" d="M80,0h540" style="stroke: rgb(255, 255, 255); stroke-opacity: 1; stroke-width: 1px;"/><path class="ygrid crisp" transform="translate(0,251.6)" d="M80,0h540" style="stroke: rgb(255, 255, 255); stroke-opacity: 1; stroke-width: 1px;"/><path class="ygrid crisp" transform="translate(0,209.5)" d="M80,0h540" style="stroke: rgb(255, 255, 255); stroke-opacity: 1; stroke-width: 1px;"/><path class="ygrid crisp" transform="translate(0,167.4)" d="M80,0h540" style="stroke: rgb(255, 255, 255); stroke-opacity: 1; stroke-width: 1px;"/><path class="ygrid crisp" transform="translate(0,125.3)" d="M80,0h540" style="stroke: rgb(255, 255, 255); stroke-opacity: 1; stroke-width: 1px;"/></g></g><g class="zerolinelayer"><path class="yzl zl crisp" transform="translate(0,420)" d="M80,0h540" style="stroke: rgb(255, 255, 255); stroke-opacity: 1; stroke-width: 2px;"/></g><path class="xlines-below"/><path class="ylines-below"/><g class="overlines-below"/><g class="xaxislayer-below"/><g class="yaxislayer-below"/><g class="overaxes-below"/><g class="plot" transform="translate(80,100)" clip-path="url(#clipc4cf99xyplot)"><g class="scatterlayer mlayer"><g class="trace scatter tracedf5680" style="stroke-miterlimit: 2;"><g class="fills"><g><path class="js-fill" d="M540,320L0,320L0,230.06L1.43,212.33L2.86,207.62L7.16,200.39L8.59,188.19L10.03,185.6L11.46,188.42L14.32,180.8L15.76,179.91L17.19,180.18L18.62,177.11L21.49,160.59L22.92,155.14L25.78,149.93L27.21,150.78L28.65,153.17L30.08,157.06L31.51,152.83L32.94,145.7L35.81,150.11L37.24,153.1L40.11,154.99L41.54,158.88L44.4,160.12L45.84,159.79L47.27,161.64L48.7,149.06L50.13,151.79L51.56,163.68L54.43,163.94L55.86,164.57L57.29,165.6L58.73,168.52L60.16,172.11L61.59,169.19L63.02,173.56L64.46,175L67.32,178.27L68.75,177.39L71.62,178.36L73.05,169.95L75.92,169.77L77.35,170.99L78.78,171.8L80.21,171.45L84.51,171L85.94,170.71L87.37,168.92L88.81,168.76L90.24,168.63L91.67,176.02L93.1,175.02L94.54,169.79L95.97,170.21L97.4,165.79L100.27,160.86L101.7,143.37L103.13,141.89L104.56,142.3L107.43,141.43L108.86,162.23L111.72,172.4L113.16,168.81L114.59,173.07L116.02,168.77L118.89,168.17L120.32,172.06L121.75,175.63L123.18,174.78L124.62,174.87L126.05,177.41L127.48,179.64L128.91,178.98L130.34,174.68L131.78,175.14L136.07,174.91L137.51,175.25L138.94,174.11L140.37,176.5L141.8,175.46L143.24,172.85L144.67,171.3L146.1,171L147.53,168.61L148.97,162.84L150.4,157.63L151.83,158.58L153.26,157.46L154.69,157.95L156.13,157.24L157.56,151.35L158.99,151.55L160.42,140.92L161.86,150.58L163.29,152.97L166.15,153.51L167.59,154.96L169.02,159.66L170.45,158.82L171.88,159.34L173.32,158.83L176.18,159L177.61,158.71L179.05,162.51L180.48,162.65L181.91,161.18L183.34,155.17L184.77,161.22L186.21,163.04L187.64,162.96L189.07,164.95L190.5,164.93L191.94,162.78L193.37,159.28L194.8,159.39L197.67,149.1L199.1,139.57L200.53,138.14L201.96,140.74L203.4,138.09L204.83,131.58L207.69,131.03L209.12,129.77L210.56,130.38L211.99,127.59L214.85,119.08L216.29,117.94L217.72,116.08L219.15,105.65L222.02,71.76L223.45,72.55L224.88,56.45L226.31,55.66L227.75,44.43L229.18,43.28L230.61,37.87L232.04,16L234.91,23L236.34,22.65L237.77,23.54L239.2,26.84L240.64,50.45L242.07,49.16L243.5,48.95L244.93,37.93L246.37,39.05L247.8,37.77L249.23,38.36L250.66,36.06L252.1,36.96L253.53,41.92L254.96,41.68L256.39,42.67L257.82,54.5L259.26,55.16L260.69,55.58L262.12,55.15L263.55,53.92L264.99,51.64L267.85,51.6L269.28,44.78L270.72,44.52L272.15,46.18L273.58,32.98L275.01,32.39L276.45,30.84L277.88,31.26L279.31,30.57L280.74,32.26L282.18,35.39L283.61,40.8L285.04,128.72L286.47,127.55L289.34,90.6L290.77,88.12L292.2,77.72L293.63,81.77L295.07,90.99L296.5,91.79L297.93,91.7L299.36,89.42L302.23,55.72L303.66,56.15L307.96,112.82L309.39,160.65L310.82,176.3L312.25,180.69L313.69,188.8L315.12,192.12L316.55,197.76L317.98,200.23L319.42,203.94L320.85,204.99L322.28,206.58L323.71,210.35L329.44,215.11L330.88,215.21L332.31,237.57L333.74,238.9L336.6,241.04L338.04,241.53L340.9,243.27L342.33,243.27L343.77,242.24L345.2,242.67L346.63,242.94L348.06,245.15L349.5,246.88L350.93,250.25L362.39,252.09L363.82,252.82L365.25,272.93L366.68,273.64L369.55,274.12L370.98,274.6L372.41,275.9L373.85,255.96L381.01,256.42L382.44,258.84L389.6,259.44L391.03,261.86L411.09,263.33L412.52,268.1L421.11,269.55L422.55,270.18L429.71,270.19L431.14,274.08L432.57,274.23L434.01,275.16L446.9,276.61L448.33,277.2L449.76,278.55L451.19,278.54L459.79,278.76L461.22,279.62L465.52,279.96L466.95,280.98L468.38,293.59L469.81,293.62L485.57,293.76L487,318.22L488.44,318.3L489.87,294.36L492.73,294.39L494.16,318.26L497.03,317.89L498.46,297.89L499.89,297.95L501.33,294.25L502.76,308.87L504.19,308.88L512.79,308.91L514.22,313.07L540,313.39" style="fill: rgb(99, 110, 250); fill-opacity: 0.5; stroke-width: 0;"/></g></g><g class="errorbars"/><g class="lines"><path class="js-line" d="M0,230.06L1.43,212.33L2.86,207.62L7.16,200.39L8.59,188.19L10.03,185.6L11.46,188.42L14.32,180.8L15.76,179.91L17.19,180.18L18.62,177.11L21.49,160.59L22.92,155.14L25.78,149.93L27.21,150.78L28.65,153.17L30.08,157.06L31.51,152.83L32.94,145.7L35.81,150.11L37.24,153.1L40.11,154.99L41.54,158.88L44.4,160.12L45.84,159.79L47.27,161.64L48.7,149.06L50.13,151.79L51.56,163.68L54.43,163.94L55.86,164.57L57.29,165.6L58.73,168.52L60.16,172.11L61.59,169.19L63.02,173.56L64.46,175L67.32,178.27L68.75,177.39L71.62,178.36L73.05,169.95L75.92,169.77L77.35,170.99L78.78,171.8L80.21,171.45L84.51,171L85.94,170.71L87.37,168.92L88.81,168.76L90.24,168.63L91.67,176.02L93.1,175.02L94.54,169.79L95.97,170.21L97.4,165.79L100.27,160.86L101.7,143.37L103.13,141.89L104.56,142.3L107.43,141.43L108.86,162.23L111.72,172.4L113.16,168.81L114.59,173.07L116.02,168.77L118.89,168.17L120.32,172.06L121.75,175.63L123.18,174.78L124.62,174.87L126.05,177.41L127.48,179.64L128.91,178.98L130.34,174.68L131.78,175.14L136.07,174.91L137.51,175.25L138.94,174.11L140.37,176.5L141.8,175.46L143.24,172.85L144.67,171.3L146.1,171L147.53,168.61L148.97,162.84L150.4,157.63L151.83,158.58L153.26,157.46L154.69,157.95L156.13,157.24L157.56,151.35L158.99,151.55L160.42,140.92L161.86,150.58L163.29,152.97L166.15,153.51L167.59,154.96L169.02,159.66L170.45,158.82L171.88,159.34L173.32,158.83L176.18,159L177.61,158.71L179.05,162.51L180.48,162.65L181.91,161.18L183.34,155.17L184.77,161.22L186.21,163.04L187.64,162.96L189.07,164.95L190.5,164.93L191.94,162.78L193.37,159.28L194.8,159.39L197.67,149.1L199.1,139.57L200.53,138.14L201.96,140.74L203.4,138.09L204.83,131.58L207.69,131.03L209.12,129.77L210.56,130.38L211.99,127.59L214.85,119.08L216.29,117.94L217.72,116.08L219.15,105.65L222.02,71.76L223.45,72.55L224.88,56.45L226.31,55.66L227.75,44.43L229.18,43.28L230.61,37.87L232.04,16L234.91,23L236.34,22.65L237.77,23.54L239.2,26.84L240.64,50.45L242.07,49.16L243.5,48.95L244.93,37.93L246.37,39.05L247.8,37.77L249.23,38.36L250.66,36.06L252.1,36.96L253.53,41.92L254.96,41.68L256.39,42.67L257.82,54.5L259.26,55.16L260.69,55.58L262.12,55.15L263.55,53.92L264.99,51.64L267.85,51.6L269.28,44.78L270.72,44.52L272.15,46.18L273.58,32.98L275.01,32.39L276.45,30.84L277.88,31.26L279.31,30.57L280.74,32.26L282.18,35.39L283.61,40.8L285.04,128.72L286.47,127.55L289.34,90.6L290.77,88.12L292.2,77.72L293.63,81.77L295.07,90.99L296.5,91.79L297.93,91.7L299.36,89.42L302.23,55.72L303.66,56.15L307.96,112.82L309.39,160.65L310.82,176.3L312.25,180.69L313.69,188.8L315.12,192.12L316.55,197.76L317.98,200.23L319.42,203.94L320.85,204.99L322.28,206.58L323.71,210.35L329.44,215.11L330.88,215.21L332.31,237.57L333.74,238.9L336.6,241.04L338.04,241.53L340.9,243.27L342.33,243.27L343.77,242.24L345.2,242.67L346.63,242.94L348.06,245.15L349.5,246.88L350.93,250.25L362.39,252.09L363.82,252.82L365.25,272.93L366.68,273.64L369.55,274.12L370.98,274.6L372.41,275.9L373.85,255.96L381.01,256.42L382.44,258.84L389.6,259.44L391.03,261.86L411.09,263.33L412.52,268.1L421.11,269.55L422.55,270.18L429.71,270.19L431.14,274.08L432.57,274.23L434.01,275.16L446.9,276.61L448.33,277.2L449.76,278.55L451.19,278.54L459.79,278.76L461.22,279.62L465.52,279.96L466.95,280.98L468.38,293.59L469.81,293.62L485.57,293.76L487,318.22L488.44,318.3L489.87,294.36L492.73,294.39L494.16,318.26L497.03,317.89L498.46,297.89L499.89,297.95L501.33,294.25L502.76,308.87L504.19,308.88L512.79,308.91L514.22,313.07L540,313.39" style="vector-effect: none; fill: none; stroke: rgb(99, 110, 250); stroke-opacity: 1; stroke-width: 2px; opacity: 1;"/></g><g class="points"/><g class="text"/></g></g></g><g class="overplot"/><path class="xlines-above crisp" d="M0,0" style="fill: none;"/><path class="ylines-above crisp" d="M0,0" style="fill: none;"/><g class="overlines-above"/><g class="xaxislayer-above"><g class="xtick"><text text-anchor="middle" x="0" y="433" transform="translate(90.03,0)" style="font-family: 'Open Sans', verdana, arial, sans-serif; font-size: 12px; fill: rgb(42, 63, 95); fill-opacity: 1; white-space: pre; opacity: 1;">Sep 2022</text></g><g class="xtick"><text text-anchor="middle" x="0" y="433" style="font-family: 'Open Sans', verdana, arial, sans-serif; font-size: 12px; fill: rgb(42, 63, 95); fill-opacity: 1; white-space: pre; opacity: 1;" transform="translate(177.4,0)">Nov 2022</text></g><g class="xtick"><text text-anchor="middle" x="0" y="433" style="font-family: 'Open Sans', verdana, arial, sans-serif; font-size: 12px; fill: rgb(42, 63, 95); fill-opacity: 1; white-space: pre; opacity: 1;" transform="translate(264.77,0)">Jan 2023</text></g><g class="xtick"><text text-anchor="middle" x="0" y="433" style="font-family: 'Open Sans', verdana, arial, sans-serif; font-size: 12px; fill: rgb(42, 63, 95); fill-opacity: 1; white-space: pre; opacity: 1;" transform="translate(349.28,0)">Mar 2023</text></g><g class="xtick"><text text-anchor="middle" x="0" y="433" style="font-family: 'Open Sans', verdana, arial, sans-serif; font-size: 12px; fill: rgb(42, 63, 95); fill-opacity: 1; white-space: pre; opacity: 1;" transform="translate(436.66,0)">May 2023</text></g><g class="xtick"><text text-anchor="middle" x="0" y="433" style="font-family: 'Open Sans', verdana, arial, sans-serif; font-size: 12px; fill: rgb(42, 63, 95); fill-opacity: 1; white-space: pre; opacity: 1;" transform="translate(524.03,0)">Jul 2023</text></g><g class="xtick"><text text-anchor="middle" x="0" y="433" style="font-family: 'Open Sans', verdana, arial, sans-serif; font-size: 12px; fill: rgb(42, 63, 95); fill-opacity: 1; white-space: pre; opacity: 1;" transform="translate(612.84,0)">Sep 2023</text></g></g><g class="yaxislayer-above"><g class="ytick"><text text-anchor="end" x="79" y="4.199999999999999" transform="translate(0,420)" style="font-family: 'Open Sans', verdana, arial, sans-serif; font-size: 12px; fill: rgb(42, 63, 95); fill-opacity: 1; white-space: pre; opacity: 1;">$0</text></g><g class="ytick"><text text-anchor="end" x="79" y="4.199999999999999" style="font-family: 'Open Sans', verdana, arial, sans-serif; font-size: 12px; fill: rgb(42, 63, 95); fill-opacity: 1; white-space: pre; opacity: 1;" transform="translate(0,377.9)">$10M</text></g><g class="ytick"><text text-anchor="end" x="79" y="4.199999999999999" style="font-family: 'Open Sans', verdana, arial, sans-serif; font-size: 12px; fill: rgb(42, 63, 95); fill-opacity: 1; white-space: pre; opacity: 1;" transform="translate(0,335.8)">$20M</text></g><g class="ytick"><text text-anchor="end" x="79" y="4.199999999999999" style="font-family: 'Open Sans', verdana, arial, sans-serif; font-size: 12px; fill: rgb(42, 63, 95); fill-opacity: 1; white-space: pre; opacity: 1;" transform="translate(0,293.7)">$30M</text></g><g class="ytick"><text text-anchor="end" x="79" y="4.199999999999999" style="font-family: 'Open Sans', verdana, arial, sans-serif; font-size: 12px; fill: rgb(42, 63, 95); fill-opacity: 1; white-space: pre; opacity: 1;" transform="translate(0,251.6)">$40M</text></g><g class="ytick"><text text-anchor="end" x="79" y="4.199999999999999" style="font-family: 'Open Sans', verdana, arial, sans-serif; font-size: 12px; fill: rgb(42, 63, 95); fill-opacity: 1; white-space: pre; opacity: 1;" transform="translate(0,209.5)">$50M</text></g><g class="ytick"><text text-anchor="end" x="79" y="4.199999999999999" style="font-family: 'Open Sans', verdana, arial, sans-serif; font-size: 12px; fill: rgb(42, 63, 95); fill-opacity: 1; white-space: pre; opacity: 1;" transform="translate(0,167.4)">$60M</text></g><g class="ytick"><text text-anchor="end" x="79" y="4.199999999999999" style="font-family: 'Open Sans', verdana, arial, sans-serif; font-size: 12px; fill: rgb(42, 63, 95); fill-opacity: 1; white-space: pre; opacity: 1;" transform="translate(0,125.3)">$70M</text></g></g><g class="overaxes-above"/></g></g><g class="polarlayer"/><g class="smithlayer"/><g class="ternarylayer"/><g class="geolayer"/><g class="funnelarealayer"/><g class="pielayer"/><g class="iciclelayer"/><g class="treemaplayer"/><g class="sunburstlayer"/><g class="glimages"/><defs id="topdefs-c4cf99"><g class="clips"/></defs><g class="layer-above"><g class="imagelayer"/><g class="shapelayer"/></g><g class="infolayer"><g class="g-gtitle"><text class="gtitle" x="35" y="50" text-anchor="start" dy="0em" style="font-family: 'Open Sans', verdana, arial, sans-serif; font-size: 17px; fill: rgb(42, 63, 95); opacity: 1; font-weight: normal; white-space: pre;"><tspan class="line" dy="0em" x="35" y="50">Synthetix - All Synthetix Curve Pools</tspan><tspan class="line" dy="1.3em" x="35" y="50">​<tspan style="font-size:70%" dy="-0.6em">Cumulative Net Flows since Program Announcement, Until Program End + 30 Days - At Last Price</tspan><tspan dy="0.42em">​</tspan></tspan></text></g><g class="g-xtitle"><text class="xtitle" x="350" y="460.3" text-anchor="middle" style="font-family: 'Open Sans', verdana, arial, sans-serif; font-size: 14px; fill: rgb(42, 63, 95); opacity: 1; font-weight: normal; white-space: pre;">Day</text></g><g class="g-ytitle"><text class="ytitle" transform="rotate(-90,24.668750000000003,260)" x="24.668750000000003" y="260" text-anchor="middle" style="font-family: 'Open Sans', verdana, arial, sans-serif; font-size: 14px; fill: rgb(42, 63, 95); opacity: 1; font-weight: normal; white-space: pre;">Cumulative Net Flows (USD)</text></g></g></svg>