<svg class="main-svg" xmlns="http://www.w3.org/2000/svg" xmlns:xlink="http://www.w3.org/1999/xlink" width="700" height="500" style="" viewBox="0 0 700 500"><rect x="0" y="0" width="700" height="500" style="fill: rgb(255, 255, 255); fill-opacity: 1;"/><defs id="defs-def90c"><g class="clips"><clipPath id="clipdef90cxyplot" class="plotclip"><rect width="540" height="320"/></clipPath><clipPath class="axesclip" id="clipdef90cx"><rect x="80" y="0" width="540" height="500"/></clipPath><clipPath class="axesclip" id="clipdef90cy"><rect x="0" y="100" width="700" height="320"/></clipPath><clipPath class="axesclip" id="clipdef90cxy"><rect x="80" y="100" width="540" height="320"/></clipPath></g><g class="gradients"/><g class="patterns"/></defs><g class="bglayer"><rect class="bg" x="80" y="100" width="540" height="320" style="fill: rgb(229, 236, 246); fill-opacity: 1; stroke-width: 0;"/></g><g class="layer-below"><g class="imagelayer"/><g class="shapelayer"/></g><g class="cartesianlayer"><g class="subplot xy"><g class="layer-subplot"><g class="shapelayer"/><g class="imagelayer"/></g><g class="minor-gridlayer"><g class="x"/><g class="y"/></g><g class="gridlayer"><g class="x"><path class="xgrid crisp" transform="translate(148.75,0)" d="M0,100v320" style="stroke: rgb(255, 255, 255); stroke-opacity: 1; stroke-width: 1px;"/><path class="xgrid crisp" transform="translate(236.13,0)" d="M0,100v320" style="stroke: rgb(255, 255, 255); stroke-opacity: 1; stroke-width: 1px;"/><path class="xgrid crisp" transform="translate(320.64,0)" d="M0,100v320" style="stroke: rgb(255, 255, 255); stroke-opacity: 1; stroke-width: 1px;"/><path class="xgrid crisp" transform="translate(408.01,0)" d="M0,100v320" style="stroke: rgb(255, 255, 255); stroke-opacity: 1; stroke-width: 1px;"/><path class="xgrid crisp" transform="translate(495.38,0)" d="M0,100v320" style="stroke: rgb(255, 255, 255); stroke-opacity: 1; stroke-width: 1px;"/><path class="xgrid crisp" transform="translate(584.19,0)" d="M0,100v320" style="stroke: rgb(255, 255, 255); stroke-opacity: 1; stroke-width: 1px;"/></g><g class="y"><path class="ygrid crisp" transform="translate(0,322.85)" d="M80,0h540" style="stroke: rgb(255, 255, 255); stroke-opacity: 1; stroke-width: 1px;"/><path class="ygrid crisp" transform="translate(0,252)" d="M80,0h540" style="stroke: rgb(255, 255, 255); stroke-opacity: 1; stroke-width: 1px;"/><path class="ygrid crisp" transform="translate(0,181.15)" d="M80,0h540" style="stroke: rgb(255, 255, 255); stroke-opacity: 1; stroke-width: 1px;"/><path class="ygrid crisp" transform="translate(0,110.3)" d="M80,0h540" style="stroke: rgb(255, 255, 255); stroke-opacity: 1; stroke-width: 1px;"/></g></g><g class="zerolinelayer"><path class="yzl zl crisp" transform="translate(0,393.7)" d="M80,0h540" style="stroke: rgb(255, 255, 255); stroke-opacity: 1; stroke-width: 2px;"/></g><path class="xlines-below"/><path class="ylines-below"/><g class="overlines-below"/><g class="xaxislayer-below"/><g class="yaxislayer-below"/><g class="overaxes-below"/><g class="plot" transform="translate(80,100)" clip-path="url(#clipdef90cxyplot)"><g class="scatterlayer mlayer"><g class="trace scatter trace376553" style="stroke-miterlimit: 2;"><g class="fills"><g><path class="js-fill" d="M540,293.7L0,293.7L0,296.11L1.43,295.51L2.86,297.11L4.3,301.05L5.73,300.59L7.16,302.11L8.59,301.38L11.46,304L12.89,302.43L15.76,301.77L17.19,302.27L20.05,300.6L21.49,299.74L22.92,299.75L24.35,298.69L31.51,295.72L32.94,292.27L40.11,292.03L41.54,291.53L45.84,290.14L47.27,288.98L48.7,287.9L50.13,288.45L51.56,287.56L53,283.45L55.86,279.49L57.29,279.96L58.73,279.46L60.16,267.32L64.46,272.07L65.89,271.63L67.32,272.25L68.75,270.73L70.19,270.4L71.62,271.26L73.05,267.03L74.48,267.47L75.92,263.59L77.35,262.92L78.78,262.62L80.21,266.54L81.64,274.47L83.08,273.81L84.51,277.38L85.94,277.63L87.37,285.73L88.81,285.1L90.24,283.51L91.67,284.62L93.1,283.21L94.54,283.34L95.97,281.3L97.4,283.01L98.83,283.38L100.27,282.9L103.13,280.31L104.56,279.09L105.99,277.79L107.43,278.55L108.86,278.46L110.29,276.45L111.72,276.19L113.16,274.85L117.45,273.3L118.89,273.61L120.32,272.07L121.75,272.33L123.18,268.78L124.62,268.6L126.05,267.36L127.48,267.24L128.91,269.22L130.34,266.71L131.78,265.84L133.21,266.38L134.64,266.19L136.07,266.87L137.51,266.28L138.94,267.2L140.37,266.22L141.8,264.22L143.24,264.04L144.67,264.84L151.83,264.3L153.26,265.19L154.69,267.02L156.13,267.1L157.56,267.39L158.99,265.23L160.42,263.17L161.86,258.18L163.29,257.11L164.72,258.89L167.59,250.79L169.02,245.57L170.45,241.41L171.88,240.09L173.32,242.66L174.75,243.35L177.61,246.46L179.05,251.44L181.91,257.52L183.34,257.67L184.77,267.14L186.21,270.75L187.64,273.5L189.07,274.26L190.5,275.67L191.94,275.34L196.23,277.93L197.67,277.66L200.53,278.55L201.96,277.19L206.26,279.13L207.69,279.53L211.99,278.54L213.42,280.45L214.85,282.05L216.29,282.08L219.15,282.85L220.58,282.32L222.02,281L223.45,281.81L229.18,282.88L230.61,283.13L236.34,285.77L237.77,285.17L243.5,285.3L244.93,286.81L247.8,288.24L249.23,288.63L252.1,289.13L253.53,290.17L256.39,293.48L257.82,291.52L260.69,291.12L262.12,291.45L263.55,291.29L264.99,294.45L267.85,296.18L269.28,296.39L270.72,295.96L272.15,296.42L273.58,295.52L275.01,296.24L280.74,295.81L282.18,294.48L283.61,293.58L285.04,124.16L289.34,123.88L290.77,122.22L292.2,123.04L293.63,122.82L296.5,124.24L297.93,123.07L302.23,123.2L303.66,121.28L305.09,123.08L306.53,122.99L307.96,122.9L309.39,121.78L310.82,132.99L312.25,132.01L313.69,130.67L315.12,136.13L316.55,133.34L317.98,133.94L319.42,133.97L320.85,132.39L322.28,127.88L323.71,130.37L325.15,130.37L326.58,129.11L328.01,128.48L329.44,131.67L330.88,131.15L332.31,67.05L333.74,66.93L335.17,130.76L336.6,123.73L338.04,126L339.47,125.78L340.9,124.52L342.33,120.56L343.77,124.88L345.2,124.59L346.63,120.93L348.06,119.56L349.5,116.82L350.93,119.18L352.36,115.99L355.23,122.3L356.66,121.01L358.09,123.38L359.52,123.87L360.95,123.33L362.39,124.86L363.82,129.66L365.25,128.34L366.68,129.04L368.12,128.47L370.98,130.51L372.41,135.59L373.85,138.76L375.28,135.62L376.71,135.63L378.14,137.32L379.58,142.09L381.01,138.37L383.87,138.53L385.31,141.3L389.6,145.36L391.03,144.15L393.9,148.89L395.33,148.48L396.76,146.07L398.2,148.56L399.63,150.62L401.06,143.65L402.49,141.34L403.93,146.55L405.36,148.16L406.79,147.64L409.66,146.06L411.09,143.7L412.52,148.45L413.95,147.25L415.38,142.43L416.82,141.84L418.25,141.96L419.68,139.79L421.11,139.21L422.55,126.81L425.41,117.91L426.84,116.73L428.28,120.39L429.71,115.99L432.57,113.39L434.01,103.37L435.44,93.61L436.87,96.61L438.3,105.28L439.73,94.67L441.17,94.04L442.6,102.96L444.03,97.95L445.46,97.15L446.9,99.37L448.33,99.6L449.76,94.98L451.19,94.21L452.63,103.92L454.06,91.21L456.92,75.64L458.36,70.49L459.79,65.54L461.22,57.58L462.65,54.2L464.08,57.8L465.52,90.59L466.95,93.91L468.38,81.93L469.81,80.5L472.68,64.66L474.11,63.44L475.54,71.08L476.98,67.35L478.41,60.55L479.84,66.1L482.71,54.54L484.14,77.96L485.57,87.75L487,90.28L488.44,87.93L489.87,77.8L492.73,87.36L494.16,29.42L495.6,21.76L497.03,22.06L498.46,16L499.89,30.83L501.33,34.81L502.76,42.16L504.19,24.77L505.62,34.16L507.06,30.42L508.49,31.36L509.92,22.79L511.35,47.79L512.79,51.8L514.22,62.46L515.65,69.32L517.08,31.62L518.51,37.01L519.95,87.25L521.38,74.3L522.81,76.83L524.24,71.84L525.68,72.67L527.11,71.48L528.54,74.48L529.97,63.41L531.41,62.76L532.84,66.08L534.27,62.93L535.7,66.14L537.14,65.82L538.57,70.56L540,70.96" style="fill: rgb(99, 110, 250); fill-opacity: 0.5; stroke-width: 0;"/></g></g><g class="errorbars"/><g class="lines"><path class="js-line" d="M0,296.11L1.43,295.51L2.86,297.11L4.3,301.05L5.73,300.59L7.16,302.11L8.59,301.38L11.46,304L12.89,302.43L15.76,301.77L17.19,302.27L20.05,300.6L21.49,299.74L22.92,299.75L24.35,298.69L31.51,295.72L32.94,292.27L40.11,292.03L41.54,291.53L45.84,290.14L47.27,288.98L48.7,287.9L50.13,288.45L51.56,287.56L53,283.45L55.86,279.49L57.29,279.96L58.73,279.46L60.16,267.32L64.46,272.07L65.89,271.63L67.32,272.25L68.75,270.73L70.19,270.4L71.62,271.26L73.05,267.03L74.48,267.47L75.92,263.59L77.35,262.92L78.78,262.62L80.21,266.54L81.64,274.47L83.08,273.81L84.51,277.38L85.94,277.63L87.37,285.73L88.81,285.1L90.24,283.51L91.67,284.62L93.1,283.21L94.54,283.34L95.97,281.3L97.4,283.01L98.83,283.38L100.27,282.9L103.13,280.31L104.56,279.09L105.99,277.79L107.43,278.55L108.86,278.46L110.29,276.45L111.72,276.19L113.16,274.85L117.45,273.3L118.89,273.61L120.32,272.07L121.75,272.33L123.18,268.78L124.62,268.6L126.05,267.36L127.48,267.24L128.91,269.22L130.34,266.71L131.78,265.84L133.21,266.38L134.64,266.19L136.07,266.87L137.51,266.28L138.94,267.2L140.37,266.22L141.8,264.22L143.24,264.04L144.67,264.84L151.83,264.3L153.26,265.19L154.69,267.02L156.13,267.1L157.56,267.39L158.99,265.23L160.42,263.17L161.86,258.18L163.29,257.11L164.72,258.89L167.59,250.79L169.02,245.57L170.45,241.41L171.88,240.09L173.32,242.66L174.75,243.35L177.61,246.46L179.05,251.44L181.91,257.52L183.34,257.67L184.77,267.14L186.21,270.75L187.64,273.5L189.07,274.26L190.5,275.67L191.94,275.34L196.23,277.93L197.67,277.66L200.53,278.55L201.96,277.19L206.26,279.13L207.69,279.53L211.99,278.54L213.42,280.45L214.85,282.05L216.29,282.08L219.15,282.85L220.58,282.32L222.02,281L223.45,281.81L229.18,282.88L230.61,283.13L236.34,285.77L237.77,285.17L243.5,285.3L244.93,286.81L247.8,288.24L249.23,288.63L252.1,289.13L253.53,290.17L256.39,293.48L257.82,291.52L260.69,291.12L262.12,291.45L263.55,291.29L264.99,294.45L267.85,296.18L269.28,296.39L270.72,295.96L272.15,296.42L273.58,295.52L275.01,296.24L280.74,295.81L282.18,294.48L283.61,293.58L285.04,124.16L289.34,123.88L290.77,122.22L292.2,123.04L293.63,122.82L296.5,124.24L297.93,123.07L302.23,123.2L303.66,121.28L305.09,123.08L306.53,122.99L307.96,122.9L309.39,121.78L310.82,132.99L312.25,132.01L313.69,130.67L315.12,136.13L316.55,133.34L317.98,133.94L319.42,133.97L320.85,132.39L322.28,127.88L323.71,130.37L325.15,130.37L326.58,129.11L328.01,128.48L329.44,131.67L330.88,131.15L332.31,67.05L333.74,66.93L335.17,130.76L336.6,123.73L338.04,126L339.47,125.78L340.9,124.52L342.33,120.56L343.77,124.88L345.2,124.59L346.63,120.93L348.06,119.56L349.5,116.82L350.93,119.18L352.36,115.99L355.23,122.3L356.66,121.01L358.09,123.38L359.52,123.87L360.95,123.33L362.39,124.86L363.82,129.66L365.25,128.34L366.68,129.04L368.12,128.47L370.98,130.51L372.41,135.59L373.85,138.76L375.28,135.62L376.71,135.63L378.14,137.32L379.58,142.09L381.01,138.37L383.87,138.53L385.31,141.3L389.6,145.36L391.03,144.15L393.9,148.89L395.33,148.48L396.76,146.07L398.2,148.56L399.63,150.62L401.06,143.65L402.49,141.34L403.93,146.55L405.36,148.16L406.79,147.64L409.66,146.06L411.09,143.7L412.52,148.45L413.95,147.25L415.38,142.43L416.82,141.84L418.25,141.96L419.68,139.79L421.11,139.21L422.55,126.81L425.41,117.91L426.84,116.73L428.28,120.39L429.71,115.99L432.57,113.39L434.01,103.37L435.44,93.61L436.87,96.61L438.3,105.28L439.73,94.67L441.17,94.04L442.6,102.96L444.03,97.95L445.46,97.15L446.9,99.37L448.33,99.6L449.76,94.98L451.19,94.21L452.63,103.92L454.06,91.21L456.92,75.64L458.36,70.49L459.79,65.54L461.22,57.58L462.65,54.2L464.08,57.8L465.52,90.59L466.95,93.91L468.38,81.93L469.81,80.5L472.68,64.66L474.11,63.44L475.54,71.08L476.98,67.35L478.41,60.55L479.84,66.1L482.71,54.54L484.14,77.96L485.57,87.75L487,90.28L488.44,87.93L489.87,77.8L492.73,87.36L494.16,29.42L495.6,21.76L497.03,22.06L498.46,16L499.89,30.83L501.33,34.81L502.76,42.16L504.19,24.77L505.62,34.16L507.06,30.42L508.49,31.36L509.92,22.79L511.35,47.79L512.79,51.8L514.22,62.46L515.65,69.32L517.08,31.62L518.51,37.01L519.95,87.25L521.38,74.3L522.81,76.83L524.24,71.84L525.68,72.67L527.11,71.48L528.54,74.48L529.97,63.41L531.41,62.76L532.84,66.08L534.27,62.93L535.7,66.14L537.14,65.82L538.57,70.56L540,70.96" style="vector-effect: none; fill: none; stroke: rgb(99, 110, 250); stroke-opacity: 1; stroke-width: 2px; opacity: 1;"/></g><g class="points"/><g class="text"/></g></g></g><g class="overplot"/><path class="xlines-above crisp" d="M0,0" style="fill: none;"/><path class="ylines-above crisp" d="M0,0" style="fill: none;"/><g class="overlines-above"/><g class="xaxislayer-above"><g class="xtick"><text text-anchor="middle" x="0" y="433" transform="translate(148.75,0)" style="font-family: 'Open Sans', verdana, arial, sans-serif; font-size: 12px; fill: rgb(42, 63, 95); fill-opacity: 1; white-space: pre; opacity: 1;">Nov 2022</text></g><g class="xtick"><text text-anchor="middle" x="0" y="433" style="font-family: 'Open Sans', verdana, arial, sans-serif; font-size: 12px; fill: rgb(42, 63, 95); fill-opacity: 1; white-space: pre; opacity: 1;" transform="translate(236.13,0)">Jan 2023</text></g><g class="xtick"><text text-anchor="middle" x="0" y="433" style="font-family: 'Open Sans', verdana, arial, sans-serif; font-size: 12px; fill: rgb(42, 63, 95); fill-opacity: 1; white-space: pre; opacity: 1;" transform="translate(320.64,0)">Mar 2023</text></g><g class="xtick"><text text-anchor="middle" x="0" y="433" style="font-family: 'Open Sans', verdana, arial, sans-serif; font-size: 12px; fill: rgb(42, 63, 95); fill-opacity: 1; white-space: pre; opacity: 1;" transform="translate(408.01,0)">May 2023</text></g><g class="xtick"><text text-anchor="middle" x="0" y="433" style="font-family: 'Open Sans', verdana, arial, sans-serif; font-size: 12px; fill: rgb(42, 63, 95); fill-opacity: 1; white-space: pre; opacity: 1;" transform="translate(495.38,0)">Jul 2023</text></g><g class="xtick"><text text-anchor="middle" x="0" y="433" style="font-family: 'Open Sans', verdana, arial, sans-serif; font-size: 12px; fill: rgb(42, 63, 95); fill-opacity: 1; white-space: pre; opacity: 1;" transform="translate(584.19,0)">Sep 2023</text></g></g><g class="yaxislayer-above"><g class="ytick"><text text-anchor="end" x="79" y="4.199999999999999" transform="translate(0,393.7)" style="font-family: 'Open Sans', verdana, arial, sans-serif; font-size: 12px; fill: rgb(42, 63, 95); fill-opacity: 1; white-space: pre; opacity: 1;">$0</text></g><g class="ytick"><text text-anchor="end" x="79" y="4.199999999999999" style="font-family: 'Open Sans', verdana, arial, sans-serif; font-size: 12px; fill: rgb(42, 63, 95); fill-opacity: 1; white-space: pre; opacity: 1;" transform="translate(0,322.85)">$1M</text></g><g class="ytick"><text text-anchor="end" x="79" y="4.199999999999999" style="font-family: 'Open Sans', verdana, arial, sans-serif; font-size: 12px; fill: rgb(42, 63, 95); fill-opacity: 1; white-space: pre; opacity: 1;" transform="translate(0,252)">$2M</text></g><g class="ytick"><text text-anchor="end" x="79" y="4.199999999999999" style="font-family: 'Open Sans', verdana, arial, sans-serif; font-size: 12px; fill: rgb(42, 63, 95); fill-opacity: 1; white-space: pre; opacity: 1;" transform="translate(0,181.15)">$3M</text></g><g class="ytick"><text text-anchor="end" x="79" y="4.199999999999999" style="font-family: 'Open Sans', verdana, arial, sans-serif; font-size: 12px; fill: rgb(42, 63, 95); fill-opacity: 1; white-space: pre; opacity: 1;" transform="translate(0,110.3)">$4M</text></g></g><g class="overaxes-above"/></g></g><g class="polarlayer"/><g class="smithlayer"/><g class="ternarylayer"/><g class="geolayer"/><g class="funnelarealayer"/><g class="pielayer"/><g class="iciclelayer"/><g class="treemaplayer"/><g class="sunburstlayer"/><g class="glimages"/><defs id="topdefs-def90c"><g class="clips"/></defs><g class="layer-above"><g class="imagelayer"/><g class="shapelayer"/></g><g class="infolayer"><g class="g-gtitle"><text class="gtitle" x="35" y="50" text-anchor="start" dy="0em" style="font-family: 'Open Sans', verdana, arial, sans-serif; font-size: 17px; fill: rgb(42, 63, 95); opacity: 1; font-weight: normal; white-space: pre;"><tspan class="line" dy="0em" x="35" y="50">Polynomial Protocol*</tspan><tspan class="line" dy="1.3em" x="35" y="50">​<tspan style="font-size:70%" dy="-0.6em">Cumulative Net Flows since Program Announcement, Until Program End + 30 Days - At Last Price</tspan><tspan dy="0.42em">​</tspan></tspan></text></g><g class="g-xtitle"><text class="xtitle" x="350" y="460.3" text-anchor="middle" style="font-family: 'Open Sans', verdana, arial, sans-serif; font-size: 14px; fill: rgb(42, 63, 95); opacity: 1; font-weight: normal; white-space: pre;">Day</text></g><g class="g-ytitle"><text class="ytitle" transform="rotate(-90,31.356250000000003,260)" x="31.356250000000003" y="260" text-anchor="middle" style="font-family: 'Open Sans', verdana, arial, sans-serif; font-size: 14px; fill: rgb(42, 63, 95); opacity: 1; font-weight: normal; white-space: pre;">Cumulative Net Flows (USD)</text></g></g></svg>