<svg class="main-svg" xmlns="http://www.w3.org/2000/svg" xmlns:xlink="http://www.w3.org/1999/xlink" width="700" height="500" style="" viewBox="0 0 700 500"><rect x="0" y="0" width="700" height="500" style="fill: rgb(255, 255, 255); fill-opacity: 1;"/><defs id="defs-476a3f"><g class="clips"><clipPath id="clip476a3fxyplot" class="plotclip"><rect width="540" height="320"/></clipPath><clipPath class="axesclip" id="clip476a3fx"><rect x="80" y="0" width="540" height="500"/></clipPath><clipPath class="axesclip" id="clip476a3fy"><rect x="0" y="100" width="700" height="320"/></clipPath><clipPath class="axesclip" id="clip476a3fxy"><rect x="80" y="100" width="540" height="320"/></clipPath></g><g class="gradients"/><g class="patterns"/></defs><g class="bglayer"><rect class="bg" x="80" y="100" width="540" height="320" style="fill: rgb(229, 236, 246); fill-opacity: 1; stroke-width: 0;"/></g><g class="layer-below"><g class="imagelayer"/><g class="shapelayer"/></g><g class="cartesianlayer"><g class="subplot xy"><g class="layer-subplot"><g class="shapelayer"/><g class="imagelayer"/></g><g class="minor-gridlayer"><g class="x"/><g class="y"/></g><g class="gridlayer"><g class="x"><path class="xgrid crisp" transform="translate(91.42,0)" d="M0,100v320" style="stroke: rgb(255, 255, 255); stroke-opacity: 1; stroke-width: 1px;"/><path class="xgrid crisp" transform="translate(190.94,0)" d="M0,100v320" style="stroke: rgb(255, 255, 255); stroke-opacity: 1; stroke-width: 1px;"/><path class="xgrid crisp" transform="translate(287.19,0)" d="M0,100v320" style="stroke: rgb(255, 255, 255); stroke-opacity: 1; stroke-width: 1px;"/><path class="xgrid crisp" transform="translate(386.71,0)" d="M0,100v320" style="stroke: rgb(255, 255, 255); stroke-opacity: 1; stroke-width: 1px;"/><path class="xgrid crisp" transform="translate(486.22,0)" d="M0,100v320" style="stroke: rgb(255, 255, 255); stroke-opacity: 1; stroke-width: 1px;"/><path class="xgrid crisp" transform="translate(587.37,0)" d="M0,100v320" style="stroke: rgb(255, 255, 255); stroke-opacity: 1; stroke-width: 1px;"/></g><g class="y"><path class="ygrid crisp" transform="translate(0,383.36)" d="M80,0h540" style="stroke: rgb(255, 255, 255); stroke-opacity: 1; stroke-width: 1px;"/><path class="ygrid crisp" transform="translate(0,346.72)" d="M80,0h540" style="stroke: rgb(255, 255, 255); stroke-opacity: 1; stroke-width: 1px;"/><path class="ygrid crisp" transform="translate(0,310.08000000000004)" d="M80,0h540" style="stroke: rgb(255, 255, 255); stroke-opacity: 1; stroke-width: 1px;"/><path class="ygrid crisp" transform="translate(0,273.44)" d="M80,0h540" style="stroke: rgb(255, 255, 255); stroke-opacity: 1; stroke-width: 1px;"/><path class="ygrid crisp" transform="translate(0,236.81)" d="M80,0h540" style="stroke: rgb(255, 255, 255); stroke-opacity: 1; stroke-width: 1px;"/><path class="ygrid crisp" transform="translate(0,200.17000000000002)" d="M80,0h540" style="stroke: rgb(255, 255, 255); stroke-opacity: 1; stroke-width: 1px;"/><path class="ygrid crisp" transform="translate(0,163.53)" d="M80,0h540" style="stroke: rgb(255, 255, 255); stroke-opacity: 1; stroke-width: 1px;"/><path class="ygrid crisp" transform="translate(0,126.89)" d="M80,0h540" style="stroke: rgb(255, 255, 255); stroke-opacity: 1; stroke-width: 1px;"/></g></g><g class="zerolinelayer"><path class="yzl zl crisp" transform="translate(0,420)" d="M80,0h540" style="stroke: rgb(255, 255, 255); stroke-opacity: 1; stroke-width: 2px;"/></g><path class="xlines-below"/><path class="ylines-below"/><g class="overlines-below"/><g class="xaxislayer-below"/><g class="yaxislayer-below"/><g class="overaxes-below"/><g class="plot" transform="translate(80,100)" clip-path="url(#clip476a3fxyplot)"><g class="scatterlayer mlayer"><g class="trace scatter traceb213fc" style="stroke-miterlimit: 2;"><g class="fills"><g><path class="js-fill" d="M540,320L0,320L0,320L1.63,320L3.26,260.6L4.89,174.67L6.53,187.23L8.16,190.77L9.79,173.71L11.42,177.54L13.05,164.22L14.68,159.35L16.31,190.43L17.95,189.58L19.58,187.48L21.21,187.16L22.84,190.62L26.1,229.43L27.73,228.94L29.37,219.55L31,218.11L32.63,177.96L34.26,178.5L35.89,176.09L37.52,183.81L40.79,200.88L42.42,196.87L44.05,194.6L45.68,195.72L47.31,195.59L48.94,193.86L50.57,193.5L52.21,188.32L53.84,176.77L55.47,157.22L57.1,168.79L58.73,172.53L60.36,202.4L61.99,184.45L65.26,161.92L66.89,188.03L68.52,189.36L70.15,214.53L71.78,196.61L73.41,196.08L75.05,197.09L76.68,208.77L78.31,207.61L79.94,207.87L83.2,207.76L84.83,200.79L86.47,189.83L88.1,189.12L89.73,189.12L91.36,190.27L92.99,187L94.62,187.3L96.25,187.39L97.89,185.08L99.52,185.6L101.15,184.65L102.78,180.4L104.41,180.01L106.04,185.03L107.67,183.27L109.31,186.42L110.94,186.15L112.57,185.05L114.2,181.67L115.83,177.3L117.46,179.19L122.36,178.86L123.99,176.5L125.62,178.3L127.25,182.03L130.51,166.9L132.15,165.58L133.78,162.66L135.41,153.26L137.04,195.3L138.67,188.64L140.3,193.91L141.93,222.19L143.56,227.65L145.2,223.48L148.46,214.84L150.09,212.33L151.72,196.19L153.35,199.51L154.98,198.37L156.62,196.09L158.25,169.21L159.88,183.45L161.51,176.86L163.14,159.53L164.77,171.7L166.4,171.11L168.04,164.52L169.67,164.89L171.3,140.27L172.93,165.35L174.56,167.96L176.19,166.89L177.82,156.51L179.46,155.02L181.09,156.04L182.72,123.17L185.98,131.69L187.61,137.84L189.24,127.45L190.88,135.35L192.51,134.85L194.14,139.26L197.4,116.21L199.03,84.69L200.66,75.04L202.3,83.48L203.93,83.07L205.56,66.07L207.19,65.27L208.82,85.58L210.45,68.29L212.08,73.59L213.72,78.08L215.35,62.41L218.61,84.43L220.24,72.65L221.87,48.57L223.5,77.29L225.14,28L226.77,57.12L230.03,162.61L231.66,267.23L233.29,243.53L234.92,234.79L236.56,236.87L238.19,235.95L241.45,195.51L243.08,47.04L244.71,65.67L246.34,74.33L249.61,16L251.24,62.36L252.87,61.54L254.5,82.95L257.76,80.09L259.4,63.96L261.03,63.12L262.66,58.25L264.29,64.49L265.92,75.72L267.55,80.51L269.18,114.78L270.82,192.52L272.45,182.6L274.08,182.35L275.71,181.29L277.34,193.21L278.97,214L280.6,212.24L282.24,215.2L283.87,214.71L285.5,218.41L287.13,173.64L288.76,279.72L293.66,220.66L295.29,214.29L296.92,216.87L298.55,216.52L300.18,216.45L301.81,217.4L303.44,217.57L305.08,226.73L306.71,280.57L308.34,274.31L309.97,270.97L311.6,272.56L313.23,177.21L314.86,167.98L316.5,168.05L318.13,170.19L319.76,175.22L321.39,134.36L323.02,138.71L324.65,100.15L326.28,176.18L327.92,162.84L329.55,144.28L331.18,146.8L332.81,151.11L334.44,140.06L336.07,112.22L337.7,123.36L339.34,164.36L340.97,164.85L342.6,158.96L344.23,185.27L345.86,136.04L347.49,136.38L350.76,125.28L352.39,100.72L354.02,105.72L355.65,218.84L357.28,279.25L358.91,271.37L360.54,272.74L362.18,238.94L363.81,235.52L365.44,243.76L367.07,243.84L368.7,240.14L370.33,210.19L371.96,212.05L375.23,225.71L376.86,225.89L378.49,219.36L380.12,221.36L381.75,213.57L383.38,219.65L385.02,219.53L386.65,220.65L388.28,221.09L389.91,222.48L391.54,216.32L393.17,222.37L396.44,224.73L398.07,224.25L399.7,227.06L401.33,228.23L402.96,223.35L404.59,237.13L409.49,237.5L411.12,236.17L412.75,227.31L414.38,228.77L416.01,247.85L417.64,248.01L419.27,248.2L420.91,250.96L422.54,250.18L424.17,242.94L425.8,235.82L427.43,237.73L429.06,222.73L430.69,230.4L432.33,240.28L433.96,229.99L435.59,251.59L437.22,249.14L438.85,265.09L440.48,250.58L442.11,254.71L443.75,246.87L445.38,227.38L447.01,227.59L448.64,227.77L450.27,232L451.9,237.21L453.53,245.6L455.17,247.41L456.8,252.88L458.43,257.36L460.06,258.12L461.69,250.29L463.32,249.83L466.59,260.2L468.22,227.14L471.48,230.85L473.11,240.67L474.74,241.76L476.37,241.77L478.01,241.79L479.64,240.48L481.27,240.87L482.9,242.76L484.53,242.46L486.16,246.14L487.79,249.25L489.43,250.18L492.69,249.93L494.32,261.47L495.95,262.36L497.58,234.67L500.85,235.08L502.48,232.96L504.11,238.75L505.74,231.65L507.37,234.22L509,242.2L512.27,241.7L513.9,242.25L515.53,245.34L517.16,294.13L520.42,294.23L522.05,291.14L523.69,291.12L525.32,292.37L526.95,293.02L528.58,291.53L530.21,292.07L531.84,289.81L533.47,293.74L535.11,293.79L538.37,293.99L540,290.4" style="fill: rgb(99, 110, 250); fill-opacity: 0.5; stroke-width: 0;"/></g></g><g class="errorbars"/><g class="lines"><path class="js-line" d="M0,320L1.63,320L3.26,260.6L4.89,174.67L6.53,187.23L8.16,190.77L9.79,173.71L11.42,177.54L13.05,164.22L14.68,159.35L16.31,190.43L17.95,189.58L19.58,187.48L21.21,187.16L22.84,190.62L26.1,229.43L27.73,228.94L29.37,219.55L31,218.11L32.63,177.96L34.26,178.5L35.89,176.09L37.52,183.81L40.79,200.88L42.42,196.87L44.05,194.6L45.68,195.72L47.31,195.59L48.94,193.86L50.57,193.5L52.21,188.32L53.84,176.77L55.47,157.22L57.1,168.79L58.73,172.53L60.36,202.4L61.99,184.45L65.26,161.92L66.89,188.03L68.52,189.36L70.15,214.53L71.78,196.61L73.41,196.08L75.05,197.09L76.68,208.77L78.31,207.61L79.94,207.87L83.2,207.76L84.83,200.79L86.47,189.83L88.1,189.12L89.73,189.12L91.36,190.27L92.99,187L94.62,187.3L96.25,187.39L97.89,185.08L99.52,185.6L101.15,184.65L102.78,180.4L104.41,180.01L106.04,185.03L107.67,183.27L109.31,186.42L110.94,186.15L112.57,185.05L114.2,181.67L115.83,177.3L117.46,179.19L122.36,178.86L123.99,176.5L125.62,178.3L127.25,182.03L130.51,166.9L132.15,165.58L133.78,162.66L135.41,153.26L137.04,195.3L138.67,188.64L140.3,193.91L141.93,222.19L143.56,227.65L145.2,223.48L148.46,214.84L150.09,212.33L151.72,196.19L153.35,199.51L154.98,198.37L156.62,196.09L158.25,169.21L159.88,183.45L161.51,176.86L163.14,159.53L164.77,171.7L166.4,171.11L168.04,164.52L169.67,164.89L171.3,140.27L172.93,165.35L174.56,167.96L176.19,166.89L177.82,156.51L179.46,155.02L181.09,156.04L182.72,123.17L185.98,131.69L187.61,137.84L189.24,127.45L190.88,135.35L192.51,134.85L194.14,139.26L197.4,116.21L199.03,84.69L200.66,75.04L202.3,83.48L203.93,83.07L205.56,66.07L207.19,65.27L208.82,85.58L210.45,68.29L212.08,73.59L213.72,78.08L215.35,62.41L218.61,84.43L220.24,72.65L221.87,48.57L223.5,77.29L225.14,28L226.77,57.12L230.03,162.61L231.66,267.23L233.29,243.53L234.92,234.79L236.56,236.87L238.19,235.95L241.45,195.51L243.08,47.04L244.71,65.67L246.34,74.33L249.61,16L251.24,62.36L252.87,61.54L254.5,82.95L257.76,80.09L259.4,63.96L261.03,63.12L262.66,58.25L264.29,64.49L265.92,75.72L267.55,80.51L269.18,114.78L270.82,192.52L272.45,182.6L274.08,182.35L275.71,181.29L277.34,193.21L278.97,214L280.6,212.24L282.24,215.2L283.87,214.71L285.5,218.41L287.13,173.64L288.76,279.72L293.66,220.66L295.29,214.29L296.92,216.87L298.55,216.52L300.18,216.45L301.81,217.4L303.44,217.57L305.08,226.73L306.71,280.57L308.34,274.31L309.97,270.97L311.6,272.56L313.23,177.21L314.86,167.98L316.5,168.05L318.13,170.19L319.76,175.22L321.39,134.36L323.02,138.71L324.65,100.15L326.28,176.18L327.92,162.84L329.55,144.28L331.18,146.8L332.81,151.11L334.44,140.06L336.07,112.22L337.7,123.36L339.34,164.36L340.97,164.85L342.6,158.96L344.23,185.27L345.86,136.04L347.49,136.38L350.76,125.28L352.39,100.72L354.02,105.72L355.65,218.84L357.28,279.25L358.91,271.37L360.54,272.74L362.18,238.94L363.81,235.52L365.44,243.76L367.07,243.84L368.7,240.14L370.33,210.19L371.96,212.05L375.23,225.71L376.86,225.89L378.49,219.36L380.12,221.36L381.75,213.57L383.38,219.65L385.02,219.53L386.65,220.65L388.28,221.09L389.91,222.48L391.54,216.32L393.17,222.37L396.44,224.73L398.07,224.25L399.7,227.06L401.33,228.23L402.96,223.35L404.59,237.13L409.49,237.5L411.12,236.17L412.75,227.31L414.38,228.77L416.01,247.85L417.64,248.01L419.27,248.2L420.91,250.96L422.54,250.18L424.17,242.94L425.8,235.82L427.43,237.73L429.06,222.73L430.69,230.4L432.33,240.28L433.96,229.99L435.59,251.59L437.22,249.14L438.85,265.09L440.48,250.58L442.11,254.71L443.75,246.87L445.38,227.38L447.01,227.59L448.64,227.77L450.27,232L451.9,237.21L453.53,245.6L455.17,247.41L456.8,252.88L458.43,257.36L460.06,258.12L461.69,250.29L463.32,249.83L466.59,260.2L468.22,227.14L471.48,230.85L473.11,240.67L474.74,241.76L476.37,241.77L478.01,241.79L479.64,240.48L481.27,240.87L482.9,242.76L484.53,242.46L486.16,246.14L487.79,249.25L489.43,250.18L492.69,249.93L494.32,261.47L495.95,262.36L497.58,234.67L500.85,235.08L502.48,232.96L504.11,238.75L505.74,231.65L507.37,234.22L509,242.2L512.27,241.7L513.9,242.25L515.53,245.34L517.16,294.13L520.42,294.23L522.05,291.14L523.69,291.12L525.32,292.37L526.95,293.02L528.58,291.53L530.21,292.07L531.84,289.81L533.47,293.74L535.11,293.79L538.37,293.99L540,290.4" style="vector-effect: none; fill: none; stroke: rgb(99, 110, 250); stroke-opacity: 1; stroke-width: 2px; opacity: 1;"/></g><g class="points"/><g class="text"/></g></g></g><g class="overplot"/><path class="xlines-above crisp" d="M0,0" style="fill: none;"/><path class="ylines-above crisp" d="M0,0" style="fill: none;"/><g class="overlines-above"/><g class="xaxislayer-above"><g class="xtick"><text text-anchor="middle" x="0" y="433" transform="translate(91.42,0)" style="font-family: 'Open Sans', verdana, arial, sans-serif; font-size: 12px; fill: rgb(42, 63, 95); fill-opacity: 1; white-space: pre; opacity: 1;">Nov 2022</text></g><g class="xtick"><text text-anchor="middle" x="0" y="433" style="font-family: 'Open Sans', verdana, arial, sans-serif; font-size: 12px; fill: rgb(42, 63, 95); fill-opacity: 1; white-space: pre; opacity: 1;" transform="translate(190.94,0)">Jan 2023</text></g><g class="xtick"><text text-anchor="middle" x="0" y="433" style="font-family: 'Open Sans', verdana, arial, sans-serif; font-size: 12px; fill: rgb(42, 63, 95); fill-opacity: 1; white-space: pre; opacity: 1;" transform="translate(287.19,0)">Mar 2023</text></g><g class="xtick"><text text-anchor="middle" x="0" y="433" style="font-family: 'Open Sans', verdana, arial, sans-serif; font-size: 12px; fill: rgb(42, 63, 95); fill-opacity: 1; white-space: pre; opacity: 1;" transform="translate(386.71,0)">May 2023</text></g><g class="xtick"><text text-anchor="middle" x="0" y="433" style="font-family: 'Open Sans', verdana, arial, sans-serif; font-size: 12px; fill: rgb(42, 63, 95); fill-opacity: 1; white-space: pre; opacity: 1;" transform="translate(486.22,0)">Jul 2023</text></g><g class="xtick"><text text-anchor="middle" x="0" y="433" style="font-family: 'Open Sans', verdana, arial, sans-serif; font-size: 12px; fill: rgb(42, 63, 95); fill-opacity: 1; white-space: pre; opacity: 1;" transform="translate(587.37,0)">Sep 2023</text></g></g><g class="yaxislayer-above"><g class="ytick"><text text-anchor="end" x="79" y="4.199999999999999" transform="translate(0,420)" style="font-family: 'Open Sans', verdana, arial, sans-serif; font-size: 12px; fill: rgb(42, 63, 95); fill-opacity: 1; white-space: pre; opacity: 1;">$0</text></g><g class="ytick"><text text-anchor="end" x="79" y="4.199999999999999" style="font-family: 'Open Sans', verdana, arial, sans-serif; font-size: 12px; fill: rgb(42, 63, 95); fill-opacity: 1; white-space: pre; opacity: 1;" transform="translate(0,383.36)">$0.2M</text></g><g class="ytick"><text text-anchor="end" x="79" y="4.199999999999999" style="font-family: 'Open Sans', verdana, arial, sans-serif; font-size: 12px; fill: rgb(42, 63, 95); fill-opacity: 1; white-space: pre; opacity: 1;" transform="translate(0,346.72)">$0.4M</text></g><g class="ytick"><text text-anchor="end" x="79" y="4.199999999999999" style="font-family: 'Open Sans', verdana, arial, sans-serif; font-size: 12px; fill: rgb(42, 63, 95); fill-opacity: 1; white-space: pre; opacity: 1;" transform="translate(0,310.08000000000004)">$0.6M</text></g><g class="ytick"><text text-anchor="end" x="79" y="4.199999999999999" style="font-family: 'Open Sans', verdana, arial, sans-serif; font-size: 12px; fill: rgb(42, 63, 95); fill-opacity: 1; white-space: pre; opacity: 1;" transform="translate(0,273.44)">$0.8M</text></g><g class="ytick"><text text-anchor="end" x="79" y="4.199999999999999" style="font-family: 'Open Sans', verdana, arial, sans-serif; font-size: 12px; fill: rgb(42, 63, 95); fill-opacity: 1; white-space: pre; opacity: 1;" transform="translate(0,236.81)">$1M</text></g><g class="ytick"><text text-anchor="end" x="79" y="4.199999999999999" style="font-family: 'Open Sans', verdana, arial, sans-serif; font-size: 12px; fill: rgb(42, 63, 95); fill-opacity: 1; white-space: pre; opacity: 1;" transform="translate(0,200.17000000000002)">$1.2M</text></g><g class="ytick"><text text-anchor="end" x="79" y="4.199999999999999" style="font-family: 'Open Sans', verdana, arial, sans-serif; font-size: 12px; fill: rgb(42, 63, 95); fill-opacity: 1; white-space: pre; opacity: 1;" transform="translate(0,163.53)">$1.4M</text></g><g class="ytick"><text text-anchor="end" x="79" y="4.199999999999999" style="font-family: 'Open Sans', verdana, arial, sans-serif; font-size: 12px; fill: rgb(42, 63, 95); fill-opacity: 1; white-space: pre; opacity: 1;" transform="translate(0,126.89)">$1.6M</text></g></g><g class="overaxes-above"/></g></g><g class="polarlayer"/><g class="smithlayer"/><g class="ternarylayer"/><g class="geolayer"/><g class="funnelarealayer"/><g class="pielayer"/><g class="iciclelayer"/><g class="treemaplayer"/><g class="sunburstlayer"/><g class="glimages"/><defs id="topdefs-476a3f"><g class="clips"/></defs><g class="layer-above"><g class="imagelayer"/><g class="shapelayer"/></g><g class="infolayer"><g class="g-gtitle"><text class="gtitle" x="35" y="50" text-anchor="start" dy="0em" style="font-family: 'Open Sans', verdana, arial, sans-serif; font-size: 17px; fill: rgb(42, 63, 95); opacity: 1; font-weight: normal; white-space: pre;"><tspan class="line" dy="0em" x="35" y="50">Synthetix - SNX Bridge: Hop</tspan><tspan class="line" dy="1.3em" x="35" y="50">​<tspan style="font-size:70%" dy="-0.6em">Cumulative Net Flows since Program Announcement, Until Program End + 30 Days - At Last Price</tspan><tspan dy="0.42em">​</tspan></tspan></text></g><g class="g-xtitle"><text class="xtitle" x="350" y="460.3" text-anchor="middle" style="font-family: 'Open Sans', verdana, arial, sans-serif; font-size: 14px; fill: rgb(42, 63, 95); opacity: 1; font-weight: normal; white-space: pre;">Day</text></g><g class="g-ytitle"><text class="ytitle" transform="rotate(-90,21.340625000000003,260)" x="21.340625000000003" y="260" text-anchor="middle" style="font-family: 'Open Sans', verdana, arial, sans-serif; font-size: 14px; fill: rgb(42, 63, 95); opacity: 1; font-weight: normal; white-space: pre;">Cumulative Net Flows (USD)</text></g></g></svg>