<svg class="main-svg" xmlns="http://www.w3.org/2000/svg" xmlns:xlink="http://www.w3.org/1999/xlink" width="700" height="500" style="" viewBox="0 0 700 500"><rect x="0" y="0" width="700" height="500" style="fill: rgb(255, 255, 255); fill-opacity: 1;"/><defs id="defs-fec28d"><g class="clips"><clipPath id="clipfec28dxyplot" class="plotclip"><rect width="540" height="320"/></clipPath><clipPath class="axesclip" id="clipfec28dx"><rect x="80" y="0" width="540" height="500"/></clipPath><clipPath class="axesclip" id="clipfec28dy"><rect x="0" y="100" width="700" height="320"/></clipPath><clipPath class="axesclip" id="clipfec28dxy"><rect x="80" y="100" width="540" height="320"/></clipPath></g><g class="gradients"/><g class="patterns"/></defs><g class="bglayer"><rect class="bg" x="80" y="100" width="540" height="320" style="fill: rgb(229, 236, 246); fill-opacity: 1; stroke-width: 0;"/></g><g class="layer-below"><g class="imagelayer"/><g class="shapelayer"/></g><g class="cartesianlayer"><g class="subplot xy"><g class="layer-subplot"><g class="shapelayer"/><g class="imagelayer"/></g><g class="minor-gridlayer"><g class="x"/><g class="y"/></g><g class="gridlayer"><g class="x"><path class="xgrid crisp" transform="translate(85.91,0)" d="M0,100v320" style="stroke: rgb(255, 255, 255); stroke-opacity: 1; stroke-width: 1px;"/><path class="xgrid crisp" transform="translate(206.13,0)" d="M0,100v320" style="stroke: rgb(255, 255, 255); stroke-opacity: 1; stroke-width: 1px;"/><path class="xgrid crisp" transform="translate(326.35,0)" d="M0,100v320" style="stroke: rgb(255, 255, 255); stroke-opacity: 1; stroke-width: 1px;"/><path class="xgrid crisp" transform="translate(442.63,0)" d="M0,100v320" style="stroke: rgb(255, 255, 255); stroke-opacity: 1; stroke-width: 1px;"/><path class="xgrid crisp" transform="translate(562.85,0)" d="M0,100v320" style="stroke: rgb(255, 255, 255); stroke-opacity: 1; stroke-width: 1px;"/></g><g class="y"><path class="ygrid crisp" transform="translate(0,376.23)" d="M80,0h540" style="stroke: rgb(255, 255, 255); stroke-opacity: 1; stroke-width: 1px;"/><path class="ygrid crisp" transform="translate(0,332.46000000000004)" d="M80,0h540" style="stroke: rgb(255, 255, 255); stroke-opacity: 1; stroke-width: 1px;"/><path class="ygrid crisp" transform="translate(0,288.7)" d="M80,0h540" style="stroke: rgb(255, 255, 255); stroke-opacity: 1; stroke-width: 1px;"/><path class="ygrid crisp" transform="translate(0,244.93)" d="M80,0h540" style="stroke: rgb(255, 255, 255); stroke-opacity: 1; stroke-width: 1px;"/><path class="ygrid crisp" transform="translate(0,201.16)" d="M80,0h540" style="stroke: rgb(255, 255, 255); stroke-opacity: 1; stroke-width: 1px;"/><path class="ygrid crisp" transform="translate(0,157.39)" d="M80,0h540" style="stroke: rgb(255, 255, 255); stroke-opacity: 1; stroke-width: 1px;"/><path class="ygrid crisp" transform="translate(0,113.62)" d="M80,0h540" style="stroke: rgb(255, 255, 255); stroke-opacity: 1; stroke-width: 1px;"/></g></g><g class="zerolinelayer"><path class="yzl zl crisp" transform="translate(0,420)" d="M80,0h540" style="stroke: rgb(255, 255, 255); stroke-opacity: 1; stroke-width: 2px;"/></g><path class="xlines-below"/><path class="ylines-below"/><g class="overlines-below"/><g class="xaxislayer-below"/><g class="yaxislayer-below"/><g class="overaxes-below"/><g class="plot" transform="translate(80,100)" clip-path="url(#clipfec28dxyplot)"><g class="scatterlayer mlayer"><g class="trace scatter tracec95fe5" style="stroke-miterlimit: 2;"><g class="fills"><g><path class="js-fill" d="M540,320L0,320L0,319.89L7.88,317.34L9.85,315.29L13.8,313.89L15.77,292.7L19.71,256.67L21.68,237.57L25.62,231.43L27.59,226.34L29.56,210.21L31.53,205.17L35.47,204.23L37.45,183.52L39.42,185.99L41.39,173.96L43.36,175.56L45.33,158.51L47.3,150.34L49.27,146.96L51.24,129.54L53.21,126.9L55.18,125.01L57.15,136.91L59.12,145.74L61.09,143.8L63.07,142.89L65.04,139.79L68.98,138.21L70.95,128.74L72.92,133.36L74.89,128.75L76.86,125.43L78.83,126.74L80.8,126.15L82.77,127.59L86.72,124.87L88.69,127.87L90.66,129.63L92.63,128.05L94.6,125.28L96.57,125.77L98.54,127.87L100.51,127.85L110.37,129.17L112.34,135.56L116.28,135.8L118.25,129.99L122.19,127.71L124.16,127.38L126.13,125.35L128.1,121.5L130.07,120.37L132.04,123.27L135.99,123.75L137.96,122.47L141.9,119.06L143.87,128.6L145.84,138.45L147.81,136.91L149.78,134.31L151.75,140.44L153.72,147.81L155.69,146.78L157.66,148.01L159.64,151.2L161.61,152.65L163.58,151.74L167.52,150.55L169.49,148.77L171.46,154.05L173.43,153.22L175.4,153.24L177.37,152.49L179.34,151.09L181.31,156.38L183.28,156.88L185.26,156.3L187.23,156.43L189.2,154.41L193.14,155.03L195.11,152.91L197.08,156.34L199.05,157.02L201.02,153.77L202.99,155.57L204.96,161.68L206.93,161.75L208.91,158.32L210.88,158.28L212.85,156.74L214.82,153.54L216.79,158.86L218.76,156.66L220.73,157.34L222.7,156.9L224.67,156.22L226.64,157.12L228.61,155.38L230.58,179.42L232.55,178.65L234.53,178.77L236.5,178.96L238.47,180.33L240.44,180.04L242.41,177.23L246.35,175L248.32,178.15L252.26,177.21L254.23,169.93L256.2,165.89L258.18,163.64L260.15,162.18L262.12,162.91L264.09,159.04L266.06,153.13L268.03,154.19L270,152.26L271.97,142.23L273.94,137.41L275.91,139.18L277.88,137.91L281.83,137.86L283.8,129.63L285.77,129.54L287.74,123.66L289.71,118.8L291.68,118.97L293.65,118.6L295.62,119.95L297.59,118.75L299.56,116.42L303.5,116.96L305.47,113.68L307.45,119.38L309.42,111.67L315.33,96.01L317.3,98.45L319.27,98.23L321.24,57.58L325.18,55.3L327.15,58.26L329.12,63.33L331.1,63.02L333.07,61.66L335.04,62.87L337.01,61.41L338.98,62.32L340.95,62.57L342.92,65.17L344.89,62.26L346.86,79.71L348.83,81.03L350.8,81.25L354.74,65.87L356.72,62.14L358.69,57.45L360.66,48.95L362.63,45.84L364.6,54.53L370.51,53.78L372.48,53.04L374.45,53.06L376.42,56.29L378.39,46.71L380.37,49.47L382.34,52.27L384.31,77.32L386.28,79.3L388.25,71.89L390.22,33.74L392.19,32.07L394.16,24.28L396.13,23.5L398.1,26.01L400.07,52.31L402.04,52.11L404.02,55.5L405.99,56.73L407.96,58.98L409.93,60.4L411.9,60.63L413.87,63.13L415.84,64.04L417.81,62.42L419.78,63.45L421.75,63.72L423.72,75.32L427.66,74.55L429.64,71.4L431.61,71.16L433.58,71.73L435.55,79.46L437.52,81.84L439.49,81.7L441.46,78.69L443.43,81.3L445.4,81.1L449.34,80.5L451.31,75.7L453.29,75.46L455.26,74.13L457.23,72.12L459.2,75.33L463.14,74.94L465.11,73.49L467.08,24.31L469.05,22.11L472.99,16.52L474.96,19.34L476.93,18.11L478.91,19.82L482.85,20.35L484.82,19.1L486.79,16L488.76,81.6L490.73,79.27L492.7,78.94L494.67,71.41L496.64,78.9L498.61,79.68L500.58,79.25L502.56,79.03L504.53,72.53L506.5,71.89L508.47,56.52L510.44,54.83L512.41,58.43L514.38,50.88L516.35,52.02L518.32,51.82L520.29,52.71L522.26,51.07L524.23,51.03L528.18,55.51L530.15,55.44L532.12,54.05L534.09,61.35L536.06,58.25L538.03,59.4L540,60.88" style="fill: rgb(99, 110, 250); fill-opacity: 0.5; stroke-width: 0;"/></g></g><g class="errorbars"/><g class="lines"><path class="js-line" d="M0,319.89L7.88,317.34L9.85,315.29L13.8,313.89L15.77,292.7L19.71,256.67L21.68,237.57L25.62,231.43L27.59,226.34L29.56,210.21L31.53,205.17L35.47,204.23L37.45,183.52L39.42,185.99L41.39,173.96L43.36,175.56L45.33,158.51L47.3,150.34L49.27,146.96L51.24,129.54L53.21,126.9L55.18,125.01L57.15,136.91L59.12,145.74L61.09,143.8L63.07,142.89L65.04,139.79L68.98,138.21L70.95,128.74L72.92,133.36L74.89,128.75L76.86,125.43L78.83,126.74L80.8,126.15L82.77,127.59L86.72,124.87L88.69,127.87L90.66,129.63L92.63,128.05L94.6,125.28L96.57,125.77L98.54,127.87L100.51,127.85L110.37,129.17L112.34,135.56L116.28,135.8L118.25,129.99L122.19,127.71L124.16,127.38L126.13,125.35L128.1,121.5L130.07,120.37L132.04,123.27L135.99,123.75L137.96,122.47L141.9,119.06L143.87,128.6L145.84,138.45L147.81,136.91L149.78,134.31L151.75,140.44L153.72,147.81L155.69,146.78L157.66,148.01L159.64,151.2L161.61,152.65L163.58,151.74L167.52,150.55L169.49,148.77L171.46,154.05L173.43,153.22L175.4,153.24L177.37,152.49L179.34,151.09L181.31,156.38L183.28,156.88L185.26,156.3L187.23,156.43L189.2,154.41L193.14,155.03L195.11,152.91L197.08,156.34L199.05,157.02L201.02,153.77L202.99,155.57L204.96,161.68L206.93,161.75L208.91,158.32L210.88,158.28L212.85,156.74L214.82,153.54L216.79,158.86L218.76,156.66L220.73,157.34L222.7,156.9L224.67,156.22L226.64,157.12L228.61,155.38L230.58,179.42L232.55,178.65L234.53,178.77L236.5,178.96L238.47,180.33L240.44,180.04L242.41,177.23L246.35,175L248.32,178.15L252.26,177.21L254.23,169.93L256.2,165.89L258.18,163.64L260.15,162.18L262.12,162.91L264.09,159.04L266.06,153.13L268.03,154.19L270,152.26L271.97,142.23L273.94,137.41L275.91,139.18L277.88,137.91L281.83,137.86L283.8,129.63L285.77,129.54L287.74,123.66L289.71,118.8L291.68,118.97L293.65,118.6L295.62,119.95L297.59,118.75L299.56,116.42L303.5,116.96L305.47,113.68L307.45,119.38L309.42,111.67L315.33,96.01L317.3,98.45L319.27,98.23L321.24,57.58L325.18,55.3L327.15,58.26L329.12,63.33L331.1,63.02L333.07,61.66L335.04,62.87L337.01,61.41L338.98,62.32L340.95,62.57L342.92,65.17L344.89,62.26L346.86,79.71L348.83,81.03L350.8,81.25L354.74,65.87L356.72,62.14L358.69,57.45L360.66,48.95L362.63,45.84L364.6,54.53L370.51,53.78L372.48,53.04L374.45,53.06L376.42,56.29L378.39,46.71L380.37,49.47L382.34,52.27L384.31,77.32L386.28,79.3L388.25,71.89L390.22,33.74L392.19,32.07L394.16,24.28L396.13,23.5L398.1,26.01L400.07,52.31L402.04,52.11L404.02,55.5L405.99,56.73L407.96,58.98L409.93,60.4L411.9,60.63L413.87,63.13L415.84,64.04L417.81,62.42L419.78,63.45L421.75,63.72L423.72,75.32L427.66,74.55L429.64,71.4L431.61,71.16L433.58,71.73L435.55,79.46L437.52,81.84L439.49,81.7L441.46,78.69L443.43,81.3L445.4,81.1L449.34,80.5L451.31,75.7L453.29,75.46L455.26,74.13L457.23,72.12L459.2,75.33L463.14,74.94L465.11,73.49L467.08,24.31L469.05,22.11L472.99,16.52L474.96,19.34L476.93,18.11L478.91,19.82L482.85,20.35L484.82,19.1L486.79,16L488.76,81.6L490.73,79.27L492.7,78.94L494.67,71.41L496.64,78.9L498.61,79.68L500.58,79.25L502.56,79.03L504.53,72.53L506.5,71.89L508.47,56.52L510.44,54.83L512.41,58.43L514.38,50.88L516.35,52.02L518.32,51.82L520.29,52.71L522.26,51.07L524.23,51.03L528.18,55.51L530.15,55.44L532.12,54.05L534.09,61.35L536.06,58.25L538.03,59.4L540,60.88" style="vector-effect: none; fill: none; stroke: rgb(99, 110, 250); stroke-opacity: 1; stroke-width: 2px; opacity: 1;"/></g><g class="points"/><g class="text"/></g></g></g><g class="overplot"/><path class="xlines-above crisp" d="M0,0" style="fill: none;"/><path class="ylines-above crisp" d="M0,0" style="fill: none;"/><g class="overlines-above"/><g class="xaxislayer-above"><g class="xtick"><text text-anchor="middle" x="0" y="433" transform="translate(85.91,0)" style="font-family: 'Open Sans', verdana, arial, sans-serif; font-size: 12px; fill: rgb(42, 63, 95); fill-opacity: 1; white-space: pre; opacity: 1;">Sep 2022</text></g><g class="xtick"><text text-anchor="middle" x="0" y="433" style="font-family: 'Open Sans', verdana, arial, sans-serif; font-size: 12px; fill: rgb(42, 63, 95); fill-opacity: 1; white-space: pre; opacity: 1;" transform="translate(206.13,0)">Nov 2022</text></g><g class="xtick"><text text-anchor="middle" x="0" y="433" style="font-family: 'Open Sans', verdana, arial, sans-serif; font-size: 12px; fill: rgb(42, 63, 95); fill-opacity: 1; white-space: pre; opacity: 1;" transform="translate(326.35,0)">Jan 2023</text></g><g class="xtick"><text text-anchor="middle" x="0" y="433" style="font-family: 'Open Sans', verdana, arial, sans-serif; font-size: 12px; fill: rgb(42, 63, 95); fill-opacity: 1; white-space: pre; opacity: 1;" transform="translate(442.63,0)">Mar 2023</text></g><g class="xtick"><text text-anchor="middle" x="0" y="433" style="font-family: 'Open Sans', verdana, arial, sans-serif; font-size: 12px; fill: rgb(42, 63, 95); fill-opacity: 1; white-space: pre; opacity: 1;" transform="translate(562.85,0)">May 2023</text></g></g><g class="yaxislayer-above"><g class="ytick"><text text-anchor="end" x="79" y="4.199999999999999" transform="translate(0,420)" style="font-family: 'Open Sans', verdana, arial, sans-serif; font-size: 12px; fill: rgb(42, 63, 95); fill-opacity: 1; white-space: pre; opacity: 1;">$0</text></g><g class="ytick"><text text-anchor="end" x="79" y="4.199999999999999" style="font-family: 'Open Sans', verdana, arial, sans-serif; font-size: 12px; fill: rgb(42, 63, 95); fill-opacity: 1; white-space: pre; opacity: 1;" transform="translate(0,376.23)">$2M</text></g><g class="ytick"><text text-anchor="end" x="79" y="4.199999999999999" style="font-family: 'Open Sans', verdana, arial, sans-serif; font-size: 12px; fill: rgb(42, 63, 95); fill-opacity: 1; white-space: pre; opacity: 1;" transform="translate(0,332.46000000000004)">$4M</text></g><g class="ytick"><text text-anchor="end" x="79" y="4.199999999999999" style="font-family: 'Open Sans', verdana, arial, sans-serif; font-size: 12px; fill: rgb(42, 63, 95); fill-opacity: 1; white-space: pre; opacity: 1;" transform="translate(0,288.7)">$6M</text></g><g class="ytick"><text text-anchor="end" x="79" y="4.199999999999999" style="font-family: 'Open Sans', verdana, arial, sans-serif; font-size: 12px; fill: rgb(42, 63, 95); fill-opacity: 1; white-space: pre; opacity: 1;" transform="translate(0,244.93)">$8M</text></g><g class="ytick"><text text-anchor="end" x="79" y="4.199999999999999" style="font-family: 'Open Sans', verdana, arial, sans-serif; font-size: 12px; fill: rgb(42, 63, 95); fill-opacity: 1; white-space: pre; opacity: 1;" transform="translate(0,201.16)">$10M</text></g><g class="ytick"><text text-anchor="end" x="79" y="4.199999999999999" style="font-family: 'Open Sans', verdana, arial, sans-serif; font-size: 12px; fill: rgb(42, 63, 95); fill-opacity: 1; white-space: pre; opacity: 1;" transform="translate(0,157.39)">$12M</text></g><g class="ytick"><text text-anchor="end" x="79" y="4.199999999999999" style="font-family: 'Open Sans', verdana, arial, sans-serif; font-size: 12px; fill: rgb(42, 63, 95); fill-opacity: 1; white-space: pre; opacity: 1;" transform="translate(0,113.62)">$14M</text></g></g><g class="overaxes-above"/></g></g><g class="polarlayer"/><g class="smithlayer"/><g class="ternarylayer"/><g class="geolayer"/><g class="funnelarealayer"/><g class="pielayer"/><g class="iciclelayer"/><g class="treemaplayer"/><g class="sunburstlayer"/><g class="glimages"/><defs id="topdefs-fec28d"><g class="clips"/></defs><g class="layer-above"><g class="imagelayer"/><g class="shapelayer"/></g><g class="infolayer"><g class="g-gtitle"><text class="gtitle" x="35" y="50" text-anchor="start" dy="0em" style="font-family: 'Open Sans', verdana, arial, sans-serif; font-size: 17px; fill: rgb(42, 63, 95); opacity: 1; font-weight: normal; white-space: pre;"><tspan class="line" dy="0em" x="35" y="50">Pika Protocol</tspan><tspan class="line" dy="1.3em" x="35" y="50">​<tspan style="font-size:70%" dy="-0.6em">Cumulative Net Flows since Program Announcement, Until Program End + 30 Days - At Last Price</tspan><tspan dy="0.42em">​</tspan></tspan></text></g><g class="g-xtitle"><text class="xtitle" x="350" y="460.3" text-anchor="middle" style="font-family: 'Open Sans', verdana, arial, sans-serif; font-size: 14px; fill: rgb(42, 63, 95); opacity: 1; font-weight: normal; white-space: pre;">Day</text></g><g class="g-ytitle"><text class="ytitle" transform="rotate(-90,24.668750000000003,260)" x="24.668750000000003" y="260" text-anchor="middle" style="font-family: 'Open Sans', verdana, arial, sans-serif; font-size: 14px; fill: rgb(42, 63, 95); opacity: 1; font-weight: normal; white-space: pre;">Cumulative Net Flows (USD)</text></g></g></svg>