<svg class="main-svg" xmlns="http://www.w3.org/2000/svg" xmlns:xlink="http://www.w3.org/1999/xlink" width="700" height="500" style="" viewBox="0 0 700 500"><rect x="0" y="0" width="700" height="500" style="fill: rgb(255, 255, 255); fill-opacity: 1;"/><defs id="defs-727fdb"><g class="clips"><clipPath id="clip727fdbxyplot" class="plotclip"><rect width="540" height="320"/></clipPath><clipPath class="axesclip" id="clip727fdbx"><rect x="80" y="0" width="540" height="500"/></clipPath><clipPath class="axesclip" id="clip727fdby"><rect x="0" y="100" width="700" height="320"/></clipPath><clipPath class="axesclip" id="clip727fdbxy"><rect x="80" y="100" width="540" height="320"/></clipPath></g><g class="gradients"/><g class="patterns"/></defs><g class="bglayer"><rect class="bg" x="80" y="100" width="540" height="320" style="fill: rgb(229, 236, 246); fill-opacity: 1; stroke-width: 0;"/></g><g class="layer-below"><g class="imagelayer"/><g class="shapelayer"/></g><g class="cartesianlayer"><g class="subplot xy"><g class="layer-subplot"><g class="shapelayer"/><g class="imagelayer"/></g><g class="minor-gridlayer"><g class="x"/><g class="y"/></g><g class="gridlayer"><g class="x"><path class="xgrid crisp" transform="translate(115.78,0)" d="M0,100v320" style="stroke: rgb(255, 255, 255); stroke-opacity: 1; stroke-width: 1px;"/><path class="xgrid crisp" transform="translate(215.54,0)" d="M0,100v320" style="stroke: rgb(255, 255, 255); stroke-opacity: 1; stroke-width: 1px;"/><path class="xgrid crisp" transform="translate(313.13,0)" d="M0,100v320" style="stroke: rgb(255, 255, 255); stroke-opacity: 1; stroke-width: 1px;"/><path class="xgrid crisp" transform="translate(411.81,0)" d="M0,100v320" style="stroke: rgb(255, 255, 255); stroke-opacity: 1; stroke-width: 1px;"/><path class="xgrid crisp" transform="translate(511.57,0)" d="M0,100v320" style="stroke: rgb(255, 255, 255); stroke-opacity: 1; stroke-width: 1px;"/><path class="xgrid crisp" transform="translate(611.33,0)" d="M0,100v320" style="stroke: rgb(255, 255, 255); stroke-opacity: 1; stroke-width: 1px;"/></g><g class="y"><path class="ygrid crisp" transform="translate(0,377.8)" d="M80,0h540" style="stroke: rgb(255, 255, 255); stroke-opacity: 1; stroke-width: 1px;"/><path class="ygrid crisp" transform="translate(0,335.6)" d="M80,0h540" style="stroke: rgb(255, 255, 255); stroke-opacity: 1; stroke-width: 1px;"/><path class="ygrid crisp" transform="translate(0,293.4)" d="M80,0h540" style="stroke: rgb(255, 255, 255); stroke-opacity: 1; stroke-width: 1px;"/><path class="ygrid crisp" transform="translate(0,251.2)" d="M80,0h540" style="stroke: rgb(255, 255, 255); stroke-opacity: 1; stroke-width: 1px;"/><path class="ygrid crisp" transform="translate(0,208.99)" d="M80,0h540" style="stroke: rgb(255, 255, 255); stroke-opacity: 1; stroke-width: 1px;"/><path class="ygrid crisp" transform="translate(0,166.79000000000002)" d="M80,0h540" style="stroke: rgb(255, 255, 255); stroke-opacity: 1; stroke-width: 1px;"/><path class="ygrid crisp" transform="translate(0,124.59)" d="M80,0h540" style="stroke: rgb(255, 255, 255); stroke-opacity: 1; stroke-width: 1px;"/></g></g><g class="zerolinelayer"><path class="yzl zl crisp" transform="translate(0,420)" d="M80,0h540" style="stroke: rgb(255, 255, 255); stroke-opacity: 1; stroke-width: 2px;"/></g><path class="xlines-below"/><path class="ylines-below"/><g class="overlines-below"/><g class="xaxislayer-below"/><g class="yaxislayer-below"/><g class="overaxes-below"/><g class="plot" transform="translate(80,100)" clip-path="url(#clip727fdbxyplot)"><g class="scatterlayer mlayer"><g class="trace scatter tracec789a7" style="stroke-miterlimit: 2;"><g class="fills"><g><path class="js-fill" d="M540,320L0,320L0,319.92L4.34,317.46L5.42,315.49L7.59,314.13L8.67,293.5L11.93,240.54L13.01,237.13L14.1,234.63L15.18,229.86L17.35,209.57L18.43,208.82L19.52,208.66L20.6,188.54L21.69,190.75L22.77,179.48L23.86,180.53L24.94,164.57L27.11,153.12L28.19,136.32L30.36,131.52L31.45,143.4L32.53,151.91L33.61,149.66L34.7,149.37L35.78,146.17L37.95,144.86L39.04,135.72L40.12,140.32L41.2,135.9L42.29,132.64L43.37,133.19L45.54,135.19L46.63,133.14L47.71,131.76L48.8,134.68L49.88,136.17L50.96,135.27L52.05,132.51L53.13,133L54.22,134.67L55.3,134.94L56.39,133.97L57.47,135.71L60.72,136.22L61.81,142.1L63.98,142.53L65.06,136.72L69.4,132.62L70.48,128.75L71.57,127.65L72.65,130.45L73.73,132.49L74.82,131.09L78.07,126.4L79.16,134.55L80.24,144.05L81.33,142.96L82.41,141.16L83.49,147.21L84.58,154.09L85.66,152.91L86.75,154.29L87.83,157.57L88.92,158.39L90,157.7L92.17,156.55L93.25,154.65L94.34,159.73L95.42,159.12L96.51,159.34L97.59,158.41L98.67,157.07L99.76,162.17L105.18,160.72L106.27,160.69L107.35,158.83L108.43,162.45L109.52,162.8L110.6,159.98L111.69,161.66L112.77,167.55L113.86,167.54L114.94,164.24L116.02,164.26L117.11,162.73L118.19,159.44L119.28,164.57L120.36,162.64L121.45,163.29L124.7,162.71L125.78,161.22L126.87,184.56L127.95,183.66L130.12,183.96L131.2,185.54L132.29,185.16L133.37,182.45L135.54,180.13L136.63,183.35L138.8,182.43L139.88,175.24L142.05,169.35L143.13,167.76L144.22,168.64L145.3,164.73L146.39,159.43L147.47,158.77L148.55,158.21L149.64,148.34L150.72,143.69L151.81,145.01L152.89,144.58L153.98,144.97L155.06,144.57L156.14,136.63L157.23,136.73L158.31,130.4L159.4,125.93L160.48,126.31L161.57,126.16L162.65,128.05L164.82,123.85L165.9,123.65L166.99,124.44L168.07,120.99L169.16,126.49L170.24,119.54L173.49,104.28L174.58,106.54L175.66,106.08L176.75,67.59L178.92,64.96L180,67.82L181.08,72.71L182.17,73.65L183.25,71.13L184.34,72.26L185.42,70.3L186.51,72.07L187.59,71.97L188.67,74.6L189.76,71.74L190.84,88.87L193.01,90.04L194.1,83.1L196.27,71.57L197.35,66.75L199.52,54.39L200.6,64.18L201.69,63.67L202.77,64.49L204.94,62.75L206.02,62.76L207.11,65.31L208.19,56.66L209.28,58.75L210.36,64.14L211.45,96.14L212.53,90.34L213.61,81.48L214.7,43.4L215.78,41.49L216.87,33.98L217.95,33.23L219.04,35.33L220.12,60.98L221.2,59.94L222.29,64.32L223.37,64.95L225.54,68.49L226.63,68.44L227.71,72.59L228.8,73.48L229.88,71.53L230.96,72.52L232.05,72.24L233.13,84.21L235.3,83.2L236.39,80.17L238.55,80.21L239.64,87.93L240.72,90.22L241.81,90.35L242.89,86.93L243.98,90.51L247.23,88.67L248.31,84.3L249.4,84.33L250.48,83.1L251.57,80.85L252.65,84.3L254.82,83.91L255.9,82.43L256.99,35L258.07,34.25L260.24,27.69L261.33,30.4L262.41,29.42L263.49,31.16L265.66,31.37L266.75,29.97L267.83,27.43L268.92,90.07L271.08,87.24L272.17,79.98L273.25,87.89L274.34,88.67L275.42,88.06L276.51,88.6L277.59,81.29L278.67,80.68L279.76,65.86L280.84,64.54L281.93,67.99L283.01,60.7L284.1,62.06L285.18,61.61L286.27,62.48L287.35,60.61L288.43,60.28L289.52,63.03L290.6,65.19L291.69,65.49L292.77,63.89L293.86,70.81L294.94,66.98L296.02,68.96L297.11,70.57L298.19,73.73L299.28,66.83L300.36,16.31L303.61,16L304.7,16.41L306.87,20.34L307.95,19.4L309.04,22.53L310.12,21.44L312.29,20.37L313.37,21.46L316.63,25.09L317.71,24.65L322.05,29.9L323.13,30.94L324.22,31.43L325.3,30.51L329.64,36.06L330.72,41.8L331.81,40.64L332.89,42.77L333.98,41.73L335.06,44.61L336.14,45.35L337.23,66.72L338.31,84.53L339.4,82.93L340.48,81.8L341.57,231.44L342.65,231.74L343.73,238.7L344.82,190.91L345.9,193.47L348.07,197.28L349.16,211.95L350.24,211.42L351.33,213.65L353.49,214.37L354.58,211.68L355.66,211.34L356.75,209.29L357.83,211.59L358.92,212.1L360,216.74L361.08,216.66L362.17,220.47L363.25,220.08L364.34,221.77L365.42,228.58L367.59,213.87L368.67,213.11L371.93,212.13L373.01,203.97L374.1,204.02L375.18,201.41L379.52,201.83L380.6,201.25L382.77,201.68L383.86,204.3L384.94,201.78L386.02,201.79L388.19,200.49L389.28,201.18L390.36,202.45L391.45,200.52L394.7,201.57L395.78,201.84L397.95,201.06L399.04,202.87L401.2,203.03L402.29,202.9L403.37,203.06L404.46,204.13L406.63,202.56L407.71,203.04L410.96,200.31L412.05,201.29L413.13,209.98L414.22,209.58L422.89,209.43L423.98,209.36L425.06,209.01L426.14,210.25L429.4,209.93L430.48,211.53L433.73,211.79L434.82,210.11L435.9,211.28L436.99,211.13L438.07,209.51L439.16,209.63L440.24,209.29L441.33,209.75L443.49,209.62L444.58,211.74L447.83,211.21L448.92,214.08L450,214.4L451.08,212.75L452.17,214.76L453.25,214.18L455.42,212.92L456.51,213.6L457.59,216.91L458.67,215.74L461.93,216.23L463.01,218.01L464.1,216.92L465.18,217.98L466.27,218.47L467.35,216.98L471.69,217.3L472.77,215.87L473.86,218.51L474.94,223.87L477.11,230.73L478.19,233.97L479.28,228.32L480.36,228.65L481.45,229.03L482.53,230.46L483.61,228.95L484.7,229.07L486.87,229.2L487.95,232.48L489.04,232.58L490.12,233.62L491.2,233.3L492.29,234.71L493.37,236.19L494.46,235.99L499.88,239.06L500.96,239.06L503.13,240.29L504.22,243.05L506.39,244.34L507.47,252.68L508.55,253.11L509.64,255.96L510.72,292.87L511.81,293.79L512.89,299.49L513.98,300.47L516.14,300.01L517.23,300.8L518.31,300.44L519.4,302.73L520.48,302.77L521.57,306.73L526.99,309.08L528.07,309.63L529.16,311.56L530.24,311.25L531.33,311.72L532.41,314.13L535.66,313.63L536.75,314.19L538.92,314.29L540,315.3" style="fill: rgb(99, 110, 250); fill-opacity: 0.5; stroke-width: 0;"/></g></g><g class="errorbars"/><g class="lines"><path class="js-line" d="M0,319.92L4.34,317.46L5.42,315.49L7.59,314.13L8.67,293.5L11.93,240.54L13.01,237.13L14.1,234.63L15.18,229.86L17.35,209.57L18.43,208.82L19.52,208.66L20.6,188.54L21.69,190.75L22.77,179.48L23.86,180.53L24.94,164.57L27.11,153.12L28.19,136.32L30.36,131.52L31.45,143.4L32.53,151.91L33.61,149.66L34.7,149.37L35.78,146.17L37.95,144.86L39.04,135.72L40.12,140.32L41.2,135.9L42.29,132.64L43.37,133.19L45.54,135.19L46.63,133.14L47.71,131.76L48.8,134.68L49.88,136.17L50.96,135.27L52.05,132.51L53.13,133L54.22,134.67L55.3,134.94L56.39,133.97L57.47,135.71L60.72,136.22L61.81,142.1L63.98,142.53L65.06,136.72L69.4,132.62L70.48,128.75L71.57,127.65L72.65,130.45L73.73,132.49L74.82,131.09L78.07,126.4L79.16,134.55L80.24,144.05L81.33,142.96L82.41,141.16L83.49,147.21L84.58,154.09L85.66,152.91L86.75,154.29L87.83,157.57L88.92,158.39L90,157.7L92.17,156.55L93.25,154.65L94.34,159.73L95.42,159.12L96.51,159.34L97.59,158.41L98.67,157.07L99.76,162.17L105.18,160.72L106.27,160.69L107.35,158.83L108.43,162.45L109.52,162.8L110.6,159.98L111.69,161.66L112.77,167.55L113.86,167.54L114.94,164.24L116.02,164.26L117.11,162.73L118.19,159.44L119.28,164.57L120.36,162.64L121.45,163.29L124.7,162.71L125.78,161.22L126.87,184.56L127.95,183.66L130.12,183.96L131.2,185.54L132.29,185.16L133.37,182.45L135.54,180.13L136.63,183.35L138.8,182.43L139.88,175.24L142.05,169.35L143.13,167.76L144.22,168.64L145.3,164.73L146.39,159.43L147.47,158.77L148.55,158.21L149.64,148.34L150.72,143.69L151.81,145.01L152.89,144.58L153.98,144.97L155.06,144.57L156.14,136.63L157.23,136.73L158.31,130.4L159.4,125.93L160.48,126.31L161.57,126.16L162.65,128.05L164.82,123.85L165.9,123.65L166.99,124.44L168.07,120.99L169.16,126.49L170.24,119.54L173.49,104.28L174.58,106.54L175.66,106.08L176.75,67.59L178.92,64.96L180,67.82L181.08,72.71L182.17,73.65L183.25,71.13L184.34,72.26L185.42,70.3L186.51,72.07L187.59,71.97L188.67,74.6L189.76,71.74L190.84,88.87L193.01,90.04L194.1,83.1L196.27,71.57L197.35,66.75L199.52,54.39L200.6,64.18L201.69,63.67L202.77,64.49L204.94,62.75L206.02,62.76L207.11,65.31L208.19,56.66L209.28,58.75L210.36,64.14L211.45,96.14L212.53,90.34L213.61,81.48L214.7,43.4L215.78,41.49L216.87,33.98L217.95,33.23L219.04,35.33L220.12,60.98L221.2,59.94L222.29,64.32L223.37,64.95L225.54,68.49L226.63,68.44L227.71,72.59L228.8,73.48L229.88,71.53L230.96,72.52L232.05,72.24L233.13,84.21L235.3,83.2L236.39,80.17L238.55,80.21L239.64,87.93L240.72,90.22L241.81,90.35L242.89,86.93L243.98,90.51L247.23,88.67L248.31,84.3L249.4,84.33L250.48,83.1L251.57,80.85L252.65,84.3L254.82,83.91L255.9,82.43L256.99,35L258.07,34.25L260.24,27.69L261.33,30.4L262.41,29.42L263.49,31.16L265.66,31.37L266.75,29.97L267.83,27.43L268.92,90.07L271.08,87.24L272.17,79.98L273.25,87.89L274.34,88.67L275.42,88.06L276.51,88.6L277.59,81.29L278.67,80.68L279.76,65.86L280.84,64.54L281.93,67.99L283.01,60.7L284.1,62.06L285.18,61.61L286.27,62.48L287.35,60.61L288.43,60.28L289.52,63.03L290.6,65.19L291.69,65.49L292.77,63.89L293.86,70.81L294.94,66.98L296.02,68.96L297.11,70.57L298.19,73.73L299.28,66.83L300.36,16.31L303.61,16L304.7,16.41L306.87,20.34L307.95,19.4L309.04,22.53L310.12,21.44L312.29,20.37L313.37,21.46L316.63,25.09L317.71,24.65L322.05,29.9L323.13,30.94L324.22,31.43L325.3,30.51L329.64,36.06L330.72,41.8L331.81,40.64L332.89,42.77L333.98,41.73L335.06,44.61L336.14,45.35L337.23,66.72L338.31,84.53L339.4,82.93L340.48,81.8L341.57,231.44L342.65,231.74L343.73,238.7L344.82,190.91L345.9,193.47L348.07,197.28L349.16,211.95L350.24,211.42L351.33,213.65L353.49,214.37L354.58,211.68L355.66,211.34L356.75,209.29L357.83,211.59L358.92,212.1L360,216.74L361.08,216.66L362.17,220.47L363.25,220.08L364.34,221.77L365.42,228.58L367.59,213.87L368.67,213.11L371.93,212.13L373.01,203.97L374.1,204.02L375.18,201.41L379.52,201.83L380.6,201.25L382.77,201.68L383.86,204.3L384.94,201.78L386.02,201.79L388.19,200.49L389.28,201.18L390.36,202.45L391.45,200.52L394.7,201.57L395.78,201.84L397.95,201.06L399.04,202.87L401.2,203.03L402.29,202.9L403.37,203.06L404.46,204.13L406.63,202.56L407.71,203.04L410.96,200.31L412.05,201.29L413.13,209.98L414.22,209.58L422.89,209.43L423.98,209.36L425.06,209.01L426.14,210.25L429.4,209.93L430.48,211.53L433.73,211.79L434.82,210.11L435.9,211.28L436.99,211.13L438.07,209.51L439.16,209.63L440.24,209.29L441.33,209.75L443.49,209.62L444.58,211.74L447.83,211.21L448.92,214.08L450,214.4L451.08,212.75L452.17,214.76L453.25,214.18L455.42,212.92L456.51,213.6L457.59,216.91L458.67,215.74L461.93,216.23L463.01,218.01L464.1,216.92L465.18,217.98L466.27,218.47L467.35,216.98L471.69,217.3L472.77,215.87L473.86,218.51L474.94,223.87L477.11,230.73L478.19,233.97L479.28,228.32L480.36,228.65L481.45,229.03L482.53,230.46L483.61,228.95L484.7,229.07L486.87,229.2L487.95,232.48L489.04,232.58L490.12,233.62L491.2,233.3L492.29,234.71L493.37,236.19L494.46,235.99L499.88,239.06L500.96,239.06L503.13,240.29L504.22,243.05L506.39,244.34L507.47,252.68L508.55,253.11L509.64,255.96L510.72,292.87L511.81,293.79L512.89,299.49L513.98,300.47L516.14,300.01L517.23,300.8L518.31,300.44L519.4,302.73L520.48,302.77L521.57,306.73L526.99,309.08L528.07,309.63L529.16,311.56L530.24,311.25L531.33,311.72L532.41,314.13L535.66,313.63L536.75,314.19L538.92,314.29L540,315.3" style="vector-effect: none; fill: none; stroke: rgb(99, 110, 250); stroke-opacity: 1; stroke-width: 2px; opacity: 1;"/></g><g class="points"/><g class="text"/></g></g></g><g class="overplot"/><path class="xlines-above crisp" d="M0,0" style="fill: none;"/><path class="ylines-above crisp" d="M0,0" style="fill: none;"/><g class="overlines-above"/><g class="xaxislayer-above"><g class="xtick"><text text-anchor="middle" x="0" y="433" transform="translate(115.78,0)" style="font-family: 'Open Sans', verdana, arial, sans-serif; font-size: 12px; fill: rgb(42, 63, 95); fill-opacity: 1; white-space: pre; opacity: 1;">Oct 2022</text></g><g class="xtick"><text text-anchor="middle" x="0" y="433" style="font-family: 'Open Sans', verdana, arial, sans-serif; font-size: 12px; fill: rgb(42, 63, 95); fill-opacity: 1; white-space: pre; opacity: 1;" transform="translate(215.54,0)">Jan 2023</text></g><g class="xtick"><text text-anchor="middle" x="0" y="433" style="font-family: 'Open Sans', verdana, arial, sans-serif; font-size: 12px; fill: rgb(42, 63, 95); fill-opacity: 1; white-space: pre; opacity: 1;" transform="translate(313.13,0)">Apr 2023</text></g><g class="xtick"><text text-anchor="middle" x="0" y="433" style="font-family: 'Open Sans', verdana, arial, sans-serif; font-size: 12px; fill: rgb(42, 63, 95); fill-opacity: 1; white-space: pre; opacity: 1;" transform="translate(411.81,0)">Jul 2023</text></g><g class="xtick"><text text-anchor="middle" x="0" y="433" style="font-family: 'Open Sans', verdana, arial, sans-serif; font-size: 12px; fill: rgb(42, 63, 95); fill-opacity: 1; white-space: pre; opacity: 1;" transform="translate(511.57,0)">Oct 2023</text></g><g class="xtick"><text text-anchor="middle" x="0" y="433" style="font-family: 'Open Sans', verdana, arial, sans-serif; font-size: 12px; fill: rgb(42, 63, 95); fill-opacity: 1; white-space: pre; opacity: 1;" transform="translate(611.33,0)">Jan 2024</text></g></g><g class="yaxislayer-above"><g class="ytick"><text text-anchor="end" x="79" y="4.199999999999999" transform="translate(0,420)" style="font-family: 'Open Sans', verdana, arial, sans-serif; font-size: 12px; fill: rgb(42, 63, 95); fill-opacity: 1; white-space: pre; opacity: 1;">$0</text></g><g class="ytick"><text text-anchor="end" x="79" y="4.199999999999999" style="font-family: 'Open Sans', verdana, arial, sans-serif; font-size: 12px; fill: rgb(42, 63, 95); fill-opacity: 1; white-space: pre; opacity: 1;" transform="translate(0,377.8)">$2M</text></g><g class="ytick"><text text-anchor="end" x="79" y="4.199999999999999" style="font-family: 'Open Sans', verdana, arial, sans-serif; font-size: 12px; fill: rgb(42, 63, 95); fill-opacity: 1; white-space: pre; opacity: 1;" transform="translate(0,335.6)">$4M</text></g><g class="ytick"><text text-anchor="end" x="79" y="4.199999999999999" style="font-family: 'Open Sans', verdana, arial, sans-serif; font-size: 12px; fill: rgb(42, 63, 95); fill-opacity: 1; white-space: pre; opacity: 1;" transform="translate(0,293.4)">$6M</text></g><g class="ytick"><text text-anchor="end" x="79" y="4.199999999999999" style="font-family: 'Open Sans', verdana, arial, sans-serif; font-size: 12px; fill: rgb(42, 63, 95); fill-opacity: 1; white-space: pre; opacity: 1;" transform="translate(0,251.2)">$8M</text></g><g class="ytick"><text text-anchor="end" x="79" y="4.199999999999999" style="font-family: 'Open Sans', verdana, arial, sans-serif; font-size: 12px; fill: rgb(42, 63, 95); fill-opacity: 1; white-space: pre; opacity: 1;" transform="translate(0,208.99)">$10M</text></g><g class="ytick"><text text-anchor="end" x="79" y="4.199999999999999" style="font-family: 'Open Sans', verdana, arial, sans-serif; font-size: 12px; fill: rgb(42, 63, 95); fill-opacity: 1; white-space: pre; opacity: 1;" transform="translate(0,166.79000000000002)">$12M</text></g><g class="ytick"><text text-anchor="end" x="79" y="4.199999999999999" style="font-family: 'Open Sans', verdana, arial, sans-serif; font-size: 12px; fill: rgb(42, 63, 95); fill-opacity: 1; white-space: pre; opacity: 1;" transform="translate(0,124.59)">$14M</text></g></g><g class="overaxes-above"/></g></g><g class="polarlayer"/><g class="smithlayer"/><g class="ternarylayer"/><g class="geolayer"/><g class="funnelarealayer"/><g class="pielayer"/><g class="iciclelayer"/><g class="treemaplayer"/><g class="sunburstlayer"/><g class="glimages"/><defs id="topdefs-727fdb"><g class="clips"/></defs><g class="layer-above"><g class="imagelayer"/><g class="shapelayer"/></g><g class="infolayer"><g class="g-gtitle"><text class="gtitle" x="35" y="50" text-anchor="start" dy="0em" style="font-family: 'Open Sans', verdana, arial, sans-serif; font-size: 17px; fill: rgb(42, 63, 95); opacity: 1; font-weight: normal; white-space: pre;"><tspan class="line" dy="0em" x="35" y="50">Pika Protocol*</tspan><tspan class="line" dy="1.3em" x="35" y="50">​<tspan style="font-size:70%" dy="-0.6em">Cumulative Net Flows since Program Announcement, Until Program End + 30 Days - At Last Price</tspan><tspan dy="0.42em">​</tspan></tspan></text></g><g class="g-xtitle"><text class="xtitle" x="350" y="460.3" text-anchor="middle" style="font-family: 'Open Sans', verdana, arial, sans-serif; font-size: 14px; fill: rgb(42, 63, 95); opacity: 1; font-weight: normal; white-space: pre;">Day</text></g><g class="g-ytitle"><text class="ytitle" transform="rotate(-90,24.668750000000003,260)" x="24.668750000000003" y="260" text-anchor="middle" style="font-family: 'Open Sans', verdana, arial, sans-serif; font-size: 14px; fill: rgb(42, 63, 95); opacity: 1; font-weight: normal; white-space: pre;">Cumulative Net Flows (USD)</text></g></g></svg>