<svg class="main-svg" xmlns="http://www.w3.org/2000/svg" xmlns:xlink="http://www.w3.org/1999/xlink" width="700" height="500" style="" viewBox="0 0 700 500"><rect x="0" y="0" width="700" height="500" style="fill: rgb(255, 255, 255); fill-opacity: 1;"/><defs id="defs-14846c"><g class="clips"><clipPath id="clip14846cxyplot" class="plotclip"><rect width="540" height="320"/></clipPath><clipPath class="axesclip" id="clip14846cx"><rect x="80" y="0" width="540" height="500"/></clipPath><clipPath class="axesclip" id="clip14846cy"><rect x="0" y="100" width="700" height="320"/></clipPath><clipPath class="axesclip" id="clip14846cxy"><rect x="80" y="100" width="540" height="320"/></clipPath></g><g class="gradients"/><g class="patterns"/></defs><g class="bglayer"><rect class="bg" x="80" y="100" width="540" height="320" style="fill: rgb(229, 236, 246); fill-opacity: 1; stroke-width: 0;"/></g><g class="layer-below"><g class="imagelayer"/><g class="shapelayer"/></g><g class="cartesianlayer"><g class="subplot xy"><g class="layer-subplot"><g class="shapelayer"/><g class="imagelayer"/></g><g class="minor-gridlayer"><g class="x"/><g class="y"/></g><g class="gridlayer"><g class="x"><path class="xgrid crisp" transform="translate(134.4,0)" d="M0,100v320" style="stroke: rgb(255, 255, 255); stroke-opacity: 1; stroke-width: 1px;"/><path class="xgrid crisp" transform="translate(257.31,0)" d="M0,100v320" style="stroke: rgb(255, 255, 255); stroke-opacity: 1; stroke-width: 1px;"/><path class="xgrid crisp" transform="translate(380.22,0)" d="M0,100v320" style="stroke: rgb(255, 255, 255); stroke-opacity: 1; stroke-width: 1px;"/><path class="xgrid crisp" transform="translate(499.1,0)" d="M0,100v320" style="stroke: rgb(255, 255, 255); stroke-opacity: 1; stroke-width: 1px;"/></g><g class="y"><path class="ygrid crisp" transform="translate(0,411.07)" d="M80,0h540" style="stroke: rgb(255, 255, 255); stroke-opacity: 1; stroke-width: 1px;"/><path class="ygrid crisp" transform="translate(0,366.5)" d="M80,0h540" style="stroke: rgb(255, 255, 255); stroke-opacity: 1; stroke-width: 1px;"/><path class="ygrid crisp" transform="translate(0,277.37)" d="M80,0h540" style="stroke: rgb(255, 255, 255); stroke-opacity: 1; stroke-width: 1px;"/><path class="ygrid crisp" transform="translate(0,232.8)" d="M80,0h540" style="stroke: rgb(255, 255, 255); stroke-opacity: 1; stroke-width: 1px;"/><path class="ygrid crisp" transform="translate(0,188.23000000000002)" d="M80,0h540" style="stroke: rgb(255, 255, 255); stroke-opacity: 1; stroke-width: 1px;"/><path class="ygrid crisp" transform="translate(0,143.66)" d="M80,0h540" style="stroke: rgb(255, 255, 255); stroke-opacity: 1; stroke-width: 1px;"/></g></g><g class="zerolinelayer"><path class="yzl zl crisp" transform="translate(0,321.94)" d="M80,0h540" style="stroke: rgb(255, 255, 255); stroke-opacity: 1; stroke-width: 2px;"/></g><path class="xlines-below"/><path class="ylines-below"/><g class="overlines-below"/><g class="xaxislayer-below"/><g class="yaxislayer-below"/><g class="overaxes-below"/><g class="plot" transform="translate(80,100)" clip-path="url(#clip14846cxyplot)"><g class="scatterlayer mlayer"><g class="trace scatter traced10b58" style="stroke-miterlimit: 2;"><g class="fills"><g><path class="js-fill" d="M540,221.94L0,221.94L0,230.13L2.01,179.22L4.03,186.3L6.04,188.54L8.06,193.34L10.07,194.67L12.09,193.89L14.1,189.41L16.12,180.14L18.13,192.45L20.15,188.65L22.16,187.18L24.18,182.88L28.21,185.97L30.22,178.59L32.24,179.4L34.25,177.71L36.27,174.58L38.28,169.79L42.31,175.55L44.33,174.58L48.36,172.19L50.37,166.78L52.39,161.56L54.4,159.13L56.42,148.61L58.43,148.28L62.46,138.9L64.48,153.74L68.51,162.09L70.52,145.02L72.54,140.94L74.55,139.82L76.57,137.31L78.58,130.89L80.6,126.13L82.61,142.56L84.63,142.11L86.64,140.86L88.66,139.12L90.67,139.32L92.69,137L94.7,140.57L96.72,155.31L98.73,152.31L100.75,152.27L102.76,157.32L104.78,158.63L106.79,151.23L108.81,146.14L110.82,143.13L112.84,148.48L114.85,149.79L116.87,149.48L118.88,144.21L122.91,153.19L124.93,144.74L126.94,137.96L128.96,125.76L130.97,122.06L132.99,122.19L135,119.45L137.01,86.77L139.03,80.9L141.04,79.72L145.07,81.48L147.09,81.52L149.1,83.14L151.12,78.11L153.13,77.24L155.15,77.65L157.16,76.7L159.18,77.65L161.19,77.39L163.21,76.23L165.22,84.19L167.24,81.85L169.25,81.81L171.27,79.36L173.28,79.37L175.3,76.5L177.31,59.75L179.33,56.87L181.34,53.61L183.36,35.47L185.37,28.8L187.39,16L193.43,32.83L195.45,45.87L197.46,174.84L199.48,223.28L201.49,232L203.51,225.63L205.52,228.49L207.54,233.74L209.55,224.13L211.57,228.07L215.6,224.34L217.61,227.72L219.63,229.02L221.64,221.77L223.66,225.88L225.67,224.3L227.69,219.67L229.7,222.7L231.72,221.91L233.73,223.35L235.75,217.97L237.76,208.99L243.81,203.82L245.82,204.53L247.84,200.9L249.85,200.46L253.88,194.21L255.9,193.17L257.91,193.13L259.93,191.89L263.96,199.54L265.97,199.15L267.99,197.64L270,198.72L272.01,210.02L274.03,205.86L276.04,207.09L278.06,196.96L280.07,188.29L282.09,184.44L286.12,183.74L288.13,184.37L292.16,187.06L294.18,186.85L296.19,186.36L298.21,182.95L300.22,187.75L302.24,187.09L304.25,181.19L306.27,181.43L308.28,178.63L310.3,180.61L312.31,184.09L314.33,190.77L316.34,192.32L318.36,192.83L320.37,192.75L322.39,195.43L324.4,193.74L326.42,198.78L330.45,201.06L332.46,197.44L334.48,187.35L336.49,183.5L340.52,185.55L342.54,183.76L344.55,178.21L346.57,178.37L348.58,176.98L350.6,179.93L354.63,182.72L356.64,182.22L360.67,169.78L362.69,146.66L364.7,151.2L366.72,151.84L368.73,148.96L370.75,147.54L372.76,144.93L374.78,148.39L376.79,154.75L378.81,150.18L380.82,154.5L382.84,148.52L386.87,145.1L388.88,134.48L390.9,132.33L392.91,134.93L394.93,152.93L396.94,147.12L400.97,153.54L402.99,153.55L405,151.83L407.01,162.71L409.03,164.43L411.04,173.34L413.06,172.44L415.07,172.9L417.09,168.4L419.1,171.4L421.12,171.99L423.13,163.51L425.15,160.64L427.16,153.53L429.18,157.03L431.19,157.31L437.24,154.64L439.25,128.02L441.27,122.01L443.28,101.81L445.3,81.94L447.31,70.82L451.34,50.95L453.36,48.62L455.37,75.51L457.39,75.8L459.4,81.1L461.42,79.12L463.43,78.59L465.45,72.72L467.46,98.36L469.48,101.31L471.49,108.13L473.51,117.95L475.52,128.44L477.54,125.43L479.55,126.46L481.57,123.82L483.58,124.65L485.6,126.73L487.61,132.99L489.63,136.22L491.64,133.46L493.66,129.35L495.67,130.13L497.69,135.7L499.7,126.99L501.72,132.41L503.73,113.24L505.75,102.5L507.76,92.59L509.78,87.53L511.79,84.52L513.81,76.48L515.82,78.92L517.84,79.5L519.85,84.5L521.87,92.06L525.9,101.19L527.91,103.79L529.93,103.76L531.94,105.91L535.97,108.21L537.99,103.81L540,99.34L540,304" style="fill: rgb(99, 110, 250); fill-opacity: 0.5; stroke-width: 0;"/></g></g><g class="errorbars"/><g class="lines"><path class="js-line" d="M0,230.13L2.01,179.22L4.03,186.3L6.04,188.54L8.06,193.34L10.07,194.67L12.09,193.89L14.1,189.41L16.12,180.14L18.13,192.45L20.15,188.65L22.16,187.18L24.18,182.88L28.21,185.97L30.22,178.59L32.24,179.4L34.25,177.71L36.27,174.58L38.28,169.79L42.31,175.55L44.33,174.58L48.36,172.19L50.37,166.78L52.39,161.56L54.4,159.13L56.42,148.61L58.43,148.28L62.46,138.9L64.48,153.74L68.51,162.09L70.52,145.02L72.54,140.94L74.55,139.82L76.57,137.31L78.58,130.89L80.6,126.13L82.61,142.56L84.63,142.11L86.64,140.86L88.66,139.12L90.67,139.32L92.69,137L94.7,140.57L96.72,155.31L98.73,152.31L100.75,152.27L102.76,157.32L104.78,158.63L106.79,151.23L108.81,146.14L110.82,143.13L112.84,148.48L114.85,149.79L116.87,149.48L118.88,144.21L122.91,153.19L124.93,144.74L126.94,137.96L128.96,125.76L130.97,122.06L132.99,122.19L135,119.45L137.01,86.77L139.03,80.9L141.04,79.72L145.07,81.48L147.09,81.52L149.1,83.14L151.12,78.11L153.13,77.24L155.15,77.65L157.16,76.7L159.18,77.65L161.19,77.39L163.21,76.23L165.22,84.19L167.24,81.85L169.25,81.81L171.27,79.36L173.28,79.37L175.3,76.5L177.31,59.75L179.33,56.87L181.34,53.61L183.36,35.47L185.37,28.8L187.39,16L193.43,32.83L195.45,45.87L197.46,174.84L199.48,223.28L201.49,232L203.51,225.63L205.52,228.49L207.54,233.74L209.55,224.13L211.57,228.07L215.6,224.34L217.61,227.72L219.63,229.02L221.64,221.77L223.66,225.88L225.67,224.3L227.69,219.67L229.7,222.7L231.72,221.91L233.73,223.35L235.75,217.97L237.76,208.99L243.81,203.82L245.82,204.53L247.84,200.9L249.85,200.46L253.88,194.21L255.9,193.17L257.91,193.13L259.93,191.89L263.96,199.54L265.97,199.15L267.99,197.64L270,198.72L272.01,210.02L274.03,205.86L276.04,207.09L278.06,196.96L280.07,188.29L282.09,184.44L286.12,183.74L288.13,184.37L292.16,187.06L294.18,186.85L296.19,186.36L298.21,182.95L300.22,187.75L302.24,187.09L304.25,181.19L306.27,181.43L308.28,178.63L310.3,180.61L312.31,184.09L314.33,190.77L316.34,192.32L318.36,192.83L320.37,192.75L322.39,195.43L324.4,193.74L326.42,198.78L330.45,201.06L332.46,197.44L334.48,187.35L336.49,183.5L340.52,185.55L342.54,183.76L344.55,178.21L346.57,178.37L348.58,176.98L350.6,179.93L354.63,182.72L356.64,182.22L360.67,169.78L362.69,146.66L364.7,151.2L366.72,151.84L368.73,148.96L370.75,147.54L372.76,144.93L374.78,148.39L376.79,154.75L378.81,150.18L380.82,154.5L382.84,148.52L386.87,145.1L388.88,134.48L390.9,132.33L392.91,134.93L394.93,152.93L396.94,147.12L400.97,153.54L402.99,153.55L405,151.83L407.01,162.71L409.03,164.43L411.04,173.34L413.06,172.44L415.07,172.9L417.09,168.4L419.1,171.4L421.12,171.99L423.13,163.51L425.15,160.64L427.16,153.53L429.18,157.03L431.19,157.31L437.24,154.64L439.25,128.02L441.27,122.01L443.28,101.81L445.3,81.94L447.31,70.82L451.34,50.95L453.36,48.62L455.37,75.51L457.39,75.8L459.4,81.1L461.42,79.12L463.43,78.59L465.45,72.72L467.46,98.36L469.48,101.31L471.49,108.13L473.51,117.95L475.52,128.44L477.54,125.43L479.55,126.46L481.57,123.82L483.58,124.65L485.6,126.73L487.61,132.99L489.63,136.22L491.64,133.46L493.66,129.35L495.67,130.13L497.69,135.7L499.7,126.99L501.72,132.41L503.73,113.24L505.75,102.5L507.76,92.59L509.78,87.53L511.79,84.52L513.81,76.48L515.82,78.92L517.84,79.5L519.85,84.5L521.87,92.06L525.9,101.19L527.91,103.79L529.93,103.76L531.94,105.91L535.97,108.21L537.99,103.81L540,99.34L540,304" style="vector-effect: none; fill: none; stroke: rgb(99, 110, 250); stroke-opacity: 1; stroke-width: 2px; opacity: 1;"/></g><g class="points"/><g class="text"/></g></g></g><g class="overplot"/><path class="xlines-above crisp" d="M0,0" style="fill: none;"/><path class="ylines-above crisp" d="M0,0" style="fill: none;"/><g class="overlines-above"/><g class="xaxislayer-above"><g class="xtick"><text text-anchor="middle" x="0" y="433" transform="translate(134.4,0)" style="font-family: 'Open Sans', verdana, arial, sans-serif; font-size: 12px; fill: rgb(42, 63, 95); fill-opacity: 1; white-space: pre; opacity: 1;">Sep 2022</text></g><g class="xtick"><text text-anchor="middle" x="0" y="433" style="font-family: 'Open Sans', verdana, arial, sans-serif; font-size: 12px; fill: rgb(42, 63, 95); fill-opacity: 1; white-space: pre; opacity: 1;" transform="translate(257.31,0)">Nov 2022</text></g><g class="xtick"><text text-anchor="middle" x="0" y="433" style="font-family: 'Open Sans', verdana, arial, sans-serif; font-size: 12px; fill: rgb(42, 63, 95); fill-opacity: 1; white-space: pre; opacity: 1;" transform="translate(380.22,0)">Jan 2023</text></g><g class="xtick"><text text-anchor="middle" x="0" y="433" style="font-family: 'Open Sans', verdana, arial, sans-serif; font-size: 12px; fill: rgb(42, 63, 95); fill-opacity: 1; white-space: pre; opacity: 1;" transform="translate(499.1,0)">Mar 2023</text></g></g><g class="yaxislayer-above"><g class="ytick"><text text-anchor="end" x="79" y="4.199999999999999" transform="translate(0,411.07)" style="font-family: 'Open Sans', verdana, arial, sans-serif; font-size: 12px; fill: rgb(42, 63, 95); fill-opacity: 1; white-space: pre; opacity: 1;">$−20M</text></g><g class="ytick"><text text-anchor="end" x="79" y="4.199999999999999" style="font-family: 'Open Sans', verdana, arial, sans-serif; font-size: 12px; fill: rgb(42, 63, 95); fill-opacity: 1; white-space: pre; opacity: 1;" transform="translate(0,366.5)">$−10M</text></g><g class="ytick"><text text-anchor="end" x="79" y="4.199999999999999" style="font-family: 'Open Sans', verdana, arial, sans-serif; font-size: 12px; fill: rgb(42, 63, 95); fill-opacity: 1; white-space: pre; opacity: 1;" transform="translate(0,321.94)">$0</text></g><g class="ytick"><text text-anchor="end" x="79" y="4.199999999999999" style="font-family: 'Open Sans', verdana, arial, sans-serif; font-size: 12px; fill: rgb(42, 63, 95); fill-opacity: 1; white-space: pre; opacity: 1;" transform="translate(0,277.37)">$10M</text></g><g class="ytick"><text text-anchor="end" x="79" y="4.199999999999999" style="font-family: 'Open Sans', verdana, arial, sans-serif; font-size: 12px; fill: rgb(42, 63, 95); fill-opacity: 1; white-space: pre; opacity: 1;" transform="translate(0,232.8)">$20M</text></g><g class="ytick"><text text-anchor="end" x="79" y="4.199999999999999" style="font-family: 'Open Sans', verdana, arial, sans-serif; font-size: 12px; fill: rgb(42, 63, 95); fill-opacity: 1; white-space: pre; opacity: 1;" transform="translate(0,188.23000000000002)">$30M</text></g><g class="ytick"><text text-anchor="end" x="79" y="4.199999999999999" style="font-family: 'Open Sans', verdana, arial, sans-serif; font-size: 12px; fill: rgb(42, 63, 95); fill-opacity: 1; white-space: pre; opacity: 1;" transform="translate(0,143.66)">$40M</text></g></g><g class="overaxes-above"/></g></g><g class="polarlayer"/><g class="smithlayer"/><g class="ternarylayer"/><g class="geolayer"/><g class="funnelarealayer"/><g class="pielayer"/><g class="iciclelayer"/><g class="treemaplayer"/><g class="sunburstlayer"/><g class="glimages"/><defs id="topdefs-14846c"><g class="clips"/></defs><g class="layer-above"><g class="imagelayer"/><g class="shapelayer"/></g><g class="infolayer"><g class="g-gtitle"><text class="gtitle" x="35" y="50" text-anchor="start" dy="0em" style="font-family: 'Open Sans', verdana, arial, sans-serif; font-size: 17px; fill: rgb(42, 63, 95); opacity: 1; font-weight: normal; white-space: pre;"><tspan class="line" dy="0em" x="35" y="50">Stargate</tspan><tspan class="line" dy="1.3em" x="35" y="50">​<tspan style="font-size:70%" dy="-0.6em">Cumulative Net Flows since Program Announcement, Until Program End + 30 Days - At Last Price</tspan><tspan dy="0.42em">​</tspan></tspan></text></g><g class="g-xtitle"><text class="xtitle" x="350" y="460.3" text-anchor="middle" style="font-family: 'Open Sans', verdana, arial, sans-serif; font-size: 14px; fill: rgb(42, 63, 95); opacity: 1; font-weight: normal; white-space: pre;">Day</text></g><g class="g-ytitle"><text class="ytitle" transform="rotate(-90,17.668750000000003,260)" x="17.668750000000003" y="260" text-anchor="middle" style="font-family: 'Open Sans', verdana, arial, sans-serif; font-size: 14px; fill: rgb(42, 63, 95); opacity: 1; font-weight: normal; white-space: pre;">Cumulative Net Flows (USD)</text></g></g></svg>