<svg class="main-svg" xmlns="http://www.w3.org/2000/svg" xmlns:xlink="http://www.w3.org/1999/xlink" width="700" height="500" style="" viewBox="0 0 700 500"><rect x="0" y="0" width="700" height="500" style="fill: rgb(255, 255, 255); fill-opacity: 1;"/><defs id="defs-f49762"><g class="clips"><clipPath id="clipf49762xyplot" class="plotclip"><rect width="540" height="320"/></clipPath><clipPath class="axesclip" id="clipf49762x"><rect x="80" y="0" width="540" height="500"/></clipPath><clipPath class="axesclip" id="clipf49762y"><rect x="0" y="100" width="700" height="320"/></clipPath><clipPath class="axesclip" id="clipf49762xy"><rect x="80" y="100" width="540" height="320"/></clipPath></g><g class="gradients"/><g class="patterns"/></defs><g class="bglayer"><rect class="bg" x="80" y="100" width="540" height="320" style="fill: rgb(229, 236, 246); fill-opacity: 1; stroke-width: 0;"/></g><g class="layer-below"><g class="imagelayer"/><g class="shapelayer"/></g><g class="cartesianlayer"><g class="subplot xy"><g class="layer-subplot"><g class="shapelayer"/><g class="imagelayer"/></g><g class="minor-gridlayer"><g class="x"/><g class="y"/></g><g class="gridlayer"><g class="x"><path class="xgrid crisp" transform="translate(164.1,0)" d="M0,100v320" style="stroke: rgb(255, 255, 255); stroke-opacity: 1; stroke-width: 1px;"/><path class="xgrid crisp" transform="translate(294.66999999999996,0)" d="M0,100v320" style="stroke: rgb(255, 255, 255); stroke-opacity: 1; stroke-width: 1px;"/><path class="xgrid crisp" transform="translate(429.67,0)" d="M0,100v320" style="stroke: rgb(255, 255, 255); stroke-opacity: 1; stroke-width: 1px;"/><path class="xgrid crisp" transform="translate(564.6700000000001,0)" d="M0,100v320" style="stroke: rgb(255, 255, 255); stroke-opacity: 1; stroke-width: 1px;"/></g><g class="y"><path class="ygrid crisp" transform="translate(0,369.28)" d="M80,0h540" style="stroke: rgb(255, 255, 255); stroke-opacity: 1; stroke-width: 1px;"/><path class="ygrid crisp" transform="translate(0,318.56)" d="M80,0h540" style="stroke: rgb(255, 255, 255); stroke-opacity: 1; stroke-width: 1px;"/><path class="ygrid crisp" transform="translate(0,267.83000000000004)" d="M80,0h540" style="stroke: rgb(255, 255, 255); stroke-opacity: 1; stroke-width: 1px;"/><path class="ygrid crisp" transform="translate(0,217.11)" d="M80,0h540" style="stroke: rgb(255, 255, 255); stroke-opacity: 1; stroke-width: 1px;"/><path class="ygrid crisp" transform="translate(0,166.39)" d="M80,0h540" style="stroke: rgb(255, 255, 255); stroke-opacity: 1; stroke-width: 1px;"/><path class="ygrid crisp" transform="translate(0,115.67)" d="M80,0h540" style="stroke: rgb(255, 255, 255); stroke-opacity: 1; stroke-width: 1px;"/></g></g><g class="zerolinelayer"><path class="yzl zl crisp" transform="translate(0,420)" d="M80,0h540" style="stroke: rgb(255, 255, 255); stroke-opacity: 1; stroke-width: 2px;"/></g><path class="xlines-below"/><path class="ylines-below"/><g class="overlines-below"/><g class="xaxislayer-below"/><g class="yaxislayer-below"/><g class="overaxes-below"/><g class="plot" transform="translate(80,100)" clip-path="url(#clipf49762xyplot)"><g class="scatterlayer mlayer"><g class="trace scatter trace388be3" style="stroke-miterlimit: 2;"><g class="fills"><g><path class="js-fill" d="M540,320L0,320L0,320L307.62,320L309.84,56.28L312.05,58.31L314.26,56.63L316.48,55.54L318.69,52.07L323.11,42.68L325.33,38.17L331.97,34.39L334.18,30.51L336.39,23.67L338.61,22.92L340.82,21.34L343.03,17.33L345.25,16.27L347.46,16.37L349.67,17.32L351.89,16L354.1,18.68L356.31,23.59L358.52,29.66L360.74,27.78L362.95,32.69L365.16,35.34L369.59,40.38L371.8,43.06L374.02,49.89L376.23,53.18L378.44,54.44L380.66,54.69L385.08,55.76L387.3,58.34L389.51,58.91L391.72,58.15L396.15,58.93L398.36,59.2L400.57,56.91L402.79,62.95L407.21,62.74L409.43,64.15L411.64,66.85L413.85,67.55L416.07,68.68L418.28,71.88L420.49,74.16L422.7,75.08L427.13,72.62L429.34,75.53L431.56,77.66L433.77,68.67L435.98,66.66L438.2,67.08L440.41,74.33L442.62,74.54L444.84,74.45L447.05,73.11L449.26,78.53L451.48,81.95L453.69,90.13L455.9,89.18L458.11,90.38L460.33,90.59L462.54,93.8L464.75,94.68L466.97,97.99L469.18,109.27L471.39,110.43L473.61,117.5L475.82,114.06L478.03,117.82L480.25,128.19L482.46,103.9L484.67,92.65L486.89,85.85L489.1,80.35L491.31,80.36L493.52,75.34L495.74,74.13L497.95,74.11L500.16,77.95L502.38,76.5L504.59,79.11L506.8,77.9L509.02,79.92L511.23,79.92L513.44,78.48L515.66,79.5L517.87,77.74L520.08,75.41L522.3,74.24L528.93,60.69L531.15,59.86L533.36,55.02L535.57,52.49L537.79,52.3L540,49.68" style="fill: rgb(99, 110, 250); fill-opacity: 0.5; stroke-width: 0;"/></g></g><g class="errorbars"/><g class="lines"><path class="js-line" d="M0,320L307.62,320L309.84,56.28L312.05,58.31L314.26,56.63L316.48,55.54L318.69,52.07L323.11,42.68L325.33,38.17L331.97,34.39L334.18,30.51L336.39,23.67L338.61,22.92L340.82,21.34L343.03,17.33L345.25,16.27L347.46,16.37L349.67,17.32L351.89,16L354.1,18.68L356.31,23.59L358.52,29.66L360.74,27.78L362.95,32.69L365.16,35.34L369.59,40.38L371.8,43.06L374.02,49.89L376.23,53.18L378.44,54.44L380.66,54.69L385.08,55.76L387.3,58.34L389.51,58.91L391.72,58.15L396.15,58.93L398.36,59.2L400.57,56.91L402.79,62.95L407.21,62.74L409.43,64.15L411.64,66.85L413.85,67.55L416.07,68.68L418.28,71.88L420.49,74.16L422.7,75.08L427.13,72.62L429.34,75.53L431.56,77.66L433.77,68.67L435.98,66.66L438.2,67.08L440.41,74.33L442.62,74.54L444.84,74.45L447.05,73.11L449.26,78.53L451.48,81.95L453.69,90.13L455.9,89.18L458.11,90.38L460.33,90.59L462.54,93.8L464.75,94.68L466.97,97.99L469.18,109.27L471.39,110.43L473.61,117.5L475.82,114.06L478.03,117.82L480.25,128.19L482.46,103.9L484.67,92.65L486.89,85.85L489.1,80.35L491.31,80.36L493.52,75.34L495.74,74.13L497.95,74.11L500.16,77.95L502.38,76.5L504.59,79.11L506.8,77.9L509.02,79.92L511.23,79.92L513.44,78.48L515.66,79.5L517.87,77.74L520.08,75.41L522.3,74.24L528.93,60.69L531.15,59.86L533.36,55.02L535.57,52.49L537.79,52.3L540,49.68" style="vector-effect: none; fill: none; stroke: rgb(99, 110, 250); stroke-opacity: 1; stroke-width: 2px; opacity: 1;"/></g><g class="points"/><g class="text"/></g></g></g><g class="overplot"/><path class="xlines-above crisp" d="M0,0" style="fill: none;"/><path class="ylines-above crisp" d="M0,0" style="fill: none;"/><g class="overlines-above"/><g class="xaxislayer-above"><g class="xtick"><text text-anchor="middle" x="0" y="433" transform="translate(164.1,0)" style="font-family: 'Open Sans', verdana, arial, sans-serif; font-size: 12px; fill: rgb(42, 63, 95); fill-opacity: 1; white-space: pre; opacity: 1;">Jan 2023</text></g><g class="xtick"><text text-anchor="middle" x="0" y="433" style="font-family: 'Open Sans', verdana, arial, sans-serif; font-size: 12px; fill: rgb(42, 63, 95); fill-opacity: 1; white-space: pre; opacity: 1;" transform="translate(294.66999999999996,0)">Mar 2023</text></g><g class="xtick"><text text-anchor="middle" x="0" y="433" style="font-family: 'Open Sans', verdana, arial, sans-serif; font-size: 12px; fill: rgb(42, 63, 95); fill-opacity: 1; white-space: pre; opacity: 1;" transform="translate(429.67,0)">May 2023</text></g><g class="xtick"><text text-anchor="middle" x="0" y="433" style="font-family: 'Open Sans', verdana, arial, sans-serif; font-size: 12px; fill: rgb(42, 63, 95); fill-opacity: 1; white-space: pre; opacity: 1;" transform="translate(564.6700000000001,0)">Jul 2023</text></g></g><g class="yaxislayer-above"><g class="ytick"><text text-anchor="end" x="79" y="4.199999999999999" transform="translate(0,420)" style="font-family: 'Open Sans', verdana, arial, sans-serif; font-size: 12px; fill: rgb(42, 63, 95); fill-opacity: 1; white-space: pre; opacity: 1;">$0</text></g><g class="ytick"><text text-anchor="end" x="79" y="4.199999999999999" style="font-family: 'Open Sans', verdana, arial, sans-serif; font-size: 12px; fill: rgb(42, 63, 95); fill-opacity: 1; white-space: pre; opacity: 1;" transform="translate(0,369.28)">$50M</text></g><g class="ytick"><text text-anchor="end" x="79" y="4.199999999999999" style="font-family: 'Open Sans', verdana, arial, sans-serif; font-size: 12px; fill: rgb(42, 63, 95); fill-opacity: 1; white-space: pre; opacity: 1;" transform="translate(0,318.56)">$100M</text></g><g class="ytick"><text text-anchor="end" x="79" y="4.199999999999999" style="font-family: 'Open Sans', verdana, arial, sans-serif; font-size: 12px; fill: rgb(42, 63, 95); fill-opacity: 1; white-space: pre; opacity: 1;" transform="translate(0,267.83000000000004)">$150M</text></g><g class="ytick"><text text-anchor="end" x="79" y="4.199999999999999" style="font-family: 'Open Sans', verdana, arial, sans-serif; font-size: 12px; fill: rgb(42, 63, 95); fill-opacity: 1; white-space: pre; opacity: 1;" transform="translate(0,217.11)">$200M</text></g><g class="ytick"><text text-anchor="end" x="79" y="4.199999999999999" style="font-family: 'Open Sans', verdana, arial, sans-serif; font-size: 12px; fill: rgb(42, 63, 95); fill-opacity: 1; white-space: pre; opacity: 1;" transform="translate(0,166.39)">$250M</text></g><g class="ytick"><text text-anchor="end" x="79" y="4.199999999999999" style="font-family: 'Open Sans', verdana, arial, sans-serif; font-size: 12px; fill: rgb(42, 63, 95); fill-opacity: 1; white-space: pre; opacity: 1;" transform="translate(0,115.67)">$300M</text></g></g><g class="overaxes-above"/></g></g><g class="polarlayer"/><g class="smithlayer"/><g class="ternarylayer"/><g class="geolayer"/><g class="funnelarealayer"/><g class="pielayer"/><g class="iciclelayer"/><g class="treemaplayer"/><g class="sunburstlayer"/><g class="glimages"/><defs id="topdefs-f49762"><g class="clips"/></defs><g class="layer-above"><g class="imagelayer"/><g class="shapelayer"/></g><g class="infolayer"><g class="g-gtitle"><text class="gtitle" x="35" y="50" text-anchor="start" dy="0em" style="font-family: 'Open Sans', verdana, arial, sans-serif; font-size: 17px; fill: rgb(42, 63, 95); opacity: 1; font-weight: normal; white-space: pre;"><tspan class="line" dy="0em" x="35" y="50">Velodrome - Velodrome #2 (Tour de OP)</tspan><tspan class="line" dy="1.3em" x="35" y="50">​<tspan style="font-size:70%" dy="-0.6em">Cumulative Net Flows since Program Announcement, Until Program End + 30 Days - At Last Price</tspan><tspan dy="0.42em">​</tspan></tspan></text></g><g class="g-xtitle"><text class="xtitle" x="350" y="460.3" text-anchor="middle" style="font-family: 'Open Sans', verdana, arial, sans-serif; font-size: 14px; fill: rgb(42, 63, 95); opacity: 1; font-weight: normal; white-space: pre;">Day</text></g><g class="g-ytitle"><text class="ytitle" transform="rotate(-90,17.996875000000003,260)" x="17.996875000000003" y="260" text-anchor="middle" style="font-family: 'Open Sans', verdana, arial, sans-serif; font-size: 14px; fill: rgb(42, 63, 95); opacity: 1; font-weight: normal; white-space: pre;">Cumulative Net Flows (USD)</text></g></g></svg>