<svg class="main-svg" xmlns="http://www.w3.org/2000/svg" xmlns:xlink="http://www.w3.org/1999/xlink" width="700" height="500" style="" viewBox="0 0 700 500"><rect x="0" y="0" width="700" height="500" style="fill: rgb(255, 255, 255); fill-opacity: 1;"/><defs id="defs-3acd48"><g class="clips"><clipPath id="clip3acd48xyplot" class="plotclip"><rect width="540" height="320"/></clipPath><clipPath class="axesclip" id="clip3acd48x"><rect x="80" y="0" width="540" height="500"/></clipPath><clipPath class="axesclip" id="clip3acd48y"><rect x="0" y="100" width="700" height="320"/></clipPath><clipPath class="axesclip" id="clip3acd48xy"><rect x="80" y="100" width="540" height="320"/></clipPath></g><g class="gradients"/><g class="patterns"/></defs><g class="bglayer"><rect class="bg" x="80" y="100" width="540" height="320" style="fill: rgb(229, 236, 246); fill-opacity: 1; stroke-width: 0;"/></g><g class="layer-below"><g class="imagelayer"/><g class="shapelayer"/></g><g class="cartesianlayer"><g class="subplot xy"><g class="layer-subplot"><g class="shapelayer"/><g class="imagelayer"/></g><g class="minor-gridlayer"><g class="x"/><g class="y"/></g><g class="gridlayer"><g class="x"><path class="xgrid crisp" transform="translate(171.53,0)" d="M0,100v320" style="stroke: rgb(255, 255, 255); stroke-opacity: 1; stroke-width: 1px;"/><path class="xgrid crisp" transform="translate(311.1,0)" d="M0,100v320" style="stroke: rgb(255, 255, 255); stroke-opacity: 1; stroke-width: 1px;"/><path class="xgrid crisp" transform="translate(446.1,0)" d="M0,100v320" style="stroke: rgb(255, 255, 255); stroke-opacity: 1; stroke-width: 1px;"/><path class="xgrid crisp" transform="translate(585.6800000000001,0)" d="M0,100v320" style="stroke: rgb(255, 255, 255); stroke-opacity: 1; stroke-width: 1px;"/></g><g class="y"><path class="ygrid crisp" transform="translate(0,364.92)" d="M80,0h540" style="stroke: rgb(255, 255, 255); stroke-opacity: 1; stroke-width: 1px;"/><path class="ygrid crisp" transform="translate(0,309.85)" d="M80,0h540" style="stroke: rgb(255, 255, 255); stroke-opacity: 1; stroke-width: 1px;"/><path class="ygrid crisp" transform="translate(0,254.77)" d="M80,0h540" style="stroke: rgb(255, 255, 255); stroke-opacity: 1; stroke-width: 1px;"/><path class="ygrid crisp" transform="translate(0,199.69)" d="M80,0h540" style="stroke: rgb(255, 255, 255); stroke-opacity: 1; stroke-width: 1px;"/><path class="ygrid crisp" transform="translate(0,144.61)" d="M80,0h540" style="stroke: rgb(255, 255, 255); stroke-opacity: 1; stroke-width: 1px;"/></g></g><g class="zerolinelayer"><path class="yzl zl crisp" transform="translate(0,420)" d="M80,0h540" style="stroke: rgb(255, 255, 255); stroke-opacity: 1; stroke-width: 2px;"/></g><path class="xlines-below"/><path class="ylines-below"/><g class="overlines-below"/><g class="xaxislayer-below"/><g class="yaxislayer-below"/><g class="overaxes-below"/><g class="plot" transform="translate(80,100)" clip-path="url(#clip3acd48xyplot)"><g class="scatterlayer mlayer"><g class="trace scatter trace0312df" style="stroke-miterlimit: 2;"><g class="fills"><g><path class="js-fill" d="M540,320L0,320L0,314.98L2.29,308.1L4.58,309.53L6.86,307.77L9.15,316.74L11.44,310.42L13.73,308.69L16.02,308.78L18.31,302.97L20.59,315.05L22.88,305.15L25.17,298.51L27.46,299.88L29.75,303.65L32.03,297.78L34.32,298.14L36.61,293.72L38.9,293.83L41.19,297.43L43.47,295.16L45.76,295.58L48.05,300.44L50.34,297.69L52.63,297.33L54.92,299.73L57.2,299.64L59.49,297.11L61.78,293.62L64.07,292.66L66.36,287.8L68.64,288.61L70.93,287.26L73.22,289.33L75.51,290.46L77.8,280.99L80.08,237.86L82.37,160.02L84.66,142.23L86.95,140.99L91.53,123.05L93.81,125.58L96.1,104.64L98.39,106.73L100.68,108.19L102.97,114.34L105.25,116.8L107.54,110.35L112.12,151.72L114.41,144.58L116.7,148.56L118.98,150.28L121.27,153.8L123.56,153.59L125.85,149.12L128.14,147.54L130.42,149.3L132.71,149.08L135,156.17L137.29,148.01L139.58,145.07L141.86,145.24L144.15,147.43L146.44,145.59L148.73,145.15L151.02,151.29L153.31,160.65L155.59,153.8L157.88,127.29L160.17,125.01L162.46,127.75L164.75,136.03L167.03,137.45L169.32,140.18L171.61,136.09L173.9,136.23L178.47,137.35L180.76,144.99L183.05,144.17L185.34,144.55L187.63,144.84L189.92,136.03L192.2,138.64L194.49,130.28L196.78,130.87L199.07,114.05L201.36,120.81L203.64,118.88L205.93,132.47L208.22,127.54L210.51,136.55L212.8,134.69L217.37,137.8L219.66,136.17L221.95,143.51L224.24,145.76L226.53,146.6L228.81,146.58L231.1,147.46L233.39,144.33L235.68,142.55L237.97,134.16L240.25,146.71L242.54,153.26L244.83,157.45L247.12,158.43L249.41,155.23L251.7,153.58L253.98,164.75L256.27,168.86L258.56,166.62L260.85,173.46L263.14,173.56L265.42,189.36L267.71,202L270,225.26L272.29,227.68L274.58,224.19L276.86,226.65L279.15,218.38L281.44,222.02L283.73,217.75L286.02,223.34L288.31,215.85L290.59,213.38L292.88,214.82L295.17,212.34L297.46,208.12L299.75,202.3L302.03,200.43L304.32,206.28L306.61,202.7L313.47,194.2L315.76,191.13L318.05,198.22L320.34,198.25L327.2,184.57L329.49,185.01L331.78,182.07L334.07,184.74L336.36,195.99L338.64,194.74L340.93,191.3L343.22,203.13L345.51,191.98L347.8,192.89L350.09,187.87L352.37,195.71L359.24,153.52L361.53,159.14L363.81,144.66L366.1,140L368.39,141.75L370.68,131.96L372.97,134.63L375.25,123.92L379.83,105.06L382.12,102.31L384.41,110.34L386.7,91.21L388.98,99.3L391.27,118.31L393.56,124.36L395.85,103.91L398.14,124.41L400.42,120.25L402.71,119.83L405,118.62L407.29,118.59L409.58,95L414.15,86.14L416.44,58.27L418.73,77.02L421.02,73.58L423.31,66.42L425.59,56.77L427.88,58.59L430.17,47.86L432.46,58.7L434.75,56.6L437.03,36.51L439.32,34.76L441.61,32.62L443.9,16L446.19,24.8L448.48,37.16L450.76,41.97L453.05,39.9L455.34,89.58L457.63,60.14L459.92,61.77L462.2,53L464.49,50.24L466.78,44.4L469.07,51.19L471.36,46.81L473.64,56.74L475.93,42.19L478.22,41.6L480.51,40.01L482.8,33.83L485.09,32.76L487.37,34.4L489.66,23.98L491.95,39.72L494.24,35.36L496.53,26.1L498.81,21.88L501.1,17.91L503.39,24.84L505.68,30.39L507.97,25.73L510.25,25.66L512.54,35.07L514.83,26.67L517.12,36.21L519.41,32.2L521.7,35.85L523.98,33.47L526.27,27.1L528.56,28.1L530.85,34.66L533.14,49.9L535.42,38.38L537.71,36.63L540,56.38" style="fill: rgb(99, 110, 250); fill-opacity: 0.5; stroke-width: 0;"/></g></g><g class="errorbars"/><g class="lines"><path class="js-line" d="M0,314.98L2.29,308.1L4.58,309.53L6.86,307.77L9.15,316.74L11.44,310.42L13.73,308.69L16.02,308.78L18.31,302.97L20.59,315.05L22.88,305.15L25.17,298.51L27.46,299.88L29.75,303.65L32.03,297.78L34.32,298.14L36.61,293.72L38.9,293.83L41.19,297.43L43.47,295.16L45.76,295.58L48.05,300.44L50.34,297.69L52.63,297.33L54.92,299.73L57.2,299.64L59.49,297.11L61.78,293.62L64.07,292.66L66.36,287.8L68.64,288.61L70.93,287.26L73.22,289.33L75.51,290.46L77.8,280.99L80.08,237.86L82.37,160.02L84.66,142.23L86.95,140.99L91.53,123.05L93.81,125.58L96.1,104.64L98.39,106.73L100.68,108.19L102.97,114.34L105.25,116.8L107.54,110.35L112.12,151.72L114.41,144.58L116.7,148.56L118.98,150.28L121.27,153.8L123.56,153.59L125.85,149.12L128.14,147.54L130.42,149.3L132.71,149.08L135,156.17L137.29,148.01L139.58,145.07L141.86,145.24L144.15,147.43L146.44,145.59L148.73,145.15L151.02,151.29L153.31,160.65L155.59,153.8L157.88,127.29L160.17,125.01L162.46,127.75L164.75,136.03L167.03,137.45L169.32,140.18L171.61,136.09L173.9,136.23L178.47,137.35L180.76,144.99L183.05,144.17L185.34,144.55L187.63,144.84L189.92,136.03L192.2,138.64L194.49,130.28L196.78,130.87L199.07,114.05L201.36,120.81L203.64,118.88L205.93,132.47L208.22,127.54L210.51,136.55L212.8,134.69L217.37,137.8L219.66,136.17L221.95,143.51L224.24,145.76L226.53,146.6L228.81,146.58L231.1,147.46L233.39,144.33L235.68,142.55L237.97,134.16L240.25,146.71L242.54,153.26L244.83,157.45L247.12,158.43L249.41,155.23L251.7,153.58L253.98,164.75L256.27,168.86L258.56,166.62L260.85,173.46L263.14,173.56L265.42,189.36L267.71,202L270,225.26L272.29,227.68L274.58,224.19L276.86,226.65L279.15,218.38L281.44,222.02L283.73,217.75L286.02,223.34L288.31,215.85L290.59,213.38L292.88,214.82L295.17,212.34L297.46,208.12L299.75,202.3L302.03,200.43L304.32,206.28L306.61,202.7L313.47,194.2L315.76,191.13L318.05,198.22L320.34,198.25L327.2,184.57L329.49,185.01L331.78,182.07L334.07,184.74L336.36,195.99L338.64,194.74L340.93,191.3L343.22,203.13L345.51,191.98L347.8,192.89L350.09,187.87L352.37,195.71L359.24,153.52L361.53,159.14L363.81,144.66L366.1,140L368.39,141.75L370.68,131.96L372.97,134.63L375.25,123.92L379.83,105.06L382.12,102.31L384.41,110.34L386.7,91.21L388.98,99.3L391.27,118.31L393.56,124.36L395.85,103.91L398.14,124.41L400.42,120.25L402.71,119.83L405,118.62L407.29,118.59L409.58,95L414.15,86.14L416.44,58.27L418.73,77.02L421.02,73.58L423.31,66.42L425.59,56.77L427.88,58.59L430.17,47.86L432.46,58.7L434.75,56.6L437.03,36.51L439.32,34.76L441.61,32.62L443.9,16L446.19,24.8L448.48,37.16L450.76,41.97L453.05,39.9L455.34,89.58L457.63,60.14L459.92,61.77L462.2,53L464.49,50.24L466.78,44.4L469.07,51.19L471.36,46.81L473.64,56.74L475.93,42.19L478.22,41.6L480.51,40.01L482.8,33.83L485.09,32.76L487.37,34.4L489.66,23.98L491.95,39.72L494.24,35.36L496.53,26.1L498.81,21.88L501.1,17.91L503.39,24.84L505.68,30.39L507.97,25.73L510.25,25.66L512.54,35.07L514.83,26.67L517.12,36.21L519.41,32.2L521.7,35.85L523.98,33.47L526.27,27.1L528.56,28.1L530.85,34.66L533.14,49.9L535.42,38.38L537.71,36.63L540,56.38" style="vector-effect: none; fill: none; stroke: rgb(99, 110, 250); stroke-opacity: 1; stroke-width: 2px; opacity: 1;"/></g><g class="points"/><g class="text"/></g></g></g><g class="overplot"/><path class="xlines-above crisp" d="M0,0" style="fill: none;"/><path class="ylines-above crisp" d="M0,0" style="fill: none;"/><g class="overlines-above"/><g class="xaxislayer-above"><g class="xtick"><text text-anchor="middle" x="0" y="433" transform="translate(171.53,0)" style="font-family: 'Open Sans', verdana, arial, sans-serif; font-size: 12px; fill: rgb(42, 63, 95); fill-opacity: 1; white-space: pre; opacity: 1;">Nov 2022</text></g><g class="xtick"><text text-anchor="middle" x="0" y="433" style="font-family: 'Open Sans', verdana, arial, sans-serif; font-size: 12px; fill: rgb(42, 63, 95); fill-opacity: 1; white-space: pre; opacity: 1;" transform="translate(311.1,0)">Jan 2023</text></g><g class="xtick"><text text-anchor="middle" x="0" y="433" style="font-family: 'Open Sans', verdana, arial, sans-serif; font-size: 12px; fill: rgb(42, 63, 95); fill-opacity: 1; white-space: pre; opacity: 1;" transform="translate(446.1,0)">Mar 2023</text></g><g class="xtick"><text text-anchor="middle" x="0" y="433" style="font-family: 'Open Sans', verdana, arial, sans-serif; font-size: 12px; fill: rgb(42, 63, 95); fill-opacity: 1; white-space: pre; opacity: 1;" transform="translate(585.6800000000001,0)">May 2023</text></g></g><g class="yaxislayer-above"><g class="ytick"><text text-anchor="end" x="79" y="4.199999999999999" transform="translate(0,420)" style="font-family: 'Open Sans', verdana, arial, sans-serif; font-size: 12px; fill: rgb(42, 63, 95); fill-opacity: 1; white-space: pre; opacity: 1;">$0</text></g><g class="ytick"><text text-anchor="end" x="79" y="4.199999999999999" style="font-family: 'Open Sans', verdana, arial, sans-serif; font-size: 12px; fill: rgb(42, 63, 95); fill-opacity: 1; white-space: pre; opacity: 1;" transform="translate(0,364.92)">$2M</text></g><g class="ytick"><text text-anchor="end" x="79" y="4.199999999999999" style="font-family: 'Open Sans', verdana, arial, sans-serif; font-size: 12px; fill: rgb(42, 63, 95); fill-opacity: 1; white-space: pre; opacity: 1;" transform="translate(0,309.85)">$4M</text></g><g class="ytick"><text text-anchor="end" x="79" y="4.199999999999999" style="font-family: 'Open Sans', verdana, arial, sans-serif; font-size: 12px; fill: rgb(42, 63, 95); fill-opacity: 1; white-space: pre; opacity: 1;" transform="translate(0,254.77)">$6M</text></g><g class="ytick"><text text-anchor="end" x="79" y="4.199999999999999" style="font-family: 'Open Sans', verdana, arial, sans-serif; font-size: 12px; fill: rgb(42, 63, 95); fill-opacity: 1; white-space: pre; opacity: 1;" transform="translate(0,199.69)">$8M</text></g><g class="ytick"><text text-anchor="end" x="79" y="4.199999999999999" style="font-family: 'Open Sans', verdana, arial, sans-serif; font-size: 12px; fill: rgb(42, 63, 95); fill-opacity: 1; white-space: pre; opacity: 1;" transform="translate(0,144.61)">$10M</text></g></g><g class="overaxes-above"/></g></g><g class="polarlayer"/><g class="smithlayer"/><g class="ternarylayer"/><g class="geolayer"/><g class="funnelarealayer"/><g class="pielayer"/><g class="iciclelayer"/><g class="treemaplayer"/><g class="sunburstlayer"/><g class="glimages"/><defs id="topdefs-3acd48"><g class="clips"/></defs><g class="layer-above"><g class="imagelayer"/><g class="shapelayer"/></g><g class="infolayer"><g class="g-gtitle"><text class="gtitle" x="35" y="50" text-anchor="start" dy="0em" style="font-family: 'Open Sans', verdana, arial, sans-serif; font-size: 17px; fill: rgb(42, 63, 95); opacity: 1; font-weight: normal; white-space: pre;"><tspan class="line" dy="0em" x="35" y="50">Hop Protocol</tspan><tspan class="line" dy="1.3em" x="35" y="50">​<tspan style="font-size:70%" dy="-0.6em">Cumulative Net Flows since Program Announcement, Until Program End + 30 Days - At Last Price</tspan><tspan dy="0.42em">​</tspan></tspan></text></g><g class="g-xtitle"><text class="xtitle" x="350" y="460.3" text-anchor="middle" style="font-family: 'Open Sans', verdana, arial, sans-serif; font-size: 14px; fill: rgb(42, 63, 95); opacity: 1; font-weight: normal; white-space: pre;">Day</text></g><g class="g-ytitle"><text class="ytitle" transform="rotate(-90,24.668750000000003,260)" x="24.668750000000003" y="260" text-anchor="middle" style="font-family: 'Open Sans', verdana, arial, sans-serif; font-size: 14px; fill: rgb(42, 63, 95); opacity: 1; font-weight: normal; white-space: pre;">Cumulative Net Flows (USD)</text></g></g></svg>