<svg class="main-svg" xmlns="http://www.w3.org/2000/svg" xmlns:xlink="http://www.w3.org/1999/xlink" width="700" height="500" style="" viewBox="0 0 700 500"><rect x="0" y="0" width="700" height="500" style="fill: rgb(255, 255, 255); fill-opacity: 1;"/><defs id="defs-66d50d"><g class="clips"><clipPath id="clip66d50dxyplot" class="plotclip"><rect width="540" height="320"/></clipPath><clipPath class="axesclip" id="clip66d50dx"><rect x="80" y="0" width="540" height="500"/></clipPath><clipPath class="axesclip" id="clip66d50dy"><rect x="0" y="100" width="700" height="320"/></clipPath><clipPath class="axesclip" id="clip66d50dxy"><rect x="80" y="100" width="540" height="320"/></clipPath></g><g class="gradients"/><g class="patterns"/></defs><g class="bglayer"><rect class="bg" x="80" y="100" width="540" height="320" style="fill: rgb(229, 236, 246); fill-opacity: 1; stroke-width: 0;"/></g><g class="layer-below"><g class="imagelayer"/><g class="shapelayer"/></g><g class="cartesianlayer"><g class="subplot xy"><g class="layer-subplot"><g class="shapelayer"/><g class="imagelayer"/></g><g class="minor-gridlayer"><g class="x"/><g class="y"/></g><g class="gridlayer"><g class="x"><path class="xgrid crisp" transform="translate(134.61,0)" d="M0,100v320" style="stroke: rgb(255, 255, 255); stroke-opacity: 1; stroke-width: 1px;"/><path class="xgrid crisp" transform="translate(257.98,0)" d="M0,100v320" style="stroke: rgb(255, 255, 255); stroke-opacity: 1; stroke-width: 1px;"/><path class="xgrid crisp" transform="translate(381.35,0)" d="M0,100v320" style="stroke: rgb(255, 255, 255); stroke-opacity: 1; stroke-width: 1px;"/><path class="xgrid crisp" transform="translate(500.67,0)" d="M0,100v320" style="stroke: rgb(255, 255, 255); stroke-opacity: 1; stroke-width: 1px;"/></g><g class="y"><path class="ygrid crisp" transform="translate(0,329.43)" d="M80,0h540" style="stroke: rgb(255, 255, 255); stroke-opacity: 1; stroke-width: 1px;"/><path class="ygrid crisp" transform="translate(0,270.48)" d="M80,0h540" style="stroke: rgb(255, 255, 255); stroke-opacity: 1; stroke-width: 1px;"/><path class="ygrid crisp" transform="translate(0,211.53)" d="M80,0h540" style="stroke: rgb(255, 255, 255); stroke-opacity: 1; stroke-width: 1px;"/><path class="ygrid crisp" transform="translate(0,152.57999999999998)" d="M80,0h540" style="stroke: rgb(255, 255, 255); stroke-opacity: 1; stroke-width: 1px;"/></g></g><g class="zerolinelayer"><path class="yzl zl crisp" transform="translate(0,388.38)" d="M80,0h540" style="stroke: rgb(255, 255, 255); stroke-opacity: 1; stroke-width: 2px;"/></g><path class="xlines-below"/><path class="ylines-below"/><g class="overlines-below"/><g class="xaxislayer-below"/><g class="yaxislayer-below"/><g class="overaxes-below"/><g class="plot" transform="translate(80,100)" clip-path="url(#clip66d50dxyplot)"><g class="scatterlayer mlayer"><g class="trace scatter tracec163c6" style="stroke-miterlimit: 2;"><g class="fills"><g><path class="js-fill" d="M540,288.38L0,288.38L0,299.23L2.02,231.88L4.04,241.25L6.07,244.22L8.09,250.57L10.11,252.32L12.13,251.29L14.16,245.37L16.18,233.11L18.2,249.39L20.22,244.36L22.25,242.41L24.27,236.72L28.31,240.82L30.34,231.06L32.36,232.12L34.38,229.89L36.4,225.75L38.43,219.41L42.47,227.04L44.49,225.75L48.54,222.59L50.56,215.44L52.58,208.53L54.61,205.31L56.63,191.4L58.65,190.96L62.7,178.55L64.72,198.19L68.76,209.23L70.79,186.65L72.81,181.26L74.83,179.77L76.85,176.45L78.88,167.97L80.9,161.66L82.92,183.4L84.94,182.8L86.97,181.15L88.99,178.85L91.01,179.11L93.03,176.04L95.06,180.77L97.08,200.26L99.1,196.3L101.12,196.24L103.15,202.92L105.17,204.65L107.19,194.86L109.21,188.13L111.24,184.15L113.26,191.23L115.28,192.96L117.3,192.55L119.33,185.58L123.37,197.45L125.39,186.28L127.42,177.32L129.44,161.18L131.46,156.29L133.48,156.46L135.51,152.83L137.53,109.6L139.55,101.84L141.57,100.28L143.6,102.01L145.62,102.61L147.64,102.66L149.66,104.81L151.69,98.15L153.71,97.01L155.73,97.55L157.75,96.28L159.78,97.55L161.8,97.19L163.82,95.67L165.84,106.2L167.87,103.1L169.89,103.04L171.91,99.81L173.93,99.82L175.96,96.03L177.98,73.87L182.02,65.75L184.04,41.76L186.07,32.93L188.09,16L194.16,38.26L196.18,55.51L198.2,226.1L200.22,290.17L202.25,301.7L204.27,293.27L206.29,297.05L208.31,304L210.34,291.29L212.36,296.5L216.4,291.56L218.43,296.04L220.45,297.75L222.47,288.16L224.49,293.6L226.52,291.51L228.54,285.39L230.56,289.4L232.58,288.36L234.61,290.25L236.63,283.14L238.65,271.27L242.7,266.41L244.72,264.43L246.74,265.36L248.76,260.57L250.79,259.99L252.81,255.25L254.83,251.72L256.85,250.34L258.88,250.29L260.9,248.65L264.94,258.77L266.97,258.25L268.99,256.25L271.01,257.68L273.03,272.62L275.06,267.13L277.08,268.74L279.1,255.35L281.12,243.88L283.15,238.8L285.17,237.86L287.19,237.87L291.24,240.2L293.26,242.26L297.3,241.33L299.33,236.82L301.35,243.17L303.37,242.3L305.39,234.5L307.42,234.81L309.44,231.1L311.46,233.73L313.48,238.32L315.51,247.16L317.53,249.21L319.55,249.89L321.57,249.79L323.6,253.32L325.62,251.09L327.64,257.76L331.69,260.77L333.71,255.98L335.73,242.63L337.75,237.54L341.8,240.26L343.82,237.89L345.84,230.55L347.87,230.76L349.89,228.92L351.91,232.83L353.93,235.31L355.96,236.52L357.98,235.85L360,228.88L362.02,219.4L364.04,188.82L366.07,194.83L368.09,195.68L370.11,191.87L372.13,189.98L374.16,186.53L376.18,191.1L378.2,199.52L380.22,193.48L382.25,199.19L384.27,191.28L388.31,186.75L390.34,172.71L392.36,169.86L394.38,173.31L396.4,197.12L398.43,189.43L402.47,197.92L404.49,197.94L406.52,195.66L408.54,210.05L410.56,212.32L412.58,224.11L414.61,222.92L416.63,223.52L418.65,217.57L420.67,221.55L422.7,222.33L424.72,211.11L426.74,207.31L428.76,197.91L430.79,202.54L432.81,202.91L436.85,201.07L438.88,199.37L440.9,164.17L442.92,156.22L446.97,103.21L448.99,88.51L453.03,62.22L455.06,59.15L457.08,94.71L459.1,95.1L461.12,102.11L463.15,99.48L465.17,98.78L467.19,91.02L469.21,124.94L471.24,128.84L473.26,137.86L475.28,150.84L477.3,164.72L479.33,160.75L481.35,162.11L483.37,158.61L485.39,159.71L487.42,162.46L489.44,170.74L491.46,175.02L493.48,171.36L495.51,165.93L497.53,166.95L499.55,174.32L501.57,162.8L503.6,169.97L505.62,144.62L507.64,130.41L509.66,117.3L511.69,110.61L513.71,106.63L515.73,96L517.75,99.22L519.78,99.99L521.8,106.6L523.82,116.6L527.87,128.68L529.89,132.12L531.91,132.07L533.93,134.92L535.96,135.93L537.98,137.97L540,132.15" style="fill: rgb(99, 110, 250); fill-opacity: 0.5; stroke-width: 0;"/></g></g><g class="errorbars"/><g class="lines"><path class="js-line" d="M0,299.23L2.02,231.88L4.04,241.25L6.07,244.22L8.09,250.57L10.11,252.32L12.13,251.29L14.16,245.37L16.18,233.11L18.2,249.39L20.22,244.36L22.25,242.41L24.27,236.72L28.31,240.82L30.34,231.06L32.36,232.12L34.38,229.89L36.4,225.75L38.43,219.41L42.47,227.04L44.49,225.75L48.54,222.59L50.56,215.44L52.58,208.53L54.61,205.31L56.63,191.4L58.65,190.96L62.7,178.55L64.72,198.19L68.76,209.23L70.79,186.65L72.81,181.26L74.83,179.77L76.85,176.45L78.88,167.97L80.9,161.66L82.92,183.4L84.94,182.8L86.97,181.15L88.99,178.85L91.01,179.11L93.03,176.04L95.06,180.77L97.08,200.26L99.1,196.3L101.12,196.24L103.15,202.92L105.17,204.65L107.19,194.86L109.21,188.13L111.24,184.15L113.26,191.23L115.28,192.96L117.3,192.55L119.33,185.58L123.37,197.45L125.39,186.28L127.42,177.32L129.44,161.18L131.46,156.29L133.48,156.46L135.51,152.83L137.53,109.6L139.55,101.84L141.57,100.28L143.6,102.01L145.62,102.61L147.64,102.66L149.66,104.81L151.69,98.15L153.71,97.01L155.73,97.55L157.75,96.28L159.78,97.55L161.8,97.19L163.82,95.67L165.84,106.2L167.87,103.1L169.89,103.04L171.91,99.81L173.93,99.82L175.96,96.03L177.98,73.87L182.02,65.75L184.04,41.76L186.07,32.93L188.09,16L194.16,38.26L196.18,55.51L198.2,226.1L200.22,290.17L202.25,301.7L204.27,293.27L206.29,297.05L208.31,304L210.34,291.29L212.36,296.5L216.4,291.56L218.43,296.04L220.45,297.75L222.47,288.16L224.49,293.6L226.52,291.51L228.54,285.39L230.56,289.4L232.58,288.36L234.61,290.25L236.63,283.14L238.65,271.27L242.7,266.41L244.72,264.43L246.74,265.36L248.76,260.57L250.79,259.99L252.81,255.25L254.83,251.72L256.85,250.34L258.88,250.29L260.9,248.65L264.94,258.77L266.97,258.25L268.99,256.25L271.01,257.68L273.03,272.62L275.06,267.13L277.08,268.74L279.1,255.35L281.12,243.88L283.15,238.8L285.17,237.86L287.19,237.87L291.24,240.2L293.26,242.26L297.3,241.33L299.33,236.82L301.35,243.17L303.37,242.3L305.39,234.5L307.42,234.81L309.44,231.1L311.46,233.73L313.48,238.32L315.51,247.16L317.53,249.21L319.55,249.89L321.57,249.79L323.6,253.32L325.62,251.09L327.64,257.76L331.69,260.77L333.71,255.98L335.73,242.63L337.75,237.54L341.8,240.26L343.82,237.89L345.84,230.55L347.87,230.76L349.89,228.92L351.91,232.83L353.93,235.31L355.96,236.52L357.98,235.85L360,228.88L362.02,219.4L364.04,188.82L366.07,194.83L368.09,195.68L370.11,191.87L372.13,189.98L374.16,186.53L376.18,191.1L378.2,199.52L380.22,193.48L382.25,199.19L384.27,191.28L388.31,186.75L390.34,172.71L392.36,169.86L394.38,173.31L396.4,197.12L398.43,189.43L402.47,197.92L404.49,197.94L406.52,195.66L408.54,210.05L410.56,212.32L412.58,224.11L414.61,222.92L416.63,223.52L418.65,217.57L420.67,221.55L422.7,222.33L424.72,211.11L426.74,207.31L428.76,197.91L430.79,202.54L432.81,202.91L436.85,201.07L438.88,199.37L440.9,164.17L442.92,156.22L446.97,103.21L448.99,88.51L453.03,62.22L455.06,59.15L457.08,94.71L459.1,95.1L461.12,102.11L463.15,99.48L465.17,98.78L467.19,91.02L469.21,124.94L471.24,128.84L473.26,137.86L475.28,150.84L477.3,164.72L479.33,160.75L481.35,162.11L483.37,158.61L485.39,159.71L487.42,162.46L489.44,170.74L491.46,175.02L493.48,171.36L495.51,165.93L497.53,166.95L499.55,174.32L501.57,162.8L503.6,169.97L505.62,144.62L507.64,130.41L509.66,117.3L511.69,110.61L513.71,106.63L515.73,96L517.75,99.22L519.78,99.99L521.8,106.6L523.82,116.6L527.87,128.68L529.89,132.12L531.91,132.07L533.93,134.92L535.96,135.93L537.98,137.97L540,132.15" style="vector-effect: non-scaling-stroke; fill: none; stroke: rgb(99, 110, 250); stroke-opacity: 1; stroke-width: 2px; opacity: 1;"/></g><g class="points"/><g class="text"/></g></g></g><g class="overplot"/><path class="xlines-above crisp" d="M0,0" style="fill: none;"/><path class="ylines-above crisp" d="M0,0" style="fill: none;"/><g class="overlines-above"/><g class="xaxislayer-above"><g class="xtick"><text text-anchor="middle" x="0" y="433" transform="translate(134.61,0)" style="font-family: 'Open Sans', verdana, arial, sans-serif; font-size: 12px; fill: rgb(42, 63, 95); fill-opacity: 1; white-space: pre; opacity: 1;">Sep 2022</text></g><g class="xtick"><text text-anchor="middle" x="0" y="433" style="font-family: 'Open Sans', verdana, arial, sans-serif; font-size: 12px; fill: rgb(42, 63, 95); fill-opacity: 1; white-space: pre; opacity: 1;" transform="translate(257.98,0)">Nov 2022</text></g><g class="xtick"><text text-anchor="middle" x="0" y="433" style="font-family: 'Open Sans', verdana, arial, sans-serif; font-size: 12px; fill: rgb(42, 63, 95); fill-opacity: 1; white-space: pre; opacity: 1;" transform="translate(381.35,0)">Jan 2023</text></g><g class="xtick"><text text-anchor="middle" x="0" y="433" style="font-family: 'Open Sans', verdana, arial, sans-serif; font-size: 12px; fill: rgb(42, 63, 95); fill-opacity: 1; white-space: pre; opacity: 1;" transform="translate(500.67,0)">Mar 2023</text></g></g><g class="yaxislayer-above"><g class="ytick"><text text-anchor="end" x="79" y="4.199999999999999" transform="translate(0,388.38)" style="font-family: 'Open Sans', verdana, arial, sans-serif; font-size: 12px; fill: rgb(42, 63, 95); fill-opacity: 1; white-space: pre; opacity: 1;">$0</text></g><g class="ytick"><text text-anchor="end" x="79" y="4.199999999999999" style="font-family: 'Open Sans', verdana, arial, sans-serif; font-size: 12px; fill: rgb(42, 63, 95); fill-opacity: 1; white-space: pre; opacity: 1;" transform="translate(0,329.43)">$10M</text></g><g class="ytick"><text text-anchor="end" x="79" y="4.199999999999999" style="font-family: 'Open Sans', verdana, arial, sans-serif; font-size: 12px; fill: rgb(42, 63, 95); fill-opacity: 1; white-space: pre; opacity: 1;" transform="translate(0,270.48)">$20M</text></g><g class="ytick"><text text-anchor="end" x="79" y="4.199999999999999" style="font-family: 'Open Sans', verdana, arial, sans-serif; font-size: 12px; fill: rgb(42, 63, 95); fill-opacity: 1; white-space: pre; opacity: 1;" transform="translate(0,211.53)">$30M</text></g><g class="ytick"><text text-anchor="end" x="79" y="4.199999999999999" style="font-family: 'Open Sans', verdana, arial, sans-serif; font-size: 12px; fill: rgb(42, 63, 95); fill-opacity: 1; white-space: pre; opacity: 1;" transform="translate(0,152.57999999999998)">$40M</text></g></g><g class="overaxes-above"/></g></g><g class="polarlayer"/><g class="smithlayer"/><g class="ternarylayer"/><g class="geolayer"/><g class="funnelarealayer"/><g class="pielayer"/><g class="iciclelayer"/><g class="treemaplayer"/><g class="sunburstlayer"/><g class="glimages"/><defs id="topdefs-66d50d"><g class="clips"/></defs><g class="layer-above"><g class="imagelayer"/><g class="shapelayer"/></g><g class="infolayer"><g class="g-gtitle"><text class="gtitle" x="35" y="50" text-anchor="start" dy="0em" style="font-family: 'Open Sans', verdana, arial, sans-serif; font-size: 17px; fill: rgb(42, 63, 95); opacity: 1; font-weight: normal; white-space: pre;"><tspan class="line" dy="0em" x="35" y="50">Stargate</tspan><tspan class="line" dy="1.3em" x="35" y="50">​<tspan style="font-size:70%" dy="-0.6em">Cumulative Net Flows since Program Announcement, Until Program End + 30 Days - At Last Price</tspan><tspan dy="0.42em">​</tspan></tspan></text></g><g class="g-xtitle"><text class="xtitle" x="350" y="460.3" text-anchor="middle" style="font-family: 'Open Sans', verdana, arial, sans-serif; font-size: 14px; fill: rgb(42, 63, 95); opacity: 1; font-weight: normal; white-space: pre;">Day</text></g><g class="g-ytitle"><text class="ytitle" transform="rotate(-90,21.200000000000003,260)" x="21.200000000000003" y="260" text-anchor="middle" style="font-family: 'Open Sans', verdana, arial, sans-serif; font-size: 14px; fill: rgb(42, 63, 95); opacity: 1; font-weight: normal; white-space: pre;">Cumulative Net Flows (USD)</text></g></g></svg>