<svg class="main-svg" xmlns="http://www.w3.org/2000/svg" xmlns:xlink="http://www.w3.org/1999/xlink" width="700" height="500" style="" viewBox="0 0 700 500"><rect x="0" y="0" width="700" height="500" style="fill: rgb(255, 255, 255); fill-opacity: 1;"/><defs id="defs-f31864"><g class="clips"><clipPath id="clipf31864xyplot" class="plotclip"><rect width="540" height="320"/></clipPath><clipPath class="axesclip" id="clipf31864x"><rect x="80" y="0" width="540" height="500"/></clipPath><clipPath class="axesclip" id="clipf31864y"><rect x="0" y="100" width="700" height="320"/></clipPath><clipPath class="axesclip" id="clipf31864xy"><rect x="80" y="100" width="540" height="320"/></clipPath></g><g class="gradients"/><g class="patterns"/></defs><g class="bglayer"><rect class="bg" x="80" y="100" width="540" height="320" style="fill: rgb(229, 236, 246); fill-opacity: 1; stroke-width: 0;"/></g><g class="layer-below"><g class="imagelayer"/><g class="shapelayer"/></g><g class="cartesianlayer"><g class="subplot xy"><g class="layer-subplot"><g class="shapelayer"/><g class="imagelayer"/></g><g class="minor-gridlayer"><g class="x"/><g class="y"/></g><g class="gridlayer"><g class="x"><path class="xgrid crisp" transform="translate(118.17,0)" d="M0,100v320" style="stroke: rgb(255, 255, 255); stroke-opacity: 1; stroke-width: 1px;"/><path class="xgrid crisp" transform="translate(204.4,0)" d="M0,100v320" style="stroke: rgb(255, 255, 255); stroke-opacity: 1; stroke-width: 1px;"/><path class="xgrid crisp" transform="translate(290.63,0)" d="M0,100v320" style="stroke: rgb(255, 255, 255); stroke-opacity: 1; stroke-width: 1px;"/><path class="xgrid crisp" transform="translate(374.03,0)" d="M0,100v320" style="stroke: rgb(255, 255, 255); stroke-opacity: 1; stroke-width: 1px;"/><path class="xgrid crisp" transform="translate(460.26,0)" d="M0,100v320" style="stroke: rgb(255, 255, 255); stroke-opacity: 1; stroke-width: 1px;"/><path class="xgrid crisp" transform="translate(546.49,0)" d="M0,100v320" style="stroke: rgb(255, 255, 255); stroke-opacity: 1; stroke-width: 1px;"/></g><g class="y"><path class="ygrid crisp" transform="translate(0,328.4)" d="M80,0h540" style="stroke: rgb(255, 255, 255); stroke-opacity: 1; stroke-width: 1px;"/><path class="ygrid crisp" transform="translate(0,269.73)" d="M80,0h540" style="stroke: rgb(255, 255, 255); stroke-opacity: 1; stroke-width: 1px;"/><path class="ygrid crisp" transform="translate(0,211.07)" d="M80,0h540" style="stroke: rgb(255, 255, 255); stroke-opacity: 1; stroke-width: 1px;"/><path class="ygrid crisp" transform="translate(0,152.4)" d="M80,0h540" style="stroke: rgb(255, 255, 255); stroke-opacity: 1; stroke-width: 1px;"/></g></g><g class="zerolinelayer"><path class="yzl zl crisp" transform="translate(0,387.06)" d="M80,0h540" style="stroke: rgb(255, 255, 255); stroke-opacity: 1; stroke-width: 2px;"/></g><path class="xlines-below"/><path class="ylines-below"/><g class="overlines-below"/><g class="xaxislayer-below"/><g class="yaxislayer-below"/><g class="overaxes-below"/><g class="plot" transform="translate(80,100)" clip-path="url(#clipf31864xyplot)"><g class="scatterlayer mlayer"><g class="trace scatter tracefd5b2f" style="stroke-miterlimit: 2;"><g class="fills"><g><path class="js-fill" d="M540,287.06L0,287.06L0,297.85L1.41,230.83L2.83,240.16L4.24,243.11L5.65,249.43L7.07,251.18L8.48,250.15L9.9,244.25L11.31,232.05L12.72,248.26L14.14,243.26L15.55,241.32L16.96,235.65L19.79,239.73L21.2,230.02L22.62,231.07L24.03,228.85L26.86,218.42L28.27,222.84L29.69,226.01L31.1,224.74L33.93,221.58L35.34,214.47L38.17,204.39L39.58,190.55L40.99,190.11L42.41,184.92L43.82,177.77L45.24,197.31L48.06,208.29L49.48,185.82L50.89,180.46L52.3,178.97L53.72,175.67L55.13,167.23L56.54,160.96L57.96,182.58L59.37,181.99L60.79,180.35L62.2,178.06L63.61,178.32L65.03,175.27L66.44,179.97L67.85,199.36L69.27,195.42L70.68,195.37L72.09,202.01L73.51,203.73L74.92,193.99L77.75,183.34L79.16,190.38L80.58,192.1L81.99,191.69L83.4,184.76L84.82,191.79L86.23,196.57L87.64,185.46L89.06,176.54L90.47,160.47L91.88,155.61L93.3,155.78L94.71,152.17L96.13,109.15L97.54,101.43L98.95,99.88L101.78,102.19L103.19,102.24L104.61,104.38L106.02,97.75L107.43,96.61L108.85,97.15L110.26,95.9L111.68,97.15L113.09,96.8L114.5,95.28L115.92,105.76L117.33,102.68L118.74,102.62L120.16,99.4L121.57,99.42L122.98,95.64L124.4,73.59L125.81,69.8L127.23,65.51L128.64,41.63L130.05,32.85L131.47,16L135.71,38.16L137.12,55.32L138.53,225.08L139.95,288.84L141.36,300.31L142.77,291.92L144.19,295.69L145.6,302.6L147.02,289.96L148.43,295.14L151.26,290.23L152.67,294.68L154.08,296.39L155.5,286.84L156.91,292.26L158.32,290.18L159.74,284.09L161.15,288.07L162.57,287.04L163.98,288.92L165.39,281.84L166.81,270.03L171.05,263.22L172.46,264.15L173.87,259.38L175.29,258.8L178.12,250.58L179.53,249.2L180.94,249.15L182.36,247.52L185.18,257.59L186.6,257.07L188.01,255.08L189.42,256.5L190.84,271.38L192.25,265.91L193.66,267.52L195.08,254.19L196.49,242.78L197.91,237.72L199.32,236.79L200.73,236.79L203.56,239.11L204.97,241.16L207.8,240.24L209.21,235.75L210.63,242.07L212.04,241.2L213.46,233.44L214.87,233.75L216.28,230.06L217.7,232.67L219.11,237.25L220.52,246.04L221.94,248.08L223.35,248.75L224.76,248.65L226.18,252.17L227.59,249.95L229.01,256.58L231.83,259.59L233.25,254.82L234.66,241.54L236.07,236.47L238.9,239.17L240.31,236.81L241.73,229.51L243.14,229.72L244.55,227.89L245.97,231.78L248.8,235.45L250.21,234.79L253.04,218.41L254.45,187.98L255.86,193.96L257.28,194.81L260.1,189.14L261.52,185.7L262.93,190.25L264.35,198.63L265.76,192.62L267.17,198.3L268.59,190.43L270,187.72L271.41,185.92L272.83,171.95L274.24,169.12L275.65,172.54L277.07,196.24L278.48,188.59L281.31,197.04L282.72,197.05L284.14,194.79L285.55,209.11L286.96,211.37L288.38,223.1L289.79,221.92L291.2,222.52L292.62,216.6L294.03,220.55L295.45,221.33L296.86,210.17L298.27,206.38L299.69,197.03L301.1,201.64L302.51,202L305.34,200.18L306.75,198.48L308.17,163.45L309.58,155.54L313.82,88.16L315.24,75.98L316.65,62L318.06,58.94L319.48,94.33L320.89,94.71L322.3,101.69L323.72,99.08L325.13,98.38L326.54,90.66L327.96,124.41L329.37,128.29L332.2,150.19L333.61,164L335.03,160.04L336.44,161.4L337.85,157.92L339.27,159.01L340.68,161.75L342.09,169.99L343.51,174.25L344.92,170.6L346.34,165.2L347.75,166.22L349.16,173.55L350.58,162.09L351.99,169.23L353.4,143.99L356.23,116.81L357.64,110.15L359.06,106.19L360.47,95.61L361.88,98.82L363.3,99.58L366.13,116.11L367.54,123.13L370.37,131.56L371.78,131.51L373.19,134.34L374.61,135.35L376.02,137.38L377.43,131.58L378.85,125.5L380.26,123.89L381.68,137.13L383.09,139.2L384.5,140.19L385.92,136.64L387.33,148.5L388.74,130.48L390.16,126.56L391.57,129.9L394.4,142.87L395.81,138.34L398.64,154.47L400.05,145.53L401.47,158.05L402.88,163.33L407.12,186.66L408.53,179.13L409.95,184.61L411.36,183.84L412.77,176.17L414.19,181.03L415.6,185.69L417.02,182.11L418.43,184.69L419.84,181.23L421.26,193.22L422.67,186.74L424.08,190.75L425.5,191.92L426.91,198.95L428.32,195.13L429.74,207.4L431.15,201.19L433.98,214.64L435.39,216.28L436.81,219.25L438.22,219.56L439.63,239.11L441.05,241.79L442.46,239.31L443.87,251.58L446.7,278.81L448.12,284.3L449.53,275.73L450.94,272.02L452.36,271.61L453.77,272.4L455.18,268.27L456.6,251.99L459.42,233.74L460.84,231.8L462.25,239.56L463.66,238.29L465.08,248.51L466.49,265.36L467.91,259.67L469.32,262.21L473.56,246.58L474.97,245.07L477.8,218.07L479.21,217.61L482.04,237.82L483.46,241.34L486.28,245.88L487.7,242.05L490.52,243.66L491.94,257.38L493.35,253.96L494.76,247.74L496.18,245.57L497.59,245.32L500.42,241.63L501.83,242.27L504.66,223.97L506.07,221.85L507.49,228.06L508.9,229.67L510.31,219.85L511.73,222.96L513.14,227.4L514.55,265.41L515.97,287.18L517.38,292.09L518.8,302.4L520.21,296.11L521.62,289.03L523.04,295.4L524.45,298.87L525.86,296.92L527.28,291.04L528.69,301.14L530.1,304L531.52,300.8L532.93,289.37L534.35,291.91L535.76,285.97L537.17,297.33L540,300.79" style="fill: rgb(99, 110, 250); fill-opacity: 0.5; stroke-width: 0;"/></g></g><g class="errorbars"/><g class="lines"><path class="js-line" d="M0,297.85L1.41,230.83L2.83,240.16L4.24,243.11L5.65,249.43L7.07,251.18L8.48,250.15L9.9,244.25L11.31,232.05L12.72,248.26L14.14,243.26L15.55,241.32L16.96,235.65L19.79,239.73L21.2,230.02L22.62,231.07L24.03,228.85L26.86,218.42L28.27,222.84L29.69,226.01L31.1,224.74L33.93,221.58L35.34,214.47L38.17,204.39L39.58,190.55L40.99,190.11L42.41,184.92L43.82,177.77L45.24,197.31L48.06,208.29L49.48,185.82L50.89,180.46L52.3,178.97L53.72,175.67L55.13,167.23L56.54,160.96L57.96,182.58L59.37,181.99L60.79,180.35L62.2,178.06L63.61,178.32L65.03,175.27L66.44,179.97L67.85,199.36L69.27,195.42L70.68,195.37L72.09,202.01L73.51,203.73L74.92,193.99L77.75,183.34L79.16,190.38L80.58,192.1L81.99,191.69L83.4,184.76L84.82,191.79L86.23,196.57L87.64,185.46L89.06,176.54L90.47,160.47L91.88,155.61L93.3,155.78L94.71,152.17L96.13,109.15L97.54,101.43L98.95,99.88L101.78,102.19L103.19,102.24L104.61,104.38L106.02,97.75L107.43,96.61L108.85,97.15L110.26,95.9L111.68,97.15L113.09,96.8L114.5,95.28L115.92,105.76L117.33,102.68L118.74,102.62L120.16,99.4L121.57,99.42L122.98,95.64L124.4,73.59L125.81,69.8L127.23,65.51L128.64,41.63L130.05,32.85L131.47,16L135.71,38.16L137.12,55.32L138.53,225.08L139.95,288.84L141.36,300.31L142.77,291.92L144.19,295.69L145.6,302.6L147.02,289.96L148.43,295.14L151.26,290.23L152.67,294.68L154.08,296.39L155.5,286.84L156.91,292.26L158.32,290.18L159.74,284.09L161.15,288.07L162.57,287.04L163.98,288.92L165.39,281.84L166.81,270.03L171.05,263.22L172.46,264.15L173.87,259.38L175.29,258.8L178.12,250.58L179.53,249.2L180.94,249.15L182.36,247.52L185.18,257.59L186.6,257.07L188.01,255.08L189.42,256.5L190.84,271.38L192.25,265.91L193.66,267.52L195.08,254.19L196.49,242.78L197.91,237.72L199.32,236.79L200.73,236.79L203.56,239.11L204.97,241.16L207.8,240.24L209.21,235.75L210.63,242.07L212.04,241.2L213.46,233.44L214.87,233.75L216.28,230.06L217.7,232.67L219.11,237.25L220.52,246.04L221.94,248.08L223.35,248.75L224.76,248.65L226.18,252.17L227.59,249.95L229.01,256.58L231.83,259.59L233.25,254.82L234.66,241.54L236.07,236.47L238.9,239.17L240.31,236.81L241.73,229.51L243.14,229.72L244.55,227.89L245.97,231.78L248.8,235.45L250.21,234.79L253.04,218.41L254.45,187.98L255.86,193.96L257.28,194.81L260.1,189.14L261.52,185.7L262.93,190.25L264.35,198.63L265.76,192.62L267.17,198.3L268.59,190.43L270,187.72L271.41,185.92L272.83,171.95L274.24,169.12L275.65,172.54L277.07,196.24L278.48,188.59L281.31,197.04L282.72,197.05L284.14,194.79L285.55,209.11L286.96,211.37L288.38,223.1L289.79,221.92L291.2,222.52L292.62,216.6L294.03,220.55L295.45,221.33L296.86,210.17L298.27,206.38L299.69,197.03L301.1,201.64L302.51,202L305.34,200.18L306.75,198.48L308.17,163.45L309.58,155.54L313.82,88.16L315.24,75.98L316.65,62L318.06,58.94L319.48,94.33L320.89,94.71L322.3,101.69L323.72,99.08L325.13,98.38L326.54,90.66L327.96,124.41L329.37,128.29L332.2,150.19L333.61,164L335.03,160.04L336.44,161.4L337.85,157.92L339.27,159.01L340.68,161.75L342.09,169.99L343.51,174.25L344.92,170.6L346.34,165.2L347.75,166.22L349.16,173.55L350.58,162.09L351.99,169.23L353.4,143.99L356.23,116.81L357.64,110.15L359.06,106.19L360.47,95.61L361.88,98.82L363.3,99.58L366.13,116.11L367.54,123.13L370.37,131.56L371.78,131.51L373.19,134.34L374.61,135.35L376.02,137.38L377.43,131.58L378.85,125.5L380.26,123.89L381.68,137.13L383.09,139.2L384.5,140.19L385.92,136.64L387.33,148.5L388.74,130.48L390.16,126.56L391.57,129.9L394.4,142.87L395.81,138.34L398.64,154.47L400.05,145.53L401.47,158.05L402.88,163.33L407.12,186.66L408.53,179.13L409.95,184.61L411.36,183.84L412.77,176.17L414.19,181.03L415.6,185.69L417.02,182.11L418.43,184.69L419.84,181.23L421.26,193.22L422.67,186.74L424.08,190.75L425.5,191.92L426.91,198.95L428.32,195.13L429.74,207.4L431.15,201.19L433.98,214.64L435.39,216.28L436.81,219.25L438.22,219.56L439.63,239.11L441.05,241.79L442.46,239.31L443.87,251.58L446.7,278.81L448.12,284.3L449.53,275.73L450.94,272.02L452.36,271.61L453.77,272.4L455.18,268.27L456.6,251.99L459.42,233.74L460.84,231.8L462.25,239.56L463.66,238.29L465.08,248.51L466.49,265.36L467.91,259.67L469.32,262.21L473.56,246.58L474.97,245.07L477.8,218.07L479.21,217.61L482.04,237.82L483.46,241.34L486.28,245.88L487.7,242.05L490.52,243.66L491.94,257.38L493.35,253.96L494.76,247.74L496.18,245.57L497.59,245.32L500.42,241.63L501.83,242.27L504.66,223.97L506.07,221.85L507.49,228.06L508.9,229.67L510.31,219.85L511.73,222.96L513.14,227.4L514.55,265.41L515.97,287.18L517.38,292.09L518.8,302.4L520.21,296.11L521.62,289.03L523.04,295.4L524.45,298.87L525.86,296.92L527.28,291.04L528.69,301.14L530.1,304L531.52,300.8L532.93,289.37L534.35,291.91L535.76,285.97L537.17,297.33L540,300.79" style="vector-effect: none; fill: none; stroke: rgb(99, 110, 250); stroke-opacity: 1; stroke-width: 2px; opacity: 1;"/></g><g class="points"/><g class="text"/></g></g></g><g class="overplot"/><path class="xlines-above crisp" d="M0,0" style="fill: none;"/><path class="ylines-above crisp" d="M0,0" style="fill: none;"/><g class="overlines-above"/><g class="xaxislayer-above"><g class="xtick"><text text-anchor="middle" x="0" y="433" transform="translate(118.17,0)" style="font-family: 'Open Sans', verdana, arial, sans-serif; font-size: 12px; fill: rgb(42, 63, 95); fill-opacity: 1; white-space: pre; opacity: 1;">Sep 2022</text></g><g class="xtick"><text text-anchor="middle" x="0" y="433" style="font-family: 'Open Sans', verdana, arial, sans-serif; font-size: 12px; fill: rgb(42, 63, 95); fill-opacity: 1; white-space: pre; opacity: 1;" transform="translate(204.4,0)">Nov 2022</text></g><g class="xtick"><text text-anchor="middle" x="0" y="433" style="font-family: 'Open Sans', verdana, arial, sans-serif; font-size: 12px; fill: rgb(42, 63, 95); fill-opacity: 1; white-space: pre; opacity: 1;" transform="translate(290.63,0)">Jan 2023</text></g><g class="xtick"><text text-anchor="middle" x="0" y="433" style="font-family: 'Open Sans', verdana, arial, sans-serif; font-size: 12px; fill: rgb(42, 63, 95); fill-opacity: 1; white-space: pre; opacity: 1;" transform="translate(374.03,0)">Mar 2023</text></g><g class="xtick"><text text-anchor="middle" x="0" y="433" style="font-family: 'Open Sans', verdana, arial, sans-serif; font-size: 12px; fill: rgb(42, 63, 95); fill-opacity: 1; white-space: pre; opacity: 1;" transform="translate(460.26,0)">May 2023</text></g><g class="xtick"><text text-anchor="middle" x="0" y="433" style="font-family: 'Open Sans', verdana, arial, sans-serif; font-size: 12px; fill: rgb(42, 63, 95); fill-opacity: 1; white-space: pre; opacity: 1;" transform="translate(546.49,0)">Jul 2023</text></g></g><g class="yaxislayer-above"><g class="ytick"><text text-anchor="end" x="79" y="4.199999999999999" transform="translate(0,387.06)" style="font-family: 'Open Sans', verdana, arial, sans-serif; font-size: 12px; fill: rgb(42, 63, 95); fill-opacity: 1; white-space: pre; opacity: 1;">$0</text></g><g class="ytick"><text text-anchor="end" x="79" y="4.199999999999999" style="font-family: 'Open Sans', verdana, arial, sans-serif; font-size: 12px; fill: rgb(42, 63, 95); fill-opacity: 1; white-space: pre; opacity: 1;" transform="translate(0,328.4)">$10M</text></g><g class="ytick"><text text-anchor="end" x="79" y="4.199999999999999" style="font-family: 'Open Sans', verdana, arial, sans-serif; font-size: 12px; fill: rgb(42, 63, 95); fill-opacity: 1; white-space: pre; opacity: 1;" transform="translate(0,269.73)">$20M</text></g><g class="ytick"><text text-anchor="end" x="79" y="4.199999999999999" style="font-family: 'Open Sans', verdana, arial, sans-serif; font-size: 12px; fill: rgb(42, 63, 95); fill-opacity: 1; white-space: pre; opacity: 1;" transform="translate(0,211.07)">$30M</text></g><g class="ytick"><text text-anchor="end" x="79" y="4.199999999999999" style="font-family: 'Open Sans', verdana, arial, sans-serif; font-size: 12px; fill: rgb(42, 63, 95); fill-opacity: 1; white-space: pre; opacity: 1;" transform="translate(0,152.4)">$40M</text></g></g><g class="overaxes-above"/></g></g><g class="polarlayer"/><g class="smithlayer"/><g class="ternarylayer"/><g class="geolayer"/><g class="funnelarealayer"/><g class="pielayer"/><g class="iciclelayer"/><g class="treemaplayer"/><g class="sunburstlayer"/><g class="glimages"/><defs id="topdefs-f31864"><g class="clips"/></defs><g class="layer-above"><g class="imagelayer"/><g class="shapelayer"/></g><g class="infolayer"><g class="g-gtitle"><text class="gtitle" x="35" y="50" text-anchor="start" dy="0em" style="font-family: 'Open Sans', verdana, arial, sans-serif; font-size: 17px; fill: rgb(42, 63, 95); opacity: 1; font-weight: normal; white-space: pre;"><tspan class="line" dy="0em" x="35" y="50">Stargate</tspan><tspan class="line" dy="1.3em" x="35" y="50">​<tspan style="font-size:70%" dy="-0.6em">Cumulative Net Flows since Program Announcement, Until Program End + 30 Days - At Last Price</tspan><tspan dy="0.42em">​</tspan></tspan></text></g><g class="g-xtitle"><text class="xtitle" x="350" y="460.3" text-anchor="middle" style="font-family: 'Open Sans', verdana, arial, sans-serif; font-size: 14px; fill: rgb(42, 63, 95); opacity: 1; font-weight: normal; white-space: pre;">Day</text></g><g class="g-ytitle"><text class="ytitle" transform="rotate(-90,24.668750000000003,260)" x="24.668750000000003" y="260" text-anchor="middle" style="font-family: 'Open Sans', verdana, arial, sans-serif; font-size: 14px; fill: rgb(42, 63, 95); opacity: 1; font-weight: normal; white-space: pre;">Cumulative Net Flows (USD)</text></g></g></svg>