<svg class="main-svg" xmlns="http://www.w3.org/2000/svg" xmlns:xlink="http://www.w3.org/1999/xlink" width="700" height="500" style="" viewBox="0 0 700 500"><rect x="0" y="0" width="700" height="500" style="fill: rgb(255, 255, 255); fill-opacity: 1;"/><defs id="defs-921144"><g class="clips"><clipPath id="clip921144xyplot" class="plotclip"><rect width="540" height="320"/></clipPath><clipPath class="axesclip" id="clip921144x"><rect x="80" y="0" width="540" height="500"/></clipPath><clipPath class="axesclip" id="clip921144y"><rect x="0" y="100" width="700" height="320"/></clipPath><clipPath class="axesclip" id="clip921144xy"><rect x="80" y="100" width="540" height="320"/></clipPath></g><g class="gradients"/><g class="patterns"/></defs><g class="bglayer"><rect class="bg" x="80" y="100" width="540" height="320" style="fill: rgb(229, 236, 246); fill-opacity: 1; stroke-width: 0;"/></g><g class="layer-below"><g class="imagelayer"/><g class="shapelayer"/></g><g class="cartesianlayer"><g class="subplot xy"><g class="layer-subplot"><g class="shapelayer"/><g class="imagelayer"/></g><g class="minor-gridlayer"><g class="x"/><g class="y"/></g><g class="gridlayer"><g class="x"><path class="xgrid crisp" transform="translate(193.12,0)" d="M0,100v320" style="stroke: rgb(255, 255, 255); stroke-opacity: 1; stroke-width: 1px;"/><path class="xgrid crisp" transform="translate(319.05,0)" d="M0,100v320" style="stroke: rgb(255, 255, 255); stroke-opacity: 1; stroke-width: 1px;"/><path class="xgrid crisp" transform="translate(449.25,0)" d="M0,100v320" style="stroke: rgb(255, 255, 255); stroke-opacity: 1; stroke-width: 1px;"/><path class="xgrid crisp" transform="translate(579.45,0)" d="M0,100v320" style="stroke: rgb(255, 255, 255); stroke-opacity: 1; stroke-width: 1px;"/></g><g class="y"><path class="ygrid crisp" transform="translate(0,355.94)" d="M80,0h540" style="stroke: rgb(255, 255, 255); stroke-opacity: 1; stroke-width: 1px;"/><path class="ygrid crisp" transform="translate(0,307.97)" d="M80,0h540" style="stroke: rgb(255, 255, 255); stroke-opacity: 1; stroke-width: 1px;"/><path class="ygrid crisp" transform="translate(0,259.99)" d="M80,0h540" style="stroke: rgb(255, 255, 255); stroke-opacity: 1; stroke-width: 1px;"/><path class="ygrid crisp" transform="translate(0,212.01999999999998)" d="M80,0h540" style="stroke: rgb(255, 255, 255); stroke-opacity: 1; stroke-width: 1px;"/><path class="ygrid crisp" transform="translate(0,164.04000000000002)" d="M80,0h540" style="stroke: rgb(255, 255, 255); stroke-opacity: 1; stroke-width: 1px;"/><path class="ygrid crisp" transform="translate(0,116.06)" d="M80,0h540" style="stroke: rgb(255, 255, 255); stroke-opacity: 1; stroke-width: 1px;"/></g></g><g class="zerolinelayer"><path class="yzl zl crisp" transform="translate(0,403.92)" d="M80,0h540" style="stroke: rgb(255, 255, 255); stroke-opacity: 1; stroke-width: 2px;"/></g><path class="xlines-below"/><path class="ylines-below"/><g class="overlines-below"/><g class="xaxislayer-below"/><g class="yaxislayer-below"/><g class="overaxes-below"/><g class="plot" transform="translate(80,100)" clip-path="url(#clip921144xyplot)"><g class="scatterlayer mlayer"><g class="trace scatter traceeba0f7" style="stroke-miterlimit: 2;"><g class="fills"><g><path class="js-fill" d="M540,303.92L0,303.92L0,304L6.4,298.02L8.54,297.71L23.48,296.87L25.61,296.65L29.88,295.18L32.02,294.29L34.15,295.27L36.28,295.39L51.23,296.03L53.36,295.86L55.49,295.79L57.63,294.92L59.76,296.92L61.9,296.61L70.43,296.2L72.57,297.72L74.7,298.75L76.84,298.56L78.97,297.39L81.11,297.24L89.64,296.79L91.78,294.74L93.91,295.28L96.05,294.73L98.18,293.59L100.32,293.51L106.72,292.95L108.85,290.63L113.12,290.67L115.26,287.94L117.39,287.53L119.53,290.54L121.66,288.4L123.79,288.79L128.06,288.31L130.2,288.83L132.33,288.83L134.47,286.76L136.6,285.32L138.74,285.81L140.87,283.48L143,283.24L147.27,280.14L149.41,279.96L153.68,281.15L155.81,279.17L157.94,277.92L160.08,261.91L162.21,263.47L164.35,263.23L166.48,258.26L168.62,257.95L170.75,258.35L172.89,252.46L175.02,289.4L177.15,291.26L179.29,288.49L181.42,275.69L183.56,275.74L185.69,274.93L187.83,268.86L189.96,268.24L192.09,238.97L194.23,237.87L196.36,228.97L198.5,229.67L200.63,220.88L202.77,221.2L204.9,193.86L207.04,194.26L211.3,192.89L213.44,182.14L215.57,182.12L217.71,183.23L219.84,167.37L221.98,167.43L226.25,165.2L228.38,158.21L230.51,146.24L232.65,144.8L236.92,144.09L239.05,141.08L241.19,141.04L243.32,131.68L247.59,132.21L249.72,125.99L251.86,123.99L253.99,123.28L256.13,119.43L258.26,125.16L260.4,125.34L262.53,128.51L264.66,125.71L266.8,107.05L268.93,99.01L271.07,99.31L273.2,92.98L275.34,66.79L277.47,68.12L279.6,57.08L281.74,41.51L283.87,39.65L290.28,38.5L292.41,39.95L294.55,40.06L296.68,43.5L298.81,19.24L300.95,16.01L303.08,16L305.22,28.02L309.49,28.56L311.62,27.61L318.02,27.28L320.16,45.51L322.29,59.75L324.43,55.46L328.7,55.58L330.83,53.54L335.1,55.04L337.23,54.8L339.37,62.33L341.5,61.39L343.64,60.49L345.77,229.13L347.91,72.39L350.04,70.91L362.85,69.25L364.98,60.35L367.11,58.58L369.25,63.66L371.38,50.94L373.52,52.17L375.65,52.51L377.79,56.16L382.06,55.72L384.19,57.53L386.32,55.22L388.46,54.87L397,54.87L399.13,56.03L405.53,56.3L407.67,55.47L409.8,55.59L411.94,53.33L414.07,55.16L416.21,70.82L418.34,85.16L420.47,87.87L422.61,88.65L424.74,81.61L426.88,54.53L429.01,87.21L431.15,108.93L433.28,108.87L435.42,100.79L437.55,99.59L441.82,96.02L443.95,96.35L448.22,95.82L450.36,93.87L452.49,99.47L454.62,121.41L456.76,121.67L458.89,117.16L461.03,125.64L463.16,126.56L467.43,121.26L469.57,148.96L471.7,171.17L473.83,171.31L475.97,171.56L478.1,190.16L480.24,178.94L482.37,178.95L484.51,181.05L486.64,180.42L488.77,184.03L490.91,185.05L493.04,184.49L495.18,199.01L497.31,200.77L499.45,216.56L507.98,213.05L510.12,213.45L512.25,196L514.39,192.78L516.52,166.42L518.66,166.45L522.92,168.26L525.06,168.56L527.19,172.66L529.33,172.71L531.46,179.1L533.6,178.32L537.87,184.4L540,202.76" style="fill: rgb(99, 110, 250); fill-opacity: 0.5; stroke-width: 0;"/></g></g><g class="errorbars"/><g class="lines"><path class="js-line" d="M0,304L6.4,298.02L8.54,297.71L23.48,296.87L25.61,296.65L29.88,295.18L32.02,294.29L34.15,295.27L36.28,295.39L51.23,296.03L53.36,295.86L55.49,295.79L57.63,294.92L59.76,296.92L61.9,296.61L70.43,296.2L72.57,297.72L74.7,298.75L76.84,298.56L78.97,297.39L81.11,297.24L89.64,296.79L91.78,294.74L93.91,295.28L96.05,294.73L98.18,293.59L100.32,293.51L106.72,292.95L108.85,290.63L113.12,290.67L115.26,287.94L117.39,287.53L119.53,290.54L121.66,288.4L123.79,288.79L128.06,288.31L130.2,288.83L132.33,288.83L134.47,286.76L136.6,285.32L138.74,285.81L140.87,283.48L143,283.24L147.27,280.14L149.41,279.96L153.68,281.15L155.81,279.17L157.94,277.92L160.08,261.91L162.21,263.47L164.35,263.23L166.48,258.26L168.62,257.95L170.75,258.35L172.89,252.46L175.02,289.4L177.15,291.26L179.29,288.49L181.42,275.69L183.56,275.74L185.69,274.93L187.83,268.86L189.96,268.24L192.09,238.97L194.23,237.87L196.36,228.97L198.5,229.67L200.63,220.88L202.77,221.2L204.9,193.86L207.04,194.26L211.3,192.89L213.44,182.14L215.57,182.12L217.71,183.23L219.84,167.37L221.98,167.43L226.25,165.2L228.38,158.21L230.51,146.24L232.65,144.8L236.92,144.09L239.05,141.08L241.19,141.04L243.32,131.68L247.59,132.21L249.72,125.99L251.86,123.99L253.99,123.28L256.13,119.43L258.26,125.16L260.4,125.34L262.53,128.51L264.66,125.71L266.8,107.05L268.93,99.01L271.07,99.31L273.2,92.98L275.34,66.79L277.47,68.12L279.6,57.08L281.74,41.51L283.87,39.65L290.28,38.5L292.41,39.95L294.55,40.06L296.68,43.5L298.81,19.24L300.95,16.01L303.08,16L305.22,28.02L309.49,28.56L311.62,27.61L318.02,27.28L320.16,45.51L322.29,59.75L324.43,55.46L328.7,55.58L330.83,53.54L335.1,55.04L337.23,54.8L339.37,62.33L341.5,61.39L343.64,60.49L345.77,229.13L347.91,72.39L350.04,70.91L362.85,69.25L364.98,60.35L367.11,58.58L369.25,63.66L371.38,50.94L373.52,52.17L375.65,52.51L377.79,56.16L382.06,55.72L384.19,57.53L386.32,55.22L388.46,54.87L397,54.87L399.13,56.03L405.53,56.3L407.67,55.47L409.8,55.59L411.94,53.33L414.07,55.16L416.21,70.82L418.34,85.16L420.47,87.87L422.61,88.65L424.74,81.61L426.88,54.53L429.01,87.21L431.15,108.93L433.28,108.87L435.42,100.79L437.55,99.59L441.82,96.02L443.95,96.35L448.22,95.82L450.36,93.87L452.49,99.47L454.62,121.41L456.76,121.67L458.89,117.16L461.03,125.64L463.16,126.56L467.43,121.26L469.57,148.96L471.7,171.17L473.83,171.31L475.97,171.56L478.1,190.16L480.24,178.94L482.37,178.95L484.51,181.05L486.64,180.42L488.77,184.03L490.91,185.05L493.04,184.49L495.18,199.01L497.31,200.77L499.45,216.56L507.98,213.05L510.12,213.45L512.25,196L514.39,192.78L516.52,166.42L518.66,166.45L522.92,168.26L525.06,168.56L527.19,172.66L529.33,172.71L531.46,179.1L533.6,178.32L537.87,184.4L540,202.76" style="vector-effect: none; fill: none; stroke: rgb(99, 110, 250); stroke-opacity: 1; stroke-width: 2px; opacity: 1;"/></g><g class="points"/><g class="text"/></g></g></g><g class="overplot"/><path class="xlines-above crisp" d="M0,0" style="fill: none;"/><path class="ylines-above crisp" d="M0,0" style="fill: none;"/><g class="overlines-above"/><g class="xaxislayer-above"><g class="xtick"><text text-anchor="middle" x="0" y="433" transform="translate(193.12,0)" style="font-family: 'Open Sans', verdana, arial, sans-serif; font-size: 12px; fill: rgb(42, 63, 95); fill-opacity: 1; white-space: pre; opacity: 1;">Jan 2023</text></g><g class="xtick"><text text-anchor="middle" x="0" y="433" style="font-family: 'Open Sans', verdana, arial, sans-serif; font-size: 12px; fill: rgb(42, 63, 95); fill-opacity: 1; white-space: pre; opacity: 1;" transform="translate(319.05,0)">Mar 2023</text></g><g class="xtick"><text text-anchor="middle" x="0" y="433" style="font-family: 'Open Sans', verdana, arial, sans-serif; font-size: 12px; fill: rgb(42, 63, 95); fill-opacity: 1; white-space: pre; opacity: 1;" transform="translate(449.25,0)">May 2023</text></g><g class="xtick"><text text-anchor="middle" x="0" y="433" style="font-family: 'Open Sans', verdana, arial, sans-serif; font-size: 12px; fill: rgb(42, 63, 95); fill-opacity: 1; white-space: pre; opacity: 1;" transform="translate(579.45,0)">Jul 2023</text></g></g><g class="yaxislayer-above"><g class="ytick"><text text-anchor="end" x="79" y="4.199999999999999" transform="translate(0,403.92)" style="font-family: 'Open Sans', verdana, arial, sans-serif; font-size: 12px; fill: rgb(42, 63, 95); fill-opacity: 1; white-space: pre; opacity: 1;">$0</text></g><g class="ytick"><text text-anchor="end" x="79" y="4.199999999999999" style="font-family: 'Open Sans', verdana, arial, sans-serif; font-size: 12px; fill: rgb(42, 63, 95); fill-opacity: 1; white-space: pre; opacity: 1;" transform="translate(0,355.94)">$5M</text></g><g class="ytick"><text text-anchor="end" x="79" y="4.199999999999999" style="font-family: 'Open Sans', verdana, arial, sans-serif; font-size: 12px; fill: rgb(42, 63, 95); fill-opacity: 1; white-space: pre; opacity: 1;" transform="translate(0,307.97)">$10M</text></g><g class="ytick"><text text-anchor="end" x="79" y="4.199999999999999" style="font-family: 'Open Sans', verdana, arial, sans-serif; font-size: 12px; fill: rgb(42, 63, 95); fill-opacity: 1; white-space: pre; opacity: 1;" transform="translate(0,259.99)">$15M</text></g><g class="ytick"><text text-anchor="end" x="79" y="4.199999999999999" style="font-family: 'Open Sans', verdana, arial, sans-serif; font-size: 12px; fill: rgb(42, 63, 95); fill-opacity: 1; white-space: pre; opacity: 1;" transform="translate(0,212.01999999999998)">$20M</text></g><g class="ytick"><text text-anchor="end" x="79" y="4.199999999999999" style="font-family: 'Open Sans', verdana, arial, sans-serif; font-size: 12px; fill: rgb(42, 63, 95); fill-opacity: 1; white-space: pre; opacity: 1;" transform="translate(0,164.04000000000002)">$25M</text></g><g class="ytick"><text text-anchor="end" x="79" y="4.199999999999999" style="font-family: 'Open Sans', verdana, arial, sans-serif; font-size: 12px; fill: rgb(42, 63, 95); fill-opacity: 1; white-space: pre; opacity: 1;" transform="translate(0,116.06)">$30M</text></g></g><g class="overaxes-above"/></g></g><g class="polarlayer"/><g class="smithlayer"/><g class="ternarylayer"/><g class="geolayer"/><g class="funnelarealayer"/><g class="pielayer"/><g class="iciclelayer"/><g class="treemaplayer"/><g class="sunburstlayer"/><g class="glimages"/><defs id="topdefs-921144"><g class="clips"/></defs><g class="layer-above"><g class="imagelayer"/><g class="shapelayer"/></g><g class="infolayer"><g class="g-gtitle"><text class="gtitle" x="35" y="50" text-anchor="start" dy="0em" style="font-family: 'Open Sans', verdana, arial, sans-serif; font-size: 17px; fill: rgb(42, 63, 95); opacity: 1; font-weight: normal; white-space: pre;"><tspan class="line" dy="0em" x="35" y="50">Rocket Pool - WETH/rETH: Beethoven X</tspan><tspan class="line" dy="1.3em" x="35" y="50">​<tspan style="font-size:70%" dy="-0.6em">Cumulative Net Flows since Program Announcement, Until Program End + 30 Days - At Last Price</tspan><tspan dy="0.42em">​</tspan></tspan></text></g><g class="g-xtitle"><text class="xtitle" x="350" y="460.3" text-anchor="middle" style="font-family: 'Open Sans', verdana, arial, sans-serif; font-size: 14px; fill: rgb(42, 63, 95); opacity: 1; font-weight: normal; white-space: pre;">Day</text></g><g class="g-ytitle"><text class="ytitle" transform="rotate(-90,24.668750000000003,260)" x="24.668750000000003" y="260" text-anchor="middle" style="font-family: 'Open Sans', verdana, arial, sans-serif; font-size: 14px; fill: rgb(42, 63, 95); opacity: 1; font-weight: normal; white-space: pre;">Cumulative Net Flows (USD)</text></g></g></svg>