<svg class="main-svg" xmlns="http://www.w3.org/2000/svg" xmlns:xlink="http://www.w3.org/1999/xlink" width="700" height="500" style="" viewBox="0 0 700 500"><rect x="0" y="0" width="700" height="500" style="fill: rgb(255, 255, 255); fill-opacity: 1;"/><defs id="defs-ae782a"><g class="clips"><clipPath id="clipae782axyplot" class="plotclip"><rect width="540" height="320"/></clipPath><clipPath class="axesclip" id="clipae782ax"><rect x="80" y="0" width="540" height="500"/></clipPath><clipPath class="axesclip" id="clipae782ay"><rect x="0" y="100" width="700" height="320"/></clipPath><clipPath class="axesclip" id="clipae782axy"><rect x="80" y="100" width="540" height="320"/></clipPath></g><g class="gradients"/><g class="patterns"/></defs><g class="bglayer"><rect class="bg" x="80" y="100" width="540" height="320" style="fill: rgb(229, 236, 246); fill-opacity: 1; stroke-width: 0;"/></g><g class="layer-below"><g class="imagelayer"/><g class="shapelayer"/></g><g class="cartesianlayer"><g class="subplot xy"><g class="layer-subplot"><g class="shapelayer"/><g class="imagelayer"/></g><g class="minor-gridlayer"><g class="x"/><g class="y"/></g><g class="gridlayer"><g class="x"><path class="xgrid crisp" transform="translate(180.37,0)" d="M0,100v320" style="stroke: rgb(255, 255, 255); stroke-opacity: 1; stroke-width: 1px;"/><path class="xgrid crisp" transform="translate(302.83000000000004,0)" d="M0,100v320" style="stroke: rgb(255, 255, 255); stroke-opacity: 1; stroke-width: 1px;"/><path class="xgrid crisp" transform="translate(425.28,0)" d="M0,100v320" style="stroke: rgb(255, 255, 255); stroke-opacity: 1; stroke-width: 1px;"/><path class="xgrid crisp" transform="translate(549.74,0)" d="M0,100v320" style="stroke: rgb(255, 255, 255); stroke-opacity: 1; stroke-width: 1px;"/></g><g class="y"><path class="ygrid crisp" transform="translate(0,400.29)" d="M80,0h540" style="stroke: rgb(255, 255, 255); stroke-opacity: 1; stroke-width: 1px;"/><path class="ygrid crisp" transform="translate(0,350.82)" d="M80,0h540" style="stroke: rgb(255, 255, 255); stroke-opacity: 1; stroke-width: 1px;"/><path class="ygrid crisp" transform="translate(0,251.89)" d="M80,0h540" style="stroke: rgb(255, 255, 255); stroke-opacity: 1; stroke-width: 1px;"/><path class="ygrid crisp" transform="translate(0,202.43)" d="M80,0h540" style="stroke: rgb(255, 255, 255); stroke-opacity: 1; stroke-width: 1px;"/><path class="ygrid crisp" transform="translate(0,152.96)" d="M80,0h540" style="stroke: rgb(255, 255, 255); stroke-opacity: 1; stroke-width: 1px;"/><path class="ygrid crisp" transform="translate(0,103.5)" d="M80,0h540" style="stroke: rgb(255, 255, 255); stroke-opacity: 1; stroke-width: 1px;"/></g></g><g class="zerolinelayer"><path class="yzl zl crisp" transform="translate(0,301.36)" d="M80,0h540" style="stroke: rgb(255, 255, 255); stroke-opacity: 1; stroke-width: 2px;"/></g><path class="xlines-below"/><path class="ylines-below"/><g class="overlines-below"/><g class="xaxislayer-below"/><g class="yaxislayer-below"/><g class="overaxes-below"/><g class="plot" transform="translate(80,100)" clip-path="url(#clipae782axyplot)"><g class="scatterlayer mlayer"><g class="trace scatter traceb0cc5f" style="stroke-miterlimit: 2;"><g class="fills"><g><path class="js-fill" d="M540,201.36L0,201.36L0,201.3L2.01,201.6L4.01,204.46L10.04,204.6L12.04,205.31L16.06,205.32L18.07,171.59L20.07,166.66L22.08,164.29L24.09,162.5L26.1,138.57L28.1,143.08L30.11,111.95L32.12,101.56L34.13,97.45L38.14,97.72L40.15,96.58L42.16,88.18L44.16,92.61L46.17,105.44L48.18,88.95L50.19,88.47L52.19,67.17L54.2,65.18L56.21,54.17L60.22,54.09L62.23,55.27L66.25,24.24L68.25,28.99L70.26,24.79L72.27,16.88L74.28,16.88L76.28,27.51L78.29,30.77L80.3,53.57L82.3,23.33L84.31,21.57L86.32,41.38L88.33,19.62L90.33,24.61L92.34,25.01L94.35,22.82L96.36,23.2L98.36,22.47L100.37,16L102.38,50.07L104.39,56.67L106.39,63.9L108.4,67.9L110.41,67.66L112.42,71.38L114.42,71.92L116.43,95.01L118.44,108.87L120.45,186.58L122.45,198.63L124.46,189.33L126.47,184.21L128.48,174.61L130.48,164.68L132.49,75.57L134.5,96.67L136.51,108.06L138.51,110.07L140.52,92.93L142.53,100.82L144.54,101.93L146.54,112.34L148.55,112.32L150.56,111.73L152.57,112.81L156.58,116.34L158.59,117.65L162.6,119.79L164.61,121.79L166.62,123.09L168.62,138.56L180.67,139L182.68,139.66L184.68,156.8L186.69,157.55L188.7,157.28L190.71,116.63L192.71,112.51L194.72,112.77L196.73,107.24L198.74,80.28L200.74,84.74L202.75,85.48L204.76,127.14L206.77,129.17L208.77,129.17L210.78,130.13L212.79,105.36L214.8,105.38L218.81,104.33L220.82,114.3L222.83,139.32L224.83,138.6L226.84,138.74L228.85,142.34L234.87,142.71L236.88,143.33L250.93,143.1L252.94,145.53L254.94,145.52L256.95,133.05L264.98,133.02L266.99,131.98L269,133.21L271,127.08L275.02,127.62L277.03,123.66L283.05,123.59L285.06,134.28L291.08,134.24L293.09,133.15L297.1,132.91L299.11,118.19L301.12,118.2L303.12,145.14L305.13,145.14L307.14,143.64L309.14,142.19L311.15,142.24L313.16,141.53L315.17,136.27L317.17,136.27L319.18,149.05L325.2,148.94L327.21,137.94L329.22,149.66L331.23,144.54L333.23,203.19L335.24,197.43L337.25,181.04L339.26,242.82L341.26,275.47L343.27,285.2L345.28,286.93L347.29,287.5L349.29,289.92L351.3,289.98L353.31,290L355.32,292.26L357.32,295.21L359.33,295.21L373.38,296.03L375.39,296.58L385.43,297.76L387.43,303.06L391.45,304L393.46,303.13L540,303.44" style="fill: rgb(99, 110, 250); fill-opacity: 0.5; stroke-width: 0;"/></g></g><g class="errorbars"/><g class="lines"><path class="js-line" d="M0,201.3L2.01,201.6L4.01,204.46L10.04,204.6L12.04,205.31L16.06,205.32L18.07,171.59L20.07,166.66L22.08,164.29L24.09,162.5L26.1,138.57L28.1,143.08L30.11,111.95L32.12,101.56L34.13,97.45L38.14,97.72L40.15,96.58L42.16,88.18L44.16,92.61L46.17,105.44L48.18,88.95L50.19,88.47L52.19,67.17L54.2,65.18L56.21,54.17L60.22,54.09L62.23,55.27L66.25,24.24L68.25,28.99L70.26,24.79L72.27,16.88L74.28,16.88L76.28,27.51L78.29,30.77L80.3,53.57L82.3,23.33L84.31,21.57L86.32,41.38L88.33,19.62L90.33,24.61L92.34,25.01L94.35,22.82L96.36,23.2L98.36,22.47L100.37,16L102.38,50.07L104.39,56.67L106.39,63.9L108.4,67.9L110.41,67.66L112.42,71.38L114.42,71.92L116.43,95.01L118.44,108.87L120.45,186.58L122.45,198.63L124.46,189.33L126.47,184.21L128.48,174.61L130.48,164.68L132.49,75.57L134.5,96.67L136.51,108.06L138.51,110.07L140.52,92.93L142.53,100.82L144.54,101.93L146.54,112.34L148.55,112.32L150.56,111.73L152.57,112.81L156.58,116.34L158.59,117.65L162.6,119.79L164.61,121.79L166.62,123.09L168.62,138.56L180.67,139L182.68,139.66L184.68,156.8L186.69,157.55L188.7,157.28L190.71,116.63L192.71,112.51L194.72,112.77L196.73,107.24L198.74,80.28L200.74,84.74L202.75,85.48L204.76,127.14L206.77,129.17L208.77,129.17L210.78,130.13L212.79,105.36L214.8,105.38L218.81,104.33L220.82,114.3L222.83,139.32L224.83,138.6L226.84,138.74L228.85,142.34L234.87,142.71L236.88,143.33L250.93,143.1L252.94,145.53L254.94,145.52L256.95,133.05L264.98,133.02L266.99,131.98L269,133.21L271,127.08L275.02,127.62L277.03,123.66L283.05,123.59L285.06,134.28L291.08,134.24L293.09,133.15L297.1,132.91L299.11,118.19L301.12,118.2L303.12,145.14L305.13,145.14L307.14,143.64L309.14,142.19L311.15,142.24L313.16,141.53L315.17,136.27L317.17,136.27L319.18,149.05L325.2,148.94L327.21,137.94L329.22,149.66L331.23,144.54L333.23,203.19L335.24,197.43L337.25,181.04L339.26,242.82L341.26,275.47L343.27,285.2L345.28,286.93L347.29,287.5L349.29,289.92L351.3,289.98L353.31,290L355.32,292.26L357.32,295.21L359.33,295.21L373.38,296.03L375.39,296.58L385.43,297.76L387.43,303.06L391.45,304L393.46,303.13L540,303.44" style="vector-effect: none; fill: none; stroke: rgb(99, 110, 250); stroke-opacity: 1; stroke-width: 2px; opacity: 1;"/></g><g class="points"/><g class="text"/></g></g></g><g class="overplot"/><path class="xlines-above crisp" d="M0,0" style="fill: none;"/><path class="ylines-above crisp" d="M0,0" style="fill: none;"/><g class="overlines-above"/><g class="xaxislayer-above"><g class="xtick"><text text-anchor="middle" x="0" y="433" transform="translate(180.37,0)" style="font-family: 'Open Sans', verdana, arial, sans-serif; font-size: 12px; fill: rgb(42, 63, 95); fill-opacity: 1; white-space: pre; opacity: 1;">Mar 2023</text></g><g class="xtick"><text text-anchor="middle" x="0" y="433" style="font-family: 'Open Sans', verdana, arial, sans-serif; font-size: 12px; fill: rgb(42, 63, 95); fill-opacity: 1; white-space: pre; opacity: 1;" transform="translate(302.83000000000004,0)">May 2023</text></g><g class="xtick"><text text-anchor="middle" x="0" y="433" style="font-family: 'Open Sans', verdana, arial, sans-serif; font-size: 12px; fill: rgb(42, 63, 95); fill-opacity: 1; white-space: pre; opacity: 1;" transform="translate(425.28,0)">Jul 2023</text></g><g class="xtick"><text text-anchor="middle" x="0" y="433" style="font-family: 'Open Sans', verdana, arial, sans-serif; font-size: 12px; fill: rgb(42, 63, 95); fill-opacity: 1; white-space: pre; opacity: 1;" transform="translate(549.74,0)">Sep 2023</text></g></g><g class="yaxislayer-above"><g class="ytick"><text text-anchor="end" x="79" y="4.199999999999999" transform="translate(0,400.29)" style="font-family: 'Open Sans', verdana, arial, sans-serif; font-size: 12px; fill: rgb(42, 63, 95); fill-opacity: 1; white-space: pre; opacity: 1;">$−2M</text></g><g class="ytick"><text text-anchor="end" x="79" y="4.199999999999999" style="font-family: 'Open Sans', verdana, arial, sans-serif; font-size: 12px; fill: rgb(42, 63, 95); fill-opacity: 1; white-space: pre; opacity: 1;" transform="translate(0,350.82)">$−1M</text></g><g class="ytick"><text text-anchor="end" x="79" y="4.199999999999999" style="font-family: 'Open Sans', verdana, arial, sans-serif; font-size: 12px; fill: rgb(42, 63, 95); fill-opacity: 1; white-space: pre; opacity: 1;" transform="translate(0,301.36)">$0</text></g><g class="ytick"><text text-anchor="end" x="79" y="4.199999999999999" style="font-family: 'Open Sans', verdana, arial, sans-serif; font-size: 12px; fill: rgb(42, 63, 95); fill-opacity: 1; white-space: pre; opacity: 1;" transform="translate(0,251.89)">$1M</text></g><g class="ytick"><text text-anchor="end" x="79" y="4.199999999999999" style="font-family: 'Open Sans', verdana, arial, sans-serif; font-size: 12px; fill: rgb(42, 63, 95); fill-opacity: 1; white-space: pre; opacity: 1;" transform="translate(0,202.43)">$2M</text></g><g class="ytick"><text text-anchor="end" x="79" y="4.199999999999999" style="font-family: 'Open Sans', verdana, arial, sans-serif; font-size: 12px; fill: rgb(42, 63, 95); fill-opacity: 1; white-space: pre; opacity: 1;" transform="translate(0,152.96)">$3M</text></g><g class="ytick"><text text-anchor="end" x="79" y="4.199999999999999" style="font-family: 'Open Sans', verdana, arial, sans-serif; font-size: 12px; fill: rgb(42, 63, 95); fill-opacity: 1; white-space: pre; opacity: 1;" transform="translate(0,103.5)">$4M</text></g></g><g class="overaxes-above"/></g></g><g class="polarlayer"/><g class="smithlayer"/><g class="ternarylayer"/><g class="geolayer"/><g class="funnelarealayer"/><g class="pielayer"/><g class="iciclelayer"/><g class="treemaplayer"/><g class="sunburstlayer"/><g class="glimages"/><defs id="topdefs-ae782a"><g class="clips"/></defs><g class="layer-above"><g class="imagelayer"/><g class="shapelayer"/></g><g class="infolayer"><g class="g-gtitle"><text class="gtitle" x="35" y="50" text-anchor="start" dy="0em" style="font-family: 'Open Sans', verdana, arial, sans-serif; font-size: 17px; fill: rgb(42, 63, 95); opacity: 1; font-weight: normal; white-space: pre;"><tspan class="line" dy="0em" x="35" y="50">Overnight - USD+/USDC: Velodrome</tspan><tspan class="line" dy="1.3em" x="35" y="50">​<tspan style="font-size:70%" dy="-0.6em">Cumulative Net Flows since Program Announcement, Until Program End + 30 Days - At Last Price</tspan><tspan dy="0.42em">​</tspan></tspan></text></g><g class="g-xtitle"><text class="xtitle" x="350" y="460.3" text-anchor="middle" style="font-family: 'Open Sans', verdana, arial, sans-serif; font-size: 14px; fill: rgb(42, 63, 95); opacity: 1; font-weight: normal; white-space: pre;">Day</text></g><g class="g-ytitle"><text class="ytitle" transform="rotate(-90,24.340625000000003,260)" x="24.340625000000003" y="260" text-anchor="middle" style="font-family: 'Open Sans', verdana, arial, sans-serif; font-size: 14px; fill: rgb(42, 63, 95); opacity: 1; font-weight: normal; white-space: pre;">Cumulative Net Flows (USD)</text></g></g></svg>