<svg class="main-svg" xmlns="http://www.w3.org/2000/svg" xmlns:xlink="http://www.w3.org/1999/xlink" width="700" height="500" style="" viewBox="0 0 700 500"><rect x="0" y="0" width="700" height="500" style="fill: rgb(255, 255, 255); fill-opacity: 1;"/><defs id="defs-5130f0"><g class="clips"><clipPath id="clip5130f0xyplot" class="plotclip"><rect width="540" height="320"/></clipPath><clipPath class="axesclip" id="clip5130f0x"><rect x="80" y="0" width="540" height="500"/></clipPath><clipPath class="axesclip" id="clip5130f0y"><rect x="0" y="100" width="700" height="320"/></clipPath><clipPath class="axesclip" id="clip5130f0xy"><rect x="80" y="100" width="540" height="320"/></clipPath></g><g class="gradients"/><g class="patterns"/></defs><g class="bglayer"><rect class="bg" x="80" y="100" width="540" height="320" style="fill: rgb(229, 236, 246); fill-opacity: 1; stroke-width: 0;"/></g><g class="layer-below"><g class="imagelayer"/><g class="shapelayer"/></g><g class="cartesianlayer"><g class="subplot xy"><g class="layer-subplot"><g class="shapelayer"/><g class="imagelayer"/></g><g class="minor-gridlayer"><g class="x"/><g class="y"/></g><g class="gridlayer"><g class="x"><path class="xgrid crisp" transform="translate(155.19,0)" d="M0,100v320" style="stroke: rgb(255, 255, 255); stroke-opacity: 1; stroke-width: 1px;"/><path class="xgrid crisp" transform="translate(294.18,0)" d="M0,100v320" style="stroke: rgb(255, 255, 255); stroke-opacity: 1; stroke-width: 1px;"/><path class="xgrid crisp" transform="translate(428.61,0)" d="M0,100v320" style="stroke: rgb(255, 255, 255); stroke-opacity: 1; stroke-width: 1px;"/><path class="xgrid crisp" transform="translate(567.6,0)" d="M0,100v320" style="stroke: rgb(255, 255, 255); stroke-opacity: 1; stroke-width: 1px;"/></g><g class="y"><path class="ygrid crisp" transform="translate(0,382.97)" d="M80,0h540" style="stroke: rgb(255, 255, 255); stroke-opacity: 1; stroke-width: 1px;"/><path class="ygrid crisp" transform="translate(0,345.94)" d="M80,0h540" style="stroke: rgb(255, 255, 255); stroke-opacity: 1; stroke-width: 1px;"/><path class="ygrid crisp" transform="translate(0,308.9)" d="M80,0h540" style="stroke: rgb(255, 255, 255); stroke-opacity: 1; stroke-width: 1px;"/><path class="ygrid crisp" transform="translate(0,271.87)" d="M80,0h540" style="stroke: rgb(255, 255, 255); stroke-opacity: 1; stroke-width: 1px;"/><path class="ygrid crisp" transform="translate(0,234.84)" d="M80,0h540" style="stroke: rgb(255, 255, 255); stroke-opacity: 1; stroke-width: 1px;"/><path class="ygrid crisp" transform="translate(0,197.81)" d="M80,0h540" style="stroke: rgb(255, 255, 255); stroke-opacity: 1; stroke-width: 1px;"/><path class="ygrid crisp" transform="translate(0,160.78)" d="M80,0h540" style="stroke: rgb(255, 255, 255); stroke-opacity: 1; stroke-width: 1px;"/><path class="ygrid crisp" transform="translate(0,123.74)" d="M80,0h540" style="stroke: rgb(255, 255, 255); stroke-opacity: 1; stroke-width: 1px;"/></g></g><g class="zerolinelayer"><path class="yzl zl crisp" transform="translate(0,420)" d="M80,0h540" style="stroke: rgb(255, 255, 255); stroke-opacity: 1; stroke-width: 2px;"/></g><path class="xlines-below"/><path class="ylines-below"/><g class="overlines-below"/><g class="xaxislayer-below"/><g class="yaxislayer-below"/><g class="overaxes-below"/><g class="plot" transform="translate(80,100)" clip-path="url(#clip5130f0xyplot)"><g class="scatterlayer mlayer"><g class="trace scatter tracefeeba1" style="stroke-miterlimit: 2;"><g class="fills"><g><path class="js-fill" d="M540,320L0,320L0,319.8L2.28,295.63L4.56,286.06L6.84,279.75L9.11,286.61L11.39,272.79L13.67,270.98L15.95,273.75L18.23,268.91L22.78,249.7L25.06,224.78L27.34,225.61L29.62,220.91L31.9,220.21L34.18,225.07L36.46,229.04L38.73,228.9L41.01,226.52L43.29,225.57L47.85,224.58L50.13,228.4L52.41,228.35L54.68,227.45L56.96,226.12L59.24,231.48L61.52,219.13L63.8,213.92L66.08,212.56L68.35,208.35L72.91,196.13L75.19,192.48L77.47,196.97L79.75,197.79L86.58,181.4L88.86,186.44L91.14,186.43L93.42,206.19L95.7,226.61L97.97,221.56L102.53,220.97L104.81,222.5L109.37,219.71L111.65,220.34L113.92,223.15L116.2,220.98L118.48,220.8L120.76,225.21L123.04,224.37L125.32,220.99L129.87,213.87L132.15,214.07L134.43,212.58L136.71,213.25L138.99,216.84L141.27,215.07L143.54,210.31L145.82,207.98L150.38,217.38L152.66,216.86L154.94,219.4L157.22,227.83L159.49,232.56L161.77,230.97L164.05,229.7L166.33,223.58L168.61,224.61L170.89,222.57L173.16,217.19L175.44,218.59L180,225.48L182.28,224.56L184.56,224.24L186.84,224.98L189.11,221.75L191.39,222.39L193.67,209.46L195.95,209.74L198.23,210.85L200.51,210.3L202.79,209.37L205.06,207.56L207.34,209.44L209.62,208.08L216.46,204.79L218.73,201.06L225.57,198.27L227.85,212.58L230.13,213.42L232.41,208.02L234.68,205.38L236.96,205.41L239.24,199.63L241.52,198.63L243.8,180.37L246.08,170.63L248.35,164.68L250.63,161.74L252.91,163.53L255.19,170.36L257.47,185.52L259.75,178.73L264.3,201.33L266.58,182.34L268.86,191.4L271.14,189.83L273.42,186.57L275.7,185.86L280.25,177.91L282.53,209.87L284.81,210.71L287.09,203.54L289.37,195.42L291.65,196.65L296.2,191.23L298.48,193.79L300.76,147.72L303.04,150.44L305.32,152.05L307.6,159.04L309.87,149.28L312.15,154.87L314.43,136.57L316.71,128.89L318.99,112.46L321.27,119.25L323.54,102.86L325.82,101.58L328.1,105.55L330.38,86.69L332.66,91.02L334.94,93.74L337.22,90.72L339.49,109.56L341.77,96.56L344.05,88.97L348.61,90.48L350.89,83.41L353.16,84.61L355.44,84.25L360,83.69L362.28,78.39L364.56,123.68L366.84,123.64L369.11,113.32L371.39,121.26L373.67,127.13L375.95,125.58L378.23,119.96L380.51,110.44L382.79,105.01L385.06,102.85L387.34,63.9L389.62,77.53L391.9,78.09L394.18,70.27L396.46,58.04L398.73,59.51L401.01,60.66L403.29,60L405.57,58.89L407.85,60.16L410.13,59.26L412.41,60.77L414.68,37.15L416.96,31.92L419.24,30.6L421.52,39.6L423.8,42.29L426.08,42.86L430.63,40.3L432.91,28.44L435.19,23.15L437.47,32.85L439.75,33.71L442.03,19.62L444.3,17.26L446.58,17.14L448.86,16L451.14,24.85L453.42,27.3L455.7,28.46L457.98,36.87L460.25,34.93L462.53,35.24L464.81,45.78L469.37,46.14L471.65,46.32L473.92,45.09L476.2,34.6L480.76,31.91L483.04,32.52L487.6,31.72L489.87,35.73L492.15,25.3L494.43,26.45L496.71,28.33L498.99,31.85L501.27,30.75L503.54,43.86L505.82,44.42L508.1,43.53L512.66,43.08L514.94,46.5L519.49,47.78L521.77,50.07L524.05,54.04L526.33,54.59L528.61,54.16L530.89,54.61L533.17,57.41L535.44,56.15L537.72,57.93L540,69.75" style="fill: rgb(99, 110, 250); fill-opacity: 0.5; stroke-width: 0;"/></g></g><g class="errorbars"/><g class="lines"><path class="js-line" d="M0,319.8L2.28,295.63L4.56,286.06L6.84,279.75L9.11,286.61L11.39,272.79L13.67,270.98L15.95,273.75L18.23,268.91L22.78,249.7L25.06,224.78L27.34,225.61L29.62,220.91L31.9,220.21L34.18,225.07L36.46,229.04L38.73,228.9L41.01,226.52L43.29,225.57L47.85,224.58L50.13,228.4L52.41,228.35L54.68,227.45L56.96,226.12L59.24,231.48L61.52,219.13L63.8,213.92L66.08,212.56L68.35,208.35L72.91,196.13L75.19,192.48L77.47,196.97L79.75,197.79L86.58,181.4L88.86,186.44L91.14,186.43L93.42,206.19L95.7,226.61L97.97,221.56L102.53,220.97L104.81,222.5L109.37,219.71L111.65,220.34L113.92,223.15L116.2,220.98L118.48,220.8L120.76,225.21L123.04,224.37L125.32,220.99L129.87,213.87L132.15,214.07L134.43,212.58L136.71,213.25L138.99,216.84L141.27,215.07L143.54,210.31L145.82,207.98L150.38,217.38L152.66,216.86L154.94,219.4L157.22,227.83L159.49,232.56L161.77,230.97L164.05,229.7L166.33,223.58L168.61,224.61L170.89,222.57L173.16,217.19L175.44,218.59L180,225.48L182.28,224.56L184.56,224.24L186.84,224.98L189.11,221.75L191.39,222.39L193.67,209.46L195.95,209.74L198.23,210.85L200.51,210.3L202.79,209.37L205.06,207.56L207.34,209.44L209.62,208.08L216.46,204.79L218.73,201.06L225.57,198.27L227.85,212.58L230.13,213.42L232.41,208.02L234.68,205.38L236.96,205.41L239.24,199.63L241.52,198.63L243.8,180.37L246.08,170.63L248.35,164.68L250.63,161.74L252.91,163.53L255.19,170.36L257.47,185.52L259.75,178.73L264.3,201.33L266.58,182.34L268.86,191.4L271.14,189.83L273.42,186.57L275.7,185.86L280.25,177.91L282.53,209.87L284.81,210.71L287.09,203.54L289.37,195.42L291.65,196.65L296.2,191.23L298.48,193.79L300.76,147.72L303.04,150.44L305.32,152.05L307.6,159.04L309.87,149.28L312.15,154.87L314.43,136.57L316.71,128.89L318.99,112.46L321.27,119.25L323.54,102.86L325.82,101.58L328.1,105.55L330.38,86.69L332.66,91.02L334.94,93.74L337.22,90.72L339.49,109.56L341.77,96.56L344.05,88.97L348.61,90.48L350.89,83.41L353.16,84.61L355.44,84.25L360,83.69L362.28,78.39L364.56,123.68L366.84,123.64L369.11,113.32L371.39,121.26L373.67,127.13L375.95,125.58L378.23,119.96L380.51,110.44L382.79,105.01L385.06,102.85L387.34,63.9L389.62,77.53L391.9,78.09L394.18,70.27L396.46,58.04L398.73,59.51L401.01,60.66L403.29,60L405.57,58.89L407.85,60.16L410.13,59.26L412.41,60.77L414.68,37.15L416.96,31.92L419.24,30.6L421.52,39.6L423.8,42.29L426.08,42.86L430.63,40.3L432.91,28.44L435.19,23.15L437.47,32.85L439.75,33.71L442.03,19.62L444.3,17.26L446.58,17.14L448.86,16L451.14,24.85L453.42,27.3L455.7,28.46L457.98,36.87L460.25,34.93L462.53,35.24L464.81,45.78L469.37,46.14L471.65,46.32L473.92,45.09L476.2,34.6L480.76,31.91L483.04,32.52L487.6,31.72L489.87,35.73L492.15,25.3L494.43,26.45L496.71,28.33L498.99,31.85L501.27,30.75L503.54,43.86L505.82,44.42L508.1,43.53L512.66,43.08L514.94,46.5L519.49,47.78L521.77,50.07L524.05,54.04L526.33,54.59L528.61,54.16L530.89,54.61L533.17,57.41L535.44,56.15L537.72,57.93L540,69.75" style="vector-effect: none; fill: none; stroke: rgb(99, 110, 250); stroke-opacity: 1; stroke-width: 2px; opacity: 1;"/></g><g class="points"/><g class="text"/></g></g></g><g class="overplot"/><path class="xlines-above crisp" d="M0,0" style="fill: none;"/><path class="ylines-above crisp" d="M0,0" style="fill: none;"/><g class="overlines-above"/><g class="xaxislayer-above"><g class="xtick"><text text-anchor="middle" x="0" y="433" transform="translate(155.19,0)" style="font-family: 'Open Sans', verdana, arial, sans-serif; font-size: 12px; fill: rgb(42, 63, 95); fill-opacity: 1; white-space: pre; opacity: 1;">Nov 2022</text></g><g class="xtick"><text text-anchor="middle" x="0" y="433" style="font-family: 'Open Sans', verdana, arial, sans-serif; font-size: 12px; fill: rgb(42, 63, 95); fill-opacity: 1; white-space: pre; opacity: 1;" transform="translate(294.18,0)">Jan 2023</text></g><g class="xtick"><text text-anchor="middle" x="0" y="433" style="font-family: 'Open Sans', verdana, arial, sans-serif; font-size: 12px; fill: rgb(42, 63, 95); fill-opacity: 1; white-space: pre; opacity: 1;" transform="translate(428.61,0)">Mar 2023</text></g><g class="xtick"><text text-anchor="middle" x="0" y="433" style="font-family: 'Open Sans', verdana, arial, sans-serif; font-size: 12px; fill: rgb(42, 63, 95); fill-opacity: 1; white-space: pre; opacity: 1;" transform="translate(567.6,0)">May 2023</text></g></g><g class="yaxislayer-above"><g class="ytick"><text text-anchor="end" x="79" y="4.199999999999999" transform="translate(0,420)" style="font-family: 'Open Sans', verdana, arial, sans-serif; font-size: 12px; fill: rgb(42, 63, 95); fill-opacity: 1; white-space: pre; opacity: 1;">$0</text></g><g class="ytick"><text text-anchor="end" x="79" y="4.199999999999999" style="font-family: 'Open Sans', verdana, arial, sans-serif; font-size: 12px; fill: rgb(42, 63, 95); fill-opacity: 1; white-space: pre; opacity: 1;" transform="translate(0,382.97)">$5M</text></g><g class="ytick"><text text-anchor="end" x="79" y="4.199999999999999" style="font-family: 'Open Sans', verdana, arial, sans-serif; font-size: 12px; fill: rgb(42, 63, 95); fill-opacity: 1; white-space: pre; opacity: 1;" transform="translate(0,345.94)">$10M</text></g><g class="ytick"><text text-anchor="end" x="79" y="4.199999999999999" style="font-family: 'Open Sans', verdana, arial, sans-serif; font-size: 12px; fill: rgb(42, 63, 95); fill-opacity: 1; white-space: pre; opacity: 1;" transform="translate(0,308.9)">$15M</text></g><g class="ytick"><text text-anchor="end" x="79" y="4.199999999999999" style="font-family: 'Open Sans', verdana, arial, sans-serif; font-size: 12px; fill: rgb(42, 63, 95); fill-opacity: 1; white-space: pre; opacity: 1;" transform="translate(0,271.87)">$20M</text></g><g class="ytick"><text text-anchor="end" x="79" y="4.199999999999999" style="font-family: 'Open Sans', verdana, arial, sans-serif; font-size: 12px; fill: rgb(42, 63, 95); fill-opacity: 1; white-space: pre; opacity: 1;" transform="translate(0,234.84)">$25M</text></g><g class="ytick"><text text-anchor="end" x="79" y="4.199999999999999" style="font-family: 'Open Sans', verdana, arial, sans-serif; font-size: 12px; fill: rgb(42, 63, 95); fill-opacity: 1; white-space: pre; opacity: 1;" transform="translate(0,197.81)">$30M</text></g><g class="ytick"><text text-anchor="end" x="79" y="4.199999999999999" style="font-family: 'Open Sans', verdana, arial, sans-serif; font-size: 12px; fill: rgb(42, 63, 95); fill-opacity: 1; white-space: pre; opacity: 1;" transform="translate(0,160.78)">$35M</text></g><g class="ytick"><text text-anchor="end" x="79" y="4.199999999999999" style="font-family: 'Open Sans', verdana, arial, sans-serif; font-size: 12px; fill: rgb(42, 63, 95); fill-opacity: 1; white-space: pre; opacity: 1;" transform="translate(0,123.74)">$40M</text></g></g><g class="overaxes-above"/></g></g><g class="polarlayer"/><g class="smithlayer"/><g class="ternarylayer"/><g class="geolayer"/><g class="funnelarealayer"/><g class="pielayer"/><g class="iciclelayer"/><g class="treemaplayer"/><g class="sunburstlayer"/><g class="glimages"/><defs id="topdefs-5130f0"><g class="clips"/></defs><g class="layer-above"><g class="imagelayer"/><g class="shapelayer"/></g><g class="infolayer"><g class="g-gtitle"><text class="gtitle" x="35" y="50" text-anchor="start" dy="0em" style="font-family: 'Open Sans', verdana, arial, sans-serif; font-size: 17px; fill: rgb(42, 63, 95); opacity: 1; font-weight: normal; white-space: pre;"><tspan class="line" dy="0em" x="35" y="50">Beethoven X</tspan><tspan class="line" dy="1.3em" x="35" y="50">​<tspan style="font-size:70%" dy="-0.6em">Cumulative Net Flows since Program Announcement, Until Program End + 30 Days - At Last Price</tspan><tspan dy="0.42em">​</tspan></tspan></text></g><g class="g-xtitle"><text class="xtitle" x="350" y="460.3" text-anchor="middle" style="font-family: 'Open Sans', verdana, arial, sans-serif; font-size: 14px; fill: rgb(42, 63, 95); opacity: 1; font-weight: normal; white-space: pre;">Day</text></g><g class="g-ytitle"><text class="ytitle" transform="rotate(-90,24.668750000000003,260)" x="24.668750000000003" y="260" text-anchor="middle" style="font-family: 'Open Sans', verdana, arial, sans-serif; font-size: 14px; fill: rgb(42, 63, 95); opacity: 1; font-weight: normal; white-space: pre;">Cumulative Net Flows (USD)</text></g></g></svg>