<svg class="main-svg" xmlns="http://www.w3.org/2000/svg" xmlns:xlink="http://www.w3.org/1999/xlink" width="700" height="500" style="" viewBox="0 0 700 500"><rect x="0" y="0" width="700" height="500" style="fill: rgb(255, 255, 255); fill-opacity: 1;"/><defs id="defs-75ab2c"><g class="clips"><clipPath id="clip75ab2cxyplot" class="plotclip"><rect width="540" height="320"/></clipPath><clipPath class="axesclip" id="clip75ab2cx"><rect x="80" y="0" width="540" height="500"/></clipPath><clipPath class="axesclip" id="clip75ab2cy"><rect x="0" y="100" width="700" height="320"/></clipPath><clipPath class="axesclip" id="clip75ab2cxy"><rect x="80" y="100" width="540" height="320"/></clipPath></g><g class="gradients"/><g class="patterns"/></defs><g class="bglayer"><rect class="bg" x="80" y="100" width="540" height="320" style="fill: rgb(229, 236, 246); fill-opacity: 1; stroke-width: 0;"/></g><g class="layer-below"><g class="imagelayer"/><g class="shapelayer"/></g><g class="cartesianlayer"><g class="subplot xy"><g class="layer-subplot"><g class="shapelayer"/><g class="imagelayer"/></g><g class="minor-gridlayer"><g class="x"/><g class="y"/></g><g class="gridlayer"><g class="x"><path class="xgrid crisp" transform="translate(146.72,0)" d="M0,100v320" style="stroke: rgb(255, 255, 255); stroke-opacity: 1; stroke-width: 1px;"/><path class="xgrid crisp" transform="translate(269.73,0)" d="M0,100v320" style="stroke: rgb(255, 255, 255); stroke-opacity: 1; stroke-width: 1px;"/><path class="xgrid crisp" transform="translate(396.91,0)" d="M0,100v320" style="stroke: rgb(255, 255, 255); stroke-opacity: 1; stroke-width: 1px;"/><path class="xgrid crisp" transform="translate(524.0899999999999,0)" d="M0,100v320" style="stroke: rgb(255, 255, 255); stroke-opacity: 1; stroke-width: 1px;"/></g><g class="y"><path class="ygrid crisp" transform="translate(0,339.7)" d="M80,0h540" style="stroke: rgb(255, 255, 255); stroke-opacity: 1; stroke-width: 1px;"/><path class="ygrid crisp" transform="translate(0,292.87)" d="M80,0h540" style="stroke: rgb(255, 255, 255); stroke-opacity: 1; stroke-width: 1px;"/><path class="ygrid crisp" transform="translate(0,246.04)" d="M80,0h540" style="stroke: rgb(255, 255, 255); stroke-opacity: 1; stroke-width: 1px;"/><path class="ygrid crisp" transform="translate(0,199.20999999999998)" d="M80,0h540" style="stroke: rgb(255, 255, 255); stroke-opacity: 1; stroke-width: 1px;"/><path class="ygrid crisp" transform="translate(0,152.38)" d="M80,0h540" style="stroke: rgb(255, 255, 255); stroke-opacity: 1; stroke-width: 1px;"/><path class="ygrid crisp" transform="translate(0,105.55)" d="M80,0h540" style="stroke: rgb(255, 255, 255); stroke-opacity: 1; stroke-width: 1px;"/></g></g><g class="zerolinelayer"><path class="yzl zl crisp" transform="translate(0,386.53)" d="M80,0h540" style="stroke: rgb(255, 255, 255); stroke-opacity: 1; stroke-width: 2px;"/></g><path class="xlines-below"/><path class="ylines-below"/><g class="overlines-below"/><g class="xaxislayer-below"/><g class="yaxislayer-below"/><g class="overaxes-below"/><g class="plot" transform="translate(80,100)" clip-path="url(#clip75ab2cxyplot)"><g class="scatterlayer mlayer"><g class="trace scatter trace219c04" style="stroke-miterlimit: 2;"><g class="fills"><g><path class="js-fill" d="M540,286.53L0,286.53L0,292.96L2.08,304L4.17,290.61L6.25,286.83L8.34,254.22L10.42,260.76L12.51,262.27L14.59,260.32L16.68,247.5L18.76,244.07L20.85,242.28L25.02,233.65L27.1,231.7L29.19,238.96L31.27,218.41L33.36,221.2L35.44,222.28L37.53,151.5L39.61,154.74L41.7,154.76L43.78,148.92L45.87,154.88L47.95,142.18L50.04,144.12L52.12,143.78L56.29,143.34L58.38,154.05L60.46,153.72L62.55,155.07L64.63,153.92L66.72,102.17L68.8,119.61L70.89,120.18L72.97,115.23L75.06,103.44L77.14,114.81L79.23,117.76L81.31,118.23L83.4,117.14L85.48,111.47L87.57,112.4L89.65,108.2L91.74,112.89L97.99,61.3L100.08,59.91L102.16,57.5L104.25,36.64L106.33,40.57L108.42,25.97L110.5,27.22L112.59,24.13L114.67,26.89L116.76,36.93L118.84,31.05L120.93,33.97L123.01,34.29L125.1,31.85L127.18,25.05L129.27,30.67L131.35,28.28L133.44,17.04L135.52,18.82L137.61,16.96L139.69,23.76L141.78,16L145.95,27.78L148.03,47.68L150.12,135.07L152.2,174.25L154.29,181.86L156.37,181.98L158.46,182.01L160.54,178.68L164.71,129.63L166.8,124.42L168.88,122.48L170.97,116.17L173.05,119.04L175.14,131.95L177.22,127.53L179.31,125.67L181.39,126.69L183.47,126.35L185.56,131.43L187.64,133.69L189.73,176.26L191.81,177.68L193.9,179.62L195.98,183.43L198.07,185.3L200.15,188.55L202.24,172.28L204.32,186.35L206.41,182.4L208.49,163.49L210.58,166.81L212.66,177.97L214.75,178.42L216.83,176.41L221,154.68L223.09,147.47L225.17,138.9L227.26,158.61L229.34,150.17L231.43,156.2L233.51,151.66L235.6,158.61L237.68,152.72L239.77,154.59L241.85,143.54L243.94,141.1L246.02,155.59L248.11,156.62L250.19,166.88L252.28,165.63L254.36,168.46L256.45,170.01L258.53,161.53L260.62,160.45L262.7,153.62L264.79,155.96L268.96,152.18L271.04,158.22L275.21,154.78L277.3,156.89L281.47,152.76L283.55,157.43L285.64,157.67L287.72,161.41L289.81,162.69L291.89,172.4L293.98,167.72L296.06,170.94L298.15,181.56L300.23,181.78L302.32,185.11L304.4,184.85L306.49,178.85L308.57,178.59L310.66,171.34L312.74,172.28L314.83,171.58L316.91,173.97L319,176.85L321.08,176.45L323.17,164.14L325.25,181.38L327.34,175.73L329.42,180.59L331.51,177.24L333.59,179.07L335.68,213.7L337.76,211.67L339.85,172.21L341.93,173.86L344.02,174.36L346.1,179.99L348.19,186L350.27,175.85L352.36,175.74L354.44,178.36L356.53,169.25L358.61,172.15L360.69,176.05L362.78,167.44L364.86,162.7L366.95,172.68L369.03,174.39L371.12,169.6L373.2,172.19L375.29,169.17L383.63,168.1L385.71,157.59L387.8,144.69L389.88,144.31L394.05,130.3L396.14,142.38L398.22,135.23L400.31,135.21L402.39,124.65L404.48,129.45L406.56,128.38L408.65,132.85L410.73,137.55L412.82,157.72L414.9,162.29L416.99,161.84L421.16,161.17L423.24,156.52L425.33,141.34L427.41,157.53L429.5,152.8L431.58,153.35L435.75,152.79L437.84,147.37L439.92,155.64L442.01,82.65L444.09,81.02L446.18,81.13L448.26,78.69L450.35,77.82L452.43,75.79L454.52,78.72L456.6,88.64L458.69,94.17L460.77,92.01L462.86,94.27L464.94,90.21L467.03,89.16L469.11,81.91L471.2,68.69L473.28,76.75L475.37,76.23L477.45,76.55L479.54,77.98L481.62,77.75L483.71,56.93L485.79,60.28L487.88,59.98L489.96,62.34L492.05,53.88L494.13,59.82L496.22,58.55L498.3,60.6L500.39,87.78L502.47,107.89L504.56,96.5L506.64,127.91L508.73,119.29L510.81,133.39L512.9,136.94L514.98,159.18L517.07,147.54L519.15,149.19L521.24,146.47L523.32,145.77L525.41,147.16L527.49,148.57L529.58,152.66L531.66,151.46L533.75,152.72L535.83,155.07L537.92,161.62L540,165.85" style="fill: rgb(99, 110, 250); fill-opacity: 0.5; stroke-width: 0;"/></g></g><g class="errorbars"/><g class="lines"><path class="js-line" d="M0,292.96L2.08,304L4.17,290.61L6.25,286.83L8.34,254.22L10.42,260.76L12.51,262.27L14.59,260.32L16.68,247.5L18.76,244.07L20.85,242.28L25.02,233.65L27.1,231.7L29.19,238.96L31.27,218.41L33.36,221.2L35.44,222.28L37.53,151.5L39.61,154.74L41.7,154.76L43.78,148.92L45.87,154.88L47.95,142.18L50.04,144.12L52.12,143.78L56.29,143.34L58.38,154.05L60.46,153.72L62.55,155.07L64.63,153.92L66.72,102.17L68.8,119.61L70.89,120.18L72.97,115.23L75.06,103.44L77.14,114.81L79.23,117.76L81.31,118.23L83.4,117.14L85.48,111.47L87.57,112.4L89.65,108.2L91.74,112.89L97.99,61.3L100.08,59.91L102.16,57.5L104.25,36.64L106.33,40.57L108.42,25.97L110.5,27.22L112.59,24.13L114.67,26.89L116.76,36.93L118.84,31.05L120.93,33.97L123.01,34.29L125.1,31.85L127.18,25.05L129.27,30.67L131.35,28.28L133.44,17.04L135.52,18.82L137.61,16.96L139.69,23.76L141.78,16L145.95,27.78L148.03,47.68L150.12,135.07L152.2,174.25L154.29,181.86L156.37,181.98L158.46,182.01L160.54,178.68L164.71,129.63L166.8,124.42L168.88,122.48L170.97,116.17L173.05,119.04L175.14,131.95L177.22,127.53L179.31,125.67L181.39,126.69L183.47,126.35L185.56,131.43L187.64,133.69L189.73,176.26L191.81,177.68L193.9,179.62L195.98,183.43L198.07,185.3L200.15,188.55L202.24,172.28L204.32,186.35L206.41,182.4L208.49,163.49L210.58,166.81L212.66,177.97L214.75,178.42L216.83,176.41L221,154.68L223.09,147.47L225.17,138.9L227.26,158.61L229.34,150.17L231.43,156.2L233.51,151.66L235.6,158.61L237.68,152.72L239.77,154.59L241.85,143.54L243.94,141.1L246.02,155.59L248.11,156.62L250.19,166.88L252.28,165.63L254.36,168.46L256.45,170.01L258.53,161.53L260.62,160.45L262.7,153.62L264.79,155.96L268.96,152.18L271.04,158.22L275.21,154.78L277.3,156.89L281.47,152.76L283.55,157.43L285.64,157.67L287.72,161.41L289.81,162.69L291.89,172.4L293.98,167.72L296.06,170.94L298.15,181.56L300.23,181.78L302.32,185.11L304.4,184.85L306.49,178.85L308.57,178.59L310.66,171.34L312.74,172.28L314.83,171.58L316.91,173.97L319,176.85L321.08,176.45L323.17,164.14L325.25,181.38L327.34,175.73L329.42,180.59L331.51,177.24L333.59,179.07L335.68,213.7L337.76,211.67L339.85,172.21L341.93,173.86L344.02,174.36L346.1,179.99L348.19,186L350.27,175.85L352.36,175.74L354.44,178.36L356.53,169.25L358.61,172.15L360.69,176.05L362.78,167.44L364.86,162.7L366.95,172.68L369.03,174.39L371.12,169.6L373.2,172.19L375.29,169.17L383.63,168.1L385.71,157.59L387.8,144.69L389.88,144.31L394.05,130.3L396.14,142.38L398.22,135.23L400.31,135.21L402.39,124.65L404.48,129.45L406.56,128.38L408.65,132.85L410.73,137.55L412.82,157.72L414.9,162.29L416.99,161.84L421.16,161.17L423.24,156.52L425.33,141.34L427.41,157.53L429.5,152.8L431.58,153.35L435.75,152.79L437.84,147.37L439.92,155.64L442.01,82.65L444.09,81.02L446.18,81.13L448.26,78.69L450.35,77.82L452.43,75.79L454.52,78.72L456.6,88.64L458.69,94.17L460.77,92.01L462.86,94.27L464.94,90.21L467.03,89.16L469.11,81.91L471.2,68.69L473.28,76.75L475.37,76.23L477.45,76.55L479.54,77.98L481.62,77.75L483.71,56.93L485.79,60.28L487.88,59.98L489.96,62.34L492.05,53.88L494.13,59.82L496.22,58.55L498.3,60.6L500.39,87.78L502.47,107.89L504.56,96.5L506.64,127.91L508.73,119.29L510.81,133.39L512.9,136.94L514.98,159.18L517.07,147.54L519.15,149.19L521.24,146.47L523.32,145.77L525.41,147.16L527.49,148.57L529.58,152.66L531.66,151.46L533.75,152.72L535.83,155.07L537.92,161.62L540,165.85" style="vector-effect: none; fill: none; stroke: rgb(99, 110, 250); stroke-opacity: 1; stroke-width: 2px; opacity: 1;"/></g><g class="points"/><g class="text"/></g></g></g><g class="overplot"/><path class="xlines-above crisp" d="M0,0" style="fill: none;"/><path class="ylines-above crisp" d="M0,0" style="fill: none;"/><g class="overlines-above"/><g class="xaxislayer-above"><g class="xtick"><text text-anchor="middle" x="0" y="433" transform="translate(146.72,0)" style="font-family: 'Open Sans', verdana, arial, sans-serif; font-size: 12px; fill: rgb(42, 63, 95); fill-opacity: 1; white-space: pre; opacity: 1;">Jan 2023</text></g><g class="xtick"><text text-anchor="middle" x="0" y="433" style="font-family: 'Open Sans', verdana, arial, sans-serif; font-size: 12px; fill: rgb(42, 63, 95); fill-opacity: 1; white-space: pre; opacity: 1;" transform="translate(269.73,0)">Mar 2023</text></g><g class="xtick"><text text-anchor="middle" x="0" y="433" style="font-family: 'Open Sans', verdana, arial, sans-serif; font-size: 12px; fill: rgb(42, 63, 95); fill-opacity: 1; white-space: pre; opacity: 1;" transform="translate(396.91,0)">May 2023</text></g><g class="xtick"><text text-anchor="middle" x="0" y="433" style="font-family: 'Open Sans', verdana, arial, sans-serif; font-size: 12px; fill: rgb(42, 63, 95); fill-opacity: 1; white-space: pre; opacity: 1;" transform="translate(524.0899999999999,0)">Jul 2023</text></g></g><g class="yaxislayer-above"><g class="ytick"><text text-anchor="end" x="79" y="4.199999999999999" transform="translate(0,386.53)" style="font-family: 'Open Sans', verdana, arial, sans-serif; font-size: 12px; fill: rgb(42, 63, 95); fill-opacity: 1; white-space: pre; opacity: 1;">$0</text></g><g class="ytick"><text text-anchor="end" x="79" y="4.199999999999999" style="font-family: 'Open Sans', verdana, arial, sans-serif; font-size: 12px; fill: rgb(42, 63, 95); fill-opacity: 1; white-space: pre; opacity: 1;" transform="translate(0,339.7)">$2M</text></g><g class="ytick"><text text-anchor="end" x="79" y="4.199999999999999" style="font-family: 'Open Sans', verdana, arial, sans-serif; font-size: 12px; fill: rgb(42, 63, 95); fill-opacity: 1; white-space: pre; opacity: 1;" transform="translate(0,292.87)">$4M</text></g><g class="ytick"><text text-anchor="end" x="79" y="4.199999999999999" style="font-family: 'Open Sans', verdana, arial, sans-serif; font-size: 12px; fill: rgb(42, 63, 95); fill-opacity: 1; white-space: pre; opacity: 1;" transform="translate(0,246.04)">$6M</text></g><g class="ytick"><text text-anchor="end" x="79" y="4.199999999999999" style="font-family: 'Open Sans', verdana, arial, sans-serif; font-size: 12px; fill: rgb(42, 63, 95); fill-opacity: 1; white-space: pre; opacity: 1;" transform="translate(0,199.20999999999998)">$8M</text></g><g class="ytick"><text text-anchor="end" x="79" y="4.199999999999999" style="font-family: 'Open Sans', verdana, arial, sans-serif; font-size: 12px; fill: rgb(42, 63, 95); fill-opacity: 1; white-space: pre; opacity: 1;" transform="translate(0,152.38)">$10M</text></g><g class="ytick"><text text-anchor="end" x="79" y="4.199999999999999" style="font-family: 'Open Sans', verdana, arial, sans-serif; font-size: 12px; fill: rgb(42, 63, 95); fill-opacity: 1; white-space: pre; opacity: 1;" transform="translate(0,105.55)">$12M</text></g></g><g class="overaxes-above"/></g></g><g class="polarlayer"/><g class="smithlayer"/><g class="ternarylayer"/><g class="geolayer"/><g class="funnelarealayer"/><g class="pielayer"/><g class="iciclelayer"/><g class="treemaplayer"/><g class="sunburstlayer"/><g class="glimages"/><defs id="topdefs-75ab2c"><g class="clips"/></defs><g class="layer-above"><g class="imagelayer"/><g class="shapelayer"/></g><g class="infolayer"><g class="g-gtitle"><text class="gtitle" x="35" y="50" text-anchor="start" dy="0em" style="font-family: 'Open Sans', verdana, arial, sans-serif; font-size: 17px; fill: rgb(42, 63, 95); opacity: 1; font-weight: normal; white-space: pre;"><tspan class="line" dy="0em" x="35" y="50">Dforce</tspan><tspan class="line" dy="1.3em" x="35" y="50">​<tspan style="font-size:70%" dy="-0.6em">Cumulative Net Flows since Program Announcement, Until Program End + 30 Days - At Last Price</tspan><tspan dy="0.42em">​</tspan></tspan></text></g><g class="g-xtitle"><text class="xtitle" x="350" y="460.3" text-anchor="middle" style="font-family: 'Open Sans', verdana, arial, sans-serif; font-size: 14px; fill: rgb(42, 63, 95); opacity: 1; font-weight: normal; white-space: pre;">Day</text></g><g class="g-ytitle"><text class="ytitle" transform="rotate(-90,24.668750000000003,260)" x="24.668750000000003" y="260" text-anchor="middle" style="font-family: 'Open Sans', verdana, arial, sans-serif; font-size: 14px; fill: rgb(42, 63, 95); opacity: 1; font-weight: normal; white-space: pre;">Cumulative Net Flows (USD)</text></g></g></svg>