<svg class="main-svg" xmlns="http://www.w3.org/2000/svg" xmlns:xlink="http://www.w3.org/1999/xlink" width="700" height="500" style="" viewBox="0 0 700 500"><rect x="0" y="0" width="700" height="500" style="fill: rgb(255, 255, 255); fill-opacity: 1;"/><defs id="defs-af2bc9"><g class="clips"><clipPath id="clipaf2bc9xyplot" class="plotclip"><rect width="540" height="320"/></clipPath><clipPath class="axesclip" id="clipaf2bc9x"><rect x="80" y="0" width="540" height="500"/></clipPath><clipPath class="axesclip" id="clipaf2bc9y"><rect x="0" y="100" width="700" height="320"/></clipPath><clipPath class="axesclip" id="clipaf2bc9xy"><rect x="80" y="100" width="540" height="320"/></clipPath></g><g class="gradients"/><g class="patterns"/></defs><g class="bglayer"><rect class="bg" x="80" y="100" width="540" height="320" style="fill: rgb(229, 236, 246); fill-opacity: 1; stroke-width: 0;"/></g><g class="layer-below"><g class="imagelayer"/><g class="shapelayer"/></g><g class="cartesianlayer"><g class="subplot xy"><g class="layer-subplot"><g class="shapelayer"/><g class="imagelayer"/></g><g class="minor-gridlayer"><g class="x"/><g class="y"/></g><g class="gridlayer"><g class="x"><path class="xgrid crisp" transform="translate(141.6,0)" d="M0,100v320" style="stroke: rgb(255, 255, 255); stroke-opacity: 1; stroke-width: 1px;"/><path class="xgrid crisp" transform="translate(266.84000000000003,0)" d="M0,100v320" style="stroke: rgb(255, 255, 255); stroke-opacity: 1; stroke-width: 1px;"/><path class="xgrid crisp" transform="translate(392.09,0)" d="M0,100v320" style="stroke: rgb(255, 255, 255); stroke-opacity: 1; stroke-width: 1px;"/><path class="xgrid crisp" transform="translate(513.23,0)" d="M0,100v320" style="stroke: rgb(255, 255, 255); stroke-opacity: 1; stroke-width: 1px;"/></g><g class="y"><path class="ygrid crisp" transform="translate(0,381.78)" d="M80,0h540" style="stroke: rgb(255, 255, 255); stroke-opacity: 1; stroke-width: 1px;"/><path class="ygrid crisp" transform="translate(0,343.56)" d="M80,0h540" style="stroke: rgb(255, 255, 255); stroke-opacity: 1; stroke-width: 1px;"/><path class="ygrid crisp" transform="translate(0,305.34000000000003)" d="M80,0h540" style="stroke: rgb(255, 255, 255); stroke-opacity: 1; stroke-width: 1px;"/><path class="ygrid crisp" transform="translate(0,267.12)" d="M80,0h540" style="stroke: rgb(255, 255, 255); stroke-opacity: 1; stroke-width: 1px;"/><path class="ygrid crisp" transform="translate(0,228.91)" d="M80,0h540" style="stroke: rgb(255, 255, 255); stroke-opacity: 1; stroke-width: 1px;"/><path class="ygrid crisp" transform="translate(0,190.69)" d="M80,0h540" style="stroke: rgb(255, 255, 255); stroke-opacity: 1; stroke-width: 1px;"/><path class="ygrid crisp" transform="translate(0,152.47)" d="M80,0h540" style="stroke: rgb(255, 255, 255); stroke-opacity: 1; stroke-width: 1px;"/><path class="ygrid crisp" transform="translate(0,114.25)" d="M80,0h540" style="stroke: rgb(255, 255, 255); stroke-opacity: 1; stroke-width: 1px;"/></g></g><g class="zerolinelayer"><path class="yzl zl crisp" transform="translate(0,420)" d="M80,0h540" style="stroke: rgb(255, 255, 255); stroke-opacity: 1; stroke-width: 2px;"/></g><path class="xlines-below"/><path class="ylines-below"/><g class="overlines-below"/><g class="xaxislayer-below"/><g class="yaxislayer-below"/><g class="overaxes-below"/><g class="plot" transform="translate(80,100)" clip-path="url(#clipaf2bc9xyplot)"><g class="scatterlayer mlayer"><g class="trace scatter tracec6f6c5" style="stroke-miterlimit: 2;"><g class="fills"><g><path class="js-fill" d="M540,320L0,320L0,319.62L2.05,284.74L4.11,201.55L6.16,166.12L8.21,157.49L10.27,143.96L12.32,121.83L14.37,110.42L16.43,55.92L20.53,50.79L22.59,34.11L24.64,28.12L26.69,26.48L28.75,18.14L30.8,40.94L32.85,16L34.9,16.55L36.96,17.33L39.01,29.64L43.12,35.69L45.17,37.44L47.22,46.39L49.28,47.72L51.33,41.44L53.38,40.97L55.44,42.54L57.49,47.01L59.54,48.02L61.6,45.38L63.65,45.64L65.7,59.33L69.81,59.22L71.86,61.22L73.92,63.22L75.97,69.26L78.02,70.23L80.08,81.7L82.13,90.46L84.18,95.79L86.24,103.29L88.29,113.72L90.34,118.58L92.4,109.4L94.45,65.16L96.5,63.59L98.56,51.21L100.61,54.57L102.66,52.46L104.71,52.01L106.77,61.89L108.82,40.4L110.87,37.16L112.93,28.5L114.98,27.43L117.03,29.57L119.09,34.09L121.14,32.94L125.25,26.86L127.3,27.02L129.35,26.49L131.41,32.4L135.51,38.1L137.57,33.96L139.62,31.84L141.67,40.94L143.73,46.33L145.78,44.71L147.83,43.49L149.89,46.39L151.94,45.08L153.99,40.56L156.05,72.18L158.1,80.23L162.21,83.1L164.26,84.06L166.31,119.61L168.37,117.05L172.47,129.39L174.52,156.07L176.58,181.48L178.63,174.45L180.68,148.55L182.74,149.44L184.79,154.69L186.84,153.7L190.95,158.13L193,151.16L195.06,153.94L197.11,149.61L199.16,149.38L201.22,144.38L203.27,146.83L205.32,156.32L207.38,156.14L209.43,146.18L211.48,151.23L213.54,149.97L215.59,177.94L217.64,179.59L219.7,179.94L221.75,179.27L223.8,168.87L225.86,165.07L227.91,161.79L229.96,157.02L232.02,155.02L234.07,167.19L236.12,173.29L238.17,173.58L240.23,176.03L242.28,176.69L244.33,169.97L246.39,177.68L248.44,187.19L250.49,186.5L252.55,176.51L254.6,174.49L256.65,178.15L258.71,174.65L260.76,173.87L262.81,171.39L264.87,174.28L266.92,183.92L268.97,183.19L271.03,184.21L273.08,186.03L275.13,190.59L279.24,181.95L281.29,183.6L283.35,180.76L285.4,180.46L287.45,177.85L289.51,191.1L291.56,194.34L293.61,195.37L295.67,196.72L297.72,197.03L301.83,193.94L303.88,196.54L305.93,195.86L307.98,196L310.04,205.17L312.09,205.42L314.14,202.69L316.2,203.99L318.25,204.46L320.3,208.75L322.36,210.01L324.41,207.15L330.57,212.3L332.62,215.9L334.68,217.36L336.73,191.52L338.78,191.66L340.84,194.34L342.89,191.72L344.94,190.79L351.1,180.94L353.16,186.97L355.21,183.55L357.26,182.62L359.32,174.19L361.37,171.54L363.42,174.77L365.48,162.36L367.53,169.4L369.58,164.05L371.63,168.41L373.69,163.39L375.74,166.44L377.79,163.43L379.85,162.57L381.9,163.95L383.95,172.78L386.01,174.9L390.11,173.73L392.17,170.14L394.22,168.24L396.27,173.24L398.33,170.01L400.38,171.45L402.43,176.35L404.49,176.78L406.54,179.34L408.59,185.61L412.7,184.15L414.75,186.3L418.86,185.3L420.91,182.26L422.97,181.09L425.02,173.18L427.07,172.41L429.13,176.01L431.18,173.8L433.23,175.61L437.34,178.88L439.39,177.91L441.44,176.69L443.5,181.6L447.6,184.55L449.66,183.32L451.71,183.14L453.76,195.62L455.82,199.9L457.87,201.75L459.92,209.33L461.98,207.11L464.03,219.82L466.08,220.26L468.14,217.01L470.19,218.14L472.24,221.93L474.3,223.58L476.35,224.6L478.4,226.72L480.46,231.12L482.51,218.97L484.56,217.5L486.62,218.81L488.67,217.97L490.72,219.86L492.78,224.39L494.83,235.5L496.88,231.64L498.94,231.4L503.04,227.8L505.1,231.48L507.15,232.33L509.2,231.31L511.25,232.64L513.31,230.07L515.36,230.37L517.41,231.48L523.57,233.1L525.63,232.8L527.68,231.61L529.73,233.71L533.84,232.2L535.89,229.93L537.95,227.43L540,237.53" style="fill: rgb(99, 110, 250); fill-opacity: 0.5; stroke-width: 0;"/></g></g><g class="errorbars"/><g class="lines"><path class="js-line" d="M0,319.62L2.05,284.74L4.11,201.55L6.16,166.12L8.21,157.49L10.27,143.96L12.32,121.83L14.37,110.42L16.43,55.92L20.53,50.79L22.59,34.11L24.64,28.12L26.69,26.48L28.75,18.14L30.8,40.94L32.85,16L34.9,16.55L36.96,17.33L39.01,29.64L43.12,35.69L45.17,37.44L47.22,46.39L49.28,47.72L51.33,41.44L53.38,40.97L55.44,42.54L57.49,47.01L59.54,48.02L61.6,45.38L63.65,45.64L65.7,59.33L69.81,59.22L71.86,61.22L73.92,63.22L75.97,69.26L78.02,70.23L80.08,81.7L82.13,90.46L84.18,95.79L86.24,103.29L88.29,113.72L90.34,118.58L92.4,109.4L94.45,65.16L96.5,63.59L98.56,51.21L100.61,54.57L102.66,52.46L104.71,52.01L106.77,61.89L108.82,40.4L110.87,37.16L112.93,28.5L114.98,27.43L117.03,29.57L119.09,34.09L121.14,32.94L125.25,26.86L127.3,27.02L129.35,26.49L131.41,32.4L135.51,38.1L137.57,33.96L139.62,31.84L141.67,40.94L143.73,46.33L145.78,44.71L147.83,43.49L149.89,46.39L151.94,45.08L153.99,40.56L156.05,72.18L158.1,80.23L162.21,83.1L164.26,84.06L166.31,119.61L168.37,117.05L172.47,129.39L174.52,156.07L176.58,181.48L178.63,174.45L180.68,148.55L182.74,149.44L184.79,154.69L186.84,153.7L190.95,158.13L193,151.16L195.06,153.94L197.11,149.61L199.16,149.38L201.22,144.38L203.27,146.83L205.32,156.32L207.38,156.14L209.43,146.18L211.48,151.23L213.54,149.97L215.59,177.94L217.64,179.59L219.7,179.94L221.75,179.27L223.8,168.87L225.86,165.07L227.91,161.79L229.96,157.02L232.02,155.02L234.07,167.19L236.12,173.29L238.17,173.58L240.23,176.03L242.28,176.69L244.33,169.97L246.39,177.68L248.44,187.19L250.49,186.5L252.55,176.51L254.6,174.49L256.65,178.15L258.71,174.65L260.76,173.87L262.81,171.39L264.87,174.28L266.92,183.92L268.97,183.19L271.03,184.21L273.08,186.03L275.13,190.59L279.24,181.95L281.29,183.6L283.35,180.76L285.4,180.46L287.45,177.85L289.51,191.1L291.56,194.34L293.61,195.37L295.67,196.72L297.72,197.03L301.83,193.94L303.88,196.54L305.93,195.86L307.98,196L310.04,205.17L312.09,205.42L314.14,202.69L316.2,203.99L318.25,204.46L320.3,208.75L322.36,210.01L324.41,207.15L330.57,212.3L332.62,215.9L334.68,217.36L336.73,191.52L338.78,191.66L340.84,194.34L342.89,191.72L344.94,190.79L351.1,180.94L353.16,186.97L355.21,183.55L357.26,182.62L359.32,174.19L361.37,171.54L363.42,174.77L365.48,162.36L367.53,169.4L369.58,164.05L371.63,168.41L373.69,163.39L375.74,166.44L377.79,163.43L379.85,162.57L381.9,163.95L383.95,172.78L386.01,174.9L390.11,173.73L392.17,170.14L394.22,168.24L396.27,173.24L398.33,170.01L400.38,171.45L402.43,176.35L404.49,176.78L406.54,179.34L408.59,185.61L412.7,184.15L414.75,186.3L418.86,185.3L420.91,182.26L422.97,181.09L425.02,173.18L427.07,172.41L429.13,176.01L431.18,173.8L433.23,175.61L437.34,178.88L439.39,177.91L441.44,176.69L443.5,181.6L447.6,184.55L449.66,183.32L451.71,183.14L453.76,195.62L455.82,199.9L457.87,201.75L459.92,209.33L461.98,207.11L464.03,219.82L466.08,220.26L468.14,217.01L470.19,218.14L472.24,221.93L474.3,223.58L476.35,224.6L478.4,226.72L480.46,231.12L482.51,218.97L484.56,217.5L486.62,218.81L488.67,217.97L490.72,219.86L492.78,224.39L494.83,235.5L496.88,231.64L498.94,231.4L503.04,227.8L505.1,231.48L507.15,232.33L509.2,231.31L511.25,232.64L513.31,230.07L515.36,230.37L517.41,231.48L523.57,233.1L525.63,232.8L527.68,231.61L529.73,233.71L533.84,232.2L535.89,229.93L537.95,227.43L540,237.53" style="vector-effect: none; fill: none; stroke: rgb(99, 110, 250); stroke-opacity: 1; stroke-width: 2px; opacity: 1;"/></g><g class="points"/><g class="text"/></g></g></g><g class="overplot"/><path class="xlines-above crisp" d="M0,0" style="fill: none;"/><path class="ylines-above crisp" d="M0,0" style="fill: none;"/><g class="overlines-above"/><g class="xaxislayer-above"><g class="xtick"><text text-anchor="middle" x="0" y="433" transform="translate(141.6,0)" style="font-family: 'Open Sans', verdana, arial, sans-serif; font-size: 12px; fill: rgb(42, 63, 95); fill-opacity: 1; white-space: pre; opacity: 1;">Sep 2022</text></g><g class="xtick"><text text-anchor="middle" x="0" y="433" style="font-family: 'Open Sans', verdana, arial, sans-serif; font-size: 12px; fill: rgb(42, 63, 95); fill-opacity: 1; white-space: pre; opacity: 1;" transform="translate(266.84000000000003,0)">Nov 2022</text></g><g class="xtick"><text text-anchor="middle" x="0" y="433" style="font-family: 'Open Sans', verdana, arial, sans-serif; font-size: 12px; fill: rgb(42, 63, 95); fill-opacity: 1; white-space: pre; opacity: 1;" transform="translate(392.09,0)">Jan 2023</text></g><g class="xtick"><text text-anchor="middle" x="0" y="433" style="font-family: 'Open Sans', verdana, arial, sans-serif; font-size: 12px; fill: rgb(42, 63, 95); fill-opacity: 1; white-space: pre; opacity: 1;" transform="translate(513.23,0)">Mar 2023</text></g></g><g class="yaxislayer-above"><g class="ytick"><text text-anchor="end" x="79" y="4.199999999999999" transform="translate(0,420)" style="font-family: 'Open Sans', verdana, arial, sans-serif; font-size: 12px; fill: rgb(42, 63, 95); fill-opacity: 1; white-space: pre; opacity: 1;">$0</text></g><g class="ytick"><text text-anchor="end" x="79" y="4.199999999999999" style="font-family: 'Open Sans', verdana, arial, sans-serif; font-size: 12px; fill: rgb(42, 63, 95); fill-opacity: 1; white-space: pre; opacity: 1;" transform="translate(0,381.78)">$2M</text></g><g class="ytick"><text text-anchor="end" x="79" y="4.199999999999999" style="font-family: 'Open Sans', verdana, arial, sans-serif; font-size: 12px; fill: rgb(42, 63, 95); fill-opacity: 1; white-space: pre; opacity: 1;" transform="translate(0,343.56)">$4M</text></g><g class="ytick"><text text-anchor="end" x="79" y="4.199999999999999" style="font-family: 'Open Sans', verdana, arial, sans-serif; font-size: 12px; fill: rgb(42, 63, 95); fill-opacity: 1; white-space: pre; opacity: 1;" transform="translate(0,305.34000000000003)">$6M</text></g><g class="ytick"><text text-anchor="end" x="79" y="4.199999999999999" style="font-family: 'Open Sans', verdana, arial, sans-serif; font-size: 12px; fill: rgb(42, 63, 95); fill-opacity: 1; white-space: pre; opacity: 1;" transform="translate(0,267.12)">$8M</text></g><g class="ytick"><text text-anchor="end" x="79" y="4.199999999999999" style="font-family: 'Open Sans', verdana, arial, sans-serif; font-size: 12px; fill: rgb(42, 63, 95); fill-opacity: 1; white-space: pre; opacity: 1;" transform="translate(0,228.91)">$10M</text></g><g class="ytick"><text text-anchor="end" x="79" y="4.199999999999999" style="font-family: 'Open Sans', verdana, arial, sans-serif; font-size: 12px; fill: rgb(42, 63, 95); fill-opacity: 1; white-space: pre; opacity: 1;" transform="translate(0,190.69)">$12M</text></g><g class="ytick"><text text-anchor="end" x="79" y="4.199999999999999" style="font-family: 'Open Sans', verdana, arial, sans-serif; font-size: 12px; fill: rgb(42, 63, 95); fill-opacity: 1; white-space: pre; opacity: 1;" transform="translate(0,152.47)">$14M</text></g><g class="ytick"><text text-anchor="end" x="79" y="4.199999999999999" style="font-family: 'Open Sans', verdana, arial, sans-serif; font-size: 12px; fill: rgb(42, 63, 95); fill-opacity: 1; white-space: pre; opacity: 1;" transform="translate(0,114.25)">$16M</text></g></g><g class="overaxes-above"/></g></g><g class="polarlayer"/><g class="smithlayer"/><g class="ternarylayer"/><g class="geolayer"/><g class="funnelarealayer"/><g class="pielayer"/><g class="iciclelayer"/><g class="treemaplayer"/><g class="sunburstlayer"/><g class="glimages"/><defs id="topdefs-af2bc9"><g class="clips"/></defs><g class="layer-above"><g class="imagelayer"/><g class="shapelayer"/></g><g class="infolayer"><g class="g-gtitle"><text class="gtitle" x="35" y="50" text-anchor="start" dy="0em" style="font-family: 'Open Sans', verdana, arial, sans-serif; font-size: 17px; fill: rgb(42, 63, 95); opacity: 1; font-weight: normal; white-space: pre;"><tspan class="line" dy="0em" x="35" y="50">Lyra</tspan><tspan class="line" dy="1.3em" x="35" y="50">​<tspan style="font-size:70%" dy="-0.6em">Cumulative Net Flows since Program Announcement, Until Program End + 30 Days - At Last Price</tspan><tspan dy="0.42em">​</tspan></tspan></text></g><g class="g-xtitle"><text class="xtitle" x="350" y="460.3" text-anchor="middle" style="font-family: 'Open Sans', verdana, arial, sans-serif; font-size: 14px; fill: rgb(42, 63, 95); opacity: 1; font-weight: normal; white-space: pre;">Day</text></g><g class="g-ytitle"><text class="ytitle" transform="rotate(-90,24.668750000000003,260)" x="24.668750000000003" y="260" text-anchor="middle" style="font-family: 'Open Sans', verdana, arial, sans-serif; font-size: 14px; fill: rgb(42, 63, 95); opacity: 1; font-weight: normal; white-space: pre;">Cumulative Net Flows (USD)</text></g></g></svg>