<svg class="main-svg" xmlns="http://www.w3.org/2000/svg" xmlns:xlink="http://www.w3.org/1999/xlink" width="700" height="500" style="" viewBox="0 0 700 500"><rect x="0" y="0" width="700" height="500" style="fill: rgb(255, 255, 255); fill-opacity: 1;"/><defs id="defs-8a679e"><g class="clips"><clipPath id="clip8a679exyplot" class="plotclip"><rect width="540" height="320"/></clipPath><clipPath class="axesclip" id="clip8a679ex"><rect x="80" y="0" width="540" height="500"/></clipPath><clipPath class="axesclip" id="clip8a679ey"><rect x="0" y="100" width="700" height="320"/></clipPath><clipPath class="axesclip" id="clip8a679exy"><rect x="80" y="100" width="540" height="320"/></clipPath></g><g class="gradients"/><g class="patterns"/></defs><g class="bglayer"><rect class="bg" x="80" y="100" width="540" height="320" style="fill: rgb(229, 236, 246); fill-opacity: 1; stroke-width: 0;"/></g><g class="layer-below"><g class="imagelayer"/><g class="shapelayer"/></g><g class="cartesianlayer"><g class="subplot xy"><g class="layer-subplot"><g class="shapelayer"/><g class="imagelayer"/></g><g class="minor-gridlayer"><g class="x"/><g class="y"/></g><g class="gridlayer"><g class="x"><path class="xgrid crisp" transform="translate(111.46000000000001,0)" d="M0,100v320" style="stroke: rgb(255, 255, 255); stroke-opacity: 1; stroke-width: 1px;"/><path class="xgrid crisp" transform="translate(192.72,0)" d="M0,100v320" style="stroke: rgb(255, 255, 255); stroke-opacity: 1; stroke-width: 1px;"/><path class="xgrid crisp" transform="translate(271.36,0)" d="M0,100v320" style="stroke: rgb(255, 255, 255); stroke-opacity: 1; stroke-width: 1px;"/><path class="xgrid crisp" transform="translate(352.62,0)" d="M0,100v320" style="stroke: rgb(255, 255, 255); stroke-opacity: 1; stroke-width: 1px;"/><path class="xgrid crisp" transform="translate(433.88,0)" d="M0,100v320" style="stroke: rgb(255, 255, 255); stroke-opacity: 1; stroke-width: 1px;"/><path class="xgrid crisp" transform="translate(507.28,0)" d="M0,100v320" style="stroke: rgb(255, 255, 255); stroke-opacity: 1; stroke-width: 1px;"/><path class="xgrid crisp" transform="translate(588.54,0)" d="M0,100v320" style="stroke: rgb(255, 255, 255); stroke-opacity: 1; stroke-width: 1px;"/></g><g class="y"><path class="ygrid crisp" transform="translate(0,400.36)" d="M80,0h540" style="stroke: rgb(255, 255, 255); stroke-opacity: 1; stroke-width: 1px;"/><path class="ygrid crisp" transform="translate(0,299.85)" d="M80,0h540" style="stroke: rgb(255, 255, 255); stroke-opacity: 1; stroke-width: 1px;"/><path class="ygrid crisp" transform="translate(0,249.59)" d="M80,0h540" style="stroke: rgb(255, 255, 255); stroke-opacity: 1; stroke-width: 1px;"/><path class="ygrid crisp" transform="translate(0,199.32999999999998)" d="M80,0h540" style="stroke: rgb(255, 255, 255); stroke-opacity: 1; stroke-width: 1px;"/><path class="ygrid crisp" transform="translate(0,149.07)" d="M80,0h540" style="stroke: rgb(255, 255, 255); stroke-opacity: 1; stroke-width: 1px;"/></g></g><g class="zerolinelayer"><path class="yzl zl crisp" transform="translate(0,350.1)" d="M80,0h540" style="stroke: rgb(255, 255, 255); stroke-opacity: 1; stroke-width: 2px;"/></g><path class="xlines-below"/><path class="ylines-below"/><g class="overlines-below"/><g class="xaxislayer-below"/><g class="yaxislayer-below"/><g class="overaxes-below"/><g class="plot" transform="translate(80,100)" clip-path="url(#clip8a679exyplot)"><g class="scatterlayer mlayer"><g class="trace scatter tracef1464f" style="stroke-miterlimit: 2;"><g class="fills"><g><path class="js-fill" d="M540,250.1L0,250.1L0,250.1L2.62,248.65L5.24,244.46L7.86,231.64L10.49,225.69L13.11,224.87L15.73,220.79L18.35,217.78L20.97,217.67L23.59,216.01L26.21,213.35L28.83,216.7L31.46,216.42L34.08,217.83L36.7,216.74L41.94,216.13L44.56,216.16L52.43,216.38L55.05,215.55L57.67,215.17L60.29,213.96L65.53,213.31L68.16,214.05L70.78,211.9L73.4,211.88L78.64,211.75L81.26,210.14L83.88,210.14L86.5,213.59L96.99,213.12L99.61,177.43L102.23,125.55L104.85,106L107.48,103.9L110.1,99.27L112.72,98.13L115.34,102.88L117.96,105.25L120.58,100.14L123.2,102.41L125.83,100.17L128.45,101.31L131.07,95.43L136.31,121.57L138.93,128.76L141.55,142.93L144.17,147.41L146.8,149.1L149.42,149.18L154.66,148.75L157.28,156.46L162.52,156.23L165.15,160.98L167.77,160.12L170.39,161.5L180.87,163.13L183.5,163.31L193.98,162.28L196.6,159.73L199.22,158.19L201.84,158.11L204.47,156.46L207.09,156.41L212.33,156.17L214.95,153.82L217.57,152.96L220.19,152.95L222.82,152.93L225.44,158.26L235.92,157.97L238.54,159.14L243.79,159.1L246.41,157.5L256.89,156.14L259.51,156.7L264.76,156.42L267.38,154.79L270,155.86L272.62,155.81L277.86,155.73L280.49,154.8L283.11,154.68L285.73,152.8L290.97,152.78L293.59,167.95L296.21,169.49L298.83,169.57L301.46,167.65L304.08,167.94L309.32,173.9L311.94,169.25L314.56,169.27L317.18,167.56L319.81,165.47L322.43,74.35L325.05,73.04L327.67,61.84L330.29,40.82L332.91,34.05L335.53,26.82L338.16,30.71L340.78,34.51L343.4,29.56L346.02,17.82L348.64,16L351.26,17.4L353.88,25.18L356.5,22.35L359.13,28.88L361.75,29.86L364.37,32L366.99,28.9L369.61,20.84L374.85,29.39L377.48,91.39L380.1,175.92L382.72,185.08L385.34,188.42L387.96,187.44L390.58,190.95L393.2,191.79L395.83,191.3L398.45,185.24L408.93,184.72L411.55,187.37L416.8,186.56L419.42,186.52L422.04,187.3L424.66,181.53L427.28,170.53L429.9,165.86L432.52,165.77L435.15,167.76L437.77,172.4L440.39,171.53L443.01,172.86L445.63,172.66L448.25,172.27L450.87,170.15L453.5,169.85L456.12,196.23L458.74,206.18L461.36,203.28L463.98,171.43L466.6,164.64L469.22,164.59L471.84,163.08L474.47,163.64L477.09,165.12L479.71,170.6L482.33,219.31L484.95,230.99L487.57,278.23L490.19,278.22L492.82,293.94L498.06,294.76L500.68,295.66L521.65,296.39L524.27,296.55L540,296.55L540,304" style="fill: rgb(99, 110, 250); fill-opacity: 0.5; stroke-width: 0;"/></g></g><g class="errorbars"/><g class="lines"><path class="js-line" d="M0,250.1L2.62,248.65L5.24,244.46L7.86,231.64L10.49,225.69L13.11,224.87L15.73,220.79L18.35,217.78L20.97,217.67L23.59,216.01L26.21,213.35L28.83,216.7L31.46,216.42L34.08,217.83L36.7,216.74L41.94,216.13L44.56,216.16L52.43,216.38L55.05,215.55L57.67,215.17L60.29,213.96L65.53,213.31L68.16,214.05L70.78,211.9L73.4,211.88L78.64,211.75L81.26,210.14L83.88,210.14L86.5,213.59L96.99,213.12L99.61,177.43L102.23,125.55L104.85,106L107.48,103.9L110.1,99.27L112.72,98.13L115.34,102.88L117.96,105.25L120.58,100.14L123.2,102.41L125.83,100.17L128.45,101.31L131.07,95.43L136.31,121.57L138.93,128.76L141.55,142.93L144.17,147.41L146.8,149.1L149.42,149.18L154.66,148.75L157.28,156.46L162.52,156.23L165.15,160.98L167.77,160.12L170.39,161.5L180.87,163.13L183.5,163.31L193.98,162.28L196.6,159.73L199.22,158.19L201.84,158.11L204.47,156.46L207.09,156.41L212.33,156.17L214.95,153.82L217.57,152.96L220.19,152.95L222.82,152.93L225.44,158.26L235.92,157.97L238.54,159.14L243.79,159.1L246.41,157.5L256.89,156.14L259.51,156.7L264.76,156.42L267.38,154.79L270,155.86L272.62,155.81L277.86,155.73L280.49,154.8L283.11,154.68L285.73,152.8L290.97,152.78L293.59,167.95L296.21,169.49L298.83,169.57L301.46,167.65L304.08,167.94L309.32,173.9L311.94,169.25L314.56,169.27L317.18,167.56L319.81,165.47L322.43,74.35L325.05,73.04L327.67,61.84L330.29,40.82L332.91,34.05L335.53,26.82L338.16,30.71L340.78,34.51L343.4,29.56L346.02,17.82L348.64,16L351.26,17.4L353.88,25.18L356.5,22.35L359.13,28.88L361.75,29.86L364.37,32L366.99,28.9L369.61,20.84L374.85,29.39L377.48,91.39L380.1,175.92L382.72,185.08L385.34,188.42L387.96,187.44L390.58,190.95L393.2,191.79L395.83,191.3L398.45,185.24L408.93,184.72L411.55,187.37L416.8,186.56L419.42,186.52L422.04,187.3L424.66,181.53L427.28,170.53L429.9,165.86L432.52,165.77L435.15,167.76L437.77,172.4L440.39,171.53L443.01,172.86L445.63,172.66L448.25,172.27L450.87,170.15L453.5,169.85L456.12,196.23L458.74,206.18L461.36,203.28L463.98,171.43L466.6,164.64L469.22,164.59L471.84,163.08L474.47,163.64L477.09,165.12L479.71,170.6L482.33,219.31L484.95,230.99L487.57,278.23L490.19,278.22L492.82,293.94L498.06,294.76L500.68,295.66L521.65,296.39L524.27,296.55L540,296.55L540,304" style="vector-effect: none; fill: none; stroke: rgb(99, 110, 250); stroke-opacity: 1; stroke-width: 2px; opacity: 1;"/></g><g class="points"/><g class="text"/></g></g></g><g class="overplot"/><path class="xlines-above crisp" d="M0,0" style="fill: none;"/><path class="ylines-above crisp" d="M0,0" style="fill: none;"/><g class="overlines-above"/><g class="xaxislayer-above"><g class="xtick"><text text-anchor="middle" x="0" y="433" transform="translate(111.46000000000001,0)" style="font-family: 'Open Sans', verdana, arial, sans-serif; font-size: 12px; fill: rgb(42, 63, 95); fill-opacity: 1; white-space: pre; opacity: 1;">Oct 2022</text></g><g class="xtick"><text text-anchor="middle" x="0" y="433" style="font-family: 'Open Sans', verdana, arial, sans-serif; font-size: 12px; fill: rgb(42, 63, 95); fill-opacity: 1; white-space: pre; opacity: 1;" transform="translate(192.72,0)">Nov 2022</text></g><g class="xtick"><text text-anchor="middle" x="0" y="433" style="font-family: 'Open Sans', verdana, arial, sans-serif; font-size: 12px; fill: rgb(42, 63, 95); fill-opacity: 1; white-space: pre; opacity: 1;" transform="translate(271.36,0)">Dec 2022</text></g><g class="xtick"><text text-anchor="middle" x="0" y="433" style="font-family: 'Open Sans', verdana, arial, sans-serif; font-size: 12px; fill: rgb(42, 63, 95); fill-opacity: 1; white-space: pre; opacity: 1;" transform="translate(352.62,0)">Jan 2023</text></g><g class="xtick"><text text-anchor="middle" x="0" y="433" style="font-family: 'Open Sans', verdana, arial, sans-serif; font-size: 12px; fill: rgb(42, 63, 95); fill-opacity: 1; white-space: pre; opacity: 1;" transform="translate(433.88,0)">Feb 2023</text></g><g class="xtick"><text text-anchor="middle" x="0" y="433" style="font-family: 'Open Sans', verdana, arial, sans-serif; font-size: 12px; fill: rgb(42, 63, 95); fill-opacity: 1; white-space: pre; opacity: 1;" transform="translate(507.28,0)">Mar 2023</text></g><g class="xtick"><text text-anchor="middle" x="0" y="433" style="font-family: 'Open Sans', verdana, arial, sans-serif; font-size: 12px; fill: rgb(42, 63, 95); fill-opacity: 1; white-space: pre; opacity: 1;" transform="translate(588.54,0)">Apr 2023</text></g></g><g class="yaxislayer-above"><g class="ytick"><text text-anchor="end" x="79" y="4.199999999999999" transform="translate(0,400.36)" style="font-family: 'Open Sans', verdana, arial, sans-serif; font-size: 12px; fill: rgb(42, 63, 95); fill-opacity: 1; white-space: pre; opacity: 1;">$−1M</text></g><g class="ytick"><text text-anchor="end" x="79" y="4.199999999999999" style="font-family: 'Open Sans', verdana, arial, sans-serif; font-size: 12px; fill: rgb(42, 63, 95); fill-opacity: 1; white-space: pre; opacity: 1;" transform="translate(0,350.1)">$0</text></g><g class="ytick"><text text-anchor="end" x="79" y="4.199999999999999" style="font-family: 'Open Sans', verdana, arial, sans-serif; font-size: 12px; fill: rgb(42, 63, 95); fill-opacity: 1; white-space: pre; opacity: 1;" transform="translate(0,299.85)">$1M</text></g><g class="ytick"><text text-anchor="end" x="79" y="4.199999999999999" style="font-family: 'Open Sans', verdana, arial, sans-serif; font-size: 12px; fill: rgb(42, 63, 95); fill-opacity: 1; white-space: pre; opacity: 1;" transform="translate(0,249.59)">$2M</text></g><g class="ytick"><text text-anchor="end" x="79" y="4.199999999999999" style="font-family: 'Open Sans', verdana, arial, sans-serif; font-size: 12px; fill: rgb(42, 63, 95); fill-opacity: 1; white-space: pre; opacity: 1;" transform="translate(0,199.32999999999998)">$3M</text></g><g class="ytick"><text text-anchor="end" x="79" y="4.199999999999999" style="font-family: 'Open Sans', verdana, arial, sans-serif; font-size: 12px; fill: rgb(42, 63, 95); fill-opacity: 1; white-space: pre; opacity: 1;" transform="translate(0,149.07)">$4M</text></g></g><g class="overaxes-above"/></g></g><g class="polarlayer"/><g class="smithlayer"/><g class="ternarylayer"/><g class="geolayer"/><g class="funnelarealayer"/><g class="pielayer"/><g class="iciclelayer"/><g class="treemaplayer"/><g class="sunburstlayer"/><g class="glimages"/><defs id="topdefs-8a679e"><g class="clips"/></defs><g class="layer-above"><g class="imagelayer"/><g class="shapelayer"/></g><g class="infolayer"><g class="g-gtitle"><text class="gtitle" x="35" y="50" text-anchor="start" dy="0em" style="font-family: 'Open Sans', verdana, arial, sans-serif; font-size: 17px; fill: rgb(42, 63, 95); opacity: 1; font-weight: normal; white-space: pre;"><tspan class="line" dy="0em" x="35" y="50">Xtoken</tspan><tspan class="line" dy="1.3em" x="35" y="50">​<tspan style="font-size:70%" dy="-0.6em">Cumulative Net Flows since Program Announcement, Until Program End + 30 Days - At Last Price</tspan><tspan dy="0.42em">​</tspan></tspan></text></g><g class="g-xtitle"><text class="xtitle" x="350" y="460.3" text-anchor="middle" style="font-family: 'Open Sans', verdana, arial, sans-serif; font-size: 14px; fill: rgb(42, 63, 95); opacity: 1; font-weight: normal; white-space: pre;">Day</text></g><g class="g-ytitle"><text class="ytitle" transform="rotate(-90,24.340625000000003,260)" x="24.340625000000003" y="260" text-anchor="middle" style="font-family: 'Open Sans', verdana, arial, sans-serif; font-size: 14px; fill: rgb(42, 63, 95); opacity: 1; font-weight: normal; white-space: pre;">Cumulative Net Flows (USD)</text></g></g></svg>