<svg class="main-svg" xmlns="http://www.w3.org/2000/svg" xmlns:xlink="http://www.w3.org/1999/xlink" width="700" height="500" style="" viewBox="0 0 700 500"><rect x="0" y="0" width="700" height="500" style="fill: rgb(255, 255, 255); fill-opacity: 1;"/><defs id="defs-cab133"><g class="clips"><clipPath id="clipcab133xyplot" class="plotclip"><rect width="540" height="320"/></clipPath><clipPath class="axesclip" id="clipcab133x"><rect x="80" y="0" width="540" height="500"/></clipPath><clipPath class="axesclip" id="clipcab133y"><rect x="0" y="100" width="700" height="320"/></clipPath><clipPath class="axesclip" id="clipcab133xy"><rect x="80" y="100" width="540" height="320"/></clipPath></g><g class="gradients"/><g class="patterns"/></defs><g class="bglayer"><rect class="bg" x="80" y="100" width="540" height="320" style="fill: rgb(229, 236, 246); fill-opacity: 1; stroke-width: 0;"/></g><g class="layer-below"><g class="imagelayer"/><g class="shapelayer"/></g><g class="cartesianlayer"><g class="subplot xy"><g class="layer-subplot"><g class="shapelayer"/><g class="imagelayer"/></g><g class="minor-gridlayer"><g class="x"/><g class="y"/></g><g class="gridlayer"><g class="x"><path class="xgrid crisp" transform="translate(103.43,0)" d="M0,100v320" style="stroke: rgb(255, 255, 255); stroke-opacity: 1; stroke-width: 1px;"/><path class="xgrid crisp" transform="translate(201.42000000000002,0)" d="M0,100v320" style="stroke: rgb(255, 255, 255); stroke-opacity: 1; stroke-width: 1px;"/><path class="xgrid crisp" transform="translate(297.28,0)" d="M0,100v320" style="stroke: rgb(255, 255, 255); stroke-opacity: 1; stroke-width: 1px;"/><path class="xgrid crisp" transform="translate(394.2,0)" d="M0,100v320" style="stroke: rgb(255, 255, 255); stroke-opacity: 1; stroke-width: 1px;"/><path class="xgrid crisp" transform="translate(492.19,0)" d="M0,100v320" style="stroke: rgb(255, 255, 255); stroke-opacity: 1; stroke-width: 1px;"/><path class="xgrid crisp" transform="translate(590.1800000000001,0)" d="M0,100v320" style="stroke: rgb(255, 255, 255); stroke-opacity: 1; stroke-width: 1px;"/></g><g class="y"><path class="ygrid crisp" transform="translate(0,339.59000000000003)" d="M80,0h540" style="stroke: rgb(255, 255, 255); stroke-opacity: 1; stroke-width: 1px;"/><path class="ygrid crisp" transform="translate(0,292.56)" d="M80,0h540" style="stroke: rgb(255, 255, 255); stroke-opacity: 1; stroke-width: 1px;"/><path class="ygrid crisp" transform="translate(0,245.54)" d="M80,0h540" style="stroke: rgb(255, 255, 255); stroke-opacity: 1; stroke-width: 1px;"/><path class="ygrid crisp" transform="translate(0,198.51)" d="M80,0h540" style="stroke: rgb(255, 255, 255); stroke-opacity: 1; stroke-width: 1px;"/><path class="ygrid crisp" transform="translate(0,151.48)" d="M80,0h540" style="stroke: rgb(255, 255, 255); stroke-opacity: 1; stroke-width: 1px;"/><path class="ygrid crisp" transform="translate(0,104.46)" d="M80,0h540" style="stroke: rgb(255, 255, 255); stroke-opacity: 1; stroke-width: 1px;"/></g></g><g class="zerolinelayer"><path class="yzl zl crisp" transform="translate(0,386.62)" d="M80,0h540" style="stroke: rgb(255, 255, 255); stroke-opacity: 1; stroke-width: 2px;"/></g><path class="xlines-below"/><path class="ylines-below"/><g class="overlines-below"/><g class="xaxislayer-below"/><g class="yaxislayer-below"/><g class="overaxes-below"/><g class="plot" transform="translate(80,100)" clip-path="url(#clipcab133xyplot)"><g class="scatterlayer mlayer"><g class="trace scatter trace97230d" style="stroke-miterlimit: 2;"><g class="fills"><g><path class="js-fill" d="M540,286.62L0,286.62L0,279.79L1.07,269.52L2.13,270.84L4.26,255.61L5.33,256.67L6.39,256.07L7.46,259.6L8.52,239.77L9.59,237.78L10.65,236.21L11.72,232.43L12.78,233.67L13.85,236.27L14.91,231.01L15.98,230.32L17.04,229.45L18.11,225.28L19.17,225.79L20.24,221.5L21.3,221.73L22.37,216.87L24.5,204.34L25.56,207.15L28.76,194.01L29.82,193.05L31.95,201.93L33.02,198.84L34.08,199.63L35.15,203.65L37.28,215.68L38.34,219.22L39.41,219.51L40.47,218.73L41.54,217.43L42.6,218.4L43.67,227.59L44.73,225.74L45.8,227.66L46.86,227.18L48.99,228.63L50.06,224.85L51.12,222.58L52.19,222.73L53.25,221.86L54.32,219.75L55.38,221.17L56.45,218.85L57.51,214.06L58.58,213.22L61.78,206.65L62.84,210.37L63.91,214.38L64.97,222.88L66.04,230.36L67.1,227.56L68.17,226.57L69.23,229.95L71.36,229.22L72.43,228.13L75.62,227.36L76.69,221.26L79.88,231.11L80.95,229.79L84.14,230.15L85.21,231.17L86.27,232.36L87.34,229.91L88.4,225.82L89.47,227.41L90.53,221.33L91.6,222.13L92.66,221.62L93.73,222.49L94.79,221.09L95.86,224.78L96.92,223.92L97.99,225.57L100.12,227.55L101.18,227.05L102.25,225.59L103.31,225.69L104.38,226.78L105.44,229.62L106.51,231.15L107.57,231.02L108.64,232.32L109.7,230.92L110.77,230.52L111.83,231.03L112.9,230.9L113.96,228.29L115.03,228.53L116.09,231.03L117.16,227.69L118.22,228.16L119.29,227.16L120.36,227.63L121.42,225.82L122.49,225.64L124.62,225.12L125.68,222.91L126.75,223.48L127.81,222.28L128.88,222.66L129.94,219.83L132.07,216.3L133.14,210.15L135.27,214.54L136.33,215.09L138.46,210.79L139.53,208.79L142.72,196.24L143.79,196.19L144.85,192.76L145.92,194.22L146.98,194.45L148.05,184.78L149.11,184.26L150.18,180.6L151.24,181.9L152.31,179.69L154.44,177.53L155.5,172.52L156.57,170.54L157.63,171.38L159.76,175.77L160.83,167.62L161.89,163.52L162.96,166.67L164.02,171.04L165.09,171.11L166.15,167.27L167.22,168.06L168.28,169.86L169.35,166.36L171.48,154.71L172.54,151.66L173.61,150.39L174.67,131.68L175.74,129.5L176.8,133.66L177.87,139.39L178.93,136.42L180,92.53L181.07,94.84L182.13,90.15L183.2,93.08L184.26,93.91L185.33,28.64L186.39,29.98L187.46,24.39L188.52,20.72L189.59,304L192.78,19.14L193.85,28.78L194.91,43.94L195.98,173.48L197.04,166.1L198.11,152.3L199.17,23.97L200.24,24.65L202.37,16L203.43,22.83L204.5,28.46L205.56,28.32L207.69,31.45L208.76,36.69L209.82,39.85L210.89,38.38L213.02,40.72L214.08,37.91L215.15,303.87L216.21,35.55L217.28,31.74L218.34,32.58L219.41,33.03L220.47,32.14L222.6,20.51L223.67,28.16L226.86,28.71L227.93,25.6L228.99,33.95L230.06,35.15L231.12,36.39L232.19,41.05L233.25,40.15L234.32,36.99L235.38,24.99L236.45,149.72L237.51,150.28L238.58,151.82L239.64,157.21L240.71,154.42L241.78,155.4L242.84,154.13L243.91,151.27L244.97,151.11L246.04,149.89L247.1,150.09L248.17,147.79L249.23,148.91L250.3,155.78L251.36,149.68L252.43,154.86L253.49,164.67L254.56,163.47L255.62,173.95L257.75,179.46L258.82,179.25L259.88,180.62L260.95,185.29L262.01,187.71L263.08,187.82L264.14,187.83L265.21,186.76L267.34,186.83L268.4,187.63L269.47,188.82L270.53,188.36L271.6,189.04L272.66,185.76L273.73,184.53L274.79,192.56L277.99,191.5L279.05,188.73L280.12,190.16L281.18,189.44L282.25,203.5L283.31,198.22L284.38,195.14L285.44,195.31L286.51,195.45L287.57,198.2L288.64,195.7L289.7,198.08L290.77,200.73L291.83,200.95L292.9,206.44L293.96,206.29L295.03,207.36L296.09,205.44L297.16,208.16L298.22,208.61L299.29,213.77L300.36,212.1L302.49,212.42L303.55,211.26L304.62,208.78L305.68,209.25L307.81,207.85L308.88,206.95L311.01,209.17L312.07,232.68L313.14,249.06L314.2,251.9L315.27,249.71L316.33,255.92L317.4,254.93L318.46,255.4L319.53,255.85L320.59,257.22L321.66,256.34L322.72,256.5L323.79,257.44L324.85,257.04L325.92,256.92L326.98,257.79L328.05,256.77L329.11,257.31L330.18,257.19L331.24,260.21L332.31,264.17L333.37,264.38L334.44,265.15L335.5,267.8L338.7,268.64L339.76,269.48L342.96,269.24L344.02,269.21L345.09,269.07L346.15,271.18L350.41,271.66L351.48,271.78L354.67,272.09L355.74,273.59L357.87,273.69L358.93,272.79L363.2,276.08L364.26,276.51L366.39,278.11L367.46,278.03L374.91,278.57L375.98,278.74L379.17,278.66L380.24,279.4L383.43,279.57L384.5,281.76L387.69,282.04L388.76,282.18L390.89,282.58L391.95,283.15L399.41,282.65L400.47,282.55L408.99,283.49L410.06,282.96L414.32,282.73L415.38,282.96L420.71,283.36L421.78,283.9L423.91,284.04L424.97,285.68L432.43,285.9L433.49,286.22L439.88,284.5L440.95,284.7L453.73,283.89L454.79,285.82L467.57,286.97L468.64,286.19L472.9,286.26L473.96,286.59L483.55,285.35L484.62,284.46L485.68,284.47L486.75,285.84L487.81,284.44L488.88,285.28L491.01,285.13L492.07,284.73L494.2,285.18L495.27,285.37L498.46,285.23L499.53,288.97L502.72,289.31L503.79,289.31L508.05,290L509.11,290.25L540,289.79" style="fill: rgb(99, 110, 250); fill-opacity: 0.5; stroke-width: 0;"/></g></g><g class="errorbars"/><g class="lines"><path class="js-line" d="M0,279.79L1.07,269.52L2.13,270.84L4.26,255.61L5.33,256.67L6.39,256.07L7.46,259.6L8.52,239.77L9.59,237.78L10.65,236.21L11.72,232.43L12.78,233.67L13.85,236.27L14.91,231.01L15.98,230.32L17.04,229.45L18.11,225.28L19.17,225.79L20.24,221.5L21.3,221.73L22.37,216.87L24.5,204.34L25.56,207.15L28.76,194.01L29.82,193.05L31.95,201.93L33.02,198.84L34.08,199.63L35.15,203.65L37.28,215.68L38.34,219.22L39.41,219.51L40.47,218.73L41.54,217.43L42.6,218.4L43.67,227.59L44.73,225.74L45.8,227.66L46.86,227.18L48.99,228.63L50.06,224.85L51.12,222.58L52.19,222.73L53.25,221.86L54.32,219.75L55.38,221.17L56.45,218.85L57.51,214.06L58.58,213.22L61.78,206.65L62.84,210.37L63.91,214.38L64.97,222.88L66.04,230.36L67.1,227.56L68.17,226.57L69.23,229.95L71.36,229.22L72.43,228.13L75.62,227.36L76.69,221.26L79.88,231.11L80.95,229.79L84.14,230.15L85.21,231.17L86.27,232.36L87.34,229.91L88.4,225.82L89.47,227.41L90.53,221.33L91.6,222.13L92.66,221.62L93.73,222.49L94.79,221.09L95.86,224.78L96.92,223.92L97.99,225.57L100.12,227.55L101.18,227.05L102.25,225.59L103.31,225.69L104.38,226.78L105.44,229.62L106.51,231.15L107.57,231.02L108.64,232.32L109.7,230.92L110.77,230.52L111.83,231.03L112.9,230.9L113.96,228.29L115.03,228.53L116.09,231.03L117.16,227.69L118.22,228.16L119.29,227.16L120.36,227.63L121.42,225.82L122.49,225.64L124.62,225.12L125.68,222.91L126.75,223.48L127.81,222.28L128.88,222.66L129.94,219.83L132.07,216.3L133.14,210.15L135.27,214.54L136.33,215.09L138.46,210.79L139.53,208.79L142.72,196.24L143.79,196.19L144.85,192.76L145.92,194.22L146.98,194.45L148.05,184.78L149.11,184.26L150.18,180.6L151.24,181.9L152.31,179.69L154.44,177.53L155.5,172.52L156.57,170.54L157.63,171.38L159.76,175.77L160.83,167.62L161.89,163.52L162.96,166.67L164.02,171.04L165.09,171.11L166.15,167.27L167.22,168.06L168.28,169.86L169.35,166.36L171.48,154.71L172.54,151.66L173.61,150.39L174.67,131.68L175.74,129.5L176.8,133.66L177.87,139.39L178.93,136.42L180,92.53L181.07,94.84L182.13,90.15L183.2,93.08L184.26,93.91L185.33,28.64L186.39,29.98L187.46,24.39L188.52,20.72L189.59,304L192.78,19.14L193.85,28.78L194.91,43.94L195.98,173.48L197.04,166.1L198.11,152.3L199.17,23.97L200.24,24.65L202.37,16L203.43,22.83L204.5,28.46L205.56,28.32L207.69,31.45L208.76,36.69L209.82,39.85L210.89,38.38L213.02,40.72L214.08,37.91L215.15,303.87L216.21,35.55L217.28,31.74L218.34,32.58L219.41,33.03L220.47,32.14L222.6,20.51L223.67,28.16L226.86,28.71L227.93,25.6L228.99,33.95L230.06,35.15L231.12,36.39L232.19,41.05L233.25,40.15L234.32,36.99L235.38,24.99L236.45,149.72L237.51,150.28L238.58,151.82L239.64,157.21L240.71,154.42L241.78,155.4L242.84,154.13L243.91,151.27L244.97,151.11L246.04,149.89L247.1,150.09L248.17,147.79L249.23,148.91L250.3,155.78L251.36,149.68L252.43,154.86L253.49,164.67L254.56,163.47L255.62,173.95L257.75,179.46L258.82,179.25L259.88,180.62L260.95,185.29L262.01,187.71L263.08,187.82L264.14,187.83L265.21,186.76L267.34,186.83L268.4,187.63L269.47,188.82L270.53,188.36L271.6,189.04L272.66,185.76L273.73,184.53L274.79,192.56L277.99,191.5L279.05,188.73L280.12,190.16L281.18,189.44L282.25,203.5L283.31,198.22L284.38,195.14L285.44,195.31L286.51,195.45L287.57,198.2L288.64,195.7L289.7,198.08L290.77,200.73L291.83,200.95L292.9,206.44L293.96,206.29L295.03,207.36L296.09,205.44L297.16,208.16L298.22,208.61L299.29,213.77L300.36,212.1L302.49,212.42L303.55,211.26L304.62,208.78L305.68,209.25L307.81,207.85L308.88,206.95L311.01,209.17L312.07,232.68L313.14,249.06L314.2,251.9L315.27,249.71L316.33,255.92L317.4,254.93L318.46,255.4L319.53,255.85L320.59,257.22L321.66,256.34L322.72,256.5L323.79,257.44L324.85,257.04L325.92,256.92L326.98,257.79L328.05,256.77L329.11,257.31L330.18,257.19L331.24,260.21L332.31,264.17L333.37,264.38L334.44,265.15L335.5,267.8L338.7,268.64L339.76,269.48L342.96,269.24L344.02,269.21L345.09,269.07L346.15,271.18L350.41,271.66L351.48,271.78L354.67,272.09L355.74,273.59L357.87,273.69L358.93,272.79L363.2,276.08L364.26,276.51L366.39,278.11L367.46,278.03L374.91,278.57L375.98,278.74L379.17,278.66L380.24,279.4L383.43,279.57L384.5,281.76L387.69,282.04L388.76,282.18L390.89,282.58L391.95,283.15L399.41,282.65L400.47,282.55L408.99,283.49L410.06,282.96L414.32,282.73L415.38,282.96L420.71,283.36L421.78,283.9L423.91,284.04L424.97,285.68L432.43,285.9L433.49,286.22L439.88,284.5L440.95,284.7L453.73,283.89L454.79,285.82L467.57,286.97L468.64,286.19L472.9,286.26L473.96,286.59L483.55,285.35L484.62,284.46L485.68,284.47L486.75,285.84L487.81,284.44L488.88,285.28L491.01,285.13L492.07,284.73L494.2,285.18L495.27,285.37L498.46,285.23L499.53,288.97L502.72,289.31L503.79,289.31L508.05,290L509.11,290.25L540,289.79" style="vector-effect: none; fill: none; stroke: rgb(99, 110, 250); stroke-opacity: 1; stroke-width: 2px; opacity: 1;"/></g><g class="points"/><g class="text"/></g></g></g><g class="overplot"/><path class="xlines-above crisp" d="M0,0" style="fill: none;"/><path class="ylines-above crisp" d="M0,0" style="fill: none;"/><g class="overlines-above"/><g class="xaxislayer-above"><g class="xtick"><text text-anchor="middle" x="0" y="433" transform="translate(103.43,0)" style="font-family: 'Open Sans', verdana, arial, sans-serif; font-size: 12px; fill: rgb(42, 63, 95); fill-opacity: 1; white-space: pre; opacity: 1;">Oct 2022</text></g><g class="xtick"><text text-anchor="middle" x="0" y="433" style="font-family: 'Open Sans', verdana, arial, sans-serif; font-size: 12px; fill: rgb(42, 63, 95); fill-opacity: 1; white-space: pre; opacity: 1;" transform="translate(201.42000000000002,0)">Jan 2023</text></g><g class="xtick"><text text-anchor="middle" x="0" y="433" style="font-family: 'Open Sans', verdana, arial, sans-serif; font-size: 12px; fill: rgb(42, 63, 95); fill-opacity: 1; white-space: pre; opacity: 1;" transform="translate(297.28,0)">Apr 2023</text></g><g class="xtick"><text text-anchor="middle" x="0" y="433" style="font-family: 'Open Sans', verdana, arial, sans-serif; font-size: 12px; fill: rgb(42, 63, 95); fill-opacity: 1; white-space: pre; opacity: 1;" transform="translate(394.2,0)">Jul 2023</text></g><g class="xtick"><text text-anchor="middle" x="0" y="433" style="font-family: 'Open Sans', verdana, arial, sans-serif; font-size: 12px; fill: rgb(42, 63, 95); fill-opacity: 1; white-space: pre; opacity: 1;" transform="translate(492.19,0)">Oct 2023</text></g><g class="xtick"><text text-anchor="middle" x="0" y="433" style="font-family: 'Open Sans', verdana, arial, sans-serif; font-size: 12px; fill: rgb(42, 63, 95); fill-opacity: 1; white-space: pre; opacity: 1;" transform="translate(590.1800000000001,0)">Jan 2024</text></g></g><g class="yaxislayer-above"><g class="ytick"><text text-anchor="end" x="79" y="4.199999999999999" transform="translate(0,386.62)" style="font-family: 'Open Sans', verdana, arial, sans-serif; font-size: 12px; fill: rgb(42, 63, 95); fill-opacity: 1; white-space: pre; opacity: 1;">$0</text></g><g class="ytick"><text text-anchor="end" x="79" y="4.199999999999999" style="font-family: 'Open Sans', verdana, arial, sans-serif; font-size: 12px; fill: rgb(42, 63, 95); fill-opacity: 1; white-space: pre; opacity: 1;" transform="translate(0,339.59000000000003)">$1M</text></g><g class="ytick"><text text-anchor="end" x="79" y="4.199999999999999" style="font-family: 'Open Sans', verdana, arial, sans-serif; font-size: 12px; fill: rgb(42, 63, 95); fill-opacity: 1; white-space: pre; opacity: 1;" transform="translate(0,292.56)">$2M</text></g><g class="ytick"><text text-anchor="end" x="79" y="4.199999999999999" style="font-family: 'Open Sans', verdana, arial, sans-serif; font-size: 12px; fill: rgb(42, 63, 95); fill-opacity: 1; white-space: pre; opacity: 1;" transform="translate(0,245.54)">$3M</text></g><g class="ytick"><text text-anchor="end" x="79" y="4.199999999999999" style="font-family: 'Open Sans', verdana, arial, sans-serif; font-size: 12px; fill: rgb(42, 63, 95); fill-opacity: 1; white-space: pre; opacity: 1;" transform="translate(0,198.51)">$4M</text></g><g class="ytick"><text text-anchor="end" x="79" y="4.199999999999999" style="font-family: 'Open Sans', verdana, arial, sans-serif; font-size: 12px; fill: rgb(42, 63, 95); fill-opacity: 1; white-space: pre; opacity: 1;" transform="translate(0,151.48)">$5M</text></g><g class="ytick"><text text-anchor="end" x="79" y="4.199999999999999" style="font-family: 'Open Sans', verdana, arial, sans-serif; font-size: 12px; fill: rgb(42, 63, 95); fill-opacity: 1; white-space: pre; opacity: 1;" transform="translate(0,104.46)">$6M</text></g></g><g class="overaxes-above"/></g></g><g class="polarlayer"/><g class="smithlayer"/><g class="ternarylayer"/><g class="geolayer"/><g class="funnelarealayer"/><g class="pielayer"/><g class="iciclelayer"/><g class="treemaplayer"/><g class="sunburstlayer"/><g class="glimages"/><defs id="topdefs-cab133"><g class="clips"/></defs><g class="layer-above"><g class="imagelayer"/><g class="shapelayer"/></g><g class="infolayer"><g class="g-gtitle"><text class="gtitle" x="35" y="50" text-anchor="start" dy="0em" style="font-family: 'Open Sans', verdana, arial, sans-serif; font-size: 17px; fill: rgb(42, 63, 95); opacity: 1; font-weight: normal; white-space: pre;"><tspan class="line" dy="0em" x="35" y="50">Pickle - Pickle Finance</tspan><tspan class="line" dy="1.3em" x="35" y="50">​<tspan style="font-size:70%" dy="-0.6em">Cumulative Net Flows since Program Announcement, Until Program End + 30 Days - At Last Price</tspan><tspan dy="0.42em">​</tspan></tspan></text></g><g class="g-xtitle"><text class="xtitle" x="350" y="460.3" text-anchor="middle" style="font-family: 'Open Sans', verdana, arial, sans-serif; font-size: 14px; fill: rgb(42, 63, 95); opacity: 1; font-weight: normal; white-space: pre;">Day</text></g><g class="g-ytitle"><text class="ytitle" transform="rotate(-90,31.356250000000003,260)" x="31.356250000000003" y="260" text-anchor="middle" style="font-family: 'Open Sans', verdana, arial, sans-serif; font-size: 14px; fill: rgb(42, 63, 95); opacity: 1; font-weight: normal; white-space: pre;">Cumulative Net Flows (USD)</text></g></g></svg>