<svg class="main-svg" xmlns="http://www.w3.org/2000/svg" xmlns:xlink="http://www.w3.org/1999/xlink" width="700" height="500" style="" viewBox="0 0 700 500"><rect x="0" y="0" width="700" height="500" style="fill: rgb(255, 255, 255); fill-opacity: 1;"/><defs id="defs-c2f342"><g class="clips"><clipPath id="clipc2f342xyplot" class="plotclip"><rect width="540" height="320"/></clipPath><clipPath class="axesclip" id="clipc2f342x"><rect x="80" y="0" width="540" height="500"/></clipPath><clipPath class="axesclip" id="clipc2f342y"><rect x="0" y="100" width="700" height="320"/></clipPath><clipPath class="axesclip" id="clipc2f342xy"><rect x="80" y="100" width="540" height="320"/></clipPath></g><g class="gradients"/><g class="patterns"/></defs><g class="bglayer"><rect class="bg" x="80" y="100" width="540" height="320" style="fill: rgb(229, 236, 246); fill-opacity: 1; stroke-width: 0;"/></g><g class="layer-below"><g class="imagelayer"/><g class="shapelayer"/></g><g class="cartesianlayer"><g class="subplot xy"><g class="layer-subplot"><g class="shapelayer"/><g class="imagelayer"/></g><g class="minor-gridlayer"><g class="x"/><g class="y"/></g><g class="gridlayer"><g class="x"><path class="xgrid crisp" transform="translate(89.82,0)" d="M0,100v320" style="stroke: rgb(255, 255, 255); stroke-opacity: 1; stroke-width: 1px;"/><path class="xgrid crisp" transform="translate(175.38,0)" d="M0,100v320" style="stroke: rgb(255, 255, 255); stroke-opacity: 1; stroke-width: 1px;"/><path class="xgrid crisp" transform="translate(260.94,0)" d="M0,100v320" style="stroke: rgb(255, 255, 255); stroke-opacity: 1; stroke-width: 1px;"/><path class="xgrid crisp" transform="translate(343.69,0)" d="M0,100v320" style="stroke: rgb(255, 255, 255); stroke-opacity: 1; stroke-width: 1px;"/><path class="xgrid crisp" transform="translate(429.25,0)" d="M0,100v320" style="stroke: rgb(255, 255, 255); stroke-opacity: 1; stroke-width: 1px;"/><path class="xgrid crisp" transform="translate(514.81,0)" d="M0,100v320" style="stroke: rgb(255, 255, 255); stroke-opacity: 1; stroke-width: 1px;"/><path class="xgrid crisp" transform="translate(601.77,0)" d="M0,100v320" style="stroke: rgb(255, 255, 255); stroke-opacity: 1; stroke-width: 1px;"/></g><g class="y"><path class="ygrid crisp" transform="translate(0,402.5)" d="M80,0h540" style="stroke: rgb(255, 255, 255); stroke-opacity: 1; stroke-width: 1px;"/><path class="ygrid crisp" transform="translate(0,315.37)" d="M80,0h540" style="stroke: rgb(255, 255, 255); stroke-opacity: 1; stroke-width: 1px;"/><path class="ygrid crisp" transform="translate(0,271.81)" d="M80,0h540" style="stroke: rgb(255, 255, 255); stroke-opacity: 1; stroke-width: 1px;"/><path class="ygrid crisp" transform="translate(0,228.24)" d="M80,0h540" style="stroke: rgb(255, 255, 255); stroke-opacity: 1; stroke-width: 1px;"/><path class="ygrid crisp" transform="translate(0,184.68)" d="M80,0h540" style="stroke: rgb(255, 255, 255); stroke-opacity: 1; stroke-width: 1px;"/><path class="ygrid crisp" transform="translate(0,141.12)" d="M80,0h540" style="stroke: rgb(255, 255, 255); stroke-opacity: 1; stroke-width: 1px;"/></g></g><g class="zerolinelayer"><path class="yzl zl crisp" transform="translate(0,358.93)" d="M80,0h540" style="stroke: rgb(255, 255, 255); stroke-opacity: 1; stroke-width: 2px;"/></g><path class="xlines-below"/><path class="ylines-below"/><g class="overlines-below"/><g class="xaxislayer-below"/><g class="yaxislayer-below"/><g class="overaxes-below"/><g class="plot" transform="translate(80,100)" clip-path="url(#clipc2f342xyplot)"><g class="scatterlayer mlayer"><g class="trace scatter trace634be2" style="stroke-miterlimit: 2;"><g class="fills"><g><path class="js-fill" d="M540,258.93L0,258.93L0,258.03L1.4,220.15L2.81,212.59L4.21,209.65L5.61,209.59L7.01,204.07L8.42,201.57L9.82,200.26L11.22,201.85L12.62,196.25L14.03,194.03L15.43,190.94L16.83,199.16L18.23,196.77L19.64,198.98L21.04,189.96L22.44,186.01L23.84,183.59L25.25,182.81L29.45,190.18L30.86,177.45L32.26,169.66L33.66,168.42L35.06,166L36.47,170.86L37.87,170.69L39.27,168.01L42.08,167.97L43.48,168.75L46.29,166.64L47.69,140.16L49.09,142.03L50.49,147.62L51.9,146.45L53.3,146.37L57.51,149.64L58.91,156.37L60.31,152.99L61.71,160.9L63.12,160.88L64.52,161.97L65.92,165.33L67.32,162.77L70.13,162.12L71.53,159.95L74.34,159.58L75.74,157.99L77.14,159.35L78.55,159.14L85.56,159.4L86.96,158.01L88.36,158.67L89.77,170.33L91.17,168.32L92.57,157.56L100.99,158L102.39,158.85L103.79,157.08L105.19,156.91L106.6,193.18L108,197.88L110.81,182.41L112.21,188.22L113.61,178.74L115.01,177.56L116.42,176.7L117.82,178.47L119.22,182.45L120.62,181.51L122.03,180.62L123.43,182.35L124.83,182.83L126.23,182.5L127.64,177.28L129.04,177.68L131.84,176.6L133.25,176.64L137.45,176.42L138.86,174.07L140.26,174.14L141.66,170.3L143.06,169.84L144.47,164.89L147.27,147.47L148.68,147.88L150.08,146.15L151.48,146.06L152.88,144.71L154.29,141.31L155.69,140.66L157.09,136.4L158.49,133.53L159.9,137.29L162.7,137.35L164.1,140.33L165.51,152.09L166.91,152.48L168.31,152.9L169.71,152.12L173.92,152.17L175.32,157.36L176.73,157.26L178.13,154.23L179.53,141.67L180.94,139.08L182.34,143.16L183.74,143.09L185.14,148.15L186.55,148.63L187.95,145.91L189.35,145.94L190.75,149.16L192.16,147.29L194.96,125.94L196.36,124.58L197.77,129.39L199.17,125.79L200.57,124.67L201.97,126.51L204.78,125.7L206.18,128.79L207.58,124.64L208.99,115.81L210.39,112.81L211.79,112.03L213.19,110.23L214.6,87.44L216,44.02L217.4,40.5L218.81,42.88L220.21,33.15L221.61,32.4L223.01,17.95L224.42,17.56L225.82,16L227.22,20.31L228.62,30.44L230.03,34.63L231.43,34.62L232.83,43.04L234.23,57.74L235.64,59.97L237.04,60.35L238.44,60.09L239.84,40.25L241.25,42.32L242.65,40.08L244.05,40.34L245.45,38.31L246.86,43.44L248.26,52.39L251.06,53.56L252.47,67.08L255.27,68.53L256.68,67.7L258.08,65.57L259.48,61.27L260.88,60.26L262.29,60.17L265.09,59.7L266.49,61.07L269.3,60.73L270.7,57.58L272.1,58.86L273.51,56.77L274.91,52.51L276.31,52.98L277.71,51.16L279.12,63.47L281.92,59.52L283.32,51.46L284.73,49.33L286.13,52.02L288.94,58.54L290.34,61.22L291.74,61.42L293.14,60.06L297.35,62.21L298.75,78L300.16,88.15L301.56,130.98L304.36,201.52L305.77,203.83L308.57,215.07L309.97,217.83L311.38,220.66L312.78,227.71L316.99,231.5L318.39,231.98L319.79,232.68L321.19,235.61L322.6,236.99L324,237.2L325.4,282.29L326.81,282.66L328.21,283.16L329.61,284.65L335.22,286.61L336.62,284.34L340.83,284.98L342.23,288.43L343.64,290.22L345.04,290.38L349.25,290.94L350.65,290.96L363.27,291.47L364.68,294.11L368.88,294.12L370.29,294.96L381.51,295.63L382.91,299.59L420.78,301.34L422.18,301.82L455.84,302.78L457.25,303.15L499.32,303.95L500.73,303.95L540,304" style="fill: rgb(99, 110, 250); fill-opacity: 0.5; stroke-width: 0;"/></g></g><g class="errorbars"/><g class="lines"><path class="js-line" d="M0,258.03L1.4,220.15L2.81,212.59L4.21,209.65L5.61,209.59L7.01,204.07L8.42,201.57L9.82,200.26L11.22,201.85L12.62,196.25L14.03,194.03L15.43,190.94L16.83,199.16L18.23,196.77L19.64,198.98L21.04,189.96L22.44,186.01L23.84,183.59L25.25,182.81L29.45,190.18L30.86,177.45L32.26,169.66L33.66,168.42L35.06,166L36.47,170.86L37.87,170.69L39.27,168.01L42.08,167.97L43.48,168.75L46.29,166.64L47.69,140.16L49.09,142.03L50.49,147.62L51.9,146.45L53.3,146.37L57.51,149.64L58.91,156.37L60.31,152.99L61.71,160.9L63.12,160.88L64.52,161.97L65.92,165.33L67.32,162.77L70.13,162.12L71.53,159.95L74.34,159.58L75.74,157.99L77.14,159.35L78.55,159.14L85.56,159.4L86.96,158.01L88.36,158.67L89.77,170.33L91.17,168.32L92.57,157.56L100.99,158L102.39,158.85L103.79,157.08L105.19,156.91L106.6,193.18L108,197.88L110.81,182.41L112.21,188.22L113.61,178.74L115.01,177.56L116.42,176.7L117.82,178.47L119.22,182.45L120.62,181.51L122.03,180.62L123.43,182.35L124.83,182.83L126.23,182.5L127.64,177.28L129.04,177.68L131.84,176.6L133.25,176.64L137.45,176.42L138.86,174.07L140.26,174.14L141.66,170.3L143.06,169.84L144.47,164.89L147.27,147.47L148.68,147.88L150.08,146.15L151.48,146.06L152.88,144.71L154.29,141.31L155.69,140.66L157.09,136.4L158.49,133.53L159.9,137.29L162.7,137.35L164.1,140.33L165.51,152.09L166.91,152.48L168.31,152.9L169.71,152.12L173.92,152.17L175.32,157.36L176.73,157.26L178.13,154.23L179.53,141.67L180.94,139.08L182.34,143.16L183.74,143.09L185.14,148.15L186.55,148.63L187.95,145.91L189.35,145.94L190.75,149.16L192.16,147.29L194.96,125.94L196.36,124.58L197.77,129.39L199.17,125.79L200.57,124.67L201.97,126.51L204.78,125.7L206.18,128.79L207.58,124.64L208.99,115.81L210.39,112.81L211.79,112.03L213.19,110.23L214.6,87.44L216,44.02L217.4,40.5L218.81,42.88L220.21,33.15L221.61,32.4L223.01,17.95L224.42,17.56L225.82,16L227.22,20.31L228.62,30.44L230.03,34.63L231.43,34.62L232.83,43.04L234.23,57.74L235.64,59.97L237.04,60.35L238.44,60.09L239.84,40.25L241.25,42.32L242.65,40.08L244.05,40.34L245.45,38.31L246.86,43.44L248.26,52.39L251.06,53.56L252.47,67.08L255.27,68.53L256.68,67.7L258.08,65.57L259.48,61.27L260.88,60.26L262.29,60.17L265.09,59.7L266.49,61.07L269.3,60.73L270.7,57.58L272.1,58.86L273.51,56.77L274.91,52.51L276.31,52.98L277.71,51.16L279.12,63.47L281.92,59.52L283.32,51.46L284.73,49.33L286.13,52.02L288.94,58.54L290.34,61.22L291.74,61.42L293.14,60.06L297.35,62.21L298.75,78L300.16,88.15L301.56,130.98L304.36,201.52L305.77,203.83L308.57,215.07L309.97,217.83L311.38,220.66L312.78,227.71L316.99,231.5L318.39,231.98L319.79,232.68L321.19,235.61L322.6,236.99L324,237.2L325.4,282.29L326.81,282.66L328.21,283.16L329.61,284.65L335.22,286.61L336.62,284.34L340.83,284.98L342.23,288.43L343.64,290.22L345.04,290.38L349.25,290.94L350.65,290.96L363.27,291.47L364.68,294.11L368.88,294.12L370.29,294.96L381.51,295.63L382.91,299.59L420.78,301.34L422.18,301.82L455.84,302.78L457.25,303.15L499.32,303.95L500.73,303.95L540,304" style="vector-effect: none; fill: none; stroke: rgb(99, 110, 250); stroke-opacity: 1; stroke-width: 2px; opacity: 1;"/></g><g class="points"/><g class="text"/></g></g></g><g class="overplot"/><path class="xlines-above crisp" d="M0,0" style="fill: none;"/><path class="ylines-above crisp" d="M0,0" style="fill: none;"/><g class="overlines-above"/><g class="xaxislayer-above"><g class="xtick"><text text-anchor="middle" x="0" y="433" transform="translate(89.82,0)" style="font-family: 'Open Sans', verdana, arial, sans-serif; font-size: 12px; fill: rgb(42, 63, 95); fill-opacity: 1; white-space: pre; opacity: 1;">Sep 2022</text></g><g class="xtick"><text text-anchor="middle" x="0" y="433" style="font-family: 'Open Sans', verdana, arial, sans-serif; font-size: 12px; fill: rgb(42, 63, 95); fill-opacity: 1; white-space: pre; opacity: 1;" transform="translate(175.38,0)">Nov 2022</text></g><g class="xtick"><text text-anchor="middle" x="0" y="433" style="font-family: 'Open Sans', verdana, arial, sans-serif; font-size: 12px; fill: rgb(42, 63, 95); fill-opacity: 1; white-space: pre; opacity: 1;" transform="translate(260.94,0)">Jan 2023</text></g><g class="xtick"><text text-anchor="middle" x="0" y="433" style="font-family: 'Open Sans', verdana, arial, sans-serif; font-size: 12px; fill: rgb(42, 63, 95); fill-opacity: 1; white-space: pre; opacity: 1;" transform="translate(343.69,0)">Mar 2023</text></g><g class="xtick"><text text-anchor="middle" x="0" y="433" style="font-family: 'Open Sans', verdana, arial, sans-serif; font-size: 12px; fill: rgb(42, 63, 95); fill-opacity: 1; white-space: pre; opacity: 1;" transform="translate(429.25,0)">May 2023</text></g><g class="xtick"><text text-anchor="middle" x="0" y="433" style="font-family: 'Open Sans', verdana, arial, sans-serif; font-size: 12px; fill: rgb(42, 63, 95); fill-opacity: 1; white-space: pre; opacity: 1;" transform="translate(514.81,0)">Jul 2023</text></g><g class="xtick"><text text-anchor="middle" x="0" y="433" style="font-family: 'Open Sans', verdana, arial, sans-serif; font-size: 12px; fill: rgb(42, 63, 95); fill-opacity: 1; white-space: pre; opacity: 1;" transform="translate(601.77,0)">Sep 2023</text></g></g><g class="yaxislayer-above"><g class="ytick"><text text-anchor="end" x="79" y="4.199999999999999" transform="translate(0,402.5)" style="font-family: 'Open Sans', verdana, arial, sans-serif; font-size: 12px; fill: rgb(42, 63, 95); fill-opacity: 1; white-space: pre; opacity: 1;">$−5M</text></g><g class="ytick"><text text-anchor="end" x="79" y="4.199999999999999" style="font-family: 'Open Sans', verdana, arial, sans-serif; font-size: 12px; fill: rgb(42, 63, 95); fill-opacity: 1; white-space: pre; opacity: 1;" transform="translate(0,358.93)">$0</text></g><g class="ytick"><text text-anchor="end" x="79" y="4.199999999999999" style="font-family: 'Open Sans', verdana, arial, sans-serif; font-size: 12px; fill: rgb(42, 63, 95); fill-opacity: 1; white-space: pre; opacity: 1;" transform="translate(0,315.37)">$5M</text></g><g class="ytick"><text text-anchor="end" x="79" y="4.199999999999999" style="font-family: 'Open Sans', verdana, arial, sans-serif; font-size: 12px; fill: rgb(42, 63, 95); fill-opacity: 1; white-space: pre; opacity: 1;" transform="translate(0,271.81)">$10M</text></g><g class="ytick"><text text-anchor="end" x="79" y="4.199999999999999" style="font-family: 'Open Sans', verdana, arial, sans-serif; font-size: 12px; fill: rgb(42, 63, 95); fill-opacity: 1; white-space: pre; opacity: 1;" transform="translate(0,228.24)">$15M</text></g><g class="ytick"><text text-anchor="end" x="79" y="4.199999999999999" style="font-family: 'Open Sans', verdana, arial, sans-serif; font-size: 12px; fill: rgb(42, 63, 95); fill-opacity: 1; white-space: pre; opacity: 1;" transform="translate(0,184.68)">$20M</text></g><g class="ytick"><text text-anchor="end" x="79" y="4.199999999999999" style="font-family: 'Open Sans', verdana, arial, sans-serif; font-size: 12px; fill: rgb(42, 63, 95); fill-opacity: 1; white-space: pre; opacity: 1;" transform="translate(0,141.12)">$25M</text></g></g><g class="overaxes-above"/></g></g><g class="polarlayer"/><g class="smithlayer"/><g class="ternarylayer"/><g class="geolayer"/><g class="funnelarealayer"/><g class="pielayer"/><g class="iciclelayer"/><g class="treemaplayer"/><g class="sunburstlayer"/><g class="glimages"/><defs id="topdefs-c2f342"><g class="clips"/></defs><g class="layer-above"><g class="imagelayer"/><g class="shapelayer"/></g><g class="infolayer"><g class="g-gtitle"><text class="gtitle" x="35" y="50" text-anchor="start" dy="0em" style="font-family: 'Open Sans', verdana, arial, sans-serif; font-size: 17px; fill: rgb(42, 63, 95); opacity: 1; font-weight: normal; white-space: pre;"><tspan class="line" dy="0em" x="35" y="50">Synthetix - sETH-ETH: Curve</tspan><tspan class="line" dy="1.3em" x="35" y="50">​<tspan style="font-size:70%" dy="-0.6em">Cumulative Net Flows since Program Announcement, Until Program End + 30 Days - At Last Price</tspan><tspan dy="0.42em">​</tspan></tspan></text></g><g class="g-xtitle"><text class="xtitle" x="350" y="460.3" text-anchor="middle" style="font-family: 'Open Sans', verdana, arial, sans-serif; font-size: 14px; fill: rgb(42, 63, 95); opacity: 1; font-weight: normal; white-space: pre;">Day</text></g><g class="g-ytitle"><text class="ytitle" transform="rotate(-90,24.340625000000003,260)" x="24.340625000000003" y="260" text-anchor="middle" style="font-family: 'Open Sans', verdana, arial, sans-serif; font-size: 14px; fill: rgb(42, 63, 95); opacity: 1; font-weight: normal; white-space: pre;">Cumulative Net Flows (USD)</text></g></g></svg>