<svg class="main-svg" xmlns="http://www.w3.org/2000/svg" xmlns:xlink="http://www.w3.org/1999/xlink" width="700" height="500" style="" viewBox="0 0 700 500"><rect x="0" y="0" width="700" height="500" style="fill: rgb(255, 255, 255); fill-opacity: 1;"/><defs id="defs-ee4dfb"><g class="clips"><clipPath id="clipee4dfbxyplot" class="plotclip"><rect width="540" height="320"/></clipPath><clipPath class="axesclip" id="clipee4dfbx"><rect x="80" y="0" width="540" height="500"/></clipPath><clipPath class="axesclip" id="clipee4dfby"><rect x="0" y="100" width="700" height="320"/></clipPath><clipPath class="axesclip" id="clipee4dfbxy"><rect x="80" y="100" width="540" height="320"/></clipPath></g><g class="gradients"/><g class="patterns"/></defs><g class="bglayer"><rect class="bg" x="80" y="100" width="540" height="320" style="fill: rgb(229, 236, 246); fill-opacity: 1; stroke-width: 0;"/></g><g class="layer-below"><g class="imagelayer"/><g class="shapelayer"/></g><g class="cartesianlayer"><g class="subplot xy"><g class="layer-subplot"><g class="shapelayer"/><g class="imagelayer"/></g><g class="minor-gridlayer"><g class="x"/><g class="y"/></g><g class="gridlayer"><g class="x"><path class="xgrid crisp" transform="translate(124.81,0)" d="M0,100v320" style="stroke: rgb(255, 255, 255); stroke-opacity: 1; stroke-width: 1px;"/><path class="xgrid crisp" transform="translate(261.49,0)" d="M0,100v320" style="stroke: rgb(255, 255, 255); stroke-opacity: 1; stroke-width: 1px;"/><path class="xgrid crisp" transform="translate(400.41,0)" d="M0,100v320" style="stroke: rgb(255, 255, 255); stroke-opacity: 1; stroke-width: 1px;"/><path class="xgrid crisp" transform="translate(537.1,0)" d="M0,100v320" style="stroke: rgb(255, 255, 255); stroke-opacity: 1; stroke-width: 1px;"/></g><g class="y"><path class="ygrid crisp" transform="translate(0,340.94)" d="M80,0h540" style="stroke: rgb(255, 255, 255); stroke-opacity: 1; stroke-width: 1px;"/><path class="ygrid crisp" transform="translate(0,261.89)" d="M80,0h540" style="stroke: rgb(255, 255, 255); stroke-opacity: 1; stroke-width: 1px;"/><path class="ygrid crisp" transform="translate(0,182.82999999999998)" d="M80,0h540" style="stroke: rgb(255, 255, 255); stroke-opacity: 1; stroke-width: 1px;"/><path class="ygrid crisp" transform="translate(0,103.77)" d="M80,0h540" style="stroke: rgb(255, 255, 255); stroke-opacity: 1; stroke-width: 1px;"/></g></g><g class="zerolinelayer"><path class="yzl zl crisp" transform="translate(0,420)" d="M80,0h540" style="stroke: rgb(255, 255, 255); stroke-opacity: 1; stroke-width: 2px;"/></g><path class="xlines-below"/><path class="ylines-below"/><g class="overlines-below"/><g class="xaxislayer-below"/><g class="yaxislayer-below"/><g class="overaxes-below"/><g class="plot" transform="translate(80,100)" clip-path="url(#clipee4dfbxyplot)"><g class="scatterlayer mlayer"><g class="trace scatter trace393e7f" style="stroke-miterlimit: 2;"><g class="fills"><g><path class="js-fill" d="M540,320L0,320L0,320L2.24,312.1L4.48,251.08L6.72,180.55L8.96,175.85L11.2,141.49L13.44,159.9L17.93,132.07L20.17,92.05L22.41,94.53L24.65,102.26L26.89,100.37L29.13,44.56L31.37,44.86L33.61,46.99L35.85,56.31L38.09,51.42L40.33,54.72L42.57,50.58L44.81,49.92L47.05,51.22L49.29,46.85L51.54,59.28L53.78,78.74L56.02,16.07L58.26,17.12L60.5,16L62.74,29.66L64.98,29.72L67.22,29.16L69.46,34.54L71.7,45.64L73.94,46.49L78.42,57.13L80.66,62.02L82.9,85.72L85.15,84.69L87.39,84.25L89.63,90.44L91.87,96.49L94.11,113.57L96.35,79.9L98.59,80.73L100.83,84.96L103.07,69.99L105.31,70.12L107.55,68.38L109.79,69.4L112.03,69.4L114.27,108.53L116.51,109.31L118.76,109.15L121,111.12L123.24,111.12L125.48,112.04L127.72,112.04L129.96,193.18L132.2,192.92L134.44,167.66L136.68,194.71L138.92,196.6L141.16,195.9L143.4,203.72L145.64,214.2L147.88,215.51L150.12,215.59L152.37,240.94L154.61,221.89L156.85,222.19L159.09,224.67L161.33,210.55L163.57,212.09L165.81,210.13L170.29,210.27L172.53,195L177.01,209.4L179.25,255.12L181.49,229.79L183.73,216.09L188.22,206.19L190.46,213.33L192.7,219.68L194.94,217.59L197.18,230.19L199.42,230.18L203.9,225.13L206.14,224.72L210.62,228.77L212.86,224.65L215.1,204.11L217.34,210.12L219.59,240.48L221.83,236.09L224.07,219.78L226.31,184.9L228.55,184.49L230.79,172.31L233.03,177.56L235.27,177.7L237.51,177.72L239.75,171.63L241.99,172.6L244.23,172.75L246.47,175.04L248.71,158.84L250.95,174.63L253.2,176.27L257.68,182.36L259.92,183.96L262.16,198.71L264.4,198.29L268.88,197.92L271.12,205.45L273.36,205.31L275.6,192.08L277.84,191.88L280.08,196.93L282.32,181.86L284.56,173.37L286.8,174.24L289.05,158.98L291.29,159.92L293.53,158.4L295.77,170.79L298.01,175L300.25,177.25L302.49,196.86L304.73,198.8L306.97,198.28L309.21,200.05L311.45,194.81L313.69,177.8L315.93,171.69L318.17,170.74L320.41,175.82L322.66,175.99L324.9,161.51L327.14,161.34L329.38,165.3L333.86,165.41L336.1,166.61L338.34,167L340.58,165.86L342.82,166.76L345.06,166.76L347.3,182.71L349.54,182.71L351.78,187.42L354.02,188.79L358.51,188.31L360.75,188.3L362.99,186.29L365.23,190.73L367.47,190.72L369.71,189.18L371.95,189.07L374.19,194.01L376.43,192.85L378.67,194.21L385.39,194.11L387.63,206.44L392.12,237.22L394.36,275.53L398.84,290.36L401.08,288.71L403.32,286.36L405.56,288.1L407.8,289.15L410.04,289.29L412.28,289.4L414.52,291.92L419,290.14L421.24,290.52L423.49,291.17L425.73,293.04L434.69,293.41L436.93,299.22L441.41,302.68L443.65,302.68L445.89,290.14L448.13,290.07L452.61,290.24L454.85,288.9L457.1,290.18L459.34,288.9L466.06,288.33L468.3,307.38L475.02,306.96L477.26,310.58L486.22,310.82L488.46,308.58L490.71,307.49L492.95,307.49L515.35,307.23L517.59,308.69L540,308.68" style="fill: rgb(99, 110, 250); fill-opacity: 0.5; stroke-width: 0;"/></g></g><g class="errorbars"/><g class="lines"><path class="js-line" d="M0,320L2.24,312.1L4.48,251.08L6.72,180.55L8.96,175.85L11.2,141.49L13.44,159.9L17.93,132.07L20.17,92.05L22.41,94.53L24.65,102.26L26.89,100.37L29.13,44.56L31.37,44.86L33.61,46.99L35.85,56.31L38.09,51.42L40.33,54.72L42.57,50.58L44.81,49.92L47.05,51.22L49.29,46.85L51.54,59.28L53.78,78.74L56.02,16.07L58.26,17.12L60.5,16L62.74,29.66L64.98,29.72L67.22,29.16L69.46,34.54L71.7,45.64L73.94,46.49L78.42,57.13L80.66,62.02L82.9,85.72L85.15,84.69L87.39,84.25L89.63,90.44L91.87,96.49L94.11,113.57L96.35,79.9L98.59,80.73L100.83,84.96L103.07,69.99L105.31,70.12L107.55,68.38L109.79,69.4L112.03,69.4L114.27,108.53L116.51,109.31L118.76,109.15L121,111.12L123.24,111.12L125.48,112.04L127.72,112.04L129.96,193.18L132.2,192.92L134.44,167.66L136.68,194.71L138.92,196.6L141.16,195.9L143.4,203.72L145.64,214.2L147.88,215.51L150.12,215.59L152.37,240.94L154.61,221.89L156.85,222.19L159.09,224.67L161.33,210.55L163.57,212.09L165.81,210.13L170.29,210.27L172.53,195L177.01,209.4L179.25,255.12L181.49,229.79L183.73,216.09L188.22,206.19L190.46,213.33L192.7,219.68L194.94,217.59L197.18,230.19L199.42,230.18L203.9,225.13L206.14,224.72L210.62,228.77L212.86,224.65L215.1,204.11L217.34,210.12L219.59,240.48L221.83,236.09L224.07,219.78L226.31,184.9L228.55,184.49L230.79,172.31L233.03,177.56L235.27,177.7L237.51,177.72L239.75,171.63L241.99,172.6L244.23,172.75L246.47,175.04L248.71,158.84L250.95,174.63L253.2,176.27L257.68,182.36L259.92,183.96L262.16,198.71L264.4,198.29L268.88,197.92L271.12,205.45L273.36,205.31L275.6,192.08L277.84,191.88L280.08,196.93L282.32,181.86L284.56,173.37L286.8,174.24L289.05,158.98L291.29,159.92L293.53,158.4L295.77,170.79L298.01,175L300.25,177.25L302.49,196.86L304.73,198.8L306.97,198.28L309.21,200.05L311.45,194.81L313.69,177.8L315.93,171.69L318.17,170.74L320.41,175.82L322.66,175.99L324.9,161.51L327.14,161.34L329.38,165.3L333.86,165.41L336.1,166.61L338.34,167L340.58,165.86L342.82,166.76L345.06,166.76L347.3,182.71L349.54,182.71L351.78,187.42L354.02,188.79L358.51,188.31L360.75,188.3L362.99,186.29L365.23,190.73L367.47,190.72L369.71,189.18L371.95,189.07L374.19,194.01L376.43,192.85L378.67,194.21L385.39,194.11L387.63,206.44L392.12,237.22L394.36,275.53L398.84,290.36L401.08,288.71L403.32,286.36L405.56,288.1L407.8,289.15L410.04,289.29L412.28,289.4L414.52,291.92L419,290.14L421.24,290.52L423.49,291.17L425.73,293.04L434.69,293.41L436.93,299.22L441.41,302.68L443.65,302.68L445.89,290.14L448.13,290.07L452.61,290.24L454.85,288.9L457.1,290.18L459.34,288.9L466.06,288.33L468.3,307.38L475.02,306.96L477.26,310.58L486.22,310.82L488.46,308.58L490.71,307.49L492.95,307.49L515.35,307.23L517.59,308.69L540,308.68" style="vector-effect: none; fill: none; stroke: rgb(99, 110, 250); stroke-opacity: 1; stroke-width: 2px; opacity: 1;"/></g><g class="points"/><g class="text"/></g></g></g><g class="overplot"/><path class="xlines-above crisp" d="M0,0" style="fill: none;"/><path class="ylines-above crisp" d="M0,0" style="fill: none;"/><g class="overlines-above"/><g class="xaxislayer-above"><g class="xtick"><text text-anchor="middle" x="0" y="433" transform="translate(124.81,0)" style="font-family: 'Open Sans', verdana, arial, sans-serif; font-size: 12px; fill: rgb(42, 63, 95); fill-opacity: 1; white-space: pre; opacity: 1;">May 2023</text></g><g class="xtick"><text text-anchor="middle" x="0" y="433" style="font-family: 'Open Sans', verdana, arial, sans-serif; font-size: 12px; fill: rgb(42, 63, 95); fill-opacity: 1; white-space: pre; opacity: 1;" transform="translate(261.49,0)">Jul 2023</text></g><g class="xtick"><text text-anchor="middle" x="0" y="433" style="font-family: 'Open Sans', verdana, arial, sans-serif; font-size: 12px; fill: rgb(42, 63, 95); fill-opacity: 1; white-space: pre; opacity: 1;" transform="translate(400.41,0)">Sep 2023</text></g><g class="xtick"><text text-anchor="middle" x="0" y="433" style="font-family: 'Open Sans', verdana, arial, sans-serif; font-size: 12px; fill: rgb(42, 63, 95); fill-opacity: 1; white-space: pre; opacity: 1;" transform="translate(537.1,0)">Nov 2023</text></g></g><g class="yaxislayer-above"><g class="ytick"><text text-anchor="end" x="79" y="4.199999999999999" transform="translate(0,420)" style="font-family: 'Open Sans', verdana, arial, sans-serif; font-size: 12px; fill: rgb(42, 63, 95); fill-opacity: 1; white-space: pre; opacity: 1;">$0</text></g><g class="ytick"><text text-anchor="end" x="79" y="4.199999999999999" style="font-family: 'Open Sans', verdana, arial, sans-serif; font-size: 12px; fill: rgb(42, 63, 95); fill-opacity: 1; white-space: pre; opacity: 1;" transform="translate(0,340.94)">$0.5M</text></g><g class="ytick"><text text-anchor="end" x="79" y="4.199999999999999" style="font-family: 'Open Sans', verdana, arial, sans-serif; font-size: 12px; fill: rgb(42, 63, 95); fill-opacity: 1; white-space: pre; opacity: 1;" transform="translate(0,261.89)">$1M</text></g><g class="ytick"><text text-anchor="end" x="79" y="4.199999999999999" style="font-family: 'Open Sans', verdana, arial, sans-serif; font-size: 12px; fill: rgb(42, 63, 95); fill-opacity: 1; white-space: pre; opacity: 1;" transform="translate(0,182.82999999999998)">$1.5M</text></g><g class="ytick"><text text-anchor="end" x="79" y="4.199999999999999" style="font-family: 'Open Sans', verdana, arial, sans-serif; font-size: 12px; fill: rgb(42, 63, 95); fill-opacity: 1; white-space: pre; opacity: 1;" transform="translate(0,103.77)">$2M</text></g></g><g class="overaxes-above"/></g></g><g class="polarlayer"/><g class="smithlayer"/><g class="ternarylayer"/><g class="geolayer"/><g class="funnelarealayer"/><g class="pielayer"/><g class="iciclelayer"/><g class="treemaplayer"/><g class="sunburstlayer"/><g class="glimages"/><defs id="topdefs-ee4dfb"><g class="clips"/></defs><g class="layer-above"><g class="imagelayer"/><g class="shapelayer"/></g><g class="infolayer"><g class="g-gtitle"><text class="gtitle" x="35" y="50" text-anchor="start" dy="0em" style="font-family: 'Open Sans', verdana, arial, sans-serif; font-size: 17px; fill: rgb(42, 63, 95); opacity: 1; font-weight: normal; white-space: pre;"><tspan class="line" dy="0em" x="35" y="50">Synthetix - sUSD Bridge: Hop</tspan><tspan class="line" dy="1.3em" x="35" y="50">​<tspan style="font-size:70%" dy="-0.6em">Cumulative Net Flows since Program Announcement, Until Program End + 30 Days - At Last Price</tspan><tspan dy="0.42em">​</tspan></tspan></text></g><g class="g-xtitle"><text class="xtitle" x="350" y="460.3" text-anchor="middle" style="font-family: 'Open Sans', verdana, arial, sans-serif; font-size: 14px; fill: rgb(42, 63, 95); opacity: 1; font-weight: normal; white-space: pre;">Day</text></g><g class="g-ytitle"><text class="ytitle" transform="rotate(-90,21.340625000000003,260)" x="21.340625000000003" y="260" text-anchor="middle" style="font-family: 'Open Sans', verdana, arial, sans-serif; font-size: 14px; fill: rgb(42, 63, 95); opacity: 1; font-weight: normal; white-space: pre;">Cumulative Net Flows (USD)</text></g></g></svg>