<svg class="main-svg" xmlns="http://www.w3.org/2000/svg" xmlns:xlink="http://www.w3.org/1999/xlink" width="700" height="500" style="" viewBox="0 0 700 500"><rect x="0" y="0" width="700" height="500" style="fill: rgb(255, 255, 255); fill-opacity: 1;"/><defs id="defs-c3c24b"><g class="clips"><clipPath id="clipc3c24bxyplot" class="plotclip"><rect width="540" height="320"/></clipPath><clipPath class="axesclip" id="clipc3c24bx"><rect x="80" y="0" width="540" height="500"/></clipPath><clipPath class="axesclip" id="clipc3c24by"><rect x="0" y="100" width="700" height="320"/></clipPath><clipPath class="axesclip" id="clipc3c24bxy"><rect x="80" y="100" width="540" height="320"/></clipPath></g><g class="gradients"/><g class="patterns"/></defs><g class="bglayer"><rect class="bg" x="80" y="100" width="540" height="320" style="fill: rgb(229, 236, 246); fill-opacity: 1; stroke-width: 0;"/></g><g class="layer-below"><g class="imagelayer"/><g class="shapelayer"/></g><g class="cartesianlayer"><g class="subplot xy"><g class="layer-subplot"><g class="shapelayer"/><g class="imagelayer"/></g><g class="minor-gridlayer"><g class="x"/><g class="y"/></g><g class="gridlayer"><g class="x"><path class="xgrid crisp" transform="translate(145.79000000000002,0)" d="M0,100v320" style="stroke: rgb(255, 255, 255); stroke-opacity: 1; stroke-width: 1px;"/><path class="xgrid crisp" transform="translate(230.76,0)" d="M0,100v320" style="stroke: rgb(255, 255, 255); stroke-opacity: 1; stroke-width: 1px;"/><path class="xgrid crisp" transform="translate(312.99,0)" d="M0,100v320" style="stroke: rgb(255, 255, 255); stroke-opacity: 1; stroke-width: 1px;"/><path class="xgrid crisp" transform="translate(397.97,0)" d="M0,100v320" style="stroke: rgb(255, 255, 255); stroke-opacity: 1; stroke-width: 1px;"/><path class="xgrid crisp" transform="translate(482.94,0)" d="M0,100v320" style="stroke: rgb(255, 255, 255); stroke-opacity: 1; stroke-width: 1px;"/><path class="xgrid crisp" transform="translate(565.1800000000001,0)" d="M0,100v320" style="stroke: rgb(255, 255, 255); stroke-opacity: 1; stroke-width: 1px;"/></g><g class="y"><path class="ygrid crisp" transform="translate(0,306.2)" d="M80,0h540" style="stroke: rgb(255, 255, 255); stroke-opacity: 1; stroke-width: 1px;"/><path class="ygrid crisp" transform="translate(0,229.44)" d="M80,0h540" style="stroke: rgb(255, 255, 255); stroke-opacity: 1; stroke-width: 1px;"/><path class="ygrid crisp" transform="translate(0,152.67000000000002)" d="M80,0h540" style="stroke: rgb(255, 255, 255); stroke-opacity: 1; stroke-width: 1px;"/></g></g><g class="zerolinelayer"><path class="yzl zl crisp" transform="translate(0,382.96)" d="M80,0h540" style="stroke: rgb(255, 255, 255); stroke-opacity: 1; stroke-width: 2px;"/></g><path class="xlines-below"/><path class="ylines-below"/><g class="overlines-below"/><g class="xaxislayer-below"/><g class="yaxislayer-below"/><g class="overaxes-below"/><g class="plot" transform="translate(80,100)" clip-path="url(#clipc3c24bxyplot)"><g class="scatterlayer mlayer"><g class="trace scatter traceca760b" style="stroke-miterlimit: 2;"><g class="fills"><g><path class="js-fill" d="M540,282.96L0,282.96L0,120.92L2.74,124.98L5.48,137.25L8.22,140.95L10.96,147.81L13.71,148.55L16.45,131.34L21.93,110.97L24.67,82.17L30.15,65.11L32.89,64.81L35.63,43.12L38.38,37.28L41.12,30.57L43.86,25.97L46.6,19.09L49.34,21.52L52.08,19.8L54.82,19.88L57.56,16L60.3,30.21L63.05,30.64L65.79,35.16L68.53,35.3L71.27,38.08L76.75,35.5L79.49,44.36L82.23,44.77L84.97,47.13L87.72,53.31L90.46,54.12L93.2,53.82L95.94,50.09L98.68,48.2L101.42,49.78L104.16,48.16L106.9,48.17L109.64,48.46L112.39,39.36L117.87,38.38L120.61,38.16L126.09,38.38L128.83,38.28L131.57,35.64L134.31,34.84L137.06,34.8L139.8,42.37L142.54,38.05L145.28,44.19L148.02,60.98L150.76,59.5L153.5,51.18L156.24,51.34L158.98,50.56L161.73,59L164.47,43.29L167.21,41.27L169.95,57.34L172.69,58.92L175.43,80.55L178.17,84.84L183.65,86.15L186.4,87.49L189.14,89.97L191.88,90.2L194.62,88.46L197.36,88.57L202.84,89.01L205.58,85.75L208.32,127.68L211.07,130.03L216.55,131.21L219.29,132.92L222.03,141.9L224.77,154.52L227.51,223.6L230.25,235.67L232.99,262.62L235.74,264.42L238.48,266.15L241.22,266.71L246.7,267.62L249.44,269.08L252.18,269.31L254.92,294.29L263.15,295.18L265.89,296.52L271.37,297.35L274.11,297.48L287.82,297.97L290.56,298.91L301.52,299.59L304.26,299.71L323.45,300.83L326.19,301.42L383.76,301.65L386.5,303.59L389.24,301.89L391.98,301.92L441.32,302.28L444.06,303.77L446.8,303.77L449.54,302.32L463.25,302.34L465.99,303.79L468.73,302.34L471.47,302.34L474.21,303.79L476.95,302.35L515.33,302.53L518.07,303.9L520.81,303.9L523.55,302.49L526.29,303.91L529.04,302.48L537.26,302.55L540,304" style="fill: rgb(99, 110, 250); fill-opacity: 0.5; stroke-width: 0;"/></g></g><g class="errorbars"/><g class="lines"><path class="js-line" d="M0,120.92L2.74,124.98L5.48,137.25L8.22,140.95L10.96,147.81L13.71,148.55L16.45,131.34L21.93,110.97L24.67,82.17L30.15,65.11L32.89,64.81L35.63,43.12L38.38,37.28L41.12,30.57L43.86,25.97L46.6,19.09L49.34,21.52L52.08,19.8L54.82,19.88L57.56,16L60.3,30.21L63.05,30.64L65.79,35.16L68.53,35.3L71.27,38.08L76.75,35.5L79.49,44.36L82.23,44.77L84.97,47.13L87.72,53.31L90.46,54.12L93.2,53.82L95.94,50.09L98.68,48.2L101.42,49.78L104.16,48.16L106.9,48.17L109.64,48.46L112.39,39.36L117.87,38.38L120.61,38.16L126.09,38.38L128.83,38.28L131.57,35.64L134.31,34.84L137.06,34.8L139.8,42.37L142.54,38.05L145.28,44.19L148.02,60.98L150.76,59.5L153.5,51.18L156.24,51.34L158.98,50.56L161.73,59L164.47,43.29L167.21,41.27L169.95,57.34L172.69,58.92L175.43,80.55L178.17,84.84L183.65,86.15L186.4,87.49L189.14,89.97L191.88,90.2L194.62,88.46L197.36,88.57L202.84,89.01L205.58,85.75L208.32,127.68L211.07,130.03L216.55,131.21L219.29,132.92L222.03,141.9L224.77,154.52L227.51,223.6L230.25,235.67L232.99,262.62L235.74,264.42L238.48,266.15L241.22,266.71L246.7,267.62L249.44,269.08L252.18,269.31L254.92,294.29L263.15,295.18L265.89,296.52L271.37,297.35L274.11,297.48L287.82,297.97L290.56,298.91L301.52,299.59L304.26,299.71L323.45,300.83L326.19,301.42L383.76,301.65L386.5,303.59L389.24,301.89L391.98,301.92L441.32,302.28L444.06,303.77L446.8,303.77L449.54,302.32L463.25,302.34L465.99,303.79L468.73,302.34L471.47,302.34L474.21,303.79L476.95,302.35L515.33,302.53L518.07,303.9L520.81,303.9L523.55,302.49L526.29,303.91L529.04,302.48L537.26,302.55L540,304" style="vector-effect: none; fill: none; stroke: rgb(99, 110, 250); stroke-opacity: 1; stroke-width: 2px; opacity: 1;"/></g><g class="points"/><g class="text"/></g></g></g><g class="overplot"/><path class="xlines-above crisp" d="M0,0" style="fill: none;"/><path class="ylines-above crisp" d="M0,0" style="fill: none;"/><g class="overlines-above"/><g class="xaxislayer-above"><g class="xtick"><text text-anchor="middle" x="0" y="433" transform="translate(145.79000000000002,0)" style="font-family: 'Open Sans', verdana, arial, sans-serif; font-size: 12px; fill: rgb(42, 63, 95); fill-opacity: 1; white-space: pre; opacity: 1;">May 2023</text></g><g class="xtick"><text text-anchor="middle" x="0" y="433" style="font-family: 'Open Sans', verdana, arial, sans-serif; font-size: 12px; fill: rgb(42, 63, 95); fill-opacity: 1; white-space: pre; opacity: 1;" transform="translate(230.76,0)">Jun 2023</text></g><g class="xtick"><text text-anchor="middle" x="0" y="433" style="font-family: 'Open Sans', verdana, arial, sans-serif; font-size: 12px; fill: rgb(42, 63, 95); fill-opacity: 1; white-space: pre; opacity: 1;" transform="translate(312.99,0)">Jul 2023</text></g><g class="xtick"><text text-anchor="middle" x="0" y="433" style="font-family: 'Open Sans', verdana, arial, sans-serif; font-size: 12px; fill: rgb(42, 63, 95); fill-opacity: 1; white-space: pre; opacity: 1;" transform="translate(397.97,0)">Aug 2023</text></g><g class="xtick"><text text-anchor="middle" x="0" y="433" style="font-family: 'Open Sans', verdana, arial, sans-serif; font-size: 12px; fill: rgb(42, 63, 95); fill-opacity: 1; white-space: pre; opacity: 1;" transform="translate(482.94,0)">Sep 2023</text></g><g class="xtick"><text text-anchor="middle" x="0" y="433" style="font-family: 'Open Sans', verdana, arial, sans-serif; font-size: 12px; fill: rgb(42, 63, 95); fill-opacity: 1; white-space: pre; opacity: 1;" transform="translate(565.1800000000001,0)">Oct 2023</text></g></g><g class="yaxislayer-above"><g class="ytick"><text text-anchor="end" x="79" y="4.199999999999999" transform="translate(0,382.96)" style="font-family: 'Open Sans', verdana, arial, sans-serif; font-size: 12px; fill: rgb(42, 63, 95); fill-opacity: 1; white-space: pre; opacity: 1;">$0</text></g><g class="ytick"><text text-anchor="end" x="79" y="4.199999999999999" style="font-family: 'Open Sans', verdana, arial, sans-serif; font-size: 12px; fill: rgb(42, 63, 95); fill-opacity: 1; white-space: pre; opacity: 1;" transform="translate(0,306.2)">$5M</text></g><g class="ytick"><text text-anchor="end" x="79" y="4.199999999999999" style="font-family: 'Open Sans', verdana, arial, sans-serif; font-size: 12px; fill: rgb(42, 63, 95); fill-opacity: 1; white-space: pre; opacity: 1;" transform="translate(0,229.44)">$10M</text></g><g class="ytick"><text text-anchor="end" x="79" y="4.199999999999999" style="font-family: 'Open Sans', verdana, arial, sans-serif; font-size: 12px; fill: rgb(42, 63, 95); fill-opacity: 1; white-space: pre; opacity: 1;" transform="translate(0,152.67000000000002)">$15M</text></g></g><g class="overaxes-above"/></g></g><g class="polarlayer"/><g class="smithlayer"/><g class="ternarylayer"/><g class="geolayer"/><g class="funnelarealayer"/><g class="pielayer"/><g class="iciclelayer"/><g class="treemaplayer"/><g class="sunburstlayer"/><g class="glimages"/><defs id="topdefs-c3c24b"><g class="clips"/></defs><g class="layer-above"><g class="imagelayer"/><g class="shapelayer"/></g><g class="infolayer"><g class="g-gtitle"><text class="gtitle" x="35" y="50" text-anchor="start" dy="0em" style="font-family: 'Open Sans', verdana, arial, sans-serif; font-size: 17px; fill: rgb(42, 63, 95); opacity: 1; font-weight: normal; white-space: pre;"><tspan class="line" dy="0em" x="35" y="50">Lido - All Lido Velo Pools</tspan><tspan class="line" dy="1.3em" x="35" y="50">​<tspan style="font-size:70%" dy="-0.6em">Cumulative Net Flows since Program Announcement, Until Program End + 30 Days - At Last Price</tspan><tspan dy="0.42em">​</tspan></tspan></text></g><g class="g-xtitle"><text class="xtitle" x="350" y="460.3" text-anchor="middle" style="font-family: 'Open Sans', verdana, arial, sans-serif; font-size: 14px; fill: rgb(42, 63, 95); opacity: 1; font-weight: normal; white-space: pre;">Day</text></g><g class="g-ytitle"><text class="ytitle" transform="rotate(-90,24.668750000000003,260)" x="24.668750000000003" y="260" text-anchor="middle" style="font-family: 'Open Sans', verdana, arial, sans-serif; font-size: 14px; fill: rgb(42, 63, 95); opacity: 1; font-weight: normal; white-space: pre;">Cumulative Net Flows (USD)</text></g></g></svg>