<svg class="main-svg" xmlns="http://www.w3.org/2000/svg" xmlns:xlink="http://www.w3.org/1999/xlink" width="700" height="500" style="" viewBox="0 0 700 500"><rect x="0" y="0" width="700" height="500" style="fill: rgb(255, 255, 255); fill-opacity: 1;"/><defs id="defs-1c9073"><g class="clips"><clipPath id="clip1c9073xyplot" class="plotclip"><rect width="540" height="320"/></clipPath><clipPath class="axesclip" id="clip1c9073x"><rect x="80" y="0" width="540" height="500"/></clipPath><clipPath class="axesclip" id="clip1c9073y"><rect x="0" y="100" width="700" height="320"/></clipPath><clipPath class="axesclip" id="clip1c9073xy"><rect x="80" y="100" width="540" height="320"/></clipPath></g><g class="gradients"/><g class="patterns"/></defs><g class="bglayer"><rect class="bg" x="80" y="100" width="540" height="320" style="fill: rgb(229, 236, 246); fill-opacity: 1; stroke-width: 0;"/></g><g class="layer-below"><g class="imagelayer"/><g class="shapelayer"/></g><g class="cartesianlayer"><g class="subplot xy"><g class="layer-subplot"><g class="shapelayer"/><g class="imagelayer"/></g><g class="minor-gridlayer"><g class="x"/><g class="y"/></g><g class="gridlayer"><g class="x"><path class="xgrid crisp" transform="translate(88.59,0)" d="M0,100v320" style="stroke: rgb(255, 255, 255); stroke-opacity: 1; stroke-width: 1px;"/><path class="xgrid crisp" transform="translate(163.45,0)" d="M0,100v320" style="stroke: rgb(255, 255, 255); stroke-opacity: 1; stroke-width: 1px;"/><path class="xgrid crisp" transform="translate(238.32,0)" d="M0,100v320" style="stroke: rgb(255, 255, 255); stroke-opacity: 1; stroke-width: 1px;"/><path class="xgrid crisp" transform="translate(310.73,0)" d="M0,100v320" style="stroke: rgb(255, 255, 255); stroke-opacity: 1; stroke-width: 1px;"/><path class="xgrid crisp" transform="translate(385.59,0)" d="M0,100v320" style="stroke: rgb(255, 255, 255); stroke-opacity: 1; stroke-width: 1px;"/><path class="xgrid crisp" transform="translate(460.45,0)" d="M0,100v320" style="stroke: rgb(255, 255, 255); stroke-opacity: 1; stroke-width: 1px;"/><path class="xgrid crisp" transform="translate(536.55,0)" d="M0,100v320" style="stroke: rgb(255, 255, 255); stroke-opacity: 1; stroke-width: 1px;"/><path class="xgrid crisp" transform="translate(611.41,0)" d="M0,100v320" style="stroke: rgb(255, 255, 255); stroke-opacity: 1; stroke-width: 1px;"/></g><g class="y"><path class="ygrid crisp" transform="translate(0,400.41)" d="M80,0h540" style="stroke: rgb(255, 255, 255); stroke-opacity: 1; stroke-width: 1px;"/><path class="ygrid crisp" transform="translate(0,313.91999999999996)" d="M80,0h540" style="stroke: rgb(255, 255, 255); stroke-opacity: 1; stroke-width: 1px;"/><path class="ygrid crisp" transform="translate(0,270.66999999999996)" d="M80,0h540" style="stroke: rgb(255, 255, 255); stroke-opacity: 1; stroke-width: 1px;"/><path class="ygrid crisp" transform="translate(0,227.43)" d="M80,0h540" style="stroke: rgb(255, 255, 255); stroke-opacity: 1; stroke-width: 1px;"/><path class="ygrid crisp" transform="translate(0,184.18)" d="M80,0h540" style="stroke: rgb(255, 255, 255); stroke-opacity: 1; stroke-width: 1px;"/><path class="ygrid crisp" transform="translate(0,140.94)" d="M80,0h540" style="stroke: rgb(255, 255, 255); stroke-opacity: 1; stroke-width: 1px;"/></g></g><g class="zerolinelayer"><path class="yzl zl crisp" transform="translate(0,357.16)" d="M80,0h540" style="stroke: rgb(255, 255, 255); stroke-opacity: 1; stroke-width: 2px;"/></g><path class="xlines-below"/><path class="ylines-below"/><g class="overlines-below"/><g class="xaxislayer-below"/><g class="yaxislayer-below"/><g class="overaxes-below"/><g class="plot" transform="translate(80,100)" clip-path="url(#clip1c9073xyplot)"><g class="scatterlayer mlayer"><g class="trace scatter trace3c374e" style="stroke-miterlimit: 2;"><g class="fills"><g><path class="js-fill" d="M540,257.16L0,257.16L0,256.26L1.23,218.67L2.45,211.16L3.68,208.24L4.91,208.18L7.36,200.22L8.59,198.92L9.82,200.5L11.05,194.94L13.5,189.67L14.73,197.83L15.95,195.45L17.18,197.65L19.64,184.77L20.86,182.37L22.09,181.6L23.32,184.11L24.55,187.77L25.77,188.91L28.23,168.54L29.45,167.31L30.68,164.9L31.91,169.73L33.14,169.56L34.36,166.91L36.82,166.86L38.05,167.63L40.5,165.55L41.73,139.25L42.95,141.11L44.18,146.66L45.41,145.5L46.64,145.42L50.32,148.67L51.55,155.34L52.77,152L54,159.84L55.23,159.83L56.45,160.9L57.68,164.24L58.91,161.7L61.36,161.05L62.59,158.9L65.05,158.53L66.27,156.95L67.5,158.31L68.73,158.1L74.86,158.36L76.09,156.97L77.32,157.63L78.55,169.2L79.77,167.21L81,156.53L88.36,156.96L89.59,157.8L90.82,156.05L92.05,155.89L93.27,191.89L94.5,196.56L96.95,181.2L98.18,186.96L99.41,177.56L100.64,176.38L101.86,175.53L103.09,177.29L104.32,181.23L105.55,180.31L106.77,179.42L108,181.14L109.23,181.62L110.45,181.28L111.68,176.1L112.91,176.5L115.36,175.43L116.59,175.47L120.27,175.25L121.5,172.92L122.73,172.99L123.95,169.17L125.18,168.72L126.41,163.8L128.86,146.51L130.09,146.92L131.32,145.21L132.55,145.11L133.77,143.77L135,140.4L136.23,139.75L137.45,135.52L138.68,132.67L139.91,136.41L142.36,136.46L143.59,139.43L144.82,151.1L146.05,151.48L147.27,151.91L148.5,151.13L152.18,151.18L153.41,156.33L154.64,156.23L155.86,153.22L157.09,140.76L158.32,138.19L159.55,142.23L160.77,142.17L162,147.19L163.23,147.66L164.45,144.97L165.68,144.99L166.91,148.19L168.14,146.33L170.59,125.14L171.82,123.79L173.05,128.56L174.27,124.99L175.5,123.88L176.73,125.7L179.18,124.9L180.41,127.97L181.64,123.85L182.86,115.08L184.09,112.1L185.32,111.33L186.55,109.55L187.77,86.92L189,43.82L190.23,40.32L191.45,42.68L192.68,33.02L193.91,32.28L195.14,17.94L196.36,17.55L197.59,16L198.82,20.27L200.05,30.34L201.27,34.5L202.5,34.48L203.73,42.85L204.95,57.44L206.18,59.65L207.41,60.03L208.64,59.77L209.86,40.08L211.09,42.13L212.32,39.91L213.55,40.17L214.77,38.15L216,43.24L217.23,52.12L219.68,53.29L220.91,66.71L223.36,68.15L224.59,67.32L225.82,65.21L227.05,60.94L229.5,59.85L230.73,59.94L231.95,59.38L233.18,60.74L235.64,60.4L236.86,57.27L238.09,58.55L239.32,56.47L240.55,52.24L241.77,52.71L243,50.9L244.23,63.13L246.68,59.21L247.91,51.2L249.14,49.09L250.36,51.76L252.82,58.23L254.05,60.89L255.27,61.09L256.5,59.74L260.18,61.87L261.41,77.55L262.64,87.63L263.86,130.14L266.32,200.17L267.55,202.46L270,213.62L271.23,216.36L272.45,219.17L273.68,226.17L277.36,229.93L278.59,230.4L279.82,231.1L281.05,234.01L282.27,235.38L283.5,235.59L284.73,280.35L285.95,280.71L287.18,281.22L288.41,282.7L293.32,284.64L294.55,282.39L298.23,283.03L299.45,286.44L300.68,288.23L301.91,288.38L305.59,288.94L306.82,288.95L317.86,289.46L319.09,292.08L322.77,292.09L324,292.93L333.82,293.59L335.05,297.52L368.18,299.26L369.41,299.74L393.95,300.39L395.18,300.7L416.05,301.11L417.27,301.71L429.55,301.83L430.77,301.83L527.73,302.14L528.95,302.62L530.18,302.62L531.41,303.99L540,304" style="fill: rgb(99, 110, 250); fill-opacity: 0.5; stroke-width: 0;"/></g></g><g class="errorbars"/><g class="lines"><path class="js-line" d="M0,256.26L1.23,218.67L2.45,211.16L3.68,208.24L4.91,208.18L7.36,200.22L8.59,198.92L9.82,200.5L11.05,194.94L13.5,189.67L14.73,197.83L15.95,195.45L17.18,197.65L19.64,184.77L20.86,182.37L22.09,181.6L23.32,184.11L24.55,187.77L25.77,188.91L28.23,168.54L29.45,167.31L30.68,164.9L31.91,169.73L33.14,169.56L34.36,166.91L36.82,166.86L38.05,167.63L40.5,165.55L41.73,139.25L42.95,141.11L44.18,146.66L45.41,145.5L46.64,145.42L50.32,148.67L51.55,155.34L52.77,152L54,159.84L55.23,159.83L56.45,160.9L57.68,164.24L58.91,161.7L61.36,161.05L62.59,158.9L65.05,158.53L66.27,156.95L67.5,158.31L68.73,158.1L74.86,158.36L76.09,156.97L77.32,157.63L78.55,169.2L79.77,167.21L81,156.53L88.36,156.96L89.59,157.8L90.82,156.05L92.05,155.89L93.27,191.89L94.5,196.56L96.95,181.2L98.18,186.96L99.41,177.56L100.64,176.38L101.86,175.53L103.09,177.29L104.32,181.23L105.55,180.31L106.77,179.42L108,181.14L109.23,181.62L110.45,181.28L111.68,176.1L112.91,176.5L115.36,175.43L116.59,175.47L120.27,175.25L121.5,172.92L122.73,172.99L123.95,169.17L125.18,168.72L126.41,163.8L128.86,146.51L130.09,146.92L131.32,145.21L132.55,145.11L133.77,143.77L135,140.4L136.23,139.75L137.45,135.52L138.68,132.67L139.91,136.41L142.36,136.46L143.59,139.43L144.82,151.1L146.05,151.48L147.27,151.91L148.5,151.13L152.18,151.18L153.41,156.33L154.64,156.23L155.86,153.22L157.09,140.76L158.32,138.19L159.55,142.23L160.77,142.17L162,147.19L163.23,147.66L164.45,144.97L165.68,144.99L166.91,148.19L168.14,146.33L170.59,125.14L171.82,123.79L173.05,128.56L174.27,124.99L175.5,123.88L176.73,125.7L179.18,124.9L180.41,127.97L181.64,123.85L182.86,115.08L184.09,112.1L185.32,111.33L186.55,109.55L187.77,86.92L189,43.82L190.23,40.32L191.45,42.68L192.68,33.02L193.91,32.28L195.14,17.94L196.36,17.55L197.59,16L198.82,20.27L200.05,30.34L201.27,34.5L202.5,34.48L203.73,42.85L204.95,57.44L206.18,59.65L207.41,60.03L208.64,59.77L209.86,40.08L211.09,42.13L212.32,39.91L213.55,40.17L214.77,38.15L216,43.24L217.23,52.12L219.68,53.29L220.91,66.71L223.36,68.15L224.59,67.32L225.82,65.21L227.05,60.94L229.5,59.85L230.73,59.94L231.95,59.38L233.18,60.74L235.64,60.4L236.86,57.27L238.09,58.55L239.32,56.47L240.55,52.24L241.77,52.71L243,50.9L244.23,63.13L246.68,59.21L247.91,51.2L249.14,49.09L250.36,51.76L252.82,58.23L254.05,60.89L255.27,61.09L256.5,59.74L260.18,61.87L261.41,77.55L262.64,87.63L263.86,130.14L266.32,200.17L267.55,202.46L270,213.62L271.23,216.36L272.45,219.17L273.68,226.17L277.36,229.93L278.59,230.4L279.82,231.1L281.05,234.01L282.27,235.38L283.5,235.59L284.73,280.35L285.95,280.71L287.18,281.22L288.41,282.7L293.32,284.64L294.55,282.39L298.23,283.03L299.45,286.44L300.68,288.23L301.91,288.38L305.59,288.94L306.82,288.95L317.86,289.46L319.09,292.08L322.77,292.09L324,292.93L333.82,293.59L335.05,297.52L368.18,299.26L369.41,299.74L393.95,300.39L395.18,300.7L416.05,301.11L417.27,301.71L429.55,301.83L430.77,301.83L527.73,302.14L528.95,302.62L530.18,302.62L531.41,303.99L540,304" style="vector-effect: none; fill: none; stroke: rgb(99, 110, 250); stroke-opacity: 1; stroke-width: 2px; opacity: 1;"/></g><g class="points"/><g class="text"/></g></g></g><g class="overplot"/><path class="xlines-above crisp" d="M0,0" style="fill: none;"/><path class="ylines-above crisp" d="M0,0" style="fill: none;"/><g class="overlines-above"/><g class="xaxislayer-above"><g class="xtick"><text text-anchor="middle" x="0" y="433" transform="translate(88.59,0)" style="font-family: 'Open Sans', verdana, arial, sans-serif; font-size: 12px; fill: rgb(42, 63, 95); fill-opacity: 1; white-space: pre; opacity: 1;">Sep 2022</text></g><g class="xtick"><text text-anchor="middle" x="0" y="433" style="font-family: 'Open Sans', verdana, arial, sans-serif; font-size: 12px; fill: rgb(42, 63, 95); fill-opacity: 1; white-space: pre; opacity: 1;" transform="translate(163.45,0)">Nov 2022</text></g><g class="xtick"><text text-anchor="middle" x="0" y="433" style="font-family: 'Open Sans', verdana, arial, sans-serif; font-size: 12px; fill: rgb(42, 63, 95); fill-opacity: 1; white-space: pre; opacity: 1;" transform="translate(238.32,0)">Jan 2023</text></g><g class="xtick"><text text-anchor="middle" x="0" y="433" style="font-family: 'Open Sans', verdana, arial, sans-serif; font-size: 12px; fill: rgb(42, 63, 95); fill-opacity: 1; white-space: pre; opacity: 1;" transform="translate(310.73,0)">Mar 2023</text></g><g class="xtick"><text text-anchor="middle" x="0" y="433" style="font-family: 'Open Sans', verdana, arial, sans-serif; font-size: 12px; fill: rgb(42, 63, 95); fill-opacity: 1; white-space: pre; opacity: 1;" transform="translate(385.59,0)">May 2023</text></g><g class="xtick"><text text-anchor="middle" x="0" y="433" style="font-family: 'Open Sans', verdana, arial, sans-serif; font-size: 12px; fill: rgb(42, 63, 95); fill-opacity: 1; white-space: pre; opacity: 1;" transform="translate(460.45,0)">Jul 2023</text></g><g class="xtick"><text text-anchor="middle" x="0" y="433" style="font-family: 'Open Sans', verdana, arial, sans-serif; font-size: 12px; fill: rgb(42, 63, 95); fill-opacity: 1; white-space: pre; opacity: 1;" transform="translate(536.55,0)">Sep 2023</text></g><g class="xtick"><text text-anchor="middle" x="0" y="433" style="font-family: 'Open Sans', verdana, arial, sans-serif; font-size: 12px; fill: rgb(42, 63, 95); fill-opacity: 1; white-space: pre; opacity: 1;" transform="translate(611.41,0)">Nov 2023</text></g></g><g class="yaxislayer-above"><g class="ytick"><text text-anchor="end" x="79" y="4.199999999999999" transform="translate(0,400.41)" style="font-family: 'Open Sans', verdana, arial, sans-serif; font-size: 12px; fill: rgb(42, 63, 95); fill-opacity: 1; white-space: pre; opacity: 1;">$−5M</text></g><g class="ytick"><text text-anchor="end" x="79" y="4.199999999999999" style="font-family: 'Open Sans', verdana, arial, sans-serif; font-size: 12px; fill: rgb(42, 63, 95); fill-opacity: 1; white-space: pre; opacity: 1;" transform="translate(0,357.16)">$0</text></g><g class="ytick"><text text-anchor="end" x="79" y="4.199999999999999" style="font-family: 'Open Sans', verdana, arial, sans-serif; font-size: 12px; fill: rgb(42, 63, 95); fill-opacity: 1; white-space: pre; opacity: 1;" transform="translate(0,313.91999999999996)">$5M</text></g><g class="ytick"><text text-anchor="end" x="79" y="4.199999999999999" style="font-family: 'Open Sans', verdana, arial, sans-serif; font-size: 12px; fill: rgb(42, 63, 95); fill-opacity: 1; white-space: pre; opacity: 1;" transform="translate(0,270.66999999999996)">$10M</text></g><g class="ytick"><text text-anchor="end" x="79" y="4.199999999999999" style="font-family: 'Open Sans', verdana, arial, sans-serif; font-size: 12px; fill: rgb(42, 63, 95); fill-opacity: 1; white-space: pre; opacity: 1;" transform="translate(0,227.43)">$15M</text></g><g class="ytick"><text text-anchor="end" x="79" y="4.199999999999999" style="font-family: 'Open Sans', verdana, arial, sans-serif; font-size: 12px; fill: rgb(42, 63, 95); fill-opacity: 1; white-space: pre; opacity: 1;" transform="translate(0,184.18)">$20M</text></g><g class="ytick"><text text-anchor="end" x="79" y="4.199999999999999" style="font-family: 'Open Sans', verdana, arial, sans-serif; font-size: 12px; fill: rgb(42, 63, 95); fill-opacity: 1; white-space: pre; opacity: 1;" transform="translate(0,140.94)">$25M</text></g></g><g class="overaxes-above"/></g></g><g class="polarlayer"/><g class="smithlayer"/><g class="ternarylayer"/><g class="geolayer"/><g class="funnelarealayer"/><g class="pielayer"/><g class="iciclelayer"/><g class="treemaplayer"/><g class="sunburstlayer"/><g class="glimages"/><defs id="topdefs-1c9073"><g class="clips"/></defs><g class="layer-above"><g class="imagelayer"/><g class="shapelayer"/></g><g class="infolayer"><g class="g-gtitle"><text class="gtitle" x="35" y="50" text-anchor="start" dy="0em" style="font-family: 'Open Sans', verdana, arial, sans-serif; font-size: 17px; fill: rgb(42, 63, 95); opacity: 1; font-weight: normal; white-space: pre;"><tspan class="line" dy="0em" x="35" y="50">Synthetix - sETH-ETH: Curve</tspan><tspan class="line" dy="1.3em" x="35" y="50">​<tspan style="font-size:70%" dy="-0.6em">Cumulative Net Flows since Program Announcement, Until Program End + 30 Days - At Last Price</tspan><tspan dy="0.42em">​</tspan></tspan></text></g><g class="g-xtitle"><text class="xtitle" x="350" y="460.3" text-anchor="middle" style="font-family: 'Open Sans', verdana, arial, sans-serif; font-size: 14px; fill: rgb(42, 63, 95); opacity: 1; font-weight: normal; white-space: pre;">Day</text></g><g class="g-ytitle"><text class="ytitle" transform="rotate(-90,24.340625000000003,260)" x="24.340625000000003" y="260" text-anchor="middle" style="font-family: 'Open Sans', verdana, arial, sans-serif; font-size: 14px; fill: rgb(42, 63, 95); opacity: 1; font-weight: normal; white-space: pre;">Cumulative Net Flows (USD)</text></g></g></svg>