<svg class="main-svg" xmlns="http://www.w3.org/2000/svg" xmlns:xlink="http://www.w3.org/1999/xlink" width="700" height="500" style="" viewBox="0 0 700 500"><rect x="0" y="0" width="700" height="500" style="fill: rgb(255, 255, 255); fill-opacity: 1;"/><defs id="defs-d2ae73"><g class="clips"><clipPath id="clipd2ae73xyplot" class="plotclip"><rect width="540" height="320"/></clipPath><clipPath class="axesclip" id="clipd2ae73x"><rect x="80" y="0" width="540" height="500"/></clipPath><clipPath class="axesclip" id="clipd2ae73y"><rect x="0" y="100" width="700" height="320"/></clipPath><clipPath class="axesclip" id="clipd2ae73xy"><rect x="80" y="100" width="540" height="320"/></clipPath></g><g class="gradients"/><g class="patterns"/></defs><g class="bglayer"><rect class="bg" x="80" y="100" width="540" height="320" style="fill: rgb(229, 236, 246); fill-opacity: 1; stroke-width: 0;"/></g><g class="layer-below"><g class="imagelayer"/><g class="shapelayer"/></g><g class="cartesianlayer"><g class="subplot xy"><g class="layer-subplot"><g class="shapelayer"/><g class="imagelayer"/></g><g class="minor-gridlayer"><g class="x"/><g class="y"/></g><g class="gridlayer"><g class="x"><path class="xgrid crisp" transform="translate(116.72,0)" d="M0,100v320" style="stroke: rgb(255, 255, 255); stroke-opacity: 1; stroke-width: 1px;"/><path class="xgrid crisp" transform="translate(248.48,0)" d="M0,100v320" style="stroke: rgb(255, 255, 255); stroke-opacity: 1; stroke-width: 1px;"/><path class="xgrid crisp" transform="translate(382.4,0)" d="M0,100v320" style="stroke: rgb(255, 255, 255); stroke-opacity: 1; stroke-width: 1px;"/><path class="xgrid crisp" transform="translate(514.1600000000001,0)" d="M0,100v320" style="stroke: rgb(255, 255, 255); stroke-opacity: 1; stroke-width: 1px;"/></g><g class="y"><path class="ygrid crisp" transform="translate(0,346.08000000000004)" d="M80,0h540" style="stroke: rgb(255, 255, 255); stroke-opacity: 1; stroke-width: 1px;"/><path class="ygrid crisp" transform="translate(0,272.15999999999997)" d="M80,0h540" style="stroke: rgb(255, 255, 255); stroke-opacity: 1; stroke-width: 1px;"/><path class="ygrid crisp" transform="translate(0,198.24)" d="M80,0h540" style="stroke: rgb(255, 255, 255); stroke-opacity: 1; stroke-width: 1px;"/><path class="ygrid crisp" transform="translate(0,124.32)" d="M80,0h540" style="stroke: rgb(255, 255, 255); stroke-opacity: 1; stroke-width: 1px;"/></g></g><g class="zerolinelayer"><path class="yzl zl crisp" transform="translate(0,420)" d="M80,0h540" style="stroke: rgb(255, 255, 255); stroke-opacity: 1; stroke-width: 2px;"/></g><path class="xlines-below"/><path class="ylines-below"/><g class="overlines-below"/><g class="xaxislayer-below"/><g class="yaxislayer-below"/><g class="overaxes-below"/><g class="plot" transform="translate(80,100)" clip-path="url(#clipd2ae73xyplot)"><g class="scatterlayer mlayer"><g class="trace scatter trace0aa451" style="stroke-miterlimit: 2;"><g class="fills"><g><path class="js-fill" d="M540,320L0,320L0,52.47L2.16,61.22L4.32,60.22L8.64,57.33L10.8,56.61L12.96,55.55L15.12,61.01L17.28,62.54L19.44,59.53L21.6,59.33L23.76,54.96L25.92,54.63L28.08,50.21L34.56,48.26L36.72,48.99L38.88,53.24L41.04,52.04L49.68,50L51.84,28.22L54,26.69L56.16,22.37L58.32,22.27L60.48,23.1L62.64,28.12L64.8,26.53L66.96,23.13L69.12,25.42L71.28,34.01L73.44,31.89L77.76,33.08L79.92,32.79L86.4,32.62L88.56,22.25L90.72,23.43L92.88,20.57L95.04,20.66L97.2,16L99.36,16.15L101.52,19.36L103.68,23.04L105.84,22.81L108,22.82L110.16,43.91L114.48,43.2L116.64,43.35L118.8,42.38L120.96,37.72L123.12,37.56L125.28,39.66L138.24,41.88L140.4,39.46L142.56,37.44L144.72,37.12L146.88,37.01L149.04,37.68L151.2,38.73L153.36,41.02L157.68,44.13L159.84,44.39L162,44.96L164.16,50.58L168.48,70.02L170.64,76.95L172.8,79.93L174.96,81.42L177.12,82.3L179.28,82.33L181.44,82.28L183.6,86.32L185.76,86.15L187.92,96.94L190.08,98.23L192.24,102.93L194.4,109.67L196.56,109.59L200.88,112.35L203.04,133.8L207.36,135.01L209.52,137.21L211.68,140.13L213.84,139.62L216,140.64L218.16,142.78L220.32,151.45L222.48,151.41L224.64,156.17L226.8,157.59L231.12,158.99L233.28,197.79L235.44,208.16L237.6,209.96L239.76,210.22L241.92,217.69L244.08,215.64L246.24,216.12L248.4,215.21L250.56,215.13L254.88,215.98L257.04,220.21L263.52,220.16L265.68,223.66L267.84,223.68L270,224.71L272.16,225.71L274.32,225.68L278.64,226.03L280.8,226.25L287.28,226.2L289.44,226.14L295.92,226.24L298.08,225.89L300.24,225.95L302.4,227L304.56,228.21L306.72,232.59L308.88,232.63L311.04,234.91L315.36,234.94L317.52,238.61L319.68,238.68L321.84,240.31L324,240.78L326.16,242.97L334.8,245.32L336.96,247.26L341.28,247.52L343.44,222.19L345.6,213.56L347.76,211.91L349.92,211.88L352.08,216.82L354.24,211.21L356.4,211.77L358.56,212.19L360.72,217.67L367.2,217.35L369.36,218.62L371.52,217.05L373.68,217.35L375.84,218.15L378,216.9L382.32,217.06L384.48,216.38L386.64,211.23L388.8,211.99L393.12,212.52L395.28,214.88L399.6,215.6L401.76,217.2L403.92,232.12L406.08,232.33L408.24,233.74L410.4,239.32L412.56,255.2L414.72,255.75L416.88,257.74L419.04,260.96L427.68,261.79L429.84,263.03L432,265.51L434.16,265.63L436.32,266.2L438.48,269.56L440.64,269.57L442.8,270.81L444.96,270.81L447.12,272.38L455.76,272.84L457.92,275.12L460.08,277.26L462.24,277.26L475.2,277.94L477.36,278.64L481.68,279.33L483.84,279.33L494.64,279.98L496.8,279.98L501.12,280.02L503.28,281.77L507.6,282.3L509.76,282.38L511.92,282.41L514.08,283.42L540,283.96" style="fill: rgb(99, 110, 250); fill-opacity: 0.5; stroke-width: 0;"/></g></g><g class="errorbars"/><g class="lines"><path class="js-line" d="M0,52.47L2.16,61.22L4.32,60.22L8.64,57.33L10.8,56.61L12.96,55.55L15.12,61.01L17.28,62.54L19.44,59.53L21.6,59.33L23.76,54.96L25.92,54.63L28.08,50.21L34.56,48.26L36.72,48.99L38.88,53.24L41.04,52.04L49.68,50L51.84,28.22L54,26.69L56.16,22.37L58.32,22.27L60.48,23.1L62.64,28.12L64.8,26.53L66.96,23.13L69.12,25.42L71.28,34.01L73.44,31.89L77.76,33.08L79.92,32.79L86.4,32.62L88.56,22.25L90.72,23.43L92.88,20.57L95.04,20.66L97.2,16L99.36,16.15L101.52,19.36L103.68,23.04L105.84,22.81L108,22.82L110.16,43.91L114.48,43.2L116.64,43.35L118.8,42.38L120.96,37.72L123.12,37.56L125.28,39.66L138.24,41.88L140.4,39.46L142.56,37.44L144.72,37.12L146.88,37.01L149.04,37.68L151.2,38.73L153.36,41.02L157.68,44.13L159.84,44.39L162,44.96L164.16,50.58L168.48,70.02L170.64,76.95L172.8,79.93L174.96,81.42L177.12,82.3L179.28,82.33L181.44,82.28L183.6,86.32L185.76,86.15L187.92,96.94L190.08,98.23L192.24,102.93L194.4,109.67L196.56,109.59L200.88,112.35L203.04,133.8L207.36,135.01L209.52,137.21L211.68,140.13L213.84,139.62L216,140.64L218.16,142.78L220.32,151.45L222.48,151.41L224.64,156.17L226.8,157.59L231.12,158.99L233.28,197.79L235.44,208.16L237.6,209.96L239.76,210.22L241.92,217.69L244.08,215.64L246.24,216.12L248.4,215.21L250.56,215.13L254.88,215.98L257.04,220.21L263.52,220.16L265.68,223.66L267.84,223.68L270,224.71L272.16,225.71L274.32,225.68L278.64,226.03L280.8,226.25L287.28,226.2L289.44,226.14L295.92,226.24L298.08,225.89L300.24,225.95L302.4,227L304.56,228.21L306.72,232.59L308.88,232.63L311.04,234.91L315.36,234.94L317.52,238.61L319.68,238.68L321.84,240.31L324,240.78L326.16,242.97L334.8,245.32L336.96,247.26L341.28,247.52L343.44,222.19L345.6,213.56L347.76,211.91L349.92,211.88L352.08,216.82L354.24,211.21L356.4,211.77L358.56,212.19L360.72,217.67L367.2,217.35L369.36,218.62L371.52,217.05L373.68,217.35L375.84,218.15L378,216.9L382.32,217.06L384.48,216.38L386.64,211.23L388.8,211.99L393.12,212.52L395.28,214.88L399.6,215.6L401.76,217.2L403.92,232.12L406.08,232.33L408.24,233.74L410.4,239.32L412.56,255.2L414.72,255.75L416.88,257.74L419.04,260.96L427.68,261.79L429.84,263.03L432,265.51L434.16,265.63L436.32,266.2L438.48,269.56L440.64,269.57L442.8,270.81L444.96,270.81L447.12,272.38L455.76,272.84L457.92,275.12L460.08,277.26L462.24,277.26L475.2,277.94L477.36,278.64L481.68,279.33L483.84,279.33L494.64,279.98L496.8,279.98L501.12,280.02L503.28,281.77L507.6,282.3L509.76,282.38L511.92,282.41L514.08,283.42L540,283.96" style="vector-effect: none; fill: none; stroke: rgb(99, 110, 250); stroke-opacity: 1; stroke-width: 2px; opacity: 1;"/></g><g class="points"/><g class="text"/></g></g></g><g class="overplot"/><path class="xlines-above crisp" d="M0,0" style="fill: none;"/><path class="ylines-above crisp" d="M0,0" style="fill: none;"/><g class="overlines-above"/><g class="xaxislayer-above"><g class="xtick"><text text-anchor="middle" x="0" y="433" transform="translate(116.72,0)" style="font-family: 'Open Sans', verdana, arial, sans-serif; font-size: 12px; fill: rgb(42, 63, 95); fill-opacity: 1; white-space: pre; opacity: 1;">May 2023</text></g><g class="xtick"><text text-anchor="middle" x="0" y="433" style="font-family: 'Open Sans', verdana, arial, sans-serif; font-size: 12px; fill: rgb(42, 63, 95); fill-opacity: 1; white-space: pre; opacity: 1;" transform="translate(248.48,0)">Jul 2023</text></g><g class="xtick"><text text-anchor="middle" x="0" y="433" style="font-family: 'Open Sans', verdana, arial, sans-serif; font-size: 12px; fill: rgb(42, 63, 95); fill-opacity: 1; white-space: pre; opacity: 1;" transform="translate(382.4,0)">Sep 2023</text></g><g class="xtick"><text text-anchor="middle" x="0" y="433" style="font-family: 'Open Sans', verdana, arial, sans-serif; font-size: 12px; fill: rgb(42, 63, 95); fill-opacity: 1; white-space: pre; opacity: 1;" transform="translate(514.1600000000001,0)">Nov 2023</text></g></g><g class="yaxislayer-above"><g class="ytick"><text text-anchor="end" x="79" y="4.199999999999999" transform="translate(0,420)" style="font-family: 'Open Sans', verdana, arial, sans-serif; font-size: 12px; fill: rgb(42, 63, 95); fill-opacity: 1; white-space: pre; opacity: 1;">$0</text></g><g class="ytick"><text text-anchor="end" x="79" y="4.199999999999999" style="font-family: 'Open Sans', verdana, arial, sans-serif; font-size: 12px; fill: rgb(42, 63, 95); fill-opacity: 1; white-space: pre; opacity: 1;" transform="translate(0,346.08000000000004)">$5M</text></g><g class="ytick"><text text-anchor="end" x="79" y="4.199999999999999" style="font-family: 'Open Sans', verdana, arial, sans-serif; font-size: 12px; fill: rgb(42, 63, 95); fill-opacity: 1; white-space: pre; opacity: 1;" transform="translate(0,272.15999999999997)">$10M</text></g><g class="ytick"><text text-anchor="end" x="79" y="4.199999999999999" style="font-family: 'Open Sans', verdana, arial, sans-serif; font-size: 12px; fill: rgb(42, 63, 95); fill-opacity: 1; white-space: pre; opacity: 1;" transform="translate(0,198.24)">$15M</text></g><g class="ytick"><text text-anchor="end" x="79" y="4.199999999999999" style="font-family: 'Open Sans', verdana, arial, sans-serif; font-size: 12px; fill: rgb(42, 63, 95); fill-opacity: 1; white-space: pre; opacity: 1;" transform="translate(0,124.32)">$20M</text></g></g><g class="overaxes-above"/></g></g><g class="polarlayer"/><g class="smithlayer"/><g class="ternarylayer"/><g class="geolayer"/><g class="funnelarealayer"/><g class="pielayer"/><g class="iciclelayer"/><g class="treemaplayer"/><g class="sunburstlayer"/><g class="glimages"/><defs id="topdefs-d2ae73"><g class="clips"/></defs><g class="layer-above"><g class="imagelayer"/><g class="shapelayer"/></g><g class="infolayer"><g class="g-gtitle"><text class="gtitle" x="35" y="50" text-anchor="start" dy="0em" style="font-family: 'Open Sans', verdana, arial, sans-serif; font-size: 17px; fill: rgb(42, 63, 95); opacity: 1; font-weight: normal; white-space: pre;"><tspan class="line" dy="0em" x="35" y="50">Lido - wstETHCRV: Curve</tspan><tspan class="line" dy="1.3em" x="35" y="50">​<tspan style="font-size:70%" dy="-0.6em">Cumulative Net Flows since Program Announcement, Until Program End + 30 Days - At Last Price</tspan><tspan dy="0.42em">​</tspan></tspan></text></g><g class="g-xtitle"><text class="xtitle" x="350" y="460.3" text-anchor="middle" style="font-family: 'Open Sans', verdana, arial, sans-serif; font-size: 14px; fill: rgb(42, 63, 95); opacity: 1; font-weight: normal; white-space: pre;">Day</text></g><g class="g-ytitle"><text class="ytitle" transform="rotate(-90,24.668750000000003,260)" x="24.668750000000003" y="260" text-anchor="middle" style="font-family: 'Open Sans', verdana, arial, sans-serif; font-size: 14px; fill: rgb(42, 63, 95); opacity: 1; font-weight: normal; white-space: pre;">Cumulative Net Flows (USD)</text></g></g></svg>