<svg class="main-svg" xmlns="http://www.w3.org/2000/svg" xmlns:xlink="http://www.w3.org/1999/xlink" width="700" height="500" style="" viewBox="0 0 700 500"><rect x="0" y="0" width="700" height="500" style="fill: rgb(255, 255, 255); fill-opacity: 1;"/><defs id="defs-00e715"><g class="clips"><clipPath id="clip00e715xyplot" class="plotclip"><rect width="540" height="320"/></clipPath><clipPath class="axesclip" id="clip00e715x"><rect x="80" y="0" width="540" height="500"/></clipPath><clipPath class="axesclip" id="clip00e715y"><rect x="0" y="100" width="700" height="320"/></clipPath><clipPath class="axesclip" id="clip00e715xy"><rect x="80" y="100" width="540" height="320"/></clipPath></g><g class="gradients"/><g class="patterns"/></defs><g class="bglayer"><rect class="bg" x="80" y="100" width="540" height="320" style="fill: rgb(229, 236, 246); fill-opacity: 1; stroke-width: 0;"/></g><g class="layer-below"><g class="imagelayer"/><g class="shapelayer"/></g><g class="cartesianlayer"><g class="subplot xy"><g class="layer-subplot"><g class="shapelayer"/><g class="imagelayer"/></g><g class="minor-gridlayer"><g class="x"/><g class="y"/></g><g class="gridlayer"><g class="x"><path class="xgrid crisp" transform="translate(189.82999999999998,0)" d="M0,100v320" style="stroke: rgb(255, 255, 255); stroke-opacity: 1; stroke-width: 1px;"/><path class="xgrid crisp" transform="translate(317.97,0)" d="M0,100v320" style="stroke: rgb(255, 255, 255); stroke-opacity: 1; stroke-width: 1px;"/><path class="xgrid crisp" transform="translate(459.83,0)" d="M0,100v320" style="stroke: rgb(255, 255, 255); stroke-opacity: 1; stroke-width: 1px;"/><path class="xgrid crisp" transform="translate(597.12,0)" d="M0,100v320" style="stroke: rgb(255, 255, 255); stroke-opacity: 1; stroke-width: 1px;"/></g><g class="y"><path class="ygrid crisp" transform="translate(0,353.74)" d="M80,0h540" style="stroke: rgb(255, 255, 255); stroke-opacity: 1; stroke-width: 1px;"/><path class="ygrid crisp" transform="translate(0,287.48)" d="M80,0h540" style="stroke: rgb(255, 255, 255); stroke-opacity: 1; stroke-width: 1px;"/><path class="ygrid crisp" transform="translate(0,221.22)" d="M80,0h540" style="stroke: rgb(255, 255, 255); stroke-opacity: 1; stroke-width: 1px;"/><path class="ygrid crisp" transform="translate(0,154.96)" d="M80,0h540" style="stroke: rgb(255, 255, 255); stroke-opacity: 1; stroke-width: 1px;"/></g></g><g class="zerolinelayer"><path class="yzl zl crisp" transform="translate(0,420)" d="M80,0h540" style="stroke: rgb(255, 255, 255); stroke-opacity: 1; stroke-width: 2px;"/></g><path class="xlines-below"/><path class="ylines-below"/><g class="overlines-below"/><g class="xaxislayer-below"/><g class="yaxislayer-below"/><g class="overaxes-below"/><g class="plot" transform="translate(80,100)" clip-path="url(#clip00e715xyplot)"><g class="scatterlayer mlayer"><g class="trace scatter tracec22f41" style="stroke-miterlimit: 2;"><g class="fills"><g><path class="js-fill" d="M540,320L0,320L0,237.42L4.58,241.1L9.15,241.1L13.73,241.69L18.31,241.44L32.03,241.44L36.61,239.97L45.76,239.96L50.34,240.87L59.49,239.75L64.07,239.81L82.37,239.59L86.95,236.81L91.53,225.57L96.1,225.73L100.68,225.62L105.25,222.33L109.83,219.83L114.41,219.36L123.56,219.78L128.14,219.06L132.71,220.34L137.29,218.27L146.44,217.71L151.02,216.54L155.59,213.77L160.17,206.55L164.75,217.26L169.32,214.7L173.9,213.84L178.47,193.19L183.05,192.85L187.63,194.41L192.2,194.29L196.78,107.4L201.36,107.48L205.93,105.68L210.51,97.16L215.08,96.79L219.66,91.39L224.24,90.54L228.81,90.63L233.39,85.33L237.97,85.14L242.54,76.35L247.12,72.37L251.69,71.38L256.27,77.82L260.85,77.09L270,76.43L274.58,76.41L279.15,85.86L283.73,97.45L288.31,87.52L292.88,50.46L297.46,40.59L302.03,40.67L306.61,38.5L311.19,37.52L315.76,48.12L320.34,52.12L329.49,51.69L334.07,54.01L338.64,61.61L343.22,61.2L361.53,61.65L366.1,49.57L370.68,50.1L375.25,36.39L384.41,37.05L388.98,36.17L393.56,36.18L398.14,33.09L402.71,33.38L407.29,32.29L411.86,32.04L416.44,29.31L421.02,31.17L425.59,33.87L430.17,16.1L434.75,16L439.32,19.67L443.9,73.97L448.47,72.71L453.05,73.3L457.63,72.35L462.2,68.16L466.78,65.7L471.36,64.81L475.93,65.36L480.51,65.01L485.08,65.03L489.66,58.82L507.97,58.97L512.54,57.55L517.12,56.44L521.69,52.13L526.27,53.32L530.85,53.43L540,53.18" style="fill: rgb(99, 110, 250); fill-opacity: 0.5; stroke-width: 0;"/></g></g><g class="errorbars"/><g class="lines"><path class="js-line" d="M0,237.42L4.58,241.1L9.15,241.1L13.73,241.69L18.31,241.44L32.03,241.44L36.61,239.97L45.76,239.96L50.34,240.87L59.49,239.75L64.07,239.81L82.37,239.59L86.95,236.81L91.53,225.57L96.1,225.73L100.68,225.62L105.25,222.33L109.83,219.83L114.41,219.36L123.56,219.78L128.14,219.06L132.71,220.34L137.29,218.27L146.44,217.71L151.02,216.54L155.59,213.77L160.17,206.55L164.75,217.26L169.32,214.7L173.9,213.84L178.47,193.19L183.05,192.85L187.63,194.41L192.2,194.29L196.78,107.4L201.36,107.48L205.93,105.68L210.51,97.16L215.08,96.79L219.66,91.39L224.24,90.54L228.81,90.63L233.39,85.33L237.97,85.14L242.54,76.35L247.12,72.37L251.69,71.38L256.27,77.82L260.85,77.09L270,76.43L274.58,76.41L279.15,85.86L283.73,97.45L288.31,87.52L292.88,50.46L297.46,40.59L302.03,40.67L306.61,38.5L311.19,37.52L315.76,48.12L320.34,52.12L329.49,51.69L334.07,54.01L338.64,61.61L343.22,61.2L361.53,61.65L366.1,49.57L370.68,50.1L375.25,36.39L384.41,37.05L388.98,36.17L393.56,36.18L398.14,33.09L402.71,33.38L407.29,32.29L411.86,32.04L416.44,29.31L421.02,31.17L425.59,33.87L430.17,16.1L434.75,16L439.32,19.67L443.9,73.97L448.47,72.71L453.05,73.3L457.63,72.35L462.2,68.16L466.78,65.7L471.36,64.81L475.93,65.36L480.51,65.01L485.08,65.03L489.66,58.82L507.97,58.97L512.54,57.55L517.12,56.44L521.69,52.13L526.27,53.32L530.85,53.43L540,53.18" style="vector-effect: none; fill: none; stroke: rgb(99, 110, 250); stroke-opacity: 1; stroke-width: 2px; opacity: 1;"/></g><g class="points"/><g class="text"/></g></g></g><g class="overplot"/><path class="xlines-above crisp" d="M0,0" style="fill: none;"/><path class="ylines-above crisp" d="M0,0" style="fill: none;"/><g class="overlines-above"/><g class="xaxislayer-above"><g class="xtick"><text text-anchor="middle" x="0" y="433" transform="translate(189.82999999999998,0)" style="font-family: 'Open Sans', verdana, arial, sans-serif; font-size: 12px; fill: rgb(42, 63, 95); fill-opacity: 1; white-space: pre; opacity: 1;">Feb 2023</text></g><g class="xtick"><text text-anchor="middle" x="0" y="433" style="font-family: 'Open Sans', verdana, arial, sans-serif; font-size: 12px; fill: rgb(42, 63, 95); fill-opacity: 1; white-space: pre; opacity: 1;" transform="translate(317.97,0)">Mar 2023</text></g><g class="xtick"><text text-anchor="middle" x="0" y="433" style="font-family: 'Open Sans', verdana, arial, sans-serif; font-size: 12px; fill: rgb(42, 63, 95); fill-opacity: 1; white-space: pre; opacity: 1;" transform="translate(459.83,0)">Apr 2023</text></g><g class="xtick"><text text-anchor="middle" x="0" y="433" style="font-family: 'Open Sans', verdana, arial, sans-serif; font-size: 12px; fill: rgb(42, 63, 95); fill-opacity: 1; white-space: pre; opacity: 1;" transform="translate(597.12,0)">May 2023</text></g></g><g class="yaxislayer-above"><g class="ytick"><text text-anchor="end" x="79" y="4.199999999999999" transform="translate(0,420)" style="font-family: 'Open Sans', verdana, arial, sans-serif; font-size: 12px; fill: rgb(42, 63, 95); fill-opacity: 1; white-space: pre; opacity: 1;">$0</text></g><g class="ytick"><text text-anchor="end" x="79" y="4.199999999999999" style="font-family: 'Open Sans', verdana, arial, sans-serif; font-size: 12px; fill: rgb(42, 63, 95); fill-opacity: 1; white-space: pre; opacity: 1;" transform="translate(0,353.74)">$1M</text></g><g class="ytick"><text text-anchor="end" x="79" y="4.199999999999999" style="font-family: 'Open Sans', verdana, arial, sans-serif; font-size: 12px; fill: rgb(42, 63, 95); fill-opacity: 1; white-space: pre; opacity: 1;" transform="translate(0,287.48)">$2M</text></g><g class="ytick"><text text-anchor="end" x="79" y="4.199999999999999" style="font-family: 'Open Sans', verdana, arial, sans-serif; font-size: 12px; fill: rgb(42, 63, 95); fill-opacity: 1; white-space: pre; opacity: 1;" transform="translate(0,221.22)">$3M</text></g><g class="ytick"><text text-anchor="end" x="79" y="4.199999999999999" style="font-family: 'Open Sans', verdana, arial, sans-serif; font-size: 12px; fill: rgb(42, 63, 95); fill-opacity: 1; white-space: pre; opacity: 1;" transform="translate(0,154.96)">$4M</text></g></g><g class="overaxes-above"/></g></g><g class="polarlayer"/><g class="smithlayer"/><g class="ternarylayer"/><g class="geolayer"/><g class="funnelarealayer"/><g class="pielayer"/><g class="iciclelayer"/><g class="treemaplayer"/><g class="sunburstlayer"/><g class="glimages"/><defs id="topdefs-00e715"><g class="clips"/></defs><g class="layer-above"><g class="imagelayer"/><g class="shapelayer"/></g><g class="infolayer"><g class="g-gtitle"><text class="gtitle" x="35" y="50" text-anchor="start" dy="0em" style="font-family: 'Open Sans', verdana, arial, sans-serif; font-size: 17px; fill: rgb(42, 63, 95); opacity: 1; font-weight: normal; white-space: pre;"><tspan class="line" dy="0em" x="35" y="50">Alchemix - alETH/WETH: Velodrome</tspan><tspan class="line" dy="1.3em" x="35" y="50">​<tspan style="font-size:70%" dy="-0.6em">Cumulative Net Flows since Program Announcement, Until Program End + 30 Days - At Last Price</tspan><tspan dy="0.42em">​</tspan></tspan></text></g><g class="g-xtitle"><text class="xtitle" x="350" y="460.3" text-anchor="middle" style="font-family: 'Open Sans', verdana, arial, sans-serif; font-size: 14px; fill: rgb(42, 63, 95); opacity: 1; font-weight: normal; white-space: pre;">Day</text></g><g class="g-ytitle"><text class="ytitle" transform="rotate(-90,31.356250000000003,260)" x="31.356250000000003" y="260" text-anchor="middle" style="font-family: 'Open Sans', verdana, arial, sans-serif; font-size: 14px; fill: rgb(42, 63, 95); opacity: 1; font-weight: normal; white-space: pre;">Cumulative Net Flows (USD)</text></g></g></svg>