<svg class="main-svg" xmlns="http://www.w3.org/2000/svg" xmlns:xlink="http://www.w3.org/1999/xlink" width="700" height="500" style="" viewBox="0 0 700 500"><rect x="0" y="0" width="700" height="500" style="fill: rgb(255, 255, 255); fill-opacity: 1;"/><defs id="defs-9f6a45"><g class="clips"><clipPath id="clip9f6a45xyplot" class="plotclip"><rect width="540" height="320"/></clipPath><clipPath class="axesclip" id="clip9f6a45x"><rect x="80" y="0" width="540" height="500"/></clipPath><clipPath class="axesclip" id="clip9f6a45y"><rect x="0" y="100" width="700" height="320"/></clipPath><clipPath class="axesclip" id="clip9f6a45xy"><rect x="80" y="100" width="540" height="320"/></clipPath></g><g class="gradients"/><g class="patterns"/></defs><g class="bglayer"><rect class="bg" x="80" y="100" width="540" height="320" style="fill: rgb(229, 236, 246); fill-opacity: 1; stroke-width: 0;"/></g><g class="layer-below"><g class="imagelayer"/><g class="shapelayer"/></g><g class="cartesianlayer"><g class="subplot xy"><g class="layer-subplot"><g class="shapelayer"/><g class="imagelayer"/></g><g class="minor-gridlayer"><g class="x"/><g class="y"/></g><g class="gridlayer"><g class="x"><path class="xgrid crisp" transform="translate(117.1,0)" d="M0,100v320" style="stroke: rgb(255, 255, 255); stroke-opacity: 1; stroke-width: 1px;"/><path class="xgrid crisp" transform="translate(211.91,0)" d="M0,100v320" style="stroke: rgb(255, 255, 255); stroke-opacity: 1; stroke-width: 1px;"/><path class="xgrid crisp" transform="translate(304.65999999999997,0)" d="M0,100v320" style="stroke: rgb(255, 255, 255); stroke-opacity: 1; stroke-width: 1px;"/><path class="xgrid crisp" transform="translate(398.44,0)" d="M0,100v320" style="stroke: rgb(255, 255, 255); stroke-opacity: 1; stroke-width: 1px;"/><path class="xgrid crisp" transform="translate(493.24,0)" d="M0,100v320" style="stroke: rgb(255, 255, 255); stroke-opacity: 1; stroke-width: 1px;"/><path class="xgrid crisp" transform="translate(588.05,0)" d="M0,100v320" style="stroke: rgb(255, 255, 255); stroke-opacity: 1; stroke-width: 1px;"/></g><g class="y"><path class="ygrid crisp" transform="translate(0,411.36)" d="M80,0h540" style="stroke: rgb(255, 255, 255); stroke-opacity: 1; stroke-width: 1px;"/><path class="ygrid crisp" transform="translate(0,353.03999999999996)" d="M80,0h540" style="stroke: rgb(255, 255, 255); stroke-opacity: 1; stroke-width: 1px;"/><path class="ygrid crisp" transform="translate(0,294.71000000000004)" d="M80,0h540" style="stroke: rgb(255, 255, 255); stroke-opacity: 1; stroke-width: 1px;"/><path class="ygrid crisp" transform="translate(0,236.38)" d="M80,0h540" style="stroke: rgb(255, 255, 255); stroke-opacity: 1; stroke-width: 1px;"/><path class="ygrid crisp" transform="translate(0,119.73)" d="M80,0h540" style="stroke: rgb(255, 255, 255); stroke-opacity: 1; stroke-width: 1px;"/></g></g><g class="zerolinelayer"><path class="yzl zl crisp" transform="translate(0,178.06)" d="M80,0h540" style="stroke: rgb(255, 255, 255); stroke-opacity: 1; stroke-width: 2px;"/></g><path class="xlines-below"/><path class="ylines-below"/><g class="overlines-below"/><g class="xaxislayer-below"/><g class="yaxislayer-below"/><g class="overaxes-below"/><g class="plot" transform="translate(80,100)" clip-path="url(#clip9f6a45xyplot)"><g class="scatterlayer mlayer"><g class="trace scatter trace9dc195" style="stroke-miterlimit: 2;"><g class="fills"><g><path class="js-fill" d="M540,78.06L0,78.06L0,78.29L13.4,77.61L14.43,77.57L26.79,77.31L27.82,77.16L34.01,77.11L35.04,77.19L47.4,77.17L48.44,77.18L53.59,77.22L54.62,69.56L55.65,67.36L56.68,57.41L57.71,40.64L58.74,49.29L60.8,56.06L61.83,58.3L62.86,51.94L63.89,53.37L66.98,52.18L68.02,45.85L70.08,45.64L71.11,46.22L72.14,47.03L73.17,45.3L74.2,45.37L75.23,76.44L77.29,95.65L78.32,101.11L79.35,100.37L80.38,101.32L82.44,102.69L83.47,106.17L85.53,106.1L86.56,97.96L88.63,94.3L89.66,95.78L90.69,93.17L91.72,81.07L92.75,83.57L93.78,78.89L95.84,81.89L96.87,81.77L98.93,87L99.96,81.19L100.99,59L102.02,56.85L104.08,56.32L105.11,58.66L107.18,50.17L108.21,53.29L109.24,53.2L110.27,54.97L111.3,55.65L112.33,66.59L113.36,70.92L114.39,70.95L115.42,71.17L116.45,68.7L117.48,70.96L118.51,71.05L119.54,73.23L120.57,71.48L123.66,68.19L124.69,68.24L125.73,67.33L126.76,59.94L129.85,61.78L130.88,60.66L132.94,65.95L133.97,66.24L136.03,68.31L137.06,67.46L138.09,57.56L139.12,57.31L140.15,53.09L141.18,57.88L142.21,57.98L143.24,71.03L146.34,74.89L147.37,75.14L148.4,74.78L149.43,70.48L150.46,68.6L151.49,69.23L152.52,67.8L153.55,67.82L154.58,84.66L155.61,82L156.64,76.84L157.67,89.02L158.7,89.09L159.73,85.74L160.76,85.96L161.79,81.92L162.82,79.88L163.85,82.57L164.89,80.97L165.92,85.16L166.95,87.47L167.98,87.66L169.01,87.13L170.04,85.56L171.07,85.64L172.1,88.99L173.13,92.59L174.16,101.7L177.25,102.76L178.28,116.43L180.34,84.68L181.37,84.19L182.4,83.97L183.44,81.94L184.47,80.73L185.5,63.98L186.53,24.26L187.56,16L188.59,17.77L189.62,17.76L191.68,18.85L192.71,25.64L193.74,25.53L194.77,44.19L195.8,46.59L196.83,44.34L197.86,45.97L198.89,40.01L199.92,38.48L200.95,46.4L203.02,136.27L204.05,135.92L205.08,132.2L206.11,123.12L207.14,123.64L208.17,94.24L209.2,93.22L210.23,94.21L211.26,96.33L212.29,95.14L213.32,96.74L214.35,95.16L215.38,85.77L216.41,108.48L220.53,120.46L221.56,121.27L222.6,131.64L223.63,131.98L224.66,126.65L225.69,126.06L226.72,126.28L227.75,98.34L228.78,98.29L229.81,101.86L230.84,93.17L231.87,92.21L233.93,90.19L234.96,90.35L235.99,89.86L237.02,88.28L240.11,79.4L241.15,70.84L242.18,66.92L243.21,77.44L244.24,75.96L245.27,43.65L247.33,45.84L248.36,45.98L249.39,45.94L250.42,48.57L251.45,48.61L252.48,41.92L253.51,41.44L254.54,43.99L255.57,43.61L256.6,45.66L257.63,48.29L258.66,54.42L259.69,51.6L260.73,51.75L261.76,58.71L262.79,58.89L265.88,67.04L266.91,68.31L270,68.52L271.03,69.33L273.09,56.04L274.12,55.74L275.15,54.87L276.18,56.4L277.21,53.25L278.24,57.05L279.27,59.86L280.31,60.11L281.34,58.92L282.37,59.29L285.46,58.86L286.49,60.09L288.55,63.51L289.58,61.68L292.67,63.6L293.7,63.1L295.76,60.21L296.79,63.44L298.85,61.61L299.89,61.21L300.92,62.05L301.95,63.93L304.01,63.72L305.04,63.83L306.07,63.91L307.1,62.82L308.13,64.02L309.16,42.77L310.19,43.69L311.22,43.22L314.31,54.86L315.34,58.32L316.37,174.58L317.4,194.44L319.47,199.2L320.5,207.99L321.53,213.5L322.56,214.15L324.62,215.91L325.65,216.54L326.68,216.56L327.71,217.85L328.74,221.12L329.77,284.44L330.8,285.21L331.83,288.82L332.86,288.84L333.89,291.98L339.05,292.73L340.08,295.22L347.29,295.26L348.32,296.31L349.35,296.34L350.38,297.53L353.47,297.65L354.5,299.49L358.63,299.69L359.66,299.7L380.27,300.39L381.3,300.48L394.69,301.12L395.73,301.27L426.64,301.92L427.67,302.44L490.53,302.97L491.56,303.37L492.6,304L493.63,303.38L540,303.66" style="fill: rgb(99, 110, 250); fill-opacity: 0.5; stroke-width: 0;"/></g></g><g class="errorbars"/><g class="lines"><path class="js-line" d="M0,78.29L13.4,77.61L14.43,77.57L26.79,77.31L27.82,77.16L34.01,77.11L35.04,77.19L47.4,77.17L48.44,77.18L53.59,77.22L54.62,69.56L55.65,67.36L56.68,57.41L57.71,40.64L58.74,49.29L60.8,56.06L61.83,58.3L62.86,51.94L63.89,53.37L66.98,52.18L68.02,45.85L70.08,45.64L71.11,46.22L72.14,47.03L73.17,45.3L74.2,45.37L75.23,76.44L77.29,95.65L78.32,101.11L79.35,100.37L80.38,101.32L82.44,102.69L83.47,106.17L85.53,106.1L86.56,97.96L88.63,94.3L89.66,95.78L90.69,93.17L91.72,81.07L92.75,83.57L93.78,78.89L95.84,81.89L96.87,81.77L98.93,87L99.96,81.19L100.99,59L102.02,56.85L104.08,56.32L105.11,58.66L107.18,50.17L108.21,53.29L109.24,53.2L110.27,54.97L111.3,55.65L112.33,66.59L113.36,70.92L114.39,70.95L115.42,71.17L116.45,68.7L117.48,70.96L118.51,71.05L119.54,73.23L120.57,71.48L123.66,68.19L124.69,68.24L125.73,67.33L126.76,59.94L129.85,61.78L130.88,60.66L132.94,65.95L133.97,66.24L136.03,68.31L137.06,67.46L138.09,57.56L139.12,57.31L140.15,53.09L141.18,57.88L142.21,57.98L143.24,71.03L146.34,74.89L147.37,75.14L148.4,74.78L149.43,70.48L150.46,68.6L151.49,69.23L152.52,67.8L153.55,67.82L154.58,84.66L155.61,82L156.64,76.84L157.67,89.02L158.7,89.09L159.73,85.74L160.76,85.96L161.79,81.92L162.82,79.88L163.85,82.57L164.89,80.97L165.92,85.16L166.95,87.47L167.98,87.66L169.01,87.13L170.04,85.56L171.07,85.64L172.1,88.99L173.13,92.59L174.16,101.7L177.25,102.76L178.28,116.43L180.34,84.68L181.37,84.19L182.4,83.97L183.44,81.94L184.47,80.73L185.5,63.98L186.53,24.26L187.56,16L188.59,17.77L189.62,17.76L191.68,18.85L192.71,25.64L193.74,25.53L194.77,44.19L195.8,46.59L196.83,44.34L197.86,45.97L198.89,40.01L199.92,38.48L200.95,46.4L203.02,136.27L204.05,135.92L205.08,132.2L206.11,123.12L207.14,123.64L208.17,94.24L209.2,93.22L210.23,94.21L211.26,96.33L212.29,95.14L213.32,96.74L214.35,95.16L215.38,85.77L216.41,108.48L220.53,120.46L221.56,121.27L222.6,131.64L223.63,131.98L224.66,126.65L225.69,126.06L226.72,126.28L227.75,98.34L228.78,98.29L229.81,101.86L230.84,93.17L231.87,92.21L233.93,90.19L234.96,90.35L235.99,89.86L237.02,88.28L240.11,79.4L241.15,70.84L242.18,66.92L243.21,77.44L244.24,75.96L245.27,43.65L247.33,45.84L248.36,45.98L249.39,45.94L250.42,48.57L251.45,48.61L252.48,41.92L253.51,41.44L254.54,43.99L255.57,43.61L256.6,45.66L257.63,48.29L258.66,54.42L259.69,51.6L260.73,51.75L261.76,58.71L262.79,58.89L265.88,67.04L266.91,68.31L270,68.52L271.03,69.33L273.09,56.04L274.12,55.74L275.15,54.87L276.18,56.4L277.21,53.25L278.24,57.05L279.27,59.86L280.31,60.11L281.34,58.92L282.37,59.29L285.46,58.86L286.49,60.09L288.55,63.51L289.58,61.68L292.67,63.6L293.7,63.1L295.76,60.21L296.79,63.44L298.85,61.61L299.89,61.21L300.92,62.05L301.95,63.93L304.01,63.72L305.04,63.83L306.07,63.91L307.1,62.82L308.13,64.02L309.16,42.77L310.19,43.69L311.22,43.22L314.31,54.86L315.34,58.32L316.37,174.58L317.4,194.44L319.47,199.2L320.5,207.99L321.53,213.5L322.56,214.15L324.62,215.91L325.65,216.54L326.68,216.56L327.71,217.85L328.74,221.12L329.77,284.44L330.8,285.21L331.83,288.82L332.86,288.84L333.89,291.98L339.05,292.73L340.08,295.22L347.29,295.26L348.32,296.31L349.35,296.34L350.38,297.53L353.47,297.65L354.5,299.49L358.63,299.69L359.66,299.7L380.27,300.39L381.3,300.48L394.69,301.12L395.73,301.27L426.64,301.92L427.67,302.44L490.53,302.97L491.56,303.37L492.6,304L493.63,303.38L540,303.66" style="vector-effect: none; fill: none; stroke: rgb(99, 110, 250); stroke-opacity: 1; stroke-width: 2px; opacity: 1;"/></g><g class="points"/><g class="text"/></g></g></g><g class="overplot"/><path class="xlines-above crisp" d="M0,0" style="fill: none;"/><path class="ylines-above crisp" d="M0,0" style="fill: none;"/><g class="overlines-above"/><g class="xaxislayer-above"><g class="xtick"><text text-anchor="middle" x="0" y="433" transform="translate(117.1,0)" style="font-family: 'Open Sans', verdana, arial, sans-serif; font-size: 12px; fill: rgb(42, 63, 95); fill-opacity: 1; white-space: pre; opacity: 1;">Oct 2022</text></g><g class="xtick"><text text-anchor="middle" x="0" y="433" style="font-family: 'Open Sans', verdana, arial, sans-serif; font-size: 12px; fill: rgb(42, 63, 95); fill-opacity: 1; white-space: pre; opacity: 1;" transform="translate(211.91,0)">Jan 2023</text></g><g class="xtick"><text text-anchor="middle" x="0" y="433" style="font-family: 'Open Sans', verdana, arial, sans-serif; font-size: 12px; fill: rgb(42, 63, 95); fill-opacity: 1; white-space: pre; opacity: 1;" transform="translate(304.65999999999997,0)">Apr 2023</text></g><g class="xtick"><text text-anchor="middle" x="0" y="433" style="font-family: 'Open Sans', verdana, arial, sans-serif; font-size: 12px; fill: rgb(42, 63, 95); fill-opacity: 1; white-space: pre; opacity: 1;" transform="translate(398.44,0)">Jul 2023</text></g><g class="xtick"><text text-anchor="middle" x="0" y="433" style="font-family: 'Open Sans', verdana, arial, sans-serif; font-size: 12px; fill: rgb(42, 63, 95); fill-opacity: 1; white-space: pre; opacity: 1;" transform="translate(493.24,0)">Oct 2023</text></g><g class="xtick"><text text-anchor="middle" x="0" y="433" style="font-family: 'Open Sans', verdana, arial, sans-serif; font-size: 12px; fill: rgb(42, 63, 95); fill-opacity: 1; white-space: pre; opacity: 1;" transform="translate(588.05,0)">Jan 2024</text></g></g><g class="yaxislayer-above"><g class="ytick"><text text-anchor="end" x="79" y="4.199999999999999" transform="translate(0,411.36)" style="font-family: 'Open Sans', verdana, arial, sans-serif; font-size: 12px; fill: rgb(42, 63, 95); fill-opacity: 1; white-space: pre; opacity: 1;">$−8M</text></g><g class="ytick"><text text-anchor="end" x="79" y="4.199999999999999" style="font-family: 'Open Sans', verdana, arial, sans-serif; font-size: 12px; fill: rgb(42, 63, 95); fill-opacity: 1; white-space: pre; opacity: 1;" transform="translate(0,353.03999999999996)">$−6M</text></g><g class="ytick"><text text-anchor="end" x="79" y="4.199999999999999" style="font-family: 'Open Sans', verdana, arial, sans-serif; font-size: 12px; fill: rgb(42, 63, 95); fill-opacity: 1; white-space: pre; opacity: 1;" transform="translate(0,294.71000000000004)">$−4M</text></g><g class="ytick"><text text-anchor="end" x="79" y="4.199999999999999" style="font-family: 'Open Sans', verdana, arial, sans-serif; font-size: 12px; fill: rgb(42, 63, 95); fill-opacity: 1; white-space: pre; opacity: 1;" transform="translate(0,236.38)">$−2M</text></g><g class="ytick"><text text-anchor="end" x="79" y="4.199999999999999" style="font-family: 'Open Sans', verdana, arial, sans-serif; font-size: 12px; fill: rgb(42, 63, 95); fill-opacity: 1; white-space: pre; opacity: 1;" transform="translate(0,178.06)">$0</text></g><g class="ytick"><text text-anchor="end" x="79" y="4.199999999999999" style="font-family: 'Open Sans', verdana, arial, sans-serif; font-size: 12px; fill: rgb(42, 63, 95); fill-opacity: 1; white-space: pre; opacity: 1;" transform="translate(0,119.73)">$2M</text></g></g><g class="overaxes-above"/></g></g><g class="polarlayer"/><g class="smithlayer"/><g class="ternarylayer"/><g class="geolayer"/><g class="funnelarealayer"/><g class="pielayer"/><g class="iciclelayer"/><g class="treemaplayer"/><g class="sunburstlayer"/><g class="glimages"/><defs id="topdefs-9f6a45"><g class="clips"/></defs><g class="layer-above"><g class="imagelayer"/><g class="shapelayer"/></g><g class="infolayer"><g class="g-gtitle"><text class="gtitle" x="35" y="50" text-anchor="start" dy="0em" style="font-family: 'Open Sans', verdana, arial, sans-serif; font-size: 17px; fill: rgb(42, 63, 95); opacity: 1; font-weight: normal; white-space: pre;"><tspan class="line" dy="0em" x="35" y="50">Qidao - sUSDC/MAI: Velodrome</tspan><tspan class="line" dy="1.3em" x="35" y="50">​<tspan style="font-size:70%" dy="-0.6em">Cumulative Net Flows since Program Announcement, Until Program End + 30 Days - At Last Price</tspan><tspan dy="0.42em">​</tspan></tspan></text></g><g class="g-xtitle"><text class="xtitle" x="350" y="460.3" text-anchor="middle" style="font-family: 'Open Sans', verdana, arial, sans-serif; font-size: 14px; fill: rgb(42, 63, 95); opacity: 1; font-weight: normal; white-space: pre;">Day</text></g><g class="g-ytitle"><text class="ytitle" transform="rotate(-90,24.340625000000003,260)" x="24.340625000000003" y="260" text-anchor="middle" style="font-family: 'Open Sans', verdana, arial, sans-serif; font-size: 14px; fill: rgb(42, 63, 95); opacity: 1; font-weight: normal; white-space: pre;">Cumulative Net Flows (USD)</text></g></g></svg>