<svg class="main-svg" xmlns="http://www.w3.org/2000/svg" xmlns:xlink="http://www.w3.org/1999/xlink" width="700" height="500" style="" viewBox="0 0 700 500"><rect x="0" y="0" width="700" height="500" style="fill: rgb(255, 255, 255); fill-opacity: 1;"/><defs id="defs-f4794b"><g class="clips"><clipPath id="clipf4794bxyplot" class="plotclip"><rect width="540" height="320"/></clipPath><clipPath class="axesclip" id="clipf4794bx"><rect x="80" y="0" width="540" height="500"/></clipPath><clipPath class="axesclip" id="clipf4794by"><rect x="0" y="100" width="700" height="320"/></clipPath><clipPath class="axesclip" id="clipf4794bxy"><rect x="80" y="100" width="540" height="320"/></clipPath></g><g class="gradients"/><g class="patterns"/></defs><g class="bglayer"><rect class="bg" x="80" y="100" width="540" height="320" style="fill: rgb(229, 236, 246); fill-opacity: 1; stroke-width: 0;"/></g><g class="layer-below"><g class="imagelayer"/><g class="shapelayer"/></g><g class="cartesianlayer"><g class="subplot xy"><g class="layer-subplot"><g class="shapelayer"/><g class="imagelayer"/></g><g class="minor-gridlayer"><g class="x"/><g class="y"/></g><g class="gridlayer"><g class="x"><path class="xgrid crisp" transform="translate(137.64,0)" d="M0,100v320" style="stroke: rgb(255, 255, 255); stroke-opacity: 1; stroke-width: 1px;"/><path class="xgrid crisp" transform="translate(227.13,0)" d="M0,100v320" style="stroke: rgb(255, 255, 255); stroke-opacity: 1; stroke-width: 1px;"/><path class="xgrid crisp" transform="translate(319.65999999999997,0)" d="M0,100v320" style="stroke: rgb(255, 255, 255); stroke-opacity: 1; stroke-width: 1px;"/><path class="xgrid crisp" transform="translate(412.19,0)" d="M0,100v320" style="stroke: rgb(255, 255, 255); stroke-opacity: 1; stroke-width: 1px;"/><path class="xgrid crisp" transform="translate(506.24,0)" d="M0,100v320" style="stroke: rgb(255, 255, 255); stroke-opacity: 1; stroke-width: 1px;"/><path class="xgrid crisp" transform="translate(598.76,0)" d="M0,100v320" style="stroke: rgb(255, 255, 255); stroke-opacity: 1; stroke-width: 1px;"/></g><g class="y"><path class="ygrid crisp" transform="translate(0,361.29)" d="M80,0h540" style="stroke: rgb(255, 255, 255); stroke-opacity: 1; stroke-width: 1px;"/><path class="ygrid crisp" transform="translate(0,302.58000000000004)" d="M80,0h540" style="stroke: rgb(255, 255, 255); stroke-opacity: 1; stroke-width: 1px;"/><path class="ygrid crisp" transform="translate(0,243.86)" d="M80,0h540" style="stroke: rgb(255, 255, 255); stroke-opacity: 1; stroke-width: 1px;"/><path class="ygrid crisp" transform="translate(0,185.15)" d="M80,0h540" style="stroke: rgb(255, 255, 255); stroke-opacity: 1; stroke-width: 1px;"/><path class="ygrid crisp" transform="translate(0,126.44)" d="M80,0h540" style="stroke: rgb(255, 255, 255); stroke-opacity: 1; stroke-width: 1px;"/></g></g><g class="zerolinelayer"><path class="yzl zl crisp" transform="translate(0,420)" d="M80,0h540" style="stroke: rgb(255, 255, 255); stroke-opacity: 1; stroke-width: 2px;"/></g><path class="xlines-below"/><path class="ylines-below"/><g class="overlines-below"/><g class="xaxislayer-below"/><g class="yaxislayer-below"/><g class="overaxes-below"/><g class="plot" transform="translate(80,100)" clip-path="url(#clipf4794bxyplot)"><g class="scatterlayer mlayer"><g class="trace scatter traced00268" style="stroke-miterlimit: 2;"><g class="fills"><g><path class="js-fill" d="M540,320L0,320L0,317.53L3.03,316.07L4.55,315.02L7.58,317L9.1,314.76L13.65,311.27L15.17,311L16.69,309.55L18.2,310.12L19.72,307.89L21.24,308.07L22.75,306.43L24.27,306.6L25.79,307.94L27.3,304.75L28.82,305.34L30.34,304.26L31.85,305.37L33.37,308.6L34.89,312L36.4,312.91L39.44,312.23L40.96,308.59L47.02,307.09L48.54,307.48L51.57,307.32L53.09,308.34L54.61,306.97L56.12,307.34L59.16,308.5L60.67,308.2L62.19,308.45L63.71,306.94L65.22,307.06L66.74,305.72L69.78,303.51L71.29,301.28L72.81,299.64L74.33,293.13L75.84,293.67L77.36,287.15L78.88,287.66L80.39,285.62L81.91,284.12L83.43,280.9L84.94,281.81L86.46,277.96L87.98,273.08L89.49,271.21L91.01,268.01L92.53,267.83L94.04,264.68L95.56,252.98L98.6,243.03L100.11,240.97L101.63,238.2L103.15,239.64L110.73,213.23L112.25,211.42L115.28,185.77L116.8,180.89L118.31,180.84L119.83,181.93L121.35,174.08L122.87,171.27L124.38,169.39L125.9,164.02L127.42,154.84L128.93,153.89L130.45,137.15L131.97,133.56L133.48,123.2L135,105.02L136.52,81.55L138.03,77.78L141.07,50.42L142.58,48.6L144.1,30.13L145.62,27.75L147.13,23.55L148.65,16L150.17,17.86L151.69,30.78L153.2,34.24L154.72,30.41L156.24,27.81L157.75,27.04L159.27,32.98L160.79,50.5L162.3,86.48L163.82,158.11L168.37,97.09L169.89,96.43L172.92,43.4L174.44,45.17L175.96,42.99L177.47,43.4L178.99,43.73L180.51,47.06L182.02,46.74L183.54,62.2L185.06,63.8L186.57,62.83L188.09,66.95L189.61,66.76L192.64,65.05L194.16,83.76L195.67,77.37L197.19,78.89L198.71,81.53L200.22,73.35L201.74,69.2L203.26,77.72L204.78,82.8L206.29,82.61L207.81,85.69L209.33,85.01L210.84,89.7L212.36,91.21L213.88,81.55L215.39,78.04L218.43,72.38L219.94,67.04L221.46,59.42L222.98,64.97L224.49,65.58L226.01,72.87L229.04,65.93L230.56,58.79L235.11,48.42L236.63,49.1L238.15,48.33L239.66,51.01L244.21,57.29L245.73,67.02L247.25,59.06L248.76,72.99L250.28,76.46L251.8,83.58L253.31,86.38L254.83,91.05L256.35,102.78L257.87,105.13L259.38,107.75L260.9,108.83L262.42,106.4L263.93,106.56L266.97,110.92L268.48,110.8L270,110.53L271.52,113.21L273.03,112.53L274.55,108.05L276.07,118.48L277.58,117.8L279.1,116.24L280.62,116.62L282.13,115.85L283.65,119.57L285.17,121.03L286.69,127.59L288.2,130L289.72,128.19L292.75,124.95L294.27,132.77L295.79,130.45L297.3,123.07L298.82,121.04L300.34,122.68L301.85,138.45L303.37,138.7L304.89,139.16L306.4,136.61L307.92,147.29L309.44,151.15L310.96,158.28L312.47,156.72L313.99,158.72L315.51,158.1L318.54,151.23L320.06,158.49L321.57,168.35L323.09,171.77L326.12,177.53L327.64,180.72L329.16,195.83L330.67,163.95L333.71,137.13L335.22,130.79L336.74,128.82L338.26,124.18L339.78,124.1L341.29,130.96L342.81,138.24L344.33,135.42L345.84,135.67L347.36,137.27L348.88,139.37L350.39,139.84L351.91,129.74L353.43,132.67L357.98,123.79L359.49,118.06L362.53,109.79L364.04,109.53L367.08,101.22L368.6,104.81L370.11,101.94L371.63,94.97L373.15,93.24L374.66,86.32L376.18,83.49L377.7,96.08L379.21,90.29L380.73,104.27L382.25,102.8L383.76,96.73L385.28,91.59L386.8,92.78L388.31,96.36L389.83,97.56L391.35,99.34L392.87,112.3L394.38,128.29L395.9,133.9L397.42,132.4L398.93,135.02L400.45,136.04L401.97,139.44L403.48,146.04L405,161.8L406.52,163.12L408.03,166.55L409.55,161.26L411.07,159.99L412.58,157.75L414.1,160.51L418.65,165.57L420.17,166.3L421.69,169.93L423.2,166.27L424.72,176.11L426.24,202.14L427.75,204.38L429.27,204.44L430.79,207.32L432.3,207.41L435.34,220.43L436.85,221.44L438.37,224.42L439.89,224.36L442.92,227.16L444.44,227.01L445.96,227.35L447.47,228.89L450.51,226.39L452.02,226.63L453.54,224.58L455.06,221.26L456.57,220.77L458.09,223.17L459.61,222.39L461.12,223.23L462.64,224.04L464.16,223.45L465.67,224.18L467.19,223.78L468.71,224.93L470.22,223.38L471.74,222.94L473.26,219.76L474.78,221.55L476.29,228.83L477.81,230.11L479.33,233.68L480.84,233.42L482.36,234.43L483.88,234.98L485.39,238.88L486.91,241.31L488.43,254.62L489.94,261.38L491.46,257.52L494.49,256.81L496.01,255.54L497.53,256.57L499.04,254.84L500.56,254.2L502.08,250.65L505.11,248.22L506.63,248.99L509.66,252.01L511.18,250.92L514.21,251.9L515.73,251.69L517.25,250.67L518.76,250.95L520.28,250.25L521.8,255.26L523.31,252.58L524.83,253.65L526.35,252.84L527.87,253.48L529.38,254.88L530.9,251.04L533.93,229.53L535.45,228.76L536.97,223.71L538.48,226.04L540,225.61" style="fill: rgb(99, 110, 250); fill-opacity: 0.5; stroke-width: 0;"/></g></g><g class="errorbars"/><g class="lines"><path class="js-line" d="M0,317.53L3.03,316.07L4.55,315.02L7.58,317L9.1,314.76L13.65,311.27L15.17,311L16.69,309.55L18.2,310.12L19.72,307.89L21.24,308.07L22.75,306.43L24.27,306.6L25.79,307.94L27.3,304.75L28.82,305.34L30.34,304.26L31.85,305.37L33.37,308.6L34.89,312L36.4,312.91L39.44,312.23L40.96,308.59L47.02,307.09L48.54,307.48L51.57,307.32L53.09,308.34L54.61,306.97L56.12,307.34L59.16,308.5L60.67,308.2L62.19,308.45L63.71,306.94L65.22,307.06L66.74,305.72L69.78,303.51L71.29,301.28L72.81,299.64L74.33,293.13L75.84,293.67L77.36,287.15L78.88,287.66L80.39,285.62L81.91,284.12L83.43,280.9L84.94,281.81L86.46,277.96L87.98,273.08L89.49,271.21L91.01,268.01L92.53,267.83L94.04,264.68L95.56,252.98L98.6,243.03L100.11,240.97L101.63,238.2L103.15,239.64L110.73,213.23L112.25,211.42L115.28,185.77L116.8,180.89L118.31,180.84L119.83,181.93L121.35,174.08L122.87,171.27L124.38,169.39L125.9,164.02L127.42,154.84L128.93,153.89L130.45,137.15L131.97,133.56L133.48,123.2L135,105.02L136.52,81.55L138.03,77.78L141.07,50.42L142.58,48.6L144.1,30.13L145.62,27.75L147.13,23.55L148.65,16L150.17,17.86L151.69,30.78L153.2,34.24L154.72,30.41L156.24,27.81L157.75,27.04L159.27,32.98L160.79,50.5L162.3,86.48L163.82,158.11L168.37,97.09L169.89,96.43L172.92,43.4L174.44,45.17L175.96,42.99L177.47,43.4L178.99,43.73L180.51,47.06L182.02,46.74L183.54,62.2L185.06,63.8L186.57,62.83L188.09,66.95L189.61,66.76L192.64,65.05L194.16,83.76L195.67,77.37L197.19,78.89L198.71,81.53L200.22,73.35L201.74,69.2L203.26,77.72L204.78,82.8L206.29,82.61L207.81,85.69L209.33,85.01L210.84,89.7L212.36,91.21L213.88,81.55L215.39,78.04L218.43,72.38L219.94,67.04L221.46,59.42L222.98,64.97L224.49,65.58L226.01,72.87L229.04,65.93L230.56,58.79L235.11,48.42L236.63,49.1L238.15,48.33L239.66,51.01L244.21,57.29L245.73,67.02L247.25,59.06L248.76,72.99L250.28,76.46L251.8,83.58L253.31,86.38L254.83,91.05L256.35,102.78L257.87,105.13L259.38,107.75L260.9,108.83L262.42,106.4L263.93,106.56L266.97,110.92L268.48,110.8L270,110.53L271.52,113.21L273.03,112.53L274.55,108.05L276.07,118.48L277.58,117.8L279.1,116.24L280.62,116.62L282.13,115.85L283.65,119.57L285.17,121.03L286.69,127.59L288.2,130L289.72,128.19L292.75,124.95L294.27,132.77L295.79,130.45L297.3,123.07L298.82,121.04L300.34,122.68L301.85,138.45L303.37,138.7L304.89,139.16L306.4,136.61L307.92,147.29L309.44,151.15L310.96,158.28L312.47,156.72L313.99,158.72L315.51,158.1L318.54,151.23L320.06,158.49L321.57,168.35L323.09,171.77L326.12,177.53L327.64,180.72L329.16,195.83L330.67,163.95L333.71,137.13L335.22,130.79L336.74,128.82L338.26,124.18L339.78,124.1L341.29,130.96L342.81,138.24L344.33,135.42L345.84,135.67L347.36,137.27L348.88,139.37L350.39,139.84L351.91,129.74L353.43,132.67L357.98,123.79L359.49,118.06L362.53,109.79L364.04,109.53L367.08,101.22L368.6,104.81L370.11,101.94L371.63,94.97L373.15,93.24L374.66,86.32L376.18,83.49L377.7,96.08L379.21,90.29L380.73,104.27L382.25,102.8L383.76,96.73L385.28,91.59L386.8,92.78L388.31,96.36L389.83,97.56L391.35,99.34L392.87,112.3L394.38,128.29L395.9,133.9L397.42,132.4L398.93,135.02L400.45,136.04L401.97,139.44L403.48,146.04L405,161.8L406.52,163.12L408.03,166.55L409.55,161.26L411.07,159.99L412.58,157.75L414.1,160.51L418.65,165.57L420.17,166.3L421.69,169.93L423.2,166.27L424.72,176.11L426.24,202.14L427.75,204.38L429.27,204.44L430.79,207.32L432.3,207.41L435.34,220.43L436.85,221.44L438.37,224.42L439.89,224.36L442.92,227.16L444.44,227.01L445.96,227.35L447.47,228.89L450.51,226.39L452.02,226.63L453.54,224.58L455.06,221.26L456.57,220.77L458.09,223.17L459.61,222.39L461.12,223.23L462.64,224.04L464.16,223.45L465.67,224.18L467.19,223.78L468.71,224.93L470.22,223.38L471.74,222.94L473.26,219.76L474.78,221.55L476.29,228.83L477.81,230.11L479.33,233.68L480.84,233.42L482.36,234.43L483.88,234.98L485.39,238.88L486.91,241.31L488.43,254.62L489.94,261.38L491.46,257.52L494.49,256.81L496.01,255.54L497.53,256.57L499.04,254.84L500.56,254.2L502.08,250.65L505.11,248.22L506.63,248.99L509.66,252.01L511.18,250.92L514.21,251.9L515.73,251.69L517.25,250.67L518.76,250.95L520.28,250.25L521.8,255.26L523.31,252.58L524.83,253.65L526.35,252.84L527.87,253.48L529.38,254.88L530.9,251.04L533.93,229.53L535.45,228.76L536.97,223.71L538.48,226.04L540,225.61" style="vector-effect: none; fill: none; stroke: rgb(99, 110, 250); stroke-opacity: 1; stroke-width: 2px; opacity: 1;"/></g><g class="points"/><g class="text"/></g></g></g><g class="overplot"/><path class="xlines-above crisp" d="M0,0" style="fill: none;"/><path class="ylines-above crisp" d="M0,0" style="fill: none;"/><g class="overlines-above"/><g class="xaxislayer-above"><g class="xtick"><text text-anchor="middle" x="0" y="433" transform="translate(137.64,0)" style="font-family: 'Open Sans', verdana, arial, sans-serif; font-size: 12px; fill: rgb(42, 63, 95); fill-opacity: 1; white-space: pre; opacity: 1;">Jan 2023</text></g><g class="xtick"><text text-anchor="middle" x="0" y="433" style="font-family: 'Open Sans', verdana, arial, sans-serif; font-size: 12px; fill: rgb(42, 63, 95); fill-opacity: 1; white-space: pre; opacity: 1;" transform="translate(227.13,0)">Mar 2023</text></g><g class="xtick"><text text-anchor="middle" x="0" y="433" style="font-family: 'Open Sans', verdana, arial, sans-serif; font-size: 12px; fill: rgb(42, 63, 95); fill-opacity: 1; white-space: pre; opacity: 1;" transform="translate(319.65999999999997,0)">May 2023</text></g><g class="xtick"><text text-anchor="middle" x="0" y="433" style="font-family: 'Open Sans', verdana, arial, sans-serif; font-size: 12px; fill: rgb(42, 63, 95); fill-opacity: 1; white-space: pre; opacity: 1;" transform="translate(412.19,0)">Jul 2023</text></g><g class="xtick"><text text-anchor="middle" x="0" y="433" style="font-family: 'Open Sans', verdana, arial, sans-serif; font-size: 12px; fill: rgb(42, 63, 95); fill-opacity: 1; white-space: pre; opacity: 1;" transform="translate(506.24,0)">Sep 2023</text></g><g class="xtick"><text text-anchor="middle" x="0" y="433" style="font-family: 'Open Sans', verdana, arial, sans-serif; font-size: 12px; fill: rgb(42, 63, 95); fill-opacity: 1; white-space: pre; opacity: 1;" transform="translate(598.76,0)">Nov 2023</text></g></g><g class="yaxislayer-above"><g class="ytick"><text text-anchor="end" x="79" y="4.199999999999999" transform="translate(0,420)" style="font-family: 'Open Sans', verdana, arial, sans-serif; font-size: 12px; fill: rgb(42, 63, 95); fill-opacity: 1; white-space: pre; opacity: 1;">$0</text></g><g class="ytick"><text text-anchor="end" x="79" y="4.199999999999999" style="font-family: 'Open Sans', verdana, arial, sans-serif; font-size: 12px; fill: rgb(42, 63, 95); fill-opacity: 1; white-space: pre; opacity: 1;" transform="translate(0,361.29)">$50M</text></g><g class="ytick"><text text-anchor="end" x="79" y="4.199999999999999" style="font-family: 'Open Sans', verdana, arial, sans-serif; font-size: 12px; fill: rgb(42, 63, 95); fill-opacity: 1; white-space: pre; opacity: 1;" transform="translate(0,302.58000000000004)">$100M</text></g><g class="ytick"><text text-anchor="end" x="79" y="4.199999999999999" style="font-family: 'Open Sans', verdana, arial, sans-serif; font-size: 12px; fill: rgb(42, 63, 95); fill-opacity: 1; white-space: pre; opacity: 1;" transform="translate(0,243.86)">$150M</text></g><g class="ytick"><text text-anchor="end" x="79" y="4.199999999999999" style="font-family: 'Open Sans', verdana, arial, sans-serif; font-size: 12px; fill: rgb(42, 63, 95); fill-opacity: 1; white-space: pre; opacity: 1;" transform="translate(0,185.15)">$200M</text></g><g class="ytick"><text text-anchor="end" x="79" y="4.199999999999999" style="font-family: 'Open Sans', verdana, arial, sans-serif; font-size: 12px; fill: rgb(42, 63, 95); fill-opacity: 1; white-space: pre; opacity: 1;" transform="translate(0,126.44)">$250M</text></g></g><g class="overaxes-above"/></g></g><g class="polarlayer"/><g class="smithlayer"/><g class="ternarylayer"/><g class="geolayer"/><g class="funnelarealayer"/><g class="pielayer"/><g class="iciclelayer"/><g class="treemaplayer"/><g class="sunburstlayer"/><g class="glimages"/><defs id="topdefs-f4794b"><g class="clips"/></defs><g class="layer-above"><g class="imagelayer"/><g class="shapelayer"/></g><g class="infolayer"><g class="g-gtitle"><text class="gtitle" x="35" y="50" text-anchor="start" dy="0em" style="font-family: 'Open Sans', verdana, arial, sans-serif; font-size: 17px; fill: rgb(42, 63, 95); opacity: 1; font-weight: normal; white-space: pre;"><tspan class="line" dy="0em" x="35" y="50">Velodrome - Velodrome #2 (Tour de OP)*</tspan><tspan class="line" dy="1.3em" x="35" y="50">​<tspan style="font-size:70%" dy="-0.6em">Cumulative Net Flows since Program Announcement, Until Program End + 30 Days - At Last Price</tspan><tspan dy="0.42em">​</tspan></tspan></text></g><g class="g-xtitle"><text class="xtitle" x="350" y="460.3" text-anchor="middle" style="font-family: 'Open Sans', verdana, arial, sans-serif; font-size: 14px; fill: rgb(42, 63, 95); opacity: 1; font-weight: normal; white-space: pre;">Day</text></g><g class="g-ytitle"><text class="ytitle" transform="rotate(-90,17.996875000000003,260)" x="17.996875000000003" y="260" text-anchor="middle" style="font-family: 'Open Sans', verdana, arial, sans-serif; font-size: 14px; fill: rgb(42, 63, 95); opacity: 1; font-weight: normal; white-space: pre;">Cumulative Net Flows (USD)</text></g></g></svg>