<svg class="main-svg" xmlns="http://www.w3.org/2000/svg" xmlns:xlink="http://www.w3.org/1999/xlink" width="700" height="500" style="" viewBox="0 0 700 500"><rect x="0" y="0" width="700" height="500" style="fill: rgb(255, 255, 255); fill-opacity: 1;"/><defs id="defs-2f9f99"><g class="clips"><clipPath id="clip2f9f99xyplot" class="plotclip"><rect width="540" height="320"/></clipPath><clipPath class="axesclip" id="clip2f9f99x"><rect x="80" y="0" width="540" height="500"/></clipPath><clipPath class="axesclip" id="clip2f9f99y"><rect x="0" y="100" width="700" height="320"/></clipPath><clipPath class="axesclip" id="clip2f9f99xy"><rect x="80" y="100" width="540" height="320"/></clipPath></g><g class="gradients"/><g class="patterns"/></defs><g class="bglayer"><rect class="bg" x="80" y="100" width="540" height="320" style="fill: rgb(229, 236, 246); fill-opacity: 1; stroke-width: 0;"/></g><g class="layer-below"><g class="imagelayer"/><g class="shapelayer"/></g><g class="cartesianlayer"><g class="subplot xy"><g class="layer-subplot"><g class="shapelayer"/><g class="imagelayer"/></g><g class="minor-gridlayer"><g class="x"/><g class="y"/></g><g class="gridlayer"><g class="x"><path class="xgrid crisp" transform="translate(88.96000000000001,0)" d="M0,100v320" style="stroke: rgb(255, 255, 255); stroke-opacity: 1; stroke-width: 1px;"/><path class="xgrid crisp" transform="translate(167.01,0)" d="M0,100v320" style="stroke: rgb(255, 255, 255); stroke-opacity: 1; stroke-width: 1px;"/><path class="xgrid crisp" transform="translate(245.07,0)" d="M0,100v320" style="stroke: rgb(255, 255, 255); stroke-opacity: 1; stroke-width: 1px;"/><path class="xgrid crisp" transform="translate(320.57,0)" d="M0,100v320" style="stroke: rgb(255, 255, 255); stroke-opacity: 1; stroke-width: 1px;"/><path class="xgrid crisp" transform="translate(398.63,0)" d="M0,100v320" style="stroke: rgb(255, 255, 255); stroke-opacity: 1; stroke-width: 1px;"/><path class="xgrid crisp" transform="translate(476.68,0)" d="M0,100v320" style="stroke: rgb(255, 255, 255); stroke-opacity: 1; stroke-width: 1px;"/><path class="xgrid crisp" transform="translate(556.02,0)" d="M0,100v320" style="stroke: rgb(255, 255, 255); stroke-opacity: 1; stroke-width: 1px;"/></g><g class="y"><path class="ygrid crisp" transform="translate(0,377.9)" d="M80,0h540" style="stroke: rgb(255, 255, 255); stroke-opacity: 1; stroke-width: 1px;"/><path class="ygrid crisp" transform="translate(0,335.8)" d="M80,0h540" style="stroke: rgb(255, 255, 255); stroke-opacity: 1; stroke-width: 1px;"/><path class="ygrid crisp" transform="translate(0,293.7)" d="M80,0h540" style="stroke: rgb(255, 255, 255); stroke-opacity: 1; stroke-width: 1px;"/><path class="ygrid crisp" transform="translate(0,251.6)" d="M80,0h540" style="stroke: rgb(255, 255, 255); stroke-opacity: 1; stroke-width: 1px;"/><path class="ygrid crisp" transform="translate(0,209.5)" d="M80,0h540" style="stroke: rgb(255, 255, 255); stroke-opacity: 1; stroke-width: 1px;"/><path class="ygrid crisp" transform="translate(0,167.4)" d="M80,0h540" style="stroke: rgb(255, 255, 255); stroke-opacity: 1; stroke-width: 1px;"/><path class="ygrid crisp" transform="translate(0,125.3)" d="M80,0h540" style="stroke: rgb(255, 255, 255); stroke-opacity: 1; stroke-width: 1px;"/></g></g><g class="zerolinelayer"><path class="yzl zl crisp" transform="translate(0,420)" d="M80,0h540" style="stroke: rgb(255, 255, 255); stroke-opacity: 1; stroke-width: 2px;"/></g><path class="xlines-below"/><path class="ylines-below"/><g class="overlines-below"/><g class="xaxislayer-below"/><g class="yaxislayer-below"/><g class="overaxes-below"/><g class="plot" transform="translate(80,100)" clip-path="url(#clip2f9f99xyplot)"><g class="scatterlayer mlayer"><g class="trace scatter tracebe8327" style="stroke-miterlimit: 2;"><g class="fills"><g><path class="js-fill" d="M540,320L0,320L0,230.06L1.28,212.33L2.56,207.62L6.4,200.39L7.68,188.19L8.96,185.6L10.24,188.42L12.8,180.8L14.08,179.91L15.36,180.18L16.64,177.11L19.19,160.59L20.47,155.14L23.03,149.93L24.31,150.78L26.87,157.06L28.15,152.83L29.43,145.7L30.71,147.65L33.27,153.1L34.55,153.82L35.83,154.99L37.11,158.88L39.67,160.12L40.95,159.79L42.23,161.64L43.51,149.06L44.79,151.79L46.07,163.68L48.63,163.94L49.91,164.57L51.18,165.6L52.46,168.52L53.74,172.11L55.02,169.19L56.3,173.56L57.58,175L60.14,178.27L61.42,177.39L63.98,178.36L65.26,169.95L67.82,169.77L69.1,170.99L70.38,171.8L71.66,171.45L75.5,171L76.78,170.71L78.06,168.92L79.34,168.76L80.62,168.63L81.9,176.02L83.18,175.02L84.45,169.79L85.73,170.21L87.01,165.79L89.57,160.86L90.85,143.37L92.13,141.89L93.41,142.3L95.97,141.43L97.25,162.23L99.81,172.4L101.09,168.81L102.37,173.07L103.65,168.77L106.21,168.17L107.49,172.06L108.77,175.63L110.05,174.78L111.33,174.87L112.61,177.41L113.89,179.64L115.17,178.98L116.45,174.68L117.73,175.14L121.56,174.91L122.84,175.25L124.12,174.11L125.4,176.5L126.68,175.46L127.96,172.85L129.24,171.3L130.52,171L131.8,168.61L133.08,162.84L134.36,157.63L135.64,158.58L136.92,157.46L138.2,157.95L139.48,157.24L140.76,151.35L142.04,151.55L143.32,140.92L144.6,150.58L145.88,152.97L148.44,153.51L149.72,154.96L151,159.66L152.27,158.82L153.55,159.34L154.83,158.83L157.39,159L158.67,158.71L159.95,162.51L161.23,162.65L162.51,161.18L163.79,155.17L165.07,161.22L166.35,163.04L167.63,162.96L168.91,164.95L170.19,164.93L171.47,162.78L172.75,159.28L174.03,159.39L176.59,149.1L177.87,139.57L179.15,138.14L180.43,140.74L181.71,138.09L182.99,131.58L185.55,131.03L186.82,129.77L188.1,130.38L189.38,127.59L191.94,119.08L193.22,117.94L194.5,116.08L195.78,105.65L198.34,71.76L199.62,72.55L200.9,56.45L202.18,55.66L203.46,44.43L204.74,43.28L206.02,37.87L207.3,16L209.86,23L211.14,22.65L212.42,23.54L213.7,26.84L214.98,50.45L216.26,49.16L217.54,48.95L218.82,37.93L220.09,39.05L221.37,37.77L222.65,38.36L223.93,36.06L225.21,36.96L226.49,41.92L227.77,41.68L229.05,42.67L230.33,54.5L231.61,55.16L232.89,55.58L234.17,55.15L235.45,53.92L236.73,51.64L239.29,51.6L240.57,44.78L241.85,44.52L243.13,46.18L244.41,32.98L245.69,32.39L246.97,30.84L248.25,31.26L249.53,30.57L250.81,32.26L252.09,35.39L253.36,40.8L254.64,128.72L255.92,127.55L258.48,90.6L259.76,88.12L261.04,77.72L262.32,81.77L263.6,90.99L264.88,91.79L266.16,91.7L267.44,89.42L270,55.72L271.28,56.15L275.12,112.82L276.4,160.65L277.68,176.3L278.96,180.69L281.52,192.12L282.8,197.76L286.64,204.99L287.91,206.58L289.19,210.35L290.47,211.69L291.75,212.3L293.03,214.39L295.59,215.21L296.87,237.57L300.71,241.04L301.99,241.53L304.55,243.27L305.83,243.27L307.11,242.24L308.39,242.67L309.67,242.94L310.95,245.15L312.23,246.88L313.51,250.25L323.74,252.09L325.02,252.82L326.3,272.93L327.58,273.64L330.14,274.12L331.42,274.6L332.7,275.9L333.98,255.96L340.38,256.42L341.66,258.84L348.06,259.44L349.34,261.86L367.25,263.33L368.53,268.1L376.21,269.55L377.49,270.18L383.89,270.19L385.17,274.08L386.45,274.23L387.73,275.16L399.24,276.61L400.52,277.2L401.8,278.55L403.08,278.54L410.76,278.76L412.04,279.62L415.88,279.96L417.16,280.98L418.44,293.59L419.72,293.62L433.79,293.76L435.07,318.22L436.35,318.3L437.63,294.36L440.19,294.39L441.47,318.26L444.03,317.89L445.31,297.89L446.59,297.95L447.87,294.25L449.15,308.87L450.43,308.88L458.1,308.91L459.38,313.07L527.2,313.63L528.48,313.93L540,313.86" style="fill: rgb(99, 110, 250); fill-opacity: 0.5; stroke-width: 0;"/></g></g><g class="errorbars"/><g class="lines"><path class="js-line" d="M0,230.06L1.28,212.33L2.56,207.62L6.4,200.39L7.68,188.19L8.96,185.6L10.24,188.42L12.8,180.8L14.08,179.91L15.36,180.18L16.64,177.11L19.19,160.59L20.47,155.14L23.03,149.93L24.31,150.78L26.87,157.06L28.15,152.83L29.43,145.7L30.71,147.65L33.27,153.1L34.55,153.82L35.83,154.99L37.11,158.88L39.67,160.12L40.95,159.79L42.23,161.64L43.51,149.06L44.79,151.79L46.07,163.68L48.63,163.94L49.91,164.57L51.18,165.6L52.46,168.52L53.74,172.11L55.02,169.19L56.3,173.56L57.58,175L60.14,178.27L61.42,177.39L63.98,178.36L65.26,169.95L67.82,169.77L69.1,170.99L70.38,171.8L71.66,171.45L75.5,171L76.78,170.71L78.06,168.92L79.34,168.76L80.62,168.63L81.9,176.02L83.18,175.02L84.45,169.79L85.73,170.21L87.01,165.79L89.57,160.86L90.85,143.37L92.13,141.89L93.41,142.3L95.97,141.43L97.25,162.23L99.81,172.4L101.09,168.81L102.37,173.07L103.65,168.77L106.21,168.17L107.49,172.06L108.77,175.63L110.05,174.78L111.33,174.87L112.61,177.41L113.89,179.64L115.17,178.98L116.45,174.68L117.73,175.14L121.56,174.91L122.84,175.25L124.12,174.11L125.4,176.5L126.68,175.46L127.96,172.85L129.24,171.3L130.52,171L131.8,168.61L133.08,162.84L134.36,157.63L135.64,158.58L136.92,157.46L138.2,157.95L139.48,157.24L140.76,151.35L142.04,151.55L143.32,140.92L144.6,150.58L145.88,152.97L148.44,153.51L149.72,154.96L151,159.66L152.27,158.82L153.55,159.34L154.83,158.83L157.39,159L158.67,158.71L159.95,162.51L161.23,162.65L162.51,161.18L163.79,155.17L165.07,161.22L166.35,163.04L167.63,162.96L168.91,164.95L170.19,164.93L171.47,162.78L172.75,159.28L174.03,159.39L176.59,149.1L177.87,139.57L179.15,138.14L180.43,140.74L181.71,138.09L182.99,131.58L185.55,131.03L186.82,129.77L188.1,130.38L189.38,127.59L191.94,119.08L193.22,117.94L194.5,116.08L195.78,105.65L198.34,71.76L199.62,72.55L200.9,56.45L202.18,55.66L203.46,44.43L204.74,43.28L206.02,37.87L207.3,16L209.86,23L211.14,22.65L212.42,23.54L213.7,26.84L214.98,50.45L216.26,49.16L217.54,48.95L218.82,37.93L220.09,39.05L221.37,37.77L222.65,38.36L223.93,36.06L225.21,36.96L226.49,41.92L227.77,41.68L229.05,42.67L230.33,54.5L231.61,55.16L232.89,55.58L234.17,55.15L235.45,53.92L236.73,51.64L239.29,51.6L240.57,44.78L241.85,44.52L243.13,46.18L244.41,32.98L245.69,32.39L246.97,30.84L248.25,31.26L249.53,30.57L250.81,32.26L252.09,35.39L253.36,40.8L254.64,128.72L255.92,127.55L258.48,90.6L259.76,88.12L261.04,77.72L262.32,81.77L263.6,90.99L264.88,91.79L266.16,91.7L267.44,89.42L270,55.72L271.28,56.15L275.12,112.82L276.4,160.65L277.68,176.3L278.96,180.69L281.52,192.12L282.8,197.76L286.64,204.99L287.91,206.58L289.19,210.35L290.47,211.69L291.75,212.3L293.03,214.39L295.59,215.21L296.87,237.57L300.71,241.04L301.99,241.53L304.55,243.27L305.83,243.27L307.11,242.24L308.39,242.67L309.67,242.94L310.95,245.15L312.23,246.88L313.51,250.25L323.74,252.09L325.02,252.82L326.3,272.93L327.58,273.64L330.14,274.12L331.42,274.6L332.7,275.9L333.98,255.96L340.38,256.42L341.66,258.84L348.06,259.44L349.34,261.86L367.25,263.33L368.53,268.1L376.21,269.55L377.49,270.18L383.89,270.19L385.17,274.08L386.45,274.23L387.73,275.16L399.24,276.61L400.52,277.2L401.8,278.55L403.08,278.54L410.76,278.76L412.04,279.62L415.88,279.96L417.16,280.98L418.44,293.59L419.72,293.62L433.79,293.76L435.07,318.22L436.35,318.3L437.63,294.36L440.19,294.39L441.47,318.26L444.03,317.89L445.31,297.89L446.59,297.95L447.87,294.25L449.15,308.87L450.43,308.88L458.1,308.91L459.38,313.07L527.2,313.63L528.48,313.93L540,313.86" style="vector-effect: none; fill: none; stroke: rgb(99, 110, 250); stroke-opacity: 1; stroke-width: 2px; opacity: 1;"/></g><g class="points"/><g class="text"/></g></g></g><g class="overplot"/><path class="xlines-above crisp" d="M0,0" style="fill: none;"/><path class="ylines-above crisp" d="M0,0" style="fill: none;"/><g class="overlines-above"/><g class="xaxislayer-above"><g class="xtick"><text text-anchor="middle" x="0" y="433" transform="translate(88.96000000000001,0)" style="font-family: 'Open Sans', verdana, arial, sans-serif; font-size: 12px; fill: rgb(42, 63, 95); fill-opacity: 1; white-space: pre; opacity: 1;">Sep 2022</text></g><g class="xtick"><text text-anchor="middle" x="0" y="433" style="font-family: 'Open Sans', verdana, arial, sans-serif; font-size: 12px; fill: rgb(42, 63, 95); fill-opacity: 1; white-space: pre; opacity: 1;" transform="translate(167.01,0)">Nov 2022</text></g><g class="xtick"><text text-anchor="middle" x="0" y="433" style="font-family: 'Open Sans', verdana, arial, sans-serif; font-size: 12px; fill: rgb(42, 63, 95); fill-opacity: 1; white-space: pre; opacity: 1;" transform="translate(245.07,0)">Jan 2023</text></g><g class="xtick"><text text-anchor="middle" x="0" y="433" style="font-family: 'Open Sans', verdana, arial, sans-serif; font-size: 12px; fill: rgb(42, 63, 95); fill-opacity: 1; white-space: pre; opacity: 1;" transform="translate(320.57,0)">Mar 2023</text></g><g class="xtick"><text text-anchor="middle" x="0" y="433" style="font-family: 'Open Sans', verdana, arial, sans-serif; font-size: 12px; fill: rgb(42, 63, 95); fill-opacity: 1; white-space: pre; opacity: 1;" transform="translate(398.63,0)">May 2023</text></g><g class="xtick"><text text-anchor="middle" x="0" y="433" style="font-family: 'Open Sans', verdana, arial, sans-serif; font-size: 12px; fill: rgb(42, 63, 95); fill-opacity: 1; white-space: pre; opacity: 1;" transform="translate(476.68,0)">Jul 2023</text></g><g class="xtick"><text text-anchor="middle" x="0" y="433" style="font-family: 'Open Sans', verdana, arial, sans-serif; font-size: 12px; fill: rgb(42, 63, 95); fill-opacity: 1; white-space: pre; opacity: 1;" transform="translate(556.02,0)">Sep 2023</text></g></g><g class="yaxislayer-above"><g class="ytick"><text text-anchor="end" x="79" y="4.199999999999999" transform="translate(0,420)" style="font-family: 'Open Sans', verdana, arial, sans-serif; font-size: 12px; fill: rgb(42, 63, 95); fill-opacity: 1; white-space: pre; opacity: 1;">$0</text></g><g class="ytick"><text text-anchor="end" x="79" y="4.199999999999999" style="font-family: 'Open Sans', verdana, arial, sans-serif; font-size: 12px; fill: rgb(42, 63, 95); fill-opacity: 1; white-space: pre; opacity: 1;" transform="translate(0,377.9)">$10M</text></g><g class="ytick"><text text-anchor="end" x="79" y="4.199999999999999" style="font-family: 'Open Sans', verdana, arial, sans-serif; font-size: 12px; fill: rgb(42, 63, 95); fill-opacity: 1; white-space: pre; opacity: 1;" transform="translate(0,335.8)">$20M</text></g><g class="ytick"><text text-anchor="end" x="79" y="4.199999999999999" style="font-family: 'Open Sans', verdana, arial, sans-serif; font-size: 12px; fill: rgb(42, 63, 95); fill-opacity: 1; white-space: pre; opacity: 1;" transform="translate(0,293.7)">$30M</text></g><g class="ytick"><text text-anchor="end" x="79" y="4.199999999999999" style="font-family: 'Open Sans', verdana, arial, sans-serif; font-size: 12px; fill: rgb(42, 63, 95); fill-opacity: 1; white-space: pre; opacity: 1;" transform="translate(0,251.6)">$40M</text></g><g class="ytick"><text text-anchor="end" x="79" y="4.199999999999999" style="font-family: 'Open Sans', verdana, arial, sans-serif; font-size: 12px; fill: rgb(42, 63, 95); fill-opacity: 1; white-space: pre; opacity: 1;" transform="translate(0,209.5)">$50M</text></g><g class="ytick"><text text-anchor="end" x="79" y="4.199999999999999" style="font-family: 'Open Sans', verdana, arial, sans-serif; font-size: 12px; fill: rgb(42, 63, 95); fill-opacity: 1; white-space: pre; opacity: 1;" transform="translate(0,167.4)">$60M</text></g><g class="ytick"><text text-anchor="end" x="79" y="4.199999999999999" style="font-family: 'Open Sans', verdana, arial, sans-serif; font-size: 12px; fill: rgb(42, 63, 95); fill-opacity: 1; white-space: pre; opacity: 1;" transform="translate(0,125.3)">$70M</text></g></g><g class="overaxes-above"/></g></g><g class="polarlayer"/><g class="smithlayer"/><g class="ternarylayer"/><g class="geolayer"/><g class="funnelarealayer"/><g class="pielayer"/><g class="iciclelayer"/><g class="treemaplayer"/><g class="sunburstlayer"/><g class="glimages"/><defs id="topdefs-2f9f99"><g class="clips"/></defs><g class="layer-above"><g class="imagelayer"/><g class="shapelayer"/></g><g class="infolayer"><g class="g-gtitle"><text class="gtitle" x="35" y="50" text-anchor="start" dy="0em" style="font-family: 'Open Sans', verdana, arial, sans-serif; font-size: 17px; fill: rgb(42, 63, 95); opacity: 1; font-weight: normal; white-space: pre;"><tspan class="line" dy="0em" x="35" y="50">Synthetix - All Synthetix Curve Pools</tspan><tspan class="line" dy="1.3em" x="35" y="50">​<tspan style="font-size:70%" dy="-0.6em">Cumulative Net Flows since Program Announcement, Until Program End + 30 Days - At Last Price</tspan><tspan dy="0.42em">​</tspan></tspan></text></g><g class="g-xtitle"><text class="xtitle" x="350" y="460.3" text-anchor="middle" style="font-family: 'Open Sans', verdana, arial, sans-serif; font-size: 14px; fill: rgb(42, 63, 95); opacity: 1; font-weight: normal; white-space: pre;">Day</text></g><g class="g-ytitle"><text class="ytitle" transform="rotate(-90,24.668750000000003,260)" x="24.668750000000003" y="260" text-anchor="middle" style="font-family: 'Open Sans', verdana, arial, sans-serif; font-size: 14px; fill: rgb(42, 63, 95); opacity: 1; font-weight: normal; white-space: pre;">Cumulative Net Flows (USD)</text></g></g></svg>