<svg class="main-svg" xmlns="http://www.w3.org/2000/svg" xmlns:xlink="http://www.w3.org/1999/xlink" width="700" height="500" style="" viewBox="0 0 700 500"><rect x="0" y="0" width="700" height="500" style="fill: rgb(255, 255, 255); fill-opacity: 1;"/><defs id="defs-fe8dbb"><g class="clips"><clipPath id="clipfe8dbbxyplot" class="plotclip"><rect width="540" height="320"/></clipPath><clipPath class="axesclip" id="clipfe8dbbx"><rect x="80" y="0" width="540" height="500"/></clipPath><clipPath class="axesclip" id="clipfe8dbby"><rect x="0" y="100" width="700" height="320"/></clipPath><clipPath class="axesclip" id="clipfe8dbbxy"><rect x="80" y="100" width="540" height="320"/></clipPath></g><g class="gradients"/><g class="patterns"/></defs><g class="bglayer"><rect class="bg" x="80" y="100" width="540" height="320" style="fill: rgb(229, 236, 246); fill-opacity: 1; stroke-width: 0;"/></g><g class="layer-below"><g class="imagelayer"/><g class="shapelayer"/></g><g class="cartesianlayer"><g class="subplot xy"><g class="layer-subplot"><g class="shapelayer"/><g class="imagelayer"/></g><g class="minor-gridlayer"><g class="x"/><g class="y"/></g><g class="gridlayer"><g class="x"><path class="xgrid crisp" transform="translate(84.28,0)" d="M0,100v320" style="stroke: rgb(255, 255, 255); stroke-opacity: 1; stroke-width: 1px;"/><path class="xgrid crisp" transform="translate(182.65,0)" d="M0,100v320" style="stroke: rgb(255, 255, 255); stroke-opacity: 1; stroke-width: 1px;"/><path class="xgrid crisp" transform="translate(278.89,0)" d="M0,100v320" style="stroke: rgb(255, 255, 255); stroke-opacity: 1; stroke-width: 1px;"/><path class="xgrid crisp" transform="translate(376.2,0)" d="M0,100v320" style="stroke: rgb(255, 255, 255); stroke-opacity: 1; stroke-width: 1px;"/><path class="xgrid crisp" transform="translate(474.57,0)" d="M0,100v320" style="stroke: rgb(255, 255, 255); stroke-opacity: 1; stroke-width: 1px;"/><path class="xgrid crisp" transform="translate(572.95,0)" d="M0,100v320" style="stroke: rgb(255, 255, 255); stroke-opacity: 1; stroke-width: 1px;"/></g><g class="y"><path class="ygrid crisp" transform="translate(0,381.45)" d="M80,0h540" style="stroke: rgb(255, 255, 255); stroke-opacity: 1; stroke-width: 1px;"/><path class="ygrid crisp" transform="translate(0,241.81)" d="M80,0h540" style="stroke: rgb(255, 255, 255); stroke-opacity: 1; stroke-width: 1px;"/><path class="ygrid crisp" transform="translate(0,171.98000000000002)" d="M80,0h540" style="stroke: rgb(255, 255, 255); stroke-opacity: 1; stroke-width: 1px;"/><path class="ygrid crisp" transform="translate(0,102.16)" d="M80,0h540" style="stroke: rgb(255, 255, 255); stroke-opacity: 1; stroke-width: 1px;"/></g></g><g class="zerolinelayer"><path class="yzl zl crisp" transform="translate(0,311.63)" d="M80,0h540" style="stroke: rgb(255, 255, 255); stroke-opacity: 1; stroke-width: 2px;"/></g><path class="xlines-below"/><path class="ylines-below"/><g class="overlines-below"/><g class="xaxislayer-below"/><g class="yaxislayer-below"/><g class="overaxes-below"/><g class="plot" transform="translate(80,100)" clip-path="url(#clipfe8dbbxyplot)"><g class="scatterlayer mlayer"><g class="trace scatter tracee05c53" style="stroke-miterlimit: 2;"><g class="fills"><g><path class="js-fill" d="M540,211.63L0,211.63L0,211.67L21.39,211.57L22.46,204.7L24.59,204.57L25.66,207.02L26.73,207.14L27.8,205.8L29.94,206.83L31.01,211.15L34.22,203.6L35.29,203.95L38.5,203.32L39.56,203.37L43.84,202.55L44.91,213.47L45.98,214.65L47.05,224.86L48.12,223.59L49.19,224.25L50.26,224.26L51.33,225.17L52.4,216.65L53.47,215.39L54.53,219.18L55.6,218.01L56.67,217.12L57.74,217.62L60.95,219.7L62.02,219.37L63.09,218.48L64.16,213.97L65.23,213.6L66.3,218.21L67.37,218.64L68.44,217.98L70.57,209.59L71.64,209.56L72.71,210.04L73.78,208.33L74.85,207.58L75.92,203.8L76.99,203.5L78.06,201.41L79.13,207.51L80.2,186.28L81.27,197.06L82.34,197.24L83.41,201.46L84.48,214.77L85.54,214.92L86.61,220.45L87.68,221.24L88.75,220.88L89.82,215.84L90.89,215.93L93.03,217.69L94.1,217.64L97.31,217.91L98.38,218.8L104.79,218.43L105.86,218.32L106.93,218.19L108,219.98L109.07,217.71L110.14,217.54L111.21,214.53L112.28,213.8L113.35,213.66L114.42,212.37L116.55,210.59L117.62,210.85L118.69,210.73L119.76,208.24L120.83,207.83L121.9,201.93L124.04,194.76L125.11,198.15L130.46,160.81L131.52,157.11L132.59,157.14L133.66,154.56L134.73,145.87L135.8,143.56L137.94,136.78L139.01,135.77L140.08,131.81L141.15,109.18L142.22,107.6L143.29,93.99L144.36,96.36L145.43,96.46L147.56,84.92L148.63,84.19L149.7,84.23L150.77,81.03L151.84,82.29L152.91,77.26L153.98,75.81L155.05,66.13L157.19,57.34L158.26,64.46L159.33,60.5L160.4,48.4L161.47,48.98L162.53,48.1L164.67,35L165.74,23.43L166.81,17.52L167.88,17.26L168.95,16L170.02,16.94L171.09,16.08L172.16,19.18L173.23,20.64L174.3,25.82L175.37,91.61L176.44,223.09L177.5,222.34L178.57,201.44L179.64,157.3L180.71,151.01L181.78,141.38L182.85,118.49L184.99,67.23L186.06,64.22L187.13,66.76L188.2,66.42L190.34,75.54L191.41,78.58L192.48,78.93L193.54,85.06L194.61,85.05L195.68,88.37L196.75,88.9L197.82,82.77L199.96,82.71L201.03,86.77L202.1,92.47L203.17,90.89L205.31,84.04L206.38,84.69L208.51,101.89L209.58,102.98L211.72,101.97L212.79,88.38L213.86,90.25L214.93,90.28L219.21,90.28L220.28,93.47L221.35,87.31L222.42,87.48L224.55,73.77L225.62,70.31L226.69,72.95L227.76,71.89L229.9,71.12L230.97,71.3L233.11,74.32L234.18,78.07L235.25,79.73L236.32,84.33L237.39,84.32L238.46,88.95L240.59,94.17L241.66,101.18L242.73,101.83L243.8,101.55L244.87,101.6L245.94,103.06L247.01,97.2L248.08,97.36L249.15,99.28L250.22,97.06L251.29,101.13L252.36,101.28L254.5,101.14L255.56,101.49L257.7,102.14L258.77,107.41L259.84,106.89L260.91,107.43L263.05,108.1L264.12,110.13L265.19,110.52L266.26,113.37L268.4,114.13L269.47,118.73L271.6,100.26L272.67,100.42L273.74,114.36L274.81,115.32L276.95,115.31L278.02,116.11L279.09,130.95L280.16,134.63L281.23,131.97L282.3,132.05L284.44,144.05L285.5,151.25L287.64,151.7L288.71,152.43L289.78,152.86L290.85,157.62L291.92,160.53L292.99,173.6L295.13,194.67L296.2,200.89L297.27,201.77L298.34,207.12L299.41,223.66L300.48,223.79L303.68,224.65L304.75,224.68L305.82,225.13L306.89,226.73L307.96,279.48L309.03,279.57L310.1,290.9L311.17,290.9L313.31,292L314.38,292.05L315.45,294.05L316.51,294.29L341.11,295.35L342.18,296.15L466.22,297.44L467.29,303.96L540,304" style="fill: rgb(99, 110, 250); fill-opacity: 0.5; stroke-width: 0;"/></g></g><g class="errorbars"/><g class="lines"><path class="js-line" d="M0,211.67L21.39,211.57L22.46,204.7L24.59,204.57L25.66,207.02L26.73,207.14L27.8,205.8L29.94,206.83L31.01,211.15L34.22,203.6L35.29,203.95L38.5,203.32L39.56,203.37L43.84,202.55L44.91,213.47L45.98,214.65L47.05,224.86L48.12,223.59L49.19,224.25L50.26,224.26L51.33,225.17L52.4,216.65L53.47,215.39L54.53,219.18L55.6,218.01L56.67,217.12L57.74,217.62L60.95,219.7L62.02,219.37L63.09,218.48L64.16,213.97L65.23,213.6L66.3,218.21L67.37,218.64L68.44,217.98L70.57,209.59L71.64,209.56L72.71,210.04L73.78,208.33L74.85,207.58L75.92,203.8L76.99,203.5L78.06,201.41L79.13,207.51L80.2,186.28L81.27,197.06L82.34,197.24L83.41,201.46L84.48,214.77L85.54,214.92L86.61,220.45L87.68,221.24L88.75,220.88L89.82,215.84L90.89,215.93L93.03,217.69L94.1,217.64L97.31,217.91L98.38,218.8L104.79,218.43L105.86,218.32L106.93,218.19L108,219.98L109.07,217.71L110.14,217.54L111.21,214.53L112.28,213.8L113.35,213.66L114.42,212.37L116.55,210.59L117.62,210.85L118.69,210.73L119.76,208.24L120.83,207.83L121.9,201.93L124.04,194.76L125.11,198.15L130.46,160.81L131.52,157.11L132.59,157.14L133.66,154.56L134.73,145.87L135.8,143.56L137.94,136.78L139.01,135.77L140.08,131.81L141.15,109.18L142.22,107.6L143.29,93.99L144.36,96.36L145.43,96.46L147.56,84.92L148.63,84.19L149.7,84.23L150.77,81.03L151.84,82.29L152.91,77.26L153.98,75.81L155.05,66.13L157.19,57.34L158.26,64.46L159.33,60.5L160.4,48.4L161.47,48.98L162.53,48.1L164.67,35L165.74,23.43L166.81,17.52L167.88,17.26L168.95,16L170.02,16.94L171.09,16.08L172.16,19.18L173.23,20.64L174.3,25.82L175.37,91.61L176.44,223.09L177.5,222.34L178.57,201.44L179.64,157.3L180.71,151.01L181.78,141.38L182.85,118.49L184.99,67.23L186.06,64.22L187.13,66.76L188.2,66.42L190.34,75.54L191.41,78.58L192.48,78.93L193.54,85.06L194.61,85.05L195.68,88.37L196.75,88.9L197.82,82.77L199.96,82.71L201.03,86.77L202.1,92.47L203.17,90.89L205.31,84.04L206.38,84.69L208.51,101.89L209.58,102.98L211.72,101.97L212.79,88.38L213.86,90.25L214.93,90.28L219.21,90.28L220.28,93.47L221.35,87.31L222.42,87.48L224.55,73.77L225.62,70.31L226.69,72.95L227.76,71.89L229.9,71.12L230.97,71.3L233.11,74.32L234.18,78.07L235.25,79.73L236.32,84.33L237.39,84.32L238.46,88.95L240.59,94.17L241.66,101.18L242.73,101.83L243.8,101.55L244.87,101.6L245.94,103.06L247.01,97.2L248.08,97.36L249.15,99.28L250.22,97.06L251.29,101.13L252.36,101.28L254.5,101.14L255.56,101.49L257.7,102.14L258.77,107.41L259.84,106.89L260.91,107.43L263.05,108.1L264.12,110.13L265.19,110.52L266.26,113.37L268.4,114.13L269.47,118.73L271.6,100.26L272.67,100.42L273.74,114.36L274.81,115.32L276.95,115.31L278.02,116.11L279.09,130.95L280.16,134.63L281.23,131.97L282.3,132.05L284.44,144.05L285.5,151.25L287.64,151.7L288.71,152.43L289.78,152.86L290.85,157.62L291.92,160.53L292.99,173.6L295.13,194.67L296.2,200.89L297.27,201.77L298.34,207.12L299.41,223.66L300.48,223.79L303.68,224.65L304.75,224.68L305.82,225.13L306.89,226.73L307.96,279.48L309.03,279.57L310.1,290.9L311.17,290.9L313.31,292L314.38,292.05L315.45,294.05L316.51,294.29L341.11,295.35L342.18,296.15L466.22,297.44L467.29,303.96L540,304" style="vector-effect: none; fill: none; stroke: rgb(99, 110, 250); stroke-opacity: 1; stroke-width: 2px; opacity: 1;"/></g><g class="points"/><g class="text"/></g></g></g><g class="overplot"/><path class="xlines-above crisp" d="M0,0" style="fill: none;"/><path class="ylines-above crisp" d="M0,0" style="fill: none;"/><g class="overlines-above"/><g class="xaxislayer-above"><g class="xtick"><text text-anchor="middle" x="0" y="433" transform="translate(84.28,0)" style="font-family: 'Open Sans', verdana, arial, sans-serif; font-size: 12px; fill: rgb(42, 63, 95); fill-opacity: 1; white-space: pre; opacity: 1;">Oct 2022</text></g><g class="xtick"><text text-anchor="middle" x="0" y="433" style="font-family: 'Open Sans', verdana, arial, sans-serif; font-size: 12px; fill: rgb(42, 63, 95); fill-opacity: 1; white-space: pre; opacity: 1;" transform="translate(182.65,0)">Jan 2023</text></g><g class="xtick"><text text-anchor="middle" x="0" y="433" style="font-family: 'Open Sans', verdana, arial, sans-serif; font-size: 12px; fill: rgb(42, 63, 95); fill-opacity: 1; white-space: pre; opacity: 1;" transform="translate(278.89,0)">Apr 2023</text></g><g class="xtick"><text text-anchor="middle" x="0" y="433" style="font-family: 'Open Sans', verdana, arial, sans-serif; font-size: 12px; fill: rgb(42, 63, 95); fill-opacity: 1; white-space: pre; opacity: 1;" transform="translate(376.2,0)">Jul 2023</text></g><g class="xtick"><text text-anchor="middle" x="0" y="433" style="font-family: 'Open Sans', verdana, arial, sans-serif; font-size: 12px; fill: rgb(42, 63, 95); fill-opacity: 1; white-space: pre; opacity: 1;" transform="translate(474.57,0)">Oct 2023</text></g><g class="xtick"><text text-anchor="middle" x="0" y="433" style="font-family: 'Open Sans', verdana, arial, sans-serif; font-size: 12px; fill: rgb(42, 63, 95); fill-opacity: 1; white-space: pre; opacity: 1;" transform="translate(572.95,0)">Jan 2024</text></g></g><g class="yaxislayer-above"><g class="ytick"><text text-anchor="end" x="79" y="4.199999999999999" transform="translate(0,381.45)" style="font-family: 'Open Sans', verdana, arial, sans-serif; font-size: 12px; fill: rgb(42, 63, 95); fill-opacity: 1; white-space: pre; opacity: 1;">$−10M</text></g><g class="ytick"><text text-anchor="end" x="79" y="4.199999999999999" style="font-family: 'Open Sans', verdana, arial, sans-serif; font-size: 12px; fill: rgb(42, 63, 95); fill-opacity: 1; white-space: pre; opacity: 1;" transform="translate(0,311.63)">$0</text></g><g class="ytick"><text text-anchor="end" x="79" y="4.199999999999999" style="font-family: 'Open Sans', verdana, arial, sans-serif; font-size: 12px; fill: rgb(42, 63, 95); fill-opacity: 1; white-space: pre; opacity: 1;" transform="translate(0,241.81)">$10M</text></g><g class="ytick"><text text-anchor="end" x="79" y="4.199999999999999" style="font-family: 'Open Sans', verdana, arial, sans-serif; font-size: 12px; fill: rgb(42, 63, 95); fill-opacity: 1; white-space: pre; opacity: 1;" transform="translate(0,171.98000000000002)">$20M</text></g><g class="ytick"><text text-anchor="end" x="79" y="4.199999999999999" style="font-family: 'Open Sans', verdana, arial, sans-serif; font-size: 12px; fill: rgb(42, 63, 95); fill-opacity: 1; white-space: pre; opacity: 1;" transform="translate(0,102.16)">$30M</text></g></g><g class="overaxes-above"/></g></g><g class="polarlayer"/><g class="smithlayer"/><g class="ternarylayer"/><g class="geolayer"/><g class="funnelarealayer"/><g class="pielayer"/><g class="iciclelayer"/><g class="treemaplayer"/><g class="sunburstlayer"/><g class="glimages"/><defs id="topdefs-fe8dbb"><g class="clips"/></defs><g class="layer-above"><g class="imagelayer"/><g class="shapelayer"/></g><g class="infolayer"><g class="g-gtitle"><text class="gtitle" x="35" y="50" text-anchor="start" dy="0em" style="font-family: 'Open Sans', verdana, arial, sans-serif; font-size: 17px; fill: rgb(42, 63, 95); opacity: 1; font-weight: normal; white-space: pre;"><tspan class="line" dy="0em" x="35" y="50">Synthetix - USDC/sUSD: Velodrome</tspan><tspan class="line" dy="1.3em" x="35" y="50">​<tspan style="font-size:70%" dy="-0.6em">Cumulative Net Flows since Program Announcement, Until Program End + 30 Days - At Last Price</tspan><tspan dy="0.42em">​</tspan></tspan></text></g><g class="g-xtitle"><text class="xtitle" x="350" y="460.3" text-anchor="middle" style="font-family: 'Open Sans', verdana, arial, sans-serif; font-size: 14px; fill: rgb(42, 63, 95); opacity: 1; font-weight: normal; white-space: pre;">Day</text></g><g class="g-ytitle"><text class="ytitle" transform="rotate(-90,17.668750000000003,260)" x="17.668750000000003" y="260" text-anchor="middle" style="font-family: 'Open Sans', verdana, arial, sans-serif; font-size: 14px; fill: rgb(42, 63, 95); opacity: 1; font-weight: normal; white-space: pre;">Cumulative Net Flows (USD)</text></g></g></svg>