<svg class="main-svg" xmlns="http://www.w3.org/2000/svg" xmlns:xlink="http://www.w3.org/1999/xlink" width="700" height="500" style="" viewBox="0 0 700 500"><rect x="0" y="0" width="700" height="500" style="fill: rgb(255, 255, 255); fill-opacity: 1;"/><defs id="defs-4c0ed5"><g class="clips"><clipPath id="clip4c0ed5xyplot" class="plotclip"><rect width="540" height="320"/></clipPath><clipPath class="axesclip" id="clip4c0ed5x"><rect x="80" y="0" width="540" height="500"/></clipPath><clipPath class="axesclip" id="clip4c0ed5y"><rect x="0" y="100" width="700" height="320"/></clipPath><clipPath class="axesclip" id="clip4c0ed5xy"><rect x="80" y="100" width="540" height="320"/></clipPath></g><g class="gradients"/><g class="patterns"/></defs><g class="bglayer"><rect class="bg" x="80" y="100" width="540" height="320" style="fill: rgb(229, 236, 246); fill-opacity: 1; stroke-width: 0;"/></g><g class="layer-below"><g class="imagelayer"/><g class="shapelayer"/></g><g class="cartesianlayer"><g class="subplot xy"><g class="layer-subplot"><g class="shapelayer"/><g class="imagelayer"/></g><g class="minor-gridlayer"><g class="x"/><g class="y"/></g><g class="gridlayer"><g class="x"><path class="xgrid crisp" transform="translate(93.6,0)" d="M0,100v320" style="stroke: rgb(255, 255, 255); stroke-opacity: 1; stroke-width: 1px;"/><path class="xgrid crisp" transform="translate(212.09,0)" d="M0,100v320" style="stroke: rgb(255, 255, 255); stroke-opacity: 1; stroke-width: 1px;"/><path class="xgrid crisp" transform="translate(326.69,0)" d="M0,100v320" style="stroke: rgb(255, 255, 255); stroke-opacity: 1; stroke-width: 1px;"/><path class="xgrid crisp" transform="translate(445.18,0)" d="M0,100v320" style="stroke: rgb(255, 255, 255); stroke-opacity: 1; stroke-width: 1px;"/><path class="xgrid crisp" transform="translate(563.6700000000001,0)" d="M0,100v320" style="stroke: rgb(255, 255, 255); stroke-opacity: 1; stroke-width: 1px;"/></g><g class="y"><path class="ygrid crisp" transform="translate(0,369.43)" d="M80,0h540" style="stroke: rgb(255, 255, 255); stroke-opacity: 1; stroke-width: 1px;"/><path class="ygrid crisp" transform="translate(0,318.85)" d="M80,0h540" style="stroke: rgb(255, 255, 255); stroke-opacity: 1; stroke-width: 1px;"/><path class="ygrid crisp" transform="translate(0,268.28)" d="M80,0h540" style="stroke: rgb(255, 255, 255); stroke-opacity: 1; stroke-width: 1px;"/><path class="ygrid crisp" transform="translate(0,217.7)" d="M80,0h540" style="stroke: rgb(255, 255, 255); stroke-opacity: 1; stroke-width: 1px;"/><path class="ygrid crisp" transform="translate(0,167.13)" d="M80,0h540" style="stroke: rgb(255, 255, 255); stroke-opacity: 1; stroke-width: 1px;"/><path class="ygrid crisp" transform="translate(0,116.55)" d="M80,0h540" style="stroke: rgb(255, 255, 255); stroke-opacity: 1; stroke-width: 1px;"/></g></g><g class="zerolinelayer"><path class="yzl zl crisp" transform="translate(0,420)" d="M80,0h540" style="stroke: rgb(255, 255, 255); stroke-opacity: 1; stroke-width: 2px;"/></g><path class="xlines-below"/><path class="ylines-below"/><g class="overlines-below"/><g class="xaxislayer-below"/><g class="yaxislayer-below"/><g class="overaxes-below"/><g class="plot" transform="translate(80,100)" clip-path="url(#clip4c0ed5xyplot)"><g class="scatterlayer mlayer"><g class="trace scatter trace5a7f9a" style="stroke-miterlimit: 2;"><g class="fills"><g><path class="js-fill" d="M540,320L0,320L0,320L1.94,320L3.88,287.2L5.83,239.76L7.77,246.69L9.71,248.65L11.65,239.23L13.6,241.34L15.54,233.99L17.48,231.3L19.42,248.46L25.25,246.66L27.19,248.57L31.08,269.99L33.02,269.72L34.96,264.54L36.91,263.74L38.85,241.57L40.79,241.87L42.73,240.54L44.68,244.8L48.56,254.23L50.5,252.01L52.45,250.76L54.39,251.38L56.33,251.31L58.27,250.35L60.22,250.15L62.16,247.29L64.1,240.92L66.04,230.12L67.99,236.51L69.93,238.57L71.87,255.07L73.81,245.16L77.7,232.72L79.64,247.13L81.58,247.87L83.53,261.77L85.47,251.87L87.41,251.58L89.35,252.13L91.29,258.59L95.18,258.09L97.12,257.9L99.06,258.03L101.01,254.18L102.95,248.13L104.89,247.74L108.78,248.37L110.72,246.57L114.6,246.78L116.55,245.5L118.49,245.79L120.43,245.27L122.37,242.92L124.32,242.71L126.26,245.48L128.2,244.5L130.14,246.25L132.09,246.09L134.03,245.49L135.97,243.62L137.91,241.21L139.86,242.26L145.68,242.07L147.63,240.77L149.57,241.76L151.51,243.82L155.4,235.47L157.34,234.74L159.28,233.13L161.22,227.94L163.17,251.15L165.11,247.47L167.05,250.38L168.99,265.99L170.94,269.01L172.88,266.71L176.76,261.93L178.71,260.55L180.65,251.64L182.59,253.48L186.47,251.58L188.42,236.74L190.36,244.61L192.3,240.97L194.24,231.4L196.19,238.12L198.13,237.79L200.07,234.15L202.01,234.35L203.96,220.77L205.9,234.61L207.84,236.06L209.78,235.46L211.73,229.73L213.67,228.91L215.61,229.47L217.55,211.32L219.5,213.28L223.38,219.42L225.32,213.69L227.27,218.05L229.21,217.77L231.15,220.2L233.09,213.41L235.04,207.48L236.98,190.08L238.92,184.75L240.86,189.41L242.81,189.18L244.75,179.79L246.69,179.35L248.63,190.57L250.58,181.02L252.52,183.95L254.46,186.43L256.4,177.78L260.29,189.93L262.23,183.43L264.17,170.13L266.12,185.99L268.06,158.78L270,174.85L271.94,199.05L273.88,233.1L275.83,290.86L277.77,277.78L279.71,272.95L281.65,274.1L283.6,273.59L285.54,260.71L287.48,251.27L289.42,169.29L291.37,179.57L293.31,184.36L297.19,152.15L299.14,177.75L301.08,177.29L303.02,189.12L306.91,187.54L308.85,178.63L310.79,178.17L312.73,175.48L314.68,178.92L316.62,185.12L318.56,187.77L320.5,206.69L322.45,249.61L324.39,244.14L326.33,244L328.27,238.36L332.16,172.26L334.1,168.28L336.04,147.93L337.99,159.44L339.93,150.97L341.87,118.97L343.81,151.93L345.76,140.86L347.7,136.02L349.64,124.65L351.58,85.43L353.53,87.04L355.47,88.21L357.41,94.14L359.35,91.54L361.29,93.74L363.24,96.15L365.18,125.45L367.12,122.83L369.06,118.19L371.01,127.02L372.95,86.82L374.89,41.63L376.83,42.34L378.78,42.81L380.72,54.32L382.66,31.81L384.6,33.85L386.55,16L388.49,65.08L392.37,51.79L394.32,56.2L396.26,61.72L398.2,70.77L400.14,54.75L402.09,60.62L404.03,87.21L405.97,91.35L407.91,99.02L409.86,92.02L411.8,65.36L413.74,68.25L415.68,56.07L417.63,52.64L419.57,37.96L421.51,41.38L425.4,162.21L427.34,158.37L429.28,159.02L431.22,141.62L433.17,139.73L435.11,144.87L437.05,144.92L438.99,194.77L442.88,162.94L444.82,185.07L446.76,189L448.71,188.65L450.65,190.05L452.59,197.85L454.53,194.39L456.47,197.8L458.42,213.95L460.36,202.38L462.3,202.81L464.24,205.17L466.19,192.74L468.13,197.06L470.07,196.61L472.01,197.13L473.96,196.94L475.9,188.72L477.84,194.17L479.78,195.88L481.73,232.74L483.67,216.66L485.61,208.24L487.55,205.02L489.5,200.91L491.44,200.58L493.38,205.45L495.32,214.65L497.27,222.8L499.21,222.9L501.15,222.94L503.09,220.76L505.04,216.5L506.98,214.08L508.92,216.21L510.86,205.3L512.81,196.39L514.75,205.69L518.63,228.55L520.58,216.76L524.46,194.98L526.4,189.47L528.35,188.5L530.29,177.83L532.23,177.96L534.17,174.16L538.06,180.09L540,186.19" style="fill: rgb(99, 110, 250); fill-opacity: 0.5; stroke-width: 0;"/></g></g><g class="errorbars"/><g class="lines"><path class="js-line" d="M0,320L1.94,320L3.88,287.2L5.83,239.76L7.77,246.69L9.71,248.65L11.65,239.23L13.6,241.34L15.54,233.99L17.48,231.3L19.42,248.46L25.25,246.66L27.19,248.57L31.08,269.99L33.02,269.72L34.96,264.54L36.91,263.74L38.85,241.57L40.79,241.87L42.73,240.54L44.68,244.8L48.56,254.23L50.5,252.01L52.45,250.76L54.39,251.38L56.33,251.31L58.27,250.35L60.22,250.15L62.16,247.29L64.1,240.92L66.04,230.12L67.99,236.51L69.93,238.57L71.87,255.07L73.81,245.16L77.7,232.72L79.64,247.13L81.58,247.87L83.53,261.77L85.47,251.87L87.41,251.58L89.35,252.13L91.29,258.59L95.18,258.09L97.12,257.9L99.06,258.03L101.01,254.18L102.95,248.13L104.89,247.74L108.78,248.37L110.72,246.57L114.6,246.78L116.55,245.5L118.49,245.79L120.43,245.27L122.37,242.92L124.32,242.71L126.26,245.48L128.2,244.5L130.14,246.25L132.09,246.09L134.03,245.49L135.97,243.62L137.91,241.21L139.86,242.26L145.68,242.07L147.63,240.77L149.57,241.76L151.51,243.82L155.4,235.47L157.34,234.74L159.28,233.13L161.22,227.94L163.17,251.15L165.11,247.47L167.05,250.38L168.99,265.99L170.94,269.01L172.88,266.71L176.76,261.93L178.71,260.55L180.65,251.64L182.59,253.48L186.47,251.58L188.42,236.74L190.36,244.61L192.3,240.97L194.24,231.4L196.19,238.12L198.13,237.79L200.07,234.15L202.01,234.35L203.96,220.77L205.9,234.61L207.84,236.06L209.78,235.46L211.73,229.73L213.67,228.91L215.61,229.47L217.55,211.32L219.5,213.28L223.38,219.42L225.32,213.69L227.27,218.05L229.21,217.77L231.15,220.2L233.09,213.41L235.04,207.48L236.98,190.08L238.92,184.75L240.86,189.41L242.81,189.18L244.75,179.79L246.69,179.35L248.63,190.57L250.58,181.02L252.52,183.95L254.46,186.43L256.4,177.78L260.29,189.93L262.23,183.43L264.17,170.13L266.12,185.99L268.06,158.78L270,174.85L271.94,199.05L273.88,233.1L275.83,290.86L277.77,277.78L279.71,272.95L281.65,274.1L283.6,273.59L285.54,260.71L287.48,251.27L289.42,169.29L291.37,179.57L293.31,184.36L297.19,152.15L299.14,177.75L301.08,177.29L303.02,189.12L306.91,187.54L308.85,178.63L310.79,178.17L312.73,175.48L314.68,178.92L316.62,185.12L318.56,187.77L320.5,206.69L322.45,249.61L324.39,244.14L326.33,244L328.27,238.36L332.16,172.26L334.1,168.28L336.04,147.93L337.99,159.44L339.93,150.97L341.87,118.97L343.81,151.93L345.76,140.86L347.7,136.02L349.64,124.65L351.58,85.43L353.53,87.04L355.47,88.21L357.41,94.14L359.35,91.54L361.29,93.74L363.24,96.15L365.18,125.45L367.12,122.83L369.06,118.19L371.01,127.02L372.95,86.82L374.89,41.63L376.83,42.34L378.78,42.81L380.72,54.32L382.66,31.81L384.6,33.85L386.55,16L388.49,65.08L392.37,51.79L394.32,56.2L396.26,61.72L398.2,70.77L400.14,54.75L402.09,60.62L404.03,87.21L405.97,91.35L407.91,99.02L409.86,92.02L411.8,65.36L413.74,68.25L415.68,56.07L417.63,52.64L419.57,37.96L421.51,41.38L425.4,162.21L427.34,158.37L429.28,159.02L431.22,141.62L433.17,139.73L435.11,144.87L437.05,144.92L438.99,194.77L442.88,162.94L444.82,185.07L446.76,189L448.71,188.65L450.65,190.05L452.59,197.85L454.53,194.39L456.47,197.8L458.42,213.95L460.36,202.38L462.3,202.81L464.24,205.17L466.19,192.74L468.13,197.06L470.07,196.61L472.01,197.13L473.96,196.94L475.9,188.72L477.84,194.17L479.78,195.88L481.73,232.74L483.67,216.66L485.61,208.24L487.55,205.02L489.5,200.91L491.44,200.58L493.38,205.45L495.32,214.65L497.27,222.8L499.21,222.9L501.15,222.94L503.09,220.76L505.04,216.5L506.98,214.08L508.92,216.21L510.86,205.3L512.81,196.39L514.75,205.69L518.63,228.55L520.58,216.76L524.46,194.98L526.4,189.47L528.35,188.5L530.29,177.83L532.23,177.96L534.17,174.16L538.06,180.09L540,186.19" style="vector-effect: none; fill: none; stroke: rgb(99, 110, 250); stroke-opacity: 1; stroke-width: 2px; opacity: 1;"/></g><g class="points"/><g class="text"/></g></g></g><g class="overplot"/><path class="xlines-above crisp" d="M0,0" style="fill: none;"/><path class="ylines-above crisp" d="M0,0" style="fill: none;"/><g class="overlines-above"/><g class="xaxislayer-above"><g class="xtick"><text text-anchor="middle" x="0" y="433" transform="translate(93.6,0)" style="font-family: 'Open Sans', verdana, arial, sans-serif; font-size: 12px; fill: rgb(42, 63, 95); fill-opacity: 1; white-space: pre; opacity: 1;">Nov 2022</text></g><g class="xtick"><text text-anchor="middle" x="0" y="433" style="font-family: 'Open Sans', verdana, arial, sans-serif; font-size: 12px; fill: rgb(42, 63, 95); fill-opacity: 1; white-space: pre; opacity: 1;" transform="translate(212.09,0)">Jan 2023</text></g><g class="xtick"><text text-anchor="middle" x="0" y="433" style="font-family: 'Open Sans', verdana, arial, sans-serif; font-size: 12px; fill: rgb(42, 63, 95); fill-opacity: 1; white-space: pre; opacity: 1;" transform="translate(326.69,0)">Mar 2023</text></g><g class="xtick"><text text-anchor="middle" x="0" y="433" style="font-family: 'Open Sans', verdana, arial, sans-serif; font-size: 12px; fill: rgb(42, 63, 95); fill-opacity: 1; white-space: pre; opacity: 1;" transform="translate(445.18,0)">May 2023</text></g><g class="xtick"><text text-anchor="middle" x="0" y="433" style="font-family: 'Open Sans', verdana, arial, sans-serif; font-size: 12px; fill: rgb(42, 63, 95); fill-opacity: 1; white-space: pre; opacity: 1;" transform="translate(563.6700000000001,0)">Jul 2023</text></g></g><g class="yaxislayer-above"><g class="ytick"><text text-anchor="end" x="79" y="4.199999999999999" transform="translate(0,420)" style="font-family: 'Open Sans', verdana, arial, sans-serif; font-size: 12px; fill: rgb(42, 63, 95); fill-opacity: 1; white-space: pre; opacity: 1;">$0</text></g><g class="ytick"><text text-anchor="end" x="79" y="4.199999999999999" style="font-family: 'Open Sans', verdana, arial, sans-serif; font-size: 12px; fill: rgb(42, 63, 95); fill-opacity: 1; white-space: pre; opacity: 1;" transform="translate(0,369.43)">$0.5M</text></g><g class="ytick"><text text-anchor="end" x="79" y="4.199999999999999" style="font-family: 'Open Sans', verdana, arial, sans-serif; font-size: 12px; fill: rgb(42, 63, 95); fill-opacity: 1; white-space: pre; opacity: 1;" transform="translate(0,318.85)">$1M</text></g><g class="ytick"><text text-anchor="end" x="79" y="4.199999999999999" style="font-family: 'Open Sans', verdana, arial, sans-serif; font-size: 12px; fill: rgb(42, 63, 95); fill-opacity: 1; white-space: pre; opacity: 1;" transform="translate(0,268.28)">$1.5M</text></g><g class="ytick"><text text-anchor="end" x="79" y="4.199999999999999" style="font-family: 'Open Sans', verdana, arial, sans-serif; font-size: 12px; fill: rgb(42, 63, 95); fill-opacity: 1; white-space: pre; opacity: 1;" transform="translate(0,217.7)">$2M</text></g><g class="ytick"><text text-anchor="end" x="79" y="4.199999999999999" style="font-family: 'Open Sans', verdana, arial, sans-serif; font-size: 12px; fill: rgb(42, 63, 95); fill-opacity: 1; white-space: pre; opacity: 1;" transform="translate(0,167.13)">$2.5M</text></g><g class="ytick"><text text-anchor="end" x="79" y="4.199999999999999" style="font-family: 'Open Sans', verdana, arial, sans-serif; font-size: 12px; fill: rgb(42, 63, 95); fill-opacity: 1; white-space: pre; opacity: 1;" transform="translate(0,116.55)">$3M</text></g></g><g class="overaxes-above"/></g></g><g class="polarlayer"/><g class="smithlayer"/><g class="ternarylayer"/><g class="geolayer"/><g class="funnelarealayer"/><g class="pielayer"/><g class="iciclelayer"/><g class="treemaplayer"/><g class="sunburstlayer"/><g class="glimages"/><defs id="topdefs-4c0ed5"><g class="clips"/></defs><g class="layer-above"><g class="imagelayer"/><g class="shapelayer"/></g><g class="infolayer"><g class="g-gtitle"><text class="gtitle" x="35" y="50" text-anchor="start" dy="0em" style="font-family: 'Open Sans', verdana, arial, sans-serif; font-size: 17px; fill: rgb(42, 63, 95); opacity: 1; font-weight: normal; white-space: pre;"><tspan class="line" dy="0em" x="35" y="50">Synthetix - All Synthetix Hop Pools</tspan><tspan class="line" dy="1.3em" x="35" y="50">​<tspan style="font-size:70%" dy="-0.6em">Cumulative Net Flows since Program Announcement, Until Program End + 30 Days - At Last Price</tspan><tspan dy="0.42em">​</tspan></tspan></text></g><g class="g-xtitle"><text class="xtitle" x="350" y="460.3" text-anchor="middle" style="font-family: 'Open Sans', verdana, arial, sans-serif; font-size: 14px; fill: rgb(42, 63, 95); opacity: 1; font-weight: normal; white-space: pre;">Day</text></g><g class="g-ytitle"><text class="ytitle" transform="rotate(-90,21.340625000000003,260)" x="21.340625000000003" y="260" text-anchor="middle" style="font-family: 'Open Sans', verdana, arial, sans-serif; font-size: 14px; fill: rgb(42, 63, 95); opacity: 1; font-weight: normal; white-space: pre;">Cumulative Net Flows (USD)</text></g></g></svg>