<svg class="main-svg" xmlns="http://www.w3.org/2000/svg" xmlns:xlink="http://www.w3.org/1999/xlink" width="700" height="500" style="" viewBox="0 0 700 500"><rect x="0" y="0" width="700" height="500" style="fill: rgb(255, 255, 255); fill-opacity: 1;"/><defs id="defs-b85532"><g class="clips"><clipPath id="clipb85532xyplot" class="plotclip"><rect width="540" height="320"/></clipPath><clipPath class="axesclip" id="clipb85532x"><rect x="80" y="0" width="540" height="500"/></clipPath><clipPath class="axesclip" id="clipb85532y"><rect x="0" y="100" width="700" height="320"/></clipPath><clipPath class="axesclip" id="clipb85532xy"><rect x="80" y="100" width="540" height="320"/></clipPath></g><g class="gradients"/><g class="patterns"/></defs><g class="bglayer"><rect class="bg" x="80" y="100" width="540" height="320" style="fill: rgb(229, 236, 246); fill-opacity: 1; stroke-width: 0;"/></g><g class="layer-below"><g class="imagelayer"/><g class="shapelayer"/></g><g class="cartesianlayer"><g class="subplot xy"><g class="layer-subplot"><g class="shapelayer"/><g class="imagelayer"/></g><g class="minor-gridlayer"><g class="x"/><g class="y"/></g><g class="gridlayer"><g class="x"><path class="xgrid crisp" transform="translate(89.52,0)" d="M0,100v320" style="stroke: rgb(255, 255, 255); stroke-opacity: 1; stroke-width: 1px;"/><path class="xgrid crisp" transform="translate(172.49,0)" d="M0,100v320" style="stroke: rgb(255, 255, 255); stroke-opacity: 1; stroke-width: 1px;"/><path class="xgrid crisp" transform="translate(252.75,0)" d="M0,100v320" style="stroke: rgb(255, 255, 255); stroke-opacity: 1; stroke-width: 1px;"/><path class="xgrid crisp" transform="translate(335.72,0)" d="M0,100v320" style="stroke: rgb(255, 255, 255); stroke-opacity: 1; stroke-width: 1px;"/><path class="xgrid crisp" transform="translate(418.69,0)" d="M0,100v320" style="stroke: rgb(255, 255, 255); stroke-opacity: 1; stroke-width: 1px;"/><path class="xgrid crisp" transform="translate(503.02,0)" d="M0,100v320" style="stroke: rgb(255, 255, 255); stroke-opacity: 1; stroke-width: 1px;"/><path class="xgrid crisp" transform="translate(585.99,0)" d="M0,100v320" style="stroke: rgb(255, 255, 255); stroke-opacity: 1; stroke-width: 1px;"/></g><g class="y"><path class="ygrid crisp" transform="translate(0,369.43)" d="M80,0h540" style="stroke: rgb(255, 255, 255); stroke-opacity: 1; stroke-width: 1px;"/><path class="ygrid crisp" transform="translate(0,318.85)" d="M80,0h540" style="stroke: rgb(255, 255, 255); stroke-opacity: 1; stroke-width: 1px;"/><path class="ygrid crisp" transform="translate(0,268.28)" d="M80,0h540" style="stroke: rgb(255, 255, 255); stroke-opacity: 1; stroke-width: 1px;"/><path class="ygrid crisp" transform="translate(0,217.7)" d="M80,0h540" style="stroke: rgb(255, 255, 255); stroke-opacity: 1; stroke-width: 1px;"/><path class="ygrid crisp" transform="translate(0,167.13)" d="M80,0h540" style="stroke: rgb(255, 255, 255); stroke-opacity: 1; stroke-width: 1px;"/><path class="ygrid crisp" transform="translate(0,116.55)" d="M80,0h540" style="stroke: rgb(255, 255, 255); stroke-opacity: 1; stroke-width: 1px;"/></g></g><g class="zerolinelayer"><path class="yzl zl crisp" transform="translate(0,420)" d="M80,0h540" style="stroke: rgb(255, 255, 255); stroke-opacity: 1; stroke-width: 2px;"/></g><path class="xlines-below"/><path class="ylines-below"/><g class="overlines-below"/><g class="xaxislayer-below"/><g class="yaxislayer-below"/><g class="overaxes-below"/><g class="plot" transform="translate(80,100)" clip-path="url(#clipb85532xyplot)"><g class="scatterlayer mlayer"><g class="trace scatter tracee98ca2" style="stroke-miterlimit: 2;"><g class="fills"><g><path class="js-fill" d="M540,320L0,320L0,320L1.36,320L2.72,287.2L4.08,239.76L5.44,246.69L6.8,248.65L8.16,239.23L9.52,241.34L10.88,233.99L12.24,231.3L13.6,248.46L17.68,246.66L19.04,248.57L21.76,269.99L23.12,269.72L24.48,264.54L25.84,263.74L27.2,241.57L28.56,241.87L29.92,240.54L31.28,244.8L34.01,254.23L35.37,252.01L36.73,250.76L38.09,251.38L39.45,251.31L40.81,250.35L42.17,250.15L43.53,247.29L44.89,240.92L46.25,230.12L47.61,236.51L48.97,238.57L50.33,255.07L51.69,245.16L54.41,232.72L55.77,247.13L57.13,247.87L58.49,261.77L59.85,251.87L61.21,251.58L62.57,252.13L63.93,258.59L66.65,258.09L68.01,257.9L69.37,258.03L70.73,254.18L72.09,248.13L73.45,247.74L76.17,248.37L77.53,246.57L80.25,246.78L81.61,245.5L82.97,245.79L84.33,245.27L85.69,242.92L87.05,242.71L88.41,245.48L89.77,244.5L91.13,246.25L92.49,246.09L93.85,245.49L95.21,243.62L96.57,241.21L97.93,242.26L102.02,242.07L103.38,240.77L104.74,241.76L106.1,243.82L108.82,235.47L110.18,234.74L111.54,233.13L112.9,227.94L114.26,251.15L115.62,247.47L116.98,250.38L118.34,265.99L119.7,269.01L121.06,266.71L123.78,261.93L125.14,260.55L126.5,251.64L127.86,253.48L130.58,251.58L131.94,236.74L133.3,244.61L134.66,240.97L136.02,231.4L137.38,238.12L138.74,237.79L140.1,234.15L141.46,234.35L142.82,220.77L144.18,234.61L145.54,236.06L146.9,235.46L148.26,229.73L149.62,228.91L150.98,229.47L152.34,211.32L153.7,213.28L156.42,219.42L157.78,213.69L159.14,218.05L160.5,217.77L161.86,220.2L163.22,213.41L164.58,207.48L165.94,190.08L167.3,184.75L168.66,189.41L170.03,189.18L171.39,179.79L172.75,179.35L174.11,190.57L175.47,181.02L176.83,183.95L178.19,186.43L179.55,177.78L182.27,189.93L183.63,183.43L184.99,170.13L186.35,185.99L187.71,158.78L189.07,174.85L191.79,233.1L193.15,290.86L194.51,277.78L195.87,272.95L197.23,274.1L198.59,273.59L201.31,251.27L202.67,169.29L205.39,184.36L206.75,168.09L208.11,152.15L209.47,177.75L210.83,177.29L212.19,189.12L214.91,187.54L216.27,178.63L217.63,178.17L218.99,175.48L220.35,178.92L221.71,185.12L223.07,187.77L224.43,206.69L225.79,249.61L227.15,244.14L228.51,244L229.87,238.36L232.59,172.26L233.95,168.28L235.31,147.93L236.68,159.44L238.04,150.97L239.4,118.97L240.76,151.93L242.12,140.86L243.48,136.02L244.84,124.65L246.2,85.43L247.56,87.04L248.92,88.21L250.28,94.14L251.64,91.54L253,93.74L254.36,96.15L255.72,125.45L257.08,122.83L258.44,118.19L259.8,127.02L261.16,86.82L262.52,41.63L263.88,42.34L265.24,42.81L266.6,54.32L267.96,31.81L269.32,33.85L270.68,16L272.04,65.08L274.76,51.79L276.12,56.2L277.48,61.72L278.84,70.77L280.2,54.75L281.56,60.62L282.92,87.21L284.28,91.35L285.64,99.02L287,92.02L288.36,65.36L289.72,68.25L291.08,56.07L292.44,52.64L293.8,37.96L295.16,41.38L297.88,162.21L299.24,158.37L300.6,159.02L301.96,141.62L303.32,139.73L304.69,144.87L306.05,144.92L307.41,194.77L310.13,162.94L311.49,185.07L312.85,189L314.21,188.65L315.57,190.05L316.93,197.85L318.29,194.39L319.65,197.8L321.01,213.95L322.37,202.38L323.73,202.81L325.09,205.17L326.45,192.74L327.81,197.06L329.17,196.61L330.53,197.13L331.89,196.94L333.25,188.72L334.61,194.17L335.97,195.88L337.33,232.74L338.69,216.66L340.05,208.24L341.41,205.02L342.77,200.91L344.13,200.58L345.49,205.45L346.85,214.65L348.21,222.8L349.57,222.9L350.93,222.94L352.29,220.76L355.01,214.08L356.37,216.21L359.09,196.39L360.45,205.69L363.17,228.55L364.53,216.76L367.25,194.98L368.61,189.47L369.97,188.5L371.34,177.83L372.7,177.96L374.06,174.16L376.78,180.09L378.14,186.19L379.5,176.82L380.86,189.94L383.58,195.78L384.94,193.46L386.3,194.23L387.66,207.01L389.02,209.12L390.38,190.83L391.74,191.47L393.1,197.49L394.46,202.83L395.82,194.97L397.18,194.84L398.54,198.09L401.26,182.51L402.62,184.11L403.98,174.18L405.34,176.81L406.7,177.56L408.06,186L410.78,189.99L412.14,208.91L413.5,210.64L414.86,195.02L416.22,196.38L417.58,193.03L418.94,180.97L420.3,180.26L421.66,175.74L423.02,180.4L424.38,184.92L425.74,175.42L427.1,175.27L428.46,178.11L429.82,179.78L431.18,206.82L433.9,207.89L435.26,205.46L437.98,206.72L439.35,217.28L440.71,216.45L442.07,219.77L443.43,219.39L444.79,221.17L447.51,221.26L448.87,220.1L450.23,220.96L451.59,225.02L452.95,224.15L454.31,224.18L455.67,228.16L457.03,227.61L458.39,217.7L459.75,218.64L461.11,225.72L462.47,228.44L466.55,262.68L467.91,295.66L469.27,300.89L470.63,300.68L473.35,298.36L474.71,299.75L477.43,303.24L478.79,299.16L482.87,298.04L484.23,298.45L485.59,299.08L486.95,300.63L488.31,292.2L489.67,292.14L491.03,294.44L492.39,293.33L493.75,300.26L495.11,303.22L496.47,303.67L497.83,305.07L499.19,297.07L500.55,297.05L507.36,298.54L508.72,298.44L511.44,298.41L512.8,310.66L514.16,318.89L515.52,318.77L516.88,319.12L518.24,304.71L519.6,304.74L520.96,311.4L522.32,312.6L523.68,312.64L526.4,310.77L527.76,312.03L535.92,312.72L537.28,314.7L540,314.61" style="fill: rgb(99, 110, 250); fill-opacity: 0.5; stroke-width: 0;"/></g></g><g class="errorbars"/><g class="lines"><path class="js-line" d="M0,320L1.36,320L2.72,287.2L4.08,239.76L5.44,246.69L6.8,248.65L8.16,239.23L9.52,241.34L10.88,233.99L12.24,231.3L13.6,248.46L17.68,246.66L19.04,248.57L21.76,269.99L23.12,269.72L24.48,264.54L25.84,263.74L27.2,241.57L28.56,241.87L29.92,240.54L31.28,244.8L34.01,254.23L35.37,252.01L36.73,250.76L38.09,251.38L39.45,251.31L40.81,250.35L42.17,250.15L43.53,247.29L44.89,240.92L46.25,230.12L47.61,236.51L48.97,238.57L50.33,255.07L51.69,245.16L54.41,232.72L55.77,247.13L57.13,247.87L58.49,261.77L59.85,251.87L61.21,251.58L62.57,252.13L63.93,258.59L66.65,258.09L68.01,257.9L69.37,258.03L70.73,254.18L72.09,248.13L73.45,247.74L76.17,248.37L77.53,246.57L80.25,246.78L81.61,245.5L82.97,245.79L84.33,245.27L85.69,242.92L87.05,242.71L88.41,245.48L89.77,244.5L91.13,246.25L92.49,246.09L93.85,245.49L95.21,243.62L96.57,241.21L97.93,242.26L102.02,242.07L103.38,240.77L104.74,241.76L106.1,243.82L108.82,235.47L110.18,234.74L111.54,233.13L112.9,227.94L114.26,251.15L115.62,247.47L116.98,250.38L118.34,265.99L119.7,269.01L121.06,266.71L123.78,261.93L125.14,260.55L126.5,251.64L127.86,253.48L130.58,251.58L131.94,236.74L133.3,244.61L134.66,240.97L136.02,231.4L137.38,238.12L138.74,237.79L140.1,234.15L141.46,234.35L142.82,220.77L144.18,234.61L145.54,236.06L146.9,235.46L148.26,229.73L149.62,228.91L150.98,229.47L152.34,211.32L153.7,213.28L156.42,219.42L157.78,213.69L159.14,218.05L160.5,217.77L161.86,220.2L163.22,213.41L164.58,207.48L165.94,190.08L167.3,184.75L168.66,189.41L170.03,189.18L171.39,179.79L172.75,179.35L174.11,190.57L175.47,181.02L176.83,183.95L178.19,186.43L179.55,177.78L182.27,189.93L183.63,183.43L184.99,170.13L186.35,185.99L187.71,158.78L189.07,174.85L191.79,233.1L193.15,290.86L194.51,277.78L195.87,272.95L197.23,274.1L198.59,273.59L201.31,251.27L202.67,169.29L205.39,184.36L206.75,168.09L208.11,152.15L209.47,177.75L210.83,177.29L212.19,189.12L214.91,187.54L216.27,178.63L217.63,178.17L218.99,175.48L220.35,178.92L221.71,185.12L223.07,187.77L224.43,206.69L225.79,249.61L227.15,244.14L228.51,244L229.87,238.36L232.59,172.26L233.95,168.28L235.31,147.93L236.68,159.44L238.04,150.97L239.4,118.97L240.76,151.93L242.12,140.86L243.48,136.02L244.84,124.65L246.2,85.43L247.56,87.04L248.92,88.21L250.28,94.14L251.64,91.54L253,93.74L254.36,96.15L255.72,125.45L257.08,122.83L258.44,118.19L259.8,127.02L261.16,86.82L262.52,41.63L263.88,42.34L265.24,42.81L266.6,54.32L267.96,31.81L269.32,33.85L270.68,16L272.04,65.08L274.76,51.79L276.12,56.2L277.48,61.72L278.84,70.77L280.2,54.75L281.56,60.62L282.92,87.21L284.28,91.35L285.64,99.02L287,92.02L288.36,65.36L289.72,68.25L291.08,56.07L292.44,52.64L293.8,37.96L295.16,41.38L297.88,162.21L299.24,158.37L300.6,159.02L301.96,141.62L303.32,139.73L304.69,144.87L306.05,144.92L307.41,194.77L310.13,162.94L311.49,185.07L312.85,189L314.21,188.65L315.57,190.05L316.93,197.85L318.29,194.39L319.65,197.8L321.01,213.95L322.37,202.38L323.73,202.81L325.09,205.17L326.45,192.74L327.81,197.06L329.17,196.61L330.53,197.13L331.89,196.94L333.25,188.72L334.61,194.17L335.97,195.88L337.33,232.74L338.69,216.66L340.05,208.24L341.41,205.02L342.77,200.91L344.13,200.58L345.49,205.45L346.85,214.65L348.21,222.8L349.57,222.9L350.93,222.94L352.29,220.76L355.01,214.08L356.37,216.21L359.09,196.39L360.45,205.69L363.17,228.55L364.53,216.76L367.25,194.98L368.61,189.47L369.97,188.5L371.34,177.83L372.7,177.96L374.06,174.16L376.78,180.09L378.14,186.19L379.5,176.82L380.86,189.94L383.58,195.78L384.94,193.46L386.3,194.23L387.66,207.01L389.02,209.12L390.38,190.83L391.74,191.47L393.1,197.49L394.46,202.83L395.82,194.97L397.18,194.84L398.54,198.09L401.26,182.51L402.62,184.11L403.98,174.18L405.34,176.81L406.7,177.56L408.06,186L410.78,189.99L412.14,208.91L413.5,210.64L414.86,195.02L416.22,196.38L417.58,193.03L418.94,180.97L420.3,180.26L421.66,175.74L423.02,180.4L424.38,184.92L425.74,175.42L427.1,175.27L428.46,178.11L429.82,179.78L431.18,206.82L433.9,207.89L435.26,205.46L437.98,206.72L439.35,217.28L440.71,216.45L442.07,219.77L443.43,219.39L444.79,221.17L447.51,221.26L448.87,220.1L450.23,220.96L451.59,225.02L452.95,224.15L454.31,224.18L455.67,228.16L457.03,227.61L458.39,217.7L459.75,218.64L461.11,225.72L462.47,228.44L466.55,262.68L467.91,295.66L469.27,300.89L470.63,300.68L473.35,298.36L474.71,299.75L477.43,303.24L478.79,299.16L482.87,298.04L484.23,298.45L485.59,299.08L486.95,300.63L488.31,292.2L489.67,292.14L491.03,294.44L492.39,293.33L493.75,300.26L495.11,303.22L496.47,303.67L497.83,305.07L499.19,297.07L500.55,297.05L507.36,298.54L508.72,298.44L511.44,298.41L512.8,310.66L514.16,318.89L515.52,318.77L516.88,319.12L518.24,304.71L519.6,304.74L520.96,311.4L522.32,312.6L523.68,312.64L526.4,310.77L527.76,312.03L535.92,312.72L537.28,314.7L540,314.61" style="vector-effect: none; fill: none; stroke: rgb(99, 110, 250); stroke-opacity: 1; stroke-width: 2px; opacity: 1;"/></g><g class="points"/><g class="text"/></g></g></g><g class="overplot"/><path class="xlines-above crisp" d="M0,0" style="fill: none;"/><path class="ylines-above crisp" d="M0,0" style="fill: none;"/><g class="overlines-above"/><g class="xaxislayer-above"><g class="xtick"><text text-anchor="middle" x="0" y="433" transform="translate(89.52,0)" style="font-family: 'Open Sans', verdana, arial, sans-serif; font-size: 12px; fill: rgb(42, 63, 95); fill-opacity: 1; white-space: pre; opacity: 1;">Nov 2022</text></g><g class="xtick"><text text-anchor="middle" x="0" y="433" style="font-family: 'Open Sans', verdana, arial, sans-serif; font-size: 12px; fill: rgb(42, 63, 95); fill-opacity: 1; white-space: pre; opacity: 1;" transform="translate(172.49,0)">Jan 2023</text></g><g class="xtick"><text text-anchor="middle" x="0" y="433" style="font-family: 'Open Sans', verdana, arial, sans-serif; font-size: 12px; fill: rgb(42, 63, 95); fill-opacity: 1; white-space: pre; opacity: 1;" transform="translate(252.75,0)">Mar 2023</text></g><g class="xtick"><text text-anchor="middle" x="0" y="433" style="font-family: 'Open Sans', verdana, arial, sans-serif; font-size: 12px; fill: rgb(42, 63, 95); fill-opacity: 1; white-space: pre; opacity: 1;" transform="translate(335.72,0)">May 2023</text></g><g class="xtick"><text text-anchor="middle" x="0" y="433" style="font-family: 'Open Sans', verdana, arial, sans-serif; font-size: 12px; fill: rgb(42, 63, 95); fill-opacity: 1; white-space: pre; opacity: 1;" transform="translate(418.69,0)">Jul 2023</text></g><g class="xtick"><text text-anchor="middle" x="0" y="433" style="font-family: 'Open Sans', verdana, arial, sans-serif; font-size: 12px; fill: rgb(42, 63, 95); fill-opacity: 1; white-space: pre; opacity: 1;" transform="translate(503.02,0)">Sep 2023</text></g><g class="xtick"><text text-anchor="middle" x="0" y="433" style="font-family: 'Open Sans', verdana, arial, sans-serif; font-size: 12px; fill: rgb(42, 63, 95); fill-opacity: 1; white-space: pre; opacity: 1;" transform="translate(585.99,0)">Nov 2023</text></g></g><g class="yaxislayer-above"><g class="ytick"><text text-anchor="end" x="79" y="4.199999999999999" transform="translate(0,420)" style="font-family: 'Open Sans', verdana, arial, sans-serif; font-size: 12px; fill: rgb(42, 63, 95); fill-opacity: 1; white-space: pre; opacity: 1;">$0</text></g><g class="ytick"><text text-anchor="end" x="79" y="4.199999999999999" style="font-family: 'Open Sans', verdana, arial, sans-serif; font-size: 12px; fill: rgb(42, 63, 95); fill-opacity: 1; white-space: pre; opacity: 1;" transform="translate(0,369.43)">$0.5M</text></g><g class="ytick"><text text-anchor="end" x="79" y="4.199999999999999" style="font-family: 'Open Sans', verdana, arial, sans-serif; font-size: 12px; fill: rgb(42, 63, 95); fill-opacity: 1; white-space: pre; opacity: 1;" transform="translate(0,318.85)">$1M</text></g><g class="ytick"><text text-anchor="end" x="79" y="4.199999999999999" style="font-family: 'Open Sans', verdana, arial, sans-serif; font-size: 12px; fill: rgb(42, 63, 95); fill-opacity: 1; white-space: pre; opacity: 1;" transform="translate(0,268.28)">$1.5M</text></g><g class="ytick"><text text-anchor="end" x="79" y="4.199999999999999" style="font-family: 'Open Sans', verdana, arial, sans-serif; font-size: 12px; fill: rgb(42, 63, 95); fill-opacity: 1; white-space: pre; opacity: 1;" transform="translate(0,217.7)">$2M</text></g><g class="ytick"><text text-anchor="end" x="79" y="4.199999999999999" style="font-family: 'Open Sans', verdana, arial, sans-serif; font-size: 12px; fill: rgb(42, 63, 95); fill-opacity: 1; white-space: pre; opacity: 1;" transform="translate(0,167.13)">$2.5M</text></g><g class="ytick"><text text-anchor="end" x="79" y="4.199999999999999" style="font-family: 'Open Sans', verdana, arial, sans-serif; font-size: 12px; fill: rgb(42, 63, 95); fill-opacity: 1; white-space: pre; opacity: 1;" transform="translate(0,116.55)">$3M</text></g></g><g class="overaxes-above"/></g></g><g class="polarlayer"/><g class="smithlayer"/><g class="ternarylayer"/><g class="geolayer"/><g class="funnelarealayer"/><g class="pielayer"/><g class="iciclelayer"/><g class="treemaplayer"/><g class="sunburstlayer"/><g class="glimages"/><defs id="topdefs-b85532"><g class="clips"/></defs><g class="layer-above"><g class="imagelayer"/><g class="shapelayer"/></g><g class="infolayer"><g class="g-gtitle"><text class="gtitle" x="35" y="50" text-anchor="start" dy="0em" style="font-family: 'Open Sans', verdana, arial, sans-serif; font-size: 17px; fill: rgb(42, 63, 95); opacity: 1; font-weight: normal; white-space: pre;"><tspan class="line" dy="0em" x="35" y="50">Synthetix - All Synthetix Hop Pools</tspan><tspan class="line" dy="1.3em" x="35" y="50">​<tspan style="font-size:70%" dy="-0.6em">Cumulative Net Flows since Program Announcement, Until Program End + 30 Days - At Last Price</tspan><tspan dy="0.42em">​</tspan></tspan></text></g><g class="g-xtitle"><text class="xtitle" x="350" y="460.3" text-anchor="middle" style="font-family: 'Open Sans', verdana, arial, sans-serif; font-size: 14px; fill: rgb(42, 63, 95); opacity: 1; font-weight: normal; white-space: pre;">Day</text></g><g class="g-ytitle"><text class="ytitle" transform="rotate(-90,21.340625000000003,260)" x="21.340625000000003" y="260" text-anchor="middle" style="font-family: 'Open Sans', verdana, arial, sans-serif; font-size: 14px; fill: rgb(42, 63, 95); opacity: 1; font-weight: normal; white-space: pre;">Cumulative Net Flows (USD)</text></g></g></svg>