<svg class="main-svg" xmlns="http://www.w3.org/2000/svg" xmlns:xlink="http://www.w3.org/1999/xlink" width="700" height="500" style="" viewBox="0 0 700 500"><rect x="0" y="0" width="700" height="500" style="fill: rgb(255, 255, 255); fill-opacity: 1;"/><defs id="defs-557834"><g class="clips"><clipPath id="clip557834xyplot" class="plotclip"><rect width="540" height="320"/></clipPath><clipPath class="axesclip" id="clip557834x"><rect x="80" y="0" width="540" height="500"/></clipPath><clipPath class="axesclip" id="clip557834y"><rect x="0" y="100" width="700" height="320"/></clipPath><clipPath class="axesclip" id="clip557834xy"><rect x="80" y="100" width="540" height="320"/></clipPath></g><g class="gradients"/><g class="patterns"/></defs><g class="bglayer"><rect class="bg" x="80" y="100" width="540" height="320" style="fill: rgb(229, 236, 246); fill-opacity: 1; stroke-width: 0;"/></g><g class="layer-below"><g class="imagelayer"/><g class="shapelayer"/></g><g class="cartesianlayer"><g class="subplot xy"><g class="layer-subplot"><g class="shapelayer"/><g class="imagelayer"/></g><g class="minor-gridlayer"><g class="x"/><g class="y"/></g><g class="gridlayer"><g class="x"><path class="xgrid crisp" transform="translate(89.95,0)" d="M0,100v320" style="stroke: rgb(255, 255, 255); stroke-opacity: 1; stroke-width: 1px;"/><path class="xgrid crisp" transform="translate(176.63,0)" d="M0,100v320" style="stroke: rgb(255, 255, 255); stroke-opacity: 1; stroke-width: 1px;"/><path class="xgrid crisp" transform="translate(263.32,0)" d="M0,100v320" style="stroke: rgb(255, 255, 255); stroke-opacity: 1; stroke-width: 1px;"/><path class="xgrid crisp" transform="translate(347.16,0)" d="M0,100v320" style="stroke: rgb(255, 255, 255); stroke-opacity: 1; stroke-width: 1px;"/><path class="xgrid crisp" transform="translate(433.84,0)" d="M0,100v320" style="stroke: rgb(255, 255, 255); stroke-opacity: 1; stroke-width: 1px;"/><path class="xgrid crisp" transform="translate(520.53,0)" d="M0,100v320" style="stroke: rgb(255, 255, 255); stroke-opacity: 1; stroke-width: 1px;"/><path class="xgrid crisp" transform="translate(608.63,0)" d="M0,100v320" style="stroke: rgb(255, 255, 255); stroke-opacity: 1; stroke-width: 1px;"/></g><g class="y"><path class="ygrid crisp" transform="translate(0,377.9)" d="M80,0h540" style="stroke: rgb(255, 255, 255); stroke-opacity: 1; stroke-width: 1px;"/><path class="ygrid crisp" transform="translate(0,335.8)" d="M80,0h540" style="stroke: rgb(255, 255, 255); stroke-opacity: 1; stroke-width: 1px;"/><path class="ygrid crisp" transform="translate(0,293.7)" d="M80,0h540" style="stroke: rgb(255, 255, 255); stroke-opacity: 1; stroke-width: 1px;"/><path class="ygrid crisp" transform="translate(0,251.6)" d="M80,0h540" style="stroke: rgb(255, 255, 255); stroke-opacity: 1; stroke-width: 1px;"/><path class="ygrid crisp" transform="translate(0,209.5)" d="M80,0h540" style="stroke: rgb(255, 255, 255); stroke-opacity: 1; stroke-width: 1px;"/><path class="ygrid crisp" transform="translate(0,167.4)" d="M80,0h540" style="stroke: rgb(255, 255, 255); stroke-opacity: 1; stroke-width: 1px;"/><path class="ygrid crisp" transform="translate(0,125.3)" d="M80,0h540" style="stroke: rgb(255, 255, 255); stroke-opacity: 1; stroke-width: 1px;"/></g></g><g class="zerolinelayer"><path class="yzl zl crisp" transform="translate(0,420)" d="M80,0h540" style="stroke: rgb(255, 255, 255); stroke-opacity: 1; stroke-width: 2px;"/></g><path class="xlines-below"/><path class="ylines-below"/><g class="overlines-below"/><g class="xaxislayer-below"/><g class="yaxislayer-below"/><g class="overaxes-below"/><g class="plot" transform="translate(80,100)" clip-path="url(#clip557834xyplot)"><g class="scatterlayer mlayer"><g class="trace scatter trace4be2cc" style="stroke-miterlimit: 2;"><g class="fills"><g><path class="js-fill" d="M540,320L0,320L0,230.06L1.42,212.33L2.84,207.62L7.11,200.39L8.53,188.19L9.95,185.6L11.37,188.42L14.21,180.8L15.63,179.91L17.05,180.18L18.47,177.11L21.32,160.59L22.74,155.14L25.58,149.93L27,150.78L28.42,153.17L29.84,157.06L31.26,152.83L32.68,145.7L35.53,150.11L36.95,153.1L39.79,154.99L41.21,158.88L44.05,160.12L45.47,159.79L46.89,161.64L48.32,149.06L49.74,151.79L51.16,163.68L54,163.94L55.42,164.57L56.84,165.6L58.26,168.52L59.68,172.11L61.11,169.19L62.53,173.56L63.95,175L66.79,178.27L68.21,177.39L71.05,178.36L72.47,169.95L75.32,169.77L76.74,170.99L78.16,171.8L79.58,171.45L83.84,171L85.26,170.71L86.68,168.92L88.11,168.76L89.53,168.63L90.95,176.02L92.37,175.02L93.79,169.79L95.21,170.21L96.63,165.79L99.47,160.86L100.89,143.37L102.32,141.89L103.74,142.3L106.58,141.43L108,162.23L110.84,172.4L112.26,168.81L113.68,173.07L115.11,168.77L117.95,168.17L119.37,172.06L120.79,175.63L122.21,174.78L123.63,174.87L125.05,177.41L126.47,179.64L127.89,178.98L129.32,174.68L130.74,175.14L135,174.91L136.42,175.25L137.84,174.11L139.26,176.5L140.68,175.46L142.11,172.85L143.53,171.3L144.95,171L146.37,168.61L147.79,162.84L149.21,157.63L150.63,158.58L152.05,157.46L153.47,157.95L154.89,157.24L156.32,151.35L157.74,151.55L159.16,140.92L160.58,150.58L162,152.97L164.84,153.51L166.26,154.96L167.68,159.66L169.11,158.82L170.53,159.34L171.95,158.83L174.79,159L176.21,158.71L177.63,162.51L179.05,162.65L180.47,161.18L181.89,155.17L183.32,161.22L184.74,163.04L186.16,162.96L187.58,164.95L189,164.93L190.42,162.78L191.84,159.28L193.26,159.39L196.11,149.1L197.53,139.57L198.95,138.14L200.37,140.74L201.79,138.09L203.21,131.58L206.05,131.03L207.47,129.77L208.89,130.38L210.32,127.59L213.16,119.08L214.58,117.94L216,116.08L217.42,105.65L220.26,71.76L221.68,72.55L223.11,56.45L224.53,55.66L225.95,44.43L227.37,43.28L228.79,37.87L230.21,16L233.05,23L234.47,22.65L235.89,23.54L237.32,26.84L238.74,50.45L240.16,49.16L241.58,48.95L243,37.93L244.42,39.05L245.84,37.77L247.26,38.36L248.68,36.06L250.11,36.96L251.53,41.92L252.95,41.68L254.37,42.67L255.79,54.5L257.21,55.16L258.63,55.58L260.05,55.15L261.47,53.92L262.89,51.64L265.74,51.6L267.16,44.78L268.58,44.52L270,46.18L271.42,32.98L272.84,32.39L274.26,30.84L275.68,31.26L277.11,30.57L278.53,32.26L279.95,35.39L281.37,40.8L282.79,128.72L284.21,127.55L287.05,90.6L288.47,88.12L289.89,77.72L291.32,81.77L292.74,90.99L294.16,91.79L295.58,91.7L297,89.42L299.84,55.72L301.26,56.15L305.53,112.82L306.95,160.65L308.37,176.3L309.79,180.69L311.21,188.8L312.63,192.12L314.05,197.76L315.47,200.23L316.89,203.94L318.32,204.99L319.74,206.58L321.16,210.35L326.84,215.11L328.26,215.21L329.68,237.57L331.11,238.9L333.95,241.04L335.37,241.53L338.21,243.27L339.63,243.27L341.05,242.24L342.47,242.67L343.89,242.94L345.32,245.15L346.74,246.88L348.16,250.25L359.53,252.09L360.95,252.82L362.37,272.93L363.79,273.64L366.63,274.12L368.05,274.6L369.47,275.9L370.89,255.96L378,256.42L379.42,258.84L386.53,259.44L387.95,261.86L407.84,263.33L409.26,268.1L417.79,269.55L419.21,270.18L426.32,270.19L427.74,274.08L429.16,274.23L430.58,275.16L443.37,276.61L444.79,277.2L446.21,278.55L447.63,278.54L456.16,278.76L457.58,279.62L461.84,279.96L463.26,280.98L464.68,293.59L466.11,293.62L481.74,293.76L483.16,318.22L484.58,318.3L486,294.36L488.84,294.39L490.26,318.26L493.11,317.89L494.53,297.89L495.95,297.95L497.37,294.25L498.79,308.87L500.21,308.88L508.74,308.91L510.16,313.07L540,313.59" style="fill: rgb(99, 110, 250); fill-opacity: 0.5; stroke-width: 0;"/></g></g><g class="errorbars"/><g class="lines"><path class="js-line" d="M0,230.06L1.42,212.33L2.84,207.62L7.11,200.39L8.53,188.19L9.95,185.6L11.37,188.42L14.21,180.8L15.63,179.91L17.05,180.18L18.47,177.11L21.32,160.59L22.74,155.14L25.58,149.93L27,150.78L28.42,153.17L29.84,157.06L31.26,152.83L32.68,145.7L35.53,150.11L36.95,153.1L39.79,154.99L41.21,158.88L44.05,160.12L45.47,159.79L46.89,161.64L48.32,149.06L49.74,151.79L51.16,163.68L54,163.94L55.42,164.57L56.84,165.6L58.26,168.52L59.68,172.11L61.11,169.19L62.53,173.56L63.95,175L66.79,178.27L68.21,177.39L71.05,178.36L72.47,169.95L75.32,169.77L76.74,170.99L78.16,171.8L79.58,171.45L83.84,171L85.26,170.71L86.68,168.92L88.11,168.76L89.53,168.63L90.95,176.02L92.37,175.02L93.79,169.79L95.21,170.21L96.63,165.79L99.47,160.86L100.89,143.37L102.32,141.89L103.74,142.3L106.58,141.43L108,162.23L110.84,172.4L112.26,168.81L113.68,173.07L115.11,168.77L117.95,168.17L119.37,172.06L120.79,175.63L122.21,174.78L123.63,174.87L125.05,177.41L126.47,179.64L127.89,178.98L129.32,174.68L130.74,175.14L135,174.91L136.42,175.25L137.84,174.11L139.26,176.5L140.68,175.46L142.11,172.85L143.53,171.3L144.95,171L146.37,168.61L147.79,162.84L149.21,157.63L150.63,158.58L152.05,157.46L153.47,157.95L154.89,157.24L156.32,151.35L157.74,151.55L159.16,140.92L160.58,150.58L162,152.97L164.84,153.51L166.26,154.96L167.68,159.66L169.11,158.82L170.53,159.34L171.95,158.83L174.79,159L176.21,158.71L177.63,162.51L179.05,162.65L180.47,161.18L181.89,155.17L183.32,161.22L184.74,163.04L186.16,162.96L187.58,164.95L189,164.93L190.42,162.78L191.84,159.28L193.26,159.39L196.11,149.1L197.53,139.57L198.95,138.14L200.37,140.74L201.79,138.09L203.21,131.58L206.05,131.03L207.47,129.77L208.89,130.38L210.32,127.59L213.16,119.08L214.58,117.94L216,116.08L217.42,105.65L220.26,71.76L221.68,72.55L223.11,56.45L224.53,55.66L225.95,44.43L227.37,43.28L228.79,37.87L230.21,16L233.05,23L234.47,22.65L235.89,23.54L237.32,26.84L238.74,50.45L240.16,49.16L241.58,48.95L243,37.93L244.42,39.05L245.84,37.77L247.26,38.36L248.68,36.06L250.11,36.96L251.53,41.92L252.95,41.68L254.37,42.67L255.79,54.5L257.21,55.16L258.63,55.58L260.05,55.15L261.47,53.92L262.89,51.64L265.74,51.6L267.16,44.78L268.58,44.52L270,46.18L271.42,32.98L272.84,32.39L274.26,30.84L275.68,31.26L277.11,30.57L278.53,32.26L279.95,35.39L281.37,40.8L282.79,128.72L284.21,127.55L287.05,90.6L288.47,88.12L289.89,77.72L291.32,81.77L292.74,90.99L294.16,91.79L295.58,91.7L297,89.42L299.84,55.72L301.26,56.15L305.53,112.82L306.95,160.65L308.37,176.3L309.79,180.69L311.21,188.8L312.63,192.12L314.05,197.76L315.47,200.23L316.89,203.94L318.32,204.99L319.74,206.58L321.16,210.35L326.84,215.11L328.26,215.21L329.68,237.57L331.11,238.9L333.95,241.04L335.37,241.53L338.21,243.27L339.63,243.27L341.05,242.24L342.47,242.67L343.89,242.94L345.32,245.15L346.74,246.88L348.16,250.25L359.53,252.09L360.95,252.82L362.37,272.93L363.79,273.64L366.63,274.12L368.05,274.6L369.47,275.9L370.89,255.96L378,256.42L379.42,258.84L386.53,259.44L387.95,261.86L407.84,263.33L409.26,268.1L417.79,269.55L419.21,270.18L426.32,270.19L427.74,274.08L429.16,274.23L430.58,275.16L443.37,276.61L444.79,277.2L446.21,278.55L447.63,278.54L456.16,278.76L457.58,279.62L461.84,279.96L463.26,280.98L464.68,293.59L466.11,293.62L481.74,293.76L483.16,318.22L484.58,318.3L486,294.36L488.84,294.39L490.26,318.26L493.11,317.89L494.53,297.89L495.95,297.95L497.37,294.25L498.79,308.87L500.21,308.88L508.74,308.91L510.16,313.07L540,313.59" style="vector-effect: none; fill: none; stroke: rgb(99, 110, 250); stroke-opacity: 1; stroke-width: 2px; opacity: 1;"/></g><g class="points"/><g class="text"/></g></g></g><g class="overplot"/><path class="xlines-above crisp" d="M0,0" style="fill: none;"/><path class="ylines-above crisp" d="M0,0" style="fill: none;"/><g class="overlines-above"/><g class="xaxislayer-above"><g class="xtick"><text text-anchor="middle" x="0" y="433" transform="translate(89.95,0)" style="font-family: 'Open Sans', verdana, arial, sans-serif; font-size: 12px; fill: rgb(42, 63, 95); fill-opacity: 1; white-space: pre; opacity: 1;">Sep 2022</text></g><g class="xtick"><text text-anchor="middle" x="0" y="433" style="font-family: 'Open Sans', verdana, arial, sans-serif; font-size: 12px; fill: rgb(42, 63, 95); fill-opacity: 1; white-space: pre; opacity: 1;" transform="translate(176.63,0)">Nov 2022</text></g><g class="xtick"><text text-anchor="middle" x="0" y="433" style="font-family: 'Open Sans', verdana, arial, sans-serif; font-size: 12px; fill: rgb(42, 63, 95); fill-opacity: 1; white-space: pre; opacity: 1;" transform="translate(263.32,0)">Jan 2023</text></g><g class="xtick"><text text-anchor="middle" x="0" y="433" style="font-family: 'Open Sans', verdana, arial, sans-serif; font-size: 12px; fill: rgb(42, 63, 95); fill-opacity: 1; white-space: pre; opacity: 1;" transform="translate(347.16,0)">Mar 2023</text></g><g class="xtick"><text text-anchor="middle" x="0" y="433" style="font-family: 'Open Sans', verdana, arial, sans-serif; font-size: 12px; fill: rgb(42, 63, 95); fill-opacity: 1; white-space: pre; opacity: 1;" transform="translate(433.84,0)">May 2023</text></g><g class="xtick"><text text-anchor="middle" x="0" y="433" style="font-family: 'Open Sans', verdana, arial, sans-serif; font-size: 12px; fill: rgb(42, 63, 95); fill-opacity: 1; white-space: pre; opacity: 1;" transform="translate(520.53,0)">Jul 2023</text></g><g class="xtick"><text text-anchor="middle" x="0" y="433" style="font-family: 'Open Sans', verdana, arial, sans-serif; font-size: 12px; fill: rgb(42, 63, 95); fill-opacity: 1; white-space: pre; opacity: 1;" transform="translate(608.63,0)">Sep 2023</text></g></g><g class="yaxislayer-above"><g class="ytick"><text text-anchor="end" x="79" y="4.199999999999999" transform="translate(0,420)" style="font-family: 'Open Sans', verdana, arial, sans-serif; font-size: 12px; fill: rgb(42, 63, 95); fill-opacity: 1; white-space: pre; opacity: 1;">$0</text></g><g class="ytick"><text text-anchor="end" x="79" y="4.199999999999999" style="font-family: 'Open Sans', verdana, arial, sans-serif; font-size: 12px; fill: rgb(42, 63, 95); fill-opacity: 1; white-space: pre; opacity: 1;" transform="translate(0,377.9)">$10M</text></g><g class="ytick"><text text-anchor="end" x="79" y="4.199999999999999" style="font-family: 'Open Sans', verdana, arial, sans-serif; font-size: 12px; fill: rgb(42, 63, 95); fill-opacity: 1; white-space: pre; opacity: 1;" transform="translate(0,335.8)">$20M</text></g><g class="ytick"><text text-anchor="end" x="79" y="4.199999999999999" style="font-family: 'Open Sans', verdana, arial, sans-serif; font-size: 12px; fill: rgb(42, 63, 95); fill-opacity: 1; white-space: pre; opacity: 1;" transform="translate(0,293.7)">$30M</text></g><g class="ytick"><text text-anchor="end" x="79" y="4.199999999999999" style="font-family: 'Open Sans', verdana, arial, sans-serif; font-size: 12px; fill: rgb(42, 63, 95); fill-opacity: 1; white-space: pre; opacity: 1;" transform="translate(0,251.6)">$40M</text></g><g class="ytick"><text text-anchor="end" x="79" y="4.199999999999999" style="font-family: 'Open Sans', verdana, arial, sans-serif; font-size: 12px; fill: rgb(42, 63, 95); fill-opacity: 1; white-space: pre; opacity: 1;" transform="translate(0,209.5)">$50M</text></g><g class="ytick"><text text-anchor="end" x="79" y="4.199999999999999" style="font-family: 'Open Sans', verdana, arial, sans-serif; font-size: 12px; fill: rgb(42, 63, 95); fill-opacity: 1; white-space: pre; opacity: 1;" transform="translate(0,167.4)">$60M</text></g><g class="ytick"><text text-anchor="end" x="79" y="4.199999999999999" style="font-family: 'Open Sans', verdana, arial, sans-serif; font-size: 12px; fill: rgb(42, 63, 95); fill-opacity: 1; white-space: pre; opacity: 1;" transform="translate(0,125.3)">$70M</text></g></g><g class="overaxes-above"/></g></g><g class="polarlayer"/><g class="smithlayer"/><g class="ternarylayer"/><g class="geolayer"/><g class="funnelarealayer"/><g class="pielayer"/><g class="iciclelayer"/><g class="treemaplayer"/><g class="sunburstlayer"/><g class="glimages"/><defs id="topdefs-557834"><g class="clips"/></defs><g class="layer-above"><g class="imagelayer"/><g class="shapelayer"/></g><g class="infolayer"><g class="g-gtitle"><text class="gtitle" x="35" y="50" text-anchor="start" dy="0em" style="font-family: 'Open Sans', verdana, arial, sans-serif; font-size: 17px; fill: rgb(42, 63, 95); opacity: 1; font-weight: normal; white-space: pre;"><tspan class="line" dy="0em" x="35" y="50">Synthetix - All Synthetix Curve Pools</tspan><tspan class="line" dy="1.3em" x="35" y="50">​<tspan style="font-size:70%" dy="-0.6em">Cumulative Net Flows since Program Announcement, Until Program End + 30 Days - At Last Price</tspan><tspan dy="0.42em">​</tspan></tspan></text></g><g class="g-xtitle"><text class="xtitle" x="350" y="460.3" text-anchor="middle" style="font-family: 'Open Sans', verdana, arial, sans-serif; font-size: 14px; fill: rgb(42, 63, 95); opacity: 1; font-weight: normal; white-space: pre;">Day</text></g><g class="g-ytitle"><text class="ytitle" transform="rotate(-90,24.668750000000003,260)" x="24.668750000000003" y="260" text-anchor="middle" style="font-family: 'Open Sans', verdana, arial, sans-serif; font-size: 14px; fill: rgb(42, 63, 95); opacity: 1; font-weight: normal; white-space: pre;">Cumulative Net Flows (USD)</text></g></g></svg>