<svg class="main-svg" xmlns="http://www.w3.org/2000/svg" xmlns:xlink="http://www.w3.org/1999/xlink" width="700" height="500" style="" viewBox="0 0 700 500"><rect x="0" y="0" width="700" height="500" style="fill: rgb(255, 255, 255); fill-opacity: 1;"/><defs id="defs-037c24"><g class="clips"><clipPath id="clip037c24xyplot" class="plotclip"><rect width="540" height="320"/></clipPath><clipPath class="axesclip" id="clip037c24x"><rect x="80" y="0" width="540" height="500"/></clipPath><clipPath class="axesclip" id="clip037c24y"><rect x="0" y="100" width="700" height="320"/></clipPath><clipPath class="axesclip" id="clip037c24xy"><rect x="80" y="100" width="540" height="320"/></clipPath></g><g class="gradients"/><g class="patterns"/></defs><g class="bglayer"><rect class="bg" x="80" y="100" width="540" height="320" style="fill: rgb(229, 236, 246); fill-opacity: 1; stroke-width: 0;"/></g><g class="layer-below"><g class="imagelayer"/><g class="shapelayer"/></g><g class="cartesianlayer"><g class="subplot xy"><g class="layer-subplot"><g class="shapelayer"/><g class="imagelayer"/></g><g class="minor-gridlayer"><g class="x"/><g class="y"/></g><g class="gridlayer"><g class="x"><path class="xgrid crisp" transform="translate(90.38,0)" d="M0,100v320" style="stroke: rgb(255, 255, 255); stroke-opacity: 1; stroke-width: 1px;"/><path class="xgrid crisp" transform="translate(170.87,0)" d="M0,100v320" style="stroke: rgb(255, 255, 255); stroke-opacity: 1; stroke-width: 1px;"/><path class="xgrid crisp" transform="translate(248.75,0)" d="M0,100v320" style="stroke: rgb(255, 255, 255); stroke-opacity: 1; stroke-width: 1px;"/><path class="xgrid crisp" transform="translate(329.23,0)" d="M0,100v320" style="stroke: rgb(255, 255, 255); stroke-opacity: 1; stroke-width: 1px;"/><path class="xgrid crisp" transform="translate(409.71,0)" d="M0,100v320" style="stroke: rgb(255, 255, 255); stroke-opacity: 1; stroke-width: 1px;"/><path class="xgrid crisp" transform="translate(482.4,0)" d="M0,100v320" style="stroke: rgb(255, 255, 255); stroke-opacity: 1; stroke-width: 1px;"/><path class="xgrid crisp" transform="translate(562.88,0)" d="M0,100v320" style="stroke: rgb(255, 255, 255); stroke-opacity: 1; stroke-width: 1px;"/></g><g class="y"><path class="ygrid crisp" transform="translate(0,348.72)" d="M80,0h540" style="stroke: rgb(255, 255, 255); stroke-opacity: 1; stroke-width: 1px;"/><path class="ygrid crisp" transform="translate(0,301.12)" d="M80,0h540" style="stroke: rgb(255, 255, 255); stroke-opacity: 1; stroke-width: 1px;"/><path class="ygrid crisp" transform="translate(0,253.52)" d="M80,0h540" style="stroke: rgb(255, 255, 255); stroke-opacity: 1; stroke-width: 1px;"/><path class="ygrid crisp" transform="translate(0,205.92000000000002)" d="M80,0h540" style="stroke: rgb(255, 255, 255); stroke-opacity: 1; stroke-width: 1px;"/><path class="ygrid crisp" transform="translate(0,158.32)" d="M80,0h540" style="stroke: rgb(255, 255, 255); stroke-opacity: 1; stroke-width: 1px;"/><path class="ygrid crisp" transform="translate(0,110.71000000000001)" d="M80,0h540" style="stroke: rgb(255, 255, 255); stroke-opacity: 1; stroke-width: 1px;"/></g></g><g class="zerolinelayer"><path class="yzl zl crisp" transform="translate(0,396.32)" d="M80,0h540" style="stroke: rgb(255, 255, 255); stroke-opacity: 1; stroke-width: 2px;"/></g><path class="xlines-below"/><path class="ylines-below"/><g class="overlines-below"/><g class="xaxislayer-below"/><g class="yaxislayer-below"/><g class="overaxes-below"/><g class="plot" transform="translate(80,100)" clip-path="url(#clip037c24xyplot)"><g class="scatterlayer mlayer"><g class="trace scatter trace03d1c8" style="stroke-miterlimit: 2;"><g class="fills"><g><path class="js-fill" d="M540,296.32L0,296.32L0,301.94L5.19,301.29L7.79,301.03L10.38,300.34L12.98,300.51L15.58,300.44L18.17,299.07L20.77,294.17L23.37,294.35L25.96,298.81L28.56,294.06L33.75,294.73L36.35,294.76L38.94,294.89L41.54,292.36L44.13,286.41L46.73,285.53L49.33,285.53L51.92,287.08L54.52,277.43L57.12,277.31L59.71,277.19L62.31,279.72L64.9,280.04L67.5,278.21L72.69,279.85L75.29,285.58L77.88,282.26L80.48,277.12L83.08,275.82L85.67,276.36L90.87,275.03L93.46,275.55L103.85,275.35L106.44,274.55L109.04,288.88L111.63,290.28L114.23,303.56L116.83,301.88L122.02,302.62L124.62,304L127.21,292.28L129.81,290.79L132.4,295.89L135,294.35L137.6,293.36L140.19,293.83L142.79,295.09L145.38,295.21L147.98,296.82L150.58,296.27L153.17,295.03L155.77,288.96L158.37,288.49L160.96,294.84L163.56,295.33L166.15,294.45L168.75,285.77L171.35,283.12L176.54,283.61L179.13,281.27L181.73,280.33L184.33,275.22L186.92,274.92L189.52,272.03L192.12,280.27L194.71,251.55L197.31,266.36L199.9,266.78L202.5,272.68L205.1,290.81L207.69,290.67L210.29,298.23L212.88,299.32L215.48,298.72L218.08,290.64L220.67,290.44L223.27,292.4L225.87,292.79L236.25,292.59L238.85,293.81L246.63,293.43L249.23,293.42L254.42,293.34L257.02,292.33L259.62,291.98L262.21,294.17L264.81,291.05L267.4,290.82L270,286.77L272.6,285.61L275.19,285.4L277.79,283.71L280.38,281.91L282.98,281.19L288.17,281.45L290.77,278.05L293.37,277.46L295.96,269.29L298.56,262.43L301.15,259.35L303.75,264.01L306.35,252.62L308.94,241.51L311.54,237.63L316.73,212.74L319.33,207.82L321.92,207.81L324.52,204.42L327.12,192.58L329.71,189.23L332.31,183.3L334.9,179.82L337.5,178.47L340.1,172.97L342.69,142.39L345.29,140L347.88,121.38L350.48,124.81L353.08,124.76L355.67,116.74L358.27,108.82L360.87,107.86L363.46,107.89L366.06,103.62L368.65,105.46L371.25,98.24L373.85,96.38L376.44,83.07L381.63,71.01L384.23,80.69L386.83,75.32L389.42,59.15L392.02,60.03L394.62,58.83L397.21,52.21L399.81,41.3L402.4,25.74L405,18.15L407.6,17.82L410.19,16L412.79,17.4L415.38,16.28L417.98,20.48L420.58,22.5L423.17,29.26L425.77,119.48L428.37,300.28L430.96,297L433.56,268L436.15,208.06L438.75,199.26L441.35,185.09L443.94,153.41L446.54,109.13L449.13,84.07L451.73,80.53L454.33,84.05L456.92,83.58L459.52,92.2L462.12,96.19L464.71,99.9L467.31,100.34L469.9,108.51L472.5,107.84L475.1,112.31L477.69,112.84L480.29,103.95L482.88,103.01L485.48,103.21L488.08,108.87L490.67,116.82L493.27,114.64L498.46,105.28L501.06,106.24L503.65,124.36L506.25,129.67L508.85,131.24L511.44,130.57L514.04,129.93L516.63,110.95L519.23,113.86L521.83,113.39L532.21,113.33L534.81,117.62L537.4,109.4L540,109.4" style="fill: rgb(99, 110, 250); fill-opacity: 0.5; stroke-width: 0;"/></g></g><g class="errorbars"/><g class="lines"><path class="js-line" d="M0,301.94L5.19,301.29L7.79,301.03L10.38,300.34L12.98,300.51L15.58,300.44L18.17,299.07L20.77,294.17L23.37,294.35L25.96,298.81L28.56,294.06L33.75,294.73L36.35,294.76L38.94,294.89L41.54,292.36L44.13,286.41L46.73,285.53L49.33,285.53L51.92,287.08L54.52,277.43L57.12,277.31L59.71,277.19L62.31,279.72L64.9,280.04L67.5,278.21L72.69,279.85L75.29,285.58L77.88,282.26L80.48,277.12L83.08,275.82L85.67,276.36L90.87,275.03L93.46,275.55L103.85,275.35L106.44,274.55L109.04,288.88L111.63,290.28L114.23,303.56L116.83,301.88L122.02,302.62L124.62,304L127.21,292.28L129.81,290.79L132.4,295.89L135,294.35L137.6,293.36L140.19,293.83L142.79,295.09L145.38,295.21L147.98,296.82L150.58,296.27L153.17,295.03L155.77,288.96L158.37,288.49L160.96,294.84L163.56,295.33L166.15,294.45L168.75,285.77L171.35,283.12L176.54,283.61L179.13,281.27L181.73,280.33L184.33,275.22L186.92,274.92L189.52,272.03L192.12,280.27L194.71,251.55L197.31,266.36L199.9,266.78L202.5,272.68L205.1,290.81L207.69,290.67L210.29,298.23L212.88,299.32L215.48,298.72L218.08,290.64L220.67,290.44L223.27,292.4L225.87,292.79L236.25,292.59L238.85,293.81L246.63,293.43L249.23,293.42L254.42,293.34L257.02,292.33L259.62,291.98L262.21,294.17L264.81,291.05L267.4,290.82L270,286.77L272.6,285.61L275.19,285.4L277.79,283.71L280.38,281.91L282.98,281.19L288.17,281.45L290.77,278.05L293.37,277.46L295.96,269.29L298.56,262.43L301.15,259.35L303.75,264.01L306.35,252.62L308.94,241.51L311.54,237.63L316.73,212.74L319.33,207.82L321.92,207.81L324.52,204.42L327.12,192.58L329.71,189.23L332.31,183.3L334.9,179.82L337.5,178.47L340.1,172.97L342.69,142.39L345.29,140L347.88,121.38L350.48,124.81L353.08,124.76L355.67,116.74L358.27,108.82L360.87,107.86L363.46,107.89L366.06,103.62L368.65,105.46L371.25,98.24L373.85,96.38L376.44,83.07L381.63,71.01L384.23,80.69L386.83,75.32L389.42,59.15L392.02,60.03L394.62,58.83L397.21,52.21L399.81,41.3L402.4,25.74L405,18.15L407.6,17.82L410.19,16L412.79,17.4L415.38,16.28L417.98,20.48L420.58,22.5L423.17,29.26L425.77,119.48L428.37,300.28L430.96,297L433.56,268L436.15,208.06L438.75,199.26L441.35,185.09L443.94,153.41L446.54,109.13L449.13,84.07L451.73,80.53L454.33,84.05L456.92,83.58L459.52,92.2L462.12,96.19L464.71,99.9L467.31,100.34L469.9,108.51L472.5,107.84L475.1,112.31L477.69,112.84L480.29,103.95L482.88,103.01L485.48,103.21L488.08,108.87L490.67,116.82L493.27,114.64L498.46,105.28L501.06,106.24L503.65,124.36L506.25,129.67L508.85,131.24L511.44,130.57L514.04,129.93L516.63,110.95L519.23,113.86L521.83,113.39L532.21,113.33L534.81,117.62L537.4,109.4L540,109.4" style="vector-effect: none; fill: none; stroke: rgb(99, 110, 250); stroke-opacity: 1; stroke-width: 2px; opacity: 1;"/></g><g class="points"/><g class="text"/></g></g></g><g class="overplot"/><path class="xlines-above crisp" d="M0,0" style="fill: none;"/><path class="ylines-above crisp" d="M0,0" style="fill: none;"/><g class="overlines-above"/><g class="xaxislayer-above"><g class="xtick"><text text-anchor="middle" x="0" y="433" transform="translate(90.38,0)" style="font-family: 'Open Sans', verdana, arial, sans-serif; font-size: 12px; fill: rgb(42, 63, 95); fill-opacity: 1; white-space: pre; opacity: 1;">Oct 2022</text></g><g class="xtick"><text text-anchor="middle" x="0" y="433" style="font-family: 'Open Sans', verdana, arial, sans-serif; font-size: 12px; fill: rgb(42, 63, 95); fill-opacity: 1; white-space: pre; opacity: 1;" transform="translate(170.87,0)">Nov 2022</text></g><g class="xtick"><text text-anchor="middle" x="0" y="433" style="font-family: 'Open Sans', verdana, arial, sans-serif; font-size: 12px; fill: rgb(42, 63, 95); fill-opacity: 1; white-space: pre; opacity: 1;" transform="translate(248.75,0)">Dec 2022</text></g><g class="xtick"><text text-anchor="middle" x="0" y="433" style="font-family: 'Open Sans', verdana, arial, sans-serif; font-size: 12px; fill: rgb(42, 63, 95); fill-opacity: 1; white-space: pre; opacity: 1;" transform="translate(329.23,0)">Jan 2023</text></g><g class="xtick"><text text-anchor="middle" x="0" y="433" style="font-family: 'Open Sans', verdana, arial, sans-serif; font-size: 12px; fill: rgb(42, 63, 95); fill-opacity: 1; white-space: pre; opacity: 1;" transform="translate(409.71,0)">Feb 2023</text></g><g class="xtick"><text text-anchor="middle" x="0" y="433" style="font-family: 'Open Sans', verdana, arial, sans-serif; font-size: 12px; fill: rgb(42, 63, 95); fill-opacity: 1; white-space: pre; opacity: 1;" transform="translate(482.4,0)">Mar 2023</text></g><g class="xtick"><text text-anchor="middle" x="0" y="433" style="font-family: 'Open Sans', verdana, arial, sans-serif; font-size: 12px; fill: rgb(42, 63, 95); fill-opacity: 1; white-space: pre; opacity: 1;" transform="translate(562.88,0)">Apr 2023</text></g></g><g class="yaxislayer-above"><g class="ytick"><text text-anchor="end" x="79" y="4.199999999999999" transform="translate(0,396.32)" style="font-family: 'Open Sans', verdana, arial, sans-serif; font-size: 12px; fill: rgb(42, 63, 95); fill-opacity: 1; white-space: pre; opacity: 1;">$0</text></g><g class="ytick"><text text-anchor="end" x="79" y="4.199999999999999" style="font-family: 'Open Sans', verdana, arial, sans-serif; font-size: 12px; fill: rgb(42, 63, 95); fill-opacity: 1; white-space: pre; opacity: 1;" transform="translate(0,348.72)">$5M</text></g><g class="ytick"><text text-anchor="end" x="79" y="4.199999999999999" style="font-family: 'Open Sans', verdana, arial, sans-serif; font-size: 12px; fill: rgb(42, 63, 95); fill-opacity: 1; white-space: pre; opacity: 1;" transform="translate(0,301.12)">$10M</text></g><g class="ytick"><text text-anchor="end" x="79" y="4.199999999999999" style="font-family: 'Open Sans', verdana, arial, sans-serif; font-size: 12px; fill: rgb(42, 63, 95); fill-opacity: 1; white-space: pre; opacity: 1;" transform="translate(0,253.52)">$15M</text></g><g class="ytick"><text text-anchor="end" x="79" y="4.199999999999999" style="font-family: 'Open Sans', verdana, arial, sans-serif; font-size: 12px; fill: rgb(42, 63, 95); fill-opacity: 1; white-space: pre; opacity: 1;" transform="translate(0,205.92000000000002)">$20M</text></g><g class="ytick"><text text-anchor="end" x="79" y="4.199999999999999" style="font-family: 'Open Sans', verdana, arial, sans-serif; font-size: 12px; fill: rgb(42, 63, 95); fill-opacity: 1; white-space: pre; opacity: 1;" transform="translate(0,158.32)">$25M</text></g><g class="ytick"><text text-anchor="end" x="79" y="4.199999999999999" style="font-family: 'Open Sans', verdana, arial, sans-serif; font-size: 12px; fill: rgb(42, 63, 95); fill-opacity: 1; white-space: pre; opacity: 1;" transform="translate(0,110.71000000000001)">$30M</text></g></g><g class="overaxes-above"/></g></g><g class="polarlayer"/><g class="smithlayer"/><g class="ternarylayer"/><g class="geolayer"/><g class="funnelarealayer"/><g class="pielayer"/><g class="iciclelayer"/><g class="treemaplayer"/><g class="sunburstlayer"/><g class="glimages"/><defs id="topdefs-037c24"><g class="clips"/></defs><g class="layer-above"><g class="imagelayer"/><g class="shapelayer"/></g><g class="infolayer"><g class="g-gtitle"><text class="gtitle" x="35" y="50" text-anchor="start" dy="0em" style="font-family: 'Open Sans', verdana, arial, sans-serif; font-size: 17px; fill: rgb(42, 63, 95); opacity: 1; font-weight: normal; white-space: pre;"><tspan class="line" dy="0em" x="35" y="50">Synthetix - USDC/sUSD: Velodrome</tspan><tspan class="line" dy="1.3em" x="35" y="50">​<tspan style="font-size:70%" dy="-0.6em">Cumulative Net Flows since Program Announcement, Until Program End + 30 Days - At Last Price</tspan><tspan dy="0.42em">​</tspan></tspan></text></g><g class="g-xtitle"><text class="xtitle" x="350" y="460.3" text-anchor="middle" style="font-family: 'Open Sans', verdana, arial, sans-serif; font-size: 14px; fill: rgb(42, 63, 95); opacity: 1; font-weight: normal; white-space: pre;">Day</text></g><g class="g-ytitle"><text class="ytitle" transform="rotate(-90,24.668750000000003,260)" x="24.668750000000003" y="260" text-anchor="middle" style="font-family: 'Open Sans', verdana, arial, sans-serif; font-size: 14px; fill: rgb(42, 63, 95); opacity: 1; font-weight: normal; white-space: pre;">Cumulative Net Flows (USD)</text></g></g></svg>