<svg class="main-svg" xmlns="http://www.w3.org/2000/svg" xmlns:xlink="http://www.w3.org/1999/xlink" width="700" height="500" style="" viewBox="0 0 700 500"><rect x="0" y="0" width="700" height="500" style="fill: rgb(255, 255, 255); fill-opacity: 1;"/><defs id="defs-dfe1bb"><g class="clips"><clipPath id="clipdfe1bbxyplot" class="plotclip"><rect width="540" height="320"/></clipPath><clipPath class="axesclip" id="clipdfe1bbx"><rect x="80" y="0" width="540" height="500"/></clipPath><clipPath class="axesclip" id="clipdfe1bby"><rect x="0" y="100" width="700" height="320"/></clipPath><clipPath class="axesclip" id="clipdfe1bbxy"><rect x="80" y="100" width="540" height="320"/></clipPath></g><g class="gradients"/><g class="patterns"/></defs><g class="bglayer"><rect class="bg" x="80" y="100" width="540" height="320" style="fill: rgb(229, 236, 246); fill-opacity: 1; stroke-width: 0;"/></g><g class="layer-below"><g class="imagelayer"/><g class="shapelayer"/></g><g class="cartesianlayer"><g class="subplot xy"><g class="layer-subplot"><g class="shapelayer"/><g class="imagelayer"/></g><g class="minor-gridlayer"><g class="x"/><g class="y"/></g><g class="gridlayer"><g class="x"><path class="xgrid crisp" transform="translate(92.27,0)" d="M0,100v320" style="stroke: rgb(255, 255, 255); stroke-opacity: 1; stroke-width: 1px;"/><path class="xgrid crisp" transform="translate(199.22,0)" d="M0,100v320" style="stroke: rgb(255, 255, 255); stroke-opacity: 1; stroke-width: 1px;"/><path class="xgrid crisp" transform="translate(306.16999999999996,0)" d="M0,100v320" style="stroke: rgb(255, 255, 255); stroke-opacity: 1; stroke-width: 1px;"/><path class="xgrid crisp" transform="translate(409.61,0)" d="M0,100v320" style="stroke: rgb(255, 255, 255); stroke-opacity: 1; stroke-width: 1px;"/><path class="xgrid crisp" transform="translate(516.56,0)" d="M0,100v320" style="stroke: rgb(255, 255, 255); stroke-opacity: 1; stroke-width: 1px;"/></g><g class="y"><path class="ygrid crisp" transform="translate(0,404.53)" d="M80,0h540" style="stroke: rgb(255, 255, 255); stroke-opacity: 1; stroke-width: 1px;"/><path class="ygrid crisp" transform="translate(0,316.78)" d="M80,0h540" style="stroke: rgb(255, 255, 255); stroke-opacity: 1; stroke-width: 1px;"/><path class="ygrid crisp" transform="translate(0,272.90999999999997)" d="M80,0h540" style="stroke: rgb(255, 255, 255); stroke-opacity: 1; stroke-width: 1px;"/><path class="ygrid crisp" transform="translate(0,229.04)" d="M80,0h540" style="stroke: rgb(255, 255, 255); stroke-opacity: 1; stroke-width: 1px;"/><path class="ygrid crisp" transform="translate(0,185.17000000000002)" d="M80,0h540" style="stroke: rgb(255, 255, 255); stroke-opacity: 1; stroke-width: 1px;"/><path class="ygrid crisp" transform="translate(0,141.3)" d="M80,0h540" style="stroke: rgb(255, 255, 255); stroke-opacity: 1; stroke-width: 1px;"/></g></g><g class="zerolinelayer"><path class="yzl zl crisp" transform="translate(0,360.66)" d="M80,0h540" style="stroke: rgb(255, 255, 255); stroke-opacity: 1; stroke-width: 2px;"/></g><path class="xlines-below"/><path class="ylines-below"/><g class="overlines-below"/><g class="xaxislayer-below"/><g class="yaxislayer-below"/><g class="overaxes-below"/><g class="plot" transform="translate(80,100)" clip-path="url(#clipdfe1bbxyplot)"><g class="scatterlayer mlayer"><g class="trace scatter tracef07d4a" style="stroke-miterlimit: 2;"><g class="fills"><g><path class="js-fill" d="M540,260.66L0,260.66L0,259.74L1.75,221.6L3.51,213.98L5.26,211.02L7.01,210.96L8.77,205.41L10.52,202.89L12.27,201.57L14.03,203.17L15.78,197.53L17.53,195.29L19.29,192.18L21.04,200.46L22.79,198.05L24.55,200.28L26.3,191.19L28.05,187.22L29.81,184.78L31.56,183.99L35.06,190.26L36.82,191.41L40.32,170.75L42.08,169.5L43.83,167.06L45.58,171.95L47.34,171.79L49.09,169.09L52.6,169.05L54.35,169.83L56.1,168.27L57.86,167.71L59.61,141.04L61.36,142.92L63.12,148.55L64.87,147.38L66.62,147.29L68.38,148.56L71.88,150.59L73.64,157.36L75.39,153.97L77.14,161.93L78.9,161.91L80.65,163L82.4,166.39L84.16,163.81L87.66,163.15L89.42,160.97L92.92,160.59L94.68,158.99L96.43,160.37L98.18,160.16L106.95,160.42L108.7,159.01L110.45,159.68L112.21,171.42L113.96,169.4L115.71,158.56L126.23,159.01L127.99,159.86L129.74,158.08L131.49,157.91L133.25,194.44L135,199.17L136.75,189.18L138.51,183.59L140.26,189.44L142.01,179.9L145.52,177.84L147.27,179.62L149.03,183.63L150.78,182.69L152.53,181.79L154.29,183.53L156.04,184.01L157.79,183.68L159.55,178.42L161.3,178.83L164.81,177.74L166.56,177.78L171.82,177.55L173.57,175.19L175.32,175.26L177.08,171.39L178.83,170.93L180.58,165.94L182.34,153.95L184.09,148.4L185.84,148.81L187.6,147.08L189.35,146.98L191.1,145.62L192.86,142.2L194.61,141.54L198.12,134.36L199.87,138.15L203.38,138.21L205.13,141.21L206.88,153.06L208.64,153.44L210.39,153.87L212.14,153.09L217.4,153.13L219.16,158.37L220.91,158.26L222.66,155.21L224.42,142.57L226.17,139.96L227.92,144.06L229.68,143.99L231.43,149.09L233.18,149.57L234.94,146.83L236.69,146.86L238.44,150.1L240.19,148.22L243.7,126.72L245.45,125.35L247.21,130.19L248.96,126.57L250.71,125.45L252.47,127.29L255.97,126.48L257.73,129.59L259.48,125.41L261.23,116.52L262.99,113.5L264.74,112.71L266.49,110.9L268.25,87.95L270,44.22L271.75,40.67L273.51,43.07L275.26,33.27L277.01,32.52L278.77,17.96L280.52,17.58L282.27,16L284.03,20.34L285.78,30.54L287.53,34.77L289.29,34.75L291.04,43.23L292.79,58.04L294.55,60.28L296.3,60.67L298.05,60.41L299.81,40.42L301.56,42.51L303.31,40.25L305.06,40.52L306.82,38.47L308.57,43.63L310.32,52.65L313.83,53.83L315.58,67.44L319.09,68.9L320.84,68.07L322.6,65.93L324.35,61.59L326.1,60.58L327.86,60.48L331.36,60.01L333.12,61.39L336.62,61.05L338.38,57.87L340.13,59.17L341.88,57.06L343.64,52.77L345.39,53.24L347.14,51.41L348.9,63.81L352.4,59.83L354.16,51.71L355.91,49.57L357.66,52.27L359.42,56.61L361.17,58.84L362.92,61.54L364.68,61.74L366.43,60.38L368.18,60.89L369.94,61.31L371.69,62.54L375.19,88.66L376.95,131.79L378.7,179.02L380.45,202.83L382.21,205.16L383.96,212.38L387.47,219.27L389.22,222.11L390.97,229.22L392.73,230.71L396.23,233.03L397.99,233.51L399.74,234.22L401.49,237.17L403.25,238.56L405,238.77L406.75,284.18L408.51,284.55L410.26,285.06L412.01,286.56L419.03,288.53L420.78,286.25L426.04,286.89L427.79,290.36L429.55,292.17L431.3,292.32L436.56,292.89L438.31,292.91L454.09,293.42L455.84,296.08L461.1,296.09L462.86,296.94L476.88,297.61L478.64,301.6L525.97,303.36L527.73,303.84L540,304" style="fill: rgb(99, 110, 250); fill-opacity: 0.5; stroke-width: 0;"/></g></g><g class="errorbars"/><g class="lines"><path class="js-line" d="M0,259.74L1.75,221.6L3.51,213.98L5.26,211.02L7.01,210.96L8.77,205.41L10.52,202.89L12.27,201.57L14.03,203.17L15.78,197.53L17.53,195.29L19.29,192.18L21.04,200.46L22.79,198.05L24.55,200.28L26.3,191.19L28.05,187.22L29.81,184.78L31.56,183.99L35.06,190.26L36.82,191.41L40.32,170.75L42.08,169.5L43.83,167.06L45.58,171.95L47.34,171.79L49.09,169.09L52.6,169.05L54.35,169.83L56.1,168.27L57.86,167.71L59.61,141.04L61.36,142.92L63.12,148.55L64.87,147.38L66.62,147.29L68.38,148.56L71.88,150.59L73.64,157.36L75.39,153.97L77.14,161.93L78.9,161.91L80.65,163L82.4,166.39L84.16,163.81L87.66,163.15L89.42,160.97L92.92,160.59L94.68,158.99L96.43,160.37L98.18,160.16L106.95,160.42L108.7,159.01L110.45,159.68L112.21,171.42L113.96,169.4L115.71,158.56L126.23,159.01L127.99,159.86L129.74,158.08L131.49,157.91L133.25,194.44L135,199.17L136.75,189.18L138.51,183.59L140.26,189.44L142.01,179.9L145.52,177.84L147.27,179.62L149.03,183.63L150.78,182.69L152.53,181.79L154.29,183.53L156.04,184.01L157.79,183.68L159.55,178.42L161.3,178.83L164.81,177.74L166.56,177.78L171.82,177.55L173.57,175.19L175.32,175.26L177.08,171.39L178.83,170.93L180.58,165.94L182.34,153.95L184.09,148.4L185.84,148.81L187.6,147.08L189.35,146.98L191.1,145.62L192.86,142.2L194.61,141.54L198.12,134.36L199.87,138.15L203.38,138.21L205.13,141.21L206.88,153.06L208.64,153.44L210.39,153.87L212.14,153.09L217.4,153.13L219.16,158.37L220.91,158.26L222.66,155.21L224.42,142.57L226.17,139.96L227.92,144.06L229.68,143.99L231.43,149.09L233.18,149.57L234.94,146.83L236.69,146.86L238.44,150.1L240.19,148.22L243.7,126.72L245.45,125.35L247.21,130.19L248.96,126.57L250.71,125.45L252.47,127.29L255.97,126.48L257.73,129.59L259.48,125.41L261.23,116.52L262.99,113.5L264.74,112.71L266.49,110.9L268.25,87.95L270,44.22L271.75,40.67L273.51,43.07L275.26,33.27L277.01,32.52L278.77,17.96L280.52,17.58L282.27,16L284.03,20.34L285.78,30.54L287.53,34.77L289.29,34.75L291.04,43.23L292.79,58.04L294.55,60.28L296.3,60.67L298.05,60.41L299.81,40.42L301.56,42.51L303.31,40.25L305.06,40.52L306.82,38.47L308.57,43.63L310.32,52.65L313.83,53.83L315.58,67.44L319.09,68.9L320.84,68.07L322.6,65.93L324.35,61.59L326.1,60.58L327.86,60.48L331.36,60.01L333.12,61.39L336.62,61.05L338.38,57.87L340.13,59.17L341.88,57.06L343.64,52.77L345.39,53.24L347.14,51.41L348.9,63.81L352.4,59.83L354.16,51.71L355.91,49.57L357.66,52.27L359.42,56.61L361.17,58.84L362.92,61.54L364.68,61.74L366.43,60.38L368.18,60.89L369.94,61.31L371.69,62.54L375.19,88.66L376.95,131.79L378.7,179.02L380.45,202.83L382.21,205.16L383.96,212.38L387.47,219.27L389.22,222.11L390.97,229.22L392.73,230.71L396.23,233.03L397.99,233.51L399.74,234.22L401.49,237.17L403.25,238.56L405,238.77L406.75,284.18L408.51,284.55L410.26,285.06L412.01,286.56L419.03,288.53L420.78,286.25L426.04,286.89L427.79,290.36L429.55,292.17L431.3,292.32L436.56,292.89L438.31,292.91L454.09,293.42L455.84,296.08L461.1,296.09L462.86,296.94L476.88,297.61L478.64,301.6L525.97,303.36L527.73,303.84L540,304" style="vector-effect: none; fill: none; stroke: rgb(99, 110, 250); stroke-opacity: 1; stroke-width: 2px; opacity: 1;"/></g><g class="points"/><g class="text"/></g></g></g><g class="overplot"/><path class="xlines-above crisp" d="M0,0" style="fill: none;"/><path class="ylines-above crisp" d="M0,0" style="fill: none;"/><g class="overlines-above"/><g class="xaxislayer-above"><g class="xtick"><text text-anchor="middle" x="0" y="433" transform="translate(92.27,0)" style="font-family: 'Open Sans', verdana, arial, sans-serif; font-size: 12px; fill: rgb(42, 63, 95); fill-opacity: 1; white-space: pre; opacity: 1;">Sep 2022</text></g><g class="xtick"><text text-anchor="middle" x="0" y="433" style="font-family: 'Open Sans', verdana, arial, sans-serif; font-size: 12px; fill: rgb(42, 63, 95); fill-opacity: 1; white-space: pre; opacity: 1;" transform="translate(199.22,0)">Nov 2022</text></g><g class="xtick"><text text-anchor="middle" x="0" y="433" style="font-family: 'Open Sans', verdana, arial, sans-serif; font-size: 12px; fill: rgb(42, 63, 95); fill-opacity: 1; white-space: pre; opacity: 1;" transform="translate(306.16999999999996,0)">Jan 2023</text></g><g class="xtick"><text text-anchor="middle" x="0" y="433" style="font-family: 'Open Sans', verdana, arial, sans-serif; font-size: 12px; fill: rgb(42, 63, 95); fill-opacity: 1; white-space: pre; opacity: 1;" transform="translate(409.61,0)">Mar 2023</text></g><g class="xtick"><text text-anchor="middle" x="0" y="433" style="font-family: 'Open Sans', verdana, arial, sans-serif; font-size: 12px; fill: rgb(42, 63, 95); fill-opacity: 1; white-space: pre; opacity: 1;" transform="translate(516.56,0)">May 2023</text></g></g><g class="yaxislayer-above"><g class="ytick"><text text-anchor="end" x="79" y="4.199999999999999" transform="translate(0,404.53)" style="font-family: 'Open Sans', verdana, arial, sans-serif; font-size: 12px; fill: rgb(42, 63, 95); fill-opacity: 1; white-space: pre; opacity: 1;">$−5M</text></g><g class="ytick"><text text-anchor="end" x="79" y="4.199999999999999" style="font-family: 'Open Sans', verdana, arial, sans-serif; font-size: 12px; fill: rgb(42, 63, 95); fill-opacity: 1; white-space: pre; opacity: 1;" transform="translate(0,360.66)">$0</text></g><g class="ytick"><text text-anchor="end" x="79" y="4.199999999999999" style="font-family: 'Open Sans', verdana, arial, sans-serif; font-size: 12px; fill: rgb(42, 63, 95); fill-opacity: 1; white-space: pre; opacity: 1;" transform="translate(0,316.78)">$5M</text></g><g class="ytick"><text text-anchor="end" x="79" y="4.199999999999999" style="font-family: 'Open Sans', verdana, arial, sans-serif; font-size: 12px; fill: rgb(42, 63, 95); fill-opacity: 1; white-space: pre; opacity: 1;" transform="translate(0,272.90999999999997)">$10M</text></g><g class="ytick"><text text-anchor="end" x="79" y="4.199999999999999" style="font-family: 'Open Sans', verdana, arial, sans-serif; font-size: 12px; fill: rgb(42, 63, 95); fill-opacity: 1; white-space: pre; opacity: 1;" transform="translate(0,229.04)">$15M</text></g><g class="ytick"><text text-anchor="end" x="79" y="4.199999999999999" style="font-family: 'Open Sans', verdana, arial, sans-serif; font-size: 12px; fill: rgb(42, 63, 95); fill-opacity: 1; white-space: pre; opacity: 1;" transform="translate(0,185.17000000000002)">$20M</text></g><g class="ytick"><text text-anchor="end" x="79" y="4.199999999999999" style="font-family: 'Open Sans', verdana, arial, sans-serif; font-size: 12px; fill: rgb(42, 63, 95); fill-opacity: 1; white-space: pre; opacity: 1;" transform="translate(0,141.3)">$25M</text></g></g><g class="overaxes-above"/></g></g><g class="polarlayer"/><g class="smithlayer"/><g class="ternarylayer"/><g class="geolayer"/><g class="funnelarealayer"/><g class="pielayer"/><g class="iciclelayer"/><g class="treemaplayer"/><g class="sunburstlayer"/><g class="glimages"/><defs id="topdefs-dfe1bb"><g class="clips"/></defs><g class="layer-above"><g class="imagelayer"/><g class="shapelayer"/></g><g class="infolayer"><g class="g-gtitle"><text class="gtitle" x="35" y="50" text-anchor="start" dy="0em" style="font-family: 'Open Sans', verdana, arial, sans-serif; font-size: 17px; fill: rgb(42, 63, 95); opacity: 1; font-weight: normal; white-space: pre;"><tspan class="line" dy="0em" x="35" y="50">Synthetix - sETH-ETH: Curve</tspan><tspan class="line" dy="1.3em" x="35" y="50">​<tspan style="font-size:70%" dy="-0.6em">Cumulative Net Flows since Program Announcement, Until Program End + 30 Days - At Last Price</tspan><tspan dy="0.42em">​</tspan></tspan></text></g><g class="g-xtitle"><text class="xtitle" x="350" y="460.3" text-anchor="middle" style="font-family: 'Open Sans', verdana, arial, sans-serif; font-size: 14px; fill: rgb(42, 63, 95); opacity: 1; font-weight: normal; white-space: pre;">Day</text></g><g class="g-ytitle"><text class="ytitle" transform="rotate(-90,24.340625000000003,260)" x="24.340625000000003" y="260" text-anchor="middle" style="font-family: 'Open Sans', verdana, arial, sans-serif; font-size: 14px; fill: rgb(42, 63, 95); opacity: 1; font-weight: normal; white-space: pre;">Cumulative Net Flows (USD)</text></g></g></svg>