<svg class="main-svg" xmlns="http://www.w3.org/2000/svg" xmlns:xlink="http://www.w3.org/1999/xlink" width="700" height="500" style="" viewBox="0 0 700 500"><rect x="0" y="0" width="700" height="500" style="fill: rgb(255, 255, 255); fill-opacity: 1;"/><defs id="defs-958a25"><g class="clips"><clipPath id="clip958a25xyplot" class="plotclip"><rect width="540" height="320"/></clipPath><clipPath class="axesclip" id="clip958a25x"><rect x="80" y="0" width="540" height="500"/></clipPath><clipPath class="axesclip" id="clip958a25y"><rect x="0" y="100" width="700" height="320"/></clipPath><clipPath class="axesclip" id="clip958a25xy"><rect x="80" y="100" width="540" height="320"/></clipPath></g><g class="gradients"/><g class="patterns"/></defs><g class="bglayer"><rect class="bg" x="80" y="100" width="540" height="320" style="fill: rgb(229, 236, 246); fill-opacity: 1; stroke-width: 0;"/></g><g class="layer-below"><g class="imagelayer"/><g class="shapelayer"/></g><g class="cartesianlayer"><g class="subplot xy"><g class="layer-subplot"><g class="shapelayer"/><g class="imagelayer"/></g><g class="minor-gridlayer"><g class="x"/><g class="y"/></g><g class="gridlayer"><g class="x"><path class="xgrid crisp" transform="translate(119.49000000000001,0)" d="M0,100v320" style="stroke: rgb(255, 255, 255); stroke-opacity: 1; stroke-width: 1px;"/><path class="xgrid crisp" transform="translate(217.67,0)" d="M0,100v320" style="stroke: rgb(255, 255, 255); stroke-opacity: 1; stroke-width: 1px;"/><path class="xgrid crisp" transform="translate(313.72,0)" d="M0,100v320" style="stroke: rgb(255, 255, 255); stroke-opacity: 1; stroke-width: 1px;"/><path class="xgrid crisp" transform="translate(410.83,0)" d="M0,100v320" style="stroke: rgb(255, 255, 255); stroke-opacity: 1; stroke-width: 1px;"/><path class="xgrid crisp" transform="translate(509.01,0)" d="M0,100v320" style="stroke: rgb(255, 255, 255); stroke-opacity: 1; stroke-width: 1px;"/><path class="xgrid crisp" transform="translate(607.19,0)" d="M0,100v320" style="stroke: rgb(255, 255, 255); stroke-opacity: 1; stroke-width: 1px;"/></g><g class="y"><path class="ygrid crisp" transform="translate(0,398.19)" d="M80,0h540" style="stroke: rgb(255, 255, 255); stroke-opacity: 1; stroke-width: 1px;"/><path class="ygrid crisp" transform="translate(0,312.37)" d="M80,0h540" style="stroke: rgb(255, 255, 255); stroke-opacity: 1; stroke-width: 1px;"/><path class="ygrid crisp" transform="translate(0,269.46000000000004)" d="M80,0h540" style="stroke: rgb(255, 255, 255); stroke-opacity: 1; stroke-width: 1px;"/><path class="ygrid crisp" transform="translate(0,226.56)" d="M80,0h540" style="stroke: rgb(255, 255, 255); stroke-opacity: 1; stroke-width: 1px;"/><path class="ygrid crisp" transform="translate(0,183.65)" d="M80,0h540" style="stroke: rgb(255, 255, 255); stroke-opacity: 1; stroke-width: 1px;"/><path class="ygrid crisp" transform="translate(0,140.74)" d="M80,0h540" style="stroke: rgb(255, 255, 255); stroke-opacity: 1; stroke-width: 1px;"/></g></g><g class="zerolinelayer"><path class="yzl zl crisp" transform="translate(0,355.28)" d="M80,0h540" style="stroke: rgb(255, 255, 255); stroke-opacity: 1; stroke-width: 2px;"/></g><path class="xlines-below"/><path class="ylines-below"/><g class="overlines-below"/><g class="xaxislayer-below"/><g class="yaxislayer-below"/><g class="overaxes-below"/><g class="plot" transform="translate(80,100)" clip-path="url(#clip958a25xyplot)"><g class="scatterlayer mlayer"><g class="trace scatter trace2282cb" style="stroke-miterlimit: 2;"><g class="fills"><g><path class="js-fill" d="M540,255.28L0,255.28L0,254.39L1.07,217.08L2.13,209.63L3.2,206.73L4.27,206.67L6.4,198.78L7.47,197.49L8.54,199.05L9.6,193.54L11.74,188.31L12.81,196.41L13.87,194.05L14.94,196.23L17.08,183.46L18.14,181.07L19.21,180.3L20.28,182.79L22.41,187.56L23.48,175.02L24.55,167.35L25.61,166.13L26.68,163.74L27.75,168.53L28.81,168.36L29.88,165.73L32.02,165.68L33.08,166.45L35.22,164.38L36.28,138.29L37.35,140.13L38.42,145.64L40.55,144.41L41.62,145.65L43.75,147.63L44.82,154.26L45.89,150.93L46.96,158.72L48.02,158.7L49.09,159.77L50.16,163.08L51.23,160.56L53.36,159.92L54.43,157.78L56.56,157.42L57.63,155.85L58.7,157.2L59.76,156.99L65.1,157.24L66.17,155.87L67.23,156.52L68.3,168L69.37,166.03L70.43,155.43L76.84,155.86L77.91,156.7L78.97,154.96L80.04,154.79L81.11,190.52L82.17,195.15L84.31,179.91L85.38,185.63L86.44,176.29L87.51,175.13L88.58,174.28L89.64,176.03L90.71,179.94L91.78,179.02L92.85,178.15L93.91,179.85L96.05,179.99L97.11,174.85L98.18,175.25L99.25,174.31L104.58,174L105.65,171.69L106.72,171.76L107.79,167.98L108.85,167.52L109.92,162.65L112.06,145.49L113.12,145.89L114.19,144.2L115.26,144.1L116.32,142.77L117.39,139.42L118.46,138.78L119.53,134.58L120.59,131.76L121.66,135.47L123.79,135.52L124.86,138.46L125.93,150.05L127,150.42L128.06,150.84L129.13,150.08L132.33,150.12L133.4,155.24L134.47,155.14L135.53,152.15L136.6,139.78L137.67,137.23L138.74,141.25L139.8,141.18L140.87,146.16L141.94,146.63L143,143.96L144.07,143.98L145.14,147.15L146.21,145.31L148.34,124.29L149.41,122.95L150.47,127.68L151.54,124.14L152.61,123.04L153.68,124.85L155.81,124.05L156.88,127.1L157.94,123.01L159.01,114.31L161.15,110.59L162.21,108.81L163.28,86.37L164.35,43.6L165.42,40.13L166.48,42.47L167.55,32.89L168.62,32.16L169.68,17.92L170.75,17.54L171.82,16L172.89,20.24L175.02,34.35L176.09,34.34L177.15,42.64L178.22,57.12L179.29,59.31L180.36,59.69L181.42,59.43L182.49,39.89L183.56,41.93L184.62,39.72L185.69,39.98L186.76,37.98L187.83,43.02L188.89,51.84L191.03,53L192.09,66.31L194.23,67.74L195.3,66.92L196.36,64.83L197.43,60.59L199.57,59.5L200.63,59.59L201.7,59.04L202.77,60.39L204.9,60.06L205.97,56.95L207.04,58.22L208.1,56.16L209.17,51.96L210.24,52.42L211.3,50.63L212.37,62.76L214.51,58.87L215.57,50.93L216.64,48.83L217.71,51.48L219.84,57.9L220.91,60.54L221.98,60.74L223.04,59.4L226.25,61.51L227.31,77.07L228.38,87.07L229.45,129.25L231.58,198.73L232.65,201L234.78,212.07L235.85,214.8L236.92,217.58L237.98,224.53L241.19,228.26L242.25,228.73L243.32,229.42L244.39,232.31L246.52,233.87L247.59,278.28L249.72,279.14L250.79,280.61L255.06,282.54L256.13,280.31L259.33,280.94L260.4,284.33L261.46,286.1L262.53,286.25L265.73,286.81L266.8,286.82L276.4,287.32L277.47,289.92L280.67,289.93L281.74,290.77L290.28,291.42L291.34,295.32L320.16,297.04L321.23,297.52L346.84,298.47L347.91,298.83L379.92,299.62L380.99,299.62L461.03,300.38L462.09,301.74L486.64,302.12L487.71,303.89L540,304" style="fill: rgb(99, 110, 250); fill-opacity: 0.5; stroke-width: 0;"/></g></g><g class="errorbars"/><g class="lines"><path class="js-line" d="M0,254.39L1.07,217.08L2.13,209.63L3.2,206.73L4.27,206.67L6.4,198.78L7.47,197.49L8.54,199.05L9.6,193.54L11.74,188.31L12.81,196.41L13.87,194.05L14.94,196.23L17.08,183.46L18.14,181.07L19.21,180.3L20.28,182.79L22.41,187.56L23.48,175.02L24.55,167.35L25.61,166.13L26.68,163.74L27.75,168.53L28.81,168.36L29.88,165.73L32.02,165.68L33.08,166.45L35.22,164.38L36.28,138.29L37.35,140.13L38.42,145.64L40.55,144.41L41.62,145.65L43.75,147.63L44.82,154.26L45.89,150.93L46.96,158.72L48.02,158.7L49.09,159.77L50.16,163.08L51.23,160.56L53.36,159.92L54.43,157.78L56.56,157.42L57.63,155.85L58.7,157.2L59.76,156.99L65.1,157.24L66.17,155.87L67.23,156.52L68.3,168L69.37,166.03L70.43,155.43L76.84,155.86L77.91,156.7L78.97,154.96L80.04,154.79L81.11,190.52L82.17,195.15L84.31,179.91L85.38,185.63L86.44,176.29L87.51,175.13L88.58,174.28L89.64,176.03L90.71,179.94L91.78,179.02L92.85,178.15L93.91,179.85L96.05,179.99L97.11,174.85L98.18,175.25L99.25,174.31L104.58,174L105.65,171.69L106.72,171.76L107.79,167.98L108.85,167.52L109.92,162.65L112.06,145.49L113.12,145.89L114.19,144.2L115.26,144.1L116.32,142.77L117.39,139.42L118.46,138.78L119.53,134.58L120.59,131.76L121.66,135.47L123.79,135.52L124.86,138.46L125.93,150.05L127,150.42L128.06,150.84L129.13,150.08L132.33,150.12L133.4,155.24L134.47,155.14L135.53,152.15L136.6,139.78L137.67,137.23L138.74,141.25L139.8,141.18L140.87,146.16L141.94,146.63L143,143.96L144.07,143.98L145.14,147.15L146.21,145.31L148.34,124.29L149.41,122.95L150.47,127.68L151.54,124.14L152.61,123.04L153.68,124.85L155.81,124.05L156.88,127.1L157.94,123.01L159.01,114.31L161.15,110.59L162.21,108.81L163.28,86.37L164.35,43.6L165.42,40.13L166.48,42.47L167.55,32.89L168.62,32.16L169.68,17.92L170.75,17.54L171.82,16L172.89,20.24L175.02,34.35L176.09,34.34L177.15,42.64L178.22,57.12L179.29,59.31L180.36,59.69L181.42,59.43L182.49,39.89L183.56,41.93L184.62,39.72L185.69,39.98L186.76,37.98L187.83,43.02L188.89,51.84L191.03,53L192.09,66.31L194.23,67.74L195.3,66.92L196.36,64.83L197.43,60.59L199.57,59.5L200.63,59.59L201.7,59.04L202.77,60.39L204.9,60.06L205.97,56.95L207.04,58.22L208.1,56.16L209.17,51.96L210.24,52.42L211.3,50.63L212.37,62.76L214.51,58.87L215.57,50.93L216.64,48.83L217.71,51.48L219.84,57.9L220.91,60.54L221.98,60.74L223.04,59.4L226.25,61.51L227.31,77.07L228.38,87.07L229.45,129.25L231.58,198.73L232.65,201L234.78,212.07L235.85,214.8L236.92,217.58L237.98,224.53L241.19,228.26L242.25,228.73L243.32,229.42L244.39,232.31L246.52,233.87L247.59,278.28L249.72,279.14L250.79,280.61L255.06,282.54L256.13,280.31L259.33,280.94L260.4,284.33L261.46,286.1L262.53,286.25L265.73,286.81L266.8,286.82L276.4,287.32L277.47,289.92L280.67,289.93L281.74,290.77L290.28,291.42L291.34,295.32L320.16,297.04L321.23,297.52L346.84,298.47L347.91,298.83L379.92,299.62L380.99,299.62L461.03,300.38L462.09,301.74L486.64,302.12L487.71,303.89L540,304" style="vector-effect: none; fill: none; stroke: rgb(99, 110, 250); stroke-opacity: 1; stroke-width: 2px; opacity: 1;"/></g><g class="points"/><g class="text"/></g></g></g><g class="overplot"/><path class="xlines-above crisp" d="M0,0" style="fill: none;"/><path class="ylines-above crisp" d="M0,0" style="fill: none;"/><g class="overlines-above"/><g class="xaxislayer-above"><g class="xtick"><text text-anchor="middle" x="0" y="433" transform="translate(119.49000000000001,0)" style="font-family: 'Open Sans', verdana, arial, sans-serif; font-size: 12px; fill: rgb(42, 63, 95); fill-opacity: 1; white-space: pre; opacity: 1;">Oct 2022</text></g><g class="xtick"><text text-anchor="middle" x="0" y="433" style="font-family: 'Open Sans', verdana, arial, sans-serif; font-size: 12px; fill: rgb(42, 63, 95); fill-opacity: 1; white-space: pre; opacity: 1;" transform="translate(217.67,0)">Jan 2023</text></g><g class="xtick"><text text-anchor="middle" x="0" y="433" style="font-family: 'Open Sans', verdana, arial, sans-serif; font-size: 12px; fill: rgb(42, 63, 95); fill-opacity: 1; white-space: pre; opacity: 1;" transform="translate(313.72,0)">Apr 2023</text></g><g class="xtick"><text text-anchor="middle" x="0" y="433" style="font-family: 'Open Sans', verdana, arial, sans-serif; font-size: 12px; fill: rgb(42, 63, 95); fill-opacity: 1; white-space: pre; opacity: 1;" transform="translate(410.83,0)">Jul 2023</text></g><g class="xtick"><text text-anchor="middle" x="0" y="433" style="font-family: 'Open Sans', verdana, arial, sans-serif; font-size: 12px; fill: rgb(42, 63, 95); fill-opacity: 1; white-space: pre; opacity: 1;" transform="translate(509.01,0)">Oct 2023</text></g><g class="xtick"><text text-anchor="middle" x="0" y="433" style="font-family: 'Open Sans', verdana, arial, sans-serif; font-size: 12px; fill: rgb(42, 63, 95); fill-opacity: 1; white-space: pre; opacity: 1;" transform="translate(607.19,0)">Jan 2024</text></g></g><g class="yaxislayer-above"><g class="ytick"><text text-anchor="end" x="79" y="4.199999999999999" transform="translate(0,398.19)" style="font-family: 'Open Sans', verdana, arial, sans-serif; font-size: 12px; fill: rgb(42, 63, 95); fill-opacity: 1; white-space: pre; opacity: 1;">$−5M</text></g><g class="ytick"><text text-anchor="end" x="79" y="4.199999999999999" style="font-family: 'Open Sans', verdana, arial, sans-serif; font-size: 12px; fill: rgb(42, 63, 95); fill-opacity: 1; white-space: pre; opacity: 1;" transform="translate(0,355.28)">$0</text></g><g class="ytick"><text text-anchor="end" x="79" y="4.199999999999999" style="font-family: 'Open Sans', verdana, arial, sans-serif; font-size: 12px; fill: rgb(42, 63, 95); fill-opacity: 1; white-space: pre; opacity: 1;" transform="translate(0,312.37)">$5M</text></g><g class="ytick"><text text-anchor="end" x="79" y="4.199999999999999" style="font-family: 'Open Sans', verdana, arial, sans-serif; font-size: 12px; fill: rgb(42, 63, 95); fill-opacity: 1; white-space: pre; opacity: 1;" transform="translate(0,269.46000000000004)">$10M</text></g><g class="ytick"><text text-anchor="end" x="79" y="4.199999999999999" style="font-family: 'Open Sans', verdana, arial, sans-serif; font-size: 12px; fill: rgb(42, 63, 95); fill-opacity: 1; white-space: pre; opacity: 1;" transform="translate(0,226.56)">$15M</text></g><g class="ytick"><text text-anchor="end" x="79" y="4.199999999999999" style="font-family: 'Open Sans', verdana, arial, sans-serif; font-size: 12px; fill: rgb(42, 63, 95); fill-opacity: 1; white-space: pre; opacity: 1;" transform="translate(0,183.65)">$20M</text></g><g class="ytick"><text text-anchor="end" x="79" y="4.199999999999999" style="font-family: 'Open Sans', verdana, arial, sans-serif; font-size: 12px; fill: rgb(42, 63, 95); fill-opacity: 1; white-space: pre; opacity: 1;" transform="translate(0,140.74)">$25M</text></g></g><g class="overaxes-above"/></g></g><g class="polarlayer"/><g class="smithlayer"/><g class="ternarylayer"/><g class="geolayer"/><g class="funnelarealayer"/><g class="pielayer"/><g class="iciclelayer"/><g class="treemaplayer"/><g class="sunburstlayer"/><g class="glimages"/><defs id="topdefs-958a25"><g class="clips"/></defs><g class="layer-above"><g class="imagelayer"/><g class="shapelayer"/></g><g class="infolayer"><g class="g-gtitle"><text class="gtitle" x="35" y="50" text-anchor="start" dy="0em" style="font-family: 'Open Sans', verdana, arial, sans-serif; font-size: 17px; fill: rgb(42, 63, 95); opacity: 1; font-weight: normal; white-space: pre;"><tspan class="line" dy="0em" x="35" y="50">Synthetix - sETH-ETH: Curve</tspan><tspan class="line" dy="1.3em" x="35" y="50">​<tspan style="font-size:70%" dy="-0.6em">Cumulative Net Flows since Program Announcement, Until Program End + 30 Days - At Last Price</tspan><tspan dy="0.42em">​</tspan></tspan></text></g><g class="g-xtitle"><text class="xtitle" x="350" y="460.3" text-anchor="middle" style="font-family: 'Open Sans', verdana, arial, sans-serif; font-size: 14px; fill: rgb(42, 63, 95); opacity: 1; font-weight: normal; white-space: pre;">Day</text></g><g class="g-ytitle"><text class="ytitle" transform="rotate(-90,24.340625000000003,260)" x="24.340625000000003" y="260" text-anchor="middle" style="font-family: 'Open Sans', verdana, arial, sans-serif; font-size: 14px; fill: rgb(42, 63, 95); opacity: 1; font-weight: normal; white-space: pre;">Cumulative Net Flows (USD)</text></g></g></svg>