<svg class="main-svg" xmlns="http://www.w3.org/2000/svg" xmlns:xlink="http://www.w3.org/1999/xlink" width="700" height="500" style="" viewBox="0 0 700 500"><rect x="0" y="0" width="700" height="500" style="fill: rgb(255, 255, 255); fill-opacity: 1;"/><defs id="defs-f85ac8"><g class="clips"><clipPath id="clipf85ac8xyplot" class="plotclip"><rect width="540" height="320"/></clipPath><clipPath class="axesclip" id="clipf85ac8x"><rect x="80" y="0" width="540" height="500"/></clipPath><clipPath class="axesclip" id="clipf85ac8y"><rect x="0" y="100" width="700" height="320"/></clipPath><clipPath class="axesclip" id="clipf85ac8xy"><rect x="80" y="100" width="540" height="320"/></clipPath></g><g class="gradients"/><g class="patterns"/></defs><g class="bglayer"><rect class="bg" x="80" y="100" width="540" height="320" style="fill: rgb(229, 236, 246); fill-opacity: 1; stroke-width: 0;"/></g><g class="layer-below"><g class="imagelayer"/><g class="shapelayer"/></g><g class="cartesianlayer"><g class="subplot xy"><g class="layer-subplot"><g class="shapelayer"/><g class="imagelayer"/></g><g class="minor-gridlayer"><g class="x"/><g class="y"/></g><g class="gridlayer"><g class="x"><path class="xgrid crisp" transform="translate(104.75,0)" d="M0,100v320" style="stroke: rgb(255, 255, 255); stroke-opacity: 1; stroke-width: 1px;"/><path class="xgrid crisp" transform="translate(208.25,0)" d="M0,100v320" style="stroke: rgb(255, 255, 255); stroke-opacity: 1; stroke-width: 1px;"/><path class="xgrid crisp" transform="translate(309.5,0)" d="M0,100v320" style="stroke: rgb(255, 255, 255); stroke-opacity: 1; stroke-width: 1px;"/><path class="xgrid crisp" transform="translate(411.88,0)" d="M0,100v320" style="stroke: rgb(255, 255, 255); stroke-opacity: 1; stroke-width: 1px;"/><path class="xgrid crisp" transform="translate(515.38,0)" d="M0,100v320" style="stroke: rgb(255, 255, 255); stroke-opacity: 1; stroke-width: 1px;"/><path class="xgrid crisp" transform="translate(618.88,0)" d="M0,100v320" style="stroke: rgb(255, 255, 255); stroke-opacity: 1; stroke-width: 1px;"/></g><g class="y"><path class="ygrid crisp" transform="translate(0,339.59000000000003)" d="M80,0h540" style="stroke: rgb(255, 255, 255); stroke-opacity: 1; stroke-width: 1px;"/><path class="ygrid crisp" transform="translate(0,292.56)" d="M80,0h540" style="stroke: rgb(255, 255, 255); stroke-opacity: 1; stroke-width: 1px;"/><path class="ygrid crisp" transform="translate(0,245.54)" d="M80,0h540" style="stroke: rgb(255, 255, 255); stroke-opacity: 1; stroke-width: 1px;"/><path class="ygrid crisp" transform="translate(0,198.51)" d="M80,0h540" style="stroke: rgb(255, 255, 255); stroke-opacity: 1; stroke-width: 1px;"/><path class="ygrid crisp" transform="translate(0,151.48)" d="M80,0h540" style="stroke: rgb(255, 255, 255); stroke-opacity: 1; stroke-width: 1px;"/><path class="ygrid crisp" transform="translate(0,104.46)" d="M80,0h540" style="stroke: rgb(255, 255, 255); stroke-opacity: 1; stroke-width: 1px;"/></g></g><g class="zerolinelayer"><path class="yzl zl crisp" transform="translate(0,386.62)" d="M80,0h540" style="stroke: rgb(255, 255, 255); stroke-opacity: 1; stroke-width: 2px;"/></g><path class="xlines-below"/><path class="ylines-below"/><g class="overlines-below"/><g class="xaxislayer-below"/><g class="yaxislayer-below"/><g class="overaxes-below"/><g class="plot" transform="translate(80,100)" clip-path="url(#clipf85ac8xyplot)"><g class="scatterlayer mlayer"><g class="trace scatter tracebb41f6" style="stroke-miterlimit: 2;"><g class="fills"><g><path class="js-fill" d="M540,286.62L0,286.62L0,279.79L1.13,269.52L2.25,270.84L4.5,255.61L5.63,256.67L6.75,256.07L7.88,259.6L9,239.77L10.13,237.78L11.25,236.21L12.38,232.43L13.5,233.67L14.63,236.27L15.75,231.01L16.88,230.32L18,229.45L19.13,225.28L20.25,225.79L21.38,221.5L22.5,221.73L23.63,216.87L25.88,204.34L27,207.15L30.38,194.01L31.5,193.05L33.75,201.93L34.88,198.84L36,199.63L37.13,203.65L38.25,212.78L39.38,215.68L40.5,219.22L41.63,219.51L43.88,217.43L45,218.4L46.13,227.59L47.25,225.74L48.38,227.66L49.5,227.18L51.75,228.63L52.88,224.85L54,222.58L55.13,222.73L56.25,221.86L57.38,219.75L58.5,221.17L59.63,218.85L60.75,214.06L61.88,213.22L65.25,206.65L66.38,210.37L67.5,214.38L68.63,222.88L69.75,230.36L70.88,227.56L72,226.57L73.13,229.95L75.38,229.22L76.5,228.13L79.88,227.36L81,221.26L84.38,231.11L85.5,229.79L88.88,230.15L90,231.17L91.13,232.36L92.25,229.91L93.38,225.82L94.5,227.41L95.63,221.33L96.75,222.13L97.88,221.62L99,222.49L100.13,221.09L101.25,224.78L102.38,223.92L103.5,225.57L105.75,227.55L106.88,227.05L108,225.59L109.13,225.69L110.25,226.78L111.38,229.62L112.5,231.15L113.63,231.02L114.75,232.32L115.88,230.92L117,230.52L118.13,231.03L119.25,230.9L120.38,228.29L121.5,228.53L122.63,231.03L123.75,227.69L124.88,228.16L126,227.16L127.13,227.63L128.25,225.82L129.38,225.64L131.63,225.12L132.75,222.91L133.88,223.48L135,222.28L136.13,222.66L137.25,219.83L139.5,216.3L140.63,210.15L142.88,214.54L144,215.09L145.13,213.57L146.25,210.79L147.38,208.79L148.5,203.61L149.63,200.94L150.75,196.24L151.88,196.19L153,192.76L155.25,194.45L156.38,184.78L157.5,184.26L158.63,180.6L159.75,181.9L160.88,179.69L163.13,177.53L164.25,172.52L165.38,170.54L166.5,171.38L168.75,175.77L169.88,167.62L171,163.52L172.13,166.67L173.25,171.04L174.38,171.11L175.5,167.27L176.63,168.06L177.75,169.86L178.88,166.36L181.13,154.71L182.25,151.66L183.38,150.39L184.5,131.68L185.63,129.5L186.75,133.66L187.88,139.39L189,136.42L190.13,92.53L191.25,94.84L192.38,90.15L193.5,93.08L194.63,93.91L195.75,28.64L196.88,29.98L198,24.39L199.13,20.72L200.25,304L203.63,19.14L204.75,28.78L205.88,43.94L207,173.48L208.13,166.1L209.25,152.3L210.38,23.97L211.5,24.65L213.75,16L214.88,22.83L216,28.46L217.13,28.32L219.38,31.45L220.5,36.69L221.63,39.85L222.75,38.38L225,40.72L226.13,37.91L227.25,303.87L228.38,35.55L229.5,31.74L230.63,32.58L231.75,33.03L232.88,32.14L235.13,20.51L236.25,28.16L239.63,28.71L240.75,25.6L241.88,33.95L243,35.15L244.13,36.39L245.25,41.05L246.38,40.15L247.5,36.99L248.63,24.99L249.75,149.72L250.88,150.28L252,151.82L253.13,157.21L254.25,154.42L255.38,155.4L256.5,154.13L257.63,151.27L258.75,151.11L259.88,149.89L261,150.09L262.13,147.79L263.25,148.91L264.38,155.78L265.5,149.68L266.63,154.86L267.75,164.67L268.88,163.47L270,173.95L272.25,179.46L273.38,179.25L274.5,180.62L275.63,185.29L276.75,187.71L277.88,187.82L279,187.83L280.13,186.76L282.38,186.83L283.5,187.63L284.63,188.82L285.75,188.36L286.88,189.04L288,185.76L289.13,184.53L290.25,192.56L293.63,191.5L294.75,188.73L295.88,190.16L297,189.44L298.13,203.5L299.25,198.22L300.38,195.14L301.5,195.31L302.63,195.45L303.75,198.2L304.88,195.7L306,198.08L307.13,200.73L308.25,200.95L309.38,206.44L310.5,206.29L311.63,207.36L312.75,205.44L313.88,208.16L315,208.61L316.13,213.77L317.25,212.1L319.5,212.42L320.63,211.26L321.75,208.78L322.88,209.25L325.13,207.85L326.25,206.95L328.5,209.17L329.63,232.68L330.75,249.06L331.88,251.9L333,249.71L334.13,255.92L335.25,254.93L336.38,255.4L337.5,255.85L338.63,257.22L339.75,256.34L340.88,256.5L342,257.44L343.13,257.04L344.25,256.92L345.38,257.79L346.5,256.77L347.63,257.31L348.75,257.19L349.88,260.21L351,264.17L352.13,264.38L353.25,265.15L354.38,267.8L357.75,268.64L358.88,269.48L362.25,269.24L363.38,269.21L364.5,269.07L365.63,271.18L370.13,271.66L371.25,271.78L374.63,272.09L375.75,273.59L378,273.69L379.13,272.79L383.63,276.08L384.75,276.51L387,278.11L388.13,278.03L396,278.57L397.13,278.74L400.5,278.66L401.63,279.4L405,279.57L406.13,281.76L409.5,282.04L410.63,282.18L412.88,282.58L414,283.15L421.88,282.65L423,282.55L432,283.49L433.13,282.96L437.63,282.73L438.75,282.96L444.38,283.36L445.5,283.9L447.75,284.04L448.88,285.68L456.75,285.9L457.88,286.22L464.63,284.5L465.75,284.7L479.25,283.89L480.38,285.82L493.88,286.97L495,286.19L499.5,286.26L500.63,286.59L510.75,285.35L511.88,284.46L513,284.47L514.13,285.84L515.25,284.44L516.38,285.28L518.63,285.13L519.75,284.73L522,285.18L523.13,285.37L526.5,285.23L527.63,288.97L531,289.31L532.13,289.31L536.63,290L537.75,290.25L540,290.22" style="fill: rgb(99, 110, 250); fill-opacity: 0.5; stroke-width: 0;"/></g></g><g class="errorbars"/><g class="lines"><path class="js-line" d="M0,279.79L1.13,269.52L2.25,270.84L4.5,255.61L5.63,256.67L6.75,256.07L7.88,259.6L9,239.77L10.13,237.78L11.25,236.21L12.38,232.43L13.5,233.67L14.63,236.27L15.75,231.01L16.88,230.32L18,229.45L19.13,225.28L20.25,225.79L21.38,221.5L22.5,221.73L23.63,216.87L25.88,204.34L27,207.15L30.38,194.01L31.5,193.05L33.75,201.93L34.88,198.84L36,199.63L37.13,203.65L38.25,212.78L39.38,215.68L40.5,219.22L41.63,219.51L43.88,217.43L45,218.4L46.13,227.59L47.25,225.74L48.38,227.66L49.5,227.18L51.75,228.63L52.88,224.85L54,222.58L55.13,222.73L56.25,221.86L57.38,219.75L58.5,221.17L59.63,218.85L60.75,214.06L61.88,213.22L65.25,206.65L66.38,210.37L67.5,214.38L68.63,222.88L69.75,230.36L70.88,227.56L72,226.57L73.13,229.95L75.38,229.22L76.5,228.13L79.88,227.36L81,221.26L84.38,231.11L85.5,229.79L88.88,230.15L90,231.17L91.13,232.36L92.25,229.91L93.38,225.82L94.5,227.41L95.63,221.33L96.75,222.13L97.88,221.62L99,222.49L100.13,221.09L101.25,224.78L102.38,223.92L103.5,225.57L105.75,227.55L106.88,227.05L108,225.59L109.13,225.69L110.25,226.78L111.38,229.62L112.5,231.15L113.63,231.02L114.75,232.32L115.88,230.92L117,230.52L118.13,231.03L119.25,230.9L120.38,228.29L121.5,228.53L122.63,231.03L123.75,227.69L124.88,228.16L126,227.16L127.13,227.63L128.25,225.82L129.38,225.64L131.63,225.12L132.75,222.91L133.88,223.48L135,222.28L136.13,222.66L137.25,219.83L139.5,216.3L140.63,210.15L142.88,214.54L144,215.09L145.13,213.57L146.25,210.79L147.38,208.79L148.5,203.61L149.63,200.94L150.75,196.24L151.88,196.19L153,192.76L155.25,194.45L156.38,184.78L157.5,184.26L158.63,180.6L159.75,181.9L160.88,179.69L163.13,177.53L164.25,172.52L165.38,170.54L166.5,171.38L168.75,175.77L169.88,167.62L171,163.52L172.13,166.67L173.25,171.04L174.38,171.11L175.5,167.27L176.63,168.06L177.75,169.86L178.88,166.36L181.13,154.71L182.25,151.66L183.38,150.39L184.5,131.68L185.63,129.5L186.75,133.66L187.88,139.39L189,136.42L190.13,92.53L191.25,94.84L192.38,90.15L193.5,93.08L194.63,93.91L195.75,28.64L196.88,29.98L198,24.39L199.13,20.72L200.25,304L203.63,19.14L204.75,28.78L205.88,43.94L207,173.48L208.13,166.1L209.25,152.3L210.38,23.97L211.5,24.65L213.75,16L214.88,22.83L216,28.46L217.13,28.32L219.38,31.45L220.5,36.69L221.63,39.85L222.75,38.38L225,40.72L226.13,37.91L227.25,303.87L228.38,35.55L229.5,31.74L230.63,32.58L231.75,33.03L232.88,32.14L235.13,20.51L236.25,28.16L239.63,28.71L240.75,25.6L241.88,33.95L243,35.15L244.13,36.39L245.25,41.05L246.38,40.15L247.5,36.99L248.63,24.99L249.75,149.72L250.88,150.28L252,151.82L253.13,157.21L254.25,154.42L255.38,155.4L256.5,154.13L257.63,151.27L258.75,151.11L259.88,149.89L261,150.09L262.13,147.79L263.25,148.91L264.38,155.78L265.5,149.68L266.63,154.86L267.75,164.67L268.88,163.47L270,173.95L272.25,179.46L273.38,179.25L274.5,180.62L275.63,185.29L276.75,187.71L277.88,187.82L279,187.83L280.13,186.76L282.38,186.83L283.5,187.63L284.63,188.82L285.75,188.36L286.88,189.04L288,185.76L289.13,184.53L290.25,192.56L293.63,191.5L294.75,188.73L295.88,190.16L297,189.44L298.13,203.5L299.25,198.22L300.38,195.14L301.5,195.31L302.63,195.45L303.75,198.2L304.88,195.7L306,198.08L307.13,200.73L308.25,200.95L309.38,206.44L310.5,206.29L311.63,207.36L312.75,205.44L313.88,208.16L315,208.61L316.13,213.77L317.25,212.1L319.5,212.42L320.63,211.26L321.75,208.78L322.88,209.25L325.13,207.85L326.25,206.95L328.5,209.17L329.63,232.68L330.75,249.06L331.88,251.9L333,249.71L334.13,255.92L335.25,254.93L336.38,255.4L337.5,255.85L338.63,257.22L339.75,256.34L340.88,256.5L342,257.44L343.13,257.04L344.25,256.92L345.38,257.79L346.5,256.77L347.63,257.31L348.75,257.19L349.88,260.21L351,264.17L352.13,264.38L353.25,265.15L354.38,267.8L357.75,268.64L358.88,269.48L362.25,269.24L363.38,269.21L364.5,269.07L365.63,271.18L370.13,271.66L371.25,271.78L374.63,272.09L375.75,273.59L378,273.69L379.13,272.79L383.63,276.08L384.75,276.51L387,278.11L388.13,278.03L396,278.57L397.13,278.74L400.5,278.66L401.63,279.4L405,279.57L406.13,281.76L409.5,282.04L410.63,282.18L412.88,282.58L414,283.15L421.88,282.65L423,282.55L432,283.49L433.13,282.96L437.63,282.73L438.75,282.96L444.38,283.36L445.5,283.9L447.75,284.04L448.88,285.68L456.75,285.9L457.88,286.22L464.63,284.5L465.75,284.7L479.25,283.89L480.38,285.82L493.88,286.97L495,286.19L499.5,286.26L500.63,286.59L510.75,285.35L511.88,284.46L513,284.47L514.13,285.84L515.25,284.44L516.38,285.28L518.63,285.13L519.75,284.73L522,285.18L523.13,285.37L526.5,285.23L527.63,288.97L531,289.31L532.13,289.31L536.63,290L537.75,290.25L540,290.22" style="vector-effect: none; fill: none; stroke: rgb(99, 110, 250); stroke-opacity: 1; stroke-width: 2px; opacity: 1;"/></g><g class="points"/><g class="text"/></g></g></g><g class="overplot"/><path class="xlines-above crisp" d="M0,0" style="fill: none;"/><path class="ylines-above crisp" d="M0,0" style="fill: none;"/><g class="overlines-above"/><g class="xaxislayer-above"><g class="xtick"><text text-anchor="middle" x="0" y="433" transform="translate(104.75,0)" style="font-family: 'Open Sans', verdana, arial, sans-serif; font-size: 12px; fill: rgb(42, 63, 95); fill-opacity: 1; white-space: pre; opacity: 1;">Oct 2022</text></g><g class="xtick"><text text-anchor="middle" x="0" y="433" style="font-family: 'Open Sans', verdana, arial, sans-serif; font-size: 12px; fill: rgb(42, 63, 95); fill-opacity: 1; white-space: pre; opacity: 1;" transform="translate(208.25,0)">Jan 2023</text></g><g class="xtick"><text text-anchor="middle" x="0" y="433" style="font-family: 'Open Sans', verdana, arial, sans-serif; font-size: 12px; fill: rgb(42, 63, 95); fill-opacity: 1; white-space: pre; opacity: 1;" transform="translate(309.5,0)">Apr 2023</text></g><g class="xtick"><text text-anchor="middle" x="0" y="433" style="font-family: 'Open Sans', verdana, arial, sans-serif; font-size: 12px; fill: rgb(42, 63, 95); fill-opacity: 1; white-space: pre; opacity: 1;" transform="translate(411.88,0)">Jul 2023</text></g><g class="xtick"><text text-anchor="middle" x="0" y="433" style="font-family: 'Open Sans', verdana, arial, sans-serif; font-size: 12px; fill: rgb(42, 63, 95); fill-opacity: 1; white-space: pre; opacity: 1;" transform="translate(515.38,0)">Oct 2023</text></g><g class="xtick"><text text-anchor="middle" x="0" y="433" style="font-family: 'Open Sans', verdana, arial, sans-serif; font-size: 12px; fill: rgb(42, 63, 95); fill-opacity: 1; white-space: pre; opacity: 1;" transform="translate(618.88,0)">Jan 2024</text></g></g><g class="yaxislayer-above"><g class="ytick"><text text-anchor="end" x="79" y="4.199999999999999" transform="translate(0,386.62)" style="font-family: 'Open Sans', verdana, arial, sans-serif; font-size: 12px; fill: rgb(42, 63, 95); fill-opacity: 1; white-space: pre; opacity: 1;">$0</text></g><g class="ytick"><text text-anchor="end" x="79" y="4.199999999999999" style="font-family: 'Open Sans', verdana, arial, sans-serif; font-size: 12px; fill: rgb(42, 63, 95); fill-opacity: 1; white-space: pre; opacity: 1;" transform="translate(0,339.59000000000003)">$1M</text></g><g class="ytick"><text text-anchor="end" x="79" y="4.199999999999999" style="font-family: 'Open Sans', verdana, arial, sans-serif; font-size: 12px; fill: rgb(42, 63, 95); fill-opacity: 1; white-space: pre; opacity: 1;" transform="translate(0,292.56)">$2M</text></g><g class="ytick"><text text-anchor="end" x="79" y="4.199999999999999" style="font-family: 'Open Sans', verdana, arial, sans-serif; font-size: 12px; fill: rgb(42, 63, 95); fill-opacity: 1; white-space: pre; opacity: 1;" transform="translate(0,245.54)">$3M</text></g><g class="ytick"><text text-anchor="end" x="79" y="4.199999999999999" style="font-family: 'Open Sans', verdana, arial, sans-serif; font-size: 12px; fill: rgb(42, 63, 95); fill-opacity: 1; white-space: pre; opacity: 1;" transform="translate(0,198.51)">$4M</text></g><g class="ytick"><text text-anchor="end" x="79" y="4.199999999999999" style="font-family: 'Open Sans', verdana, arial, sans-serif; font-size: 12px; fill: rgb(42, 63, 95); fill-opacity: 1; white-space: pre; opacity: 1;" transform="translate(0,151.48)">$5M</text></g><g class="ytick"><text text-anchor="end" x="79" y="4.199999999999999" style="font-family: 'Open Sans', verdana, arial, sans-serif; font-size: 12px; fill: rgb(42, 63, 95); fill-opacity: 1; white-space: pre; opacity: 1;" transform="translate(0,104.46)">$6M</text></g></g><g class="overaxes-above"/></g></g><g class="polarlayer"/><g class="smithlayer"/><g class="ternarylayer"/><g class="geolayer"/><g class="funnelarealayer"/><g class="pielayer"/><g class="iciclelayer"/><g class="treemaplayer"/><g class="sunburstlayer"/><g class="glimages"/><defs id="topdefs-f85ac8"><g class="clips"/></defs><g class="layer-above"><g class="imagelayer"/><g class="shapelayer"/></g><g class="infolayer"><g class="g-gtitle"><text class="gtitle" x="35" y="50" text-anchor="start" dy="0em" style="font-family: 'Open Sans', verdana, arial, sans-serif; font-size: 17px; fill: rgb(42, 63, 95); opacity: 1; font-weight: normal; white-space: pre;"><tspan class="line" dy="0em" x="35" y="50">Pickle - Pickle Finance</tspan><tspan class="line" dy="1.3em" x="35" y="50">​<tspan style="font-size:70%" dy="-0.6em">Cumulative Net Flows since Program Announcement, Until Program End + 30 Days - At Last Price</tspan><tspan dy="0.42em">​</tspan></tspan></text></g><g class="g-xtitle"><text class="xtitle" x="350" y="460.3" text-anchor="middle" style="font-family: 'Open Sans', verdana, arial, sans-serif; font-size: 14px; fill: rgb(42, 63, 95); opacity: 1; font-weight: normal; white-space: pre;">Day</text></g><g class="g-ytitle"><text class="ytitle" transform="rotate(-90,31.356250000000003,260)" x="31.356250000000003" y="260" text-anchor="middle" style="font-family: 'Open Sans', verdana, arial, sans-serif; font-size: 14px; fill: rgb(42, 63, 95); opacity: 1; font-weight: normal; white-space: pre;">Cumulative Net Flows (USD)</text></g></g></svg>