<svg class="main-svg" xmlns="http://www.w3.org/2000/svg" xmlns:xlink="http://www.w3.org/1999/xlink" width="700" height="500" style="" viewBox="0 0 700 500"><rect x="0" y="0" width="700" height="500" style="fill: rgb(255, 255, 255); fill-opacity: 1;"/><defs id="defs-bc334e"><g class="clips"><clipPath id="clipbc334exyplot" class="plotclip"><rect width="540" height="320"/></clipPath><clipPath class="axesclip" id="clipbc334ex"><rect x="80" y="0" width="540" height="500"/></clipPath><clipPath class="axesclip" id="clipbc334ey"><rect x="0" y="100" width="700" height="320"/></clipPath><clipPath class="axesclip" id="clipbc334exy"><rect x="80" y="100" width="540" height="320"/></clipPath></g><g class="gradients"/><g class="patterns"/></defs><g class="bglayer"><rect class="bg" x="80" y="100" width="540" height="320" style="fill: rgb(229, 236, 246); fill-opacity: 1; stroke-width: 0;"/></g><g class="layer-below"><g class="imagelayer"/><g class="shapelayer"/></g><g class="cartesianlayer"><g class="subplot xy"><g class="layer-subplot"><g class="shapelayer"/><g class="imagelayer"/></g><g class="minor-gridlayer"><g class="x"/><g class="y"/></g><g class="gridlayer"><g class="x"><path class="xgrid crisp" transform="translate(117.38,0)" d="M0,100v320" style="stroke: rgb(255, 255, 255); stroke-opacity: 1; stroke-width: 1px;"/><path class="xgrid crisp" transform="translate(212.92,0)" d="M0,100v320" style="stroke: rgb(255, 255, 255); stroke-opacity: 1; stroke-width: 1px;"/><path class="xgrid crisp" transform="translate(306.38,0)" d="M0,100v320" style="stroke: rgb(255, 255, 255); stroke-opacity: 1; stroke-width: 1px;"/><path class="xgrid crisp" transform="translate(400.88,0)" d="M0,100v320" style="stroke: rgb(255, 255, 255); stroke-opacity: 1; stroke-width: 1px;"/><path class="xgrid crisp" transform="translate(496.42,0)" d="M0,100v320" style="stroke: rgb(255, 255, 255); stroke-opacity: 1; stroke-width: 1px;"/><path class="xgrid crisp" transform="translate(591.96,0)" d="M0,100v320" style="stroke: rgb(255, 255, 255); stroke-opacity: 1; stroke-width: 1px;"/></g><g class="y"><path class="ygrid crisp" transform="translate(0,411.36)" d="M80,0h540" style="stroke: rgb(255, 255, 255); stroke-opacity: 1; stroke-width: 1px;"/><path class="ygrid crisp" transform="translate(0,353.03999999999996)" d="M80,0h540" style="stroke: rgb(255, 255, 255); stroke-opacity: 1; stroke-width: 1px;"/><path class="ygrid crisp" transform="translate(0,294.71000000000004)" d="M80,0h540" style="stroke: rgb(255, 255, 255); stroke-opacity: 1; stroke-width: 1px;"/><path class="ygrid crisp" transform="translate(0,236.38)" d="M80,0h540" style="stroke: rgb(255, 255, 255); stroke-opacity: 1; stroke-width: 1px;"/><path class="ygrid crisp" transform="translate(0,119.73)" d="M80,0h540" style="stroke: rgb(255, 255, 255); stroke-opacity: 1; stroke-width: 1px;"/></g></g><g class="zerolinelayer"><path class="yzl zl crisp" transform="translate(0,178.06)" d="M80,0h540" style="stroke: rgb(255, 255, 255); stroke-opacity: 1; stroke-width: 2px;"/></g><path class="xlines-below"/><path class="ylines-below"/><g class="overlines-below"/><g class="xaxislayer-below"/><g class="yaxislayer-below"/><g class="overaxes-below"/><g class="plot" transform="translate(80,100)" clip-path="url(#clipbc334exyplot)"><g class="scatterlayer mlayer"><g class="trace scatter trace6aaad6" style="stroke-miterlimit: 2;"><g class="fills"><g><path class="js-fill" d="M540,78.06L0,78.06L0,78.29L11.42,77.63L12.46,77.6L43.62,77.36L44.65,77.13L54,77.22L55.04,69.56L56.08,67.36L57.12,57.41L58.15,40.64L59.19,49.29L61.27,56.06L62.31,58.3L63.35,51.94L64.38,53.37L67.5,52.18L68.54,45.85L70.62,45.64L71.65,46.22L72.69,47.03L73.73,45.3L74.77,45.37L75.81,76.44L77.88,95.65L78.92,101.11L79.96,100.37L81,101.32L83.08,102.69L84.12,106.17L86.19,106.1L87.23,97.96L89.31,94.3L90.35,95.78L91.38,93.17L92.42,81.07L93.46,83.57L94.5,78.89L96.58,81.89L97.62,81.77L99.69,87L100.73,81.19L101.77,59L102.81,56.85L104.88,56.32L105.92,58.66L108,50.17L109.04,53.29L110.08,53.2L111.12,54.97L112.15,55.65L113.19,66.59L114.23,70.92L115.27,70.95L116.31,71.17L117.35,68.7L118.38,70.96L119.42,71.05L120.46,73.23L121.5,71.48L124.62,68.19L125.65,68.24L126.69,67.33L127.73,59.94L130.85,61.78L131.88,60.66L133.96,65.95L135,66.24L137.08,68.31L138.12,67.46L139.15,57.56L140.19,57.31L141.23,53.09L142.27,57.88L143.31,57.98L144.35,71.03L147.46,74.89L148.5,75.14L149.54,74.78L150.58,70.48L151.62,68.6L152.65,69.23L153.69,67.8L154.73,67.82L155.77,84.66L156.81,82L157.85,76.84L158.88,89.02L159.92,89.09L160.96,85.74L162,85.96L163.04,81.92L164.08,79.88L165.12,82.57L166.15,80.97L167.19,85.16L168.23,87.47L169.27,87.66L170.31,87.13L171.35,85.56L172.38,85.64L173.42,88.99L174.46,92.59L175.5,101.7L178.62,102.76L179.65,116.43L181.73,84.68L182.77,84.19L183.81,83.97L184.85,81.94L185.88,80.73L186.92,63.98L187.96,24.26L189,16L190.04,17.77L191.08,17.76L193.15,18.85L194.19,25.64L195.23,25.53L196.27,44.19L197.31,46.59L198.35,44.34L199.38,45.97L200.42,40.01L201.46,38.48L202.5,46.4L204.58,136.27L205.62,135.92L206.65,132.2L207.69,123.12L208.73,123.64L209.77,94.24L210.81,93.22L211.85,94.21L212.88,96.33L213.92,95.14L214.96,96.74L216,95.16L217.04,85.77L218.08,108.48L222.23,120.46L223.27,121.27L224.31,131.64L225.35,131.98L226.38,126.65L227.42,126.06L228.46,126.28L229.5,98.34L230.54,98.29L231.58,101.86L232.62,93.17L233.65,92.21L235.73,90.19L236.77,90.35L237.81,89.86L238.85,88.28L241.96,79.4L243,70.84L244.04,66.92L245.08,77.44L246.12,75.96L247.15,43.65L249.23,45.84L250.27,45.98L251.31,45.94L252.35,48.57L253.38,48.61L254.42,41.92L255.46,41.44L256.5,43.99L257.54,43.61L258.58,45.66L259.62,48.29L260.65,54.42L261.69,51.6L262.73,51.75L263.77,58.71L264.81,58.89L267.92,67.04L268.96,68.31L272.08,68.52L273.12,69.33L275.19,56.04L276.23,55.74L277.27,54.87L278.31,56.4L279.35,53.25L280.38,57.05L281.42,59.86L282.46,60.11L283.5,58.92L284.54,59.29L287.65,58.86L288.69,60.09L290.77,63.51L291.81,61.68L294.92,63.6L295.96,63.1L298.04,60.21L299.08,63.44L301.15,61.61L302.19,61.21L303.23,62.05L304.27,63.93L306.35,63.72L307.38,63.83L308.42,63.91L309.46,62.82L310.5,64.02L311.54,42.77L312.58,43.69L313.62,43.22L316.73,54.86L317.77,58.32L318.81,174.58L319.85,194.44L321.92,199.2L322.96,207.99L324,213.5L325.04,214.15L326.08,215.71L327.12,215.91L330.23,217.85L331.27,221.12L332.31,284.44L333.35,285.21L334.38,288.82L335.42,288.84L336.46,291.98L337.5,292.03L339.58,292.69L340.62,292.69L341.65,292.73L342.69,295.22L349.96,295.26L351,296.31L352.04,296.34L353.08,297.53L356.19,297.65L357.23,299.49L361.38,299.69L362.42,299.7L383.19,300.39L384.23,300.48L397.73,301.12L398.77,301.27L429.92,301.92L430.96,302.44L494.31,302.97L495.35,303.37L496.38,304L497.42,303.38L540,303.66" style="fill: rgb(99, 110, 250); fill-opacity: 0.5; stroke-width: 0;"/></g></g><g class="errorbars"/><g class="lines"><path class="js-line" d="M0,78.29L11.42,77.63L12.46,77.6L43.62,77.36L44.65,77.13L54,77.22L55.04,69.56L56.08,67.36L57.12,57.41L58.15,40.64L59.19,49.29L61.27,56.06L62.31,58.3L63.35,51.94L64.38,53.37L67.5,52.18L68.54,45.85L70.62,45.64L71.65,46.22L72.69,47.03L73.73,45.3L74.77,45.37L75.81,76.44L77.88,95.65L78.92,101.11L79.96,100.37L81,101.32L83.08,102.69L84.12,106.17L86.19,106.1L87.23,97.96L89.31,94.3L90.35,95.78L91.38,93.17L92.42,81.07L93.46,83.57L94.5,78.89L96.58,81.89L97.62,81.77L99.69,87L100.73,81.19L101.77,59L102.81,56.85L104.88,56.32L105.92,58.66L108,50.17L109.04,53.29L110.08,53.2L111.12,54.97L112.15,55.65L113.19,66.59L114.23,70.92L115.27,70.95L116.31,71.17L117.35,68.7L118.38,70.96L119.42,71.05L120.46,73.23L121.5,71.48L124.62,68.19L125.65,68.24L126.69,67.33L127.73,59.94L130.85,61.78L131.88,60.66L133.96,65.95L135,66.24L137.08,68.31L138.12,67.46L139.15,57.56L140.19,57.31L141.23,53.09L142.27,57.88L143.31,57.98L144.35,71.03L147.46,74.89L148.5,75.14L149.54,74.78L150.58,70.48L151.62,68.6L152.65,69.23L153.69,67.8L154.73,67.82L155.77,84.66L156.81,82L157.85,76.84L158.88,89.02L159.92,89.09L160.96,85.74L162,85.96L163.04,81.92L164.08,79.88L165.12,82.57L166.15,80.97L167.19,85.16L168.23,87.47L169.27,87.66L170.31,87.13L171.35,85.56L172.38,85.64L173.42,88.99L174.46,92.59L175.5,101.7L178.62,102.76L179.65,116.43L181.73,84.68L182.77,84.19L183.81,83.97L184.85,81.94L185.88,80.73L186.92,63.98L187.96,24.26L189,16L190.04,17.77L191.08,17.76L193.15,18.85L194.19,25.64L195.23,25.53L196.27,44.19L197.31,46.59L198.35,44.34L199.38,45.97L200.42,40.01L201.46,38.48L202.5,46.4L204.58,136.27L205.62,135.92L206.65,132.2L207.69,123.12L208.73,123.64L209.77,94.24L210.81,93.22L211.85,94.21L212.88,96.33L213.92,95.14L214.96,96.74L216,95.16L217.04,85.77L218.08,108.48L222.23,120.46L223.27,121.27L224.31,131.64L225.35,131.98L226.38,126.65L227.42,126.06L228.46,126.28L229.5,98.34L230.54,98.29L231.58,101.86L232.62,93.17L233.65,92.21L235.73,90.19L236.77,90.35L237.81,89.86L238.85,88.28L241.96,79.4L243,70.84L244.04,66.92L245.08,77.44L246.12,75.96L247.15,43.65L249.23,45.84L250.27,45.98L251.31,45.94L252.35,48.57L253.38,48.61L254.42,41.92L255.46,41.44L256.5,43.99L257.54,43.61L258.58,45.66L259.62,48.29L260.65,54.42L261.69,51.6L262.73,51.75L263.77,58.71L264.81,58.89L267.92,67.04L268.96,68.31L272.08,68.52L273.12,69.33L275.19,56.04L276.23,55.74L277.27,54.87L278.31,56.4L279.35,53.25L280.38,57.05L281.42,59.86L282.46,60.11L283.5,58.92L284.54,59.29L287.65,58.86L288.69,60.09L290.77,63.51L291.81,61.68L294.92,63.6L295.96,63.1L298.04,60.21L299.08,63.44L301.15,61.61L302.19,61.21L303.23,62.05L304.27,63.93L306.35,63.72L307.38,63.83L308.42,63.91L309.46,62.82L310.5,64.02L311.54,42.77L312.58,43.69L313.62,43.22L316.73,54.86L317.77,58.32L318.81,174.58L319.85,194.44L321.92,199.2L322.96,207.99L324,213.5L325.04,214.15L326.08,215.71L327.12,215.91L330.23,217.85L331.27,221.12L332.31,284.44L333.35,285.21L334.38,288.82L335.42,288.84L336.46,291.98L337.5,292.03L339.58,292.69L340.62,292.69L341.65,292.73L342.69,295.22L349.96,295.26L351,296.31L352.04,296.34L353.08,297.53L356.19,297.65L357.23,299.49L361.38,299.69L362.42,299.7L383.19,300.39L384.23,300.48L397.73,301.12L398.77,301.27L429.92,301.92L430.96,302.44L494.31,302.97L495.35,303.37L496.38,304L497.42,303.38L540,303.66" style="vector-effect: none; fill: none; stroke: rgb(99, 110, 250); stroke-opacity: 1; stroke-width: 2px; opacity: 1;"/></g><g class="points"/><g class="text"/></g></g></g><g class="overplot"/><path class="xlines-above crisp" d="M0,0" style="fill: none;"/><path class="ylines-above crisp" d="M0,0" style="fill: none;"/><g class="overlines-above"/><g class="xaxislayer-above"><g class="xtick"><text text-anchor="middle" x="0" y="433" transform="translate(117.38,0)" style="font-family: 'Open Sans', verdana, arial, sans-serif; font-size: 12px; fill: rgb(42, 63, 95); fill-opacity: 1; white-space: pre; opacity: 1;">Oct 2022</text></g><g class="xtick"><text text-anchor="middle" x="0" y="433" style="font-family: 'Open Sans', verdana, arial, sans-serif; font-size: 12px; fill: rgb(42, 63, 95); fill-opacity: 1; white-space: pre; opacity: 1;" transform="translate(212.92,0)">Jan 2023</text></g><g class="xtick"><text text-anchor="middle" x="0" y="433" style="font-family: 'Open Sans', verdana, arial, sans-serif; font-size: 12px; fill: rgb(42, 63, 95); fill-opacity: 1; white-space: pre; opacity: 1;" transform="translate(306.38,0)">Apr 2023</text></g><g class="xtick"><text text-anchor="middle" x="0" y="433" style="font-family: 'Open Sans', verdana, arial, sans-serif; font-size: 12px; fill: rgb(42, 63, 95); fill-opacity: 1; white-space: pre; opacity: 1;" transform="translate(400.88,0)">Jul 2023</text></g><g class="xtick"><text text-anchor="middle" x="0" y="433" style="font-family: 'Open Sans', verdana, arial, sans-serif; font-size: 12px; fill: rgb(42, 63, 95); fill-opacity: 1; white-space: pre; opacity: 1;" transform="translate(496.42,0)">Oct 2023</text></g><g class="xtick"><text text-anchor="middle" x="0" y="433" style="font-family: 'Open Sans', verdana, arial, sans-serif; font-size: 12px; fill: rgb(42, 63, 95); fill-opacity: 1; white-space: pre; opacity: 1;" transform="translate(591.96,0)">Jan 2024</text></g></g><g class="yaxislayer-above"><g class="ytick"><text text-anchor="end" x="79" y="4.199999999999999" transform="translate(0,411.36)" style="font-family: 'Open Sans', verdana, arial, sans-serif; font-size: 12px; fill: rgb(42, 63, 95); fill-opacity: 1; white-space: pre; opacity: 1;">$−8M</text></g><g class="ytick"><text text-anchor="end" x="79" y="4.199999999999999" style="font-family: 'Open Sans', verdana, arial, sans-serif; font-size: 12px; fill: rgb(42, 63, 95); fill-opacity: 1; white-space: pre; opacity: 1;" transform="translate(0,353.03999999999996)">$−6M</text></g><g class="ytick"><text text-anchor="end" x="79" y="4.199999999999999" style="font-family: 'Open Sans', verdana, arial, sans-serif; font-size: 12px; fill: rgb(42, 63, 95); fill-opacity: 1; white-space: pre; opacity: 1;" transform="translate(0,294.71000000000004)">$−4M</text></g><g class="ytick"><text text-anchor="end" x="79" y="4.199999999999999" style="font-family: 'Open Sans', verdana, arial, sans-serif; font-size: 12px; fill: rgb(42, 63, 95); fill-opacity: 1; white-space: pre; opacity: 1;" transform="translate(0,236.38)">$−2M</text></g><g class="ytick"><text text-anchor="end" x="79" y="4.199999999999999" style="font-family: 'Open Sans', verdana, arial, sans-serif; font-size: 12px; fill: rgb(42, 63, 95); fill-opacity: 1; white-space: pre; opacity: 1;" transform="translate(0,178.06)">$0</text></g><g class="ytick"><text text-anchor="end" x="79" y="4.199999999999999" style="font-family: 'Open Sans', verdana, arial, sans-serif; font-size: 12px; fill: rgb(42, 63, 95); fill-opacity: 1; white-space: pre; opacity: 1;" transform="translate(0,119.73)">$2M</text></g></g><g class="overaxes-above"/></g></g><g class="polarlayer"/><g class="smithlayer"/><g class="ternarylayer"/><g class="geolayer"/><g class="funnelarealayer"/><g class="pielayer"/><g class="iciclelayer"/><g class="treemaplayer"/><g class="sunburstlayer"/><g class="glimages"/><defs id="topdefs-bc334e"><g class="clips"/></defs><g class="layer-above"><g class="imagelayer"/><g class="shapelayer"/></g><g class="infolayer"><g class="g-gtitle"><text class="gtitle" x="35" y="50" text-anchor="start" dy="0em" style="font-family: 'Open Sans', verdana, arial, sans-serif; font-size: 17px; fill: rgb(42, 63, 95); opacity: 1; font-weight: normal; white-space: pre;"><tspan class="line" dy="0em" x="35" y="50">Qidao - sUSDC/MAI: Velodrome</tspan><tspan class="line" dy="1.3em" x="35" y="50">​<tspan style="font-size:70%" dy="-0.6em">Cumulative Net Flows since Program Announcement, Until Program End + 30 Days - At Last Price</tspan><tspan dy="0.42em">​</tspan></tspan></text></g><g class="g-xtitle"><text class="xtitle" x="350" y="460.3" text-anchor="middle" style="font-family: 'Open Sans', verdana, arial, sans-serif; font-size: 14px; fill: rgb(42, 63, 95); opacity: 1; font-weight: normal; white-space: pre;">Day</text></g><g class="g-ytitle"><text class="ytitle" transform="rotate(-90,24.340625000000003,260)" x="24.340625000000003" y="260" text-anchor="middle" style="font-family: 'Open Sans', verdana, arial, sans-serif; font-size: 14px; fill: rgb(42, 63, 95); opacity: 1; font-weight: normal; white-space: pre;">Cumulative Net Flows (USD)</text></g></g></svg>