<svg class="main-svg" xmlns="http://www.w3.org/2000/svg" xmlns:xlink="http://www.w3.org/1999/xlink" width="700" height="500" style="" viewBox="0 0 700 500"><rect x="0" y="0" width="700" height="500" style="fill: rgb(255, 255, 255); fill-opacity: 1;"/><defs id="defs-0c3424"><g class="clips"><clipPath id="clip0c3424xyplot" class="plotclip"><rect width="540" height="320"/></clipPath><clipPath class="axesclip" id="clip0c3424x"><rect x="80" y="0" width="540" height="500"/></clipPath><clipPath class="axesclip" id="clip0c3424y"><rect x="0" y="100" width="700" height="320"/></clipPath><clipPath class="axesclip" id="clip0c3424xy"><rect x="80" y="100" width="540" height="320"/></clipPath></g><g class="gradients"/><g class="patterns"/></defs><g class="bglayer"><rect class="bg" x="80" y="100" width="540" height="320" style="fill: rgb(229, 236, 246); fill-opacity: 1; stroke-width: 0;"/></g><g class="layer-below"><g class="imagelayer"/><g class="shapelayer"/></g><g class="cartesianlayer"><g class="subplot xy"><g class="layer-subplot"><g class="shapelayer"/><g class="imagelayer"/></g><g class="minor-gridlayer"><g class="x"/><g class="y"/></g><g class="gridlayer"><g class="x"><path class="xgrid crisp" transform="translate(157.35,0)" d="M0,100v320" style="stroke: rgb(255, 255, 255); stroke-opacity: 1; stroke-width: 1px;"/><path class="xgrid crisp" transform="translate(246.38,0)" d="M0,100v320" style="stroke: rgb(255, 255, 255); stroke-opacity: 1; stroke-width: 1px;"/><path class="xgrid crisp" transform="translate(332.49,0)" d="M0,100v320" style="stroke: rgb(255, 255, 255); stroke-opacity: 1; stroke-width: 1px;"/><path class="xgrid crisp" transform="translate(421.51,0)" d="M0,100v320" style="stroke: rgb(255, 255, 255); stroke-opacity: 1; stroke-width: 1px;"/><path class="xgrid crisp" transform="translate(510.54,0)" d="M0,100v320" style="stroke: rgb(255, 255, 255); stroke-opacity: 1; stroke-width: 1px;"/><path class="xgrid crisp" transform="translate(601.03,0)" d="M0,100v320" style="stroke: rgb(255, 255, 255); stroke-opacity: 1; stroke-width: 1px;"/></g><g class="y"><path class="ygrid crisp" transform="translate(0,362.66)" d="M80,0h540" style="stroke: rgb(255, 255, 255); stroke-opacity: 1; stroke-width: 1px;"/><path class="ygrid crisp" transform="translate(0,305.31)" d="M80,0h540" style="stroke: rgb(255, 255, 255); stroke-opacity: 1; stroke-width: 1px;"/><path class="ygrid crisp" transform="translate(0,247.97)" d="M80,0h540" style="stroke: rgb(255, 255, 255); stroke-opacity: 1; stroke-width: 1px;"/><path class="ygrid crisp" transform="translate(0,190.62)" d="M80,0h540" style="stroke: rgb(255, 255, 255); stroke-opacity: 1; stroke-width: 1px;"/><path class="ygrid crisp" transform="translate(0,133.28)" d="M80,0h540" style="stroke: rgb(255, 255, 255); stroke-opacity: 1; stroke-width: 1px;"/></g></g><g class="zerolinelayer"><path class="yzl zl crisp" transform="translate(0,420)" d="M80,0h540" style="stroke: rgb(255, 255, 255); stroke-opacity: 1; stroke-width: 2px;"/></g><path class="xlines-below"/><path class="ylines-below"/><g class="overlines-below"/><g class="xaxislayer-below"/><g class="yaxislayer-below"/><g class="overaxes-below"/><g class="plot" transform="translate(80,100)" clip-path="url(#clip0c3424xyplot)"><g class="scatterlayer mlayer"><g class="trace scatter tracecc41f6" style="stroke-miterlimit: 2;"><g class="fills"><g><path class="js-fill" d="M540,320L0,320L0,320L353.19,320L354.65,16L356.11,19.35L357.57,30.72L359.03,36.64L360.49,36.89L361.95,36.93L363.41,34.31L366.32,34.49L367.78,36.44L369.24,39.33L370.7,38.22L372.16,39.87L373.62,31.87L375.08,28.87L376.54,48.45L379.46,45.86L380.92,45.86L382.38,39.11L383.84,42.6L385.3,40.84L386.76,75.13L389.68,54.74L391.14,55.17L392.59,55.51L394.05,62.2L395.51,56.12L396.97,61.91L398.43,68.39L399.89,68.91L401.35,82.3L402.81,81.93L404.27,84.54L405.73,79.88L407.19,86.51L408.65,87.6L410.11,100.18L411.57,96.12L414.49,96.89L415.95,94.06L417.41,88.01L418.86,89.16L420.32,88.04L421.78,85.74L423.24,83.55L424.7,85.7L426.16,88.97L427.62,146.3L429.08,186.23L430.54,193.16L432,187.83L433.46,202.98L434.92,200.57L436.38,201.72L437.84,202.81L439.3,206.16L440.76,203.99L442.22,204.39L443.68,206.68L445.14,205.71L446.59,205.41L448.05,207.55L449.51,205.04L450.97,206.37L452.43,206.08L453.89,213.44L455.35,223.09L456.81,223.61L458.27,225.48L459.73,231.95L462.65,232.34L464.11,234L465.57,236.04L467.03,236.46L468.49,235.06L469.95,235.46L472.86,235.04L474.32,240.18L475.78,240.94L477.24,240.2L478.7,241.36L480.16,241.36L486,242.4L487.46,246.06L490.38,246.32L491.84,244.11L496.22,251.72L497.68,252.15L499.14,253.18L500.59,256.47L502.05,257.1L503.51,256.9L507.89,257.53L509.35,256.5L513.73,258.2L515.19,258.62L516.65,258.96L518.11,257.6L519.57,258.44L521.03,260.24L523.95,260.68L525.41,260.66L526.86,265.98L528.32,266.83L534.16,267.07L535.62,267.99L537.08,269.39L538.54,268.99L540,268.72" style="fill: rgb(99, 110, 250); fill-opacity: 0.5; stroke-width: 0;"/></g></g><g class="errorbars"/><g class="lines"><path class="js-line" d="M0,320L353.19,320L354.65,16L356.11,19.35L357.57,30.72L359.03,36.64L360.49,36.89L361.95,36.93L363.41,34.31L366.32,34.49L367.78,36.44L369.24,39.33L370.7,38.22L372.16,39.87L373.62,31.87L375.08,28.87L376.54,48.45L379.46,45.86L380.92,45.86L382.38,39.11L383.84,42.6L385.3,40.84L386.76,75.13L389.68,54.74L391.14,55.17L392.59,55.51L394.05,62.2L395.51,56.12L396.97,61.91L398.43,68.39L399.89,68.91L401.35,82.3L402.81,81.93L404.27,84.54L405.73,79.88L407.19,86.51L408.65,87.6L410.11,100.18L411.57,96.12L414.49,96.89L415.95,94.06L417.41,88.01L418.86,89.16L420.32,88.04L421.78,85.74L423.24,83.55L424.7,85.7L426.16,88.97L427.62,146.3L429.08,186.23L430.54,193.16L432,187.83L433.46,202.98L434.92,200.57L436.38,201.72L437.84,202.81L439.3,206.16L440.76,203.99L442.22,204.39L443.68,206.68L445.14,205.71L446.59,205.41L448.05,207.55L449.51,205.04L450.97,206.37L452.43,206.08L453.89,213.44L455.35,223.09L456.81,223.61L458.27,225.48L459.73,231.95L462.65,232.34L464.11,234L465.57,236.04L467.03,236.46L468.49,235.06L469.95,235.46L472.86,235.04L474.32,240.18L475.78,240.94L477.24,240.2L478.7,241.36L480.16,241.36L486,242.4L487.46,246.06L490.38,246.32L491.84,244.11L496.22,251.72L497.68,252.15L499.14,253.18L500.59,256.47L502.05,257.1L503.51,256.9L507.89,257.53L509.35,256.5L513.73,258.2L515.19,258.62L516.65,258.96L518.11,257.6L519.57,258.44L521.03,260.24L523.95,260.68L525.41,260.66L526.86,265.98L528.32,266.83L534.16,267.07L535.62,267.99L537.08,269.39L538.54,268.99L540,268.72" style="vector-effect: none; fill: none; stroke: rgb(99, 110, 250); stroke-opacity: 1; stroke-width: 2px; opacity: 1;"/></g><g class="points"/><g class="text"/></g></g></g><g class="overplot"/><path class="xlines-above crisp" d="M0,0" style="fill: none;"/><path class="ylines-above crisp" d="M0,0" style="fill: none;"/><g class="overlines-above"/><g class="xaxislayer-above"><g class="xtick"><text text-anchor="middle" x="0" y="433" transform="translate(157.35,0)" style="font-family: 'Open Sans', verdana, arial, sans-serif; font-size: 12px; fill: rgb(42, 63, 95); fill-opacity: 1; white-space: pre; opacity: 1;">Nov 2022</text></g><g class="xtick"><text text-anchor="middle" x="0" y="433" style="font-family: 'Open Sans', verdana, arial, sans-serif; font-size: 12px; fill: rgb(42, 63, 95); fill-opacity: 1; white-space: pre; opacity: 1;" transform="translate(246.38,0)">Jan 2023</text></g><g class="xtick"><text text-anchor="middle" x="0" y="433" style="font-family: 'Open Sans', verdana, arial, sans-serif; font-size: 12px; fill: rgb(42, 63, 95); fill-opacity: 1; white-space: pre; opacity: 1;" transform="translate(332.49,0)">Mar 2023</text></g><g class="xtick"><text text-anchor="middle" x="0" y="433" style="font-family: 'Open Sans', verdana, arial, sans-serif; font-size: 12px; fill: rgb(42, 63, 95); fill-opacity: 1; white-space: pre; opacity: 1;" transform="translate(421.51,0)">May 2023</text></g><g class="xtick"><text text-anchor="middle" x="0" y="433" style="font-family: 'Open Sans', verdana, arial, sans-serif; font-size: 12px; fill: rgb(42, 63, 95); fill-opacity: 1; white-space: pre; opacity: 1;" transform="translate(510.54,0)">Jul 2023</text></g><g class="xtick"><text text-anchor="middle" x="0" y="433" style="font-family: 'Open Sans', verdana, arial, sans-serif; font-size: 12px; fill: rgb(42, 63, 95); fill-opacity: 1; white-space: pre; opacity: 1;" transform="translate(601.03,0)">Sep 2023</text></g></g><g class="yaxislayer-above"><g class="ytick"><text text-anchor="end" x="79" y="4.199999999999999" transform="translate(0,420)" style="font-family: 'Open Sans', verdana, arial, sans-serif; font-size: 12px; fill: rgb(42, 63, 95); fill-opacity: 1; white-space: pre; opacity: 1;">$0</text></g><g class="ytick"><text text-anchor="end" x="79" y="4.199999999999999" style="font-family: 'Open Sans', verdana, arial, sans-serif; font-size: 12px; fill: rgb(42, 63, 95); fill-opacity: 1; white-space: pre; opacity: 1;" transform="translate(0,362.66)">$0.5M</text></g><g class="ytick"><text text-anchor="end" x="79" y="4.199999999999999" style="font-family: 'Open Sans', verdana, arial, sans-serif; font-size: 12px; fill: rgb(42, 63, 95); fill-opacity: 1; white-space: pre; opacity: 1;" transform="translate(0,305.31)">$1M</text></g><g class="ytick"><text text-anchor="end" x="79" y="4.199999999999999" style="font-family: 'Open Sans', verdana, arial, sans-serif; font-size: 12px; fill: rgb(42, 63, 95); fill-opacity: 1; white-space: pre; opacity: 1;" transform="translate(0,247.97)">$1.5M</text></g><g class="ytick"><text text-anchor="end" x="79" y="4.199999999999999" style="font-family: 'Open Sans', verdana, arial, sans-serif; font-size: 12px; fill: rgb(42, 63, 95); fill-opacity: 1; white-space: pre; opacity: 1;" transform="translate(0,190.62)">$2M</text></g><g class="ytick"><text text-anchor="end" x="79" y="4.199999999999999" style="font-family: 'Open Sans', verdana, arial, sans-serif; font-size: 12px; fill: rgb(42, 63, 95); fill-opacity: 1; white-space: pre; opacity: 1;" transform="translate(0,133.28)">$2.5M</text></g></g><g class="overaxes-above"/></g></g><g class="polarlayer"/><g class="smithlayer"/><g class="ternarylayer"/><g class="geolayer"/><g class="funnelarealayer"/><g class="pielayer"/><g class="iciclelayer"/><g class="treemaplayer"/><g class="sunburstlayer"/><g class="glimages"/><defs id="topdefs-0c3424"><g class="clips"/></defs><g class="layer-above"><g class="imagelayer"/><g class="shapelayer"/></g><g class="infolayer"><g class="g-gtitle"><text class="gtitle" x="35" y="50" text-anchor="start" dy="0em" style="font-family: 'Open Sans', verdana, arial, sans-serif; font-size: 17px; fill: rgb(42, 63, 95); opacity: 1; font-weight: normal; white-space: pre;"><tspan class="line" dy="0em" x="35" y="50">Pickle - Pickle Finance</tspan><tspan class="line" dy="1.3em" x="35" y="50">​<tspan style="font-size:70%" dy="-0.6em">Cumulative Net Flows since Program Announcement, Until Program End + 30 Days - At Last Price</tspan><tspan dy="0.42em">​</tspan></tspan></text></g><g class="g-xtitle"><text class="xtitle" x="350" y="460.3" text-anchor="middle" style="font-family: 'Open Sans', verdana, arial, sans-serif; font-size: 14px; fill: rgb(42, 63, 95); opacity: 1; font-weight: normal; white-space: pre;">Day</text></g><g class="g-ytitle"><text class="ytitle" transform="rotate(-90,21.340625000000003,260)" x="21.340625000000003" y="260" text-anchor="middle" style="font-family: 'Open Sans', verdana, arial, sans-serif; font-size: 14px; fill: rgb(42, 63, 95); opacity: 1; font-weight: normal; white-space: pre;">Cumulative Net Flows (USD)</text></g></g></svg>