<svg class="main-svg" xmlns="http://www.w3.org/2000/svg" xmlns:xlink="http://www.w3.org/1999/xlink" width="700" height="500" style="" viewBox="0 0 700 500"><rect x="0" y="0" width="700" height="500" style="fill: rgb(255, 255, 255); fill-opacity: 1;"/><defs id="defs-5de5ff"><g class="clips"><clipPath id="clip5de5ffxyplot" class="plotclip"><rect width="540" height="320"/></clipPath><clipPath class="axesclip" id="clip5de5ffx"><rect x="80" y="0" width="540" height="500"/></clipPath><clipPath class="axesclip" id="clip5de5ffy"><rect x="0" y="100" width="700" height="320"/></clipPath><clipPath class="axesclip" id="clip5de5ffxy"><rect x="80" y="100" width="540" height="320"/></clipPath></g><g class="gradients"/><g class="patterns"/></defs><g class="bglayer"><rect class="bg" x="80" y="100" width="540" height="320" style="fill: rgb(229, 236, 246); fill-opacity: 1; stroke-width: 0;"/></g><g class="layer-below"><g class="imagelayer"/><g class="shapelayer"/></g><g class="cartesianlayer"><g class="subplot xy"><g class="layer-subplot"><g class="shapelayer"/><g class="imagelayer"/></g><g class="minor-gridlayer"><g class="x"/><g class="y"/></g><g class="gridlayer"><g class="x"><path class="xgrid crisp" transform="translate(125.63,0)" d="M0,100v320" style="stroke: rgb(255, 255, 255); stroke-opacity: 1; stroke-width: 1px;"/><path class="xgrid crisp" transform="translate(241.62,0)" d="M0,100v320" style="stroke: rgb(255, 255, 255); stroke-opacity: 1; stroke-width: 1px;"/><path class="xgrid crisp" transform="translate(359.51,0)" d="M0,100v320" style="stroke: rgb(255, 255, 255); stroke-opacity: 1; stroke-width: 1px;"/><path class="xgrid crisp" transform="translate(475.49,0)" d="M0,100v320" style="stroke: rgb(255, 255, 255); stroke-opacity: 1; stroke-width: 1px;"/><path class="xgrid crisp" transform="translate(591.48,0)" d="M0,100v320" style="stroke: rgb(255, 255, 255); stroke-opacity: 1; stroke-width: 1px;"/></g><g class="y"><path class="ygrid crisp" transform="translate(0,305.88)" d="M80,0h540" style="stroke: rgb(255, 255, 255); stroke-opacity: 1; stroke-width: 1px;"/><path class="ygrid crisp" transform="translate(0,229.24)" d="M80,0h540" style="stroke: rgb(255, 255, 255); stroke-opacity: 1; stroke-width: 1px;"/><path class="ygrid crisp" transform="translate(0,152.61)" d="M80,0h540" style="stroke: rgb(255, 255, 255); stroke-opacity: 1; stroke-width: 1px;"/></g></g><g class="zerolinelayer"><path class="yzl zl crisp" transform="translate(0,382.51)" d="M80,0h540" style="stroke: rgb(255, 255, 255); stroke-opacity: 1; stroke-width: 2px;"/></g><path class="xlines-below"/><path class="ylines-below"/><g class="overlines-below"/><g class="xaxislayer-below"/><g class="yaxislayer-below"/><g class="overaxes-below"/><g class="plot" transform="translate(80,100)" clip-path="url(#clip5de5ffxyplot)"><g class="scatterlayer mlayer"><g class="trace scatter tracee7fe36" style="stroke-miterlimit: 2;"><g class="fills"><g><path class="js-fill" d="M540,282.51L0,282.51L0,120.75L1.9,124.8L3.8,137.05L5.7,140.74L7.61,147.59L9.51,148.33L11.41,131.15L15.21,110.81L17.11,82.06L20.92,65.03L22.82,64.72L24.72,43.08L26.62,37.25L32.32,19.09L34.23,21.51L36.13,19.79L38.03,19.87L39.93,16L41.83,30.18L43.73,30.61L45.63,35.13L47.54,35.27L49.44,38.05L53.24,35.46L55.14,44.32L57.04,44.72L58.94,47.08L60.85,53.25L62.75,54.06L64.65,53.76L66.55,50.03L68.45,48.15L70.35,49.72L72.25,48.11L74.15,48.11L76.06,48.4L77.96,39.32L81.76,38.34L83.66,38.12L87.46,38.35L89.37,38.25L91.27,35.6L93.17,34.81L95.07,34.77L96.97,42.32L98.87,38.01L100.77,44.14L102.68,60.9L104.58,59.43L106.48,51.12L108.38,51.28L110.28,50.5L112.18,58.93L114.08,43.24L115.99,41.22L117.89,57.27L119.79,58.84L121.69,80.45L123.59,84.73L127.39,86.03L129.3,87.37L131.2,89.84L133.1,90.07L135,88.34L136.9,88.45L140.7,88.89L142.61,85.63L144.51,127.49L146.41,129.84L150.21,131.02L152.11,132.72L155.92,154.29L157.82,223.25L159.72,235.3L161.62,262.2L165.42,265.73L167.32,266.29L171.13,267.19L173.03,268.65L174.93,268.89L176.83,293.82L182.54,294.71L184.44,296.05L188.24,296.88L190.14,297.01L199.65,297.5L201.55,298.44L209.15,299.12L211.06,299.23L224.37,300.35L226.27,300.94L266.2,301.17L268.1,303.1L270,301.41L271.9,301.44L306.13,301.8L308.03,303.28L309.93,303.28L311.83,301.84L321.34,301.86L323.24,303.31L325.14,301.86L327.04,301.86L328.94,303.31L330.85,301.87L357.46,302.05L359.37,303.41L361.27,303.41L363.17,302.01L365.07,303.42L366.97,302L372.68,302.07L374.58,303.52L376.48,302.02L378.38,302.02L384.08,302.1L385.99,303.64L387.89,302.24L389.79,302.24L391.69,303.66L393.59,302.24L401.2,302.28L403.1,303.68L405,302.21L406.9,303.68L408.8,302.21L410.7,302.21L420.21,302.55L422.11,303.78L424.01,302.53L425.92,303.22L532.39,303.57L534.3,304L536.2,303.59L538.1,303.99L540,303.59" style="fill: rgb(99, 110, 250); fill-opacity: 0.5; stroke-width: 0;"/></g></g><g class="errorbars"/><g class="lines"><path class="js-line" d="M0,120.75L1.9,124.8L3.8,137.05L5.7,140.74L7.61,147.59L9.51,148.33L11.41,131.15L15.21,110.81L17.11,82.06L20.92,65.03L22.82,64.72L24.72,43.08L26.62,37.25L32.32,19.09L34.23,21.51L36.13,19.79L38.03,19.87L39.93,16L41.83,30.18L43.73,30.61L45.63,35.13L47.54,35.27L49.44,38.05L53.24,35.46L55.14,44.32L57.04,44.72L58.94,47.08L60.85,53.25L62.75,54.06L64.65,53.76L66.55,50.03L68.45,48.15L70.35,49.72L72.25,48.11L74.15,48.11L76.06,48.4L77.96,39.32L81.76,38.34L83.66,38.12L87.46,38.35L89.37,38.25L91.27,35.6L93.17,34.81L95.07,34.77L96.97,42.32L98.87,38.01L100.77,44.14L102.68,60.9L104.58,59.43L106.48,51.12L108.38,51.28L110.28,50.5L112.18,58.93L114.08,43.24L115.99,41.22L117.89,57.27L119.79,58.84L121.69,80.45L123.59,84.73L127.39,86.03L129.3,87.37L131.2,89.84L133.1,90.07L135,88.34L136.9,88.45L140.7,88.89L142.61,85.63L144.51,127.49L146.41,129.84L150.21,131.02L152.11,132.72L155.92,154.29L157.82,223.25L159.72,235.3L161.62,262.2L165.42,265.73L167.32,266.29L171.13,267.19L173.03,268.65L174.93,268.89L176.83,293.82L182.54,294.71L184.44,296.05L188.24,296.88L190.14,297.01L199.65,297.5L201.55,298.44L209.15,299.12L211.06,299.23L224.37,300.35L226.27,300.94L266.2,301.17L268.1,303.1L270,301.41L271.9,301.44L306.13,301.8L308.03,303.28L309.93,303.28L311.83,301.84L321.34,301.86L323.24,303.31L325.14,301.86L327.04,301.86L328.94,303.31L330.85,301.87L357.46,302.05L359.37,303.41L361.27,303.41L363.17,302.01L365.07,303.42L366.97,302L372.68,302.07L374.58,303.52L376.48,302.02L378.38,302.02L384.08,302.1L385.99,303.64L387.89,302.24L389.79,302.24L391.69,303.66L393.59,302.24L401.2,302.28L403.1,303.68L405,302.21L406.9,303.68L408.8,302.21L410.7,302.21L420.21,302.55L422.11,303.78L424.01,302.53L425.92,303.22L532.39,303.57L534.3,304L536.2,303.59L538.1,303.99L540,303.59" style="vector-effect: none; fill: none; stroke: rgb(99, 110, 250); stroke-opacity: 1; stroke-width: 2px; opacity: 1;"/></g><g class="points"/><g class="text"/></g></g></g><g class="overplot"/><path class="xlines-above crisp" d="M0,0" style="fill: none;"/><path class="ylines-above crisp" d="M0,0" style="fill: none;"/><g class="overlines-above"/><g class="xaxislayer-above"><g class="xtick"><text text-anchor="middle" x="0" y="433" transform="translate(125.63,0)" style="font-family: 'Open Sans', verdana, arial, sans-serif; font-size: 12px; fill: rgb(42, 63, 95); fill-opacity: 1; white-space: pre; opacity: 1;">May 2023</text></g><g class="xtick"><text text-anchor="middle" x="0" y="433" style="font-family: 'Open Sans', verdana, arial, sans-serif; font-size: 12px; fill: rgb(42, 63, 95); fill-opacity: 1; white-space: pre; opacity: 1;" transform="translate(241.62,0)">Jul 2023</text></g><g class="xtick"><text text-anchor="middle" x="0" y="433" style="font-family: 'Open Sans', verdana, arial, sans-serif; font-size: 12px; fill: rgb(42, 63, 95); fill-opacity: 1; white-space: pre; opacity: 1;" transform="translate(359.51,0)">Sep 2023</text></g><g class="xtick"><text text-anchor="middle" x="0" y="433" style="font-family: 'Open Sans', verdana, arial, sans-serif; font-size: 12px; fill: rgb(42, 63, 95); fill-opacity: 1; white-space: pre; opacity: 1;" transform="translate(475.49,0)">Nov 2023</text></g><g class="xtick"><text text-anchor="middle" x="0" y="433" style="font-family: 'Open Sans', verdana, arial, sans-serif; font-size: 12px; fill: rgb(42, 63, 95); fill-opacity: 1; white-space: pre; opacity: 1;" transform="translate(591.48,0)">Jan 2024</text></g></g><g class="yaxislayer-above"><g class="ytick"><text text-anchor="end" x="79" y="4.199999999999999" transform="translate(0,382.51)" style="font-family: 'Open Sans', verdana, arial, sans-serif; font-size: 12px; fill: rgb(42, 63, 95); fill-opacity: 1; white-space: pre; opacity: 1;">$0</text></g><g class="ytick"><text text-anchor="end" x="79" y="4.199999999999999" style="font-family: 'Open Sans', verdana, arial, sans-serif; font-size: 12px; fill: rgb(42, 63, 95); fill-opacity: 1; white-space: pre; opacity: 1;" transform="translate(0,305.88)">$5M</text></g><g class="ytick"><text text-anchor="end" x="79" y="4.199999999999999" style="font-family: 'Open Sans', verdana, arial, sans-serif; font-size: 12px; fill: rgb(42, 63, 95); fill-opacity: 1; white-space: pre; opacity: 1;" transform="translate(0,229.24)">$10M</text></g><g class="ytick"><text text-anchor="end" x="79" y="4.199999999999999" style="font-family: 'Open Sans', verdana, arial, sans-serif; font-size: 12px; fill: rgb(42, 63, 95); fill-opacity: 1; white-space: pre; opacity: 1;" transform="translate(0,152.61)">$15M</text></g></g><g class="overaxes-above"/></g></g><g class="polarlayer"/><g class="smithlayer"/><g class="ternarylayer"/><g class="geolayer"/><g class="funnelarealayer"/><g class="pielayer"/><g class="iciclelayer"/><g class="treemaplayer"/><g class="sunburstlayer"/><g class="glimages"/><defs id="topdefs-5de5ff"><g class="clips"/></defs><g class="layer-above"><g class="imagelayer"/><g class="shapelayer"/></g><g class="infolayer"><g class="g-gtitle"><text class="gtitle" x="35" y="50" text-anchor="start" dy="0em" style="font-family: 'Open Sans', verdana, arial, sans-serif; font-size: 17px; fill: rgb(42, 63, 95); opacity: 1; font-weight: normal; white-space: pre;"><tspan class="line" dy="0em" x="35" y="50">Lido - All Lido Velo Pools</tspan><tspan class="line" dy="1.3em" x="35" y="50">​<tspan style="font-size:70%" dy="-0.6em">Cumulative Net Flows since Program Announcement, Until Program End + 30 Days - At Last Price</tspan><tspan dy="0.42em">​</tspan></tspan></text></g><g class="g-xtitle"><text class="xtitle" x="350" y="460.3" text-anchor="middle" style="font-family: 'Open Sans', verdana, arial, sans-serif; font-size: 14px; fill: rgb(42, 63, 95); opacity: 1; font-weight: normal; white-space: pre;">Day</text></g><g class="g-ytitle"><text class="ytitle" transform="rotate(-90,24.668750000000003,260)" x="24.668750000000003" y="260" text-anchor="middle" style="font-family: 'Open Sans', verdana, arial, sans-serif; font-size: 14px; fill: rgb(42, 63, 95); opacity: 1; font-weight: normal; white-space: pre;">Cumulative Net Flows (USD)</text></g></g></svg>