<svg class="main-svg" xmlns="http://www.w3.org/2000/svg" xmlns:xlink="http://www.w3.org/1999/xlink" width="700" height="500" style="" viewBox="0 0 700 500"><rect x="0" y="0" width="700" height="500" style="fill: rgb(255, 255, 255); fill-opacity: 1;"/><defs id="defs-dc882e"><g class="clips"><clipPath id="clipdc882exyplot" class="plotclip"><rect width="540" height="320"/></clipPath><clipPath class="axesclip" id="clipdc882ex"><rect x="80" y="0" width="540" height="500"/></clipPath><clipPath class="axesclip" id="clipdc882ey"><rect x="0" y="100" width="700" height="320"/></clipPath><clipPath class="axesclip" id="clipdc882exy"><rect x="80" y="100" width="540" height="320"/></clipPath></g><g class="gradients"/><g class="patterns"/></defs><g class="bglayer"><rect class="bg" x="80" y="100" width="540" height="320" style="fill: rgb(229, 236, 246); fill-opacity: 1; stroke-width: 0;"/></g><g class="layer-below"><g class="imagelayer"/><g class="shapelayer"/></g><g class="cartesianlayer"><g class="subplot xy"><g class="layer-subplot"><g class="shapelayer"/><g class="imagelayer"/></g><g class="minor-gridlayer"><g class="x"/><g class="y"/></g><g class="gridlayer"><g class="x"><path class="xgrid crisp" transform="translate(87.81,0)" d="M0,100v320" style="stroke: rgb(255, 255, 255); stroke-opacity: 1; stroke-width: 1px;"/><path class="xgrid crisp" transform="translate(167.18,0)" d="M0,100v320" style="stroke: rgb(255, 255, 255); stroke-opacity: 1; stroke-width: 1px;"/><path class="xgrid crisp" transform="translate(246.55,0)" d="M0,100v320" style="stroke: rgb(255, 255, 255); stroke-opacity: 1; stroke-width: 1px;"/><path class="xgrid crisp" transform="translate(323.33000000000004,0)" d="M0,100v320" style="stroke: rgb(255, 255, 255); stroke-opacity: 1; stroke-width: 1px;"/><path class="xgrid crisp" transform="translate(402.7,0)" d="M0,100v320" style="stroke: rgb(255, 255, 255); stroke-opacity: 1; stroke-width: 1px;"/><path class="xgrid crisp" transform="translate(482.07,0)" d="M0,100v320" style="stroke: rgb(255, 255, 255); stroke-opacity: 1; stroke-width: 1px;"/><path class="xgrid crisp" transform="translate(562.75,0)" d="M0,100v320" style="stroke: rgb(255, 255, 255); stroke-opacity: 1; stroke-width: 1px;"/></g><g class="y"><path class="ygrid crisp" transform="translate(0,333.03999999999996)" d="M80,0h540" style="stroke: rgb(255, 255, 255); stroke-opacity: 1; stroke-width: 1px;"/><path class="ygrid crisp" transform="translate(0,287.07)" d="M80,0h540" style="stroke: rgb(255, 255, 255); stroke-opacity: 1; stroke-width: 1px;"/><path class="ygrid crisp" transform="translate(0,241.1)" d="M80,0h540" style="stroke: rgb(255, 255, 255); stroke-opacity: 1; stroke-width: 1px;"/><path class="ygrid crisp" transform="translate(0,195.13)" d="M80,0h540" style="stroke: rgb(255, 255, 255); stroke-opacity: 1; stroke-width: 1px;"/><path class="ygrid crisp" transform="translate(0,149.17000000000002)" d="M80,0h540" style="stroke: rgb(255, 255, 255); stroke-opacity: 1; stroke-width: 1px;"/><path class="ygrid crisp" transform="translate(0,103.2)" d="M80,0h540" style="stroke: rgb(255, 255, 255); stroke-opacity: 1; stroke-width: 1px;"/></g></g><g class="zerolinelayer"><path class="yzl zl crisp" transform="translate(0,379)" d="M80,0h540" style="stroke: rgb(255, 255, 255); stroke-opacity: 1; stroke-width: 2px;"/></g><path class="xlines-below"/><path class="ylines-below"/><g class="overlines-below"/><g class="xaxislayer-below"/><g class="yaxislayer-below"/><g class="overaxes-below"/><g class="plot" transform="translate(80,100)" clip-path="url(#clipdc882exyplot)"><g class="scatterlayer mlayer"><g class="trace scatter trace4f3155" style="stroke-miterlimit: 2;"><g class="fills"><g><path class="js-fill" d="M540,279L0,279L0,278.83L76.77,278.61L78.07,285.54L79.37,283.08L80.67,283.09L96.29,282.91L97.59,283.03L104.1,283L105.4,287.33L111.9,287.34L113.2,281.55L114.51,302.81L115.81,297.95L118.41,297.05L119.71,292.92L121.01,292.92L122.31,289.66L124.92,289.65L126.22,294.93L127.52,294.99L128.82,294.04L130.12,293.94L131.42,292.21L140.53,292.06L141.83,284.32L143.13,291.27L144.43,291.26L150.94,291.33L152.24,291.32L162.65,290.74L163.95,290.75L174.36,291.24L175.66,291.21L176.96,291.21L178.27,286.25L179.57,286.25L180.87,293.74L182.17,293.72L183.47,292.68L186.07,291.99L187.37,291.99L191.28,291.84L192.58,286.26L193.88,286.26L195.18,288.19L197.78,286.94L199.08,286.69L200.39,287.24L201.69,286.27L205.59,286.3L206.89,286.3L208.19,282.84L209.49,282.84L213.4,282.75L214.7,278.17L216,273.21L217.3,276.55L218.6,271.96L219.9,271.01L222.51,271.01L223.81,272.2L227.71,270.51L229.01,266.61L230.31,266.6L231.61,262.95L232.92,262.95L234.22,256.83L236.82,241.75L238.12,241.95L239.42,228.78L240.72,228.85L243.33,228.18L244.63,223.59L245.93,226.39L247.23,235.55L248.53,236.93L249.83,236.46L251.13,235.31L252.43,238.59L253.73,241.12L255.04,252.08L256.34,290.04L257.64,277.41L258.94,271.17L260.24,248.14L261.54,236.61L262.84,247.9L264.14,234.46L265.45,234.92L266.75,224.41L268.05,224.41L269.35,222.06L270.65,233.31L271.95,235.86L273.25,235.86L274.55,247.34L275.86,247.34L277.16,233.4L278.46,231.26L279.76,247.28L281.06,237.34L288.87,237.28L290.17,253.93L291.47,269.53L292.77,272.7L294.07,272.8L295.37,277.25L296.67,279.27L297.98,279.29L301.88,279.92L303.18,284.05L304.48,280.51L305.78,284.3L307.08,16L308.39,16L309.69,288.19L310.99,288.19L312.29,297.39L313.59,297.39L321.4,297.39L322.7,298.44L325.3,298.59L326.6,300.89L346.12,300.91L347.42,304L350.02,300.91L351.33,300.91L353.93,300.91L355.23,304L356.53,300.91L357.83,300.91L364.34,301.38L365.64,301.38L383.86,301.62L385.16,303.99L386.46,301.62L387.76,301.62L396.87,301.63L398.17,302.6L437.2,303.33L438.51,303.37L540,303.82" style="fill: rgb(99, 110, 250); fill-opacity: 0.5; stroke-width: 0;"/></g></g><g class="errorbars"/><g class="lines"><path class="js-line" d="M0,278.83L76.77,278.61L78.07,285.54L79.37,283.08L80.67,283.09L96.29,282.91L97.59,283.03L104.1,283L105.4,287.33L111.9,287.34L113.2,281.55L114.51,302.81L115.81,297.95L118.41,297.05L119.71,292.92L121.01,292.92L122.31,289.66L124.92,289.65L126.22,294.93L127.52,294.99L128.82,294.04L130.12,293.94L131.42,292.21L140.53,292.06L141.83,284.32L143.13,291.27L144.43,291.26L150.94,291.33L152.24,291.32L162.65,290.74L163.95,290.75L174.36,291.24L175.66,291.21L176.96,291.21L178.27,286.25L179.57,286.25L180.87,293.74L182.17,293.72L183.47,292.68L186.07,291.99L187.37,291.99L191.28,291.84L192.58,286.26L193.88,286.26L195.18,288.19L197.78,286.94L199.08,286.69L200.39,287.24L201.69,286.27L205.59,286.3L206.89,286.3L208.19,282.84L209.49,282.84L213.4,282.75L214.7,278.17L216,273.21L217.3,276.55L218.6,271.96L219.9,271.01L222.51,271.01L223.81,272.2L227.71,270.51L229.01,266.61L230.31,266.6L231.61,262.95L232.92,262.95L234.22,256.83L236.82,241.75L238.12,241.95L239.42,228.78L240.72,228.85L243.33,228.18L244.63,223.59L245.93,226.39L247.23,235.55L248.53,236.93L249.83,236.46L251.13,235.31L252.43,238.59L253.73,241.12L255.04,252.08L256.34,290.04L257.64,277.41L258.94,271.17L260.24,248.14L261.54,236.61L262.84,247.9L264.14,234.46L265.45,234.92L266.75,224.41L268.05,224.41L269.35,222.06L270.65,233.31L271.95,235.86L273.25,235.86L274.55,247.34L275.86,247.34L277.16,233.4L278.46,231.26L279.76,247.28L281.06,237.34L288.87,237.28L290.17,253.93L291.47,269.53L292.77,272.7L294.07,272.8L295.37,277.25L296.67,279.27L297.98,279.29L301.88,279.92L303.18,284.05L304.48,280.51L305.78,284.3L307.08,16L308.39,16L309.69,288.19L310.99,288.19L312.29,297.39L313.59,297.39L321.4,297.39L322.7,298.44L325.3,298.59L326.6,300.89L346.12,300.91L347.42,304L350.02,300.91L351.33,300.91L353.93,300.91L355.23,304L356.53,300.91L357.83,300.91L364.34,301.38L365.64,301.38L383.86,301.62L385.16,303.99L386.46,301.62L387.76,301.62L396.87,301.63L398.17,302.6L437.2,303.33L438.51,303.37L540,303.82" style="vector-effect: none; fill: none; stroke: rgb(99, 110, 250); stroke-opacity: 1; stroke-width: 2px; opacity: 1;"/></g><g class="points"/><g class="text"/></g></g></g><g class="overplot"/><path class="xlines-above crisp" d="M0,0" style="fill: none;"/><path class="ylines-above crisp" d="M0,0" style="fill: none;"/><g class="overlines-above"/><g class="xaxislayer-above"><g class="xtick"><text text-anchor="middle" x="0" y="433" transform="translate(87.81,0)" style="font-family: 'Open Sans', verdana, arial, sans-serif; font-size: 12px; fill: rgb(42, 63, 95); fill-opacity: 1; white-space: pre; opacity: 1;">Sep 2022</text></g><g class="xtick"><text text-anchor="middle" x="0" y="433" style="font-family: 'Open Sans', verdana, arial, sans-serif; font-size: 12px; fill: rgb(42, 63, 95); fill-opacity: 1; white-space: pre; opacity: 1;" transform="translate(167.18,0)">Nov 2022</text></g><g class="xtick"><text text-anchor="middle" x="0" y="433" style="font-family: 'Open Sans', verdana, arial, sans-serif; font-size: 12px; fill: rgb(42, 63, 95); fill-opacity: 1; white-space: pre; opacity: 1;" transform="translate(246.55,0)">Jan 2023</text></g><g class="xtick"><text text-anchor="middle" x="0" y="433" style="font-family: 'Open Sans', verdana, arial, sans-serif; font-size: 12px; fill: rgb(42, 63, 95); fill-opacity: 1; white-space: pre; opacity: 1;" transform="translate(323.33000000000004,0)">Mar 2023</text></g><g class="xtick"><text text-anchor="middle" x="0" y="433" style="font-family: 'Open Sans', verdana, arial, sans-serif; font-size: 12px; fill: rgb(42, 63, 95); fill-opacity: 1; white-space: pre; opacity: 1;" transform="translate(402.7,0)">May 2023</text></g><g class="xtick"><text text-anchor="middle" x="0" y="433" style="font-family: 'Open Sans', verdana, arial, sans-serif; font-size: 12px; fill: rgb(42, 63, 95); fill-opacity: 1; white-space: pre; opacity: 1;" transform="translate(482.07,0)">Jul 2023</text></g><g class="xtick"><text text-anchor="middle" x="0" y="433" style="font-family: 'Open Sans', verdana, arial, sans-serif; font-size: 12px; fill: rgb(42, 63, 95); fill-opacity: 1; white-space: pre; opacity: 1;" transform="translate(562.75,0)">Sep 2023</text></g></g><g class="yaxislayer-above"><g class="ytick"><text text-anchor="end" x="79" y="4.199999999999999" transform="translate(0,379)" style="font-family: 'Open Sans', verdana, arial, sans-serif; font-size: 12px; fill: rgb(42, 63, 95); fill-opacity: 1; white-space: pre; opacity: 1;">$0</text></g><g class="ytick"><text text-anchor="end" x="79" y="4.199999999999999" style="font-family: 'Open Sans', verdana, arial, sans-serif; font-size: 12px; fill: rgb(42, 63, 95); fill-opacity: 1; white-space: pre; opacity: 1;" transform="translate(0,333.03999999999996)">$0.2M</text></g><g class="ytick"><text text-anchor="end" x="79" y="4.199999999999999" style="font-family: 'Open Sans', verdana, arial, sans-serif; font-size: 12px; fill: rgb(42, 63, 95); fill-opacity: 1; white-space: pre; opacity: 1;" transform="translate(0,287.07)">$0.4M</text></g><g class="ytick"><text text-anchor="end" x="79" y="4.199999999999999" style="font-family: 'Open Sans', verdana, arial, sans-serif; font-size: 12px; fill: rgb(42, 63, 95); fill-opacity: 1; white-space: pre; opacity: 1;" transform="translate(0,241.1)">$0.6M</text></g><g class="ytick"><text text-anchor="end" x="79" y="4.199999999999999" style="font-family: 'Open Sans', verdana, arial, sans-serif; font-size: 12px; fill: rgb(42, 63, 95); fill-opacity: 1; white-space: pre; opacity: 1;" transform="translate(0,195.13)">$0.8M</text></g><g class="ytick"><text text-anchor="end" x="79" y="4.199999999999999" style="font-family: 'Open Sans', verdana, arial, sans-serif; font-size: 12px; fill: rgb(42, 63, 95); fill-opacity: 1; white-space: pre; opacity: 1;" transform="translate(0,149.17000000000002)">$1M</text></g><g class="ytick"><text text-anchor="end" x="79" y="4.199999999999999" style="font-family: 'Open Sans', verdana, arial, sans-serif; font-size: 12px; fill: rgb(42, 63, 95); fill-opacity: 1; white-space: pre; opacity: 1;" transform="translate(0,103.2)">$1.2M</text></g></g><g class="overaxes-above"/></g></g><g class="polarlayer"/><g class="smithlayer"/><g class="ternarylayer"/><g class="geolayer"/><g class="funnelarealayer"/><g class="pielayer"/><g class="iciclelayer"/><g class="treemaplayer"/><g class="sunburstlayer"/><g class="glimages"/><defs id="topdefs-dc882e"><g class="clips"/></defs><g class="layer-above"><g class="imagelayer"/><g class="shapelayer"/></g><g class="infolayer"><g class="g-gtitle"><text class="gtitle" x="35" y="50" text-anchor="start" dy="0em" style="font-family: 'Open Sans', verdana, arial, sans-serif; font-size: 17px; fill: rgb(42, 63, 95); opacity: 1; font-weight: normal; white-space: pre;"><tspan class="line" dy="0em" x="35" y="50">Qidao - vUSDC/MAI: Velodrome</tspan><tspan class="line" dy="1.3em" x="35" y="50">​<tspan style="font-size:70%" dy="-0.6em">Cumulative Net Flows since Program Announcement, Until Program End + 30 Days - At Last Price</tspan><tspan dy="0.42em">​</tspan></tspan></text></g><g class="g-xtitle"><text class="xtitle" x="350" y="460.3" text-anchor="middle" style="font-family: 'Open Sans', verdana, arial, sans-serif; font-size: 14px; fill: rgb(42, 63, 95); opacity: 1; font-weight: normal; white-space: pre;">Day</text></g><g class="g-ytitle"><text class="ytitle" transform="rotate(-90,21.340625000000003,260)" x="21.340625000000003" y="260" text-anchor="middle" style="font-family: 'Open Sans', verdana, arial, sans-serif; font-size: 14px; fill: rgb(42, 63, 95); opacity: 1; font-weight: normal; white-space: pre;">Cumulative Net Flows (USD)</text></g></g></svg>