<svg class="main-svg" xmlns="http://www.w3.org/2000/svg" xmlns:xlink="http://www.w3.org/1999/xlink" width="700" height="500" style="" viewBox="0 0 700 500"><rect x="0" y="0" width="700" height="500" style="fill: rgb(255, 255, 255); fill-opacity: 1;"/><defs id="defs-8348e9"><g class="clips"><clipPath id="clip8348e9xyplot" class="plotclip"><rect width="540" height="320"/></clipPath><clipPath class="axesclip" id="clip8348e9x"><rect x="80" y="0" width="540" height="500"/></clipPath><clipPath class="axesclip" id="clip8348e9y"><rect x="0" y="100" width="700" height="320"/></clipPath><clipPath class="axesclip" id="clip8348e9xy"><rect x="80" y="100" width="540" height="320"/></clipPath></g><g class="gradients"/><g class="patterns"/></defs><g class="bglayer"><rect class="bg" x="80" y="100" width="540" height="320" style="fill: rgb(229, 236, 246); fill-opacity: 1; stroke-width: 0;"/></g><g class="layer-below"><g class="imagelayer"/><g class="shapelayer"/></g><g class="cartesianlayer"><g class="subplot xy"><g class="layer-subplot"><g class="shapelayer"/><g class="imagelayer"/></g><g class="minor-gridlayer"><g class="x"/><g class="y"/></g><g class="gridlayer"><g class="x"><path class="xgrid crisp" transform="translate(90.03999999999999,0)" d="M0,100v320" style="stroke: rgb(255, 255, 255); stroke-opacity: 1; stroke-width: 1px;"/><path class="xgrid crisp" transform="translate(192.69,0)" d="M0,100v320" style="stroke: rgb(255, 255, 255); stroke-opacity: 1; stroke-width: 1px;"/><path class="xgrid crisp" transform="translate(293.1,0)" d="M0,100v320" style="stroke: rgb(255, 255, 255); stroke-opacity: 1; stroke-width: 1px;"/><path class="xgrid crisp" transform="translate(394.63,0)" d="M0,100v320" style="stroke: rgb(255, 255, 255); stroke-opacity: 1; stroke-width: 1px;"/><path class="xgrid crisp" transform="translate(497.27,0)" d="M0,100v320" style="stroke: rgb(255, 255, 255); stroke-opacity: 1; stroke-width: 1px;"/><path class="xgrid crisp" transform="translate(599.92,0)" d="M0,100v320" style="stroke: rgb(255, 255, 255); stroke-opacity: 1; stroke-width: 1px;"/></g><g class="y"><path class="ygrid crisp" transform="translate(0,339.37)" d="M80,0h540" style="stroke: rgb(255, 255, 255); stroke-opacity: 1; stroke-width: 1px;"/><path class="ygrid crisp" transform="translate(0,289.95)" d="M80,0h540" style="stroke: rgb(255, 255, 255); stroke-opacity: 1; stroke-width: 1px;"/><path class="ygrid crisp" transform="translate(0,240.52)" d="M80,0h540" style="stroke: rgb(255, 255, 255); stroke-opacity: 1; stroke-width: 1px;"/><path class="ygrid crisp" transform="translate(0,191.1)" d="M80,0h540" style="stroke: rgb(255, 255, 255); stroke-opacity: 1; stroke-width: 1px;"/><path class="ygrid crisp" transform="translate(0,141.68)" d="M80,0h540" style="stroke: rgb(255, 255, 255); stroke-opacity: 1; stroke-width: 1px;"/></g></g><g class="zerolinelayer"><path class="yzl zl crisp" transform="translate(0,388.79)" d="M80,0h540" style="stroke: rgb(255, 255, 255); stroke-opacity: 1; stroke-width: 2px;"/></g><path class="xlines-below"/><path class="ylines-below"/><g class="overlines-below"/><g class="xaxislayer-below"/><g class="yaxislayer-below"/><g class="overaxes-below"/><g class="plot" transform="translate(80,100)" clip-path="url(#clip8348e9xyplot)"><g class="scatterlayer mlayer"><g class="trace scatter trace6d777a" style="stroke-miterlimit: 2;"><g class="fills"><g><path class="js-fill" d="M540,288.79L0,288.79L0,284.29L1.12,278.12L2.23,279.39L3.35,277.82L4.46,285.87L5.58,280.19L6.69,278.64L7.81,278.73L8.93,273.51L10.04,284.35L11.16,275.46L12.27,269.51L13.39,270.73L14.5,274.12L15.62,268.85L16.74,269.17L17.85,265.21L18.97,265.31L20.08,268.54L21.2,266.5L22.31,266.87L23.43,271.24L24.55,268.77L25.66,268.45L26.78,270.6L27.89,270.52L29.01,268.25L30.12,265.12L31.24,264.26L32.36,259.9L33.47,260.62L34.59,259.41L35.7,261.27L36.82,262.28L37.93,253.79L39.05,215.08L40.17,145.24L41.28,129.27L42.4,128.15L44.63,112.06L45.74,114.33L46.86,95.54L47.98,97.42L49.09,98.72L50.21,104.25L51.32,106.45L52.44,100.67L54.67,137.79L55.79,131.38L59.13,139.65L60.25,139.46L62.48,134.04L63.6,135.61L64.71,135.42L65.83,141.78L68.06,131.82L69.17,131.97L70.29,133.94L71.4,132.29L72.52,131.89L73.64,137.4L74.75,145.8L75.87,139.66L76.98,115.86L78.1,113.81L79.21,116.28L80.33,123.7L81.45,124.98L82.56,127.43L83.68,123.76L84.79,123.88L87.02,124.89L88.14,131.75L89.26,131.01L90.37,131.36L91.49,131.61L92.6,123.71L93.72,126.05L94.83,118.55L95.95,119.07L97.07,103.98L98.18,110.05L99.3,108.32L100.41,120.52L101.53,116.09L102.64,124.18L103.76,122.5L105.99,125.29L107.11,123.83L108.22,130.42L109.34,132.44L112.69,133.96L113.8,131.15L114.92,129.56L116.03,122.03L118.26,139.17L119.38,142.93L120.5,143.81L121.61,140.94L122.73,139.45L123.84,149.48L124.96,153.17L126.07,151.16L127.19,157.29L128.31,157.38L131.65,203.78L132.77,205.95L133.88,202.82L135,205.03L136.12,197.6L137.23,200.87L138.35,197.04L139.46,202.05L141.69,193.12L142.81,194.41L145.04,188.39L146.16,183.17L147.27,181.5L148.39,186.74L152.85,175.9L153.97,173.15L155.08,179.51L156.2,179.54L159.55,167.27L160.66,167.66L161.78,165.02L162.89,167.42L164.01,177.52L165.12,176.39L166.24,173.31L167.36,183.92L168.47,173.91L169.59,174.73L170.7,170.23L171.82,177.26L175.17,139.41L176.28,144.45L178.51,127.27L179.63,128.84L180.74,120.05L181.86,122.45L185.21,95.92L186.32,93.45L187.44,100.66L188.55,83.49L189.67,90.74L190.79,107.81L191.9,113.24L193.02,94.89L194.13,113.28L195.25,109.55L198.6,108.06L199.71,86.89L201.94,78.94L203.06,53.93L204.17,70.76L205.29,67.67L207.52,52.58L208.64,54.22L209.75,44.59L210.87,54.32L211.98,52.43L213.1,34.41L215.33,30.91L216.45,16L219.79,39.3L220.91,37.45L222.02,82.03L223.14,55.61L224.26,57.07L225.37,49.2L226.49,46.72L227.6,41.49L228.72,47.58L229.83,43.65L230.95,52.56L232.07,39.5L233.18,38.97L234.3,37.54L235.41,32L236.53,31.04L237.64,32.51L238.76,23.16L239.88,37.28L240.99,33.37L243.22,21.27L244.34,17.71L246.57,28.91L247.69,24.73L248.8,24.67L249.92,33.12L251.03,25.57L252.15,34.13L253.26,30.54L254.38,33.81L255.5,31.68L256.61,25.96L257.73,26.86L258.84,32.75L259.96,46.42L261.07,36.08L262.19,34.52L263.31,52.89L264.42,58.6L265.54,72.69L266.65,77.26L267.77,72.19L270,78.95L271.12,78.78L272.23,85.26L273.35,78.27L274.46,71.54L275.58,73.4L276.69,78.5L277.81,67.35L280.04,78.89L281.16,94.46L282.27,84.44L283.39,103.49L284.5,103.67L285.62,100.07L286.74,110.85L287.85,113.72L288.97,126.45L290.08,118.45L291.2,114.19L292.31,136.91L293.43,131.03L294.55,141.2L295.66,139.08L296.78,140.65L299.01,138.06L300.12,146.04L301.24,154.82L302.36,152.24L304.59,168.79L305.7,164.45L307.93,169.77L309.05,164.84L311.28,161.92L312.4,164.34L313.51,183.35L314.63,188.03L316.86,175.86L317.98,174.62L319.09,167.36L320.21,167.42L321.32,174.96L322.44,177.3L326.9,199.22L328.02,193.87L329.13,193.27L330.25,195.25L331.36,202.15L332.48,201.9L333.6,197.88L334.71,197.29L335.83,193.16L336.94,184.69L338.06,182.35L339.17,187.5L340.29,187.98L341.4,183.5L342.52,182.64L343.64,188.87L344.75,189.06L345.87,187.15L346.98,187.9L348.1,189.63L349.21,189.49L350.33,192.81L351.45,201.64L352.56,203.75L354.79,210.5L355.91,207.78L357.02,199.91L358.14,202.71L359.26,199.1L360.37,198.17L363.72,204.6L364.83,200.48L367.07,199.98L368.18,196.67L369.3,197.98L370.41,202.61L371.53,202.68L372.64,206.87L373.76,207.14L374.88,213.36L378.22,204.85L379.34,208.16L380.45,202.73L381.57,205.9L382.69,199.93L383.8,201.66L384.92,202.1L386.03,199.81L387.15,206.19L388.26,201.28L389.38,203.03L390.5,208.46L391.61,204.31L392.73,204.09L393.84,203.56L394.96,205.94L396.07,206.43L397.19,209.24L399.42,211.51L400.54,215.46L401.65,214L402.77,214.02L403.88,212.93L405,209.43L406.12,211.88L407.23,210.98L409.46,209.33L410.58,211.17L411.69,212.12L412.81,211.52L413.93,211.46L415.04,214.05L417.27,218.04L418.39,220.73L419.5,223.93L420.62,230.52L421.74,233.42L422.85,259.17L425.08,250.8L426.2,250.12L427.31,251.68L428.43,251.22L429.55,248.13L430.66,248.29L432.89,250.93L434.01,251.07L435.12,251.08L436.24,252.18L437.36,250.18L438.47,250.7L439.59,264.17L440.7,261.61L442.93,258.87L444.05,263.01L445.17,259.04L446.28,258.77L447.4,259.75L448.51,258.04L449.63,258.43L450.74,265.99L451.86,268.15L452.98,266.59L454.09,264.13L455.21,266.37L456.32,266.1L457.44,266.86L458.55,269.71L459.67,268.7L460.79,270.07L461.9,265.77L463.02,268.14L464.13,278.71L466.36,271.64L467.48,273.17L468.6,274.36L469.71,272.34L470.83,271.09L471.94,275.39L473.06,275.66L474.17,286.18L476.4,277.69L477.52,279.57L478.64,277.1L479.75,277.18L480.87,275.09L481.98,270.74L483.1,270.64L484.21,272L485.33,274.65L486.45,275.14L487.56,279.98L488.68,277.73L489.79,275.38L490.91,271.03L493.14,269.54L494.26,271.14L495.37,271.89L496.49,284.64L497.6,287.02L498.72,287.05L499.83,286.54L500.95,287.81L503.18,286.82L504.3,291.18L505.41,291.08L506.53,293.8L508.76,287.37L509.88,286.98L513.22,293.43L514.34,293.27L515.45,291.45L516.57,292.49L517.69,291.21L518.8,292.22L519.92,290.33L521.03,291.23L522.15,294.37L523.26,290.29L524.38,290.94L525.5,290.07L526.61,290.62L527.73,292.22L528.84,292.54L529.96,301L531.07,300.97L532.19,302.3L535.54,298.41L536.65,298.4L537.77,298.52L538.88,304L540,303.18" style="fill: rgb(99, 110, 250); fill-opacity: 0.5; stroke-width: 0;"/></g></g><g class="errorbars"/><g class="lines"><path class="js-line" d="M0,284.29L1.12,278.12L2.23,279.39L3.35,277.82L4.46,285.87L5.58,280.19L6.69,278.64L7.81,278.73L8.93,273.51L10.04,284.35L11.16,275.46L12.27,269.51L13.39,270.73L14.5,274.12L15.62,268.85L16.74,269.17L17.85,265.21L18.97,265.31L20.08,268.54L21.2,266.5L22.31,266.87L23.43,271.24L24.55,268.77L25.66,268.45L26.78,270.6L27.89,270.52L29.01,268.25L30.12,265.12L31.24,264.26L32.36,259.9L33.47,260.62L34.59,259.41L35.7,261.27L36.82,262.28L37.93,253.79L39.05,215.08L40.17,145.24L41.28,129.27L42.4,128.15L44.63,112.06L45.74,114.33L46.86,95.54L47.98,97.42L49.09,98.72L50.21,104.25L51.32,106.45L52.44,100.67L54.67,137.79L55.79,131.38L59.13,139.65L60.25,139.46L62.48,134.04L63.6,135.61L64.71,135.42L65.83,141.78L68.06,131.82L69.17,131.97L70.29,133.94L71.4,132.29L72.52,131.89L73.64,137.4L74.75,145.8L75.87,139.66L76.98,115.86L78.1,113.81L79.21,116.28L80.33,123.7L81.45,124.98L82.56,127.43L83.68,123.76L84.79,123.88L87.02,124.89L88.14,131.75L89.26,131.01L90.37,131.36L91.49,131.61L92.6,123.71L93.72,126.05L94.83,118.55L95.95,119.07L97.07,103.98L98.18,110.05L99.3,108.32L100.41,120.52L101.53,116.09L102.64,124.18L103.76,122.5L105.99,125.29L107.11,123.83L108.22,130.42L109.34,132.44L112.69,133.96L113.8,131.15L114.92,129.56L116.03,122.03L118.26,139.17L119.38,142.93L120.5,143.81L121.61,140.94L122.73,139.45L123.84,149.48L124.96,153.17L126.07,151.16L127.19,157.29L128.31,157.38L131.65,203.78L132.77,205.95L133.88,202.82L135,205.03L136.12,197.6L137.23,200.87L138.35,197.04L139.46,202.05L141.69,193.12L142.81,194.41L145.04,188.39L146.16,183.17L147.27,181.5L148.39,186.74L152.85,175.9L153.97,173.15L155.08,179.51L156.2,179.54L159.55,167.27L160.66,167.66L161.78,165.02L162.89,167.42L164.01,177.52L165.12,176.39L166.24,173.31L167.36,183.92L168.47,173.91L169.59,174.73L170.7,170.23L171.82,177.26L175.17,139.41L176.28,144.45L178.51,127.27L179.63,128.84L180.74,120.05L181.86,122.45L185.21,95.92L186.32,93.45L187.44,100.66L188.55,83.49L189.67,90.74L190.79,107.81L191.9,113.24L193.02,94.89L194.13,113.28L195.25,109.55L198.6,108.06L199.71,86.89L201.94,78.94L203.06,53.93L204.17,70.76L205.29,67.67L207.52,52.58L208.64,54.22L209.75,44.59L210.87,54.32L211.98,52.43L213.1,34.41L215.33,30.91L216.45,16L219.79,39.3L220.91,37.45L222.02,82.03L223.14,55.61L224.26,57.07L225.37,49.2L226.49,46.72L227.6,41.49L228.72,47.58L229.83,43.65L230.95,52.56L232.07,39.5L233.18,38.97L234.3,37.54L235.41,32L236.53,31.04L237.64,32.51L238.76,23.16L239.88,37.28L240.99,33.37L243.22,21.27L244.34,17.71L246.57,28.91L247.69,24.73L248.8,24.67L249.92,33.12L251.03,25.57L252.15,34.13L253.26,30.54L254.38,33.81L255.5,31.68L256.61,25.96L257.73,26.86L258.84,32.75L259.96,46.42L261.07,36.08L262.19,34.52L263.31,52.89L264.42,58.6L265.54,72.69L266.65,77.26L267.77,72.19L270,78.95L271.12,78.78L272.23,85.26L273.35,78.27L274.46,71.54L275.58,73.4L276.69,78.5L277.81,67.35L280.04,78.89L281.16,94.46L282.27,84.44L283.39,103.49L284.5,103.67L285.62,100.07L286.74,110.85L287.85,113.72L288.97,126.45L290.08,118.45L291.2,114.19L292.31,136.91L293.43,131.03L294.55,141.2L295.66,139.08L296.78,140.65L299.01,138.06L300.12,146.04L301.24,154.82L302.36,152.24L304.59,168.79L305.7,164.45L307.93,169.77L309.05,164.84L311.28,161.92L312.4,164.34L313.51,183.35L314.63,188.03L316.86,175.86L317.98,174.62L319.09,167.36L320.21,167.42L321.32,174.96L322.44,177.3L326.9,199.22L328.02,193.87L329.13,193.27L330.25,195.25L331.36,202.15L332.48,201.9L333.6,197.88L334.71,197.29L335.83,193.16L336.94,184.69L338.06,182.35L339.17,187.5L340.29,187.98L341.4,183.5L342.52,182.64L343.64,188.87L344.75,189.06L345.87,187.15L346.98,187.9L348.1,189.63L349.21,189.49L350.33,192.81L351.45,201.64L352.56,203.75L354.79,210.5L355.91,207.78L357.02,199.91L358.14,202.71L359.26,199.1L360.37,198.17L363.72,204.6L364.83,200.48L367.07,199.98L368.18,196.67L369.3,197.98L370.41,202.61L371.53,202.68L372.64,206.87L373.76,207.14L374.88,213.36L378.22,204.85L379.34,208.16L380.45,202.73L381.57,205.9L382.69,199.93L383.8,201.66L384.92,202.1L386.03,199.81L387.15,206.19L388.26,201.28L389.38,203.03L390.5,208.46L391.61,204.31L392.73,204.09L393.84,203.56L394.96,205.94L396.07,206.43L397.19,209.24L399.42,211.51L400.54,215.46L401.65,214L402.77,214.02L403.88,212.93L405,209.43L406.12,211.88L407.23,210.98L409.46,209.33L410.58,211.17L411.69,212.12L412.81,211.52L413.93,211.46L415.04,214.05L417.27,218.04L418.39,220.73L419.5,223.93L420.62,230.52L421.74,233.42L422.85,259.17L425.08,250.8L426.2,250.12L427.31,251.68L428.43,251.22L429.55,248.13L430.66,248.29L432.89,250.93L434.01,251.07L435.12,251.08L436.24,252.18L437.36,250.18L438.47,250.7L439.59,264.17L440.7,261.61L442.93,258.87L444.05,263.01L445.17,259.04L446.28,258.77L447.4,259.75L448.51,258.04L449.63,258.43L450.74,265.99L451.86,268.15L452.98,266.59L454.09,264.13L455.21,266.37L456.32,266.1L457.44,266.86L458.55,269.71L459.67,268.7L460.79,270.07L461.9,265.77L463.02,268.14L464.13,278.71L466.36,271.64L467.48,273.17L468.6,274.36L469.71,272.34L470.83,271.09L471.94,275.39L473.06,275.66L474.17,286.18L476.4,277.69L477.52,279.57L478.64,277.1L479.75,277.18L480.87,275.09L481.98,270.74L483.1,270.64L484.21,272L485.33,274.65L486.45,275.14L487.56,279.98L488.68,277.73L489.79,275.38L490.91,271.03L493.14,269.54L494.26,271.14L495.37,271.89L496.49,284.64L497.6,287.02L498.72,287.05L499.83,286.54L500.95,287.81L503.18,286.82L504.3,291.18L505.41,291.08L506.53,293.8L508.76,287.37L509.88,286.98L513.22,293.43L514.34,293.27L515.45,291.45L516.57,292.49L517.69,291.21L518.8,292.22L519.92,290.33L521.03,291.23L522.15,294.37L523.26,290.29L524.38,290.94L525.5,290.07L526.61,290.62L527.73,292.22L528.84,292.54L529.96,301L531.07,300.97L532.19,302.3L535.54,298.41L536.65,298.4L537.77,298.52L538.88,304L540,303.18" style="vector-effect: none; fill: none; stroke: rgb(99, 110, 250); stroke-opacity: 1; stroke-width: 2px; opacity: 1;"/></g><g class="points"/><g class="text"/></g></g></g><g class="overplot"/><path class="xlines-above crisp" d="M0,0" style="fill: none;"/><path class="ylines-above crisp" d="M0,0" style="fill: none;"/><g class="overlines-above"/><g class="xaxislayer-above"><g class="xtick"><text text-anchor="middle" x="0" y="433" transform="translate(90.03999999999999,0)" style="font-family: 'Open Sans', verdana, arial, sans-serif; font-size: 12px; fill: rgb(42, 63, 95); fill-opacity: 1; white-space: pre; opacity: 1;">Oct 2022</text></g><g class="xtick"><text text-anchor="middle" x="0" y="433" style="font-family: 'Open Sans', verdana, arial, sans-serif; font-size: 12px; fill: rgb(42, 63, 95); fill-opacity: 1; white-space: pre; opacity: 1;" transform="translate(192.69,0)">Jan 2023</text></g><g class="xtick"><text text-anchor="middle" x="0" y="433" style="font-family: 'Open Sans', verdana, arial, sans-serif; font-size: 12px; fill: rgb(42, 63, 95); fill-opacity: 1; white-space: pre; opacity: 1;" transform="translate(293.1,0)">Apr 2023</text></g><g class="xtick"><text text-anchor="middle" x="0" y="433" style="font-family: 'Open Sans', verdana, arial, sans-serif; font-size: 12px; fill: rgb(42, 63, 95); fill-opacity: 1; white-space: pre; opacity: 1;" transform="translate(394.63,0)">Jul 2023</text></g><g class="xtick"><text text-anchor="middle" x="0" y="433" style="font-family: 'Open Sans', verdana, arial, sans-serif; font-size: 12px; fill: rgb(42, 63, 95); fill-opacity: 1; white-space: pre; opacity: 1;" transform="translate(497.27,0)">Oct 2023</text></g><g class="xtick"><text text-anchor="middle" x="0" y="433" style="font-family: 'Open Sans', verdana, arial, sans-serif; font-size: 12px; fill: rgb(42, 63, 95); fill-opacity: 1; white-space: pre; opacity: 1;" transform="translate(599.92,0)">Jan 2024</text></g></g><g class="yaxislayer-above"><g class="ytick"><text text-anchor="end" x="79" y="4.199999999999999" transform="translate(0,388.79)" style="font-family: 'Open Sans', verdana, arial, sans-serif; font-size: 12px; fill: rgb(42, 63, 95); fill-opacity: 1; white-space: pre; opacity: 1;">$0</text></g><g class="ytick"><text text-anchor="end" x="79" y="4.199999999999999" style="font-family: 'Open Sans', verdana, arial, sans-serif; font-size: 12px; fill: rgb(42, 63, 95); fill-opacity: 1; white-space: pre; opacity: 1;" transform="translate(0,339.37)">$2M</text></g><g class="ytick"><text text-anchor="end" x="79" y="4.199999999999999" style="font-family: 'Open Sans', verdana, arial, sans-serif; font-size: 12px; fill: rgb(42, 63, 95); fill-opacity: 1; white-space: pre; opacity: 1;" transform="translate(0,289.95)">$4M</text></g><g class="ytick"><text text-anchor="end" x="79" y="4.199999999999999" style="font-family: 'Open Sans', verdana, arial, sans-serif; font-size: 12px; fill: rgb(42, 63, 95); fill-opacity: 1; white-space: pre; opacity: 1;" transform="translate(0,240.52)">$6M</text></g><g class="ytick"><text text-anchor="end" x="79" y="4.199999999999999" style="font-family: 'Open Sans', verdana, arial, sans-serif; font-size: 12px; fill: rgb(42, 63, 95); fill-opacity: 1; white-space: pre; opacity: 1;" transform="translate(0,191.1)">$8M</text></g><g class="ytick"><text text-anchor="end" x="79" y="4.199999999999999" style="font-family: 'Open Sans', verdana, arial, sans-serif; font-size: 12px; fill: rgb(42, 63, 95); fill-opacity: 1; white-space: pre; opacity: 1;" transform="translate(0,141.68)">$10M</text></g></g><g class="overaxes-above"/></g></g><g class="polarlayer"/><g class="smithlayer"/><g class="ternarylayer"/><g class="geolayer"/><g class="funnelarealayer"/><g class="pielayer"/><g class="iciclelayer"/><g class="treemaplayer"/><g class="sunburstlayer"/><g class="glimages"/><defs id="topdefs-8348e9"><g class="clips"/></defs><g class="layer-above"><g class="imagelayer"/><g class="shapelayer"/></g><g class="infolayer"><g class="g-gtitle"><text class="gtitle" x="35" y="50" text-anchor="start" dy="0em" style="font-family: 'Open Sans', verdana, arial, sans-serif; font-size: 17px; fill: rgb(42, 63, 95); opacity: 1; font-weight: normal; white-space: pre;"><tspan class="line" dy="0em" x="35" y="50">Hop Protocol</tspan><tspan class="line" dy="1.3em" x="35" y="50">​<tspan style="font-size:70%" dy="-0.6em">Cumulative Net Flows since Program Announcement, Until Program End + 30 Days - At Last Price</tspan><tspan dy="0.42em">​</tspan></tspan></text></g><g class="g-xtitle"><text class="xtitle" x="350" y="460.3" text-anchor="middle" style="font-family: 'Open Sans', verdana, arial, sans-serif; font-size: 14px; fill: rgb(42, 63, 95); opacity: 1; font-weight: normal; white-space: pre;">Day</text></g><g class="g-ytitle"><text class="ytitle" transform="rotate(-90,24.668750000000003,260)" x="24.668750000000003" y="260" text-anchor="middle" style="font-family: 'Open Sans', verdana, arial, sans-serif; font-size: 14px; fill: rgb(42, 63, 95); opacity: 1; font-weight: normal; white-space: pre;">Cumulative Net Flows (USD)</text></g></g></svg>